<svg width="36" height="36" viewBox="0 0 36 36" fill="none" xmlns="http://www.w3.org/2000/svg">
<g filter="url(#filter0_i_822_41056)">
<rect x="0.600098" y="0.599609" width="34" height="34" rx="4" fill="white"/>
<rect x="0.300098" y="0.299609" width="34.6" height="34.6" rx="4.3" stroke="#E7E7E7" stroke-width="0.6"/>
<path d="M30.5422 16.4824L29.1203 12.9277C28.9996 12.6268 28.7913 12.3691 28.5224 12.188C28.2535 12.0069 27.9363 11.9108 27.6121 11.9121H24.1001V11.0996C24.1001 10.8841 24.0145 10.6775 23.8621 10.5251C23.7097 10.3727 23.5031 10.2871 23.2876 10.2871H7.8501C7.41912 10.2871 7.0058 10.4583 6.70105 10.7631C6.3963 11.0678 6.2251 11.4811 6.2251 11.9121V23.2871C6.2251 23.7181 6.3963 24.1314 6.70105 24.4362C7.0058 24.7409 7.41912 24.9121 7.8501 24.9121H9.57666C9.75565 25.6112 10.1622 26.2308 10.7323 26.6733C11.3023 27.1158 12.0035 27.356 12.7251 27.356C13.4467 27.356 14.1479 27.1158 14.7179 26.6733C15.288 26.2308 15.6945 25.6112 15.8735 24.9121H20.9517C21.1307 25.6112 21.5372 26.2308 22.1073 26.6733C22.6773 27.1158 23.3785 27.356 24.1001 27.356C24.8217 27.356 25.5229 27.1158 26.0929 26.6733C26.663 26.2308 27.0695 25.6112 27.2485 24.9121H28.9751C29.4061 24.9121 29.8194 24.7409 30.1241 24.4362C30.4289 24.1314 30.6001 23.7181 30.6001 23.2871V16.7871C30.6002 16.6828 30.5806 16.5794 30.5422 16.4824ZM12.7251 25.7246C12.4037 25.7246 12.0895 25.6293 11.8223 25.4507C11.5551 25.2722 11.3468 25.0184 11.2238 24.7215C11.1008 24.4245 11.0686 24.0978 11.1313 23.7826C11.194 23.4674 11.3488 23.1778 11.576 22.9506C11.8033 22.7233 12.0929 22.5685 12.4081 22.5058C12.7233 22.4431 13.05 22.4753 13.347 22.5983C13.6439 22.7213 13.8977 22.9296 14.0762 23.1968C14.2548 23.464 14.3501 23.7782 14.3501 24.0996C14.3501 24.5306 14.1789 24.9439 13.8741 25.2487C13.5694 25.5534 13.1561 25.7246 12.7251 25.7246ZM7.8501 18.4121V11.9121H22.4751V18.4121H7.8501ZM24.1001 25.7246C23.7787 25.7246 23.4645 25.6293 23.1973 25.4507C22.9301 25.2722 22.7218 25.0184 22.5988 24.7215C22.4758 24.4245 22.4436 24.0978 22.5063 23.7826C22.569 23.4674 22.7238 23.1778 22.951 22.9506C23.1783 22.7233 23.4679 22.5685 23.7831 22.5058C24.0983 22.4431 24.425 22.4753 24.722 22.5983C25.0189 22.7213 25.2727 22.9296 25.4512 23.1968C25.6298 23.464 25.7251 23.7782 25.7251 24.0996C25.7251 24.5306 25.5539 24.9439 25.2491 25.2487C24.9444 25.5534 24.5311 25.7246 24.1001 25.7246ZM24.1001 15.9746V13.5371H27.6121L28.5871 15.9746H24.1001Z" fill="black"/>
</g>
<defs>
<filter id="filter0_i_822_41056" x="-4" y="-1" width="39.2002" height="36.1992" filterUnits="userSpaceOnUse" color-interpolation-filters="sRGB">
<feFlood flood-opacity="0" result="BackgroundImageFix"/>
<feBlend mode="normal" in="SourceGraphic" in2="BackgroundImageFix" result="shape"/>
<feColorMatrix in="SourceAlpha" type="matrix" values="0 0 0 0 0 0 0 0 0 0 0 0 0 0 0 0 0 0 127 0" result="hardAlpha"/>
<feOffset dx="-4" dy="-1"/>
<feGaussianBlur stdDeviation="4"/>
<feComposite in2="hardAlpha" operator="arithmetic" k2="-1" k3="1"/>
<feColorMatrix type="matrix" values="0 0 0 0 0 0 0 0 0 0 0 0 0 0 0 0 0 0 0.07 0"/>
<feBlend mode="normal" in2="shape" result="effect1_innerShadow_822_41056"/>
</filter>
</defs>
</svg>
