<svg width="198" height="127" viewBox="0 0 198 127" fill="none" xmlns="http://www.w3.org/2000/svg">
<path d="M180.186 12.0712C180.354 10.8688 178.655 9.87902 177.381 9.77693C176.772 9.72588 176.139 9.81946 175.564 9.61811C174.316 9.1842 173.817 7.57053 172.6 7.06573C171.69 6.68003 170.64 7.02319 169.764 7.46844C168.888 7.91369 168.008 8.47237 167.021 8.53477C166.171 8.58865 165.232 8.27102 164.469 8.69075C163.902 9.0027 163.618 9.64647 163.102 10.0265C162.586 10.4065 161.939 10.4774 161.313 10.5114C160.686 10.5455 160.039 10.5511 159.469 10.8121C158.899 11.073 158.428 11.6629 158.548 12.2924L180.186 12.0712Z" fill="#F5F5F5"/>
<path d="M43.5807 33.4863H19.6107V109.451H43.5807V33.4863Z" fill="#F5F5F5"/>
<path d="M43.58 33.4863H31.595V109.241H43.58V33.4863Z" fill="#EBEBEB"/>
<path d="M30.8092 26.0293H22.3437V33.4879H30.8092V26.0293Z" fill="#F5F5F5"/>
<path d="M30.8108 26.0293H28.7944V33.4879H30.8108V26.0293Z" fill="#EBEBEB"/>
<path d="M17.6164 33.4866V33.0527H44.2834V33.4866" fill="#E0E0E0"/>
<path d="M26.3719 36.7383H24.3441V41.0149H26.3719V36.7383Z" fill="#FAFAFA"/>
<path d="M31.5957 42.6994C31.5957 42.742 28.9128 42.7788 25.6032 42.7788C22.2936 42.7788 19.6107 42.742 19.6107 42.6994C19.6107 42.6569 22.2936 42.6172 25.6032 42.6172C28.9128 42.6172 31.5957 42.6512 31.5957 42.6994Z" fill="#E0E0E0"/>
<path d="M38.4546 36.7383H36.4269V41.0149H38.4546V36.7383Z" fill="#E0E0E0"/>
<path d="M43.6785 42.6994C43.6785 42.742 40.9956 42.7788 37.686 42.7788C34.3764 42.7788 31.6935 42.742 31.6935 42.6994C31.6935 42.6569 34.3764 42.6172 37.686 42.6172C40.9956 42.6172 43.6785 42.6512 43.6785 42.6994Z" fill="#E0E0E0"/>
<path d="M38.4546 45.2324H36.4269V49.5119H38.4546V45.2324Z" fill="#E0E0E0"/>
<path d="M43.6785 51.1916C43.6785 51.2342 40.9956 51.271 37.686 51.271C34.3764 51.271 31.6935 51.2342 31.6935 51.1916C31.6935 51.1491 34.3764 51.1094 37.686 51.1094C40.9956 51.1094 43.6785 51.1462 43.6785 51.1916Z" fill="#E0E0E0"/>
<path d="M38.4546 53.9805H36.4269V58.2571H38.4546V53.9805Z" fill="#E0E0E0"/>
<path d="M43.6785 59.9377C43.6785 59.9831 40.9956 60.02 37.686 60.02C34.3764 60.02 31.6935 59.9831 31.6935 59.9377C31.6935 59.8923 34.3764 59.8555 37.686 59.8555C40.9956 59.8555 43.6785 59.8923 43.6785 59.9377Z" fill="#E0E0E0"/>
<path d="M38.4546 62.7324H36.4269V67.0091H38.4546V62.7324Z" fill="#E0E0E0"/>
<path d="M43.6785 68.6877C43.6785 68.7331 40.9956 68.77 37.686 68.77C34.3764 68.77 31.6935 68.7331 31.6935 68.6877C31.6935 68.6423 34.3764 68.6055 37.686 68.6055C40.9956 68.6055 43.6785 68.6423 43.6785 68.6877Z" fill="#E0E0E0"/>
<path d="M38.4546 71.2324H36.4269V75.5091H38.4546V71.2324Z" fill="#E0E0E0"/>
<path d="M43.6785 77.1877C43.6785 77.2331 40.9956 77.27 37.686 77.27C34.3764 77.27 31.6935 77.2331 31.6935 77.1877C31.6935 77.1423 34.3764 77.1055 37.686 77.1055C40.9956 77.1055 43.6785 77.1423 43.6785 77.1877Z" fill="#E0E0E0"/>
<path d="M38.4546 79.7656H36.4269V84.0423H38.4546V79.7656Z" fill="#E0E0E0"/>
<path d="M38.4546 88.4102H36.4269V92.6868H38.4546V88.4102Z" fill="#E0E0E0"/>
<path d="M43.6785 85.722C43.6785 85.7674 40.9956 85.8042 37.686 85.8042C34.3764 85.8042 31.6935 85.7674 31.6935 85.722C31.6935 85.6766 34.3764 85.6426 37.686 85.6426C40.9956 85.6426 43.6785 85.6794 43.6785 85.722Z" fill="#E0E0E0"/>
<path d="M26.3719 45.3633H24.3441V49.6399H26.3719V45.3633Z" fill="#FAFAFA"/>
<path d="M31.5957 51.3166C31.5957 51.362 28.9128 51.3989 25.6032 51.3989C22.2936 51.3989 19.6107 51.362 19.6107 51.3166C19.6107 51.2712 22.2936 51.2344 25.6032 51.2344C28.9128 51.2344 31.5957 51.2712 31.5957 51.3166Z" fill="#E0E0E0"/>
<path d="M26.3719 53.9844H24.3441V58.261H26.3719V53.9844Z" fill="#FAFAFA"/>
<path d="M31.5957 59.9416C31.5957 59.987 28.9128 60.0239 25.6032 60.0239C22.2936 60.0239 19.6107 59.987 19.6107 59.9416C19.6107 59.8962 22.2936 59.8594 25.6032 59.8594C28.9128 59.8594 31.5957 59.8962 31.5957 59.9416Z" fill="#E0E0E0"/>
<path d="M26.3719 62.6074H24.3441V66.8841H26.3719V62.6074Z" fill="#FAFAFA"/>
<path d="M31.5957 68.5647C31.5957 68.6072 28.9128 68.6441 25.6032 68.6441C22.2936 68.6441 19.6107 68.6072 19.6107 68.5647C19.6107 68.5221 22.2936 68.4824 25.6032 68.4824C28.9128 68.4824 31.5957 68.5193 31.5957 68.5647Z" fill="#E0E0E0"/>
<path d="M26.3719 71.2324H24.3441V75.5091H26.3719V71.2324Z" fill="#FAFAFA"/>
<path d="M31.5957 77.1877C31.5957 77.2331 28.9128 77.27 25.6032 77.27C22.2936 77.27 19.6107 77.2331 19.6107 77.1877C19.6107 77.1423 22.2936 77.1055 25.6032 77.1055C28.9128 77.1055 31.5957 77.1423 31.5957 77.1877Z" fill="#E0E0E0"/>
<path d="M26.3719 79.8535H24.3441V84.1302H26.3719V79.8535Z" fill="#FAFAFA"/>
<path d="M31.5957 85.8069C31.5957 85.8522 28.9128 85.8891 25.6032 85.8891C22.2936 85.8891 19.6107 85.8522 19.6107 85.8069C19.6107 85.7615 22.2936 85.7246 25.6032 85.7246C28.9128 85.7246 31.5957 85.7672 31.5957 85.8069Z" fill="#E0E0E0"/>
<path d="M26.3719 88.4766H24.3441V92.7532H26.3719V88.4766Z" fill="#FAFAFA"/>
<path d="M138.163 16.1602H103.612V125.657H138.163V16.1602Z" fill="#F5F5F5"/>
<path d="M138.158 16.1602H120.883V125.357H138.158V16.1602Z" fill="#EBEBEB"/>
<path d="M119.752 5.41211H107.551V16.1633H119.752V5.41211Z" fill="#F5F5F5"/>
<path d="M119.752 5.41211H116.846V16.1633H119.752V5.41211Z" fill="#EBEBEB"/>
<path d="M100.731 16.16V15.5332H139.17V16.16" fill="#E0E0E0"/>
<path d="M113.349 20.8516H110.426V27.017H113.349V20.8516Z" fill="#FAFAFA"/>
<path d="M120.886 29.4366C120.886 29.5018 117.02 29.5557 112.25 29.5557C107.48 29.5557 103.612 29.5018 103.612 29.4366C103.612 29.3714 107.477 29.3203 112.25 29.3203C117.023 29.3203 120.886 29.3714 120.886 29.4366Z" fill="#E0E0E0"/>
<path d="M130.781 20.8516H127.857V27.017H130.781V20.8516Z" fill="#E0E0E0"/>
<path d="M138.314 29.4366C138.314 29.5018 134.446 29.5557 129.676 29.5557C124.906 29.5557 121.037 29.5018 121.037 29.4366C121.037 29.3714 124.906 29.3203 129.676 29.3203C134.446 29.3203 138.314 29.3714 138.314 29.4366Z" fill="#E0E0E0"/>
<path d="M130.781 33.0938H127.857V39.2592H130.781V33.0938Z" fill="#E0E0E0"/>
<path d="M138.314 41.6816C138.314 41.7468 134.446 41.7979 129.676 41.7979C124.906 41.7979 121.037 41.7468 121.037 41.6816C121.037 41.6164 124.906 41.5625 129.676 41.5625C134.446 41.5625 138.314 41.6164 138.314 41.6816Z" fill="#E0E0E0"/>
<path d="M130.781 45.7051H127.857V51.8705H130.781V45.7051Z" fill="#E0E0E0"/>
<path d="M138.314 54.2929C138.314 54.3582 134.446 54.412 129.676 54.412C124.906 54.412 121.037 54.3582 121.037 54.2929C121.037 54.2277 124.906 54.1738 129.676 54.1738C134.446 54.1738 138.314 54.2277 138.314 54.2929Z" fill="#E0E0E0"/>
<path d="M130.781 58.3184H127.857V64.4838H130.781V58.3184Z" fill="#E0E0E0"/>
<path d="M138.314 66.9053C138.314 66.9706 134.446 67.0244 129.676 67.0244C124.906 67.0244 121.037 66.9706 121.037 66.9053C121.037 66.8401 124.906 66.7891 129.676 66.7891C134.446 66.7891 138.314 66.8401 138.314 66.9053Z" fill="#E0E0E0"/>
<path d="M130.781 70.5703H127.857V76.7357H130.781V70.5703Z" fill="#E0E0E0"/>
<path d="M138.314 79.1601C138.314 79.2225 134.446 79.2764 129.676 79.2764C124.906 79.2764 121.037 79.2225 121.037 79.1601C121.037 79.0977 124.906 79.041 129.676 79.041C134.446 79.041 138.314 79.0949 138.314 79.1601Z" fill="#E0E0E0"/>
<path d="M130.781 82.8711H127.857V89.0365H130.781V82.8711Z" fill="#E0E0E0"/>
<path d="M130.781 95.3359H127.857V101.501H130.781V95.3359Z" fill="#E0E0E0"/>
<path d="M138.314 91.46C138.314 91.5253 134.446 91.5791 129.676 91.5791C124.906 91.5791 121.037 91.5253 121.037 91.46C121.037 91.3948 124.906 91.3438 129.676 91.3438C134.446 91.3438 138.314 91.3948 138.314 91.46Z" fill="#E0E0E0"/>
<path d="M113.349 33.2812H110.426V39.4467H113.349V33.2812Z" fill="#FAFAFA"/>
<path d="M120.886 41.8691C120.886 41.9315 117.02 41.9854 112.25 41.9854C107.48 41.9854 103.612 41.9315 103.612 41.8691C103.612 41.8067 107.477 41.75 112.25 41.75C117.023 41.75 120.886 41.8039 120.886 41.8691Z" fill="#E0E0E0"/>
<path d="M113.349 45.7129H110.426V51.8783H113.349V45.7129Z" fill="#FAFAFA"/>
<path d="M120.886 54.2968C120.886 54.3592 117.02 54.4131 112.25 54.4131C107.48 54.4131 103.612 54.3592 103.612 54.2968C103.612 54.2345 107.477 54.1777 112.25 54.1777C117.023 54.1777 120.886 54.2316 120.886 54.2968Z" fill="#E0E0E0"/>
<path d="M113.349 58.1406H110.426V64.306H113.349V58.1406Z" fill="#FAFAFA"/>
<path d="M120.886 66.7285C120.886 66.7909 117.02 66.8448 112.25 66.8448C107.48 66.8448 103.612 66.7909 103.612 66.7285C103.612 66.6661 107.477 66.6094 112.25 66.6094C117.023 66.6094 120.886 66.6633 120.886 66.7285Z" fill="#E0E0E0"/>
<path d="M113.349 70.5703H110.426V76.7357H113.349V70.5703Z" fill="#FAFAFA"/>
<path d="M120.886 79.1601C120.886 79.2225 117.02 79.2764 112.25 79.2764C107.48 79.2764 103.612 79.2225 103.612 79.1601C103.612 79.0977 107.477 79.041 112.25 79.041C117.023 79.041 120.886 79.0949 120.886 79.1601Z" fill="#E0E0E0"/>
<path d="M113.349 83H110.426V89.1654H113.349V83Z" fill="#FAFAFA"/>
<path d="M120.886 91.5898C120.886 91.655 117.02 91.7061 112.25 91.7061C107.48 91.7061 103.612 91.655 103.612 91.5898C103.612 91.5246 107.477 91.4707 112.25 91.4707C117.023 91.4707 120.886 91.5246 120.886 91.5898Z" fill="#E0E0E0"/>
<path d="M113.349 95.4316H110.426V101.597H113.349V95.4316Z" fill="#FAFAFA"/>
<path d="M150.353 65.834H131.477V125.656H150.353V65.834Z" fill="#F5F5F5"/>
<path d="M150.351 65.834H140.913V125.492H150.351V65.834Z" fill="#EBEBEB"/>
<path d="M140.296 59.959H133.631V65.8323H140.296V59.959Z" fill="#F5F5F5"/>
<path d="M140.297 59.959H138.709V65.8323H140.297V59.959Z" fill="#EBEBEB"/>
<path d="M129.907 65.8334V65.4902H150.91V65.8334" fill="#E0E0E0"/>
<path d="M136.797 68.3945H135.201V71.7637H136.797V68.3945Z" fill="#FAFAFA"/>
<path d="M140.915 73.0867C140.915 73.1207 138.802 73.1491 136.196 73.1491C133.589 73.1491 131.477 73.1207 131.477 73.0867C131.477 73.0527 133.589 73.0215 136.196 73.0215C138.802 73.0215 140.915 73.0442 140.915 73.0867Z" fill="#E0E0E0"/>
<path d="M146.319 68.3945H144.723V71.7637H146.319V68.3945Z" fill="#E0E0E0"/>
<path d="M150.437 73.0867C150.437 73.1207 148.324 73.1491 145.718 73.1491C143.112 73.1491 140.999 73.1207 140.999 73.0867C140.999 73.0527 143.112 73.0215 145.718 73.0215C148.324 73.0215 150.437 73.0442 150.437 73.0867Z" fill="#E0E0E0"/>
<path d="M146.319 75.082H144.723V78.4512H146.319V75.082Z" fill="#E0E0E0"/>
<path d="M150.437 79.7742C150.437 79.8111 148.324 79.8394 145.718 79.8394C143.112 79.8394 140.999 79.8111 140.999 79.7742C140.999 79.7373 143.112 79.709 145.718 79.709C148.324 79.709 150.437 79.7402 150.437 79.7742Z" fill="#E0E0E0"/>
<path d="M146.319 81.9746H144.723V85.3438H146.319V81.9746Z" fill="#E0E0E0"/>
<path d="M150.437 86.657C150.437 86.6911 148.324 86.7223 145.718 86.7223C143.112 86.7223 140.999 86.6911 140.999 86.657C140.999 86.623 143.112 86.5918 145.718 86.5918C148.324 86.5918 150.437 86.6287 150.437 86.657Z" fill="#E0E0E0"/>
<path d="M146.319 88.8652H144.723V92.2344H146.319V88.8652Z" fill="#E0E0E0"/>
<path d="M150.437 93.5574C150.437 93.5914 148.324 93.6198 145.718 93.6198C143.112 93.6198 140.999 93.5914 140.999 93.5574C140.999 93.5234 143.112 93.4922 145.718 93.4922C148.324 93.4922 150.437 93.5205 150.437 93.5574Z" fill="#E0E0E0"/>
<path d="M146.319 95.5586H144.723V98.9277H146.319V95.5586Z" fill="#E0E0E0"/>
<path d="M150.437 100.249C150.437 100.286 148.324 100.314 145.718 100.314C143.112 100.314 140.999 100.286 140.999 100.249C140.999 100.212 143.112 100.184 145.718 100.184C148.324 100.184 150.437 100.212 150.437 100.249Z" fill="#E0E0E0"/>
<path d="M146.319 102.281H144.723V105.65H146.319V102.281Z" fill="#E0E0E0"/>
<path d="M146.319 109.088H144.723V112.457H146.319V109.088Z" fill="#E0E0E0"/>
<path d="M150.437 106.971C150.437 107.006 148.324 107.034 145.718 107.034C143.112 107.034 140.999 107.006 140.999 106.971C140.999 106.937 143.112 106.906 145.718 106.906C148.324 106.906 150.437 106.935 150.437 106.971Z" fill="#E0E0E0"/>
<path d="M136.797 75.1855H135.201V78.5547H136.797V75.1855Z" fill="#FAFAFA"/>
<path d="M140.915 79.8758C140.915 79.9126 138.802 79.941 136.196 79.941C133.589 79.941 131.477 79.9126 131.477 79.8758C131.477 79.8389 133.589 79.8105 136.196 79.8105C138.802 79.8105 140.915 79.8503 140.915 79.8758Z" fill="#E0E0E0"/>
<path d="M136.797 81.9785H135.201V85.3477H136.797V81.9785Z" fill="#FAFAFA"/>
<path d="M140.915 86.657C140.915 86.6911 138.802 86.7194 136.196 86.7194C133.589 86.7194 131.477 86.6911 131.477 86.657C131.477 86.623 133.589 86.5918 136.196 86.5918C138.802 86.5918 140.915 86.6315 140.915 86.657Z" fill="#E0E0E0"/>
<path d="M136.797 88.7676H135.201V92.1367H136.797V88.7676Z" fill="#FAFAFA"/>
<path d="M140.915 93.4647C140.915 93.5016 138.802 93.53 136.196 93.53C133.589 93.53 131.477 93.5016 131.477 93.4647C131.477 93.4279 133.589 93.4023 136.196 93.4023C138.802 93.4023 140.915 93.425 140.915 93.4647Z" fill="#E0E0E0"/>
<path d="M136.797 95.5586H135.201V98.9277H136.797V95.5586Z" fill="#FAFAFA"/>
<path d="M140.915 100.249C140.915 100.286 138.802 100.314 136.196 100.314C133.589 100.314 131.477 100.286 131.477 100.249C131.477 100.212 133.589 100.184 136.196 100.184C138.802 100.184 140.915 100.212 140.915 100.249Z" fill="#E0E0E0"/>
<path d="M136.797 102.35H135.201V105.719H136.797V102.35Z" fill="#FAFAFA"/>
<path d="M140.915 107.044C140.915 107.078 138.802 107.106 136.196 107.106C133.589 107.106 131.477 107.078 131.477 107.044C131.477 107.01 133.589 106.979 136.196 106.979C138.802 106.979 140.915 107.007 140.915 107.044Z" fill="#E0E0E0"/>
<path d="M136.797 109.141H135.201V112.51H136.797V109.141Z" fill="#FAFAFA"/>
<path d="M55.6849 87.0898H35.3621V125.659H55.6849V87.0898Z" fill="#E0E0E0"/>
<path d="M55.6874 87.0898H46.1584V125.659H55.6874V87.0898Z" fill="#EBEBEB"/>
<path d="M41.4479 90.7168H39.6215V95.1551H41.4479V90.7168Z" fill="#F5F5F5"/>
<path d="M41.4479 108.09H39.6215V112.528H41.4479V108.09Z" fill="#F5F5F5"/>
<path d="M46.1574 96.8981C46.1574 96.9378 43.7411 96.9662 40.769 96.9662C37.7968 96.9662 35.3806 96.9378 35.3806 96.8981C35.3806 96.8584 37.7968 96.8301 40.769 96.8301C43.7411 96.8301 46.1574 96.8669 46.1574 96.8981Z" fill="#F5F5F5"/>
<path d="M41.4479 99.4707H39.6215V103.909H41.4479V99.4707Z" fill="#F5F5F5"/>
<path d="M46.1574 105.657C46.1574 105.694 43.7411 105.725 40.769 105.725C37.7968 105.725 35.3806 105.694 35.3806 105.657C35.3806 105.62 37.7968 105.586 40.769 105.586C43.7411 105.586 46.1574 105.611 46.1574 105.657Z" fill="#F5F5F5"/>
<path d="M50.0099 90.7168H48.1835V95.1551H50.0099V90.7168Z" fill="#E0E0E0"/>
<path d="M53.9738 90.7168H52.1475V95.1551H53.9738V90.7168Z" fill="#E0E0E0"/>
<path d="M50.0099 99.1406H48.1835V103.579H50.0099V99.1406Z" fill="#E0E0E0"/>
<path d="M53.9738 99.1406H52.1475V103.579H53.9738V99.1406Z" fill="#E0E0E0"/>
<path d="M50.0099 107.564H48.1835V112.003H50.0099V107.564Z" fill="#E0E0E0"/>
<path d="M53.9738 107.564H52.1475V112.003H53.9738V107.564Z" fill="#E0E0E0"/>
<path d="M57.2127 86.1562H33.8355V87.1233H57.2127V86.1562Z" fill="#E0E0E0"/>
<path d="M55.8232 87.2252C55.8232 87.2621 51.2856 87.2933 45.6788 87.2933C40.072 87.2933 35.5344 87.2621 35.5344 87.2252C35.5344 87.1883 40.072 87.1543 45.6788 87.1543C51.2856 87.1543 55.8232 87.1741 55.8232 87.2252Z" fill="#EBEBEB"/>
<path d="M35.599 125.63H2.87144L2.72681 73.9043H35.4572L35.599 125.63Z" fill="#EBEBEB"/>
<path d="M35.4513 73.9043H19.0875V125.63H35.4513V73.9043Z" fill="#E0E0E0"/>
<path d="M18.0198 63.7207H6.46307V73.9047H18.0198V63.7207Z" fill="#EBEBEB"/>
<path d="M18.0189 63.7207H15.2651V73.9047H18.0189V63.7207Z" fill="#E0E0E0"/>
<path d="M36.4144 73.3066H6.10352e-05V73.8994H36.4144V73.3066Z" fill="#E0E0E0"/>
<path d="M11.9545 78.3438H9.18372V84.1859H11.9545V78.3438Z" fill="white"/>
<path d="M19.0934 86.478C19.0934 86.5404 15.4293 86.5886 10.9115 86.5886C6.39377 86.5886 2.72681 86.5404 2.72681 86.478C2.72681 86.4156 6.39093 86.373 10.9115 86.373C15.4321 86.373 19.0934 86.4156 19.0934 86.478Z" fill="#E0E0E0"/>
<path d="M28.469 78.3438H25.6982V84.1859H28.469V78.3438Z" fill="#F5F5F5"/>
<path d="M35.5928 86.4797C35.5928 86.5421 31.9287 86.5903 27.4109 86.5903C22.8932 86.5903 19.2291 86.5421 19.2291 86.4797C19.2291 86.4173 22.8904 86.3691 27.4109 86.3691C31.9315 86.3691 35.5928 86.4173 35.5928 86.4797Z" fill="#EBEBEB"/>
<path d="M28.469 89.9414H25.6982V95.7835H28.469V89.9414Z" fill="#F5F5F5"/>
<path d="M35.5928 98.0783C35.5928 98.1378 31.9287 98.1889 27.4109 98.1889C22.8932 98.1889 19.2291 98.1378 19.2291 98.0783C19.2291 98.0187 22.8904 97.9648 27.4109 97.9648C31.9315 97.9648 35.5928 98.0159 35.5928 98.0783Z" fill="#EBEBEB"/>
<path d="M28.469 101.891H25.6982V107.733H28.469V101.891Z" fill="#F5F5F5"/>
<path d="M35.5928 110.026C35.5928 110.085 31.9287 110.136 27.4109 110.136C22.8932 110.136 19.2291 110.085 19.2291 110.026C19.2291 109.966 22.8904 109.912 27.4109 109.912C31.9315 109.912 35.5928 109.963 35.5928 110.026Z" fill="#EBEBEB"/>
<path d="M28.469 113.836H25.6982V119.678H28.469V113.836Z" fill="#F5F5F5"/>
<path d="M35.5928 121.972C35.5928 122.034 31.9287 122.085 27.4109 122.085C22.8932 122.085 19.2291 122.034 19.2291 121.972C19.2291 121.91 22.8904 121.861 27.4109 121.861C31.9315 121.861 35.5928 121.912 35.5928 121.972Z" fill="#EBEBEB"/>
<path d="M11.9545 90.1191H9.18372V95.9613H11.9545V90.1191Z" fill="white"/>
<path d="M19.0934 98.2551C19.0934 98.3175 15.4293 98.3657 10.9115 98.3657C6.39377 98.3657 2.72681 98.3175 2.72681 98.2551C2.72681 98.1927 6.39093 98.1445 10.9115 98.1445C15.4321 98.1445 19.0934 98.1927 19.0934 98.2551Z" fill="#E0E0E0"/>
<path d="M11.9545 101.893H9.18372V107.735H11.9545V101.893Z" fill="white"/>
<path d="M19.0934 110.028C19.0934 110.091 15.4293 110.139 10.9115 110.139C6.39377 110.139 2.72681 110.091 2.72681 110.028C2.72681 109.966 6.39093 109.912 10.9115 109.912C15.4321 109.912 19.0934 109.966 19.0934 110.028Z" fill="#E0E0E0"/>
<path d="M11.9545 113.668H9.18372V119.51H11.9545V113.668Z" fill="white"/>
<path d="M19.0934 121.804C19.0934 121.866 15.4293 121.915 10.9115 121.915C6.39377 121.915 2.72681 121.866 2.72681 121.804C2.72681 121.742 6.39093 121.693 10.9115 121.693C15.4321 121.693 19.0934 121.742 19.0934 121.804Z" fill="#E0E0E0"/>
<path d="M190.742 45.5351C190.977 43.8165 188.552 42.4155 186.729 42.2567C185.861 42.1858 184.956 42.3191 184.134 42.0327C182.35 41.4116 181.638 39.106 179.897 38.3714C178.595 37.8213 177.095 38.3119 175.836 38.9386C174.576 39.5654 173.326 40.3708 171.916 40.4616C170.691 40.541 169.364 40.0844 168.286 40.6856C167.486 41.1308 167.067 42.0525 166.329 42.597C165.592 43.1416 164.67 43.2408 163.777 43.289C162.883 43.3372 161.956 43.3457 161.142 43.7201C160.328 44.0944 159.653 44.9537 159.823 45.8329L190.742 45.5351Z" fill="#F5F5F5"/>
<path d="M198 106.729H171.671V125.656H198V106.729Z" fill="#EBEBEB"/>
<path d="M178.728 106.729C178.767 106.729 178.728 110.724 178.728 110.724H176.779V106.729H178.728Z" fill="#F5F5F5"/>
<path d="M184.832 125.656H197.997V106.729H184.832V125.656Z" fill="#E0E0E0"/>
<path d="M175.996 121.949H172.471V124.442H175.996V121.949Z" fill="white"/>
<path d="M178.405 121.949H176.644V124.442H178.405V121.949Z" fill="white"/>
<path d="M195.499 94.4004H178.355V106.726H195.499V94.4004Z" fill="#EBEBEB"/>
<path d="M182.949 94.4004C182.972 94.4004 182.949 97.0038 182.949 97.0038H181.679V94.4004H182.949Z" fill="#F5F5F5"/>
<path d="M186.927 106.729H195.498V94.4033H186.927V106.729Z" fill="#E0E0E0"/>
<path d="M181.167 104.314H178.872V105.939H181.167V104.314Z" fill="white"/>
<path d="M182.735 104.314H181.587V105.939H182.735V104.314Z" fill="white"/>
<path d="M20.2618 12.4962C20.3951 11.5235 19.0224 10.7209 17.993 10.6387C17.4995 10.599 16.989 10.6727 16.5211 10.5111C15.5114 10.1594 15.1031 8.85485 14.1218 8.43796C13.3844 8.126 12.5365 8.40393 11.8218 8.7641C11.1071 9.12427 10.4038 9.57519 9.60404 9.61489C8.90922 9.66027 8.15484 9.40219 7.54793 9.74251C7.09417 9.99491 6.85595 10.5167 6.43905 10.823C6.00444 11.0925 5.50112 11.2304 4.98986 11.2201C4.48162 11.2056 3.9753 11.2884 3.49812 11.464C3.03585 11.6738 2.64731 12.1616 2.74941 12.6607L20.2618 12.4962Z" fill="#EBEBEB"/>
<path d="M195.522 32.2549C195.652 31.3049 194.313 30.525 193.307 30.4428C192.827 30.4059 192.328 30.4768 191.872 30.3208C190.887 29.9748 190.493 28.7015 189.532 28.2959C188.814 27.9953 187.986 28.2647 187.289 28.6136C186.591 28.9624 185.902 29.4076 185.125 29.4643C184.447 29.5097 183.707 29.2573 183.12 29.5891C182.677 29.8359 182.448 30.3435 182.039 30.6441C181.613 30.9052 181.121 31.0381 180.621 31.027C180.125 31.0139 179.632 31.0947 179.166 31.2652C178.715 31.4694 178.344 31.9458 178.437 32.4308L195.522 32.2549Z" fill="#EBEBEB"/>
<path d="M50.4093 18.5251C50.6532 16.7469 48.1404 15.2835 46.2602 15.1219C45.3583 15.051 44.4253 15.1871 43.5745 14.8922C41.7282 14.2484 40.9909 11.8634 39.19 11.1033C37.8429 10.5361 36.2944 11.0409 34.9899 11.6989C33.6853 12.3568 32.3949 13.1821 30.9372 13.2757C29.6667 13.3579 28.2912 12.8871 27.1795 13.5054C26.3542 13.9677 25.9203 14.9234 25.1574 15.4906C24.3946 16.0578 23.4417 16.157 22.5143 16.2081C21.5869 16.2591 20.6312 16.2676 19.7889 16.6533C18.9466 17.039 18.2518 17.9295 18.4248 18.8399L50.4093 18.5251Z" fill="#F5F5F5"/>
<path d="M197.905 125.654C197.905 125.696 154.599 125.728 101.197 125.728C47.7954 125.728 4.48956 125.696 4.48956 125.654C4.48956 125.611 47.7869 125.58 101.212 125.58C154.636 125.58 197.905 125.614 197.905 125.654Z" fill="#263238"/>
<path d="M81.8488 113.781C82.1499 113.852 82.4338 113.982 82.6833 114.165C82.9328 114.348 83.1428 114.579 83.3008 114.845C83.6152 115.378 83.8025 115.977 83.8482 116.595C83.973 117.783 83.5646 119.099 83.0654 120.179C81.9027 119.541 81.3638 118.106 81.1171 117.36C80.7484 116.18 80.7966 113.824 81.8488 113.781Z" fill="#0F913D"/>
<path d="M84.6198 121.842C84.4806 121.525 84.4275 121.177 84.4658 120.833C84.5042 120.489 84.6326 120.161 84.8381 119.883C85.0491 119.609 85.3124 119.379 85.6128 119.208C85.9132 119.037 86.2447 118.927 86.588 118.884C86.7435 118.848 86.9051 118.846 87.0615 118.879C87.2178 118.912 87.365 118.978 87.4926 119.074C87.5951 119.183 87.6671 119.317 87.7014 119.462C87.7358 119.608 87.7313 119.76 87.6883 119.903C87.5946 120.187 87.4285 120.442 87.2062 120.643C86.4773 121.357 85.6407 121.919 84.6198 121.842Z" fill="#0F913D"/>
<path d="M84.1476 125.669C84.1327 125.589 84.126 125.507 84.1278 125.425C84.1278 125.249 84.1136 125.025 84.1051 124.756C84.0569 124.015 84.1288 123.271 84.3178 122.552C84.5199 121.832 84.9116 121.178 85.4522 120.661C85.6165 120.507 85.7983 120.374 85.9939 120.264C86.0466 120.232 86.1016 120.205 86.1584 120.181C86.1952 120.164 86.2151 120.156 86.2179 120.159C85.9582 120.316 85.715 120.5 85.4919 120.706C84.9771 121.228 84.6026 121.872 84.4029 122.578C84.2164 123.288 84.138 124.022 84.1703 124.756C84.1703 125.039 84.1703 125.266 84.1703 125.425C84.1707 125.507 84.1631 125.589 84.1476 125.669Z" fill="#263238"/>
<path d="M81.9734 115.582C81.9885 115.614 81.9999 115.647 82.0074 115.681C82.0301 115.758 82.0557 115.857 82.0897 115.965C82.1606 116.223 82.2598 116.594 82.3733 117.057C82.6087 117.978 82.915 119.255 83.2241 120.675C83.5332 122.096 83.7771 123.384 83.9444 124.323C84.0267 124.79 84.0919 125.173 84.1316 125.431C84.1515 125.556 84.1656 125.658 84.177 125.735C84.1795 125.771 84.1795 125.807 84.177 125.843C84.1633 125.809 84.1538 125.774 84.1486 125.738C84.1316 125.661 84.1118 125.562 84.0862 125.437C84.0352 125.168 83.9615 124.79 83.8735 124.334C83.692 123.401 83.4339 122.11 83.1305 120.692C82.827 119.274 82.5264 117.995 82.3081 117.071C82.2003 116.614 82.1124 116.243 82.05 115.973L81.9819 115.69C81.9751 115.654 81.9722 115.618 81.9734 115.582Z" fill="#263238"/>
<path d="M83.0821 122.917C82.8095 122.241 82.3797 121.639 81.8283 121.162C81.277 120.685 80.6199 120.345 79.9115 120.172C79.5513 120.087 79.1032 120.079 78.8877 120.382C78.6721 120.686 78.831 121.105 79.0352 121.414C79.4755 122.051 80.0946 122.544 80.8142 122.829C81.5339 123.115 82.322 123.181 83.0793 123.02" fill="#0F913D"/>
<path d="M80.3175 121.24C80.3944 121.246 80.4705 121.26 80.5443 121.283C80.6325 121.303 80.7196 121.327 80.8052 121.357C80.9073 121.393 81.0236 121.422 81.1456 121.478C81.2812 121.532 81.4137 121.592 81.5426 121.66C81.6919 121.735 81.8368 121.818 81.9765 121.91C82.2985 122.12 82.5954 122.366 82.8614 122.644C83.1234 122.926 83.3518 123.237 83.542 123.571C83.6234 123.717 83.6963 123.868 83.7604 124.022C83.8185 124.156 83.8697 124.292 83.9135 124.431C83.95 124.545 83.9802 124.662 84.0043 124.78C84.0283 124.867 84.0453 124.956 84.0553 125.046C84.0716 125.122 84.0802 125.199 84.0808 125.276C84.061 125.276 84.0241 124.95 83.854 124.451C83.8084 124.314 83.7554 124.181 83.6951 124.051C83.6295 123.9 83.5547 123.753 83.4711 123.611C83.2819 123.284 83.0564 122.98 82.799 122.704C82.5422 122.432 82.2569 122.188 81.9482 121.978C81.811 121.885 81.669 121.8 81.5228 121.722C81.3895 121.646 81.2562 121.589 81.1371 121.535C80.6351 121.325 80.3118 121.257 80.3175 121.24Z" fill="#263238"/>
<path d="M172.158 122.674C172.265 122.26 171.993 121.843 171.687 121.54C171.381 121.236 171.015 120.972 170.856 120.57C170.598 119.923 170.944 119.087 170.504 118.548C170.246 118.23 169.784 118.122 169.554 117.785C169.448 117.597 169.378 117.391 169.347 117.178C169.102 116.104 168.573 115.116 167.816 114.316C167.766 115.273 167.974 116.226 168.417 117.076C168.625 117.402 168.777 117.76 168.868 118.136C168.964 118.752 168.621 119.384 168.771 119.988C168.944 120.678 169.719 121.14 169.756 121.849C169.787 122.45 169.262 122.983 169.302 123.579C169.334 123.834 169.425 124.077 169.568 124.291C169.775 124.688 170.089 125.018 170.475 125.246C170.86 125.473 171.302 125.587 171.749 125.575L173.017 125.621L172.158 122.674Z" fill="#0F913D"/>
<g opacity="0.3">
<path d="M172.155 122.674C172.263 122.26 171.991 121.843 171.685 121.54C171.378 121.236 171.012 120.972 170.854 120.57C170.596 119.923 170.942 119.087 170.502 118.548C170.244 118.23 169.782 118.122 169.552 117.785C169.446 117.597 169.376 117.391 169.345 117.178C169.1 116.104 168.571 115.116 167.813 114.316C167.764 115.273 167.971 116.226 168.415 117.076C168.623 117.402 168.775 117.76 168.866 118.136C168.962 118.752 168.619 119.384 168.769 119.988C168.942 120.678 169.716 121.14 169.753 121.849C169.784 122.45 169.26 122.983 169.3 123.579C169.332 123.834 169.423 124.077 169.566 124.291C169.773 124.688 170.087 125.018 170.472 125.246C170.858 125.473 171.3 125.587 171.747 125.575L173.015 125.621L172.155 122.674Z" fill="black"/>
</g>
<path d="M173.275 125.648C173.39 125.669 173.508 125.669 173.623 125.648C173.764 125.628 173.901 125.593 174.035 125.546C174.218 125.48 174.39 125.384 174.542 125.262C174.635 125.187 174.708 125.09 174.752 124.979C174.79 124.856 174.81 124.729 174.812 124.602C174.814 124.464 174.824 124.327 174.843 124.19C174.866 124.046 174.918 123.908 174.996 123.785C175.201 123.523 175.362 123.23 175.473 122.917C175.534 122.549 175.523 122.172 175.439 121.808C175.347 121.415 175.358 121.005 175.47 120.617C175.606 120.223 175.881 119.863 176.02 119.417C176.159 118.972 176.094 118.481 176.125 117.999C176.133 117.756 176.189 117.517 176.289 117.296C176.391 117.072 176.533 116.862 176.644 116.627C176.837 116.132 176.947 115.609 176.97 115.078C177.001 114.812 177.032 114.542 177.061 114.27C177.079 113.995 177.127 113.724 177.203 113.459C177.287 113.192 177.388 112.93 177.506 112.676C177.565 112.543 177.614 112.405 177.653 112.265C177.676 112.118 177.685 111.981 177.693 111.831C177.707 111.539 177.696 111.245 177.659 110.955C177.625 110.671 177.571 110.371 177.54 110.078V110.027V109.971L177.489 109.996C177.22 110.13 176.987 110.324 176.805 110.563C176.63 110.799 176.49 111.059 176.389 111.335C176.206 111.875 176.074 112.43 175.994 112.994C175.913 113.531 175.736 114.05 175.473 114.525C175.334 114.749 175.166 114.956 175.019 115.175C174.862 115.389 174.754 115.636 174.704 115.898C174.63 116.434 174.925 116.905 174.863 117.378C174.835 117.612 174.757 117.836 174.633 118.036C174.517 118.238 174.384 118.425 174.253 118.603C174.122 118.787 174.009 118.983 173.916 119.188C173.825 119.388 173.772 119.603 173.76 119.823C173.728 120.248 173.788 120.654 173.76 121.037C173.725 121.401 173.619 121.754 173.448 122.078C173.294 122.389 173.124 122.67 172.983 122.928C172.911 123.06 172.847 123.195 172.79 123.334C172.739 123.463 172.702 123.597 172.679 123.734C172.644 123.973 172.644 124.217 172.679 124.457C172.714 124.791 172.839 125.11 173.042 125.379C173.074 125.417 173.108 125.454 173.144 125.489C173.17 125.516 173.199 125.539 173.229 125.56L173.3 125.611C173.211 125.538 173.129 125.457 173.056 125.367C172.859 125.099 172.739 124.782 172.71 124.451C172.682 124.214 172.688 123.975 172.727 123.739C172.752 123.606 172.79 123.474 172.841 123.348C172.898 123.212 172.962 123.08 173.034 122.951C173.175 122.667 173.348 122.401 173.504 122.086C173.68 121.758 173.79 121.399 173.828 121.028C173.862 120.637 173.802 120.228 173.828 119.812C173.841 119.6 173.893 119.392 173.981 119.199C174.074 119 174.186 118.81 174.315 118.632C174.443 118.445 174.579 118.257 174.698 118.05C174.828 117.843 174.91 117.61 174.939 117.367C175.002 116.859 174.71 116.386 174.783 115.889C174.833 115.639 174.938 115.403 175.09 115.197C175.231 114.982 175.402 114.778 175.543 114.545C175.815 114.063 175.995 113.535 176.077 112.988C176.158 112.429 176.289 111.879 176.468 111.343C176.568 111.075 176.706 110.822 176.876 110.592C177.048 110.36 177.271 110.172 177.529 110.042L177.472 110.008V110.059C177.503 110.356 177.557 110.646 177.591 110.935C177.625 111.217 177.635 111.502 177.622 111.786C177.619 111.927 177.606 112.068 177.585 112.208C177.549 112.344 177.501 112.477 177.444 112.605C177.324 112.862 177.222 113.126 177.137 113.397C177.061 113.665 177.014 113.941 176.995 114.219C176.964 114.503 176.933 114.764 176.905 115.03C176.883 115.552 176.775 116.066 176.587 116.553C176.482 116.783 176.34 116.995 176.233 117.228C176.13 117.458 176.073 117.705 176.065 117.957C176.037 118.445 176.099 118.924 175.969 119.355C175.838 119.786 175.56 120.146 175.421 120.555C175.308 120.952 175.298 121.372 175.393 121.774C175.477 122.131 175.492 122.501 175.436 122.863C175.326 123.17 175.168 123.457 174.968 123.714C174.888 123.843 174.835 123.987 174.812 124.136C174.794 124.274 174.785 124.412 174.783 124.55C174.784 124.675 174.765 124.8 174.73 124.919C174.687 125.023 174.62 125.114 174.534 125.186C174.385 125.307 174.217 125.403 174.038 125.469C173.906 125.519 173.77 125.555 173.632 125.577C173.547 125.595 173.461 125.603 173.374 125.603L173.275 125.648Z" fill="#263238"/>
<path d="M177.264 110.729C177.263 110.742 177.263 110.755 177.264 110.768L177.236 110.882C177.21 110.981 177.182 111.131 177.134 111.321C177.085 111.511 176.969 111.718 176.87 111.982C176.754 112.275 176.654 112.574 176.569 112.878C176.473 113.219 176.388 113.593 176.286 113.993C176.21 114.423 176.073 114.84 175.88 115.232C175.778 115.436 175.659 115.646 175.568 115.873C175.476 116.106 175.414 116.35 175.384 116.599C175.317 117.114 175.222 117.625 175.1 118.13C174.848 119.168 174.604 120.158 174.386 121.057C174.167 121.956 173.954 122.759 173.784 123.445C173.614 124.131 173.481 124.667 173.387 125.056C173.342 125.24 173.308 125.388 173.282 125.493L173.257 125.609C173.256 125.622 173.256 125.635 173.257 125.649C173.257 125.649 173.257 125.634 173.271 125.609L173.305 125.498C173.333 125.391 173.373 125.246 173.424 125.062C173.523 124.676 173.668 124.131 173.847 123.459C174.025 122.787 174.23 121.97 174.462 121.077C174.695 120.184 174.93 119.188 175.185 118.15C175.307 117.642 175.401 117.128 175.469 116.61C175.499 116.368 175.558 116.13 175.645 115.901C175.735 115.68 175.849 115.473 175.954 115.263C176.146 114.866 176.281 114.444 176.357 114.01C176.444 113.607 176.527 113.233 176.617 112.895C176.708 112.558 176.81 112.257 176.901 111.996C176.992 111.735 177.105 111.523 177.151 111.327C177.196 111.131 177.219 110.987 177.239 110.884L177.264 110.763C177.264 110.743 177.264 110.729 177.264 110.729Z" fill="#263238"/>
<path d="M173.495 125.651C174.323 125.161 174.558 123.666 174.215 122.77C173.872 121.874 173.265 121.051 173.172 120.093C173.101 119.355 173.342 118.601 173.172 117.881C172.942 116.911 171.995 116.159 172.003 115.161C172.003 114.594 172.329 114.072 172.304 113.513C172.273 112.827 171.737 112.282 171.419 111.678C170.92 110.751 170.889 109.659 170.716 108.621C170.543 107.583 170.148 106.471 169.229 105.961C169.096 106.843 168.864 107.447 168.946 108.638C168.974 109.069 169.471 109.889 169.539 110.827C169.578 111.395 169.607 111.962 169.641 112.512C169.648 113.061 169.738 113.606 169.907 114.129C170.058 114.52 170.299 114.877 170.409 115.28C170.619 116.043 170.344 116.868 170.514 117.64C170.656 118.292 171.11 118.853 171.201 119.517C171.331 120.447 170.73 121.414 171.036 122.302C171.189 122.744 171.552 123.099 171.654 123.553C171.737 123.907 171.654 124.279 171.72 124.633C171.836 125.2 172.928 125.648 173.509 125.614" fill="#0F913D"/>
<path d="M169.458 106.838C169.458 106.838 169.458 106.855 169.458 106.886L169.478 107.031C169.495 107.158 169.518 107.346 169.56 107.598C169.603 107.85 169.73 108.114 169.844 108.449C169.957 108.783 170.054 109.158 170.147 109.583C170.241 110.009 170.32 110.476 170.402 110.981C170.468 111.526 170.611 112.059 170.828 112.564C170.941 112.83 171.072 113.094 171.171 113.375C171.266 113.665 171.324 113.966 171.344 114.271C171.391 114.917 171.472 115.56 171.588 116.197C171.84 117.501 172.081 118.749 172.303 119.883C172.524 121.018 172.742 122.025 172.918 122.881C173.094 123.738 173.238 124.418 173.341 124.9C173.389 125.133 173.428 125.317 173.457 125.448L173.491 125.589L173.505 125.638C173.506 125.622 173.506 125.605 173.505 125.589L173.479 125.445C173.454 125.314 173.42 125.127 173.377 124.892C173.281 124.41 173.145 123.72 172.98 122.87C172.816 122.019 172.592 120.972 172.368 119.838C172.144 118.704 171.911 117.464 171.659 116.151C171.544 115.516 171.463 114.875 171.415 114.231C171.393 113.921 171.333 113.614 171.236 113.318C171.134 113.035 171.004 112.765 170.887 112.504C170.673 112.005 170.529 111.478 170.459 110.939C170.374 110.434 170.292 109.963 170.193 109.538C170.107 109.155 170.002 108.776 169.878 108.403C169.773 108.074 169.642 107.802 169.594 107.553C169.546 107.303 169.52 107.124 169.495 107C169.495 106.94 169.475 106.895 169.469 106.858C169.466 106.851 169.462 106.844 169.458 106.838Z" fill="#263238"/>
<path d="M149.345 88.2246H23.4064V100.811H149.345V88.2246Z" fill="#0F913D"/>
<g opacity="0.4">
<path d="M149.343 88.2246H23.4042V100.811H149.343V88.2246Z" fill="black"/>
</g>
<path d="M122.06 102.398H84.8852V114.054H122.06V102.398Z" fill="#455A64"/>
<path d="M58.9038 97.127V112.535H71.5978L76.6856 105.161H169.369V97.127H58.9038Z" fill="#263238"/>
<path d="M58.1137 48.3374C58.0998 48.0896 57.9892 47.8572 57.8057 47.6902C57.6222 47.5231 57.3805 47.4347 57.1325 47.444C52.1156 47.6511 28.2988 48.7429 23.401 51.0968C19.6518 52.9005 15.5453 59.6331 12.6497 64.1678C10.5737 67.4178 5.98791 74.6326 5.06054 78.3222C4.27496 81.4418 3.80135 87.9305 3.85523 91.1493L5.16547 108.182H26.7503L28.9114 102.556C29.601 100.763 30.8175 99.2222 32.4007 98.1352C33.9838 97.0482 35.8592 96.4665 37.7796 96.4668H59.2283V68.2006L58.1137 48.3374Z" fill="#0F913D"/>
<path d="M20.8412 52.9824C17.869 55.8184 14.8855 60.6396 12.6479 64.1675C10.7251 67.1765 6.65261 73.583 5.32252 77.4456C5.297 77.5165 5.27714 77.5846 5.25446 77.6555C5.91241 77.474 6.92486 77.1024 7.23966 76.4785C7.71327 75.5341 8.32018 72.2983 15.8243 60.0837C18.1044 56.3601 20.3278 54.182 20.8412 52.9824Z" fill="#455A64"/>
<path d="M47.0304 51.719C41.5115 52.0338 29.5464 52.8534 25.7235 54.1523C20.7435 55.8539 15.1537 69.0384 14.8899 69.6169L11.1237 79.2593C11.1026 79.3223 11.0968 79.3894 11.1067 79.4552C11.1166 79.5209 11.142 79.5833 11.1808 79.6373C11.2195 79.6913 11.2706 79.7354 11.3297 79.7658C11.3888 79.7962 11.4543 79.8121 11.5208 79.8123H21.2568C21.6255 79.8124 21.9913 79.7471 22.3373 79.6194L47.9436 70.0735C48.509 69.8625 48.9964 69.4838 49.3406 68.9881C49.6847 68.4924 49.8692 67.9034 49.8693 67.2999V54.4047C49.8694 54.0389 49.795 53.6769 49.6504 53.3408C49.5058 53.0048 49.2942 52.7018 49.0284 52.4503C48.7626 52.1989 48.4484 52.0044 48.1048 51.8786C47.7613 51.7529 47.3957 51.6986 47.0304 51.719Z" fill="#263238"/>
<path d="M12.2038 78.8657C12.2038 78.8657 15.8112 70.7746 17.025 68.123C18.8571 64.1186 23.1366 55.9283 26.0265 55.0463C28.6838 54.2494 36.324 53.2795 47.0782 52.6641H47.1803C47.6421 52.6656 48.0846 52.8499 48.4109 53.1767C48.7372 53.5036 48.9208 53.9463 48.9216 54.4082V67.5955C48.9206 67.9205 48.8207 68.2375 48.6353 68.5044C48.45 68.7713 48.1878 68.9756 47.8836 69.0901L28.9646 71.4241C28.2062 71.5177 27.4773 71.7752 26.8284 72.1787C26.1795 72.5822 25.6262 73.1221 25.2069 73.7609L21.9285 78.7608C21.736 78.832 21.5324 78.8685 21.3272 78.8685L12.2038 78.8657Z" fill="#455A64"/>
<path d="M28.275 71.5705L21.8429 78.7342L25.4021 54.9489L26.2926 54.6426L24.5399 72.2625C24.5317 72.351 24.5463 72.4401 24.5823 72.5213C24.6184 72.6026 24.6747 72.6732 24.7458 72.7264C24.817 72.7796 24.9006 72.8137 24.9887 72.8253C25.0768 72.8369 25.1664 72.8258 25.2489 72.7929L28.275 71.5705Z" fill="#263238"/>
<path d="M3.43557 92.8019C3.41289 92.4928 3.51782 92.2347 3.67663 92.2347L7.12522 91.9171C7.40882 91.8887 7.67257 92.4247 7.7066 93.0515L7.86258 95.6975C7.88811 96.1229 7.76049 96.483 7.57898 96.5142L4.06233 97.1211C3.90352 97.1495 3.75037 96.9141 3.72768 96.6021L3.43557 92.8019Z" fill="#EBEBEB"/>
<path d="M28.2816 105.166H3.4325V115.129H28.2816V105.166Z" fill="#263238"/>
<path d="M44.8683 125.532C52.3716 125.244 58.2205 118.928 57.9322 111.425C57.644 103.922 51.3277 98.0727 43.8245 98.3609C36.3213 98.6491 30.4724 104.965 30.7606 112.468C31.0489 119.972 37.3651 125.82 44.8683 125.532Z" fill="#263238"/>
<path d="M30.7631 111.713C30.7646 111.725 30.7646 111.738 30.7631 111.75C30.7155 115.352 32.1 118.827 34.6123 121.409C37.1246 123.992 40.5594 125.472 44.162 125.523C47.7647 125.575 51.2406 124.195 53.8262 121.686C56.4119 119.177 57.8957 115.744 57.9519 112.141C57.9519 112.141 57.9519 112.118 57.9519 112.107L30.7631 111.713Z" fill="#263238"/>
<path d="M34.8069 111.807C34.7791 113.695 35.3118 115.549 36.3376 117.134C37.3634 118.72 38.8363 119.965 40.57 120.713C42.3036 121.461 44.2202 121.678 46.0773 121.337C47.9344 120.996 49.6485 120.111 51.003 118.796C52.3574 117.48 53.2913 115.793 53.6865 113.946C54.0817 112.1 53.9205 110.178 53.2232 108.423C52.5259 106.668 51.3239 105.16 49.7693 104.088C48.2146 103.017 46.3771 102.43 44.4891 102.403C41.9582 102.367 39.5165 103.337 37.7009 105.101C35.8852 106.864 34.8443 109.277 34.8069 111.807Z" fill="#FAFAFA"/>
<path d="M44.4942 102.403C41.9633 102.367 39.5216 103.337 37.706 105.101C35.8903 106.864 34.8494 109.277 34.8121 111.807L53.9012 112.091C53.9384 109.559 52.9682 107.116 51.204 105.299C49.4399 103.482 47.0263 102.441 44.4942 102.403Z" fill="#E0E0E0"/>
<path d="M38.5366 111.86C38.5199 113.01 38.8446 114.139 39.4695 115.104C40.0944 116.069 40.9916 116.828 42.0475 117.283C43.1035 117.738 44.2707 117.87 45.4017 117.662C46.5326 117.454 47.5765 116.916 48.4012 116.114C49.226 115.313 49.7945 114.285 50.0351 113.161C50.2756 112.036 50.1772 110.866 49.7524 109.797C49.3276 108.728 48.5955 107.81 47.6485 107.157C46.7016 106.505 45.5825 106.148 44.4327 106.131C42.8912 106.109 41.4041 106.701 40.2984 107.775C39.1928 108.849 38.559 110.319 38.5366 111.86Z" fill="#263238"/>
<path d="M17.9887 60.3574H16.8798C15.6299 60.3574 14.6166 61.3707 14.6166 62.6205V71.6191C14.6166 72.869 15.6299 73.8822 16.8798 73.8822H17.9887C19.2385 73.8822 20.2518 72.869 20.2518 71.6191V62.6205C20.2518 61.3707 19.2385 60.3574 17.9887 60.3574Z" fill="#263238"/>
<path d="M12.2843 82.2413H12.0007V67.9394C12.0014 67.2575 12.2727 66.6036 12.7549 66.1214C13.2371 65.6392 13.891 65.3679 14.5729 65.3672H15.2536V65.6508H14.5729C13.9662 65.6515 13.3845 65.8929 12.9554 66.3219C12.5264 66.751 12.285 67.3327 12.2843 67.9394V82.2413Z" fill="#263238"/>
<path d="M14.2129 82.259L13.4245 68.8874C13.4135 68.6587 13.4486 68.4302 13.5279 68.2155C13.6072 68.0008 13.729 67.8043 13.886 67.6378C14.043 67.4712 14.232 67.3381 14.4417 67.2463C14.6514 67.1545 14.8774 67.1059 15.1063 67.1035V67.3871C14.9154 67.3872 14.7266 67.4262 14.5513 67.5019C14.3761 67.5776 14.2182 67.6882 14.0873 67.8271C13.9563 67.966 13.8552 68.1302 13.79 68.3096C13.7248 68.489 13.6969 68.6798 13.7081 68.8703L14.4966 82.2448L14.2129 82.259Z" fill="#263238"/>
<path d="M15.1034 80.9551H11.2805V85.382H15.1034V80.9551Z" fill="#263238"/>
<path d="M13.6963 72.5508H12.1422V72.8344H13.6963V72.5508Z" fill="#263238"/>
<path d="M26.6719 52.1031L27.0094 52.0577L28.0049 51.9414L31.8618 51.4962L46.2404 49.8598C47.0061 49.7776 47.786 49.6755 48.5943 49.6046C49.0072 49.5731 49.4225 49.5998 49.8279 49.684C50.2402 49.7804 50.6379 49.9311 51.0106 50.1321C51.7793 50.5598 52.4025 51.2077 52.8001 51.9925C53.0058 52.3936 53.1447 52.8256 53.2113 53.2715C53.247 53.4967 53.2669 53.7241 53.2709 53.9521V54.6356C53.2709 58.2969 53.2709 62.2275 53.2709 66.3936C53.2709 74.7257 53.2709 83.9937 53.2709 93.9026V93.9763H38.3336C37.4809 93.9483 36.6273 93.9891 35.7812 94.0983C34.0358 94.3495 32.389 95.062 31.011 96.1623C29.633 97.2626 28.5737 98.7108 27.9425 100.357C27.82 100.66 27.7167 100.969 27.6334 101.285C27.5412 101.597 27.4682 101.914 27.415 102.235L27.3412 102.717L27.3072 102.958L27.293 103.199L27.2703 103.684V103.928V103.956C27.3327 103.894 27.1824 104.053 27.1938 104.036H8.25208V103.956C8.25208 99.6823 8.25208 95.5616 8.25208 91.6253C8.25208 89.6571 8.25208 87.7353 8.25208 85.8598V83.0862C8.25208 82.6296 8.25208 82.1787 8.25208 81.7277C8.26132 81.2792 8.2935 80.8315 8.3485 80.3863C8.56477 78.6704 9.10977 77.0123 9.95368 75.5028C10.7345 74.0337 11.4908 72.6157 12.2225 71.2488L16.2439 63.7136L19.5082 57.5964C19.7464 57.1521 19.9752 56.7219 20.1945 56.306C20.3079 56.1018 20.4072 55.8948 20.5263 55.7019C20.6438 55.5135 20.7716 55.3317 20.9092 55.1574C21.401 54.5441 21.98 54.0062 22.6278 53.5608C23.52 52.9551 24.5174 52.5214 25.5687 52.2817C25.9297 52.1952 26.2965 52.1355 26.6663 52.1031L26.3827 52.1456C26.1983 52.174 25.9261 52.2222 25.5687 52.3044C24.5236 52.5515 23.5332 52.99 22.6477 53.5976C22.0053 54.0437 21.432 54.5816 20.946 55.1943C20.8087 55.3655 20.6827 55.5455 20.5689 55.7331C20.4526 55.9203 20.3533 56.1302 20.2399 56.3372L19.5564 57.6304L16.3205 63.7533C15.1067 66.0391 13.7681 68.5603 12.3217 71.2942L10.0529 75.5481C9.21685 77.0463 8.67851 78.6921 8.46761 80.3948C8.41356 80.8363 8.38232 81.2802 8.37402 81.7249C8.37402 82.1701 8.37402 82.6267 8.37402 83.0805V85.8541C8.37402 87.7277 8.37402 89.6496 8.37402 91.6196C8.37402 95.556 8.37402 99.6767 8.37402 103.95L8.30312 103.882H27.1711C27.1909 103.868 27.035 104.019 27.1002 103.95V103.919V103.675L27.1257 103.182V102.938L27.1626 102.694L27.2363 102.204C27.2902 101.878 27.3641 101.556 27.4575 101.239C27.5424 100.919 27.6475 100.605 27.7723 100.298C28.4136 98.6272 29.4889 97.1578 30.8872 96.0412C32.2855 94.9246 33.9562 94.201 35.7273 93.9451C36.5736 93.8374 37.427 93.7967 38.2797 93.8232H53.1489L53.0752 93.8941C53.0752 83.9965 53.0752 74.7285 53.0752 66.3851C53.0752 62.219 53.0752 58.2883 53.0752 54.6271C53.0937 54.1773 53.0747 53.7267 53.0185 53.28C52.9539 52.8442 52.8189 52.4218 52.6186 52.0293C52.2336 51.2622 51.6256 50.6295 50.8744 50.2143C50.5124 50.0161 50.125 49.8682 49.723 49.7747C49.3271 49.6912 48.9214 49.6635 48.5177 49.6925C47.7151 49.7606 46.9296 49.8626 46.1667 49.9449L31.7909 51.5359L27.9311 51.9584L26.9357 52.0634L26.6719 52.1031Z" fill="#263238"/>
<path d="M48.7415 83.4472C48.7415 83.4472 48.821 83.4472 48.9628 83.4132C49.1713 83.3762 49.37 83.297 49.547 83.1807C49.826 82.9978 50.0349 82.7259 50.1397 82.4093C50.2038 82.2118 50.2298 82.0039 50.2163 81.7967C50.2102 81.567 50.1509 81.3418 50.0433 81.1388C49.9199 80.9064 49.7363 80.7114 49.5119 80.5743C49.2874 80.4371 49.0301 80.3627 48.7671 80.3589H46.8953H42.6073C42.2502 80.3594 41.9059 80.4911 41.6397 80.7291C41.3735 80.967 41.2041 81.2945 41.1637 81.6492C41.1192 81.986 41.1817 82.3283 41.3424 82.6277C41.5018 82.9108 41.7514 83.1324 42.0514 83.2572C42.348 83.3602 42.6632 83.3989 42.9759 83.3707H43.8835H45.5142L47.8766 83.3934H48.5203C48.5945 83.3918 48.6685 83.3975 48.7415 83.4104C48.6681 83.4193 48.5943 83.4241 48.5203 83.4246H47.8766L45.5142 83.4472H43.8835H42.9759C42.8171 83.4472 42.664 83.4472 42.4967 83.4472C42.3265 83.4345 42.1592 83.3963 42.0004 83.3338C41.6723 83.1977 41.3989 82.9562 41.2233 82.6475C41.0472 82.3226 40.9777 81.9506 41.0248 81.584C41.0686 81.1947 41.2541 80.835 41.5459 80.5736C41.8377 80.3121 42.2155 80.167 42.6073 80.166H46.8953H48.7671C49.1762 80.1741 49.566 80.3412 49.854 80.6318C50.142 80.9225 50.3055 81.3138 50.3099 81.723C50.3189 81.9397 50.2871 82.1561 50.2163 82.3611C50.0996 82.6904 49.8746 82.9703 49.5782 83.1551C49.3932 83.2703 49.1849 83.343 48.9684 83.3678C48.8963 83.4035 48.8201 83.4301 48.7415 83.4472Z" fill="#263238"/>
<path d="M48.2254 79.8853C47.4174 79.9564 46.6058 79.9801 45.795 79.9562C44.9832 79.9801 44.1707 79.9565 43.3617 79.8853C44.1706 79.8123 44.9831 79.7877 45.795 79.8116C46.6059 79.7877 47.4175 79.8123 48.2254 79.8853Z" fill="white"/>
<path d="M29.4114 115.208L27.1426 115.044C27.7353 106.919 28.6031 102.058 29.7971 100.183C32.0886 96.5818 34.3659 95.9295 36.8871 95.5012C39.2353 95.1014 41.6034 95.195 43.8949 95.2885L44.4621 95.3112C49.1925 95.4956 59.1016 95.3311 59.2093 95.3311L59.2462 97.5999C59.1469 97.5999 49.1755 97.7672 44.3827 97.58L43.8155 97.5573C41.6403 97.4723 39.3941 97.3787 37.2785 97.7417C35.0238 98.1245 33.5236 98.5641 31.7142 101.406C31.1669 102.254 30.1402 105.2 29.4114 115.208Z" fill="#263238"/>
<path d="M172.151 22.6543H60.418V97.0478H172.151V22.6543Z" fill="#0F913D"/>
<path d="M170.811 95.5744C170.811 95.0951 170.788 67.8102 170.751 24.3346L170.811 24.3913L61.6243 24.4083L61.698 24.3346C61.698 49.657 61.698 73.7601 61.698 95.5744L61.6299 95.5064L170.816 95.5744L61.6299 95.6425H61.5505V95.5744C61.5505 73.7601 61.5505 49.657 61.5505 24.3346V24.2637H61.6328L170.819 24.2779H170.879V24.3374C170.833 67.8102 170.811 95.098 170.811 95.5744Z" fill="#263238"/>
<g opacity="0.5">
<path d="M76.2638 57.8147L77.3188 79.0931L160.184 61.856L158.718 39.6758L76.2638 57.8147Z" fill="black"/>
</g>
<path d="M82.54 72.5484L83.1072 70.5633C84.2164 71.0406 85.4475 71.1577 86.6267 70.8979C87.8944 70.6143 88.6119 70.0131 88.4446 69.2842C88.1015 67.6876 83.3398 69.6047 82.6506 66.4227C82.2111 64.3695 83.7227 62.6565 86.4906 62.0638C87.832 61.7802 89.1366 61.8086 90.1264 62.1773L89.6301 64.1256C88.7112 63.78 87.7107 63.7139 86.7543 63.9356C85.4129 64.2192 84.7379 64.9055 84.8911 65.6201C85.2314 67.2622 90.0101 65.3365 90.6709 68.4079C91.1133 70.4782 89.5733 72.1968 86.7912 72.7923C85.169 73.144 83.5241 72.988 82.54 72.5484Z" fill="white"/>
<path d="M101.395 59.0371L101.54 69.4508L99.2282 69.9471L99.1687 65.7073L94.6452 66.6772L94.7076 70.9312L92.3793 71.4162L92.2346 60.9996L94.5601 60.5005L94.6169 64.5928L99.1403 63.6229L99.0836 59.5306L101.395 59.0371Z" fill="white"/>
<path d="M103.757 58.5284L106.077 58.0293L106.222 68.443L103.896 68.9422L103.757 58.5284Z" fill="white"/>
<path d="M117.057 58.9353C117.602 61.4735 116.073 63.4729 113.087 64.0996L110.861 64.5761L110.903 67.4433L108.578 67.9424L108.441 57.5173L112.48 56.6665C114.976 56.1192 116.637 56.9728 117.057 58.9353ZM114.76 59.6358C114.553 58.6659 113.77 58.3568 112.599 58.6092L110.787 58.9977L110.832 62.6136L112.786 62.1939C114.306 61.8592 115.044 60.9545 114.76 59.6273V59.6358Z" fill="white"/>
<path d="M127.345 56.7159C127.89 59.2683 126.361 61.2535 123.375 61.8802L121.152 62.3595L121.2 65.2267L118.874 65.7258L118.727 55.3121L122.765 54.4443C125.269 53.9083 126.931 54.7619 127.345 56.7159ZM125.048 57.4192C124.841 56.4465 124.056 56.1374 122.887 56.3898L121.075 56.7783L121.12 60.397L123.074 59.9773C124.606 59.6483 125.338 58.7437 125.054 57.4192H125.048Z" fill="white"/>
<path d="M129.049 53.1007L131.375 52.6016L131.522 63.0181L129.197 63.5173L129.049 53.1007Z" fill="white"/>
<path d="M142.88 50.1426L143.027 60.5563L141.127 60.9647L136.065 55.5026L136.15 62.0253L133.881 62.516L133.733 52.0994L135.645 51.6882L140.713 57.1531L140.611 50.6304L142.88 50.1426Z" fill="white"/>
<path d="M152.074 53.2148L154.187 52.761L154.241 57.0462C153.304 58.0908 152.055 58.8041 150.679 59.0796C147.653 59.729 145.364 58.3848 144.811 55.804C144.08 52.4008 146.022 49.2813 149.803 48.4645C151.714 48.0533 153.243 48.3652 154.34 49.3153L152.973 51.0169C152.123 50.3618 151.238 50.2256 150.137 50.4639C147.798 50.9658 146.66 52.9709 147.131 55.1687C147.452 56.6661 148.668 57.4659 150.566 57.0575C151.139 56.9405 151.678 56.6973 152.145 56.3457L152.074 53.2148Z" fill="white"/>
<path d="M145.416 42.8752L162.14 38.9587L161.479 37.1777L145.416 42.8752Z" fill="#FAFAFA"/>
<path d="M70.5373 55.3907L82.1649 52.6681L81.7055 51.4316L70.5373 55.3907Z" fill="#FAFAFA"/>
<path d="M110.343 83.4065L127.067 79.4871L126.409 77.709L110.343 83.4065Z" fill="#FAFAFA"/>
<path d="M92.6553 59.5933C92.6553 59.633 88.8267 60.4441 84.0849 61.397C79.3431 62.3499 75.4946 63.0986 75.4861 63.0589C75.4776 63.0192 79.3147 62.2081 84.0565 61.2524C88.7983 60.2966 92.6468 59.5536 92.6553 59.5933Z" fill="#FAFAFA"/>
<path d="M44.54 57.8828C44.54 57.8828 44.5059 57.9168 44.435 57.9707L44.1231 58.1948C43.8395 58.3905 43.4509 58.6627 42.9575 59.0002C41.9677 59.6695 40.5894 60.5827 39.0523 61.5668C37.5152 62.5508 36.1113 63.4215 35.0819 64.0426C34.5714 64.3517 34.1545 64.6098 33.8652 64.7686L33.5306 64.9558C33.4925 64.9804 33.4515 65.0004 33.4086 65.0153C33.4086 65.0153 33.4427 64.9813 33.5136 64.9331L33.834 64.7175L35.028 63.9546L38.9672 61.442L42.8922 58.9123L44.0862 58.1494L44.4152 57.9452C44.4544 57.92 44.4962 57.899 44.54 57.8828Z" fill="#FAFAFA"/>
<path d="M39.6835 59.1641C39.6835 59.1641 39.6494 59.1981 39.5785 59.252L39.2666 59.476C38.983 59.6689 38.5944 59.944 38.0981 60.2786C37.1084 60.9507 35.7301 61.8611 34.1958 62.831C32.6615 63.8009 31.2548 64.6886 30.2254 65.3096C29.7149 65.6188 29.298 65.8768 29.0087 66.0328L28.6741 66.2228C28.6366 66.2479 28.5955 66.267 28.5521 66.2795C28.5839 66.2483 28.6191 66.2207 28.6571 66.1973L28.9775 65.9846L30.1686 65.2189L34.1107 62.709L38.0357 60.1793L39.2297 59.4136L39.5558 59.2123C39.5961 59.1907 39.639 59.1744 39.6835 59.1641Z" fill="#FAFAFA"/>
<path d="M15.8132 67.4196C15.7697 67.3421 15.74 67.2577 15.7253 67.1701C15.6799 67.0084 15.6175 66.7702 15.5466 66.4753C15.3602 65.7045 15.265 64.9144 15.263 64.1214C15.259 63.3203 15.4436 62.5295 15.8018 61.8129C15.9139 61.5985 16.0489 61.3969 16.2046 61.2117C16.257 61.1409 16.3202 61.0787 16.3917 61.0273C16.2107 61.2962 16.0441 61.5745 15.8926 61.8611C15.5694 62.5736 15.404 63.3475 15.4076 64.1299C15.4162 64.9133 15.5008 65.694 15.66 66.4611C15.731 66.7771 15.7821 67.0973 15.8132 67.4196Z" fill="#FAFAFA"/>
<path d="M4.26502 87.5271C4.25476 87.4263 4.25476 87.3246 4.26502 87.2237C4.26502 87.0195 4.26502 86.7246 4.28203 86.3729C4.30472 85.644 4.3586 84.6373 4.44652 83.5369C4.53444 82.4366 4.63937 81.4269 4.73012 80.7009C4.7755 80.3379 4.8152 80.0458 4.8464 79.8501C4.85707 79.7451 4.87894 79.6414 4.91163 79.541C4.92587 79.6464 4.92587 79.7532 4.91163 79.8586L4.83789 80.7094C4.7755 81.4695 4.69042 82.4536 4.59683 83.5454C4.50324 84.6373 4.44652 85.6185 4.39264 86.3814C4.36711 86.7217 4.34442 87.0082 4.32741 87.2322C4.31878 87.3327 4.29782 87.4318 4.26502 87.5271Z" fill="#FAFAFA"/>
<path d="M35.3419 93.0312C35.3419 93.0624 34.7946 93.139 33.9466 93.4141C33.4503 93.5753 32.966 93.7714 32.4974 94.0012C31.3493 94.5714 30.3105 95.3394 29.4288 96.2699C29.0688 96.6475 28.7361 97.0503 28.4334 97.4752C27.9201 98.2041 27.679 98.706 27.6535 98.6919C27.6957 98.5683 27.7488 98.4487 27.8123 98.3345C27.8758 98.196 27.9478 98.0615 28.0279 97.9318C28.1186 97.7787 28.2179 97.6 28.3483 97.4157C28.6419 96.9771 28.9701 96.5627 29.3296 96.1764C29.7752 95.7042 30.26 95.2706 30.7788 94.8803C31.3024 94.5002 31.8585 94.1671 32.4407 93.8849C32.9162 93.6565 33.4094 93.4668 33.9154 93.3177C34.1281 93.2468 34.3295 93.2071 34.5025 93.1645C34.6512 93.1285 34.8017 93.1001 34.9534 93.0795C35.0811 93.051 35.2112 93.0348 35.3419 93.0312Z" fill="#FAFAFA"/>
<path d="M63.2764 75.9117C63.2728 75.8712 63.2728 75.8304 63.2764 75.7898C63.2764 75.7028 63.2764 75.5837 63.2764 75.4325C63.2764 75.1092 63.2764 74.6469 63.2565 74.057C63.2395 72.8546 63.2168 71.1275 63.1856 68.9976C63.1091 64.7181 63.0041 58.8221 62.8879 52.3079C62.7716 45.7936 62.6723 39.8863 62.6326 35.6153C62.6128 33.4798 62.6071 31.7499 62.6099 30.5559C62.6099 29.9632 62.6099 29.5009 62.6099 29.1805V28.8231C62.6099 28.7409 62.6099 28.7012 62.6099 28.7012C62.6137 28.7417 62.6137 28.7826 62.6099 28.8231C62.6099 28.9082 62.6099 29.0273 62.6099 29.1805C62.6099 29.5009 62.6099 29.9632 62.6298 30.5559C62.6468 31.7584 62.6695 33.4826 62.7007 35.6125C62.7773 39.892 62.8822 45.788 62.9985 52.305C63.1147 58.8221 63.2168 64.7238 63.2537 68.9948C63.2736 71.1331 63.2821 72.8602 63.2792 74.0542C63.2792 74.6469 63.2792 75.1092 63.2792 75.4325C63.2792 75.5828 63.2792 75.7019 63.2792 75.7898C63.2807 75.8305 63.2798 75.8712 63.2764 75.9117Z" fill="#FAFAFA"/>
<path d="M145.327 125.519C152.83 125.219 158.669 118.894 158.369 111.391C158.069 103.888 151.743 98.0493 144.241 98.3493C136.738 98.6494 130.899 104.975 131.199 112.477C131.499 119.98 137.824 125.819 145.327 125.519Z" fill="#263238"/>
<path d="M131.187 111.713C131.187 111.713 131.187 111.738 131.187 111.75C131.135 115.355 132.517 118.833 135.03 121.419C137.542 124.005 140.979 125.486 144.584 125.538C148.189 125.59 151.667 124.208 154.253 121.695C156.839 119.183 158.321 115.746 158.373 112.141V112.107L131.187 111.713Z" fill="#263238"/>
<path d="M135.236 111.807C135.209 113.695 135.742 115.547 136.768 117.132C137.793 118.716 139.266 119.961 140.999 120.708C142.732 121.456 144.648 121.672 146.504 121.331C148.36 120.99 150.074 120.106 151.428 118.791C152.781 117.476 153.715 115.789 154.11 113.943C154.505 112.098 154.344 110.177 153.648 108.423C152.951 106.669 151.75 105.16 150.196 104.089C148.642 103.018 146.806 102.431 144.918 102.403C142.388 102.367 139.946 103.337 138.13 105.101C136.315 106.864 135.274 109.277 135.236 111.807Z" fill="#FAFAFA"/>
<path d="M144.917 102.403C143.664 102.385 142.42 102.614 141.255 103.076C140.09 103.539 139.028 104.227 138.128 105.1C137.229 105.973 136.511 107.015 136.015 108.166C135.518 109.317 135.253 110.554 135.235 111.807L154.322 112.091C154.341 110.837 154.113 109.592 153.65 108.427C153.188 107.261 152.501 106.198 151.627 105.298C150.754 104.399 149.712 103.68 148.56 103.183C147.409 102.686 146.171 102.421 144.917 102.403Z" fill="#E0E0E0"/>
<path d="M138.978 111.86C138.962 113.01 139.286 114.139 139.911 115.104C140.536 116.069 141.433 116.828 142.489 117.283C143.545 117.738 144.712 117.87 145.843 117.662C146.974 117.454 148.018 116.916 148.843 116.114C149.668 115.313 150.236 114.285 150.477 113.161C150.717 112.036 150.619 110.866 150.194 109.797C149.769 108.728 149.037 107.81 148.09 107.157C147.143 106.505 146.024 106.148 144.874 106.131C143.333 106.109 141.846 106.701 140.74 107.775C139.634 108.849 139.001 110.319 138.978 111.86Z" fill="#263238"/>
<path d="M126.9 115.667C126.9 115.667 124.83 96.3828 144.813 96.3828C163.247 96.3828 162.838 112.968 162.663 115.534H159.773C159.773 115.534 161.245 99.1876 144.813 99.1876C128.381 99.1876 129.81 115.866 129.81 115.866C129.81 115.866 128.596 115.806 126.9 115.667Z" fill="#455A64"/>
<path d="M137.611 98.3815C137.561 98.4069 137.509 98.426 137.455 98.4382C137.35 98.4751 137.194 98.512 137.001 98.58C136.447 98.7564 135.904 98.9676 135.376 99.2124C133.629 100.014 132.082 101.192 130.845 102.663C129.608 104.135 128.713 105.862 128.224 107.72C128.074 108.28 127.959 108.848 127.881 109.422C127.849 109.626 127.838 109.785 127.821 109.893C127.816 109.948 127.807 110.003 127.793 110.057C127.786 110.003 127.786 109.947 127.793 109.893C127.793 109.782 127.793 109.609 127.827 109.416C127.883 108.833 127.983 108.255 128.127 107.686C128.592 105.799 129.484 104.044 130.734 102.556C131.983 101.068 133.558 99.8859 135.336 99.1018C135.871 98.8631 136.423 98.664 136.987 98.5063C137.185 98.4496 137.344 98.4184 137.449 98.3928C137.502 98.383 137.557 98.3792 137.611 98.3815Z" fill="#FAFAFA"/>
<path d="M173.841 95.7852C173.841 95.7852 174.57 109.702 174.936 112.523C175.301 115.343 176.031 119.458 176.031 119.458C176.031 119.458 175.509 119.823 175.405 120.189C175.301 120.554 175.457 121.909 175.457 121.909L179.263 122.169C179.263 122.169 179.419 121.232 179.419 119.092V115.906C179.419 115.49 180.047 97.6565 180.047 97.6565L180.514 115.96C180.514 115.96 180.358 121.642 180.62 121.746C180.877 121.879 181.122 122.037 181.349 122.216L184.686 122.112C184.827 121.495 184.915 120.867 184.948 120.236C184.948 119.504 184.478 118.098 184.53 117.315C184.582 116.532 185.939 110.172 185.939 109.077V92.0293H173.948L173.841 95.7852Z" fill="#263238" stroke="#263238" stroke-width="0.4" stroke-linecap="round" stroke-linejoin="round"/>
<path d="M178.895 121.91C178.895 121.91 177.488 120.711 176.863 120.815C176.237 120.919 175.662 121.284 175.61 121.44C175.558 121.596 175.193 121.91 175.089 122.222C174.985 122.534 173.317 124.1 172.951 124.517C172.585 124.935 172.326 124.987 172.639 125.247C172.833 125.405 173.064 125.513 173.31 125.56H179.261C179.261 125.56 179.47 125.091 179.417 124.152C179.363 123.213 179.261 122.17 179.261 122.17L178.895 121.91Z" fill="white" stroke="#263238" stroke-width="0.4" stroke-linecap="round" stroke-linejoin="round"/>
<path d="M172.499 125.037C172.499 125.097 172.536 125.16 172.638 125.245C172.832 125.404 173.063 125.511 173.309 125.559H179.26C179.323 125.391 179.365 125.215 179.385 125.037H172.499Z" fill="white" stroke="#263238" stroke-width="0.4" stroke-linecap="round" stroke-linejoin="round"/>
<path d="M181.37 121.91C181.37 121.91 182.696 120.711 183.286 120.815C183.876 120.919 184.416 121.284 184.46 121.44C184.504 121.596 184.852 121.91 184.951 122.222C185.05 122.534 186.628 124.1 186.963 124.517C187.299 124.935 187.554 124.987 187.258 125.247C187.077 125.405 186.856 125.513 186.62 125.56H181.019C181.019 125.56 180.823 125.091 180.872 124.152C180.92 123.213 181.019 122.17 181.019 122.17L181.37 121.91Z" fill="white" stroke="#263238" stroke-width="0.4" stroke-linecap="round" stroke-linejoin="round"/>
<path d="M187.396 125.037C187.396 125.097 187.361 125.16 187.265 125.245C187.083 125.404 186.863 125.512 186.626 125.559H181.026C180.966 125.39 180.926 125.215 180.907 125.037H187.396Z" fill="white" stroke="#263238" stroke-width="0.4" stroke-linecap="round" stroke-linejoin="round"/>
<path d="M178.237 73.3359L176.728 74.617L176.999 92.3167H183.52C183.52 92.3167 183.83 74.228 183.715 73.9563C183.599 73.6847 182.9 73.4131 182.9 73.4131L178.237 73.3359Z" fill="white" stroke="#263238" stroke-width="0.4" stroke-linecap="round" stroke-linejoin="round"/>
<path d="M189.296 81.0483L191.89 81.7659C191.89 81.7659 189.263 76.947 188.785 75.7917C188.411 74.8896 187.946 74.618 187.754 74.5459C186.759 73.9037 182.901 73.4141 182.901 73.4141L182.599 82.2522L182.138 96.9204H187.626C187.626 96.9204 187.163 91.7409 186.908 90.0994L186.548 87.7905C186.548 87.7905 186.992 84.2693 187.386 80.8974L189.296 81.0483Z" fill="#0F913D" stroke="#263238" stroke-width="0.4" stroke-linecap="round" stroke-linejoin="round"/>
<path d="M183.514 84.5332C183.344 84.9771 183.131 85.4029 182.877 85.8042" stroke="#263238" stroke-width="0.4" stroke-linecap="round" stroke-linejoin="round"/>
<path d="M183.714 73.957L184.626 75.9876L183.876 76.8008L185.064 78.2378C185.064 78.2378 184.601 81.3683 183.784 83.7928" stroke="#263238" stroke-width="0.4" stroke-linecap="round" stroke-linejoin="round"/>
<path d="M177.785 69.0449C177.785 69.0449 177.297 68.3742 176.947 68.8555C176.596 69.3367 177.922 70.9983 177.922 70.9983L177.785 69.0449Z" fill="white" stroke="#263238" stroke-width="0.4" stroke-linecap="round" stroke-linejoin="round"/>
<path d="M183.433 69.0449C183.433 69.0449 183.921 68.3742 184.271 68.8555C184.622 69.3367 183.295 70.9983 183.295 70.9983L183.433 69.0449Z" fill="white" stroke="#263238" stroke-width="0.4" stroke-linecap="round" stroke-linejoin="round"/>
<path d="M177.682 68.6663C177.682 68.6663 177.98 71.7851 178.036 72.3283C178.091 72.8716 178.279 74.037 178.497 74.4427C178.715 74.8485 180.206 76.3693 180.611 76.2067C181.017 76.044 182.429 74.5785 182.81 74.1443C183.19 73.71 183.053 72.9236 183.108 72.7341C183.163 72.5446 183.378 70.6734 183.378 70.6734L183.507 68.6982C183.507 68.6982 183.562 68.5087 183.48 67.288C183.398 66.0674 183.4 65.5241 183.264 65.2256C183.128 64.9272 182.776 64.7645 182.151 64.6019C181.525 64.4393 180.036 64.4678 179.114 64.9289C178.192 65.39 177.731 66.0405 177.704 66.2837C177.677 66.5268 177.682 68.6663 177.682 68.6663Z" fill="white" stroke="#263238" stroke-width="0.4" stroke-linecap="round" stroke-linejoin="round"/>
<path d="M180.179 67.7727C180.179 67.7727 179.34 67.2295 178.876 67.9404" stroke="#263238" stroke-width="0.4" stroke-linecap="round" stroke-linejoin="round"/>
<path d="M181.344 67.8249C181.522 67.7168 181.731 67.6714 181.938 67.696C182.144 67.7206 182.337 67.8138 182.484 67.9607" stroke="#263238" stroke-width="0.4" stroke-linecap="round" stroke-linejoin="round"/>
<path d="M181.098 68.0957C181.21 68.3014 181.267 68.5322 181.266 68.7664C181.292 69.2543 181.21 70.257 181.21 70.257L180.181 70.148" stroke="#263238" stroke-width="0.4" stroke-linecap="round" stroke-linejoin="round"/>
<path d="M179.633 70.5098C179.633 70.5098 180.148 71.3481 181.45 70.9155" stroke="#263238" stroke-width="0.4" stroke-linecap="round" stroke-linejoin="round"/>
<path d="M179.802 68.5682C179.802 68.7259 179.73 68.8533 179.634 68.8533C179.539 68.8533 179.467 68.7259 179.467 68.5682C179.467 68.4106 179.54 68.2832 179.634 68.2832C179.728 68.2832 179.802 68.4106 179.802 68.5682Z" fill="#263238"/>
<path d="M182.11 68.5682C182.11 68.7259 182.038 68.8533 181.943 68.8533C181.847 68.8533 181.775 68.7259 181.775 68.5682C181.775 68.4106 181.847 68.2832 181.943 68.2832C182.038 68.2832 182.11 68.4106 182.11 68.5682Z" fill="#263238"/>
<path d="M180.011 68.9375C179.796 69.1405 179.535 69.2888 179.251 69.3701" stroke="#263238" stroke-width="0.4" stroke-linecap="round" stroke-linejoin="round"/>
<path d="M181.609 68.9375C181.609 68.9375 181.934 69.3164 182.315 69.3701" stroke="#263238" stroke-width="0.4" stroke-linecap="round" stroke-linejoin="round"/>
<path d="M179.664 73.1152C179.664 73.1152 180.18 73.739 181.617 73.1421" stroke="#263238" stroke-width="0.4" stroke-linecap="round" stroke-linejoin="round"/>
<path d="M177.38 66.1158C177.38 66.1158 177.46 68.8556 177.548 68.9093C177.635 68.963 177.873 69.0183 177.927 68.8288C177.96 68.5316 177.969 68.2321 177.953 67.9334C177.953 67.9334 178.225 67.9066 178.279 67.4723C178.332 67.038 178.089 66.2785 178.089 66.2785C178.089 66.2785 179.065 65.5742 179.987 65.3026C180.91 65.031 181.399 65.4384 181.968 65.4703C182.301 65.4892 182.63 65.3828 182.89 65.1718C182.89 65.1718 182.618 65.5793 182.618 65.7687C182.618 65.9582 182.972 66.9626 182.917 67.2611C182.861 67.5595 182.809 67.8848 182.972 67.9921C183.135 68.0994 183.324 68.2369 183.324 68.2369C183.324 68.2369 183.324 68.9697 183.433 69.0233C183.542 69.077 183.732 68.7802 183.758 68.3727C183.785 67.9653 183.785 66.9894 183.926 66.696C184.067 66.4026 184.278 66.1812 184.116 65.7469C183.953 65.3127 183.383 64.9337 183.302 64.9086C183.222 64.8834 182.191 63.5538 180.861 63.2318C179.531 62.9099 177.417 64.8063 177.199 65.4032C176.981 66.0001 177.38 66.1158 177.38 66.1158Z" fill="#263238" stroke="#263238" stroke-width="0.4" stroke-linecap="round" stroke-linejoin="round"/>
<path d="M165.415 75.7407C165.261 75.3593 165.136 74.967 165.041 74.567C164.982 74.1931 164.521 73.5878 164.062 73.4151C163.565 73.2233 163.121 72.9171 162.765 72.5214C162.361 72.0904 162.132 71.9462 162.073 72.3772C162.014 72.8081 162.304 73.011 162.593 73.2709C162.881 73.5308 163.168 73.7605 163.168 73.7605C162.879 73.8542 162.579 73.9105 162.276 73.9282C161.743 73.9544 161.21 73.9059 160.691 73.784C160.259 73.6683 158.761 72.575 158.905 73.0059C159.05 73.4369 159.769 73.9852 160.346 74.5335C160.923 75.0818 161.297 75.3718 161.959 75.5697C162.621 75.7675 163.686 76.0308 163.686 76.0308L164.291 76.8373L165.415 75.7407Z" fill="white" stroke="#263238" stroke-width="0.4" stroke-linecap="round" stroke-linejoin="round"/>
<path d="M160.953 74.9632C160.953 74.9632 160.031 74.2723 159.887 73.4943C159.742 72.7163 159.801 72.4296 160.002 72.5436C160.203 72.6576 160.693 73.7827 160.693 73.7827L161.557 74.7334" fill="white"/>
<path d="M160.953 74.9632C160.953 74.9632 160.031 74.2723 159.887 73.4943C159.742 72.7163 159.801 72.4296 160.002 72.5436C160.203 72.6576 160.693 73.7827 160.693 73.7827L161.557 74.7334" stroke="#263238" stroke-width="0.4" stroke-linecap="round" stroke-linejoin="round"/>
<path d="M161.729 75.3411C161.729 75.3411 160.866 74.8213 160.78 74.3032C160.695 73.7851 160.492 72.2592 160.693 72.3732C160.894 72.4873 161.298 74.102 161.298 74.102L161.788 74.5346" fill="white"/>
<path d="M161.729 75.3411C161.729 75.3411 160.866 74.8213 160.78 74.3032C160.695 73.7851 160.492 72.2592 160.693 72.3732C160.894 72.4873 161.298 74.102 161.298 74.102L161.788 74.5346" stroke="#263238" stroke-width="0.4" stroke-linecap="round" stroke-linejoin="round"/>
<path d="M162.205 75.366C162.205 75.366 161.687 74.36 161.572 74.0414C161.456 73.7228 161.198 72.3999 161.458 72.4569C161.718 72.5139 161.947 73.8385 161.947 73.8385L162.61 74.6769C162.61 74.6769 163.53 74.3885 163.783 74.4455C164.036 74.5025 164.36 75.0223 164.36 75.0223" fill="white"/>
<path d="M162.205 75.366C162.205 75.366 161.687 74.36 161.572 74.0414C161.456 73.7228 161.198 72.3999 161.458 72.4569C161.718 72.5139 161.947 73.8385 161.947 73.8385L162.61 74.6769C162.61 74.6769 163.53 74.3885 163.783 74.4455C164.036 74.5025 164.36 75.0223 164.36 75.0223" stroke="#263238" stroke-width="0.4" stroke-linecap="round" stroke-linejoin="round"/>
<path d="M166.1 76.1974L165.411 75.5586L163.709 77.3343L164.209 77.9899L166.1 76.1974Z" fill="white" stroke="#263238" stroke-width="0.4" stroke-linecap="round" stroke-linejoin="round"/>
<path d="M178.238 73.3359C178.238 73.3359 177.655 77.9537 177.578 80.5946C177.501 83.2355 177.772 97.0921 177.772 97.0921L172.609 96.9362C172.609 96.9362 173.191 92.0451 173.615 90.2593C173.907 88.8824 174.012 87.4724 173.926 86.0675C173.887 85.8344 173.615 83.6999 173.615 83.6999C173.615 83.6999 170.703 85.6399 170.354 85.6013C170.005 85.5628 167.987 84.0923 166.434 82.1472C165.446 80.8716 164.649 79.4596 164.066 77.9554L165.902 75.8578L170.25 80.2056C170.25 80.2056 172.5 75.6649 172.733 75.5476C172.967 75.4302 178.238 73.3359 178.238 73.3359Z" fill="#0F913D" stroke="#263238" stroke-width="0.4" stroke-linecap="round" stroke-linejoin="round"/>
<path d="M176.087 81.3184C176.37 82.8227 176.775 84.3015 177.298 85.7399" stroke="#263238" stroke-width="0.4" stroke-linecap="round" stroke-linejoin="round"/>
<path d="M177.237 74.1113L176.298 76.4873L177.049 77.1127L175.737 78.4876C175.767 79.1964 175.843 79.9026 175.961 80.602" stroke="#263238" stroke-width="0.4" stroke-linecap="round" stroke-linejoin="round"/>
<path d="M173.499 83.0784C173.499 83.0784 172.723 79.6629 172.493 78.3047L173.499 83.0784Z" fill="white"/>
<path d="M173.499 83.0784C173.499 83.0784 172.723 79.6629 172.493 78.3047" stroke="#263238" stroke-width="0.4" stroke-linecap="round" stroke-linejoin="round"/>
<path d="M178.149 75.9746L178.812 77.918L180.609 76.206L182.036 78.0504L182.662 76.3921" fill="white"/>
<path d="M178.149 75.9746L178.812 77.918L180.609 76.206L182.036 78.0504L182.662 76.3921" stroke="#263238" stroke-width="0.4" stroke-linecap="round" stroke-linejoin="round"/>
<path d="M181.297 77.2114L180.485 78.6601L179.553 77.2013L180.606 76.207L181.297 77.2114Z" fill="#263238" stroke="#263238" stroke-width="0.4" stroke-linecap="round" stroke-linejoin="round"/>
<path d="M180.492 78.6621L178.685 90.7649L180.296 92.061L181.554 90.7263L180.492 78.6621Z" fill="#263238" stroke="#263238" stroke-width="0.4" stroke-linecap="round" stroke-linejoin="round"/>
<path d="M187.666 73.7458C188.955 73.4396 189.751 72.147 189.445 70.8586C189.139 69.5703 187.846 68.7741 186.558 69.0803C185.269 69.3865 184.473 70.6792 184.779 71.9675C185.085 73.2559 186.378 74.0521 187.666 73.7458Z" fill="white" stroke="#263238" stroke-width="0.4" stroke-linecap="round" stroke-linejoin="round"/>
<path d="M185.542 74.4989C185.542 74.4989 185.46 75.572 185.522 75.7783C185.584 75.9845 186.025 76.8095 186.025 76.8095C186.025 76.8095 185.963 77.3879 186.065 77.5741C186.168 77.7602 187.159 78.9356 187.159 78.9356L188.332 77.9027L187.667 76.5814L187.647 74.8695C187.647 74.8695 186.355 73.7578 185.542 74.4989Z" fill="white" stroke="#263238" stroke-width="0.4" stroke-linecap="round" stroke-linejoin="round"/>
<path d="M186.127 73.3118L186.489 76.288C186.509 76.4395 186.588 76.577 186.708 76.671C186.828 76.7651 186.981 76.8082 187.133 76.791C187.279 76.7747 187.413 76.7037 187.509 76.5924C187.606 76.4811 187.656 76.3377 187.651 76.1908L187.547 73.1508C187.547 73.1508 186.652 72.4785 186.127 73.3118Z" fill="white" stroke="#263238" stroke-width="0.4" stroke-linecap="round" stroke-linejoin="round"/>
<path d="M186.184 73.9609C186.184 73.9609 185.413 74.0532 185.413 74.2963C185.413 74.5394 185.689 75.6545 185.936 75.7165C186.182 75.7785 186.368 75.7785 186.368 75.2839C186.343 74.8386 186.282 74.3961 186.184 73.9609Z" fill="white" stroke="#263238" stroke-width="0.4" stroke-linecap="round" stroke-linejoin="round"/>
<path d="M188.011 74.7949C188.011 74.7949 186.22 74.9492 186.19 75.1303C186.159 75.3114 186.22 75.7792 186.344 75.7792C186.468 75.7792 188.071 75.7909 188.103 75.6115C188.135 75.4321 188.227 75.0414 188.011 74.7949Z" fill="white" stroke="#263238" stroke-width="0.4" stroke-linecap="round" stroke-linejoin="round"/>
<path d="M187.951 75.6641C187.951 75.6641 186.356 75.7529 186.322 75.9173C186.289 76.0816 186.333 76.4941 186.443 76.4974C186.554 76.5008 187.977 76.5544 188.011 76.3985C188.044 76.2425 188.137 75.8887 187.951 75.6641Z" fill="white" stroke="#263238" stroke-width="0.4" stroke-linecap="round" stroke-linejoin="round"/>
<path d="M187.733 76.4375C187.733 76.4375 186.411 76.5113 186.391 76.6471C186.371 76.7829 186.4 77.125 186.492 77.1283C186.584 77.1317 187.761 77.1753 187.788 77.0462C187.815 76.917 187.887 76.6236 187.733 76.4375Z" fill="white" stroke="#263238" stroke-width="0.4" stroke-linecap="round" stroke-linejoin="round"/>
<path d="M187.881 73.9902C187.881 73.9902 186.091 74.1445 186.061 74.3256C186.03 74.5067 186.091 74.9728 186.215 74.9728C186.339 74.9728 187.942 74.9862 187.974 74.8051C188.006 74.624 188.098 74.23 187.881 73.9902Z" fill="white" stroke="#263238" stroke-width="0.4" stroke-linecap="round" stroke-linejoin="round"/>
<path d="M188.303 77.3115L187.783 77.0449L186.373 78.7737L186.951 79.545L188.303 77.3115Z" fill="white" stroke="#263238" stroke-width="0.4" stroke-linecap="round" stroke-linejoin="round"/>
<path d="M188.2 77.0078C188.2 77.0078 187.687 78.2033 187.303 78.6309C186.919 79.0585 186.49 79.4425 186.49 79.4425C186.49 79.4425 188.284 83.6729 188.536 84.4844C188.787 85.296 189.775 85.851 190.202 85.9784C190.63 86.1058 191.654 85.7655 192.047 85.3379C192.439 84.9103 192.986 83.5438 192.687 82.7758C192.389 82.0079 188.2 77.0078 188.2 77.0078Z" fill="#0F913D" stroke="#263238" stroke-width="0.4" stroke-linecap="round" stroke-linejoin="round"/>
<path d="M191.139 74.5932C193.459 73.993 194.852 71.6263 194.252 69.307C193.652 66.9877 191.285 65.5942 188.966 66.1944C186.647 66.7947 185.253 69.1614 185.853 71.4806C186.453 73.7999 188.82 75.1934 191.139 74.5932Z" fill="#0F913D" stroke="#263238" stroke-width="0.4" stroke-linecap="round" stroke-linejoin="round"/>
<path d="M190.849 73.8353C192.751 73.3955 193.936 71.4971 193.497 69.5952C193.057 67.6933 191.158 66.508 189.256 66.9478C187.355 67.3876 186.169 69.2859 186.609 71.1879C187.049 73.0898 188.947 74.275 190.849 73.8353Z" fill="#263238" stroke="#263238" stroke-width="0.4" stroke-linecap="round" stroke-linejoin="round"/>
<path d="M189.709 71.9981C190.5 71.9981 191.142 71.3562 191.142 70.5645C191.142 69.7727 190.5 69.1309 189.709 69.1309C188.917 69.1309 188.275 69.7727 188.275 70.5645C188.275 71.3562 188.917 71.9981 189.709 71.9981Z" fill="white" stroke="#263238" stroke-width="0.4" stroke-linecap="round" stroke-linejoin="round"/>
<path d="M190.843 70.3947C190.843 70.2381 190.797 70.0849 190.71 69.9545C190.623 69.8241 190.5 69.7224 190.355 69.6623C190.211 69.6021 190.051 69.5862 189.898 69.6166C189.744 69.6469 189.603 69.7222 189.492 69.8328C189.381 69.9434 189.306 70.0844 189.275 70.238C189.244 70.3915 189.26 70.5508 189.32 70.6955C189.38 70.8402 189.481 70.9639 189.611 71.0509C189.742 71.138 189.895 71.1844 190.051 71.1844C190.261 71.1844 190.462 71.1013 190.61 70.9532C190.759 70.8051 190.842 70.6043 190.843 70.3947Z" fill="#0F913D" stroke="#263238" stroke-width="0.4" stroke-linecap="round" stroke-linejoin="round"/>
</svg>
