<svg width="40" height="40" viewBox="0 0 40 40" fill="none" xmlns="http://www.w3.org/2000/svg">
<rect width="40" height="40" rx="20" fill="#F3DAFF"/>
<path d="M29.6499 28.6256C29.5841 28.7396 29.4894 28.8343 29.3753 28.9002C29.2613 28.966 29.1319 29.0006 29.0002 29.0006H11.0002C10.8686 29.0005 10.7394 28.9657 10.6255 28.8998C10.5116 28.8339 10.417 28.7393 10.3513 28.6253C10.2855 28.5113 10.2509 28.382 10.251 28.2504C10.251 28.1188 10.2857 27.9896 10.3515 27.8756C11.7793 25.4072 13.9796 23.6372 16.5474 22.7981C15.2772 22.042 14.2904 20.8898 13.7384 19.5185C13.1865 18.1473 13.0999 16.6327 13.492 15.2075C13.8841 13.7823 14.7333 12.5252 15.909 11.6292C17.0847 10.7333 18.522 10.248 20.0002 10.248C21.4784 10.248 22.9157 10.7333 24.0914 11.6292C25.2672 12.5252 26.1163 13.7823 26.5084 15.2075C26.9005 16.6327 26.8139 18.1473 26.262 19.5185C25.71 20.8898 24.7232 22.042 23.453 22.7981C26.0208 23.6372 28.2211 25.4072 29.649 27.8756C29.7149 27.9895 29.7497 28.1188 29.7499 28.2505C29.7501 28.3821 29.7156 28.5115 29.6499 28.6256Z" fill="#AF52DE"/>
</svg>
