<svg width="40" height="40" viewBox="0 0 40 40" fill="none" xmlns="http://www.w3.org/2000/svg">
<rect width="40" height="40" rx="20" fill="#E1FFDD"/>
<path d="M27.5 13.2502C26.4787 13.2502 25.4663 13.441 24.515 13.8127C23.1725 11.0283 20.4603 9.64454 20.3366 9.58173C20.2324 9.52959 20.1175 9.50244 20.0009 9.50244C19.8844 9.50244 19.7695 9.52959 19.6653 9.58173C19.5406 9.64173 16.8284 11.0255 15.4859 13.8127C14.5343 13.4409 13.5217 13.2501 12.5 13.2502C12.3011 13.2502 12.1103 13.3292 11.9697 13.4698C11.829 13.6105 11.75 13.8013 11.75 14.0002V21.5002C11.7524 23.4841 12.4688 25.4009 13.7681 26.9002C15.0674 28.3996 16.8628 29.3812 18.8263 29.6658C18.8794 29.6728 18.9335 29.6683 18.9848 29.6526C19.036 29.6369 19.0834 29.6103 19.1235 29.5748C19.1637 29.5393 19.1958 29.4955 19.2176 29.4465C19.2394 29.3975 19.2505 29.3444 19.25 29.2908V24.5255C19.2476 24.332 19.3185 24.1447 19.4483 24.0013C19.5782 23.8579 19.7575 23.7688 19.9503 23.752C20.0529 23.7452 20.1558 23.7596 20.2526 23.7942C20.3494 23.8288 20.4381 23.883 20.5131 23.9533C20.5881 24.0237 20.6478 24.1087 20.6885 24.2031C20.7293 24.2975 20.7502 24.3992 20.75 24.502V29.2964C20.7495 29.35 20.7606 29.4031 20.7824 29.4521C20.8042 29.5011 20.8363 29.5449 20.8765 29.5804C20.9166 29.616 20.964 29.6425 21.0152 29.6582C21.0665 29.6739 21.1206 29.6784 21.1738 29.6714C23.1381 29.3867 24.9344 28.4042 26.2338 26.9037C27.5332 25.4033 28.2489 23.4851 28.25 21.5002V14.0002C28.25 13.8013 28.171 13.6105 28.0303 13.4698C27.8897 13.3292 27.6989 13.2502 27.5 13.2502ZM19.25 22.012C18.5622 21.0317 17.6692 20.2129 16.6331 19.6124C15.597 19.0119 14.4425 18.6442 13.25 18.5349V14.7914C14.8994 14.9779 16.4224 15.7647 17.529 17.002C18.6355 18.2392 19.2481 19.8403 19.25 21.5002V22.012ZM20 18.0652C19.3173 16.5844 18.214 15.3373 16.8275 14.4792C17.6909 12.6783 19.3025 11.542 20 11.1136C20.6984 11.543 22.3091 12.6792 23.1725 14.4792C21.786 15.3373 20.6827 16.5844 20 18.0652ZM26.75 18.5339C25.5575 18.6433 24.403 19.011 23.3669 19.6115C22.3308 20.2119 21.4378 21.0308 20.75 22.0111V21.5002C20.7519 19.8403 21.3645 18.2392 22.471 17.002C23.5776 15.7647 25.1006 14.9779 26.75 14.7914V18.5339Z" fill="#0F913D"/>
</svg>
