<svg width="153" height="145" viewBox="0 0 153 145" fill="none" xmlns="http://www.w3.org/2000/svg">
<path opacity="0.7" d="M47.8175 8.91961C47.8175 8.91961 21.8665 22.14 8.92354 42.5117C-4.01941 62.8834 -2.99535 89.0913 12.7321 108.545C28.4596 127.999 58.5205 125.444 83.6906 137.767C108.861 150.09 136.63 147.552 148.532 121.444C160.434 95.335 142.487 85.5773 139.405 55.3622C136.322 25.1471 109.083 -19.0966 47.8175 8.91961Z" fill="#DDFFE9"/>
<path d="M54.5802 124.44V56.6296C54.5808 53.6947 53.6812 50.8304 52.0029 48.4228L49.6334 45.0293H91.7307L94.1002 48.4228C95.7785 50.8304 96.6781 53.6947 96.6775 56.6296V123.797" stroke="#263238" stroke-width="3.168" stroke-linecap="round" stroke-linejoin="round"/>
<path d="M144.043 139.305C146.45 139.305 148.401 137.353 148.401 134.947C148.401 132.54 146.45 130.588 144.043 130.588C141.636 130.588 139.685 132.54 139.685 134.947C139.685 137.353 141.636 139.305 144.043 139.305Z" fill="#263238"/>
<path opacity="0.4" d="M146.225 134.947C146.226 134.516 146.098 134.093 145.859 133.734C145.62 133.374 145.28 133.094 144.881 132.928C144.483 132.762 144.044 132.718 143.62 132.802C143.197 132.886 142.808 133.093 142.502 133.398C142.197 133.703 141.988 134.092 141.904 134.515C141.819 134.938 141.862 135.377 142.027 135.776C142.192 136.175 142.472 136.516 142.83 136.756C143.189 136.996 143.611 137.124 144.043 137.124C144.329 137.124 144.613 137.069 144.877 136.96C145.142 136.85 145.383 136.69 145.585 136.488C145.788 136.286 145.949 136.046 146.058 135.781C146.168 135.517 146.225 135.233 146.225 134.947Z" fill="white"/>
<path d="M143.519 135.916C143.179 135.916 142.847 135.811 142.569 135.617C142.29 135.422 142.078 135.147 141.96 134.828L139.393 127.793H145.176V134.259C145.176 134.698 145.001 135.12 144.69 135.431C144.38 135.742 143.958 135.916 143.519 135.916Z" fill="#263238"/>
<path opacity="0.2" d="M143.519 135.916C143.179 135.916 142.847 135.811 142.569 135.617C142.29 135.422 142.078 135.147 141.96 134.828L139.393 127.793H145.176V134.259C145.176 134.698 145.001 135.12 144.69 135.431C144.38 135.742 143.958 135.916 143.519 135.916Z" fill="white"/>
<path d="M95.5638 139.305C97.9707 139.305 99.9219 137.353 99.9219 134.947C99.9219 132.54 97.9707 130.588 95.5638 130.588C93.1568 130.588 91.2056 132.54 91.2056 134.947C91.2056 137.353 93.1568 139.305 95.5638 139.305Z" fill="#263238"/>
<path opacity="0.4" d="M97.745 134.947C97.746 134.516 97.6189 134.093 97.3798 133.734C97.1407 133.374 96.8003 133.094 96.4018 132.928C96.0032 132.762 95.5644 132.718 95.1409 132.802C94.7174 132.886 94.3283 133.093 94.0227 133.398C93.7171 133.703 93.5088 134.092 93.4242 134.515C93.3397 134.938 93.3826 135.377 93.5475 135.776C93.7125 136.175 93.9921 136.516 94.351 136.756C94.7098 136.996 95.1318 137.124 95.5635 137.124C95.8497 137.124 96.1333 137.069 96.398 136.96C96.6626 136.85 96.9031 136.69 97.1058 136.488C97.3084 136.286 97.4692 136.046 97.5789 135.781C97.6886 135.517 97.745 135.233 97.745 134.947Z" fill="white"/>
<path d="M95.0391 135.916C94.6992 135.916 94.3677 135.811 94.0891 135.617C93.8104 135.422 93.5982 135.147 93.4808 134.828L90.9135 127.793H96.6963V134.259C96.6963 134.698 96.5217 135.12 96.2109 135.431C95.9001 135.742 95.4786 135.916 95.0391 135.916Z" fill="#263238"/>
<path opacity="0.2" d="M95.0391 135.916C94.6992 135.916 94.3677 135.811 94.0891 135.617C93.8104 135.422 93.5982 135.147 93.4808 134.828L90.9135 127.793H96.6963V134.259C96.6963 134.698 96.5217 135.12 96.2109 135.431C95.9001 135.742 95.4786 135.916 95.0391 135.916Z" fill="white"/>
<path d="M151.537 122.724V126.84C151.537 127.209 151.39 127.562 151.13 127.823C150.869 128.083 150.515 128.23 150.147 128.23H52.7293C52.3606 128.23 52.0071 128.083 51.7464 127.823C51.4857 127.562 51.3392 127.209 51.3392 126.84V122.724H151.537Z" fill="#263238"/>
<path opacity="0.4" d="M151.537 122.724V126.84C151.537 127.209 151.39 127.562 151.13 127.823C150.869 128.083 150.515 128.23 150.147 128.23H52.7293C52.3606 128.23 52.0071 128.083 51.7464 127.823C51.4857 127.562 51.3392 127.209 51.3392 126.84V122.724H151.537Z" fill="white"/>
<path opacity="0.2" d="M116.909 122.724V126.84C116.909 127.209 116.763 127.562 116.502 127.823C116.241 128.083 115.888 128.23 115.519 128.23H52.7293C52.3606 128.23 52.0071 128.083 51.7464 127.823C51.4857 127.562 51.3392 127.209 51.3392 126.84V122.724H116.909Z" fill="white"/>
<path d="M108.921 139.305C111.328 139.305 113.279 137.353 113.279 134.947C113.279 132.54 111.328 130.588 108.921 130.588C106.514 130.588 104.562 132.54 104.562 134.947C104.562 137.353 106.514 139.305 108.921 139.305Z" fill="#263238"/>
<path opacity="0.6" d="M111.102 134.947C111.103 134.516 110.976 134.093 110.737 133.734C110.498 133.374 110.157 133.094 109.759 132.928C109.36 132.762 108.921 132.718 108.498 132.802C108.074 132.886 107.685 133.093 107.38 133.398C107.074 133.703 106.866 134.092 106.781 134.515C106.697 134.938 106.739 135.377 106.904 135.776C107.069 136.175 107.349 136.516 107.708 136.756C108.067 136.996 108.489 137.124 108.92 137.124C109.207 137.124 109.49 137.069 109.755 136.96C110.019 136.85 110.26 136.69 110.463 136.488C110.665 136.286 110.826 136.046 110.936 135.781C111.045 135.517 111.102 135.233 111.102 134.947Z" fill="white"/>
<path d="M108.396 135.916C108.056 135.916 107.724 135.811 107.446 135.617C107.167 135.422 106.955 135.147 106.838 134.828L104.27 127.793H110.053V134.259C110.053 134.698 109.878 135.12 109.568 135.431C109.257 135.742 108.835 135.916 108.396 135.916Z" fill="#263238"/>
<path opacity="0.4" d="M108.396 135.916C108.056 135.916 107.724 135.811 107.446 135.617C107.167 135.422 106.955 135.147 106.838 134.828L104.27 127.793H110.053V134.259C110.053 134.698 109.878 135.12 109.568 135.431C109.257 135.742 108.835 135.916 108.396 135.916Z" fill="white"/>
<path d="M60.4411 139.305C62.848 139.305 64.7992 137.353 64.7992 134.947C64.7992 132.54 62.848 130.588 60.4411 130.588C58.0342 130.588 56.0829 132.54 56.0829 134.947C56.0829 137.353 58.0342 139.305 60.4411 139.305Z" fill="#263238"/>
<path opacity="0.6" d="M62.6224 134.947C62.6234 134.516 62.4963 134.093 62.2572 133.734C62.0181 133.374 61.6777 133.094 61.2791 132.928C60.8806 132.762 60.4418 132.718 60.0183 132.802C59.5948 132.886 59.2056 133.093 58.9001 133.398C58.5945 133.703 58.3862 134.092 58.3016 134.515C58.217 134.938 58.26 135.377 58.4249 135.776C58.5899 136.175 58.8695 136.516 59.2284 136.756C59.5872 136.996 60.0092 137.124 60.4409 137.124C60.7271 137.124 61.0107 137.069 61.2753 136.96C61.54 136.85 61.7805 136.69 61.9832 136.488C62.1858 136.286 62.3466 136.046 62.4563 135.781C62.566 135.517 62.6224 135.233 62.6224 134.947Z" fill="white"/>
<path d="M59.9164 135.916C59.5766 135.916 59.245 135.811 58.9664 135.617C58.6878 135.422 58.4755 135.147 58.3582 134.828L55.7908 127.793H61.5736V134.259C61.5736 134.698 61.399 135.12 61.0882 135.431C60.7774 135.742 60.3559 135.916 59.9164 135.916Z" fill="#263238"/>
<path opacity="0.4" d="M59.9164 135.916C59.5766 135.916 59.245 135.811 58.9664 135.617C58.6878 135.422 58.4755 135.147 58.3582 134.828L55.7908 127.793H61.5736V134.259C61.5736 134.698 61.399 135.12 61.0882 135.431C60.7774 135.742 60.3559 135.916 59.9164 135.916Z" fill="white"/>
<path d="M109.534 90.792H63.4048V122.724H109.534V90.792Z" fill="#0F913D"/>
<path opacity="0.4" d="M109.534 90.792H63.4048V122.724H109.534V90.792Z" fill="white"/>
<path opacity="0.2" d="M84.8097 90.792H63.4048V122.724H84.8097V90.792Z" fill="white"/>
<path opacity="0.2" d="M82.787 115.972H80.1107C79.8594 115.972 79.6556 116.175 79.6556 116.427V120.082C79.6556 120.334 79.8594 120.538 80.1107 120.538H82.787C83.0383 120.538 83.2421 120.334 83.2421 120.082V116.427C83.2421 116.175 83.0383 115.972 82.787 115.972Z" fill="black"/>
<path opacity="0.2" d="M77.9573 115.972H75.281C75.0297 115.972 74.8259 116.175 74.8259 116.427V120.082C74.8259 120.334 75.0297 120.538 75.281 120.538H77.9573C78.2086 120.538 78.4124 120.334 78.4124 120.082V116.427C78.4124 116.175 78.2086 115.972 77.9573 115.972Z" fill="black"/>
<path opacity="0.4" d="M99.6155 90.792H97.0085V94.1212H99.6155V90.792Z" fill="black"/>
<path opacity="0.2" d="M106.743 104.426H88.7865V108.601H106.743V104.426Z" fill="black"/>
<path opacity="0.2" d="M70.9382 92.4546H64.7992V98.5936H70.9382V92.4546Z" fill="black"/>
<path d="M114.243 58.8608H68.1142V90.7925H114.243V58.8608Z" fill="#0F913D"/>
<path opacity="0.4" d="M114.243 58.8608H68.1142V90.7925H114.243V58.8608Z" fill="black"/>
<path opacity="0.2" d="M89.519 58.8608H68.1142V90.7925H89.519V58.8608Z" fill="white"/>
<path opacity="0.2" d="M87.5006 84.0396H84.8244C84.573 84.0396 84.3693 84.2433 84.3693 84.4947V88.1504C84.3693 88.4017 84.573 88.6055 84.8244 88.6055H87.5006C87.7519 88.6055 87.9557 88.4017 87.9557 88.1504V84.4947C87.9557 84.2433 87.7519 84.0396 87.5006 84.0396Z" fill="black"/>
<path opacity="0.2" d="M82.6709 84.0396H79.9947C79.7434 84.0396 79.5396 84.2433 79.5396 84.4947V88.1504C79.5396 88.4017 79.7434 88.6055 79.9947 88.6055H82.6709C82.9223 88.6055 83.126 88.4017 83.126 88.1504V84.4947C83.126 84.2433 82.9223 84.0396 82.6709 84.0396Z" fill="black"/>
<path opacity="0.4" d="M104.325 58.8608H101.718V62.19H104.325V58.8608Z" fill="black"/>
<path opacity="0.2" d="M111.455 72.4937H93.498V76.6688H111.455V72.4937Z" fill="black"/>
<path opacity="0.2" d="M75.654 60.5225H69.515V66.6614H75.654V60.5225Z" fill="black"/>
<path d="M142.478 58.8608H96.349V90.7925H142.478V58.8608Z" fill="#0F913D"/>
<path opacity="0.4" d="M142.478 58.8608H96.349V90.7925H142.478V58.8608Z" fill="white"/>
<path opacity="0.2" d="M117.754 58.8608H96.349V90.7925H117.754V58.8608Z" fill="white"/>
<path opacity="0.2" d="M115.735 84.0396H113.059C112.808 84.0396 112.604 84.2433 112.604 84.4947V88.1504C112.604 88.4017 112.808 88.6055 113.059 88.6055H115.735C115.987 88.6055 116.19 88.4017 116.19 88.1504V84.4947C116.19 84.2433 115.987 84.0396 115.735 84.0396Z" fill="black"/>
<path opacity="0.2" d="M110.908 84.0396H108.232C107.98 84.0396 107.776 84.2433 107.776 84.4947V88.1504C107.776 88.4017 107.98 88.6055 108.232 88.6055H110.908C111.159 88.6055 111.363 88.4017 111.363 88.1504V84.4947C111.363 84.2433 111.159 84.0396 110.908 84.0396Z" fill="black"/>
<path opacity="0.4" d="M132.562 58.8608H129.955V62.19H132.562V58.8608Z" fill="black"/>
<path opacity="0.2" d="M139.69 72.4937H121.733V76.6688H139.69V72.4937Z" fill="black"/>
<path opacity="0.2" d="M103.889 60.5225H97.7498V66.6614H103.889V60.5225Z" fill="black"/>
<path d="M126.524 26.9287H80.3947V58.8603H126.524V26.9287Z" fill="#0F913D"/>
<path opacity="0.2" d="M101.799 26.9287H80.3947V58.8603H101.799V26.9287Z" fill="white"/>
<path opacity="0.2" d="M99.7789 52.1069H97.1027C96.8513 52.1069 96.6476 52.3107 96.6476 52.562V56.2177C96.6476 56.4691 96.8513 56.6728 97.1027 56.6728H99.7789C100.03 56.6728 100.234 56.4691 100.234 56.2177V52.562C100.234 52.3107 100.03 52.1069 99.7789 52.1069Z" fill="black"/>
<path opacity="0.2" d="M94.9557 52.1069H92.2795C92.0281 52.1069 91.8243 52.3107 91.8243 52.562V56.2177C91.8243 56.4691 92.0281 56.6728 92.2795 56.6728H94.9557C95.207 56.6728 95.4108 56.4691 95.4108 56.2177V52.562C95.4108 52.3107 95.207 52.1069 94.9557 52.1069Z" fill="black"/>
<path opacity="0.4" d="M116.608 26.9287H114.001V30.2579H116.608V26.9287Z" fill="black"/>
<path opacity="0.2" d="M123.738 40.5615H105.781V44.7366H123.738V40.5615Z" fill="black"/>
<path opacity="0.2" d="M87.9323 28.5903H81.7933V34.7293H87.9323V28.5903Z" fill="black"/>
<path d="M138.89 90.792H92.7611V122.724H138.89V90.792Z" fill="#263238"/>
<path opacity="0.2" d="M138.89 90.792H92.7611V122.724H138.89V90.792Z" fill="white"/>
<path opacity="0.2" d="M114.166 90.792H92.7611V122.724H114.166V90.792Z" fill="white"/>
<path opacity="0.2" d="M112.141 115.972H109.465C109.213 115.972 109.01 116.175 109.01 116.427V120.082C109.01 120.334 109.213 120.538 109.465 120.538H112.141C112.392 120.538 112.596 120.334 112.596 120.082V116.427C112.596 116.175 112.392 115.972 112.141 115.972Z" fill="black"/>
<path opacity="0.2" d="M107.314 115.972H104.637C104.386 115.972 104.182 116.175 104.182 116.427V120.082C104.182 120.334 104.386 120.538 104.637 120.538H107.314C107.565 120.538 107.769 120.334 107.769 120.082V116.427C107.769 116.175 107.565 115.972 107.314 115.972Z" fill="black"/>
<path opacity="0.4" d="M128.97 90.792H126.363V94.1212H128.97V90.792Z" fill="black"/>
<path opacity="0.2" d="M136.097 104.426H118.141V108.601H136.097V104.426Z" fill="black"/>
<path opacity="0.2" d="M100.292 92.4546H94.1533V98.5936H100.292V92.4546Z" fill="black"/>
<path d="M23.6387 127.62C23.6387 127.62 22.2003 130.542 21.1728 132.193C20.1453 133.843 18.2376 136.015 18.4328 137.926C18.628 139.837 20.6179 140.043 22.6661 138.953C24.7142 137.864 26.5568 135.679 27.1185 134.039C27.6802 132.398 29.4406 131.035 29.4406 129.192C29.4406 127.35 29.3036 127.137 28.6221 126.939C27.9405 126.74 24.3203 126.459 23.6387 127.62Z" fill="white" stroke="#263238" stroke-width="0.528" stroke-linecap="round" stroke-linejoin="round"/>
<path d="M29.439 129.189C29.439 128.918 29.439 128.685 29.439 128.48C29.2496 129.05 29.0207 129.606 28.754 130.145C28.0005 131.648 26.9079 132.542 26.5004 134.378C26.0928 136.214 23.4967 138.337 21.243 138.882C18.9894 139.426 18.5031 137.587 18.5031 137.587H18.4209C18.4125 137.701 18.4125 137.815 18.4209 137.929C18.6264 139.841 20.606 140.046 22.6541 138.957C24.7023 137.868 26.5449 135.683 27.1066 134.042C27.6683 132.402 29.439 131.032 29.439 129.189Z" fill="#263238" stroke="#263238" stroke-width="0.528" stroke-linecap="round" stroke-linejoin="round"/>
<path d="M23.9125 128.846C23.9125 128.846 24.7345 130.007 27.4642 129.668" stroke="#263238" stroke-width="0.528" stroke-linecap="round" stroke-linejoin="round"/>
<path d="M23.8459 129.806C24.6571 130.444 25.6866 130.738 26.7126 130.624" stroke="#263238" stroke-width="0.528" stroke-linecap="round" stroke-linejoin="round"/>
<path d="M23.5709 130.624C23.8723 130.95 24.2466 131.201 24.6633 131.355C25.0799 131.509 25.5271 131.563 25.9683 131.511" stroke="#263238" stroke-width="0.528" stroke-linecap="round" stroke-linejoin="round"/>
<path d="M23.2958 131.785C23.2958 131.785 23.7753 132.741 25.618 132.535" stroke="#263238" stroke-width="0.528" stroke-linecap="round" stroke-linejoin="round"/>
<path d="M41.1116 130.199C42.1388 131.816 43.5509 133.153 45.2215 134.09C47.8827 135.525 51.2974 136.488 51.568 137.172C51.6823 137.421 51.704 137.702 51.6293 137.965C51.5545 138.228 51.3883 138.456 51.1604 138.608C50.8179 138.81 45.7661 138.95 43.1049 138.471C41.6029 138.15 40.0677 138.012 38.5326 138.06C37.303 138.06 34.6418 138.402 34.2993 136.899C33.9568 135.395 34.8439 129.936 34.8439 129.936C34.8439 129.936 38.8579 131.1 41.1116 130.199Z" fill="white" stroke="#263238" stroke-width="0.528" stroke-miterlimit="10"/>
<path d="M51.1468 138.612C51.3232 138.495 51.4631 138.331 51.5504 138.138C51.6376 137.946 51.6687 137.732 51.64 137.523C50.5803 137.781 49.5031 137.962 48.4171 138.064C45.6772 138.338 41.5912 137.451 38.382 137.314C36.0256 137.215 34.7378 136.67 34.2206 136.393C34.2299 136.564 34.2517 136.735 34.2857 136.903C34.6282 138.406 37.2894 138.064 38.519 138.064C40.0541 138.016 41.5894 138.154 43.0913 138.475C45.7525 138.951 50.8043 138.814 51.1468 138.612Z" fill="#263238" stroke="#263238" stroke-width="0.528" stroke-miterlimit="10"/>
<path d="M42.1362 131.785C41.61 132.205 41.189 132.742 40.9066 133.354" stroke="#263238" stroke-width="0.528" stroke-miterlimit="10"/>
<path d="M42.956 132.806C42.956 132.806 42.0689 133.559 42.0689 134.035" stroke="#263238" stroke-width="0.528" stroke-miterlimit="10"/>
<path d="M43.8424 133.49C43.6126 133.877 43.4298 134.29 43.2978 134.72" stroke="#263238" stroke-width="0.528" stroke-miterlimit="10"/>
<path d="M45.2079 134.104C45.2079 134.104 44.6599 134.583 44.6599 135.059" stroke="#263238" stroke-width="0.528" stroke-miterlimit="10"/>
<path d="M21.8338 57.7026C21.8338 57.7026 19.6623 68.0358 19.8336 73.687C20.0048 79.3382 27.711 93.3805 27.711 93.3805C27.711 93.3805 23.6011 103.484 23.4298 107.937C23.2586 112.389 23.6079 126.723 23.6079 126.723C23.6079 126.723 25.3204 127.716 26.8719 127.716C28.4234 127.716 30.2763 126.935 30.2763 126.935L34.2185 111.523L34.3897 130.189C35.53 130.864 36.8317 131.219 38.1572 131.216C39.5055 131.208 40.8195 130.79 41.9246 130.017C41.9246 130.017 44.6646 110.324 45.0071 107.07C45.3496 103.816 47.5758 94.0552 47.7471 93.3703C47.9183 92.6853 51.1721 81.8966 51.1721 73.1629C51.1721 64.4293 48.6616 59.1788 48.6616 59.1788C48.6616 59.1788 39.8697 57.2368 33.3622 57.0656C29.5084 56.9593 25.6524 57.1724 21.8338 57.7026Z" fill="#263238" stroke="#263238" stroke-width="0.528" stroke-linecap="round" stroke-linejoin="round"/>
<path d="M35.4174 108.965C35.4174 108.965 39.8698 96.2925 39.8698 93.2101C39.8698 90.1276 36.9586 70.9478 36.9586 70.9478" stroke="#878787" stroke-width="0.528" stroke-miterlimit="10"/>
<path d="M38.1566 76.7707C38.1566 76.7707 40.7253 73.8595 41.5816 72.147" stroke="#878787" stroke-width="0.528" stroke-miterlimit="10"/>
<path d="M48.3184 31.447C48.3184 31.447 51.8564 33.502 53.7983 36.5845C55.7403 39.6669 59.9633 52.6818 59.7338 55.9903C59.5043 59.2989 58.4803 60.2168 55.5108 59.6448C52.5414 59.0728 52.3153 55.7643 51.6303 53.0243C50.9453 50.2843 47.2909 32.93 47.2909 32.93L47.1779 31.3306L48.3184 31.447Z" fill="white" stroke="#263238" stroke-width="0.528" stroke-linecap="round" stroke-linejoin="round"/>
<path d="M59.734 55.9902C59.8505 54.3051 58.8127 50.0993 57.5078 45.9722L50.2845 46.9723C50.8908 49.7807 51.4114 52.1405 51.6306 53.0139C52.3155 55.7539 52.5416 59.0624 55.511 59.6344C58.4805 60.2063 59.508 59.3021 59.734 55.9902Z" fill="#CFCFCF" stroke="#263238" stroke-width="0.528" stroke-linecap="round" stroke-linejoin="round"/>
<path d="M24.6871 30.4203C24.6871 30.4203 21.9471 30.9888 21.2621 35.7838C20.5771 40.5787 22.1766 48.4562 22.1766 48.4562L21.8341 57.7036C21.8341 57.7036 33.2495 60.673 37.9314 60.673C42.6134 60.673 48.6619 59.19 48.6619 59.19C48.6619 59.19 46.1514 36.1263 45.6924 34.1877C45.2335 32.2492 43.1819 30.3038 41.4694 29.0503C39.7569 27.7968 35.4175 27.9064 32.907 28.5913C30.3965 29.2763 26.8551 30.6463 26.8551 30.6463L24.6871 30.4203Z" fill="white" stroke="#263238" stroke-width="0.528" stroke-linecap="round" stroke-linejoin="round"/>
<path d="M32.9056 27.2207C32.9056 27.2207 35.303 36.9271 35.5325 43.5475C35.762 50.168 34.505 70.7178 34.505 70.7178C34.505 70.7178 29.1381 70.9473 25.2576 70.2623C21.3771 69.5773 18.6337 69.2348 18.6337 69.2348L22.0587 47.887C22.0587 47.887 26.7406 48.2295 27.7681 44.9175C28.7956 41.6056 27.4256 34.9851 26.1687 32.9301C24.9117 30.8751 24.6856 30.4196 24.6856 30.4196L32.9056 27.2207Z" fill="#0F913D" stroke="#263238" stroke-width="0.528" stroke-linecap="round" stroke-linejoin="round"/>
<path d="M43.2949 36.2422C43.2949 36.2422 45.8088 45.8321 45.5794 55.422C45.3499 65.012 45.2369 70.1494 45.2369 70.1494C45.2369 70.1494 50.7168 69.8069 53.7993 68.5499C53.7993 68.5499 52.0868 46.1746 50.4873 39.5507C48.8879 32.9269 48.3193 31.4473 48.3193 31.4473L41.9249 28.8203L43.2949 36.2422Z" fill="#0F913D" stroke="#263238" stroke-width="0.528" stroke-linecap="round" stroke-linejoin="round"/>
<path d="M35.3665 25.3579C35.3665 25.3579 32.969 25.8032 32.3388 27.0498C31.7086 28.2965 34.8322 38.5372 34.8322 38.5372L39.3737 34.7971L44.9838 38.0029C44.9838 38.0029 43.9152 30.2556 41.5999 27.5841C39.2846 24.9127 35.3665 25.3579 35.3665 25.3579Z" fill="white" stroke="#263238" stroke-width="0.528" stroke-linecap="round" stroke-linejoin="round"/>
<path d="M34.386 18.8613C34.386 18.8613 34.297 27.8519 35.2765 30.1637C36.256 32.4756 38.8385 35.8629 39.818 35.3286C40.7976 34.7943 41.0647 28.2937 41.2428 27.8484C41.4209 27.4032 42.1333 23.7385 42.1333 23.7385C42.1333 23.7385 35.7218 21.9712 34.386 18.8613Z" fill="#CFCFCF" stroke="#263238" stroke-width="0.528" stroke-linecap="round" stroke-linejoin="round"/>
<path d="M34.3858 18.8613C34.3858 18.8613 34.3516 22.4712 34.5742 25.7113C35.5961 26.9214 37.0319 27.7077 38.6019 27.9169C39.4759 28.0492 40.3656 28.0377 41.2357 27.8827C41.2343 27.8748 41.2343 27.8666 41.2357 27.8587C41.4138 27.4135 42.1262 23.7488 42.1262 23.7488C42.1262 23.7488 35.7215 21.9712 34.3858 18.8613Z" fill="#263238" stroke="#263238" stroke-width="0.528" stroke-linecap="round" stroke-linejoin="round"/>
<path d="M44.4042 49.7952L43.7192 50.2131L39.7565 43.7365C39.7021 43.646 39.6855 43.5376 39.7106 43.435C39.7356 43.3324 39.8001 43.2438 39.8901 43.1885C39.9346 43.1609 39.9841 43.1424 40.0357 43.134C40.0874 43.1257 40.1402 43.1276 40.1911 43.1397C40.2421 43.1518 40.2901 43.1738 40.3325 43.2045C40.3748 43.2352 40.4107 43.274 40.4381 43.3186L44.4042 49.7952Z" fill="white" stroke="#263238" stroke-width="0.528" stroke-linecap="round" stroke-linejoin="round"/>
<path d="M24.6863 30.4199C24.6863 30.4199 22.0593 30.646 20.4633 33.7284C18.8673 36.8109 16.3533 51.3122 15.8944 55.5352C15.4355 59.7582 17.9494 59.4157 18.2919 59.4157C18.6344 59.4157 36.7867 53.3672 36.7867 53.3672L42.9517 52.6822C42.9517 52.6822 42.2667 53.2508 42.8386 53.2508C43.4106 53.2508 44.5511 52.1102 45.0066 51.4253C45.4622 50.7403 43.6367 46.9728 42.9517 46.5173C42.2667 46.0618 36.1017 50.6272 36.1017 50.6272L24.1143 51.4253L27.1968 40.9209" fill="white"/>
<path d="M24.6863 30.4199C24.6863 30.4199 22.0593 30.646 20.4633 33.7284C18.8673 36.8109 16.3533 51.3122 15.8944 55.5352C15.4355 59.7582 17.9494 59.4157 18.2919 59.4157C18.6344 59.4157 36.7867 53.3672 36.7867 53.3672L42.9517 52.6822C42.9517 52.6822 42.2667 53.2508 42.8386 53.2508C43.4106 53.2508 44.5511 52.1102 45.0066 51.4253C45.4622 50.7403 43.6367 46.9728 42.9517 46.5173C42.2667 46.0618 36.1017 50.6272 36.1017 50.6272L24.1143 51.4253L27.1968 40.9209" stroke="#263238" stroke-width="0.528" stroke-linecap="round" stroke-linejoin="round"/>
<path d="M42.9509 46.5173C42.2659 46.0583 36.101 50.6272 36.101 50.6272L24.1136 51.4252L24.874 48.836L17.2054 47.1064C16.5718 50.6238 16.0752 53.8741 15.8937 55.5352C15.4382 59.7582 17.9487 59.4157 18.2912 59.4157C18.6337 59.4157 36.786 53.3672 36.786 53.3672L42.9509 52.6822C42.9509 52.6822 42.2659 53.2508 42.8379 53.2508C43.4099 53.2508 44.5504 52.1102 45.0059 51.4252C45.4614 50.7402 43.6359 46.9728 42.9509 46.5173Z" fill="#CFCFCF" stroke="#263238" stroke-width="0.528" stroke-linecap="round" stroke-linejoin="round"/>
<path d="M42.9528 46.5173C42.2678 46.0583 36.1029 50.6272 36.1029 50.6272L34.3561 50.7437C34.3494 51.8494 34.6216 52.939 35.1473 53.9118L36.7879 53.3672L42.9528 52.6822C42.9528 52.6822 42.2678 53.2508 42.8398 53.2508C43.4118 53.2508 44.5523 52.1102 45.0078 51.4252C45.4633 50.7402 43.6378 46.9728 42.9528 46.5173Z" fill="#666666" stroke="#263238" stroke-width="0.528" stroke-linecap="round" stroke-linejoin="round"/>
<path d="M49.0044 41.1504L37.3595 57.4772L52.6588 56.9052L63.7318 41.8354L49.0044 41.1504Z" fill="#263238" stroke="#263238" stroke-width="0.528" stroke-linecap="round" stroke-linejoin="round"/>
<path d="M54.1454 40.6709L53.2515 42.1573L59.9473 42.308L60.8413 40.8182L54.1454 40.6709Z" fill="#263238" stroke="#263238" stroke-width="0.528" stroke-linecap="round" stroke-linejoin="round"/>
<path d="M58.6677 50.4147C58.1418 50.6069 57.5943 50.7334 57.0374 50.7915C56.3524 50.8223 55.7222 51.1682 55.7222 51.5142C55.7222 51.8601 56.9449 51.9217 57.8217 51.9217C58.6985 51.9217 59.3869 51.7334 59.5342 51.1682C59.6815 50.6031 59.4828 50.1031 58.6677 50.4147Z" fill="#666666" stroke="#263238" stroke-width="0.528" stroke-linecap="round" stroke-linejoin="round"/>
<path d="M59.4559 48.8845C58.793 49.1275 58.1029 49.2885 57.4009 49.364C56.5276 49.4017 55.733 49.8401 55.733 50.2751C55.733 50.71 57.2811 50.7922 58.3942 50.7922C59.5073 50.7922 60.3807 50.5559 60.5793 49.8401C60.7779 49.1243 60.4903 48.4872 59.4559 48.8845Z" fill="#666666" stroke="#263238" stroke-width="0.528" stroke-linecap="round" stroke-linejoin="round"/>
<path d="M60.091 47.575C59.4281 47.8179 58.738 47.9789 58.036 48.0545C57.1592 48.0921 56.3646 48.5305 56.3646 48.9655C56.3646 49.4005 57.9161 49.4827 59.0292 49.4827C60.1424 49.4827 61.0157 49.2463 61.2144 48.5305C61.413 47.8147 61.1253 47.1777 60.091 47.575Z" fill="#666666" stroke="#263238" stroke-width="0.528" stroke-linecap="round" stroke-linejoin="round"/>
<path d="M60.5173 46.0964C59.854 46.3375 59.164 46.4973 58.4623 46.5724C57.5889 46.6101 56.7943 47.0485 56.7943 47.4869C56.7943 47.9253 58.3424 48.0041 59.4555 48.0041C60.5686 48.0041 61.442 47.7643 61.6406 47.0485C61.8393 46.3327 61.5516 45.6991 60.5173 46.0964Z" fill="#666666" stroke="#263238" stroke-width="0.528" stroke-linecap="round" stroke-linejoin="round"/>
<path d="M23.2541 123.46C23.2541 123.46 23.1822 127.008 23.3226 127.57C23.4631 128.132 25.9496 128.844 27.5079 128.844C29.0663 128.844 30.063 128.502 30.3472 128.067C30.6315 127.632 31.1247 124.731 31.1247 124.731C31.1247 124.731 25.5934 125.875 23.2541 123.46Z" fill="#666666" stroke="#263238" stroke-width="0.528" stroke-linecap="round" stroke-linejoin="round"/>
<path d="M31.1052 16.0102C29.995 15.6191 28.801 15.5285 27.6444 15.7474C26.4878 15.9663 25.4096 16.4871 24.519 17.2569C21.4023 19.9283 24.1765 24.737 27.4577 25.2713C30.7388 25.8056 32.8862 24.2917 33.4205 21.8874C33.9548 19.4831 33.0712 15.9211 31.1052 16.0102Z" fill="#263238" stroke="#263238" stroke-width="0.528" stroke-linecap="round" stroke-linejoin="round"/>
<path d="M46.8596 15.2091C46.8596 15.2091 46.4144 19.6616 45.5239 22.7783C44.6334 25.895 42.3181 27.0527 39.0164 26.6074C35.7148 26.1622 33.8516 23.4907 32.783 20.374C31.7144 17.2573 31.6254 12.9829 31.6254 12.9829L46.8596 15.2091Z" fill="#CFCFCF" stroke="#263238" stroke-width="0.528" stroke-linecap="round" stroke-linejoin="round"/>
<path d="M32.0918 15.1198C32.0918 15.1198 33.1604 16.0994 35.5579 14.4074C37.9553 12.7155 36.8046 11.9141 36.8046 11.9141L31.1054 12.2566L32.0918 15.1198Z" fill="#263238" stroke="#263238" stroke-width="0.528" stroke-linecap="round" stroke-linejoin="round"/>
<path d="M43.3118 16.2788C43.3118 16.2788 42.8665 17.6145 43.1337 18.0598C43.4008 18.505 44.1132 19.1284 43.3118 19.8408C43.1666 19.9825 42.99 20.0881 42.7964 20.1489C42.6028 20.2096 42.3976 20.2239 42.1974 20.1906C41.9973 20.1572 41.8078 20.0771 41.6444 19.9569C41.4809 19.8366 41.3481 19.6795 41.2568 19.4983" stroke="#263238" stroke-width="0.528" stroke-linecap="round" stroke-linejoin="round"/>
<path d="M38.3435 20.2578C38.3435 20.2578 39.7135 22.0354 42.3096 21.2168" stroke="#263238" stroke-width="0.528" stroke-linecap="round" stroke-linejoin="round"/>
<path d="M40.2825 16.8129C40.2825 17.3061 40.0838 17.7033 39.8372 17.7033C39.5906 17.7033 39.392 17.3061 39.392 16.8129C39.392 16.3197 39.5906 15.9224 39.8372 15.9224C40.0838 15.9224 40.2825 16.3197 40.2825 16.8129Z" fill="#263238"/>
<path d="M45.1809 17.5174C45.1809 18.0106 44.9823 18.4079 44.7357 18.4079C44.4891 18.4079 44.2904 18.0106 44.2904 17.5174C44.2904 17.0242 44.4891 16.627 44.7357 16.627C44.9823 16.627 45.1809 17.0311 45.1809 17.5174Z" fill="#263238"/>
<path d="M38.4122 14.8539C38.4122 14.8539 39.6589 13.4292 41.2618 14.8539" stroke="#263238" stroke-width="0.528" stroke-linecap="round" stroke-linejoin="round"/>
<path d="M44.1185 15.5659C44.393 15.3635 44.7288 15.2618 45.0694 15.278C45.41 15.2943 45.7346 15.4274 45.9886 15.655" stroke="#263238" stroke-width="0.528" stroke-linecap="round" stroke-linejoin="round"/>
<path d="M30.7617 13.3399L47.3248 15.1209C47.3248 15.1209 47.1467 6.75026 47.0577 5.3289C46.9686 3.90754 40.379 1.94503 37.8102 2.12313C35.2415 2.30123 32.022 3.81507 31.4877 4.52061C30.9535 5.22615 30.7617 13.3399 30.7617 13.3399Z" fill="#0F913D" stroke="#263238" stroke-width="0.528" stroke-linecap="round" stroke-linejoin="round"/>
<path d="M37.8795 14.2306L52.5691 16.1897C52.5691 16.1897 48.6544 12.8059 45.5377 12.5387C42.421 12.2716 37.8795 14.2306 37.8795 14.2306Z" fill="#0F913D" stroke="#263238" stroke-width="0.528" stroke-linecap="round" stroke-linejoin="round"/>
<path d="M32.7156 15.7434C32.7156 15.7434 32.3731 12.9829 30.8456 12.9829C29.3181 12.9829 30.0441 15.2091 30.2222 16.6339C30.4003 18.0587 32.0923 18.4149 32.7156 17.8806" fill="#CFCFCF"/>
<path d="M32.7156 15.7434C32.7156 15.7434 32.3731 12.9829 30.8456 12.9829C29.3181 12.9829 30.0441 15.2091 30.2222 16.6339C30.4003 18.0587 32.0923 18.4149 32.7156 17.8806" stroke="#263238" stroke-width="0.528" stroke-linecap="round" stroke-linejoin="round"/>
<path d="M34.2486 127.148L34.4609 130.484C34.4609 130.484 35.4028 131.19 38.1565 131.228C40.9102 131.265 41.924 130.029 41.924 130.029L42.4754 126.433C42.4754 126.433 37.3687 128.851 34.2486 127.148Z" fill="#666666" stroke="#263238" stroke-width="0.528" stroke-linecap="round" stroke-linejoin="round"/>
</svg>
