<svg width="40" height="40" viewBox="0 0 40 40" fill="none" xmlns="http://www.w3.org/2000/svg">
<rect width="40" height="40" rx="20" fill="#DDEEFF"/>
<path d="M28.97 14.2017L20.72 9.68764C20.4996 9.56584 20.2518 9.50195 20 9.50195C19.7482 9.50195 19.5004 9.56584 19.28 9.68764L11.03 14.2036C10.7944 14.3325 10.5977 14.5223 10.4605 14.7532C10.3233 14.984 10.2506 15.2475 10.25 15.5161V24.4823C10.2506 24.7509 10.3233 25.0144 10.4605 25.2452C10.5977 25.4761 10.7944 25.6659 11.03 25.7948L19.28 30.3108C19.5004 30.4326 19.7482 30.4965 20 30.4965C20.2518 30.4965 20.4996 30.4326 20.72 30.3108L28.97 25.7948C29.2056 25.6659 29.4023 25.4761 29.5395 25.2452C29.6767 25.0144 29.7494 24.7509 29.75 24.4823V15.517C29.7499 15.248 29.6774 14.9839 29.5402 14.7525C29.403 14.5211 29.206 14.3308 28.97 14.2017ZM20 11.0001L27.5328 15.1251L24.7409 16.6523L17.2081 12.5273L20 11.0001ZM20 19.2501L12.4672 15.1251L15.6462 13.3842L23.1791 17.5092L20 19.2501ZM28.25 24.4861L20.75 28.5914V20.5467L23.75 18.9051V22.2501C23.75 22.4491 23.829 22.6398 23.9697 22.7805C24.1103 22.9211 24.3011 23.0001 24.5 23.0001C24.6989 23.0001 24.8897 22.9211 25.0303 22.7805C25.171 22.6398 25.25 22.4491 25.25 22.2501V18.0839L28.25 16.4423V24.4823V24.4861Z" fill="#007AFF"/>
</svg>
