<svg width="28" height="30" viewBox="0 0 28 30" fill="none" xmlns="http://www.w3.org/2000/svg">
<path d="M26.52 6.65798L14.8325 0.263055C14.5202 0.0905079 14.1693 0 13.8125 0C13.4557 0 13.1048 0.0905079 12.7925 0.263055L1.105 6.66063C0.771227 6.84326 0.492606 7.11214 0.298233 7.43921C0.10386 7.76628 0.000863623 8.13954 0 8.52001V21.2222C0.000863623 21.6027 0.10386 21.9759 0.298233 22.303C0.492606 22.6301 0.771227 22.8989 1.105 23.0816L12.7925 29.4791C13.1048 29.6517 13.4557 29.7422 13.8125 29.7422C14.1693 29.7422 14.5202 29.6517 14.8325 29.4791L26.52 23.0816C26.8538 22.8989 27.1324 22.6301 27.3268 22.303C27.5211 21.9759 27.6241 21.6027 27.625 21.2222V8.52134C27.6249 8.14019 27.5222 7.7661 27.3278 7.43827C27.1334 7.11044 26.8544 6.84093 26.52 6.65798ZM13.8125 2.12243L24.484 7.96618L20.5288 10.1297L9.85734 4.28595L13.8125 2.12243ZM13.8125 13.8099L3.14102 7.96618L7.64469 5.49985L18.3162 11.3436L13.8125 13.8099ZM25.5 21.2275L14.875 27.0434V15.6467L19.125 13.3212V18.0599C19.125 18.3417 19.2369 18.612 19.4362 18.8112C19.6355 19.0105 19.9057 19.1224 20.1875 19.1224C20.4693 19.1224 20.7395 19.0105 20.9388 18.8112C21.1381 18.612 21.25 18.3417 21.25 18.0599V12.1577L25.5 9.8322V21.2222V21.2275Z" fill="black"/>
</svg>
