<svg width="40" height="40" viewBox="0 0 40 40" fill="none" xmlns="http://www.w3.org/2000/svg">
<rect width="40" height="40" rx="20" fill="#E0DDFF"/>
<path d="M20.0084 13.3795C20.0505 12.7975 20.2427 12.2363 20.5663 11.7507C20.89 11.2651 21.334 10.8718 21.8551 10.609C22.3761 10.3463 22.9564 10.2231 23.5393 10.2516C24.1221 10.28 24.6876 10.4591 25.1806 10.7714C25.237 10.8083 25.2824 10.8596 25.312 10.9201C25.3417 10.9806 25.3545 11.048 25.3491 11.1151C25.3437 11.1822 25.3204 11.2467 25.2815 11.3017C25.2426 11.3567 25.1896 11.4002 25.1281 11.4276C24.2711 11.8132 23.5437 12.438 23.0331 13.2269C22.5226 14.0159 22.2507 14.9354 22.25 15.8751C22.25 15.9848 22.25 16.0945 22.2612 16.2023C22.2664 16.2705 22.2529 16.3387 22.2221 16.3997C22.1913 16.4607 22.1444 16.5122 22.0865 16.5485C22.0285 16.5847 21.9618 16.6045 21.8935 16.6056C21.8252 16.6068 21.7578 16.5892 21.6987 16.5548C21.1463 16.2388 20.6944 15.773 20.3953 15.2111C20.0962 14.6493 19.9621 14.0143 20.0084 13.3795ZM30.5 23.0573C30.5013 23.4859 30.3826 23.9063 30.1573 24.2708C29.9319 24.6353 29.609 24.9295 29.225 25.1198L29.1838 25.1386L25.5434 26.6892C25.5075 26.705 25.4701 26.7176 25.4319 26.7267L19.4319 28.2267C19.3724 28.242 19.3114 28.2499 19.25 28.2501H9.5C9.10218 28.2501 8.72064 28.0921 8.43934 27.8108C8.15804 27.5295 8 27.148 8 26.7501V23.0001C8 22.6023 8.15804 22.2208 8.43934 21.9395C8.72064 21.6582 9.10218 21.5001 9.5 21.5001H12.1897L14.3103 19.3786C14.5884 19.0993 14.919 18.8778 15.2832 18.727C15.6473 18.5763 16.0377 18.4992 16.4319 18.5001H21.125C21.5212 18.5001 21.9122 18.5897 22.2688 18.7623C22.6254 18.9349 22.9383 19.1859 23.1841 19.4966C23.4298 19.8073 23.6021 20.1697 23.6879 20.5564C23.7738 20.9432 23.7709 21.3443 23.6797 21.7298L27.6022 20.828C27.9437 20.7375 28.3013 20.7267 28.6477 20.7964C28.994 20.866 29.3197 21.0142 29.5996 21.2296C29.8796 21.445 30.1064 21.7218 30.2625 22.0387C30.4186 22.3556 30.4999 22.7041 30.5 23.0573ZM29 23.0573C28.9999 22.9333 28.9712 22.811 28.9162 22.6999C28.8611 22.5887 28.7812 22.4918 28.6827 22.4165C28.5841 22.3413 28.4695 22.2897 28.3478 22.2659C28.2261 22.2421 28.1006 22.2467 27.9809 22.2792L27.9519 22.2867L21.6706 23.7314C21.6155 23.7437 21.5593 23.75 21.5028 23.7501H18.5C18.3011 23.7501 18.1103 23.6711 17.9697 23.5305C17.829 23.3898 17.75 23.1991 17.75 23.0001C17.75 22.8012 17.829 22.6105 17.9697 22.4698C18.1103 22.3292 18.3011 22.2501 18.5 22.2501H21.125C21.4234 22.2501 21.7095 22.1316 21.9205 21.9206C22.1315 21.7097 22.25 21.4235 22.25 21.1251C22.25 20.8268 22.1315 20.5406 21.9205 20.3296C21.7095 20.1187 21.4234 20.0001 21.125 20.0001H16.4319C16.2348 19.9995 16.0396 20.0381 15.8576 20.1135C15.6756 20.189 15.5103 20.2999 15.3716 20.4398L13.25 22.5605V26.7501H19.1562L25.0091 25.2867L28.5716 23.7698C28.7012 23.7015 28.8097 23.599 28.8852 23.4734C28.9608 23.3478 29.0005 23.2039 29 23.0573ZM23.75 15.8751C23.75 16.5427 23.9479 17.1952 24.3188 17.7502C24.6896 18.3052 25.2167 18.7378 25.8334 18.9932C26.4501 19.2487 27.1287 19.3155 27.7834 19.1853C28.4381 19.0551 29.0395 18.7336 29.5115 18.2616C29.9835 17.7896 30.3049 17.1883 30.4352 16.5336C30.5654 15.8789 30.4985 15.2003 30.2431 14.5836C29.9876 13.9669 29.5551 13.4398 29 13.0689C28.445 12.6981 27.7925 12.5001 27.125 12.5001C26.2299 12.5001 25.3715 12.8557 24.7385 13.4887C24.1056 14.1216 23.75 14.98 23.75 15.8751Z" fill="#5856D6"/>
</svg>
