<svg width="69" height="69" viewBox="0 0 69 69" fill="none" xmlns="http://www.w3.org/2000/svg">
<rect width="69" height="69" rx="34.5" fill="#F5F5F5"/>
<path d="M17.1774 49.6534V23.8489C17.1776 22.7321 16.8353 21.6421 16.1966 20.7259L15.2949 19.4346H31.3145L32.2162 20.7259C32.8548 21.6421 33.1971 22.7321 33.1969 23.8489V49.4086" stroke="#263238" stroke-width="1.8" stroke-linecap="round" stroke-linejoin="round"/>
<path d="M51.2209 55.31C52.1369 55.31 52.8794 54.5675 52.8794 53.6516C52.8794 52.7357 52.1369 51.9932 51.2209 51.9932C50.305 51.9932 49.5625 52.7357 49.5625 53.6516C49.5625 54.5675 50.305 55.31 51.2209 55.31Z" fill="#263238"/>
<path opacity="0.4" d="M52.0519 53.6519C52.0523 53.4876 52.0039 53.3269 51.9129 53.1901C51.8219 53.0534 51.6924 52.9467 51.5408 52.8836C51.3891 52.8204 51.2221 52.8037 51.061 52.8355C50.8998 52.8674 50.7517 52.9463 50.6354 53.0623C50.5191 53.1783 50.4399 53.3262 50.4077 53.4873C50.3755 53.6484 50.3918 53.8154 50.4546 53.9672C50.5174 54.119 50.6238 54.2488 50.7603 54.3401C50.8969 54.4314 51.0575 54.4801 51.2218 54.4801C51.3307 54.4804 51.4386 54.4591 51.5393 54.4176C51.64 54.3761 51.7315 54.3151 51.8087 54.2382C51.8858 54.1613 51.9469 54.0699 51.9887 53.9693C52.0304 53.8686 52.0519 53.7608 52.0519 53.6519Z" fill="white"/>
<path d="M51.0211 54.0207C50.8918 54.0205 50.7656 53.9807 50.6596 53.9067C50.5536 53.8327 50.4728 53.7279 50.4282 53.6065L49.4512 50.9297H51.6517V53.39C51.6517 53.5573 51.5853 53.7177 51.467 53.8359C51.3488 53.9542 51.1884 54.0207 51.0211 54.0207Z" fill="#263238"/>
<path opacity="0.2" d="M51.0211 54.0207C50.8918 54.0205 50.7656 53.9807 50.6596 53.9067C50.5536 53.8327 50.4728 53.7279 50.4282 53.6065L49.4512 50.9297H51.6517V53.39C51.6517 53.5573 51.5853 53.7177 51.467 53.8359C51.3488 53.9542 51.1884 54.0207 51.0211 54.0207Z" fill="white"/>
<path d="M32.7737 55.31C33.6896 55.31 34.4321 54.5675 34.4321 53.6516C34.4321 52.7357 33.6896 51.9932 32.7737 51.9932C31.8577 51.9932 31.1152 52.7357 31.1152 53.6516C31.1152 54.5675 31.8577 55.31 32.7737 55.31Z" fill="#263238"/>
<path opacity="0.4" d="M33.6037 53.6519C33.604 53.4876 33.5557 53.3269 33.4647 53.1901C33.3737 53.0534 33.2442 52.9467 33.0925 52.8836C32.9408 52.8204 32.7739 52.8037 32.6127 52.8355C32.4516 52.8674 32.3035 52.9463 32.1872 53.0623C32.0709 53.1783 31.9916 53.3262 31.9594 53.4873C31.9273 53.6484 31.9436 53.8154 32.0064 53.9672C32.0691 54.119 32.1755 54.2488 32.3121 54.3401C32.4487 54.4314 32.6092 54.4801 32.7735 54.4801C32.8824 54.4804 32.9903 54.4591 33.0911 54.4176C33.1918 54.3761 33.2833 54.3151 33.3604 54.2382C33.4375 54.1613 33.4987 54.0699 33.5404 53.9693C33.5822 53.8686 33.6037 53.7608 33.6037 53.6519Z" fill="white"/>
<path d="M32.5739 54.0207C32.4445 54.0205 32.3184 53.9807 32.2123 53.9067C32.1063 53.8327 32.0255 53.7279 31.9809 53.6065L31.0039 50.9297H33.2045V53.39C33.2045 53.5573 33.138 53.7177 33.0198 53.8359C32.9015 53.9542 32.7411 54.0207 32.5739 54.0207Z" fill="#263238"/>
<path opacity="0.2" d="M32.5739 54.0207C32.4445 54.0205 32.3184 53.9807 32.2123 53.9067C32.1063 53.8327 32.0255 53.7279 31.9809 53.6065L31.0039 50.9297H33.2045V53.39C33.2045 53.5573 33.138 53.7177 33.0198 53.8359C32.9015 53.9542 32.7411 54.0207 32.5739 54.0207Z" fill="white"/>
<path d="M54.0731 49V50.5662C54.0731 50.7065 54.0174 50.841 53.9182 50.9402C53.819 51.0394 53.6845 51.0952 53.5442 51.0952H16.4733C16.333 51.0952 16.1985 51.0394 16.0993 50.9402C16.0001 50.841 15.9443 50.7065 15.9443 50.5662V49H54.0731Z" fill="#263238"/>
<path opacity="0.4" d="M54.0731 49V50.5662C54.0731 50.7065 54.0174 50.841 53.9182 50.9402C53.819 51.0394 53.6845 51.0952 53.5442 51.0952H16.4733C16.333 51.0952 16.1985 51.0394 16.0993 50.9402C16.0001 50.841 15.9443 50.7065 15.9443 50.5662V49H54.0731Z" fill="white"/>
<path opacity="0.2" d="M40.8961 49V50.5662C40.8961 50.7065 40.8403 50.841 40.7411 50.9402C40.6419 51.0394 40.5074 51.0952 40.3671 51.0952H16.4733C16.333 51.0952 16.1985 51.0394 16.0993 50.9402C16.0001 50.841 15.9443 50.7065 15.9443 50.5662V49H40.8961Z" fill="white"/>
<path d="M37.8557 55.31C38.7716 55.31 39.5141 54.5675 39.5141 53.6516C39.5141 52.7357 38.7716 51.9932 37.8557 51.9932C36.9398 51.9932 36.1973 52.7357 36.1973 53.6516C36.1973 54.5675 36.9398 55.31 37.8557 55.31Z" fill="#263238"/>
<path opacity="0.6" d="M38.6867 53.6519C38.6871 53.4876 38.6387 53.3269 38.5477 53.1901C38.4567 53.0534 38.3272 52.9467 38.1755 52.8836C38.0239 52.8204 37.8569 52.8037 37.6957 52.8355C37.5346 52.8674 37.3865 52.9463 37.2702 53.0623C37.1539 53.1783 37.0746 53.3262 37.0425 53.4873C37.0103 53.6484 37.0266 53.8154 37.0894 53.9672C37.1522 54.119 37.2586 54.2488 37.3951 54.3401C37.5317 54.4314 37.6923 54.4801 37.8565 54.4801C37.9655 54.4804 38.0734 54.4591 38.1741 54.4176C38.2748 54.3761 38.3663 54.3151 38.4434 54.2382C38.5205 54.1613 38.5817 54.0699 38.6234 53.9693C38.6652 53.8686 38.6867 53.7608 38.6867 53.6519Z" fill="white"/>
<path d="M37.6559 54.0207C37.5266 54.0205 37.4004 53.9807 37.2944 53.9067C37.1883 53.8327 37.1076 53.7279 37.0629 53.6065L36.0859 50.9297H38.2865V53.39C38.2865 53.5573 38.2201 53.7177 38.1018 53.8359C37.9835 53.9542 37.8231 54.0207 37.6559 54.0207Z" fill="#263238"/>
<path opacity="0.4" d="M37.6559 54.0207C37.5266 54.0205 37.4004 53.9807 37.2944 53.9067C37.1883 53.8327 37.1076 53.7279 37.0629 53.6065L36.0859 50.9297H38.2865V53.39C38.2865 53.5573 38.2201 53.7177 38.1018 53.8359C37.9835 53.9542 37.8231 54.0207 37.6559 54.0207Z" fill="white"/>
<path d="M19.4084 55.31C20.3244 55.31 21.0669 54.5675 21.0669 53.6516C21.0669 52.7357 20.3244 51.9932 19.4084 51.9932C18.4925 51.9932 17.75 52.7357 17.75 53.6516C17.75 54.5675 18.4925 55.31 19.4084 55.31Z" fill="#263238"/>
<path opacity="0.6" d="M20.2375 53.6519C20.2378 53.4876 20.1895 53.3269 20.0985 53.1901C20.0075 53.0534 19.878 52.9467 19.7263 52.8836C19.5746 52.8204 19.4077 52.8037 19.2465 52.8355C19.0853 52.8674 18.9373 52.9463 18.821 53.0623C18.7047 53.1783 18.6254 53.3262 18.5932 53.4873C18.5611 53.6484 18.5774 53.8154 18.6402 53.9672C18.7029 54.119 18.8093 54.2488 18.9459 54.3401C19.0825 54.4314 19.243 54.4801 19.4073 54.4801C19.5162 54.4804 19.6241 54.4591 19.7248 54.4176C19.8256 54.3761 19.9171 54.3151 19.9942 54.2382C20.0713 54.1613 20.1325 54.0699 20.1742 53.9693C20.216 53.8686 20.2375 53.7608 20.2375 53.6519Z" fill="white"/>
<path d="M19.2086 54.0207C19.0793 54.0205 18.9531 53.9807 18.8471 53.9067C18.7411 53.8327 18.6603 53.7279 18.6157 53.6065L17.6387 50.9297H19.8392V53.39C19.8392 53.5573 19.7728 53.7177 19.6545 53.8359C19.5363 53.9542 19.3759 54.0207 19.2086 54.0207Z" fill="#263238"/>
<path opacity="0.4" d="M19.2086 54.0207C19.0793 54.0205 18.9531 53.9807 18.8471 53.9067C18.7411 53.8327 18.6603 53.7279 18.6157 53.6065L17.6387 50.9297H19.8392V53.39C19.8392 53.5573 19.7728 53.7177 19.6545 53.8359C19.5363 53.9542 19.3759 54.0207 19.2086 54.0207Z" fill="white"/>
<path d="M38.0889 36.8491H20.5352V49.0003H38.0889V36.8491Z" fill="#0F913D"/>
<path opacity="0.4" d="M38.0889 36.8491H20.5352V49.0003H38.0889V36.8491Z" fill="white"/>
<path opacity="0.2" d="M28.6805 36.8491H20.5352V49.0003H28.6805V36.8491Z" fill="white"/>
<path opacity="0.2" d="M27.9113 46.4307H26.8929C26.7973 46.4307 26.7197 46.5082 26.7197 46.6038V47.995C26.7197 48.0906 26.7973 48.1682 26.8929 48.1682H27.9113C28.007 48.1682 28.0845 48.0906 28.0845 47.995V46.6038C28.0845 46.5082 28.007 46.4307 27.9113 46.4307Z" fill="black"/>
<path opacity="0.2" d="M26.0734 46.4307H25.055C24.9594 46.4307 24.8818 46.5082 24.8818 46.6038V47.995C24.8818 48.0906 24.9594 48.1682 25.055 48.1682H26.0734C26.1691 48.1682 26.2466 48.0906 26.2466 47.995V46.6038C26.2466 46.5082 26.1691 46.4307 26.0734 46.4307Z" fill="black"/>
<path opacity="0.4" d="M34.3153 36.8491H33.3232V38.116H34.3153V36.8491Z" fill="black"/>
<path opacity="0.2" d="M37.0276 42.0371H30.1943V43.6259H37.0276V42.0371Z" fill="black"/>
<path opacity="0.2" d="M23.4025 37.4814H21.0664V39.8176H23.4025V37.4814Z" fill="black"/>
<path d="M39.8809 24.6982H22.3271V36.8494H39.8809V24.6982Z" fill="#0F913D"/>
<path opacity="0.4" d="M39.8809 24.6982H22.3271V36.8494H39.8809V24.6982Z" fill="black"/>
<path opacity="0.2" d="M30.4725 24.6982H22.3271V36.8494H30.4725V24.6982Z" fill="white"/>
<path opacity="0.2" d="M29.7053 34.2798H28.6869C28.5912 34.2798 28.5137 34.3573 28.5137 34.453V35.8441C28.5137 35.9397 28.5912 36.0173 28.6869 36.0173H29.7053C29.8009 36.0173 29.8784 35.9397 29.8784 35.8441V34.453C29.8784 34.3573 29.8009 34.2798 29.7053 34.2798Z" fill="black"/>
<path opacity="0.2" d="M27.8674 34.2798H26.849C26.7533 34.2798 26.6758 34.3573 26.6758 34.453V35.8441C26.6758 35.9397 26.7533 36.0173 26.849 36.0173H27.8674C27.963 36.0173 28.0405 35.9397 28.0405 35.8441V34.453C28.0405 34.3573 27.963 34.2798 27.8674 34.2798Z" fill="black"/>
<path opacity="0.4" d="M36.1063 24.6982H35.1143V25.9651H36.1063V24.6982Z" fill="black"/>
<path opacity="0.2" d="M38.8186 29.8862H31.9854V31.475H38.8186V29.8862Z" fill="black"/>
<path opacity="0.2" d="M25.1965 25.3306H22.8604V27.6667H25.1965V25.3306Z" fill="black"/>
<path d="M50.626 24.6982H33.0723V36.8494H50.626V24.6982Z" fill="#0F913D"/>
<path opacity="0.4" d="M50.626 24.6982H33.0723V36.8494H50.626V24.6982Z" fill="white"/>
<path opacity="0.2" d="M41.2176 24.6982H33.0723V36.8494H41.2176V24.6982Z" fill="white"/>
<path opacity="0.2" d="M40.4504 34.2798H39.432C39.3363 34.2798 39.2588 34.3573 39.2588 34.453V35.8441C39.2588 35.9397 39.3363 36.0173 39.432 36.0173H40.4504C40.546 36.0173 40.6236 35.9397 40.6236 35.8441V34.453C40.6236 34.3573 40.546 34.2798 40.4504 34.2798Z" fill="black"/>
<path opacity="0.2" d="M38.6125 34.2798H37.5941C37.4984 34.2798 37.4209 34.3573 37.4209 34.453V35.8441C37.4209 35.9397 37.4984 36.0173 37.5941 36.0173H38.6125C38.7081 36.0173 38.7857 35.9397 38.7857 35.8441V34.453C38.7857 34.3573 38.7081 34.2798 38.6125 34.2798Z" fill="black"/>
<path opacity="0.4" d="M46.8514 24.6982H45.8594V25.9651H46.8514V24.6982Z" fill="black"/>
<path opacity="0.2" d="M49.5647 29.8862H42.7314V31.475H49.5647V29.8862Z" fill="black"/>
<path opacity="0.2" d="M35.9416 25.3306H33.6055V27.6667H35.9416V25.3306Z" fill="black"/>
<path d="M44.5557 12.5469H27.002V24.698H44.5557V12.5469Z" fill="#0F913D"/>
<path opacity="0.2" d="M35.1473 12.5469H27.002V24.698H35.1473V12.5469Z" fill="white"/>
<path opacity="0.2" d="M34.3771 22.1284H33.3587C33.2631 22.1284 33.1855 22.206 33.1855 22.3016V23.6927C33.1855 23.7884 33.2631 23.8659 33.3587 23.8659H34.3771C34.4728 23.8659 34.5503 23.7884 34.5503 23.6927V22.3016C34.5503 22.206 34.4728 22.1284 34.3771 22.1284Z" fill="black"/>
<path opacity="0.2" d="M32.5422 22.1284H31.5238C31.4281 22.1284 31.3506 22.206 31.3506 22.3016V23.6927C31.3506 23.7884 31.4281 23.8659 31.5238 23.8659H32.5422C32.6378 23.8659 32.7154 23.7884 32.7154 23.6927V22.3016C32.7154 22.206 32.6378 22.1284 32.5422 22.1284Z" fill="black"/>
<path opacity="0.4" d="M40.7811 12.5469H39.7891V13.8138H40.7811V12.5469Z" fill="black"/>
<path opacity="0.2" d="M43.4934 17.7349H36.6602V19.3236H43.4934V17.7349Z" fill="black"/>
<path opacity="0.2" d="M29.8683 13.1792H27.5322V15.5153H29.8683V13.1792Z" fill="black"/>
<path d="M49.2598 36.8491H31.7061V49.0003H49.2598V36.8491Z" fill="#263238"/>
<path opacity="0.2" d="M49.2598 36.8491H31.7061V49.0003H49.2598V36.8491Z" fill="white"/>
<path opacity="0.2" d="M39.8514 36.8491H31.7061V49.0003H39.8514V36.8491Z" fill="white"/>
<path opacity="0.2" d="M39.0812 46.4307H38.0628C37.9672 46.4307 37.8896 46.5082 37.8896 46.6038V47.995C37.8896 48.0906 37.9672 48.1682 38.0628 48.1682H39.0812C39.1769 48.1682 39.2544 48.0906 39.2544 47.995V46.6038C39.2544 46.5082 39.1769 46.4307 39.0812 46.4307Z" fill="black"/>
<path opacity="0.2" d="M37.2433 46.4307H36.2249C36.1293 46.4307 36.0518 46.5082 36.0518 46.6038V47.995C36.0518 48.0906 36.1293 48.1682 36.2249 48.1682H37.2433C37.339 48.1682 37.4165 48.0906 37.4165 47.995V46.6038C37.4165 46.5082 37.339 46.4307 37.2433 46.4307Z" fill="black"/>
<path opacity="0.4" d="M45.4852 36.8491H44.4932V38.116H45.4852V36.8491Z" fill="black"/>
<path opacity="0.2" d="M48.1975 42.0371H41.3643V43.6259H48.1975V42.0371Z" fill="black"/>
<path opacity="0.2" d="M34.5724 37.4814H32.2363V39.8176H34.5724V37.4814Z" fill="black"/>
</svg>
