<svg width="69" height="69" viewBox="0 0 69 69" fill="none" xmlns="http://www.w3.org/2000/svg">
<rect width="69" height="69" rx="34.5" fill="#F5F5F5"/>
<path d="M44.3099 45.824C46.3746 45.4618 47.7547 43.4944 47.3925 41.4297C47.0303 39.365 45.0629 37.9849 42.9982 38.3471C40.9335 38.7093 39.5534 40.6767 39.9156 42.7414C40.2778 44.8061 42.2452 46.1863 44.3099 45.824Z" fill="#0F913D"/>
<g opacity="0.1">
<path d="M42.2935 38.541C41.8285 38.7201 41.4034 38.989 41.0423 39.3324C40.6813 39.6758 40.3914 40.0869 40.1893 40.5424C39.9872 40.9978 39.8768 41.4886 39.8645 41.9867C39.8521 42.4848 39.9379 42.9805 40.1172 43.4454C40.1172 43.4454 42.6493 42.5999 42.8626 41.367C43.0759 40.1341 42.2935 38.541 42.2935 38.541Z" fill="white"/>
</g>
<path d="M44.5585 44.4225C46.0408 43.8487 46.7772 42.182 46.2035 40.6998C45.6297 39.2175 43.963 38.4811 42.4807 39.0548C40.9985 39.6286 40.262 41.2953 40.8358 42.7776C41.4096 44.2598 43.0763 44.9963 44.5585 44.4225Z" fill="#0F913D"/>
<g opacity="0.2">
<path d="M44.5575 44.422C46.0398 43.8483 46.7762 42.1815 46.2025 40.6993C45.6287 39.217 43.962 38.4806 42.4797 39.0544C40.9975 39.6281 40.261 41.2949 40.8348 42.7771C41.4086 44.2593 43.0753 44.9958 44.5575 44.422Z" fill="black"/>
</g>
<path d="M46.3883 41.096C46.591 41.6214 46.6333 42.1951 46.5099 42.7446C46.3864 43.294 46.1028 43.7945 45.6949 44.1827C45.287 44.5709 44.7731 44.8294 44.2182 44.9255C43.6633 45.0216 43.0924 44.951 42.5777 44.7226C42.063 44.4941 41.6276 44.1182 41.3266 43.6422C41.0256 43.1663 40.8725 42.6118 40.8866 42.0489C40.9008 41.4859 41.0817 40.9398 41.4063 40.4797C41.7309 40.0195 42.1847 39.666 42.7103 39.4638C43.4145 39.1928 44.1975 39.2126 44.8871 39.5186C45.5768 39.8247 46.1167 40.3921 46.3883 41.096Z" fill="#0F913D"/>
<g opacity="0.2">
<path d="M46.3903 41.096C46.5929 41.6214 46.6352 42.1951 46.5118 42.7446C46.3884 43.294 46.1048 43.7945 45.6968 44.1827C45.2889 44.5709 44.775 44.8294 44.2201 44.9255C43.6653 45.0216 43.0944 44.951 42.5797 44.7226C42.0649 44.4941 41.6295 44.1182 41.3285 43.6422C41.0275 43.1663 40.8744 42.6118 40.8886 42.0489C40.9028 41.4859 41.0836 40.9398 41.4082 40.4797C41.7329 40.0195 42.1867 39.666 42.7122 39.4638C43.4164 39.1928 44.1994 39.2126 44.8891 39.5186C45.5788 39.8247 46.1187 40.3921 46.3903 41.096Z" fill="white"/>
</g>
<path d="M43.7493 41.847L43.4881 41.168C43.6184 41.1356 43.7523 41.1206 43.8864 41.1234C43.9575 41.1315 44.0278 41.1457 44.0964 41.1658V41.1408L44.1073 40.8557V40.7904L43.9376 40.7099L43.8886 40.7577C43.7059 40.7371 43.5208 40.7534 43.3445 40.8056L43.1998 40.4313L43.0474 40.3823L43.0833 40.4759L42.9245 40.5379L43.0703 40.9188C42.5643 41.1713 42.4304 41.5717 42.5621 41.9101C42.7427 42.378 43.19 42.3454 43.5991 42.2921L43.8581 42.9657C43.6058 43.0392 43.3378 43.0392 43.0855 42.9657L43.0648 43.3639C43.2988 43.4488 43.6601 43.4336 43.9974 43.3269L44.1062 43.6088L43.9756 43.6621L44.1411 43.7002L44.4174 43.5914L44.2727 43.2138C44.7809 42.957 44.9191 42.5609 44.7874 42.2192C44.6111 41.7556 44.1585 41.7948 43.7493 41.847ZM43.4468 41.8829C43.2292 41.9003 43.0561 41.8829 42.993 41.7208C42.9299 41.5586 42.993 41.4117 43.2161 41.2855L43.4468 41.8829ZM44.1356 42.8514L43.906 42.2551C44.1302 42.2344 44.3086 42.2551 44.3717 42.4194C44.4272 42.5652 44.3674 42.7197 44.1356 42.8514Z" fill="#0F913D"/>
<g opacity="0.3">
<path d="M43.7503 41.8475L43.4891 41.1685C43.6193 41.1361 43.7533 41.1211 43.8874 41.1239C43.9585 41.132 44.0287 41.1462 44.0974 41.1663V41.1413L44.1083 40.8562V40.7909L43.9385 40.7104L43.8896 40.7582C43.7068 40.7376 43.5218 40.7539 43.3455 40.8061L43.2008 40.4318L43.0484 40.3828L43.0843 40.4764L42.9254 40.5384L43.0713 40.9193C42.5653 41.1717 42.4314 41.5722 42.5631 41.9106C42.7437 42.3785 43.191 42.3459 43.6001 42.2926L43.8591 42.9661C43.6068 43.0397 43.3388 43.0397 43.0865 42.9661L43.0658 43.3644C43.2998 43.4493 43.6611 43.4341 43.9984 43.3274L44.1072 43.6093L43.9766 43.6626L44.142 43.7007L44.4184 43.5918L44.2737 43.2143C44.7819 42.9574 44.9201 42.5613 44.7884 42.2197C44.6121 41.7561 44.1594 41.7953 43.7503 41.8475ZM43.4478 41.8834C43.2301 41.9008 43.0571 41.8834 42.994 41.7213C42.9309 41.5591 42.994 41.4122 43.2171 41.286L43.4478 41.8834ZM44.1366 42.8519L43.907 42.2556C44.1311 42.2349 44.3096 42.2556 44.3727 42.4199C44.4282 42.5657 44.3684 42.7202 44.1366 42.8519Z" fill="black"/>
</g>
<path d="M44.1269 43.169L44.2727 43.5466L43.9963 43.6555L43.8526 43.2811C43.5142 43.3899 43.1529 43.403 42.919 43.3192L42.9397 42.9209C43.192 42.9939 43.4599 42.9939 43.7123 42.9209L43.4533 42.2473C43.0441 42.2996 42.5969 42.3322 42.4173 41.8643C42.2846 41.5204 42.4173 41.1254 42.9244 40.873L42.7786 40.4921L43.055 40.3833L43.1987 40.7576C43.4437 40.6749 43.7056 40.6551 43.9604 40.7L43.9528 41.0939C43.7478 41.0603 43.5381 41.0695 43.3369 41.1211L43.5991 41.8023C44.0083 41.749 44.4609 41.7098 44.6405 42.1788C44.7743 42.5183 44.6372 42.9122 44.1269 43.169ZM43.2966 41.8338L43.0659 41.2332C42.8406 41.3627 42.7862 41.5226 42.8483 41.6684C42.9103 41.8143 43.079 41.8523 43.2966 41.8338ZM44.2226 42.3714C44.1584 42.206 43.9811 42.1853 43.7569 42.206L43.9865 42.8023C44.2172 42.6707 44.2781 42.5161 44.2226 42.3714Z" fill="#0F913D"/>
<path d="M41.2774 44.9059C41.2774 44.9059 41.2676 44.8993 41.2502 44.8852L41.1762 44.8199C41.1381 44.7855 41.1018 44.7491 41.0674 44.7111C41.026 44.6676 40.9749 44.6208 40.9259 44.562L40.8476 44.4717C40.8203 44.4401 40.7953 44.4042 40.767 44.3694C40.7104 44.2998 40.6582 44.2192 40.6005 44.1365C40.4815 43.9525 40.3775 43.7593 40.2893 43.5587C40.2043 43.3566 40.1352 43.1481 40.0826 42.9352C40.0619 42.8362 40.0401 42.7426 40.0282 42.6533C40.0216 42.6087 40.014 42.5663 40.0097 42.5249C40.0053 42.4836 40.002 42.4444 39.9977 42.4063C39.989 42.3301 39.989 42.2605 39.9868 42.2007C39.9841 42.1488 39.9841 42.0969 39.9868 42.045V41.9471C39.9825 41.9463 39.9787 41.9439 39.9761 41.9405C39.9735 41.937 39.9723 41.9327 39.9727 41.9284C39.9731 41.9241 39.9751 41.92 39.9783 41.9171C39.9816 41.9142 39.9857 41.9126 39.9901 41.9126C39.9944 41.9126 39.9986 41.9142 40.0018 41.9171C40.005 41.92 40.007 41.9241 40.0074 41.9284C40.0078 41.9327 40.0066 41.937 40.004 41.9405C40.0014 41.9439 39.9976 41.9463 39.9933 41.9471C39.9933 41.9721 39.9933 42.0048 39.9933 42.045C39.9933 42.0853 39.9933 42.1397 39.9933 42.1996C39.9933 42.2594 39.9988 42.3291 40.0097 42.4041C40.0097 42.4422 40.0184 42.4814 40.0227 42.5228C40.0271 42.5641 40.0358 42.6055 40.0423 42.6501C40.0554 42.7382 40.0782 42.8307 40.1 42.9286C40.1523 43.1399 40.2214 43.3465 40.3067 43.5467C40.3941 43.7462 40.4967 43.9387 40.6136 44.1224C40.6702 44.2051 40.7224 44.2856 40.7768 44.3552C40.804 44.3901 40.8291 44.426 40.8563 44.4575L40.9324 44.5489C40.9803 44.6077 41.0293 44.6578 41.0706 44.7002C41.112 44.7426 41.1479 44.7807 41.1794 44.809L41.2502 44.8776C41.2698 44.8961 41.2785 44.9048 41.2774 44.9059Z" fill="white"/>
<path d="M42.7544 42.0528C42.7148 42.0459 42.6775 42.0295 42.6456 42.0049C42.5654 41.9502 42.5048 41.8713 42.4726 41.7797C42.4414 41.6872 42.4414 41.587 42.4726 41.4946C42.4811 41.454 42.5003 41.4164 42.5281 41.3857C42.5281 41.3857 42.5096 41.4271 42.4922 41.4946C42.4687 41.5834 42.4717 41.6772 42.5009 41.7644C42.532 41.8507 42.5871 41.9262 42.6598 41.9821C42.7142 42.0321 42.7555 42.0484 42.7544 42.0528Z" fill="white"/>
<path d="M42.96 40.7897C42.9524 40.7897 42.9274 40.7451 42.9045 40.6809C42.8817 40.6167 42.8675 40.572 42.8751 40.5655C42.8827 40.559 42.9067 40.6101 42.9306 40.6743C42.9546 40.7385 42.9676 40.7875 42.96 40.7897Z" fill="white"/>
<path d="M42.7579 39.1929C42.73 39.2059 42.7008 39.2161 42.6709 39.2233C42.6358 39.2326 42.6013 39.2438 42.5675 39.2571C42.5272 39.2712 42.4815 39.2854 42.4325 39.3071C42.3836 39.3289 42.3292 39.3485 42.2737 39.3757C42.2182 39.4029 42.1572 39.4323 42.0952 39.4649C41.9619 39.5388 41.8342 39.6225 41.7133 39.7152C41.5931 39.8087 41.4797 39.9106 41.3737 40.0199C41.3259 40.0721 41.2802 40.12 41.241 40.169C41.2018 40.2179 41.1648 40.2626 41.1322 40.3061C41.0995 40.3496 41.0734 40.3877 41.0495 40.4225C41.0255 40.4573 41.0059 40.4878 40.9907 40.5139C40.9756 40.5412 40.9581 40.567 40.9385 40.5912C40.9504 40.5625 40.9646 40.5349 40.9809 40.5085C40.9976 40.4759 41.0162 40.4443 41.0364 40.4138C41.0593 40.379 41.0843 40.3365 41.1158 40.2941C41.1474 40.2517 41.1811 40.2027 41.2247 40.1537C41.2682 40.1048 41.3095 40.0547 41.3563 40.0025C41.4621 39.8905 41.5763 39.7868 41.698 39.6923C41.8208 39.5995 41.9503 39.5159 42.0854 39.4421C42.1485 39.4105 42.2073 39.379 42.2661 39.3539C42.3248 39.3289 42.3749 39.3071 42.4282 39.2875C42.4815 39.268 42.524 39.2549 42.5642 39.2418C42.6045 39.2288 42.6404 39.219 42.673 39.2125C42.7008 39.2038 42.7292 39.1973 42.7579 39.1929Z" fill="white"/>
<path d="M45.3784 45.2773C45.3611 45.2932 45.3422 45.307 45.3218 45.3187C45.2689 45.3544 45.2141 45.3871 45.1575 45.4166C44.7855 45.6174 44.3721 45.7291 43.9496 45.7431C43.8691 45.7431 43.8038 45.7431 43.7581 45.7431C43.7348 45.7429 43.7115 45.7407 43.6885 45.7366C43.7116 45.7341 43.735 45.7341 43.7581 45.7366C43.8038 45.7366 43.8669 45.7366 43.9486 45.73C44.157 45.7164 44.3636 45.6825 44.5655 45.6288C44.7669 45.5736 44.9623 45.4985 45.1488 45.4047C45.2195 45.3687 45.2772 45.3372 45.3153 45.3154C45.3349 45.3005 45.3561 45.2878 45.3784 45.2773Z" fill="white"/>
<path d="M39.9649 47.2529H48V45.6326H39.9649V47.2529Z" fill="#0F913D"/>
<path d="M47.4821 45.6602C47.4636 45.6602 47.4473 46.0127 47.4473 46.4458C47.4473 46.8789 47.4636 47.2315 47.4821 47.2315C47.5006 47.2315 47.5169 46.88 47.5169 46.4458C47.5169 46.0116 47.5017 45.6602 47.4821 45.6602Z" fill="#263238"/>
<path d="M46.737 45.6602C46.7174 45.6602 46.7021 46.0127 46.7021 46.4458C46.7021 46.8789 46.7174 47.2315 46.737 47.2315C46.7566 47.2315 46.7718 46.88 46.7718 46.4458C46.7718 46.0116 46.7555 45.6602 46.737 45.6602Z" fill="#263238"/>
<path d="M46.0016 45.6602C45.982 45.6602 45.9668 46.0127 45.9668 46.4458C45.9668 46.8789 45.982 47.2315 46.0016 47.2315C46.0212 47.2315 46.0364 46.88 46.0364 46.4458C46.0364 46.0116 46.0212 45.6602 46.0016 45.6602Z" fill="#263238"/>
<path d="M45.2692 45.6602C45.2496 45.6602 45.2344 46.0127 45.2344 46.4458C45.2344 46.8789 45.2496 47.2315 45.2692 47.2315C45.2888 47.2315 45.304 46.88 45.304 46.4458C45.304 46.0116 45.2899 45.6602 45.2692 45.6602Z" fill="#263238"/>
<path d="M44.5368 45.6602C44.5172 45.6602 44.502 46.0127 44.502 46.4458C44.502 46.8789 44.5172 47.2315 44.5368 47.2315C44.5564 47.2315 44.5716 46.88 44.5716 46.4458C44.5716 46.0116 44.5564 45.6602 44.5368 45.6602Z" fill="#263238"/>
<path d="M43.8044 45.6602C43.7848 45.6602 43.7695 46.0127 43.7695 46.4458C43.7695 46.8789 43.7848 47.2315 43.8044 47.2315C43.8239 47.2315 43.8392 46.88 43.8392 46.4458C43.8392 46.0116 43.8239 45.6602 43.8044 45.6602Z" fill="#263238"/>
<path d="M43.071 45.6602C43.0514 45.6602 43.0361 46.0127 43.0361 46.4458C43.0361 46.8789 43.0514 47.2315 43.071 47.2315C43.0905 47.2315 43.1058 46.88 43.1058 46.4458C43.1058 46.0116 43.0905 45.6602 43.071 45.6602Z" fill="#263238"/>
<path d="M42.3415 45.6602C42.3219 45.6602 42.3066 46.0127 42.3066 46.4458C42.3066 46.8789 42.3219 47.2315 42.3415 47.2315C42.3611 47.2315 42.3763 46.88 42.3763 46.4458C42.3763 46.0116 42.3611 45.6602 42.3415 45.6602Z" fill="#263238"/>
<path d="M41.6081 45.6602C41.5885 45.6602 41.5732 46.0127 41.5732 46.4458C41.5732 46.8789 41.5885 47.2315 41.6081 47.2315C41.6277 47.2315 41.6429 46.88 41.6429 46.4458C41.6429 46.0116 41.6277 45.6602 41.6081 45.6602Z" fill="#263238"/>
<path d="M40.8756 45.6602C40.8561 45.6602 40.8408 46.0127 40.8408 46.4458C40.8408 46.8789 40.8561 47.2315 40.8756 47.2315C40.8952 47.2315 40.9105 46.88 40.9105 46.4458C40.9105 46.0116 40.8952 45.6602 40.8756 45.6602Z" fill="#263238"/>
<path d="M40.1432 45.6602C40.1236 45.6602 40.1084 46.0127 40.1084 46.4458C40.1084 46.8789 40.1236 47.2315 40.1432 47.2315C40.1628 47.2315 40.178 46.88 40.178 46.4458C40.178 46.0116 40.1617 45.6602 40.1432 45.6602Z" fill="#263238"/>
<g opacity="0.3">
<path d="M47.8719 45.6353C45.291 45.9807 42.6756 45.9807 40.0947 45.6353H47.8719Z" fill="black"/>
</g>
<path d="M39.957 45.6383C39.957 45.6579 41.7525 45.6732 43.967 45.6732C46.1814 45.6732 47.978 45.6579 47.978 45.6383C47.978 45.6188 46.1825 45.6035 43.967 45.6035C41.7514 45.6035 39.957 45.6188 39.957 45.6383Z" fill="#263238"/>
<path d="M39.7842 48.8462H47.8193V47.2259H39.7842V48.8462Z" fill="#0F913D"/>
<path d="M47.3014 47.2539C47.2818 47.2539 47.2666 47.6054 47.2666 48.0385C47.2666 48.4716 47.2818 48.8241 47.3014 48.8241C47.321 48.8241 47.3362 48.4727 47.3362 48.0385C47.3362 47.6043 47.3199 47.2539 47.3014 47.2539Z" fill="#263238"/>
<path d="M46.5563 47.2539C46.5367 47.2539 46.5215 47.6054 46.5215 48.0385C46.5215 48.4716 46.5367 48.8241 46.5563 48.8241C46.5759 48.8241 46.5911 48.4727 46.5911 48.0385C46.5911 47.6043 46.5759 47.2539 46.5563 47.2539Z" fill="#263238"/>
<path d="M45.821 47.2539C45.8025 47.2539 45.7861 47.6054 45.7861 48.0385C45.7861 48.4716 45.8025 48.8241 45.821 48.8241C45.8395 48.8241 45.8558 48.4727 45.8558 48.0385C45.8558 47.6043 45.8405 47.2539 45.821 47.2539Z" fill="#263238"/>
<path d="M45.0885 47.2539C45.0689 47.2539 45.0537 47.6054 45.0537 48.0385C45.0537 48.4716 45.0689 48.8241 45.0885 48.8241C45.1081 48.8241 45.1234 48.4727 45.1234 48.0385C45.1234 47.6043 45.1081 47.2539 45.0885 47.2539Z" fill="#263238"/>
<path d="M44.3561 47.2539C44.3365 47.2539 44.3213 47.6054 44.3213 48.0385C44.3213 48.4716 44.3365 48.8241 44.3561 48.8241C44.3757 48.8241 44.3909 48.4727 44.3909 48.0385C44.3909 47.6043 44.3757 47.2539 44.3561 47.2539Z" fill="#263238"/>
<path d="M43.6237 47.2539C43.6041 47.2539 43.5889 47.6054 43.5889 48.0385C43.5889 48.4716 43.6041 48.8241 43.6237 48.8241C43.6433 48.8241 43.6585 48.4727 43.6585 48.0385C43.6585 47.6043 43.6433 47.2539 43.6237 47.2539Z" fill="#263238"/>
<path d="M42.8952 47.2539C42.8756 47.2539 42.8604 47.6054 42.8604 48.0385C42.8604 48.4716 42.8756 48.8241 42.8952 48.8241C42.9148 48.8241 42.93 48.4727 42.93 48.0385C42.93 47.6043 42.9104 47.2539 42.8952 47.2539Z" fill="#263238"/>
<path d="M42.1608 47.2539C42.1412 47.2539 42.126 47.6054 42.126 48.0385C42.126 48.4716 42.1412 48.8241 42.1608 48.8241C42.1804 48.8241 42.1956 48.4727 42.1956 48.0385C42.1956 47.6043 42.1804 47.2539 42.1608 47.2539Z" fill="#263238"/>
<path d="M41.4274 47.2539C41.4078 47.2539 41.3926 47.6054 41.3926 48.0385C41.3926 48.4716 41.4078 48.8241 41.4274 48.8241C41.447 48.8241 41.4622 48.4727 41.4622 48.0385C41.4622 47.6043 41.447 47.2539 41.4274 47.2539Z" fill="#263238"/>
<path d="M40.695 47.2539C40.6754 47.2539 40.6602 47.6054 40.6602 48.0385C40.6602 48.4716 40.6754 48.8241 40.695 48.8241C40.7146 48.8241 40.7298 48.4727 40.7298 48.0385C40.7298 47.6043 40.72 47.2539 40.695 47.2539Z" fill="#263238"/>
<path d="M39.9577 47.2539C39.9381 47.2539 39.9229 47.6054 39.9229 48.0385C39.9229 48.4716 39.9381 48.8241 39.9577 48.8241C39.9773 48.8241 39.9925 48.4727 39.9925 48.0385C39.9925 47.6043 39.9816 47.2539 39.9577 47.2539Z" fill="#263238"/>
<g opacity="0.3">
<path d="M47.6914 47.228C45.1101 47.5735 42.4943 47.5735 39.9131 47.228H47.6914Z" fill="black"/>
</g>
<path d="M39.7822 47.2316C39.7822 47.2512 41.5777 47.2664 43.7932 47.2664C46.0088 47.2664 47.8032 47.2512 47.8032 47.2316C47.8032 47.212 46.0088 47.1968 43.7932 47.1968C41.5777 47.1968 39.7822 47.2185 39.7822 47.2316Z" fill="#263238"/>
<path d="M40.5469 50.4141H48.582V48.7938H40.5469V50.4141Z" fill="#0F913D"/>
<path d="M48.0651 48.8213C48.0455 48.8213 48.0303 49.1739 48.0303 49.607C48.0303 50.04 48.0455 50.3926 48.0651 50.3926C48.0847 50.3926 48.0999 50.0411 48.0999 49.607C48.0999 49.1728 48.0836 48.8213 48.0651 48.8213Z" fill="#263238"/>
<path d="M47.319 48.8213C47.2994 48.8213 47.2842 49.1739 47.2842 49.607C47.2842 50.04 47.2994 50.3926 47.319 50.3926C47.3386 50.3926 47.3538 50.0411 47.3538 49.607C47.3538 49.1728 47.3386 48.8213 47.319 48.8213Z" fill="#263238"/>
<path d="M46.5846 48.8213C46.5661 48.8213 46.5498 49.1739 46.5498 49.607C46.5498 50.04 46.5661 50.3926 46.5846 50.3926C46.6031 50.3926 46.6194 50.0411 46.6194 49.607C46.6194 49.1728 46.6042 48.8213 46.5846 48.8213Z" fill="#263238"/>
<path d="M45.8512 48.8213C45.8327 48.8213 45.8164 49.1739 45.8164 49.607C45.8164 50.04 45.8327 50.3926 45.8512 50.3926C45.8697 50.3926 45.8861 50.0411 45.8861 49.607C45.8861 49.1728 45.8708 48.8213 45.8512 48.8213Z" fill="#263238"/>
<path d="M45.1188 48.8213C45.1003 48.8213 45.084 49.1739 45.084 49.607C45.084 50.04 45.1003 50.3926 45.1188 50.3926C45.1373 50.3926 45.1536 50.0411 45.1536 49.607C45.1536 49.1728 45.1384 48.8213 45.1188 48.8213Z" fill="#263238"/>
<path d="M44.3864 48.8213C44.3679 48.8213 44.3516 49.1739 44.3516 49.607C44.3516 50.04 44.3679 50.3926 44.3864 50.3926C44.4049 50.3926 44.4212 50.0411 44.4212 49.607C44.4212 49.1728 44.406 48.8213 44.3864 48.8213Z" fill="#263238"/>
<path d="M43.6588 48.8213C43.6393 48.8213 43.624 49.1739 43.624 49.607C43.624 50.04 43.6393 50.3926 43.6588 50.3926C43.6784 50.3926 43.6937 50.0411 43.6937 49.607C43.6937 49.1728 43.6752 48.8213 43.6588 48.8213Z" fill="#263238"/>
<path d="M42.9235 48.8213C42.9039 48.8213 42.8887 49.1739 42.8887 49.607C42.8887 50.04 42.9039 50.3926 42.9235 50.3926C42.9431 50.3926 42.9583 50.0411 42.9583 49.607C42.9583 49.1728 42.9431 48.8213 42.9235 48.8213Z" fill="#263238"/>
<path d="M42.1901 48.8213C42.1705 48.8213 42.1553 49.1739 42.1553 49.607C42.1553 50.04 42.1705 50.3926 42.1901 50.3926C42.2097 50.3926 42.2249 50.0411 42.2249 49.607C42.2249 49.1728 42.2097 48.8213 42.1901 48.8213Z" fill="#263238"/>
<path d="M41.4577 48.8213C41.4381 48.8213 41.4229 49.1739 41.4229 49.607C41.4229 50.04 41.4381 50.3926 41.4577 50.3926C41.4773 50.3926 41.4925 50.0411 41.4925 49.607C41.4925 49.1728 41.4816 48.8213 41.4577 48.8213Z" fill="#263238"/>
<path d="M40.7252 48.8213C40.7057 48.8213 40.6904 49.1739 40.6904 49.607C40.6904 50.04 40.7057 50.3926 40.7252 50.3926C40.7448 50.3926 40.7601 50.0411 40.7601 49.607C40.7601 49.1728 40.7448 48.8213 40.7252 48.8213Z" fill="#263238"/>
<g opacity="0.3">
<path d="M48.455 48.7964C45.8738 49.1419 43.258 49.1419 40.6768 48.7964H48.455Z" fill="black"/>
</g>
<path d="M40.5449 48.7995C40.5449 48.8191 42.3404 48.8343 44.5559 48.8343C46.7715 48.8343 48.5659 48.8191 48.5659 48.7995C48.5659 48.7799 46.7715 48.7646 44.5559 48.7646C42.3404 48.7646 40.5449 48.781 40.5449 48.7995Z" fill="#263238"/>
<path d="M39.6055 51.9604H47.6406V50.4022H39.6055V51.9604Z" fill="#0F913D"/>
<path d="M47.1237 50.4297C47.1041 50.4297 47.0889 50.767 47.0889 51.1849C47.0889 51.6027 47.1041 51.9401 47.1237 51.9401C47.1433 51.9401 47.1585 51.6017 47.1585 51.1849C47.1585 50.7681 47.1389 50.4297 47.1237 50.4297Z" fill="#263238"/>
<path d="M46.3786 50.4297C46.359 50.4297 46.3438 50.767 46.3438 51.1849C46.3438 51.6027 46.359 51.9401 46.3786 51.9401C46.3982 51.9401 46.4134 51.6017 46.4134 51.1849C46.4134 50.7681 46.3992 50.4297 46.3786 50.4297Z" fill="#263238"/>
<path d="M45.6432 50.4297C45.6247 50.4297 45.6084 50.767 45.6084 51.1849C45.6084 51.6027 45.6247 51.9401 45.6432 51.9401C45.6617 51.9401 45.678 51.6017 45.678 51.1849C45.678 50.7681 45.6628 50.4297 45.6432 50.4297Z" fill="#263238"/>
<path d="M44.9108 50.4297C44.8923 50.4297 44.876 50.767 44.876 51.1849C44.876 51.6027 44.8923 51.9401 44.9108 51.9401C44.9293 51.9401 44.9456 51.6017 44.9456 51.1849C44.9456 50.7681 44.9304 50.4297 44.9108 50.4297Z" fill="#263238"/>
<path d="M44.1774 50.4297C44.1589 50.4297 44.1426 50.767 44.1426 51.1849C44.1426 51.6027 44.1589 51.9401 44.1774 51.9401C44.1959 51.9401 44.2122 51.6017 44.2122 51.1849C44.2122 50.7681 44.2013 50.4297 44.1774 50.4297Z" fill="#263238"/>
<path d="M43.445 50.4297C43.4254 50.4297 43.4102 50.767 43.4102 51.1849C43.4102 51.6027 43.4254 51.9401 43.445 51.9401C43.4646 51.9401 43.4798 51.6017 43.4798 51.1849C43.4798 50.7681 43.4646 50.4297 43.445 50.4297Z" fill="#263238"/>
<path d="M42.7126 50.4297C42.693 50.4297 42.6777 50.767 42.6777 51.1849C42.6777 51.6027 42.693 51.9401 42.7126 51.9401C42.7321 51.9401 42.7474 51.6017 42.7474 51.1849C42.7474 50.7681 42.7321 50.4297 42.7126 50.4297Z" fill="#263238"/>
<path d="M41.9801 50.4297C41.9605 50.4297 41.9453 50.767 41.9453 51.1849C41.9453 51.6027 41.9605 51.9401 41.9801 51.9401C41.9997 51.9401 42.015 51.6017 42.015 51.1849C42.015 50.7681 41.9997 50.4297 41.9801 50.4297Z" fill="#263238"/>
<path d="M41.2497 50.4297C41.2301 50.4297 41.2148 50.767 41.2148 51.1849C41.2148 51.6027 41.2301 51.9401 41.2497 51.9401C41.2693 51.9401 41.2845 51.6017 41.2845 51.1849C41.2845 50.7681 41.2649 50.4297 41.2497 50.4297Z" fill="#263238"/>
<path d="M40.5172 50.4297C40.4977 50.4297 40.4824 50.767 40.4824 51.1849C40.4824 51.6027 40.4977 51.9401 40.5172 51.9401C40.5368 51.9401 40.5521 51.6017 40.5521 51.1849C40.5521 50.7681 40.5368 50.4297 40.5172 50.4297Z" fill="#263238"/>
<path d="M39.7838 50.4297C39.7643 50.4297 39.749 50.767 39.749 51.1849C39.749 51.6027 39.7643 51.9401 39.7838 51.9401C39.8034 51.9401 39.8187 51.6017 39.8187 51.1849C39.8187 50.7681 39.8034 50.4297 39.7838 50.4297Z" fill="#263238"/>
<g opacity="0.3">
<path d="M47.5107 50.4048C44.9368 50.8466 42.3064 50.8466 39.7324 50.4048H47.5107Z" fill="black"/>
</g>
<path d="M39.6035 50.4078C39.6035 50.4273 41.399 50.4426 43.6145 50.4426C45.8301 50.4426 47.6245 50.4273 47.6245 50.4078C47.6245 50.3882 45.8344 50.374 43.6145 50.374C41.3947 50.374 39.6035 50.3882 39.6035 50.4078Z" fill="#263238"/>
<path d="M40.1231 53.52H48.1582V51.9617H40.1231V53.52Z" fill="#0F913D"/>
<path d="M47.6403 51.9878C47.6218 51.9878 47.6055 52.3262 47.6055 52.7441C47.6055 53.1619 47.6218 53.4993 47.6403 53.4993C47.6588 53.4993 47.6762 53.1608 47.6762 52.7441C47.6762 52.3273 47.6599 51.9878 47.6403 51.9878Z" fill="#263238"/>
<path d="M46.8952 51.9878C46.8756 51.9878 46.8604 52.3262 46.8604 52.7441C46.8604 53.1619 46.8756 53.4993 46.8952 53.4993C46.9148 53.4993 46.93 53.1608 46.93 52.7441C46.93 52.3273 46.9137 51.9878 46.8952 51.9878Z" fill="#263238"/>
<path d="M46.1598 51.9878C46.1402 51.9878 46.125 52.3262 46.125 52.7441C46.125 53.1619 46.1402 53.4993 46.1598 53.4993C46.1794 53.4993 46.1946 53.1608 46.1946 52.7441C46.1946 52.3273 46.1783 51.9878 46.1598 51.9878Z" fill="#263238"/>
<path d="M45.4274 51.9878C45.4078 51.9878 45.3926 52.3262 45.3926 52.7441C45.3926 53.1619 45.4078 53.4993 45.4274 53.4993C45.447 53.4993 45.4622 53.1608 45.4622 52.7441C45.4622 52.3273 45.447 51.9878 45.4274 51.9878Z" fill="#263238"/>
<path d="M44.695 51.9878C44.6754 51.9878 44.6602 52.3262 44.6602 52.7441C44.6602 53.1619 44.6754 53.4993 44.695 53.4993C44.7146 53.4993 44.7298 53.1608 44.7298 52.7441C44.7298 52.3273 44.7146 51.9878 44.695 51.9878Z" fill="#263238"/>
<path d="M43.9616 51.9878C43.942 51.9878 43.9268 52.3262 43.9268 52.7441C43.9268 53.1619 43.942 53.4993 43.9616 53.4993C43.9812 53.4993 43.9964 53.1608 43.9964 52.7441C43.9964 52.3273 43.9833 51.9878 43.9616 51.9878Z" fill="#263238"/>
<path d="M43.2292 51.9878C43.2096 51.9878 43.1943 52.3262 43.1943 52.7441C43.1943 53.1619 43.2096 53.4993 43.2292 53.4993C43.2487 53.4993 43.264 53.1608 43.264 52.7441C43.264 52.3273 43.2487 51.9878 43.2292 51.9878Z" fill="#263238"/>
<path d="M42.4967 51.9878C42.4771 51.9878 42.4619 52.3262 42.4619 52.7441C42.4619 53.1619 42.4771 53.4993 42.4967 53.4993C42.5163 53.4993 42.5316 53.1608 42.5316 52.7441C42.5316 52.3273 42.5163 51.9878 42.4967 51.9878Z" fill="#263238"/>
<path d="M41.7663 51.9878C41.7467 51.9878 41.7314 52.3262 41.7314 52.7441C41.7314 53.1619 41.7467 53.4993 41.7663 53.4993C41.7859 53.4993 41.8011 53.1608 41.8011 52.7441C41.8011 52.3273 41.7859 51.9878 41.7663 51.9878Z" fill="#263238"/>
<path d="M41.0338 51.9878C41.0143 51.9878 40.999 52.3262 40.999 52.7441C40.999 53.1619 41.0143 53.4993 41.0338 53.4993C41.0534 53.4993 41.0687 53.1608 41.0687 52.7441C41.0687 52.3273 41.0534 51.9878 41.0338 51.9878Z" fill="#263238"/>
<path d="M40.3014 51.9878C40.2818 51.9878 40.2666 52.3262 40.2666 52.7441C40.2666 53.1619 40.2818 53.4993 40.3014 53.4993C40.321 53.4993 40.3362 53.1608 40.3362 52.7441C40.3362 52.3273 40.3199 51.9878 40.3014 51.9878Z" fill="#263238"/>
<g opacity="0.3">
<path d="M48.0282 51.9644C45.4599 52.4644 42.8193 52.4644 40.251 51.9644H48.0282Z" fill="black"/>
</g>
<path d="M40.1211 51.967C40.1211 51.9865 41.9166 52.0018 44.131 52.0018C46.3455 52.0018 48.142 51.9865 48.142 51.967C48.142 51.9474 46.3466 51.9321 44.131 51.9321C41.9155 51.9321 40.1211 51.9474 40.1211 51.967Z" fill="#263238"/>
<path d="M39.6631 55.0576H47.6982V53.4993H39.6631V55.0576Z" fill="#0F913D"/>
<path d="M47.1813 53.5298C47.1617 53.5298 47.1465 53.8682 47.1465 54.285C47.1465 54.7018 47.1617 55.0467 47.1813 55.0467C47.2009 55.0467 47.2161 54.7083 47.2161 54.285C47.2161 53.8617 47.1998 53.5298 47.1813 53.5298Z" fill="#263238"/>
<path d="M46.4362 53.5298C46.4166 53.5298 46.4014 53.8682 46.4014 54.285C46.4014 54.7018 46.4166 55.0467 46.4362 55.0467C46.4558 55.0467 46.471 54.7083 46.471 54.285C46.471 53.8617 46.4558 53.5298 46.4362 53.5298Z" fill="#263238"/>
<path d="M45.7008 53.5298C45.6823 53.5298 45.666 53.8682 45.666 54.285C45.666 54.7018 45.6823 55.0467 45.7008 55.0467C45.7193 55.0467 45.7357 54.7083 45.7357 54.285C45.7357 53.8617 45.7259 53.5298 45.7008 53.5298Z" fill="#263238"/>
<path d="M44.9635 53.5298C44.9439 53.5298 44.9287 53.8682 44.9287 54.285C44.9287 54.7018 44.9439 55.0467 44.9635 55.0467C44.9831 55.0467 44.9984 54.7083 44.9984 54.285C44.9984 53.8617 44.9875 53.5298 44.9635 53.5298Z" fill="#263238"/>
<path d="M44.235 53.5298C44.2154 53.5298 44.2002 53.8682 44.2002 54.285C44.2002 54.7018 44.2154 55.0467 44.235 55.0467C44.2546 55.0467 44.2698 54.7083 44.2698 54.285C44.2698 53.8617 44.2546 53.5298 44.235 53.5298Z" fill="#263238"/>
<path d="M43.5026 53.5298C43.483 53.5298 43.4678 53.8682 43.4678 54.285C43.4678 54.7018 43.483 55.0467 43.5026 55.0467C43.5222 55.0467 43.5374 54.7083 43.5374 54.285C43.5374 53.8617 43.5222 53.5298 43.5026 53.5298Z" fill="#263238"/>
<path d="M42.7702 53.5298C42.7506 53.5298 42.7354 53.8682 42.7354 54.285C42.7354 54.7018 42.7506 55.0467 42.7702 55.0467C42.7898 55.0467 42.805 54.7083 42.805 54.285C42.805 53.8617 42.7865 53.5298 42.7702 53.5298Z" fill="#263238"/>
<path d="M42.0378 53.5298C42.0182 53.5298 42.0029 53.8682 42.0029 54.285C42.0029 54.7018 42.0182 55.0467 42.0378 55.0467C42.0573 55.0467 42.0726 54.7083 42.0726 54.285C42.0726 53.8617 42.0573 53.5298 42.0378 53.5298Z" fill="#263238"/>
<path d="M41.3073 53.5298C41.2877 53.5298 41.2725 53.8682 41.2725 54.285C41.2725 54.7018 41.2877 55.0467 41.3073 55.0467C41.3269 55.0467 41.3421 54.7083 41.3421 54.285C41.3421 53.8617 41.3269 53.5298 41.3073 53.5298Z" fill="#263238"/>
<path d="M40.5749 53.5298C40.5553 53.5298 40.54 53.8682 40.54 54.285C40.54 54.7018 40.5553 55.0467 40.5749 55.0467C40.5944 55.0467 40.6097 54.7083 40.6097 54.285C40.6097 53.8617 40.5944 53.5298 40.5749 53.5298Z" fill="#263238"/>
<path d="M39.8415 53.5298C39.8219 53.5298 39.8066 53.8682 39.8066 54.285C39.8066 54.7018 39.8219 55.0467 39.8415 55.0467C39.8611 55.0467 39.8763 54.7083 39.8763 54.285C39.8763 53.8617 39.8611 53.5298 39.8415 53.5298Z" fill="#263238"/>
<g opacity="0.3">
<path d="M47.5742 53.5015C45.0002 53.9433 42.3698 53.9433 39.7959 53.5015H47.5742Z" fill="black"/>
</g>
<path d="M39.6611 53.5045C39.6611 53.523 41.4566 53.5394 43.6722 53.5394C45.8877 53.5394 47.6821 53.523 47.6821 53.5045C47.6821 53.486 45.8866 53.4697 43.6722 53.4697C41.4577 53.4697 39.6611 53.485 39.6611 53.5045Z" fill="#263238"/>
<path d="M47.6974 55.0529C47.6974 55.0529 47.6974 55.0442 47.6974 55.0268C47.6974 55.0094 47.6974 54.98 47.6974 54.9485C47.6974 54.8756 47.6974 54.7744 47.6974 54.6449C47.6974 54.3772 47.692 53.992 47.6887 53.5164V53.499H47.7061H48.149L48.1305 53.5186C48.1305 53.0627 48.1305 52.5392 48.1305 51.9593L48.1544 51.9832H47.6104V51.9582C47.6104 51.4761 47.6104 50.9538 47.6104 50.4119V50.3857H48.5777L48.5516 50.4119C48.5516 49.8351 48.5516 49.2812 48.5516 48.7611L48.5756 48.7861H47.7899V48.7622C47.7899 48.1985 47.7899 47.6892 47.7899 47.2518V47.2322H48.0075L47.9901 47.2507C47.9901 46.748 47.9901 46.3453 47.9901 46.0646C47.9901 45.9286 47.9901 45.8219 47.9901 45.7458C47.9901 45.7109 47.9901 45.6848 47.9901 45.6631C47.9892 45.6536 47.9892 45.6442 47.9901 45.6348C47.9915 45.6441 47.9915 45.6537 47.9901 45.6631C47.9901 45.6837 47.9901 45.7109 47.9901 45.7458C47.9901 45.8219 47.9901 45.9275 47.9977 46.0635C47.9977 46.3453 48.0097 46.748 48.0184 47.2496V47.2681H47.8008L47.8193 47.2496C47.8193 47.6849 47.8193 48.1963 47.8247 48.76L47.8008 48.7372H48.5625H48.5875V48.7622C48.5875 49.2823 48.5875 49.8362 48.5875 50.4129V50.4391H47.6191L47.6463 50.4129C47.6463 50.957 47.6463 51.4772 47.6463 51.9593L47.6212 51.9342H48.1653V51.9582C48.1653 52.5349 48.1653 53.0616 48.1653 53.5175V53.5371H47.7028L47.7203 53.5197C47.7203 53.9974 47.7148 54.3804 47.7126 54.6481C47.7126 54.7776 47.7126 54.8788 47.7126 54.9517C47.7126 54.9833 47.7126 55.0094 47.7126 55.0301C47.7089 55.0385 47.7037 55.0462 47.6974 55.0529Z" fill="#263238"/>
<path d="M50.642 32.1645C50.6648 32.8179 50.4934 33.4634 50.1494 34.0194C49.8054 34.5754 49.3042 35.0169 48.7093 35.2881C48.1144 35.5592 47.4524 35.6479 46.8071 35.5429C46.1618 35.4379 45.5621 35.1439 45.0839 34.6981C44.6056 34.2523 44.2703 33.6746 44.1204 33.0383C43.9704 32.4019 44.0125 31.7353 44.2413 31.1229C44.4702 30.5104 44.8755 29.9796 45.406 29.5975C45.9365 29.2154 46.5684 28.9991 47.2218 28.9761C48.0981 28.9456 48.9507 29.2643 49.592 29.8622C50.2334 30.4601 50.6111 31.2882 50.642 32.1645Z" fill="#0F913D"/>
<g opacity="0.1">
<path d="M47.2215 28.9761C46.3454 29.007 45.5173 29.3847 44.9196 30.0261C44.3219 30.6675 44.0034 31.52 44.0343 32.3962C44.0343 32.3962 46.3586 32.4191 46.8842 31.4636C47.4098 30.5082 47.2215 28.9761 47.2215 28.9761Z" fill="white"/>
</g>
<path d="M49.7942 32.1412C49.8115 32.6378 49.6812 33.1284 49.4198 33.551C49.1583 33.9736 48.7774 34.3091 48.3253 34.5152C47.8731 34.7213 47.37 34.7887 46.8795 34.7089C46.3891 34.6291 45.9333 34.4056 45.5698 34.0668C45.2064 33.728 44.9515 33.289 44.8375 32.8053C44.7235 32.3217 44.7555 31.8151 44.9294 31.3496C45.1033 30.8841 45.4113 30.4806 45.8145 30.1902C46.2177 29.8998 46.6979 29.7354 47.1945 29.7179C47.5244 29.7062 47.8532 29.7597 48.1624 29.8752C48.4716 29.9907 48.755 30.166 48.9964 30.391C49.2378 30.6161 49.4325 30.8865 49.5694 31.1868C49.7063 31.4871 49.7827 31.8114 49.7942 32.1412Z" fill="#0F913D"/>
<g opacity="0.2">
<path d="M49.7932 32.1417C49.8105 32.6383 49.6802 33.1289 49.4188 33.5515C49.1573 33.974 48.7764 34.3096 48.3243 34.5157C47.8721 34.7218 47.369 34.7892 46.8786 34.7094C46.3881 34.6296 45.9323 34.4061 45.5689 34.0673C45.2054 33.7285 44.9505 33.2895 44.8365 32.8058C44.7225 32.3222 44.7545 31.8156 44.9284 31.3501C45.1023 30.8846 45.4103 30.4811 45.8135 30.1907C46.2167 29.9003 46.697 29.7359 47.1936 29.7184C47.5234 29.7067 47.8523 29.7602 48.1614 29.8757C48.4706 29.9912 48.754 30.1665 48.9954 30.3915C49.2368 30.6165 49.4315 30.8869 49.5684 31.1873C49.7053 31.4876 49.7817 31.8119 49.7932 32.1417Z" fill="black"/>
</g>
<path d="M49.8694 32.2436C49.8859 32.7335 49.7568 33.2173 49.4984 33.6338C49.24 34.0503 48.8639 34.3809 48.4177 34.5837C47.9715 34.7865 47.4752 34.8525 46.9915 34.7733C46.5078 34.6941 46.0584 34.4733 45.7001 34.1388C45.3419 33.8043 45.0909 33.371 44.9788 32.8939C44.8667 32.4167 44.8986 31.917 45.0704 31.458C45.2422 30.999 45.5463 30.6012 45.9442 30.3149C46.342 30.0286 46.8158 29.8667 47.3057 29.8496C47.6312 29.8383 47.9559 29.8913 48.261 30.0055C48.5661 30.1197 48.8457 30.2929 49.0838 30.5152C49.3219 30.7376 49.5138 31.0047 49.6486 31.3012C49.7834 31.5978 49.8585 31.918 49.8694 32.2436Z" fill="#0F913D"/>
<g opacity="0.2">
<path d="M49.8714 32.2441C49.8879 32.734 49.7587 33.2178 49.5004 33.6343C49.242 34.0508 48.8659 34.3813 48.4197 34.5842C47.9735 34.787 47.4771 34.853 46.9934 34.7738C46.5097 34.6946 46.0603 34.4738 45.7021 34.1393C45.3438 33.8048 45.0928 33.3715 44.9807 32.8944C44.8686 32.4172 44.9005 31.9175 45.0724 31.4585C45.2442 30.9994 45.5483 30.6016 45.9461 30.3154C46.344 30.0291 46.8178 29.8672 47.3076 29.8501C47.6332 29.8388 47.9578 29.8917 48.2629 30.0059C48.568 30.1202 48.8476 30.2934 49.0857 30.5157C49.3238 30.7381 49.5158 31.0052 49.6506 31.3017C49.7854 31.5983 49.8604 31.9185 49.8714 32.2441Z" fill="white"/>
</g>
<path d="M47.4813 32.1125L47.4595 31.4791C47.5757 31.4888 47.6899 31.5144 47.799 31.5553C47.8555 31.5814 47.9094 31.6128 47.9601 31.6489L47.9677 31.6293L48.058 31.3975L48.0787 31.3442L47.9612 31.2289L47.9079 31.2561C47.7632 31.1853 47.6053 31.1456 47.4443 31.1396L47.4323 30.7903L47.3235 30.7065V30.7947H47.1744L47.1864 31.1505C46.6989 31.2147 46.4758 31.502 46.4867 31.8219C46.5019 32.2572 46.8806 32.3584 47.2321 32.4313L47.2539 33.0592C47.0252 33.049 46.8043 32.9735 46.6173 32.8415L46.4867 33.168C46.7181 33.3225 46.9909 33.403 47.2691 33.3987L47.2778 33.662L47.1559 33.6686L47.2811 33.748L47.539 33.7382L47.5259 33.3867C48.0178 33.3193 48.243 33.0342 48.2321 32.7142C48.2169 32.2822 47.8328 32.1854 47.4813 32.1125ZM47.2212 32.0559C47.0373 32.0091 46.9002 31.9471 46.8948 31.7936C46.8893 31.6402 46.9807 31.539 47.2016 31.4966L47.2212 32.0559ZM47.5139 33.0483L47.4944 32.4933C47.6848 32.5401 47.8263 32.6021 47.8317 32.761C47.836 32.896 47.7425 33.0059 47.5139 33.0483Z" fill="#0F913D"/>
<g opacity="0.3">
<path d="M47.4823 32.1125L47.4605 31.4791C47.5766 31.4888 47.6909 31.5144 47.8 31.5553C47.8565 31.5814 47.9104 31.6128 47.9611 31.6489L47.9687 31.6293L48.059 31.3975L48.0797 31.3442L47.9622 31.2289L47.9088 31.2561C47.7642 31.1853 47.6062 31.1456 47.4453 31.1396L47.4333 30.7903L47.3245 30.7065V30.7947H47.1754L47.1874 31.1505C46.6999 31.2147 46.4768 31.502 46.4877 31.8219C46.5029 32.2572 46.8816 32.3584 47.2331 32.4313L47.2548 33.0592C47.0262 33.049 46.8053 32.9735 46.6183 32.8415L46.4877 33.168C46.719 33.3225 46.9919 33.403 47.2701 33.3987L47.2788 33.662L47.1569 33.6686L47.2821 33.748L47.5399 33.7382L47.5269 33.3867C48.0187 33.3193 48.244 33.0342 48.2331 32.7142C48.2179 32.2822 47.8338 32.1854 47.4823 32.1125ZM47.2222 32.0559C47.0383 32.0091 46.9012 31.9471 46.8958 31.7936C46.8903 31.6402 46.9817 31.539 47.2026 31.4966L47.2222 32.0559ZM47.5149 33.0483L47.4953 32.4933C47.6858 32.5401 47.8272 32.6021 47.8327 32.761C47.837 32.896 47.7434 33.0059 47.5149 33.0483Z" fill="black"/>
</g>
<path d="M47.4179 33.3081L47.4299 33.6607L47.172 33.6694L47.16 33.3212C46.8828 33.3226 46.6114 33.2411 46.3809 33.0872L46.5114 32.7608C46.699 32.8916 46.9196 32.967 47.148 32.9784L47.1263 32.3494C46.7748 32.2776 46.3972 32.1775 46.3819 31.7411C46.37 31.4147 46.5931 31.1328 47.0816 31.0686L47.0686 30.7128L47.3265 30.7041L47.3385 31.0534C47.5639 31.055 47.7854 31.113 47.9827 31.2221L47.8651 31.5485C47.706 31.4626 47.5307 31.4108 47.3504 31.3962L47.3733 32.0306C47.7248 32.1035 48.1089 32.2003 48.1241 32.6367C48.135 32.9566 47.9087 33.2406 47.4179 33.3081ZM47.1132 31.9729L47.0936 31.4136C46.876 31.456 46.7813 31.5725 46.7857 31.7107C46.79 31.8489 46.9293 31.9261 47.1132 31.9729ZM47.7226 32.6781C47.7171 32.5246 47.5768 32.4604 47.3863 32.4104L47.4059 32.9664C47.6334 32.924 47.7269 32.813 47.7226 32.6781Z" fill="#0F913D"/>
<path d="M47.4339 34.8347H47.4546L47.5133 34.8282L47.6102 34.8195C47.6544 34.8165 47.6984 34.8103 47.7418 34.801L47.9051 34.7694C47.9365 34.7639 47.9674 34.7559 47.9975 34.7455L48.0955 34.7161C48.1323 34.7068 48.1687 34.6956 48.2043 34.6824L48.3131 34.6389C48.3501 34.6225 48.3893 34.6095 48.4219 34.5899L48.5384 34.529C48.7093 34.4362 48.8695 34.3249 49.0161 34.1971L49.1303 34.0882C49.1499 34.0697 49.1695 34.0512 49.188 34.0317L49.2424 33.9675C49.2772 33.925 49.3164 33.8826 49.3512 33.8369C49.3861 33.7912 49.4176 33.7422 49.4514 33.6943L49.4764 33.6573C49.4846 33.645 49.4923 33.6323 49.4992 33.6192L49.5428 33.5409L49.5874 33.4615C49.6022 33.4344 49.6153 33.4064 49.6266 33.3777C49.6505 33.3211 49.6777 33.2688 49.7005 33.2068L49.7593 33.0251C49.91 32.5134 49.8909 31.9667 49.7049 31.4668C49.681 31.4066 49.657 31.3479 49.6331 31.2905C49.607 31.2329 49.5754 31.1817 49.5471 31.1241C49.534 31.0963 49.5191 31.0694 49.5025 31.0435C49.4862 31.0185 49.4699 30.9924 49.4524 30.9674L49.4035 30.8923L49.3784 30.8553L49.3512 30.8215L49.2424 30.6855C49.2054 30.642 49.1641 30.6028 49.1249 30.5626L49.0672 30.5027L49.0052 30.4494L48.8833 30.3406C48.728 30.2233 48.5601 30.1237 48.3828 30.0435L48.2642 29.9902C48.225 29.9738 48.1847 29.963 48.1466 29.9499L48.0378 29.9129C48.0019 29.9009 47.9649 29.8955 47.929 29.8868L47.8289 29.865C47.7982 29.8568 47.7669 29.851 47.7353 29.8476L47.5699 29.8269C47.5262 29.8211 47.4823 29.8182 47.4382 29.8182H47.3403H47.2804H47.2598H47.4382C47.4825 29.817 47.5269 29.8188 47.571 29.8237L47.7375 29.8422C47.769 29.8457 47.8002 29.8511 47.8311 29.8585L47.9323 29.8803C47.966 29.889 48.003 29.8933 48.0411 29.9053L48.1499 29.9412C48.188 29.9553 48.2282 29.9651 48.2674 29.9815L48.3882 30.0337C48.567 30.1138 48.7363 30.2134 48.8931 30.3308L49.0172 30.4396C49.0378 30.457 49.0596 30.4744 49.0792 30.4929L49.138 30.5528C49.1771 30.593 49.2196 30.6322 49.2566 30.6757L49.3654 30.8128L49.3937 30.8477L49.4187 30.8846C49.435 30.9097 49.4524 30.9347 49.4688 30.9608L49.5199 31.037C49.5373 31.062 49.5493 31.0914 49.5645 31.1186C49.5928 31.173 49.6244 31.2274 49.6516 31.2851C49.6788 31.3428 49.6995 31.4037 49.7245 31.4636C49.8141 31.7154 49.8662 31.979 49.879 32.246C49.8855 32.5135 49.8517 32.7806 49.7789 33.0382C49.7593 33.0991 49.7386 33.16 49.719 33.2199C49.6995 33.2797 49.669 33.3363 49.644 33.3929C49.6325 33.4219 49.6194 33.4502 49.6048 33.4778L49.5602 33.5572L49.5156 33.6367L49.4927 33.6758L49.4666 33.7117L49.3665 33.8565C49.3317 33.9022 49.2925 33.9446 49.2577 33.987L49.2032 34.0512L49.1445 34.1089L49.0281 34.2177C48.8801 34.3463 48.718 34.4576 48.5449 34.5496L48.4285 34.6106C48.3904 34.6291 48.3501 34.6421 48.3131 34.6584L48.2043 34.702C48.1686 34.7148 48.1323 34.7257 48.0955 34.7346L47.9965 34.764C47.9661 34.7734 47.9352 34.781 47.904 34.7869L47.7397 34.8162C47.6958 34.8245 47.6515 34.8296 47.6069 34.8315L47.51 34.8391H47.4502L47.4339 34.8347Z" fill="#263238"/>
<path d="M44.577 33.9288C44.577 33.9288 44.5705 33.9211 44.5607 33.9037L44.5183 33.8297C44.4998 33.7982 44.478 33.7579 44.4552 33.71C44.4323 33.6622 44.4051 33.6088 44.3812 33.5468C44.3692 33.5152 44.3561 33.4837 44.342 33.45C44.3278 33.4162 44.3181 33.3803 44.305 33.3411C44.2778 33.2671 44.2571 33.1866 44.2343 33.1017C44.1396 32.731 44.1109 32.3464 44.1494 31.9657C44.1592 31.8786 44.1679 31.7948 44.1842 31.7187C44.1907 31.6795 44.1962 31.6425 44.2049 31.6099C44.2136 31.5772 44.2212 31.5402 44.2299 31.5076C44.243 31.4434 44.2636 31.3857 44.2778 31.3356C44.2919 31.2856 44.3083 31.242 44.3224 31.2072C44.3366 31.1724 44.3453 31.1485 44.3529 31.1278C44.3559 31.1182 44.3603 31.109 44.3659 31.1006C44.3645 31.1106 44.3619 31.1205 44.3583 31.13C44.3507 31.1506 44.342 31.1778 44.3311 31.2105C44.3202 31.2431 44.305 31.2888 44.2919 31.3389C44.2789 31.389 44.2593 31.4477 44.2462 31.5119C44.239 31.5446 44.2314 31.5783 44.2234 31.6131C44.2158 31.649 44.2114 31.686 44.2038 31.7219C44.1896 31.7981 44.182 31.8808 44.1712 31.9679C44.1556 32.1568 44.1538 32.3467 44.1657 32.5359C44.1817 32.7247 44.2119 32.912 44.256 33.0963C44.2789 33.1801 44.2985 33.2606 44.3246 33.3346C44.3366 33.3716 44.3474 33.4075 44.3605 33.4434L44.3975 33.5403C44.4203 33.6023 44.4465 33.6556 44.4682 33.7035C44.49 33.7514 44.5096 33.7927 44.527 33.8254L44.5651 33.9016C44.5703 33.91 44.5743 33.9192 44.577 33.9288Z" fill="white"/>
<path d="M46.6057 31.9991C46.5753 31.9825 46.5495 31.9586 46.5306 31.9295C46.4796 31.8617 46.4517 31.7793 46.4512 31.6944C46.452 31.6097 46.4798 31.5273 46.5306 31.4594C46.5496 31.4298 46.5758 31.4055 46.6068 31.3887C46.6068 31.3887 46.5785 31.417 46.5448 31.4692C46.5001 31.5358 46.4763 31.6142 46.4763 31.6944C46.4763 31.7747 46.5001 31.8531 46.5448 31.9197C46.5785 31.9708 46.609 31.9959 46.6057 31.9991Z" fill="white"/>
<path d="M47.1334 31.0177C47.1203 30.9853 47.1147 30.9504 47.1171 30.9155C47.1114 30.879 47.1143 30.8417 47.1258 30.8066C47.1334 30.8066 47.1399 30.8523 47.1421 30.91C47.1479 30.9461 47.1449 30.9831 47.1334 31.0177Z" fill="white"/>
<path d="M47.4199 29.6453C47.3928 29.6482 47.3654 29.6482 47.3383 29.6453C47.3133 29.6453 47.2806 29.6453 47.2447 29.6453C47.2088 29.6453 47.1653 29.6453 47.1196 29.6453C47.0739 29.6453 47.0227 29.6453 46.9683 29.6573C46.9139 29.6693 46.8595 29.6715 46.7964 29.6802C46.6659 29.7037 46.5372 29.7361 46.4112 29.777C46.2854 29.8201 46.1629 29.8721 46.0444 29.9326C45.9911 29.962 45.9356 29.9881 45.8932 30.0175C45.8508 30.0469 45.804 30.073 45.7659 30.0991C45.7278 30.1252 45.6941 30.1503 45.6647 30.172C45.6353 30.1938 45.6092 30.2134 45.5896 30.2297C45.5702 30.2485 45.5486 30.2649 45.5254 30.2787C45.5433 30.2588 45.5626 30.2403 45.5831 30.2232C45.6027 30.2047 45.6266 30.184 45.656 30.1611C45.6854 30.1383 45.7169 30.1111 45.7561 30.085C45.7953 30.0588 45.8355 30.0284 45.8823 30.0001C45.9291 29.9718 45.9802 29.9424 46.0336 29.9119C46.1525 29.8503 46.2758 29.7975 46.4025 29.7542C46.5298 29.7127 46.66 29.6807 46.792 29.6584C46.8541 29.6497 46.9117 29.6399 46.9661 29.6366C47.0205 29.6334 47.075 29.629 47.1185 29.6279C47.162 29.6268 47.2077 29.6279 47.2447 29.6279C47.2817 29.6279 47.3133 29.6279 47.3394 29.6279L47.4199 29.6453Z" fill="white"/>
<path d="M47.8494 35.3998C47.8307 35.4072 47.8114 35.4131 47.7917 35.4172C47.738 35.4316 47.6835 35.4429 47.6285 35.4509C47.4487 35.4803 47.2662 35.489 47.0844 35.477C46.8999 35.4649 46.7173 35.4316 46.5403 35.378C46.4739 35.3562 46.4195 35.3377 46.3836 35.3214C46.3644 35.3148 46.3458 35.3064 46.3281 35.2964C46.3483 35.2993 46.3681 35.3048 46.3869 35.3127C46.4239 35.3258 46.4783 35.3421 46.5458 35.3606C46.721 35.4093 46.9008 35.4403 47.0822 35.4531C47.2638 35.4647 47.446 35.4585 47.6263 35.4346C47.696 35.4248 47.7515 35.415 47.7906 35.4085C47.8097 35.4029 47.8295 35.4 47.8494 35.3998Z" fill="white"/>
<path d="M36.659 55.0152L21.9196 54.9445C21.0682 54.9405 20.2531 54.5984 19.6538 53.9936C19.0545 53.3887 18.7199 52.5706 18.7237 51.7191L18.8793 14.769C18.8811 14.3468 18.9662 13.9291 19.1296 13.5398C19.293 13.1505 19.5316 12.7972 19.8317 12.5002C20.1317 12.2031 20.4874 11.9682 20.8784 11.8087C21.2693 11.6492 21.6879 11.5684 22.1101 11.5709L36.8451 11.6351C37.6964 11.6391 38.5112 11.981 39.1105 12.5856C39.7098 13.1902 40.0445 14.008 40.0411 14.8593L39.8854 51.8138C39.8843 52.236 39.7999 52.6539 39.637 53.0434C39.4742 53.4329 39.2361 53.7865 38.9364 54.0839C38.6367 54.3813 38.2812 54.6166 37.8905 54.7764C37.4997 54.9362 37.0812 55.0174 36.659 55.0152Z" fill="#263238"/>
<path d="M36.8243 12.9147L33.9711 12.9016L25.6237 12.8625H24.6193L22.1165 12.8516C21.8212 12.8502 21.5285 12.9069 21.2551 13.0187C20.9817 13.1304 20.733 13.2949 20.5232 13.5027C20.3134 13.7106 20.1467 13.9578 20.0324 14.2301C19.9182 14.5025 19.8587 14.7946 19.8574 15.09L19.7051 51.1609C19.7038 51.4561 19.7607 51.7487 19.8725 52.022C19.9843 52.2952 20.1488 52.5438 20.3566 52.7534C20.5645 52.9631 20.8116 53.1298 21.0839 53.244C21.3562 53.3581 21.6482 53.4175 21.9435 53.4188L36.6545 53.4863C36.9499 53.4873 37.2425 53.4301 37.5157 53.318C37.7889 53.2059 38.0374 53.041 38.2469 52.8328C38.4563 52.6247 38.6228 52.3773 38.7366 52.1047C38.8504 51.8322 38.9095 51.54 38.9103 51.2447L39.0627 15.1738C39.0641 14.8784 39.0073 14.5857 38.8956 14.3123C38.7839 14.039 38.6194 13.7903 38.4115 13.5805C38.2037 13.3707 37.9565 13.2039 37.6842 13.0897C37.4118 12.9754 37.1196 12.916 36.8243 12.9147Z" fill="#FAFAFA"/>
<path d="M36.9323 16.1922C36.9323 16.2286 36.9214 16.2642 36.9012 16.2945C36.8809 16.3248 36.8521 16.3483 36.8185 16.3622C36.7848 16.3761 36.7478 16.3797 36.7121 16.3725C36.6764 16.3653 36.6436 16.3477 36.6179 16.3219C36.5923 16.296 36.5748 16.2632 36.5679 16.2274C36.5609 16.1917 36.5647 16.1547 36.5788 16.1211C36.5929 16.0875 36.6166 16.0588 36.647 16.0388C36.6774 16.0187 36.713 16.0081 36.7494 16.0083C36.798 16.0086 36.8445 16.0281 36.8788 16.0626C36.913 16.097 36.9323 16.1436 36.9323 16.1922Z" fill="#263238"/>
<path d="M36.9293 16.8583C36.9291 16.8947 36.9181 16.9301 36.8978 16.9602C36.8775 16.9903 36.8487 17.0137 36.815 17.0275C36.7814 17.0412 36.7445 17.0447 36.7089 17.0375C36.6733 17.0303 36.6406 17.0127 36.615 16.9869C36.5894 16.9611 36.572 16.9284 36.565 16.8927C36.558 16.8571 36.5617 16.8202 36.5756 16.7866C36.5896 16.7531 36.6131 16.7244 36.6434 16.7043C36.6736 16.6841 36.7091 16.6733 36.7454 16.6733C36.7943 16.6736 36.8411 16.6932 36.8755 16.7279C36.91 16.7626 36.9293 16.8095 36.9293 16.8583Z" fill="#263238"/>
<path d="M36.9295 17.5164C36.9298 17.5531 36.9191 17.589 36.8988 17.6196C36.8786 17.6502 36.8497 17.6741 36.8159 17.6882C36.782 17.7023 36.7447 17.7061 36.7087 17.699C36.6728 17.6919 36.6397 17.6743 36.6138 17.6483C36.5878 17.6224 36.5702 17.5893 36.5631 17.5533C36.556 17.5173 36.5597 17.4801 36.5739 17.4462C36.588 17.4124 36.6119 17.3835 36.6425 17.3632C36.6731 17.343 36.709 17.3323 36.7456 17.3325C36.7943 17.3328 36.8409 17.3523 36.8754 17.3867C36.9098 17.4211 36.9293 17.4677 36.9295 17.5164Z" fill="#263238"/>
<path d="M37.5799 22.479H22.8351C22.5767 22.479 22.3672 22.6885 22.3672 22.9469V31.9592C22.3672 32.2176 22.5767 32.4271 22.8351 32.4271H37.5799C37.8383 32.4271 38.0478 32.2176 38.0478 31.9592V22.9469C38.0478 22.6885 37.8383 22.479 37.5799 22.479Z" fill="#EBEBEB"/>
<path d="M37.1512 21.8325H22.4064C22.148 21.8325 21.9385 22.042 21.9385 22.3004V31.3127C21.9385 31.5711 22.148 31.7806 22.4064 31.7806H37.1512C37.4096 31.7806 37.6191 31.5711 37.6191 31.3127V22.3004C37.6191 22.042 37.4096 21.8325 37.1512 21.8325Z" fill="#E0E0E0"/>
<path d="M36.6512 21.2959H21.9064C21.648 21.2959 21.4385 21.5054 21.4385 21.7638V30.7761C21.4385 31.0345 21.648 31.244 21.9064 31.244H36.6512C36.9096 31.244 37.1191 31.0345 37.1191 30.7761V21.7638C37.1191 21.5054 36.9096 21.2959 36.6512 21.2959Z" fill="#0F913D"/>
<path d="M24.0233 23.5681C24.0233 23.6954 23.9221 23.7694 23.7284 23.7694H23.3486V23.0327H23.7077C23.8916 23.0327 23.9863 23.11 23.9863 23.2242C23.987 23.2578 23.9781 23.2908 23.9608 23.3195C23.9435 23.3482 23.9183 23.3714 23.8884 23.3864C23.9282 23.3968 23.9633 23.4204 23.9878 23.4535C24.0124 23.4865 24.0249 23.527 24.0233 23.5681ZM23.5173 23.1611V23.3352H23.6871C23.7698 23.3352 23.8155 23.3058 23.8155 23.2482C23.8155 23.1905 23.7698 23.1611 23.6871 23.1611H23.5173ZM23.8525 23.5507C23.8525 23.4887 23.8046 23.4593 23.7164 23.4593H23.5173V23.641H23.7164C23.8046 23.641 23.8525 23.6138 23.8525 23.5507Z" fill="white"/>
<path d="M24.6359 23.6116H24.2942L24.2289 23.7694H24.0537L24.3802 23.0327H24.5488L24.8753 23.7694H24.6968L24.6359 23.6116ZM24.5826 23.4821L24.465 23.2003L24.3486 23.4821H24.5826Z" fill="white"/>
<path d="M25.6328 23.0327V23.7694H25.4924L25.1257 23.3222V23.7694H24.957V23.0327H25.0985L25.4641 23.48V23.0327H25.6328Z" fill="white"/>
<path d="M26.0729 23.4799L25.9739 23.5887V23.7748H25.8096V23.0381H25.9793V23.382L26.3058 23.0381H26.4951L26.1904 23.3645L26.5169 23.7726H26.3177L26.0729 23.4799Z" fill="white"/>
<path d="M23.8833 26.6292H23.7484V26.8066H23.6787V26.6292H23.2979V26.5792L23.6559 26.1309H23.7331L23.3882 26.5661H23.6809V26.4105H23.7484V26.5661H23.8833V26.6292Z" fill="white"/>
<path d="M24.3792 26.6129C24.3792 26.7217 24.2976 26.8131 24.1344 26.8131C24.045 26.8162 23.9578 26.7851 23.8906 26.7261L23.9254 26.6706C23.982 26.7233 24.0571 26.7514 24.1344 26.7489C24.2432 26.7489 24.3085 26.6967 24.3085 26.6129C24.3085 26.5291 24.2508 26.4791 24.1257 26.4791H24.0778V26.4279L24.265 26.1929H23.9189V26.1309H24.3542V26.1809L24.1638 26.4214C24.3074 26.4345 24.3792 26.5052 24.3792 26.6129Z" fill="white"/>
<path d="M24.927 26.6086C24.927 26.7228 24.8475 26.8131 24.6821 26.8131C24.5931 26.816 24.5063 26.7849 24.4395 26.7261L24.4743 26.6706C24.5019 26.6967 24.5343 26.717 24.5698 26.7305C24.6053 26.7439 24.6431 26.7502 24.681 26.7489C24.7964 26.7489 24.8573 26.6934 24.8573 26.6107C24.8573 26.528 24.8029 26.4704 24.631 26.4704H24.4873L24.5222 26.1309H24.8921V26.1929H24.5831L24.5592 26.4105H24.6462C24.8497 26.4083 24.927 26.4889 24.927 26.6086Z" fill="white"/>
<path d="M25.5228 26.6052C25.5225 26.6343 25.5161 26.6631 25.5041 26.6897C25.4921 26.7163 25.4747 26.7401 25.453 26.7597C25.4314 26.7792 25.4059 26.794 25.3782 26.8032C25.3505 26.8124 25.3212 26.8157 25.2921 26.813C25.1126 26.813 25.0146 26.6879 25.0146 26.4746C25.0146 26.245 25.1398 26.1253 25.3237 26.1253C25.3794 26.1229 25.4347 26.1357 25.4837 26.1623L25.4554 26.2178C25.4158 26.1948 25.3704 26.1838 25.3248 26.1862C25.179 26.1862 25.0854 26.2798 25.0854 26.4637C25.0854 26.4789 25.0854 26.4974 25.0854 26.5181C25.105 26.481 25.135 26.4503 25.1717 26.4299C25.2084 26.4094 25.2502 26.4 25.2921 26.4028C25.3209 26.3991 25.3502 26.4015 25.3779 26.41C25.4057 26.4185 25.4313 26.4327 25.4532 26.4519C25.475 26.471 25.4925 26.4946 25.5045 26.521C25.5165 26.5475 25.5228 26.5761 25.5228 26.6052ZM25.4543 26.6052C25.4543 26.5159 25.3879 26.4593 25.2845 26.4593C25.2633 26.4569 25.2419 26.4589 25.2215 26.4651C25.201 26.4713 25.1821 26.4815 25.1658 26.4953C25.1495 26.509 25.1362 26.526 25.1267 26.5451C25.1171 26.5641 25.1116 26.585 25.1104 26.6063C25.1104 26.6813 25.1724 26.7521 25.2889 26.7521C25.3094 26.7545 25.3303 26.7526 25.3501 26.7465C25.3699 26.7403 25.3882 26.7301 25.4037 26.7165C25.4193 26.7028 25.4319 26.6861 25.4406 26.6673C25.4493 26.6485 25.454 26.6281 25.4543 26.6073V26.6052Z" fill="white"/>
<path d="M26.9805 26.8064L26.8195 26.5942L26.6573 26.8064H26.5801L26.7814 26.5463L26.5899 26.2993H26.6671L26.8195 26.4974L26.9718 26.2993H27.048L26.8565 26.5431L27.0589 26.8031L26.9805 26.8064Z" fill="white"/>
<path d="M27.4984 26.8064L27.3341 26.5942L27.172 26.8064H27.0947L27.296 26.5463L27.1045 26.2993H27.1818L27.3341 26.4974L27.4865 26.2993H27.5616L27.3744 26.5431L27.5768 26.8031L27.4984 26.8064Z" fill="white"/>
<path d="M28.0147 26.8064L27.8537 26.5942L27.6915 26.8064H27.6143L27.8145 26.5463L27.623 26.2993H27.7002L27.8537 26.4974L28.006 26.2993H28.0811L27.8896 26.5431L28.0931 26.8031L28.0147 26.8064Z" fill="white"/>
<path d="M28.5297 26.8064L28.3686 26.5942L28.2032 26.8064H28.126L28.3273 26.5463L28.1358 26.2993H28.213L28.3654 26.4974L28.5177 26.2993H28.5939L28.4035 26.5431L28.6059 26.8031L28.5297 26.8064Z" fill="white"/>
<path d="M30.3077 26.8063L30.1466 26.5941L29.9845 26.8063H29.9072L30.1075 26.5429L29.917 26.2959H29.9943L30.1466 26.4939L30.299 26.2959H30.3795L30.1825 26.5429L30.386 26.803L30.3077 26.8063Z" fill="white"/>
<path d="M30.8223 26.8064L30.6613 26.5942L30.4991 26.8064H30.4219L30.6232 26.5463L30.4317 26.2993H30.5089L30.6613 26.4974L30.8136 26.2993H30.8898L30.6983 26.5431L30.9007 26.8031L30.8223 26.8064Z" fill="white"/>
<path d="M31.3389 26.8063L31.1779 26.5941L31.0157 26.8063H30.9385L31.142 26.5429L30.9504 26.2959H31.0277L31.1801 26.4939L31.3324 26.2959H31.4075L31.2149 26.5429L31.4173 26.803L31.3389 26.8063Z" fill="white"/>
<path d="M31.8536 26.8064L31.6925 26.5942L31.5304 26.8064H31.4531L31.6533 26.5463L31.4673 26.2993H31.5445L31.698 26.4974L31.8503 26.2993H31.9254L31.7284 26.5431L31.9319 26.8031L31.8536 26.8064Z" fill="white"/>
<path d="M33.4542 26.1309V26.8066H33.3846V26.1929H33.2246V26.1309H33.4542Z" fill="white"/>
<path d="M34.0599 26.6129C34.0599 26.7217 33.9783 26.8131 33.815 26.8131C33.7257 26.8162 33.6385 26.7851 33.5713 26.7261L33.6061 26.6706C33.6341 26.6968 33.6669 26.7172 33.7028 26.7306C33.7386 26.7441 33.7768 26.7503 33.815 26.7489C33.9239 26.7489 33.9892 26.6967 33.9892 26.6129C33.9892 26.5291 33.9315 26.4791 33.8063 26.4791H33.7585V26.4279L33.9456 26.1929H33.5996V26.1309H34.0349V26.1809L33.8444 26.4214C33.9881 26.4345 34.0599 26.5052 34.0599 26.6129Z" fill="white"/>
<path d="M34.732 26.6292H34.596V26.8066H34.5275V26.6292H34.1455V26.5792L34.5035 26.1309H34.5808L34.2358 26.5661H34.5285V26.4105H34.596V26.5661H34.732V26.6292Z" fill="white"/>
<path d="M35.2529 26.7454V26.8063H34.7785V26.7606L35.0592 26.4853C35.1354 26.4102 35.1506 26.3645 35.1506 26.3188C35.1506 26.2404 35.0952 26.1926 34.9918 26.1926C34.9574 26.1903 34.923 26.1958 34.8911 26.2089C34.8593 26.2219 34.8308 26.242 34.8079 26.2676L34.7578 26.2252C34.7882 26.1925 34.8254 26.1669 34.8667 26.1502C34.9081 26.1334 34.9527 26.126 34.9972 26.1284C35.1343 26.1284 35.2214 26.198 35.2214 26.3112C35.2201 26.3522 35.2096 26.3925 35.1908 26.429C35.172 26.4655 35.1452 26.4974 35.1126 26.5223L34.883 26.7486L35.2529 26.7454Z" fill="white"/>
<path d="M22.9522 28.2093C22.952 28.1866 22.9564 28.1641 22.9653 28.1433C22.9741 28.1224 22.9872 28.1036 23.0036 28.088C23.02 28.0724 23.0395 28.0603 23.0608 28.0525C23.0821 28.0447 23.1047 28.0414 23.1274 28.0428C23.1521 28.0419 23.1768 28.0465 23.1995 28.0563C23.2223 28.0661 23.2426 28.0808 23.259 28.0994L23.2111 28.144C23.2015 28.132 23.1892 28.1223 23.1752 28.1157C23.1613 28.1091 23.146 28.1058 23.1306 28.1059C23.1032 28.1059 23.0769 28.1168 23.0575 28.1362C23.0381 28.1556 23.0272 28.1818 23.0272 28.2093C23.0272 28.2367 23.0381 28.263 23.0575 28.2824C23.0769 28.3017 23.1032 28.3126 23.1306 28.3126C23.146 28.3128 23.1613 28.3094 23.1752 28.3028C23.1892 28.2962 23.2015 28.2866 23.2111 28.2746L23.259 28.3181C23.2429 28.3373 23.2225 28.3525 23.1994 28.3626C23.1764 28.3726 23.1513 28.3771 23.1263 28.3758C23.1037 28.3769 23.0812 28.3735 23.06 28.3657C23.0389 28.3578 23.0195 28.3457 23.0032 28.3301C22.9869 28.3145 22.974 28.2958 22.9652 28.275C22.9564 28.2542 22.952 28.2318 22.9522 28.2093Z" fill="white"/>
<path d="M23.5154 28.3018H23.3663L23.3369 28.3704H23.2607L23.4044 28.0439H23.4784L23.622 28.3704H23.5448L23.5154 28.3018ZM23.4925 28.2453L23.4414 28.1212L23.3902 28.2453H23.4925Z" fill="white"/>
<path d="M23.8629 28.3704L23.7998 28.2812H23.7312V28.3704H23.6572V28.0439H23.7965C23.8825 28.0439 23.9369 28.0886 23.9369 28.1604C23.9373 28.1821 23.9312 28.2035 23.9194 28.2217C23.9075 28.2399 23.8905 28.2542 23.8705 28.2627L23.9423 28.366L23.8629 28.3704ZM23.7922 28.1092H23.7312V28.2181H23.7922C23.8379 28.2181 23.8607 28.1974 23.8607 28.1615C23.8607 28.1256 23.8379 28.1092 23.7922 28.1092Z" fill="white"/>
<path d="M23.9707 28.3385L23.9957 28.2819C24.0276 28.3043 24.0656 28.3161 24.1046 28.3156C24.1492 28.3156 24.1666 28.3015 24.1666 28.2819C24.1666 28.2209 23.9794 28.2623 23.9794 28.1426C23.9794 28.0882 24.024 28.0425 24.1154 28.0425C24.1536 28.0422 24.1911 28.052 24.2242 28.0708L24.2014 28.1274C24.1742 28.1118 24.1435 28.1032 24.1122 28.1023C24.0676 28.1023 24.0501 28.1187 24.0501 28.1393C24.0501 28.1981 24.2384 28.1578 24.2384 28.2754C24.2384 28.3298 24.1927 28.3755 24.1013 28.3755C24.055 28.3764 24.0096 28.3635 23.9707 28.3385Z" fill="white"/>
<path d="M24.7208 28.0479V28.3743H24.6457V28.2426H24.4988V28.3743H24.4248V28.0479H24.4988V28.1752H24.6457V28.0479H24.7208Z" fill="white"/>
<path d="M24.7737 28.209C24.7718 28.1738 24.7804 28.1388 24.7985 28.1086C24.8167 28.0783 24.8435 28.0542 24.8755 28.0394C24.9075 28.0245 24.9432 28.0196 24.978 28.0252C25.0128 28.0309 25.0451 28.0469 25.0708 28.0711C25.0964 28.0953 25.1142 28.1266 25.1218 28.1611C25.1295 28.1955 25.1266 28.2315 25.1136 28.2642C25.1006 28.297 25.078 28.3252 25.0489 28.345C25.0197 28.3648 24.9853 28.3755 24.95 28.3755C24.9273 28.3769 24.9046 28.3735 24.8833 28.3658C24.8619 28.358 24.8424 28.346 24.8259 28.3304C24.8094 28.3148 24.7962 28.296 24.7873 28.2751C24.7783 28.2542 24.7737 28.2317 24.7737 28.209ZM25.0512 28.209C25.0508 28.1891 25.0445 28.1698 25.0331 28.1534C25.0217 28.1371 25.0058 28.1244 24.9872 28.1171C24.9687 28.1098 24.9484 28.1081 24.929 28.1122C24.9095 28.1164 24.8916 28.1262 24.8777 28.1404C24.8638 28.1546 24.8543 28.1727 24.8506 28.1922C24.8469 28.2118 24.849 28.2321 24.8567 28.2504C24.8644 28.2688 24.8774 28.2845 24.894 28.2955C24.9106 28.3065 24.9301 28.3124 24.95 28.3124C24.9634 28.3124 24.9766 28.3097 24.9889 28.3045C25.0012 28.2992 25.0123 28.2915 25.0216 28.2819C25.0309 28.2722 25.0381 28.2608 25.0428 28.2483C25.0475 28.2357 25.0496 28.2224 25.049 28.209H25.0512Z" fill="white"/>
<path d="M25.1826 28.0479H25.2577V28.309H25.4188V28.37H25.1826V28.0479Z" fill="white"/>
<path d="M25.4609 28.0479H25.6078C25.6511 28.0479 25.6926 28.065 25.7233 28.0957C25.7539 28.1263 25.7711 28.1678 25.7711 28.2111C25.7711 28.2544 25.7539 28.2959 25.7233 28.3265C25.6926 28.3571 25.6511 28.3743 25.6078 28.3743H25.4609V28.0479ZM25.6046 28.309C25.6311 28.309 25.6566 28.2985 25.6754 28.2797C25.6941 28.2609 25.7047 28.2355 25.7047 28.2089C25.7047 28.1823 25.6941 28.1569 25.6754 28.1381C25.6566 28.1193 25.6311 28.1088 25.6046 28.1088H25.536V28.309H25.6046Z" fill="white"/>
<path d="M26.092 28.3106V28.3704H25.8428V28.0439H26.0854V28.1038H25.9189V28.1756H26.068V28.2344H25.9189V28.3084L26.092 28.3106Z" fill="white"/>
<path d="M26.3541 28.3704L26.291 28.2812H26.2224V28.3704H26.1484V28.0439H26.2877C26.3737 28.0439 26.4281 28.0886 26.4281 28.1604C26.4285 28.1821 26.4224 28.2035 26.4106 28.2217C26.3988 28.2399 26.3817 28.2542 26.3617 28.2627L26.4335 28.366L26.3541 28.3704ZM26.2834 28.1092H26.2224V28.2181H26.2834C26.3291 28.2181 26.3519 28.1974 26.3519 28.1615C26.3519 28.1256 26.3323 28.1092 26.2866 28.1092H26.2834Z" fill="white"/>
<path d="M27.4865 29.1719H23.05C22.9544 29.1719 22.877 29.2493 22.877 29.3449V29.4124C22.877 29.5079 22.9544 29.5854 23.05 29.5854H27.4865C27.582 29.5854 27.6595 29.5079 27.6595 29.4124V29.3449C27.6595 29.2493 27.582 29.1719 27.4865 29.1719Z" fill="white"/>
<path d="M35.3925 29.1719H33.0812C32.9857 29.1719 32.9082 29.2493 32.9082 29.3449V29.4124C32.9082 29.5079 32.9857 29.5854 33.0812 29.5854H35.3925C35.4881 29.5854 35.5655 29.5079 35.5655 29.4124V29.3449C35.5655 29.2493 35.4881 29.1719 35.3925 29.1719Z" fill="white"/>
<g opacity="0.2">
<path d="M36.6 21.2959H21.9586C21.8209 21.2959 21.6887 21.3506 21.5912 21.4479C21.4937 21.5452 21.4388 21.6772 21.4385 21.815V24.4418C22.3634 25.0871 23.6344 25.2035 24.7618 24.9652C26.0904 24.6877 27.294 24.0076 28.5312 23.4505C29.7685 22.8933 31.1298 22.4472 32.4672 22.6768C33.7305 22.8944 34.8067 23.679 35.9493 24.2612C36.324 24.4548 36.716 24.6129 37.1202 24.7334V21.815C37.1199 21.6772 37.065 21.5452 36.9675 21.4479C36.87 21.3506 36.7378 21.2959 36.6 21.2959Z" fill="white"/>
</g>
<path d="M24.883 35.1201H22.723C22.1953 35.1201 21.7676 35.5479 21.7676 36.0755V38.2356C21.7676 38.7632 22.1953 39.191 22.723 39.191H24.883C25.4107 39.191 25.8384 38.7632 25.8384 38.2356V36.0755C25.8384 35.5479 25.4107 35.1201 24.883 35.1201Z" fill="#0F913D"/>
<path d="M24.2053 37.7786H23.3152C23.3035 37.7786 23.2921 37.7747 23.283 37.7673C23.2739 37.76 23.2676 37.7498 23.2651 37.7384L22.9386 36.4325H22.6296C22.6152 36.4325 22.6013 36.4268 22.5911 36.4166C22.5809 36.4064 22.5752 36.3926 22.5752 36.3781C22.5752 36.3637 22.5809 36.3499 22.5911 36.3397C22.6013 36.3295 22.6152 36.3237 22.6296 36.3237H22.9811C22.9929 36.3239 23.0043 36.3279 23.0135 36.3352C23.0228 36.3424 23.0293 36.3526 23.0322 36.364L23.3587 37.6698H24.2075C24.2219 37.6698 24.2357 37.6755 24.2459 37.6857C24.2561 37.6959 24.2619 37.7098 24.2619 37.7242C24.2619 37.7386 24.2561 37.7525 24.2459 37.7627C24.2357 37.7729 24.2219 37.7786 24.2075 37.7786H24.2053Z" fill="white"/>
<path d="M23.4849 38.1963C23.5768 38.1963 23.6513 38.1217 23.6513 38.0298C23.6513 37.9378 23.5768 37.8633 23.4849 37.8633C23.3929 37.8633 23.3184 37.9378 23.3184 38.0298C23.3184 38.1217 23.3929 38.1963 23.4849 38.1963Z" fill="#0F913D"/>
<path d="M23.4833 38.2487C23.4402 38.2487 23.3981 38.236 23.3623 38.2121C23.3266 38.1882 23.2987 38.1542 23.2822 38.1144C23.2657 38.0746 23.2614 38.0309 23.2698 37.9887C23.2782 37.9464 23.2989 37.9077 23.3294 37.8772C23.3598 37.8468 23.3986 37.8261 23.4408 37.8177C23.483 37.8093 23.5268 37.8136 23.5665 37.83C23.6063 37.8465 23.6403 37.8744 23.6642 37.9102C23.6881 37.946 23.7009 37.9881 23.7009 38.0311C23.7009 38.0888 23.678 38.1442 23.6372 38.185C23.5963 38.2258 23.541 38.2487 23.4833 38.2487ZM23.4833 37.9158C23.462 37.9158 23.4412 37.9221 23.4234 37.9338C23.4056 37.9455 23.3917 37.9622 23.3834 37.9818C23.375 38.0014 23.3725 38.0229 23.3763 38.0439C23.3801 38.0648 23.3899 38.0842 23.4046 38.0996C23.4193 38.115 23.4382 38.1258 23.4589 38.1306C23.4796 38.1354 23.5013 38.134 23.5213 38.1266C23.5412 38.1192 23.5586 38.1061 23.5712 38.0889C23.5837 38.0718 23.591 38.0513 23.5921 38.03C23.5918 38.0007 23.5805 37.9726 23.5603 37.9514C23.5401 37.9302 23.5125 37.9174 23.4833 37.9158Z" fill="white"/>
<path d="M24.4106 38.1963C24.5026 38.1963 24.5771 38.1217 24.5771 38.0298C24.5771 37.9378 24.5026 37.8633 24.4106 37.8633C24.3187 37.8633 24.2441 37.9378 24.2441 38.0298C24.2441 38.1217 24.3187 38.1963 24.4106 38.1963Z" fill="#0F913D"/>
<path d="M24.409 38.2487C24.366 38.2487 24.3239 38.236 24.2881 38.2121C24.2523 38.1882 24.2244 38.1542 24.208 38.1144C24.1915 38.0746 24.1872 38.0309 24.1956 37.9887C24.204 37.9464 24.2247 37.9077 24.2552 37.8772C24.2856 37.8468 24.3244 37.8261 24.3666 37.8177C24.4088 37.8093 24.4526 37.8136 24.4923 37.83C24.5321 37.8465 24.5661 37.8744 24.59 37.9102C24.6139 37.946 24.6267 37.9881 24.6267 38.0311C24.6267 38.0888 24.6037 38.1442 24.5629 38.185C24.5221 38.2258 24.4668 38.2487 24.409 38.2487ZM24.409 37.9158C24.388 37.9168 24.3678 37.924 24.3507 37.9364C24.3337 37.9487 24.3206 37.9657 24.3131 37.9854C24.3055 38.005 24.3038 38.0264 24.3082 38.047C24.3126 38.0676 24.3228 38.0865 24.3377 38.1014C24.3526 38.1163 24.3714 38.1265 24.392 38.1309C24.4126 38.1353 24.434 38.1336 24.4537 38.126C24.4733 38.1185 24.4904 38.1054 24.5027 38.0883C24.5151 38.0713 24.5222 38.051 24.5233 38.03C24.5241 38.0148 24.5217 37.9996 24.5162 37.9854C24.5107 37.9712 24.5023 37.9583 24.4916 37.9475C24.4808 37.9367 24.4679 37.9283 24.4537 37.9229C24.4395 37.9174 24.4243 37.915 24.409 37.9158Z" fill="white"/>
<path d="M24.5513 37.5335H23.2847C23.2777 37.5336 23.2708 37.5324 23.2644 37.5298C23.2579 37.5273 23.252 37.5235 23.247 37.5186C23.2421 37.5137 23.2381 37.5079 23.2354 37.5015C23.2327 37.4951 23.2314 37.4882 23.2314 37.4813C23.2316 37.4673 23.2374 37.454 23.2474 37.4443C23.2573 37.4345 23.2707 37.429 23.2847 37.429H24.5034L24.6427 36.6445H23.0485C23.0341 36.6445 23.0203 36.6387 23.0101 36.6285C22.9999 36.6183 22.9941 36.6045 22.9941 36.5901C22.9941 36.5756 22.9999 36.5618 23.0101 36.5516C23.0203 36.5414 23.0341 36.5356 23.0485 36.5356H24.7102C24.7178 36.5357 24.7254 36.5374 24.7323 36.5406C24.7392 36.5438 24.7454 36.5484 24.7505 36.5541C24.7555 36.5601 24.759 36.5671 24.7609 36.5747C24.7628 36.5822 24.763 36.5901 24.7613 36.5977L24.6036 37.4867C24.6022 37.4996 24.5961 37.5115 24.5865 37.5202C24.5768 37.5288 24.5643 37.5336 24.5513 37.5335Z" fill="white"/>
<path d="M35.0354 35.835H27.5977C27.3712 35.835 27.1875 36.0186 27.1875 36.2452V36.4073C27.1875 36.6339 27.3712 36.8176 27.5977 36.8176H35.0354C35.262 36.8176 35.4457 36.6339 35.4457 36.4073V36.2452C35.4457 36.0186 35.262 35.835 35.0354 35.835Z" fill="#E0E0E0"/>
<path d="M30.9515 37.7666H27.5977C27.3712 37.7666 27.1875 37.9503 27.1875 38.1768V38.339C27.1875 38.5656 27.3712 38.7492 27.5977 38.7492H30.9515C31.1781 38.7492 31.3617 38.5656 31.3617 38.339V38.1768C31.3617 37.9503 31.1781 37.7666 30.9515 37.7666Z" fill="#E0E0E0"/>
<path d="M38.8781 33.5869C38.8781 33.6021 34.5808 33.6152 29.2814 33.6152C23.982 33.6152 19.6826 33.6021 19.6826 33.5869C19.6826 33.5717 23.9798 33.5586 29.2814 33.5586C34.583 33.5586 38.8781 33.5717 38.8781 33.5869Z" fill="#E0E0E0"/>
<path d="M33.8765 40.8223H24.886C23.9118 40.8223 23.1221 41.612 23.1221 42.5862V43.2794C23.1221 44.2536 23.9118 45.0433 24.886 45.0433H33.8765C34.8507 45.0433 35.6405 44.2536 35.6405 43.2794V42.5862C35.6405 41.612 34.8507 40.8223 33.8765 40.8223Z" fill="#0F913D"/>
<path d="M29.1369 42.7331C29.1369 42.9508 28.9781 43.077 28.7234 43.077H28.5602V43.3208H28.2969V42.3882H28.7234C28.9781 42.3882 29.1369 42.5209 29.1369 42.7331ZM28.8714 42.7331C28.8714 42.6472 28.8159 42.596 28.7071 42.596H28.5602V42.8659H28.7071C28.8159 42.8659 28.8714 42.8191 28.8714 42.7331Z" fill="white"/>
<path d="M29.8412 43.1401H29.4473L29.3733 43.3208H29.1045L29.5158 42.3882H29.7759L30.1883 43.3208H29.9141L29.8412 43.1401ZM29.7639 42.9453L29.6442 42.6472L29.5245 42.9453H29.7639Z" fill="white"/>
<path d="M30.7071 42.9867V43.3208H30.4437V42.9823L30.0879 42.3882H30.3665L30.5841 42.7593L30.8017 42.3882H31.0575L30.7071 42.9867Z" fill="white"/>
<path d="M22.8094 17.3392C22.9129 16.9024 22.6427 16.4644 22.2058 16.3608C21.769 16.2573 21.331 16.5276 21.2275 16.9644C21.1239 17.4012 21.3942 17.8393 21.831 17.9428C22.2678 18.0463 22.7059 17.7761 22.8094 17.3392Z" fill="#0F913D"/>
<path d="M32.0254 16.7334H26.5345C26.3698 16.7334 26.2363 16.8669 26.2363 17.0316V17.148C26.2363 17.3127 26.3698 17.4462 26.5345 17.4462H32.0254C32.1901 17.4462 32.3236 17.3127 32.3236 17.148V17.0316C32.3236 16.8669 32.1901 16.7334 32.0254 16.7334Z" fill="#E0E0E0"/>
<path d="M36.2111 46.2607H23.7852V47.091H36.2111V46.2607Z" fill="#263238"/>
<path d="M24.374 46.6743C24.4828 46.7113 25.9388 46.7113 25.9388 49.5852C25.9388 52.4591 25.8659 56.025 27.3937 56.1338C28.9215 56.2427 36.9621 56.1338 36.9621 56.1338V48.9214C36.9621 48.3433 36.7331 47.7887 36.3252 47.379C35.9173 46.9693 35.3638 46.7378 34.7857 46.7353L24.374 46.6743Z" fill="#FAFAFA"/>
<path d="M24.3724 46.6743L30.4161 46.6928L33.4826 46.7037H34.3227C34.6136 46.6919 34.9049 46.7061 35.1932 46.7461C35.4943 46.8038 35.7798 46.924 36.0314 47.0991C36.283 47.2742 36.495 47.5002 36.6536 47.7625C36.8215 48.0322 36.9288 48.3352 36.9681 48.6504C36.9844 48.8099 36.9909 48.9701 36.9876 49.1303V49.6124C36.9876 50.2588 36.9876 50.9182 36.9876 51.5929V56.1632H36.9594C34.1475 56.197 31.4738 56.222 29.0429 56.2024C28.7393 56.2024 28.44 56.1948 28.144 56.1893C27.848 56.1839 27.5575 56.1817 27.2659 56.1415C27.1223 56.1101 26.9877 56.0469 26.8719 55.9565C26.7622 55.8641 26.6668 55.7559 26.589 55.6355C26.444 55.3986 26.3341 55.1421 26.2626 54.8737C26.1285 54.3689 26.0418 53.8527 26.0036 53.3318C25.959 52.8334 25.9394 52.3524 25.9285 51.8943C25.9046 50.977 25.9285 50.1478 25.9122 49.4209C25.8959 48.694 25.7859 48.0683 25.5618 47.6091C25.4642 47.405 25.3325 47.2191 25.1722 47.0595C25.0517 46.9462 24.913 46.8539 24.762 46.7864C24.635 46.7369 24.5034 46.7005 24.3691 46.6776L24.4725 46.6939C24.5734 46.7109 24.6719 46.7394 24.7663 46.7788C24.9199 46.8453 25.0612 46.9373 25.1842 47.0508C25.3472 47.2106 25.4816 47.3972 25.5814 47.6025C25.811 48.0639 25.9263 48.6962 25.9437 49.4231C25.9611 50.15 25.9437 50.9802 25.9688 51.8965C25.9807 52.3535 26.0014 52.8334 26.0471 53.3318C26.0866 53.8494 26.1736 54.3623 26.3072 54.8639C26.3775 55.1272 26.4852 55.3789 26.6271 55.6115C26.7023 55.7275 26.7944 55.8317 26.9002 55.9206C27.0105 56.0053 27.1378 56.0651 27.2735 56.0958C27.5521 56.1328 27.8491 56.1306 28.144 56.1404C28.4389 56.1502 28.7393 56.1512 29.0429 56.1534C31.4717 56.1697 34.1464 56.1425 36.9583 56.1088L36.93 56.1371V51.5907C36.93 50.9182 36.93 50.2566 36.93 49.6102V49.1271C36.9341 48.9691 36.9283 48.811 36.9126 48.6537C36.8566 48.2016 36.6586 47.7789 36.3471 47.4465C36.0356 47.114 35.6266 46.889 35.1791 46.8038C34.8951 46.7644 34.6082 46.7498 34.3216 46.7603L33.4848 46.7548L30.4379 46.7309L24.3724 46.6743Z" fill="#263238"/>
<path d="M27.4307 56.1352C27.4307 56.1352 28.6886 56.1352 28.9541 54.2798C29.2751 52.0686 28.9541 50.1317 30.6636 50.0588C32.3732 49.9859 36.9577 50.0588 36.9577 50.0588V56.1352H27.4307Z" fill="#E0E0E0"/>
<path d="M30.4521 50.0805C30.4521 50.0805 31.8309 49.914 31.8309 52.2057C31.8309 54.4974 31.8668 56.0143 33.3946 56.183C34.9224 56.3516 44.3101 56.183 44.3101 56.183C44.3101 56.183 42.8182 55.48 42.7094 53.4059C42.6006 51.3319 42.1653 50.0674 40.6712 50.0272C39.1771 49.9869 30.4521 50.0805 30.4521 50.0805Z" fill="#FAFAFA"/>
<path d="M30.4543 50.0806H30.5468H30.8178L31.8635 50.0642L35.7102 50.0229L38.3697 50.0044H39.8529C40.1075 50.0044 40.3665 50.0044 40.6288 50.012C40.8984 50.0139 41.1655 50.0651 41.4166 50.1633C41.671 50.2758 41.8916 50.4528 42.0565 50.6769C42.2213 50.906 42.3488 51.1598 42.4341 51.4288C42.5957 51.9837 42.6917 52.5556 42.7203 53.1329C42.7301 53.2798 42.7377 53.4267 42.754 53.5682L42.7758 53.7858L42.8171 54.0034L42.8367 54.1123L42.8672 54.2211L42.9281 54.4387C42.9776 54.5798 43.0354 54.7179 43.1011 54.8522C43.3646 55.4053 43.7915 55.8642 44.3242 56.1667L44.4189 56.219H44.3101H44.05C41.5309 56.2603 39.1315 56.2875 36.9486 56.2864C35.8604 56.2864 34.819 56.2864 33.8483 56.2407C33.6087 56.2344 33.37 56.2085 33.1345 56.1635C32.9058 56.1111 32.6933 56.0039 32.5153 55.8512C32.349 55.7004 32.2181 55.5146 32.1323 55.3071C32.0486 55.1114 31.987 54.907 31.9484 54.6977C31.8787 54.3103 31.8394 53.9181 31.8309 53.5246C31.8167 53.1525 31.8156 52.8021 31.8156 52.4735C31.8156 52.3102 31.8156 52.147 31.808 52.0001C31.808 51.9239 31.808 51.8499 31.7971 51.777C31.7863 51.7041 31.7797 51.6334 31.771 51.5648L31.758 51.4615C31.7514 51.4277 31.7438 51.3951 31.7362 51.3624C31.7221 51.2971 31.7068 51.2329 31.6938 51.1709L31.6328 50.9946L31.6034 50.9108L31.5643 50.8325C31.4827 50.6454 31.3591 50.4797 31.203 50.3483C31.0906 50.2493 30.9586 50.1751 30.8156 50.1306C30.7282 50.1024 30.6375 50.086 30.5457 50.0817C30.5142 50.0817 30.4913 50.0817 30.475 50.0817H30.4521C30.4598 50.0812 30.4674 50.0812 30.475 50.0817C30.4986 50.0803 30.5222 50.0803 30.5457 50.0817C30.6384 50.0841 30.7303 50.0991 30.8189 50.1263C30.9642 50.1679 31.0989 50.2403 31.2139 50.3385C31.3734 50.4703 31.5003 50.6371 31.5849 50.826C31.8026 51.2427 31.8494 51.8249 31.8472 52.4767C31.8472 52.8032 31.8472 53.1558 31.8668 53.5268C31.8775 53.9182 31.9179 54.3081 31.9876 54.6933C32.0261 54.8997 32.0875 55.1012 32.1704 55.294C32.256 55.4934 32.3846 55.6713 32.5469 55.8153C32.7193 55.9633 32.9257 56.0664 33.1476 56.1156C33.3801 56.1599 33.616 56.1846 33.8527 56.1896C34.8223 56.2299 35.8593 56.2309 36.9507 56.2309C39.1325 56.2309 41.532 56.1994 44.0511 56.1591L44.3112 56.1537L44.2992 56.2081C43.7551 55.9 43.319 55.4319 43.05 54.8675C42.9835 54.7306 42.925 54.59 42.8748 54.4463L42.8128 54.2287L42.7823 54.1199L42.7616 54.0111L42.7203 53.7934L42.6985 53.5758C42.6822 53.4267 42.6746 53.2809 42.6648 53.1405C42.6371 52.5673 42.5422 51.9994 42.3818 51.4484C42.3002 51.1811 42.176 50.9287 42.014 50.7008C41.855 50.4836 41.6419 50.3118 41.3959 50.2024C41.151 50.1067 40.8907 50.0562 40.6277 50.0534C40.3654 50.0534 40.1075 50.0468 39.8529 50.0447H38.3697L35.7102 50.0555L31.8635 50.0795L30.8178 50.0849H30.5457L30.4543 50.0806Z" fill="#263238"/>
<path d="M30.8151 50.0771C30.8151 50.0837 30.7063 50.0772 30.5104 50.1C30.2349 50.1383 29.9785 50.2629 29.7781 50.4558C29.5224 50.6941 29.3308 51.0848 29.234 51.5364C29.1371 51.988 29.1252 52.507 29.1067 53.0457C29.0995 53.5549 29.0405 54.0621 28.9304 54.5594C28.875 54.7752 28.7996 54.9854 28.7051 55.1872C28.6276 55.3659 28.5278 55.5341 28.4081 55.6878C28.307 55.8139 28.1825 55.9192 28.0414 55.9979C27.9329 56.0534 27.8171 56.0934 27.6975 56.1165C27.6224 56.1296 27.5463 56.1365 27.4701 56.1372C27.4436 56.1396 27.4171 56.1396 27.3906 56.1372C27.4167 56.1312 27.4433 56.1279 27.4701 56.1274C27.5433 56.1227 27.616 56.1125 27.6877 56.0969C27.8036 56.0709 27.9153 56.0288 28.0196 55.9718C28.1561 55.8932 28.2759 55.7886 28.3722 55.6639C28.4869 55.5114 28.5827 55.3455 28.6573 55.1698C28.7479 54.9695 28.8207 54.7616 28.8749 54.5485C28.9809 54.054 29.0377 53.5503 29.0447 53.0446C29.0675 52.5081 29.0751 51.9891 29.1774 51.5277C29.2797 51.0663 29.4767 50.6713 29.7444 50.4286C29.9517 50.2331 30.2173 50.1109 30.5006 50.0804C30.5443 50.0743 30.5882 50.071 30.6323 50.0706C30.6646 50.0689 30.6969 50.0689 30.7292 50.0706C30.758 50.0698 30.7868 50.072 30.8151 50.0771Z" fill="#263238"/>
<path d="M35.3955 48.3413C35.3955 48.3565 33.6327 48.3696 31.4585 48.3696C29.2843 48.3696 27.5215 48.3565 27.5215 48.3413C27.5215 48.326 29.2832 48.313 31.4585 48.313C33.6338 48.313 35.3955 48.325 35.3955 48.3413Z" fill="#E0E0E0"/>
<path d="M35.5577 49.5122C35.5577 49.5274 33.8525 49.5405 31.749 49.5405C29.6456 49.5405 27.9404 49.5274 27.9404 49.5122C27.9404 49.4969 29.6445 49.4839 31.749 49.4839C33.8536 49.4839 35.5577 49.4969 35.5577 49.5122Z" fill="#E0E0E0"/>
<path d="M40.9258 51.7885C40.9258 51.8049 39.163 51.8168 36.9888 51.8168C34.8146 51.8168 33.0518 51.8049 33.0518 51.7885C33.0518 51.7722 34.8146 51.7603 36.9888 51.7603C39.163 51.7603 40.9258 51.7744 40.9258 51.7885Z" fill="#E0E0E0"/>
<path d="M41.0221 53.1567C41.0221 53.1719 39.4051 53.185 37.4105 53.185C35.4159 53.185 33.7988 53.1719 33.7988 53.1567C33.7988 53.1415 35.4159 53.1284 37.4105 53.1284C39.4051 53.1284 41.0221 53.1415 41.0221 53.1567Z" fill="#E0E0E0"/>
<path d="M34.4438 22.6748H33.6777C33.4884 22.6748 33.335 22.8283 33.335 23.0176V23.7837C33.335 23.973 33.4884 24.1264 33.6777 24.1264H34.4438C34.6331 24.1264 34.7866 23.973 34.7866 23.7837V23.0176C34.7866 22.8283 34.6331 22.6748 34.4438 22.6748Z" fill="white"/>
</svg>
