<svg width="34" height="34" viewBox="0 0 34 34" fill="none" xmlns="http://www.w3.org/2000/svg">
<path d="M28.6875 17.2861C28.6928 17.0948 28.6928 16.9036 28.6875 16.7123L30.6691 14.2367C30.773 14.1067 30.8449 13.9542 30.879 13.7913C30.9132 13.6284 30.9086 13.4598 30.8656 13.2991C30.5402 12.0782 30.0543 10.9058 29.4206 9.81272C29.3376 9.66971 29.2223 9.54805 29.084 9.45744C28.9456 9.36682 28.788 9.30975 28.6238 9.29077L25.4734 8.94014C25.3424 8.80202 25.2096 8.66921 25.075 8.54171L24.7031 5.38342C24.684 5.21902 24.6267 5.06136 24.5359 4.923C24.445 4.78465 24.3231 4.66944 24.1798 4.58655C23.0868 3.95336 21.9144 3.46833 20.6935 3.14421C20.5327 3.10125 20.3641 3.09667 20.2013 3.13081C20.0384 3.16495 19.8858 3.23687 19.7559 3.34077L17.2869 5.31171C17.0956 5.31171 16.9044 5.31171 16.7131 5.31171L14.2375 3.33413C14.1075 3.23023 13.9549 3.15831 13.7921 3.12417C13.6292 3.09002 13.4606 3.09461 13.2998 3.13757C12.079 3.46299 10.9066 3.94889 9.81352 4.58257C9.6705 4.66561 9.54884 4.78089 9.45823 4.91923C9.36762 5.05757 9.31054 5.21516 9.29156 5.37944L8.94094 8.53507C8.80281 8.66699 8.67 8.7998 8.5425 8.9335L5.38422 9.29608C5.21981 9.31521 5.06215 9.37248 4.9238 9.46333C4.78545 9.55418 4.67023 9.6761 4.58734 9.81936C3.95429 10.9126 3.46884 12.0849 3.14367 13.3057C3.1009 13.4666 3.09653 13.6352 3.1309 13.7981C3.16527 13.961 3.23743 14.1135 3.34156 14.2433L5.3125 16.7123C5.3125 16.9036 5.3125 17.0948 5.3125 17.2861L3.33492 19.7617C3.23102 19.8917 3.1591 20.0443 3.12496 20.2071C3.09082 20.37 3.09541 20.5386 3.13836 20.6994C3.46379 21.9202 3.94969 23.0926 4.58336 24.1857C4.6664 24.3287 4.78168 24.4504 4.92002 24.541C5.05837 24.6316 5.21595 24.6887 5.38023 24.7076L8.53055 25.0583C8.66247 25.1964 8.79529 25.3292 8.92898 25.4567L9.29688 28.615C9.316 28.7794 9.37327 28.9371 9.46412 29.0754C9.55498 29.2138 9.67689 29.329 9.82016 29.4119C10.9134 30.0449 12.0857 30.5304 13.3065 30.8555C13.4674 30.8983 13.636 30.9027 13.7989 30.8683C13.9618 30.8339 14.1143 30.7618 14.2441 30.6576L16.7131 28.6867C16.9044 28.692 17.0956 28.692 17.2869 28.6867L19.7625 30.6683C19.8925 30.7722 20.045 30.8441 20.2079 30.8782C20.3708 30.9124 20.5394 30.9078 20.7002 30.8648C21.9212 30.54 23.0936 30.0541 24.1865 29.4198C24.3295 29.3368 24.4512 29.2215 24.5418 29.0832C24.6324 28.9448 24.6895 28.7872 24.7084 28.623L25.0591 25.4726C25.1972 25.3416 25.33 25.2088 25.4575 25.0742L28.6158 24.7023C28.7802 24.6832 28.9379 24.6259 29.0762 24.5351C29.2146 24.4442 29.3298 24.3223 29.4127 24.1791C30.0457 23.0858 30.5312 21.9135 30.8563 20.6927C30.8991 20.5319 30.9035 20.3632 30.8691 20.2003C30.8347 20.0374 30.7626 19.8849 30.6584 19.7551L28.6875 17.2861ZM17 22.3117C15.9493 22.3117 14.9222 22.0001 14.0485 21.4164C13.1749 20.8326 12.494 20.0029 12.0919 19.0322C11.6898 18.0615 11.5846 16.9933 11.7896 15.9628C11.9946 14.9323 12.5005 13.9857 13.2435 13.2427C13.9865 12.4997 14.9331 11.9938 15.9636 11.7888C16.9941 11.5838 18.0623 11.689 19.033 12.0911C20.0037 12.4932 20.8334 13.1741 21.4172 14.0477C22.0009 14.9214 22.3125 15.9485 22.3125 16.9992C22.3125 18.4082 21.7528 19.7594 20.7565 20.7557C19.7602 21.752 18.409 22.3117 17 22.3117Z" fill="black"/>
</svg>
