<svg width="34" height="34" viewBox="0 0 34 34" fill="none" xmlns="http://www.w3.org/2000/svg">
<path d="M24.4375 11.896V11.1562C24.4375 7.82531 19.4132 5.3125 12.75 5.3125C6.0868 5.3125 1.0625 7.82531 1.0625 11.1562V16.4688C1.0625 19.2432 4.54883 21.4479 9.5625 22.108V22.8438C9.5625 26.1747 14.5868 28.6875 21.25 28.6875C27.9132 28.6875 32.9375 26.1747 32.9375 22.8438V17.5312C32.9375 14.782 29.5614 12.5747 24.4375 11.896ZM7.4375 19.5062C4.8357 18.7797 3.1875 17.583 3.1875 16.4688V14.6001C4.27125 15.3677 5.72289 15.9866 7.4375 16.4023V19.5062ZM18.0625 16.4023C19.7771 15.9866 21.2288 15.3677 22.3125 14.6001V16.4688C22.3125 17.583 20.6643 18.7797 18.0625 19.5062V16.4023ZM15.9375 25.8812C13.3357 25.1547 11.6875 23.958 11.6875 22.8438V22.2899C12.0368 22.3032 12.3901 22.3125 12.75 22.3125C13.2653 22.3125 13.7687 22.2952 14.2627 22.266C14.8116 22.4625 15.3707 22.6292 15.9375 22.7654V25.8812ZM15.9375 19.9551C14.8822 20.111 13.8168 20.1887 12.75 20.1875C11.6832 20.1887 10.6178 20.111 9.5625 19.9551V16.7955C10.6194 16.9332 11.6842 17.0015 12.75 17C13.8158 17.0015 14.8806 16.9332 15.9375 16.7955V19.9551ZM24.4375 26.3301C22.3238 26.64 20.1762 26.64 18.0625 26.3301V23.1625C19.1191 23.3045 20.1839 23.3755 21.25 23.375C22.3158 23.3765 23.3806 23.3082 24.4375 23.1705V26.3301ZM30.8125 22.8438C30.8125 23.958 29.1643 25.1547 26.5625 25.8812V22.7773C28.2771 22.3616 29.7288 21.7427 30.8125 20.9751V22.8438Z" fill="black"/>
</svg>
