<?xml version="1.0" encoding="UTF-8"?>
<svg id="Layer_1" data-name="Layer 1" xmlns="http://www.w3.org/2000/svg" viewBox="0 0 2807.88 2094.13">
  <defs>
    <style>
      .cls-1 {
        fill: #fff;
      }

      .cls-2 {
        fill: #88b940;
      }

      .cls-3, .cls-4 {
        fill: #87b840;
      }

      .cls-5, .cls-6 {
        fill: #287376;
      }

      .cls-7, .cls-6, .cls-4 {
        fill-rule: evenodd;
      }

      .cls-7, .cls-8 {
        fill: #237175;
      }

      .cls-9 {
        fill: #297378;
      }
    </style>
  </defs>
  <g>
    <g>
      <circle class="cls-1" cx="1403.47" cy="766.85" r="713.68"/>
      <path class="cls-2" d="M1403.47,68.32c94.31,0,185.78,18.47,271.89,54.89,83.18,35.18,157.88,85.55,222.04,149.71,64.16,64.16,114.52,138.86,149.71,222.04,36.42,86.11,54.89,177.59,54.89,271.89s-18.47,185.78-54.89,271.89c-35.18,83.18-85.55,157.88-149.71,222.04-64.16,64.16-138.86,114.52-222.04,149.71-86.11,36.42-177.59,54.89-271.89,54.89s-185.78-18.47-271.89-54.89c-83.18-35.18-157.88-85.55-222.04-149.71-64.16-64.16-114.52-138.86-149.71-222.04-36.42-86.11-54.89-177.59-54.89-271.89s18.47-185.78,54.89-271.89c35.18-83.18,85.55-157.88,149.71-222.04,64.16-64.16,138.86-114.52,222.04-149.71,86.11-36.42,177.59-54.89,271.89-54.89M1403.47,53.17c-394.15,0-713.68,319.53-713.68,713.68s319.53,713.68,713.68,713.68,713.68-319.53,713.68-713.68S1797.62,53.17,1403.47,53.17h0Z"/>
    </g>
    <path class="cls-4" d="M1493.06,451.79l-5.32,8.7c-.95,1.56-1.75,2.74-2.72,4.29-.93,1.49-1.76,2.78-2.73,4.28l-11.07,17.34c-7.35,11.76-14.65,23.08-22,34.84l-5.45,8.57c-8.96,13.66-17.25,27.68-26.2,41.33l-6.87,10.85c-1.37,2.13-4.88,6.72-5.47,8.93-7.53-3.61-21.09-.55-26.48,4.52l-3.34,3.31c-.44.52-.56.59-1.03,1.18-.8,1-1.32,1.47-1.63,2.8-4.43-1.03-42.59-13.71-49.5-15.82-3.67-1.13-13.5-4.96-16.56-5.21,0-5.39-.19-7.9-1.61-12.05-3.36-9.87-13.1-17.48-23.86-17.48-6.81,0-12.3.82-17.67,4.84-.62.47-1,.8-1.64,1.31-.73.59-1.18.83-1.83,1.49-4.52,4.52-7.64,10.69-7.64,17.45,0,11.22.56,6.54,2.22,13.66-6.72,4.5-24.42,19.3-32.37,25.2l-14.08,11.02c-1.57,1.26-2.98,2.26-4.56,3.56-2.83,2.33-20.7,16.67-23.53,18.17-4.68-2.47-7.24-5.08-13.31-5.51-6.4-.45-11.13.06-15.98,2.43-7.34,3.59-14.96,12.24-14.99,22.95v.28c.03,9.35,2.33,15.23,8.02,20.91.97.97,2.45,2.21,3.63,3.01,9.41,6.43,23.53,6.04,32.38-1.15,8.36-6.79,12.07-17.56,9.57-28.25-.44-1.89-1.2-3.16-1.57-4.71.53-.72,1.48-1.28,2.22-1.84l39.57-30.92c7.62-6.28,15.76-12.03,23.42-18.28l9.34-7.27c.45.4.88.77,1.41,1.17,4.91,3.72,10.71,4.73,17.04,4.73,5.65,0,9.84-1.99,13.5-4.21,3.23-1.96,6.91-5.8,8.64-9.07,1.88.9,5.74,2.03,8.04,2.66l41.09,13.16c3.33,1.12,13.83,4.99,16.56,5.22,0,9.66,2.26,15.25,6.75,20.56,3.61,4.27,10.97,8.97,18.72,8.97,9.69,0,15.36-1.87,21.5-8.02,8.78-8.78,10-23.98,2.93-34.5-1-1.49-2.08-2.57-3.03-3.98l43.99-69.31c3.71-5.77,7.23-11.35,10.93-17.12l22-34.83c.95-1.55,1.76-2.74,2.73-4.29,1.63-2.61,7.58-10.92,8.19-13.21,7.48,1.74,13.28,2.11,20.51-.89,3.38-1.4,5.63-3.3,7.99-5.66,11.14-11.14,10.55-29.97-1.45-40.07-1.9-1.6-3.87-3.01-6.28-4.05-11.5-4.95-24.37-1.9-32.31,7.03-1.71,1.92-2.8,4-3.98,6.36-2.09,4.21-3.23,11.47-1.93,17.07,1.96,8.48,3.71,8.51,7.1,13.57"/>
    <path class="cls-4" d="M1369.8,443.67c-.45,1.91-7.17,12.94-8.27,14.61-1.61,2.45-2.8,4.58-4.43,7.01-5.06,7.57-13.65,19.94-19.33,26.44l-24.89,27.14-15.2,13.58c-2.27,1.78-4,3.38-6.28,5.16-1.25.99-2.03,1.62-3.32,2.58-1.87,1.4-2.67,1.68-2.79,3.12,3.81,1.82,25.11.93,30.27.37,18.81-2.06,38.73-11.02,52.12-24.27,2.31-2.29.8-.1,4.09-4.03,1.26-1.52,4.03-4.12,5.74-6.43,5.64-7.63,7.67-10.11,12.48-19.63,1.83-3.63,3.24-7.16,4.76-11.11,1.6-4.15,2.59-7.99,3.89-12.35,1.27-4.24,3.3-15.35,3.63-20.35.14-2.12.18-5.43.48-7.64l-1.04-26.84c-.19-1.28-.45-2.51-.53-3.52l-8.12-.37c-19.8,0-33.32,1.45-52.36,7.8-20.07,6.68-37.99,17.92-51.6,34.02-8,9.47-14.75,22.21-17.18,34.48-3.31,16.69-1.68,35.96,4.63,52.03,2.9,7.39,2.33,7.32,6.07,3.7,1.14-1.11,1.95-1.54,3.15-2.76.54-.55.9-.96,1.49-1.46.74-.62.9-.61,1.65-1.3l23.98-23.25c1.19-1.18,1.63-2.01,2.76-3.15l7.21-7.56c.5-.57.92-.93,1.47-1.48l12.38-13.82c.54-.64.92-.89,1.46-1.5.66-.74.64-.92,1.3-1.65l30.35-37.55ZM1370.91,441.46l.11.11s-.15-.07-.11-.11ZM1370.91,441.46l-.37,1.11M1370.54,442.56l-.37.37.37-.37ZM1370.17,442.93l-.37.74.37-.74Z"/>
    <path class="cls-4" d="M1201.15,470.24c1.03.27,1.62.93,2.48,1.58l9.12,7.12c1.05.82,1.24,1.12,2.17,1.89,5.9,4.99,17,15.15,21.24,20.47l7.72,8.88c5.17,5.92,14.95,19.82,18.83,26.56.85,1.48.57,2,2.29,2.14l1.83-9.98c.49-3.52.76-7.06.76-11.05,0-14.6-3.36-25.84-10.49-37.49-1.94-3.18-4.08-5.66-6.38-8.38l-4.45-4.78c-1.96-1.97-4.14-3.76-6.31-5.49-11.48-9.19-27.45-15.4-42.01-17.77-7.22-1.17-13.9-1.37-22.62-1.37-2.99,12.85-2.24,32.56.4,45.37,3.9,18.95,14.37,37.38,29.49,48,7.85,5.51,14.56,8.3,24.36,9.97,9.48,1.61,19.33.58,28.52-1.39,1.88-.41,3.31-1.06,5.07-1.2-.15-1.78-5.28-8.28-6.59-10.02l-36.33-43.76c-3.1-3.71-17.25-16.57-19.08-19.3M1201.15,470.24l-1.85-1.48M1199.3,468.76l1.48,1.11M1201.15,470.24l-.37-.37.37.37Z"/>
    <path class="cls-6" d="M1473.26,807.81v46.27h28.51v-46.27h-28.51ZM1328.42,854.08v-46.27h-28.51v46.27h28.51ZM1473.26,854.08h-182.28c-28.63,0-52.05,23.42-52.05,52.05v39.45h323.64v-39.45c0-28.63-23.42-52.05-52.05-52.05h-37.25ZM1711.12,709.42h-621.34v28.42h621.34v-28.42ZM1529.65,266.53h-418.29c-27.66,0-50.29,22.63-50.29,50.29v440.71c0,27.66,22.63,50.29,50.29,50.29h578.84c27.66,0,50.29-22.63,50.29-50.29v-330.77h-29.37v329.84c0,12.46-10.19,22.64-22.64,22.64h-576.07c-12.45,0-22.64-10.18-22.64-22.64v-438.53c0-12.45,10.19-22.64,22.64-22.64h417.24v-28.9Z"/>
    <path class="cls-7" d="M1588.38,365.31c2.9,2.9,2.9,7.6,0,10.5-2.9,2.9-7.6,2.9-10.5,0-2.9-2.9-2.9-7.6,0-10.5,2.9-2.9,7.6-2.9,10.5,0M1599.27,354.19h0c.93.93.93,2.46,0,3.39l-5.76,5.76c-.94.94-2.46.94-3.4,0-.93-.93-.93-2.46,0-3.39l5.76-5.76c.93-.94,2.46-.94,3.39,0ZM1631.79,321.63c-16.55-16.55-42.96-17.23-60.34-2.05-.39,1.02-.19,2.2.61,3l58.66,58.66c.89.89,2.27,1.04,3.36.44,14.93-17.38,14.16-43.59-2.3-60.05ZM1742.85,208.97c-8.22-8.22-21.14-8.77-29.51-1.49-.18.5-.07,1.07.32,1.47l29.15,29.15c.44.45,1.12.53,1.65.24,7.16-8.37,6.57-21.19-1.61-29.37ZM1712.91,239.28c7.08,7.08,7.08,18.57,0,25.65-7.08,7.08-18.57,7.08-25.65,0-7.08-7.08-7.08-18.57,0-25.65,7.08-7.08,18.57-7.08,25.65,0ZM1706.82,206.86l38.52,38.52c4.56,4.56,4.56,12.02,0,16.58l-76.33,76.33c-4.56,4.56-12.02,4.56-16.58,0l-38.52-38.51c-4.56-4.56-4.56-12.02,0-16.58l76.33-76.33c4.56-4.56,12.02-4.56,16.58,0ZM1643.44,230.18l9.58,9.58-18.21,18.22-9.58-9.58,18.22-18.21ZM1611.99,220.04l16.74,16.74c.95.95.95,2.49,0,3.44l-14.09,14.09c-.95.94-2.49.94-3.44,0l-16.74-16.74c-.95-.94-.95-2.49,0-3.43l14.09-14.09c.95-.95,2.49-.95,3.44,0ZM1592.77,200.82l13.67,13.67c.92.92.92,2.42,0,3.33l-14.19,14.19c-.92.92-2.42.92-3.33,0l-13.68-13.68c-.92-.92-.92-2.42,0-3.33l14.19-14.19c.92-.92,2.42-.92,3.34,0ZM1570.63,178.68l16.72,16.72c.95.95.95,2.49,0,3.44l-14.09,14.09c-.94.95-2.49.95-3.44,0l-16.72-16.72c-.95-.95-.95-2.49,0-3.44l14.09-14.09c.94-.94,2.49-.94,3.44,0ZM1631.92,200.11l16.74,16.74c.95.95.95,2.49,0,3.44l-14.09,14.09c-.94.95-2.49.95-3.44,0l-16.74-16.74c-.94-.95-.94-2.49,0-3.43l14.09-14.09c.94-.94,2.49-.94,3.44,0ZM1612.7,180.89l13.68,13.67c.92.92.92,2.42,0,3.34l-14.19,14.19c-.92.92-2.42.92-3.34,0l-13.67-13.68c-.92-.92-.92-2.42,0-3.34l14.19-14.19c.92-.92,2.42-.92,3.33,0ZM1590.56,158.75l16.72,16.72c.95.95.95,2.49,0,3.44l-14.09,14.09c-.95.95-2.49.95-3.44,0l-16.72-16.72c-.95-.94-.95-2.49,0-3.44l14.09-14.09c.95-.95,2.49-.95,3.44,0ZM1722.37,309.11l-9.58-9.58-18.21,18.21,9.58,9.58,18.22-18.21ZM1732.51,340.57l-16.74-16.74c-.94-.95-2.49-.95-3.44,0l-14.09,14.09c-.95.95-.95,2.49,0,3.44l16.74,16.74c.95.94,2.49.94,3.44,0l14.09-14.09c.94-.94.94-2.49,0-3.44ZM1751.73,359.79l-13.67-13.68c-.92-.92-2.42-.92-3.34,0l-14.19,14.19c-.92.92-.92,2.42,0,3.34l13.67,13.68c.92.92,2.42.92,3.34,0l14.19-14.19c.92-.92.92-2.42,0-3.34ZM1773.87,381.93l-16.72-16.72c-.95-.94-2.49-.94-3.44,0l-14.09,14.09c-.94.95-.94,2.49,0,3.44l16.72,16.72c.94.95,2.49.95,3.43,0l14.09-14.09c.95-.95.95-2.49,0-3.44ZM1752.45,320.63l-16.74-16.74c-.95-.94-2.49-.94-3.44,0l-14.09,14.09c-.94.95-.94,2.49,0,3.44l16.74,16.74c.94.95,2.49.95,3.44,0l14.09-14.09c.95-.95.95-2.49,0-3.44ZM1771.66,339.85l-13.68-13.68c-.92-.92-2.42-.92-3.33,0l-14.19,14.19c-.92.92-.92,2.42,0,3.33l13.67,13.67c.92.92,2.42.92,3.33,0l14.19-14.19c.92-.92.92-2.42,0-3.33ZM1793.81,361.99l-16.72-16.72c-.94-.95-2.49-.95-3.43,0l-14.09,14.09c-.95.95-.95,2.49,0,3.44l16.72,16.72c.95.94,2.49.94,3.44,0l14.09-14.09c.94-.94.94-2.49,0-3.44Z"/>
    <g>
      <path class="cls-3" d="M1007.01,1219.9h-16.15l-3.08,7.45h-8.25l15.51-34.79h7.95l15.56,34.79h-8.45l-3.08-7.45ZM1004.47,1213.79l-5.51-13.32-5.52,13.32h11.03Z"/>
      <path class="cls-3" d="M1048.97,1212.05v15.31h-7.76v-14.11c0-4.33-1.98-6.31-5.41-6.31-3.73,0-6.41,2.29-6.41,7.2v13.22h-7.76v-26.74h7.41v3.13c2.09-2.29,5.22-3.53,8.85-3.53,6.31,0,11.08,3.68,11.08,11.82Z"/>
      <path class="cls-3" d="M1070.62,1192.57h8.05v34.79h-8.05v-34.79Z"/>
      <path class="cls-3" d="M1084.19,1223.92l2.74-6.06c2.93,2.14,7.3,3.63,11.48,3.63,4.77,0,6.71-1.59,6.71-3.73,0-6.51-20.22-2.04-20.22-14.96,0-5.91,4.77-10.83,14.66-10.83,4.38,0,8.85,1.04,12.08,3.08l-2.49,6.11c-3.23-1.84-6.56-2.73-9.64-2.73-4.77,0-6.61,1.79-6.61,3.98,0,6.41,20.22,1.98,20.22,14.76,0,5.81-4.82,10.78-14.76,10.78-5.52,0-11.08-1.64-14.17-4.02Z"/>
      <path class="cls-3" d="M1116.46,1209.96c0-10.34,8.05-17.99,19.04-17.99s19.04,7.61,19.04,17.99-8.1,17.99-19.04,17.99-19.04-7.65-19.04-17.99ZM1146.38,1209.96c0-6.61-4.67-11.13-10.88-11.13s-10.88,4.52-10.88,11.13,4.67,11.13,10.88,11.13,10.88-4.52,10.88-11.13Z"/>
      <path class="cls-3" d="M1198.49,1220.79v6.56h-26.29v-5.22l13.42-12.67c3.08-2.93,3.62-4.72,3.62-6.41,0-2.73-1.89-4.32-5.56-4.32-2.99,0-5.52,1.14-7.21,3.48l-5.86-3.78c2.68-3.93,7.56-6.46,13.82-6.46,7.76,0,12.92,3.98,12.92,10.29,0,3.38-.94,6.46-5.81,10.99l-8,7.55h14.96Z"/>
      <path class="cls-3" d="M1228.98,1192.57v5.21l-12.92,29.57h-8.75l12.47-28.23h-11.53v5.66h-7.16v-12.22h27.88Z"/>
      <path class="cls-3" d="M1231.57,1209.96c0-11.48,6.36-17.99,14.91-17.99s14.91,6.51,14.91,17.99-6.31,17.99-14.91,17.99-14.91-6.51-14.91-17.99ZM1253.29,1209.96c0-7.9-2.78-11.18-6.8-11.18s-6.76,3.28-6.76,11.18,2.79,11.19,6.76,11.19,6.8-3.28,6.8-11.19Z"/>
      <path class="cls-3" d="M1265.34,1209.96c0-11.48,6.36-17.99,14.91-17.99s14.91,6.51,14.91,17.99-6.31,17.99-14.91,17.99-14.91-6.51-14.91-17.99ZM1287.05,1209.96c0-7.9-2.78-11.18-6.8-11.18s-6.76,3.28-6.76,11.18,2.79,11.19,6.76,11.19,6.8-3.28,6.8-11.19Z"/>
      <path class="cls-3" d="M1312.23,1192.57v34.79h-8.05v-28.33h-6.96v-6.46h15.01Z"/>
      <path class="cls-3" d="M1332.37,1209.96c0-10.48,8.05-17.99,18.89-17.99,6.01,0,11.03,2.19,14.31,6.17l-5.17,4.77c-2.34-2.68-5.27-4.08-8.75-4.08-6.51,0-11.13,4.58-11.13,11.13s4.62,11.13,11.13,11.13c3.48,0,6.41-1.39,8.75-4.12l5.17,4.77c-3.28,4.02-8.3,6.21-14.37,6.21-10.78,0-18.83-7.5-18.83-17.99Z"/>
      <path class="cls-3" d="M1395.55,1216.17h-20.23c.75,3.33,3.58,5.37,7.65,5.37,2.83,0,4.87-.84,6.71-2.59l4.12,4.47c-2.48,2.83-6.21,4.33-11.03,4.33-9.24,0-15.26-5.81-15.26-13.77s6.11-13.77,14.26-13.77,13.91,5.27,13.91,13.86c0,.59-.1,1.44-.15,2.09ZM1375.23,1211.65h13.17c-.55-3.38-3.08-5.57-6.56-5.57s-6.06,2.14-6.61,5.57Z"/>
      <path class="cls-3" d="M1417.48,1200.22v7.16c-.64-.05-1.14-.1-1.74-.1-4.28,0-7.11,2.34-7.11,7.45v12.63h-7.76v-26.74h7.41v3.53c1.89-2.58,5.07-3.92,9.2-3.92Z"/>
      <path class="cls-3" d="M1444.84,1226.06c-1.59,1.14-3.93,1.69-6.31,1.69-6.31,0-9.99-3.24-9.99-9.6v-10.98h-4.12v-5.97h4.12v-6.51h7.75v6.51h6.66v5.97h-6.66v10.88c0,2.29,1.24,3.53,3.33,3.53,1.14,0,2.29-.35,3.13-1l2.09,5.47Z"/>
      <path class="cls-3" d="M1448.28,1192.57c0-2.43,1.94-4.33,4.82-4.33s4.82,1.79,4.82,4.18c0,2.59-1.94,4.47-4.82,4.47s-4.82-1.89-4.82-4.32ZM1449.23,1200.62h7.75v26.74h-7.75v-26.74Z"/>
      <path class="cls-3" d="M1472.69,1200.07v1.14h6.85v5.97h-6.66v20.18h-7.75v-20.18h-4.12v-5.97h4.12v-1.19c0-6.02,3.68-9.94,10.34-9.94,2.19,0,4.47.45,5.91,1.44l-2.03,5.61c-.84-.59-1.94-.95-3.13-.95-2.29,0-3.53,1.24-3.53,3.88ZM1486.46,1192.57c0-2.43,1.94-4.33,4.82-4.33s4.82,1.79,4.82,4.18c0,2.59-1.94,4.47-4.82,4.47s-4.82-1.89-4.82-4.32ZM1487.4,1200.62h7.75v26.74h-7.75v-26.74Z"/>
      <path class="cls-3" d="M1528.42,1216.17h-20.23c.75,3.33,3.58,5.37,7.65,5.37,2.83,0,4.87-.84,6.71-2.59l4.12,4.47c-2.48,2.83-6.21,4.33-11.03,4.33-9.24,0-15.26-5.81-15.26-13.77s6.11-13.77,14.26-13.77,13.91,5.27,13.91,13.86c0,.59-.1,1.44-.15,2.09ZM1508.09,1211.65h13.17c-.55-3.38-3.08-5.57-6.56-5.57s-6.06,2.14-6.61,5.57Z"/>
      <path class="cls-3" d="M1560.98,1190.48v36.87h-7.41v-3.08c-1.94,2.34-4.77,3.48-8.35,3.48-7.56,0-13.37-5.37-13.37-13.77s5.81-13.77,13.37-13.77c3.28,0,6.06,1.04,8,3.23v-12.97h7.75ZM1553.38,1213.99c0-4.63-2.99-7.41-6.81-7.41s-6.86,2.78-6.86,7.41,2.98,7.41,6.86,7.41,6.81-2.79,6.81-7.41Z"/>
      <path class="cls-3" d="M1580.59,1209.96c0-10.48,8.05-17.99,18.89-17.99,6.01,0,11.03,2.19,14.31,6.17l-5.17,4.77c-2.34-2.68-5.27-4.08-8.75-4.08-6.51,0-11.13,4.58-11.13,11.13s4.62,11.13,11.13,11.13c3.48,0,6.41-1.39,8.75-4.12l5.17,4.77c-3.28,4.02-8.3,6.21-14.37,6.21-10.78,0-18.83-7.5-18.83-17.99Z"/>
      <path class="cls-3" d="M1615.75,1213.99c0-8.05,6.21-13.77,14.71-13.77s14.66,5.71,14.66,13.77-6.16,13.77-14.66,13.77-14.71-5.72-14.71-13.77ZM1637.27,1213.99c0-4.63-2.93-7.41-6.81-7.41s-6.85,2.78-6.85,7.41,2.98,7.41,6.85,7.41,6.81-2.79,6.81-7.41Z"/>
      <path class="cls-3" d="M1695.48,1212.05v15.31h-7.75v-14.11c0-4.33-1.94-6.31-5.07-6.31-3.48,0-5.92,2.23-5.92,7v13.42h-7.75v-14.11c0-4.33-1.84-6.31-5.07-6.31-3.43,0-5.86,2.23-5.86,7v13.42h-7.75v-26.74h7.4v3.08c1.99-2.29,4.97-3.48,8.4-3.48,3.73,0,6.91,1.44,8.8,4.37,2.14-2.73,5.62-4.37,9.65-4.37,6.36,0,10.93,3.68,10.93,11.82Z"/>
      <path class="cls-3" d="M1731.59,1213.99c0,8.39-5.81,13.77-13.32,13.77-3.33,0-6.06-1.04-8.05-3.24v12.47h-7.75v-36.38h7.4v3.08c1.94-2.34,4.83-3.48,8.4-3.48,7.5,0,13.32,5.37,13.32,13.77ZM1723.74,1213.99c0-4.63-2.93-7.41-6.81-7.41s-6.81,2.78-6.81,7.41,2.93,7.41,6.81,7.41,6.81-2.79,6.81-7.41Z"/>
      <path class="cls-3" d="M1759.99,1212.09v15.26h-7.26v-3.33c-1.44,2.44-4.22,3.73-8.15,3.73-6.26,0-9.99-3.48-9.99-8.1s3.33-8,11.48-8h6.17c0-3.33-1.99-5.27-6.17-5.27-2.83,0-5.77.94-7.7,2.48l-2.78-5.41c2.93-2.09,7.25-3.23,11.53-3.23,8.15,0,12.87,3.78,12.87,11.87ZM1752.24,1218.9v-2.73h-5.32c-3.62,0-4.77,1.34-4.77,3.13,0,1.94,1.64,3.23,4.38,3.23,2.59,0,4.82-1.2,5.72-3.63Z"/>
      <path class="cls-3" d="M1794.35,1212.05v15.31h-7.76v-14.11c0-4.33-1.98-6.31-5.41-6.31-3.73,0-6.41,2.29-6.41,7.2v13.22h-7.76v-26.74h7.41v3.13c2.09-2.29,5.22-3.53,8.85-3.53,6.31,0,11.08,3.68,11.08,11.82Z"/>
      <path class="cls-3" d="M1827.42,1200.62l-12.08,28.38c-2.59,6.46-6.26,8.4-11.08,8.4-2.73,0-5.71-.9-7.45-2.43l2.83-5.52c1.19,1.04,2.83,1.69,4.37,1.69,2.14,0,3.33-.94,4.38-3.33l.1-.25-11.58-26.94h8.01l7.5,18.14,7.56-18.14h7.45Z"/>
    </g>
    <g>
      <path class="cls-5" d="M1120.34,1292l-8.96,28.86h-6.28l-5.81-21.31-5.81,21.31h-6.29l-9.01-28.86h6.07l6.02,23.2,6.13-23.2h6.23l5.87,23.1,5.97-23.1h5.87Z"/>
      <path class="cls-5" d="M1163.55,1292l-8.96,28.86h-6.28l-5.81-21.31-5.81,21.31h-6.29l-9.01-28.86h6.07l6.02,23.2,6.13-23.2h6.23l5.87,23.1,5.97-23.1h5.87Z"/>
      <path class="cls-5" d="M1206.76,1292l-8.96,28.86h-6.28l-5.81-21.31-5.81,21.31h-6.29l-9.01-28.86h6.07l6.02,23.2,6.13-23.2h6.23l5.87,23.1,5.97-23.1h5.87Z"/>
      <path class="cls-5" d="M1210.9,1320.12c-.73-.73-1.1-1.64-1.1-2.72s.37-1.99,1.1-2.72c.73-.73,1.64-1.1,2.72-1.1s1.94.37,2.67,1.1c.73.73,1.1,1.64,1.1,2.72s-.37,1.99-1.1,2.72c-.73.73-1.62,1.1-2.67,1.1s-1.99-.37-2.72-1.1Z"/>
      <path class="cls-5" d="M1233.94,1292.89c1.75-.91,3.72-1.36,5.92-1.36,2.51,0,4.81.62,6.89,1.86,2.08,1.24,3.71,2.97,4.9,5.21,1.18,2.23,1.78,4.8,1.78,7.7s-.59,5.49-1.78,7.78c-1.19,2.28-2.82,4.07-4.9,5.34-2.08,1.27-4.37,1.91-6.89,1.91-2.2,0-4.16-.45-5.87-1.34-1.71-.89-3.11-2-4.19-3.32v17.91h-5.97v-42.58h5.97v4.25c1.01-1.33,2.39-2.45,4.14-3.35ZM1246.11,1301.14c-.82-1.45-1.9-2.55-3.25-3.3-1.34-.75-2.78-1.13-4.32-1.13s-2.93.38-4.27,1.16c-1.34.77-2.43,1.88-3.25,3.35-.82,1.47-1.23,3.2-1.23,5.19s.41,3.73,1.23,5.21c.82,1.48,1.91,2.61,3.25,3.38,1.34.77,2.77,1.15,4.27,1.15s2.97-.39,4.32-1.18c1.35-.79,2.43-1.93,3.25-3.43.82-1.5,1.23-3.25,1.23-5.24s-.41-3.71-1.23-5.16Z"/>
      <path class="cls-5" d="M1268.79,1292.75c1.44-.82,3.17-1.23,5.16-1.23v6.18h-1.52c-2.34,0-4.11.59-5.32,1.78-1.2,1.19-1.81,3.25-1.81,6.18v15.19h-5.97v-28.86h5.97v4.19c.87-1.47,2.04-2.61,3.49-3.43Z"/>
      <path class="cls-5" d="M1305.69,1308.65h-22.05c.17,2.31,1.03,4.16,2.57,5.55,1.53,1.4,3.42,2.1,5.66,2.1,3.21,0,5.48-1.34,6.81-4.03h6.44c-.87,2.65-2.45,4.82-4.74,6.52-2.29,1.69-5.13,2.54-8.51,2.54-2.76,0-5.23-.62-7.41-1.86-2.18-1.24-3.89-2.98-5.13-5.23-1.24-2.25-1.86-4.86-1.86-7.83s.6-5.58,1.81-7.83c1.2-2.25,2.89-3.99,5.08-5.21,2.18-1.22,4.68-1.83,7.51-1.83s5.15.59,7.28,1.78c2.13,1.18,3.79,2.85,4.97,5,1.19,2.15,1.78,4.62,1.78,7.41,0,1.08-.07,2.06-.21,2.93ZM1299.67,1303.83c-.03-2.2-.82-3.96-2.36-5.29-1.54-1.33-3.44-1.99-5.71-1.99-2.06,0-3.82.66-5.29,1.96-1.47,1.31-2.34,3.08-2.62,5.31h15.97Z"/>
      <path class="cls-5" d="M1311.58,1298.57c1.2-2.25,2.87-3.99,5-5.21,2.13-1.22,4.57-1.83,7.33-1.83,3.49,0,6.38.83,8.67,2.48,2.29,1.66,3.83,4.03,4.64,7.1h-6.44c-.52-1.43-1.36-2.54-2.51-3.35-1.15-.8-2.6-1.21-4.35-1.21-2.44,0-4.39.87-5.84,2.6-1.45,1.73-2.17,4.14-2.17,7.25s.72,5.53,2.17,7.28c1.45,1.74,3.4,2.62,5.84,2.62,3.46,0,5.75-1.52,6.86-4.56h6.44c-.84,2.93-2.41,5.26-4.71,6.99-2.31,1.73-5.17,2.6-8.59,2.6-2.76,0-5.2-.62-7.33-1.86-2.13-1.24-3.8-2.98-5-5.23-1.21-2.25-1.81-4.86-1.81-7.83s.6-5.58,1.81-7.83Z"/>
      <path class="cls-5" d="M1343.5,1287.07c-.73-.73-1.1-1.64-1.1-2.72s.37-1.99,1.1-2.72c.73-.73,1.64-1.1,2.72-1.1s1.94.37,2.67,1.1c.73.73,1.1,1.64,1.1,2.72s-.37,1.99-1.1,2.72c-.73.73-1.62,1.1-2.67,1.1s-1.99-.37-2.72-1.1ZM1349.16,1292v28.86h-5.97v-28.86h5.97Z"/>
      <path class="cls-5" d="M1361.39,1320.1c-1.8-.82-3.22-1.94-4.27-3.35-1.05-1.41-1.61-2.99-1.67-4.74h6.18c.11,1.22.69,2.25,1.76,3.06,1.06.82,2.4,1.23,4.01,1.23s2.97-.32,3.9-.97c.92-.65,1.39-1.47,1.39-2.49,0-1.08-.52-1.88-1.55-2.41-1.03-.52-2.66-1.1-4.9-1.73-2.17-.59-3.93-1.17-5.29-1.73-1.36-.56-2.54-1.42-3.53-2.57-1-1.16-1.49-2.67-1.49-4.56,0-1.54.45-2.95,1.36-4.22.91-1.27,2.21-2.28,3.9-3.01,1.7-.73,3.64-1.1,5.84-1.1,3.28,0,5.92.83,7.93,2.48,2.01,1.66,3.08,3.92,3.22,6.79h-5.97c-.1-1.29-.63-2.32-1.57-3.09-.94-.77-2.22-1.16-3.82-1.16s-2.77.3-3.61.89c-.84.6-1.26,1.38-1.26,2.36,0,.77.28,1.42.84,1.94.56.52,1.24.93,2.05,1.23.8.29,1.99.67,3.56,1.13,2.1.56,3.81,1.13,5.16,1.7,1.35.58,2.51,1.42,3.49,2.54.98,1.12,1.48,2.6,1.52,4.45,0,1.64-.46,3.11-1.36,4.4-.91,1.29-2.19,2.31-3.85,3.04-1.66.73-3.61,1.1-5.84,1.1s-4.3-.41-6.1-1.23Z"/>
      <path class="cls-5" d="M1385.29,1287.07c-.73-.73-1.1-1.64-1.1-2.72s.37-1.99,1.1-2.72c.73-.73,1.64-1.1,2.72-1.1s1.94.37,2.67,1.1c.73.73,1.1,1.64,1.1,2.72s-.37,1.99-1.1,2.72c-.73.73-1.62,1.1-2.67,1.1s-1.99-.37-2.72-1.1ZM1390.95,1292v28.86h-5.97v-28.86h5.97Z"/>
      <path class="cls-5" d="M1403.94,1319.47c-2.2-1.24-3.93-2.98-5.19-5.23-1.26-2.25-1.88-4.86-1.88-7.83s.64-5.54,1.94-7.8c1.29-2.27,3.05-4.01,5.29-5.24,2.23-1.22,4.73-1.83,7.49-1.83s5.26.61,7.49,1.83c2.23,1.22,4,2.97,5.29,5.24,1.29,2.27,1.94,4.87,1.94,7.8s-.66,5.53-1.99,7.8c-1.33,2.27-3.14,4.03-5.42,5.26-2.29,1.24-4.81,1.86-7.57,1.86s-5.18-.62-7.38-1.86ZM1415.64,1315.04c1.34-.73,2.44-1.83,3.27-3.3.84-1.47,1.26-3.25,1.26-5.34s-.4-3.87-1.21-5.32c-.8-1.45-1.87-2.54-3.19-3.27-1.33-.73-2.76-1.1-4.3-1.1s-2.96.37-4.27,1.1c-1.31.73-2.35,1.82-3.12,3.27-.77,1.45-1.16,3.22-1.16,5.32,0,3.11.8,5.51,2.38,7.2,1.59,1.7,3.59,2.54,6,2.54,1.54,0,2.98-.37,4.32-1.1Z"/>
      <path class="cls-5" d="M1452.88,1292.94c1.8.95,3.21,2.34,4.22,4.19,1.01,1.85,1.52,4.08,1.52,6.7v17.02h-5.92v-16.13c0-2.58-.64-4.56-1.93-5.94-1.3-1.38-3.06-2.07-5.29-2.07s-4.01.69-5.31,2.07c-1.31,1.38-1.96,3.36-1.96,5.94v16.13h-5.97v-28.86h5.97v3.3c.98-1.18,2.23-2.11,3.75-2.77,1.52-.66,3.13-.99,4.85-.99,2.27,0,4.3.47,6.1,1.41Z"/>
      <path class="cls-5" d="M1483.78,1292.86c1.73.89,3.08,2,4.06,3.32v-4.19h6.02v29.33c0,2.65-.56,5.02-1.68,7.1-1.12,2.08-2.73,3.71-4.84,4.9-2.11,1.18-4.64,1.78-7.57,1.78-3.91,0-7.16-.92-9.74-2.75-2.59-1.83-4.05-4.32-4.4-7.46h5.92c.45,1.5,1.42,2.71,2.91,3.64,1.48.92,3.26,1.39,5.31,1.39,2.41,0,4.36-.73,5.84-2.2,1.48-1.47,2.23-3.6,2.23-6.39v-4.82c-1.01,1.36-2.39,2.51-4.11,3.43-1.73.92-3.69,1.39-5.89,1.39-2.51,0-4.81-.64-6.89-1.91-2.08-1.27-3.72-3.06-4.92-5.34-1.21-2.29-1.81-4.88-1.81-7.78s.6-5.46,1.81-7.7c1.2-2.24,2.84-3.97,4.92-5.21,2.08-1.24,4.37-1.86,6.89-1.86,2.23,0,4.22.44,5.94,1.33ZM1486.61,1301.22c-.82-1.47-1.9-2.58-3.22-3.35-1.33-.77-2.76-1.16-4.3-1.16s-2.97.38-4.29,1.13c-1.33.75-2.4,1.85-3.22,3.3-.82,1.45-1.23,3.17-1.23,5.16s.41,3.74,1.23,5.24c.82,1.5,1.91,2.64,3.25,3.43,1.34.78,2.77,1.18,4.27,1.18s2.97-.38,4.3-1.15c1.33-.77,2.4-1.9,3.22-3.38.82-1.48,1.23-3.22,1.23-5.21s-.41-3.72-1.23-5.19Z"/>
      <path class="cls-5" d="M1511.17,1292.75c1.44-.82,3.17-1.23,5.16-1.23v6.18h-1.52c-2.34,0-4.11.59-5.32,1.78-1.2,1.19-1.81,3.25-1.81,6.18v15.19h-5.97v-28.86h5.97v4.19c.87-1.47,2.04-2.61,3.49-3.43Z"/>
      <path class="cls-5" d="M1526.96,1319.47c-2.2-1.24-3.93-2.98-5.19-5.23-1.26-2.25-1.88-4.86-1.88-7.83s.64-5.54,1.94-7.8c1.29-2.27,3.05-4.01,5.29-5.24,2.23-1.22,4.73-1.83,7.49-1.83s5.26.61,7.49,1.83c2.23,1.22,4,2.97,5.29,5.24,1.29,2.27,1.94,4.87,1.94,7.8s-.66,5.53-1.99,7.8c-1.33,2.27-3.14,4.03-5.42,5.26-2.29,1.24-4.81,1.86-7.57,1.86s-5.18-.62-7.38-1.86ZM1538.67,1315.04c1.34-.73,2.44-1.83,3.27-3.3.84-1.47,1.26-3.25,1.26-5.34s-.4-3.87-1.21-5.32c-.8-1.45-1.87-2.54-3.19-3.27-1.33-.73-2.76-1.1-4.3-1.1s-2.96.37-4.27,1.1c-1.31.73-2.35,1.82-3.12,3.27-.77,1.45-1.16,3.22-1.16,5.32,0,3.11.8,5.51,2.38,7.2,1.59,1.7,3.59,2.54,6,2.54,1.54,0,2.98-.37,4.32-1.1Z"/>
      <path class="cls-5" d="M1594,1292l-8.96,28.86h-6.28l-5.81-21.31-5.81,21.31h-6.29l-9.01-28.86h6.07l6.02,23.2,6.13-23.2h6.23l5.87,23.1,5.97-23.1h5.87Z"/>
      <path class="cls-5" d="M1598.13,1320.12c-.73-.73-1.1-1.64-1.1-2.72s.37-1.99,1.1-2.72c.73-.73,1.64-1.1,2.72-1.1s1.94.37,2.67,1.1c.73.73,1.1,1.64,1.1,2.72s-.37,1.99-1.1,2.72c-.73.73-1.62,1.1-2.67,1.1s-1.99-.37-2.72-1.1Z"/>
      <path class="cls-5" d="M1610.89,1298.57c1.2-2.25,2.87-3.99,5-5.21,2.13-1.22,4.57-1.83,7.33-1.83,3.49,0,6.38.83,8.67,2.48,2.29,1.66,3.83,4.03,4.64,7.1h-6.44c-.52-1.43-1.36-2.54-2.51-3.35-1.15-.8-2.6-1.21-4.35-1.21-2.44,0-4.39.87-5.84,2.6-1.45,1.73-2.17,4.14-2.17,7.25s.72,5.53,2.17,7.28c1.45,1.74,3.4,2.62,5.84,2.62,3.46,0,5.75-1.52,6.86-4.56h6.44c-.84,2.93-2.41,5.26-4.71,6.99-2.31,1.73-5.17,2.6-8.59,2.6-2.76,0-5.2-.62-7.33-1.86-2.13-1.24-3.8-2.98-5-5.23-1.21-2.25-1.81-4.86-1.81-7.83s.6-5.58,1.81-7.83Z"/>
      <path class="cls-5" d="M1647.63,1319.47c-2.2-1.24-3.93-2.98-5.19-5.23-1.26-2.25-1.88-4.86-1.88-7.83s.64-5.54,1.94-7.8c1.29-2.27,3.05-4.01,5.29-5.24,2.23-1.22,4.73-1.83,7.49-1.83s5.26.61,7.49,1.83c2.23,1.22,4,2.97,5.29,5.24,1.29,2.27,1.94,4.87,1.94,7.8s-.66,5.53-1.99,7.8c-1.33,2.27-3.14,4.03-5.42,5.26-2.29,1.24-4.81,1.86-7.57,1.86s-5.18-.62-7.38-1.86ZM1659.33,1315.04c1.34-.73,2.44-1.83,3.27-3.3.84-1.47,1.26-3.25,1.26-5.34s-.4-3.87-1.21-5.32c-.8-1.45-1.87-2.54-3.19-3.27-1.33-.73-2.76-1.1-4.3-1.1s-2.96.37-4.27,1.1c-1.31.73-2.35,1.82-3.12,3.27-.77,1.45-1.16,3.22-1.16,5.32,0,3.11.8,5.51,2.38,7.2,1.59,1.7,3.59,2.54,6,2.54,1.54,0,2.98-.37,4.32-1.1Z"/>
      <path class="cls-5" d="M1675.59,1320.12c-.73-.73-1.1-1.64-1.1-2.72s.37-1.99,1.1-2.72c.73-.73,1.64-1.1,2.72-1.1s1.94.37,2.67,1.1c.73.73,1.1,1.64,1.1,2.72s-.37,1.99-1.1,2.72c-.73.73-1.62,1.1-2.67,1.1s-1.99-.37-2.72-1.1Z"/>
      <path class="cls-5" d="M1688.84,1287.07c-.73-.73-1.1-1.64-1.1-2.72s.37-1.99,1.1-2.72c.73-.73,1.64-1.1,2.72-1.1s1.94.37,2.67,1.1c.73.73,1.1,1.64,1.1,2.72s-.37,1.99-1.1,2.72c-.73.73-1.62,1.1-2.67,1.1s-1.99-.37-2.72-1.1ZM1694.5,1292v28.86h-5.97v-28.86h5.97Z"/>
      <path class="cls-5" d="M1723.02,1292.94c1.8.95,3.21,2.34,4.22,4.19,1.01,1.85,1.52,4.08,1.52,6.7v17.02h-5.92v-16.13c0-2.58-.64-4.56-1.93-5.94-1.3-1.38-3.06-2.07-5.29-2.07s-4.01.69-5.31,2.07c-1.31,1.38-1.96,3.36-1.96,5.94v16.13h-5.97v-28.86h5.97v3.3c.98-1.18,2.23-2.11,3.75-2.77,1.52-.66,3.13-.99,4.85-.99,2.27,0,4.3.47,6.1,1.41Z"/>
    </g>
    <g>
      <path class="cls-9" d="M853.5,1011.21c-1.87-3.16-4.58-5.64-8.13-7.44-3.55-1.8-7.83-2.69-12.84-2.69h-24.75v64.84h12.15v-23.65h12.6c5.01,0,9.29-.82,12.84-2.45,3.55-1.63,6.26-3.96,8.13-6.99,1.87-3.03,2.81-6.63,2.81-10.82s-.94-7.64-2.81-10.8ZM842.87,1027.55c-.8,1.59-2.04,2.83-3.73,3.74-1.69.91-3.9,1.36-6.61,1.36h-12.6v-21.91h12.6c2.71,0,4.91.53,6.61,1.6,1.69,1.07,2.94,2.46,3.73,4.19.8,1.72,1.19,3.58,1.19,5.57s-.4,3.87-1.19,5.46Z"/>
      <path class="cls-9" d="M904.2,1038.47c1.84-.81,3.51-1.78,4.99-2.93,2.14-1.66,3.79-3.73,4.97-6.19,1.18-2.46,1.77-5.37,1.77-8.73,0-4.24-.94-7.82-2.83-10.73-1.89-2.91-4.58-5.11-8.09-6.59-3.51-1.48-7.71-2.23-12.6-2.23h-23.38v64.84h12.15v-24.49h11.61l12.56,24.49h13.04v-.62l-14.2-26.82ZM881.19,1010.74h11.23c2.56,0,4.68.43,6.36,1.29,1.68.86,2.93,2.09,3.76,3.67.82,1.59,1.24,3.47,1.24,5.63,0,2.02-.42,3.82-1.26,5.39-.84,1.57-2.08,2.81-3.73,3.7-1.65.89-3.73,1.34-6.23,1.34h-11.36v-21.02Z"/>
      <polygon class="cls-9" points="941.87 1056.29 941.87 1037.23 967.9 1037.23 967.9 1027.84 941.87 1027.84 941.87 1010.74 972.23 1010.74 972.23 1001.08 941.87 1001.08 938.16 1001.08 929.72 1001.08 929.72 1065.91 938.16 1065.91 941.87 1065.91 972.37 1065.91 972.37 1056.29 941.87 1056.29"/>
      <path class="cls-9" d="M1021.6,1044.58h12.15c-.32,4.33-1.52,8.17-3.58,11.51-2.06,3.34-4.94,5.96-8.62,7.86-3.68,1.9-8.15,2.85-13.39,2.85-4.04,0-7.67-.72-10.89-2.16-3.23-1.44-5.98-3.5-8.26-6.19-2.28-2.69-4.03-5.92-5.24-9.71-1.21-3.79-1.81-8.04-1.81-12.76v-4.94c0-4.72.62-8.98,1.86-12.78,1.24-3.8,3.01-7.04,5.33-9.73,2.31-2.69,5.1-4.76,8.35-6.21,3.26-1.45,6.9-2.18,10.94-2.18,5.24,0,9.68.97,13.3,2.92s6.44,4.61,8.44,7.99c2,3.38,3.21,7.27,3.62,11.67h-12.15c-.24-2.73-.82-5.05-1.75-6.95-.93-1.9-2.31-3.35-4.15-4.34-1.84-.99-4.28-1.49-7.31-1.49-2.36,0-4.43.45-6.21,1.34-1.78.89-3.26,2.22-4.44,3.99-1.18,1.77-2.06,3.96-2.65,6.59-.59,2.63-.88,5.66-.88,9.11v5.03c0,3.3.27,6.25.8,8.86.53,2.61,1.35,4.82,2.47,6.63,1.12,1.81,2.56,3.19,4.33,4.14,1.77.95,3.87,1.42,6.32,1.42,2.98,0,5.4-.47,7.27-1.42,1.87-.95,3.3-2.34,4.29-4.19.99-1.84,1.61-4.13,1.88-6.86Z"/>
      <path class="cls-9" d="M1059.25,1001.08v64.84h-12.15v-64.84h12.15Z"/>
      <path class="cls-9" d="M1109.19,1049.08c0-1.25-.18-2.37-.55-3.36-.37-.99-1.03-1.9-1.99-2.72-.96-.82-2.3-1.62-4.02-2.4-1.72-.78-3.94-1.61-6.65-2.47-3.01-.95-5.8-2.02-8.4-3.21-2.59-1.19-4.87-2.57-6.83-4.14-1.96-1.57-3.48-3.39-4.57-5.45-1.09-2.06-1.64-4.46-1.64-7.19s.57-5.11,1.7-7.3c1.13-2.2,2.75-4.09,4.84-5.68,2.09-1.59,4.56-2.81,7.4-3.67,2.84-.86,5.99-1.29,9.44-1.29,4.77,0,8.91.88,12.4,2.63,3.49,1.75,6.19,4.13,8.11,7.12,1.91,3,2.87,6.37,2.87,10.11h-12.11c0-2.02-.42-3.8-1.26-5.34-.84-1.54-2.11-2.76-3.8-3.65-1.69-.89-3.82-1.34-6.39-1.34s-4.53.37-6.17,1.11c-1.64.74-2.86,1.75-3.67,3.03-.81,1.28-1.22,2.7-1.22,4.27,0,1.19.28,2.25.84,3.18.56.93,1.4,1.81,2.52,2.63,1.12.82,2.51,1.58,4.18,2.27,1.66.7,3.6,1.39,5.81,2.07,3.54,1.07,6.64,2.26,9.3,3.56,2.67,1.31,4.89,2.79,6.67,4.45,1.78,1.66,3.12,3.53,4.02,5.61.9,2.08,1.35,4.44,1.35,7.08,0,2.79-.55,5.29-1.64,7.48-1.09,2.2-2.65,4.07-4.68,5.61-2.03,1.54-4.47,2.72-7.31,3.52-2.84.8-6.02,1.2-9.52,1.2-3.12,0-6.21-.42-9.26-1.27-3.05-.84-5.81-2.12-8.29-3.83-2.47-1.71-4.45-3.87-5.92-6.5-1.47-2.63-2.21-5.71-2.21-9.24h12.2c0,2.05.33,3.79.99,5.23.66,1.44,1.61,2.61,2.83,3.52,1.22.91,2.66,1.57,4.31,1.98,1.65.42,3.43.62,5.35.62,2.47,0,4.51-.35,6.12-1.05,1.61-.7,2.81-1.67,3.62-2.92.81-1.25,1.22-2.67,1.22-4.27Z"/>
      <path class="cls-9" d="M1146.89,1001.08v64.84h-12.15v-64.84h12.15Z"/>
      <path class="cls-9" d="M1215.26,1031.85v3.34c0,4.9-.65,9.3-1.94,13.2-1.3,3.9-3.14,7.22-5.52,9.95-2.39,2.73-5.23,4.82-8.53,6.28-3.3,1.45-6.97,2.18-11,2.18s-7.62-.73-10.94-2.18-6.18-3.55-8.6-6.28c-2.42-2.73-4.29-6.05-5.61-9.95-1.33-3.9-1.99-8.31-1.99-13.2v-3.34c0-4.93.66-9.34,1.99-13.23,1.33-3.89,3.18-7.21,5.57-9.95,2.39-2.75,5.24-4.85,8.55-6.3,3.31-1.45,6.96-2.18,10.94-2.18s7.7.73,11,2.18c3.3,1.46,6.15,3.56,8.55,6.3,2.4,2.75,4.26,6.06,5.57,9.95,1.31,3.89,1.97,8.3,1.97,13.23ZM1202.98,1035.19v-3.43c0-3.53-.32-6.64-.97-9.33-.65-2.69-1.61-4.95-2.87-6.79-1.27-1.84-2.83-3.23-4.68-4.16-1.86-.93-3.95-1.4-6.28-1.4s-4.44.47-6.25,1.4c-1.81.94-3.35,2.32-4.62,4.16-1.27,1.84-2.23,4.1-2.89,6.79-.66,2.69-.99,5.8-.99,9.33v3.43c0,3.5.33,6.61.99,9.31.66,2.7,1.64,4.98,2.92,6.84,1.28,1.85,2.84,3.26,4.66,4.21,1.83.95,3.92,1.42,6.28,1.42s4.45-.47,6.28-1.42c1.83-.95,3.37-2.35,4.62-4.21,1.25-1.85,2.2-4.13,2.85-6.84.65-2.7.97-5.8.97-9.31Z"/>
      <path class="cls-9" d="M1280.45,1001.08v64.84h-12.2l-27.36-44.98v44.98h-12.15v-64.84h12.15l27.45,45.02v-45.02h12.11Z"/>
      <path class="cls-2" d="M1368.66,1032.38v25.25c-.94,1.22-2.42,2.54-4.44,3.96-2.02,1.42-4.65,2.65-7.89,3.67-3.24,1.03-7.22,1.54-11.93,1.54-4.1,0-7.84-.69-11.23-2.07-3.39-1.38-6.31-3.41-8.75-6.08-2.45-2.67-4.33-5.94-5.66-9.8-1.33-3.86-1.99-8.27-1.99-13.23v-4.27c0-4.96.63-9.37,1.88-13.23,1.25-3.86,3.05-7.12,5.39-9.8,2.34-2.67,5.16-4.7,8.44-6.1,3.28-1.39,6.96-2.09,11.03-2.09,5.45,0,9.94.91,13.46,2.72,3.52,1.81,6.22,4.3,8.11,7.46,1.89,3.16,3.06,6.79,3.54,10.89h-11.84c-.32-2.26-.97-4.24-1.94-5.94s-2.35-3.04-4.13-4.01c-1.78-.96-4.09-1.45-6.92-1.45-2.39,0-4.49.48-6.32,1.42-1.83.95-3.36,2.33-4.6,4.14-1.24,1.81-2.17,4.05-2.81,6.72-.63,2.67-.95,5.73-.95,9.17v4.36c0,3.47.35,6.55,1.06,9.24.71,2.69,1.73,4.94,3.07,6.77,1.34,1.83,3.01,3.21,4.99,4.14,1.99.93,4.25,1.4,6.78,1.4,2.3,0,4.21-.2,5.72-.6,1.52-.4,2.73-.88,3.65-1.45.91-.56,1.62-1.11,2.12-1.65v-12.16h-12.77v-8.95h24.93Z"/>
      <path class="cls-2" d="M1418.5,1038.47c1.84-.81,3.51-1.78,4.99-2.93,2.14-1.66,3.79-3.73,4.97-6.19,1.18-2.46,1.77-5.37,1.77-8.73,0-4.24-.94-7.82-2.83-10.73-1.89-2.91-4.58-5.11-8.09-6.59-3.51-1.48-7.71-2.23-12.6-2.23h-23.38v64.84h12.15v-24.49h11.61l12.56,24.49h13.04v-.62l-14.2-26.82ZM1395.49,1010.74h11.23c2.56,0,4.68.43,6.36,1.29,1.68.86,2.93,2.09,3.76,3.67.82,1.59,1.24,3.47,1.24,5.63,0,2.02-.42,3.82-1.26,5.39-.84,1.57-2.08,2.81-3.73,3.7-1.65.89-3.73,1.34-6.23,1.34h-11.36v-21.02Z"/>
      <path class="cls-2" d="M1496.12,1031.85v3.34c0,4.9-.65,9.3-1.94,13.2-1.3,3.9-3.14,7.22-5.52,9.95-2.39,2.73-5.23,4.82-8.53,6.28-3.3,1.45-6.97,2.18-11,2.18s-7.62-.73-10.94-2.18-6.18-3.55-8.6-6.28c-2.42-2.73-4.29-6.05-5.61-9.95-1.33-3.9-1.99-8.31-1.99-13.2v-3.34c0-4.93.66-9.34,1.99-13.23,1.33-3.89,3.18-7.21,5.57-9.95,2.39-2.75,5.24-4.85,8.55-6.3,3.31-1.45,6.96-2.18,10.94-2.18s7.7.73,11,2.18c3.3,1.46,6.15,3.56,8.55,6.3,2.4,2.75,4.26,6.06,5.57,9.95,1.31,3.89,1.97,8.3,1.97,13.23ZM1483.84,1035.19v-3.43c0-3.53-.32-6.64-.97-9.33-.65-2.69-1.61-4.95-2.87-6.79-1.27-1.84-2.83-3.23-4.68-4.16-1.86-.93-3.95-1.4-6.28-1.4s-4.44.47-6.25,1.4c-1.81.94-3.35,2.32-4.62,4.16-1.27,1.84-2.23,4.1-2.89,6.79-.66,2.69-.99,5.8-.99,9.33v3.43c0,3.5.33,6.61.99,9.31.66,2.7,1.64,4.98,2.92,6.84,1.28,1.85,2.84,3.26,4.66,4.21,1.83.95,3.92,1.42,6.28,1.42s4.45-.47,6.28-1.42c1.83-.95,3.37-2.35,4.62-4.21,1.25-1.85,2.2-4.13,2.85-6.84.65-2.7.97-5.8.97-9.31Z"/>
      <polygon class="cls-2" points="1569.26 1001.08 1559.93 1048.01 1548.49 1001.08 1545.18 1001.08 1541.6 1001.08 1538.24 1001.08 1526.78 1047.96 1517.34 1001.08 1505.27 1001.08 1519.85 1065.91 1524.58 1065.91 1527.85 1065.91 1531.92 1065.91 1543.34 1021.05 1554.72 1065.91 1558.79 1065.91 1562.06 1065.91 1566.79 1065.91 1581.37 1001.08 1569.26 1001.08"/>
      <path class="cls-9" d="M1660.46,1011.21c-1.87-3.16-4.58-5.64-8.13-7.44-3.55-1.8-7.83-2.69-12.84-2.69h-24.75v64.84h12.15v-23.65h12.6c5.01,0,9.29-.82,12.84-2.45,3.55-1.63,6.26-3.96,8.13-6.99,1.87-3.03,2.81-6.63,2.81-10.82s-.94-7.64-2.81-10.8ZM1649.83,1027.55c-.8,1.59-2.04,2.83-3.73,3.74-1.69.91-3.9,1.36-6.61,1.36h-12.6v-21.91h12.6c2.71,0,4.91.53,6.61,1.6,1.69,1.07,2.94,2.46,3.73,4.19.8,1.72,1.19,3.58,1.19,5.57s-.4,3.87-1.19,5.46Z"/>
      <polygon class="cls-9" points="1714.67 1001.08 1699.2 1051.35 1683.82 1001.08 1670.38 1001.08 1693.01 1065.91 1696.46 1065.91 1702.07 1065.91 1705.43 1065.91 1728.15 1001.08 1714.67 1001.08"/>
      <polygon class="cls-9" points="1785.55 1001.08 1765.58 1001.08 1753.47 1001.08 1733.71 1001.08 1733.71 1010.74 1753.47 1010.74 1753.47 1065.91 1765.58 1065.91 1765.58 1010.74 1785.55 1010.74 1785.55 1001.08"/>
      <path class="cls-9" d="M1784.23,1060.17c0-1.78.6-3.28,1.81-4.5,1.21-1.22,2.84-1.83,4.91-1.83s3.7.61,4.91,1.83c1.21,1.22,1.81,2.72,1.81,4.5s-.6,3.23-1.81,4.43c-1.21,1.2-2.84,1.8-4.91,1.8s-3.7-.6-4.91-1.8c-1.21-1.2-1.81-2.68-1.81-4.43Z"/>
      <path class="cls-9" d="M1985.72,1060.17c0-1.78.6-3.28,1.81-4.5,1.21-1.22,2.84-1.83,4.91-1.83s3.7.61,4.91,1.83c1.21,1.22,1.81,2.72,1.81,4.5s-.6,3.23-1.81,4.43c-1.21,1.2-2.84,1.8-4.91,1.8s-3.7-.6-4.91-1.8c-1.21-1.2-1.81-2.68-1.81-4.43Z"/>
      <polygon class="cls-9" points="1846.59 1056.29 1846.59 1001.08 1834.43 1001.08 1834.43 1065.91 1842.92 1065.91 1846.59 1065.91 1875.27 1065.91 1875.27 1056.29 1846.59 1056.29"/>
      <polygon class="cls-9" points="1923.62 1001.08 1903.64 1001.08 1891.53 1001.08 1871.78 1001.08 1871.78 1010.74 1891.53 1010.74 1891.53 1065.91 1903.64 1065.91 1903.64 1010.74 1923.62 1010.74 1923.62 1001.08"/>
      <path class="cls-9" d="M1981.36,1019.24c-1.4-3.77-3.4-7.01-6.01-9.73-2.61-2.72-5.69-4.8-9.24-6.26-3.55-1.45-7.48-2.18-11.78-2.18h-19.49v64.84h19.22c4.39,0,8.38-.73,11.98-2.18,3.59-1.45,6.7-3.53,9.3-6.23,2.61-2.7,4.61-5.95,6.01-9.73,1.4-3.79,2.1-7.99,2.1-12.62v-3.25c0-4.66-.7-8.88-2.1-12.65ZM1971.17,1035.14c0,4.42-.65,8.22-1.94,11.38-1.3,3.16-3.21,5.58-5.75,7.26-2.53,1.68-5.67,2.52-9.41,2.52h-7.07v-45.55h7.34c2.71,0,5.11.46,7.2,1.38,2.09.92,3.85,2.27,5.28,4.05,1.43,1.78,2.51,3.98,3.25,6.59.74,2.61,1.1,5.63,1.1,9.04v3.34Z"/>
    </g>
    <g>
      <path class="cls-8" d="M894.96,1114.06c-1.03-1.76-2.54-3.13-4.53-4.13-1.99-1-4.43-1.49-7.31-1.49h-14.07v38.16h5.06v-14.97h9.02c2.88,0,5.32-.45,7.31-1.35,1.99-.9,3.5-2.21,4.53-3.94,1.03-1.73,1.55-3.82,1.55-6.26,0-2.25-.52-4.26-1.55-6.01ZM890.6,1123.96c-.57,1.12-1.46,1.99-2.69,2.62-1.22.63-2.82.94-4.8.94h-9.02v-14.94h9.02c1.97,0,3.57.35,4.8,1.06,1.22.71,2.12,1.64,2.69,2.79.57,1.15.85,2.39.85,3.7,0,1.43-.28,2.71-.85,3.83Z"/>
      <path class="cls-8" d="M915.37,1108.44v38.16h-5.06v-38.16h5.06Z"/>
      <path class="cls-8" d="M960.96,1126.32v2.41c0,2.87-.36,5.43-1.07,7.71s-1.75,4.2-3.09,5.79c-1.35,1.59-2.96,2.8-4.84,3.64-1.88.84-3.98,1.26-6.3,1.26s-4.32-.42-6.2-1.26-3.5-2.05-4.88-3.64c-1.37-1.59-2.43-3.52-3.18-5.79-.75-2.27-1.13-4.84-1.13-7.71v-2.41c0-2.87.37-5.43,1.11-7.69s1.8-4.19,3.16-5.79c1.36-1.6,2.98-2.82,4.86-3.66s3.94-1.26,6.2-1.26,4.43.42,6.3,1.26c1.88.84,3.49,2.06,4.85,3.66,1.35,1.6,2.39,3.53,3.12,5.79.73,2.26,1.09,4.83,1.09,7.69ZM955.96,1128.73v-2.46c0-2.27-.23-4.28-.69-6.03-.46-1.75-1.14-3.22-2.03-4.4-.89-1.19-1.98-2.09-3.26-2.7s-2.74-.92-4.36-.92-2.99.31-4.26.92c-1.27.61-2.35,1.51-3.25,2.7-.9,1.19-1.59,2.66-2.08,4.4-.49,1.75-.73,3.76-.73,6.03v2.46c0,2.29.24,4.31.73,6.07.49,1.76,1.19,3.23,2.11,4.43.92,1.2,2.01,2.1,3.28,2.71s2.69.92,4.26.92,3.1-.31,4.38-.92,2.35-1.51,3.24-2.71c.88-1.2,1.55-2.67,2.01-4.43.45-1.75.68-3.78.68-6.07Z"/>
      <path class="cls-8" d="M1004.91,1108.44v38.16h-5.08l-19.21-29.43v29.43h-5.06v-38.16h5.06l19.29,29.51v-29.51h5.01Z"/>
      <polygon class="cls-8" points="1025.94 1142.49 1025.94 1128.96 1042.45 1128.96 1042.45 1124.85 1025.94 1124.85 1025.94 1112.58 1044.87 1112.58 1044.87 1108.44 1025.94 1108.44 1024.92 1108.44 1020.88 1108.44 1020.88 1146.6 1024.92 1146.6 1025.94 1146.6 1045.13 1146.6 1045.13 1142.49 1025.94 1142.49"/>
      <polygon class="cls-8" points="1063.49 1142.49 1063.49 1128.96 1080 1128.96 1080 1124.85 1063.49 1124.85 1063.49 1112.58 1082.41 1112.58 1082.41 1108.44 1063.49 1108.44 1062.47 1108.44 1058.43 1108.44 1058.43 1146.6 1062.47 1146.6 1063.49 1146.6 1082.68 1146.6 1082.68 1142.49 1063.49 1142.49"/>
      <path class="cls-8" d="M1114.69,1130.03c1.17-.45,2.27-.98,3.19-1.68,1.32-1,2.33-2.23,3.04-3.67.71-1.44,1.06-3.04,1.06-4.78,0-2.48-.52-4.57-1.56-6.28-1.04-1.7-2.55-2.99-4.53-3.87-1.98-.87-4.41-1.31-7.27-1.31h-12.63v38.16h5.06v-15.46h8.95l8.29,15.46h5.4v-.31l-8.99-16.26ZM1101.04,1127.02v-14.44h7.57c1.94,0,3.53.3,4.76.91,1.23.6,2.14,1.45,2.71,2.55.58,1.1.86,2.39.86,3.85,0,1.31-.31,2.51-.92,3.59-.61,1.08-1.52,1.94-2.73,2.58-1.21.64-2.72.96-4.53.96h-7.73Z"/>
      <path class="cls-8" d="M1141.52,1108.44v38.16h-5.06v-38.16h5.06Z"/>
      <path class="cls-8" d="M1187.09,1108.44v38.16h-5.08l-19.21-29.43v29.43h-5.06v-38.16h5.06l19.29,29.51v-29.51h5.01Z"/>
      <path class="cls-8" d="M1231.27,1127.6v13.97c-.47.7-1.22,1.48-2.25,2.34-1.03.87-2.45,1.62-4.26,2.25-1.81.64-4.14.96-6.98.96-2.32,0-4.46-.41-6.41-1.22-1.95-.81-3.63-2-5.06-3.56-1.42-1.56-2.52-3.47-3.3-5.71-.78-2.24-1.17-4.79-1.17-7.64v-2.96c0-2.85.34-5.39,1.01-7.63.67-2.24,1.66-4.14,2.97-5.7,1.31-1.56,2.92-2.75,4.82-3.56,1.9-.81,4.09-1.22,6.55-1.22,2.92,0,5.36.5,7.33,1.51,1.97,1.01,3.5,2.39,4.61,4.16,1.11,1.76,1.82,3.77,2.14,6.03h-5.06c-.23-1.38-.68-2.64-1.35-3.77-.67-1.14-1.63-2.05-2.87-2.74-1.24-.69-2.84-1.03-4.8-1.03-1.76,0-3.29.32-4.59.97s-2.36,1.57-3.2,2.78c-.84,1.21-1.46,2.66-1.87,4.38-.41,1.71-.62,3.64-.62,5.79v3.01c0,2.2.26,4.17.77,5.9.52,1.73,1.25,3.2,2.21,4.42.96,1.22,2.11,2.14,3.45,2.77,1.34.63,2.82.94,4.44.94,1.8,0,3.26-.15,4.38-.46,1.12-.3,1.99-.67,2.62-1.1.63-.43,1.11-.83,1.44-1.22v-8.54h-8.83v-4.09h13.87Z"/>
      <polygon class="cls-8" points="1290.46 1108.44 1278.19 1108.44 1273.21 1108.44 1260.97 1108.44 1260.97 1112.58 1273.21 1112.58 1273.21 1146.6 1278.19 1146.6 1278.19 1112.58 1290.46 1112.58 1290.46 1108.44"/>
      <polygon class="cls-8" points="1327.46 1108.44 1327.46 1124.85 1308.22 1124.85 1308.22 1108.44 1303.16 1108.44 1303.16 1146.6 1308.22 1146.6 1308.22 1128.96 1327.46 1128.96 1327.46 1146.6 1332.49 1146.6 1332.49 1108.44 1327.46 1108.44"/>
      <polygon class="cls-8" points="1353.55 1142.49 1353.55 1128.96 1370.06 1128.96 1370.06 1124.85 1353.55 1124.85 1353.55 1112.58 1372.48 1112.58 1372.48 1108.44 1353.55 1108.44 1352.53 1108.44 1348.49 1108.44 1348.49 1146.6 1352.53 1146.6 1353.55 1146.6 1372.74 1146.6 1372.74 1142.49 1353.55 1142.49"/>
      <polygon class="cls-8" points="1428.15 1112.58 1428.15 1108.44 1409.57 1108.44 1408.47 1108.44 1404.51 1108.44 1404.51 1146.6 1409.57 1146.6 1409.57 1129.75 1425.56 1129.75 1425.56 1125.61 1409.57 1125.61 1409.57 1112.58 1428.15 1112.58"/>
      <path class="cls-8" d="M1463.05,1108.44h5.03v25.82c0,2.87-.64,5.25-1.91,7.16-1.28,1.9-2.97,3.33-5.07,4.28-2.11.95-4.39,1.43-6.85,1.43-2.59,0-4.92-.48-7.01-1.43-2.09-.95-3.74-2.38-4.95-4.28-1.21-1.9-1.82-4.29-1.82-7.16v-25.82h5.01v25.82c0,1.99.37,3.63,1.1,4.93.73,1.29,1.76,2.25,3.08,2.88,1.32.63,2.85.94,4.6.94s3.31-.31,4.63-.94c1.32-.63,2.35-1.59,3.08-2.88.73-1.29,1.1-2.94,1.1-4.93v-25.82Z"/>
      <polygon class="cls-8" points="1509.43 1108.44 1497.17 1108.44 1492.19 1108.44 1479.95 1108.44 1479.95 1112.58 1492.19 1112.58 1492.19 1146.6 1497.17 1146.6 1497.17 1112.58 1509.43 1112.58 1509.43 1108.44"/>
      <path class="cls-8" d="M1543.97,1108.44h5.03v25.82c0,2.87-.64,5.25-1.91,7.16-1.28,1.9-2.97,3.33-5.07,4.28-2.11.95-4.39,1.43-6.85,1.43-2.59,0-4.92-.48-7.01-1.43-2.09-.95-3.74-2.38-4.95-4.28s-1.82-4.29-1.82-7.16v-25.82h5.01v25.82c0,1.99.37,3.63,1.1,4.93.73,1.29,1.76,2.25,3.08,2.88s2.85.94,4.6.94,3.31-.31,4.63-.94c1.32-.63,2.35-1.59,3.08-2.88.73-1.29,1.1-2.94,1.1-4.93v-25.82Z"/>
      <path class="cls-8" d="M1582.69,1130.03c1.17-.45,2.27-.98,3.19-1.68,1.32-1,2.33-2.23,3.04-3.67.71-1.44,1.06-3.04,1.06-4.78,0-2.48-.52-4.57-1.56-6.28-1.04-1.7-2.55-2.99-4.53-3.87-1.98-.87-4.41-1.31-7.27-1.31h-12.63v38.16h5.06v-15.46h8.95l8.29,15.46h5.4v-.31l-8.99-16.26ZM1569.04,1127.02v-14.44h7.57c1.94,0,3.53.3,4.76.91,1.23.6,2.14,1.45,2.71,2.55.58,1.1.86,2.39.86,3.85,0,1.31-.31,2.51-.92,3.59s-1.52,1.94-2.73,2.58c-1.21.64-2.72.96-4.53.96h-7.73Z"/>
      <polygon class="cls-8" points="1609.16 1142.49 1609.16 1128.96 1625.67 1128.96 1625.67 1124.85 1609.16 1124.85 1609.16 1112.58 1628.08 1112.58 1628.08 1108.44 1609.16 1108.44 1608.14 1108.44 1604.1 1108.44 1604.1 1146.6 1608.14 1146.6 1609.16 1146.6 1628.34 1146.6 1628.34 1142.49 1609.16 1142.49"/>
      <polygon class="cls-8" points="1683.76 1112.58 1683.76 1108.44 1665.17 1108.44 1664.07 1108.44 1660.11 1108.44 1660.11 1146.6 1665.17 1146.6 1665.17 1129.75 1681.16 1129.75 1681.16 1125.61 1665.17 1125.61 1665.17 1112.58 1683.76 1112.58"/>
      <path class="cls-8" d="M1717.09,1146.6h5.19l-14.6-38.16h-4.43l-14.55,38.16h5.16l3.63-9.99h15.96l3.63,9.99ZM1698.99,1132.47l6.47-17.81,6.48,17.81h-12.95Z"/>
      <path class="cls-8" d="M1753.14,1130.03c1.17-.45,2.27-.98,3.19-1.68,1.32-1,2.33-2.23,3.04-3.67.71-1.44,1.06-3.04,1.06-4.78,0-2.48-.52-4.57-1.56-6.28-1.04-1.7-2.55-2.99-4.53-3.87-1.98-.87-4.41-1.31-7.27-1.31h-12.63v38.16h5.06v-15.46h8.95l8.29,15.46h5.4v-.31l-8.99-16.26ZM1739.48,1127.02v-14.44h7.57c1.94,0,3.53.3,4.76.91,1.23.6,2.14,1.45,2.71,2.55.58,1.1.86,2.39.86,3.85,0,1.31-.31,2.51-.92,3.59-.61,1.08-1.52,1.94-2.73,2.58-1.21.64-2.72.96-4.53.96h-7.73Z"/>
      <polygon class="cls-8" points="1810.95 1108.44 1808.2 1108.44 1806.02 1108.44 1793.54 1139.55 1781.04 1108.44 1778.87 1108.44 1776.14 1108.44 1774.54 1108.44 1774.54 1146.6 1779.58 1146.6 1779.58 1131.71 1779.09 1115.71 1791.61 1146.6 1795.43 1146.6 1807.97 1115.76 1807.49 1131.71 1807.49 1146.6 1812.52 1146.6 1812.52 1108.44 1810.95 1108.44"/>
      <path class="cls-8" d="M1833.87,1108.44v38.16h-5.06v-38.16h5.06Z"/>
      <path class="cls-8" d="M1879.44,1108.44v38.16h-5.08l-19.21-29.43v29.43h-5.06v-38.16h5.06l19.29,29.51v-29.51h5.01Z"/>
      <path class="cls-8" d="M1923.62,1127.6v13.97c-.47.7-1.22,1.48-2.25,2.34-1.03.87-2.45,1.62-4.26,2.25-1.81.64-4.14.96-6.98.96-2.32,0-4.46-.41-6.41-1.22-1.95-.81-3.63-2-5.06-3.56-1.42-1.56-2.52-3.47-3.3-5.71-.78-2.24-1.17-4.79-1.17-7.64v-2.96c0-2.85.34-5.39,1.01-7.63.67-2.24,1.66-4.14,2.97-5.7,1.31-1.56,2.92-2.75,4.82-3.56,1.9-.81,4.09-1.22,6.55-1.22,2.92,0,5.36.5,7.33,1.51,1.97,1.01,3.5,2.39,4.61,4.16,1.11,1.76,1.82,3.77,2.14,6.03h-5.06c-.23-1.38-.68-2.64-1.35-3.77-.67-1.14-1.63-2.05-2.87-2.74-1.24-.69-2.84-1.03-4.8-1.03-1.76,0-3.29.32-4.59.97s-2.36,1.57-3.2,2.78c-.84,1.21-1.46,2.66-1.87,4.38-.41,1.71-.62,3.64-.62,5.79v3.01c0,2.2.26,4.17.77,5.9.52,1.73,1.25,3.2,2.21,4.42.96,1.22,2.11,2.14,3.45,2.77s2.82.94,4.44.94c1.8,0,3.26-.15,4.38-.46,1.12-.3,1.99-.67,2.62-1.1.63-.43,1.11-.83,1.44-1.22v-8.54h-8.83v-4.09h13.87Z"/>
    </g>
  </g>
  <g>
    <path class="cls-5" d="M150.36,1697.28c-4.26-7.2-10.44-12.85-18.53-16.94-8.09-4.09-17.84-6.14-29.25-6.14h-56.39v147.73h27.69v-53.88h28.7c11.41,0,21.16-1.86,29.25-5.58,8.09-3.72,14.26-9.03,18.53-15.93,4.26-6.9,6.39-15.12,6.39-24.66s-2.13-17.4-6.39-24.61ZM126.15,1734.52c-1.81,3.62-4.65,6.46-8.51,8.52-3.86,2.06-8.88,3.09-15.05,3.09h-28.7v-49.92h28.7c6.18,0,11.19,1.22,15.05,3.65,3.86,2.44,6.7,5.62,8.51,9.54,1.81,3.93,2.72,8.15,2.72,12.68s-.91,8.81-2.72,12.43Z"/>
    <path class="cls-5" d="M265.88,1759.4c4.19-1.84,8-4.05,11.37-6.67,4.87-3.79,8.64-8.49,11.33-14.1,2.68-5.61,4.03-12.24,4.03-19.89,0-9.67-2.15-17.82-6.44-24.45-4.3-6.63-10.44-11.63-18.43-15.02-7.99-3.38-17.56-5.07-28.7-5.07h-53.27v147.73h27.69v-55.8h26.46l28.63,55.8h29.71v-1.42l-32.36-61.1ZM213.45,1696.21h25.58c5.84,0,10.67.98,14.5,2.94,3.83,1.96,6.68,4.75,8.56,8.37,1.88,3.62,2.82,7.9,2.82,12.83,0,4.6-.96,8.69-2.87,12.28-1.91,3.59-4.75,6.39-8.51,8.42-3.76,2.03-8.49,3.04-14.2,3.04h-25.88v-47.89Z"/>
    <polygon class="cls-5" points="351.71 1800.01 351.71 1756.58 411.02 1756.58 411.02 1735.18 351.71 1735.18 351.71 1696.21 420.89 1696.21 420.89 1674.2 351.71 1674.2 343.25 1674.2 324.02 1674.2 324.02 1821.93 343.25 1821.93 351.71 1821.93 421.19 1821.93 421.19 1800.01 351.71 1800.01"/>
    <path class="cls-5" d="M533.37,1773.33h27.69c-.74,9.88-3.46,18.62-8.16,26.23-4.7,7.61-11.25,13.58-19.64,17.91-8.39,4.33-18.56,6.49-30.51,6.49-9.2,0-17.47-1.64-24.82-4.92-7.35-3.28-13.63-7.98-18.83-14.1-5.2-6.12-9.18-13.5-11.93-22.12-2.75-8.63-4.13-18.32-4.13-29.07v-11.26c0-10.75,1.41-20.46,4.23-29.12,2.82-8.66,6.86-16.05,12.13-22.17,5.27-6.12,11.61-10.84,19.03-14.15,7.42-3.31,15.72-4.97,24.92-4.97,11.95,0,22.05,2.22,30.31,6.65s14.67,10.5,19.23,18.21c4.56,7.71,7.32,16.57,8.26,26.58h-27.69c-.54-6.22-1.86-11.5-3.98-15.83-2.11-4.33-5.27-7.62-9.47-9.89-4.2-2.27-9.75-3.4-16.67-3.4-5.37,0-10.09,1.01-14.15,3.04-4.06,2.03-7.44,5.06-10.12,9.08-2.69,4.02-4.7,9.03-6.04,15.02-1.34,5.98-2.01,12.9-2.01,20.75v11.47c0,7.51.6,14.24,1.81,20.19,1.21,5.95,3.09,10.99,5.64,15.12,2.55,4.13,5.84,7.27,9.87,9.44,4.03,2.17,8.83,3.25,14.4,3.25,6.78,0,12.3-1.08,16.56-3.25,4.26-2.16,7.52-5.34,9.77-9.54,2.25-4.19,3.68-9.4,4.28-15.63Z"/>
    <path class="cls-5" d="M619.17,1674.2v147.73h-27.69v-147.73h27.69Z"/>
    <path class="cls-5" d="M732.96,1783.57c0-2.84-.42-5.39-1.26-7.66-.84-2.27-2.35-4.33-4.53-6.19-2.18-1.86-5.24-3.68-9.16-5.48-3.93-1.79-8.98-3.67-15.16-5.63-6.85-2.16-13.23-4.6-19.13-7.31-5.91-2.7-11.09-5.85-15.56-9.44-4.47-3.58-7.94-7.73-10.42-12.43-2.48-4.7-3.73-10.16-3.73-16.39s1.29-11.63,3.88-16.64c2.58-5,6.26-9.32,11.03-12.94,4.77-3.61,10.39-6.41,16.87-8.37,6.48-1.96,13.64-2.94,21.5-2.94,10.88,0,20.29,2,28.25,5.99,7.96,3.99,14.11,9.4,18.48,16.23,4.36,6.83,6.55,14.51,6.55,23.03h-27.59c0-4.6-.96-8.66-2.87-12.18-1.91-3.52-4.8-6.29-8.66-8.32-3.86-2.03-8.71-3.04-14.55-3.04s-10.32.85-14.05,2.54c-3.73,1.69-6.51,3.99-8.36,6.9-1.85,2.91-2.77,6.16-2.77,9.74,0,2.71.64,5.12,1.91,7.26,1.27,2.13,3.19,4.13,5.74,5.98,2.55,1.86,5.72,3.59,9.52,5.18,3.79,1.59,8.21,3.16,13.24,4.72,8.06,2.44,15.12,5.14,21.2,8.12,6.08,2.98,11.14,6.36,15.21,10.15,4.06,3.79,7.12,8.05,9.16,12.78,2.05,4.74,3.07,10.11,3.07,16.13,0,6.36-1.24,12.04-3.73,17.05-2.48,5.01-6.04,9.27-10.67,12.78-4.63,3.52-10.19,6.19-16.67,8.02-6.48,1.83-13.71,2.74-21.7,2.74-7.12,0-14.15-.96-21.1-2.89-6.95-1.92-13.24-4.83-18.88-8.73-5.64-3.89-10.14-8.82-13.49-14.81-3.36-5.98-5.03-13-5.03-21.05h27.79c0,4.67.76,8.64,2.27,11.92,1.51,3.28,3.66,5.95,6.44,8.02,2.79,2.06,6.06,3.57,9.82,4.51,3.76.95,7.82,1.42,12.18,1.42,5.64,0,10.29-.79,13.95-2.39,3.66-1.59,6.41-3.8,8.26-6.64,1.85-2.84,2.77-6.09,2.77-9.74Z"/>
    <path class="cls-5" d="M818.85,1674.2v147.73h-27.69v-147.73h27.69Z"/>
    <path class="cls-5" d="M974.64,1744.31v7.61c0,11.16-1.48,21.19-4.43,30.08-2.95,8.89-7.15,16.45-12.59,22.68-5.44,6.22-11.92,10.99-19.43,14.31-7.52,3.31-15.88,4.97-25.07,4.97s-17.37-1.66-24.92-4.97-14.08-8.08-19.59-14.31c-5.51-6.22-9.77-13.78-12.79-22.68-3.02-8.89-4.53-18.92-4.53-30.08v-7.61c0-11.23,1.51-21.27,4.53-30.13,3.02-8.86,7.25-16.42,12.69-22.68,5.44-6.26,11.93-11.04,19.49-14.36,7.55-3.31,15.86-4.97,24.92-4.97s17.55,1.66,25.07,4.97c7.52,3.32,14.01,8.1,19.49,14.36,5.47,6.26,9.7,13.82,12.69,22.68,2.99,8.86,4.48,18.91,4.48,30.13ZM946.64,1751.92v-7.81c0-8.05-.74-15.13-2.22-21.26-1.48-6.12-3.66-11.28-6.55-15.47-2.89-4.19-6.44-7.35-10.67-9.49-4.23-2.13-9-3.19-14.3-3.19s-10.12,1.07-14.25,3.19c-4.13,2.13-7.64,5.3-10.52,9.49-2.89,4.19-5.09,9.35-6.6,15.47-1.51,6.13-2.27,13.21-2.27,21.26v7.81c0,7.98.76,15.05,2.27,21.21,1.51,6.16,3.73,11.35,6.65,15.58,2.92,4.23,6.46,7.42,10.62,9.59,4.16,2.17,8.93,3.25,14.3,3.25s10.14-1.08,14.3-3.25c4.16-2.16,7.67-5.36,10.52-9.59,2.85-4.23,5.02-9.42,6.5-15.58,1.48-6.15,2.22-13.22,2.22-21.21Z"/>
    <path class="cls-5" d="M1123.17,1674.2v147.73h-27.79l-62.33-102.48v102.48h-27.69v-147.73h27.69l62.53,102.58v-102.58h27.59Z"/>
    <path class="cls-5" d="M1324.16,1745.53v57.53c-2.15,2.77-5.52,5.78-10.12,9.03-4.6,3.25-10.59,6.04-17.97,8.37-7.39,2.34-16.45,3.5-27.19,3.5-9.33,0-17.86-1.57-25.58-4.72-7.72-3.14-14.37-7.76-19.94-13.85-5.57-6.09-9.87-13.53-12.89-22.32-3.02-8.79-4.53-18.84-4.53-30.13v-9.74c0-11.29,1.43-21.34,4.28-30.13,2.85-8.79,6.95-16.23,12.29-22.32,5.34-6.09,11.75-10.72,19.23-13.9,7.48-3.18,15.86-4.77,25.12-4.77,12.42,0,22.64,2.06,30.66,6.19,8.02,4.13,14.18,9.79,18.48,16.99,4.3,7.21,6.98,15.47,8.06,24.81h-26.99c-.74-5.14-2.22-9.65-4.43-13.54-2.22-3.89-5.35-6.93-9.42-9.13-4.06-2.2-9.31-3.3-15.76-3.3-5.44,0-10.24,1.08-14.4,3.25-4.16,2.17-7.65,5.31-10.47,9.44-2.82,4.13-4.95,9.23-6.39,15.32-1.44,6.09-2.17,13.06-2.17,20.9v9.94c0,7.91.81,14.93,2.42,21.05,1.61,6.13,3.94,11.27,7,15.42,3.05,4.16,6.85,7.31,11.38,9.44,4.53,2.13,9.68,3.19,15.46,3.19,5.24,0,9.58-.46,13.04-1.37,3.46-.92,6.23-2.01,8.31-3.3,2.08-1.28,3.69-2.54,4.83-3.75v-27.7h-29.1v-20.39h56.79Z"/>
    <path class="cls-5" d="M1437.71,1759.4c4.19-1.84,8-4.05,11.37-6.67,4.87-3.79,8.64-8.49,11.33-14.1,2.68-5.61,4.03-12.24,4.03-19.89,0-9.67-2.15-17.82-6.44-24.45-4.3-6.63-10.44-11.63-18.43-15.02-7.99-3.38-17.56-5.07-28.7-5.07h-53.27v147.73h27.69v-55.8h26.46l28.63,55.8h29.71v-1.42l-32.36-61.1ZM1385.29,1696.21h25.58c5.84,0,10.67.98,14.5,2.94,3.83,1.96,6.68,4.75,8.56,8.37,1.88,3.62,2.82,7.9,2.82,12.83,0,4.6-.96,8.69-2.87,12.28-1.91,3.59-4.75,6.39-8.51,8.42-3.76,2.03-8.49,3.04-14.2,3.04h-25.88v-47.89Z"/>
    <path class="cls-5" d="M1614.58,1744.31v7.61c0,11.16-1.48,21.19-4.43,30.08-2.95,8.89-7.15,16.45-12.59,22.68-5.44,6.22-11.92,10.99-19.43,14.31-7.52,3.31-15.88,4.97-25.07,4.97s-17.37-1.66-24.92-4.97-14.08-8.08-19.59-14.31c-5.51-6.22-9.77-13.78-12.79-22.68-3.02-8.89-4.53-18.92-4.53-30.08v-7.61c0-11.23,1.51-21.27,4.53-30.13,3.02-8.86,7.25-16.42,12.69-22.68,5.44-6.26,11.93-11.04,19.49-14.36,7.55-3.31,15.86-4.97,24.92-4.97s17.55,1.66,25.07,4.97c7.52,3.32,14.01,8.1,19.49,14.36,5.47,6.26,9.7,13.82,12.69,22.68,2.99,8.86,4.48,18.91,4.48,30.13ZM1586.58,1751.92v-7.81c0-8.05-.74-15.13-2.22-21.26-1.48-6.12-3.66-11.28-6.55-15.47-2.89-4.19-6.44-7.35-10.67-9.49-4.23-2.13-9-3.19-14.3-3.19s-10.12,1.07-14.25,3.19c-4.13,2.13-7.64,5.3-10.52,9.49-2.89,4.19-5.09,9.35-6.6,15.47-1.51,6.13-2.27,13.21-2.27,21.26v7.81c0,7.98.76,15.05,2.27,21.21,1.51,6.16,3.73,11.35,6.65,15.58,2.92,4.23,6.46,7.42,10.62,9.59,4.16,2.17,8.93,3.25,14.3,3.25s10.14-1.08,14.3-3.25c4.16-2.16,7.67-5.36,10.52-9.59,2.85-4.23,5.02-9.42,6.5-15.58,1.48-6.15,2.22-13.22,2.22-21.21Z"/>
    <polygon class="cls-5" points="1781.24 1674.2 1759.97 1781.14 1733.91 1674.2 1726.35 1674.2 1718.2 1674.2 1710.55 1674.2 1684.42 1781.01 1662.91 1674.2 1635.42 1674.2 1668.65 1821.93 1679.43 1821.93 1686.88 1821.93 1696.15 1821.93 1722.18 1719.71 1748.11 1821.93 1757.37 1821.93 1764.82 1821.93 1775.6 1821.93 1808.83 1674.2 1781.24 1674.2"/>
    <path class="cls-5" d="M1989.03,1697.28c-4.26-7.2-10.44-12.85-18.53-16.94-8.09-4.09-17.84-6.14-29.25-6.14h-56.39v147.73h27.69v-53.88h28.7c11.41,0,21.16-1.86,29.25-5.58,8.09-3.72,14.26-9.03,18.53-15.93,4.26-6.9,6.39-15.12,6.39-24.66s-2.13-17.4-6.39-24.61ZM1964.81,1734.52c-1.81,3.62-4.65,6.46-8.51,8.52-3.86,2.06-8.88,3.09-15.05,3.09h-28.7v-49.92h28.7c6.18,0,11.19,1.22,15.05,3.65,3.86,2.44,6.7,5.62,8.51,9.54,1.81,3.93,2.72,8.15,2.72,12.68s-.91,8.81-2.72,12.43Z"/>
    <polygon class="cls-5" points="2112.54 1674.2 2077.29 1788.74 2042.25 1674.2 2011.64 1674.2 2063.19 1821.93 2071.05 1821.93 2083.84 1821.93 2091.49 1821.93 2143.25 1674.2 2112.54 1674.2"/>
    <polygon class="cls-5" points="2274.06 1674.2 2228.54 1674.2 2200.95 1674.2 2155.94 1674.2 2155.94 1696.21 2200.95 1696.21 2200.95 1821.93 2228.54 1821.93 2228.54 1696.21 2274.06 1696.21 2274.06 1674.2"/>
    <path class="cls-5" d="M2271.04,1808.84c0-4.06,1.38-7.47,4.13-10.25,2.75-2.77,6.48-4.16,11.18-4.16s8.42,1.39,11.18,4.16c2.75,2.77,4.13,6.19,4.13,10.25s-1.38,7.35-4.13,10.1c-2.75,2.74-6.48,4.11-11.18,4.11s-8.43-1.37-11.18-4.11c-2.75-2.74-4.13-6.11-4.13-10.1Z"/>
    <path class="cls-5" d="M2730.14,1808.84c0-4.06,1.38-7.47,4.13-10.25,2.75-2.77,6.48-4.16,11.18-4.16s8.42,1.39,11.18,4.16c2.75,2.77,4.13,6.19,4.13,10.25s-1.38,7.35-4.13,10.1c-2.75,2.74-6.48,4.11-11.18,4.11s-8.43-1.37-11.18-4.11c-2.75-2.74-4.13-6.11-4.13-10.1Z"/>
    <polygon class="cls-5" points="2413.12 1800.01 2413.12 1674.2 2385.43 1674.2 2385.43 1821.93 2404.76 1821.93 2413.12 1821.93 2478.48 1821.93 2478.48 1800.01 2413.12 1800.01"/>
    <polygon class="cls-5" points="2588.64 1674.2 2543.13 1674.2 2515.53 1674.2 2470.52 1674.2 2470.52 1696.21 2515.53 1696.21 2515.53 1821.93 2543.13 1821.93 2543.13 1696.21 2588.64 1696.21 2588.64 1674.2"/>
    <path class="cls-5" d="M2720.2,1715.59c-3.19-8.59-7.75-15.98-13.7-22.17-5.94-6.19-12.96-10.94-21.05-14.25-8.09-3.31-17.04-4.97-26.84-4.97h-44.41v147.73h43.8c10,0,19.1-1.66,27.29-4.97,8.19-3.31,15.26-8.05,21.2-14.2,5.94-6.15,10.51-13.55,13.7-22.17,3.19-8.63,4.78-18.21,4.78-28.77v-7.41c0-10.62-1.6-20.22-4.78-28.82ZM2696.99,1751.82c0,10.08-1.48,18.72-4.43,25.92-2.95,7.2-7.32,12.72-13.09,16.54-5.77,3.82-12.92,5.73-21.45,5.73h-16.11v-103.8h16.72c6.18,0,11.65,1.05,16.41,3.15,4.77,2.1,8.78,5.17,12.03,9.23,3.26,4.06,5.72,9.06,7.4,15.02,1.68,5.95,2.52,12.82,2.52,20.6v7.61Z"/>
  </g>
  <g>
    <path class="cls-3" d="M244.82,1931.64c-2.35-4.01-5.79-7.14-10.33-9.41-4.54-2.27-10.09-3.4-16.66-3.4h-32.07v86.95h11.53v-34.1h20.54c6.57,0,12.12-1.02,16.66-3.08,4.54-2.05,7.98-5.04,10.33-8.99,2.35-3.94,3.52-8.7,3.52-14.27,0-5.14-1.17-9.71-3.52-13.7ZM234.88,1954.18c-1.29,2.55-3.33,4.54-6.12,5.97-2.79,1.43-6.43,2.15-10.93,2.15h-20.54v-34.04h20.54c4.5,0,8.14.8,10.93,2.42,2.79,1.61,4.83,3.73,6.12,6.36,1.29,2.63,1.94,5.43,1.94,8.42,0,3.26-.65,6.17-1.94,8.72Z"/>
    <path class="cls-3" d="M291.32,1918.83v86.95h-11.53v-86.95h11.53Z"/>
    <path class="cls-3" d="M395.21,1959.56v5.49c0,6.53-.82,12.38-2.45,17.56s-3.98,9.58-7.05,13.2c-3.07,3.62-6.74,6.39-11.02,8.3-4.28,1.91-9.07,2.87-14.36,2.87s-9.84-.96-14.12-2.87c-4.28-1.91-7.98-4.68-11.11-8.3-3.13-3.62-5.54-8.02-7.26-13.2-1.71-5.18-2.57-11.03-2.57-17.56v-5.49c0-6.53.85-12.37,2.54-17.53,1.69-5.16,4.09-9.56,7.2-13.2,3.11-3.64,6.8-6.42,11.08-8.33,4.28-1.91,8.99-2.87,14.12-2.87s10.08.96,14.36,2.87c4.28,1.91,7.96,4.69,11.05,8.33,3.09,3.65,5.45,8.05,7.11,13.2,1.65,5.16,2.48,11,2.48,17.53ZM383.8,1965.05v-5.61c0-5.18-.53-9.75-1.58-13.74-1.06-3.98-2.6-7.33-4.63-10.03-2.03-2.71-4.51-4.76-7.44-6.15-2.93-1.39-6.24-2.09-9.94-2.09s-6.82.7-9.7,2.09c-2.89,1.39-5.35,3.44-7.41,6.15-2.05,2.71-3.63,6.05-4.75,10.03-1.11,3.98-1.67,8.56-1.67,13.74v5.61c0,5.22.56,9.83,1.67,13.82,1.11,4.01,2.72,7.37,4.81,10.1,2.09,2.73,4.58,4.79,7.46,6.18,2.89,1.39,6.12,2.09,9.7,2.09s7.07-.7,9.97-2.09c2.91-1.39,5.36-3.45,7.38-6.18,2.01-2.73,3.53-6.09,4.57-10.1,1.04-4,1.55-8.61,1.55-13.82Z"/>
    <path class="cls-3" d="M495.34,1918.83v86.95h-11.59l-43.77-67.07v67.07h-11.53v-86.95h11.53l43.95,67.24v-67.24h11.41Z"/>
    <polygon class="cls-3" points="543.27 1996.4 543.27 1965.59 580.89 1965.59 580.89 1956.21 543.27 1956.21 543.27 1928.26 586.38 1928.26 586.38 1918.83 543.27 1918.83 540.94 1918.83 531.74 1918.83 531.74 2005.78 540.94 2005.78 543.27 2005.78 586.98 2005.78 586.98 1996.4 543.27 1996.4"/>
    <polygon class="cls-3" points="628.82 1996.4 628.82 1965.59 666.45 1965.59 666.45 1956.21 628.82 1956.21 628.82 1928.26 671.94 1928.26 671.94 1918.83 628.82 1918.83 626.49 1918.83 617.3 1918.83 617.3 2005.78 626.49 2005.78 628.82 2005.78 672.54 2005.78 672.54 1996.4 628.82 1996.4"/>
    <path class="cls-3" d="M745.48,1968.02c2.67-1.03,5.16-2.23,7.26-3.83,3.01-2.28,5.31-5.07,6.93-8.36,1.61-3.28,2.42-6.92,2.42-10.9,0-5.65-1.18-10.42-3.55-14.3-2.37-3.88-5.81-6.82-10.33-8.81-4.52-1.99-10.04-2.99-16.57-2.99h-28.78v86.95h11.53v-35.23h20.4l18.9,35.23h12.3v-.72l-20.49-37.05ZM714.38,1961.17v-32.91h17.26c4.42,0,8.03.68,10.84,2.06,2.81,1.37,4.87,3.31,6.18,5.82,1.31,2.51,1.97,5.43,1.97,8.78,0,2.99-.7,5.71-2.09,8.18-1.39,2.47-3.46,4.43-6.21,5.88-2.75,1.45-6.19,2.18-10.33,2.18h-17.62Z"/>
    <path class="cls-3" d="M806.62,1918.83v86.95h-11.53v-86.95h11.53Z"/>
    <path class="cls-3" d="M910.45,1918.83v86.95h-11.59l-43.77-67.07v67.07h-11.53v-86.95h11.53l43.95,67.24v-67.24h11.41Z"/>
    <path class="cls-3" d="M1011.11,1962.48v31.83c-1.07,1.59-2.79,3.38-5.14,5.34-2.35,1.97-5.58,3.69-9.7,5.14-4.12,1.45-9.43,2.18-15.92,2.18-5.3,0-10.16-.92-14.6-2.78-4.44-1.85-8.28-4.55-11.53-8.12-3.24-3.56-5.75-7.9-7.52-13.02-1.77-5.11-2.66-10.92-2.66-17.41v-6.75c0-6.49.77-12.28,2.3-17.38,1.53-5.1,3.79-9.42,6.78-12.99,2.99-3.56,6.65-6.27,10.99-8.12,4.34-1.86,9.32-2.78,14.93-2.78,6.65,0,12.21,1.15,16.69,3.43,4.48,2.29,7.98,5.45,10.51,9.47,2.53,4.02,4.15,8.6,4.87,13.74h-11.53c-.52-3.15-1.54-6.01-3.08-8.6-1.53-2.59-3.71-4.67-6.54-6.24-2.83-1.57-6.47-2.36-10.93-2.36-4.02,0-7.5.74-10.45,2.21-2.95,1.47-5.37,3.58-7.29,6.33-1.91,2.75-3.33,6.07-4.27,9.97-.94,3.9-1.4,8.3-1.4,13.2v6.87c0,5.02.59,9.5,1.76,13.44,1.17,3.94,2.86,7.3,5.05,10.06,2.19,2.77,4.81,4.87,7.85,6.3,3.05,1.43,6.42,2.15,10.12,2.15,4.1,0,7.43-.35,9.97-1.05,2.55-.69,4.54-1.53,5.97-2.51,1.43-.97,2.53-1.9,3.28-2.77v-19.47h-20.13v-9.32h31.59Z"/>
    <polygon class="cls-3" points="1145.97 1918.83 1118.03 1918.83 1106.68 1918.83 1078.79 1918.83 1078.79 1928.26 1106.68 1928.26 1106.68 2005.78 1118.03 2005.78 1118.03 1928.26 1145.97 1928.26 1145.97 1918.83"/>
    <polygon class="cls-3" points="1230.27 1918.83 1230.27 1956.21 1186.44 1956.21 1186.44 1918.83 1174.91 1918.83 1174.91 2005.78 1186.44 2005.78 1186.44 1965.59 1230.27 1965.59 1230.27 2005.78 1241.74 2005.78 1241.74 1918.83 1230.27 1918.83"/>
    <polygon class="cls-3" points="1289.73 1996.4 1289.73 1965.59 1327.35 1965.59 1327.35 1956.21 1289.73 1956.21 1289.73 1928.26 1332.85 1928.26 1332.85 1918.83 1289.73 1918.83 1287.4 1918.83 1278.21 1918.83 1278.21 2005.78 1287.4 2005.78 1289.73 2005.78 1333.45 2005.78 1333.45 1996.4 1289.73 1996.4"/>
    <polygon class="cls-3" points="1459.71 1928.26 1459.71 1918.83 1417.37 1918.83 1414.86 1918.83 1405.84 1918.83 1405.84 2005.78 1417.37 2005.78 1417.37 1967.38 1453.79 1967.38 1453.79 1957.94 1417.37 1957.94 1417.37 1928.26 1459.71 1928.26"/>
    <path class="cls-3" d="M1539.23,1918.83h11.47v58.82c0,6.53-1.45,11.96-4.36,16.3-2.91,4.34-6.76,7.6-11.56,9.76-4.8,2.17-10,3.26-15.62,3.26-5.89,0-11.22-1.09-15.98-3.26-4.76-2.17-8.52-5.42-11.29-9.76-2.77-4.34-4.15-9.77-4.15-16.3v-58.82h11.41v58.82c0,4.54.84,8.28,2.51,11.23,1.67,2.95,4.01,5.14,7.02,6.57,3.01,1.43,6.5,2.15,10.48,2.15s7.53-.72,10.54-2.15c3.01-1.43,5.34-3.62,7.02-6.57,1.67-2.95,2.51-6.69,2.51-11.23v-58.82Z"/>
    <polygon class="cls-3" points="1644.91 1918.83 1616.96 1918.83 1605.61 1918.83 1577.72 1918.83 1577.72 1928.26 1605.61 1928.26 1605.61 2005.78 1616.96 2005.78 1616.96 1928.26 1644.91 1928.26 1644.91 1918.83"/>
    <path class="cls-3" d="M1723.6,1918.83h11.47v58.82c0,6.53-1.45,11.96-4.36,16.3-2.91,4.34-6.76,7.6-11.56,9.76-4.8,2.17-10,3.26-15.62,3.26-5.89,0-11.22-1.09-15.98-3.26-4.76-2.17-8.52-5.42-11.29-9.76-2.77-4.34-4.15-9.77-4.15-16.3v-58.82h11.41v58.82c0,4.54.84,8.28,2.51,11.23,1.67,2.95,4.01,5.14,7.02,6.57,3.01,1.43,6.5,2.15,10.48,2.15s7.53-.72,10.54-2.15c3.01-1.43,5.34-3.62,7.02-6.57,1.67-2.95,2.51-6.69,2.51-11.23v-58.82Z"/>
    <path class="cls-3" d="M1811.83,1968.02c2.67-1.03,5.16-2.23,7.26-3.83,3.01-2.28,5.31-5.07,6.93-8.36,1.61-3.28,2.42-6.92,2.42-10.9,0-5.65-1.18-10.42-3.55-14.3-2.37-3.88-5.81-6.82-10.33-8.81-4.52-1.99-10.04-2.99-16.57-2.99h-28.79v86.95h11.53v-35.23h20.4l18.9,35.23h12.3v-.72l-20.49-37.05ZM1780.73,1961.17v-32.91h17.26c4.42,0,8.03.68,10.84,2.06,2.81,1.37,4.87,3.31,6.18,5.82,1.31,2.51,1.97,5.43,1.97,8.78,0,2.99-.7,5.71-2.09,8.18s-3.46,4.43-6.21,5.88c-2.75,1.45-6.19,2.18-10.33,2.18h-17.62Z"/>
    <polygon class="cls-3" points="1872.13 1996.4 1872.13 1965.59 1909.76 1965.59 1909.76 1956.21 1872.13 1956.21 1872.13 1928.26 1915.25 1928.26 1915.25 1918.83 1872.13 1918.83 1869.8 1918.83 1860.61 1918.83 1860.61 2005.78 1869.8 2005.78 1872.13 2005.78 1915.85 2005.78 1915.85 1996.4 1872.13 1996.4"/>
    <polygon class="cls-3" points="2042.11 1928.26 2042.11 1918.83 1999.77 1918.83 1997.26 1918.83 1988.24 1918.83 1988.24 2005.78 1999.77 2005.78 1999.77 1967.38 2036.19 1967.38 2036.19 1957.94 1999.77 1957.94 1999.77 1928.26 2042.11 1928.26"/>
    <path class="cls-3" d="M2118.05,2005.78h11.82l-33.26-86.95h-10.09l-33.14,86.95h11.76l8.26-22.75h36.37l8.28,22.75ZM2076.83,1973.59l14.74-40.57,14.77,40.57h-29.5Z"/>
    <path class="cls-3" d="M2200.19,1968.02c2.67-1.03,5.16-2.23,7.26-3.83,3.01-2.28,5.31-5.07,6.93-8.36,1.61-3.28,2.42-6.92,2.42-10.9,0-5.65-1.18-10.42-3.55-14.3-2.37-3.88-5.81-6.82-10.33-8.81-4.52-1.99-10.04-2.99-16.57-2.99h-28.78v86.95h11.53v-35.23h20.4l18.9,35.23h12.3v-.72l-20.49-37.05ZM2169.08,1961.17v-32.91h17.26c4.42,0,8.03.68,10.84,2.06,2.81,1.37,4.87,3.31,6.18,5.82,1.31,2.51,1.97,5.43,1.97,8.78,0,2.99-.7,5.71-2.09,8.18-1.39,2.47-3.46,4.43-6.21,5.88-2.75,1.45-6.19,2.18-10.33,2.18h-17.62Z"/>
    <polygon class="cls-3" points="2331.92 1918.83 2325.65 1918.83 2320.69 1918.83 2292.26 1989.72 2263.78 1918.83 2258.82 1918.83 2252.61 1918.83 2248.97 1918.83 2248.97 2005.78 2260.43 2005.78 2260.43 1971.86 2259.32 1935.4 2287.84 2005.78 2296.56 2005.78 2325.14 1935.5 2324.03 1971.86 2324.03 2005.78 2335.5 2005.78 2335.5 1918.83 2331.92 1918.83"/>
    <path class="cls-3" d="M2384.15,1918.83v86.95h-11.53v-86.95h11.53Z"/>
    <path class="cls-3" d="M2487.98,1918.83v86.95h-11.59l-43.77-67.07v67.07h-11.53v-86.95h11.53l43.95,67.24v-67.24h11.41Z"/>
    <path class="cls-3" d="M2588.64,1962.48v31.83c-1.07,1.59-2.79,3.38-5.14,5.34-2.35,1.97-5.58,3.69-9.7,5.14-4.12,1.45-9.43,2.18-15.92,2.18-5.3,0-10.16-.92-14.6-2.78-4.44-1.85-8.28-4.55-11.53-8.12-3.24-3.56-5.75-7.9-7.52-13.02-1.77-5.11-2.66-10.92-2.66-17.41v-6.75c0-6.49.77-12.28,2.3-17.38,1.53-5.1,3.79-9.42,6.78-12.99,2.99-3.56,6.65-6.27,10.99-8.12,4.34-1.86,9.32-2.78,14.93-2.78,6.65,0,12.21,1.15,16.69,3.43,4.48,2.29,7.98,5.45,10.51,9.47,2.53,4.02,4.15,8.6,4.87,13.74h-11.53c-.52-3.15-1.54-6.01-3.08-8.6-1.53-2.59-3.71-4.67-6.54-6.24-2.83-1.57-6.47-2.36-10.93-2.36-4.02,0-7.5.74-10.45,2.21s-5.37,3.58-7.29,6.33c-1.91,2.75-3.33,6.07-4.27,9.97-.94,3.9-1.4,8.3-1.4,13.2v6.87c0,5.02.59,9.5,1.76,13.44,1.17,3.94,2.86,7.3,5.05,10.06,2.19,2.77,4.81,4.87,7.85,6.3,3.05,1.43,6.42,2.15,10.12,2.15,4.1,0,7.43-.35,9.97-1.05,2.55-.69,4.54-1.53,5.97-2.51,1.43-.97,2.53-1.9,3.28-2.77v-19.47h-20.13v-9.32h31.59Z"/>
  </g>
</svg>