<svg width="181" height="106" viewBox="0 0 181 106" fill="none" xmlns="http://www.w3.org/2000/svg">
<path d="M178.703 105.155C180.191 87.8199 179.32 69.5883 175.644 52.6097C170.443 28.5758 155.805 10.7216 132.293 3.51627C119.527 -0.398358 105 -1.88709 92.421 3.51627C77.408 9.97995 70.0747 26.2757 61.0349 38.9782C58.8714 42.0199 56.6922 43.8888 52.8772 43.8192C48.0987 43.7309 43.2912 42.7134 38.4969 43.0775C30.4522 43.6853 27.2989 49.6055 25.7498 56.8912C25.1958 59.4965 24.3083 62.2463 22.2079 63.8234C21.3309 64.4848 20.2991 64.8945 19.2804 65.2961C11.1411 68.5092 6.11311 70.5816 2.14325 78.684C-0.613606 88.5188 0.07692 105.612 0.07692 105.612H181L178.703 105.155Z" fill="#0F913D"/>
<path opacity="0.8" d="M178.703 105.155C180.191 87.8199 179.32 69.5883 175.644 52.6097C170.443 28.5758 155.805 10.7216 132.293 3.51627C119.527 -0.398358 105 -1.88709 92.421 3.51627C77.408 9.97995 70.0747 26.2757 61.0349 38.9782C58.8714 42.0199 56.6922 43.8888 52.8772 43.8192C48.0987 43.7309 43.2912 42.7134 38.4969 43.0775C30.4522 43.6853 27.2989 49.6055 25.7498 56.8912C25.1958 59.4965 24.3083 62.2463 22.2079 63.8234C21.3309 64.4848 20.2991 64.8945 19.2804 65.2961C11.1411 68.5092 6.11311 70.5816 2.14325 78.684C-0.613606 88.5188 0.07692 105.612 0.07692 105.612H181L178.703 105.155Z" fill="white"/>
<path d="M105.585 45.0234L114.618 52.6851L122.131 75.254H115.021L105.585 45.0234Z" fill="#263238" stroke="#263238" stroke-miterlimit="10"/>
<path d="M158.715 62.8281H107.328V83.9198H158.715V62.8281Z" fill="#C2C2C2" stroke="#263238" stroke-miterlimit="10"/>
<path d="M156.164 83.6895H107.328V104.781H156.164V83.6895Z" fill="#0F913D" stroke="#263238" stroke-miterlimit="10"/>
<path d="M124.343 83.6895H107.328V104.781H124.343V83.6895Z" fill="#263238" stroke="#263238" stroke-miterlimit="10"/>
<path d="M156.164 83.6895H107.328V86.5658H156.164V83.6895Z" fill="#263238" stroke="#263238" stroke-miterlimit="10"/>
<path d="M107.328 83.9146H120.809L120.747 80.7418L114.76 62.8281H107.328V83.9146Z" fill="#263238" stroke="#263238" stroke-miterlimit="10"/>
<path d="M158.715 82.1543H107.328V83.9176H158.715V82.1543Z" fill="white" stroke="#263238" stroke-miterlimit="10"/>
<path d="M120.744 80.7433V104.774H24.1636V80.7433H27.54L27.4533 80.634L39.5922 45.7742L61.3453 35.0906L72.1785 29.7695L83.8329 35.4911L104.765 45.7742L116.848 80.634L116.761 80.7433H120.744Z" fill="#0F913D" stroke="#263238" stroke-miterlimit="10"/>
<path d="M121.256 80.7422H120.236V104.773H121.256V80.7422Z" fill="white" stroke="#263238" stroke-miterlimit="10"/>
<path d="M24.6807 80.7422H23.6606V104.773H24.6807V80.7422Z" fill="white" stroke="#263238" stroke-miterlimit="10"/>
<path d="M94.7187 87.4004H89.0471V94.6251H94.7187V87.4004Z" fill="white" stroke="#263238" stroke-miterlimit="10"/>
<path d="M93.5956 88.8242H90.1631V93.1986H93.5956V88.8242Z" fill="#263238"/>
<path d="M91.8372 87.916V93.9757" stroke="white" stroke-miterlimit="10"/>
<path d="M89.3777 91.0801H94.1618" stroke="white" stroke-miterlimit="10"/>
<path d="M108.768 87.4004H103.096V94.6251H108.768V87.4004Z" fill="white" stroke="#263238" stroke-miterlimit="10"/>
<path d="M107.654 88.8242H104.221V93.1986H107.654V88.8242Z" fill="#263238"/>
<path d="M105.896 87.916V93.9757" stroke="white" stroke-miterlimit="10"/>
<path d="M103.436 91.0801H108.22" stroke="white" stroke-miterlimit="10"/>
<path d="M78.744 61.8359H64.5701V77.6118H78.744V61.8359Z" fill="white" stroke="#263238" stroke-miterlimit="10"/>
<path d="M77.0036 63.7773H66.3132V75.6729H77.0036V63.7773Z" fill="#263238"/>
<path d="M65.2292 77.0663L77.7507 63.293" stroke="white" stroke-miterlimit="10"/>
<path d="M77.9652 76.4848L65.4795 63.0859" stroke="white" stroke-miterlimit="10"/>
<path d="M141.665 86.5625H133.367V95.795H141.665V86.5625Z" fill="white" stroke="#263238" stroke-miterlimit="10"/>
<path d="M140.64 87.6992H134.382V94.6639H140.64V87.6992Z" fill="#263238"/>
<path d="M133.752 95.4743L141.082 87.4121" stroke="white" stroke-miterlimit="10"/>
<path d="M141.197 95.1367L133.888 87.293" stroke="white" stroke-miterlimit="10"/>
<path d="M141.665 95.5391H133.367V104.772H141.665V95.5391Z" fill="white" stroke="#263238" stroke-miterlimit="10"/>
<path d="M140.64 96.6738H134.382V103.638H140.64V96.6738Z" fill="#263238"/>
<path d="M133.752 104.449L141.082 96.3867" stroke="white" stroke-miterlimit="10"/>
<path d="M141.197 104.113L133.888 96.2695" stroke="white" stroke-miterlimit="10"/>
<path d="M94.3994 45.9941H88.7278V53.2189H94.3994V45.9941Z" fill="white" stroke="#263238" stroke-miterlimit="10"/>
<path d="M93.2856 47.416H89.853V51.7904H93.2856V47.416Z" fill="#263238"/>
<path d="M91.5271 46.5059V52.5655" stroke="white" stroke-miterlimit="10"/>
<path d="M89.0676 49.6719H93.8518" stroke="white" stroke-miterlimit="10"/>
<path d="M52.7849 45.9941H47.1133V53.2189H52.7849V45.9941Z" fill="white" stroke="#263238" stroke-miterlimit="10"/>
<path d="M51.6686 47.416H48.2361V51.7904H51.6686V47.416Z" fill="#263238"/>
<path d="M49.9102 46.5059V52.5655" stroke="white" stroke-miterlimit="10"/>
<path d="M47.46 49.6719H52.2441" stroke="white" stroke-miterlimit="10"/>
<path d="M38.0899 87.4004H32.4233V94.6251H38.0899V87.4004Z" fill="white" stroke="#263238" stroke-miterlimit="10"/>
<path d="M36.9697 88.8242H33.5371V93.1986H36.9697V88.8242Z" fill="#263238"/>
<path d="M35.2136 87.916V93.9757" stroke="white" stroke-miterlimit="10"/>
<path d="M32.7634 91.0801H37.5425" stroke="white" stroke-miterlimit="10"/>
<path d="M52.1392 87.4004H46.4727V94.6251H52.1392V87.4004Z" fill="white" stroke="#263238" stroke-miterlimit="10"/>
<path d="M51.028 88.8242H47.5955V93.1986H51.028V88.8242Z" fill="#263238"/>
<path d="M49.2717 87.916V93.9757" stroke="white" stroke-miterlimit="10"/>
<path d="M46.8125 91.0801H51.5967" stroke="white" stroke-miterlimit="10"/>
<path d="M90.6453 86.3477H49.6484V104.776H90.6453V86.3477Z" fill="white" stroke="#263238" stroke-miterlimit="10"/>
<path d="M82.9083 86.3477H57.3962V104.776H82.9083V86.3477Z" fill="#263238" stroke="#263238" stroke-miterlimit="10"/>
<path d="M83.8338 35.4911V54.1745H61.3462V35.0906L72.1794 29.7695L83.8338 35.4911Z" stroke="white" stroke-miterlimit="10"/>
<path d="M31.6499 80.4288L43.4573 46.526L74.8756 31.0935L72.458 29.9023L60.9363 35.291L39.9023 45.621L28.0337 79.7006H27.7736L27.4523 80.6316L27.539 80.7409H25.3254V81.7811H32.7261L31.6499 80.4288Z" fill="#263238" stroke="#263238" stroke-miterlimit="10"/>
<path d="M122.201 81.782H114.627L115.699 80.4296L103.947 46.5269L72.1821 30.9227L40.417 46.5269L28.6096 80.4296L29.6858 81.782H22.2852V79.7015H26.697L38.7747 45.0237L72.1821 28.6133L105.59 45.0237L117.611 79.7015H122.201V81.782Z" fill="white" stroke="#263238" stroke-miterlimit="10"/>
<path d="M117.669 81.7825H120.744V80.7422H118.495L117.669 81.7825Z" fill="white" stroke="#263238" stroke-miterlimit="10"/>
</svg>
