<svg width="22" height="19" viewBox="0 0 22 19" fill="none" xmlns="http://www.w3.org/2000/svg">
<path d="M6.75042 17.2504C6.75042 17.5471 6.66244 17.8371 6.49762 18.0838C6.3328 18.3304 6.09853 18.5227 5.82444 18.6362C5.55035 18.7498 5.24875 18.7795 4.95778 18.7216C4.66681 18.6637 4.39954 18.5209 4.18976 18.3111C3.97998 18.1013 3.83712 17.834 3.77924 17.5431C3.72136 17.2521 3.75107 16.9505 3.8646 16.6764C3.97813 16.4023 4.17039 16.168 4.41706 16.0032C4.66374 15.8384 4.95374 15.7504 5.25042 15.7504C5.64824 15.7504 6.02977 15.9085 6.31108 16.1898C6.59238 16.4711 6.75042 16.8526 6.75042 17.2504ZM18.7504 15.7504C18.4537 15.7504 18.1637 15.8384 17.9171 16.0032C17.6704 16.168 17.4781 16.4023 17.3646 16.6764C17.2511 16.9505 17.2214 17.2521 17.2792 17.5431C17.3371 17.834 17.48 18.1013 17.6898 18.3111C17.8995 18.5209 18.1668 18.6637 18.4578 18.7216C18.7488 18.7795 19.0504 18.7498 19.3244 18.6362C19.5985 18.5227 19.8328 18.3304 19.9976 18.0838C20.1624 17.8371 20.2504 17.5471 20.2504 17.2504C20.2504 16.8526 20.0924 16.4711 19.8111 16.1898C19.5298 15.9085 19.1482 15.7504 18.7504 15.7504ZM21.0004 12.7504H3.75042V3.31073C3.75105 3.11367 3.7125 2.91846 3.63702 2.73643C3.56154 2.55441 3.45062 2.3892 3.31073 2.25042L1.28104 0.219792C1.21136 0.150109 1.12863 0.0948341 1.03759 0.0571221C0.946544 0.0194101 0.848963 0 0.750417 0C0.551394 0 0.360523 0.0790615 0.219792 0.219792C0.150109 0.289475 0.094834 0.3722 0.057122 0.463245C0.01941 0.554289 0 0.651871 0 0.750417C0 0.94944 0.0790616 1.14031 0.219792 1.28104L2.25042 3.31073V12.7504H1.50042C1.3015 12.7504 1.11074 12.8294 0.970087 12.9701C0.829435 13.1107 0.750417 13.3015 0.750417 13.5004C0.750417 13.6993 0.829435 13.8901 0.970087 14.0307C1.11074 14.1714 1.3015 14.2504 1.50042 14.2504H21.0004C21.1993 14.2504 21.3901 14.1714 21.5307 14.0307C21.6714 13.8901 21.7504 13.6993 21.7504 13.5004C21.7504 13.3015 21.6714 13.1107 21.5307 12.9701C21.3901 12.8294 21.1993 12.7504 21.0004 12.7504ZM6.75042 11.2504H18.7504C19.1482 11.2504 19.5298 11.0924 19.8111 10.8111C20.0924 10.5298 20.2504 10.1482 20.2504 9.75042V3.75042C20.2504 3.35259 20.0924 2.97106 19.8111 2.68976C19.5298 2.40845 19.1482 2.25042 18.7504 2.25042H6.75042C6.35259 2.25042 5.97106 2.40845 5.68976 2.68976C5.40845 2.97106 5.25042 3.35259 5.25042 3.75042V9.75042C5.25042 10.1482 5.40845 10.5298 5.68976 10.8111C5.97106 11.0924 6.35259 11.2504 6.75042 11.2504Z" fill="#0F913D"/>
</svg>
