<svg width="23" height="18" viewBox="0 0 23 18" fill="none" xmlns="http://www.w3.org/2000/svg">
<path d="M21.75 15.7497H21V7.00004C21 6.75318 20.9391 6.51014 20.8226 6.29247C20.7062 6.0748 20.5378 5.88923 20.3325 5.75222L12.0825 0.251912C11.8361 0.0876526 11.5466 0 11.2505 0C10.9543 0 10.6648 0.0876526 10.4184 0.251912L2.16844 5.75222C1.96292 5.88912 1.79437 6.07464 1.67777 6.29232C1.56116 6.51 1.5001 6.7531 1.5 7.00004V15.7497H0.75C0.551088 15.7497 0.360322 15.8287 0.21967 15.9694C0.0790176 16.11 0 16.3008 0 16.4997C0 16.6986 0.0790176 16.8894 0.21967 17.0301C0.360322 17.1707 0.551088 17.2497 0.75 17.2497H21.75C21.9489 17.2497 22.1397 17.1707 22.2803 17.0301C22.421 16.8894 22.5 16.6986 22.5 16.4997C22.5 16.3008 22.421 16.11 22.2803 15.9694C22.1397 15.8287 21.9489 15.7497 21.75 15.7497ZM3 7.00004L11.25 1.49972L19.5 6.9991V15.7497H17.25V10.4997C17.25 10.3008 17.171 10.11 17.0303 9.96939C16.8897 9.82874 16.6989 9.74972 16.5 9.74972H6C5.80109 9.74972 5.61032 9.82874 5.46967 9.96939C5.32902 10.11 5.25 10.3008 5.25 10.4997V15.7497H3V7.00004ZM15.75 11.2497V12.7497H12V11.2497H15.75ZM10.5 12.7497H6.75V11.2497H10.5V12.7497ZM6.75 14.2497H10.5V15.7497H6.75V14.2497ZM12 14.2497H15.75V15.7497H12V14.2497Z" fill="#0F913D"/>
</svg>
