<svg width="40" height="40" viewBox="0 0 40 40" fill="none" xmlns="http://www.w3.org/2000/svg">
<rect width="40" height="40" rx="20" fill="#FFF8DD"/>
<path d="M30.5 25.9997H29.75V17.25C29.75 17.0032 29.6891 16.7601 29.5726 16.5425C29.4562 16.3248 29.2878 16.1392 29.0825 16.0022L20.8325 10.5019C20.5861 10.3377 20.2966 10.25 20.0005 10.25C19.7043 10.25 19.4148 10.3377 19.1684 10.5019L10.9184 16.0022C10.7129 16.1391 10.5444 16.3246 10.4278 16.5423C10.3112 16.76 10.2501 17.0031 10.25 17.25V25.9997H9.5C9.30109 25.9997 9.11032 26.0787 8.96967 26.2194C8.82902 26.36 8.75 26.5508 8.75 26.7497C8.75 26.9486 8.82902 27.1394 8.96967 27.2801C9.11032 27.4207 9.30109 27.4997 9.5 27.4997H30.5C30.6989 27.4997 30.8897 27.4207 31.0303 27.2801C31.171 27.1394 31.25 26.9486 31.25 26.7497C31.25 26.5508 31.171 26.36 31.0303 26.2194C30.8897 26.0787 30.6989 25.9997 30.5 25.9997ZM20.75 19.9997H26V22.2497H20.75V19.9997ZM19.25 22.2497H14V19.9997H19.25V22.2497ZM14 23.7497H19.25V25.9997H14V23.7497ZM20.75 23.7497H26V25.9997H20.75V23.7497Z" fill="#FFCC00"/>
</svg>
