<svg width="40" height="40" viewBox="0 0 40 40" fill="none" xmlns="http://www.w3.org/2000/svg">
<rect width="40" height="40" rx="20" fill="#C9EEFF"/>
<path d="M20 10.25C18.0716 10.25 16.1866 10.8218 14.5832 11.8932C12.9798 12.9645 11.7301 14.4873 10.9922 16.2688C10.2542 18.0504 10.0611 20.0108 10.4373 21.9021C10.8136 23.7934 11.7422 25.5307 13.1057 26.8943C14.4693 28.2579 16.2066 29.1865 18.0979 29.5627C19.9892 29.9389 21.9496 29.7458 23.7312 29.0078C25.5127 28.2699 27.0355 27.0202 28.1068 25.4168C29.1782 23.8134 29.75 21.9284 29.75 20C29.7473 17.415 28.7192 14.9366 26.8913 13.1087C25.0634 11.2808 22.585 10.2527 20 10.25ZM23.5925 17H24.5C24.6989 17 24.8897 17.079 25.0303 17.2197C25.171 17.3603 25.25 17.5511 25.25 17.75C25.25 17.9489 25.171 18.1397 25.0303 18.2803C24.8897 18.421 24.6989 18.5 24.5 18.5H23.7322C23.6374 19.5242 23.1639 20.4762 22.4043 21.1698C21.6447 21.8634 20.6536 22.2485 19.625 22.25H18.4363L23.4603 26.1584C23.5418 26.2175 23.6106 26.2923 23.6626 26.3785C23.7146 26.4647 23.7487 26.5605 23.7629 26.6602C23.7771 26.7599 23.771 26.8613 23.7452 26.9586C23.7193 27.0559 23.6741 27.147 23.6123 27.2264C23.5505 27.3059 23.4733 27.3721 23.3853 27.4211C23.2974 27.47 23.2005 27.5008 23.1004 27.5116C23.0003 27.5223 22.8991 27.5128 22.8028 27.4836C22.7064 27.4544 22.617 27.4061 22.5397 27.3416L15.7897 22.0916C15.6665 21.9956 15.5764 21.8635 15.5319 21.7138C15.4873 21.5642 15.4906 21.4043 15.5413 21.2566C15.592 21.1089 15.6875 20.9807 15.8146 20.8899C15.9416 20.799 16.0938 20.7502 16.25 20.75H19.625C20.2562 20.7499 20.8662 20.5225 21.3433 20.1092C21.8204 19.696 22.1326 19.1247 22.2228 18.5H16.25C16.0511 18.5 15.8603 18.421 15.7197 18.2803C15.579 18.1397 15.5 17.9489 15.5 17.75C15.5 17.5511 15.579 17.3603 15.7197 17.2197C15.8603 17.079 16.0511 17 16.25 17H21.9959C21.7831 16.5513 21.4474 16.1722 21.0277 15.9067C20.608 15.6412 20.1216 15.5001 19.625 15.5H16.25C16.0511 15.5 15.8603 15.421 15.7197 15.2803C15.579 15.1397 15.5 14.9489 15.5 14.75C15.5 14.5511 15.579 14.3603 15.7197 14.2197C15.8603 14.079 16.0511 14 16.25 14H24.5C24.6989 14 24.8897 14.079 25.0303 14.2197C25.171 14.3603 25.25 14.5511 25.25 14.75C25.25 14.9489 25.171 15.1397 25.0303 15.2803C24.8897 15.421 24.6989 15.5 24.5 15.5H22.805C23.1688 15.9399 23.4369 16.4508 23.5925 17Z" fill="#32ADE6"/>
</svg>
