<svg width="40" height="40" viewBox="0 0 40 40" fill="none" xmlns="http://www.w3.org/2000/svg">
<rect width="40" height="40" rx="20" fill="#E1FFDD"/>
<path d="M27.5 13.2497C26.4787 13.2498 25.4663 13.4405 24.515 13.8122C23.1725 11.0278 20.4603 9.64405 20.3366 9.58124C20.2324 9.5291 20.1175 9.50195 20.0009 9.50195C19.8844 9.50195 19.7695 9.5291 19.6653 9.58124C19.5406 9.64124 16.8284 11.025 15.4859 13.8122C14.5343 13.4404 13.5217 13.2496 12.5 13.2497C12.3011 13.2497 12.1103 13.3287 11.9697 13.4693C11.829 13.61 11.75 13.8008 11.75 13.9997V21.4997C11.7524 23.4836 12.4688 25.4004 13.7681 26.8998C15.0674 28.3991 16.8628 29.3807 18.8263 29.6653C18.8794 29.6723 18.9335 29.6678 18.9848 29.6521C19.036 29.6364 19.0834 29.6099 19.1235 29.5743C19.1637 29.5388 19.1958 29.495 19.2176 29.446C19.2394 29.397 19.2505 29.3439 19.25 29.2903V24.525C19.2476 24.3315 19.3185 24.1443 19.4483 24.0008C19.5782 23.8574 19.7575 23.7683 19.9503 23.7516C20.0529 23.7447 20.1558 23.7591 20.2526 23.7937C20.3494 23.8284 20.4381 23.8825 20.5131 23.9529C20.5881 24.0232 20.6478 24.1082 20.6885 24.2026C20.7293 24.297 20.7502 24.3987 20.75 24.5016V29.2959C20.7495 29.3496 20.7606 29.4027 20.7824 29.4517C20.8042 29.5007 20.8363 29.5444 20.8765 29.5799C20.9166 29.6155 20.964 29.642 21.0152 29.6577C21.0665 29.6734 21.1206 29.6779 21.1737 29.6709C23.1381 29.3862 24.9344 28.4037 26.2338 26.9033C27.5332 25.4028 28.2489 23.4846 28.25 21.4997V13.9997C28.25 13.8008 28.171 13.61 28.0303 13.4693C27.8897 13.3287 27.6989 13.2497 27.5 13.2497ZM19.25 22.0116C18.5622 21.0312 17.6692 20.2124 16.6331 19.6119C15.597 19.0115 14.4425 18.6438 13.25 18.5344V14.7909C14.8994 14.9774 16.4224 15.7642 17.529 17.0015C18.6355 18.2387 19.2481 19.8398 19.25 21.4997V22.0116ZM20 18.0647C19.3173 16.5839 18.214 15.3368 16.8275 14.4787C17.6909 12.6778 19.3025 11.5416 20 11.1131C20.6984 11.5425 22.3091 12.6787 23.1725 14.4787C21.786 15.3368 20.6827 16.5839 20 18.0647ZM26.75 18.5334C25.5575 18.6428 24.403 19.0105 23.3669 19.611C22.3308 20.2114 21.4378 21.0303 20.75 22.0106V21.4997C20.7519 19.8398 21.3645 18.2387 22.471 17.0015C23.5776 15.7642 25.1006 14.9774 26.75 14.7909V18.5334Z" fill="#0F913D"/>
</svg>
