<svg width="149" height="148" viewBox="0 0 149 148" fill="none" xmlns="http://www.w3.org/2000/svg">
<path d="M145.371 67.4274C142.989 55.8635 138.002 44.9948 130.789 35.6474C123.576 26.3 114.327 18.7199 103.745 13.483C101.487 12.3644 99.0916 11.2405 96.5599 10.1113C64.86 -3.97758 46.6085 8.19008 37.3226 22.2789C28.0368 36.3678 16.5095 60.7031 9.14488 72.5506C1.78025 84.398 -7.8258 109.374 10.7459 126.665C29.3176 143.956 46.9287 138.192 59.0963 133.389C71.264 128.586 83.4316 132.748 105.846 132.748C128.26 132.748 146.832 115.458 148.112 94.0041C148.58 86.1527 147.248 76.4987 145.371 67.4274Z" fill="#0F913D"/>
<path opacity="0.7" d="M145.371 67.4274C142.989 55.8635 138.002 44.9948 130.789 35.6474C123.576 26.3 114.327 18.7199 103.745 13.483C101.487 12.3644 99.0916 11.2405 96.5599 10.1113C64.86 -3.97758 46.6085 8.19008 37.3226 22.2789C28.0368 36.3678 16.5095 60.7031 9.14488 72.5506C1.78025 84.398 -7.8258 109.374 10.7459 126.665C29.3176 143.956 46.9287 138.192 59.0963 133.389C71.264 128.586 83.4316 132.748 105.846 132.748C128.26 132.748 146.832 115.458 148.112 94.0041C148.58 86.1527 147.248 76.4987 145.371 67.4274Z" fill="white"/>
<path d="M134.876 103.209C133.877 103.1 132.692 104.467 132.315 105.287C132.282 105.357 131.917 106.519 131.937 106.519H131.956C131.767 106.734 131.568 106.965 131.354 107.224C130.966 107.701 130.534 108.242 130.102 108.863C130.102 107.903 129.923 105.895 128.648 105.773C126.967 105.613 126.487 107.535 127.527 108.575C127.823 108.851 128.17 109.066 128.548 109.207C128.927 109.348 129.33 109.413 129.734 109.398C129.413 109.882 129.093 110.397 128.773 110.957C128.326 111.761 127.952 112.603 127.656 113.474V113.506C127.656 113.212 127.656 112.389 127.64 112.328C127.524 111.438 126.778 109.789 125.792 109.606C125.627 109.58 125.459 109.59 125.298 109.633C125.137 109.677 124.988 109.754 124.859 109.859C124.73 109.965 124.624 110.096 124.549 110.245C124.475 110.394 124.432 110.557 124.425 110.724C124.364 111.428 124.876 112.136 125.385 112.581C125.949 113.084 127.511 113.57 127.627 113.609C127.346 114.501 127.126 115.412 126.967 116.334C126.871 116.872 126.791 117.416 126.717 117.96C126.717 117.707 126.717 117.48 126.717 117.448C126.602 116.561 125.856 114.912 124.87 114.729C124.705 114.703 124.537 114.712 124.376 114.755C124.215 114.798 124.066 114.875 123.936 114.98C123.807 115.085 123.702 115.217 123.627 115.366C123.552 115.514 123.51 115.677 123.503 115.844C123.442 116.551 123.954 117.256 124.463 117.704C124.972 118.152 126.295 118.597 126.647 118.71C126.618 118.918 126.592 119.129 126.567 119.35C126.445 120.359 126.33 121.364 126.186 122.347C126.138 122.693 126.074 123.032 126.013 123.372C126.013 123.144 126.013 122.955 126.013 122.927C125.898 122.036 125.155 120.387 124.165 120.205C124.001 120.179 123.832 120.188 123.672 120.232C123.511 120.275 123.361 120.353 123.232 120.458C123.103 120.563 122.998 120.695 122.923 120.844C122.848 120.993 122.806 121.156 122.798 121.322C122.74 122.03 123.253 122.734 123.759 123.18C124.265 123.625 125.462 124.031 125.878 124.166C125.805 124.512 125.734 124.861 125.648 125.19C125.581 125.418 125.536 125.639 125.459 125.86C125.382 126.081 125.315 126.302 125.248 126.519C125.094 126.936 124.943 127.361 124.787 127.762C124.678 128.043 124.572 128.306 124.466 128.572C124.521 128.229 124.614 127.554 124.614 127.496C124.601 126.708 124.388 125.937 123.996 125.254C123.998 125.167 123.993 125.079 123.98 124.992C123.959 124.827 123.903 124.668 123.817 124.526C123.73 124.384 123.615 124.261 123.478 124.166C123.341 124.072 123.186 124.007 123.023 123.976C122.859 123.945 122.691 123.948 122.529 123.986C121.569 124.246 120.944 125.946 120.896 126.839C120.896 126.894 120.928 127.48 120.957 127.832C120.909 127.621 120.864 127.416 120.81 127.192C120.707 126.763 120.595 126.337 120.473 125.879L120.272 125.216C120.211 124.992 120.115 124.765 120.038 124.537C119.846 124.012 119.628 123.49 119.398 122.971C119.772 122.882 121.101 122.542 121.639 122.133C122.177 121.723 122.734 121.06 122.728 120.349C122.732 120.183 122.702 120.017 122.638 119.863C122.574 119.709 122.479 119.571 122.358 119.456C122.237 119.342 122.094 119.254 121.937 119.199C121.78 119.143 121.613 119.122 121.447 119.135C120.448 119.244 119.583 120.833 119.404 121.697C119.404 121.751 119.334 122.395 119.308 122.751C119.164 122.43 119.023 122.11 118.869 121.816C118.424 120.916 117.944 120.022 117.47 119.126C117.323 118.854 117.182 118.578 117.041 118.303C117.175 118.274 118.76 117.906 119.359 117.448C119.891 117.038 120.451 116.372 120.448 115.664C120.452 115.498 120.421 115.333 120.357 115.179C120.293 115.025 120.198 114.886 120.077 114.772C119.957 114.657 119.813 114.569 119.657 114.513C119.5 114.457 119.333 114.435 119.167 114.448C118.171 114.557 117.307 116.148 117.124 117.025C117.124 117.089 117.028 118.018 117.018 118.255C116.698 117.65 116.394 117.045 116.116 116.433C115.736 115.612 115.409 114.769 115.136 113.907C115.2 113.891 116.858 113.513 117.47 113.045C118.001 112.639 118.565 111.973 118.559 111.262C118.563 111.095 118.533 110.93 118.469 110.776C118.405 110.622 118.31 110.483 118.189 110.369C118.068 110.254 117.925 110.167 117.768 110.111C117.611 110.056 117.444 110.035 117.278 110.048C116.279 110.157 115.414 111.745 115.232 112.61C115.232 112.667 115.155 113.372 115.132 113.711H115.075C114.826 112.836 114.656 111.94 114.566 111.034C114.511 110.535 114.486 110.055 114.47 109.59C114.79 109.549 116.228 109.356 116.826 108.998C117.425 108.639 118.03 108.037 118.107 107.346C118.13 107.181 118.117 107.013 118.071 106.853C118.024 106.693 117.945 106.544 117.837 106.417C117.73 106.289 117.597 106.186 117.447 106.113C117.297 106.041 117.134 106 116.967 105.994C115.962 105.994 114.928 107.477 114.652 108.332C114.636 108.377 114.537 108.863 114.466 109.222C114.466 109.011 114.466 108.793 114.466 108.582C114.466 107.823 114.518 107.128 114.566 106.513C114.595 106.164 114.627 105.847 114.662 105.552C114.953 105.354 116.112 104.534 116.471 103.951C116.83 103.369 117.111 102.555 116.842 101.899C116.787 101.742 116.699 101.598 116.584 101.477C116.469 101.356 116.33 101.261 116.176 101.198C116.022 101.134 115.856 101.104 115.69 101.109C115.523 101.114 115.359 101.154 115.209 101.227C114.319 101.688 114.082 103.468 114.23 104.365C114.23 104.441 114.582 105.613 114.595 105.604H114.614C114.575 105.885 114.534 106.19 114.498 106.523C114.438 107.137 114.374 107.832 114.358 108.594C114.358 108.735 114.358 108.879 114.358 109.023C113.973 108.434 112.757 106.782 111.476 107.131C109.897 107.557 110.262 108.953 111.537 109.257C112.473 109.425 113.431 109.425 114.367 109.257C114.367 109.83 114.367 110.436 114.434 111.06C114.505 111.977 114.659 112.886 114.892 113.775C114.89 113.786 114.89 113.797 114.892 113.807C114.732 113.561 114.252 112.882 114.226 112.847C113.64 112.168 112.11 111.204 111.188 111.595C111.036 111.664 110.9 111.764 110.79 111.889C110.68 112.014 110.597 112.161 110.547 112.321C110.497 112.48 110.481 112.648 110.501 112.813C110.52 112.979 110.574 113.139 110.659 113.282C111.002 113.903 111.818 114.211 112.481 114.307C113.227 114.416 114.799 113.961 114.924 113.923C115.184 114.823 115.505 115.705 115.885 116.561C116.099 117.061 116.333 117.56 116.573 118.053C116.429 117.845 116.301 117.659 116.279 117.634C115.693 116.955 114.162 115.991 113.24 116.385C113.088 116.454 112.953 116.554 112.843 116.679C112.732 116.803 112.649 116.95 112.6 117.109C112.55 117.268 112.534 117.436 112.553 117.601C112.573 117.766 112.627 117.926 112.712 118.069C113.054 118.69 113.871 118.998 114.534 119.094C115.197 119.19 116.551 118.831 116.906 118.729L117.188 119.299C117.643 120.205 118.101 121.108 118.523 122.004C118.674 122.325 118.808 122.645 118.943 122.965C118.818 122.779 118.709 122.622 118.69 122.603C118.104 121.924 116.57 120.961 115.648 121.351C115.496 121.42 115.361 121.521 115.25 121.646C115.14 121.771 115.057 121.918 115.008 122.077C114.958 122.237 114.943 122.405 114.963 122.57C114.982 122.736 115.037 122.896 115.123 123.039C115.462 123.66 116.279 123.967 116.942 124.063C117.604 124.159 118.831 123.833 119.253 123.718C119.382 124.038 119.513 124.374 119.625 124.697C119.695 124.921 119.779 125.133 119.836 125.36C119.894 125.588 119.961 125.808 120.022 126.029C120.128 126.455 120.237 126.897 120.326 127.31C120.39 127.602 120.445 127.88 120.502 128.162C120.358 127.842 120.064 127.23 120.032 127.182C119.554 126.423 118.187 125.238 117.217 125.485C117.055 125.531 116.905 125.61 116.776 125.718C116.647 125.826 116.542 125.96 116.469 126.111C116.395 126.262 116.354 126.427 116.349 126.595C116.344 126.763 116.375 126.931 116.439 127.086C116.682 127.752 117.444 128.178 118.085 128.367C118.789 128.581 120.349 128.367 120.544 128.367C120.637 128.834 120.723 129.289 120.797 129.718C121.059 131.207 121.223 132.459 121.325 133.333C121.341 133.49 121.357 133.628 121.37 133.759H118.351L119.029 146.996H125.024L125.702 133.759H122.817L122.881 133.631C123.266 132.827 123.804 131.671 124.38 130.256C124.566 129.811 124.751 129.331 124.94 128.834C125.129 128.873 126.673 129.187 127.393 129.023C128.033 128.876 128.834 128.508 129.128 127.864C129.202 127.714 129.243 127.551 129.25 127.384C129.256 127.218 129.227 127.052 129.166 126.897C129.104 126.742 129.01 126.602 128.89 126.486C128.771 126.369 128.629 126.279 128.472 126.221C127.511 125.901 126.071 126.984 125.536 127.704C125.507 127.746 125.216 128.245 125.04 128.562C125.116 128.36 125.19 128.165 125.267 127.954C125.417 127.541 125.558 127.124 125.709 126.673C125.776 126.452 125.84 126.231 125.907 126.007C125.975 125.783 126.026 125.546 126.087 125.312C126.215 124.771 126.32 124.214 126.407 123.65C126.769 123.782 128.065 124.233 128.735 124.185C129.404 124.137 130.24 123.894 130.627 123.301C130.723 123.165 130.789 123.009 130.82 122.846C130.852 122.682 130.849 122.513 130.811 122.351C130.774 122.188 130.702 122.035 130.601 121.902C130.501 121.769 130.373 121.659 130.227 121.579C129.337 121.117 127.736 121.966 127.102 122.6C127.063 122.638 126.657 123.141 126.442 123.423C126.493 123.087 126.548 122.747 126.593 122.401C126.714 121.409 126.81 120.397 126.913 119.388L127.009 118.466C127.137 118.514 128.664 119.081 129.417 119.03C130.083 118.982 130.922 118.738 131.306 118.143C131.402 118.007 131.468 117.852 131.5 117.688C131.532 117.525 131.529 117.357 131.491 117.194C131.454 117.032 131.383 116.88 131.282 116.747C131.182 116.614 131.055 116.504 130.909 116.423C130.015 115.962 128.418 116.811 127.784 117.442C127.736 117.49 127.143 118.216 127.015 118.402C127.086 117.727 127.166 117.051 127.268 116.388C127.402 115.493 127.596 114.609 127.848 113.74C127.905 113.762 129.497 114.361 130.265 114.307C130.934 114.262 131.77 114.015 132.158 113.423C132.253 113.286 132.319 113.131 132.351 112.967C132.383 112.804 132.38 112.635 132.342 112.472C132.304 112.31 132.233 112.157 132.132 112.024C132.031 111.891 131.904 111.781 131.757 111.7C130.867 111.242 129.269 112.088 128.632 112.722C128.591 112.763 128.149 113.314 127.944 113.583L127.893 113.558C128.167 112.689 128.52 111.846 128.946 111.041C129.173 110.596 129.417 110.179 129.663 109.782C129.948 109.926 131.264 110.56 131.953 110.589C132.641 110.618 133.48 110.464 133.932 109.917C134.041 109.792 134.124 109.645 134.173 109.485C134.223 109.326 134.238 109.159 134.219 108.993C134.199 108.828 134.145 108.668 134.059 108.525C133.974 108.382 133.86 108.258 133.723 108.162C132.888 107.608 131.207 108.274 130.505 108.831L130.112 109.219C130.112 109.177 130.112 109.129 130.112 109.071L130.198 108.943C130.617 108.303 131.04 107.759 131.418 107.272C131.636 106.997 131.837 106.753 132.03 106.526C132.382 106.526 133.8 106.475 134.421 106.183C135.043 105.892 135.721 105.37 135.869 104.675C135.909 104.513 135.915 104.344 135.886 104.18C135.857 104.015 135.794 103.858 135.7 103.72C135.607 103.582 135.485 103.464 135.343 103.376C135.201 103.288 135.042 103.231 134.876 103.209ZM123.829 130.009C123.227 131.396 122.673 132.529 122.273 133.317L122.052 133.743H121.988C121.966 133.589 121.946 133.423 121.921 133.234C121.799 132.35 121.601 131.092 121.309 129.593C121.216 129.119 121.107 128.613 120.989 128.098C121.459 127.912 121.918 127.698 122.363 127.457C122.875 128.011 124.191 128.661 124.361 128.738C124.181 129.183 124.005 129.609 123.829 130.009ZM129.932 109.392L129.855 109.469L129.903 109.395L129.932 109.392Z" fill="#263238"/>
<path opacity="0.3" d="M86.1836 90.5062C85.82 91.9298 85.909 93.4313 86.4382 94.802C86.9674 96.1727 87.9104 97.3445 89.1363 98.1545C90.3622 98.9644 91.81 99.3724 93.2784 99.3215C94.7468 99.2707 96.1629 98.7636 97.3298 97.8708L100.068 100.49C99.9987 100.774 100.005 101.071 100.086 101.352C100.167 101.632 100.319 101.887 100.529 102.091L106.488 107.935C106.645 108.1 106.834 108.231 107.043 108.322C107.252 108.412 107.477 108.459 107.705 108.46C107.933 108.461 108.159 108.416 108.369 108.328C108.579 108.24 108.769 108.11 108.928 107.947C109.087 107.784 109.211 107.59 109.294 107.377C109.376 107.165 109.414 106.938 109.407 106.71C109.399 106.482 109.346 106.259 109.25 106.052C109.154 105.845 109.017 105.66 108.847 105.508L102.905 99.6576C102.69 99.4506 102.424 99.3042 102.134 99.2334C101.845 99.1625 101.542 99.1696 101.256 99.2541L98.5626 96.6733C99.2076 95.8815 99.671 94.9579 99.9203 93.9676C100.167 93.0603 100.23 92.1129 100.107 91.1808C99.9834 90.2487 99.6753 89.3506 99.2007 88.5389C98.7261 87.7272 98.0946 87.0182 97.3429 86.4534C96.5912 85.8885 95.7345 85.4792 94.8228 85.2492C93.9111 85.0192 92.9627 84.9732 92.0331 85.1138C91.1034 85.2545 90.2111 85.579 89.4083 86.0685C88.6054 86.5579 87.9082 87.2024 87.3573 87.9644C86.8064 88.7263 86.4128 89.5904 86.1996 90.5062H86.1836ZM98.6715 93.657C98.3919 94.7717 97.7879 95.7784 96.936 96.5498C96.084 97.3211 95.0224 97.8224 93.8854 97.9902C92.7485 98.1579 91.5873 97.9846 90.5489 97.4922C89.5105 96.9998 88.6415 96.2105 88.0518 95.224C87.4622 94.2375 87.1785 93.0983 87.2365 91.9505C87.2945 90.8028 87.6918 89.698 88.3779 88.776C89.0641 87.8541 90.0083 87.1564 91.0911 86.7713C92.1739 86.3862 93.3466 86.3309 94.4608 86.6125C95.9518 86.9911 97.2322 87.9448 98.0219 89.2649C98.8115 90.5851 99.0463 92.1642 98.6747 93.657H98.6715Z" stroke="black" stroke-width="0.6" stroke-miterlimit="10"/>
<g opacity="0.3">
<path d="M60.2153 14.4464C61.3248 11.9254 63.3829 9.94308 65.9437 8.92894C68.5046 7.9148 71.3619 7.95055 73.8965 9.02843C76.4312 10.1063 78.4391 12.1395 79.4851 14.6875C80.5311 17.2355 80.531 20.093 79.4849 22.6409C78.4387 25.1889 76.4307 27.222 73.896 28.2997C71.3613 29.3774 68.5039 29.413 65.9432 28.3987C63.3824 27.3844 61.3244 25.402 60.2151 22.8809C59.1058 20.3598 59.0346 17.5032 60.0168 14.9299" stroke="black" stroke-width="0.6" stroke-miterlimit="10"/>
<path d="M60.0932 14.4005C61.2295 11.7707 63.3567 9.69481 66.0133 8.62287C68.67 7.55094 71.6422 7.56936 74.2854 8.67414C76.9285 9.77892 79.0298 11.881 80.1334 14.5247C81.2371 17.1683 81.2543 20.1405 80.1812 22.7967C79.1082 25.4529 77.0314 27.5792 74.4011 28.7144C71.7709 29.8497 68.7992 29.9025 66.1303 28.8613C63.4614 27.8201 61.3104 25.769 60.1438 23.1525C58.9771 20.536 58.8887 17.5651 59.8979 14.884" stroke="black" stroke-width="0.3" stroke-miterlimit="10"/>
<path d="M62.904 15.4599C63.7668 13.5393 65.3498 12.0347 67.3118 11.2706C69.2739 10.5065 71.4576 10.5443 73.392 11.3756C75.3265 12.207 76.8567 13.7653 77.6526 15.7146C78.4485 17.6639 78.4463 19.848 77.6466 21.7957C76.8469 23.7434 75.3136 25.2988 73.3776 26.1264C71.4415 26.9539 69.2577 26.9873 67.2972 26.2194C65.3367 25.4515 63.7566 23.9438 62.8976 22.0215C62.0386 20.0991 61.9696 17.9162 62.7055 15.9434" stroke="black" stroke-width="0.6" stroke-miterlimit="10"/>
<path d="M62.7881 15.4162C63.6016 13.6264 65.0481 12.2006 66.8495 11.4131C68.6509 10.6256 70.6798 10.532 72.546 11.1503C74.4122 11.7686 75.984 13.0551 76.9588 14.7623C77.9337 16.4696 78.2428 18.477 77.8268 20.3985C77.4108 22.3199 76.299 24.0197 74.7053 25.1708C73.1116 26.322 71.1485 26.8432 69.1937 26.6342C67.2389 26.4252 65.4303 25.5007 64.116 24.0387C62.8017 22.5766 62.0744 20.6802 62.074 18.7142C62.0715 17.7513 62.2463 16.7961 62.5895 15.8965" stroke="black" stroke-width="0.3" stroke-miterlimit="10"/>
<path d="M66.3401 16.7704C66.8446 15.8196 67.6994 15.1025 68.7234 14.7709C69.7474 14.4393 70.8603 14.5192 71.8265 14.9936C72.7926 15.4681 73.5362 16.2999 73.8998 17.313C74.2634 18.3261 74.2185 19.441 73.7746 20.4215C73.3307 21.4021 72.5226 22.1714 71.5215 22.5667C70.5203 22.9619 69.4046 22.9521 68.4106 22.5392C67.4165 22.1263 66.6222 21.3428 66.1957 20.3545C65.7692 19.3662 65.744 18.2508 66.1255 17.2443V17.2219" stroke="black" stroke-width="0.6" stroke-miterlimit="10"/>
<path d="M66.1725 16.8122L66.2205 16.7129C66.7305 15.7595 67.5915 15.0419 68.6213 14.7121C69.651 14.3822 70.7687 14.466 71.7377 14.9457C72.7068 15.4254 73.4511 16.2634 73.8133 17.2822C74.1754 18.3011 74.1268 19.4209 73.6779 20.4045C73.229 21.3882 72.4149 22.1586 71.408 22.5527C70.401 22.9467 69.2803 22.9335 68.283 22.5158C67.2856 22.0981 66.4899 21.3087 66.0644 20.3147C65.6388 19.3206 65.6167 18.2 66.0028 17.19" stroke="black" stroke-width="0.3" stroke-miterlimit="10"/>
<path d="M66.4107 16.784H66.3754H66.3434L66.2249 16.736L62.9044 15.4616L62.786 15.4168L60.2244 14.4562L60.1027 14.4113L55.9593 12.8488L56.1642 11.3182C56.1675 11.2901 56.1619 11.2616 56.1481 11.2369C56.1343 11.2122 56.113 11.1925 56.0874 11.1805L52.8117 9.71399C52.7885 9.70341 52.7627 9.69981 52.7375 9.70363C52.7123 9.70745 52.6888 9.71853 52.6698 9.7355C52.6508 9.75248 52.6371 9.77462 52.6305 9.79923C52.6238 9.82384 52.6245 9.84985 52.6324 9.87409L53.2984 11.8433L52.8085 11.6576C52.7448 11.6383 52.6761 11.6439 52.6164 11.6732C52.5567 11.7026 52.5103 11.7535 52.4867 11.8158C52.4631 11.878 52.4641 11.9469 52.4893 12.0085C52.5146 12.0701 52.5623 12.1198 52.6228 12.1475L53.1319 12.3396L51.6045 13.5148C51.5841 13.5307 51.5688 13.5521 51.5602 13.5765C51.5517 13.601 51.5504 13.6273 51.5565 13.6525C51.5634 13.677 51.5774 13.699 51.5968 13.7155C51.6162 13.7321 51.64 13.7424 51.6654 13.7453L55.3381 14.3121H55.3541C55.3808 14.3122 55.407 14.3043 55.4292 14.2895C55.4515 14.2747 55.4688 14.2535 55.479 14.2288L55.8248 13.3515L59.8978 14.8852L60.0162 14.9301L62.5778 15.8907L62.6963 15.9387L65.9976 17.1843L66.1193 17.2291L66.2153 17.2675" stroke="black" stroke-width="0.6" stroke-miterlimit="10"/>
<path d="M66.3414 16.7701H66.3766H66.4118L68.7717 17.6603L69.0311 16.8822C69.0485 16.8307 69.0817 16.786 69.1259 16.7544C69.1702 16.7228 69.2232 16.7059 69.2776 16.7061C69.3332 16.7065 69.3871 16.7248 69.4315 16.7582C69.4759 16.7917 69.5084 16.8385 69.5242 16.8918L69.9853 18.4383C70.0074 18.4985 70.0062 18.5647 69.9819 18.624C69.9576 18.6832 69.9119 18.7313 69.854 18.7585L68.6724 19.3477C68.6368 19.3662 68.5973 19.3761 68.5572 19.3765C68.5158 19.3765 68.4751 19.3667 68.4383 19.3479C68.4015 19.3292 68.3696 19.302 68.3453 19.2686C68.321 19.2353 68.3048 19.1966 68.2983 19.1558C68.2917 19.115 68.2948 19.0733 68.3074 19.0339L68.5924 18.1822L66.2133 17.2856C66.1804 17.2718 66.1509 17.2511 66.1268 17.2248" stroke="black" stroke-width="0.6" stroke-miterlimit="10"/>
</g>
<path opacity="0.3" d="M33.5323 129.051L36.4141 129.707L37.0801 126.79L34.3168 126.15C34.3168 126.067 34.3168 125.987 34.3168 125.903C34.3179 125.016 34.1405 124.137 33.7949 123.319L36.0363 121.533L34.1695 119.192L32.0242 120.902C31.2734 120.25 30.3844 119.777 29.4241 119.519V116.739H26.4366V119.423C25.4503 119.617 24.5215 120.034 23.7213 120.643L21.5536 118.913L19.6836 121.254L21.8001 122.945C21.3542 123.832 21.1135 124.808 21.0957 125.801L18.3387 126.441L19.0048 129.362L21.7265 128.74C22.1374 129.616 22.7353 130.391 23.478 131.011L22.1972 133.639L24.8933 134.94L26.1389 132.352C26.6474 132.475 27.1686 132.539 27.6918 132.541C28.1142 132.541 28.5357 132.501 28.9502 132.42L30.231 135.1L32.9271 133.8L31.6719 131.196C32.44 130.624 33.0748 129.892 33.5323 129.051ZM24.7684 125.913C24.7678 125.331 24.9397 124.763 25.2624 124.279C25.5852 123.795 26.0442 123.418 26.5815 123.195C27.1187 122.972 27.71 122.913 28.2805 123.027C28.851 123.14 29.3751 123.42 29.7863 123.831C30.1976 124.243 30.4777 124.767 30.591 125.337C30.7043 125.908 30.6458 126.499 30.4229 127.036C30.2001 127.573 29.8228 128.032 29.3389 128.355C28.855 128.678 28.2863 128.85 27.7046 128.849C26.9259 128.849 26.1791 128.54 25.6284 127.989C25.0777 127.439 24.7684 126.692 24.7684 125.913Z" stroke="black" stroke-width="0.6" stroke-linecap="round" stroke-linejoin="round"/>
<path opacity="0.3" d="M39.0488 114.701L41.4087 115.242L41.9563 112.847L39.686 112.328C39.686 112.261 39.686 112.194 39.686 112.127C39.6862 111.398 39.5403 110.678 39.257 110.007L41.0949 108.54L39.5644 106.619L37.8033 108.022C37.1862 107.489 36.4575 107.101 35.6707 106.888V104.599H33.2244V106.814C32.41 106.971 31.643 107.314 30.983 107.817L29.2058 106.398L27.6721 108.319L29.4076 109.703C29.0403 110.431 28.8433 111.234 28.8312 112.05L26.5674 112.565L27.1149 114.96L29.3563 114.451C29.692 115.171 30.183 115.808 30.794 116.315L29.7566 118.473L31.9692 119.536L32.9906 117.416C33.4102 117.517 33.84 117.569 34.2714 117.57C34.6175 117.57 34.9627 117.536 35.3025 117.471L36.3623 119.655L38.5749 118.588L37.5439 116.449C38.1647 115.981 38.6779 115.385 39.0488 114.701ZM31.8571 112.139C31.8571 111.663 31.9985 111.196 32.2635 110.8C32.5284 110.403 32.905 110.094 33.3455 109.912C33.7861 109.729 34.2709 109.682 34.7386 109.775C35.2063 109.868 35.6359 110.097 35.9731 110.434C36.3103 110.772 36.54 111.201 36.633 111.669C36.726 112.137 36.6783 112.621 36.4958 113.062C36.3133 113.503 36.0043 113.879 35.6078 114.144C35.2113 114.409 34.7451 114.551 34.2682 114.551C33.9505 114.551 33.6359 114.488 33.3426 114.366C33.0492 114.244 32.7828 114.065 32.5588 113.84C32.3347 113.615 32.1574 113.347 32.037 113.053C31.9165 112.759 31.8554 112.444 31.8571 112.127V112.139Z" stroke="black" stroke-width="0.6" stroke-linecap="round" stroke-linejoin="round"/>
<g opacity="0.3">
<path d="M16.0736 12.7569C17.356 9.66085 15.8858 6.11137 12.7897 4.82894C9.69364 3.5465 6.14416 5.01675 4.86173 8.11282C3.57929 11.2089 5.04953 14.7584 8.14561 16.0408C11.2417 17.3232 14.7912 15.853 16.0736 12.7569Z" stroke="black" stroke-width="0.6" stroke-miterlimit="10"/>
<path d="M12.4812 10.0273H8.52672C8.15616 10.0273 7.80074 10.1743 7.53841 10.4361C7.27609 10.6978 7.12829 11.0529 7.12744 11.4234V14.7407C8.09421 15.4928 9.28641 15.8969 10.5113 15.8876C11.7361 15.8783 12.922 15.4562 13.8773 14.6895V11.4234C13.8773 11.2401 13.8412 11.0585 13.771 10.8892C13.7009 10.7198 13.598 10.5659 13.4684 10.4362C13.3388 10.3066 13.1848 10.2038 13.0155 10.1336C12.8461 10.0635 12.6645 10.0273 12.4812 10.0273Z" stroke="black" stroke-width="0.6" stroke-miterlimit="10"/>
<path d="M10.4265 9.41236C10.8242 9.41236 11.213 9.29442 11.5437 9.07346C11.8744 8.85251 12.1321 8.53845 12.2843 8.17102C12.4365 7.80358 12.4763 7.39926 12.3987 7.00919C12.3212 6.61912 12.1296 6.26082 11.8484 5.9796C11.5672 5.69837 11.2089 5.50685 10.8188 5.42926C10.4287 5.35167 10.0244 5.3915 9.65699 5.54369C9.28955 5.69589 8.9755 5.95363 8.75454 6.28431C8.53358 6.615 8.41565 7.00378 8.41565 7.40149C8.41565 7.93481 8.62751 8.44628 9.00462 8.82339C9.38173 9.2005 9.8932 9.41236 10.4265 9.41236Z" stroke="black" stroke-width="0.6" stroke-miterlimit="10"/>
</g>
<g opacity="0.3">
<path d="M53.5216 56.3789C54.8116 53.2859 53.35 49.7329 50.2571 48.4429C47.1642 47.1529 43.6111 48.6144 42.3211 51.7074C41.0311 54.8003 42.4927 58.3534 45.5856 59.6434C48.6785 60.9334 52.2316 59.4718 53.5216 56.3789Z" stroke="black" stroke-width="0.6" stroke-miterlimit="10"/>
<path d="M49.9344 53.6348H45.9672C45.5966 53.6348 45.2412 53.7818 44.9788 54.0435C44.7165 54.3052 44.5687 54.6603 44.5679 55.0308V58.3481C45.5346 59.1003 46.7268 59.5044 47.9517 59.4951C49.1766 59.4858 50.3625 59.0636 51.3177 58.2969V55.0308C51.3177 54.6628 51.1724 54.3096 50.9134 54.0482C50.6543 53.7867 50.3025 53.6381 49.9344 53.6348Z" stroke="black" stroke-width="0.6" stroke-miterlimit="10"/>
<path d="M47.8888 53.0198C48.2865 53.0198 48.6753 52.9018 49.006 52.6809C49.3367 52.4599 49.5944 52.1459 49.7466 51.7784C49.8988 51.411 49.9386 51.0067 49.861 50.6166C49.7834 50.2265 49.5919 49.8682 49.3107 49.587C49.0295 49.3058 48.6712 49.1143 48.2811 49.0367C47.891 48.9591 47.4867 48.9989 47.1193 49.1511C46.7518 49.3033 46.4378 49.5611 46.2168 49.8917C45.9959 50.2224 45.8779 50.6112 45.8779 51.0089C45.8779 51.5422 46.0898 52.0537 46.4669 52.4308C46.844 52.8079 47.3555 53.0198 47.8888 53.0198Z" stroke="black" stroke-width="0.6" stroke-miterlimit="10"/>
</g>
<g opacity="0.3">
<path d="M144.783 58.9453C146.073 55.8523 144.612 52.2993 141.519 51.0093C138.426 49.7193 134.873 51.1809 133.583 54.2738C132.293 57.3667 133.754 60.9198 136.847 62.2098C139.94 63.4998 143.493 62.0382 144.783 58.9453Z" stroke="black" stroke-width="0.6" stroke-miterlimit="10"/>
<path d="M141.193 56.1973H137.226C136.855 56.1973 136.5 56.3443 136.238 56.606C135.975 56.8677 135.827 57.2228 135.827 57.5933V60.9106C136.793 61.6628 137.985 62.0669 139.21 62.0576C140.435 62.0483 141.621 61.6261 142.576 60.8594V57.5933C142.576 57.2253 142.431 56.8721 142.172 56.6107C141.913 56.3492 141.561 56.2006 141.193 56.1973Z" stroke="black" stroke-width="0.6" stroke-miterlimit="10"/>
<path d="M139.147 55.5823C139.545 55.5823 139.934 55.4643 140.265 55.2434C140.595 55.0224 140.853 54.7084 141.005 54.3409C141.157 53.9735 141.197 53.5692 141.12 53.1791C141.042 52.789 140.851 52.4307 140.569 52.1495C140.288 51.8683 139.93 51.6768 139.54 51.5992C139.15 51.5216 138.745 51.5614 138.378 51.7136C138.01 51.8658 137.696 52.1236 137.475 52.4542C137.255 52.7849 137.137 53.1737 137.137 53.5714C137.137 53.8355 137.189 54.097 137.29 54.3409C137.391 54.5849 137.539 54.8066 137.726 54.9933C137.912 55.18 138.134 55.3282 138.378 55.4292C138.622 55.5303 138.883 55.5823 139.147 55.5823Z" stroke="black" stroke-width="0.6" stroke-miterlimit="10"/>
</g>
<g opacity="0.3">
<path d="M109.886 10.2714C111.176 7.17852 109.714 3.62545 106.621 2.33546C103.528 1.04546 99.9752 2.50703 98.6852 5.59996C97.3952 8.69289 98.8568 12.2459 101.95 13.5359C105.043 14.8259 108.596 13.3644 109.886 10.2714Z" stroke="black" stroke-width="0.6" stroke-miterlimit="10"/>
<path d="M106.293 7.52637H102.326C101.955 7.52637 101.6 7.67335 101.337 7.93508C101.075 8.1968 100.927 8.55189 100.926 8.92245V12.2397C101.893 12.9919 103.085 13.396 104.31 13.3867C105.535 13.3774 106.721 12.9552 107.676 12.1885V8.92245C107.676 8.55439 107.531 8.20122 107.272 7.93977C107.013 7.67832 106.661 7.52974 106.293 7.52637Z" stroke="black" stroke-width="0.6" stroke-miterlimit="10"/>
<path d="M104.247 6.91138C104.645 6.91138 105.034 6.79344 105.364 6.57249C105.695 6.35153 105.953 6.03748 106.105 5.67004C106.257 5.3026 106.297 4.89828 106.22 4.50821C106.142 4.11814 105.95 3.75984 105.669 3.47862C105.388 3.19739 105.03 3.00588 104.64 2.92829C104.25 2.8507 103.845 2.89052 103.478 3.04272C103.11 3.19492 102.796 3.45265 102.575 3.78334C102.354 4.11402 102.236 4.5028 102.236 4.90051C102.236 5.43383 102.448 5.9453 102.825 6.32241C103.203 6.69952 103.714 6.91138 104.247 6.91138Z" stroke="black" stroke-width="0.6" stroke-miterlimit="10"/>
</g>
<path d="M118.396 64.73C118.396 64.73 116.35 64.73 114.214 66.9714C112.078 69.2128 110.89 72.2675 111.387 73.1929C111.883 74.1183 112.45 75.6392 112.434 75.9946C112.418 76.3501 109.568 78.7292 110.234 79.9139C110.9 81.0987 111.047 81.8159 110.423 81.88C109.799 81.944 108.694 82.7893 108.848 83.4201C109.001 84.0509 110.048 84.6241 109.574 85.3189C109.101 86.0138 108.752 85.9081 108.716 86.7982C108.681 87.6884 109.498 88.4377 109.037 88.5497C108.575 88.6618 107.669 88.8027 107.913 89.4367C108.14 89.9495 108.419 90.4377 108.745 90.8936C108.745 90.8936 111.893 94.5759 118.617 95.6422C125.341 96.7085 132.065 91.0985 133.071 90.25C134.076 89.4015 134.272 89.1389 134.294 88.6074C134.316 88.0759 133.974 87.4354 133.83 86.8078C133.686 86.1803 133.993 84.9443 134.003 84.6785C134.012 84.4127 133.42 83.6763 132.991 83.3016C132.562 82.927 132.51 81.9472 132.722 81.0602C132.933 80.1733 132.081 79.5201 131.726 79.2415C131.371 78.9629 131.146 78.1496 131.444 77.3587C131.742 76.5678 130.708 75.7289 130.275 75.3542C129.843 74.9796 129.789 74.1791 130 73.2985C130.211 72.418 129.132 70.5032 128.543 69.6803C127.954 68.8574 127.262 66.2445 123.916 65.047C120.57 63.8494 118.396 64.73 118.396 64.73Z" fill="#263238" stroke="#263238" stroke-width="0.6" stroke-linecap="round" stroke-linejoin="round"/>
<path d="M110.972 96.8878C114.095 98.6613 117.659 99.5059 121.245 99.3221C124.831 99.1383 128.291 97.9338 131.215 95.8503C131.215 94.1565 131.231 92.7315 131.215 92.12C131.138 90.1635 130.604 87.3714 129.899 86.8014C129.195 86.2315 127.728 85.78 125.573 85.1812C123.418 84.5824 120.172 84.3711 120.172 84.3711C120.172 84.3711 116.329 86.5677 113.729 87.4386C111.129 88.3096 111.007 94.1084 111.065 95.5557C111.057 96.0011 111.026 96.4457 110.972 96.8878Z" fill="white" stroke="#263238" stroke-width="0.6" stroke-linecap="round" stroke-linejoin="round"/>
<path d="M110.972 96.8877C114.095 98.6613 117.659 99.5059 121.245 99.3221C124.831 99.1383 128.291 97.9338 131.215 95.8503C131.215 94.1564 131.231 92.7315 131.215 92.1199C131.177 91.1305 131.084 91.5244 130.847 90.5029C129.611 91.6653 126.867 93.5833 121.472 94.2077C116.55 94.7776 112.506 92.9269 111.254 92.1392C111.098 93.2709 111.035 94.4136 111.065 95.5557C111.057 96.001 111.026 96.4456 110.972 96.8877Z" fill="white" stroke="#263238" stroke-width="0.6" stroke-linecap="round" stroke-linejoin="round"/>
<path d="M117.308 89.6712L117.148 85.5855C117.071 83.629 116.78 82.7901 116.78 82.7901C117.671 83.0686 118.594 83.2321 119.527 83.2768C120.894 83.3088 122.941 81.1827 123.097 80.8337C123.254 80.4846 123.485 79.873 123.485 79.873C123.485 79.873 123.703 83.1871 124.007 84.4551C124.311 85.7231 124.513 86.482 124.513 86.482" fill="white"/>
<path d="M117.308 89.6712L117.148 85.5855C117.071 83.629 116.78 82.7901 116.78 82.7901C117.671 83.0686 118.594 83.2321 119.527 83.2768C120.894 83.3088 122.941 81.1827 123.097 80.8337C123.254 80.4846 123.485 79.873 123.485 79.873C123.485 79.873 123.703 83.1871 124.007 84.4551C124.311 85.7231 124.513 86.482 124.513 86.482" stroke="#263238" stroke-width="0.6" stroke-miterlimit="10" stroke-linecap="round"/>
<path d="M118.557 86.1733C120.632 85.0301 122.422 82.3885 122.422 82.3885L122.54 81.4951C121.804 82.238 120.494 83.2979 119.527 83.2754C118.594 83.2308 117.671 83.0672 116.78 82.7887C116.78 82.7887 117.071 83.6277 117.148 85.5841C117.148 86.026 117.183 86.4742 117.199 86.9065C117.536 86.7304 117.974 86.4935 118.557 86.1733Z" fill="#263238" stroke="#263238" stroke-width="0.6" stroke-linecap="round" stroke-linejoin="round"/>
<path d="M126.495 74.944L125.134 74.8511C125.134 74.8511 125.134 74.6526 125.115 74.3292L124.971 74.1403C124.75 73.8553 124.651 73.9258 124.244 73.7849C123.837 73.644 123.754 72.9491 123.844 72.2735C123.933 71.5979 123.111 71.3129 122.272 70.5156C121.586 69.8752 121.426 68.7033 121.394 68.303C121.087 68.2116 120.774 68.1452 120.456 68.1045C120.196 68.7821 119.819 69.4085 119.342 69.9553C118.541 70.7942 117.962 70.6309 117.725 71.1144C117.488 71.5979 116.988 72.1326 116.639 72.1711C116.29 72.2095 115.445 72.1006 115.39 72.5201C115.336 72.9395 114.99 73.5863 114.715 73.7208L114.494 73.8329C114.494 74.7935 114.542 75.6004 114.52 75.7541C114.475 76.0935 114.183 78.2869 114.942 79.6766C115.701 81.0662 117.113 84.0793 119.297 84.3995C121.481 84.7197 123.741 81.982 124.18 81.268C124.619 80.5539 125.08 78.3862 125.08 78.3862C125.598 78.0166 126.039 77.5501 126.38 77.0125C126.94 76.1223 126.495 74.944 126.495 74.944Z" fill="white" stroke="#263238" stroke-width="0.6" stroke-linecap="round" stroke-linejoin="round"/>
<path d="M114.774 72.6126C114.855 72.0203 115.578 71.0853 115.834 71.1205C116.376 71.0483 116.872 70.7765 117.224 70.3584C117.448 69.9614 117.419 69.5259 117.864 69.3978C118.31 69.2697 118.386 68.6934 118.386 68.6934C118.386 68.6934 117.048 69.718 116.327 69.9742C115.82 70.1353 115.348 70.393 114.938 70.733C114.692 71.4637 114.555 72.2264 114.531 72.9969C114.6 72.9581 114.659 72.9027 114.702 72.8356C114.744 72.7685 114.769 72.6919 114.774 72.6126Z" fill="white" stroke="#263238" stroke-width="0.6" stroke-linecap="round" stroke-linejoin="round"/>
<path d="M118.385 79.709C118.385 79.709 118.791 80.5351 119.883 80.0804" stroke="#263238" stroke-width="0.6" stroke-linecap="round" stroke-linejoin="round"/>
<path d="M118.218 80.9736C118.218 80.9736 119.819 81.8766 120.658 80.6982" stroke="#263238" stroke-width="0.6" stroke-linecap="round" stroke-linejoin="round"/>
<path d="M117.206 76.2957C117.206 76.6479 117.03 76.9361 116.841 76.9361C116.652 76.9361 116.521 76.6383 116.521 76.2957C116.521 75.9531 116.697 75.6553 116.886 75.6553C117.075 75.6553 117.219 75.9435 117.206 76.2957Z" fill="#263238"/>
<path d="M121.477 76.4783C121.477 76.8305 121.301 77.1187 121.115 77.1187C120.929 77.1187 120.795 76.8209 120.795 76.4783C120.795 76.1357 120.971 75.8379 121.16 75.8379C121.349 75.8379 121.49 76.1261 121.477 76.4783Z" fill="#263238"/>
<path d="M115.615 74.7015C115.615 74.7015 116.14 73.9971 117.465 74.3461" stroke="#263238" stroke-width="0.6" stroke-linecap="round" stroke-linejoin="round"/>
<path d="M120.443 74.5697C120.443 74.5697 121.874 74.1599 122.774 75.1365" stroke="#263238" stroke-width="0.6" stroke-linecap="round" stroke-linejoin="round"/>
<path d="M117.694 74.5459C117.694 74.5459 118.632 75.8747 118.476 77.0563" stroke="#263238" stroke-width="0.6" stroke-linecap="round" stroke-linejoin="round"/>
<path d="M114.075 98.28C114.289 96.8199 114.5 95.3726 114.673 94.207C115.215 90.6048 117.078 86.0131 117.078 86.0131C116.393 85.8722 109.765 88.6035 108.362 89.7658C107.751 90.2749 107.043 91.6582 106.39 93.2112C108.494 95.5093 111.134 97.2508 114.075 98.28Z" fill="#0F913D" stroke="#263238" stroke-width="0.6" stroke-linecap="round" stroke-linejoin="round"/>
<path d="M136.267 90.484C135.358 89.3817 134.206 88.5049 132.902 87.9223C132.05 87.3577 131.153 86.866 130.218 86.4526C128.742 85.7418 124.775 84.874 124.775 84.874C124.775 84.874 124.419 95.0404 124.97 98.7548C129.657 97.5488 133.702 94.5878 136.267 90.484Z" fill="#0F913D" stroke="#263238" stroke-width="0.6" stroke-linecap="round" stroke-linejoin="round"/>
<path d="M133.618 93.8126C140.98 86.4511 140.98 74.5157 133.618 67.1543C126.257 59.7928 114.321 59.7928 106.96 67.1543C99.5983 74.5157 99.5983 86.4511 106.96 93.8125C114.321 101.174 126.257 101.174 133.618 93.8126Z" stroke="#263238" stroke-width="0.6" stroke-miterlimit="10"/>
<path d="M124.509 52.8855C134.655 50.5524 140.989 40.4362 138.655 30.2903C136.322 20.1443 126.206 13.8108 116.06 16.1438C105.914 18.4769 99.5808 28.5931 101.914 38.739C104.247 48.8849 114.363 55.2185 124.509 52.8855Z" fill="#0F913D"/>
<path d="M120.287 53.364C123.096 53.3658 125.869 52.7389 128.404 51.5294C130.939 50.3198 133.171 48.5584 134.937 46.374L127.46 40.5336L122.016 38.987V38.7725L120.656 38.8781L119.295 38.7725V38.987L113.851 39.4129L105.372 46.0378C107.132 48.3191 109.392 50.1659 111.978 51.4361C114.563 52.7062 117.406 53.3658 120.287 53.364Z" fill="white" stroke="#263238" stroke-width="0.6" stroke-miterlimit="10"/>
<path d="M115.291 38.2915C114.658 38.4384 114.016 38.5453 113.37 38.6117C112.889 38.6117 111.128 46.4566 111.128 46.4566L117.212 44.5354L119.774 47.097L121.855 44.6955L127.939 47.4172C127.939 47.4172 127.459 40.0526 127.459 39.092C127.459 38.1314 121.855 36.8506 121.855 36.8506L115.291 38.2915Z" fill="white" stroke="#263238" stroke-width="0.6" stroke-miterlimit="10"/>
<path d="M114.491 35.0903L115.131 40.6938L119.454 45.0166L124.417 40.0534L124.737 33.6494L114.491 35.0903Z" fill="#D4D4D4" stroke="#263238" stroke-width="0.6" stroke-miterlimit="10"/>
<path d="M124.517 38.0362L124.738 33.6494L124.172 33.7295L117.774 38.3244L124.517 38.0362Z" fill="#263238" stroke="#263238" stroke-width="0.6" stroke-miterlimit="10"/>
<path d="M121.268 18.7913C121.268 18.7913 126.071 20.0241 126.391 22.1887C126.711 24.3532 126.455 28.8585 126.455 28.8585C126.455 28.8585 127.483 26.9149 128.123 28.7048C128.764 30.4947 127.592 31.673 127.179 31.7979C126.865 31.8796 126.542 31.9183 126.218 31.9132C126.218 31.9132 124.893 34.9423 124.169 35.5283C123.445 36.1142 120.739 38.4805 119.667 38.8103C118.594 39.1401 116.731 39.2618 116.199 38.7015C115.667 38.1411 113.487 34.2955 113.423 33.5014C113.359 32.7073 112.869 25.538 112.946 24.6094C113.023 23.6808 112.571 21.9229 114.547 20.1266C116.522 18.3302 121.268 18.7913 121.268 18.7913Z" fill="#D4D4D4" stroke="#263238" stroke-width="0.6" stroke-miterlimit="10"/>
<path d="M114.545 20.1391C116.527 18.3555 121.269 18.791 121.269 18.791C121.269 18.791 126.072 20.0238 126.392 22.1884C126.713 24.3529 126.456 28.8582 126.456 28.8582C126.456 28.8582 125.941 29.8188 125.4 29.5434C124.859 29.268 125.762 26.9017 125.762 26.9017C125.762 26.9017 125.441 26.1845 125.198 25.3584C124.955 24.5322 125.076 23.498 125.4 22.4958C125.723 21.4935 123.286 19.441 121.97 19.5723C120.654 19.7036 118.973 20.6802 117.814 20.4881C116.655 20.296 116.469 19.6364 116.469 19.6364C116.469 19.6364 116.168 19.5467 115.096 19.8797C114.895 19.9447 114.705 20.0362 114.529 20.1519L114.545 20.1391Z" fill="#263238" stroke="#263238" stroke-width="0.6" stroke-miterlimit="10"/>
<path d="M118.612 26.4854L124.299 27.0393C124.299 27.0393 124.471 29.0502 124.164 29.5753C123.857 30.1004 123.36 30.5935 121.875 30.7152C120.389 30.8369 118.829 30.3566 118.653 29.6906C118.477 29.0246 118.612 26.4854 118.612 26.4854Z" stroke="#263238" stroke-width="1.2" stroke-miterlimit="10" stroke-linecap="round"/>
<path d="M117.013 26.4443H111.287C111.287 26.4443 110.919 28.4264 111.175 28.9835C111.431 29.5407 111.876 30.0722 113.343 30.3412C114.81 30.6102 116.411 30.2868 116.66 29.6464C116.91 29.0059 117.013 26.4443 117.013 26.4443Z" stroke="#263238" stroke-width="1.2" stroke-miterlimit="10" stroke-linecap="round"/>
<path d="M118.611 26.4872C118.611 26.4872 117.689 26.0549 117.01 26.452" stroke="#263238" stroke-width="1.2" stroke-miterlimit="10" stroke-linecap="round"/>
<path d="M118.521 27.3384C118.521 27.3384 117.608 26.666 116.955 27.2391" stroke="#263238" stroke-width="1.2" stroke-miterlimit="10" stroke-linecap="round"/>
<path d="M124.299 27.041L126.56 28.7669" stroke="#263238" stroke-width="1.2" stroke-miterlimit="10" stroke-linecap="round"/>
<path d="M111.3 26.4521L112.93 27.1086" stroke="#263238" stroke-width="1.2" stroke-miterlimit="10" stroke-linecap="round"/>
<path d="M120.042 29.2062C120.055 29.2561 120.077 29.3028 120.109 29.3437C120.14 29.3845 120.179 29.4185 120.224 29.4436C120.269 29.4688 120.318 29.4845 120.369 29.4899C120.42 29.4953 120.472 29.4902 120.521 29.4749C120.57 29.4597 120.616 29.4346 120.655 29.4012C120.694 29.3677 120.725 29.3267 120.748 29.2806C120.771 29.2344 120.784 29.1842 120.786 29.1329C120.789 29.0815 120.781 29.0302 120.763 28.9821C120.729 28.8916 120.662 28.8175 120.575 28.7749C120.489 28.7324 120.389 28.7247 120.297 28.7534C120.204 28.7821 120.127 28.845 120.079 28.9292C120.032 29.0134 120.019 29.1126 120.042 29.2062Z" fill="#263238"/>
<path d="M114.202 28.9709C114.214 29.0207 114.237 29.0675 114.268 29.1083C114.299 29.1491 114.339 29.1831 114.383 29.2083C114.428 29.2334 114.478 29.2492 114.529 29.2546C114.58 29.26 114.631 29.2549 114.681 29.2396C114.73 29.2243 114.775 29.1992 114.814 29.1658C114.853 29.1324 114.885 29.0914 114.907 29.0452C114.93 28.9991 114.943 28.9488 114.946 28.8975C114.948 28.8462 114.94 28.7949 114.922 28.7468C114.889 28.6563 114.821 28.5821 114.735 28.5396C114.648 28.4971 114.548 28.4893 114.456 28.518C114.364 28.5467 114.286 28.6096 114.239 28.6939C114.192 28.7781 114.178 28.8772 114.202 28.9709Z" fill="#263238"/>
<path d="M119.791 25.1222C119.791 25.1222 121.411 24.0432 122.551 25.7242" stroke="#263238" stroke-width="1.2" stroke-miterlimit="10" stroke-linecap="round"/>
<path d="M116.179 25.6534C116.179 25.6534 115.461 24.6704 113.729 25.7847" stroke="#263238" stroke-width="1.2" stroke-miterlimit="10" stroke-linecap="round"/>
<path d="M117.023 28.6865C117.023 28.6865 116.827 30.0762 116.43 30.406C116.033 30.7358 115.041 31.4146 115.735 31.658C116.43 31.9013 117.833 32.1319 118.364 31.9782C118.513 31.9377 118.648 31.8562 118.752 31.7429C118.857 31.6297 118.928 31.4893 118.957 31.3378" stroke="#263238" stroke-width="0.6" stroke-miterlimit="10"/>
<path d="M117.053 33.768C117.974 33.9849 118.938 33.919 119.82 33.5791C121.261 33.0124 121.319 32.2471 121.319 32.2471" stroke="#263238" stroke-width="0.6" stroke-miterlimit="10"/>
<path d="M120.91 32L121.89 32.4867" stroke="#263238" stroke-width="0.6" stroke-miterlimit="10"/>
<path d="M124.509 52.8855C134.655 50.5524 140.989 40.4362 138.655 30.2903C136.322 20.1443 126.206 13.8108 116.06 16.1438C105.914 18.4769 99.5808 28.5931 101.914 38.739C104.247 48.8849 114.363 55.2185 124.509 52.8855Z" stroke="#263238" stroke-width="0.6" stroke-miterlimit="10"/>
<path d="M31.5857 99.234C41.7393 96.9346 48.1064 86.8394 45.807 76.6858C43.5076 66.5322 33.4125 60.1651 23.2589 62.4645C13.1053 64.7639 6.73817 74.8591 9.03756 85.0127C11.3369 95.1663 21.4321 101.533 31.5857 99.234Z" fill="#0F913D"/>
<path d="M27.4286 99.6958C30.054 99.6984 32.6509 99.1506 35.0517 98.0878C37.4524 97.0251 39.6038 95.4709 41.3669 93.5255L32.222 88.5624L31.3158 84.0219L24.8445 82.4209L24.6172 88.5624L13.8424 93.9033C15.5981 95.7368 17.7071 97.1954 20.0423 98.191C22.3774 99.1865 24.8901 99.6984 27.4286 99.6958Z" fill="white" stroke="#263238" stroke-width="0.6" stroke-miterlimit="10"/>
<path d="M24.6666 87.1314L30.5167 86.0747L28.9605 83.4523L24.8427 82.4404L24.6666 87.1314Z" fill="#263238" stroke="#263238" stroke-width="0.6" stroke-miterlimit="10"/>
<path d="M33.943 69.7763C33.943 69.7763 27.3692 66.1484 24.2505 66.4046C21.1317 66.6607 16.4151 73.148 15.826 76.2636C15.2368 79.3791 18.2691 81.0666 18.4356 81.3195C18.6021 81.5725 15.9092 81.406 16.1622 83.4265C16.4151 85.4469 19.6171 85.7864 21.4711 85.4501C23.3251 85.1139 24.5867 82.754 24.5867 82.4178C24.5867 82.0816 23.7445 79.805 23.7445 79.805C23.7445 79.805 25.5152 79.9715 25.7682 78.4569C26.0212 76.9424 27.4525 73.5675 29.3897 73.4842C31.3269 73.401 32.8447 73.6539 33.0144 74.0734C33.1706 74.7392 33.2776 75.4156 33.3346 76.0971C34.0326 76.2303 34.7514 76.2087 35.4402 76.0339C36.129 75.8591 36.7711 75.5352 37.3211 75.0852C39.0918 73.5675 39.7642 69.4401 37.4075 68.5979C36.7853 68.3416 36.0911 68.3197 35.4539 68.5364C34.8168 68.7532 34.2799 69.1937 33.943 69.7763Z" fill="#263238" stroke="#263238" stroke-width="0.6" stroke-linecap="round" stroke-linejoin="round"/>
<path d="M22.9506 78.4075L19.5629 80.3287C19.5629 80.3287 20.8437 81.8849 21.3944 82.0674C21.9452 82.2499 22.8577 81.9745 22.8577 81.9745C22.8577 81.9745 24.4139 83.8061 25.6051 84.6322C26.7962 85.4583 29.6332 87.0113 31.1926 86.4605C32.752 85.9098 35.035 81.792 34.8525 80.4183C34.67 79.0447 33.8471 76.8481 33.9367 75.7498C34.0264 74.6515 34.2121 72.9096 34.2121 72.9096C34.2121 72.9096 30.4593 71.0781 27.4366 72.82C24.4139 74.5619 24.5996 77.7671 22.9506 78.4075Z" fill="white" stroke="#263238" stroke-width="0.6" stroke-linecap="round" stroke-linejoin="round"/>
<path d="M31.1944 76.7578L31.284 77.8561C31.284 77.8561 33.6663 78.1315 32.7506 78.9576C32.1179 79.4794 31.3594 79.8261 30.5508 79.963" stroke="#263238" stroke-width="0.6" stroke-linecap="round" stroke-linejoin="round"/>
<path d="M26.7981 76.0244C26.7981 76.0244 27.7139 75.1119 28.8122 75.2015" stroke="#263238" stroke-width="0.6" stroke-linecap="round" stroke-linejoin="round"/>
<path d="M31.5579 74.9252C31.8693 74.8257 32.2009 74.8072 32.5214 74.8717C32.8419 74.9361 33.1407 75.0813 33.3894 75.2934" stroke="#263238" stroke-width="0.6" stroke-linecap="round" stroke-linejoin="round"/>
<path d="M28.4752 78.2383C28.6945 78.2383 28.8722 77.9272 28.8722 77.5435C28.8722 77.1597 28.6945 76.8486 28.4752 76.8486C28.2559 76.8486 28.0781 77.1597 28.0781 77.5435C28.0781 77.9272 28.2559 78.2383 28.4752 78.2383Z" fill="#263238"/>
<path d="M32.9743 77.1226C32.9743 77.5068 32.7982 77.8206 32.5772 77.8206C32.3563 77.8206 32.1802 77.5004 32.1802 77.1226C32.1802 76.7447 32.3595 76.4277 32.5772 76.4277C32.795 76.4277 32.9743 76.7383 32.9743 77.1226Z" fill="#263238"/>
<path d="M32.677 81.0791C32.677 81.0791 30.5188 82.3279 28.5912 80.9639" stroke="#263238" stroke-width="0.6" stroke-linecap="round" stroke-linejoin="round"/>
<path d="M27.4286 99.6954C30.0548 99.6979 32.6524 99.1498 35.0537 98.0864C37.455 97.0231 39.6068 95.4682 41.3701 93.522L35.1838 89.9453L33.0161 96.0644L25.5234 96.1764L20.6435 90.6145L20.5186 90.5985L13.8424 93.903C15.5981 95.7365 17.7071 97.1951 20.0423 98.1906C22.3774 99.1862 24.8901 99.6981 27.4286 99.6954Z" fill="#263238" stroke="#263238" stroke-width="0.6" stroke-miterlimit="10"/>
<path d="M31.5857 99.234C41.7393 96.9346 48.1064 86.8394 45.807 76.6858C43.5076 66.5322 33.4125 60.1651 23.2589 62.4645C13.1053 64.7639 6.73817 74.8591 9.03756 85.0127C11.3369 95.1663 21.4321 101.533 31.5857 99.234Z" stroke="#263238" stroke-width="0.6" stroke-miterlimit="10"/>
<path d="M27.4302 53.5335C37.8409 53.5335 46.2805 45.094 46.2805 34.6833C46.2805 24.2726 37.8409 15.833 27.4302 15.833C17.0195 15.833 8.57996 24.2726 8.57996 34.6833C8.57996 45.094 17.0195 53.5335 27.4302 53.5335Z" stroke="#263238" stroke-width="0.6" stroke-miterlimit="10"/>
<path d="M30.9192 21.8834C31.2953 22.0846 31.7171 22.185 32.1436 22.1749C32.57 22.1648 32.9865 22.0445 33.3527 21.8258C34.5407 21.0541 33.7114 20.6955 33.4712 20.2248C33.2311 19.7541 33.8298 19.6292 33.9483 18.976C34.0668 18.3228 33.6505 17.788 33.4136 17.7304C33.1766 17.6728 33.2343 17.0163 33.2343 16.3631C33.1977 16.0643 33.0698 15.7841 32.8681 15.5606C32.6664 15.3371 32.4007 15.1813 32.1071 15.1144C31.7485 15.1144 31.5116 14.6405 31.2746 14.0449C31.0377 13.4493 30.5606 12.9178 29.7313 13.2732C28.9019 13.6286 28.4825 13.6318 28.0662 13.0362C27.6499 12.4407 26.6413 12.3222 26.2859 12.62C25.9305 12.9178 25.7511 13.5101 25.0371 12.9178C24.7649 12.6644 24.41 12.5186 24.0383 12.5074C23.6666 12.4962 23.3036 12.6204 23.0166 12.8569C22.6004 13.2732 22.6612 13.7503 22.008 13.4973C21.3548 13.2444 20.2853 13.619 20.0484 14.3299C19.8114 15.0407 18.5018 15.8156 18.0279 15.6363C17.554 15.457 16.7215 15.6363 17.1377 16.5296C17.554 17.423 17.0769 18.0122 16.7215 18.0122C16.366 18.0122 15.5912 18.2523 16.0074 19.024C16.4237 19.7957 16.7215 20.3881 16.2444 20.625C15.7673 20.862 14.9988 20.9196 15.604 21.9314C16.2091 22.9433 16.6734 22.892 16.4973 23.4748C16.3212 24.0576 15.9626 24.2465 16.4973 24.6628C17.0321 25.079 17.6853 25.2583 17.6853 25.6234C17.6853 25.9884 16.9712 26.1581 17.8037 26.4559C18.2835 26.6316 18.7821 26.7509 19.2895 26.8113C19.2895 26.8113 20.4742 23.6061 23.8748 22.5366C27.2753 21.4672 29.2221 21.576 29.9938 22.0019C30.7655 22.4278 30.9192 21.8834 30.9192 21.8834Z" fill="#263238" stroke="#263238" stroke-width="0.6" stroke-linecap="round" stroke-linejoin="round"/>
<path d="M27.4292 53.5342C25.9978 53.5344 24.5712 53.3711 23.1769 53.0475C22.4276 49.1378 21.6912 45.1865 21.6912 45.1865C21.6912 45.1865 24.8932 44.3028 25.873 44.1427C26.8528 43.9826 29.7314 43.6592 29.7314 43.6592L34.0734 45.67C34.0734 45.67 34.5921 48.5358 35.1108 51.898C32.6945 52.9795 30.0765 53.5372 27.4292 53.5342Z" fill="white" stroke="#263238" stroke-width="0.6" stroke-miterlimit="10"/>
<path d="M21.9696 46.6789L34.0028 45.6543L34.0732 45.6863C34.0732 45.6863 34.1757 46.2595 34.339 47.1945L22.2738 48.2159L21.9696 46.6789Z" fill="#263238"/>
<path d="M22.6956 50.5227L34.7255 49.498C34.8056 49.988 34.8888 50.5067 34.9753 51.0446L22.9901 52.0597C22.8877 51.5441 22.7916 51.0286 22.6956 50.5227Z" fill="#263238"/>
<path d="M30.3743 41.4087C30.3743 41.4087 31.2581 44.7869 31.3349 46.5544C31.4118 48.3219 29.5674 49.7724 26.9129 49.529C24.2584 49.2857 23.7781 46.3943 23.7781 45.6866C23.7781 44.979 23.618 38.8535 23.618 38.8535C24.508 39.6131 25.4484 40.3117 26.4326 40.9444C27.9632 41.8922 30.3743 41.4087 30.3743 41.4087Z" fill="#B5B5B5" stroke="#263238" stroke-width="0.6" stroke-miterlimit="10"/>
<path d="M27.9639 44.3033C25.4503 43.093 24.1951 40.7395 23.6316 39.2506C23.6316 39.0008 23.6316 38.8535 23.6316 38.8535C24.5216 39.6131 25.4619 40.3117 26.4462 40.9444C27.9735 41.905 30.3846 41.4247 30.3846 41.4247C30.3846 41.4247 30.9386 43.5349 31.2076 45.2928C30.0786 45.1467 28.9822 44.8122 27.9639 44.3033Z" fill="#263238" stroke="#263238" stroke-width="0.6" stroke-miterlimit="10"/>
<path d="M34.0017 30.8998C34.0017 30.8998 35.2825 29.2347 35.5387 31.5402C35.7949 33.8456 33.3613 36.1511 33.3613 36.1511V30.8998" fill="#B5B5B5"/>
<path d="M34.0017 30.8998C34.0017 30.8998 35.2825 29.2347 35.5387 31.5402C35.7949 33.8456 33.3613 36.1511 33.3613 36.1511V30.8998" stroke="#263238" stroke-width="0.6" stroke-linecap="round" stroke-linejoin="round"/>
<path d="M19.355 28.5043C19.355 28.5043 19.4542 24.9373 20.7799 22.9008C22.1055 20.8643 24.8977 19.6124 28.0132 20.1503C31.8813 20.8131 33.6168 23.7141 34.2283 26.1605C34.8399 28.6068 34.1259 32.1707 34.1259 34.617C34.1259 37.0633 31.2729 41.4437 30.4596 42.1545C29.6463 42.8654 28.3847 43.1151 26.9374 42.3787C25.6181 41.7095 23.4504 39.4264 22.1343 38.1008C20.8183 36.7752 20.0338 32.8463 19.8193 31.9241C19.6047 31.0019 19.355 28.5043 19.355 28.5043Z" fill="#B5B5B5" stroke="#263238" stroke-width="0.6" stroke-linecap="round" stroke-linejoin="round"/>
<path d="M30.1543 35.4268C30.1543 35.4268 30.276 36.1984 28.4924 36.0672" stroke="#263238" stroke-width="0.6" stroke-linecap="round" stroke-linejoin="round"/>
<path d="M30.69 37.4482C30.69 37.4482 28.6119 38.8731 26.5273 37.5059" stroke="#263238" stroke-width="0.6" stroke-linecap="round" stroke-linejoin="round"/>
<path d="M30.6895 32.1623C30.6895 32.5882 30.8912 32.934 31.1377 32.934C31.3843 32.934 31.5828 32.5882 31.5828 32.1623C31.5828 31.7364 31.3811 31.3906 31.1377 31.3906C30.8944 31.3906 30.6895 31.7364 30.6895 32.1623Z" fill="#263238"/>
<path d="M26.0525 32.5415C26.0525 32.9674 26.251 33.3132 26.4976 33.3132C26.7441 33.3132 26.9427 32.9674 26.9427 32.5415C26.9427 32.1156 26.7441 31.7666 26.4976 31.7666C26.251 31.7666 26.0525 32.1124 26.0525 32.5415Z" fill="#263238"/>
<path d="M32.5924 29.7253C32.5924 29.7253 32.0577 28.5373 30.2773 29.1329" stroke="#263238" stroke-width="0.6" stroke-linecap="round" stroke-linejoin="round"/>
<path d="M27.3044 29.6066C27.3044 29.6066 25.6426 28.7165 23.7982 30.0805" stroke="#263238" stroke-width="0.6" stroke-linecap="round" stroke-linejoin="round"/>
<path d="M14.3168 48.2163C14.3552 47.6783 14.2944 46.7337 14.9412 46.3751C15.3798 46.1317 18.4634 45.4145 20.8265 44.8926C22.3794 44.5467 23.6282 44.2842 23.6282 44.2842C23.6282 44.2842 23.9292 48.8471 24.2686 53.2498C20.5184 52.6178 17.0482 50.8626 14.3168 48.2163Z" fill="#0F913D" stroke="#263238" stroke-width="0.6" stroke-miterlimit="10"/>
<path d="M35.4512 51.7385C35.0754 49.4332 34.5838 47.1484 33.9783 44.8926C36.3478 45.4177 39.4217 46.1318 39.8636 46.3751C40.5328 46.7465 40.4463 47.7328 40.504 48.2643C39.0207 49.6905 37.3139 50.8641 35.4512 51.7385Z" fill="#0F913D" stroke="#263238" stroke-width="0.6" stroke-miterlimit="10"/>
<path d="M20.9674 52.3943C20.7465 48.395 20.8265 44.8984 20.8265 44.8984C22.3795 44.5526 23.6283 44.29 23.6283 44.29C23.6283 44.29 23.9293 48.8529 24.2687 53.2557C23.1445 53.069 22.0395 52.7807 20.9674 52.3943Z" fill="#0F913D" stroke="#263238" stroke-width="0.6" stroke-miterlimit="10"/>
<path d="M28.0132 20.1503C31.8813 20.8131 33.6168 23.7141 34.2283 26.1605C34.3374 26.6181 34.4081 27.084 34.4397 27.5534C34.2697 27.2888 34.0802 27.0373 33.8729 26.8009C32.9367 25.6862 31.8605 24.6972 30.6709 23.8582C30.6709 23.8582 30.1586 25.139 27.2127 26.6728C24.2669 28.2066 20.2996 28.0817 20.2996 28.0817C20.2996 28.0817 21.0681 28.3378 20.4277 29.7467C20.1491 30.3551 19.8993 30.8674 19.7008 31.2549C19.5279 30.1438 19.355 28.5043 19.355 28.5043C19.355 28.5043 19.4542 24.9373 20.7799 22.9008C22.1055 20.8643 24.8977 19.6124 28.0132 20.1503Z" fill="#263238" stroke="#263238" stroke-width="0.6" stroke-linecap="round" stroke-linejoin="round"/>
<path d="M20.6736 33.3336C20.6736 33.3336 19.9051 30.3878 18.6243 31.7966C17.3435 33.2055 18.8805 35.2548 19.6489 36.2795C20.4174 37.3041 21.6982 36.5356 21.6982 36.5356" fill="#B5B5B5"/>
<path d="M20.6736 33.3336C20.6736 33.3336 19.9051 30.3878 18.6243 31.7966C17.3435 33.2055 18.8805 35.2548 19.6489 36.2795C20.4174 37.3041 21.6982 36.5356 21.6982 36.5356" stroke="#263238" stroke-width="0.6" stroke-linecap="round" stroke-linejoin="round"/>
<path d="M31.1753 44.2454L32.4561 52.8332C32.4561 52.8332 35.1458 52.0776 36.0424 51.418L34.3421 44.8122C33.3308 44.4283 32.2569 44.2361 31.1753 44.2454Z" fill="#0F913D" stroke="#263238" stroke-width="0.6" stroke-miterlimit="10"/>
<path d="M74.3148 42.6579C74.6795 43.4157 74.9763 44.2044 75.2018 45.0146C75.522 46.2249 75.4451 47.1119 76.1624 47.6787C76.8797 48.2454 77.693 48.4023 77.5329 49.1292C77.4897 49.3356 77.3922 49.5267 77.2503 49.6826C77.1084 49.8386 76.9274 49.9537 76.726 50.0161C76.726 50.0161 76.3225 53.6472 76.1624 54.9376C76.0023 56.228 71.7244 54.9376 71.7244 54.9376L70.9431 59.0394L65.6982 59.3596L65.1315 54.9216C63.7422 53.1042 62.8277 50.9692 62.4706 48.7097C61.9038 44.9986 64.0011 40.6406 68.4391 40.6406C72.8771 40.6406 74.3148 42.6579 74.3148 42.6579Z" fill="white" stroke="#263238" stroke-width="0.6" stroke-miterlimit="10"/>
<path d="M76.4134 52.0175C76.4134 52.0175 75.4528 52.3377 74.8796 51.6973" stroke="#263238" stroke-width="0.6" stroke-miterlimit="10"/>
<path d="M75.0435 46.6123L75.3669 47.6626" stroke="#263238" stroke-width="0.6" stroke-miterlimit="10"/>
<path d="M75.0425 45.9746C74.8727 45.9746 74.7098 46.0421 74.5897 46.1622C74.4696 46.2823 74.4021 46.4452 74.4021 46.615" stroke="#263238" stroke-width="0.6" stroke-miterlimit="10"/>
<path d="M63.2587 61.3768C63.2587 61.3768 65.1799 58.796 65.5161 58.716C65.8523 58.6359 69.3905 57.829 71.0844 58.2325C72.7783 58.6359 73.1817 59.4428 74.4721 59.763C75.3861 59.936 76.3286 59.881 77.2163 59.6029C76.8947 60.105 76.4549 60.5206 75.9354 60.8133C75.353 61.1055 74.7249 61.296 74.0783 61.3768C73.0894 61.566 72.0713 61.5387 71.094 61.2968C69.0767 60.8933 65.6057 60.8133 65.6057 60.8133L63.2587 61.3768Z" fill="white" stroke="#263238" stroke-width="0.6" stroke-miterlimit="10"/>
<path d="M98.2802 59.8461C98.2802 59.8461 99.1671 56.7785 99.561 56.1317C100.082 55.3958 100.74 54.7665 101.498 54.2778C102.062 53.9576 104.242 52.6768 104.806 52.6768C105.369 52.6768 105.674 53.3172 105.209 53.5637C104.918 53.7238 103.515 54.2906 103.355 54.5243C103.163 54.7576 102.948 54.972 102.715 55.1647L103.996 55.4849C103.996 55.4849 104.479 56.3719 104.723 56.7657C104.966 57.1596 105.206 57.5726 104.883 58.1362C104.559 58.6997 104.159 59.5899 103.672 59.8333C103.186 60.0766 103.432 58.9431 103.432 58.9431C103.432 58.9431 102.472 59.9037 101.978 60.3168C101.627 60.5957 101.248 60.8392 100.848 61.0436L100.608 61.684L98.2802 59.8461Z" fill="white" stroke="#263238" stroke-width="0.6" stroke-miterlimit="10"/>
<path d="M59.6171 84.7558C59.6171 84.7558 61.2182 84.7558 61.5736 84.7206C61.929 84.6854 62.6302 84.4004 62.8544 84.4004C63.0785 84.4004 63.2002 86.0238 62.6206 87.4167C62.0411 88.8096 60.5361 89.5588 60.5361 89.5588L58.679 87.5896C58.679 87.5896 59.5019 85.6812 59.6171 84.7558Z" fill="white" stroke="#263238" stroke-width="0.6" stroke-miterlimit="10"/>
<path d="M61.0388 113.753C61.0388 113.753 60.2927 118.021 60.8243 121.969C61.3558 125.917 64.3465 141.29 64.3465 141.29L63.1745 145.773C63.1745 145.773 61.8937 146.519 62.5341 146.839C63.1745 147.16 66.2677 146.839 66.2677 146.839C66.2677 146.839 66.6968 144.918 67.017 143.958C67.3372 142.997 68.2978 142.357 67.8687 141.181C67.4396 140.006 67.1226 138.834 67.1226 138.834L68.618 115.994L61.0388 113.753Z" fill="white" stroke="#263238" stroke-width="0.6" stroke-miterlimit="10"/>
<path d="M67.6004 140.403C67.0977 140.368 66.0314 140.403 65.628 141.29C65.0964 142.462 63.9213 145.344 63.9213 145.344L62.7461 146.093L62.6341 146.167C62.3843 146.397 62.205 146.676 62.5348 146.839C63.1752 147.159 66.2684 146.839 66.2684 146.839C66.2684 146.839 66.6974 144.918 67.0176 143.957C67.3378 142.997 68.2984 142.356 67.8694 141.181C67.7733 140.919 67.6836 140.656 67.6004 140.403Z" fill="#263238" stroke="#263238" stroke-width="0.6" stroke-miterlimit="10"/>
<path d="M66.1625 142.356L66.6428 146.838H67.3888L67.7635 141.981C67.7635 141.981 66.4827 141.075 66.1625 142.356Z" fill="#263238" stroke="#263238" stroke-width="0.6" stroke-miterlimit="10"/>
<path d="M74.8087 115.245L76.7299 119.302C76.7299 119.302 77.0501 125.129 78.5455 128.652C80.0408 132.174 83.0283 137.832 83.0283 137.832L83.9889 139.538C83.9889 139.538 82.5992 141.139 83.0283 142.1C83.4574 143.061 85.2697 143.595 86.0158 144.236C86.7618 144.876 86.9219 146.839 87.7769 146.839C88.6318 146.839 90.9789 147.054 91.1934 146.519C91.408 145.984 90.0183 145.344 90.0183 145.344C90.0183 145.344 87.9626 141.45 87.7513 140.915C87.5399 140.381 84.3091 122.289 84.0946 120.157C83.88 118.024 83.2396 114.284 83.2396 114.284L74.8087 115.245Z" fill="white" stroke="#263238" stroke-width="0.6" stroke-miterlimit="10"/>
<path d="M88.0958 145.453C88.0958 145.453 86.4403 142.85 85.5886 141.675C85.0654 140.977 84.3379 140.46 83.5073 140.195C83.1519 140.746 82.774 141.534 83.027 142.101C83.4528 143.061 85.1627 143.593 85.6814 144.428C86.4051 145.594 86.9206 146.839 87.7756 146.839C88.6305 146.839 90.9776 147.054 91.1921 146.519C91.4066 145.985 90.017 145.344 90.017 145.344C89.6968 145.238 88.0958 145.453 88.0958 145.453Z" fill="#263238" stroke="#263238" stroke-width="0.6" stroke-miterlimit="10"/>
<path d="M83.0292 142.501L83.3974 147H84.073L84.4637 143.638C84.4637 143.638 84.5469 142.165 83.0292 142.501Z" fill="#263238" stroke="#263238" stroke-width="0.6" stroke-miterlimit="10"/>
<path d="M61.5764 84.7196C61.5764 84.7196 59.0148 90.163 58.3744 94.0054C57.734 97.8478 58.8547 104.892 58.8547 104.892L58.3744 114.498C58.3744 114.498 67.6603 116.9 74.0643 116.9C78.0135 116.882 81.9432 116.344 85.7516 115.299C85.7516 115.299 85.9117 104.892 84.6309 99.9291C83.3501 94.966 80.4683 86.6408 80.3082 86.1605C80.1481 85.6802 79.0274 84.2393 79.0274 84.2393C79.0274 84.2393 68.781 86.3206 61.5764 84.7196Z" fill="#263238" stroke="#263238" stroke-width="0.6" stroke-miterlimit="10"/>
<path d="M64.0909 100.125L74.1645 109.324" stroke="#707070" stroke-width="0.6" stroke-miterlimit="10"/>
<path d="M67.3771 106.039L71.9752 109.76" stroke="#707070" stroke-width="0.6" stroke-miterlimit="10"/>
<path d="M64.1501 61.2158C64.1501 61.2158 57.8549 63.7966 57.6148 64.5235C57.3746 65.2503 55.5175 69.2048 55.5175 69.2048C55.5175 69.2048 47.9319 80.8217 48.092 81.3885C48.2521 81.9552 56.968 87.2802 56.968 87.2802C56.968 87.2802 56.7278 87.5235 56.968 87.6836C57.6541 87.9375 58.3544 88.1514 59.0653 88.324C59.0653 88.324 60.3461 87.1137 60.3461 85.9834C60.3461 84.8531 60.0259 84.3824 59.7825 84.2895C59.5392 84.1966 58.4121 83.5627 58.4121 83.5627L58.0919 83.4826L54.6145 79.7747L58.9724 73.7229C58.9724 73.7229 62.8469 80.6616 62.8469 81.5486C62.8469 82.4355 60.9096 84.5361 61.3131 85.5031C61.7165 86.4701 63.1671 86.7134 68.8154 87.277C74.4638 87.8405 79.2252 85.9962 79.7023 85.5831C80.1794 85.1701 78.8954 82.6789 78.8954 80.8217C78.8954 78.9646 78.9754 72.1763 78.9754 72.1763C78.9754 72.1763 87.1277 75.564 88.7416 74.6771C90.3554 73.7901 100.118 63.2202 100.118 63.2202L101.569 61.8498L98.3412 58.8623L96.1638 60.7995L86.8043 68.2218C86.8043 68.2218 86.3208 67.7383 86.0775 67.7383C85.8339 67.7508 85.5912 67.7776 85.3506 67.8183C85.3506 67.8183 79.2188 63.6237 78.4919 62.9769C77.7651 62.3301 75.751 62.2532 75.751 62.2532L71.7965 61.5264C71.7965 61.5264 67.4578 59.7621 64.1501 61.2158Z" fill="white" stroke="#263238" stroke-width="0.6" stroke-miterlimit="10"/>
<path d="M78.9934 72.1916L74.0719 71.3047" stroke="#263238" stroke-width="0.6" stroke-miterlimit="10"/>
<path d="M77.7029 72.0303L73.1848 73.4007" stroke="#263238" stroke-width="0.6" stroke-miterlimit="10"/>
<path d="M74.0009 82.9243C74.2563 82.6412 74.4958 82.344 74.7181 82.0342" stroke="#263238" stroke-width="0.6" stroke-miterlimit="10"/>
<path d="M67.781 86.9601C69.7881 86.232 71.6362 85.1242 73.2244 83.6973" stroke="#263238" stroke-width="0.6" stroke-miterlimit="10"/>
<path d="M74.7845 80.2588C74.7845 80.2588 72.9305 81.309 70.9933 82.4362" stroke="#263238" stroke-width="0.6" stroke-miterlimit="10"/>
<path d="M57.5655 70.0938L58.984 73.7248C58.984 73.7248 56.2399 71.5475 55.9197 70.5773" stroke="#263238" stroke-width="0.6" stroke-miterlimit="10"/>
<path d="M56.9678 68.5576L57.2463 69.2717" stroke="#263238" stroke-width="0.6" stroke-miterlimit="10"/>
<path d="M54.222 73.0771C54.222 73.0771 55.6758 73.804 57.9364 73.2404" stroke="#263238" stroke-width="0.6" stroke-miterlimit="10"/>
<path d="M54.2237 79.5331C53.1489 79.7138 52.0477 79.6591 50.9961 79.373" stroke="#263238" stroke-width="0.6" stroke-miterlimit="10"/>
<path d="M52.0524 78.3154C52.0524 78.3154 53.2627 78.8822 54.1497 78.8822" stroke="#263238" stroke-width="0.6" stroke-miterlimit="10"/>
<path d="M58.0981 83.4873C58.0981 83.4873 58.905 86.5548 56.9678 87.2785L58.0981 83.4873Z" fill="white"/>
<path d="M58.0981 83.4873C58.0981 83.4873 58.905 86.5548 56.9678 87.2785" stroke="#263238" stroke-width="0.6" stroke-miterlimit="10"/>
<path d="M96.7463 60.3301L100.137 63.2343" stroke="#263238" stroke-width="0.6" stroke-miterlimit="10"/>
<path d="M85.1335 70.4229C84.9477 70.6118 84.7524 70.8007 84.5603 70.98" stroke="#263238" stroke-width="0.6" stroke-miterlimit="10"/>
<path d="M86.8243 68.5576C86.8243 68.5576 86.376 69.102 85.7612 69.768" stroke="#263238" stroke-width="0.6" stroke-miterlimit="10"/>
<path d="M85.7729 68.2354C85.0208 68.9754 84.1809 69.6206 83.2721 70.1566" stroke="#263238" stroke-width="0.6" stroke-miterlimit="10"/>
<path d="M74.5492 41.0606C74.5492 41.0606 75.1191 42.5496 73.976 46.3216C72.8329 50.0935 71.8019 52.6135 72.375 55.015C72.9482 57.4165 74.3186 57.8744 74.5492 57.5318C74.7831 57.234 75.0519 56.9653 75.3497 56.7313C75.3497 56.7313 75.577 57.6439 74.5492 58.4444C73.5213 59.2449 69.5156 60.0454 66.9988 59.7028C64.482 59.3602 62.881 60.3848 61.9781 58.217C61.0751 56.0493 61.5202 52.6135 61.2896 51.2399C61.0591 49.8662 58.7761 48.0378 60.3771 43.92C61.9781 39.8023 68.3821 39.3444 70.5531 39.3444C72.724 39.3444 74.2034 38.6591 74.5492 41.0606Z" fill="#263238" stroke="#263238" stroke-width="0.6" stroke-miterlimit="10"/>
<path d="M101.439 39.987C104.463 39.987 106.914 37.5356 106.914 34.5116C106.914 31.4876 104.463 29.0361 101.439 29.0361C98.4147 29.0361 95.9633 31.4876 95.9633 34.5116C95.9633 37.5356 98.4147 39.987 101.439 39.987Z" fill="white" stroke="#263238" stroke-width="0.6" stroke-miterlimit="10"/>
<path d="M99.2274 33.1667L101.578 35.7283L106.272 28.8984" stroke="#263238" stroke-width="1.8" stroke-linecap="round" stroke-linejoin="round"/>
<path d="M13.8729 84.7165C16.0112 82.5782 16.0112 79.1113 13.8729 76.973C11.7346 74.8347 8.26771 74.8347 6.12942 76.973C3.99112 79.1113 3.99112 82.5782 6.12941 84.7164C8.26771 86.8547 11.7346 86.8547 13.8729 84.7165Z" fill="white" stroke="#263238" stroke-width="0.6" stroke-miterlimit="10"/>
<path d="M7.78992 79.4997L10.137 82.0613L14.8343 75.2314" stroke="#263238" stroke-width="1.8" stroke-linecap="round" stroke-linejoin="round"/>
<path d="M24.1963 146.977H140.75" stroke="#263238" stroke-width="0.6" stroke-miterlimit="10"/>
<path d="M11.3881 146.977H20.6739" stroke="#263238" stroke-width="0.6" stroke-miterlimit="10"/>
</svg>
