<svg width="210" height="129" viewBox="0 0 210 129" fill="none" xmlns="http://www.w3.org/2000/svg">
<path d="M170.235 43.5106C170.235 43.5106 146.026 18.7121 114.563 16.7971C83.1012 14.8821 64.7544 35.2076 56.0603 47.3289C47.3662 59.4502 25.6746 79.6461 28.2326 98.139C30.7907 116.632 55.8695 130.663 91.7953 124.499C127.721 118.335 138.137 115.996 154.505 120.674C170.874 125.352 192.132 118.335 192.556 91.7627C192.98 65.1905 170.235 43.5106 170.235 43.5106Z" fill="#0F913D"/>
<path opacity="0.7" d="M170.235 43.5106C170.235 43.5106 146.026 18.7121 114.563 16.7971C83.1012 14.8821 64.7544 35.2076 56.0603 47.3289C47.3662 59.4502 25.6746 79.6461 28.2326 98.139C30.7907 116.632 55.8695 130.663 91.7953 124.499C127.721 118.335 138.137 115.996 154.505 120.674C170.874 125.352 192.132 118.335 192.556 91.7627C192.98 65.1905 170.235 43.5106 170.235 43.5106Z" fill="white"/>
<path d="M194.726 128.393H209.5" stroke="#263238" stroke-linecap="round" stroke-linejoin="round"/>
<path d="M7.52185 128.393H191.337" stroke="#263238" stroke-linecap="round" stroke-linejoin="round"/>
<path d="M0.5 128.393H4.86044" stroke="#263238" stroke-linecap="round" stroke-linejoin="round"/>
<path d="M118.895 126.857H91.4952L95.6033 111.732H114.784L118.895 126.857Z" fill="#263238" stroke="#263238" stroke-linecap="round" stroke-linejoin="round"/>
<path d="M126.02 126.856H84.3726V128.392H126.02V126.856Z" fill="#263238" stroke="#263238" stroke-linecap="round" stroke-linejoin="round"/>
<path d="M164.423 38.1221H45.9652V113.32H164.423V38.1221Z" fill="#263238" stroke="#263238" stroke-linecap="round" stroke-linejoin="round"/>
<path d="M160.628 40.9893H49.7615V110.455H160.628V40.9893Z" fill="#B2B2B2" stroke="#263238" stroke-linecap="round" stroke-linejoin="round"/>
<path d="M83.2573 58.5166L76.0751 59.7167L78.3399 92.8431L88.7502 93.6832C88.7502 93.6832 91.012 80.9465 91.1412 78.8786C91.2704 76.8107 87.4485 61.2953 87.4485 61.2953L83.2573 58.5166Z" fill="#0F913D" stroke="#263238" stroke-linecap="round" stroke-linejoin="round"/>
<path d="M93.8706 110.454C94.1068 109.638 94.2239 108.792 94.2183 107.943C94.1353 106.712 93.8091 104.832 93.8091 104.832L90.8611 105.078L92.0027 110.454H93.8706Z" fill="white" stroke="#263238" stroke-linecap="round" stroke-linejoin="round"/>
<path d="M62.2611 110.455H92.0733C91.9933 109.799 91.7656 108.147 91.5286 106.488C91.2055 104.356 89.0084 89.4186 89.0084 89.4186L67.0985 87.3477C67.0985 87.3477 61.9903 97.241 61.2794 100.149C60.5686 103.057 62.1749 109.91 62.1749 109.91L62.2611 110.455Z" fill="#263238" stroke="#263238" stroke-linecap="round" stroke-linejoin="round"/>
<path d="M91.1429 36.0163C91.1429 36.0163 92.8231 35.6286 93.5339 38.2781C94.2448 40.9276 93.4047 42.2785 93.7278 43.5802C94.0509 44.8818 94.7464 47.9098 93.9032 50.9471C93.06 53.9843 90.0444 56.1784 89.9028 57.2862L89.7736 58.3847C89.7736 58.3847 89.3212 58.8371 87.8995 58.7079C86.4778 58.5786 84.73 57.5447 84.73 57.5447L84.9238 55.3475C84.9238 55.3475 87.3856 55.3475 87.9641 54.8952C88.5427 54.4428 91.066 49.9716 91.2599 48.6884C91.4537 47.4052 91.583 43.7094 91.3891 42.6109C91.1952 41.5123 89.8505 39.2474 89.3212 39.0536C88.7919 38.8597 86.4101 37.1795 86.4101 37.1795C86.4101 37.1795 89.7212 35.1763 91.1429 36.0163Z" fill="#263238" stroke="#263238" stroke-linecap="round" stroke-linejoin="round"/>
<path d="M92.7572 63.8164C92.7572 63.8164 94.8282 64.7857 94.8928 66.4013C94.9575 68.0168 93.7912 75.1929 93.7912 75.713C93.7912 76.233 93.2096 86.9603 93.2096 86.9603L94.462 105.648L91.5171 105.814C91.5171 105.814 88.9476 91.9915 89.203 90.3237C89.4584 88.6558 91.0125 80.3658 91.1417 78.8795C91.2709 77.3932 90.9478 71.0571 91.4002 69.1831C91.8525 67.3091 92.7572 63.8164 92.7572 63.8164Z" fill="white" stroke="#263238" stroke-linecap="round" stroke-linejoin="round"/>
<path d="M88.3318 37.426C88.3318 37.426 91.526 38.7308 92.043 40.9956C92.5599 43.2605 91.7845 46.1008 92.043 47.9132C92.3014 49.7257 89.7166 54.2493 88.8119 55.3478C87.9072 56.4464 85.7069 56.0587 85.7069 56.0587L86.0393 59.6806C86.0393 59.6806 87.3933 64.2041 87.1963 65.3673C86.9994 66.5305 84.8668 68.2384 82.1558 68.0814C78.7924 67.8876 77.7554 64.758 77.7554 64.758L78.2077 57.5819C78.3208 56.1035 78.2785 54.6172 78.0816 53.1476C77.7584 50.4981 78.4693 46.4885 78.7278 45.8423C78.9863 45.1961 81.3803 42.5466 82.8666 41.5126C84.353 40.4787 87.2609 37.5122 87.2609 37.5122C87.2609 37.5122 88.1164 37.1522 88.3318 37.426Z" fill="white" stroke="#263238" stroke-linecap="round" stroke-linejoin="round"/>
<path d="M78.0791 58.9385C78.0791 58.9385 68.1273 59.8616 66.6933 60.8402C65.2593 61.8188 67.3395 82.5624 67.3395 82.5624C67.3395 82.5624 59.3387 100.149 59.5818 100.278C59.8249 100.407 63.653 103.574 67.7273 104.278C71.8015 104.983 77.7467 105.509 77.7467 105.509C77.7467 105.509 79.8793 88.0522 80.1378 86.6951C80.3962 85.3381 79.5562 71.8905 79.6854 70.0165C79.8146 68.1425 78.0791 58.9385 78.0791 58.9385Z" fill="white" stroke="#263238" stroke-linecap="round" stroke-linejoin="round"/>
<path d="M78.3649 79.9717C78.6584 80.6622 78.9955 81.3334 79.3742 81.9811" stroke="#263238" stroke-linecap="round" stroke-linejoin="round"/>
<path d="M75.8132 63.2461C76.241 67.1203 76.8995 73.1394 77.1118 75.3858C77.2608 76.7547 77.5974 78.0966 78.1119 79.3739" stroke="#263238" stroke-linecap="round" stroke-linejoin="round"/>
<path d="M75.4291 59.7822C75.4291 59.7822 75.5306 60.7054 75.6845 62.0932" stroke="#263238" stroke-linecap="round" stroke-linejoin="round"/>
<path d="M88.3321 37.4259C87.6888 38.5245 86.969 39.5764 86.178 40.5739C85.0518 41.9248 80.7806 44.6974 80.7806 44.6974C80.7806 44.6974 80.8544 46.1991 80.5528 46.6484C80.2513 47.0977 79.2789 46.7992 79.2789 46.7992C79.2789 46.7992 78.605 50.4703 78.8296 53.1721C79.0542 55.8739 80.4051 56.6186 80.0297 57.2956C79.6543 57.9726 77.2879 59.7574 74.066 58.4926C70.8442 57.2279 69.1917 55.9416 68.367 53.9168C67.5423 51.892 70.4318 41.1001 72.5305 37.6506C74.6292 34.201 79.6543 31.9515 82.7284 32.3269C85.8026 32.7024 91.277 34.3518 91.7263 35.6257C92.1755 36.8997 88.3321 37.4259 88.3321 37.4259Z" fill="#263238" stroke="#263238" stroke-linecap="round" stroke-linejoin="round"/>
<path d="M78.7278 45.833C78.7278 45.833 75.8352 49.0518 75.2413 52.526C74.6474 56.0002 76.4322 57.4896 77.1276 57.7881" stroke="#5C5C5C" stroke-linecap="round" stroke-linejoin="round"/>
<path d="M70.1931 52.0518C70.1149 52.7149 70.1779 53.3871 70.3777 54.0243" stroke="#5C5C5C" stroke-linecap="round" stroke-linejoin="round"/>
<path d="M83.7156 39.457C82.9879 40.104 82.2111 40.6935 81.3923 41.2203C77.4626 43.7867 72.2129 46.8732 70.6219 50.4766" stroke="#5C5C5C" stroke-linecap="round" stroke-linejoin="round"/>
<path d="M85.8698 35.6592C85.8698 35.6592 86.2021 36.6993 84.7128 38.4502" stroke="#5C5C5C" stroke-linecap="round" stroke-linejoin="round"/>
<path d="M86.0401 59.6807C86.0401 59.6807 91.5299 62.9764 92.7577 63.8165C93.9855 64.6565 91.9176 72.5435 92.1115 74.0944C92.3054 75.6453 92.887 79.3257 92.3054 80.8828C91.7238 82.4399 91.4007 83.4061 91.4007 83.4061L90.3021 90.5176C90.3021 90.5176 92.1115 104.159 92.0469 104.365C91.9823 104.571 85.6462 105.399 85.6462 105.399C85.6462 105.399 86.8094 91.5515 87.4587 88.6528C88.108 85.754 90.2282 81.4767 89.7205 76.6947C89.2128 71.9127 86.0401 59.6807 86.0401 59.6807Z" fill="white" stroke="#263238" stroke-linecap="round" stroke-linejoin="round"/>
<path d="M91.0226 76.6885C90.9418 78.2458 90.5659 79.7735 89.9148 81.1905" stroke="#263238" stroke-linecap="round" stroke-linejoin="round"/>
<path d="M89.256 62.3271C89.256 62.3271 90.9669 71.5773 91.0531 75.2269" stroke="#263238" stroke-linecap="round" stroke-linejoin="round"/>
<path d="M91.7177 72.5427C91.7177 72.5427 91.3238 69.3147 90.7946 67.6191" stroke="#263238" stroke-linecap="round" stroke-linejoin="round"/>
<path d="M86.7927 46.3519C86.7927 46.8627 86.5466 47.275 86.2388 47.275C85.9311 47.275 85.6849 46.8596 85.6849 46.3519C85.6849 45.8441 85.9311 45.4287 86.2388 45.4287C86.5466 45.4287 86.7927 45.8318 86.7927 46.3519Z" fill="#263238"/>
<path d="M91.4999 46.3519C91.4999 46.8627 91.2537 47.275 90.946 47.275C90.6383 47.275 90.389 46.8596 90.389 46.3519C90.389 45.8441 90.6383 45.4287 90.946 45.4287C91.2537 45.4287 91.4999 45.8318 91.4999 46.3519Z" fill="#263238"/>
<path d="M84.5604 44.6013C85.019 44.299 85.5382 44.101 86.0816 44.0212C86.625 43.9415 87.1793 43.9819 87.7054 44.1397" stroke="#263238" stroke-linecap="round" stroke-linejoin="round"/>
<path d="M91.5913 44.6024C91.4336 44.4211 91.2158 44.3027 90.9779 44.2688C90.74 44.2349 90.4979 44.2878 90.2958 44.4178C90.2958 44.4178 89.4649 45.5287 89.6496 46.2641" stroke="#263238" stroke-linecap="round" stroke-linejoin="round"/>
<path d="M89.7414 50.7041L87.9812 50.9811" stroke="#263238" stroke-linecap="round" stroke-linejoin="round"/>
<path d="M88.6402 52.1837C88.6402 52.1837 86.0491 52.9222 84.4767 50.9805" stroke="#263238" stroke-linecap="round" stroke-linejoin="round"/>
<path d="M85.7116 56.0579L83.1698 55.2363L85.3916 57.9228L85.7116 56.0579Z" fill="#263238" stroke="#263238" stroke-linecap="round" stroke-linejoin="round"/>
<path d="M131.679 59.6055C131.072 60.5424 130.629 61.5757 130.368 62.6612C130.005 64.3321 129.642 66.2246 129.642 66.2246C129.642 66.2246 131.461 64.7691 131.679 64.686C131.898 64.6029 131.534 62.7966 131.534 62.7966L132.765 61.778L131.679 59.6055Z" fill="#263238" stroke="#263238" stroke-linecap="round" stroke-linejoin="round"/>
<path d="M132.404 35.0956C132.404 35.0956 130.586 35.751 129.859 37.0589C129.133 38.3667 127.241 41.4224 127.533 42.4409C127.825 43.4595 127.967 43.8965 127.967 43.8965C127.967 43.8965 125.351 48.4785 125.641 48.9154C125.995 49.3562 126.384 49.7678 126.804 50.1463C126.804 50.1463 127.967 55.5992 128.478 55.9623C128.989 56.3254 130.441 56.5439 130.441 56.5439L132.549 59.1626L144.113 54.4483L144.261 51.9034C144.261 51.9034 148.187 46.8106 148.695 43.9026C149.203 40.9946 145.495 35.9757 141.494 34.0124C137.494 32.0491 133.278 33.1323 132.404 35.0956Z" fill="white" stroke="#263238" stroke-linecap="round" stroke-linejoin="round"/>
<path d="M128.644 45.4639C129.143 45.8762 129.758 46.1225 130.404 46.1686" stroke="#263238" stroke-linecap="round" stroke-linejoin="round"/>
<path d="M141.494 34.0066C137.494 32.0433 133.278 33.1327 132.404 35.0959C132.404 35.0959 132.767 35.3883 133.943 35.3144C135.118 35.2406 137.872 34.0835 138.598 35.0959C139.325 36.1083 136.417 36.9884 135.327 38.5147C134.238 40.041 134.527 40.1149 135.398 41.2842C136.269 42.4536 136.417 42.9583 136.272 43.466C136.127 43.9737 135.909 44.4107 136.854 44.5584C137.798 44.7061 138.085 42.3767 139.543 43.1029C141.002 43.8291 141.217 46.0109 140.706 47.4664C140.581 47.8732 140.376 48.2505 140.101 48.5758C139.827 48.901 139.489 49.1674 139.109 49.3589C139.109 49.3589 139.325 50.3036 140.925 51.1037C141.974 51.598 143.114 51.8704 144.273 51.9038C144.273 51.9038 148.199 46.8109 148.707 43.903C149.215 40.995 145.494 35.9852 141.494 34.0066Z" fill="#263238" stroke="#263238" stroke-linecap="round" stroke-linejoin="round"/>
<path d="M144.261 47.0352C144.499 47.6412 144.592 48.2947 144.532 48.943" stroke="#5C5C5C" stroke-linecap="round" stroke-linejoin="round"/>
<path d="M135.99 39.4785C135.99 39.4785 136.504 40.5063 139.375 41.7403C140.993 42.4357 142.517 43.9128 143.486 45.473" stroke="#5C5C5C" stroke-linecap="round" stroke-linejoin="round"/>
<path d="M143.913 42.5645C143.913 42.5645 146.486 44.1031 146.067 47.0911" stroke="#5C5C5C" stroke-linecap="round" stroke-linejoin="round"/>
<path d="M129.874 44.0784C129.874 44.58 129.662 45.0016 129.4 45.0016C129.139 45.0016 128.929 44.5923 128.929 44.0784C128.929 43.5645 129.139 43.1553 129.4 43.1553C129.662 43.1553 129.874 43.5769 129.874 44.0784Z" fill="#263238"/>
<path d="M128.337 42.0785C128.337 42.0785 129.645 40.5399 130.799 42.1523" stroke="#263238" stroke-linecap="round" stroke-linejoin="round"/>
<path d="M127.822 50.3686C127.822 50.3686 129.567 50.224 130.659 49.1377" stroke="#263238" stroke-linecap="round" stroke-linejoin="round"/>
<path d="M139.107 49.3535L138.307 49.5689C137.95 50.6367 137.352 51.6077 136.559 52.4061" fill="white"/>
<path d="M139.107 49.3535L138.307 49.5689C137.95 50.6367 137.352 51.6077 136.559 52.4061" stroke="#263238" stroke-linecap="round" stroke-linejoin="round"/>
<path d="M144.339 53.3496C144.339 53.3496 132.993 58.0793 132.485 58.6609C131.977 59.2425 131.685 59.6056 131.685 59.6056L132.556 64.2615L145.788 55.5314L144.339 53.3496Z" fill="white" stroke="#263238" stroke-linecap="round" stroke-linejoin="round"/>
<path d="M111.341 85.3997L111.972 90.031L109.024 90.7326C108.213 91.2799 107.366 91.7723 106.489 92.2066C105.298 92.7666 104.454 92.9759 104.027 92.9759C103.599 92.9759 102.063 92.345 102.063 92.345C102.063 92.345 103.116 86.6614 104.31 86.0306C105.504 85.3997 108.673 84.4858 111.341 85.3997Z" fill="white" stroke="#263238" stroke-linecap="round" stroke-linejoin="round"/>
<path d="M96.4988 87.3424C96.4988 87.3424 102.038 86.5208 102.653 86.4346C103.269 86.3485 104.881 87.6932 104.881 87.6932C104.881 87.6932 108.011 91.5705 107.832 91.8536C107.383 92.5645 106.894 92.1614 106.894 92.1614L106.857 92.6229C106.857 92.6229 106.515 93.1953 104.373 93.2015C102.232 93.2076 101.465 92.6814 100.939 92.6383C100.413 92.5953 96.2649 91.5367 96.2649 91.5367L96.4988 87.3424Z" fill="white" stroke="#263238" stroke-linecap="round" stroke-linejoin="round"/>
<path d="M94.6417 86.9297L96.6757 87.2959L96.4511 91.881L94.6017 91.7609L94.6417 86.9297Z" fill="white" stroke="#263238" stroke-linecap="round" stroke-linejoin="round"/>
<path d="M72.0884 60.5506C72.0884 60.5506 66.3032 60.1475 65.0908 61.0891C63.8784 62.0308 64.4753 74.4782 65.497 78.9863C66.5186 83.4944 67.9188 90.6952 68.5742 91.0306C69.2297 91.366 94.9092 92.4061 94.9092 92.4061L95.18 86.8209L75.3718 82.5528L73.9594 64.9264" fill="white"/>
<path d="M72.0884 60.5506C72.0884 60.5506 66.3032 60.1475 65.0908 61.0891C63.8784 62.0308 64.4753 74.4782 65.497 78.9863C66.5186 83.4944 67.9188 90.6952 68.5742 91.0306C69.2297 91.366 94.9092 92.4061 94.9092 92.4061L95.18 86.8209L75.3718 82.5528L73.9594 64.9264" stroke="#263238" stroke-linecap="round" stroke-linejoin="round"/>
<path d="M106.909 92.1598L106.016 90.9043" stroke="#263238" stroke-linecap="round" stroke-linejoin="round"/>
<path d="M106.294 92.8863L105.214 91.5107" stroke="#263238" stroke-linecap="round" stroke-linejoin="round"/>
<path d="M109.874 85.8368C109.874 85.8368 104.612 84.2213 103.56 85.3445C102.507 86.4677 100.261 89.4157 100.753 89.7665C101.246 90.1173 102.996 88.7818 103.418 88.5017C103.728 88.2774 104.011 88.0183 104.261 87.7293C104.75 88.2126 105.358 88.5581 106.023 88.731C106.688 88.9039 107.387 88.8981 108.049 88.7141" fill="white"/>
<path d="M109.874 85.8368C109.874 85.8368 104.612 84.2213 103.56 85.3445C102.507 86.4677 100.261 89.4157 100.753 89.7665C101.246 90.1173 102.996 88.7818 103.418 88.5017C103.728 88.2774 104.011 88.0183 104.261 87.7293C104.75 88.2126 105.358 88.5581 106.023 88.731C106.688 88.9039 107.387 88.8981 108.049 88.7141" stroke="#263238" stroke-linecap="round" stroke-linejoin="round"/>
<path d="M104.078 91.3755C104.078 91.3755 103.579 93.1819 103.77 93.4865C103.847 93.615 103.964 93.7147 104.103 93.7703C104.242 93.8259 104.395 93.8343 104.539 93.7942C104.71 93.7216 104.866 93.6172 104.998 93.4865C104.998 93.4865 105.075 91.9479 104.844 91.5694C104.613 91.1909 104.422 90.9263 104.078 91.3755Z" fill="white" stroke="#263238" stroke-linecap="round" stroke-linejoin="round"/>
<path d="M102.734 91.615C102.734 91.615 102.236 93.4182 102.427 93.7259C102.503 93.8546 102.619 93.9545 102.757 94.0101C102.896 94.0658 103.049 94.0741 103.193 94.0337C103.365 93.9616 103.522 93.8572 103.655 93.7259C103.655 93.7259 103.731 92.1873 103.501 91.8088C103.27 91.4303 103.082 91.1565 102.734 91.615Z" fill="white" stroke="#263238" stroke-linecap="round" stroke-linejoin="round"/>
<path d="M101.383 91.6837C101.383 91.6837 101.001 93.0685 101.149 93.3024C101.207 93.4011 101.296 93.4778 101.402 93.5207C101.509 93.5635 101.626 93.5701 101.737 93.5393C101.869 93.4845 101.989 93.404 102.09 93.3024C102.09 93.3024 102.149 92.1269 101.974 91.8315C101.798 91.536 101.647 91.3299 101.383 91.6837Z" fill="white" stroke="#263238" stroke-linecap="round" stroke-linejoin="round"/>
<path d="M99.7921 91.7389C99.7921 91.7389 99.4843 92.6621 99.6074 92.8129C99.6612 92.8805 99.7335 92.931 99.8154 92.9583C99.8973 92.9856 99.9854 92.9885 100.069 92.9668C100.171 92.9321 100.265 92.8801 100.349 92.8129C100.349 92.8129 100.395 92.0313 100.257 91.8374C100.118 91.6436 100.001 91.5051 99.7921 91.7389Z" fill="white" stroke="#263238" stroke-linecap="round" stroke-linejoin="round"/>
<path d="M110.92 84.9079L111.622 91.4347L113.936 91.0131L113.096 84.4863L110.92 84.9079Z" fill="white" stroke="#263238" stroke-linecap="round" stroke-linejoin="round"/>
<path d="M112.392 84.0666L113.795 92.3444L123.406 91.0827L124.458 81.6787L112.392 84.0666Z" fill="#0F913D" stroke="#263238" stroke-linecap="round" stroke-linejoin="round"/>
<path d="M119.938 91.5382L123.406 91.0827L124.458 81.6787L121.926 82.1803L119.938 91.5382Z" fill="#263238" stroke="#263238" stroke-linecap="round" stroke-linejoin="round"/>
<path d="M148.954 110.454L148.169 95.3755C148.169 95.3755 151.468 80.9125 150.766 72.9117C150.064 64.9109 144.661 56.5654 144.661 56.5654C144.661 56.5654 131.961 64.4924 130.629 65.8956C129.296 67.2988 126.914 69.6806 126.213 71.927C125.511 74.1733 122.776 87.9901 122.776 87.9901C122.776 87.9901 119.898 97.6742 118.988 103.499C118.434 107.041 118.501 109.254 118.64 110.448L148.954 110.454Z" fill="#0F913D" stroke="#263238" stroke-linecap="round" stroke-linejoin="round"/>
<path d="M144.183 59.2029C145.054 58.85 145.904 58.4504 146.731 58.0059" stroke="#263238" stroke-linecap="round" stroke-linejoin="round"/>
<path d="M126.914 75.1314C128.01 73.1497 129.376 70.7956 129.992 70.0786C131.155 68.7708 139.882 61.0623 143.082 59.6807" stroke="#263238" stroke-linecap="round" stroke-linejoin="round"/>
<path d="M125.277 78.1434C125.277 78.1434 125.797 77.1586 126.508 75.8662" stroke="#263238" stroke-linecap="round" stroke-linejoin="round"/>
<path d="M133.346 78.9014C133.346 83.4126 132.731 87.8777 133.039 92.3427C131.445 98.0848 128.574 103.187 126.509 108.575" stroke="#263238" stroke-linecap="round" stroke-linejoin="round"/>
<path d="M134.515 69.6436C134.515 69.6436 133.204 71.6068 133.349 75.241C133.367 75.6872 133.373 76.2965 133.37 77.0197" stroke="#263238" stroke-linecap="round" stroke-linejoin="round"/>
<path d="M147.17 71.6816C147.17 71.6816 144.262 94.0839 143.969 95.9025C143.76 97.2042 139.301 104.325 136.784 108.261" stroke="#263238" stroke-linecap="round" stroke-linejoin="round"/>
<path d="M127.948 104.097L122 103.063L122.388 101.251L128.207 102.288" stroke="#263238" stroke-linecap="round" stroke-linejoin="round"/>
<path d="M25.6433 20.4197C30.8133 19.482 34.2442 14.5308 33.3065 9.36089C32.3688 4.19096 27.4176 0.760029 22.2477 1.6977C17.0778 2.63537 13.6469 7.58657 14.5845 12.7565C15.5222 17.9264 20.4734 21.3574 25.6433 20.4197Z" fill="white" stroke="#263238" stroke-width="0.3" stroke-linecap="round" stroke-linejoin="round"/>
<path d="M26.6333 1.94043L23.9475 11.0605H33.4612C33.4603 9.00696 32.7947 7.00887 31.5639 5.36497C30.3332 3.72108 28.6034 2.51969 26.6333 1.94043Z" fill="#0F913D" stroke="#263238" stroke-width="0.3" stroke-linecap="round" stroke-linejoin="round"/>
<path d="M29.855 5.05944L33.6308 0.608398H36.8707" stroke="#263238" stroke-width="0.15" stroke-linecap="round" stroke-linejoin="round"/>
<path d="M39.1658 0.741211H44.0226" stroke="#263238" stroke-width="0.15" stroke-linecap="round" stroke-linejoin="round"/>
<path d="M39.1658 1.95508H44.0226" stroke="#263238" stroke-width="0.15" stroke-linecap="round" stroke-linejoin="round"/>
<path d="M39.1658 3.16895H44.0226" stroke="#263238" stroke-width="0.15" stroke-linecap="round" stroke-linejoin="round"/>
<path d="M39.1658 4.38379H44.0226" stroke="#263238" stroke-width="0.15" stroke-linecap="round" stroke-linejoin="round"/>
<path d="M14.8455 30.6328H12.078V38.8899H14.8455V30.6328Z" fill="#263238" stroke="#263238" stroke-width="0.15" stroke-linecap="round" stroke-linejoin="round"/>
<path d="M19.1937 33.6035H16.4261V38.8903H19.1937V33.6035Z" fill="#0F913D" stroke="#263238" stroke-width="0.3" stroke-linecap="round" stroke-linejoin="round"/>
<path d="M23.5449 28.8252H20.7773V38.89H23.5449V28.8252Z" fill="#263238" stroke="#263238" stroke-width="0.15" stroke-linecap="round" stroke-linejoin="round"/>
<path d="M27.8959 30.9082H25.1284V38.8928H27.8959V30.9082Z" fill="#0F913D" stroke="#263238" stroke-width="0.3" stroke-linecap="round" stroke-linejoin="round"/>
<path d="M32.2441 29.083H29.4766V38.8904H32.2441V29.083Z" fill="#263238" stroke="#263238" stroke-width="0.15" stroke-linecap="round" stroke-linejoin="round"/>
<path d="M36.595 23.2725H33.8275V38.8935H36.595V23.2725Z" fill="#0F913D" stroke="#263238" stroke-width="0.3" stroke-linecap="round" stroke-linejoin="round"/>
<path d="M39.7048 23.1084H41.3248" stroke="#263238" stroke-width="0.15" stroke-linecap="round" stroke-linejoin="round"/>
<path d="M39.7048 26.2637H41.3248" stroke="#263238" stroke-width="0.15" stroke-linecap="round" stroke-linejoin="round"/>
<path d="M39.7048 29.4219H41.3248" stroke="#263238" stroke-width="0.15" stroke-linecap="round" stroke-linejoin="round"/>
<path d="M39.7048 32.5801H41.3248" stroke="#263238" stroke-width="0.15" stroke-linecap="round" stroke-linejoin="round"/>
<path d="M39.7048 35.7383H41.3248" stroke="#263238" stroke-width="0.15" stroke-linecap="round" stroke-linejoin="round"/>
<path d="M39.7048 38.8926H41.3248" stroke="#263238" stroke-width="0.15" stroke-linecap="round" stroke-linejoin="round"/>
<path d="M13.6616 27.5898L17.9007 30.1545L22.3124 25.4309L26.6696 25.7973L30.8905 24.1229L35.6685 17.8369" stroke="#263238" stroke-width="0.3" stroke-linecap="round" stroke-linejoin="round"/>
<path d="M14.1946 27.5838C14.1946 27.4777 14.1631 27.3739 14.104 27.2857C14.045 27.1975 13.9611 27.1288 13.863 27.0884C13.7649 27.0479 13.657 27.0374 13.5529 27.0584C13.4489 27.0793 13.3534 27.1306 13.2786 27.2059C13.2038 27.2812 13.1529 27.3769 13.1326 27.4811C13.1123 27.5853 13.1233 27.6931 13.1644 27.791C13.2054 27.8889 13.2745 27.9724 13.3631 28.0309C13.4516 28.0894 13.5555 28.1203 13.6617 28.1197C13.7319 28.1197 13.8014 28.1058 13.8663 28.0789C13.9311 28.0519 13.99 28.0124 14.0396 27.9626C14.0891 27.9128 14.1283 27.8537 14.1549 27.7887C14.1815 27.7236 14.195 27.654 14.1946 27.5838Z" fill="#263238"/>
<path d="M18.4366 30.1551C18.4366 30.0491 18.4052 29.9455 18.3463 29.8573C18.2874 29.7692 18.2037 29.7005 18.1058 29.6599C18.0079 29.6194 17.9001 29.6088 17.7961 29.6294C17.6922 29.6501 17.5967 29.7012 17.5217 29.7761C17.4468 29.8511 17.3957 29.9466 17.375 30.0505C17.3544 30.1545 17.365 30.2622 17.4055 30.3602C17.4461 30.4581 17.5148 30.5418 17.6029 30.6007C17.6911 30.6596 17.7947 30.691 17.9007 30.691C17.9712 30.6914 18.0411 30.6778 18.1063 30.651C18.1715 30.6243 18.2307 30.5848 18.2806 30.5349C18.3304 30.4851 18.3699 30.4259 18.3967 30.3607C18.4234 30.2954 18.437 30.2256 18.4366 30.1551Z" fill="#263238"/>
<path d="M22.8453 25.4314C22.8453 25.3253 22.8138 25.2216 22.7548 25.1334C22.6958 25.0452 22.6119 24.9765 22.5138 24.936C22.4157 24.8955 22.3077 24.8851 22.2037 24.906C22.0997 24.927 22.0042 24.9783 21.9293 25.0536C21.8545 25.1288 21.8037 25.2246 21.7834 25.3288C21.763 25.4329 21.7741 25.5408 21.8151 25.6386C21.8561 25.7365 21.9253 25.82 22.0138 25.8785C22.1024 25.9371 22.2063 25.968 22.3124 25.9674C22.3826 25.9674 22.4522 25.9535 22.517 25.9265C22.5819 25.8996 22.6408 25.86 22.6903 25.8102C22.7398 25.7604 22.779 25.7013 22.8056 25.6363C22.8322 25.5713 22.8457 25.5017 22.8453 25.4314Z" fill="#263238"/>
<path d="M27.2025 25.7977C27.2025 25.6915 27.171 25.5878 27.112 25.4996C27.0529 25.4114 26.9691 25.3427 26.8709 25.3022C26.7728 25.2617 26.6649 25.2513 26.5609 25.2722C26.4568 25.2932 26.3613 25.3445 26.2865 25.4198C26.2117 25.495 26.1609 25.5908 26.1405 25.695C26.1202 25.7991 26.1313 25.907 26.1723 26.0049C26.2133 26.1027 26.2825 26.1862 26.371 26.2447C26.4595 26.3033 26.5635 26.3342 26.6696 26.3336C26.7398 26.3336 26.8094 26.3197 26.8742 26.2927C26.9391 26.2658 26.998 26.2262 27.0475 26.1764C27.097 26.1266 27.1362 26.0675 27.1628 26.0025C27.1894 25.9375 27.2029 25.8679 27.2025 25.7977Z" fill="#263238"/>
<path d="M31.4265 24.0379C31.4265 23.9319 31.3951 23.8283 31.3362 23.7401C31.2773 23.652 31.1936 23.5833 31.0956 23.5427C30.9977 23.5022 30.89 23.4916 30.786 23.5123C30.682 23.5329 30.5865 23.584 30.5116 23.6589C30.4366 23.7339 30.3856 23.8294 30.3649 23.9333C30.3442 24.0373 30.3548 24.1451 30.3954 24.243C30.436 24.3409 30.5047 24.4246 30.5928 24.4835C30.6809 24.5424 30.7846 24.5738 30.8906 24.5738C31.0327 24.5738 31.169 24.5174 31.2695 24.4169C31.37 24.3164 31.4265 24.18 31.4265 24.0379Z" fill="#263238"/>
<path d="M36.2015 17.8367C36.2015 17.7306 36.17 17.6268 36.111 17.5386C36.052 17.4504 35.9681 17.3818 35.87 17.3413C35.7719 17.3008 35.6639 17.2904 35.5599 17.3113C35.4559 17.3322 35.3604 17.3836 35.2855 17.4588C35.2107 17.5341 35.1599 17.6299 35.1396 17.734C35.1192 17.8382 35.1303 17.946 35.1713 18.0439C35.2123 18.1418 35.2815 18.2253 35.37 18.2838C35.4586 18.3423 35.5625 18.3733 35.6686 18.3727C35.8102 18.3719 35.9458 18.315 36.0456 18.2146C36.1455 18.1142 36.2015 17.9783 36.2015 17.8367Z" fill="#263238"/>
<path d="M199.673 42.794L185.499 23.1943L171.323 42.794H177.154V64.5678H193.844V42.794H199.673Z" fill="#0F913D" stroke="#263238" stroke-width="0.3" stroke-linecap="round" stroke-linejoin="round"/>
<path d="M187.73 76.2914C195.697 75.0038 201.112 67.5015 199.824 59.5345C198.537 51.5675 191.035 46.1527 183.068 47.4402C175.101 48.7277 169.686 56.23 170.973 64.1971C172.261 72.1641 179.763 77.5789 187.73 76.2914Z" fill="white" stroke="#263238" stroke-width="0.3" stroke-linecap="round" stroke-linejoin="round"/>
<path d="M196.527 67.4766C199.624 61.3337 197.156 53.8428 191.013 50.7451C184.87 47.6475 177.379 50.1162 174.281 56.2591C171.184 62.402 173.652 69.893 179.795 72.9906C185.938 76.0882 193.429 73.6195 196.527 67.4766Z" fill="white" stroke="#263238" stroke-width="0.3" stroke-linecap="round" stroke-linejoin="round"/>
<path d="M189.56 63.7326C189.56 60.4716 184.939 60.4019 184.939 59.0394C184.939 58.3248 185.315 58.1098 186.087 58.1098C186.75 58.1098 187.298 58.3944 187.949 58.9697L189.463 57.2135C188.759 56.4173 187.806 55.8835 186.759 55.6996V53.8828H184.76V55.7783C183.035 56.1507 182.002 57.3801 182.002 59.1908C182.002 62.3277 186.623 62.5215 186.623 63.9567C186.623 64.6561 186.265 64.9589 185.369 64.9589C184.618 64.9589 183.855 64.6743 182.898 63.9567L181.572 66.0338C182.481 66.7851 183.589 67.2554 184.76 67.3873V69.1859H186.768V67.2601C188.636 66.806 189.56 65.4676 189.56 63.7326Z" fill="#0F913D" stroke="#263238" stroke-width="0.3" stroke-linecap="round" stroke-linejoin="round"/>
</svg>
