<svg width="36" height="36" viewBox="0 0 36 36" fill="none" xmlns="http://www.w3.org/2000/svg">
<g filter="url(#filter0_i_746_42806)">
<rect x="0.600098" y="0.599609" width="34" height="34" rx="4" fill="white"/>
<rect x="0.300098" y="0.299609" width="34.6" height="34.6" rx="4.3" stroke="#E7E7E7" stroke-width="0.6"/>
<path d="M28.1311 14.1272L26.6747 9.02773C26.5767 8.68944 26.372 8.39192 26.091 8.17958C25.81 7.96724 25.4679 7.85149 25.1157 7.84961H10.0845C9.73229 7.85149 9.39016 7.96724 9.10918 8.17958C8.8282 8.39192 8.62345 8.68944 8.52549 9.02773L7.06908 14.1272C7.04826 14.1995 7.03766 14.2744 7.0376 14.3496V15.9746C7.0376 16.6053 7.18444 17.2273 7.46649 17.7914C7.74854 18.3555 8.15805 18.8462 8.6626 19.2246V26.5371C8.6626 26.7526 8.7482 26.9593 8.90057 27.1116C9.05295 27.264 9.25961 27.3496 9.4751 27.3496H25.7251C25.9406 27.3496 26.1472 27.264 26.2996 27.1116C26.452 26.9593 26.5376 26.7526 26.5376 26.5371V19.2246C27.0421 18.8462 27.4517 18.3555 27.7337 17.7914C28.0158 17.2273 28.1626 16.6053 28.1626 15.9746V14.3496C28.1625 14.2744 28.1519 14.1995 28.1311 14.1272ZM13.5376 15.9746C13.5375 16.3938 13.4292 16.8058 13.2234 17.1709C13.0175 17.536 12.721 17.8419 12.3624 18.059C12.0038 18.276 11.5953 18.3969 11.1764 18.4101C10.7574 18.4232 10.3422 18.328 9.97072 18.1338C9.9142 18.0898 9.85203 18.0536 9.78588 18.0262C9.44166 17.8058 9.15838 17.5024 8.96209 17.1439C8.7658 16.7854 8.66282 16.3833 8.6626 15.9746V15.1621H13.5376V15.9746ZM20.0376 15.9746C20.0376 16.6211 19.7808 17.2411 19.3237 17.6982C18.8666 18.1553 18.2466 18.4121 17.6001 18.4121C16.9536 18.4121 16.3336 18.1553 15.8765 17.6982C15.4194 17.2411 15.1626 16.6211 15.1626 15.9746V15.1621H20.0376V15.9746ZM26.5376 15.9746C26.5373 16.3834 26.4341 16.7856 26.2377 17.1441C26.0412 17.5026 25.7577 17.8059 25.4133 18.0262C25.348 18.0537 25.2866 18.0895 25.2305 18.1328C24.8591 18.3272 24.4438 18.4226 24.0248 18.4096C23.6058 18.3967 23.1972 18.2759 22.8385 18.0589C22.4798 17.8419 22.1831 17.5361 21.9772 17.171C21.7712 16.8059 21.6628 16.3938 21.6626 15.9746V15.1621H26.5376V15.9746Z" fill="black"/>
</g>
<defs>
<filter id="filter0_i_746_42806" x="-4" y="-1" width="39.2002" height="36.1992" filterUnits="userSpaceOnUse" color-interpolation-filters="sRGB">
<feFlood flood-opacity="0" result="BackgroundImageFix"/>
<feBlend mode="normal" in="SourceGraphic" in2="BackgroundImageFix" result="shape"/>
<feColorMatrix in="SourceAlpha" type="matrix" values="0 0 0 0 0 0 0 0 0 0 0 0 0 0 0 0 0 0 127 0" result="hardAlpha"/>
<feOffset dx="-4" dy="-1"/>
<feGaussianBlur stdDeviation="4"/>
<feComposite in2="hardAlpha" operator="arithmetic" k2="-1" k3="1"/>
<feColorMatrix type="matrix" values="0 0 0 0 0 0 0 0 0 0 0 0 0 0 0 0 0 0 0.07 0"/>
<feBlend mode="normal" in2="shape" result="effect1_innerShadow_746_42806"/>
</filter>
</defs>
</svg>
