<svg width="40" height="40" viewBox="0 0 40 40" fill="none" xmlns="http://www.w3.org/2000/svg">
<path d="M0 20C0 8.95431 8.95431 0 20 0C31.0457 0 40 8.95431 40 20C40 31.0457 31.0457 40 20 40C8.95431 40 0 31.0457 0 20Z" fill="#FFEACF"/>
<path d="M29.7209 16.7947L28.3766 12.0875C28.2861 11.7752 28.0971 11.5006 27.8378 11.3046C27.5784 11.1086 27.2626 11.0017 26.9375 11H13.0625C12.7374 11.0017 12.4216 11.1086 12.1622 11.3046C11.9029 11.5006 11.7139 11.7752 11.6234 12.0875L10.2791 16.7947C10.2598 16.8614 10.2501 16.9305 10.25 17V18.5C10.25 19.0822 10.3855 19.6563 10.6459 20.1771C10.9063 20.6978 11.2843 21.1507 11.75 21.5V28.25C11.75 28.4489 11.829 28.6397 11.9697 28.7803C12.1103 28.921 12.3011 29 12.5 29H27.5C27.6989 29 27.8897 28.921 28.0303 28.7803C28.171 28.6397 28.25 28.4489 28.25 28.25V21.5C28.7157 21.1507 29.0937 20.6978 29.3541 20.1771C29.6145 19.6563 29.75 19.0822 29.75 18.5V17C29.7499 16.9305 29.7402 16.8614 29.7209 16.7947ZM16.25 18.5C16.2499 18.8869 16.15 19.2673 15.9599 19.6043C15.7699 19.9413 15.4962 20.2236 15.1652 20.424C14.8342 20.6244 14.4571 20.736 14.0704 20.7481C13.6837 20.7602 13.3004 20.6724 12.9575 20.4931C12.9053 20.4525 12.8479 20.4191 12.7869 20.3937C12.4691 20.1903 12.2076 19.9103 12.0265 19.5794C11.8453 19.2484 11.7502 18.8773 11.75 18.5V17.75H16.25V18.5ZM22.25 18.5C22.25 19.0967 22.0129 19.669 21.591 20.091C21.169 20.5129 20.5967 20.75 20 20.75C19.4033 20.75 18.831 20.5129 18.409 20.091C17.9871 19.669 17.75 19.0967 17.75 18.5V17.75H22.25V18.5ZM28.25 18.5C28.2497 18.8774 28.1545 19.2486 27.9731 19.5795C27.7918 19.9104 27.5301 20.1904 27.2122 20.3937C27.1519 20.4191 27.0952 20.4522 27.0434 20.4922C26.7006 20.6716 26.3173 20.7596 25.9305 20.7477C25.5437 20.7357 25.1666 20.6242 24.8355 20.424C24.5044 20.2237 24.2305 19.9414 24.0404 19.6044C23.8502 19.2673 23.7502 18.887 23.75 18.5V17.75H28.25V18.5Z" fill="#A2845E"/>
</svg>
