<svg width="158" height="124" viewBox="0 0 158 124" fill="none" xmlns="http://www.w3.org/2000/svg">
<path d="M148.002 74.0681C157.305 59.5023 161.415 37.8143 152.708 22.017C144.645 7.44728 127.263 0.411449 111.25 0.0192617C97.398 -0.318019 86.4011 3.78034 75.5924 11.828C70.0194 15.9813 64.3876 20.4247 57.6773 22.8445C52.4377 24.7349 47.0491 26.0369 41.6447 27.4802C22.102 32.708 10.058 50.4388 12.6817 69.503C14.7054 84.1551 26.0788 97.7836 40.5897 103.227C51.8416 107.447 63.666 104.329 74.5374 100.643C80.3967 98.6543 86.303 96.5992 92.4878 95.6737C98.4687 94.7756 104.253 95.8972 110.175 95.2501C124.769 93.6578 139.813 86.9044 148.002 74.0681Z" fill="#0F913D"/>
<path opacity="0.7" d="M148.002 74.0681C157.305 59.5023 161.415 37.8143 152.708 22.017C144.645 7.44728 127.263 0.411449 111.25 0.0192617C97.398 -0.318019 86.4011 3.78034 75.5924 11.828C70.0194 15.9813 64.3876 20.4247 57.6773 22.8445C52.4377 24.7349 47.0491 26.0369 41.6447 27.4802C22.102 32.708 10.058 50.4388 12.6817 69.503C14.7054 84.1551 26.0788 97.7836 40.5897 103.227C51.8416 107.447 63.666 104.329 74.5374 100.643C80.3967 98.6543 86.303 96.5992 92.4878 95.6737C98.4687 94.7756 104.253 95.8972 110.175 95.2501C124.769 93.6578 139.813 86.9044 148.002 74.0681Z" fill="white"/>
<path d="M152.618 81.1992H150.959H75.8634H74.2044V84.525H75.8634V118.328H150.959V84.525H152.618V81.1992Z" fill="#0F913D"/>
<path opacity="0.5" d="M152.618 81.1992H150.959H75.8634H74.2044V84.525H75.8634V118.328H150.959V84.525H152.618V81.1992Z" fill="white"/>
<path d="M77.8752 98.8512H98.3552V87.917H77.8752V98.8512ZM78.2909 88.3209H97.9395V98.459H78.2909V88.3209Z" fill="white"/>
<path d="M103.309 98.8512H123.793V87.917H103.309V98.8512ZM103.733 88.3327H123.385V98.459H103.733V88.3327Z" fill="white"/>
<path d="M128.746 87.917V98.8512H149.226V87.917H128.746ZM148.811 98.459H129.162V88.3327H148.811V98.459Z" fill="white"/>
<path d="M77.8752 113.55H98.3552V102.604H77.8752V113.55ZM78.2909 103.02H97.9395V113.135H78.2909V103.02Z" fill="white"/>
<path d="M103.309 113.55H123.793V102.604H103.309V113.55ZM103.733 103.02H123.385V113.135H103.733V103.02Z" fill="white"/>
<path d="M128.746 113.55H149.226V102.604H128.746V113.55ZM129.162 103.02H148.811V113.135H129.162V103.02Z" fill="white"/>
<path d="M88.3344 94.7775C90.1712 94.7775 91.6602 94.2191 91.6602 93.5304C91.6602 92.8416 90.1712 92.2832 88.3344 92.2832C86.4976 92.2832 85.0087 92.8416 85.0087 93.5304C85.0087 94.2191 86.4976 94.7775 88.3344 94.7775Z" fill="white"/>
<path d="M113.647 94.7775C115.484 94.7775 116.973 94.2191 116.973 93.5304C116.973 92.8416 115.484 92.2832 113.647 92.2832C111.81 92.2832 110.321 92.8416 110.321 93.5304C110.321 94.2191 111.81 94.7775 113.647 94.7775Z" fill="white"/>
<path d="M139.692 94.7775C141.528 94.7775 143.017 94.2191 143.017 93.5304C143.017 92.8416 141.528 92.2832 139.692 92.2832C137.855 92.2832 136.366 92.8416 136.366 93.5304C136.366 94.2191 137.855 94.7775 139.692 94.7775Z" fill="white"/>
<path d="M88.3344 106.97C86.499 106.97 85.0087 107.527 85.0087 108.217C85.0087 108.907 86.499 109.46 88.3344 109.46C90.1698 109.46 91.6602 108.903 91.6602 108.217C91.6602 107.531 90.1698 106.97 88.3344 106.97Z" fill="white"/>
<path d="M113.647 106.97C111.811 106.97 110.321 107.527 110.321 108.217C110.321 108.907 111.811 109.46 113.647 109.46C115.482 109.46 116.973 108.903 116.973 108.217C116.973 107.531 115.498 106.97 113.647 106.97Z" fill="white"/>
<path d="M139.691 106.97C137.856 106.97 136.369 107.527 136.369 108.217C136.369 108.907 137.856 109.46 139.691 109.46C141.526 109.46 143.017 108.903 143.017 108.217C143.017 107.531 141.53 106.97 139.691 106.97Z" fill="white"/>
<path d="M64.9748 78.2914C63.4609 80.5387 61.351 83.4605 60.2254 85.8057C60.6529 84.2605 61.0725 82.7977 61.4529 81.4917C62.0294 80.3583 63.5747 77.4992 65.3748 75.6089C67.6377 73.1852 68.6064 71.6282 67.3867 71.4948C66.5435 71.4007 64.0727 74.6912 62.5236 77.9581C62.8609 76.8403 63.1276 75.9971 63.308 75.4912C63.3825 75.2638 63.4531 75.0167 63.5237 74.7539C65.1261 72.5121 66.5853 70.1713 67.8926 67.7455C70.1791 63.4746 70.9164 59.4429 69.3908 61.1764C67.9868 62.7726 65.5434 70.7105 63.6021 74.4441C63.7668 73.8009 63.9237 73.091 64.061 72.389C64.3355 71.7105 64.6963 71.0203 64.9003 70.3928C65.2179 69.428 65.4964 68.4554 65.7199 67.4632C66.0886 65.9215 66.2755 64.342 66.2768 62.7569C66.3162 60.8951 65.809 59.0625 64.8179 57.4859C64.5551 57.0937 62.9472 54.6896 62.4648 55.9172C62.4019 56.1217 62.3898 56.3384 62.4295 56.5486C62.6648 58.5919 63.406 60.4705 63.8649 62.4588C64.5512 65.4355 64.0963 70.432 63.8649 72.5577C63.7786 72.8949 63.6688 73.3107 63.5394 73.793C63.857 70.0908 62.253 65.7022 60.7666 64.9335C58.9272 63.9844 60.7313 67.7102 62.151 70.9654C62.8235 72.3899 63.1398 73.9566 63.0727 75.5304C62.7824 76.5972 62.4491 77.8012 62.104 79.017C62.0334 79.1817 61.9706 79.3503 61.9079 79.5151C62.0674 78.7216 62.1319 77.9119 62.1 77.1031C61.9667 74.9775 59.5587 70.7222 57.9585 71.3223C56.3584 71.9223 59.0684 74.1656 60.5156 76.7776C61.2749 78.2219 61.5668 79.8664 61.351 81.4838C61.351 81.5819 61.3196 81.676 61.3078 81.7662C61.1392 82.3231 60.9745 82.8565 60.8176 83.3663C60.4254 84.5429 60.092 85.6724 59.7587 86.7627C60.1682 85.1808 60.3479 83.5483 60.2921 81.9152C60.092 78.8013 58.2684 75.8599 56.7624 75.4559C55.2564 75.052 58.1311 80.1347 59.0959 82.9898C59.6205 84.6574 59.7096 86.4315 59.3547 88.1432C58.888 89.6884 58.4488 91.214 57.9978 92.8259C58.1237 90.7144 58.0778 88.5961 57.8605 86.4921C57.5664 83.0251 55.5074 80.8132 54.0877 80.9034C52.6679 80.9936 54.1504 82.9624 56.1976 87.1784C57.2786 89.392 57.76 91.8505 57.5938 94.3084C57.4095 94.9868 57.2016 95.6849 57.0291 96.4144C56.8094 97.2458 56.6369 98.1518 56.48 99.0773C56.2761 98.2498 55.9702 97.0419 55.6133 95.7085C55.1977 94.2343 54.8961 92.7304 54.7112 91.2101C54.5191 89.4413 54.0524 87.2333 52.3189 86.3156C52.2011 86.2335 52.0667 86.1782 51.9253 86.1536C51.7838 86.1289 51.6387 86.1355 51.5001 86.1729C51.3614 86.2102 51.2326 86.2775 51.1227 86.3699C51.0129 86.4623 50.9245 86.5776 50.8639 86.7078C50.7048 87.0872 50.6692 87.507 50.7619 87.9079C50.9921 89.1111 51.388 90.2765 51.9385 91.3709C51.5979 92.0238 51.4433 92.7578 51.4914 93.4926C51.4914 93.7671 51.5149 94.0417 51.5345 94.3162C51.3816 94.0338 51.2365 93.775 51.0992 93.5318C50.85 93.116 50.5437 92.7371 50.1893 92.4062C50.2782 91.7564 50.3227 91.1012 50.3227 90.4453C50.3227 89.5864 49.3147 87.3941 48.4049 89.0177C48.0401 89.6688 48.1107 90.9434 48.0754 91.7905C47.8284 92.0258 47.7538 92.5043 47.9617 93.2573C47.8205 95.2182 47.7931 97.2262 48.2676 99.1401L47.9539 98.595C47.5118 96.3262 47.2495 94.026 47.1695 91.716C47.0557 87.9 47.6636 84.7704 46.6243 83.5938C45.585 82.4172 45.0046 86.5548 45.4478 91.065C45.6566 93.123 46.2052 95.1321 47.0714 97.0105C46.0517 95.179 45.0438 93.3122 44.0908 91.5199C43.6986 90.559 42.726 87.9588 42.9652 85.3234C43.2672 82.0015 43.4868 79.2797 42.224 77.409C40.9612 75.5383 40.6984 76.7541 41.3181 80.6524C41.7416 83.3271 42.1926 86.9039 42.9692 89.3864C42.2318 87.9628 41.5377 86.6097 40.918 85.3861C40.5651 84.1625 39.7415 81.0211 39.7415 78.413C39.7415 75.0951 39.3885 73.3146 38.408 74.0323C37.7256 74.5382 38.1649 78.6326 39.263 82.076C38.7492 81.0289 38.361 80.2249 38.1374 79.7504C38.0354 79.5347 37.9217 79.3033 37.7923 79.064C37.4334 76.3325 36.9029 73.6263 36.2039 70.9615C34.9607 66.2788 32.7448 62.8275 32.8154 65.1375C32.8782 67.2631 36.5098 74.7304 37.6433 78.7856C37.3217 78.2012 36.9491 77.5777 36.5726 76.9698C36.3098 76.2834 36.102 75.5344 35.8235 74.9382C35.396 74.0166 34.9372 73.1146 34.4234 72.2361C33.6388 70.8547 32.695 69.57 31.6114 68.4083C30.3561 66.9789 28.7022 65.9573 26.862 65.4748C26.3993 65.3649 23.5912 64.6904 24.0697 65.9454C24.1591 66.1368 24.2937 66.3037 24.4619 66.4317C26.0306 67.7651 27.8503 68.6319 29.5603 69.7731C32.0938 71.4831 35.1725 75.4442 36.4432 77.1659L37.0471 78.2914C34.7528 75.3657 30.5839 73.2558 28.9759 73.7107C26.9836 74.2715 30.8427 75.7618 34.1018 77.1698C35.5662 77.7517 36.8666 78.6819 37.8903 79.8798C38.408 80.8603 38.9845 81.9623 39.5611 83.0879C39.6277 83.2565 39.6905 83.4212 39.7571 83.586C39.3333 82.8972 38.8291 82.2613 38.2551 81.6917C36.7059 80.2328 32.0389 78.7621 31.282 80.2916C30.5251 81.8211 34.0273 81.6172 36.8746 82.5349C38.4081 83.073 39.738 84.0715 40.6827 85.3939C40.7376 85.4724 40.7886 85.5547 40.8435 85.6293C41.1023 86.1469 41.3455 86.6529 41.5769 87.1313C42.1103 88.2569 42.6201 89.3119 43.1182 90.3355C42.3408 88.8947 41.3593 87.5738 40.2042 86.4136C37.9296 84.2723 34.5881 83.3703 33.2037 84.1154C31.8193 84.8606 37.3962 86.598 40.0513 88.0373C41.5732 88.8987 42.8491 90.1354 43.7575 91.6297C44.4712 93.0769 45.1889 94.4927 45.9615 95.9791C44.6126 94.3502 43.1345 92.8328 41.5416 91.4415C38.9571 89.1079 35.9412 88.8962 34.9646 89.9315C33.9881 90.9669 36.4157 91.3944 40.7847 93.069C43.0838 93.9489 45.1122 95.4161 46.6675 97.3243C46.9969 97.9478 47.3342 98.5871 47.695 99.2538C48.0872 100.007 48.5853 100.791 49.1108 101.572C48.397 101.109 47.346 100.434 46.1772 99.7048C44.8657 98.9111 43.6186 98.0155 42.4475 97.0262C41.0984 95.8693 39.2512 94.5711 37.3491 95.0849C37.2075 95.1055 37.0722 95.1571 36.9527 95.2358C36.8332 95.3145 36.7325 95.4186 36.6577 95.5405C36.5828 95.6625 36.5357 95.7994 36.5197 95.9416C36.5036 96.0838 36.519 96.2278 36.5647 96.3634C36.7033 96.7513 36.9632 97.0841 37.306 97.3125C39.0944 98.6969 41.4985 99.3636 43.581 100.183C45.4894 100.934 47.4454 101.558 49.4363 102.05C49.9305 102.76 50.4442 103.462 50.9619 104.129L50.0285 104.156C48.9226 104.191 43.9339 101.929 41.4004 101.203C38.8669 100.477 36.4981 101.85 39.1532 103.278C41.8083 104.705 49.0284 104.388 49.0284 104.388L51.111 104.325C51.6012 104.952 52.0797 105.548 52.5346 106.094H42.6397V108.839H44.6007L46.1694 118.6H59.3194L60.9078 108.839H62.8687V106.094H56.3153C56.2623 104.907 56.2938 103.718 56.4094 102.536C56.8467 102.092 57.3321 101.697 57.8566 101.36C60.7352 99.3715 65.614 99.2068 66.9122 95.3751C67.2259 94.4535 66.869 93.2691 65.767 93.32C64.9826 93.3553 64.1316 94.0534 63.6374 94.6221C61.9902 96.5242 60.7509 98.4969 58.6096 99.9402C57.8739 100.506 57.1671 101.108 56.4918 101.744C56.5663 101.121 56.6604 100.454 56.782 99.7401C57.2994 98.8224 57.8896 97.9477 58.5468 97.1243C60.2999 94.9476 62.9668 93.673 64.861 91.5983C65.4415 90.963 66.2062 88.6805 64.4336 89.2452C63.6492 89.4962 62.7158 90.6924 62.0804 91.2375C60.3352 92.8063 58.5507 94.477 57.4134 96.5399C57.4605 96.336 57.5115 96.1477 57.5585 95.9281C58.782 93.9662 60.1604 92.1052 61.6804 90.3629C64.1982 87.5 66.7788 85.6253 66.822 84.0566C66.8651 82.4878 63.6178 85.1155 60.8607 88.7079C59.61 90.356 58.6401 92.1992 57.9899 94.1632C58.4958 92.1317 59.0331 90.0766 59.5587 88.1079C59.9195 87.1274 60.9902 84.5782 62.9629 82.8094C65.4532 80.5857 67.4691 78.7503 67.826 76.5344C68.1829 74.3186 67.1828 75.0206 64.9748 78.2914ZM51.0482 103.517C50.6756 103.011 50.2874 102.462 49.8716 101.854C49.624 100.823 49.4588 99.7738 49.3775 98.7165C49.3273 97.8165 49.3693 96.9137 49.503 96.0222C50.1723 96.8511 50.8831 97.6456 51.6326 98.4028C51.6147 99.1869 51.5188 99.9673 51.3463 100.732C51.1994 101.655 51.0999 102.584 51.0482 103.517ZM53.1817 106.101C52.6758 105.564 52.1228 104.925 51.5228 104.14C51.5378 103.518 51.6233 102.9 51.7777 102.297C52.0171 101.347 52.3618 100.426 52.8052 99.5519C53.7347 100.434 54.4171 101.019 54.4171 101.019L55.9858 102.395C55.8643 103.764 55.7937 105.05 55.7505 106.094L53.1817 106.101ZM56.0055 102.156L55.3034 101.54C54.9113 101.187 54.2053 99.8225 53.4366 98.2498C53.7645 97.5881 54.0552 96.9085 54.3073 96.2144C55.1387 97.7557 55.876 98.9597 56.3114 99.599C56.1859 100.45 56.0878 101.317 56.0055 102.156Z" fill="#0F913D"/>
<path opacity="0.5" d="M64.9748 78.2914C63.4609 80.5387 61.351 83.4605 60.2254 85.8057C60.6529 84.2605 61.0725 82.7977 61.4529 81.4917C62.0294 80.3583 63.5747 77.4992 65.3748 75.6089C67.6377 73.1852 68.6064 71.6282 67.3867 71.4948C66.5435 71.4007 64.0727 74.6912 62.5236 77.9581C62.8609 76.8403 63.1276 75.9971 63.308 75.4912C63.3825 75.2638 63.4531 75.0167 63.5237 74.7539C65.1261 72.5121 66.5853 70.1713 67.8926 67.7455C70.1791 63.4746 70.9164 59.4429 69.3908 61.1764C67.9868 62.7726 65.5434 70.7105 63.6021 74.4441C63.7668 73.8009 63.9237 73.091 64.061 72.389C64.3355 71.7105 64.6963 71.0203 64.9003 70.3928C65.2179 69.428 65.4964 68.4554 65.7199 67.4632C66.0886 65.9215 66.2755 64.342 66.2768 62.7569C66.3162 60.8951 65.809 59.0625 64.8179 57.4859C64.5551 57.0937 62.9472 54.6896 62.4648 55.9172C62.4019 56.1217 62.3898 56.3384 62.4295 56.5486C62.6648 58.5919 63.406 60.4705 63.8649 62.4588C64.5512 65.4355 64.0963 70.432 63.8649 72.5577C63.7786 72.8949 63.6688 73.3107 63.5394 73.793C63.857 70.0908 62.253 65.7022 60.7666 64.9335C58.9272 63.9844 60.7313 67.7102 62.151 70.9654C62.8235 72.3899 63.1398 73.9566 63.0727 75.5304C62.7824 76.5972 62.4491 77.8012 62.104 79.017C62.0334 79.1817 61.9706 79.3503 61.9079 79.5151C62.0674 78.7216 62.1319 77.9119 62.1 77.1031C61.9667 74.9775 59.5587 70.7222 57.9585 71.3223C56.3584 71.9223 59.0684 74.1656 60.5156 76.7776C61.2749 78.2219 61.5668 79.8664 61.351 81.4838C61.351 81.5819 61.3196 81.676 61.3078 81.7662C61.1392 82.3231 60.9745 82.8565 60.8176 83.3663C60.4254 84.5429 60.092 85.6724 59.7587 86.7627C60.1682 85.1808 60.3479 83.5483 60.2921 81.9152C60.092 78.8013 58.2684 75.8599 56.7624 75.4559C55.2564 75.052 58.1311 80.1347 59.0959 82.9898C59.6205 84.6574 59.7096 86.4315 59.3547 88.1432C58.888 89.6884 58.4488 91.214 57.9978 92.8259C58.1237 90.7144 58.0778 88.5961 57.8605 86.4921C57.5664 83.0251 55.5074 80.8132 54.0877 80.9034C52.6679 80.9936 54.1504 82.9624 56.1976 87.1784C57.2786 89.392 57.76 91.8505 57.5938 94.3084C57.4095 94.9868 57.2016 95.6849 57.0291 96.4144C56.8094 97.2458 56.6369 98.1518 56.48 99.0773C56.2761 98.2498 55.9702 97.0419 55.6133 95.7085C55.1977 94.2343 54.8961 92.7304 54.7112 91.2101C54.5191 89.4413 54.0524 87.2333 52.3189 86.3156C52.2011 86.2335 52.0667 86.1782 51.9253 86.1536C51.7838 86.1289 51.6387 86.1355 51.5001 86.1729C51.3614 86.2102 51.2326 86.2775 51.1227 86.3699C51.0129 86.4623 50.9245 86.5776 50.8639 86.7078C50.7048 87.0872 50.6692 87.507 50.7619 87.9079C50.9921 89.1111 51.388 90.2765 51.9385 91.3709C51.5979 92.0238 51.4433 92.7578 51.4914 93.4926C51.4914 93.7671 51.5149 94.0417 51.5345 94.3162C51.3816 94.0338 51.2365 93.775 51.0992 93.5318C50.85 93.116 50.5437 92.7371 50.1893 92.4062C50.2782 91.7564 50.3227 91.1012 50.3227 90.4453C50.3227 89.5864 49.3147 87.3941 48.4049 89.0177C48.0401 89.6688 48.1107 90.9434 48.0754 91.7905C47.8284 92.0258 47.7538 92.5043 47.9617 93.2573C47.8205 95.2182 47.7931 97.2262 48.2676 99.1401L47.9539 98.595C47.5118 96.3262 47.2495 94.026 47.1695 91.716C47.0557 87.9 47.6636 84.7704 46.6243 83.5938C45.585 82.4172 45.0046 86.5548 45.4478 91.065C45.6566 93.123 46.2052 95.1321 47.0714 97.0105C46.0517 95.179 45.0438 93.3122 44.0908 91.5199C43.6986 90.559 42.726 87.9588 42.9652 85.3234C43.2672 82.0015 43.4868 79.2797 42.224 77.409C40.9612 75.5383 40.6984 76.7541 41.3181 80.6524C41.7416 83.3271 42.1926 86.9039 42.9692 89.3864C42.2318 87.9628 41.5377 86.6097 40.918 85.3861C40.5651 84.1625 39.7415 81.0211 39.7415 78.413C39.7415 75.0951 39.3885 73.3146 38.408 74.0323C37.7256 74.5382 38.1649 78.6326 39.263 82.076C38.7492 81.0289 38.361 80.2249 38.1374 79.7504C38.0354 79.5347 37.9217 79.3033 37.7923 79.064C37.4334 76.3325 36.9029 73.6263 36.2039 70.9615C34.9607 66.2788 32.7448 62.8275 32.8154 65.1375C32.8782 67.2631 36.5098 74.7304 37.6433 78.7856C37.3217 78.2012 36.9491 77.5777 36.5726 76.9698C36.3098 76.2834 36.102 75.5344 35.8235 74.9382C35.396 74.0166 34.9372 73.1146 34.4234 72.2361C33.6388 70.8547 32.695 69.57 31.6114 68.4083C30.3561 66.9789 28.7022 65.9573 26.862 65.4748C26.3993 65.3649 23.5912 64.6904 24.0697 65.9454C24.1591 66.1368 24.2937 66.3037 24.4619 66.4317C26.0306 67.7651 27.8503 68.6319 29.5603 69.7731C32.0938 71.4831 35.1725 75.4442 36.4432 77.1659L37.0471 78.2914C34.7528 75.3657 30.5839 73.2558 28.9759 73.7107C26.9836 74.2715 30.8427 75.7618 34.1018 77.1698C35.5662 77.7517 36.8666 78.6819 37.8903 79.8798C38.408 80.8603 38.9845 81.9623 39.5611 83.0879C39.6277 83.2565 39.6905 83.4212 39.7571 83.586C39.3333 82.8972 38.8291 82.2613 38.2551 81.6917C36.7059 80.2328 32.0389 78.7621 31.282 80.2916C30.5251 81.8211 34.0273 81.6172 36.8746 82.5349C38.4081 83.073 39.738 84.0715 40.6827 85.3939C40.7376 85.4724 40.7886 85.5547 40.8435 85.6293C41.1023 86.1469 41.3455 86.6529 41.5769 87.1313C42.1103 88.2569 42.6201 89.3119 43.1182 90.3355C42.3408 88.8947 41.3593 87.5738 40.2042 86.4136C37.9296 84.2723 34.5881 83.3703 33.2037 84.1154C31.8193 84.8606 37.3962 86.598 40.0513 88.0373C41.5732 88.8987 42.8491 90.1354 43.7575 91.6297C44.4712 93.0769 45.1889 94.4927 45.9615 95.9791C44.6126 94.3502 43.1345 92.8328 41.5416 91.4415C38.9571 89.1079 35.9412 88.8962 34.9646 89.9315C33.9881 90.9669 36.4157 91.3944 40.7847 93.069C43.0838 93.9489 45.1122 95.4161 46.6675 97.3243C46.9969 97.9478 47.3342 98.5871 47.695 99.2538C48.0872 100.007 48.5853 100.791 49.1108 101.572C48.397 101.109 47.346 100.434 46.1772 99.7048C44.8657 98.9111 43.6186 98.0155 42.4475 97.0262C41.0984 95.8693 39.2512 94.5711 37.3491 95.0849C37.2075 95.1055 37.0722 95.1571 36.9527 95.2358C36.8332 95.3145 36.7325 95.4186 36.6577 95.5405C36.5828 95.6625 36.5357 95.7994 36.5197 95.9416C36.5036 96.0838 36.519 96.2278 36.5647 96.3634C36.7033 96.7513 36.9632 97.0841 37.306 97.3125C39.0944 98.6969 41.4985 99.3636 43.581 100.183C45.4894 100.934 47.4454 101.558 49.4363 102.05C49.9305 102.76 50.4442 103.462 50.9619 104.129L50.0285 104.156C48.9226 104.191 43.9339 101.929 41.4004 101.203C38.8669 100.477 36.4981 101.85 39.1532 103.278C41.8083 104.705 49.0284 104.388 49.0284 104.388L51.111 104.325C51.6012 104.952 52.0797 105.548 52.5346 106.094H42.6397V108.839H44.6007L46.1694 118.6H59.3194L60.9078 108.839H62.8687V106.094H56.3153C56.2623 104.907 56.2938 103.718 56.4094 102.536C56.8467 102.092 57.3321 101.697 57.8566 101.36C60.7352 99.3715 65.614 99.2068 66.9122 95.3751C67.2259 94.4535 66.869 93.2691 65.767 93.32C64.9826 93.3553 64.1316 94.0534 63.6374 94.6221C61.9902 96.5242 60.7509 98.4969 58.6096 99.9402C57.8739 100.506 57.1671 101.108 56.4918 101.744C56.5663 101.121 56.6604 100.454 56.782 99.7401C57.2994 98.8224 57.8896 97.9477 58.5468 97.1243C60.2999 94.9476 62.9668 93.673 64.861 91.5983C65.4415 90.963 66.2062 88.6805 64.4336 89.2452C63.6492 89.4962 62.7158 90.6924 62.0804 91.2375C60.3352 92.8063 58.5507 94.477 57.4134 96.5399C57.4605 96.336 57.5115 96.1477 57.5585 95.9281C58.782 93.9662 60.1604 92.1052 61.6804 90.3629C64.1982 87.5 66.7788 85.6253 66.822 84.0566C66.8651 82.4878 63.6178 85.1155 60.8607 88.7079C59.61 90.356 58.6401 92.1992 57.9899 94.1632C58.4958 92.1317 59.0331 90.0766 59.5587 88.1079C59.9195 87.1274 60.9902 84.5782 62.9629 82.8094C65.4532 80.5857 67.4691 78.7503 67.826 76.5344C68.1829 74.3186 67.1828 75.0206 64.9748 78.2914ZM51.0482 103.517C50.6756 103.011 50.2874 102.462 49.8716 101.854C49.624 100.823 49.4588 99.7738 49.3775 98.7165C49.3273 97.8165 49.3693 96.9137 49.503 96.0222C50.1723 96.8511 50.8831 97.6456 51.6326 98.4028C51.6147 99.1869 51.5188 99.9673 51.3463 100.732C51.1994 101.655 51.0999 102.584 51.0482 103.517ZM53.1817 106.101C52.6758 105.564 52.1228 104.925 51.5228 104.14C51.5378 103.518 51.6233 102.9 51.7777 102.297C52.0171 101.347 52.3618 100.426 52.8052 99.5519C53.7347 100.434 54.4171 101.019 54.4171 101.019L55.9858 102.395C55.8643 103.764 55.7937 105.05 55.7505 106.094L53.1817 106.101ZM56.0055 102.156L55.3034 101.54C54.9113 101.187 54.2053 99.8225 53.4366 98.2498C53.7645 97.5881 54.0552 96.9085 54.3073 96.2144C55.1387 97.7557 55.876 98.9597 56.3114 99.599C56.1859 100.45 56.0878 101.317 56.0055 102.156Z" fill="white"/>
<path d="M26.2959 4.43555V44.2033H56.4943V4.43555H26.2959ZM54.4 41.4305H28.4059V7.21223H54.4V41.4305Z" fill="#0F913D"/>
<path opacity="0.5" d="M26.2959 4.43555V44.2033H56.4943V4.43555H26.2959ZM54.4 41.4305H28.4059V7.21223H54.4V41.4305Z" fill="white"/>
<path d="M131.971 23.8369V53.2039H154.279V23.8369H131.971ZM152.722 51.1527H133.54V25.9037H152.734L152.722 51.1527Z" fill="#0F913D"/>
<path opacity="0.5" d="M131.971 23.8369V53.2039H154.279V23.8369H131.971ZM152.722 51.1527H133.54V25.9037H152.734L152.722 51.1527Z" fill="white"/>
<path d="M4.42236 122.702C5.54794 118.89 17.2077 79.2634 17.1684 78.9654C17.1292 78.6673 18.1215 73.3453 20.4432 68.9097C22.7649 64.4741 25.9887 59.5325 26.3927 58.9285C27.0074 57.9444 27.4182 56.8468 27.6006 55.7008C27.9026 54.0889 31.1303 49.6494 32.1382 48.4415C33.1461 47.2335 36.1699 40.8801 36.3738 39.8722C36.5778 38.8642 37.7818 38.0563 39.3976 37.7544C41.0134 37.4524 43.2293 37.1504 43.2293 37.1504C43.6393 37.633 43.8864 38.2328 43.9352 38.8643C43.9352 39.7702 40.3036 61.4464 40.1035 65.078C39.9035 68.7097 40.4055 70.7216 38.7936 74.4552C37.1817 78.1888 32.4402 80.5027 30.1224 82.0166C27.8046 83.5304 27.981 83.8442 27.981 83.8442C27.981 83.8442 29.2909 120.133 29.2596 122.984" fill="white"/>
<mask id="mask0_831_17946" style="mask-type:luminance" maskUnits="userSpaceOnUse" x="4" y="37" width="40" height="86">
<path d="M4.41937 122.702C5.54495 118.89 17.2047 79.2634 17.1655 78.9654C17.1262 78.6673 18.1185 73.3453 20.4402 68.9097C22.762 64.4741 25.9857 59.5325 26.3897 58.9285C27.0044 57.9444 27.4152 56.8468 27.5976 55.7008C27.8996 54.0889 31.1273 49.6494 32.1352 48.4415C33.1432 47.2335 36.1669 40.8801 36.3708 39.8722C36.5748 38.8642 37.7788 38.0563 39.3946 37.7544C41.0104 37.4524 43.2263 37.1504 43.2263 37.1504C43.6364 37.633 43.8834 38.2328 43.9322 38.8643C43.9322 39.7702 40.3006 61.4464 40.1005 65.078C39.9005 68.7097 40.4025 70.7216 38.7906 74.4552C37.1788 78.1888 32.4372 80.5027 30.1194 82.0166C27.8016 83.5304 27.978 83.8442 27.978 83.8442C27.978 83.8442 29.288 120.133 29.2566 122.984" fill="white"/>
</mask>
<g mask="url(#mask0_831_17946)">
<g style="mix-blend-mode:multiply" opacity="0.7">
<path d="M45.408 60.9303C44.9884 59.0517 42.2705 60.0949 42.2705 60.0949C40.4197 62.1034 38.1412 63.6702 35.6033 64.6796C31.3554 66.2859 27.2504 68.2472 23.3318 70.5428C23.7789 69.6447 24.2652 68.7387 24.7907 67.7975C27.5008 63.0049 32.2933 56.5456 34.9876 55.7103C36.6505 55.2004 38.3094 56.2554 39.3448 57.1496L39.4625 37.7363H39.3958C37.78 38.0383 36.572 38.8462 36.372 39.8541C36.172 40.8621 33.1443 47.2116 32.1364 48.4234C31.1285 49.6353 27.9008 54.0709 27.5988 55.6828C27.4164 56.8287 27.0056 57.9264 26.3909 58.9105C25.9987 59.5145 22.7592 64.4521 20.4414 68.8917C18.1236 73.3312 17.1274 78.6454 17.1666 78.9473C17.1941 79.167 12.7075 95.4192 9.85626 105.647C12.2094 101.02 15.8685 93.5328 18.0922 87.999C18.9668 87.9127 20.661 85.5439 22.065 83.6144C23.7318 81.324 26.2301 80.6965 31.2344 76.9472C36.2387 73.1979 41.8587 67.9857 42.6941 65.9032C43.5294 63.8207 45.8237 62.8049 45.408 60.9303Z" fill="#0F913D"/>
</g>
</g>
<path d="M4.42236 122.702C5.54794 118.89 17.2077 79.2634 17.1684 78.9654C17.1292 78.6673 18.1215 73.3453 20.4432 68.9097C22.765 64.4741 25.9887 59.5325 26.3927 58.9285C27.0074 57.9444 27.4182 56.8468 27.6006 55.7008C27.9026 54.0889 31.1303 49.6494 32.1382 48.4415C33.1461 47.2335 36.1699 40.8801 36.3738 39.8722C36.5778 38.8642 37.7818 38.0563 39.3976 37.7544C41.0134 37.4524 43.2293 37.1504 43.2293 37.1504C43.6393 37.633 43.8864 38.2328 43.9352 38.8643C43.9352 39.7702 40.3036 61.4464 40.1035 65.078C39.9035 68.7097 40.4055 70.7216 38.7936 74.4552C37.1817 78.1888 32.4402 80.5027 30.1224 82.0166C27.8046 83.5304 27.981 83.8442 27.981 83.8442C27.981 83.8442 29.2909 120.133 29.2596 122.984" stroke="#2E353A" stroke-linecap="round" stroke-linejoin="round"/>
<path d="M39.1935 61.8512C39.1935 61.8512 38.0875 61.7492 36.9776 59.7334" stroke="#2E353A" stroke-linecap="round" stroke-linejoin="round"/>
<path d="M37.9855 48.8467C37.9855 48.8467 41.123 49.4506 41.5152 52.0705" stroke="#2E353A" stroke-linecap="round" stroke-linejoin="round"/>
<path d="M38.9935 40.6768C39.6874 41.2048 40.2618 41.8737 40.6789 42.6396C41.0959 43.4054 41.3462 44.2508 41.4133 45.1202" stroke="#2E353A" stroke-linecap="round" stroke-linejoin="round"/>
<path d="M140.655 61.8589L140.408 19.9851C140.407 18.7647 139.921 17.5946 139.058 16.7319C138.195 15.8693 137.024 15.3848 135.804 15.3848H44.1692C42.9491 15.3848 41.779 15.8694 40.9162 16.7322C40.0535 17.5949 39.5688 18.765 39.5688 19.9851L39.3178 61.8589C39.3173 62.4694 39.4372 63.0739 39.6705 63.638C39.9039 64.2021 40.2462 64.7146 40.6779 65.1463C41.1095 65.5779 41.622 65.9203 42.1861 66.1536C42.7502 66.387 43.3548 66.5069 43.9652 66.5063H136.008C136.618 66.5069 137.223 66.387 137.787 66.1536C138.351 65.9203 138.863 65.5779 139.295 65.1463C139.727 64.7146 140.069 64.2021 140.302 63.638C140.536 63.0739 140.656 62.4694 140.655 61.8589Z" fill="#2E353A" stroke="#363636" stroke-width="0.868674" stroke-linecap="round" stroke-linejoin="round"/>
<path d="M135.506 64.2315L135.306 17.6357H44.6681L44.472 64.2315H135.506Z" fill="white" stroke="#363636" stroke-width="0.651505" stroke-linecap="round" stroke-linejoin="round"/>
<path d="M135.307 17.6357H44.6689L44.661 19.9614H53.3676L55.5952 23.146H135.331L135.307 17.6357Z" fill="#0F913D" stroke="#2E353A" stroke-linecap="round" stroke-linejoin="round"/>
<g style="mix-blend-mode:multiply" opacity="0.5">
<path d="M135.306 26.9072L71.5955 64.2317H135.506L135.306 26.9072Z" fill="#0F913D"/>
</g>
<path d="M138.544 40.9217C138.549 40.534 138.239 40.2156 137.851 40.2106C137.463 40.2056 137.145 40.5158 137.14 40.9035C137.135 41.2912 137.445 41.6095 137.833 41.6145C138.221 41.6195 138.539 41.3093 138.544 40.9217Z" fill="white"/>
<path d="M51.6497 34.6608C53.7225 34.6608 55.4029 32.9804 55.4029 30.9075C55.4029 28.8347 53.7225 27.1543 51.6497 27.1543C49.5768 27.1543 47.8964 28.8347 47.8964 30.9075C47.8964 32.9804 49.5768 34.6608 51.6497 34.6608Z" fill="#0F913D" stroke="#2E353A" stroke-linecap="round" stroke-linejoin="round"/>
<path d="M51.6497 50.0934C53.7225 50.0934 55.4029 48.413 55.4029 46.3401C55.4029 44.2673 53.7225 42.5869 51.6497 42.5869C49.5768 42.5869 47.8964 44.2673 47.8964 46.3401C47.8964 48.413 49.5768 50.0934 51.6497 50.0934Z" fill="white" stroke="#2E353A" stroke-linecap="round" stroke-linejoin="round"/>
<path d="M77.2986 34.6608C79.3715 34.6608 81.0519 32.9804 81.0519 30.9075C81.0519 28.8347 79.3715 27.1543 77.2986 27.1543C75.2258 27.1543 73.5454 28.8347 73.5454 30.9075C73.5454 32.9804 75.2258 34.6608 77.2986 34.6608Z" fill="white" stroke="#2E353A" stroke-linecap="round" stroke-linejoin="round"/>
<path d="M77.2986 50.0934C79.3715 50.0934 81.0519 48.413 81.0519 46.3401C81.0519 44.2673 79.3715 42.5869 77.2986 42.5869C75.2258 42.5869 73.5454 44.2673 73.5454 46.3401C73.5454 48.413 75.2258 50.0934 77.2986 50.0934Z" fill="#0F913D" stroke="#2E353A" stroke-linecap="round" stroke-linejoin="round"/>
<path d="M102.951 34.6608C105.024 34.6608 106.704 32.9804 106.704 30.9075C106.704 28.8347 105.024 27.1543 102.951 27.1543C100.878 27.1543 99.1979 28.8347 99.1979 30.9075C99.1979 32.9804 100.878 34.6608 102.951 34.6608Z" fill="#0F913D" stroke="#2E353A" stroke-linecap="round" stroke-linejoin="round"/>
<path d="M102.951 50.0934C105.024 50.0934 106.704 48.413 106.704 46.3401C106.704 44.2673 105.024 42.5869 102.951 42.5869C100.878 42.5869 99.1979 44.2673 99.1979 46.3401C99.1979 48.413 100.878 50.0934 102.951 50.0934Z" fill="#0F913D" stroke="#2E353A" stroke-width="2" stroke-linecap="round" stroke-linejoin="round"/>
<path d="M128.6 34.6608C130.673 34.6608 132.353 32.9804 132.353 30.9075C132.353 28.8347 130.673 27.1543 128.6 27.1543C126.527 27.1543 124.847 28.8347 124.847 30.9075C124.847 32.9804 126.527 34.6608 128.6 34.6608Z" fill="#0F913D" stroke="#2E353A" stroke-linecap="round" stroke-linejoin="round"/>
<path d="M128.6 50.0934C130.673 50.0934 132.353 48.413 132.353 46.3401C132.353 44.2673 130.673 42.5869 128.6 42.5869C126.527 42.5869 124.847 44.2673 124.847 46.3401C124.847 48.413 126.527 50.0934 128.6 50.0934Z" fill="white" stroke="#2E353A" stroke-linecap="round" stroke-linejoin="round"/>
<path d="M58.1716 35.9893H70.4667" stroke="#2E353A" stroke-linecap="round" stroke-linejoin="round"/>
<path d="M58.1716 38.8252H70.4667" stroke="#2E353A" stroke-linecap="round" stroke-linejoin="round"/>
<path d="M58.1716 41.665H70.4667" stroke="#2E353A" stroke-linecap="round" stroke-linejoin="round"/>
<path d="M83.4702 35.9893H95.7653" stroke="#2E353A" stroke-linecap="round" stroke-linejoin="round"/>
<path d="M83.4702 38.8252H95.7653" stroke="#2E353A" stroke-linecap="round" stroke-linejoin="round"/>
<path d="M83.4702 41.665H95.7653" stroke="#2E353A" stroke-linecap="round" stroke-linejoin="round"/>
<path d="M110.426 35.9893H122.721" stroke="#2E353A" stroke-linecap="round" stroke-linejoin="round"/>
<path d="M110.426 38.8252H122.721" stroke="#2E353A" stroke-linecap="round" stroke-linejoin="round"/>
<path d="M110.426 41.665H122.721" stroke="#2E353A" stroke-linecap="round" stroke-linejoin="round"/>
<path d="M58.1716 52.0459H70.4667" stroke="#2E353A" stroke-linecap="round" stroke-linejoin="round"/>
<path d="M58.1716 54.8857H70.4667" stroke="#2E353A" stroke-linecap="round" stroke-linejoin="round"/>
<path d="M58.1716 57.7217H70.4667" stroke="#2E353A" stroke-linecap="round" stroke-linejoin="round"/>
<path d="M83.4702 52.0459H95.7653" stroke="#2E353A" stroke-linecap="round" stroke-linejoin="round"/>
<path d="M83.4702 54.8857H95.7653" stroke="#2E353A" stroke-linecap="round" stroke-linejoin="round"/>
<path d="M83.4702 57.7217H95.7653" stroke="#2E353A" stroke-linecap="round" stroke-linejoin="round"/>
<path d="M110.426 52.0459H122.721" stroke="#2E353A" stroke-linecap="round" stroke-linejoin="round"/>
<path d="M110.426 54.8857H122.721" stroke="#2E353A" stroke-linecap="round" stroke-linejoin="round"/>
<path d="M110.426 57.7217H122.721" stroke="#2E353A" stroke-linecap="round" stroke-linejoin="round"/>
<path d="M95.5461 46.5322H97.8757" stroke="#2E353A" stroke-linecap="round" stroke-linejoin="round"/>
<path d="M103.198 41.8768V38.9668" stroke="#2E353A" stroke-linecap="round" stroke-linejoin="round"/>
<path d="M98.0408 42.21L99.539 43.3748" stroke="#2E353A" stroke-linecap="round" stroke-linejoin="round"/>
<path d="M99.8724 49.5244L98.0408 50.5245" stroke="#2E353A" stroke-linecap="round" stroke-linejoin="round"/>
<path d="M111.015 46.5322H108.686" stroke="#2E353A" stroke-linecap="round" stroke-linejoin="round"/>
<path d="M108.516 42.21L107.022 43.3748" stroke="#2E353A" stroke-linecap="round" stroke-linejoin="round"/>
<path d="M101.385 54.2432L103.346 61.2476" stroke="#2E353A" stroke-linecap="round" stroke-linejoin="round"/>
<path d="M99.4217 53.3984L100.543 57.0419" stroke="#2E353A" stroke-linecap="round" stroke-linejoin="round"/>
<path d="M147.75 120.106C147.75 120.106 138.436 102.928 137.11 99.9158C135.784 96.9038 134.784 92.1583 134.459 90.8562C133.988 89.3284 133.945 87.7008 134.333 86.15C134.824 83.9538 134.533 77.6866 134.753 76.2473C134.973 74.8079 134.082 70.3056 133.576 67.7839C133.07 65.2621 131.925 63.4698 130.38 63.2737C129.931 63.2199 129.475 63.2781 129.053 63.443C128.632 63.6079 128.258 63.8744 127.964 64.2189C127.964 64.2189 127.321 58.8499 126.697 57.7361C126.074 56.6222 124.042 56.783 122.956 57.0497C121.87 57.3164 121.348 60.7912 121.348 60.7912C121.348 60.7912 120.407 57.4537 120.379 55.9634C120.352 54.4731 118.54 53.1906 117.128 53.5436C115.716 53.8965 114.955 54.5436 114.571 57.6341C114.187 60.7245 114.912 65.5053 114.912 65.5053L114.179 65.8033C114.179 65.8033 111.535 56.5477 110.696 54.1044C109.857 51.6611 109.049 48.8648 108.484 47.045C107.92 45.2253 107.08 42.3388 104.77 42.782C102.46 43.2251 103.029 48.2726 103.029 48.2726C103.029 48.2726 106.641 63.7404 106.829 64.9601C107.017 66.1798 107.614 70.4155 107.496 71.8273C107.378 73.2392 107.382 76.9258 107.382 76.9258L103.943 72.8235C103.519 71.7136 102.984 70.6493 102.347 69.6468C101.17 67.7486 98.5541 65.9798 96.8559 66.5093C95.1577 67.0387 96.499 68.7879 97.201 69.7644C97.9031 70.741 98.4717 73.4824 98.4717 74.8629C98.4717 76.2434 99.6483 77.216 101.068 79.7495C102.488 82.283 109.614 91.0367 110.692 92.6132C111.491 93.6726 112.495 94.5597 113.645 95.2213C113.645 95.2213 117.763 98.8098 119.685 103.289C121.607 107.767 127.501 120.627 127.501 120.627" fill="white"/>
<mask id="mask1_831_17946" style="mask-type:luminance" maskUnits="userSpaceOnUse" x="96" y="42" width="52" height="79">
<path d="M147.752 120.105C147.752 120.105 138.438 102.927 137.112 99.9148C135.787 96.9028 134.787 92.1573 134.461 90.8553C133.99 89.3274 133.947 87.6998 134.336 86.149C134.826 83.9528 134.536 77.6856 134.755 76.2463C134.975 74.807 134.085 70.3047 133.579 67.7829C133.073 65.2611 131.928 63.4689 130.382 63.2728C129.933 63.2189 129.477 63.2771 129.056 63.442C128.634 63.6069 128.26 63.8734 127.966 64.2179C127.966 64.2179 127.323 58.8489 126.7 57.7351C126.076 56.6213 124.045 56.7821 122.958 57.0487C121.872 57.3154 121.35 60.7902 121.35 60.7902C121.35 60.7902 120.409 57.4527 120.382 55.9624C120.354 54.4721 118.542 53.1896 117.13 53.5426C115.718 53.8956 114.958 54.5427 114.573 57.6331C114.189 60.7235 114.914 65.5043 114.914 65.5043L114.181 65.8024C114.181 65.8024 111.538 56.5467 110.698 54.1034C109.859 51.6601 109.051 48.8638 108.487 47.0441C107.922 45.2243 107.082 42.3378 104.773 42.781C102.463 43.2242 103.031 48.2716 103.031 48.2716C103.031 48.2716 106.643 63.7395 106.831 64.9592C107.02 66.1789 107.616 70.4145 107.498 71.8264C107.381 73.2382 107.384 76.9248 107.384 76.9248L103.945 72.8225C103.521 71.7126 102.986 70.6483 102.349 69.6458C101.172 67.7476 98.5563 65.9788 96.8582 66.5083C95.16 67.0378 96.5013 68.7869 97.2033 69.7634C97.9053 70.74 98.474 73.4814 98.474 74.8619C98.474 76.2424 99.6505 77.215 101.07 79.7485C102.49 82.2821 109.616 91.0357 110.695 92.6123C111.493 93.6717 112.498 94.5588 113.648 95.2203C113.648 95.2203 117.766 98.8088 119.687 103.288C121.609 107.766 127.504 120.626 127.504 120.626" fill="white"/>
</mask>
<g mask="url(#mask1_831_17946)">
<g style="mix-blend-mode:multiply" opacity="0.7">
<path d="M133.649 116.018C135.574 114.254 136.053 99.9976 135.809 94.6913C135.809 94.6481 135.809 94.5971 135.809 94.5501C135.123 92.7774 134.59 91.3381 134.468 90.8557C133.997 89.3278 133.954 87.7002 134.343 86.1494C134.833 83.9532 134.543 77.686 134.762 76.2467C134.892 75.3957 134.629 73.4583 134.292 71.4973C132.896 71.3758 130.338 72.6347 130.338 72.6347C130.338 72.6347 128.323 69.7011 127.009 69.5991C125.695 69.4972 123.416 71.5601 123.416 71.5601C123.416 71.5601 122.11 67.1597 119.428 67.6108C116.745 68.0618 115.992 67.6108 114.933 67.6578C113.874 67.7049 113.016 65.1282 111.957 62.5986C110.898 60.069 109.38 50.6094 108.482 48.6485C108.482 48.6485 107.074 44.7031 105.25 46.0169C103.427 47.3308 105.14 51.6252 105.995 54.2019C106.85 56.7785 107.309 61.673 108.003 64.0066C108.788 66.6068 108.396 70.4698 109.113 73.3014C109.831 76.133 111.674 77.0507 110.659 80.7529C109.643 84.4552 107.423 83.2747 104.948 81.0981C102.474 78.9214 101.25 73.9367 99.8499 74.4309C99.3647 74.5537 98.896 74.734 98.4537 74.9682C98.485 76.3251 99.6302 77.3213 101.05 79.7999C102.47 82.2785 109.615 91.0361 110.694 92.6127C111.492 93.6721 112.497 94.5592 113.647 95.2207C113.647 95.2207 117.765 98.8092 119.687 103.288C120.032 104.092 120.581 105.28 121.255 106.692C122.04 107.32 120.377 104.339 120.785 104.833C123.503 108.022 131.727 117.787 133.649 116.018Z" fill="#0F913D"/>
</g>
</g>
<path d="M147.75 120.106C147.75 120.106 138.436 102.928 137.11 99.9158C135.784 96.9038 134.784 92.1583 134.459 90.8562C133.988 89.3284 133.945 87.7008 134.333 86.15C134.824 83.9538 134.533 77.6866 134.753 76.2473C134.973 74.8079 134.082 70.3056 133.576 67.7839C133.07 65.2621 131.925 63.4698 130.38 63.2737C129.931 63.2199 129.475 63.2781 129.053 63.443C128.632 63.6079 128.258 63.8744 127.964 64.2189C127.964 64.2189 127.321 58.8499 126.697 57.7361C126.074 56.6222 124.042 56.783 122.956 57.0497C121.87 57.3164 121.348 60.7912 121.348 60.7912C121.348 60.7912 120.407 57.4537 120.379 55.9634C120.352 54.4731 118.54 53.1906 117.128 53.5436C115.716 53.8965 114.955 54.5436 114.571 57.6341C114.187 60.7245 114.912 65.5053 114.912 65.5053L114.179 65.8033C114.179 65.8033 111.535 56.5477 110.696 54.1044C109.857 51.6611 109.049 48.8648 108.484 47.045C107.92 45.2253 107.08 42.3388 104.77 42.782C102.46 43.2251 103.029 48.2726 103.029 48.2726C103.029 48.2726 106.641 63.7404 106.829 64.9601C107.017 66.1798 107.614 70.4155 107.496 71.8273C107.378 73.2392 107.382 76.9258 107.382 76.9258L103.943 72.8235C103.519 71.7136 102.984 70.6493 102.347 69.6468C101.17 67.7486 98.5541 65.9798 96.8559 66.5093C95.1577 67.0387 96.499 68.7879 97.201 69.7644C97.9031 70.741 98.4717 73.4824 98.4717 74.8629C98.4717 76.2434 99.6483 77.216 101.068 79.7495C102.488 82.283 109.614 91.0367 110.692 92.6132C111.491 93.6726 112.495 94.5597 113.645 95.2213C113.645 95.2213 117.763 98.8098 119.685 103.289C121.607 107.767 127.501 120.627 127.501 120.627" stroke="#2E353A" stroke-linecap="round" stroke-linejoin="round"/>
<path d="M103.547 43.9043C103.547 43.9043 103.975 46.5555 104.057 46.8888C104.241 47.6379 107.34 47.281 107.587 46.7045C107.806 46.1907 107.645 45.0769 107.645 45.0769" stroke="#2E353A" stroke-linecap="round" stroke-linejoin="round"/>
<path d="M98.24 69.8863C98.4977 69.6245 98.6574 69.2821 98.6924 68.9164C98.7274 68.5508 98.6355 68.1842 98.4322 67.8783C97.7027 66.792 97.2949 66.5488 97.2949 66.5488" stroke="#2E353A" stroke-linecap="round" stroke-linejoin="round"/>
<path d="M107.131 59.2667C107.131 59.2667 108.516 59.7295 109.818 58.0234" stroke="#2E353A" stroke-width="0.75" stroke-linecap="round" stroke-linejoin="round"/>
<path d="M107.296 58.0625C107.296 58.0625 109.143 56.6781 110.555 56.7918" stroke="#2E353A" stroke-width="0.75" stroke-linecap="round" stroke-linejoin="round"/>
<path d="M105.383 50.8258C105.383 50.8258 106.767 49.4453 107.877 49.7433" stroke="#2E353A" stroke-width="0.75" stroke-linecap="round" stroke-linejoin="round"/>
<path d="M106.685 50.5013C107.254 50.597 107.837 50.5702 108.395 50.4229" stroke="#2E353A" stroke-width="0.75" stroke-linecap="round" stroke-linejoin="round"/>
<path d="M121.344 60.8037L122.074 65.1217" stroke="#2E353A" stroke-linecap="round" stroke-linejoin="round"/>
<path d="M127.961 64.2314L128.741 68.7651" stroke="#2E353A" stroke-linecap="round" stroke-linejoin="round"/>
<path d="M107.379 76.9541C107.379 76.9541 107.183 80.3465 107.508 81.6603" stroke="#2E353A" stroke-linecap="round" stroke-linejoin="round"/>
<path d="M122.078 67.4199C122.078 67.4199 122.882 69.5495 122.686 70.9496" stroke="#2E353A" stroke-width="0.75" stroke-linecap="round" stroke-linejoin="round"/>
<path d="M128.655 69.6201C128.655 69.6201 129.2 70.7182 128.874 72.7184" stroke="#2E353A" stroke-width="0.75" stroke-linecap="round" stroke-linejoin="round"/>
<path d="M35.4642 63.4627C35.4642 63.4627 38.7939 62.8587 40.6058 60.6428C42.4177 58.427 46.7553 55.5993 48.1672 55.0973C49.5791 54.5953 51.7988 54.4894 52.6067 55.1954C53.4146 55.9013 53.8147 57.6152 52.6067 59.6349C51.3988 61.6547 46.4729 63.5529 45.4454 64.4706C44.4179 65.3883 43.5315 65.9844 42.3079 68.7062C41.1169 71.3429 39.4023 73.71 37.2683 75.6636C35.3505 77.3775 31.8247 80.3032 30.0089 81.4091" fill="white"/>
<mask id="mask2_831_17946" style="mask-type:luminance" maskUnits="userSpaceOnUse" x="30" y="54" width="24" height="28">
<path d="M35.4627 63.4627C35.4627 63.4627 38.7924 62.8587 40.6043 60.6428C42.4162 58.427 46.7538 55.5993 48.1656 55.0973C49.5775 54.5953 51.7973 54.4894 52.6052 55.1954C53.4131 55.9013 53.8131 57.6152 52.6052 59.6349C51.3973 61.6547 46.4714 63.5529 45.4439 64.4706C44.4163 65.3883 43.53 65.9844 42.3064 68.7062C41.1153 71.3429 39.4008 73.71 37.2668 75.6636C35.349 77.3775 31.8232 80.3032 30.0074 81.4091" fill="white"/>
</mask>
<g mask="url(#mask2_831_17946)">
<g style="mix-blend-mode:multiply" opacity="0.7">
<path d="M45.4087 60.9293C44.9891 59.0507 42.2712 60.0939 42.2712 60.0939C40.4205 62.1024 38.1419 63.6693 35.6041 64.6786C31.3562 66.2849 27.2511 68.2462 23.3325 70.5418C23.7796 69.6437 24.2659 68.7377 24.7915 67.7965C27.5015 63.004 32.294 56.5446 34.9883 55.7093C36.6512 55.1994 38.3102 56.2544 39.3455 57.1486L39.4632 37.7354H39.3965C37.7807 38.0373 36.5728 38.8452 36.3728 39.8532C36.1727 40.8611 33.1451 47.2106 32.1371 48.4224C31.1292 49.6343 27.9015 54.0699 27.5995 55.6818C27.4171 56.8278 27.0063 57.9254 26.3916 58.9095C25.9994 59.5135 22.7599 64.4511 20.4421 68.8907C18.1243 73.3302 17.1281 78.6444 17.1674 78.9464C17.1948 79.166 12.7082 95.4182 9.85699 105.646C12.2101 101.019 15.8692 93.5318 18.0929 87.998C18.9675 87.9118 20.6617 85.5429 22.0658 83.6134C23.7326 81.323 26.2308 80.6955 31.2351 76.9462C36.2394 73.1969 41.8595 67.9847 42.6948 65.9022C43.5302 63.8197 45.8245 62.8039 45.4087 60.9293Z" fill="#0F913D"/>
</g>
</g>
<path d="M35.4642 63.4627C35.4642 63.4627 38.7939 62.8587 40.6058 60.6428C42.4177 58.427 46.7553 55.5993 48.1672 55.0973C49.579 54.5953 51.7988 54.4894 52.6067 55.1954C53.4146 55.9013 53.8147 57.6152 52.6067 59.6349C51.3988 61.6547 46.4729 63.5529 45.4454 64.4706C44.4179 65.3883 43.5315 65.9844 42.3079 68.7062C41.1169 71.3429 39.4023 73.71 37.2683 75.6636C35.3505 77.3775 31.8247 80.3032 30.0089 81.4091" stroke="#2E353A" stroke-linecap="round" stroke-linejoin="round"/>
<path d="M52.7033 58.8469C52.0994 59.7528 50.5855 59.8548 50.5855 59.8548C50.5855 59.8548 49.9816 58.5449 49.5776 57.737C49.263 57.1934 48.8113 56.7417 48.2677 56.4271C48.2677 56.4271 48.7736 55.1172 49.7815 55.1172" stroke="#2E353A" stroke-linecap="round" stroke-linejoin="round"/>
<path d="M13.2345 83.9153C16.9553 83.1093 20.7665 82.7994 24.5687 82.9937C31.0045 83.3035 32.534 86.9783 32.534 86.9783L32.2281 95.2495C32.2281 95.2495 28.8592 92.7984 21.8116 91.8807C14.764 90.9629 11.0892 91.5747 11.0892 91.5747L13.2345 83.9153Z" fill="white" stroke="#2E353A" stroke-linecap="round" stroke-linejoin="round"/>
<path d="M32.5966 122.511L34.2555 95.9637C23.5331 89.5279 11.0891 91.5751 11.0891 91.5751L0.5 122.511H32.5966Z" fill="#2E353A" stroke="#2E353A" stroke-linecap="round" stroke-linejoin="round"/>
<path d="M116.282 102.117C116.282 102.117 117.329 97.936 123.079 94.5357C128.828 91.1354 137.46 92.4453 137.46 92.4453L138.766 95.8417C138.766 95.8417 131.707 95.5828 126.479 98.4576C121.251 101.332 118.635 104.733 118.635 104.733L116.282 102.117Z" fill="white" stroke="#2E353A" stroke-linecap="round" stroke-linejoin="round"/>
<path d="M155.206 122.511L139.692 94.7751C139.692 94.7751 133.809 93.2299 126.749 96.1046C119.69 98.9793 116.811 104.47 116.811 104.47L119.78 122.511H155.206Z" fill="#2E353A" stroke="#2E353A" stroke-linecap="round" stroke-linejoin="round"/>
<path d="M120.181 105.308C120.377 106.152 120.141 106.928 119.647 107.042C119.153 107.156 118.596 106.567 118.4 105.724C118.204 104.881 118.439 104.104 118.93 103.991C119.42 103.877 119.981 104.465 120.181 105.308Z" fill="white"/>
</svg>
