<svg width="177" height="117" viewBox="0 0 177 117" fill="none" xmlns="http://www.w3.org/2000/svg">
<path d="M152.228 28.73C152.228 28.73 126.313 2.18498 92.6348 0.135101C58.9568 -1.91478 39.3178 19.8422 30.0114 32.8172C20.705 45.7922 -2.51436 67.4105 0.223851 87.2058C2.96206 107.001 29.8071 122.021 68.2632 115.422C106.719 108.824 117.869 106.32 135.39 111.328C152.911 116.335 175.666 108.824 176.12 80.3804C176.574 51.9368 152.228 28.73 152.228 28.73Z" fill="#A2845E"/>
<path opacity="0.7" d="M152.228 28.73C152.228 28.73 126.313 2.18498 92.6348 0.135101C58.9568 -1.91478 39.3178 19.8422 30.0114 32.8172C20.705 45.7922 -2.51436 67.4105 0.223851 87.2058C2.96206 107.001 29.8071 122.021 68.2632 115.422C106.719 108.824 117.869 106.32 135.39 111.328C152.911 116.335 175.666 108.824 176.12 80.3804C176.574 51.9368 152.228 28.73 152.228 28.73Z" fill="white"/>
<path d="M5.17969 108.57H169.553" stroke="#263238" stroke-width="0.48" stroke-miterlimit="10"/>
<path d="M12.3384 66.4326L15.6641 98.2776" stroke="#263238" stroke-width="0.96" stroke-miterlimit="10"/>
<path d="M15.1264 92.1847L13.6211 90.5938" stroke="#263238" stroke-width="0.96" stroke-miterlimit="10"/>
<path d="M14.0785 91.0694C14.0755 90.8259 14.0204 90.5858 13.9169 90.3653C13.8134 90.1448 13.6639 89.949 13.4784 89.7911C13.0926 89.4457 11.0579 88.5909 10.8638 89.307C10.6545 90.0861 12.7371 91.6191 14.0785 91.0694Z" fill="#A2845E" stroke="#263238" stroke-width="0.48" stroke-miterlimit="10"/>
<path d="M14.077 91.0691L12.1406 89.8613" stroke="#263238" stroke-width="0.24" stroke-miterlimit="10"/>
<path d="M15.5048 95.8068L13.9995 94.2158" stroke="#263238" stroke-width="0.96" stroke-miterlimit="10"/>
<path d="M14.4574 94.6926C14.4546 94.449 14.3995 94.2089 14.296 93.9883C14.1925 93.7678 14.0429 93.5721 13.8573 93.4142C13.4716 93.0688 11.4368 92.2115 11.2427 92.9276C11.0334 93.7092 13.116 95.2397 14.4574 94.6926Z" fill="#A2845E" stroke="#263238" stroke-width="0.48" stroke-miterlimit="10"/>
<path d="M14.4555 94.6931L12.519 93.4854" stroke="#263238" stroke-width="0.24" stroke-miterlimit="10"/>
<path d="M14.2055 83.3468L12.7002 81.7559" stroke="#263238" stroke-width="0.96" stroke-miterlimit="10"/>
<path d="M13.154 82.2327C13.151 81.9893 13.0961 81.7495 12.9931 81.5291C12.89 81.3086 12.7412 81.1127 12.5565 80.9543C12.1682 80.6089 10.1334 79.7516 9.93929 80.4702C9.73505 81.2493 11.8127 82.7798 13.154 82.2327Z" fill="#A2845E" stroke="#263238" stroke-width="0.48" stroke-miterlimit="10"/>
<path d="M13.1557 82.2331L11.2192 81.0254" stroke="#263238" stroke-width="0.24" stroke-miterlimit="10"/>
<path d="M14.5839 86.967L13.0786 85.376" stroke="#263238" stroke-width="0.96" stroke-miterlimit="10"/>
<path d="M13.5336 85.8526C13.5306 85.6091 13.4754 85.369 13.3719 85.1485C13.2684 84.928 13.1189 84.7322 12.9335 84.5743C12.5477 84.2289 10.513 83.3741 10.3188 84.0902C10.1096 84.8693 12.1922 86.4023 13.5336 85.8526Z" fill="#A2845E" stroke="#263238" stroke-width="0.48" stroke-miterlimit="10"/>
<path d="M13.5346 85.8523L11.5981 84.6445" stroke="#263238" stroke-width="0.24" stroke-miterlimit="10"/>
<path d="M13.5918 77.4621L12.084 75.8711" stroke="#263238" stroke-width="0.96" stroke-miterlimit="10"/>
<path d="M12.5417 76.3473C12.5387 76.1038 12.4836 75.8637 12.3801 75.6432C12.2766 75.4227 12.1271 75.2269 11.9416 75.069C11.5559 74.7261 9.5186 73.8688 9.32697 74.5849C9.11518 75.3766 11.2004 76.8894 12.5417 76.3473Z" fill="#A2845E" stroke="#263238" stroke-width="0.48" stroke-miterlimit="10"/>
<path d="M12.5425 76.3474L10.6035 75.1396" stroke="#263238" stroke-width="0.24" stroke-miterlimit="10"/>
<path d="M12.9735 71.5539L11.4683 69.9629" stroke="#263238" stroke-width="0.96" stroke-miterlimit="10"/>
<path d="M11.9227 70.4387C11.9197 70.1952 11.8646 69.9551 11.7611 69.7346C11.6576 69.5141 11.5081 69.3183 11.3227 69.1604C10.9369 68.8149 8.90214 67.9577 8.70799 68.6763C8.49872 69.4554 10.5814 70.9859 11.9227 70.4387Z" fill="#A2845E" stroke="#263238" stroke-width="0.48" stroke-miterlimit="10"/>
<path d="M11.9237 70.4402L9.9873 69.2324" stroke="#263238" stroke-width="0.24" stroke-miterlimit="10"/>
<path d="M14.8755 90.0402L16.0202 88.1719" stroke="#263238" stroke-width="0.96" stroke-miterlimit="10"/>
<path d="M15.6717 88.7396C15.6239 88.5008 15.628 88.2546 15.6837 88.0175C15.7394 87.7804 15.8454 87.558 15.9945 87.3655C16.2996 86.9469 18.115 85.6888 18.4528 86.3569C18.8134 87.0654 17.0963 88.9918 15.6717 88.7396Z" fill="#A2845E" stroke="#263238" stroke-width="0.48" stroke-miterlimit="10"/>
<path d="M15.6724 88.7336L17.4172 87.0645" stroke="#263238" stroke-width="0.24" stroke-miterlimit="10"/>
<path d="M13.8809 80.5099L15.0281 78.6416" stroke="#263238" stroke-width="0.96" stroke-miterlimit="10"/>
<path d="M14.6764 79.2035C14.6293 78.9647 14.6337 78.7185 14.6893 78.4816C14.745 78.2446 14.8506 78.0222 14.9991 77.8294C15.3068 77.4108 17.1221 76.1526 17.4575 76.8208C17.8256 77.5344 16.1035 79.4607 14.6764 79.2035Z" fill="#A2845E" stroke="#263238" stroke-width="0.48" stroke-miterlimit="10"/>
<path d="M14.6748 79.2043L16.4196 77.5352" stroke="#263238" stroke-width="0.24" stroke-miterlimit="10"/>
<path d="M13.4404 76.3224L14.5851 74.4541" stroke="#263238" stroke-width="0.96" stroke-miterlimit="10"/>
<path d="M14.2391 75.0128C14.1913 74.774 14.1954 74.5278 14.2511 74.2907C14.3068 74.0536 14.4127 73.8312 14.5619 73.6387C14.8695 73.2227 16.6823 71.9645 17.0202 72.6301C17.3858 73.3437 15.6637 75.2725 14.2391 75.0128Z" fill="#A2845E" stroke="#263238" stroke-width="0.48" stroke-miterlimit="10"/>
<path d="M14.2397 75.0133L15.9845 73.3467" stroke="#263238" stroke-width="0.24" stroke-miterlimit="10"/>
<path d="M12.8018 70.1818L13.9465 68.3135" stroke="#263238" stroke-width="0.96" stroke-miterlimit="10"/>
<path d="M13.5975 68.8744C13.5497 68.6356 13.5538 68.3893 13.6095 68.1522C13.6652 67.9152 13.7711 67.6928 13.9203 67.5003C14.2253 67.0817 16.0407 65.8235 16.3786 66.4917C16.7442 67.2053 15.0297 69.1341 13.5975 68.8744Z" fill="#A2845E" stroke="#263238" stroke-width="0.48" stroke-miterlimit="10"/>
<path d="M13.5986 68.8737L15.3434 67.207" stroke="#263238" stroke-width="0.24" stroke-miterlimit="10"/>
<path d="M12.3112 66.254C12.264 66.0152 12.2684 65.7691 12.3241 65.5321C12.3798 65.2951 12.4854 65.0728 12.6339 64.8799C12.9415 64.4639 14.7569 63.2057 15.0948 63.8713C15.4604 64.5849 13.7383 66.5138 12.3112 66.254Z" fill="#A2845E" stroke="#263238" stroke-width="0.48" stroke-miterlimit="10"/>
<path d="M12.3101 66.2545L14.0549 64.5879" stroke="#263238" stroke-width="0.24" stroke-miterlimit="10"/>
<path d="M12.4118 66.3263C12.1691 66.3486 11.9243 66.3186 11.6942 66.2381C11.4641 66.1576 11.254 66.0286 11.078 65.8599C10.6948 65.5119 9.63328 63.5755 10.3216 63.3083C11.0805 63.0208 12.8178 64.9345 12.4118 66.3263Z" fill="#A2845E" stroke="#263238" stroke-width="0.48" stroke-miterlimit="10"/>
<path d="M12.4145 66.3262L10.937 64.415" stroke="#263238" stroke-width="0.24" stroke-miterlimit="10"/>
<path d="M21.1053 70.8164L17.7998 102.666" stroke="#263238" stroke-width="0.96" stroke-miterlimit="10"/>
<path d="M18.532 96.5939L17.3848 94.7256" stroke="#263238" stroke-width="0.96" stroke-miterlimit="10"/>
<path d="M17.7317 95.296C17.7789 95.0572 17.7745 94.8111 17.7188 94.5741C17.6632 94.3371 17.5575 94.1148 17.409 93.9219C17.1014 93.5059 15.286 92.2477 14.9481 92.9133C14.5825 93.6193 16.3072 95.5482 17.7317 95.296Z" fill="#A2845E" stroke="#263238" stroke-width="0.48" stroke-miterlimit="10"/>
<path d="M17.7343 95.284L16.0879 93.7031" stroke="#263238" stroke-width="0.24" stroke-miterlimit="10"/>
<path d="M19.4475 87.7531L18.3003 85.8848" stroke="#263238" stroke-width="0.96" stroke-miterlimit="10"/>
<path d="M18.6527 86.4486C18.6998 86.2098 18.6954 85.9637 18.6398 85.7267C18.5841 85.4897 18.4785 85.2673 18.33 85.0745C18.0223 84.6559 16.207 83.4003 15.8691 84.0659C15.5035 84.7795 17.2256 86.7083 18.6527 86.4486Z" fill="#A2845E" stroke="#263238" stroke-width="0.48" stroke-miterlimit="10"/>
<path d="M18.6495 86.4471L17.0005 84.8662" stroke="#263238" stroke-width="0.24" stroke-miterlimit="10"/>
<path d="M19.0745 91.3771L17.9272 89.5088" stroke="#263238" stroke-width="0.96" stroke-miterlimit="10"/>
<path d="M18.2743 90.0685C18.3214 89.8297 18.317 89.5835 18.2614 89.3466C18.2057 89.1096 18.1001 88.8872 17.9515 88.6943C17.6439 88.2783 15.8285 87.0202 15.4907 87.6858C15.1251 88.4019 16.8472 90.3282 18.2743 90.0685Z" fill="#A2845E" stroke="#263238" stroke-width="0.48" stroke-miterlimit="10"/>
<path d="M18.2764 90.0682L16.6274 88.4873" stroke="#263238" stroke-width="0.24" stroke-miterlimit="10"/>
<path d="M20.0579 81.8697L18.9106 80.0039" stroke="#263238" stroke-width="0.96" stroke-miterlimit="10"/>
<path d="M19.263 80.5629C19.3101 80.3241 19.3057 80.0779 19.2501 79.8409C19.1944 79.604 19.0888 79.3816 18.9402 79.1887C18.6326 78.7702 16.8172 77.5145 16.4794 78.1802C16.1138 78.9063 17.8384 80.8226 19.263 80.5629Z" fill="#A2845E" stroke="#263238" stroke-width="0.48" stroke-miterlimit="10"/>
<path d="M19.2627 80.5633L17.6162 78.9824" stroke="#263238" stroke-width="0.24" stroke-miterlimit="10"/>
<path d="M20.6711 75.9611L19.5264 74.0928" stroke="#263238" stroke-width="0.96" stroke-miterlimit="10"/>
<path d="M19.8763 74.6525C19.9241 74.4137 19.92 74.1674 19.8643 73.9303C19.8086 73.6932 19.7026 73.4709 19.5535 73.2783C19.2459 72.8623 17.4305 71.6041 17.0927 72.2698C16.7271 72.9859 18.4517 74.9122 19.8763 74.6525Z" fill="#A2845E" stroke="#263238" stroke-width="0.48" stroke-miterlimit="10"/>
<path d="M19.876 74.6522L18.2295 73.0713" stroke="#263238" stroke-width="0.24" stroke-miterlimit="10"/>
<path d="M18.7241 94.4435L20.2294 92.8525" stroke="#263238" stroke-width="0.96" stroke-miterlimit="10"/>
<path d="M19.7725 93.3283C19.7747 93.0849 19.8292 92.8447 19.9323 92.6242C20.0354 92.4036 20.1847 92.2078 20.37 92.05C20.7583 91.7046 22.7931 90.8473 22.9847 91.5634C23.1965 92.3425 21.1138 93.8755 19.7725 93.3283Z" fill="#A2845E" stroke="#263238" stroke-width="0.48" stroke-miterlimit="10"/>
<path d="M19.7725 93.329L21.8223 92.0557" stroke="#263238" stroke-width="0.24" stroke-miterlimit="10"/>
<path d="M19.7129 84.9119L21.2182 83.3184" stroke="#263238" stroke-width="0.96" stroke-miterlimit="10"/>
<path d="M20.7642 83.7952C20.7672 83.5516 20.8223 83.3115 20.9258 83.091C21.0293 82.8705 21.1788 82.6747 21.3642 82.5168C21.75 82.1714 23.7848 81.3141 23.9789 82.0327C24.1882 82.8118 22.1055 84.3423 20.7642 83.7952Z" fill="#A2845E" stroke="#263238" stroke-width="0.48" stroke-miterlimit="10"/>
<path d="M20.7642 83.7962L22.814 82.5254" stroke="#263238" stroke-width="0.24" stroke-miterlimit="10"/>
<path d="M20.1509 80.7218L21.6561 79.1309" stroke="#263238" stroke-width="0.96" stroke-miterlimit="10"/>
<path d="M21.1963 79.6057C21.1993 79.3621 21.2544 79.122 21.3579 78.9015C21.4614 78.681 21.6109 78.4853 21.7964 78.3273C22.1821 77.9819 24.2169 77.1246 24.411 77.8407C24.6128 78.6198 22.5402 80.1654 21.1963 79.6057Z" fill="#A2845E" stroke="#263238" stroke-width="0.48" stroke-miterlimit="10"/>
<path d="M21.1963 79.6073L23.2487 78.334" stroke="#263238" stroke-width="0.24" stroke-miterlimit="10"/>
<path d="M20.7866 74.5828L22.2944 72.9893" stroke="#263238" stroke-width="0.96" stroke-miterlimit="10"/>
<path d="M21.8379 73.4675C21.8408 73.224 21.8958 72.9838 21.9993 72.7633C22.1028 72.5428 22.2524 72.347 22.438 72.1892C22.8237 71.8413 24.8585 70.984 25.0526 71.7026C25.2569 72.4817 23.1742 74.0147 21.8379 73.4675Z" fill="#A2845E" stroke="#263238" stroke-width="0.48" stroke-miterlimit="10"/>
<path d="M21.835 73.4676L23.8874 72.1943" stroke="#263238" stroke-width="0.24" stroke-miterlimit="10"/>
<path d="M21.1143 70.6379C21.1173 70.3946 21.1722 70.1547 21.2752 69.9343C21.3783 69.7139 21.5271 69.5179 21.7118 69.3596C22.1001 69.0141 24.1349 68.1569 24.3265 68.8729C24.5383 69.652 22.4556 71.185 21.1143 70.6379Z" fill="#A2845E" stroke="#263238" stroke-width="0.48" stroke-miterlimit="10"/>
<path d="M21.1143 70.6385L23.1641 69.3652" stroke="#263238" stroke-width="0.24" stroke-miterlimit="10"/>
<path d="M21.198 70.73C20.9564 70.7018 20.7236 70.6222 20.5153 70.4965C20.3069 70.3708 20.1279 70.202 19.9903 70.0014C19.6877 69.5803 19.0473 67.4674 19.781 67.3489C20.5778 67.2228 21.8839 69.4542 21.198 70.73Z" fill="#A2845E" stroke="#263238" stroke-width="0.48" stroke-miterlimit="10"/>
<path d="M21.1994 70.7295L20.1479 68.5586" stroke="#263238" stroke-width="0.24" stroke-miterlimit="10"/>
<path d="M17.3169 57.8477V98.1241" stroke="#263238" stroke-width="0.96" stroke-miterlimit="10"/>
<path d="M17.3509 92.0689L16.0171 90.3291" stroke="#263238" stroke-width="0.96" stroke-miterlimit="10"/>
<path d="M16.4229 90.8493C16.4452 90.6068 16.4154 90.3623 16.3354 90.1322C16.2554 89.9021 16.127 89.6919 15.959 89.5155C15.6111 89.1323 13.6746 88.0708 13.4074 88.7591C13.1174 89.5155 15.0311 91.2603 16.4229 90.8493Z" fill="#A2845E" stroke="#263238" stroke-width="0.48" stroke-miterlimit="10"/>
<path d="M16.4244 90.8501L14.6216 89.4482" stroke="#263238" stroke-width="0.24" stroke-miterlimit="10"/>
<path d="M17.3509 84.4989L16.0171 82.7617" stroke="#263238" stroke-width="0.96" stroke-miterlimit="10"/>
<path d="M16.4229 83.2818C16.4452 83.0396 16.4153 82.7955 16.3353 82.5658C16.2553 82.3362 16.127 82.1264 15.959 81.9505C15.6111 81.5647 13.6746 80.5032 13.4074 81.1941C13.1174 81.9505 15.0311 83.6978 16.4229 83.2818Z" fill="#A2845E" stroke="#263238" stroke-width="0.48" stroke-miterlimit="10"/>
<path d="M16.4244 83.2818L14.6216 81.8799" stroke="#263238" stroke-width="0.24" stroke-miterlimit="10"/>
<path d="M17.3509 75.6138L16.0171 73.874" stroke="#263238" stroke-width="0.96" stroke-miterlimit="10"/>
<path d="M16.4229 74.3952C16.4452 74.1527 16.4154 73.9082 16.3354 73.6781C16.2554 73.448 16.127 73.2378 15.959 73.0614C15.6111 72.6782 13.6746 71.6167 13.4074 72.305C13.1174 73.0614 15.0311 74.8012 16.4229 74.3952Z" fill="#A2845E" stroke="#263238" stroke-width="0.48" stroke-miterlimit="10"/>
<path d="M16.4244 74.395L14.6216 72.9932" stroke="#263238" stroke-width="0.24" stroke-miterlimit="10"/>
<path d="M17.3509 69.6987L16.0171 67.959" stroke="#263238" stroke-width="0.96" stroke-miterlimit="10"/>
<path d="M16.4229 68.4793C16.4452 68.2367 16.4154 67.9922 16.3354 67.7621C16.2554 67.5321 16.127 67.3218 15.959 67.1455C15.6111 66.7622 13.6746 65.6982 13.4074 66.3891C13.1174 67.1455 15.0311 68.8852 16.4229 68.4793Z" fill="#A2845E" stroke="#263238" stroke-width="0.48" stroke-miterlimit="10"/>
<path d="M16.4244 68.48L14.6216 67.0781" stroke="#263238" stroke-width="0.24" stroke-miterlimit="10"/>
<path d="M17.3509 63.7548L16.0171 62.0176" stroke="#263238" stroke-width="0.96" stroke-miterlimit="10"/>
<path d="M16.4229 62.5389C16.4452 62.2963 16.4154 62.0518 16.3354 61.8217C16.2554 61.5917 16.127 61.3814 15.959 61.205C15.6111 60.8218 13.6746 59.7578 13.4074 60.4486C13.1174 61.205 15.0311 62.9448 16.4229 62.5389Z" fill="#A2845E" stroke="#263238" stroke-width="0.48" stroke-miterlimit="10"/>
<path d="M16.4244 62.5396L14.6216 61.1377" stroke="#263238" stroke-width="0.24" stroke-miterlimit="10"/>
<path d="M17.3198 94.3804L18.6536 92.6406" stroke="#263238" stroke-width="0.96" stroke-miterlimit="10"/>
<path d="M18.2479 93.1619C18.2256 92.9193 18.2554 92.6748 18.3355 92.4448C18.4155 92.2147 18.5438 92.0044 18.7118 91.8281C19.0598 91.4448 20.9962 90.3808 21.2635 91.0717C21.5534 91.8281 19.6397 93.5678 18.2479 93.1619Z" fill="#A2845E" stroke="#263238" stroke-width="0.48" stroke-miterlimit="10"/>
<path d="M18.2495 93.1631L20.1582 91.6855" stroke="#263238" stroke-width="0.24" stroke-miterlimit="10"/>
<path d="M17.3198 82.3442L18.6536 80.6045" stroke="#263238" stroke-width="0.96" stroke-miterlimit="10"/>
<path d="M18.2479 81.1248C18.2256 80.8822 18.2554 80.6377 18.3355 80.4077C18.4155 80.1776 18.5438 79.9673 18.7118 79.791C19.0598 79.4077 20.9962 78.3437 21.2635 79.0346C21.5534 79.791 19.6397 81.5307 18.2479 81.1248Z" fill="#A2845E" stroke="#263238" stroke-width="0.48" stroke-miterlimit="10"/>
<path d="M18.2495 81.125L20.1582 79.6475" stroke="#263238" stroke-width="0.24" stroke-miterlimit="10"/>
<path d="M17.3198 76.3999L18.6536 74.6602" stroke="#263238" stroke-width="0.96" stroke-miterlimit="10"/>
<path d="M18.2479 75.1823C18.2256 74.9398 18.2554 74.6953 18.3355 74.4652C18.4155 74.2352 18.5438 74.0249 18.7118 73.8485C19.0598 73.4653 20.9962 72.4038 21.2635 73.0921C21.5534 73.8485 19.6397 75.5883 18.2479 75.1823Z" fill="#A2845E" stroke="#263238" stroke-width="0.48" stroke-miterlimit="10"/>
<path d="M18.2495 75.1816L20.1582 73.7041" stroke="#263238" stroke-width="0.24" stroke-miterlimit="10"/>
<path d="M17.3198 68.5483L18.6536 66.8086" stroke="#263238" stroke-width="0.96" stroke-miterlimit="10"/>
<path d="M18.2479 67.3308C18.2256 67.0883 18.2554 66.8438 18.3355 66.6137C18.4155 66.3837 18.5438 66.1734 18.7118 65.997C19.0598 65.6138 20.9962 64.5498 21.2635 65.2406C21.5534 65.997 19.6397 67.7368 18.2479 67.3308Z" fill="#A2845E" stroke="#263238" stroke-width="0.48" stroke-miterlimit="10"/>
<path d="M18.2495 67.331L20.1582 65.8535" stroke="#263238" stroke-width="0.24" stroke-miterlimit="10"/>
<path d="M17.3198 62.3735L18.6536 60.6338" stroke="#263238" stroke-width="0.96" stroke-miterlimit="10"/>
<path d="M18.2479 61.155C18.2256 60.9124 18.2554 60.6679 18.3355 60.4379C18.4155 60.2078 18.5438 59.9975 18.7118 59.8212C19.0598 59.4379 20.9962 58.3764 21.2635 59.0648C21.5534 59.8212 19.6397 61.5609 18.2479 61.155Z" fill="#A2845E" stroke="#263238" stroke-width="0.48" stroke-miterlimit="10"/>
<path d="M18.2495 61.1562L20.1582 59.6787" stroke="#263238" stroke-width="0.24" stroke-miterlimit="10"/>
<path d="M17.2451 58.4187C17.2226 58.1763 17.2522 57.9319 17.3317 57.7019C17.4113 57.4719 17.5391 57.2615 17.7065 57.0849C18.057 56.7016 19.9909 55.6401 20.2581 56.3284C20.5481 57.0849 18.6344 58.8246 17.2451 58.4187Z" fill="#A2845E" stroke="#263238" stroke-width="0.48" stroke-miterlimit="10"/>
<path d="M17.2437 58.417L19.1498 56.9395" stroke="#263238" stroke-width="0.24" stroke-miterlimit="10"/>
<path d="M17.3336 58.5014C17.0901 58.4982 16.8503 58.4428 16.6302 58.3388C16.41 58.2348 16.2148 58.0848 16.0577 57.8988C15.7123 57.513 14.8576 55.4758 15.5762 55.2841C16.3553 55.0749 17.8832 57.1601 17.3336 58.5014Z" fill="#A2845E" stroke="#263238" stroke-width="0.48" stroke-miterlimit="10"/>
<path d="M17.3337 58.4997L16.0654 56.4473" stroke="#263238" stroke-width="0.24" stroke-miterlimit="10"/>
<path d="M18.973 108.57H14.7093L14.1748 97.7959H19.5075L18.973 108.57Z" fill="#263238" stroke="#263238" stroke-width="0.48" stroke-miterlimit="10"/>
<path d="M155.247 66.4326L158.57 98.2776" stroke="#263238" stroke-width="0.96" stroke-miterlimit="10"/>
<path d="M158.037 92.1847L156.529 90.5938" stroke="#263238" stroke-width="0.96" stroke-miterlimit="10"/>
<path d="M156.984 91.0694C156.981 90.8259 156.926 90.5858 156.822 90.3653C156.719 90.1448 156.569 89.949 156.384 89.7911C155.998 89.4457 153.961 88.5909 153.769 89.307C153.56 90.0861 155.645 91.6191 156.984 91.0694Z" fill="#A2845E" stroke="#263238" stroke-width="0.48" stroke-miterlimit="10"/>
<path d="M156.987 91.0691L155.048 89.8613" stroke="#263238" stroke-width="0.24" stroke-miterlimit="10"/>
<path d="M158.415 95.8068L156.908 94.2158" stroke="#263238" stroke-width="0.96" stroke-miterlimit="10"/>
<path d="M157.365 94.6926C157.363 94.449 157.308 94.2089 157.204 93.9883C157.101 93.7678 156.951 93.5721 156.765 93.4142C156.377 93.0688 154.342 92.2115 154.151 92.9276C153.939 93.7092 156.024 95.2397 157.365 94.6926Z" fill="#A2845E" stroke="#263238" stroke-width="0.48" stroke-miterlimit="10"/>
<path d="M157.366 94.6931L155.427 93.4854" stroke="#263238" stroke-width="0.24" stroke-miterlimit="10"/>
<path d="M157.116 83.3468L155.608 81.7559" stroke="#263238" stroke-width="0.96" stroke-miterlimit="10"/>
<path d="M156.066 82.2327C156.063 81.9891 156.008 81.749 155.904 81.5285C155.801 81.308 155.651 81.1122 155.466 80.9543C155.08 80.6089 153.043 79.7516 152.851 80.4702C152.642 81.2493 154.717 82.7798 156.066 82.2327Z" fill="#A2845E" stroke="#263238" stroke-width="0.48" stroke-miterlimit="10"/>
<path d="M156.063 82.2331L154.125 81.0254" stroke="#263238" stroke-width="0.24" stroke-miterlimit="10"/>
<path d="M157.492 86.967L155.984 85.376" stroke="#263238" stroke-width="0.96" stroke-miterlimit="10"/>
<path d="M156.442 85.8526C156.439 85.6091 156.383 85.369 156.28 85.1485C156.176 84.928 156.027 84.7322 155.842 84.5743C155.456 84.2289 153.418 83.3741 153.227 84.0902C153.015 84.8693 155.1 86.4023 156.442 85.8526Z" fill="#A2845E" stroke="#263238" stroke-width="0.48" stroke-miterlimit="10"/>
<path d="M156.442 85.8523L154.503 84.6445" stroke="#263238" stroke-width="0.24" stroke-miterlimit="10"/>
<path d="M156.497 77.4621L154.992 75.8711" stroke="#263238" stroke-width="0.96" stroke-miterlimit="10"/>
<path d="M155.447 76.3473C155.444 76.104 155.389 75.8642 155.286 75.6437C155.183 75.4233 155.034 75.2274 154.849 75.069C154.461 74.7261 152.426 73.8688 152.232 74.5849C152.023 75.3766 154.105 76.8894 155.447 76.3473Z" fill="#A2845E" stroke="#263238" stroke-width="0.48" stroke-miterlimit="10"/>
<path d="M155.451 76.3474L153.514 75.1396" stroke="#263238" stroke-width="0.24" stroke-miterlimit="10"/>
<path d="M155.884 71.5539L154.376 69.9629" stroke="#263238" stroke-width="0.96" stroke-miterlimit="10"/>
<path d="M154.834 70.4387C154.831 70.1952 154.776 69.9551 154.673 69.7346C154.569 69.5141 154.42 69.3183 154.234 69.1604C153.848 68.8149 151.811 67.9577 151.619 68.6763C151.408 69.4554 153.493 70.9859 154.834 70.4387Z" fill="#A2845E" stroke="#263238" stroke-width="0.48" stroke-miterlimit="10"/>
<path d="M154.834 70.4402L152.896 69.2324" stroke="#263238" stroke-width="0.24" stroke-miterlimit="10"/>
<path d="M157.781 90.0402L158.928 88.1719" stroke="#263238" stroke-width="0.96" stroke-miterlimit="10"/>
<path d="M158.579 88.7396C158.532 88.5008 158.536 88.2547 158.592 88.0177C158.647 87.7807 158.753 87.5584 158.901 87.3655C159.209 86.9469 161.024 85.6888 161.36 86.3569C161.728 87.0654 160.011 88.9918 158.579 88.7396Z" fill="#A2845E" stroke="#263238" stroke-width="0.48" stroke-miterlimit="10"/>
<path d="M158.581 88.7336L160.325 87.0645" stroke="#263238" stroke-width="0.24" stroke-miterlimit="10"/>
<path d="M156.789 80.5099L157.934 78.6416" stroke="#263238" stroke-width="0.96" stroke-miterlimit="10"/>
<path d="M157.585 79.2035C157.537 78.9647 157.541 78.7184 157.597 78.4813C157.652 78.2443 157.758 78.0219 157.908 77.8294C158.213 77.4108 160.028 76.1526 160.366 76.8208C160.731 77.5344 159.002 79.4607 157.585 79.2035Z" fill="#A2845E" stroke="#263238" stroke-width="0.48" stroke-miterlimit="10"/>
<path d="M157.586 79.2043L159.331 77.5352" stroke="#263238" stroke-width="0.24" stroke-miterlimit="10"/>
<path d="M156.348 76.3224L157.495 74.4541" stroke="#263238" stroke-width="0.96" stroke-miterlimit="10"/>
<path d="M157.146 75.0128C157.099 74.774 157.103 74.5279 157.159 74.2909C157.215 74.0539 157.32 73.8315 157.469 73.6387C157.776 73.2227 159.592 71.9645 159.927 72.6301C160.295 73.3437 158.573 75.2725 157.146 75.0128Z" fill="#A2845E" stroke="#263238" stroke-width="0.48" stroke-miterlimit="10"/>
<path d="M157.145 75.0133L158.89 73.3467" stroke="#263238" stroke-width="0.24" stroke-miterlimit="10"/>
<path d="M155.71 70.1818L156.857 68.3135" stroke="#263238" stroke-width="0.96" stroke-miterlimit="10"/>
<path d="M156.505 68.8744C156.458 68.6356 156.462 68.3894 156.518 68.1525C156.574 67.9155 156.679 67.6931 156.828 67.5003C157.135 67.0817 158.951 65.8235 159.286 66.4917C159.654 67.2053 157.932 69.1341 156.505 68.8744Z" fill="#A2845E" stroke="#263238" stroke-width="0.48" stroke-miterlimit="10"/>
<path d="M156.504 68.8737L158.249 67.207" stroke="#263238" stroke-width="0.24" stroke-miterlimit="10"/>
<path d="M155.219 66.254C155.172 66.0152 155.177 65.7691 155.232 65.5321C155.288 65.2951 155.394 65.0728 155.542 64.8799C155.85 64.4639 157.665 63.2057 158 63.8713C158.369 64.5849 156.646 66.5138 155.219 66.254Z" fill="#A2845E" stroke="#263238" stroke-width="0.48" stroke-miterlimit="10"/>
<path d="M155.221 66.2545L156.965 64.5879" stroke="#263238" stroke-width="0.24" stroke-miterlimit="10"/>
<path d="M155.322 66.3263C155.079 66.3486 154.834 66.3186 154.604 66.2381C154.374 66.1576 154.164 66.0286 153.988 65.8599C153.605 65.5119 152.546 63.5755 153.232 63.3083C153.993 63.0208 155.725 64.9345 155.322 66.3263Z" fill="#A2845E" stroke="#263238" stroke-width="0.48" stroke-miterlimit="10"/>
<path d="M155.32 66.3262L153.845 64.415" stroke="#263238" stroke-width="0.24" stroke-miterlimit="10"/>
<path d="M164.014 70.8164L160.708 102.666" stroke="#263238" stroke-width="0.96" stroke-miterlimit="10"/>
<path d="M161.44 96.5939L160.292 94.7256" stroke="#263238" stroke-width="0.96" stroke-miterlimit="10"/>
<path d="M160.644 95.296C160.691 95.057 160.686 94.8108 160.63 94.5738C160.574 94.3367 160.467 94.1145 160.318 93.9219C160.011 93.5059 158.195 92.2477 157.86 92.9133C157.489 93.6193 159.216 95.5482 160.644 95.296Z" fill="#A2845E" stroke="#263238" stroke-width="0.48" stroke-miterlimit="10"/>
<path d="M160.642 95.284L158.993 93.7031" stroke="#263238" stroke-width="0.24" stroke-miterlimit="10"/>
<path d="M162.358 87.7531L161.211 85.8848" stroke="#263238" stroke-width="0.96" stroke-miterlimit="10"/>
<path d="M161.559 86.4486C161.607 86.2098 161.603 85.9635 161.547 85.7265C161.491 85.4894 161.385 85.267 161.236 85.0745C160.929 84.6559 159.113 83.4003 158.778 84.0659C158.41 84.7795 160.134 86.7083 161.559 86.4486Z" fill="#A2845E" stroke="#263238" stroke-width="0.48" stroke-miterlimit="10"/>
<path d="M161.561 86.4471L159.914 84.8662" stroke="#263238" stroke-width="0.24" stroke-miterlimit="10"/>
<path d="M161.982 91.3771L160.835 89.5088" stroke="#263238" stroke-width="0.96" stroke-miterlimit="10"/>
<path d="M161.183 90.0685C161.231 89.8297 161.227 89.5834 161.171 89.3463C161.115 89.1092 161.009 88.8869 160.86 88.6943C160.553 88.2783 158.737 87.0202 158.402 87.6858C158.034 88.4019 159.758 90.3282 161.183 90.0685Z" fill="#A2845E" stroke="#263238" stroke-width="0.48" stroke-miterlimit="10"/>
<path d="M161.182 90.0682L159.536 88.4873" stroke="#263238" stroke-width="0.24" stroke-miterlimit="10"/>
<path d="M162.969 81.8697L161.821 80.0039" stroke="#263238" stroke-width="0.96" stroke-miterlimit="10"/>
<path d="M162.171 80.5629C162.218 80.3239 162.213 80.0776 162.157 79.8406C162.101 79.6036 161.995 79.3813 161.846 79.1887C161.538 78.7702 159.723 77.5145 159.388 78.1802C159.022 78.9063 160.744 80.8226 162.171 80.5629Z" fill="#A2845E" stroke="#263238" stroke-width="0.48" stroke-miterlimit="10"/>
<path d="M162.173 80.5633L160.524 78.9824" stroke="#263238" stroke-width="0.24" stroke-miterlimit="10"/>
<path d="M163.582 75.9611L162.435 74.0928" stroke="#263238" stroke-width="0.96" stroke-miterlimit="10"/>
<path d="M162.781 74.6525C162.828 74.4135 162.823 74.1672 162.767 73.9302C162.711 73.6932 162.605 73.4709 162.456 73.2783C162.151 72.8623 160.335 71.6041 159.998 72.2698C159.632 72.9859 161.354 74.9122 162.781 74.6525Z" fill="#A2845E" stroke="#263238" stroke-width="0.48" stroke-miterlimit="10"/>
<path d="M162.784 74.6522L161.135 73.0713" stroke="#263238" stroke-width="0.24" stroke-miterlimit="10"/>
<path d="M161.635 94.4435L163.14 92.8525" stroke="#263238" stroke-width="0.96" stroke-miterlimit="10"/>
<path d="M162.68 93.3283C162.683 93.0848 162.738 92.8447 162.842 92.6242C162.945 92.4037 163.095 92.2079 163.28 92.05C163.666 91.7046 165.701 90.8473 165.895 91.5634C166.104 92.3425 164.024 93.8755 162.68 93.3283Z" fill="#A2845E" stroke="#263238" stroke-width="0.48" stroke-miterlimit="10"/>
<path d="M162.68 93.329L164.733 92.0557" stroke="#263238" stroke-width="0.24" stroke-miterlimit="10"/>
<path d="M162.621 84.9119L164.126 83.3184" stroke="#263238" stroke-width="0.96" stroke-miterlimit="10"/>
<path d="M163.672 83.7952C163.674 83.5517 163.729 83.3116 163.832 83.091C163.935 82.8705 164.084 82.6747 164.269 82.5168C164.655 82.1714 166.69 81.3141 166.884 82.0327C167.096 82.8118 165.013 84.3423 163.672 83.7952Z" fill="#A2845E" stroke="#263238" stroke-width="0.48" stroke-miterlimit="10"/>
<path d="M163.672 83.7962L165.722 82.5254" stroke="#263238" stroke-width="0.24" stroke-miterlimit="10"/>
<path d="M163.056 80.7218L164.561 79.1309" stroke="#263238" stroke-width="0.96" stroke-miterlimit="10"/>
<path d="M164.107 79.6057C164.11 79.3621 164.165 79.122 164.269 78.9015C164.372 78.681 164.522 78.4853 164.707 78.3273C165.093 77.9819 167.128 77.1246 167.322 77.8407C167.531 78.6198 165.448 80.1654 164.107 79.6057Z" fill="#A2845E" stroke="#263238" stroke-width="0.48" stroke-miterlimit="10"/>
<path d="M164.107 79.6073L166.157 78.334" stroke="#263238" stroke-width="0.24" stroke-miterlimit="10"/>
<path d="M163.694 74.5828L165.2 72.9893" stroke="#263238" stroke-width="0.96" stroke-miterlimit="10"/>
<path d="M164.743 73.4675C164.745 73.2241 164.799 72.9839 164.902 72.7633C165.005 72.5427 165.155 72.3469 165.34 72.1892C165.729 71.8413 167.763 70.984 167.955 71.7026C168.167 72.4817 166.084 74.0147 164.743 73.4675Z" fill="#A2845E" stroke="#263238" stroke-width="0.48" stroke-miterlimit="10"/>
<path d="M164.743 73.4676L166.793 72.1943" stroke="#263238" stroke-width="0.24" stroke-miterlimit="10"/>
<path d="M164.022 70.6379C164.025 70.3943 164.081 70.1542 164.184 69.9338C164.288 69.7133 164.437 69.5175 164.623 69.3596C165.008 69.0141 167.043 68.1569 167.237 68.8729C167.449 69.652 165.366 71.185 164.022 70.6379Z" fill="#A2845E" stroke="#263238" stroke-width="0.48" stroke-miterlimit="10"/>
<path d="M164.022 70.6385L166.075 69.3652" stroke="#263238" stroke-width="0.24" stroke-miterlimit="10"/>
<path d="M164.107 70.73C163.865 70.7018 163.632 70.6222 163.423 70.4966C163.215 70.3709 163.035 70.202 162.897 70.0014C162.594 69.5803 161.956 67.4674 162.688 67.3489C163.487 67.2228 164.801 69.4542 164.107 70.73Z" fill="#A2845E" stroke="#263238" stroke-width="0.48" stroke-miterlimit="10"/>
<path d="M164.108 70.7295L163.056 68.5586" stroke="#263238" stroke-width="0.24" stroke-miterlimit="10"/>
<path d="M160.228 57.8477V98.1241" stroke="#263238" stroke-width="0.96" stroke-miterlimit="10"/>
<path d="M160.257 92.0689L158.925 90.3291" stroke="#263238" stroke-width="0.96" stroke-miterlimit="10"/>
<path d="M159.331 90.8493C159.353 90.6068 159.324 90.3623 159.244 90.1322C159.164 89.9021 159.035 89.6919 158.867 89.5155C158.517 89.1323 156.583 88.0708 156.316 88.7591C156.026 89.5155 157.939 91.2603 159.331 90.8493Z" fill="#A2845E" stroke="#263238" stroke-width="0.48" stroke-miterlimit="10"/>
<path d="M159.332 90.8501L157.529 89.4482" stroke="#263238" stroke-width="0.24" stroke-miterlimit="10"/>
<path d="M160.257 84.4989L158.925 82.7617" stroke="#263238" stroke-width="0.96" stroke-miterlimit="10"/>
<path d="M159.331 83.2818C159.353 83.0396 159.324 82.7955 159.244 82.5658C159.163 82.3362 159.035 82.1264 158.867 81.9505C158.517 81.5647 156.583 80.5032 156.316 81.1941C156.026 81.9505 157.939 83.6978 159.331 83.2818Z" fill="#A2845E" stroke="#263238" stroke-width="0.48" stroke-miterlimit="10"/>
<path d="M159.332 83.2818L157.529 81.8799" stroke="#263238" stroke-width="0.24" stroke-miterlimit="10"/>
<path d="M160.257 75.6138L158.925 73.874" stroke="#263238" stroke-width="0.96" stroke-miterlimit="10"/>
<path d="M159.331 74.3952C159.353 74.1527 159.324 73.9082 159.244 73.6781C159.164 73.448 159.035 73.2378 158.867 73.0614C158.517 72.6782 156.583 71.6167 156.316 72.305C156.026 73.0614 157.939 74.8012 159.331 74.3952Z" fill="#A2845E" stroke="#263238" stroke-width="0.48" stroke-miterlimit="10"/>
<path d="M159.332 74.395L157.529 72.9932" stroke="#263238" stroke-width="0.24" stroke-miterlimit="10"/>
<path d="M160.257 69.6987L158.925 67.959" stroke="#263238" stroke-width="0.96" stroke-miterlimit="10"/>
<path d="M159.331 68.4793C159.353 68.2367 159.324 67.9922 159.244 67.7621C159.164 67.5321 159.035 67.3218 158.867 67.1455C158.517 66.7622 156.583 65.6982 156.316 66.3891C156.026 67.1455 157.939 68.8852 159.331 68.4793Z" fill="#A2845E" stroke="#263238" stroke-width="0.48" stroke-miterlimit="10"/>
<path d="M159.332 68.48L157.529 67.0781" stroke="#263238" stroke-width="0.24" stroke-miterlimit="10"/>
<path d="M160.257 63.7548L158.925 62.0176" stroke="#263238" stroke-width="0.96" stroke-miterlimit="10"/>
<path d="M159.331 62.5389C159.353 62.2963 159.324 62.0518 159.244 61.8217C159.164 61.5917 159.035 61.3814 158.867 61.205C158.517 60.8218 156.583 59.7578 156.316 60.4486C156.026 61.205 157.939 62.9448 159.331 62.5389Z" fill="#A2845E" stroke="#263238" stroke-width="0.48" stroke-miterlimit="10"/>
<path d="M159.332 62.5396L157.529 61.1377" stroke="#263238" stroke-width="0.24" stroke-miterlimit="10"/>
<path d="M160.23 94.3804L161.564 92.6406" stroke="#263238" stroke-width="0.96" stroke-miterlimit="10"/>
<path d="M161.156 93.1619C161.134 92.9193 161.164 92.6748 161.244 92.4448C161.324 92.2147 161.452 92.0044 161.62 91.8281C161.968 91.4448 163.904 90.3808 164.169 91.0717C164.459 91.8281 162.545 93.5678 161.156 93.1619Z" fill="#A2845E" stroke="#263238" stroke-width="0.48" stroke-miterlimit="10"/>
<path d="M161.157 93.1631L163.066 91.6855" stroke="#263238" stroke-width="0.24" stroke-miterlimit="10"/>
<path d="M160.23 82.3442L161.564 80.6045" stroke="#263238" stroke-width="0.96" stroke-miterlimit="10"/>
<path d="M161.156 81.1248C161.134 80.8822 161.164 80.6377 161.244 80.4077C161.324 80.1776 161.452 79.9673 161.62 79.791C161.968 79.4077 163.904 78.3437 164.169 79.0346C164.459 79.791 162.545 81.5307 161.156 81.1248Z" fill="#A2845E" stroke="#263238" stroke-width="0.48" stroke-miterlimit="10"/>
<path d="M161.157 81.125L163.066 79.6475" stroke="#263238" stroke-width="0.24" stroke-miterlimit="10"/>
<path d="M160.23 76.3999L161.564 74.6602" stroke="#263238" stroke-width="0.96" stroke-miterlimit="10"/>
<path d="M161.156 75.1823C161.134 74.9398 161.164 74.6953 161.244 74.4652C161.324 74.2352 161.452 74.0249 161.62 73.8485C161.968 73.4653 163.904 72.4038 164.169 73.0921C164.459 73.8485 162.545 75.5883 161.156 75.1823Z" fill="#A2845E" stroke="#263238" stroke-width="0.48" stroke-miterlimit="10"/>
<path d="M161.157 75.1816L163.066 73.7041" stroke="#263238" stroke-width="0.24" stroke-miterlimit="10"/>
<path d="M160.23 68.5483L161.564 66.8086" stroke="#263238" stroke-width="0.96" stroke-miterlimit="10"/>
<path d="M161.156 67.3308C161.134 67.0883 161.164 66.8438 161.244 66.6137C161.324 66.3837 161.452 66.1734 161.62 65.997C161.968 65.6138 163.904 64.5498 164.169 65.2406C164.459 65.997 162.545 67.7368 161.156 67.3308Z" fill="#A2845E" stroke="#263238" stroke-width="0.48" stroke-miterlimit="10"/>
<path d="M161.157 67.331L163.066 65.8535" stroke="#263238" stroke-width="0.24" stroke-miterlimit="10"/>
<path d="M160.23 62.3735L161.564 60.6338" stroke="#263238" stroke-width="0.96" stroke-miterlimit="10"/>
<path d="M161.156 61.155C161.134 60.9124 161.164 60.6679 161.244 60.4379C161.324 60.2078 161.452 59.9975 161.62 59.8212C161.968 59.4379 163.904 58.3764 164.169 59.0648C164.459 59.8212 162.545 61.5609 161.156 61.155Z" fill="#A2845E" stroke="#263238" stroke-width="0.48" stroke-miterlimit="10"/>
<path d="M161.157 61.1562L163.066 59.6787" stroke="#263238" stroke-width="0.24" stroke-miterlimit="10"/>
<path d="M160.147 58.4187C160.125 58.1761 160.155 57.9316 160.235 57.7015C160.315 57.4715 160.443 57.2612 160.611 57.0849C160.959 56.7016 162.896 55.6401 163.163 56.3284C163.453 57.0849 161.539 58.8246 160.147 58.4187Z" fill="#A2845E" stroke="#263238" stroke-width="0.48" stroke-miterlimit="10"/>
<path d="M160.151 58.417L162.06 56.9395" stroke="#263238" stroke-width="0.24" stroke-miterlimit="10"/>
<path d="M160.242 58.5014C159.998 58.4983 159.758 58.4428 159.538 58.3389C159.317 58.2349 159.122 58.0848 158.964 57.8988C158.621 57.513 157.766 55.4758 158.482 55.2841C159.254 55.0749 160.792 57.1601 160.242 58.5014Z" fill="#A2845E" stroke="#263238" stroke-width="0.48" stroke-miterlimit="10"/>
<path d="M160.241 58.4997L158.973 56.4473" stroke="#263238" stroke-width="0.24" stroke-miterlimit="10"/>
<path d="M161.884 108.57H157.618L157.086 97.7959H162.416L161.884 108.57Z" fill="#263238" stroke="#263238" stroke-width="0.48" stroke-miterlimit="10"/>
<path d="M163.542 23.4367C163.543 22.0041 163.198 20.5924 162.538 19.3212C161.877 18.0499 160.92 16.9565 159.748 16.1334C158.575 15.3103 157.222 14.7819 155.802 14.5927C154.382 14.4036 152.937 14.5593 151.59 15.0468C150.243 15.5342 149.033 16.339 148.063 17.3931C147.092 18.4472 146.39 19.7195 146.016 21.1023C145.642 22.4851 145.606 23.9378 145.912 25.3373C146.218 26.7369 146.856 28.0421 147.774 29.1426C149.087 30.7169 149.806 32.7024 149.806 34.7527V35.973H159.432V34.7527C159.427 32.7056 160.141 30.7218 161.45 29.1476C162.797 27.5495 163.538 25.5273 163.542 23.4367Z" fill="white" stroke="#263238" stroke-width="0.48" stroke-linecap="round" stroke-linejoin="round"/>
<path d="M159.431 35.9756H149.792V38.3608H159.431V35.9756Z" fill="#A2845E" stroke="#263238" stroke-width="0.48" stroke-linecap="round" stroke-linejoin="round"/>
<path d="M149.792 38.3652H159.431V39.5578C159.431 39.8741 159.305 40.1775 159.081 40.4011C158.858 40.6248 158.554 40.7505 158.238 40.7505H150.982C150.665 40.7505 150.362 40.6248 150.138 40.4011C149.915 40.1775 149.789 39.8741 149.789 39.5578V38.3652H149.792Z" fill="#A2845E" stroke="#263238" stroke-width="0.48" stroke-linecap="round" stroke-linejoin="round"/>
<path d="M151.01 40.7471H158.216V41.5035C158.216 41.9321 158.046 42.3432 157.742 42.6463C157.439 42.9494 157.028 43.1197 156.6 43.1197H152.626C152.197 43.1197 151.786 42.9494 151.483 42.6463C151.18 42.3432 151.01 41.9321 151.01 41.5035V40.7471Z" fill="#263238" stroke="#263238" stroke-width="0.48" stroke-linecap="round" stroke-linejoin="round"/>
<path d="M164.795 23.4834H168.88" stroke="#263238" stroke-width="0.48" stroke-linecap="round" stroke-linejoin="round"/>
<path d="M139.962 23.4834H144.1" stroke="#263238" stroke-width="0.48" stroke-linecap="round" stroke-linejoin="round"/>
<path d="M154.423 13.1221V9.02734" stroke="#263238" stroke-width="0.48" stroke-linecap="round" stroke-linejoin="round"/>
<path d="M161.826 16.0796L164.645 13.2607" stroke="#263238" stroke-width="0.48" stroke-linecap="round" stroke-linejoin="round"/>
<path d="M144.197 33.7059L147.056 30.8467" stroke="#263238" stroke-width="0.48" stroke-linecap="round" stroke-linejoin="round"/>
<path d="M146.935 15.999L144.197 13.2607" stroke="#263238" stroke-width="0.48" stroke-linecap="round" stroke-linejoin="round"/>
<path d="M164.642 33.7051L161.916 30.9795" stroke="#263238" stroke-width="0.48" stroke-linecap="round" stroke-linejoin="round"/>
<path d="M101.906 20.44L90.1039 4.11914L78.2988 20.44H83.155V38.5712H97.0528V20.44H101.906Z" fill="#A2845E" stroke="#263238" stroke-width="0.48" stroke-linecap="round" stroke-linejoin="round"/>
<path d="M91.9593 48.3334C98.5935 47.2612 103.102 41.014 102.03 34.3798C100.958 27.7456 94.711 23.2366 88.0768 24.3087C81.4425 25.3809 76.9336 31.6281 78.0057 38.2623C79.0779 44.8965 85.3251 49.4055 91.9593 48.3334Z" fill="white" stroke="#263238" stroke-width="0.48" stroke-linecap="round" stroke-linejoin="round"/>
<path d="M99.2843 40.994C101.864 35.8787 99.808 29.6409 94.6928 27.0615C89.5775 24.4821 83.3397 26.5378 80.7603 31.653C78.1809 36.7683 80.2366 43.0061 85.3518 45.5855C90.4671 48.1649 96.7049 46.1092 99.2843 40.994Z" fill="white" stroke="#263238" stroke-width="0.48" stroke-linecap="round" stroke-linejoin="round"/>
<path d="M93.4839 37.8759C93.4839 35.1603 89.6363 35.1024 89.6363 33.9677C89.6363 33.3727 89.9489 33.1937 90.5919 33.1937C91.1441 33.1937 91.6004 33.4307 92.1425 33.9097L93.4032 32.4473C92.8171 31.7843 92.0233 31.3398 91.1516 31.1867V29.6738H89.4875V31.2522C88.0503 31.5623 87.1906 32.586 87.1906 34.0938C87.1906 36.7059 91.0382 36.8673 91.0382 38.0624C91.0382 38.6449 90.7407 38.897 89.9943 38.897C89.369 38.897 88.7336 38.66 87.9369 38.0624L86.8325 39.7921C87.5893 40.4176 88.5119 40.8093 89.4875 40.9192V42.4169H91.1592V40.8133C92.7149 40.4351 93.4839 39.3206 93.4839 37.8759Z" fill="#A2845E" stroke="#263238" stroke-width="0.48" stroke-linecap="round" stroke-linejoin="round"/>
<path d="M29.8066 27.5561C34.1117 26.7753 36.9687 22.6524 36.1878 18.3473C35.407 14.0423 31.2841 11.1853 26.9791 11.9661C22.674 12.7469 19.8171 16.8698 20.5979 21.1749C21.3787 25.4799 25.5016 28.3369 29.8066 27.5561Z" fill="white" stroke="#263238" stroke-width="0.48" stroke-linecap="round" stroke-linejoin="round"/>
<path d="M30.632 12.1689L28.3955 19.7633H36.3177C36.3169 18.0533 35.7626 16.3895 34.7378 15.0206C33.7129 13.6517 32.2725 12.6513 30.632 12.1689Z" fill="#A2845E" stroke="#263238" stroke-width="0.48" stroke-linecap="round" stroke-linejoin="round"/>
<path d="M33.3174 14.765L36.4615 11.0586H39.1594" stroke="#263238" stroke-width="0.24" stroke-linecap="round" stroke-linejoin="round"/>
<path d="M41.0674 11.1699H45.1117" stroke="#263238" stroke-width="0.24" stroke-linecap="round" stroke-linejoin="round"/>
<path d="M41.0674 12.1807H45.1117" stroke="#263238" stroke-width="0.24" stroke-linecap="round" stroke-linejoin="round"/>
<path d="M41.0674 13.1914H45.1117" stroke="#263238" stroke-width="0.24" stroke-linecap="round" stroke-linejoin="round"/>
<path d="M41.0674 14.2031H45.1117" stroke="#263238" stroke-width="0.24" stroke-linecap="round" stroke-linejoin="round"/>
<path d="M20.8192 36.0615H18.5146V42.9373H20.8192V36.0615Z" fill="#263238" stroke="#263238" stroke-width="0.24" stroke-linecap="round" stroke-linejoin="round"/>
<path d="M24.4383 38.5352H22.1338V42.9375H24.4383V38.5352Z" fill="#A2845E" stroke="#263238" stroke-width="0.48" stroke-linecap="round" stroke-linejoin="round"/>
<path d="M28.0609 34.5557H25.7563V42.9367H28.0609V34.5557Z" fill="#263238" stroke="#263238" stroke-width="0.24" stroke-linecap="round" stroke-linejoin="round"/>
<path d="M31.683 36.29H29.3784V42.9389H31.683V36.29Z" fill="#A2845E" stroke="#263238" stroke-width="0.48" stroke-linecap="round" stroke-linejoin="round"/>
<path d="M35.3055 34.7705H33.001V42.9372H35.3055V34.7705Z" fill="#263238" stroke="#263238" stroke-width="0.24" stroke-linecap="round" stroke-linejoin="round"/>
<path d="M38.9276 29.9316H36.623V42.9394H38.9276V29.9316Z" fill="#A2845E" stroke="#263238" stroke-width="0.48" stroke-linecap="round" stroke-linejoin="round"/>
<path d="M41.5171 29.7939H42.866" stroke="#263238" stroke-width="0.24" stroke-linecap="round" stroke-linejoin="round"/>
<path d="M41.5171 32.4219H42.866" stroke="#263238" stroke-width="0.24" stroke-linecap="round" stroke-linejoin="round"/>
<path d="M41.5171 35.0527H42.866" stroke="#263238" stroke-width="0.24" stroke-linecap="round" stroke-linejoin="round"/>
<path d="M41.5171 37.6816H42.866" stroke="#263238" stroke-width="0.24" stroke-linecap="round" stroke-linejoin="round"/>
<path d="M41.5171 40.3125H42.866" stroke="#263238" stroke-width="0.24" stroke-linecap="round" stroke-linejoin="round"/>
<path d="M41.5171 42.9385H42.866" stroke="#263238" stroke-width="0.24" stroke-linecap="round" stroke-linejoin="round"/>
<path d="M19.8311 33.5276L23.361 35.6632L27.0346 31.7299L30.6629 32.0349L34.1777 30.6406L38.1564 25.4062" stroke="#263238" stroke-width="0.48" stroke-linecap="round" stroke-linejoin="round"/>
<path d="M20.2744 33.5224C20.2744 33.4341 20.2482 33.3477 20.199 33.2742C20.1499 33.2008 20.08 33.1436 19.9983 33.1099C19.9166 33.0762 19.8268 33.0675 19.7401 33.0849C19.6535 33.1024 19.574 33.1451 19.5117 33.2078C19.4493 33.2704 19.407 33.3502 19.3901 33.4369C19.3732 33.5237 19.3824 33.6135 19.4165 33.695C19.4507 33.7765 19.5083 33.846 19.582 33.8948C19.6557 33.9435 19.7423 33.9692 19.8306 33.9687C19.8891 33.9687 19.947 33.9572 20.001 33.9347C20.0551 33.9123 20.1041 33.8793 20.1453 33.8379C20.1866 33.7964 20.2192 33.7472 20.2414 33.693C20.2635 33.6389 20.2747 33.5809 20.2744 33.5224Z" fill="#263238"/>
<path d="M23.8061 35.6631C23.8061 35.5748 23.78 35.4885 23.7309 35.4151C23.6819 35.3417 23.6122 35.2845 23.5306 35.2508C23.4491 35.217 23.3594 35.2082 23.2728 35.2254C23.1862 35.2426 23.1067 35.2851 23.0443 35.3475C22.9819 35.4099 22.9394 35.4894 22.9221 35.576C22.9049 35.6626 22.9138 35.7523 22.9475 35.8339C22.9813 35.9154 23.0385 35.9851 23.1119 36.0342C23.1853 36.0832 23.2716 36.1094 23.3599 36.1094C23.4186 36.1097 23.4767 36.0984 23.531 36.0761C23.5853 36.0538 23.6347 36.0209 23.6762 35.9794C23.7177 35.9379 23.7505 35.8886 23.7729 35.8343C23.7952 35.78 23.8065 35.7218 23.8061 35.6631Z" fill="#263238"/>
<path d="M27.4795 31.7295C27.4795 31.6411 27.4532 31.5547 27.4041 31.4813C27.3549 31.4078 27.2851 31.3506 27.2034 31.3169C27.1217 31.2832 27.0318 31.2745 26.9452 31.292C26.8586 31.3094 26.779 31.3521 26.7167 31.4148C26.6544 31.4775 26.6121 31.5572 26.5952 31.644C26.5782 31.7307 26.5874 31.8205 26.6216 31.902C26.6558 31.9835 26.7134 32.053 26.7871 32.1018C26.8608 32.1505 26.9473 32.1763 27.0357 32.1758C27.0942 32.1758 27.1521 32.1642 27.2061 32.1417C27.2601 32.1193 27.3092 32.0864 27.3504 32.0449C27.3916 32.0034 27.4243 31.9542 27.4464 31.9001C27.4686 31.8459 27.4798 31.788 27.4795 31.7295Z" fill="#263238"/>
<path d="M31.1074 32.0351C31.1074 31.9468 31.0812 31.8604 31.032 31.7869C30.9829 31.7135 30.913 31.6563 30.8313 31.6226C30.7496 31.5889 30.6598 31.5802 30.5731 31.5976C30.4865 31.6151 30.407 31.6578 30.3447 31.7205C30.2824 31.7831 30.24 31.8629 30.2231 31.9496C30.2062 32.0364 30.2154 32.1262 30.2495 32.2077C30.2837 32.2892 30.3413 32.3587 30.415 32.4074C30.4887 32.4562 30.5753 32.4819 30.6637 32.4814C30.7221 32.4814 30.7801 32.4699 30.8341 32.4474C30.8881 32.425 30.9371 32.392 30.9783 32.3506C31.0196 32.3091 31.0522 32.2599 31.0744 32.2057C31.0965 32.1516 31.1077 32.0936 31.1074 32.0351Z" fill="#263238"/>
<path d="M34.6225 30.5684C34.6225 30.4801 34.5964 30.3938 34.5473 30.3204C34.4983 30.247 34.4286 30.1898 34.347 30.156C34.2655 30.1223 34.1758 30.1134 34.0892 30.1306C34.0026 30.1479 33.9231 30.1904 33.8607 30.2528C33.7983 30.3152 33.7558 30.3947 33.7386 30.4813C33.7213 30.5679 33.7302 30.6576 33.764 30.7391C33.7977 30.8207 33.8549 30.8904 33.9283 30.9394C34.0017 30.9885 34.088 31.0146 34.1763 31.0146C34.2946 31.0146 34.4081 30.9676 34.4918 30.8839C34.5755 30.8002 34.6225 30.6867 34.6225 30.5684Z" fill="#263238"/>
<path d="M38.6006 25.4053C38.6006 25.3169 38.5743 25.2305 38.5252 25.1571C38.476 25.0836 38.4062 25.0264 38.3245 24.9927C38.2428 24.959 38.1529 24.9503 38.0663 24.9677C37.9797 24.9852 37.9001 25.0279 37.8378 25.0906C37.7755 25.1533 37.7332 25.233 37.7163 25.3198C37.6993 25.4065 37.7085 25.4963 37.7427 25.5778C37.7769 25.6593 37.8345 25.7288 37.9082 25.7776C37.9819 25.8263 38.0684 25.852 38.1568 25.8515C38.2747 25.8509 38.3876 25.8036 38.4708 25.7199C38.5539 25.6363 38.6006 25.5232 38.6006 25.4053Z" fill="#263238"/>
<path d="M126.474 97.6709H127.911V83.8235H126.474V97.6709Z" fill="#263238" stroke="#263238" stroke-width="0.48" stroke-linecap="round" stroke-linejoin="round"/>
<path d="M133.633 84.3091L136.167 84.6055L137.775 70.8518L135.241 70.5554L133.633 84.3091Z" fill="#263238" stroke="#263238" stroke-width="0.48" stroke-linecap="round" stroke-linejoin="round"/>
<path d="M125.369 98.2381V95.9033H129.017V98.2583L143.611 104.115V106.879H142.615V104.779L127.141 101.256L112.076 104.779V106.879H111.108V104.115L125.369 98.2381Z" fill="#8C8C8C" stroke="#263238" stroke-width="0.48" stroke-linecap="round" stroke-linejoin="round"/>
<path d="M123.602 88.2451H130.788V83.8226H123.602V88.2451Z" fill="#263238" stroke="#263238" stroke-width="0.48" stroke-linecap="round" stroke-linejoin="round"/>
<path d="M143.621 106.99C143.621 106.683 143.712 106.384 143.882 106.129C144.052 105.875 144.294 105.676 144.577 105.559C144.86 105.442 145.172 105.411 145.472 105.471C145.773 105.531 146.048 105.679 146.265 105.896C146.481 106.112 146.628 106.389 146.688 106.689C146.747 106.99 146.716 107.301 146.599 107.584C146.481 107.867 146.282 108.108 146.027 108.278C145.773 108.448 145.473 108.538 145.167 108.538C144.964 108.538 144.762 108.498 144.575 108.42C144.387 108.342 144.216 108.228 144.073 108.084C143.929 107.94 143.816 107.77 143.738 107.582C143.66 107.394 143.621 107.193 143.621 106.99Z" fill="#263238" stroke="#263238" stroke-width="0.48" stroke-linecap="round" stroke-linejoin="round"/>
<path d="M144.494 106.99C144.494 106.859 144.533 106.731 144.606 106.622C144.679 106.513 144.782 106.428 144.903 106.378C145.025 106.327 145.158 106.314 145.287 106.34C145.415 106.365 145.533 106.429 145.626 106.521C145.719 106.614 145.782 106.732 145.808 106.861C145.833 106.99 145.82 107.123 145.77 107.244C145.72 107.365 145.635 107.469 145.526 107.542C145.417 107.615 145.288 107.653 145.157 107.653C144.981 107.653 144.813 107.584 144.688 107.459C144.564 107.335 144.494 107.166 144.494 106.99Z" fill="white" stroke="#263238" stroke-width="0.48" stroke-linecap="round" stroke-linejoin="round"/>
<path d="M107.901 106.99C107.901 106.683 107.992 106.384 108.162 106.129C108.332 105.875 108.574 105.676 108.857 105.559C109.139 105.442 109.451 105.411 109.751 105.471C110.051 105.531 110.327 105.678 110.544 105.895C110.76 106.111 110.908 106.387 110.967 106.688C111.027 106.988 110.996 107.299 110.879 107.582C110.762 107.865 110.564 108.107 110.309 108.277C110.055 108.447 109.755 108.538 109.449 108.538C109.038 108.538 108.645 108.375 108.354 108.084C108.064 107.794 107.901 107.4 107.901 106.99Z" fill="#263238" stroke="#263238" stroke-width="0.48" stroke-linecap="round" stroke-linejoin="round"/>
<path d="M109.448 107.653C109.815 107.653 110.111 107.357 110.111 106.99C110.111 106.624 109.815 106.327 109.448 106.327C109.082 106.327 108.785 106.624 108.785 106.99C108.785 107.357 109.082 107.653 109.448 107.653Z" fill="white" stroke="#263238" stroke-width="0.48" stroke-linecap="round" stroke-linejoin="round"/>
<path d="M126.527 106.96H127.742L128.352 98.667H125.919L126.527 106.96Z" fill="#8C8C8C" stroke="#263238" stroke-width="0.48" stroke-linecap="round" stroke-linejoin="round"/>
<path d="M126.585 108.617H127.801V105.191H126.585V108.617Z" fill="#263238" stroke="#263238" stroke-width="0.48" stroke-linecap="round" stroke-linejoin="round"/>
<path d="M136.765 77.4595C137.475 77.528 138.19 77.4561 138.872 77.248C139.553 77.0399 140.187 76.6996 140.736 76.2465C141.286 75.7934 141.741 75.2365 142.076 74.6075C142.41 73.9785 142.617 73.2897 142.686 72.5806L144.38 54.9537C144.518 53.5217 144.081 52.0937 143.166 50.9835C142.251 49.8733 140.933 49.1719 139.501 49.0335C138.069 48.8965 136.641 49.3337 135.531 50.2489C134.421 51.1642 133.719 52.4828 133.581 53.9149L131.884 71.5645C131.753 72.9929 132.193 74.4151 133.108 75.5199C134.022 76.6247 135.338 77.3221 136.765 77.4595Z" fill="#8C8C8C" stroke="#263238" stroke-width="0.48" stroke-linecap="round" stroke-linejoin="round"/>
<path d="M135.479 77.3364C136.911 77.4741 138.339 77.0375 139.45 76.1226C140.56 75.2077 141.261 73.8894 141.4 72.4575L143.097 54.8079C143.23 53.378 142.791 51.9535 141.876 50.8466C140.961 49.7397 139.645 49.0407 138.215 48.9028C137.506 48.8347 136.79 48.9069 136.109 49.1153C135.428 49.3237 134.795 49.6643 134.245 50.1176C133.696 50.5709 133.241 51.1281 132.907 51.7572C132.572 52.3863 132.365 53.0751 132.298 53.7842L130.601 71.4187C130.463 72.8504 130.9 74.2781 131.815 75.3879C132.729 76.4977 134.048 77.1985 135.479 77.3364Z" fill="#8C8C8C" stroke="#263238" stroke-width="0.48" stroke-linecap="round" stroke-linejoin="round"/>
<path d="M111.877 85.2105L137.182 85.8762C137.322 85.8805 137.462 85.8572 137.593 85.8075C137.725 85.7577 137.845 85.6826 137.947 85.5864C138.05 85.4901 138.132 85.3747 138.19 85.2466C138.247 85.1185 138.279 84.9803 138.283 84.8399L138.412 80.7905C138.416 80.6501 138.393 80.5102 138.343 80.3789C138.294 80.2475 138.218 80.1272 138.122 80.0249C138.026 79.9225 137.91 79.8402 137.782 79.7825C137.654 79.7248 137.516 79.6929 137.376 79.6887L112.074 79.0231C111.933 79.0184 111.794 79.0414 111.662 79.0908C111.531 79.1403 111.41 79.2152 111.308 79.3112C111.206 79.4072 111.123 79.5225 111.066 79.6505C111.008 79.7784 110.976 79.9165 110.972 80.0568L110.846 84.1087C110.837 84.3914 110.94 84.6661 111.134 84.8726C111.327 85.0792 111.594 85.2007 111.877 85.2105Z" fill="#8C8C8C" stroke="#263238" stroke-width="0.48" stroke-linecap="round" stroke-linejoin="round"/>
<path d="M122.456 85.4061L137.184 85.8715C137.774 85.8902 138.268 85.4269 138.286 84.8367L138.414 80.7869C138.433 80.1968 137.97 79.7033 137.379 79.6846L122.652 79.2192C122.062 79.2006 121.568 79.6638 121.55 80.254L121.422 84.3038C121.403 84.8939 121.866 85.3875 122.456 85.4061Z" fill="#8C8C8C" stroke="#263238" stroke-width="0.48" stroke-linecap="round" stroke-linejoin="round"/>
<path d="M110.19 102.537L110.067 103.47C110.067 103.47 108.947 105.709 108.511 106.082C108.075 106.456 105.339 107.636 104.842 107.822C104.346 108.009 105.215 108.579 106.398 108.632C107.58 108.684 109.756 108.695 110.503 108.508C111.249 108.321 112.679 107.262 112.991 107.202L113.243 108.009C113.243 108.009 114.613 107.504 115.109 107.389C115.606 107.273 116.415 106.632 116.415 106.632C116.133 105.763 115.801 104.912 115.422 104.08C115.192 103.663 114.898 103.286 114.55 102.961L113.619 101.852L110.19 102.537Z" fill="#263238" stroke="#263238" stroke-width="0.48" stroke-linecap="round" stroke-linejoin="round"/>
<path d="M117.716 67.0059L115.663 68.2489L111.186 69.555C111.186 69.555 97.0053 72.1671 96.1959 73.1076C95.3866 74.0481 95.6917 74.8499 96.3825 76.0324C97.0734 77.2149 109.08 103.407 109.08 103.407L114.057 102.411L105.722 77.3309C105.722 77.3309 121.397 80.5028 124.128 80.0036C126.858 79.5043 130.348 76.5846 130.968 74.3456C131.588 72.1066 128.729 68.5464 128.729 68.5464L117.716 67.0059Z" fill="#A2845E" stroke="#263238" stroke-width="0.48" stroke-linecap="round" stroke-linejoin="round"/>
<path d="M102.196 74.8975C102.196 74.8975 105.33 76.4103 105.893 78.1122" stroke="#263238" stroke-width="0.48" stroke-linecap="round" stroke-linejoin="round"/>
<path d="M133.949 46.2312L127.232 45.6084L117.406 67.8747L123.873 68.9942L133.949 46.2312Z" fill="white" stroke="#263238" stroke-width="0.48" stroke-linecap="round" stroke-linejoin="round"/>
<path d="M127.356 47.6887C127.356 47.6887 117.53 67.5597 117.401 67.8749C117.273 68.19 114.479 68.9943 113.856 69.1179C113.234 69.2414 111.181 69.5541 111.181 69.5541L114.666 67.1916L117.149 60.7847L114.124 59.2391C114.124 59.2391 119.721 50.843 120.964 47.9812C122.207 45.1194 122.696 44.363 123.937 44.3025C125.177 44.242 128.727 44.4891 128.727 44.4891L127.356 47.6887Z" fill="#A2845E" stroke="#263238" stroke-width="0.48" stroke-linecap="round" stroke-linejoin="round"/>
<path d="M125.988 51.8904L126.112 53.3226C126.112 53.3226 119.582 65.0142 119.521 65.2638C119.461 65.5134 120.025 67.2532 120.025 67.2532L122.327 65.5739L126.679 53.5722L127.862 52.8864V50.665L125.988 51.8904Z" fill="#263238" stroke="#263238" stroke-width="0.48" stroke-linecap="round" stroke-linejoin="round"/>
<path d="M128.586 30.3983C128.586 30.3983 126.277 35.9907 125.765 37.6851C125.253 39.3794 124.893 42.1479 125.009 42.4555C125.125 42.7631 125.765 43.8397 126.958 43.8927C128.15 43.9456 129.164 43.9431 129.164 43.9431L127.369 47.6899C127.369 47.6899 127.573 50.6147 127.873 50.6651C128.173 50.7155 132.696 47.2285 132.8 47.0721C132.903 46.9158 135.775 40.7687 135.775 40.7687C135.775 40.7687 138.342 39.4853 138.495 38.3557C138.546 38.0398 138.51 37.7161 138.393 37.4185C138.275 37.1209 138.08 36.8603 137.827 36.6639V35.2771L138.957 31.8909C138.957 31.8909 136.135 30.0453 133.004 29.2737C129.872 28.5022 129.207 29.0216 129.207 29.0216L128.586 30.3983Z" fill="white" stroke="#263238" stroke-width="0.48" stroke-linecap="round" stroke-linejoin="round"/>
<path d="M133.767 27.2698C133.767 27.2698 129.151 26.0369 127.098 27.8346C125.046 29.6324 130.381 32.5143 132.126 32.7664C133.871 33.0186 136.026 32.6631 135.512 33.127C134.998 33.5909 133.871 34.307 134.435 34.7684C134.79 35.0531 135.188 35.2779 135.615 35.4341C135.615 35.4341 133.205 40.7289 132.794 41.3341C132.383 41.9392 131.614 41.8989 131.153 41.7451C130.691 41.5913 128.485 40.207 127.766 39.9498C127.048 39.6927 125.714 38.9236 125.406 39.7456C125.099 40.5676 124.327 44.0546 125.457 44.8237C126.586 45.5927 132.075 43.6437 132.897 43.0789C133.719 42.5141 133.974 41.4879 134.128 41.2836C134.282 41.0794 136.488 37.436 136.692 37.1788C136.896 36.9217 137.822 36.6746 137.822 36.6746C137.822 36.6746 139.67 32.9782 139.824 31.5436C139.977 30.1089 135.154 27.2194 133.767 27.2698Z" fill="#263238" stroke="#263238" stroke-width="0.48" stroke-linecap="round" stroke-linejoin="round"/>
<path d="M128.944 34.3994L128.841 36.6687C128.841 36.6687 126.431 39.3867 126.431 39.6943C126.431 40.0019 129.303 39.6439 129.303 39.6439" stroke="#263238" stroke-width="0.48" stroke-linecap="round" stroke-linejoin="round"/>
<path d="M128.585 33.8877C128.497 33.7158 128.351 33.5803 128.173 33.5052C127.995 33.43 127.796 33.42 127.612 33.4768" stroke="#263238" stroke-width="0.48" stroke-linecap="round" stroke-linejoin="round"/>
<path d="M130.742 35.1682C130.742 35.1682 132.23 35.0144 132.691 36.144" stroke="#263238" stroke-width="0.48" stroke-linecap="round" stroke-linejoin="round"/>
<path d="M126.73 40.8643C126.73 40.8643 128.064 41.6862 128.936 41.6862" stroke="white" stroke-width="0.48" stroke-linecap="round" stroke-linejoin="round"/>
<path d="M131.249 37.3927C131.107 37.6726 130.85 37.8238 130.674 37.7356C130.497 37.6474 130.467 37.3473 130.608 37.07C130.749 36.7926 131.006 36.6388 131.183 36.727C131.359 36.8153 131.39 37.1153 131.249 37.3927Z" fill="#263238"/>
<path d="M128.036 36.1451C127.897 36.4225 127.638 36.5763 127.461 36.4855C127.285 36.3947 127.254 36.0997 127.396 35.8198C127.537 35.54 127.794 35.3887 127.971 35.4795C128.147 35.5702 128.177 35.8652 128.036 36.1451Z" fill="#263238"/>
<path d="M105.776 100.457L105.34 103.069L104.407 103.321C104.407 103.321 103.535 104.373 103.351 104.625C103.167 104.877 100.862 106.551 100.242 106.864C99.6215 107.176 98.0633 107.298 98.1264 107.734C98.1894 108.17 101.485 108.543 103.6 108.604C105.716 108.664 106.896 107.983 106.896 107.983L107.082 108.417L109.258 108.23C109.258 108.23 109.135 106.178 109.198 105.308C109.218 104.601 109.175 103.893 109.072 103.193L108.948 101.39L105.776 100.457Z" fill="#263238" stroke="#263238" stroke-width="0.48" stroke-linecap="round" stroke-linejoin="round"/>
<path d="M123.254 69.9287C123.254 69.9287 105.589 72.1047 105.216 72.5409C104.843 72.9771 105.153 85.8512 105.153 85.8512L103.101 100.919L109.444 102.86C109.444 102.86 111.436 90.1552 112.12 86.7236C112.587 84.1719 112.919 81.5974 113.115 79.0107C113.115 79.0107 122.881 81.2497 126.227 79.3839C129.573 77.5181 128.899 75.216 128.899 75.216" fill="#A2845E"/>
<path d="M123.254 69.9287C123.254 69.9287 105.589 72.1047 105.216 72.5409C104.843 72.9771 105.153 85.8512 105.153 85.8512L103.101 100.919L109.444 102.86C109.444 102.86 111.436 90.1552 112.12 86.7236C112.587 84.1719 112.919 81.5974 113.115 79.0107C113.115 79.0107 122.881 81.2497 126.227 79.3839C129.573 77.5181 128.899 75.216 128.899 75.216" stroke="#263238" stroke-width="0.48" stroke-linecap="round" stroke-linejoin="round"/>
<path d="M105.491 85.3468C105.491 85.3468 106.295 81.7312 106.454 79.7998" stroke="#263238" stroke-width="0.48" stroke-linecap="round" stroke-linejoin="round"/>
<path d="M111.8 76.9303C111.608 76.6739 111.378 76.4493 111.116 76.2646" stroke="#263238" stroke-width="0.48" stroke-linecap="round" stroke-linejoin="round"/>
<path d="M113.116 79.011C113.116 79.011 112.758 78.3101 112.289 77.6016" stroke="#263238" stroke-width="0.48" stroke-linecap="round" stroke-linejoin="round"/>
<path d="M133.702 45.0488C133.702 45.0488 126.672 57.9784 125.18 61.2814C123.687 64.5844 121.688 69.1809 121.688 69.6776C121.688 70.1743 120.381 82.9275 120.818 83.1745C121.254 83.4216 127.782 81.3087 130.83 80.1287C133.878 78.9487 134.002 78.0763 134.252 77.3905C134.501 76.7047 134.438 67.8748 134.438 67.8748C134.438 67.8748 140.782 49.8369 140.719 49.0301C140.656 48.2232 133.702 45.0488 133.702 45.0488Z" fill="#A2845E" stroke="#263238" stroke-width="0.48" stroke-linecap="round" stroke-linejoin="round"/>
<path d="M128.359 58.1309C127.206 59.2604 126.238 60.1026 126.238 60.1026" stroke="#263238" stroke-width="0.48" stroke-linecap="round" stroke-linejoin="round"/>
<path d="M135.942 46.4785C135.942 46.4785 133.02 52.202 131.525 54.5041C130.787 55.559 129.955 56.5448 129.039 57.449" stroke="#263238" stroke-width="0.48" stroke-linecap="round" stroke-linejoin="round"/>
<path d="M126.593 45.2793C126.593 45.2793 123.567 50.3372 122.695 53.3225C121.822 56.3078 121.636 57.861 121.636 57.861" stroke="#263238" stroke-width="0.48" stroke-linecap="round" stroke-linejoin="round"/>
<path d="M124.992 52.5132L127.867 50.665L127.978 55.0018" stroke="#263238" stroke-width="0.48" stroke-linecap="round" stroke-linejoin="round"/>
<path d="M131.124 71.9462L132.084 71.7949" stroke="#263238" stroke-width="0.48" stroke-linecap="round" stroke-linejoin="round"/>
<path d="M131.772 70.6748L124.992 71.4842V72.9138L129.833 72.1498" stroke="#263238" stroke-width="0.48" stroke-linecap="round" stroke-linejoin="round"/>
<path d="M122.319 47.226C122.319 47.226 123.439 44.8635 123.999 44.8004C124.558 44.7374 125.801 44.8004 125.801 45.3047C125.801 45.809 125.118 45.8645 125.118 45.8645H124.185L123.749 46.984L122.319 47.226Z" fill="white" stroke="#263238" stroke-width="0.48" stroke-linecap="round" stroke-linejoin="round"/>
<path d="M120.764 51.704L121.2 49.2784C121.2 49.2784 121.386 47.1655 121.704 47.0395C122.022 46.9134 124.876 46.979 124.876 46.979C124.876 46.979 124.939 49.465 124.689 50.0878C124.44 50.7106 123.32 50.9577 123.32 50.9577C123.217 51.3456 123.072 51.721 122.887 52.0772C122.7 52.3293 122.014 52.6369 122.014 52.6369L121.828 53.1412L120.211 52.0822L120.764 51.704Z" fill="white" stroke="#263238" stroke-width="0.48" stroke-linecap="round" stroke-linejoin="round"/>
<path d="M123.314 50.9604L123.003 49.7779L124.186 49.7148" fill="white"/>
<path d="M123.314 50.9604L123.003 49.7779L124.186 49.7148" stroke="#263238" stroke-width="0.48" stroke-linecap="round" stroke-linejoin="round"/>
<path d="M120.143 51.5195L122.694 53.3223L121.698 54.3788L119.522 52.3894L120.143 51.5195Z" fill="white" stroke="#263238" stroke-width="0.48" stroke-linecap="round" stroke-linejoin="round"/>
<path d="M119.523 52.3896L122.445 54.5656L116.848 63.0878C116.186 63.2285 115.498 63.1849 114.859 62.9618C113.8 62.5886 112.806 60.4757 112.806 60.2261C112.806 59.9765 119.523 52.3896 119.523 52.3896Z" fill="#A2845E" stroke="#263238" stroke-width="0.48" stroke-linecap="round" stroke-linejoin="round"/>
<path d="M117.282 62.2782C117.282 62.2782 116.349 60.5359 116.286 60.0392C116.223 59.5425 116.163 58.5465 115.85 58.1734C115.537 57.8002 115.167 57.5506 115.043 56.9909C114.92 56.4311 114.357 56.6807 114.287 57.243C114.216 57.8053 114.721 58.3625 114.721 58.3625C114.721 58.3625 113.167 57.8582 112.918 57.9893C112.668 58.1204 112.161 58.2995 112.295 58.7457C112.378 59.0195 112.483 59.286 112.61 59.5425C112.61 59.5425 111.617 60.8486 111.617 61.4688C111.617 62.0891 112.3 63.0875 112.799 63.4607C113.298 63.8339 115.038 64.2171 115.038 64.2171L117.282 62.2782Z" fill="white" stroke="#263238" stroke-width="0.48" stroke-linecap="round" stroke-linejoin="round"/>
<path d="M135.227 49.4795L129.597 61.1585L115.85 61.9149C115.503 61.9989 115.187 62.1768 114.934 62.4289C114.682 62.6811 114.504 62.9979 114.42 63.3445C114.276 63.9135 114.213 64.5001 114.234 65.0868C114.234 65.0868 123.376 66.2063 126.238 66.3929C129.1 66.5795 132.582 66.9526 133.018 66.5164C133.454 66.0802 138.616 55.3846 138.616 55.3846" fill="#A2845E"/>
<path d="M135.227 49.4795L129.597 61.1585L115.85 61.9149C115.503 61.9989 115.187 62.1768 114.934 62.4289C114.682 62.6811 114.504 62.9979 114.42 63.3445C114.276 63.9135 114.213 64.5001 114.234 65.0868C114.234 65.0868 123.376 66.2063 126.238 66.3929C129.1 66.5795 132.582 66.9526 133.018 66.5164C133.454 66.0802 138.616 55.3846 138.616 55.3846" stroke="#263238" stroke-width="0.48" stroke-linecap="round" stroke-linejoin="round"/>
<path d="M52.9455 83.8252H51.5083V97.6726H52.9455V83.8252Z" fill="#263238" stroke="#263238" stroke-width="0.48" stroke-linecap="round" stroke-linejoin="round"/>
<path d="M44.1872 70.5581L41.6528 70.8545L43.2612 84.6082L45.7956 84.3118L44.1872 70.5581Z" fill="#263238" stroke="#263238" stroke-width="0.48" stroke-linecap="round" stroke-linejoin="round"/>
<path d="M54.0517 98.2371V95.9023H50.4033V98.2573L35.8096 104.114V106.878H36.8055V104.778L52.2792 101.255L67.3444 104.778V106.878H68.3126V104.114L54.0517 98.2371Z" fill="#8C8C8C" stroke="#263238" stroke-width="0.48" stroke-linecap="round" stroke-linejoin="round"/>
<path d="M55.8207 83.8252H48.6348V88.2477H55.8207V83.8252Z" fill="#263238" stroke="#263238" stroke-width="0.48" stroke-linecap="round" stroke-linejoin="round"/>
<path d="M35.8091 106.989C35.8091 106.682 35.7183 106.383 35.5482 106.128C35.3781 105.874 35.1363 105.675 34.8535 105.558C34.5706 105.441 34.2593 105.41 33.959 105.47C33.6587 105.53 33.3828 105.677 33.1663 105.894C32.9498 106.11 32.8024 106.386 32.7426 106.687C32.6829 106.987 32.7136 107.298 32.8307 107.581C32.9479 107.864 33.1463 108.106 33.4009 108.276C33.6555 108.446 33.9548 108.537 34.261 108.537C34.6716 108.537 35.0654 108.374 35.3557 108.083C35.646 107.793 35.8091 107.399 35.8091 106.989Z" fill="#263238" stroke="#263238" stroke-width="0.48" stroke-linecap="round" stroke-linejoin="round"/>
<path d="M34.9263 106.99C34.9263 106.859 34.8875 106.731 34.8146 106.622C34.7417 106.513 34.6382 106.428 34.517 106.378C34.3958 106.327 34.2625 106.314 34.1339 106.34C34.0052 106.365 33.8871 106.429 33.7943 106.521C33.7016 106.614 33.6384 106.732 33.6128 106.861C33.5873 106.99 33.6004 107.123 33.6506 107.244C33.7008 107.365 33.7858 107.469 33.8948 107.542C34.0039 107.615 34.1321 107.653 34.2632 107.653C34.4391 107.653 34.6078 107.584 34.7321 107.459C34.8565 107.335 34.9263 107.166 34.9263 106.99Z" fill="white" stroke="#263238" stroke-width="0.48" stroke-linecap="round" stroke-linejoin="round"/>
<path d="M71.5093 106.989C71.5093 106.682 71.4185 106.383 71.2484 106.128C71.0783 105.874 70.8365 105.675 70.5537 105.558C70.2708 105.441 69.9595 105.41 69.6592 105.47C69.3589 105.53 69.083 105.677 68.8665 105.894C68.65 106.11 68.5026 106.386 68.4428 106.687C68.3831 106.987 68.4138 107.298 68.5309 107.581C68.6481 107.864 68.8465 108.106 69.1011 108.276C69.3557 108.446 69.655 108.537 69.9612 108.537C70.3718 108.537 70.7656 108.374 71.0559 108.083C71.3462 107.793 71.5093 107.399 71.5093 106.989Z" fill="#263238" stroke="#263238" stroke-width="0.48" stroke-linecap="round" stroke-linejoin="round"/>
<path d="M69.9722 107.653C70.3384 107.653 70.6353 107.357 70.6353 106.99C70.6353 106.624 70.3384 106.327 69.9722 106.327C69.606 106.327 69.3091 106.624 69.3091 106.99C69.3091 107.357 69.606 107.653 69.9722 107.653Z" fill="white" stroke="#263238" stroke-width="0.48" stroke-linecap="round" stroke-linejoin="round"/>
<path d="M52.8874 106.959H51.6721L51.0645 98.666H53.4976L52.8874 106.959Z" fill="#8C8C8C" stroke="#263238" stroke-width="0.48" stroke-linecap="round" stroke-linejoin="round"/>
<path d="M52.834 105.19H51.6187V108.617H52.834V105.19Z" fill="#263238" stroke="#263238" stroke-width="0.48" stroke-linecap="round" stroke-linejoin="round"/>
<path d="M42.6554 77.4587C41.9463 77.5272 41.2306 77.4554 40.5493 77.2473C39.868 77.0391 39.2343 76.6988 38.6846 76.2457C38.1348 75.7927 37.6797 75.2357 37.3452 74.6067C37.0107 73.9777 36.8034 73.289 36.7352 72.5799L35.0383 54.9302C34.9698 54.2211 35.0417 53.5055 35.2498 52.8241C35.4579 52.1428 35.7982 51.5092 36.2513 50.9594C36.7044 50.4096 37.2613 49.9545 37.8903 49.62C38.5193 49.2855 39.2081 49.0783 39.9172 49.01C41.3494 48.873 42.7774 49.3102 43.8875 50.2255C44.9976 51.1408 45.6989 52.4593 45.8374 53.8914L47.5343 71.541C47.6719 72.9727 47.2353 74.4005 46.3203 75.5103C45.4054 76.62 44.0871 77.3209 42.6554 77.4587Z" fill="#8C8C8C" stroke="#263238" stroke-width="0.48" stroke-linecap="round" stroke-linejoin="round"/>
<path d="M43.9419 77.3354C42.5099 77.4731 41.0819 77.0365 39.9717 76.1216C38.8615 75.2068 38.1601 73.8885 38.0217 72.4566L36.3248 54.8069C36.1913 53.3774 36.6299 51.9533 37.5443 50.8465C38.4588 49.7397 39.7746 49.0404 41.2036 48.9019C42.636 48.7642 44.0644 49.2011 45.1746 50.1165C46.2849 51.032 46.986 52.3509 47.1238 53.7832L48.8182 71.4152C48.9559 72.8468 48.5197 74.2745 47.6053 75.3846C46.691 76.4947 45.3733 77.1963 43.9419 77.3354Z" fill="#8C8C8C" stroke="#263238" stroke-width="0.48" stroke-linecap="round" stroke-linejoin="round"/>
<path d="M68.418 85.2095L42.2385 85.8752C42.0981 85.8796 41.9582 85.8562 41.8268 85.8065C41.6955 85.7568 41.5752 85.6816 41.4728 85.5854C41.3705 85.4892 41.2881 85.3737 41.2305 85.2456C41.1728 85.1175 41.1409 84.9793 41.1367 84.8389L41.0005 80.7896C40.9917 80.5064 41.0956 80.2313 41.2894 80.0248C41.4832 79.8182 41.7512 79.6969 42.0343 79.6877L68.2314 79.0221C68.3717 79.0174 68.5115 79.0404 68.6429 79.0899C68.7742 79.1393 68.8945 79.2142 68.9969 79.3102C69.0993 79.4063 69.1817 79.5216 69.2394 79.6495C69.2971 79.7775 69.329 79.9156 69.3332 80.0559L69.4618 84.1077C69.4662 84.2487 69.4426 84.3892 69.3924 84.5211C69.3422 84.653 69.2664 84.7736 69.1693 84.876C69.0723 84.9784 68.956 85.0606 68.827 85.1179C68.698 85.1751 68.559 85.2063 68.418 85.2095Z" fill="#8C8C8C" stroke="#263238" stroke-width="0.48" stroke-linecap="round" stroke-linejoin="round"/>
<path d="M56.7736 79.2215L42.0461 79.6869C41.4559 79.7056 40.9927 80.1991 41.0113 80.7892L41.1393 84.8391C41.1579 85.4292 41.6514 85.8925 42.2416 85.8738L56.9691 85.4084C57.5593 85.3898 58.0226 84.8963 58.0039 84.3061L57.8759 80.2563C57.8573 79.6662 57.3638 79.2029 56.7736 79.2215Z" fill="#8C8C8C" stroke="#263238" stroke-width="0.48" stroke-linecap="round" stroke-linejoin="round"/>
<path d="M71.7614 76.9629C71.7614 76.9629 71.9858 81.2896 72.5808 85.1649C73.1759 89.0403 74.1617 100.797 74.1617 100.797C74.4718 101.978 74.8939 103.126 75.4224 104.227C75.7752 104.957 76.2265 105.636 76.7638 106.244C76.7638 106.244 78.7027 108.183 78.6271 108.48C78.5514 108.778 77.3361 108.747 76.1435 108.523C74.9509 108.299 74.7063 108.019 74.0356 107.567C73.365 107.116 71.8395 106.539 71.1688 106.307C70.4982 106.075 70.2763 105.49 70.5007 104.819C70.7251 104.148 71.4714 102.583 71.4714 101.614C71.4714 100.646 70.8738 96.0522 69.24 92.9938C67.6061 89.9354 66.6304 84.643 66.6304 84.643L71.7614 76.9629Z" fill="white" stroke="#263238" stroke-width="0.48" stroke-linecap="round" stroke-linejoin="round"/>
<path d="M72.1563 105.042C71.6823 104.674 71.2385 104.286 70.8603 103.92C70.7191 104.28 70.588 104.598 70.5149 104.818C70.2905 105.488 70.5149 106.078 71.1831 106.305C71.8512 106.532 73.3792 107.112 74.0499 107.566C74.7205 108.02 74.9651 108.297 76.1577 108.521C77.3503 108.746 78.5682 108.774 78.6413 108.479C78.7144 108.184 76.778 106.242 76.778 106.242L75.8098 106.691C75.8098 106.691 73.4977 106.086 72.1563 105.042Z" fill="#A2845E" stroke="#263238" stroke-width="0.48" stroke-linecap="round" stroke-linejoin="round"/>
<path d="M43.1607 68.0765C43.1607 68.0765 42.4901 70.7037 42.8557 72.3628C43.2213 74.0219 45.7275 77.8594 50.0643 78.7772C54.401 79.695 65.3009 79.3949 65.3009 79.3949C65.3009 79.3949 62.6737 83.3863 61.6954 88.192C61.0499 91.374 59.0706 95.8267 58.7655 96.4999C58.4604 97.1731 54.8549 98.3935 54.9835 98.9432C55.1121 99.4928 55.5331 102.912 56.4484 104.319C57.3636 105.726 58.8916 106.336 59.5018 106.517C60.1119 106.699 60.2355 106.699 60.2355 106.089C60.2355 105.479 59.8069 104.624 59.8069 104.072C59.8069 103.519 59.7463 99.7853 59.9909 99.3062C60.2355 98.8272 68.2333 86.2178 69.4536 84.1502C70.674 82.0827 72.5701 78.0409 73.1197 77.3703C73.6694 76.6996 74.3401 75.7818 73.7904 74.622C73.2407 73.4621 60.6213 69.5792 60.6213 69.5792L59.9581 67.2318L53.6547 66.8662L43.1607 68.0765Z" fill="white" stroke="#263238" stroke-width="0.48" stroke-linecap="round" stroke-linejoin="round"/>
<path d="M60.6199 69.5763L59.9567 67.2289L53.6533 66.8633L43.1467 68.0836C43.1467 68.0836 42.4609 70.7134 42.8417 72.37C43.4468 74.9897 45.7135 77.8666 50.0503 78.7843C54.387 79.7021 65.2869 79.4021 65.2869 79.4021C65.2869 79.4021 66.3207 74.2358 68.3403 72.2212C65.9148 71.3942 60.6199 69.5763 60.6199 69.5763Z" fill="#263238" stroke="#263238" stroke-width="0.48" stroke-linecap="round" stroke-linejoin="round"/>
<path d="M65.2993 79.3853C66.754 79.0001 68.1656 78.4679 69.5125 77.7969L65.2993 79.3853Z" fill="white"/>
<path d="M65.2993 79.3853C66.754 79.0001 68.1656 78.4679 69.5125 77.7969" stroke="#263238" stroke-width="0.48" stroke-linecap="round" stroke-linejoin="round"/>
<path d="M57.0534 101.866C56.6198 100.857 56.6475 98.8399 56.703 97.7607C55.7801 98.2171 54.9153 98.6584 54.9783 98.9332C55.0994 99.4828 55.528 102.902 56.4433 104.309C57.3585 105.716 58.8865 106.326 59.4967 106.507C60.1068 106.689 60.2304 106.689 60.2304 106.079C60.2304 105.469 59.8043 104.616 59.8017 104.062C59.163 103.98 58.5304 103.857 57.9082 103.691C57.9082 103.691 57.6636 103.27 57.0534 101.866Z" fill="#A2845E" stroke="#263238" stroke-width="0.48" stroke-linecap="round" stroke-linejoin="round"/>
<path d="M56.168 43.8896L54.2744 44.6839C54.2744 44.6839 55.8024 58.9876 55.7419 61.0047C55.6813 63.0219 55.5578 67.0561 55.5578 67.0561C55.5578 67.0561 58.1851 67.8503 59.9551 67.2401L59.8341 60.3391C59.8341 60.3391 61.1174 53.7407 60.6283 51.6025C60.1391 49.4644 58.6112 45.6773 58.6112 45.6773C58.6112 45.6773 57.8926 43.9502 56.168 43.8896Z" fill="white" stroke="#263238" stroke-width="0.48" stroke-linecap="round" stroke-linejoin="round"/>
<path d="M55.6266 50.0596L57.4622 47.2634L59.7188 50.5412C59.7188 50.5412 58.743 45.9598 58.6195 45.6548C58.3269 45.0798 57.8843 44.5945 57.3386 44.2503C56.6049 43.7612 55.7476 43.7461 55.261 43.7007C54.7744 43.6553 54.2827 44.679 54.2827 44.679L55.6266 50.0596Z" fill="white" stroke="#263238" stroke-width="0.48" stroke-linecap="round" stroke-linejoin="round"/>
<path d="M54.7683 43.665C54.7683 43.665 48.6288 45.0089 48.1018 45.3922C47.5748 45.7754 47.3454 47.0235 47.4765 47.5026C47.6076 47.9816 49.012 58.3445 49.012 58.3445L41.9521 68.6569C41.9521 68.6569 44.2567 70.5757 46.415 70.9589C48.5733 71.3422 53.1773 70.7673 54.8086 70.0966L56.44 69.4259C56.44 69.4259 57.1964 56.9048 56.3921 51.9629C55.5877 47.021 54.7683 43.665 54.7683 43.665Z" fill="#A2845E" stroke="#263238" stroke-width="0.48" stroke-linecap="round" stroke-linejoin="round"/>
<path d="M73.6206 59.589L76.0184 58.535C76.0184 58.535 76.7395 56.9516 76.8354 56.8079C76.9312 56.6642 77.7456 56.4246 78.1288 56.0868C78.5121 55.7489 79.0416 55.1765 79.1853 55.1286C79.329 55.0807 79.5685 55.5119 79.1853 56.0868C78.8948 56.4942 78.5562 56.865 78.1767 57.1911L80.5292 56.3288C80.5292 56.3288 81.4394 54.7933 81.6789 55.464C81.9184 56.1347 80.6704 58.1997 80.3855 58.8704C80.1005 59.541 79.8081 59.8789 79.2811 59.9747C78.7541 60.0705 77.1228 60.358 76.7875 60.4059C76.4521 60.4538 74.3871 61.6514 74.3871 61.6514L73.6206 59.589Z" fill="white" stroke="#263238" stroke-width="0.48" stroke-linecap="round" stroke-linejoin="round"/>
<path d="M76.9463 59.1114C77.3724 58.7508 77.8641 58.3928 78.1263 58.3928C78.6558 58.3928 79.8055 58.4886 79.8055 58.4886C79.8055 58.4886 80.4787 56.9531 80.8141 56.7236C81.1494 56.4942 81.4369 56.8194 81.1494 57.2985" fill="white"/>
<path d="M76.9463 59.1114C77.3724 58.7508 77.8641 58.3928 78.1263 58.3928C78.6558 58.3928 79.8055 58.4886 79.8055 58.4886C79.8055 58.4886 80.4787 56.9531 80.8141 56.7236C81.1494 56.4942 81.4369 56.8194 81.1494 57.2985" stroke="#263238" stroke-width="0.48" stroke-linecap="round" stroke-linejoin="round"/>
<path d="M57.9814 44.8164C57.9814 44.8164 59.517 51.4829 59.4691 53.9766C59.4211 56.4702 58.6496 57.7258 58.7958 58.5831C58.9421 59.4404 59.2749 69.5208 59.2749 69.5208L60.6188 69.5688C60.6188 69.5688 60.2835 65.7312 60.3314 65.0101C60.3793 64.289 60.8583 61.4121 60.8583 61.4121C60.8583 61.4121 63.2587 66.1624 63.594 66.4019C63.9294 66.6414 75.0587 61.8937 75.0587 61.8937L74.2418 59.158L65.7523 60.8851C65.7523 60.8851 64.0731 55.3205 63.8336 54.1203C63.594 52.9201 63.4024 48.7018 62.7292 47.6454C62.056 46.5889 57.9814 44.8164 57.9814 44.8164Z" fill="#A2845E" stroke="#263238" stroke-width="0.48" stroke-linecap="round" stroke-linejoin="round"/>
<path d="M60.8608 61.4137C60.8608 61.4137 61.1483 60.2161 61.6299 57.0492C61.9192 55.1585 61.9354 53.2361 61.6778 51.3408" stroke="#263238" stroke-width="0.48" stroke-linecap="round" stroke-linejoin="round"/>
<path d="M60.3341 48.5518C60.5635 50.2789 60.735 52.412 60.4274 53.5945C60.0763 54.9368 59.6272 56.2514 59.0835 57.5279" stroke="#263238" stroke-width="0.48" stroke-linecap="round" stroke-linejoin="round"/>
<path d="M59.9111 45.876C59.9111 45.876 60.0549 46.5996 60.2137 47.6409" stroke="#263238" stroke-width="0.48" stroke-linecap="round" stroke-linejoin="round"/>
<path d="M55.3228 55.2061C55.9455 56.7491 56.4952 58.2544 56.4952 58.2544" stroke="#263238" stroke-width="0.48" stroke-linecap="round" stroke-linejoin="round"/>
<path d="M52.418 44.4316C52.418 44.4316 53.5198 51.1965 54.3846 53.0194C54.5611 53.3901 54.7528 53.8288 54.9469 54.2801" stroke="#263238" stroke-width="0.48" stroke-linecap="round" stroke-linejoin="round"/>
<path d="M66.0396 58.1517L67.9104 57.6222C67.9104 57.6222 69.1106 56.0867 69.398 55.7035C69.6855 55.3202 70.3561 55.3202 70.8377 55.0328C71.3193 54.7453 71.9396 53.6889 72.1791 53.8805C72.4186 54.0721 72.1791 54.937 71.927 55.1765C71.6057 55.4363 71.2689 55.6763 70.9184 55.8951C70.7268 56.0388 73.1725 55.4639 73.1725 55.4639C73.1725 55.4639 74.7559 54.0721 74.8518 54.4554C74.9476 54.8386 74.1306 56.1825 74.1306 56.1825C74.1306 56.1825 72.9809 57.2844 72.4035 57.7634C71.8261 58.2425 70.4368 58.4366 70.0536 58.5198C69.6703 58.603 68.9996 58.7115 68.9996 58.7115L66.1202 59.7654L66.0396 58.1517Z" fill="white" stroke="#263238" stroke-width="0.48" stroke-linecap="round" stroke-linejoin="round"/>
<path d="M73.7631 56.4658C73.7631 56.4658 72.7545 56.9449 72.2275 57.1844L73.7631 56.4658Z" fill="white"/>
<path d="M73.7631 56.4658C73.7631 56.4658 72.7545 56.9449 72.2275 57.1844" stroke="#263238" stroke-width="0.48" stroke-linecap="round" stroke-linejoin="round"/>
<path d="M70.9337 55.8965L70.0688 56.0881" stroke="#263238" stroke-width="0.48" stroke-linecap="round" stroke-linejoin="round"/>
<path d="M49.1556 45.0088C49.1556 45.0088 46.3266 45.9669 45.8929 46.688C45.4592 47.4091 46.9973 53.3066 48.1495 56.5693C49.3018 59.832 52.3703 65.2983 52.7536 65.4899C53.1368 65.6816 63.1643 62.134 65.4588 61.4129C67.7532 60.6917 68.144 60.311 68.144 60.311L67.1355 57.719L55.6254 59.7815L52.0955 48.7026" fill="#A2845E"/>
<path d="M49.1556 45.0088C49.1556 45.0088 46.3266 45.9669 45.8929 46.688C45.4592 47.4091 46.9973 53.3066 48.1495 56.5693C49.3018 59.832 52.3703 65.2983 52.7536 65.4899C53.1368 65.6816 63.1643 62.134 65.4588 61.4129C67.7532 60.6917 68.144 60.311 68.144 60.311L67.1355 57.719L55.6254 59.7815L52.0955 48.7026" stroke="#263238" stroke-width="0.48" stroke-linecap="round" stroke-linejoin="round"/>
<path d="M63.0546 30.4004C63.0546 30.4004 64.1741 31.1568 63.6067 31.9712C63.0394 32.7856 61.8418 32.8411 61.8418 32.8411L60.7954 31.1921C60.7954 31.1921 62.041 29.7145 63.0546 30.4004Z" fill="#263238" stroke="#263238" stroke-width="0.48" stroke-linecap="round" stroke-linejoin="round"/>
<path d="M61.8811 31.383C61.8811 31.383 63.5981 35.4575 63.5023 35.808C63.4065 36.1585 62.6072 36.7056 62.9703 37.2376C63.3334 37.7696 64.3974 38.8336 64.3697 38.9824C64.3419 39.1312 63.0409 39.8901 63.0409 39.8901C63.0409 39.8901 62.1307 43.1679 61.76 43.6469C61.3894 44.126 58.2604 43.5436 58.2604 43.5436L57.5998 47.2147L53.8833 43.7503L52.494 42.4392C52.494 42.4392 51.2484 36.8468 53.8908 33.4858C56.5332 30.1248 61.8811 31.383 61.8811 31.383Z" fill="white" stroke="#263238" stroke-width="0.48" stroke-linecap="round" stroke-linejoin="round"/>
<path d="M61.6421 37.1245C61.6421 37.4674 61.5009 37.7448 61.3421 37.7422C61.1832 37.7397 61.0597 37.4573 61.0672 37.1119C61.0748 36.7665 61.2059 36.4916 61.3647 36.4942C61.5236 36.4967 61.6471 36.7791 61.6421 37.1245Z" fill="#263238"/>
<path d="M61.6499 40.7095C61.3529 40.6955 61.0618 40.6212 60.7944 40.4912C60.5269 40.3611 60.2887 40.1781 60.0942 39.9531C60.0942 39.9531 60.0009 41.4281 60.4598 41.5139C60.9187 41.5996 61.6499 40.7095 61.6499 40.7095Z" fill="#263238" stroke="#263238" stroke-width="0.48" stroke-linecap="round" stroke-linejoin="round"/>
<path d="M60.6855 35.7574C60.6855 35.7574 61.6411 34.9481 62.4959 35.8961" stroke="#263238" stroke-width="0.48" stroke-linecap="round" stroke-linejoin="round"/>
<path d="M58.2606 43.5435L56.71 43.1729L57.8774 45.3387L58.2606 43.5435Z" fill="#263238" stroke="#263238" stroke-width="0.48" stroke-linecap="round" stroke-linejoin="round"/>
<path d="M61.8799 31.3821C61.8799 31.3821 61.5421 32.4436 59.8906 33.8304C58.2391 35.2171 56.7615 36.0996 56.7666 36.4829C56.7716 36.8661 57.0187 37.2242 56.6859 37.3175C56.4146 37.3521 56.1391 37.3056 55.8942 37.1838C55.8942 37.1838 55.0924 39.4707 54.9713 41.0844C54.9222 42.1494 55.0841 43.2137 55.4479 44.2159C55.4479 44.2159 51.8902 44.4076 49.8378 42.8494C47.7854 41.2911 47.208 39.5262 47.435 37.9957C47.6619 36.4652 48.3124 31.6318 51.4692 29.2642C54.6259 26.8966 59.1493 26.9949 60.6848 27.9606C62.2203 28.9263 63.3322 29.6348 63.0498 30.3988C62.7674 31.1628 61.8799 31.3821 61.8799 31.3821Z" fill="#263238" stroke="#263238" stroke-width="0.48" stroke-linecap="round" stroke-linejoin="round"/>
<path d="M54.4226 79.5389C54.3284 79.5394 54.2353 79.5187 54.1503 79.4784C53.9703 79.3802 53.8324 79.2197 53.7623 79.0271C53.6922 78.8345 53.6948 78.6229 53.7695 78.432C54.9092 75.3206 56.2153 69.7711 54.8764 68.1146C54.5638 67.8624 52.6803 67.3581 42.5343 68.407L41.7955 68.4827C41.087 68.5432 40.4819 69.5669 40.3256 69.9199C40.2922 70.01 40.24 70.0919 40.1724 70.1602C40.1047 70.2284 40.0233 70.2814 39.9335 70.3156C39.8437 70.3497 39.7476 70.3642 39.6517 70.3582C39.5558 70.3521 39.4623 70.3256 39.3775 70.2804C39.204 70.1692 39.0763 69.9991 39.018 69.8013C38.9596 69.6036 38.9745 69.3914 39.0598 69.2038C39.1582 68.9819 40.0684 67.0253 41.6871 66.8841L42.4057 66.811C53.2174 65.6865 55.2899 66.2538 55.9203 67.0304C58.3004 69.9753 55.416 78.1244 55.0756 79.0447C55.0313 79.1846 54.9447 79.3072 54.8277 79.3957C54.7108 79.4842 54.5692 79.5343 54.4226 79.5389Z" fill="white" stroke="#263238" stroke-width="0.48" stroke-linecap="round" stroke-linejoin="round"/>
<path d="M98.9986 55.8457H82.4306L78.5981 68.8283H95.1661L98.9986 55.8457Z" fill="#D9D9D9" stroke="#263238" stroke-width="0.48" stroke-linecap="round" stroke-linejoin="round"/>
<path d="M66.4769 68.1162L66.2676 68.8272H95.1651L95.3769 68.1162H66.4769Z" fill="#D9D9D9" stroke="#263238" stroke-width="0.48" stroke-linecap="round" stroke-linejoin="round"/>
<path d="M78.8387 68.1162L78.6294 68.8272H95.1671L95.3789 68.1162H78.8387Z" fill="#263238" stroke="#263238" stroke-width="0.48" stroke-linecap="round" stroke-linejoin="round"/>
<path d="M94.9297 70.7773H92.126V108.265H94.9297V70.7773Z" fill="white" stroke="#263238" stroke-width="0.48" stroke-linecap="round" stroke-linejoin="round"/>
<path d="M94.9297 70.7773H92.126V76.9698H94.9297V70.7773Z" fill="#263238" stroke="#263238" stroke-width="0.48" stroke-linecap="round" stroke-linejoin="round"/>
<path d="M128.992 68.8359H57.8135V70.9186H128.992V68.8359Z" fill="white" stroke="#263238" stroke-width="0.48" stroke-linecap="round" stroke-linejoin="round"/>
<path d="M108.157 108.571H78.6572C81.5757 107.198 84.7612 106.487 87.9863 106.488H98.861C102.086 106.487 105.272 107.198 108.19 108.571H108.157Z" fill="white" stroke="#263238" stroke-width="0.48" stroke-linecap="round" stroke-linejoin="round"/>
</svg>
