<svg width="40" height="40" viewBox="0 0 40 40" fill="none" xmlns="http://www.w3.org/2000/svg">
<rect width="40" height="40" rx="20" fill="#FFEACF"/>
<path d="M31.8408 18.1168L29.4483 13.3299C29.3602 13.1538 29.2382 12.9967 29.0894 12.8676C28.9405 12.7386 28.7677 12.6401 28.5808 12.5779C28.3939 12.5156 28.1965 12.4908 28 12.5048C27.8035 12.5189 27.6117 12.5715 27.4355 12.6596L25.104 13.8249L20.1924 12.5256C20.0664 12.4928 19.934 12.4928 19.808 12.5256L14.8965 13.8249L12.5649 12.6596C12.3887 12.5715 12.1969 12.5189 12.0004 12.5048C11.8039 12.4908 11.6066 12.5156 11.4196 12.5779C11.2327 12.6401 11.0599 12.7386 10.9111 12.8676C10.7622 12.9967 10.6402 13.1538 10.5521 13.3299L8.15958 18.1159C8.07141 18.2921 8.01881 18.4839 8.00478 18.6804C7.99076 18.8769 8.01557 19.0742 8.07782 19.2611C8.14006 19.448 8.23852 19.6209 8.36756 19.7697C8.4966 19.9186 8.6537 20.0406 8.82989 20.1287L11.3611 21.3953L16.5633 25.1106C16.64 25.1651 16.7261 25.2049 16.8174 25.2278L22.8174 26.7278C22.943 26.7593 23.0747 26.7577 23.1996 26.7232C23.3244 26.6887 23.4382 26.6224 23.5299 26.5309L27.2799 22.7809L28.6936 21.3671L31.1705 20.1287C31.5261 19.9507 31.7964 19.6388 31.9221 19.2615C32.0478 18.8843 32.0186 18.4725 31.8408 18.1168ZM26.6949 21.2453L23.469 18.6615C23.3244 18.5458 23.1422 18.4876 22.9574 18.4981C22.7725 18.5087 22.5981 18.5873 22.4677 18.7187C20.798 20.4006 18.9371 20.1878 17.7502 19.4378L21.804 15.5003H24.7861L27.3371 20.6012L26.6949 21.2453ZM22.7696 25.1696L17.3208 23.8074L12.7083 20.5131L15.3333 15.2631L20.0002 14.0265L20.919 14.2693L16.7002 18.3643L16.6927 18.3728C16.5339 18.5316 16.4128 18.724 16.3383 18.9359C16.2638 19.1478 16.2378 19.3736 16.2623 19.5969C16.2868 19.8201 16.3611 20.035 16.4797 20.2257C16.5983 20.4164 16.7583 20.5781 16.9477 20.6987C18.8752 21.9296 21.2011 21.7299 23.033 20.2299L25.6252 22.3121L22.7696 25.1696ZM20.3583 28.4321C20.3178 28.5942 20.2243 28.7382 20.0927 28.8411C19.9611 28.944 19.7989 29 19.6318 29.0003C19.5701 29.0002 19.5088 28.9926 19.449 28.9778L15.5386 27.9999C15.4473 27.9774 15.361 27.9376 15.2846 27.8828L12.8143 26.1184C12.6624 25.9991 12.5623 25.8259 12.535 25.6347C12.5076 25.4435 12.5551 25.2492 12.6674 25.0921C12.7798 24.9351 12.9484 24.8274 13.1382 24.7915C13.3279 24.7557 13.5242 24.7944 13.6861 24.8996L16.0402 26.5815L19.8127 27.5228C20.0056 27.571 20.1715 27.6939 20.2738 27.8645C20.3761 28.035 20.4065 28.2392 20.3583 28.4321Z" fill="#A2845E"/>
</svg>
