<svg width="40" height="40" viewBox="0 0 40 40" fill="none" xmlns="http://www.w3.org/2000/svg">
<path d="M0 20C0 8.95431 8.95431 0 20 0C31.0457 0 40 8.95431 40 20C40 31.0457 31.0457 40 20 40C8.95431 40 0 31.0457 0 20Z" fill="#E5FFEE"/>
<path d="M20 0.200195C30.9352 0.200195 39.7998 9.06476 39.7998 20C39.7998 30.9352 30.9352 39.7998 20 39.7998C9.06476 39.7998 0.200195 30.9352 0.200195 20C0.200195 9.06476 9.06476 0.200195 20 0.200195Z" stroke="#0F913D" stroke-opacity="0.19" stroke-width="0.4"/>
<path d="M25.25 16.3972V15.875C25.25 13.5238 21.7034 11.75 17 11.75C12.2966 11.75 8.75 13.5238 8.75 15.875V19.625C8.75 21.5834 11.2109 23.1397 14.75 23.6056V24.125C14.75 26.4762 18.2966 28.25 23 28.25C27.7034 28.25 31.25 26.4762 31.25 24.125V20.375C31.25 18.4344 28.8669 16.8762 25.25 16.3972ZM29.75 20.375C29.75 21.6144 26.8634 23 23 23C22.6503 23 22.3034 22.9878 21.9613 22.9653C23.9834 22.2284 25.25 21.0312 25.25 19.625V17.9131C28.0503 18.3303 29.75 19.4628 29.75 20.375ZM14.75 22.0859V19.8556C15.496 19.9528 16.2477 20.0011 17 20C17.7523 20.0011 18.504 19.9528 19.25 19.8556V22.0859C18.5051 22.196 17.753 22.2508 17 22.25C16.247 22.2508 15.4949 22.196 14.75 22.0859ZM23.75 18.3059V19.625C23.75 20.4116 22.5866 21.2562 20.75 21.7691V19.5781C21.9603 19.2847 22.985 18.8478 23.75 18.3059ZM17 13.25C20.8634 13.25 23.75 14.6356 23.75 15.875C23.75 17.1144 20.8634 18.5 17 18.5C13.1366 18.5 10.25 17.1144 10.25 15.875C10.25 14.6356 13.1366 13.25 17 13.25ZM10.25 19.625V18.3059C11.015 18.8478 12.0397 19.2847 13.25 19.5781V21.7691C11.4134 21.2562 10.25 20.4116 10.25 19.625ZM16.25 24.125V23.7341C16.4966 23.7434 16.7459 23.75 17 23.75C17.3638 23.75 17.7191 23.7378 18.0678 23.7172C18.4552 23.8559 18.8499 23.9736 19.25 24.0697V26.2691C17.4134 25.7562 16.25 24.9116 16.25 24.125ZM20.75 26.5859V24.35C21.4958 24.4503 22.2475 24.5004 23 24.5C23.7523 24.5011 24.504 24.4528 25.25 24.3556V26.5859C23.758 26.8047 22.242 26.8047 20.75 26.5859ZM26.75 26.2691V24.0781C27.9603 23.7847 28.985 23.3478 29.75 22.8059V24.125C29.75 24.9116 28.5866 25.7562 26.75 26.2691Z" fill="#0F913D"/>
</svg>
