<svg width="40" height="40" viewBox="0 0 40 40" fill="none" xmlns="http://www.w3.org/2000/svg">
<path d="M0 20C0 8.95431 8.95431 0 20 0C31.0457 0 40 8.95431 40 20C40 31.0457 31.0457 40 20 40C8.95431 40 0 31.0457 0 20Z" fill="#E5FFEE"/>
<path d="M20 0.200195C30.9352 0.200195 39.7998 9.06476 39.7998 20C39.7998 30.9352 30.9352 39.7998 20 39.7998C9.06476 39.7998 0.200195 30.9352 0.200195 20C0.200195 9.06476 9.06476 0.200195 20 0.200195Z" stroke="#0F913D" stroke-opacity="0.19" stroke-width="0.4"/>
<path d="M29.75 20.8125C29.5907 22.6649 28.9056 24.4334 27.7753 25.9097C26.645 27.386 25.1166 28.5089 23.3699 29.1461C21.6232 29.7833 19.7308 29.9083 17.9154 29.5066C16.1001 29.1048 14.4372 28.1929 13.1224 26.8782C11.8077 25.5634 10.8958 23.9006 10.494 22.0852C10.0923 20.2698 10.2173 18.3774 10.8545 16.6307C11.4917 14.884 12.6146 13.3556 14.0909 12.2253C15.5672 11.095 17.3357 10.4099 19.1881 10.2506C19.2866 10.2425 19.3858 10.2538 19.4799 10.284C19.574 10.3142 19.6612 10.3626 19.7366 10.4265C19.812 10.4904 19.8741 10.5685 19.9192 10.6564C19.9644 10.7443 19.9919 10.8402 20 10.9387C20.0081 11.0372 19.9968 11.1363 19.9666 11.2304C19.9364 11.3245 19.888 11.4118 19.8241 11.4872C19.7602 11.5626 19.6821 11.6246 19.5942 11.6698C19.5063 11.715 19.4104 11.7425 19.3119 11.7506C17.744 11.8853 16.2472 12.465 14.9976 13.4216C13.748 14.3781 12.7976 15.6716 12.2583 17.15C11.7189 18.6283 11.613 20.2299 11.953 21.7664C12.293 23.3029 13.0648 24.7104 14.1775 25.8231C15.2903 26.9359 16.6977 27.7076 18.2342 28.0476C19.7707 28.3876 21.3723 28.2817 22.8506 27.7424C24.329 27.203 25.6225 26.2526 26.5791 25.003C27.5356 23.7534 28.1153 22.2566 28.25 20.6887C28.2664 20.4898 28.3612 20.3056 28.5134 20.1765C28.6657 20.0475 28.863 19.9842 29.0619 20.0006C29.2608 20.017 29.4451 20.1118 29.5741 20.264C29.7031 20.4163 29.7664 20.6136 29.75 20.8125ZM19.25 14.7506V20.0006C19.25 20.1995 19.329 20.3903 19.4697 20.5309C19.6103 20.6716 19.8011 20.7506 20 20.7506H25.25C25.4489 20.7506 25.6397 20.6716 25.7803 20.5309C25.921 20.3903 26 20.1995 26 20.0006C26 19.8017 25.921 19.6109 25.7803 19.4703C25.6397 19.3296 25.4489 19.2506 25.25 19.2506H20.75V14.7506C20.75 14.5517 20.671 14.3609 20.5303 14.2203C20.3897 14.0796 20.1989 14.0006 20 14.0006C19.8011 14.0006 19.6103 14.0796 19.4697 14.2203C19.329 14.3609 19.25 14.5517 19.25 14.7506ZM23 12.5006C23.2225 12.5006 23.44 12.4346 23.625 12.311C23.81 12.1874 23.9542 12.0117 24.0394 11.8061C24.1245 11.6005 24.1468 11.3743 24.1034 11.1561C24.06 10.9379 23.9528 10.7374 23.7955 10.5801C23.6382 10.4228 23.4377 10.3156 23.2195 10.2722C23.0013 10.2288 22.7751 10.2511 22.5695 10.3362C22.3639 10.4214 22.1882 10.5656 22.0646 10.7506C21.941 10.9356 21.875 11.1531 21.875 11.3756C21.875 11.674 21.9935 11.9601 22.2045 12.1711C22.4155 12.3821 22.7016 12.5006 23 12.5006ZM26.375 14.7506C26.5975 14.7506 26.815 14.6846 27 14.561C27.185 14.4374 27.3292 14.2617 27.4144 14.0561C27.4995 13.8505 27.5218 13.6243 27.4784 13.4061C27.435 13.1879 27.3278 12.9874 27.1705 12.8301C27.0132 12.6728 26.8127 12.5656 26.5945 12.5222C26.3763 12.4788 26.1501 12.5011 25.9445 12.5862C25.7389 12.6714 25.5632 12.8156 25.4396 13.0006C25.316 13.1856 25.25 13.4031 25.25 13.6256C25.25 13.924 25.3685 14.2101 25.5795 14.4211C25.7905 14.6321 26.0766 14.7506 26.375 14.7506ZM28.625 18.1256C28.8475 18.1256 29.065 18.0596 29.25 17.936C29.435 17.8124 29.5792 17.6367 29.6644 17.4311C29.7495 17.2255 29.7718 16.9993 29.7284 16.7811C29.685 16.5629 29.5778 16.3624 29.4205 16.2051C29.2632 16.0478 29.0627 15.9406 28.8445 15.8972C28.6263 15.8538 28.4001 15.8761 28.1945 15.9612C27.9889 16.0464 27.8132 16.1906 27.6896 16.3756C27.566 16.5606 27.5 16.7781 27.5 17.0006C27.5 17.299 27.6185 17.5851 27.8295 17.7961C28.0405 18.0071 28.3266 18.1256 28.625 18.1256Z" fill="#0F913D"/>
</svg>
