<svg width="153" height="164" viewBox="0 0 153 164" fill="none" xmlns="http://www.w3.org/2000/svg">
<path opacity="0.7" d="M13.0006 50.8395C13.0006 50.8395 2.72766 77.3693 17.1643 104.083C31.601 130.798 61.3366 144.91 85.1361 156.977C108.936 169.045 133.649 163.168 145.392 143.403C157.135 123.638 141.029 109.529 141.007 81.3451C140.985 53.1608 145.226 45.6993 129.953 21.8887C114.68 -1.92181 77.2397 -7.19462 48.9265 10.4662C20.6132 28.1269 13.0006 50.8395 13.0006 50.8395Z" fill="white"/>
<path d="M0.90714 93.6813C-0.81649 85.7254 -0.0722209 77.433 3.04058 69.9112C7.29642 59.3914 16.4382 51.9115 26.6853 47.5525C41.5715 41.2258 56.1888 41.0895 68.2967 28.6683C72.0293 24.8363 75.165 20.4478 78.9823 16.6931C90.2281 5.63895 106.691 6.96913 118.98 15.7461C144.622 34.0554 153.844 70.3166 152.418 100.295C151.777 113.748 145.355 126.272 135.189 135.097C112.196 155.061 73.1531 151.704 46.7559 141.284C27.028 133.513 5.53144 115.384 0.90714 93.6813Z" fill="#5856D6"/>
<path opacity="0.7" d="M0.90714 93.6813C-0.81649 85.7254 -0.0722209 77.433 3.04058 69.9112C7.29642 59.3914 16.4382 51.9115 26.6853 47.5525C41.5715 41.2258 56.1888 41.0895 68.2967 28.6683C72.0293 24.8363 75.165 20.4478 78.9823 16.6931C90.2281 5.63895 106.691 6.96913 118.98 15.7461C144.622 34.0554 153.844 70.3166 152.418 100.295C151.777 113.748 145.355 126.272 135.189 135.097C112.196 155.061 73.1531 151.704 46.7559 141.284C27.028 133.513 5.53144 115.384 0.90714 93.6813Z" fill="white"/>
<path d="M97.5938 135.849C97.5969 137.351 97.2326 138.831 96.5326 140.16H94.5318C94.4724 140.161 94.4132 140.167 94.355 140.178C94.1808 140.218 94.0255 140.316 93.9144 140.456C93.8032 140.596 93.7429 140.77 93.7433 140.948V143.373C92.0536 144.592 90.0028 145.208 87.9209 145.12C85.8391 145.032 83.8474 144.246 82.2663 142.889C80.6853 141.532 79.6069 139.682 79.2048 137.638C78.8026 135.593 79.1001 133.473 80.0494 131.618C80.9986 129.763 82.5444 128.281 84.4379 127.412C86.3314 126.542 88.4625 126.335 90.4881 126.823C92.5137 127.312 94.316 128.468 95.6049 130.105C96.8939 131.742 97.5944 133.765 97.5938 135.849Z" stroke="#263238" stroke-linecap="round" stroke-linejoin="round"/>
<path d="M90.5781 139.268C91.8679 139.426 93.1352 139.731 94.3549 140.178C94.1808 140.219 94.0255 140.317 93.9143 140.457C93.8032 140.596 93.7429 140.77 93.7433 140.949V143.373C91.7558 144.808 89.2813 145.397 86.8605 145.012C84.4398 144.628 82.2698 143.301 80.8247 141.321C80.8763 141.23 80.9316 141.138 80.9905 141.044C81.3369 140.481 83.4261 139.571 86.3886 139.261C86.5762 138.794 86.6348 138.285 86.5581 137.787C86.5581 137.702 86.536 137.625 86.5249 137.548C86.3583 137.404 86.2196 137.23 86.1159 137.035C85.9643 136.656 85.8411 136.265 85.7475 135.867C85.7548 135.955 85.7341 136.043 85.6885 136.118C85.4711 136.321 85.2721 135.971 85.2427 135.665C85.2132 135.359 84.8337 134.825 84.7452 134.522C84.7164 134.385 84.7255 134.242 84.7715 134.109C84.8176 133.976 84.8989 133.858 85.0068 133.767C85.0428 133.75 85.0827 133.743 85.1223 133.747C85.1618 133.751 85.1996 133.766 85.2316 133.789C85.0995 133.257 85.0572 132.707 85.1063 132.161C85.1289 131.825 85.2235 131.498 85.3837 131.203C85.544 130.907 85.7661 130.649 86.0349 130.447C86.0349 130.447 86.4033 129.382 88.4705 129.39C90.7145 129.39 90.9392 130.613 90.9392 130.613C90.9392 130.613 92.0999 131.387 91.643 133.786C91.6728 133.763 91.7082 133.749 91.7454 133.746C91.7825 133.743 91.8198 133.75 91.853 133.767C91.9619 133.857 92.0439 133.975 92.0901 134.108C92.1363 134.241 92.1448 134.385 92.1146 134.522C92.0299 134.825 91.6467 135.355 91.6172 135.665C91.5877 135.974 91.3887 136.321 91.1714 136.118C91.147 136.084 91.1317 136.045 91.1271 136.004C91.0353 136.397 90.912 136.783 90.7587 137.157C90.648 137.373 90.4907 137.562 90.2981 137.71C90.2534 138.035 90.2659 138.365 90.3349 138.686C90.377 138.894 90.4596 139.092 90.5781 139.268Z" stroke="#263238" stroke-linecap="round" stroke-linejoin="round"/>
<path d="M97.4831 140.16H94.5317C94.0962 140.16 93.7432 140.513 93.7432 140.949V143.9C93.7432 144.336 94.0962 144.689 94.5317 144.689H97.4831C97.9186 144.689 98.2717 144.336 98.2717 143.9V140.949C98.2717 140.513 97.9186 140.16 97.4831 140.16Z" stroke="#263238" stroke-linecap="round" stroke-linejoin="round"/>
<path d="M97.133 142.165H96.2634V141.295H95.7475V142.165H94.8779V142.68H95.7475V143.55H96.2634V142.68H97.133V142.165Z" fill="#263238"/>
<path d="M39.7363 61.1571C39.7386 63.2442 39.2328 65.3006 38.2624 67.1484H35.1673C34.9581 67.1484 34.7576 67.2315 34.6097 67.3794C34.4618 67.5272 34.3787 67.7278 34.3787 67.9369V71.6216C32.0303 73.3137 29.1808 74.1665 26.2889 74.0429C23.397 73.9192 20.6308 72.8263 18.4353 70.94C16.2399 69.0536 14.7428 66.4835 14.1851 63.6432C13.6273 60.8029 14.0413 57.8575 15.3604 55.281C16.6795 52.7045 18.827 50.6467 21.4574 49.4386C24.0878 48.2306 27.0481 47.9425 29.8621 48.6209C32.676 49.2992 35.18 50.9044 36.971 53.1783C38.762 55.4522 39.7361 58.2625 39.7363 61.1571Z" stroke="#263238" stroke-linecap="round" stroke-linejoin="round"/>
<path d="M33.4011 53.5209L17.8666 56.5434C17.3133 56.651 16.952 57.1868 17.0597 57.7402L19.0547 67.994C19.1623 68.5473 19.6982 68.9086 20.2515 68.801L35.786 65.7786C36.3393 65.6709 36.7006 65.1351 36.5929 64.5818L34.5979 54.3279C34.4903 53.7746 33.9545 53.4133 33.4011 53.5209Z" stroke="#263238" stroke-linecap="round" stroke-linejoin="round"/>
<path d="M17.1382 58.1279L25.554 62.7043C26.055 62.9755 26.6347 63.0643 27.1939 62.9554C27.7531 62.8465 28.2571 62.5467 28.6197 62.1073L34.6921 54.7158" stroke="#263238" stroke-linecap="round" stroke-linejoin="round"/>
<path d="M20.3438 67.7964L25.5392 62.7041" stroke="#263238" stroke-linecap="round" stroke-linejoin="round"/>
<path d="M35.2485 64.8967L28.605 62.1074" stroke="#263238" stroke-linecap="round" stroke-linejoin="round"/>
<path d="M39.8875 67.1475H35.1674C34.7319 67.1475 34.3789 67.5005 34.3789 67.936V72.6561C34.3789 73.0916 34.7319 73.4446 35.1674 73.4446H39.8875C40.323 73.4446 40.6761 73.0916 40.6761 72.6561V67.936C40.6761 67.5005 40.323 67.1475 39.8875 67.1475Z" stroke="#263238" stroke-linecap="round" stroke-linejoin="round"/>
<path d="M39.0954 69.941H37.8868V68.7324H37.172V69.941H35.9634V70.6558H37.172V71.8644H37.8868V70.6558H39.0954V69.941Z" fill="#263238"/>
<path d="M141.121 112.819H129.404L129.632 112.451C130.624 110.815 131.128 108.929 131.084 107.016V106.994C131.088 106.445 131.2 105.903 131.414 105.397C131.628 104.892 131.939 104.434 132.33 104.048C132.721 103.663 133.184 103.359 133.692 103.153C134.201 102.947 134.745 102.843 135.294 102.847C135.843 102.851 136.385 102.963 136.89 103.177C137.396 103.391 137.854 103.702 138.239 104.093C138.624 104.484 138.929 104.947 139.135 105.455C139.341 105.964 139.445 106.508 139.441 107.057C139.368 108.914 139.843 110.752 140.808 112.34L141.121 112.819Z" stroke="#263238" stroke-linecap="round" stroke-linejoin="round"/>
<path d="M134.315 102.735C134.128 102.547 134 102.308 133.949 102.048C133.897 101.788 133.924 101.518 134.025 101.273C134.127 101.028 134.299 100.819 134.519 100.671C134.74 100.524 134.999 100.445 135.264 100.445C135.529 100.445 135.789 100.524 136.009 100.671C136.23 100.819 136.402 101.028 136.503 101.273C136.605 101.518 136.631 101.788 136.58 102.048C136.528 102.308 136.4 102.547 136.213 102.735" stroke="#263238" stroke-linecap="round" stroke-linejoin="round"/>
<path d="M141.423 112.823H129.105C128.831 112.823 128.608 113.046 128.608 113.321V113.527C128.608 113.802 128.831 114.024 129.105 114.024H141.423C141.698 114.024 141.921 113.802 141.921 113.527V113.321C141.921 113.046 141.698 112.823 141.423 112.823Z" stroke="#263238" stroke-linecap="round" stroke-linejoin="round"/>
<path d="M135.263 117.068C135.828 117.068 136.287 116.61 136.287 116.044C136.287 115.478 135.828 115.02 135.263 115.02C134.697 115.02 134.238 115.478 134.238 116.044C134.238 116.61 134.697 117.068 135.263 117.068Z" stroke="#263238" stroke-linecap="round" stroke-linejoin="round"/>
<path d="M146.464 109.643C146.466 111.455 146.029 113.241 145.189 114.846H142.61C142.4 114.846 142.2 114.929 142.052 115.077C141.904 115.225 141.821 115.425 141.821 115.635V118.73C139.782 120.202 137.306 120.945 134.793 120.84C132.28 120.735 129.875 119.787 127.966 118.149C126.057 116.511 124.755 114.278 124.268 111.81C123.782 109.342 124.141 106.783 125.286 104.543C126.431 102.304 128.296 100.514 130.582 99.4638C132.867 98.4131 135.44 98.162 137.885 98.7508C140.331 99.3396 142.507 100.734 144.064 102.71C145.621 104.686 146.467 107.128 146.468 109.643H146.464Z" stroke="#263238" stroke-linecap="round" stroke-linejoin="round"/>
<path d="M146.494 114.847H142.606C142.171 114.847 141.818 115.2 141.818 115.635V119.523C141.818 119.958 142.171 120.311 142.606 120.311H146.494C146.929 120.311 147.282 119.958 147.282 119.523V115.635C147.282 115.2 146.929 114.847 146.494 114.847Z" stroke="#263238" stroke-linecap="round" stroke-linejoin="round"/>
<path d="M145.908 117.271H144.861V116.221H144.242V117.271H143.192V117.89H144.242V118.936H144.861V117.89H145.908V117.271Z" fill="#263238"/>
<path d="M142.337 15.4922H59.7152C58.3008 15.4922 57.1543 16.6387 57.1543 18.0531V98.4901C57.1543 99.9045 58.3008 101.051 59.7152 101.051H142.337C143.752 101.051 144.898 99.9045 144.898 98.4901V18.0531C144.898 16.6387 143.752 15.4922 142.337 15.4922Z" fill="white"/>
<mask id="mask0_1825_27988" style="mask-type:luminance" maskUnits="userSpaceOnUse" x="57" y="15" width="88" height="87">
<path d="M142.337 15.4922H59.7152C58.3008 15.4922 57.1543 16.6387 57.1543 18.0531V98.4901C57.1543 99.9045 58.3008 101.051 59.7152 101.051H142.337C143.752 101.051 144.898 99.9045 144.898 98.4901V18.0531C144.898 16.6387 143.752 15.4922 142.337 15.4922Z" fill="white"/>
</mask>
<g mask="url(#mask0_1825_27988)">
<path d="M131.305 94.2863H110.966C109.695 94.2863 108.477 93.7816 107.579 92.8833C106.68 91.985 106.176 90.7666 106.176 89.4962C106.176 88.2258 106.68 87.0074 107.579 86.109C108.477 85.2107 109.695 84.7061 110.966 84.7061H131.305C132.576 84.7061 133.794 85.2107 134.693 86.109C135.591 87.0074 136.096 88.2258 136.096 89.4962C136.096 90.7666 135.591 91.985 134.693 92.8833C133.794 93.7816 132.576 94.2863 131.305 94.2863Z" fill="#5856D6" stroke="#263238" stroke-linecap="round" stroke-linejoin="round"/>
<path d="M115.936 91.847H115.159L115.026 90.9552H114.079L113.946 91.847H113.25L114.035 86.9463H115.162L115.936 91.847ZM114.179 90.292H114.915L114.547 87.8122L114.179 90.292Z" fill="#263238"/>
<path d="M118.519 90.0189V90.6674C118.519 91.4523 118.129 91.9018 117.373 91.9018C116.618 91.9018 116.224 91.4523 116.224 90.6674V88.1213C116.224 87.3365 116.614 86.8906 117.373 86.8906C118.132 86.8906 118.519 87.3365 118.519 88.1213V88.5966H117.782V88.0734C117.782 87.7234 117.627 87.5907 117.381 87.5907C117.134 87.5907 116.983 87.7234 116.983 88.0734V90.719C116.983 91.0691 117.137 91.1944 117.381 91.1944C117.624 91.1944 117.782 91.0691 117.782 90.719V90.0189H118.519Z" fill="#263238"/>
<path d="M121.224 90.0189V90.6674C121.224 91.4523 120.83 91.9018 120.074 91.9018C119.319 91.9018 118.928 91.4523 118.928 90.6674V88.1213C118.928 87.3365 119.319 86.8906 120.074 86.8906C120.83 86.8906 121.224 87.3365 121.224 88.1213V88.5966H120.487V88.0734C120.487 87.7234 120.332 87.5907 120.089 87.5907C119.846 87.5907 119.691 87.7234 119.691 88.0734V90.719C119.691 91.0691 119.842 91.1944 120.089 91.1944C120.336 91.1944 120.487 91.0691 120.487 90.719V90.0189H121.224Z" fill="#263238"/>
<path d="M122.462 89.0097H123.52V89.7098H122.462V91.1469H123.792V91.847H121.692V86.9463H123.792V87.6538H122.462V89.0097Z" fill="#263238"/>
<path d="M126.552 88.1549V88.7923C126.552 89.5772 126.183 90.0046 125.402 90.0046H125.034V91.847H124.264V86.9463H125.41C126.172 86.9463 126.552 87.3737 126.552 88.1549ZM125.041 87.6538V89.3119H125.41C125.656 89.3119 125.778 89.2013 125.778 88.8513V88.1143C125.778 87.7459 125.645 87.6538 125.41 87.6538H125.041Z" fill="#263238"/>
<path d="M126.685 86.9463H129.065V87.6538H128.262V91.8543H127.492V87.6538H126.685V86.9463Z" fill="#263238"/>
<path d="M91.0791 94.2863H70.7432C69.4728 94.2863 68.2544 93.7816 67.3561 92.8833C66.4578 91.985 65.9531 90.7666 65.9531 89.4962C65.9531 88.2258 66.4578 87.0074 67.3561 86.109C68.2544 85.2107 69.4728 84.7061 70.7432 84.7061H91.0791C92.3495 84.7061 93.5679 85.2107 94.4662 86.109C95.3646 87.0074 95.8692 88.2258 95.8692 89.4962C95.8692 90.7666 95.3646 91.985 94.4662 92.8833C93.5679 93.7816 92.3495 94.2863 91.0791 94.2863Z" fill="#5856D6"/>
<mask id="mask1_1825_27988" style="mask-type:luminance" maskUnits="userSpaceOnUse" x="65" y="84" width="31" height="11">
<path d="M91.0791 94.2863H70.7432C69.4728 94.2863 68.2544 93.7816 67.3561 92.8833C66.4578 91.985 65.9531 90.7666 65.9531 89.4962C65.9531 88.2258 66.4578 87.0074 67.3561 86.109C68.2544 85.2107 69.4728 84.7061 70.7432 84.7061H91.0791C92.3495 84.7061 93.5679 85.2107 94.4662 86.109C95.3646 87.0074 95.8692 88.2258 95.8692 89.4962C95.8692 90.7666 95.3646 91.985 94.4662 92.8833C93.5679 93.7816 92.3495 94.2863 91.0791 94.2863Z" fill="white"/>
</mask>
<g mask="url(#mask1_1825_27988)">
<path opacity="0.6" d="M91.0791 94.2863H70.7432C69.4728 94.2863 68.2544 93.7816 67.3561 92.8833C66.4578 91.985 65.9531 90.7666 65.9531 89.4962C65.9531 88.2258 66.4578 87.0074 67.3561 86.109C68.2544 85.2107 69.4728 84.7061 70.7432 84.7061H91.0791C92.3495 84.7061 93.5679 85.2107 94.4662 86.109C95.3646 87.0074 95.8692 88.2258 95.8692 89.4962C95.8692 90.7666 95.3646 91.985 94.4662 92.8833C93.5679 93.7816 92.3495 94.2863 91.0791 94.2863Z" fill="white"/>
</g>
<path d="M91.0791 94.2863H70.7432C69.4728 94.2863 68.2544 93.7816 67.3561 92.8833C66.4578 91.985 65.9531 90.7666 65.9531 89.4962C65.9531 88.2258 66.4578 87.0074 67.3561 86.109C68.2544 85.2107 69.4728 84.7061 70.7432 84.7061H91.0791C92.3495 84.7061 93.5679 85.2107 94.4662 86.109C95.3646 87.0074 95.8692 88.2258 95.8692 89.4962C95.8692 90.7666 95.3646 91.985 94.4662 92.8833C93.5679 93.7816 92.3495 94.2863 91.0791 94.2863Z" stroke="#263238" stroke-linecap="round" stroke-linejoin="round"/>
<path d="M72.4863 86.9463H73.706C74.4761 86.9463 74.8519 87.3737 74.8519 88.1549V90.6347C74.8519 91.4195 74.4834 91.847 73.706 91.847H72.4863V86.9463ZM73.2564 87.6464V91.1469H73.6912C73.9344 91.1469 74.0818 91.0179 74.0818 90.6678V88.1217C74.0818 87.7717 73.9344 87.6464 73.6912 87.6464H73.2564Z" fill="#263238"/>
<path d="M76.1119 89.0097H77.1694V89.7098H76.1119V91.1469H77.4421V91.847H75.3418V86.9463H77.4421V87.6538H76.1119V89.0097Z" fill="#263238"/>
<path d="M80.154 90.0189V90.6674C80.154 91.4523 79.7634 91.9018 79.0043 91.9018C78.2453 91.9018 77.8584 91.4523 77.8584 90.6674V88.1213C77.8584 87.3365 78.249 86.8906 79.0043 86.8906C79.7597 86.8906 80.154 87.3365 80.154 88.1213V88.5966H79.417V88.0734C79.417 87.7234 79.266 87.5907 79.0191 87.5907C78.7722 87.5907 78.6211 87.7234 78.6211 88.0734V90.719C78.6211 91.0691 78.7759 91.1944 79.0191 91.1944C79.2623 91.1944 79.417 91.0691 79.417 90.719V90.0189H80.154Z" fill="#263238"/>
<path d="M80.6221 86.9463H81.3922V91.1469H82.6671V91.847H80.6294L80.6221 86.9463Z" fill="#263238"/>
<path d="M82.9985 86.9463H83.7723V91.847H82.9985V86.9463Z" fill="#263238"/>
<path d="M85.0292 88.2949V91.847H84.3364V86.9463H85.3018L86.0793 89.8941V86.9463H86.7646V91.847H85.9835L85.0292 88.2949Z" fill="#263238"/>
<path d="M88.0875 89.0097H89.145V89.7098H88.0875V91.1469H89.4177V91.847H87.3174V86.9463H89.4177V87.6538H88.0875V89.0097Z" fill="#263238"/>
<path d="M120.988 54.1224C120.988 58.073 119.817 61.9349 117.622 65.2198C115.427 68.5046 112.307 71.0648 108.657 72.5767C105.007 74.0885 100.991 74.4841 97.1165 73.7134C93.2417 72.9426 89.6826 71.0402 86.8891 68.2467C84.0955 65.4532 82.1931 61.894 81.4224 58.0193C80.6517 54.1446 81.0472 50.1283 82.5591 46.4784C84.0709 42.8285 86.6311 39.7088 89.916 37.514C93.2008 35.3191 97.0627 34.1476 101.013 34.1476C103.639 34.1374 106.241 34.6471 108.669 35.6473C111.098 36.6475 113.304 38.1184 115.16 39.9753C117.017 41.8321 118.488 44.0382 119.489 46.4663C120.489 48.8944 120.998 51.4964 120.988 54.1224Z" fill="#5856D6" stroke="#263238" stroke-linecap="round" stroke-linejoin="round"/>
<path d="M117.617 65.2319C115.828 67.9024 113.421 70.1018 110.601 71.6433C107.78 73.1849 104.63 74.0231 101.416 74.0867C98.2027 74.1504 95.0213 73.4376 92.1421 72.009C89.2629 70.5803 86.771 68.478 84.8779 65.8804C84.9958 65.6815 85.1138 65.4825 85.2464 65.2872C85.9833 64.0676 90.4934 62.1368 96.8716 61.4441C98.3108 61.2857 99.757 61.1996 101.205 61.1861C102.773 61.1713 104.34 61.2624 105.895 61.4588C111.437 62.1515 116.047 63.9865 117.617 65.2319Z" fill="#757575" stroke="#263238" stroke-width="0.8" stroke-linecap="round" stroke-linejoin="round"/>
<path d="M106.36 61.9309C105.862 62.8117 105.136 63.5419 104.258 64.0445C103.38 64.547 102.382 64.8034 101.371 64.7865C98.423 64.7865 96.2896 62.2367 96.2896 62.2367C97.3213 61.3118 97.395 59.5948 97.2328 58.2425C97.1658 57.5798 97.0426 56.924 96.8644 56.2822H105.656C105.122 58.0398 105.14 59.3 105.347 60.177C105.638 61.4703 106.36 61.9309 106.36 61.9309Z" fill="white" stroke="#263238" stroke-width="0.8" stroke-linecap="round" stroke-linejoin="round"/>
<path d="M105.328 60.177C98.9756 61.8424 97.7154 58.213 97.7154 58.213L97.2327 58.2425C97.1657 57.5798 97.0425 56.924 96.8643 56.2822H105.656C105.103 58.0398 105.122 59.3 105.328 60.177Z" fill="#263238"/>
<path d="M107.55 50.1103C107.55 50.1103 108.257 49.3402 108.608 49.5945C108.842 49.7863 109.019 50.0392 109.119 50.3253C109.219 50.6113 109.239 50.9194 109.175 51.2157C108.987 51.8716 108.165 53.0102 108.099 53.6734C108.033 54.3367 107.613 55.0883 107.145 54.6499C106.677 54.2114 107.55 50.1103 107.55 50.1103Z" fill="white" stroke="#263238" stroke-linecap="round" stroke-linejoin="round"/>
<path d="M94.9333 50.1103C94.9333 50.1103 94.2258 49.3402 93.8758 49.5945C93.6412 49.7863 93.4641 50.0392 93.364 50.3253C93.2638 50.6113 93.2446 50.9194 93.3083 51.2157C93.4962 51.8716 94.3179 53.0102 94.3842 53.6734C94.4506 54.3367 94.8706 55.0883 95.3386 54.6499C95.8065 54.2114 94.9333 50.1103 94.9333 50.1103Z" fill="white" stroke="#263238" stroke-linecap="round" stroke-linejoin="round"/>
<path d="M101.09 41.2266C109.996 41.2266 107.877 53.0839 106.249 56.8902C105.674 58.2278 102.689 59.9817 101.249 59.9817C99.9074 59.9817 96.827 57.8851 96.2964 56.6286C94.631 52.7965 92.6154 41.2266 101.09 41.2266Z" fill="white" stroke="#263238" stroke-width="0.8" stroke-linecap="round" stroke-linejoin="round"/>
<path d="M102.601 48.5404C102.601 48.5404 104.919 47.8219 105.637 49.2553" stroke="#263238" stroke-width="0.8" stroke-linecap="round" stroke-linejoin="round"/>
<path d="M104.319 50.4898C104.319 50.7625 104.178 50.9836 104.009 50.9836C103.84 50.9836 103.696 50.7625 103.696 50.4898C103.696 50.2172 103.836 49.9961 104.009 49.9961C104.182 49.9961 104.319 50.2172 104.319 50.4898Z" fill="#263238"/>
<path d="M99.8819 48.5404C99.8819 48.5404 97.5642 47.8219 96.8457 49.2553" stroke="#263238" stroke-width="0.8" stroke-linecap="round" stroke-linejoin="round"/>
<path d="M98.1646 50.4898C98.1646 50.7625 98.3046 50.9836 98.4741 50.9836C98.6436 50.9836 98.7873 50.7625 98.7873 50.4898C98.7873 50.2172 98.6472 49.9961 98.4741 49.9961C98.3009 49.9961 98.1646 50.2172 98.1646 50.4898Z" fill="#263238"/>
<path d="M104.775 44.2512C102.544 44.9639 100.146 44.9639 97.9143 44.2512C97.9143 44.2512 96.7094 44.1812 96.2378 44.7855C95.7661 45.3898 96.2378 47.2542 96.3631 48.0133C96.4883 48.7723 95.3203 49.2992 95.4787 51.2153L95.0255 51.8785C95.0255 51.8785 93.769 48.7907 94.0859 46.1377C94.4028 43.4848 96.0793 42.453 96.0793 42.453C96.0793 42.453 96.8421 40.1575 101.323 40.1759C106.153 40.1943 106.64 42.8068 106.64 42.8068C106.64 42.8068 109.912 44.9918 107.491 52.1033L106.968 51.219C107.092 50.2757 106.875 49.3189 106.356 48.5217C105.932 47.9064 106.607 46.0567 106.448 45.106C106.29 44.1554 104.775 44.2512 104.775 44.2512Z" fill="#263238"/>
<path d="M101.772 49.9961C101.772 49.9961 101.798 52.1627 102.365 52.8665C102.656 53.2349 102.089 54.0087 101.212 54.1488" stroke="#263238" stroke-width="0.8" stroke-linecap="round" stroke-linejoin="round"/>
<path d="M99.2925 55.4053C99.3539 55.6286 99.4587 55.8375 99.601 56.0203C99.7432 56.203 99.9201 56.3559 100.122 56.4702C100.73 56.7318 102.579 56.6212 102.929 56.4038C103.279 56.1864 103.453 55.4753 103.453 55.4753" fill="white"/>
<path d="M99.2925 55.4053C99.3539 55.6286 99.4587 55.8375 99.601 56.0203C99.7432 56.203 99.9201 56.3559 100.122 56.4702C100.73 56.7318 102.579 56.6212 102.929 56.4038C103.279 56.1864 103.453 55.4753 103.453 55.4753" stroke="#263238" stroke-width="0.8" stroke-linecap="round" stroke-linejoin="round"/>
<path d="M99.2793 55.5C100.795 55.8248 101.764 55.8248 103.279 55.5" stroke="#263238" stroke-width="0.7" stroke-linecap="round" stroke-linejoin="round"/>
<path d="M105.637 44.3437C105.637 44.3437 104.643 45.8175 101.371 46.1381C101.62 45.9061 101.817 45.6234 101.949 45.309C101.454 45.6715 100.892 45.9315 100.295 46.0738C99.6986 46.2162 99.0795 46.2381 98.4743 46.1381C97.8516 46.0538 97.2176 46.1343 96.6357 46.3716C96.0538 46.6088 95.5443 46.9946 95.1581 47.4904L94.6054 49.996C94.6054 49.996 92.6488 47.7852 94.0416 44.2331L93.5405 44.6495C93.5405 44.6495 94.0969 39.8999 99.8045 39.7267L99.1118 39.3103C99.1118 39.3103 104.797 38.0981 107.023 41.8417C107.023 41.8417 109.002 42.2102 109.488 45.6333L108.932 45.2648C108.932 45.2648 109.812 48.1057 107.985 50.4824C107.97 50.4897 105.637 46.7277 105.637 44.3437Z" fill="#263238"/>
<path opacity="0.5" d="M122.742 28.1532H79.3139C79.0207 28.1532 78.7396 28.0367 78.5323 27.8294C78.325 27.6221 78.2085 27.341 78.2085 27.0478C78.2085 26.7546 78.325 26.4735 78.5323 26.2662C78.7396 26.0588 79.0207 25.9424 79.3139 25.9424H122.742C123.035 25.9424 123.316 26.0588 123.523 26.2662C123.731 26.4735 123.847 26.7546 123.847 27.0478C123.847 27.341 123.731 27.6221 123.523 27.8294C123.316 28.0367 123.035 28.1532 122.742 28.1532Z" fill="#263238"/>
<g opacity="0.4">
<path d="M119.643 77.2112H82.4094C82.352 77.2112 82.2952 77.1998 82.2422 77.1777C82.1892 77.1557 82.1411 77.1233 82.1007 77.0825C82.0602 77.0418 82.0283 76.9934 82.0067 76.9402C81.985 76.887 81.9741 76.8301 81.9746 76.7727C81.9746 76.6574 82.0204 76.5468 82.102 76.4653C82.1835 76.3837 82.2941 76.3379 82.4094 76.3379H119.643C119.701 76.3374 119.758 76.3483 119.811 76.3699C119.864 76.3916 119.912 76.4235 119.953 76.4639C119.994 76.5044 120.026 76.5525 120.048 76.6055C120.07 76.6585 120.082 76.7153 120.082 76.7727C120.082 76.889 120.036 77.0005 119.953 77.0828C119.871 77.165 119.76 77.2112 119.643 77.2112Z" fill="black"/>
<path d="M115.959 79.5471H86.094C86.0366 79.5471 85.9797 79.5357 85.9267 79.5137C85.8738 79.4916 85.8257 79.4592 85.7852 79.4185C85.7448 79.3777 85.7129 79.3293 85.6912 79.2762C85.6696 79.223 85.6587 79.166 85.6592 79.1086C85.6592 78.9933 85.705 78.8827 85.7865 78.8012C85.8681 78.7197 85.9787 78.6738 86.094 78.6738H115.959C116.016 78.6734 116.073 78.6842 116.126 78.7059C116.179 78.7275 116.228 78.7595 116.268 78.7999C116.309 78.8403 116.341 78.8884 116.364 78.9414C116.386 78.9944 116.397 79.0512 116.397 79.1086C116.397 79.2249 116.351 79.3365 116.269 79.4187C116.186 79.5009 116.075 79.5471 115.959 79.5471Z" fill="black"/>
</g>
<path d="M120.689 63.3789H114.481C113.504 63.3789 112.712 64.1708 112.712 65.1476V71.3563C112.712 72.3331 113.504 73.125 114.481 73.125H120.689C121.666 73.125 122.458 72.3331 122.458 71.3563V65.1476C122.458 64.1708 121.666 63.3789 120.689 63.3789Z" fill="#263238" stroke="white" stroke-linecap="round" stroke-linejoin="round"/>
<path d="M120.011 67.7009H118.139V65.8291H117.034V67.7009H115.162V68.8063H117.034V70.6745H118.139V68.8063H120.011V67.7009Z" fill="white"/>
<path opacity="0.3" d="M142.437 19.5823C142.437 19.938 142.331 20.2856 142.134 20.5813C141.936 20.877 141.655 21.1075 141.327 21.2436C140.998 21.3797 140.636 21.4153 140.288 21.3459C139.939 21.2765 139.618 21.1053 139.367 20.8538C139.116 20.6023 138.944 20.2819 138.875 19.9331C138.806 19.5843 138.841 19.2228 138.977 18.8942C139.113 18.5656 139.344 18.2848 139.639 18.0872C139.935 17.8896 140.283 17.7842 140.638 17.7842C141.115 17.7842 141.573 17.9736 141.91 18.3108C142.247 18.6481 142.437 19.1054 142.437 19.5823Z" fill="black"/>
<path opacity="0.3" d="M137.278 19.5823C137.278 19.938 137.172 20.2856 136.975 20.5813C136.777 20.877 136.496 21.1075 136.168 21.2436C135.839 21.3797 135.478 21.4153 135.129 21.3459C134.78 21.2765 134.46 21.1053 134.208 20.8538C133.957 20.6023 133.786 20.2819 133.716 19.9331C133.647 19.5843 133.682 19.2228 133.819 18.8942C133.955 18.5656 134.185 18.2848 134.481 18.0872C134.776 17.8896 135.124 17.7842 135.48 17.7842C135.957 17.7842 136.414 17.9736 136.751 18.3108C137.088 18.6481 137.278 19.1054 137.278 19.5823Z" fill="black"/>
<path opacity="0.3" d="M108.261 92.0753C108.261 92.0753 110.567 92.5728 110.648 94.253C110.825 97.864 110.818 97.9745 108.283 97.654C108.283 97.654 106.75 99.7579 103.036 99.1536L101.765 101.062H95.1948C97.0188 98.8847 98.4853 97.0828 99.1264 96.228C101.481 93.0923 112.483 88.4717 112.483 88.4717C112.483 88.4717 112.439 89.6692 108.261 92.0753Z" fill="black" fill-opacity="0.7"/>
</g>
<path d="M142.337 15.4922H59.7152C58.3008 15.4922 57.1543 16.6387 57.1543 18.0531V98.4901C57.1543 99.9045 58.3008 101.051 59.7152 101.051H142.337C143.752 101.051 144.898 99.9045 144.898 98.4901V18.0531C144.898 16.6387 143.752 15.4922 142.337 15.4922Z" stroke="#263238" stroke-linecap="round" stroke-linejoin="round"/>
<path d="M25.2634 152.924C25.2634 152.924 25.9119 148.204 26.3946 146.258C26.8773 144.313 29.7109 136.785 30.3262 132.569L23.0526 126.773C23.0526 126.773 20.3112 140.912 20.3112 143.13L18.8115 147.96" fill="white"/>
<path d="M25.2634 152.924C25.2634 152.924 25.9119 148.204 26.3946 146.258C26.8773 144.313 29.7109 136.785 30.3262 132.569L23.0526 126.773C23.0526 126.773 20.3112 140.912 20.3112 143.13L18.8115 147.96" stroke="#263238" stroke-linecap="round" stroke-linejoin="round"/>
<path d="M32.4748 137.901C30.9542 136.742 29.4533 135.514 27.972 134.217C25.8312 132.374 23.7457 130.37 21.7412 128.266C22.2262 125.915 22.8288 123.589 23.5467 121.298C24.2312 119.143 25.6913 117.319 27.6441 116.18L27.7178 116.136L28.0605 115.944C28.2742 115.83 28.4805 115.727 28.6795 115.638C29.3342 115.337 30.0217 115.111 30.7282 114.968L32.2942 135.554L32.4748 137.901Z" fill="#5856D6"/>
<mask id="mask2_1825_27988" style="mask-type:luminance" maskUnits="userSpaceOnUse" x="21" y="114" width="12" height="24">
<path d="M32.4757 137.901C30.9552 136.742 29.4543 135.514 27.973 134.217C25.8322 132.374 23.7467 130.37 21.7422 128.266C22.2272 125.915 22.8297 123.589 23.5477 121.298C24.2322 119.143 25.6923 117.319 27.6451 116.18L27.7188 116.136L28.0615 115.944C28.2752 115.83 28.4815 115.727 28.6805 115.638C29.3352 115.337 30.0227 115.111 30.7292 114.968L32.2952 135.554L32.4757 137.901Z" fill="white"/>
</mask>
<g mask="url(#mask2_1825_27988)">
<path opacity="0.3" d="M32.4757 137.901C30.9552 136.742 29.4543 135.514 27.973 134.217C25.8322 132.374 23.7467 130.37 21.7422 128.266C22.2272 125.915 22.8297 123.589 23.5477 121.298C24.2322 119.143 25.6923 117.319 27.6451 116.18L27.7188 116.136L28.0615 115.944C28.2752 115.83 28.4815 115.727 28.6805 115.638C29.3352 115.337 30.0227 115.111 30.7292 114.968L32.2952 135.554L32.4757 137.901Z" fill="black" fill-opacity="0.7"/>
</g>
<path d="M32.4748 137.901C30.9542 136.742 29.4533 135.514 27.972 134.217C25.8312 132.374 23.7457 130.37 21.7412 128.266C22.2262 125.915 22.8288 123.589 23.5467 121.298C24.2312 119.143 25.6913 117.319 27.6441 116.18L27.7178 116.136L28.0605 115.944C28.2742 115.83 28.4805 115.727 28.6795 115.638C29.3342 115.337 30.0217 115.111 30.7282 114.968L32.2942 135.554L32.4748 137.901Z" stroke="#263238" stroke-linecap="round" stroke-linejoin="round"/>
<path d="M24.895 126.461C24.895 126.461 25.7425 132.22 29.6335 134.416" stroke="#263238" stroke-linecap="round" stroke-linejoin="round"/>
<path d="M63.905 131.132C63.905 134.08 61.5063 146.004 61.5063 146.004L61.4252 156.48C61.4252 156.48 56.4619 158.127 48.4514 158.127C38.6353 158.127 34.2874 155.499 33.9042 155.253L33.8747 155.234L35.3486 147.972C35.3486 147.972 27.6107 129.71 27.4596 129.084C27.2201 128.155 27.0138 127.216 26.848 126.28C26.4171 124.118 26.3042 121.904 26.5127 119.71C26.6274 118.47 26.9922 117.267 27.5849 116.173C27.6267 116.099 27.6709 116.025 27.7176 115.951C27.9173 115.629 28.1508 115.329 28.414 115.056L28.484 114.982C28.7268 114.739 28.9866 114.514 29.2615 114.308C29.3536 114.238 29.4494 114.172 29.5452 114.105L29.7847 113.943L29.9394 113.844L30.1421 113.719L30.4553 113.538C36.2735 110.314 47.1028 110.811 47.1028 110.811C47.2221 110.772 47.346 110.749 47.4713 110.741H47.4971C47.7134 110.729 47.9303 110.746 48.1419 110.793C50.8391 111.316 55.7766 115.719 59.4134 120.742C60.5056 122.224 61.4696 123.797 62.2948 125.443C63.2897 127.448 63.905 129.423 63.905 131.132Z" fill="#5856D6"/>
<path opacity="0.3" d="M63.8385 130.124C61.8846 129.517 60.04 128.603 58.3741 127.415C55.7617 127.905 53.2413 125.304 52.5854 123.911L61.1561 123.358C61.5724 124.044 61.9483 124.733 62.2836 125.414C63.0554 126.889 63.5807 128.479 63.8385 130.124Z" fill="black" fill-opacity="0.7"/>
<path opacity="0.3" d="M37.0917 149.836C37.0917 149.836 39.0188 158.082 33.9045 155.242L33.875 155.223L35.3489 147.961C35.3489 147.961 27.611 129.699 27.4599 129.073C27.2204 128.144 27.0141 127.205 26.8482 126.269C26.4185 124.11 26.3055 121.901 26.5129 119.71C26.6277 118.471 26.9925 117.267 27.5852 116.173C27.6269 116.099 27.6712 116.025 27.7178 115.952C27.9176 115.629 28.151 115.329 28.4142 115.056L28.4843 114.982C28.7271 114.74 28.9869 114.514 29.2617 114.308C29.3538 114.238 29.4496 114.172 29.5455 114.106L29.785 113.943L29.9397 113.844L30.1424 113.719L30.4556 113.538C35.8094 113.951 41.7602 116.486 42.9099 121.689C42.9099 121.689 42.4235 129.659 40.6733 132.573C39.5863 134.39 39.2178 142.872 44.5938 140.418C42.9136 148.885 37.0917 149.836 37.0917 149.836Z" fill="black" fill-opacity="0.7"/>
<path d="M33.875 155.223L35.3489 147.96C35.3489 147.96 27.611 129.699 27.4599 129.073C27.2204 128.144 27.0141 127.205 26.8482 126.269C26.4185 124.11 26.3055 121.901 26.5129 119.71C26.6277 118.47 26.9925 117.267 27.5852 116.173C27.6269 116.099 27.6712 116.025 27.7178 115.951C27.9176 115.629 28.151 115.329 28.4142 115.056L28.4843 114.982C28.7271 114.739 28.9869 114.514 29.2617 114.308C34.6267 110.255 47.1031 110.811 47.1031 110.811C47.2224 110.772 47.3462 110.749 47.4715 110.741H47.4973C47.7136 110.729 47.9306 110.746 48.1422 110.793C50.8394 111.316 55.7769 115.719 59.4137 120.742C60.5059 122.224 61.4699 123.797 62.2951 125.443C63.301 127.481 63.9164 129.452 63.9164 131.151C63.9164 134.099 61.5176 146.022 61.5176 146.022L61.4366 156.498" stroke="#263238" stroke-linecap="round" stroke-linejoin="round"/>
<path d="M52.5048 94.1234C52.0664 93.578 50.1098 92.281 50.1098 92.281C49.7413 89.7349 49.5129 86.3376 46.8746 83.703C43.2673 80.1031 34.9436 81.2416 32.2169 86.6103C26.7746 97.3364 37.0623 107.44 49.6529 105.303C50.7251 105.122 51.4473 104.072 51.5947 99.0867L51.93 98.3903C51.93 98.3903 51.5837 97.2001 51.4768 96.6032C52.1106 95.9915 52.8217 94.5213 52.5048 94.1234Z" fill="white" stroke="#263238" stroke-linecap="round" stroke-linejoin="round"/>
<path d="M49.4093 88.2979C49.0864 88.8234 48.8383 89.3914 48.6724 89.9854" stroke="#263238" stroke-linecap="round" stroke-linejoin="round"/>
<path d="M49.6011 93.0957C49.6011 93.0957 50.478 93.6263 50.876 95.3065" stroke="#263238" stroke-linecap="round" stroke-linejoin="round"/>
<path d="M51.8155 98.6406C51.8155 98.6406 51.4729 99.1933 50.0469 99.0312" stroke="#263238" stroke-linecap="round" stroke-linejoin="round"/>
<path d="M48.0754 82.3107C48.0754 82.3107 51.3916 80.9436 50.4336 87.4287C49.4756 93.9138 44.6818 101.626 40.6396 100.181L40.7097 99.603C40.7097 99.603 44.247 100.999 47.2242 94.8497C50.2015 88.6999 49.9546 83.0587 48.2522 84.0498L48.0754 82.3107Z" fill="#263238"/>
<path d="M47.7772 92.3623C47.7772 92.3623 46.5096 95.7043 45.4964 96.7839C45.4964 96.7839 45.0874 95.5054 44.1109 95.4943C43.1345 95.4832 42.2686 92.8855 42.2686 92.8855L47.7772 92.3623Z" fill="#263238"/>
<path d="M46.4139 92.5176C46.4139 92.5176 44.0852 98.1957 45.7912 102.581C47.4972 106.965 52.3058 110.259 52.3058 110.259L50.7545 109.556C50.7545 109.556 46.6718 106.869 45.2459 102.219C44.4079 99.27 44.3876 96.1483 45.1869 93.1882L46.4139 92.5176Z" fill="#263238"/>
<path d="M27.2241 84.96C27.2241 84.96 23.3441 86.5481 23.5541 92.2999C23.7642 98.0517 27.7068 103.052 28.499 110.384C29.188 116.763 22.235 122.378 29.2765 129.832C29.2765 129.832 26.1924 125.042 27.132 119.685C28.0716 114.327 31.2957 115.097 28.9043 106.375C26.5129 97.6538 21.4391 92.4952 26.6935 86.935L27.2241 84.96Z" fill="#263238"/>
<path d="M49.8482 108.785C42.7515 104.828 44.6896 96.3787 44.6896 96.3787C50.0288 92.4434 50.7399 85.074 49.7598 83.1764C48.7796 81.2788 46.6425 81.9273 46.6425 81.9273C38.1345 77.8741 27.6626 81.6583 25.6729 87.6165C23.1267 95.2475 27.4784 101.11 29.6044 107.514C31.5131 113.269 27.0915 114.312 27.1062 120.042C26.2698 130.728 37.2281 135.19 37.2281 135.19C36.9396 135.016 36.7009 134.771 36.535 134.478C36.3691 134.184 36.2817 133.854 36.2811 133.517C36.2811 132.349 39.2694 132.349 41.2371 129.058C42.8694 126.328 42.9983 119.67 43.5437 116.449C44.2806 113.535 45.2018 111.206 47.1068 110.782C52.1254 109.658 56.4549 114.53 56.4549 114.53C56.4549 114.53 56.9486 112.742 49.8482 108.785Z" fill="#263238"/>
<g opacity="0.3">
<path d="M47.7778 83.0957C48.5515 84.4554 42.7444 91.6479 40.6405 97.864C38.5365 104.08 40.6773 107.724 40.6773 107.724" stroke="white" stroke-linecap="round" stroke-linejoin="round"/>
<path d="M34.7667 84.96C34.7667 84.96 28.4475 90.4023 32.0437 100.355C35.64 110.307 34.0482 117.168 32.8507 122.533C31.6531 127.898 32.6259 129.74 34.0851 131.199" stroke="white" stroke-linecap="round" stroke-linejoin="round"/>
<path d="M42.7183 101.387C42.7183 101.387 46.1082 105.204 43.7832 110.72C41.4581 116.236 40.1943 120.179 39.3173 124.471C38.4404 128.764 36.4985 129.833 36.4985 129.833" stroke="white" stroke-linecap="round" stroke-linejoin="round"/>
<path d="M42.9138 82.1892C42.9138 82.1892 39.417 82.0271 37.7552 86.4966C36.0934 90.9662 37.6594 98.6893 37.0772 101.387" stroke="white" stroke-linecap="round" stroke-linejoin="round"/>
<path d="M33.8753 82.1885C33.8753 82.1885 28.7462 82.4022 27.1102 89.4952C25.4742 96.5883 30.4006 102.55 30.9238 108.077C31.4471 113.604 28.3446 118.722 28.5325 122.532C28.7204 126.342 30.9238 128.354 30.9238 128.354" stroke="white" stroke-linecap="round" stroke-linejoin="round"/>
</g>
<path d="M65.9461 111.368C65.9461 111.368 77.1698 112.204 78.7726 112.204C80.3755 112.204 95.2432 97.4654 97.8667 94.5655C100.49 91.6657 111.869 88.0215 111.869 88.0215C111.869 88.0215 111.725 89.2264 107.351 91.2382C107.351 91.2382 109.603 91.9383 109.536 93.6186C109.393 97.2332 109.374 97.3438 106.876 96.7948C106.876 96.7948 105.162 98.7587 101.518 97.8265C101.518 97.8265 92.7745 108.704 88.9092 113.671C85.044 118.638 83.4448 120.303 81.9857 120.845C80.5265 121.386 62.7441 122.543 62.7441 122.543L65.9461 111.368Z" fill="white" stroke="#263238" stroke-linecap="round" stroke-linejoin="round"/>
<path d="M51.8157 124.593C57.6376 128.237 67.402 123.719 67.402 123.719C67.402 123.719 69.1523 115.79 67.402 110.716C67.402 110.716 55.1578 108.332 48.4516 110.631C48.1024 110.763 47.7847 110.967 47.5188 111.229C47.253 111.491 47.0448 111.806 46.9077 112.153" fill="#5856D6"/>
<path d="M51.8157 124.593C57.6376 128.237 67.402 123.719 67.402 123.719C67.402 123.719 69.1523 115.79 67.402 110.716C67.402 110.716 55.1578 108.332 48.4516 110.631C48.1024 110.763 47.7847 110.967 47.5188 111.229C47.253 111.491 47.0448 111.806 46.9077 112.153" stroke="#263238" stroke-linecap="round" stroke-linejoin="round"/>
<path d="M65.8545 110.45C66.8298 114.531 66.9103 118.775 66.0903 122.89" stroke="#263238" stroke-linecap="round" stroke-linejoin="round"/>
<path d="M63.9053 115.55C63.9053 115.55 59.8521 122.16 54.6714 123.133" stroke="#263238" stroke-linecap="round" stroke-linejoin="round"/>
<path d="M60.1354 125.815C60.1354 125.815 57.4419 129.01 54.1367 129.01" stroke="#263238" stroke-linecap="round" stroke-linejoin="round"/>
<path d="M57.5417 126.015C57.7943 126.64 57.7943 127.339 57.5417 127.964C57.5417 127.964 57.9986 129.884 57.1364 132.651C56.5026 134.692 56.5321 140.481 56.2373 144.552C56.2373 144.552 57.1732 149.464 57.1364 156.848" stroke="#263238" stroke-linecap="round" stroke-linejoin="round"/>
<path d="M51.3105 109.957C51.3105 109.957 56.3254 109.625 59.2879 113.122" stroke="#263238" stroke-linecap="round" stroke-linejoin="round"/>
<path d="M108.619 94.6104C108.619 94.6104 107.882 95.8853 107.016 96.1764C107.016 96.1764 106.95 97.5065 104.724 97.9524" stroke="#263238" stroke-linecap="round" stroke-linejoin="round"/>
<path d="M108.004 95.4463C108.215 95.5696 108.374 95.7644 108.453 95.9953" stroke="#263238" stroke-linecap="round" stroke-linejoin="round"/>
<path d="M35.334 147.961C35.334 147.961 40.5147 154.715 45.4522 152.287" stroke="#263238" stroke-linecap="round" stroke-linejoin="round"/>
<path d="M48.4513 133.974C48.4513 133.974 44.9545 144.707 37.084 144.221" stroke="#263238" stroke-linecap="round" stroke-linejoin="round"/>
</svg>
