<svg width="40" height="40" viewBox="0 0 40 40" fill="none" xmlns="http://www.w3.org/2000/svg">
<rect width="40" height="40" rx="20" fill="#FFF1DD"/>
<path d="M27.5 11H25.25V10.25C25.25 10.0511 25.171 9.86032 25.0303 9.71967C24.8897 9.57902 24.6989 9.5 24.5 9.5C24.3011 9.5 24.1103 9.57902 23.9697 9.71967C23.829 9.86032 23.75 10.0511 23.75 10.25V11H20.75V10.25C20.75 10.0511 20.671 9.86032 20.5303 9.71967C20.3897 9.57902 20.1989 9.5 20 9.5C19.8011 9.5 19.6103 9.57902 19.4697 9.71967C19.329 9.86032 19.25 10.0511 19.25 10.25V11H16.25V10.25C16.25 10.0511 16.171 9.86032 16.0303 9.71967C15.8897 9.57902 15.6989 9.5 15.5 9.5C15.3011 9.5 15.1103 9.57902 14.9697 9.71967C14.829 9.86032 14.75 10.0511 14.75 10.25V11H12.5C12.3011 11 12.1103 11.079 11.9697 11.2197C11.829 11.3603 11.75 11.5511 11.75 11.75V26.75C11.75 27.5456 12.0661 28.3087 12.6287 28.8713C13.1913 29.4339 13.9544 29.75 14.75 29.75H25.25C26.0456 29.75 26.8087 29.4339 27.3713 28.8713C27.9339 28.3087 28.25 27.5456 28.25 26.75V11.75C28.25 11.5511 28.171 11.3603 28.0303 11.2197C27.8897 11.079 27.6989 11 27.5 11ZM19.25 13.25C19.25 13.0511 19.329 12.8603 19.4697 12.7197C19.6103 12.579 19.8011 12.5 20 12.5C20.1989 12.5 20.3897 12.579 20.5303 12.7197C20.671 12.8603 20.75 13.0511 20.75 13.25V14C20.75 14.1989 20.671 14.3897 20.5303 14.5303C20.3897 14.671 20.1989 14.75 20 14.75C19.8011 14.75 19.6103 14.671 19.4697 14.5303C19.329 14.3897 19.25 14.1989 19.25 14V13.25ZM15.5 14.75C15.3011 14.75 15.1103 14.671 14.9697 14.5303C14.829 14.3897 14.75 14.1989 14.75 14V13.25C14.75 13.0511 14.829 12.8603 14.9697 12.7197C15.1103 12.579 15.3011 12.5 15.5 12.5C15.6989 12.5 15.8897 12.579 16.0303 12.7197C16.171 12.8603 16.25 13.0511 16.25 13.25V14C16.25 14.1989 16.171 14.3897 16.0303 14.5303C15.8897 14.671 15.6989 14.75 15.5 14.75ZM23 23.75H17C16.8011 23.75 16.6103 23.671 16.4697 23.5303C16.329 23.3897 16.25 23.1989 16.25 23C16.25 22.8011 16.329 22.6103 16.4697 22.4697C16.6103 22.329 16.8011 22.25 17 22.25H23C23.1989 22.25 23.3897 22.329 23.5303 22.4697C23.671 22.6103 23.75 22.8011 23.75 23C23.75 23.1989 23.671 23.3897 23.5303 23.5303C23.3897 23.671 23.1989 23.75 23 23.75ZM23 20.75H17C16.8011 20.75 16.6103 20.671 16.4697 20.5303C16.329 20.3897 16.25 20.1989 16.25 20C16.25 19.8011 16.329 19.6103 16.4697 19.4697C16.6103 19.329 16.8011 19.25 17 19.25H23C23.1989 19.25 23.3897 19.329 23.5303 19.4697C23.671 19.6103 23.75 19.8011 23.75 20C23.75 20.1989 23.671 20.3897 23.5303 20.5303C23.3897 20.671 23.1989 20.75 23 20.75ZM25.25 14C25.25 14.1989 25.171 14.3897 25.0303 14.5303C24.8897 14.671 24.6989 14.75 24.5 14.75C24.3011 14.75 24.1103 14.671 23.9697 14.5303C23.829 14.3897 23.75 14.1989 23.75 14V13.25C23.75 13.0511 23.829 12.8603 23.9697 12.7197C24.1103 12.579 24.3011 12.5 24.5 12.5C24.6989 12.5 24.8897 12.579 25.0303 12.7197C25.171 12.8603 25.25 13.0511 25.25 13.25V14Z" fill="#FF9500"/>
</svg>
