<svg width="40" height="40" viewBox="0 0 40 40" fill="none" xmlns="http://www.w3.org/2000/svg">
<rect width="40" height="40" rx="20" fill="#F3DAFF"/>
<path d="M29.6497 28.6256C29.5838 28.7396 29.4891 28.8343 29.3751 28.9002C29.261 28.966 29.1316 29.0006 29 29.0006H11C10.8684 29.0005 10.7391 28.9657 10.6252 28.8998C10.5113 28.8339 10.4168 28.7393 10.351 28.6253C10.2853 28.5113 10.2507 28.382 10.2507 28.2504C10.2508 28.1188 10.2854 27.9896 10.3512 27.8756C11.779 25.4072 13.9793 23.6372 16.5472 22.7981C15.277 22.042 14.2902 20.8898 13.7382 19.5185C13.1862 18.1473 13.0997 16.6327 13.4918 15.2075C13.8839 13.7823 14.733 12.5252 15.9087 11.6292C17.0845 10.7333 18.5218 10.248 20 10.248C21.4781 10.248 22.9155 10.7333 24.0912 11.6292C25.2669 12.5252 26.116 13.7823 26.5081 15.2075C26.9003 16.6327 26.8137 18.1473 26.2617 19.5185C25.7098 20.8898 24.7229 22.042 23.4528 22.7981C26.0206 23.6372 28.2209 25.4072 29.6487 27.8756C29.7147 27.9895 29.7495 28.1188 29.7497 28.2505C29.7498 28.3821 29.7153 28.5115 29.6497 28.6256Z" fill="#AF52DE"/>
</svg>
