<svg width="34" height="34" viewBox="0 0 34 34" fill="none" xmlns="http://www.w3.org/2000/svg">
<path d="M24.8242 17.7267C24.4218 21.0772 22.2274 22.4159 21.2797 23.3877C20.3305 24.3624 20.5005 24.5565 20.5642 25.9859C20.5749 26.1628 20.5492 26.3399 20.4888 26.5065C20.4283 26.673 20.3344 26.8254 20.2128 26.9543C20.0913 27.0832 19.9446 27.1858 19.7818 27.2558C19.6191 27.3258 19.4437 27.3618 19.2666 27.3615H15.5011C15.324 27.3612 15.1489 27.3248 14.9864 27.2546C14.8238 27.1844 14.6773 27.0817 14.5557 26.953C14.4342 26.8243 14.3401 26.6722 14.2793 26.5059C14.2185 26.3396 14.1922 26.1627 14.202 25.9859C14.202 24.5834 14.3323 24.2576 13.488 23.3877C12.4113 22.3111 9.87832 20.791 9.87832 16.6104C9.87185 15.572 10.0806 14.5435 10.4913 13.5897C10.9021 12.636 11.506 11.7777 12.2649 11.0689C13.0238 10.3601 13.9214 9.81625 14.9009 9.47157C15.8805 9.12689 16.9209 8.98887 17.9564 9.06622C18.992 9.14357 20.0003 9.4346 20.9178 9.92098C21.8353 10.4074 22.642 11.0785 23.2873 11.8922C23.9325 12.7058 24.4022 13.6443 24.6667 14.6485C24.9312 15.6527 24.9848 16.7008 24.8242 17.7267Z" stroke="#116A31" stroke-width="1.5" stroke-linecap="round" stroke-linejoin="round"/>
<path d="M15.2021 27.2836V29.4256C15.2021 30.0107 15.5279 30.4909 15.9289 30.4909H18.8373C19.241 30.4909 19.5654 30.0093 19.5654 29.4256V27.2836M16.2788 12.3519C15.4423 12.3523 14.6402 12.6849 14.0488 13.2765C13.4575 13.8681 13.1253 14.6704 13.1253 15.5069M27.7708 16.8966H30.3689M25.1556 8.37961L26.9987 6.53652M26.5723 24.1159L28.4154 25.9576M17.3838 3.40002V5.50094M7.80711 6.53511L9.63744 8.37961M6.39044 25.9576L8.22077 24.1159M6.99677 16.8966H4.40002" stroke="#116A31" stroke-width="1.5" stroke-linecap="round" stroke-linejoin="round"/>
</svg>
