<svg width="30" height="28" viewBox="0 0 30 28" fill="none" xmlns="http://www.w3.org/2000/svg">
<path d="M28.6875 25.5H27.625V15.9375C27.625 15.9309 27.625 15.9256 27.625 15.9189C27.625 15.9123 27.625 15.8804 27.625 15.8618C27.625 15.8432 27.625 15.8246 27.625 15.8074C27.6257 15.8007 27.6257 15.7941 27.625 15.7874L25.6328 1.82485C25.5581 1.31704 25.303 0.853126 24.9143 0.518012C24.5255 0.182899 24.029 -0.000990849 23.5158 4.01568e-06H21.1092C20.5982 0.00219189 20.105 0.18752 19.719 0.522346C19.333 0.857172 19.0798 1.3193 19.0055 1.82485L17.4702 12.5707L12.325 8.7125C12.1671 8.59411 11.9794 8.52202 11.7829 8.5043C11.5864 8.48658 11.3888 8.52393 11.2123 8.61218C11.0358 8.70042 10.8874 8.83607 10.7837 9.00392C10.6799 9.17177 10.625 9.36519 10.625 9.56251V13.8125L3.825 8.7125C3.66714 8.59411 3.47944 8.52202 3.28292 8.5043C3.0864 8.48658 2.88882 8.52393 2.71234 8.61218C2.53585 8.70042 2.38742 8.83607 2.28368 9.00392C2.17995 9.17177 2.125 9.36519 2.125 9.56251V25.5H1.0625C0.780707 25.5 0.510456 25.6119 0.311199 25.8112C0.111942 26.0105 0 26.2807 0 26.5625C0 26.8443 0.111942 27.1146 0.311199 27.3138C0.510456 27.5131 0.780707 27.625 1.0625 27.625H28.6875C28.9693 27.625 29.2395 27.5131 29.4388 27.3138C29.6381 27.1146 29.75 26.8443 29.75 26.5625C29.75 26.2807 29.6381 26.0105 29.4388 25.8112C29.2395 25.6119 28.9693 25.5 28.6875 25.5ZM12.2188 22.3125H8.5C8.21821 22.3125 7.94796 22.2006 7.7487 22.0013C7.54944 21.8021 7.4375 21.5318 7.4375 21.25C7.4375 20.9682 7.54944 20.698 7.7487 20.4987C7.94796 20.2994 8.21821 20.1875 8.5 20.1875H12.2188C12.5005 20.1875 12.7708 20.2994 12.9701 20.4987C13.1693 20.698 13.2812 20.9682 13.2812 21.25C13.2812 21.5318 13.1693 21.8021 12.9701 22.0013C12.7708 22.2006 12.5005 22.3125 12.2188 22.3125ZM21.25 22.3125H17.5312C17.2495 22.3125 16.9792 22.2006 16.7799 22.0013C16.5807 21.8021 16.4688 21.5318 16.4688 21.25C16.4688 20.9682 16.5807 20.698 16.7799 20.4987C16.9792 20.2994 17.2495 20.1875 17.5312 20.1875H21.25C21.5318 20.1875 21.802 20.2994 22.0013 20.4987C22.2006 20.698 22.3125 20.9682 22.3125 21.25C22.3125 21.5318 22.2006 21.8021 22.0013 22.0013C21.802 22.2006 21.5318 22.3125 21.25 22.3125ZM20.5421 14.875L19.4092 14.025L21.1092 2.125H23.5158L25.338 14.875H20.5421Z" fill="black"/>
</svg>
