<svg width="26" height="26" viewBox="0 0 26 26" fill="none" xmlns="http://www.w3.org/2000/svg">
<path d="M23.1908 11.9567H19.3375V2.125C19.3375 1.56141 19.1136 1.02091 18.7151 0.622398C18.3166 0.223883 17.7761 0 17.2125 0H8.10333C7.53975 0 6.99925 0.223883 6.60073 0.622398C6.20222 1.02091 5.97833 1.56141 5.97833 2.125V11.9567H2.125C1.56141 11.9567 1.02091 12.1805 0.622398 12.5791C0.223883 12.9776 0 13.5181 0 14.0817V23.205C0 23.7686 0.223883 24.3091 0.622398 24.7076C1.02091 25.1061 1.56141 25.33 2.125 25.33H11.2413C11.7662 25.331 12.2722 25.1336 12.6579 24.7775C13.0458 25.1301 13.5504 25.3269 14.0746 25.33H23.1979C23.7615 25.33 24.302 25.1061 24.7005 24.7076C25.099 24.3091 25.3229 23.7686 25.3229 23.205V14.0817C25.3229 13.802 25.2677 13.5251 25.1605 13.2668C25.0532 13.0085 24.8961 12.774 24.698 12.5766C24.4999 12.3791 24.2648 12.2228 24.0062 12.1164C23.7476 12.01 23.4705 11.9557 23.1908 11.9567ZM11.9496 23.205C11.9496 23.3929 11.875 23.573 11.7421 23.7059C11.6093 23.8387 11.4291 23.9133 11.2413 23.9133H2.125C1.93714 23.9133 1.75697 23.8387 1.62413 23.7059C1.49129 23.573 1.41667 23.3929 1.41667 23.205V14.0817C1.41667 13.8938 1.49129 13.7136 1.62413 13.5808C1.75697 13.448 1.93714 13.3733 2.125 13.3733H4.91583V16.2067C4.91583 16.3945 4.99046 16.5747 5.1233 16.7075C5.25614 16.8404 5.4363 16.915 5.62417 16.915H7.74917C7.93589 16.9114 8.11396 16.8356 8.24602 16.7035C8.37808 16.5715 8.45387 16.3934 8.4575 16.2067V13.3733H11.9496V23.205ZM7.395 11.9567V2.125C7.395 1.93714 7.46963 1.75697 7.60247 1.62413C7.7353 1.49129 7.91547 1.41667 8.10333 1.41667H10.88V4.25C10.88 4.43786 10.9546 4.61803 11.0875 4.75087C11.2203 4.88371 11.4005 4.95833 11.5883 4.95833H13.7133C13.9012 4.95833 14.0814 4.88371 14.2142 4.75087C14.347 4.61803 14.4217 4.43786 14.4217 4.25V1.41667H17.2125C17.4004 1.41667 17.5805 1.49129 17.7134 1.62413C17.8462 1.75697 17.9208 1.93714 17.9208 2.125V11.9567H7.395ZM23.8992 23.205C23.8955 23.3917 23.8197 23.5698 23.6877 23.7019C23.5556 23.8339 23.3776 23.9097 23.1908 23.9133H14.0746C13.8879 23.9097 13.7098 23.8339 13.5777 23.7019C13.4457 23.5698 13.3699 23.3917 13.3662 23.205V13.3733H16.8654V16.2067C16.8654 16.3945 16.94 16.5747 17.0729 16.7075C17.2057 16.8404 17.3859 16.915 17.5737 16.915H19.6987C19.8866 16.915 20.0668 16.8404 20.1996 16.7075C20.3325 16.5747 20.4071 16.3945 20.4071 16.2067V13.3733H23.1979C23.3858 13.3733 23.5659 13.448 23.6988 13.5808C23.8316 13.7136 23.9062 13.8938 23.9062 14.0817L23.8992 23.205Z" fill="#116A31"/>
</svg>
