<svg width="40" height="40" viewBox="0 0 40 40" fill="none" xmlns="http://www.w3.org/2000/svg">
<rect width="40" height="40" rx="20" fill="#E1FFDD"/>
<path d="M27.5 13.25C26.4783 13.2499 25.4657 13.4407 24.5141 13.8125C23.1716 11.0281 20.4594 9.64434 20.3356 9.58246C20.2314 9.53032 20.1165 9.50317 20 9.50317C19.8835 9.50317 19.7686 9.53032 19.6644 9.58246C19.5397 9.64434 16.8284 11.0281 15.4859 13.8125C14.5343 13.4407 13.5217 13.2499 12.5 13.25C12.3011 13.25 12.1103 13.329 11.9697 13.4696C11.829 13.6103 11.75 13.801 11.75 14V21.5C11.75 23.688 12.6192 25.7864 14.1664 27.3336C15.7135 28.8808 17.812 29.75 20 29.75C22.188 29.75 24.2865 28.8808 25.8336 27.3336C27.3808 25.7864 28.25 23.688 28.25 21.5V14C28.25 13.801 28.171 13.6103 28.0303 13.4696C27.8897 13.329 27.6989 13.25 27.5 13.25ZM19.25 28.2087C17.6006 28.0222 16.0776 27.2354 14.971 25.9982C13.8645 24.7609 13.2519 23.1598 13.25 21.5V20.0412C14.8994 20.2277 16.4224 21.0145 17.529 22.2517C18.6355 23.489 19.2481 25.0901 19.25 26.75V28.2087ZM19.25 22.0118C18.5622 21.0315 17.6692 20.2127 16.6331 19.6122C15.597 19.0117 14.4425 18.644 13.25 18.5346V14.7912C14.8994 14.9777 16.4224 15.7645 17.529 17.0017C18.6355 18.239 19.2481 19.8401 19.25 21.5V22.0118ZM16.8266 14.479C17.6909 12.6781 19.3025 11.5418 20 11.1134C20.6975 11.5428 22.3091 12.679 23.1725 14.479C21.786 15.3371 20.6827 16.5842 20 18.065C19.3173 16.584 18.2136 15.3368 16.8266 14.479ZM26.75 21.5C26.7481 23.1598 26.1355 24.7609 25.029 25.9982C23.9224 27.2354 22.3994 28.0222 20.75 28.2087V26.75C20.7519 25.0901 21.3645 23.489 22.471 22.2517C23.5776 21.0145 25.1006 20.2277 26.75 20.0412V21.5ZM26.75 18.5346C25.5575 18.644 24.403 19.0117 23.3669 19.6122C22.3308 20.2127 21.4378 21.0315 20.75 22.0118V21.5C20.7519 19.8401 21.3645 18.239 22.471 17.0017C23.5776 15.7645 25.1006 14.9777 26.75 14.7912V18.5346Z" fill="#0F913D"/>
</svg>
