<svg width="40" height="40" viewBox="0 0 40 40" fill="none" xmlns="http://www.w3.org/2000/svg">
<rect width="40" height="40" rx="20" fill="#E1FFDD"/>
<path d="M27.5 13.2497C26.4783 13.2497 25.4657 13.4405 24.5141 13.8122C23.1716 11.0278 20.4594 9.64409 20.3356 9.58222C20.2314 9.53008 20.1165 9.50293 20 9.50293C19.8835 9.50293 19.7686 9.53008 19.6644 9.58222C19.5397 9.64409 16.8284 11.0278 15.4859 13.8122C14.5343 13.4405 13.5217 13.2497 12.5 13.2497C12.3011 13.2497 12.1103 13.3287 11.9697 13.4694C11.829 13.61 11.75 13.8008 11.75 13.9997V21.4997C11.75 23.6878 12.6192 25.7862 14.1664 27.3333C15.7135 28.8805 17.812 29.7497 20 29.7497C22.188 29.7497 24.2865 28.8805 25.8336 27.3333C27.3808 25.7862 28.25 23.6878 28.25 21.4997V13.9997C28.25 13.8008 28.171 13.61 28.0303 13.4694C27.8897 13.3287 27.6989 13.2497 27.5 13.2497ZM19.25 28.2085C17.6006 28.022 16.0776 27.2352 14.971 25.9979C13.8645 24.7607 13.2519 23.1596 13.25 21.4997V20.041C14.8994 20.2274 16.4224 21.0143 17.529 22.2515C18.6355 23.4887 19.2481 25.0899 19.25 26.7497V28.2085ZM19.25 22.0116C18.5622 21.0313 17.6692 20.2124 16.6331 19.612C15.597 19.0115 14.4425 18.6438 13.25 18.5344V14.791C14.8994 14.9774 16.4224 15.7643 17.529 17.0015C18.6355 18.2387 19.2481 19.8399 19.25 21.4997V22.0116ZM16.8266 14.4788C17.6909 12.6778 19.3025 11.5416 20 11.1132C20.6975 11.5425 22.3091 12.6788 23.1725 14.4788C21.786 15.3368 20.6827 16.584 20 18.0647C19.3173 16.5837 18.2136 15.3365 16.8266 14.4788ZM26.75 21.4997C26.7481 23.1596 26.1355 24.7607 25.029 25.9979C23.9224 27.2352 22.3994 28.022 20.75 28.2085V26.7497C20.7519 25.0899 21.3645 23.4887 22.471 22.2515C23.5776 21.0143 25.1006 20.2274 26.75 20.041V21.4997ZM26.75 18.5344C25.5575 18.6438 24.403 19.0115 23.3669 19.612C22.3308 20.2124 21.4378 21.0313 20.75 22.0116V21.4997C20.7519 19.8399 21.3645 18.2387 22.471 17.0015C23.5776 15.7643 25.1006 14.9774 26.75 14.791V18.5344Z" fill="#0F913D"/>
</svg>
