<svg width="144" height="30" viewBox="0 0 144 30" fill="none" xmlns="http://www.w3.org/2000/svg">
<rect width="144" height="30" rx="6" fill="black"/>
<path d="M13.9787 20H12.348L16.0121 9.81818H17.7869L21.451 20H19.8203L16.9418 11.6676H16.8622L13.9787 20ZM14.2521 16.0128H19.5419V17.3054H14.2521V16.0128ZM25.1736 20.1491C24.5572 20.1491 24.007 19.9917 23.5231 19.6768C23.0425 19.3587 22.6646 18.9062 22.3896 18.3196C22.1178 17.7296 21.9819 17.022 21.9819 16.1967C21.9819 15.3714 22.1194 14.6655 22.3945 14.0788C22.6729 13.4922 23.0541 13.0431 23.538 12.7315C24.0219 12.42 24.5704 12.2642 25.1836 12.2642C25.6575 12.2642 26.0387 12.3438 26.3271 12.5028C26.6187 12.6586 26.8441 12.8409 27.0032 13.0497C27.1656 13.2585 27.2915 13.4425 27.381 13.6016H27.4705V9.81818H28.957V20H27.5053V18.8118H27.381C27.2915 18.9742 27.1623 19.1598 26.9932 19.3686C26.8275 19.5774 26.5988 19.7597 26.3072 19.9155C26.0155 20.0713 25.6377 20.1491 25.1736 20.1491ZM25.5018 18.8814C25.9293 18.8814 26.2906 18.7687 26.5856 18.5433C26.8839 18.3146 27.1092 17.9981 27.2617 17.5938C27.4175 17.1894 27.4954 16.7187 27.4954 16.1818C27.4954 15.6515 27.4191 15.1875 27.2667 14.7898C27.1142 14.392 26.8905 14.0821 26.5955 13.8601C26.3005 13.638 25.936 13.527 25.5018 13.527C25.0543 13.527 24.6815 13.643 24.3832 13.875C24.0849 14.107 23.8595 14.4235 23.707 14.8246C23.5579 15.2256 23.4833 15.678 23.4833 16.1818C23.4833 16.6922 23.5595 17.1513 23.712 17.5589C23.8645 17.9666 24.0898 18.2898 24.3881 18.5284C24.6897 18.7637 25.061 18.8814 25.5018 18.8814ZM33.5733 20.1491C32.9568 20.1491 32.4066 19.9917 31.9227 19.6768C31.4422 19.3587 31.0643 18.9062 30.7892 18.3196C30.5174 17.7296 30.3816 17.022 30.3816 16.1967C30.3816 15.3714 30.5191 14.6655 30.7942 14.0788C31.0726 13.4922 31.4538 13.0431 31.9377 12.7315C32.4216 12.42 32.9701 12.2642 33.5833 12.2642C34.0572 12.2642 34.4384 12.3438 34.7267 12.5028C35.0184 12.6586 35.2438 12.8409 35.4029 13.0497C35.5653 13.2585 35.6912 13.4425 35.7807 13.6016H35.8702V9.81818H37.3567V20H35.905V18.8118H35.7807C35.6912 18.9742 35.5619 19.1598 35.3929 19.3686C35.2272 19.5774 34.9985 19.7597 34.7068 19.9155C34.4152 20.0713 34.0373 20.1491 33.5733 20.1491ZM33.9014 18.8814C34.329 18.8814 34.6903 18.7687 34.9852 18.5433C35.2835 18.3146 35.5089 17.9981 35.6614 17.5938C35.8172 17.1894 35.895 16.7187 35.895 16.1818C35.895 15.6515 35.8188 15.1875 35.6664 14.7898C35.5139 14.392 35.2902 14.0821 34.9952 13.8601C34.7002 13.638 34.3356 13.527 33.9014 13.527C33.454 13.527 33.0811 13.643 32.7828 13.875C32.4845 14.107 32.2592 14.4235 32.1067 14.8246C31.9575 15.2256 31.883 15.678 31.883 16.1818C31.883 16.6922 31.9592 17.1513 32.1117 17.5589C32.2641 17.9666 32.4895 18.2898 32.7878 18.5284C33.0894 18.7637 33.4606 18.8814 33.9014 18.8814ZM50.7928 9.81818V20H49.3808L44.2054 12.5327H44.1109V20H42.5747V9.81818H43.9966L49.177 17.2955H49.2715V9.81818H50.7928ZM55.8416 20.1541C55.0892 20.1541 54.4412 19.9934 53.8977 19.6719C53.3574 19.3471 52.9398 18.8913 52.6448 18.3047C52.3532 17.7147 52.2073 17.0237 52.2073 16.2315C52.2073 15.4493 52.3532 14.7599 52.6448 14.1634C52.9398 13.5668 53.3508 13.1011 53.8778 12.7663C54.4081 12.4316 55.0279 12.2642 55.7372 12.2642C56.168 12.2642 56.5857 12.3355 56.99 12.478C57.3944 12.6205 57.7573 12.8442 58.0788 13.1491C58.4003 13.4541 58.6538 13.8501 58.8394 14.3374C59.0251 14.8213 59.1179 15.4096 59.1179 16.1023V16.6293H53.0475V15.5156H57.6612C57.6612 15.1245 57.5816 14.7782 57.4225 14.4766C57.2635 14.1716 57.0397 13.9313 56.7514 13.7557C56.4663 13.58 56.1316 13.4922 55.7471 13.4922C55.3295 13.4922 54.9649 13.5949 54.6534 13.8004C54.3451 14.0026 54.1065 14.2678 53.9375 14.5959C53.7717 14.9207 53.6889 15.2737 53.6889 15.6548V16.5249C53.6889 17.0353 53.7784 17.4695 53.9573 17.8274C54.1396 18.1854 54.3932 18.4588 54.718 18.6477C55.0428 18.8333 55.4223 18.9261 55.8565 18.9261C56.1382 18.9261 56.3951 18.8864 56.6271 18.8068C56.8591 18.724 57.0596 18.6013 57.2287 18.4389C57.3977 18.2765 57.5269 18.076 57.6164 17.8374L59.0234 18.0909C58.9107 18.5052 58.7085 18.8681 58.4169 19.1797C58.1285 19.4879 57.7656 19.7282 57.3281 19.9006C56.8939 20.0696 56.3984 20.1541 55.8416 20.1541ZM62.0451 20L59.7979 12.3636H61.3341L62.8306 17.9716H62.9051L64.4066 12.3636H65.9428L67.4343 17.9467H67.5088L68.9953 12.3636H70.5316L68.2894 20H66.773L65.2219 14.4865H65.1076L63.5564 20H62.0451ZM83.4953 13.1293H81.9442C81.8845 12.7978 81.7735 12.5062 81.6111 12.2543C81.4487 12.0024 81.2498 11.7886 81.0145 11.6129C80.7792 11.4373 80.5157 11.3047 80.224 11.2152C79.9357 11.1257 79.6291 11.081 79.3043 11.081C78.7176 11.081 78.1923 11.2285 77.7283 11.5234C77.2676 11.8184 76.903 12.2509 76.6345 12.821C76.3694 13.3911 76.2368 14.0871 76.2368 14.9091C76.2368 15.7377 76.3694 16.437 76.6345 17.0071C76.903 17.5772 77.2692 18.008 77.7332 18.2997C78.1973 18.5914 78.7193 18.7372 79.2993 18.7372C79.6208 18.7372 79.9257 18.6941 80.2141 18.608C80.5057 18.5185 80.7692 18.3875 81.0045 18.2152C81.2399 18.0429 81.4387 17.8324 81.6011 17.5838C81.7669 17.3319 81.8812 17.0436 81.9442 16.7188L83.4953 16.7237C83.4125 17.2242 83.2517 17.6849 83.0131 18.1058C82.7778 18.5234 82.4745 18.8847 82.1033 19.1896C81.7354 19.4912 81.3144 19.7249 80.8405 19.8906C80.3665 20.0563 79.8495 20.1392 79.2894 20.1392C78.4077 20.1392 77.6222 19.9304 76.9328 19.5128C76.2434 19.0919 75.6999 18.4903 75.3021 17.7081C74.9077 16.9259 74.7105 15.9929 74.7105 14.9091C74.7105 13.822 74.9094 12.889 75.3071 12.1101C75.7048 11.3279 76.2484 10.728 76.9378 10.3104C77.6272 9.88944 78.411 9.67898 79.2894 9.67898C79.8296 9.67898 80.3334 9.75687 80.8007 9.91264C81.2714 10.0651 81.6939 10.2905 82.0685 10.5888C82.443 10.8838 82.7529 11.245 82.9982 11.6726C83.2434 12.0968 83.4091 12.5824 83.4953 13.1293ZM84.8502 20V12.3636H86.287V13.5767H86.3666C86.5058 13.1657 86.751 12.8426 87.1024 12.6072C87.457 12.3686 87.8581 12.2493 88.3055 12.2493C88.3983 12.2493 88.5077 12.2526 88.6336 12.2592C88.7629 12.2659 88.864 12.2741 88.9369 12.2841V13.706C88.8772 13.6894 88.7712 13.6712 88.6187 13.6513C88.4662 13.6281 88.3138 13.6165 88.1613 13.6165C87.81 13.6165 87.4968 13.6911 87.2217 13.8402C86.9499 13.986 86.7345 14.1899 86.5754 14.4517C86.4163 14.7102 86.3367 15.0052 86.3367 15.3366V20H84.8502ZM92.8025 20.1541C92.0866 20.1541 91.4618 19.9901 90.9282 19.6619C90.3946 19.3338 89.9803 18.8748 89.6853 18.2848C89.3903 17.6948 89.2428 17.0054 89.2428 16.2166C89.2428 15.4245 89.3903 14.7318 89.6853 14.1385C89.9803 13.5452 90.3946 13.0845 90.9282 12.7564C91.4618 12.4283 92.0866 12.2642 92.8025 12.2642C93.5184 12.2642 94.1431 12.4283 94.6768 12.7564C95.2104 13.0845 95.6247 13.5452 95.9197 14.1385C96.2146 14.7318 96.3621 15.4245 96.3621 16.2166C96.3621 17.0054 96.2146 17.6948 95.9197 18.2848C95.6247 18.8748 95.2104 19.3338 94.6768 19.6619C94.1431 19.9901 93.5184 20.1541 92.8025 20.1541ZM92.8074 18.9062C93.2715 18.9062 93.6559 18.7836 93.9609 18.5384C94.2658 18.2931 94.4912 17.9666 94.637 17.5589C94.7861 17.1513 94.8607 16.7022 94.8607 16.2116C94.8607 15.7244 94.7861 15.277 94.637 14.8693C94.4912 14.4583 94.2658 14.1286 93.9609 13.88C93.6559 13.6314 93.2715 13.5071 92.8074 13.5071C92.3401 13.5071 91.9523 13.6314 91.6441 13.88C91.3392 14.1286 91.1121 14.4583 90.963 14.8693C90.8172 15.277 90.7442 15.7244 90.7442 16.2116C90.7442 16.7022 90.8172 17.1513 90.963 17.5589C91.1121 17.9666 91.3392 18.2931 91.6441 18.5384C91.9523 18.7836 92.3401 18.9062 92.8074 18.9062ZM97.6574 22.8636V12.3636H99.1091V13.6016H99.2334C99.3196 13.4425 99.4439 13.2585 99.6063 13.0497C99.7687 12.8409 99.994 12.6586 100.282 12.5028C100.571 12.3438 100.952 12.2642 101.426 12.2642C102.042 12.2642 102.593 12.42 103.076 12.7315C103.56 13.0431 103.94 13.4922 104.215 14.0788C104.493 14.6655 104.633 15.3714 104.633 16.1967C104.633 17.022 104.495 17.7296 104.22 18.3196C103.945 18.9062 103.567 19.3587 103.086 19.6768C102.606 19.9917 102.057 20.1491 101.441 20.1491C100.977 20.1491 100.597 20.0713 100.302 19.9155C100.011 19.7597 99.7819 19.5774 99.6162 19.3686C99.4505 19.1598 99.3229 18.9742 99.2334 18.8118H99.1439V22.8636H97.6574ZM99.1141 16.1818C99.1141 16.7187 99.192 17.1894 99.3477 17.5938C99.5035 17.9981 99.7289 18.3146 100.024 18.5433C100.319 18.7687 100.68 18.8814 101.108 18.8814C101.552 18.8814 101.923 18.7637 102.221 18.5284C102.52 18.2898 102.745 17.9666 102.897 17.5589C103.053 17.1513 103.131 16.6922 103.131 16.1818C103.131 15.678 103.055 15.2256 102.902 14.8246C102.753 14.4235 102.528 14.107 102.226 13.875C101.928 13.643 101.555 13.527 101.108 13.527C100.677 13.527 100.312 13.638 100.014 13.8601C99.719 14.0821 99.4952 14.392 99.3428 14.7898C99.1903 15.1875 99.1141 15.6515 99.1141 16.1818Z" fill="#F6F6F6"/>
<path d="M129.75 15C129.75 15.1492 129.691 15.2923 129.585 15.3977C129.48 15.5032 129.337 15.5625 129.188 15.5625H123.562V21.1875C123.562 21.3367 123.503 21.4798 123.398 21.5852C123.292 21.6907 123.149 21.75 123 21.75C122.851 21.75 122.708 21.6907 122.602 21.5852C122.497 21.4798 122.438 21.3367 122.438 21.1875V15.5625H116.812C116.663 15.5625 116.52 15.5032 116.415 15.3977C116.309 15.2923 116.25 15.1492 116.25 15C116.25 14.8508 116.309 14.7077 116.415 14.6023C116.52 14.4968 116.663 14.4375 116.812 14.4375H122.438V8.8125C122.438 8.66332 122.497 8.52024 122.602 8.41475C122.708 8.30926 122.851 8.25 123 8.25C123.149 8.25 123.292 8.30926 123.398 8.41475C123.503 8.52024 123.562 8.66332 123.562 8.8125V14.4375H129.188C129.337 14.4375 129.48 14.4968 129.585 14.6023C129.691 14.7077 129.75 14.8508 129.75 15Z" fill="white"/>
</svg>
