<svg width="36" height="36" viewBox="0 0 36 36" fill="none" xmlns="http://www.w3.org/2000/svg">
<g filter="url(#filter0_i_585_42961)">
<rect x="0.600098" y="0.600098" width="34" height="34" rx="4" fill="white"/>
<rect x="0.300098" y="0.300098" width="34.6" height="34.6" rx="4.3" stroke="#E7E7E7" stroke-width="0.6"/>
<path d="M25.7251 10.2876C24.6186 10.2877 23.5219 10.4943 22.4913 10.8969C21.037 7.88054 18.0988 6.38148 17.9647 6.31343C17.8518 6.25695 17.7273 6.22754 17.6011 6.22754C17.4749 6.22754 17.3504 6.25695 17.2375 6.31343C17.1024 6.37843 14.1642 7.8775 12.7099 10.8969C11.6789 10.4942 10.5819 10.2875 9.4751 10.2876C9.25961 10.2876 9.05295 10.3732 8.90057 10.5255C8.7482 10.6779 8.6626 10.8846 8.6626 11.1001V19.2251C8.66525 21.3744 9.44128 23.4509 10.8488 25.0752C12.2564 26.6994 14.2015 27.7629 16.3285 28.0712C16.3861 28.0787 16.4447 28.0738 16.5003 28.0568C16.5558 28.0398 16.6071 28.0111 16.6506 27.9726C16.6941 27.9341 16.7288 27.8867 16.7525 27.8336C16.7761 27.7805 16.7881 27.723 16.7876 27.6649V22.5025C16.785 22.2929 16.8618 22.09 17.0025 21.9346C17.1432 21.7792 17.3374 21.6828 17.5463 21.6646C17.6574 21.6572 17.7689 21.6728 17.8738 21.7103C17.9786 21.7478 18.0747 21.8065 18.1559 21.8827C18.2372 21.9589 18.3019 22.051 18.346 22.1532C18.3902 22.2555 18.4128 22.3657 18.4126 22.4771V27.671C18.4121 27.7291 18.4241 27.7866 18.4477 27.8397C18.4713 27.8928 18.5061 27.9402 18.5496 27.9787C18.5931 28.0172 18.6444 28.0459 18.6999 28.0629C18.7555 28.0799 18.8141 28.0848 18.8717 28.0773C20.9998 27.7688 22.9457 26.7045 24.3533 25.0789C25.761 23.4534 26.5364 21.3754 26.5376 19.2251V11.1001C26.5376 10.8846 26.452 10.6779 26.2996 10.5255C26.1472 10.3732 25.9406 10.2876 25.7251 10.2876ZM16.7876 19.7796C16.0425 18.7176 15.0751 17.8305 13.9526 17.18C12.8301 16.5295 11.5795 16.1312 10.2876 16.0127V11.9573C12.0744 12.1593 13.7244 13.0117 14.9231 14.352C16.1219 15.6923 16.7855 17.4269 16.7876 19.2251V19.7796ZM17.6001 15.5038C16.8606 13.8997 15.6653 12.5486 14.1632 11.6191C15.0986 9.66804 16.8445 8.43711 17.6001 7.97296C18.3567 8.43812 20.1016 9.66906 21.037 11.6191C19.5349 12.5486 18.3396 13.8997 17.6001 15.5038ZM24.9126 16.0116C23.6207 16.1301 22.37 16.5285 21.2476 17.179C20.1251 17.8295 19.1577 18.7166 18.4126 19.7786V19.2251C18.4147 17.4269 19.0783 15.6923 20.2771 14.352C21.4758 13.0117 23.1258 12.1593 24.9126 11.9573V16.0116Z" fill="black"/>
</g>
<defs>
<filter id="filter0_i_585_42961" x="-4" y="-1" width="39.2002" height="36.2002" filterUnits="userSpaceOnUse" color-interpolation-filters="sRGB">
<feFlood flood-opacity="0" result="BackgroundImageFix"/>
<feBlend mode="normal" in="SourceGraphic" in2="BackgroundImageFix" result="shape"/>
<feColorMatrix in="SourceAlpha" type="matrix" values="0 0 0 0 0 0 0 0 0 0 0 0 0 0 0 0 0 0 127 0" result="hardAlpha"/>
<feOffset dx="-4" dy="-1"/>
<feGaussianBlur stdDeviation="4"/>
<feComposite in2="hardAlpha" operator="arithmetic" k2="-1" k3="1"/>
<feColorMatrix type="matrix" values="0 0 0 0 0 0 0 0 0 0 0 0 0 0 0 0 0 0 0.07 0"/>
<feBlend mode="normal" in2="shape" result="effect1_innerShadow_585_42961"/>
</filter>
</defs>
</svg>
