<svg width="46" height="47" viewBox="0 0 46 47" fill="none" xmlns="http://www.w3.org/2000/svg">
<rect x="0.5" y="0.5" width="45" height="46" rx="11.5" stroke="#E7E7E7"/>
<path d="M31.4431 27.8913C30.9227 26.9951 30.1493 24.4592 30.1493 21.147C30.1493 19.1578 29.3591 17.2502 27.9526 15.8437C26.5461 14.4371 24.6384 13.647 22.6493 13.647C20.6602 13.647 18.7525 14.4371 17.346 15.8437C15.9395 17.2502 15.1493 19.1578 15.1493 21.147C15.1493 24.4601 14.3749 26.9951 13.8546 27.8913C13.7217 28.1192 13.6513 28.3781 13.6504 28.6418C13.6495 28.9056 13.7182 29.1649 13.8495 29.3937C13.9808 29.6224 14.1701 29.8125 14.3983 29.9448C14.6265 30.077 14.8855 30.1468 15.1493 30.147H18.9752C19.1483 30.9937 19.6085 31.7546 20.2779 32.3011C20.9474 32.8476 21.7851 33.1461 22.6493 33.1461C23.5135 33.1461 24.3512 32.8476 25.0207 32.3011C25.6902 31.7546 26.1503 30.9937 26.3234 30.147H30.1493C30.413 30.1466 30.6719 30.0768 30.9 29.9444C31.1281 29.8121 31.3173 29.622 31.4484 29.3933C31.5796 29.1645 31.6482 28.9053 31.6473 28.6416C31.6463 28.3779 31.5759 28.1191 31.4431 27.8913ZM22.6493 31.647C22.1841 31.6468 21.7304 31.5025 21.3507 31.2339C20.9709 30.9653 20.6837 30.5855 20.5287 30.147H24.7699C24.6149 30.5855 24.3277 30.9653 23.9479 31.2339C23.5682 31.5025 23.1145 31.6468 22.6493 31.647ZM15.1493 28.647C15.8712 27.4057 16.6493 24.5295 16.6493 21.147C16.6493 19.5557 17.2814 18.0296 18.4067 16.9043C19.5319 15.7791 21.058 15.147 22.6493 15.147C24.2406 15.147 25.7667 15.7791 26.8919 16.9043C28.0172 18.0296 28.6493 19.5557 28.6493 21.147C28.6493 24.5267 29.4256 27.4029 30.1493 28.647H15.1493Z" fill="black"/>
<rect x="26" y="11" width="8" height="8" rx="4" fill="#D82A2A"/>
</svg>
