<svg width="36" height="34" viewBox="0 0 36 34" fill="none" xmlns="http://www.w3.org/2000/svg">
<rect x="0.5" y="0.5" width="35" height="33" rx="6.5" fill="#E7E7E7"/>
<rect x="0.5" y="0.5" width="35" height="33" rx="6.5" stroke="#E7E7E7"/>
<path d="M24.25 9.5H22.375V8.875C22.375 8.70924 22.3092 8.55027 22.1919 8.43306C22.0747 8.31585 21.9158 8.25 21.75 8.25C21.5842 8.25 21.4253 8.31585 21.3081 8.43306C21.1908 8.55027 21.125 8.70924 21.125 8.875V9.5H14.875V8.875C14.875 8.70924 14.8092 8.55027 14.6919 8.43306C14.5747 8.31585 14.4158 8.25 14.25 8.25C14.0842 8.25 13.9253 8.31585 13.8081 8.43306C13.6908 8.55027 13.625 8.70924 13.625 8.875V9.5H11.75C11.4185 9.5 11.1005 9.6317 10.8661 9.86612C10.6317 10.1005 10.5 10.4185 10.5 10.75V23.25C10.5 23.5815 10.6317 23.8995 10.8661 24.1339C11.1005 24.3683 11.4185 24.5 11.75 24.5H24.25C24.5815 24.5 24.8995 24.3683 25.1339 24.1339C25.3683 23.8995 25.5 23.5815 25.5 23.25V10.75C25.5 10.4185 25.3683 10.1005 25.1339 9.86612C24.8995 9.6317 24.5815 9.5 24.25 9.5ZM13.625 10.75V11.375C13.625 11.5408 13.6908 11.6997 13.8081 11.8169C13.9253 11.9342 14.0842 12 14.25 12C14.4158 12 14.5747 11.9342 14.6919 11.8169C14.8092 11.6997 14.875 11.5408 14.875 11.375V10.75H21.125V11.375C21.125 11.5408 21.1908 11.6997 21.3081 11.8169C21.4253 11.9342 21.5842 12 21.75 12C21.9158 12 22.0747 11.9342 22.1919 11.8169C22.3092 11.6997 22.375 11.5408 22.375 11.375V10.75H24.25V13.25H11.75V10.75H13.625ZM24.25 23.25H11.75V14.5H24.25V23.25ZM18.9375 17.3125C18.9375 17.4979 18.8825 17.6792 18.7795 17.8333C18.6765 17.9875 18.5301 18.1077 18.3588 18.1786C18.1875 18.2496 17.999 18.2682 17.8171 18.232C17.6352 18.1958 17.4682 18.1065 17.3371 17.9754C17.206 17.8443 17.1167 17.6773 17.0805 17.4954C17.0443 17.3135 17.0629 17.125 17.1339 16.9537C17.2048 16.7824 17.325 16.636 17.4792 16.533C17.6333 16.43 17.8146 16.375 18 16.375C18.2486 16.375 18.4871 16.4738 18.6629 16.6496C18.8387 16.8254 18.9375 17.0639 18.9375 17.3125ZM22.375 17.3125C22.375 17.4979 22.32 17.6792 22.217 17.8333C22.114 17.9875 21.9676 18.1077 21.7963 18.1786C21.625 18.2496 21.4365 18.2682 21.2546 18.232C21.0727 18.1958 20.9057 18.1065 20.7746 17.9754C20.6435 17.8443 20.5542 17.6773 20.518 17.4954C20.4818 17.3135 20.5004 17.125 20.5714 16.9537C20.6423 16.7824 20.7625 16.636 20.9167 16.533C21.0708 16.43 21.2521 16.375 21.4375 16.375C21.6861 16.375 21.9246 16.4738 22.1004 16.6496C22.2762 16.8254 22.375 17.0639 22.375 17.3125ZM15.5 20.4375C15.5 20.6229 15.445 20.8042 15.342 20.9583C15.239 21.1125 15.0926 21.2327 14.9213 21.3036C14.75 21.3746 14.5615 21.3932 14.3796 21.357C14.1977 21.3208 14.0307 21.2315 13.8996 21.1004C13.7685 20.9693 13.6792 20.8023 13.643 20.6204C13.6068 20.4385 13.6254 20.25 13.6964 20.0787C13.7673 19.9074 13.8875 19.761 14.0417 19.658C14.1958 19.555 14.3771 19.5 14.5625 19.5C14.8111 19.5 15.0496 19.5988 15.2254 19.7746C15.4012 19.9504 15.5 20.1889 15.5 20.4375ZM18.9375 20.4375C18.9375 20.6229 18.8825 20.8042 18.7795 20.9583C18.6765 21.1125 18.5301 21.2327 18.3588 21.3036C18.1875 21.3746 17.999 21.3932 17.8171 21.357C17.6352 21.3208 17.4682 21.2315 17.3371 21.1004C17.206 20.9693 17.1167 20.8023 17.0805 20.6204C17.0443 20.4385 17.0629 20.25 17.1339 20.0787C17.2048 19.9074 17.325 19.761 17.4792 19.658C17.6333 19.555 17.8146 19.5 18 19.5C18.2486 19.5 18.4871 19.5988 18.6629 19.7746C18.8387 19.9504 18.9375 20.1889 18.9375 20.4375ZM22.375 20.4375C22.375 20.6229 22.32 20.8042 22.217 20.9583C22.114 21.1125 21.9676 21.2327 21.7963 21.3036C21.625 21.3746 21.4365 21.3932 21.2546 21.357C21.0727 21.3208 20.9057 21.2315 20.7746 21.1004C20.6435 20.9693 20.5542 20.8023 20.518 20.6204C20.4818 20.4385 20.5004 20.25 20.5714 20.0787C20.6423 19.9074 20.7625 19.761 20.9167 19.658C21.0708 19.555 21.2521 19.5 21.4375 19.5C21.6861 19.5 21.9246 19.5988 22.1004 19.7746C22.2762 19.9504 22.375 20.1889 22.375 20.4375Z" fill="black"/>
</svg>
