<svg width="40" height="40" viewBox="0 0 40 40" fill="none" xmlns="http://www.w3.org/2000/svg">
<rect width="40" height="40" rx="20" fill="#E1FFDD"/>
<path d="M27.5 13.25C26.4787 13.2501 25.4663 13.4409 24.515 13.8125C23.1725 11.0281 20.4603 9.64437 20.3366 9.58156C20.2324 9.52942 20.1175 9.50227 20.0009 9.50227C19.8844 9.50227 19.7695 9.52942 19.6653 9.58156C19.5406 9.64156 16.8284 11.0253 15.4859 13.8125C14.5343 13.4407 13.5217 13.25 12.5 13.25C12.3011 13.25 12.1103 13.329 11.9697 13.4697C11.829 13.6103 11.75 13.8011 11.75 14V21.5C11.7524 23.484 12.4688 25.4008 13.7681 26.9001C15.0674 28.3994 16.8628 29.381 18.8263 29.6656C18.8794 29.6726 18.9335 29.6681 18.9848 29.6524C19.036 29.6367 19.0834 29.6102 19.1235 29.5746C19.1637 29.5391 19.1958 29.4953 19.2176 29.4464C19.2394 29.3974 19.2505 29.3443 19.25 29.2906V24.5253C19.2476 24.3318 19.3185 24.1446 19.4483 24.0011C19.5782 23.8577 19.7575 23.7687 19.9503 23.7519C20.0529 23.7451 20.1558 23.7594 20.2526 23.794C20.3494 23.8287 20.4381 23.8828 20.5131 23.9532C20.5881 24.0235 20.6478 24.1085 20.6885 24.2029C20.7293 24.2973 20.7502 24.3991 20.75 24.5019V29.2962C20.7495 29.3499 20.7606 29.403 20.7824 29.452C20.8042 29.501 20.8363 29.5447 20.8765 29.5803C20.9166 29.6158 20.964 29.6423 21.0152 29.658C21.0665 29.6737 21.1206 29.6782 21.1737 29.6712C23.1381 29.3865 24.9344 28.4041 26.2338 26.9036C27.5332 25.4031 28.2489 23.4849 28.25 21.5V14C28.25 13.8011 28.171 13.6103 28.0303 13.4697C27.8897 13.329 27.6989 13.25 27.5 13.25ZM19.25 22.0119C18.5622 21.0315 17.6692 20.2127 16.6331 19.6122C15.597 19.0118 14.4425 18.6441 13.25 18.5347V14.7912C14.8994 14.9777 16.4224 15.7646 17.529 17.0018C18.6355 18.239 19.2481 19.8401 19.25 21.5V22.0119ZM20 18.065C19.3173 16.5842 18.214 15.3371 16.8275 14.4791C17.6909 12.6781 19.3025 11.5419 20 11.1134C20.6984 11.5428 22.3091 12.6791 23.1725 14.4791C21.786 15.3371 20.6827 16.5842 20 18.065ZM26.75 18.5337C25.5575 18.6431 24.403 19.0108 23.3669 19.6113C22.3308 20.2118 21.4378 21.0306 20.75 22.0109V21.5C20.7519 19.8401 21.3645 18.239 22.471 17.0018C23.5776 15.7646 25.1006 14.9777 26.75 14.7912V18.5337Z" fill="#0F913D"/>
</svg>
