<svg width="40" height="32" viewBox="0 0 40 32" fill="none" xmlns="http://www.w3.org/2000/svg">
<rect width="40" height="32" fill="#E7E7E7"/>
<path d="M25.3538 14.3538L20.3538 19.3538C20.3073 19.4002 20.2522 19.4371 20.1915 19.4623C20.1308 19.4874 20.0657 19.5004 20 19.5004C19.9343 19.5004 19.8693 19.4874 19.8086 19.4623C19.7479 19.4371 19.6927 19.4002 19.6463 19.3538L14.6463 14.3538C14.5525 14.2599 14.4998 14.1327 14.4998 14C14.4998 13.8673 14.5525 13.7401 14.6463 13.6463C14.7401 13.5524 14.8674 13.4997 15 13.4997C15.1327 13.4997 15.26 13.5524 15.3538 13.6463L20 18.2931L24.6463 13.6463C24.6927 13.5998 24.7479 13.5629 24.8086 13.5378C24.8693 13.5127 24.9343 13.4997 25 13.4997C25.0657 13.4997 25.1308 13.5127 25.1915 13.5378C25.2522 13.5629 25.3073 13.5998 25.3538 13.6463C25.4002 13.6927 25.4371 13.7479 25.4622 13.8086C25.4874 13.8693 25.5003 13.9343 25.5003 14C25.5003 14.0657 25.4874 14.1308 25.4622 14.1915C25.4371 14.2521 25.4002 14.3073 25.3538 14.3538Z" fill="black"/>
</svg>
