<svg width="34" height="34" viewBox="0 0 34 34" fill="none" xmlns="http://www.w3.org/2000/svg">
<path d="M27.625 7.4375C26.1781 7.43761 24.744 7.70787 23.3963 8.23437C21.4944 4.28984 17.6521 2.32953 17.4768 2.24054C17.3292 2.16668 17.1664 2.12822 17.0013 2.12822C16.8363 2.12822 16.6735 2.16668 16.5259 2.24054C16.3492 2.32554 12.507 4.28586 10.6051 8.23437C9.25696 7.70771 7.82234 7.43745 6.375 7.4375C6.09321 7.4375 5.82296 7.54944 5.6237 7.7487C5.42444 7.94795 5.3125 8.2182 5.3125 8.5V19.125C5.31597 21.9356 6.33078 24.6511 8.17143 26.7751C10.0121 28.8991 12.5557 30.2898 15.3372 30.693C15.4125 30.7028 15.4891 30.6964 15.5617 30.6742C15.6344 30.652 15.7014 30.6144 15.7583 30.5641C15.8152 30.5137 15.8607 30.4517 15.8916 30.3823C15.9225 30.3129 15.9381 30.2377 15.9375 30.1617V23.4109C15.9341 23.1367 16.0345 22.8715 16.2185 22.6683C16.4025 22.4651 16.6565 22.3389 16.9296 22.3152C17.0749 22.3055 17.2207 22.3258 17.3579 22.3749C17.495 22.424 17.6206 22.5007 17.7268 22.6003C17.8331 22.7 17.9177 22.8204 17.9754 22.9541C18.0332 23.0878 18.0628 23.232 18.0625 23.3777V30.1697C18.0619 30.2457 18.0775 30.3209 18.1084 30.3903C18.1393 30.4597 18.1848 30.5217 18.2417 30.572C18.2986 30.6224 18.3656 30.6599 18.4383 30.6822C18.5109 30.7044 18.5875 30.7108 18.6628 30.7009C21.4457 30.2976 23.9903 28.9057 25.8312 26.7801C27.672 24.6544 28.6859 21.937 28.6875 19.125V8.5C28.6875 8.2182 28.5756 7.94795 28.3763 7.7487C28.177 7.54944 27.9068 7.4375 27.625 7.4375ZM15.9375 19.8502C14.9631 18.4614 13.6981 17.3013 12.2302 16.4507C10.7624 15.6 9.12693 15.0791 7.4375 14.9241V9.62093C9.77408 9.88511 11.9318 10.9998 13.4993 12.7525C15.0669 14.5053 15.9348 16.7735 15.9375 19.125V19.8502ZM17 14.2587C16.0329 12.161 14.4698 10.3943 12.5056 9.17867C13.7288 6.62734 16.0119 5.01765 17 4.4107C17.9895 5.01898 20.2712 6.62867 21.4944 9.17867C19.5302 10.3943 17.9671 12.161 17 14.2587ZM26.5625 14.9228C24.8731 15.0778 23.2376 15.5987 21.7698 16.4493C20.3019 17.3 19.0369 18.46 18.0625 19.8488V19.125C18.0652 16.7735 18.9331 14.5053 20.5006 12.7525C22.0682 10.9998 24.2259 9.88511 26.5625 9.62093V14.9228Z" fill="black"/>
</svg>
