<svg width="193" height="148" viewBox="0 0 193 148" fill="none" xmlns="http://www.w3.org/2000/svg">
<path opacity="0.7" d="M50.6961 30.8784C50.6961 30.8784 28.0723 50.3996 20.5187 71.5802C12.9652 92.7607 21.0941 114.193 42.2406 125.176C63.3871 136.159 93.048 124.145 121.798 126.097C150.549 128.05 177.901 116.804 182.85 91.2007C187.799 65.5976 167.037 63.3985 155.744 39.3154C144.452 15.2323 104.972 -12.554 50.6961 30.8784Z" fill="#FFF1DD"/>
<path d="M181.84 64.6727H145.111V69.2083H181.84V64.6727Z" fill="#FF9500"/>
<path opacity="0.3" d="M181.84 64.6727H145.111V69.2083H181.84V64.6727Z" fill="white"/>
<path d="M171.65 85.058H166.245V57.3686L168.945 54.3271L171.65 57.3686V85.058Z" fill="#FF9500"/>
<path opacity="0.6" d="M171.65 85.058H166.245V57.3686L168.945 54.3271L171.65 57.3686V85.058Z" fill="white"/>
<path d="M181.842 85.058H176.437V57.3686L179.137 54.3271L181.842 57.3686V85.058Z" fill="#FF9500"/>
<path opacity="0.6" d="M181.842 85.058H176.437V57.3686L179.137 54.3271L181.842 57.3686V85.058Z" fill="white"/>
<path d="M161.463 85.058H156.058V57.3686L158.762 54.3271L161.463 57.3686V85.058Z" fill="#FF9500"/>
<path opacity="0.6" d="M161.463 85.058H156.058V57.3686L158.762 54.3271L161.463 57.3686V85.058Z" fill="white"/>
<path d="M159.311 66.9404C159.311 67.2456 159.066 67.4905 158.761 67.4905C158.455 67.4905 158.21 67.2456 158.21 66.9404C158.21 66.6351 158.455 66.3903 158.761 66.3903C159.066 66.3903 159.311 66.6351 159.311 66.9404Z" fill="#263238"/>
<path d="M151.115 85.058H145.71V57.3686L148.414 54.3271L151.115 57.3686V85.058Z" fill="#FF9500"/>
<path opacity="0.6" d="M151.115 85.058H145.71V57.3686L148.414 54.3271L151.115 57.3686V85.058Z" fill="white"/>
<path d="M148.415 67.4905C148.719 67.4905 148.965 67.2442 148.965 66.9404C148.965 66.6365 148.719 66.3903 148.415 66.3903C148.112 66.3903 147.865 66.6365 147.865 66.9404C147.865 67.2442 148.112 67.4905 148.415 67.4905Z" fill="#263238"/>
<path d="M169.693 66.9404C169.693 67.2456 169.448 67.4905 169.143 67.4905C168.838 67.4905 168.593 67.2456 168.593 66.9404C168.593 66.6351 168.838 66.3903 169.143 66.3903C169.448 66.3903 169.693 66.6351 169.693 66.9404Z" fill="#263238"/>
<path d="M179.137 67.4905C179.441 67.4905 179.687 67.2442 179.687 66.9404C179.687 66.6365 179.441 66.3903 179.137 66.3903C178.833 66.3903 178.587 66.6365 178.587 66.9404C178.587 67.2442 178.833 67.4905 179.137 67.4905Z" fill="#263238"/>
<path d="M59.3205 64.6727H22.5918V69.2083H59.3205V64.6727Z" fill="#FF9500"/>
<path opacity="0.3" d="M59.3205 64.6727H22.5918V69.2083H59.3205V64.6727Z" fill="white"/>
<path d="M49.1304 85.058H43.7217V57.3686L46.426 54.3271L49.1304 57.3686V85.058Z" fill="#FF9500"/>
<path opacity="0.6" d="M49.1304 85.058H43.7217V57.3686L46.426 54.3271L49.1304 57.3686V85.058Z" fill="white"/>
<path d="M59.3179 85.058H53.9092V57.3686L56.6135 54.3271L59.3179 57.3686V85.058Z" fill="#FF9500"/>
<path opacity="0.6" d="M59.3179 85.058H53.9092V57.3686L56.6135 54.3271L59.3179 57.3686V85.058Z" fill="white"/>
<path d="M38.9387 85.058H33.53V57.3686L36.2344 54.3271L38.9387 57.3686V85.058Z" fill="#FF9500"/>
<path opacity="0.6" d="M38.9387 85.058H33.53V57.3686L36.2344 54.3271L38.9387 57.3686V85.058Z" fill="white"/>
<path d="M36.2364 67.4905C36.5402 67.4905 36.7865 67.2442 36.7865 66.9404C36.7865 66.6365 36.5402 66.3903 36.2364 66.3903C35.9326 66.3903 35.6863 66.6365 35.6863 66.9404C35.6863 67.2442 35.9326 67.4905 36.2364 67.4905Z" fill="#263238"/>
<path d="M28.5955 85.058H23.1868V57.3686L25.8911 54.3271L28.5955 57.3686V85.058Z" fill="#FF9500"/>
<path opacity="0.6" d="M28.5955 85.058H23.1868V57.3686L25.8911 54.3271L28.5955 57.3686V85.058Z" fill="white"/>
<path d="M26.441 66.9404C26.441 67.2456 26.1961 67.4905 25.8909 67.4905C25.5857 67.4905 25.3408 67.2456 25.3408 66.9404C25.3408 66.6351 25.5857 66.3903 25.8909 66.3903C26.1961 66.3903 26.441 66.6351 26.441 66.9404Z" fill="#263238"/>
<path d="M46.6185 67.4905C46.9223 67.4905 47.1686 67.2442 47.1686 66.9404C47.1686 66.6365 46.9223 66.3903 46.6185 66.3903C46.3146 66.3903 46.0684 66.6365 46.0684 66.9404C46.0684 67.2442 46.3146 67.4905 46.6185 67.4905Z" fill="#263238"/>
<path d="M57.1654 66.9404C57.1654 67.2456 56.9205 67.4905 56.6153 67.4905C56.3101 67.4905 56.0652 67.2456 56.0652 66.9404C56.0652 66.6351 56.3101 66.3903 56.6153 66.3903C56.9205 66.3903 57.1654 66.6351 57.1654 66.9404Z" fill="#263238"/>
<path d="M111.513 38.5916H111.158V31.852H105.26V31.4971H111.513V38.5916Z" fill="#263238"/>
<path d="M109.732 32.8386H110.264C111.741 32.8386 112.937 34.0382 112.937 35.511V41.8602C112.937 43.3366 111.737 44.5326 110.264 44.5326H109.732V32.8351V32.8386Z" fill="#263238"/>
<path d="M151.692 64.8079H148.991V76.7539H151.692V64.8079Z" fill="#263238"/>
<path d="M79.9754 94.0769C80.852 94.1798 147.293 93.9313 147.293 93.9313L149.703 82.8975L118.78 72.868L116.832 55.6091H104.918L102.938 69.358L82.3284 61.0604L56.2468 58.8529L53.9541 74.8519L79.9719 94.0733L79.9754 94.0769Z" fill="#FF9500"/>
<path opacity="0.5" d="M79.9754 94.0769C80.852 94.1798 147.293 93.9313 147.293 93.9313L149.703 82.8975L118.78 72.868L116.832 55.6091H104.918L102.938 69.358L82.3284 61.0604L56.2468 58.8529L53.9541 74.8519L79.9719 94.0733L79.9754 94.0769Z" fill="black"/>
<path d="M56.6221 29.1411L53.5984 61.4939L72.9831 62.1149L85.0675 67.442L94.5078 78.2274H108.228L107.639 71.2714L105.073 26.7881L56.6221 29.1411Z" fill="#FF9500"/>
<path opacity="0.5" d="M56.6501 29.1411L53.6299 61.4939L73.0146 62.1149L85.0989 67.442L94.5393 78.2274H108.26L107.671 71.2714L106.847 57.6325L105.105 26.7881L56.6501 29.1411Z" fill="white"/>
<path d="M80.4283 57.8306C80.4283 57.8306 72.915 42.9496 71.7793 42.9496C70.6436 42.9496 69.948 43.4217 68.8762 43.8972C67.8044 44.3728 69.256 57.8306 69.256 57.8306H80.4283Z" fill="#263238"/>
<path opacity="0.3" d="M59.8895 57.6324L87.9622 29.9892C87.9622 29.9892 100.551 29.9892 100.047 29.9892C99.5426 29.9892 72.925 57.6324 72.925 57.6324H59.886H59.8895Z" fill="white"/>
<path d="M149.151 61.9404C147.561 59.339 109.232 54.9985 108.859 54.8743L110.219 83.2558L119.049 83.632C119.049 83.632 148.214 84.7463 148.495 84.6221C148.775 84.4979 150.738 64.5418 149.148 61.9369L149.151 61.9404Z" fill="#FF9500"/>
<path d="M105.945 29.9889H55.4032C54.846 29.9889 54.3953 29.5382 54.3953 28.981C54.3953 28.4238 54.846 27.9731 55.4032 27.9731H105.945C106.502 27.9731 106.953 28.4238 106.953 28.981C106.953 29.5382 106.502 29.9889 105.945 29.9889Z" fill="#FF9500"/>
<path d="M57.34 24.8749H104.272C105.11 24.8749 105.788 25.5528 105.788 26.3904V28.4133H55.8281V26.3904C55.8281 25.5528 56.506 24.8749 57.3436 24.8749H57.34Z" fill="#FF9500"/>
<path d="M114.935 59.9744V29.2436C114.935 29.2436 115.205 25.801 119.808 25.801V28.3173C119.808 28.3173 117.373 27.6785 117.373 30.0492V60.088L114.939 59.9709L114.935 59.9744Z" fill="#263238"/>
<path d="M66.9035 113.543C80.1104 113.543 90.8167 103.067 90.8167 90.1445C90.8167 77.2218 80.1104 66.7458 66.9035 66.7458C53.6966 66.7458 42.9902 77.2218 42.9902 90.1445C42.9902 103.067 53.6966 113.543 66.9035 113.543Z" fill="#263238"/>
<path d="M66.8806 114.604H66.8593C66.1034 114.576 65.3546 114.519 64.627 114.445L64.8506 112.326C65.5249 112.397 66.2205 112.447 66.9197 112.475C67.6153 112.475 68.318 112.443 69.0029 112.383L69.191 114.505C68.4351 114.573 67.665 114.608 66.8984 114.608H66.8771L66.8806 114.604ZM73.677 113.692L73.1127 111.638C74.4542 111.268 75.7673 110.775 77.0166 110.172L77.9429 112.088C76.5765 112.748 75.1427 113.288 73.677 113.692ZM60.1766 113.639C58.6824 113.249 57.2415 112.738 55.8893 112.12L56.7731 110.182C58.0117 110.75 59.339 111.219 60.7125 111.577L60.173 113.636L60.1766 113.639ZM51.9357 109.842C50.69 108.954 49.5295 107.943 48.4897 106.832L50.0441 105.377C50.9882 106.381 52.0387 107.301 53.1708 108.106L51.9357 109.842ZM81.8503 109.742L80.5905 108.025C81.7119 107.201 82.7624 106.275 83.7136 105.263L85.2645 106.722C84.2246 107.826 83.0748 108.841 81.8468 109.742H81.8503ZM45.7108 103.205C44.9123 101.92 44.2308 100.543 43.6879 99.1095L45.6788 98.35C46.1757 99.6561 46.7968 100.909 47.5243 102.08L45.7143 103.202L45.7108 103.205ZM88.0753 103.131L86.2831 101.981C87.0355 100.809 87.6743 99.5638 88.1889 98.279L90.1657 99.0705C89.6014 100.479 88.8987 101.846 88.0753 103.131ZM42.4634 94.7194C42.1902 93.2288 42.0518 91.7027 42.0518 90.1802H44.1812C44.1812 91.5714 44.3089 92.9697 44.5609 94.3361L42.467 94.7194H42.4634ZM91.454 94.691L89.3636 94.29C89.6227 92.9342 89.754 91.5395 89.754 90.1483V90.0808H91.8834V90.1483C91.8834 91.6743 91.7379 93.204 91.454 94.691ZM44.5467 86.0208L42.4492 85.6446C42.719 84.1398 43.1271 82.6599 43.6595 81.2474L45.6505 81.9997C45.1642 83.2916 44.7916 84.6437 44.5432 86.0208H44.5467ZM89.3494 85.9391C89.0832 84.5799 88.6857 83.2383 88.1676 81.95L90.1408 81.1515C90.7122 82.564 91.1488 84.0369 91.4398 85.531L89.3494 85.9391ZM47.4853 78.2662L45.6717 77.1482C46.4738 75.8458 47.4072 74.6213 48.4435 73.5105L50.0015 74.962C49.0611 75.97 48.2164 77.0808 47.4853 78.2662ZM86.2476 78.2555C85.4987 77.0915 84.6328 75.9913 83.6745 74.9798L85.2219 73.5141C86.2689 74.6213 87.22 75.828 88.0398 77.1021L86.2511 78.2555H86.2476ZM80.5408 72.2258C79.4157 71.4095 78.2126 70.689 76.9598 70.0857L77.8826 68.1657C79.2525 68.8223 80.5692 69.6101 81.7971 70.5045L80.5443 72.2258H80.5408ZM53.1176 72.2222L51.8754 70.4903C53.0963 69.6137 54.4272 68.8436 55.8219 68.2012L56.7127 70.1354C55.4386 70.7245 54.2284 71.4237 53.114 72.2222H53.1176ZM60.6521 68.7264L60.1091 66.668C61.5287 66.2918 63.0264 66.0185 64.5596 65.8517L64.7867 67.967C63.36 68.1231 61.9688 68.3751 60.6521 68.7229V68.7264ZM73.0524 68.6306C71.7144 68.2651 70.3338 68.0202 68.9426 67.9031L69.1272 65.7808C70.6426 65.9121 72.1509 66.1782 73.6131 66.5757L73.0524 68.6306Z" fill="#263238"/>
<path opacity="0.3" d="M66.902 101.437C73.2761 101.437 78.4434 96.3814 78.4434 90.1445C78.4434 83.9076 73.2761 78.8516 66.902 78.8516C60.5278 78.8516 55.3606 83.9076 55.3606 90.1445C55.3606 96.3814 60.5278 101.437 66.902 101.437Z" fill="white"/>
<path opacity="0.3" d="M66.9019 97.75C71.1964 97.75 74.6777 94.3449 74.6777 90.1445C74.6777 85.944 71.1964 82.5389 66.9019 82.5389C62.6074 82.5389 59.126 85.944 59.126 90.1445C59.126 94.3449 62.6074 97.75 66.9019 97.75Z" fill="white"/>
<path d="M142.791 113.539C152.703 113.539 160.738 105.679 160.738 95.9824C160.738 86.286 152.703 78.4255 142.791 78.4255C132.879 78.4255 124.844 86.286 124.844 95.9824C124.844 105.679 132.879 113.539 142.791 113.539Z" fill="#263238"/>
<path d="M142.77 114.604H142.748C142 114.576 141.254 114.512 140.537 114.42L140.807 112.308C141.453 112.39 142.127 112.447 142.809 112.475C143.483 112.475 144.161 112.432 144.821 112.358L145.07 114.473C144.317 114.562 143.551 114.604 142.788 114.608H142.766L142.77 114.604ZM149.477 113.419L148.743 111.421C150.006 110.956 151.213 110.342 152.331 109.593L153.516 111.361C152.26 112.205 150.901 112.897 149.481 113.419H149.477ZM136.158 113.412C134.699 112.908 133.326 112.244 132.08 111.439L133.237 109.65C134.341 110.363 135.558 110.952 136.857 111.4L136.162 113.412H136.158ZM128.606 108.5C127.587 107.382 126.711 106.126 126.004 104.77L127.892 103.783C128.517 104.979 129.287 106.083 130.181 107.066L128.606 108.5ZM156.952 108.411L155.379 106.974C156.292 105.98 157.076 104.876 157.715 103.702L159.585 104.717C158.865 106.044 157.977 107.286 156.952 108.408V108.411ZM124.414 100.518C124.059 99.0526 123.882 97.5407 123.878 96.0217H126.008C126.008 97.3703 126.171 98.7154 126.487 100.018L124.418 100.518H124.414ZM161.242 100.49L159.177 99.9682C159.507 98.6728 159.67 97.3349 159.67 95.9862V95.9117H161.8V95.9862C161.8 97.5088 161.611 99.0242 161.239 100.49H161.242ZM126.466 92.0149L124.393 91.5251C124.744 90.0381 125.273 88.6043 125.965 87.2699L127.857 88.2494C127.246 89.4312 126.778 90.6982 126.466 92.0184V92.0149ZM159.159 91.9333C158.826 90.6379 158.329 89.3851 157.679 88.2032L159.546 87.1811C160.277 88.5156 160.841 89.9352 161.221 91.4009L159.159 91.9333ZM130.132 84.9524L128.549 83.5257C129.564 82.4006 130.728 81.4069 132.009 80.5693L133.173 82.3545C132.048 83.0891 131.023 83.9622 130.132 84.9524ZM155.333 84.9417C154.425 83.9551 153.392 83.0785 152.27 82.3332L153.449 80.5587C154.712 81.3998 155.873 82.3864 156.898 83.4973L155.333 84.9417ZM136.786 80.5871L136.083 78.5783C137.457 78.0992 138.93 77.7514 140.463 77.5527L140.74 79.6643C139.352 79.8453 138.025 80.1576 136.786 80.5906V80.5871ZM148.675 80.5161C147.415 80.0583 146.095 79.7495 144.754 79.5969L144.991 77.4817C146.5 77.652 147.983 77.9998 149.399 78.5145L148.672 80.5161H148.675Z" fill="#263238"/>
<path opacity="0.3" d="M142.791 104.458C147.576 104.458 151.454 100.663 151.454 95.9825C151.454 91.3019 147.576 87.5074 142.791 87.5074C138.007 87.5074 134.128 91.3019 134.128 95.9825C134.128 100.663 138.007 104.458 142.791 104.458Z" fill="white"/>
<path opacity="0.3" d="M142.792 101.693C146.014 101.693 148.626 99.1364 148.626 95.9827C148.626 92.829 146.014 90.2723 142.792 90.2723C139.57 90.2723 136.957 92.829 136.957 95.9827C136.957 99.1364 139.57 101.693 142.792 101.693Z" fill="white"/>
<path d="M53.5984 62.313L53.9604 57.6319H106.848L108.044 78.2232L93.6703 78.2268L83.1652 64.4176L71.9503 62.6644L53.5984 62.313Z" fill="#FF9500"/>
<path d="M106.438 50.1084L103.78 49.6329L97.04 55.5171L94.9141 51.9894L98.7612 48.3978C98.96 48.1636 98.9529 47.83 98.7435 47.6028C98.5376 47.3721 98.1827 47.3082 97.8953 47.4467L87.1808 52.5927C86.8117 52.7702 86.6378 53.1677 86.7691 53.5332C86.8862 53.8562 87.2163 54.0727 87.5889 54.0691L91.5177 53.3806L94.2007 58.264L90.7937 61.664L96.1137 67.6796L98.6689 68.2013L99.3788 74.0216L107.641 74.082L106.846 57.6288L106.438 50.1049V50.1084Z" fill="#263238"/>
<path d="M53.5984 62.313L53.9604 57.6319H106.848L108.228 78.2268H93.6703L83.1652 64.4176L71.9503 62.6644L53.5984 62.313Z" fill="#FF9500"/>
<path d="M48.259 64.5917C48.259 64.5917 47.9893 60.4997 48.259 60.4997C48.5288 60.4997 70.309 55.9144 83.3552 64.5917C96.3978 73.269 96.1281 79.714 96.1281 79.714L92.6323 80.7042C92.6323 80.7042 84.1608 57.7741 48.259 64.5917Z" fill="#FF9500"/>
<path opacity="0.3" d="M48.259 64.5917C48.259 64.5917 47.9893 60.4997 48.259 60.4997C48.5288 60.4997 70.309 55.9144 83.3552 64.5917C96.3978 73.269 96.1281 79.714 96.1281 79.714L92.6323 80.7042C92.6323 80.7042 84.1608 57.7741 48.259 64.5917Z" fill="black"/>
<path d="M82.3291 29.0627H79.5574V58.3349H82.3291V29.0627Z" fill="#FF9500"/>
<path d="M84.8876 36.9876H81.6899V34.7588H84.8876C85.5016 34.7588 86.002 35.2557 86.002 35.8732C86.002 36.4872 85.5051 36.9876 84.8876 36.9876Z" fill="#FF9500"/>
<path d="M84.8876 49.6861H81.6899V47.4573H84.8876C85.5016 47.4573 86.002 47.9541 86.002 48.5717C86.002 49.1856 85.5051 49.6861 84.8876 49.6861Z" fill="#FF9500"/>
<path opacity="0.3" d="M54.4867 51.9824C54.4867 51.9824 74.5208 29.9892 74.8083 29.9892H79.5604L53.9614 57.6324L54.4902 51.9824H54.4867Z" fill="white"/>
<g opacity="0.3">
<path d="M109.101 59.8932C122.435 60.383 132.454 60.6918 132.454 60.6918C132.454 60.6918 118.321 56.7382 108.948 56.7382L109.101 59.8932Z" fill="black"/>
</g>
<path d="M109.393 85.7474H95.531V91.4933H109.393V85.7474Z" fill="#263238"/>
<path d="M109.5 92.5049H95.4211V94.6414H109.5V92.5049Z" fill="#263238"/>
<path opacity="0.3" d="M118.115 77.2795C117.703 77.2795 117.37 76.9459 117.37 76.5342V67.4913C117.37 67.0796 117.703 66.746 118.115 66.746C118.527 66.746 118.86 67.0796 118.86 67.4913V76.5342C118.86 76.9459 118.527 77.2795 118.115 77.2795Z" fill="black"/>
<path opacity="0.3" d="M120.947 77.2795C120.535 77.2795 120.202 76.9459 120.202 76.5342V67.4913C120.202 67.0796 120.535 66.746 120.947 66.746C121.359 66.746 121.692 67.0796 121.692 67.4913V76.5342C121.692 76.9459 121.359 77.2795 120.947 77.2795Z" fill="black"/>
<path opacity="0.3" d="M123.779 77.2795C123.367 77.2795 123.033 76.9459 123.033 76.5342V67.4913C123.033 67.0796 123.367 66.746 123.779 66.746C124.19 66.746 124.524 67.0796 124.524 67.4913V76.5342C124.524 76.9459 124.19 77.2795 123.779 77.2795Z" fill="black"/>
<path opacity="0.3" d="M126.606 77.2795C126.194 77.2795 125.861 76.9459 125.861 76.5342V67.4913C125.861 67.0796 126.194 66.746 126.606 66.746C127.018 66.746 127.351 67.0796 127.351 67.4913V76.5342C127.351 76.9459 127.018 77.2795 126.606 77.2795Z" fill="black"/>
<path opacity="0.3" d="M105.787 27.8775H55.8599V26.7844H105.787V27.8775Z" fill="black"/>
<path d="M53.9614 57.465C68.7182 57.4118 90.9882 57.4792 105.947 57.465C103.782 57.536 101.618 57.5821 99.4491 57.6354C84.3161 57.9122 69.0802 57.8554 53.9614 57.465Z" fill="#263238"/>
<path d="M117.368 67.3419C117.609 70.3763 117.609 73.4462 117.368 76.477C117.127 73.4426 117.127 70.3727 117.368 67.3419Z" fill="#263238"/>
<path d="M120.227 67.3419C120.468 70.3763 120.468 73.4462 120.227 76.477C119.985 73.4426 119.985 70.3727 120.227 67.3419Z" fill="#263238"/>
<path d="M123.078 67.3419C123.319 70.3763 123.319 73.4462 123.078 76.477C122.837 73.4426 122.837 70.3727 123.078 67.3419Z" fill="#263238"/>
<path d="M125.932 67.3419C126.173 70.3763 126.173 73.4462 125.932 76.477C125.691 73.4426 125.691 70.3727 125.932 67.3419Z" fill="#263238"/>
<path d="M108.947 63.6369C122.075 64.2615 136.654 65.2198 149.764 66.3093C136.622 65.6811 122.05 64.73 108.947 63.6369Z" fill="#263238"/>
<path d="M80.8493 57.5326C81.0907 59.4029 81.0942 61.2803 80.8493 63.1507C80.6044 61.2803 80.608 59.4029 80.8493 57.5326Z" fill="#263238"/>
<path opacity="0.3" d="M87.6707 61.0038H83.8413C83.3693 61.0038 82.9824 60.6205 82.9824 60.1449C82.9824 59.6729 83.3657 59.2861 83.8413 59.2861H87.6707C88.1427 59.2861 88.5295 59.6694 88.5295 60.1449C88.5295 60.6169 88.1462 61.0038 87.6707 61.0038Z" fill="black"/>
</svg>
