<svg width="32" height="23" viewBox="0 0 32 23" fill="none" xmlns="http://www.w3.org/2000/svg">
<path d="M31.7993 8.10156L29.9399 3.45312C29.7821 3.05962 29.5097 2.7226 29.158 2.48579C28.8063 2.24897 28.3916 2.12327 27.9677 2.125H23.375V1.0625C23.375 0.780707 23.2631 0.510457 23.0638 0.311199C22.8645 0.111942 22.5943 0 22.3125 0H2.125C1.56141 0 1.02091 0.223883 0.622398 0.622398C0.223883 1.02091 0 1.56141 0 2.125V17C0 17.5636 0.223883 18.1041 0.622398 18.5026C1.02091 18.9011 1.56141 19.125 2.125 19.125H4.38281C4.61688 20.0392 5.14856 20.8495 5.89402 21.4281C6.63948 22.0068 7.55632 22.3208 8.5 22.3208C9.44368 22.3208 10.3605 22.0068 11.106 21.4281C11.8514 20.8495 12.3831 20.0392 12.6172 19.125H19.2578C19.4919 20.0392 20.0236 20.8495 20.769 21.4281C21.5145 22.0068 22.4313 22.3208 23.375 22.3208C24.3187 22.3208 25.2355 22.0068 25.981 21.4281C26.7264 20.8495 27.2581 20.0392 27.4922 19.125H29.75C30.3136 19.125 30.8541 18.9011 31.2526 18.5026C31.6511 18.1041 31.875 17.5636 31.875 17V8.5C31.8752 8.3636 31.8495 8.2284 31.7993 8.10156ZM8.5 20.1875C8.07971 20.1875 7.66887 20.0629 7.31941 19.8294C6.96996 19.5959 6.69759 19.264 6.53676 18.8757C6.37592 18.4874 6.33384 18.0601 6.41583 17.6479C6.49782 17.2357 6.70021 16.8571 6.9974 16.5599C7.29459 16.2627 7.67322 16.0603 8.08543 15.9783C8.49764 15.8963 8.92491 15.9384 9.3132 16.0993C9.70149 16.2601 10.0334 16.5325 10.2669 16.8819C10.5004 17.2314 10.625 17.6422 10.625 18.0625C10.625 18.6261 10.4011 19.1666 10.0026 19.5651C9.60409 19.9636 9.06359 20.1875 8.5 20.1875ZM2.125 10.625V2.125H21.25V10.625H2.125ZM23.375 20.1875C22.9547 20.1875 22.5439 20.0629 22.1944 19.8294C21.845 19.5959 21.5726 19.264 21.4118 18.8757C21.2509 18.4874 21.2088 18.0601 21.2908 17.6479C21.3728 17.2357 21.5752 16.8571 21.8724 16.5599C22.1696 16.2627 22.5482 16.0603 22.9604 15.9783C23.3726 15.8963 23.7999 15.9384 24.1882 16.0993C24.5765 16.2601 24.9084 16.5325 25.1419 16.8819C25.3754 17.2314 25.5 17.6422 25.5 18.0625C25.5 18.6261 25.2761 19.1666 24.8776 19.5651C24.4791 19.9636 23.9386 20.1875 23.375 20.1875ZM23.375 7.4375V4.25H27.9677L29.2427 7.4375H23.375Z" fill="black"/>
</svg>
