<svg width="18" height="17" viewBox="0 0 18 17" fill="none" xmlns="http://www.w3.org/2000/svg">
<path d="M7.8125 12.5C7.8125 12.6658 7.74665 12.8247 7.62944 12.9419C7.51223 13.0592 7.35326 13.125 7.1875 13.125H5C4.83424 13.125 4.67527 13.0592 4.55806 12.9419C4.44085 12.8247 4.375 12.6658 4.375 12.5C4.375 12.3342 4.44085 12.1753 4.55806 12.0581C4.67527 11.9408 4.83424 11.875 5 11.875H7.1875C7.35326 11.875 7.51223 11.9408 7.62944 12.0581C7.74665 12.1753 7.8125 12.3342 7.8125 12.5ZM12.5 11.875H10.3125C10.1467 11.875 9.98777 11.9408 9.87056 12.0581C9.75335 12.1753 9.6875 12.3342 9.6875 12.5C9.6875 12.6658 9.75335 12.8247 9.87056 12.9419C9.98777 13.0592 10.1467 13.125 10.3125 13.125H12.5C12.6658 13.125 12.8247 13.0592 12.9419 12.9419C13.0592 12.8247 13.125 12.6658 13.125 12.5C13.125 12.3342 13.0592 12.1753 12.9419 12.0581C12.8247 11.9408 12.6658 11.875 12.5 11.875ZM17.5 15.625C17.5 15.7908 17.4342 15.9497 17.3169 16.0669C17.1997 16.1842 17.0408 16.25 16.875 16.25H0.625C0.45924 16.25 0.300268 16.1842 0.183058 16.0669C0.065848 15.9497 0 15.7908 0 15.625C0 15.4592 0.065848 15.3003 0.183058 15.1831C0.300268 15.0658 0.45924 15 0.625 15H1.25V5.625C1.25 5.50893 1.28232 5.39515 1.34334 5.29642C1.40436 5.19768 1.49168 5.11789 1.59549 5.06598C1.69931 5.01407 1.81553 4.9921 1.93113 5.00253C2.04673 5.01295 2.15714 5.05536 2.25 5.125L6.25 8.125V5.625C6.25 5.50893 6.28232 5.39515 6.34334 5.29642C6.40436 5.19768 6.49168 5.11789 6.59549 5.06598C6.69931 5.01407 6.81553 4.9921 6.93113 5.00253C7.04673 5.01295 7.15714 5.05536 7.25 5.125L10.2766 7.39453L11.1797 1.07344C11.2234 0.776058 11.3723 0.504217 11.5994 0.30726C11.8265 0.110303 12.1166 0.00128698 12.4172 0H13.8328C14.1334 0.00128698 14.4235 0.110303 14.6506 0.30726C14.8777 0.504217 15.0266 0.776058 15.0703 1.07344L16.2422 9.28672C16.2422 9.28672 16.2484 9.34766 16.2484 9.375V15H16.8734C16.9556 14.9998 17.0371 15.0158 17.1131 15.0471C17.1891 15.0784 17.2582 15.1244 17.3164 15.1825C17.3746 15.2406 17.4208 15.3095 17.4523 15.3855C17.4838 15.4614 17.5 15.5428 17.5 15.625ZM11.4172 8.25L12.0836 8.75H14.9047L13.8328 1.25H12.4172L11.4172 8.25ZM2.5 15H15V10H11.875C11.7398 10 11.6082 9.95614 11.5 9.875L10.375 9.03125L7.5 6.875V9.375C7.5 9.49107 7.46768 9.60485 7.40666 9.70358C7.34564 9.80232 7.25832 9.88211 7.15451 9.93402C7.05069 9.98592 6.93447 10.0079 6.81887 9.99748C6.70327 9.98705 6.59286 9.94464 6.5 9.875L2.5 6.875V15Z" fill="black"/>
</svg>
