<svg width="40" height="40" viewBox="0 0 40 40" fill="none" xmlns="http://www.w3.org/2000/svg">
<rect width="40" height="40" rx="20" fill="#E0DDFF"/>
<path d="M19.25 23.1819V29.3075C19.2504 29.3606 19.2394 29.4132 19.2179 29.4617C19.1965 29.5103 19.1649 29.5537 19.1254 29.5892C19.0859 29.6246 19.0393 29.6513 18.9887 29.6674C18.9381 29.6835 18.8846 29.6886 18.8319 29.6825C17.0989 29.4697 15.4545 28.7966 14.0696 27.7332C12.6847 26.6698 11.6099 25.255 10.9569 23.6356C10.9374 23.5864 10.9285 23.5336 10.9308 23.4807C10.9332 23.4278 10.9467 23.376 10.9706 23.3287C10.9944 23.2814 11.028 23.2397 11.0691 23.2063C11.1102 23.1729 11.1579 23.1486 11.2091 23.135L17.1238 21.5469C17.1995 21.527 17.2795 21.5314 17.3526 21.5593C17.4258 21.5872 17.4883 21.6373 17.5316 21.7025C17.8897 22.2206 18.4007 22.6139 18.9931 22.8275C19.0677 22.8523 19.1325 22.8998 19.1786 22.9633C19.2247 23.0269 19.2497 23.1034 19.25 23.1819ZM20.0056 10.25C19.9067 10.2493 19.8085 10.2681 19.7169 10.3055C19.6252 10.3428 19.5419 10.398 19.4717 10.4677C19.4014 10.5374 19.3457 10.6203 19.3076 10.7117C19.2696 10.8031 19.25 10.9011 19.25 11V16.25C19.2485 16.4473 19.3254 16.6371 19.4637 16.7777C19.6021 16.9183 19.7906 16.9983 19.9878 17C20.6961 16.997 21.3827 17.2446 21.9259 17.6992C22.4692 18.1537 22.8341 18.7858 22.956 19.4836C23.0779 20.1814 22.949 20.8997 22.5921 21.5116C22.2352 22.1234 21.6733 22.5893 21.0059 22.8266C20.9314 22.8515 20.8666 22.8992 20.8207 22.963C20.7748 23.0268 20.7501 23.1033 20.75 23.1819V29.3075C20.7497 29.3605 20.7606 29.413 20.782 29.4615C20.8034 29.51 20.8349 29.5534 20.8743 29.5888C20.9137 29.6242 20.9602 29.6509 21.0107 29.6671C21.0612 29.6832 21.1145 29.6885 21.1672 29.6825C23.638 29.3903 25.9035 28.1646 27.5 26.2564C29.0965 24.3481 29.9031 21.9018 29.7546 19.4182C29.6062 16.9347 28.5139 14.6019 26.7015 12.8974C24.8891 11.1929 22.4936 10.2458 20.0056 10.25ZM17.0056 19.7647C17.0405 19.3217 17.1734 18.892 17.3947 18.5066V18.5C17.469 18.3717 17.5036 18.2242 17.4941 18.0761C17.4846 17.9281 17.4314 17.7862 17.3413 17.6685C17.2782 17.5874 17.1998 17.5196 17.1106 17.4688L12.5797 14.8494C12.4943 14.8002 12.4001 14.7683 12.3024 14.7555C12.2047 14.7427 12.1054 14.7493 12.0102 14.7749C11.9151 14.8005 11.8259 14.8446 11.7478 14.9046C11.6697 14.9647 11.6042 15.0396 11.555 15.125C10.4639 17.0148 10.0374 19.2157 10.3438 21.3763C10.351 21.429 10.3694 21.4796 10.3976 21.5247C10.4259 21.5698 10.4635 21.6083 10.5078 21.6377C10.5522 21.6672 10.6023 21.6869 10.6548 21.6954C10.7073 21.704 10.7611 21.7013 10.8125 21.6875L16.7394 20.0938C16.8128 20.0735 16.8782 20.031 16.9265 19.972C16.9749 19.9131 17.0038 19.8407 17.0094 19.7647H17.0056Z" fill="#5856D6"/>
</svg>
