<svg width="19" height="14" viewBox="0 0 19 14" fill="none" xmlns="http://www.w3.org/2000/svg">
<path d="M13.75 3.87266V3.4375C13.75 1.47812 10.7945 0 6.875 0C2.95547 0 0 1.47812 0 3.4375V6.5625C0 8.19453 2.05078 9.49141 5 9.87969V10.3125C5 12.2719 7.95547 13.75 11.875 13.75C15.7945 13.75 18.75 12.2719 18.75 10.3125V7.1875C18.75 5.57031 16.7641 4.27187 13.75 3.87266ZM17.5 7.1875C17.5 8.22031 15.0945 9.375 11.875 9.375C11.5836 9.375 11.2945 9.36484 11.0094 9.34609C12.6945 8.73203 13.75 7.73438 13.75 6.5625V5.13594C16.0836 5.48359 17.5 6.42734 17.5 7.1875ZM5 8.61328V6.75469C5.6217 6.83569 6.24804 6.87589 6.875 6.875C7.50196 6.87589 8.1283 6.83569 8.75 6.75469V8.61328C8.12922 8.70499 7.50251 8.75069 6.875 8.75C6.24749 8.75069 5.62078 8.70499 5 8.61328ZM12.5 5.46328V6.5625C12.5 7.21797 11.5305 7.92187 10 8.34922V6.52344C11.0086 6.27891 11.8625 5.91484 12.5 5.46328ZM6.875 1.25C10.0945 1.25 12.5 2.40469 12.5 3.4375C12.5 4.47031 10.0945 5.625 6.875 5.625C3.65547 5.625 1.25 4.47031 1.25 3.4375C1.25 2.40469 3.65547 1.25 6.875 1.25ZM1.25 6.5625V5.46328C1.8875 5.91484 2.74141 6.27891 3.75 6.52344V8.34922C2.21953 7.92187 1.25 7.21797 1.25 6.5625ZM6.25 10.3125V9.98672C6.45547 9.99453 6.66328 10 6.875 10C7.17812 10 7.47422 9.98984 7.76484 9.97266C8.0877 10.0882 8.41657 10.1863 8.75 10.2664V12.0992C7.21953 11.6719 6.25 10.968 6.25 10.3125ZM10 12.3633V10.5C10.6215 10.5835 11.2479 10.6253 11.875 10.625C12.502 10.6259 13.1283 10.5857 13.75 10.5047V12.3633C12.5066 12.5456 11.2434 12.5456 10 12.3633ZM15 12.0992V10.2734C16.0086 10.0289 16.8625 9.66484 17.5 9.21328V10.3125C17.5 10.968 16.5305 11.6719 15 12.0992Z" fill="black"/>
</svg>
