<svg width="21" height="19" viewBox="0 0 21 19" fill="none" xmlns="http://www.w3.org/2000/svg">
<path d="M11.3278 18.4153C11.2176 18.5809 11.0462 18.6959 10.8513 18.7351C10.6563 18.7743 10.4537 18.7345 10.2881 18.6244C7.46266 16.7447 4.14356 15.7445 0.75 15.75C0.551088 15.75 0.360322 15.671 0.21967 15.5303C0.0790176 15.3897 0 15.1989 0 15C0 14.8011 0.0790176 14.6103 0.21967 14.4697C0.360322 14.329 0.551088 14.25 0.75 14.25C4.43918 14.2444 8.04731 15.332 11.1188 17.3756C11.2843 17.4858 11.3994 17.6572 11.4386 17.8522C11.4778 18.0471 11.4379 18.2497 11.3278 18.4153ZM0.75 11.25C0.551088 11.25 0.360322 11.329 0.21967 11.4697C0.0790176 11.6103 0 11.8011 0 12C0 12.1989 0.0790176 12.3897 0.21967 12.5303C0.360322 12.671 0.551088 12.75 0.75 12.75C6.0514 12.7379 11.1438 14.8166 14.9222 18.5353C14.9919 18.607 15.0752 18.664 15.1673 18.703C15.2594 18.742 15.3583 18.7622 15.4583 18.7624C15.5583 18.7626 15.6573 18.7429 15.7495 18.7043C15.8417 18.6656 15.9253 18.609 15.9953 18.5376C16.0653 18.4662 16.1204 18.3815 16.1572 18.2886C16.194 18.1956 16.2119 18.0962 16.2097 17.9963C16.2075 17.8963 16.1854 17.7978 16.1446 17.7065C16.1038 17.6152 16.0452 17.533 15.9722 17.4647C11.9141 13.4699 6.44435 11.2368 0.75 11.25ZM20.25 12.75C18.717 12.749 17.1888 12.9217 15.6947 13.2647C16.2097 13.6553 16.7097 14.0666 17.1947 14.4984C18.2047 14.333 19.2265 14.2499 20.25 14.25C20.4489 14.25 20.6397 14.329 20.7803 14.4697C20.921 14.6103 21 14.8011 21 15C21 15.1989 20.921 15.3897 20.7803 15.5303C20.6397 15.671 20.4489 15.75 20.25 15.75C19.6875 15.75 19.1316 15.7772 18.5766 15.8306C19.0966 16.3725 19.5947 16.9394 20.0709 17.5312C20.1362 17.6076 20.1854 17.6964 20.2157 17.7922C20.246 17.888 20.2567 17.9888 20.2473 18.0889C20.2378 18.1889 20.2083 18.286 20.1606 18.3744C20.1129 18.4628 20.048 18.5407 19.9696 18.6036C19.8912 18.6664 19.8009 18.7128 19.7043 18.7401C19.6076 18.7674 19.5064 18.775 19.4067 18.7624C19.307 18.7498 19.2109 18.7173 19.124 18.6669C19.0371 18.6165 18.9613 18.5491 18.9009 18.4688C16.7271 15.7427 13.9657 13.5428 10.8228 12.0331C7.6799 10.5235 4.23666 9.743 0.75 9.75C0.551088 9.75 0.360322 9.67098 0.21967 9.53033C0.0790176 9.38968 0 9.19891 0 9C0 8.80109 0.0790176 8.61032 0.21967 8.46967C0.360322 8.32902 0.551088 8.25 0.75 8.25C2.2593 8.25027 3.76547 8.3874 5.25 8.65969V5.25C5.25 5.13357 5.27711 5.01873 5.32918 4.91459C5.38125 4.81045 5.45685 4.71986 5.55 4.65L11.55 0.15C11.6798 0.0526334 11.8377 0 12 0C12.1623 0 12.3202 0.0526334 12.45 0.15L18.45 4.65C18.5431 4.71986 18.6187 4.81045 18.6708 4.91459C18.7229 5.01873 18.75 5.13357 18.75 5.25V8.29594C19.2478 8.26688 19.7475 8.25 20.25 8.25C20.4489 8.25 20.6397 8.32902 20.7803 8.46967C20.921 8.61032 21 8.80109 21 9C21 9.19891 20.921 9.38968 20.7803 9.53033C20.6397 9.67098 20.4489 9.75 20.25 9.75C17.5567 9.74486 14.8833 10.2109 12.3506 11.1272C12.9406 11.4397 13.5175 11.7766 14.0812 12.1378C16.0843 11.5475 18.1618 11.2485 20.25 11.25C20.4489 11.25 20.6397 11.329 20.7803 11.4697C20.921 11.6103 21 11.8011 21 12C21 12.1989 20.921 12.3897 20.7803 12.5303C20.6397 12.671 20.4489 12.75 20.25 12.75ZM9.75 6H14.25C14.4489 6 14.6397 6.07902 14.7803 6.21967C14.921 6.36032 15 6.55109 15 6.75V8.80688C15.7425 8.64688 16.4925 8.52188 17.25 8.43188V5.625L12 1.6875L6.75 5.625V8.98219C7.51188 9.16969 8.26188 9.39406 9 9.65531V6.75C9 6.55109 9.07902 6.36032 9.21967 6.21967C9.36032 6.07902 9.55109 6 9.75 6ZM10.5066 10.2441C11.4805 9.8259 12.4804 9.4711 13.5 9.18188V7.5H10.5V10.2413L10.5066 10.2441Z" fill="#116A31"/>
</svg>
