<svg width="17" height="21" viewBox="0 0 17 21" fill="none" xmlns="http://www.w3.org/2000/svg">
<path d="M15.75 3.74679C14.7283 3.74678 13.7157 3.93755 12.7641 4.30929C11.4216 1.52491 8.70938 0.141162 8.58562 0.079287C8.48143 0.0271465 8.36652 0 8.25 0C8.13348 0 8.01857 0.0271465 7.91437 0.079287C7.78969 0.141162 5.07844 1.52491 3.73594 4.30929C2.78432 3.93755 1.77165 3.74678 0.75 3.74679C0.551088 3.74679 0.360322 3.82581 0.21967 3.96646C0.0790178 4.10711 0 4.29787 0 4.49679V11.9968C0 14.1848 0.869194 16.2832 2.41637 17.8304C3.96354 19.3776 6.06196 20.2468 8.25 20.2468C10.438 20.2468 12.5365 19.3776 14.0836 17.8304C15.6308 16.2832 16.5 14.1848 16.5 11.9968V4.49679C16.5 4.29787 16.421 4.10711 16.2803 3.96646C16.1397 3.82581 15.9489 3.74679 15.75 3.74679ZM7.5 18.7055C5.85065 18.5191 4.32757 17.7322 3.22105 16.495C2.11452 15.2578 1.50192 13.6566 1.5 11.9968V10.538C3.14935 10.7245 4.67243 11.5113 5.77895 12.7486C6.88548 13.9858 7.49808 15.5869 7.5 17.2468V18.7055ZM7.5 12.5087C6.8122 11.5283 5.91922 10.7095 4.88309 10.109C3.84697 9.50856 2.69254 9.14086 1.5 9.03148V5.28804C3.14935 5.47451 4.67243 6.26134 5.77895 7.49858C6.88548 8.73581 7.49808 10.3369 7.5 11.9968V12.5087ZM5.07656 4.97585C5.94094 3.17491 7.5525 2.03866 8.25 1.61022C8.9475 2.0396 10.5591 3.17585 11.4225 4.97585C10.036 5.83391 8.93266 7.08103 8.25 8.56179C7.56728 7.08078 6.46356 5.8336 5.07656 4.97585ZM15 11.9968C14.9981 13.6566 14.3855 15.2578 13.279 16.495C12.1724 17.7322 10.6494 18.5191 9 18.7055V17.2468C9.00192 15.5869 9.61452 13.9858 10.721 12.7486C11.8276 11.5113 13.3506 10.7245 15 10.538V11.9968ZM15 9.03148C13.8075 9.14086 12.653 9.50856 11.6169 10.109C10.5808 10.7095 9.6878 11.5283 9 12.5087V11.9968C9.00192 10.3369 9.61452 8.73581 10.721 7.49858C11.8276 6.26134 13.3506 5.47451 15 5.28804V9.03148Z" fill="#116A31"/>
</svg>
