<svg width="40" height="40" viewBox="0 0 40 40" fill="none" xmlns="http://www.w3.org/2000/svg">
<rect width="40" height="40" rx="20" fill="#FFF1DD"/>
<path d="M15.5 24.125C15.5 24.3475 15.434 24.565 15.3104 24.75C15.1868 24.935 15.0111 25.0792 14.8055 25.1644C14.6 25.2495 14.3738 25.2718 14.1555 25.2284C13.9373 25.185 13.7368 25.0778 13.5795 24.9205C13.4222 24.7632 13.315 24.5627 13.2716 24.3445C13.2282 24.1262 13.2505 23.9 13.3356 23.6945C13.4208 23.4889 13.565 23.3132 13.75 23.1896C13.935 23.066 14.1525 23 14.375 23C14.6734 23 14.9595 23.1185 15.1705 23.3295C15.3815 23.5405 15.5 23.8266 15.5 24.125ZM19.25 24.125C19.25 25.0892 18.9641 26.0317 18.4284 26.8334C17.8927 27.6351 17.1314 28.2599 16.2406 28.6289C15.3498 28.9979 14.3696 29.0944 13.4239 28.9063C12.4783 28.7182 11.6096 28.2539 10.9279 27.5721C10.2461 26.8904 9.78178 26.0217 9.59367 25.0761C9.40557 24.1304 9.50211 23.1502 9.87109 22.2594C10.2401 21.3686 10.8649 20.6073 11.6666 20.0716C12.4683 19.5359 13.4108 19.25 14.375 19.25C15.6675 19.2515 16.9066 19.7656 17.8205 20.6795C18.7344 21.5934 19.2485 22.8325 19.25 24.125ZM17 24.125C17 23.6058 16.846 23.0983 16.5576 22.6666C16.2692 22.235 15.8592 21.8985 15.3795 21.6998C14.8999 21.5011 14.3721 21.4492 13.8629 21.5504C13.3537 21.6517 12.886 21.9017 12.5188 22.2688C12.1517 22.636 11.9017 23.1037 11.8004 23.6129C11.6992 24.1221 11.7511 24.6499 11.9498 25.1295C12.1485 25.6092 12.485 26.0192 12.9166 26.3076C13.3483 26.596 13.8558 26.75 14.375 26.75C15.0712 26.75 15.7389 26.4734 16.2312 25.9812C16.7234 25.4889 17 24.8212 17 24.125ZM31.25 25.625C31.2485 26.4866 30.9176 27.315 30.325 27.9404C29.7324 28.5658 28.9231 28.941 28.0628 28.9889C27.2026 29.0369 26.3566 28.754 25.6981 28.1983C25.0397 27.6426 24.6188 26.8561 24.5216 26H21.5C21.3011 26 21.1103 25.921 20.9697 25.7803C20.829 25.6397 20.75 25.4489 20.75 25.25V24.125C20.7483 22.4348 20.0761 20.8143 18.8809 19.6191C17.6857 18.4239 16.0652 17.7517 14.375 17.75H11.75C11.5511 17.75 11.3603 17.671 11.2197 17.5303C11.079 17.3897 11 17.1989 11 17C11 16.8011 11.079 16.6103 11.2197 16.4697C11.3603 16.329 11.5511 16.25 11.75 16.25H12.5V13.25H11.75C11.5511 13.25 11.3603 13.171 11.2197 13.0303C11.079 12.8897 11 12.6989 11 12.5C11 12.3011 11.079 12.1103 11.2197 11.9697C11.3603 11.829 11.5511 11.75 11.75 11.75H23C23.1989 11.75 23.3897 11.829 23.5303 11.9697C23.671 12.1103 23.75 12.3011 23.75 12.5C23.75 12.6989 23.671 12.8897 23.5303 13.0303C23.3897 13.171 23.1989 13.25 23 13.25H22.25V17.1762L24.5 17.7856V14.75C24.5 14.5511 24.579 14.3603 24.7197 14.2197C24.8603 14.079 25.0511 14 25.25 14C25.4489 14 25.6397 14.079 25.7803 14.2197C25.921 14.3603 26 14.5511 26 14.75V18.1916L29.4116 19.1159L29.4313 19.1216C29.7418 19.213 30.014 19.4031 30.2069 19.6631C30.3997 19.9231 30.5026 20.2388 30.5 20.5625V23.5119C30.9849 24.1094 31.2496 24.8555 31.25 25.625ZM29.375 25.625C29.375 25.3283 29.287 25.0383 29.1222 24.7916C28.9574 24.545 28.7231 24.3527 28.449 24.2392C28.1749 24.1257 27.8733 24.0959 27.5824 24.1538C27.2914 24.2117 27.0241 24.3546 26.8143 24.5643C26.6046 24.7741 26.4617 25.0414 26.4038 25.3324C26.3459 25.6233 26.3757 25.9249 26.4892 26.199C26.6027 26.4731 26.795 26.7074 27.0416 26.8722C27.2883 27.037 27.5783 27.125 27.875 27.125C28.2728 27.125 28.6544 26.967 28.9357 26.6857C29.217 26.4044 29.375 26.0228 29.375 25.625Z" fill="#FF9500"/>
</svg>
