<svg width="17" height="14" viewBox="0 0 17 14" fill="none" xmlns="http://www.w3.org/2000/svg">
<path d="M16.25 0.625V3.75C16.25 3.91576 16.1842 4.07473 16.0669 4.19194C15.9497 4.30915 15.7908 4.375 15.625 4.375C15.4592 4.375 15.3003 4.30915 15.1831 4.19194C15.0658 4.07473 15 3.91576 15 3.75V1.25H12.5C12.3342 1.25 12.1753 1.18415 12.0581 1.06694C11.9408 0.949731 11.875 0.79076 11.875 0.625C11.875 0.45924 11.9408 0.300269 12.0581 0.183058C12.1753 0.0658481 12.3342 0 12.5 0H15.625C15.7908 0 15.9497 0.0658481 16.0669 0.183058C16.1842 0.300269 16.25 0.45924 16.25 0.625ZM3.75 12.5H1.25V10C1.25 9.83424 1.18415 9.67527 1.06694 9.55806C0.949731 9.44085 0.79076 9.375 0.625 9.375C0.45924 9.375 0.300268 9.44085 0.183058 9.55806C0.065848 9.67527 0 9.83424 0 10V13.125C0 13.2908 0.065848 13.4497 0.183058 13.5669C0.300268 13.6842 0.45924 13.75 0.625 13.75H3.75C3.91576 13.75 4.07473 13.6842 4.19194 13.5669C4.30915 13.4497 4.375 13.2908 4.375 13.125C4.375 12.9592 4.30915 12.8003 4.19194 12.6831C4.07473 12.5658 3.91576 12.5 3.75 12.5ZM15.625 9.375C15.4592 9.375 15.3003 9.44085 15.1831 9.55806C15.0658 9.67527 15 9.83424 15 10V12.5H12.5C12.3342 12.5 12.1753 12.5658 12.0581 12.6831C11.9408 12.8003 11.875 12.9592 11.875 13.125C11.875 13.2908 11.9408 13.4497 12.0581 13.5669C12.1753 13.6842 12.3342 13.75 12.5 13.75H15.625C15.7908 13.75 15.9497 13.6842 16.0669 13.5669C16.1842 13.4497 16.25 13.2908 16.25 13.125V10C16.25 9.83424 16.1842 9.67527 16.0669 9.55806C15.9497 9.44085 15.7908 9.375 15.625 9.375ZM0.625 4.375C0.79076 4.375 0.949731 4.30915 1.06694 4.19194C1.18415 4.07473 1.25 3.91576 1.25 3.75V1.25H3.75C3.91576 1.25 4.07473 1.18415 4.19194 1.06694C4.30915 0.949731 4.375 0.79076 4.375 0.625C4.375 0.45924 4.30915 0.300269 4.19194 0.183058C4.07473 0.0658481 3.91576 0 3.75 0H0.625C0.45924 0 0.300268 0.0658481 0.183058 0.183058C0.065848 0.300269 0 0.45924 0 0.625V3.75C0 3.91576 0.065848 4.07473 0.183058 4.19194C0.300268 4.30915 0.45924 4.375 0.625 4.375ZM4.375 3.125C4.20924 3.125 4.05027 3.19085 3.93306 3.30806C3.81585 3.42527 3.75 3.58424 3.75 3.75V10C3.75 10.1658 3.81585 10.3247 3.93306 10.4419C4.05027 10.5592 4.20924 10.625 4.375 10.625C4.54076 10.625 4.69973 10.5592 4.81694 10.4419C4.93415 10.3247 5 10.1658 5 10V3.75C5 3.58424 4.93415 3.42527 4.81694 3.30806C4.69973 3.19085 4.54076 3.125 4.375 3.125ZM12.5 10V3.75C12.5 3.58424 12.4342 3.42527 12.3169 3.30806C12.1997 3.19085 12.0408 3.125 11.875 3.125C11.7092 3.125 11.5503 3.19085 11.4331 3.30806C11.3158 3.42527 11.25 3.58424 11.25 3.75V10C11.25 10.1658 11.3158 10.3247 11.4331 10.4419C11.5503 10.5592 11.7092 10.625 11.875 10.625C12.0408 10.625 12.1997 10.5592 12.3169 10.4419C12.4342 10.3247 12.5 10.1658 12.5 10ZM9.375 3.125C9.20924 3.125 9.05027 3.19085 8.93306 3.30806C8.81585 3.42527 8.75 3.58424 8.75 3.75V10C8.75 10.1658 8.81585 10.3247 8.93306 10.4419C9.05027 10.5592 9.20924 10.625 9.375 10.625C9.54076 10.625 9.69973 10.5592 9.81694 10.4419C9.93415 10.3247 10 10.1658 10 10V3.75C10 3.58424 9.93415 3.42527 9.81694 3.30806C9.69973 3.19085 9.54076 3.125 9.375 3.125ZM6.875 3.125C6.70924 3.125 6.55027 3.19085 6.43306 3.30806C6.31585 3.42527 6.25 3.58424 6.25 3.75V10C6.25 10.1658 6.31585 10.3247 6.43306 10.4419C6.55027 10.5592 6.70924 10.625 6.875 10.625C7.04076 10.625 7.19973 10.5592 7.31694 10.4419C7.43415 10.3247 7.5 10.1658 7.5 10V3.75C7.5 3.58424 7.43415 3.42527 7.31694 3.30806C7.19973 3.19085 7.04076 3.125 6.875 3.125Z" fill="black"/>
</svg>
