<svg width="32" height="25" viewBox="0 0 32 25" fill="none" xmlns="http://www.w3.org/2000/svg">
<path d="M30.8125 22.3121H29.75V9.91672C29.75 9.56701 29.6637 9.2227 29.4988 8.91433C29.3338 8.60596 29.0953 8.34308 28.8044 8.14898L17.1169 0.356875C16.7678 0.124174 16.3577 0 15.9382 0C15.5186 0 15.1085 0.124174 14.7595 0.356875L3.07195 8.14898C2.7808 8.34292 2.54203 8.60575 2.37683 8.91412C2.21164 9.2225 2.12514 9.56689 2.125 9.91672V22.3121H1.0625C0.780707 22.3121 0.510456 22.424 0.311199 22.6233C0.111942 22.8226 0 23.0928 0 23.3746C0 23.6564 0.111942 23.9267 0.311199 24.1259C0.510456 24.3252 0.780707 24.4371 1.0625 24.4371H30.8125C31.0943 24.4371 31.3645 24.3252 31.5638 24.1259C31.7631 23.9267 31.875 23.6564 31.875 23.3746C31.875 23.0928 31.7631 22.8226 31.5638 22.6233C31.3645 22.424 31.0943 22.3121 30.8125 22.3121ZM17 13.8121H24.4375V16.9996H17V13.8121ZM14.875 16.9996H7.4375V13.8121H14.875V16.9996ZM7.4375 19.1246H14.875V22.3121H7.4375V19.1246ZM17 19.1246H24.4375V22.3121H17V19.1246Z" fill="black"/>
</svg>
