<svg width="19" height="15" viewBox="0 0 19 15" fill="none" xmlns="http://www.w3.org/2000/svg">
<path d="M18.125 13.1248H17.5V5.83336C17.5 5.62765 17.4492 5.42511 17.3522 5.24372C17.2552 5.06233 17.1149 4.90769 16.9438 4.79352L10.0688 0.209927C9.86342 0.0730438 9.62217 0 9.37539 0C9.12862 0 8.88736 0.0730438 8.68203 0.209927L1.80703 4.79352C1.63576 4.9076 1.49531 5.0622 1.39814 5.2436C1.30097 5.425 1.25008 5.62758 1.25 5.83336V13.1248H0.625C0.45924 13.1248 0.300268 13.1906 0.183058 13.3078C0.065848 13.425 0 13.584 0 13.7498C0 13.9155 0.065848 14.0745 0.183058 14.1917C0.300268 14.3089 0.45924 14.3748 0.625 14.3748H18.125C18.2908 14.3748 18.4497 14.3089 18.5669 14.1917C18.6842 14.0745 18.75 13.9155 18.75 13.7498C18.75 13.584 18.6842 13.425 18.5669 13.3078C18.4497 13.1906 18.2908 13.1248 18.125 13.1248ZM2.5 5.83336L9.375 1.24977L16.25 5.83258V13.1248H14.375V8.74977C14.375 8.58401 14.3092 8.42504 14.1919 8.30783C14.0747 8.19062 13.9158 8.12477 13.75 8.12477H5C4.83424 8.12477 4.67527 8.19062 4.55806 8.30783C4.44085 8.42504 4.375 8.58401 4.375 8.74977V13.1248H2.5V5.83336ZM13.125 9.37477V10.6248H10V9.37477H13.125ZM8.75 10.6248H5.625V9.37477H8.75V10.6248ZM5.625 11.8748H8.75V13.1248H5.625V11.8748ZM10 11.8748H13.125V13.1248H10V11.8748Z" fill="black"/>
</svg>
