<svg width="24" height="24" viewBox="0 0 24 24" fill="none" xmlns="http://www.w3.org/2000/svg">
<path d="M8.24993 21.0001C8.24993 21.2967 8.16196 21.5867 7.99713 21.8334C7.83231 22.0801 7.59804 22.2723 7.32395 22.3859C7.04986 22.4994 6.74826 22.5291 6.45729 22.4712C6.16632 22.4134 5.89905 22.2705 5.68927 22.0607C5.47949 21.8509 5.33663 21.5837 5.27875 21.2927C5.22087 21.0017 5.25058 20.7001 5.36411 20.426C5.47764 20.1519 5.6699 19.9177 5.91657 19.7528C6.16325 19.588 6.45326 19.5001 6.74993 19.5001C7.14775 19.5001 7.52928 19.6581 7.81059 19.9394C8.09189 20.2207 8.24993 20.6022 8.24993 21.0001ZM20.2499 19.5001C19.9533 19.5001 19.6632 19.588 19.4166 19.7528C19.1699 19.9177 18.9776 20.1519 18.8641 20.426C18.7506 20.7001 18.7209 21.0017 18.7788 21.2927C18.8366 21.5837 18.9795 21.8509 19.1893 22.0607C19.399 22.2705 19.6663 22.4134 19.9573 22.4712C20.2483 22.5291 20.5499 22.4994 20.824 22.3859C21.098 22.2723 21.3323 22.0801 21.4971 21.8334C21.662 21.5867 21.7499 21.2967 21.7499 21.0001C21.7499 20.6022 21.5919 20.2207 21.3106 19.9394C21.0293 19.6581 20.6478 19.5001 20.2499 19.5001ZM22.4999 16.5001H5.24993V7.06036C5.25056 6.86331 5.21201 6.66809 5.13653 6.48607C5.06105 6.30404 4.95014 6.13883 4.81024 6.00005L2.78055 3.96943C2.71087 3.89974 2.62815 3.84447 2.5371 3.80676C2.44606 3.76904 2.34847 3.74963 2.24993 3.74963C2.05091 3.74963 1.86003 3.8287 1.7193 3.96943C1.64962 4.03911 1.59435 4.12183 1.55663 4.21288C1.51892 4.30392 1.49951 4.4015 1.49951 4.50005C1.49951 4.69907 1.57857 4.88995 1.7193 5.03068L3.74993 7.06036V16.5001H2.99993C2.80102 16.5001 2.61025 16.5791 2.4696 16.7197C2.32895 16.8604 2.24993 17.0511 2.24993 17.2501C2.24993 17.449 2.32895 17.6397 2.4696 17.7804C2.61025 17.921 2.80102 18.0001 2.99993 18.0001H22.4999C22.6988 18.0001 22.8896 17.921 23.0303 17.7804C23.1709 17.6397 23.2499 17.449 23.2499 17.2501C23.2499 17.0511 23.1709 16.8604 23.0303 16.7197C22.8896 16.5791 22.6988 16.5001 22.4999 16.5001ZM8.24993 15.0001H20.2499C20.6478 15.0001 21.0293 14.842 21.3106 14.5607C21.5919 14.2794 21.7499 13.8979 21.7499 13.5001V7.50005C21.7499 7.10223 21.5919 6.7207 21.3106 6.43939C21.0293 6.15809 20.6478 6.00005 20.2499 6.00005H8.24993C7.8521 6.00005 7.47057 6.15809 7.18927 6.43939C6.90796 6.7207 6.74993 7.10223 6.74993 7.50005V13.5001C6.74993 13.8979 6.90796 14.2794 7.18927 14.5607C7.47057 14.842 7.8521 15.0001 8.24993 15.0001Z" fill="#0F913D"/>
</svg>
