<svg width="36" height="36" viewBox="0 0 36 36" fill="none" xmlns="http://www.w3.org/2000/svg">
<g filter="url(#filter0_i_1163_37524)">
<rect x="0.600098" y="0.599609" width="34" height="34" rx="4" fill="white"/>
<rect x="0.300098" y="0.299609" width="34.6" height="34.6" rx="4.3" stroke="#E7E7E7" stroke-width="0.6"/>
<path d="M28.1626 25.7246H27.3501V18.4121C27.3501 18.407 27.3501 18.403 27.3501 18.3979C27.3501 18.3928 27.3501 18.3684 27.3501 18.3542C27.3501 18.34 27.3501 18.3258 27.3501 18.3126C27.3506 18.3075 27.3506 18.3024 27.3501 18.2973L25.8267 7.62008C25.7695 7.23176 25.5745 6.877 25.2772 6.62074C24.9799 6.36447 24.6003 6.22385 24.2078 6.22461H22.3674C21.9767 6.22629 21.5995 6.36801 21.3043 6.62405C21.0091 6.88009 20.8156 7.23349 20.7587 7.62008L19.5846 15.8375L15.6501 12.8871C15.5294 12.7966 15.3858 12.7414 15.2356 12.7279C15.0853 12.7143 14.9342 12.7429 14.7992 12.8104C14.6643 12.8779 14.5508 12.9816 14.4714 13.11C14.3921 13.2383 14.3501 13.3862 14.3501 13.5371V16.7871L9.1501 12.8871C9.02938 12.7966 8.88585 12.7414 8.73556 12.7279C8.58528 12.7143 8.4342 12.7429 8.29924 12.8104C8.16428 12.8779 8.05077 12.9816 7.97144 13.11C7.89212 13.2383 7.8501 13.3862 7.8501 13.5371V25.7246H7.0376C6.82211 25.7246 6.61545 25.8102 6.46307 25.9626C6.3107 26.115 6.2251 26.3216 6.2251 26.5371C6.2251 26.7526 6.3107 26.9593 6.46307 27.1116C6.61545 27.264 6.82211 27.3496 7.0376 27.3496H28.1626C28.3781 27.3496 28.5847 27.264 28.7371 27.1116C28.8895 26.9593 28.9751 26.7526 28.9751 26.5371C28.9751 26.3216 28.8895 26.115 28.7371 25.9626C28.5847 25.8102 28.3781 25.7246 28.1626 25.7246ZM15.5688 23.2871H12.7251C12.5096 23.2871 12.3029 23.2015 12.1506 23.0491C11.9982 22.8968 11.9126 22.6901 11.9126 22.4746C11.9126 22.2591 11.9982 22.0525 12.1506 21.9001C12.3029 21.7477 12.5096 21.6621 12.7251 21.6621H15.5688C15.7843 21.6621 15.991 21.7477 16.1434 21.9001C16.2957 22.0525 16.3813 22.2591 16.3813 22.4746C16.3813 22.6901 16.2957 22.8968 16.1434 23.0491C15.991 23.2015 15.7843 23.2871 15.5688 23.2871ZM22.4751 23.2871H19.6313C19.4159 23.2871 19.2092 23.2015 19.0568 23.0491C18.9044 22.8968 18.8188 22.6901 18.8188 22.4746C18.8188 22.2591 18.9044 22.0525 19.0568 21.9001C19.2092 21.7477 19.4159 21.6621 19.6313 21.6621H22.4751C22.6906 21.6621 22.8972 21.7477 23.0496 21.9001C23.202 22.0525 23.2876 22.2591 23.2876 22.4746C23.2876 22.6901 23.202 22.8968 23.0496 23.0491C22.8972 23.2015 22.6906 23.2871 22.4751 23.2871ZM21.9338 17.5996L21.0674 16.9496L22.3674 7.84961H24.2078L25.6012 17.5996H21.9338Z" fill="black"/>
</g>
<defs>
<filter id="filter0_i_1163_37524" x="-4" y="-1" width="39.2002" height="36.1992" filterUnits="userSpaceOnUse" color-interpolation-filters="sRGB">
<feFlood flood-opacity="0" result="BackgroundImageFix"/>
<feBlend mode="normal" in="SourceGraphic" in2="BackgroundImageFix" result="shape"/>
<feColorMatrix in="SourceAlpha" type="matrix" values="0 0 0 0 0 0 0 0 0 0 0 0 0 0 0 0 0 0 127 0" result="hardAlpha"/>
<feOffset dx="-4" dy="-1"/>
<feGaussianBlur stdDeviation="4"/>
<feComposite in2="hardAlpha" operator="arithmetic" k2="-1" k3="1"/>
<feColorMatrix type="matrix" values="0 0 0 0 0 0 0 0 0 0 0 0 0 0 0 0 0 0 0.07 0"/>
<feBlend mode="normal" in2="shape" result="effect1_innerShadow_1163_37524"/>
</filter>
</defs>
</svg>
