<svg width="40" height="40" viewBox="0 0 40 40" fill="none" xmlns="http://www.w3.org/2000/svg">
<rect width="40" height="40" rx="20" fill="#E1FFDD"/>
<path d="M27.5 13.2507C26.4783 13.2507 25.4657 13.4415 24.5141 13.8132C23.1716 11.0288 20.4594 9.64507 20.3356 9.58319C20.2314 9.53105 20.1165 9.50391 20 9.50391C19.8835 9.50391 19.7686 9.53105 19.6644 9.58319C19.5397 9.64507 16.8284 11.0288 15.4859 13.8132C14.5343 13.4415 13.5217 13.2507 12.5 13.2507C12.3011 13.2507 12.1103 13.3297 11.9697 13.4704C11.829 13.611 11.75 13.8018 11.75 14.0007V21.5007C11.75 23.6887 12.6192 25.7872 14.1664 27.3343C15.7135 28.8815 17.812 29.7507 20 29.7507C22.188 29.7507 24.2865 28.8815 25.8336 27.3343C27.3808 25.7872 28.25 23.6887 28.25 21.5007V14.0007C28.25 13.8018 28.171 13.611 28.0303 13.4704C27.8897 13.3297 27.6989 13.2507 27.5 13.2507ZM19.25 28.2094C17.6006 28.023 16.0776 27.2361 14.971 25.9989C13.8645 24.7617 13.2519 23.1606 13.25 21.5007V20.0419C14.8994 20.2284 16.4224 21.0153 17.529 22.2525C18.6355 23.4897 19.2481 25.0908 19.25 26.7507V28.2094ZM19.25 22.0126C18.5622 21.0322 17.6692 20.2134 16.6331 19.6129C15.597 19.0125 14.4425 18.6448 13.25 18.5354V14.7919C14.8994 14.9784 16.4224 15.7653 17.529 17.0025C18.6355 18.2397 19.2481 19.8408 19.25 21.5007V22.0126ZM16.8266 14.4798C17.6909 12.6788 19.3025 11.5426 20 11.1141C20.6975 11.5435 22.3091 12.6798 23.1725 14.4798C21.786 15.3378 20.6827 16.5849 20 18.0657C19.3173 16.5847 18.2136 15.3375 16.8266 14.4798ZM26.75 21.5007C26.7481 23.1606 26.1355 24.7617 25.029 25.9989C23.9224 27.2361 22.3994 28.023 20.75 28.2094V26.7507C20.7519 25.0908 21.3645 23.4897 22.471 22.2525C23.5776 21.0153 25.1006 20.2284 26.75 20.0419V21.5007ZM26.75 18.5354C25.5575 18.6448 24.403 19.0125 23.3669 19.6129C22.3308 20.2134 21.4378 21.0322 20.75 22.0126V21.5007C20.7519 19.8408 21.3645 18.2397 22.471 17.0025C23.5776 15.7653 25.1006 14.9784 26.75 14.7919V18.5354Z" fill="#0F913D"/>
</svg>
