<svg width="187" height="171" viewBox="0 0 187 171" fill="none" xmlns="http://www.w3.org/2000/svg">
<path d="M103.499 169.671C149.152 169.671 186.16 167.65 186.16 165.156C186.16 162.662 149.152 160.641 103.499 160.641C57.8474 160.641 20.8391 162.662 20.8391 165.156C20.8391 167.65 57.8474 169.671 103.499 169.671Z" fill="#0F913D"/>
<path opacity="0.5" d="M103.499 169.671C149.152 169.671 186.16 167.65 186.16 165.156C186.16 162.662 149.152 160.641 103.499 160.641C57.8474 160.641 20.8391 162.662 20.8391 165.156C20.8391 167.65 57.8474 169.671 103.499 169.671Z" fill="white"/>
<path d="M169.395 51.0078H23.6421V59.1953H177.521" stroke="#92989B" stroke-width="0.8" stroke-miterlimit="10"/>
<path d="M169.395 75.9844H23.6421V84.1718H177.521" stroke="#92989B" stroke-width="0.8" stroke-miterlimit="10"/>
<path d="M169.395 100.957H23.6421V109.144H177.521" stroke="#92989B" stroke-width="0.8" stroke-miterlimit="10"/>
<path d="M169.395 125.926H23.6421V134.113H177.521" stroke="#92989B" stroke-width="0.8" stroke-miterlimit="10"/>
<path d="M169.395 151.102H23.6421V159.289H177.521" stroke="#92989B" stroke-width="0.8" stroke-miterlimit="10"/>
<path d="M44.5577 38.8398H27.5483V51.0269H44.5577V38.8398Z" stroke="#92989B" stroke-width="0.8" stroke-miterlimit="10"/>
<path d="M44.5566 38.8398H37.6545V51.0269H44.5566V38.8398Z" stroke="#92989B" stroke-width="0.8" stroke-miterlimit="10"/>
<path d="M62.4327 38.8398H45.4233V51.0269H62.4327V38.8398Z" stroke="#92989B" stroke-width="0.8" stroke-miterlimit="10"/>
<path d="M62.4316 38.8398H55.5295V51.0269H62.4316V38.8398Z" stroke="#92989B" stroke-width="0.8" stroke-miterlimit="10"/>
<path d="M80.3077 38.8398H63.2983V51.0269H80.3077V38.8398Z" stroke="#92989B" stroke-width="0.8" stroke-miterlimit="10"/>
<path d="M80.3129 38.8398H73.4109V51.0269H80.3129V38.8398Z" stroke="#92989B" stroke-width="0.8" stroke-miterlimit="10"/>
<path d="M98.1891 38.8398H81.1797V51.0269H98.1891V38.8398Z" stroke="#92989B" stroke-width="0.8" stroke-miterlimit="10"/>
<path d="M98.1816 38.8398H91.2795V51.0269H98.1816V38.8398Z" stroke="#92989B" stroke-width="0.8" stroke-miterlimit="10"/>
<path d="M116.064 38.8398H99.0547V51.0269H116.064V38.8398Z" stroke="#92989B" stroke-width="0.8" stroke-miterlimit="10"/>
<path d="M116.063 38.8398H109.161V51.0269H116.063V38.8398Z" stroke="#92989B" stroke-width="0.8" stroke-miterlimit="10"/>
<path d="M133.939 38.8398H116.93V51.0269H133.939V38.8398Z" stroke="#92989B" stroke-width="0.8" stroke-miterlimit="10"/>
<path d="M133.938 38.8398H127.036V51.0269H133.938V38.8398Z" stroke="#92989B" stroke-width="0.8" stroke-miterlimit="10"/>
<path d="M151.814 38.8398H134.805V51.0269H151.814V38.8398Z" stroke="#92989B" stroke-width="0.8" stroke-miterlimit="10"/>
<path d="M151.813 38.8398H144.911V51.0269H151.813V38.8398Z" stroke="#92989B" stroke-width="0.8" stroke-miterlimit="10"/>
<path d="M30.5571 66.293H24.9609V76.1179H30.5571V66.293Z" stroke="#92989B" stroke-width="0.8" stroke-miterlimit="10"/>
<path d="M30.5571 63.4297H24.9609V66.2953H30.5571V63.4297Z" stroke="#92989B" stroke-width="0.8" stroke-miterlimit="10"/>
<path d="M37.1069 66.293H31.5107V76.1179H37.1069V66.293Z" stroke="#92989B" stroke-width="0.8" stroke-miterlimit="10"/>
<path d="M37.1069 63.4297H31.5107V66.2953H37.1069V63.4297Z" stroke="#92989B" stroke-width="0.8" stroke-miterlimit="10"/>
<path d="M43.6569 66.293H38.0608V76.1179H43.6569V66.293Z" stroke="#92989B" stroke-width="0.8" stroke-miterlimit="10"/>
<path d="M43.6569 63.4297H38.0608V66.2953H43.6569V63.4297Z" stroke="#92989B" stroke-width="0.8" stroke-miterlimit="10"/>
<path d="M50.2133 66.293H44.6172V76.1179H50.2133V66.293Z" stroke="#92989B" stroke-width="0.8" stroke-miterlimit="10"/>
<path d="M50.2133 63.4297H44.6172V66.2953H50.2133V63.4297Z" stroke="#92989B" stroke-width="0.8" stroke-miterlimit="10"/>
<path d="M56.757 66.293H51.1609V76.1179H56.757V66.293Z" stroke="#92989B" stroke-width="0.8" stroke-miterlimit="10"/>
<path d="M56.757 63.4297H51.1609V66.2953H56.757V63.4297Z" stroke="#92989B" stroke-width="0.8" stroke-miterlimit="10"/>
<path d="M63.3071 66.293H57.7109V76.1179H63.3071V66.293Z" stroke="#92989B" stroke-width="0.8" stroke-miterlimit="10"/>
<path d="M63.3071 63.4297H57.7109V66.2953H63.3071V63.4297Z" stroke="#92989B" stroke-width="0.8" stroke-miterlimit="10"/>
<path d="M69.8569 66.293H64.2607V76.1179H69.8569V66.293Z" stroke="#92989B" stroke-width="0.8" stroke-miterlimit="10"/>
<path d="M69.8569 63.4297H64.2607V66.2953H69.8569V63.4297Z" stroke="#92989B" stroke-width="0.8" stroke-miterlimit="10"/>
<path d="M76.4069 66.293H70.8108V76.1179H76.4069V66.293Z" stroke="#92989B" stroke-width="0.8" stroke-miterlimit="10"/>
<path d="M76.4069 63.4297H70.8108V66.2953H76.4069V63.4297Z" stroke="#92989B" stroke-width="0.8" stroke-miterlimit="10"/>
<path d="M82.957 66.293H77.3608V76.1179H82.957V66.293Z" stroke="#92989B" stroke-width="0.8" stroke-miterlimit="10"/>
<path d="M82.957 63.4297H77.3608V66.2953H82.957V63.4297Z" stroke="#92989B" stroke-width="0.8" stroke-miterlimit="10"/>
<path d="M89.507 66.293H83.9109V76.1179H89.507V66.293Z" stroke="#92989B" stroke-width="0.8" stroke-miterlimit="10"/>
<path d="M89.507 63.4297H83.9109V66.2953H89.507V63.4297Z" stroke="#92989B" stroke-width="0.8" stroke-miterlimit="10"/>
<path d="M96.0571 66.293H90.4609V76.1179H96.0571V66.293Z" stroke="#92989B" stroke-width="0.8" stroke-miterlimit="10"/>
<path d="M96.0571 63.4297H90.4609V66.2953H96.0571V63.4297Z" stroke="#92989B" stroke-width="0.8" stroke-miterlimit="10"/>
<path d="M102.607 66.293H97.0107V76.1179H102.607V66.293Z" stroke="#92989B" stroke-width="0.8" stroke-miterlimit="10"/>
<path d="M102.607 63.4297H97.0107V66.2953H102.607V63.4297Z" stroke="#92989B" stroke-width="0.8" stroke-miterlimit="10"/>
<path d="M109.157 66.293H103.561V76.1179H109.157V66.293Z" stroke="#92989B" stroke-width="0.8" stroke-miterlimit="10"/>
<path d="M109.157 63.4297H103.561V66.2953H109.157V63.4297Z" stroke="#92989B" stroke-width="0.8" stroke-miterlimit="10"/>
<path d="M115.707 66.293H110.111V76.1179H115.707V66.293Z" stroke="#92989B" stroke-width="0.8" stroke-miterlimit="10"/>
<path d="M115.707 63.4297H110.111V66.2953H115.707V63.4297Z" stroke="#92989B" stroke-width="0.8" stroke-miterlimit="10"/>
<path d="M122.257 66.293H116.661V76.1179H122.257V66.293Z" stroke="#92989B" stroke-width="0.8" stroke-miterlimit="10"/>
<path d="M122.257 63.4297H116.661V66.2953H122.257V63.4297Z" stroke="#92989B" stroke-width="0.8" stroke-miterlimit="10"/>
<path d="M128.807 66.293H123.211V76.1179H128.807V66.293Z" stroke="#92989B" stroke-width="0.8" stroke-miterlimit="10"/>
<path d="M128.807 63.4297H123.211V66.2953H128.807V63.4297Z" stroke="#92989B" stroke-width="0.8" stroke-miterlimit="10"/>
<path d="M135.357 66.293H129.761V76.1179H135.357V66.293Z" stroke="#92989B" stroke-width="0.8" stroke-miterlimit="10"/>
<path d="M135.357 63.4297H129.761V66.2953H135.357V63.4297Z" stroke="#92989B" stroke-width="0.8" stroke-miterlimit="10"/>
<path d="M141.907 66.293H136.311V76.1179H141.907V66.293Z" stroke="#92989B" stroke-width="0.8" stroke-miterlimit="10"/>
<path d="M141.907 63.4297H136.311V66.2953H141.907V63.4297Z" stroke="#92989B" stroke-width="0.8" stroke-miterlimit="10"/>
<path d="M148.457 66.293H142.861V76.1179H148.457V66.293Z" stroke="#92989B" stroke-width="0.8" stroke-miterlimit="10"/>
<path d="M148.457 63.4297H142.861V66.2953H148.457V63.4297Z" stroke="#92989B" stroke-width="0.8" stroke-miterlimit="10"/>
<path d="M155.007 66.293H149.411V76.1179H155.007V66.293Z" stroke="#92989B" stroke-width="0.8" stroke-miterlimit="10"/>
<path d="M155.007 63.4297H149.411V66.2953H155.007V63.4297Z" stroke="#92989B" stroke-width="0.8" stroke-miterlimit="10"/>
<path d="M161.557 66.293H155.961V76.1179H161.557V66.293Z" stroke="#92989B" stroke-width="0.8" stroke-miterlimit="10"/>
<path d="M161.557 63.4297H155.961V66.2953H161.557V63.4297Z" stroke="#92989B" stroke-width="0.8" stroke-miterlimit="10"/>
<path d="M28.1038 92.6328H34.3795C35.1037 92.6328 35.7982 92.9205 36.3102 93.4326C36.8223 93.9446 37.11 94.6392 37.11 95.3633V100.82H25.3733V95.3592C25.3744 94.6358 25.6625 93.9423 26.1745 93.4311C26.6864 92.9199 27.3803 92.6328 28.1038 92.6328Z" stroke="#92989B" stroke-width="0.8" stroke-miterlimit="10"/>
<path d="M34.6544 89.4922H28.1045V92.6321H34.6544V89.4922Z" stroke="#92989B" stroke-width="0.8" stroke-miterlimit="10"/>
<path d="M28.1038 117.875H34.3795C35.1037 117.875 35.7982 118.163 36.3102 118.675C36.8223 119.187 37.11 119.881 37.11 120.606V126.062H25.3733V120.606C25.3733 119.881 25.661 119.187 26.173 118.675C26.6851 118.163 27.3796 117.875 28.1038 117.875Z" stroke="#92989B" stroke-width="0.8" stroke-miterlimit="10"/>
<path d="M34.6544 114.738H28.1045V117.878H34.6544V114.738Z" stroke="#92989B" stroke-width="0.8" stroke-miterlimit="10"/>
<path d="M44.4788 117.875H50.7545C51.4787 117.875 52.1732 118.163 52.6852 118.675C53.1973 119.187 53.485 119.881 53.485 120.606V126.062H41.7483V120.606C41.7483 119.881 42.036 119.187 42.548 118.675C43.0601 118.163 43.7546 117.875 44.4788 117.875Z" stroke="#92989B" stroke-width="0.8" stroke-miterlimit="10"/>
<path d="M51.0294 114.738H44.4795V117.878H51.0294V114.738Z" stroke="#92989B" stroke-width="0.8" stroke-miterlimit="10"/>
<path d="M60.8538 117.875H67.1295C67.8537 117.875 68.5482 118.163 69.0602 118.675C69.5723 119.187 69.86 119.881 69.86 120.606V126.062H58.1233V120.606C58.1233 119.881 58.411 119.187 58.923 118.675C59.4351 118.163 60.1296 117.875 60.8538 117.875Z" stroke="#92989B" stroke-width="0.8" stroke-miterlimit="10"/>
<path d="M67.4044 114.738H60.8545V117.878H67.4044V114.738Z" stroke="#92989B" stroke-width="0.8" stroke-miterlimit="10"/>
<path d="M77.2288 117.875H83.5045C84.2287 117.875 84.9232 118.163 85.4352 118.675C85.9473 119.187 86.235 119.881 86.235 120.606V126.062H74.4983V120.606C74.4983 119.881 74.786 119.187 75.298 118.675C75.8101 118.163 76.5046 117.875 77.2288 117.875Z" stroke="#92989B" stroke-width="0.8" stroke-miterlimit="10"/>
<path d="M83.7794 114.738H77.2295V117.878H83.7794V114.738Z" stroke="#92989B" stroke-width="0.8" stroke-miterlimit="10"/>
<path d="M93.6038 117.875H99.8795C100.604 117.875 101.298 118.163 101.81 118.675C102.322 119.187 102.61 119.881 102.61 120.606V126.062H90.8733V120.606C90.8733 119.881 91.161 119.187 91.673 118.675C92.1851 118.163 92.8796 117.875 93.6038 117.875Z" stroke="#92989B" stroke-width="0.8" stroke-miterlimit="10"/>
<path d="M100.154 114.738H93.6045V117.878H100.154V114.738Z" stroke="#92989B" stroke-width="0.8" stroke-miterlimit="10"/>
<path d="M109.979 117.875H116.254C116.979 117.875 117.673 118.163 118.185 118.675C118.697 119.187 118.985 119.881 118.985 120.606V126.062H107.248V120.606C107.248 119.881 107.536 119.187 108.048 118.675C108.56 118.163 109.255 117.875 109.979 117.875Z" stroke="#92989B" stroke-width="0.8" stroke-miterlimit="10"/>
<path d="M116.529 114.738H109.979V117.878H116.529V114.738Z" stroke="#92989B" stroke-width="0.8" stroke-miterlimit="10"/>
<path d="M41.2039 92.6328H47.4796C48.2037 92.6328 48.8983 92.9205 49.4103 93.4326C49.9224 93.9446 50.2101 94.6392 50.2101 95.3633V100.82H38.4734V95.3592C38.4745 94.6358 38.7626 93.9423 39.2746 93.4311C39.7865 92.9199 40.4804 92.6328 41.2039 92.6328Z" stroke="#92989B" stroke-width="0.8" stroke-miterlimit="10"/>
<path d="M47.7482 89.4922H41.1982V92.6321H47.7482V89.4922Z" stroke="#92989B" stroke-width="0.8" stroke-miterlimit="10"/>
<path d="M54.3038 92.6328H60.5794C61.3036 92.6328 61.9981 92.9205 62.5102 93.4326C63.0223 93.9446 63.3099 94.6392 63.3099 95.3633V100.82H51.5732V95.3592C51.5743 94.6358 51.8625 93.9423 52.3744 93.4311C52.8864 92.9199 53.5803 92.6328 54.3038 92.6328Z" stroke="#92989B" stroke-width="0.8" stroke-miterlimit="10"/>
<path d="M60.8546 89.4922H54.3047V92.6321H60.8546V89.4922Z" stroke="#92989B" stroke-width="0.8" stroke-miterlimit="10"/>
<path d="M67.4039 92.6328H73.6795C74.4037 92.6328 75.0982 92.9205 75.6103 93.4326C76.1224 93.9446 76.41 94.6392 76.41 95.3633V100.82H64.6733V95.3592C64.6744 94.6358 64.9626 93.9423 65.4745 93.4311C65.9865 92.9199 66.6804 92.6328 67.4039 92.6328Z" stroke="#92989B" stroke-width="0.8" stroke-miterlimit="10"/>
<path d="M73.9545 89.4922H67.4045V92.6321H73.9545V89.4922Z" stroke="#92989B" stroke-width="0.8" stroke-miterlimit="10"/>
<path d="M80.5039 92.6328H86.7796C87.5038 92.6328 88.1983 92.9205 88.7104 93.4326C89.2225 93.9446 89.5101 94.6392 89.5101 95.3633V100.82H77.7734V95.3592C77.7745 94.6358 78.0627 93.9423 78.5746 93.4311C79.0866 92.9199 79.7805 92.6328 80.5039 92.6328Z" stroke="#92989B" stroke-width="0.8" stroke-miterlimit="10"/>
<path d="M87.0546 89.4922H80.5046V92.6321H87.0546V89.4922Z" stroke="#92989B" stroke-width="0.8" stroke-miterlimit="10"/>
<path d="M93.6038 92.6328H99.8795C100.604 92.6328 101.298 92.9205 101.81 93.4326C102.322 93.9446 102.61 94.6392 102.61 95.3633V100.82H90.8733V95.3592C90.8744 94.6358 91.1625 93.9423 91.6745 93.4311C92.1864 92.9199 92.8803 92.6328 93.6038 92.6328Z" stroke="#92989B" stroke-width="0.8" stroke-miterlimit="10"/>
<path d="M100.154 89.4922H93.6045V92.6321H100.154V89.4922Z" stroke="#92989B" stroke-width="0.8" stroke-miterlimit="10"/>
<path d="M106.704 92.6328H112.98C113.704 92.6328 114.398 92.9205 114.91 93.4326C115.422 93.9446 115.71 94.6392 115.71 95.3633V100.82H103.973V95.3592C103.974 94.6358 104.263 93.9423 104.775 93.4311C105.287 92.9199 105.98 92.6328 106.704 92.6328Z" stroke="#92989B" stroke-width="0.8" stroke-miterlimit="10"/>
<path d="M113.248 89.4922H106.698V92.6321H113.248V89.4922Z" stroke="#92989B" stroke-width="0.8" stroke-miterlimit="10"/>
<path d="M119.804 92.6328H126.079C126.804 92.6328 127.498 92.9205 128.01 93.4326C128.522 93.9446 128.81 94.6392 128.81 95.3633V100.82H117.073V95.3592C117.074 94.6358 117.362 93.9423 117.874 93.4311C118.386 92.9199 119.08 92.6328 119.804 92.6328Z" stroke="#92989B" stroke-width="0.8" stroke-miterlimit="10"/>
<path d="M126.355 89.4922H119.805V92.6321H126.355V89.4922Z" stroke="#92989B" stroke-width="0.8" stroke-miterlimit="10"/>
<path d="M45.8271 143.062H25.6982V151.037H45.8271V143.062Z" stroke="#92989B" stroke-width="0.8" stroke-miterlimit="10"/>
<path d="M66.7148 143.062H46.5859V151.037H66.7148V143.062Z" stroke="#92989B" stroke-width="0.8" stroke-miterlimit="10"/>
<path d="M87.6022 143.062H67.4734V151.037H87.6022V143.062Z" stroke="#92989B" stroke-width="0.8" stroke-miterlimit="10"/>
<path d="M108.49 143.062H88.3608V151.037H108.49V143.062Z" stroke="#92989B" stroke-width="0.8" stroke-miterlimit="10"/>
<path d="M129.377 143.062H109.248V151.037H129.377V143.062Z" stroke="#92989B" stroke-width="0.8" stroke-miterlimit="10"/>
<path d="M150.265 143.062H130.136V151.037H150.265V143.062Z" stroke="#92989B" stroke-width="0.8" stroke-miterlimit="10"/>
<path d="M101.473 157.853L101.69 155.896L94.1125 155.434L96.9126 159.036C96.5339 159.624 96.3414 160.313 96.3603 161.012C96.3791 161.711 96.6085 162.388 97.0184 162.955C97.4284 163.522 97.9997 163.952 98.6579 164.188C99.316 164.425 100.03 164.458 100.707 164.282C101.384 164.107 101.993 163.731 102.453 163.204C102.913 162.677 103.203 162.024 103.286 161.329C103.368 160.635 103.24 159.931 102.916 159.311C102.593 158.691 102.09 158.183 101.473 157.853Z" fill="#263238" stroke="#263238" stroke-width="0.8" stroke-linecap="round" stroke-linejoin="round"/>
<path d="M141.311 157.853L141.528 155.896L133.95 155.434L136.754 159.036C136.375 159.624 136.182 160.313 136.201 161.012C136.22 161.712 136.449 162.389 136.859 162.956C137.269 163.523 137.84 163.953 138.499 164.19C139.157 164.427 139.872 164.46 140.549 164.284C141.226 164.108 141.834 163.732 142.294 163.205C142.754 162.677 143.044 162.023 143.127 161.329C143.209 160.634 143.08 159.93 142.756 159.31C142.432 158.69 141.928 158.182 141.311 157.853Z" fill="#263238" stroke="#263238" stroke-width="0.8" stroke-linecap="round" stroke-linejoin="round"/>
<path d="M174.379 157.853L174.596 155.896L167.019 155.434L169.823 159.036C169.444 159.624 169.251 160.313 169.27 161.012C169.288 161.712 169.517 162.389 169.927 162.956C170.337 163.523 170.909 163.953 171.567 164.19C172.226 164.427 172.94 164.46 173.617 164.284C174.295 164.108 174.903 163.732 175.363 163.205C175.823 162.677 176.113 162.023 176.195 161.329C176.278 160.634 176.148 159.93 175.824 159.31C175.5 158.69 174.997 158.182 174.379 157.853Z" fill="#263238" stroke="#263238" stroke-width="0.8" stroke-linecap="round" stroke-linejoin="round"/>
<path d="M85.3622 65.9492H103.428C105.077 65.9492 106.659 66.6044 107.825 67.7705C108.991 68.9367 109.646 70.5184 109.646 72.1676V140.046H79.1438V72.1594C79.146 70.5116 79.8021 68.932 80.968 67.7676C82.1339 66.6032 83.7144 65.9492 85.3622 65.9492Z" stroke="#263238" stroke-width="3.2" stroke-linecap="round" stroke-linejoin="round"/>
<path d="M79.1438 81.1992H109.654" stroke="#263238" stroke-width="3.2" stroke-linecap="round" stroke-linejoin="round"/>
<path d="M93.7563 81.3242V139.783" stroke="#263238" stroke-width="3.2" stroke-linecap="round" stroke-linejoin="round"/>
<path d="M126.75 120.434H92.5876V147.657H126.75V120.434Z" fill="#0F913D" stroke="#263238" stroke-width="0.8" stroke-linecap="round" stroke-linejoin="round"/>
<path d="M126.747 120.434H113.938V147.657H126.747V120.434Z" fill="#0F913D" stroke="#263238" stroke-width="0.8" stroke-linecap="round" stroke-linejoin="round"/>
<path d="M105.668 123.105H100.6C99.4194 123.105 98.4626 124.061 98.4626 125.24C98.4626 126.419 99.4194 127.375 100.6 127.375H105.668C106.848 127.375 107.805 126.419 107.805 125.24C107.805 124.061 106.848 123.105 105.668 123.105Z" fill="#263238" stroke="#263238" stroke-width="0.8" stroke-linecap="round" stroke-linejoin="round"/>
<path d="M150.769 120.434H116.606V147.657H150.769V120.434Z" fill="#0F913D" stroke="#263238" stroke-width="0.8" stroke-linecap="round" stroke-linejoin="round"/>
<path d="M150.766 120.434H137.956V147.657H150.766V120.434Z" fill="#0F913D" stroke="#263238" stroke-width="0.8" stroke-linecap="round" stroke-linejoin="round"/>
<path d="M129.68 123.105H124.612C123.432 123.105 122.475 124.061 122.475 125.24C122.475 126.419 123.432 127.375 124.612 127.375H129.68C130.86 127.375 131.817 126.419 131.817 125.24C131.817 124.061 130.86 123.105 129.68 123.105Z" fill="#263238" stroke="#263238" stroke-width="0.8" stroke-linecap="round" stroke-linejoin="round"/>
<path d="M135 93.3945H100.838V120.618H135V93.3945Z" fill="#0F913D" stroke="#263238" stroke-width="0.8" stroke-linecap="round" stroke-linejoin="round"/>
<path d="M134.997 93.3945H122.188V120.618H134.997V93.3945Z" fill="#0F913D" stroke="#263238" stroke-width="0.8" stroke-linecap="round" stroke-linejoin="round"/>
<path d="M113.911 100.336H108.839C108.273 100.336 107.731 100.111 107.331 99.7115C106.931 99.3115 106.706 98.769 106.706 98.2033C106.706 97.6373 106.931 97.0944 107.331 96.6937C107.731 96.2931 108.273 96.0675 108.839 96.0664H113.911C114.478 96.0664 115.022 96.2915 115.422 96.6923C115.823 97.093 116.048 97.6366 116.048 98.2033C116.047 98.7694 115.821 99.3118 115.421 99.7117C115.02 100.112 114.477 100.336 113.911 100.336Z" fill="#263238" stroke="#263238" stroke-width="0.8" stroke-linecap="round" stroke-linejoin="round"/>
<path d="M147.05 66.0703H112.888V93.2936H147.05V66.0703Z" fill="#0F913D" stroke="#263238" stroke-width="0.8" stroke-linecap="round" stroke-linejoin="round"/>
<path d="M147.047 66.0703H134.238V93.2936H147.047V66.0703Z" fill="#0F913D" stroke="#263238" stroke-width="0.8" stroke-linecap="round" stroke-linejoin="round"/>
<path d="M125.968 73.008H120.9C120.619 73.0086 120.341 72.9538 120.082 72.8469C119.823 72.7399 119.587 72.5829 119.389 72.3848C119.19 72.1867 119.033 71.9514 118.925 71.6923C118.818 71.4333 118.763 71.1556 118.763 70.8752C118.763 70.5946 118.818 70.3167 118.925 70.0574C119.033 69.7982 119.19 69.5626 119.389 69.3642C119.587 69.1657 119.823 69.0083 120.082 68.9009C120.341 68.7936 120.619 68.7383 120.9 68.7383H125.968C126.534 68.7383 127.078 68.9634 127.479 69.3642C127.879 69.7649 128.105 70.3085 128.105 70.8752C128.103 71.4412 127.878 71.9837 127.477 72.3836C127.077 72.7835 126.534 73.008 125.968 73.008Z" fill="#263238" stroke="#263238" stroke-width="0.8" stroke-linecap="round" stroke-linejoin="round"/>
<path d="M158.864 93.3945H124.706V120.618H158.864V93.3945Z" fill="#0F913D" stroke="#263238" stroke-width="0.8" stroke-linecap="round" stroke-linejoin="round"/>
<path d="M158.859 93.3945H146.05V120.618H158.859V93.3945Z" fill="#0F913D" stroke="#263238" stroke-width="0.8" stroke-linecap="round" stroke-linejoin="round"/>
<path d="M137.78 100.336H132.708C132.142 100.336 131.6 100.111 131.2 99.7115C130.8 99.3115 130.575 98.769 130.575 98.2033C130.575 97.6373 130.8 97.0944 131.2 96.6937C131.6 96.2931 132.142 96.0675 132.708 96.0664H137.78C138.347 96.0664 138.89 96.2915 139.291 96.6923C139.692 97.093 139.917 97.6366 139.917 98.2033C139.916 98.7694 139.69 99.3118 139.29 99.7117C138.889 100.112 138.346 100.336 137.78 100.336Z" fill="#263238" stroke="#263238" stroke-width="0.8" stroke-linecap="round" stroke-linejoin="round"/>
<path d="M174.25 120.434H140.088V147.657H174.25V120.434Z" fill="#0F913D" stroke="#263238" stroke-width="0.8" stroke-linecap="round" stroke-linejoin="round"/>
<path d="M174.253 120.434H161.444V147.657H174.253V120.434Z" fill="#0F913D" stroke="#263238" stroke-width="0.8" stroke-linecap="round" stroke-linejoin="round"/>
<path d="M153.168 123.105H148.1C146.919 123.105 145.963 124.061 145.963 125.24C145.963 126.419 146.919 127.375 148.1 127.375H153.168C154.348 127.375 155.305 126.419 155.305 125.24C155.305 124.061 154.348 123.105 153.168 123.105Z" fill="#263238" stroke="#263238" stroke-width="0.8" stroke-linecap="round" stroke-linejoin="round"/>
<path d="M152.937 65.9492H171.011C172.66 65.9492 174.242 66.6044 175.408 67.7705C176.574 68.9367 177.229 70.5184 177.229 72.1676V140.046H146.719V72.1594C146.721 70.5116 147.377 68.932 148.543 67.7676C149.709 66.6032 151.29 65.9492 152.937 65.9492Z" stroke="#263238" stroke-width="3.2" stroke-linecap="round" stroke-linejoin="round"/>
<path d="M146.719 81.1992H177.229" stroke="#263238" stroke-width="3.2" stroke-linecap="round" stroke-linejoin="round"/>
<path d="M161.331 81.3242V139.783" stroke="#263238" stroke-width="3.2" stroke-linecap="round" stroke-linejoin="round"/>
<path d="M90.3502 161.791C90.8285 159.93 89.7073 158.033 87.846 157.555C85.9847 157.077 84.0881 158.198 83.6098 160.059C83.1316 161.921 84.2528 163.817 86.1141 164.296C87.9754 164.774 89.872 163.653 90.3502 161.791Z" fill="#263238" stroke="#263238" stroke-width="0.8" stroke-linecap="round" stroke-linejoin="round"/>
<path d="M81.2563 155.434L85.96 161.48C86.1564 161.732 86.438 161.902 86.7518 161.961C87.0655 162.019 87.3897 161.96 87.663 161.795C87.8353 161.692 87.9815 161.55 88.0901 161.381C88.1988 161.212 88.2669 161.021 88.2894 160.821L88.8338 155.908L81.2563 155.434Z" fill="white" stroke="#263238" stroke-width="0.8" stroke-linecap="round" stroke-linejoin="round"/>
<path d="M128.655 161.715C129.098 159.845 127.942 157.97 126.072 157.527C124.202 157.083 122.327 158.24 121.884 160.11C121.44 161.98 122.597 163.855 124.467 164.298C126.337 164.741 128.212 163.585 128.655 161.715Z" fill="#263238" stroke="#263238" stroke-width="0.8" stroke-linecap="round" stroke-linejoin="round"/>
<path d="M119.544 155.434L124.244 161.48C124.44 161.732 124.722 161.902 125.035 161.961C125.349 162.019 125.673 161.96 125.947 161.795C126.119 161.692 126.265 161.55 126.374 161.381C126.482 161.212 126.55 161.021 126.573 160.821L127.121 155.908L119.544 155.434Z" fill="white" stroke="#263238" stroke-width="0.8" stroke-linecap="round" stroke-linejoin="round"/>
<path d="M157.974 161.715C158.417 159.845 157.261 157.97 155.391 157.527C153.521 157.083 151.645 158.24 151.202 160.11C150.759 161.98 151.916 163.855 153.786 164.298C155.656 164.741 157.531 163.585 157.974 161.715Z" fill="#263238" stroke="#263238" stroke-width="0.8" stroke-linecap="round" stroke-linejoin="round"/>
<path d="M148.869 155.434L153.573 161.48C153.769 161.732 154.051 161.902 154.364 161.961C154.678 162.019 155.002 161.96 155.276 161.795C155.448 161.692 155.594 161.55 155.703 161.381C155.811 161.212 155.879 161.021 155.902 160.821L156.446 155.908L148.869 155.434Z" fill="white" stroke="#263238" stroke-width="0.8" stroke-linecap="round" stroke-linejoin="round"/>
<path d="M177.207 140.129H78.8877V155.751H177.207V140.129Z" fill="white" stroke="#263238" stroke-width="0.8" stroke-linecap="round" stroke-linejoin="round"/>
<path d="M177.208 140.129H146.669V155.751H177.208V140.129Z" fill="#C4C4C4" stroke="#263238" stroke-width="0.8" stroke-linecap="round" stroke-linejoin="round"/>
<path d="M90.7748 76.3281C89.8085 77.0654 88.9679 77.9543 88.2859 78.9604C87.4671 80.3441 80.1189 90.3082 80.1189 90.3082L82.7512 94.1808L90.7748 90.3082C90.8525 87.484 91.0834 84.6661 91.4667 81.8669" fill="white"/>
<path d="M90.7748 76.3281C89.8085 77.0654 88.9679 77.9543 88.2859 78.9604C87.4671 80.3441 80.1189 90.3082 80.1189 90.3082L82.7512 94.1808L90.7748 90.3082C90.8525 87.484 91.0834 84.6661 91.4667 81.8669" stroke="#263238" stroke-width="0.8" stroke-linecap="round" stroke-linejoin="round"/>
<path d="M85.1399 95.6278C85.1399 95.6278 87.3546 94.936 88.0465 92.8605C88.7383 90.7849 87.9073 89.1229 85.5534 87.6C83.1995 86.0772 81.4024 86.9082 80.1579 88.1568C78.9134 89.4054 78.9298 92.1686 80.0187 93.6915C81.1076 95.2144 83.8913 95.4886 85.1399 95.6278Z" fill="white" stroke="#263238" stroke-width="0.8" stroke-linecap="round" stroke-linejoin="round"/>
<path d="M84.31 98.6702C84.31 98.6702 86.9382 93.8274 86.9382 91.7519C86.9382 89.6763 83.479 88.2886 81.4035 88.9804C79.328 89.6722 79.8806 93.1355 80.1754 94.5192C80.4701 95.9029 80.8672 98.3919 80.728 99.9147C80.5889 101.438 79.9093 101.99 81.0023 102.408C82.0953 102.825 83.6182 100.607 84.31 98.6702Z" fill="white" stroke="#263238" stroke-width="0.8" stroke-linecap="round" stroke-linejoin="round"/>
<path d="M96.5896 161.742C96.5896 161.742 91.6075 164.51 90.3631 165.48C89.1186 166.45 88.5618 167.138 89.9537 167.555C91.3455 167.973 93.2737 168.247 94.9357 167.694C96.5978 167.142 97.4247 166.585 98.3949 166.172C99.3651 165.758 100.47 165.893 100.47 163.957V162.021L96.5896 161.742Z" fill="white" stroke="#263238" stroke-width="0.8" stroke-linecap="round" stroke-linejoin="round"/>
<path d="M100.4 164.625C99.95 164.736 99.3974 164.879 98.8038 165.034C97.2809 165.444 96.1756 166.975 93.9609 167.11C92.4258 167.208 90.4321 166.701 89.3473 166.389C88.9707 166.881 89.0607 167.261 89.9491 167.527C91.3327 167.937 93.2691 168.219 94.9311 167.667C96.5932 167.114 97.4201 166.557 98.3903 166.144C99.2213 165.788 100.147 165.833 100.4 164.625Z" fill="white" stroke="#263238" stroke-width="0.8" stroke-linecap="round" stroke-linejoin="round"/>
<path d="M101.848 162.688C101.848 162.688 97.832 166.56 96.0349 167.53C94.2377 168.501 100.603 168.758 102.54 168.636C104.476 168.513 104.894 167.53 105.86 166.839C106.258 166.559 106.58 166.184 106.798 165.749C107.016 165.314 107.123 164.832 107.108 164.345C107.111 164.113 107.062 163.882 106.966 163.67C106.87 163.458 106.728 163.269 106.552 163.117L101.848 162.688Z" fill="white" stroke="#263238" stroke-width="0.8" stroke-linecap="round" stroke-linejoin="round"/>
<path d="M102.543 168.638C104.48 168.499 104.897 167.533 105.863 166.841C106.261 166.561 106.584 166.186 106.802 165.751C107.02 165.316 107.126 164.834 107.112 164.348C106.187 165.518 104.381 167.434 102.269 167.672C99.7801 167.946 96.0426 167.533 96.0426 167.533C94.2413 168.499 100.607 168.777 102.543 168.638Z" fill="white" stroke="#263238" stroke-width="0.8" stroke-linecap="round" stroke-linejoin="round"/>
<path d="M90.9151 103.453C90.9151 103.453 88.9788 120.892 89.687 129.886C90.3952 138.88 96.589 161.74 96.589 161.74L100.466 162.018C100.466 162.018 100.74 148.316 100.875 140.567C101.01 132.817 102.259 106.106 102.259 106.106L90.9151 103.453Z" fill="#263238" stroke="#263238" stroke-width="0.8" stroke-linecap="round" stroke-linejoin="round"/>
<path d="M109.597 106.361C110.87 108.336 111.5 110.657 111.398 113.005C111.259 117.017 109.876 122.421 109.876 125.045C109.876 127.669 109.057 134.178 109.057 136.393C109.057 138.607 108.238 144.007 108.238 149.128C108.238 154.249 106.576 163.104 106.576 163.104L101.872 162.695C101.872 162.695 100.21 148.715 99.6577 143.593C99.1051 138.472 98.6875 130.031 98.6875 129.339C98.6875 128.647 98.9659 105.812 98.9659 105.812L109.597 106.361Z" fill="#263238" stroke="#263238" stroke-width="0.8" stroke-linecap="round" stroke-linejoin="round"/>
<path d="M96.1696 59.5497C96.1696 59.5497 93.4268 59.914 92.8946 56.2747C92.3624 52.6354 97.4632 49.3154 102.032 48.2347C106.6 47.1539 110.055 47.1171 112.43 52.6068C114.804 58.0964 111.333 64.4785 111.333 64.4785C111.333 64.4785 115.353 71.0571 115.721 75.81C116.09 80.5628 113.891 82.933 113.891 82.933L109.323 80.923C109.323 80.923 112.25 71.0571 109.691 65.0271C109.691 65.0271 105.123 65.5757 104.39 63.93C103.657 62.2843 101.283 57.3514 100.734 57.1712C100.186 56.9911 96.1696 59.5497 96.1696 59.5497Z" fill="#263238" stroke="#263238" stroke-width="0.8" stroke-linecap="round" stroke-linejoin="round"/>
<path d="M102.431 53.706C102.431 53.706 104.929 49.9602 108.007 49.3789" stroke="#858585" stroke-width="0.8" stroke-linecap="round" stroke-linejoin="round"/>
<path d="M103.594 54.293C105.235 56.1188 106.986 57.8428 108.838 59.4552L111.335 61.5348" stroke="#858585" stroke-width="0.8" stroke-linecap="round" stroke-linejoin="round"/>
<path d="M105.594 52.125C105.594 52.125 110.838 54.3725 111.755 59.4528" stroke="#858585" stroke-width="0.8" stroke-linecap="round" stroke-linejoin="round"/>
<path d="M102.844 52.707C102.844 52.707 93.4287 55.0404 93.6866 56.7025" stroke="#858585" stroke-width="0.8" stroke-linecap="round" stroke-linejoin="round"/>
<path d="M93.1875 55.4563C93.1875 55.4563 98.6813 48.8818 105.591 49.8806" stroke="#858585" stroke-width="0.8" stroke-linecap="round" stroke-linejoin="round"/>
<path d="M99.634 72.8678C99.634 72.8678 90.7751 75.496 90.7751 76.327C90.7751 77.158 90.7751 103.317 91.0535 104.144C91.3319 104.971 104.063 107.19 105.586 107.05C107.109 106.911 108.767 106.776 109.598 106.359C110.429 105.941 114.859 81.8658 115.55 80.3429C116.242 78.8201 115.411 77.0188 114.167 76.1878C112.922 75.3568 102.954 73.1462 102.954 73.1462C101.862 72.9228 100.748 72.8293 99.634 72.8678Z" fill="white" stroke="#263238" stroke-width="0.8" stroke-linecap="round" stroke-linejoin="round"/>
<path d="M94.7908 74.5454C94.7908 74.5454 91.6059 90.8753 90.914 97.6545C90.2222 104.434 88.425 130.04 88.425 130.04C88.425 130.04 92.1585 132.255 97.9716 132.255H108.353V100.979L111.399 100.839L111.673 99.6113L108.075 98.0884C108.075 98.0884 108.484 85.6312 108.767 80.7883C109.049 75.9455 109.176 74.701 109.176 74.701L107.792 74.2916L105.467 88.5091L94.6516 86.0078L96.461 73.9805L94.7908 74.5454Z" fill="#0F913D" stroke="#263238" stroke-width="0.8" stroke-linecap="round" stroke-linejoin="round"/>
<path d="M100.466 70.9335C100.466 70.9335 98.112 71.3429 97.1418 72.8698C96.1716 74.3968 93.8218 80.6193 95.6231 80.8976C97.4243 81.176 99.6349 78.1303 100.74 78.1303C101.846 78.1303 102.82 82.6948 105.448 82.4205C108.076 82.1462 108.355 76.4682 107.802 73.4143C107.249 70.3604 101.432 70.3809 100.466 70.9335Z" fill="white" stroke="#263238" stroke-width="0.8" stroke-linecap="round" stroke-linejoin="round"/>
<path d="M98.8064 67.1957C98.8064 67.1957 99.3591 73.4223 99.3591 76.0546C99.3591 78.6868 98.8064 79.788 100.468 79.788C102.13 79.788 106.003 74.6709 106.003 72.317V66.5039C106.003 66.5039 101.021 67.4741 98.8064 67.1957Z" fill="white" stroke="#263238" stroke-width="0.8" stroke-linecap="round" stroke-linejoin="round"/>
<path d="M113.478 75.7734C113.478 75.7734 116.245 76.8787 117.076 78.2665C117.907 79.6543 122.84 97.2245 122.84 97.2245L115.922 101.236L111.537 88.2306C111.385 86.435 111.34 84.632 111.402 82.831" fill="white"/>
<path d="M113.478 75.7734C113.478 75.7734 116.245 76.8787 117.076 78.2665C117.907 79.6543 122.84 97.2245 122.84 97.2245L115.922 101.236L111.537 88.2306C111.385 86.435 111.34 84.632 111.402 82.831" stroke="#263238" stroke-width="0.8" stroke-linecap="round" stroke-linejoin="round"/>
<path d="M113.843 98.7515C113.843 98.7515 113.613 95.7057 114.42 94.322C115.226 92.9384 120.077 90.5845 122.038 91.002C123.999 91.4196 124.118 95.8449 122.963 97.0894C121.809 98.3339 115.112 100.688 113.843 98.7515Z" fill="white" stroke="#263238" stroke-width="0.8" stroke-linecap="round" stroke-linejoin="round"/>
<path d="M83.7547 103.785L103.286 108.98L98.4471 116.582L74.3064 108.28L83.7547 103.785Z" fill="white" stroke="#263238" stroke-width="0.8" stroke-linecap="round" stroke-linejoin="round"/>
<path d="M74.0312 103.784L83.7497 98.6875V103.784L74.0312 109.118V103.784Z" fill="#696969" stroke="#263238" stroke-width="0.8" stroke-linecap="round" stroke-linejoin="round"/>
<path d="M83.75 103.784L104.845 109.593L105.316 104.378L83.75 98.6875V103.784Z" fill="#8C8C8C" stroke="#263238" stroke-width="0.8" stroke-linecap="round" stroke-linejoin="round"/>
<path d="M87.2159 103.472C87.2159 104.009 87.0567 104.534 86.7585 104.98C86.4602 105.426 86.0363 105.774 85.5404 105.979C85.0444 106.185 84.4987 106.239 83.9722 106.134C83.4457 106.029 82.9621 105.771 82.5825 105.391C82.203 105.012 81.9445 104.528 81.8397 104.001C81.735 103.475 81.7888 102.929 81.9942 102.433C82.1996 101.937 82.5475 101.513 82.9938 101.215C83.4402 100.917 83.9649 100.758 84.5017 100.758C85.2216 100.758 85.9119 101.044 86.4209 101.553C86.9299 102.062 87.2159 102.752 87.2159 103.472Z" fill="white" stroke="#263238" stroke-width="0.8" stroke-linecap="round" stroke-linejoin="round"/>
<path d="M89.3955 108.147C90.8945 108.147 92.1097 106.932 92.1097 105.433C92.1097 103.934 90.8945 102.719 89.3955 102.719C87.8966 102.719 86.6814 103.934 86.6814 105.433C86.6814 106.932 87.8966 108.147 89.3955 108.147Z" fill="white" stroke="#263238" stroke-width="0.8" stroke-linecap="round" stroke-linejoin="round"/>
<path d="M94.1079 108.678C95.6069 108.678 96.8221 107.463 96.8221 105.964C96.8221 104.465 95.6069 103.25 94.1079 103.25C92.609 103.25 91.3938 104.465 91.3938 105.964C91.3938 107.463 92.609 108.678 94.1079 108.678Z" fill="white" stroke="#263238" stroke-width="0.8" stroke-linecap="round" stroke-linejoin="round"/>
<path d="M98.9141 110.366C100.413 110.366 101.628 109.151 101.628 107.652C101.628 106.153 100.413 104.938 98.9141 104.938C97.4151 104.938 96.2 106.153 96.2 107.652C96.2 109.151 97.4151 110.366 98.9141 110.366Z" fill="white" stroke="#263238" stroke-width="0.8" stroke-linecap="round" stroke-linejoin="round"/>
<path d="M97.8033 109.339C97.8033 109.876 97.6441 110.401 97.3459 110.847C97.0476 111.293 96.6237 111.641 96.1278 111.847C95.6318 112.052 95.0861 112.106 94.5596 112.001C94.0331 111.896 93.5495 111.638 93.17 111.258C92.7904 110.879 92.5319 110.395 92.4272 109.869C92.3224 109.342 92.3762 108.796 92.5816 108.3C92.787 107.805 93.1349 107.381 93.5812 107.082C94.0276 106.784 94.5523 106.625 95.0891 106.625C95.809 106.625 96.4993 106.911 97.0083 107.42C97.5173 107.929 97.8033 108.619 97.8033 109.339Z" fill="white" stroke="#263238" stroke-width="0.8" stroke-linecap="round" stroke-linejoin="round"/>
<path d="M82.9534 105.699C82.9534 106.235 82.7942 106.76 82.496 107.206C82.1978 107.653 81.7739 108.001 81.2779 108.206C80.782 108.411 80.2363 108.465 79.7098 108.36C79.1833 108.256 78.6997 107.997 78.3201 107.618C77.9405 107.238 77.682 106.755 77.5773 106.228C77.4726 105.702 77.5263 105.156 77.7317 104.66C77.9372 104.164 78.2851 103.74 78.7314 103.442C79.1777 103.144 79.7025 102.984 80.2393 102.984C80.9591 102.984 81.6495 103.27 82.1585 103.779C82.6675 104.288 82.9534 104.979 82.9534 105.699Z" fill="white" stroke="#263238" stroke-width="0.8" stroke-linecap="round" stroke-linejoin="round"/>
<path d="M84.7642 110.1C86.2632 110.1 87.4783 108.885 87.4783 107.386C87.4783 105.887 86.2632 104.672 84.7642 104.672C83.2652 104.672 82.05 105.887 82.05 107.386C82.05 108.885 83.2652 110.1 84.7642 110.1Z" fill="white" stroke="#263238" stroke-width="0.8" stroke-linecap="round" stroke-linejoin="round"/>
<path d="M92.3721 108.636C92.3721 109.173 92.2129 109.698 91.9147 110.144C91.6165 110.59 91.1926 110.938 90.6966 111.144C90.2007 111.349 89.655 111.403 89.1285 111.298C88.602 111.193 88.1184 110.935 87.7388 110.555C87.3592 110.176 87.1007 109.692 86.996 109.166C86.8913 108.639 86.945 108.093 87.1504 107.597C87.3559 107.101 87.7038 106.678 88.1501 106.379C88.5964 106.081 89.1212 105.922 89.658 105.922C90.3778 105.922 91.0682 106.208 91.5772 106.717C92.0862 107.226 92.3721 107.916 92.3721 108.636Z" fill="white" stroke="#263238" stroke-width="0.8" stroke-linecap="round" stroke-linejoin="round"/>
<path d="M105.317 104.379L98.4438 110.54V116.582L104.846 109.594L105.317 104.379Z" fill="#696969" stroke="#263238" stroke-width="0.8" stroke-linecap="round" stroke-linejoin="round"/>
<path d="M98.4421 110.54L74.0312 103.785V109.119L98.4421 116.582V110.54Z" fill="#8C8C8C" stroke="#263238" stroke-width="0.8" stroke-linecap="round" stroke-linejoin="round"/>
<path d="M114.401 96.0336L109.185 100.537C109.185 100.537 106.43 100.037 105.554 100.664C104.218 101.786 103.001 103.044 101.923 104.418C101.851 104.536 101.823 104.676 101.845 104.814C101.866 104.951 101.936 105.076 102.041 105.166C102.147 105.257 102.281 105.307 102.419 105.308C102.558 105.309 102.693 105.26 102.799 105.171C103.299 104.794 105.427 103.533 105.427 103.533C105.427 103.533 105.055 107.664 104.678 108.417C104.302 109.17 102.603 110.98 103.221 110.98C103.839 110.98 105.677 110.57 106.181 110.161C106.684 109.752 107.18 108.659 107.18 108.659C107.18 108.659 109.558 107.533 109.558 107.156C109.558 106.78 110.434 105.154 110.434 105.154L111.564 103.153C111.564 103.153 118.032 101.65 119.784 100.397C121.536 99.1448 124.664 97.0161 123.665 94.5148C122.666 92.0136 120.284 91.2726 114.401 96.0336Z" fill="white" stroke="#263238" stroke-width="0.8" stroke-linecap="round" stroke-linejoin="round"/>
<path d="M83.7165 98.6975C83.746 98.5303 83.7391 98.3587 83.6964 98.1944C83.6536 98.0301 83.576 97.8769 83.4689 97.7453C83.3617 97.6136 83.2274 97.5066 83.0752 97.4314C82.923 97.3563 82.7564 97.3148 82.5867 97.3097C82.3331 97.269 82.0735 97.2886 81.8288 97.3669C81.5842 97.4451 81.3614 97.5798 81.1784 97.76C80.4866 98.5787 79.1029 101.633 79.7948 102.464C80.4866 103.295 81.8703 99.6963 81.8703 99.6963C81.8703 99.6963 83.475 99.7905 83.7165 98.6975Z" fill="white" stroke="#263238" stroke-width="0.8" stroke-linecap="round" stroke-linejoin="round"/>
<path d="M101.832 54.4336L95.4377 58.0893C95.4377 58.0893 94.8891 63.2064 95.4377 66.858C95.9862 70.5096 99.0933 71.9752 102.016 71.9752C104.939 71.9752 107.314 69.4166 107.498 68.5037C107.682 67.5908 107.862 66.6779 107.862 66.6779C107.862 66.6779 110.605 66.3095 110.785 63.5667C110.965 60.8239 109.324 60.4636 108.775 61.0122L107.682 62.1093C107.682 62.1093 103.662 59.1864 101.832 54.4336Z" fill="white" stroke="#263238" stroke-width="0.8" stroke-linecap="round" stroke-linejoin="round"/>
<path d="M98.8914 61.8554C98.8914 62.3753 98.6499 62.797 98.3551 62.797C98.0604 62.797 97.8188 62.3876 97.8188 61.8554C97.8188 61.3232 98.0563 60.918 98.3551 60.918C98.654 60.918 98.8914 61.3437 98.8914 61.8554Z" fill="#263238"/>
<path d="M103.148 62.4298C103.148 62.9456 102.906 63.3673 102.611 63.3673C102.316 63.3673 102.075 62.9579 102.075 62.4298C102.075 61.9017 102.312 61.4883 102.611 61.4883C102.91 61.4883 103.148 61.9099 103.148 62.4298Z" fill="#263238"/>
<path d="M99.7396 62.0312C99.7396 62.0312 99.3302 63.5664 99.1255 64.2828C98.9209 64.9992 99.1255 65.9203 100.354 65.6133" fill="white"/>
<path d="M99.7396 62.0312C99.7396 62.0312 99.3302 63.5664 99.1255 64.2828C98.9209 64.9992 99.1255 65.9203 100.354 65.6133" stroke="#263238" stroke-width="0.8" stroke-linecap="round" stroke-linejoin="round"/>
<path d="M100.1 67.2758C100.1 67.2758 101.68 67.6852 103.183 65.8594L100.1 67.2758Z" fill="white"/>
<path d="M100.1 67.2758C100.1 67.2758 101.68 67.6852 103.183 65.8594" stroke="#263238" stroke-width="0.8" stroke-linecap="round" stroke-linejoin="round"/>
<path d="M96.9626 59.8786C97.2299 59.6099 97.5878 59.4505 97.9663 59.4316C98.3448 59.4127 98.7168 59.5356 99.0095 59.7762" fill="white"/>
<path d="M96.9626 59.8786C97.2299 59.6099 97.5878 59.4505 97.9663 59.4316C98.3448 59.4127 98.7168 59.5356 99.0095 59.7762" stroke="#263238" stroke-width="0.8" stroke-linecap="round" stroke-linejoin="round"/>
<path d="M101.375 60.0838C101.375 60.0838 103.32 59.265 104.138 60.4931L101.375 60.0838Z" fill="white"/>
<path d="M101.375 60.0838C101.375 60.0838 103.32 59.265 104.138 60.4931" stroke="#263238" stroke-width="0.8" stroke-linecap="round" stroke-linejoin="round"/>
<path d="M51.239 163.98C51.239 163.98 53.0075 167.521 55.9591 169.302C58.9106 171.082 62.157 170.628 62.157 168.413C62.157 166.199 59.9464 164.43 58.1738 163.251C56.4012 162.072 52.1233 161.176 51.239 163.98Z" fill="white" stroke="#263238" stroke-width="0.8" stroke-linecap="round" stroke-linejoin="round"/>
<path d="M62.1496 168.17C61.2204 168.747 59.6934 169.48 58.0314 169.296C56.3693 169.111 53.7534 166.946 52.0955 165.398C53.096 166.956 54.4144 168.284 55.964 169.296C58.9156 171.064 62.1619 170.622 62.1619 168.407C62.1619 168.33 62.1537 168.248 62.1496 168.17Z" fill="white" stroke="#263238" stroke-width="0.8" stroke-linecap="round" stroke-linejoin="round"/>
<path d="M44.3008 162.806C44.3008 162.806 42.5323 166.347 39.5807 168.127C36.6291 169.908 33.3828 169.458 33.3828 167.243C33.3828 165.028 35.5934 163.26 37.366 162.077C39.1386 160.894 43.4165 160.001 44.3008 162.806Z" fill="white" stroke="#263238" stroke-width="0.8" stroke-linecap="round" stroke-linejoin="round"/>
<path d="M33.3951 166.99C34.3244 167.567 35.8513 168.296 37.5134 168.112C39.1754 167.928 41.7913 165.766 43.4493 164.219C42.4491 165.775 41.1307 167.102 39.5807 168.112C36.6291 169.884 33.3828 169.442 33.3828 167.228C33.3828 167.146 33.391 167.064 33.3951 166.99Z" fill="white" stroke="#263238" stroke-width="0.8" stroke-linecap="round" stroke-linejoin="round"/>
<path d="M31.1713 106.574C31.1713 106.574 30.1397 113.067 31.466 117.791C32.7924 122.515 33.2386 125.315 33.2386 129.745C33.2386 134.174 34.7124 150.402 35.2855 153.079C35.8586 155.756 36.7797 163.379 36.7797 163.379C36.7797 163.379 40.464 164.853 42.1015 164.263C42.5455 164.123 42.9562 163.893 43.3082 163.588C43.6602 163.283 43.9461 162.91 44.1484 162.49L46.3631 126.781L46.8134 119.985H47.6976C47.6976 119.985 49.1755 149.206 49.7445 153.636C50.3135 158.065 50.4814 163.817 50.4814 163.817C50.4814 163.817 52.2539 164.701 53.2856 164.701C54.3172 164.701 58.0097 164.112 58.1571 163.227C58.3053 162.249 58.3053 161.254 58.1571 160.276C58.0097 159.686 57.715 157.766 57.715 157.766C57.715 157.766 60.2244 131.939 60.2244 129.43C60.2244 126.92 59.9297 107.442 59.9297 107.442L59.3361 106.558C59.3361 106.558 55.0581 108.195 47.3824 108.195C39.7067 108.195 34.1024 105.985 33.2181 105.391C32.3339 104.798 31.0239 105.69 31.1713 106.574Z" fill="#263238" stroke="#263238" stroke-width="0.8" stroke-linecap="round" stroke-linejoin="round"/>
<path d="M41.7945 66.4405C41.7945 66.4405 34.1229 69.2406 32.9439 71.4553C31.7649 73.67 30.897 105.548 31.1713 106.579C31.4456 107.611 40.3208 110.575 47.2555 110.575C54.1903 110.575 60.3923 108.065 60.687 106.739C60.9818 105.413 60.3923 74.3987 58.9144 71.615C57.4366 68.8313 54.1944 66.4405 50.0597 65.544C45.9251 64.6475 41.7945 66.4405 41.7945 66.4405Z" fill="white" stroke="#263238" stroke-width="0.8" stroke-linecap="round" stroke-linejoin="round"/>
<path d="M35.0045 69.3892C35.0045 69.3892 37.8087 80.6019 38.3982 83.5535C38.9877 86.5051 38.6929 99.9284 38.6929 99.9284L30.7266 99.3348L30.8739 100.972L38.6929 102.61L36.6461 130.353C36.6461 130.353 43.8756 133.01 50.5156 132.715C54.4808 132.544 58.3387 131.375 61.7324 129.317C61.7324 129.317 60.5534 110.724 60.5534 98.9172C60.5534 87.111 59.9639 77.372 59.9639 75.583C59.9639 73.7941 58.8709 70.6706 57.0983 69.1927C57.0983 69.1927 57.7451 72.3367 58.0399 75.4357C58.1937 77.7471 58.1444 80.0676 57.8925 82.3704L40.9199 82.2231L37.2356 68.0547L35.0045 69.3892Z" fill="#0F913D" stroke="#263238" stroke-width="0.8" stroke-linecap="round" stroke-linejoin="round"/>
<path d="M33.3806 70.8633C33.3806 70.8633 29.6963 73.2254 28.2144 74.9938C26.7324 76.7623 23.7891 95.2127 23.7891 96.6906C23.7891 98.1684 25.8359 98.7374 27.0354 98.7374C28.2348 98.7374 31.3133 97.5584 31.9028 95.4911C32.4923 93.4238 36.0375 83.0953 36.0375 83.0953C36.0375 83.0953 36.1848 80.2911 36.1848 79.1121" fill="white"/>
<path d="M33.3806 70.8633C33.3806 70.8633 29.6963 73.2254 28.2144 74.9938C26.7324 76.7623 23.7891 95.2127 23.7891 96.6906C23.7891 98.1684 25.8359 98.7374 27.0354 98.7374C28.2348 98.7374 31.3133 97.5584 31.9028 95.4911C32.4923 93.4238 36.0375 83.0953 36.0375 83.0953C36.0375 83.0953 36.1848 80.2911 36.1848 79.1121" stroke="#263238" stroke-width="0.8" stroke-linecap="round" stroke-linejoin="round"/>
<path d="M63.7582 84.9691C62.1207 84.4328 60.6183 84.5597 60.389 85.2474L55.4766 100.177L61.3879 102.122L66.3004 87.196C66.5296 86.5042 65.3916 85.5053 63.7582 84.9691Z" fill="white" stroke="#263238" stroke-width="0.8" stroke-linecap="round" stroke-linejoin="round"/>
<path d="M61.385 102.122C61.1598 102.813 59.6492 102.94 58.0199 102.4C56.3906 101.86 55.2485 100.869 55.4736 100.177C55.6988 99.4852 57.2094 99.3583 58.8428 99.8946C60.4762 100.431 61.6142 101.43 61.385 102.122Z" fill="white" stroke="#263238" stroke-width="0.8" stroke-linecap="round" stroke-linejoin="round"/>
<path d="M63.7622 84.9691C62.1247 84.4328 60.6223 84.5597 60.393 85.2474L59.4392 88.154C60.5486 87.9984 62.661 88.1212 65.2809 90.2991L66.3044 87.196C66.5336 86.5042 65.3956 85.5053 63.7622 84.9691Z" fill="#263238" stroke="#263238" stroke-width="0.8" stroke-linecap="round" stroke-linejoin="round"/>
<path d="M63.5891 95.3847C63.1037 95.5497 62.6293 95.7453 62.1685 95.9701C61.5013 96.3017 61.7592 96.5514 62.0867 96.5514C62.4142 96.5514 63.5891 96.6374 64.1745 96.2198C64.7599 95.8022 64.4242 95.2987 63.5891 95.3847Z" fill="white" stroke="#263238" stroke-width="0.8" stroke-linecap="round" stroke-linejoin="round"/>
<path d="M65.35 94.0117C65.35 94.0117 65.7594 94.7486 65.2436 95.1702C64.7278 95.5919 62.2879 95.6983 61.8662 95.3831C61.4446 95.0679 62.6072 94.5357 63.3441 94.4334C64.0809 94.331 65.35 94.0117 65.35 94.0117Z" fill="white" stroke="#263238" stroke-width="0.8" stroke-linecap="round" stroke-linejoin="round"/>
<path d="M65.6 93.043C65.6 93.043 66.0094 93.7798 65.4936 94.2056C64.9778 94.6313 62.5379 94.7296 62.1162 94.4144C61.6946 94.0992 62.8572 93.5711 63.5941 93.4646C64.3309 93.3582 65.6 93.043 65.6 93.043Z" fill="white" stroke="#263238" stroke-width="0.8" stroke-linecap="round" stroke-linejoin="round"/>
<path d="M64.8563 91.9872C64.2443 92.198 63.6456 92.4454 63.0633 92.7282C62.22 93.1376 62.5352 93.4651 62.961 93.4651C63.3867 93.4651 64.8563 93.5715 65.5973 93.0557C66.3383 92.5399 65.9125 91.8849 64.8563 91.9872Z" fill="white" stroke="#263238" stroke-width="0.8" stroke-linecap="round" stroke-linejoin="round"/>
<path d="M29.7838 101.137L37.2917 102.033L35.8343 113.242L27.4299 111.224L25.8579 109.541L29.2229 104.387L29.7838 101.137Z" fill="#828282" stroke="#263238" stroke-width="0.8" stroke-linecap="round" stroke-linejoin="round"/>
<path d="M25.8579 109.539L34.8273 111.447L37.2917 102.031L35.8343 113.24L27.4299 111.222L25.8579 109.539Z" fill="#828282" stroke="#263238" stroke-width="0.8" stroke-linecap="round" stroke-linejoin="round"/>
<path d="M34.8273 111.447L35.8343 113.24L26.9796 111.336L25.8579 109.539L34.8273 111.447Z" fill="#5C5C5C" stroke="#263238" stroke-width="0.8" stroke-linecap="round" stroke-linejoin="round"/>
<path d="M28.6016 110.029L29.7846 107.188L32.9204 107.863L31.8029 110.778L28.6016 110.029Z" fill="white" stroke="#263238" stroke-width="0.8" stroke-linecap="round" stroke-linejoin="round"/>
<path d="M44.3035 63.9259C44.3035 63.9259 39.2887 66.1366 39.436 67.6103C39.5834 69.084 42.2402 77.4966 43.8614 77.9388C45.4825 78.3809 48.7329 74.1029 48.7329 74.1029C48.7329 74.1029 51.3897 77.4966 53.0108 77.2019C54.6319 76.9071 54.0465 75.2819 53.6003 70.4145C53.1541 65.5471 51.5535 65.6903 49.175 64.5114C47.6532 63.8086 45.9485 63.6037 44.3035 63.9259Z" fill="white" stroke="#263238" stroke-width="0.8" stroke-linecap="round" stroke-linejoin="round"/>
<path d="M55.078 51.6776C55.078 51.6776 57.4401 50.9366 58.0296 48.726C58.6191 46.5154 55.5201 41.3573 50.9474 39.7198C46.3747 38.0823 40.9096 38.6841 38.2569 42.6714C35.6042 46.6587 35.6001 50.343 36.4884 52.9998C37.3768 55.6566 38.8505 57.5766 39.44 57.8714C40.0295 58.1661 40.4716 55.9514 43.2758 55.2145C45.844 54.4729 48.2126 53.1634 50.2065 51.3828C50.8372 50.8117 51.3407 50.1143 51.6843 49.3359L55.078 51.6776Z" fill="#263238" stroke="#263238" stroke-width="0.8" stroke-linecap="round" stroke-linejoin="round"/>
<path d="M43.2704 63.0391C43.2704 63.0391 42.8283 66.4369 44.0073 68.9422C45.1863 71.4476 46.9589 74.698 48.2893 74.698C49.6198 74.698 51.3883 71.3043 51.9737 69.237C52.5591 67.1696 52.7105 63.78 52.7105 63.78C52.7105 63.78 47.6957 65.5403 43.2704 63.0391Z" fill="white" stroke="#263238" stroke-width="0.8" stroke-linecap="round" stroke-linejoin="round"/>
<path d="M41.497 53.8909L45.6316 50.0551L45.9264 51.6926C45.9264 51.6926 49.6107 49.92 50.6464 48.4462C51.6821 46.9725 51.6821 46.3789 51.6821 46.3789L55.3665 50.6568C55.3665 50.6568 55.956 58.6273 55.2191 61.1368C54.4822 63.6462 54.3349 66.1516 50.6423 66.7452C46.9498 67.3388 43.1181 64.8252 41.9391 62.6105C41.3033 61.4738 40.7559 60.29 40.3016 59.0694C40.3016 59.0694 37.4974 57.0226 37.6448 54.4968C37.7921 51.9709 40.0232 52.1224 41.497 53.8909Z" fill="white" stroke="#263238" stroke-width="0.8" stroke-linecap="round" stroke-linejoin="round"/>
<path d="M52.6953 54.6212C52.6953 55.1411 52.9368 55.5587 53.2316 55.5587C53.5263 55.5587 53.7679 55.1493 53.7679 54.6212C53.7679 54.0932 53.5304 53.6797 53.2316 53.6797C52.9327 53.6797 52.6953 54.1013 52.6953 54.6212Z" fill="#263238"/>
<path d="M47.364 55.1877C47.364 55.7076 47.6055 56.1251 47.9044 56.1251C48.2032 56.1251 48.4407 55.7157 48.4407 55.1877C48.4407 54.6596 48.1991 54.2461 47.9044 54.2461C47.6096 54.2461 47.364 54.6677 47.364 55.1877Z" fill="#263238"/>
<path d="M52.1208 54.7891C52.1208 54.7891 52.6571 56.9383 52.9396 57.9412C53.2221 58.9442 52.9396 60.2337 51.3267 59.8039" fill="white"/>
<path d="M52.1208 54.7891C52.1208 54.7891 52.6571 56.9383 52.9396 57.9412C53.2221 58.9442 52.9396 60.2337 51.3267 59.8039" stroke="#263238" stroke-width="0.8" stroke-linecap="round" stroke-linejoin="round"/>
<path d="M54.6172 52.6364C54.3499 52.3677 53.992 52.2083 53.6135 52.1894C53.235 52.1705 52.8631 52.2934 52.5703 52.5341" fill="white"/>
<path d="M54.6172 52.6364C54.3499 52.3677 53.992 52.2083 53.6135 52.1894C53.235 52.1705 52.8631 52.2934 52.5703 52.5341" stroke="#263238" stroke-width="0.8" stroke-linecap="round" stroke-linejoin="round"/>
<path d="M49.14 52.8494C49.14 52.8494 47.1955 52.0306 46.3767 53.2587L49.14 52.8494Z" fill="white"/>
<path d="M49.14 52.8494C49.14 52.8494 47.1955 52.0306 46.3767 53.2587" stroke="#263238" stroke-width="0.8" stroke-linecap="round" stroke-linejoin="round"/>
<path d="M52.1093 61.96C52.1093 61.96 50.2508 62.6191 47.5203 60.8711L52.1093 61.96Z" fill="white"/>
<path d="M52.1093 61.96C52.1093 61.96 50.2508 62.6191 47.5203 60.8711" stroke="#263238" stroke-width="0.8" stroke-linecap="round" stroke-linejoin="round"/>
<path d="M38.2329 55.5163C38.2329 55.5163 38.6709 53.3302 39.6534 54.4232C40.1343 54.9058 40.54 55.4578 40.857 56.0607C40.857 56.0607 39.109 55.8438 39.764 57.0432" fill="white"/>
<path d="M38.2329 55.5163C38.2329 55.5163 38.6709 53.3302 39.6534 54.4232C40.1343 54.9058 40.54 55.4578 40.857 56.0607C40.857 56.0607 39.109 55.8438 39.764 57.0432" stroke="#263238" stroke-width="0.8" stroke-linecap="round" stroke-linejoin="round"/>
<path d="M41.7161 99.8501C41.7161 99.8501 41.1716 101.848 41.4745 101.971C41.7775 102.093 43.7752 102.454 44.2583 102.212C44.7413 101.971 44.2583 101.303 44.2583 101.303L46.6203 91.8059L42.3874 91.5234L41.7161 99.8501Z" fill="#263238" stroke="#263238" stroke-width="0.8" stroke-linecap="round" stroke-linejoin="round"/>
<path d="M23.4808 94.3021C23.4808 94.3021 26.8335 91.9687 30.3296 92.1161C33.8256 92.2634 34.2636 94.4454 34.2636 95.9028C34.2636 97.3601 26.9768 100.999 25.3762 100.999C23.7755 100.999 21.2947 98.0888 23.4808 94.3021Z" fill="white" stroke="#263238" stroke-width="0.8" stroke-linecap="round" stroke-linejoin="round"/>
<path d="M40.9067 95.2112C40.9067 95.2112 34.4141 93.8848 31.9005 93.5737C29.387 93.2626 24.9657 94.7527 24.0815 97.258C23.1973 99.7634 25.9974 101.241 28.2121 101.831C30.4268 102.42 41.1973 100.377 41.1973 100.377C41.1973 100.377 46.2162 100.672 47.1005 99.1944C47.9847 97.7165 48.566 94.6053 48.566 94.6053C48.566 94.6053 50.9281 93.7211 50.3345 92.538C49.7409 91.3549 43.2524 91.2116 42.3681 91.5064C41.4839 91.8011 40.9067 95.2112 40.9067 95.2112Z" fill="white" stroke="#263238" stroke-width="0.8" stroke-linecap="round" stroke-linejoin="round"/>
<path d="M46.3186 89.2003H42.8062C42.4707 89.1867 42.1436 89.3069 41.8967 89.5346C41.6499 89.7622 41.5036 90.0786 41.49 90.414C41.4765 90.7495 41.5967 91.0767 41.8244 91.3235C42.052 91.5703 42.3683 91.7166 42.7038 91.7302H50.8094L54.7107 89.2003H46.3186Z" fill="#263238" stroke="#263238" stroke-width="0.8" stroke-linecap="round" stroke-linejoin="round"/>
<path d="M54.3017 91.7414H50.7893C50.6223 91.7414 50.457 91.7085 50.3027 91.6444C50.1485 91.5804 50.0084 91.4866 49.8905 91.3683C49.7726 91.25 49.6792 91.1096 49.6157 90.9552C49.5522 90.8007 49.5197 90.6353 49.5203 90.4683C49.5203 90.1317 49.654 89.8089 49.892 89.5709C50.13 89.3329 50.4527 89.1992 50.7893 89.1992H54.3017C54.6383 89.1992 54.9611 89.3329 55.1991 89.5709C55.4371 89.8089 55.5708 90.1317 55.5708 90.4683C55.5713 90.6353 55.5389 90.8007 55.4754 90.9552C55.4118 91.1096 55.3184 91.25 55.2005 91.3683C55.0826 91.4866 54.9426 91.5804 54.7883 91.6444C54.6341 91.7085 54.4687 91.7414 54.3017 91.7414Z" fill="#5C5C5C" stroke="#263238" stroke-width="0.8" stroke-linecap="round" stroke-linejoin="round"/>
</svg>
