<svg width="261" height="167" viewBox="0 0 261 167" fill="none" xmlns="http://www.w3.org/2000/svg">
<path d="M5.73437 44.8207C4.66518 36.649 11.772 28.357 19.9816 28.2143C23.9107 28.1466 27.9071 29.6608 31.6979 28.6163C39.8477 26.362 41.2721 14.576 48.5882 10.3192C53.6463 7.37736 60.5176 9.07557 64.5925 13.2835C68.6674 17.4915 70.2563 23.6419 70.1142 29.5105C69.7404 44.3435 58.2259 58.1546 43.7544 61.0889C29.2829 64.0232 7.7494 58.9173 5.70073 44.5013" fill="#FFF1DD"/>
<path d="M100.83 13.9779C101.765 8.13719 97.8116 2.64058 91.9999 1.70088C86.1882 0.761166 80.7189 4.7342 79.7839 10.5749C78.8488 16.4156 82.8021 21.9122 88.6138 22.8519C94.4255 23.7916 99.8948 19.8186 100.83 13.9779Z" fill="#FFF1DD"/>
<path d="M248.334 51.904C248.099 51.8441 247.86 51.8002 247.62 51.7725C247.168 51.7193 246.712 51.7282 246.263 51.7988C241.35 52.1444 236.744 56.2134 236.191 61.1915C235.556 66.9587 240.479 72.7296 246.248 72.9813C252.016 73.2331 257.418 67.913 257.283 62.112C257.171 57.194 253.104 52.8057 248.334 51.904Z" fill="#FFF1DD"/>
<path d="M260.873 166.463C260.873 166.519 203.787 166.561 133.392 166.561C62.9972 166.561 5.91113 166.519 5.91113 166.463C5.91113 166.407 62.986 166.365 133.411 166.365C203.836 166.365 260.873 166.41 260.873 166.463Z" fill="#263238"/>
<path d="M107.884 150.73C108.281 150.824 108.655 150.997 108.984 151.239C109.313 151.481 109.59 151.787 109.798 152.139C110.212 152.846 110.459 153.639 110.519 154.458C110.684 156.032 110.146 157.775 109.488 159.206C107.955 158.361 107.244 156.46 106.919 155.472C106.433 153.909 106.497 150.787 107.884 150.73Z" fill="#FF9500"/>
<path d="M111.536 161.412C111.353 160.992 111.283 160.531 111.333 160.075C111.384 159.619 111.553 159.185 111.824 158.816C112.102 158.453 112.449 158.149 112.845 157.922C113.241 157.695 113.678 157.549 114.131 157.494C114.336 157.445 114.549 157.442 114.755 157.486C114.961 157.529 115.155 157.618 115.323 157.745C115.458 157.889 115.553 158.066 115.599 158.259C115.644 158.452 115.638 158.653 115.581 158.842C115.458 159.219 115.239 159.557 114.946 159.823C113.985 160.77 112.882 161.514 111.536 161.412Z" fill="#FF9500"/>
<path d="M110.919 166.48C110.899 166.374 110.89 166.266 110.893 166.157C110.893 165.924 110.874 165.628 110.863 165.271C110.799 164.289 110.894 163.303 111.143 162.351C111.41 161.397 111.926 160.531 112.639 159.845C112.855 159.642 113.095 159.466 113.353 159.319C113.422 159.278 113.495 159.241 113.57 159.21C113.618 159.188 113.644 159.177 113.648 159.18C113.306 159.389 112.985 159.632 112.691 159.906C112.012 160.597 111.519 161.45 111.255 162.385C111.01 163.326 110.906 164.299 110.949 165.271C110.949 165.646 110.949 165.947 110.949 166.157C110.949 166.266 110.939 166.374 110.919 166.48Z" fill="#263238"/>
<path d="M108.052 153.121C108.072 153.163 108.087 153.207 108.097 153.253C108.127 153.354 108.161 153.486 108.205 153.628C108.299 153.97 108.43 154.462 108.579 155.075C108.89 156.296 109.293 157.987 109.701 159.869C110.108 161.751 110.43 163.457 110.65 164.7C110.759 165.32 110.845 165.828 110.897 166.17C110.923 166.335 110.942 166.47 110.957 166.572C110.96 166.619 110.96 166.667 110.957 166.714C110.939 166.67 110.926 166.623 110.919 166.575C110.897 166.474 110.871 166.342 110.837 166.177C110.77 165.82 110.673 165.32 110.557 164.716C110.318 163.479 109.977 161.77 109.577 159.891C109.177 158.013 108.781 156.318 108.493 155.094C108.351 154.489 108.235 153.997 108.153 153.64L108.063 153.264C108.054 153.217 108.051 153.169 108.052 153.121Z" fill="#263238"/>
<path d="M109.517 162.837C109.158 161.941 108.591 161.144 107.865 160.512C107.138 159.879 106.272 159.43 105.338 159.201C104.863 159.088 104.272 159.077 103.988 159.479C103.704 159.881 103.913 160.437 104.183 160.846C104.763 161.69 105.579 162.342 106.528 162.72C107.477 163.099 108.515 163.187 109.514 162.973" fill="#FF9500"/>
<path d="M105.865 160.613C105.966 160.621 106.067 160.64 106.164 160.67C106.28 160.696 106.395 160.729 106.508 160.767C106.642 160.816 106.796 160.854 106.956 160.929C107.135 160.999 107.31 161.08 107.48 161.169C107.677 161.268 107.868 161.379 108.052 161.5C108.476 161.779 108.868 162.105 109.218 162.473C109.564 162.846 109.865 163.259 110.115 163.702C110.223 163.895 110.319 164.094 110.403 164.299C110.48 164.476 110.547 164.656 110.605 164.84C110.653 164.992 110.693 165.146 110.725 165.302C110.756 165.418 110.779 165.536 110.792 165.655C110.814 165.755 110.825 165.857 110.826 165.96C110.8 165.96 110.751 165.528 110.527 164.866C110.467 164.686 110.397 164.509 110.317 164.337C110.231 164.137 110.132 163.942 110.022 163.754C109.773 163.321 109.475 162.918 109.136 162.552C108.797 162.192 108.421 161.869 108.014 161.59C107.834 161.468 107.646 161.355 107.454 161.252C107.278 161.151 107.102 161.075 106.945 161.004C106.284 160.726 105.857 160.636 105.865 160.613Z" fill="#263238"/>
<path d="M226.934 162.514C227.076 161.965 226.717 161.413 226.314 161.011C225.91 160.609 225.428 160.259 225.218 159.726C224.878 158.869 225.334 157.761 224.755 157.047C224.414 156.626 223.805 156.483 223.502 156.036C223.362 155.788 223.27 155.515 223.229 155.232C222.906 153.81 222.209 152.501 221.211 151.441C221.145 152.709 221.419 153.972 222.003 155.097C222.277 155.529 222.478 156.004 222.598 156.502C222.725 157.318 222.272 158.155 222.471 158.956C222.699 159.869 223.719 160.481 223.768 161.42C223.809 162.217 223.117 162.923 223.17 163.712C223.212 164.05 223.332 164.373 223.521 164.655C223.793 165.181 224.207 165.62 224.716 165.92C225.224 166.221 225.806 166.373 226.396 166.357L228.067 166.417L226.934 162.514Z" fill="#FF9500"/>
<g opacity="0.3">
<path d="M226.934 162.514C227.076 161.965 226.717 161.413 226.314 161.011C225.91 160.609 225.428 160.259 225.218 159.726C224.878 158.869 225.334 157.761 224.755 157.047C224.414 156.626 223.805 156.483 223.502 156.036C223.362 155.788 223.27 155.515 223.229 155.232C222.906 153.81 222.209 152.501 221.211 151.441C221.145 152.709 221.419 153.972 222.003 155.097C222.277 155.529 222.478 156.004 222.598 156.502C222.725 157.318 222.272 158.155 222.471 158.956C222.699 159.869 223.719 160.481 223.768 161.42C223.809 162.217 223.117 162.923 223.17 163.712C223.212 164.05 223.332 164.373 223.521 164.655C223.793 165.181 224.207 165.62 224.716 165.92C225.224 166.221 225.806 166.373 226.396 166.357L228.067 166.417L226.934 162.514Z" fill="black"/>
</g>
<path d="M228.404 166.455C228.556 166.482 228.712 166.482 228.864 166.455C229.048 166.428 229.23 166.382 229.406 166.32C229.648 166.233 229.874 166.106 230.075 165.944C230.198 165.844 230.293 165.715 230.352 165.568C230.401 165.406 230.427 165.238 230.43 165.068C230.433 164.886 230.447 164.704 230.471 164.524C230.502 164.333 230.57 164.15 230.673 163.986C230.943 163.64 231.155 163.252 231.301 162.837C231.383 162.349 231.367 161.85 231.256 161.368C231.136 160.847 231.15 160.304 231.297 159.79C231.477 159.267 231.839 158.79 232.023 158.2C232.206 157.611 232.12 156.961 232.161 156.322C232.172 156 232.246 155.684 232.378 155.39C232.512 155.093 232.699 154.815 232.845 154.503C233.1 153.848 233.245 153.155 233.275 152.452C233.316 152.099 233.357 151.742 233.395 151.381C233.419 151.018 233.482 150.657 233.582 150.307C233.692 149.953 233.826 149.606 233.982 149.27C234.059 149.093 234.124 148.911 234.176 148.725C234.206 148.53 234.217 148.349 234.228 148.15C234.247 147.763 234.232 147.374 234.183 146.989C234.139 146.614 234.068 146.215 234.026 145.828V145.761V145.686L233.959 145.719C233.605 145.897 233.297 146.154 233.058 146.471C232.827 146.783 232.642 147.127 232.509 147.493C232.269 148.208 232.095 148.943 231.989 149.691C231.882 150.403 231.649 151.09 231.301 151.719C231.118 152.016 230.897 152.291 230.703 152.58C230.496 152.864 230.354 153.192 230.288 153.538C230.191 154.248 230.58 154.872 230.497 155.499C230.461 155.808 230.358 156.106 230.195 156.371C230.041 156.638 229.866 156.885 229.694 157.122C229.521 157.365 229.372 157.625 229.249 157.896C229.13 158.162 229.06 158.447 229.043 158.738C229.002 159.301 229.08 159.839 229.043 160.346C228.997 160.828 228.858 161.297 228.632 161.725C228.43 162.138 228.206 162.51 228.019 162.852C227.925 163.026 227.84 163.206 227.765 163.389C227.697 163.56 227.649 163.738 227.619 163.919C227.572 164.236 227.572 164.559 227.619 164.877C227.664 165.32 227.83 165.742 228.097 166.098C228.139 166.149 228.184 166.198 228.232 166.244C228.266 166.279 228.304 166.311 228.344 166.338L228.437 166.406C228.32 166.309 228.212 166.201 228.116 166.083C227.856 165.728 227.698 165.308 227.66 164.869C227.623 164.555 227.631 164.238 227.682 163.926C227.715 163.749 227.765 163.575 227.832 163.408C227.907 163.228 227.992 163.053 228.086 162.882C228.273 162.506 228.501 162.153 228.707 161.736C228.939 161.301 229.084 160.825 229.133 160.335C229.178 159.816 229.099 159.275 229.133 158.723C229.151 158.442 229.219 158.167 229.335 157.911C229.458 157.647 229.605 157.396 229.776 157.16C229.944 156.912 230.123 156.664 230.281 156.39C230.451 156.115 230.56 155.806 230.598 155.484C230.681 154.812 230.295 154.184 230.393 153.527C230.459 153.195 230.596 152.882 230.796 152.61C230.983 152.324 231.208 152.054 231.395 151.746C231.752 151.107 231.99 150.408 232.097 149.683C232.205 148.943 232.378 148.214 232.613 147.504C232.746 147.148 232.927 146.813 233.152 146.508C233.378 146.201 233.672 145.952 234.011 145.779L233.937 145.734V145.802C233.978 146.197 234.049 146.58 234.094 146.963C234.138 147.337 234.152 147.714 234.135 148.09C234.13 148.278 234.114 148.465 234.086 148.65C234.038 148.83 233.975 149.006 233.899 149.176C233.742 149.516 233.607 149.866 233.496 150.224C233.395 150.58 233.333 150.945 233.309 151.314C233.268 151.689 233.226 152.035 233.189 152.388C233.16 153.079 233.019 153.761 232.77 154.406C232.632 154.71 232.445 154.992 232.303 155.3C232.168 155.604 232.093 155.932 232.082 156.266C232.045 156.912 232.127 157.547 231.955 158.118C231.783 158.689 231.417 159.166 231.234 159.707C231.084 160.233 231.071 160.79 231.196 161.323C231.307 161.795 231.326 162.285 231.252 162.765C231.107 163.171 230.899 163.552 230.636 163.892C230.531 164.063 230.461 164.254 230.43 164.452C230.407 164.634 230.395 164.817 230.393 165.001C230.393 165.166 230.369 165.331 230.322 165.489C230.266 165.626 230.177 165.748 230.064 165.842C229.868 166.003 229.647 166.13 229.409 166.218C229.236 166.283 229.057 166.331 228.875 166.361C228.763 166.384 228.649 166.395 228.535 166.395L228.404 166.455Z" fill="#263238"/>
<path d="M233.664 146.689C233.663 146.707 233.663 146.725 233.664 146.742L233.627 146.892C233.593 147.024 233.556 147.223 233.492 147.475C233.429 147.726 233.275 148.001 233.144 148.35C232.992 148.739 232.859 149.135 232.748 149.537C232.621 149.988 232.509 150.484 232.374 151.014C232.274 151.584 232.094 152.137 231.84 152.656C231.705 152.926 231.548 153.204 231.428 153.505C231.307 153.814 231.226 154.137 231.185 154.467C231.097 155.149 230.972 155.826 230.812 156.495C230.479 157.871 230.157 159.182 229.87 160.373C229.582 161.564 229.301 162.627 229.077 163.536C228.853 164.446 228.677 165.156 228.554 165.67C228.494 165.915 228.449 166.11 228.415 166.249L228.382 166.403C228.38 166.42 228.38 166.438 228.382 166.456C228.382 166.456 228.382 166.437 228.4 166.403L228.445 166.256C228.483 166.114 228.535 165.922 228.602 165.678C228.733 165.167 228.924 164.446 229.159 163.555C229.395 162.665 229.664 161.583 229.97 160.399C230.277 159.216 230.587 157.897 230.924 156.522C231.084 155.849 231.209 155.168 231.298 154.482C231.337 154.16 231.415 153.845 231.529 153.542C231.649 153.249 231.799 152.975 231.937 152.697C232.19 152.171 232.369 151.612 232.468 151.036C232.584 150.503 232.692 150.007 232.812 149.56C232.931 149.113 233.066 148.715 233.186 148.369C233.305 148.023 233.455 147.741 233.515 147.482C233.574 147.223 233.604 147.031 233.63 146.896L233.664 146.735C233.664 146.708 233.664 146.689 233.664 146.689Z" fill="#263238"/>
<path d="M228.699 166.459C229.79 165.809 230.101 163.829 229.648 162.641C229.196 161.454 228.396 160.365 228.273 159.095C228.179 158.118 228.497 157.118 228.273 156.164C227.97 154.879 226.721 153.884 226.732 152.561C226.732 151.81 227.162 151.118 227.129 150.378C227.088 149.469 226.381 148.748 225.962 147.947C225.304 146.719 225.263 145.272 225.035 143.897C224.807 142.522 224.287 141.049 223.076 140.373C222.9 141.542 222.594 142.342 222.702 143.92C222.74 144.491 223.394 145.577 223.484 146.82C223.536 147.572 223.573 148.323 223.618 149.052C223.627 149.78 223.746 150.502 223.97 151.194C224.168 151.712 224.486 152.185 224.631 152.719C224.908 153.73 224.545 154.823 224.77 155.845C224.957 156.709 225.555 157.453 225.674 158.332C225.846 159.564 225.054 160.846 225.458 162.021C225.659 162.608 226.138 163.077 226.273 163.678C226.381 164.148 226.273 164.64 226.359 165.11C226.512 165.861 227.951 166.455 228.718 166.41" fill="#FF9500"/>
<path d="M223.376 141.533C223.376 141.533 223.376 141.556 223.376 141.597L223.402 141.789C223.425 141.958 223.455 142.206 223.511 142.54C223.567 142.874 223.735 143.224 223.884 143.667C224.034 144.111 224.161 144.607 224.284 145.17C224.408 145.734 224.512 146.354 224.621 147.022C224.708 147.744 224.897 148.45 225.182 149.119C225.331 149.472 225.503 149.821 225.634 150.193C225.759 150.578 225.835 150.977 225.862 151.381C225.924 152.236 226.031 153.088 226.184 153.932C226.516 155.66 226.834 157.313 227.126 158.816C227.417 160.319 227.705 161.653 227.937 162.787C228.169 163.922 228.359 164.823 228.494 165.462C228.557 165.77 228.61 166.014 228.647 166.187L228.692 166.375L228.711 166.439C228.712 166.418 228.712 166.396 228.711 166.375L228.677 166.184C228.643 166.011 228.599 165.763 228.543 165.451C228.415 164.812 228.236 163.899 228.019 162.772C227.802 161.645 227.507 160.259 227.212 158.756C226.916 157.253 226.61 155.611 226.277 153.872C226.126 153.03 226.019 152.181 225.956 151.328C225.927 150.916 225.848 150.51 225.72 150.118C225.585 149.742 225.413 149.386 225.26 149.04C224.978 148.378 224.788 147.68 224.696 146.966C224.584 146.297 224.475 145.674 224.344 145.11C224.231 144.602 224.093 144.101 223.929 143.607C223.791 143.171 223.619 142.811 223.555 142.48C223.492 142.149 223.458 141.913 223.425 141.747C223.425 141.668 223.398 141.608 223.391 141.56C223.386 141.55 223.381 141.542 223.376 141.533Z" fill="#263238"/>
<path d="M196.862 116.875H30.8491V133.549H196.862V116.875Z" fill="#FF9500"/>
<g opacity="0.4">
<path d="M196.862 116.875H30.8491V133.549H196.862V116.875Z" fill="black"/>
</g>
<path d="M160.895 135.654H111.891V151.096H160.895V135.654Z" fill="#455A64"/>
<path d="M77.647 128.67V149.082H94.3803L101.087 139.314H223.263V128.67H77.647Z" fill="#263238"/>
<path d="M76.6042 64.032C76.5858 63.7038 76.44 63.3959 76.1981 63.1746C75.9562 62.9533 75.6376 62.8362 75.3107 62.8485C68.6974 63.1228 37.3019 64.5693 30.8456 67.6877C25.9034 70.0772 20.4901 78.9966 16.6731 85.0042C13.9366 89.3098 7.8915 98.8679 6.66903 103.756C5.63348 107.889 5.00916 116.485 5.08019 120.749L6.80735 143.314H35.2607L38.1094 135.86C39.0184 133.486 40.6221 131.444 42.709 130.004C44.7959 128.564 47.2681 127.794 49.7995 127.794H78.0734V90.3468L76.6042 64.032Z" fill="#FF9500"/>
<path d="M27.4738 70.1855C23.5559 73.9427 19.623 80.3297 16.6734 85.0036C14.1387 88.9899 8.7703 97.4772 7.01697 102.594C6.98332 102.688 6.95715 102.778 6.92725 102.872C7.79457 102.632 9.12919 102.14 9.54416 101.313C10.1685 100.062 10.9685 95.7752 20.8604 79.5933C23.8662 74.6603 26.7971 71.7748 27.4738 70.1855Z" fill="#455A64"/>
<path d="M61.9866 68.5134C54.7116 68.9304 38.9391 70.0162 33.8997 71.737C27.3349 73.9912 19.9665 91.458 19.6188 92.2245L14.6541 104.999C14.6263 105.082 14.6186 105.171 14.6317 105.258C14.6448 105.345 14.6782 105.428 14.7293 105.5C14.7804 105.571 14.8477 105.629 14.9256 105.67C15.0036 105.71 15.0899 105.731 15.1775 105.731H28.0116C28.4977 105.731 28.9799 105.645 29.436 105.476L63.1904 92.8294C63.9357 92.5499 64.5782 92.0482 65.0319 91.3914C65.4856 90.7347 65.7287 89.9544 65.7288 89.1549V72.0714C65.7291 71.5867 65.6309 71.1071 65.4403 70.6619C65.2497 70.2167 64.9707 69.8153 64.6204 69.4822C64.2701 69.1491 63.8558 68.8914 63.4029 68.7248C62.9501 68.5582 62.4681 68.4863 61.9866 68.5134Z" fill="#263238"/>
<path d="M16.0859 104.478C16.0859 104.478 20.8412 93.7585 22.4413 90.2456C24.8563 84.9406 30.4977 74.0901 34.3071 72.9216C37.8101 71.8658 47.8814 70.5809 62.0576 69.7656H62.1922C62.8011 69.7676 63.3843 70.0118 63.8145 70.4448C64.2446 70.8778 64.4867 71.4644 64.4876 72.0762V89.5468C64.4863 89.9773 64.3547 90.3973 64.1103 90.7509C63.8659 91.1045 63.5203 91.3751 63.1194 91.5268L38.1802 94.6189C37.1805 94.7429 36.2196 95.084 35.3642 95.6186C34.5088 96.1532 33.7795 96.8684 33.2267 97.7147L28.9051 104.339C28.6514 104.433 28.383 104.481 28.1125 104.481L16.0859 104.478Z" fill="#455A64"/>
<path d="M37.2752 94.8109L28.7964 104.301L33.4881 72.7905L34.662 72.3848L32.3517 95.7277C32.3408 95.8449 32.36 95.9629 32.4075 96.0705C32.455 96.1781 32.5292 96.2717 32.623 96.3422C32.7168 96.4127 32.8271 96.4578 32.9432 96.4732C33.0593 96.4886 33.1775 96.4738 33.2863 96.4302L37.2752 94.8109Z" fill="#263238"/>
<path d="M4.5231 122.939C4.49319 122.53 4.63152 122.188 4.84087 122.188L9.38683 121.767C9.76067 121.729 10.1083 122.44 10.1532 123.27L10.3588 126.775C10.3925 127.339 10.2242 127.816 9.98498 127.857L5.3493 128.661C5.13995 128.699 4.93807 128.387 4.90816 127.974L4.5231 122.939Z" fill="#EBEBEB"/>
<path d="M37.2753 139.316H4.51904V152.515H37.2753V139.316Z" fill="#263238"/>
<path d="M59.1413 166.301C69.0322 165.919 76.7422 157.552 76.3623 147.612C75.9823 137.671 67.6562 129.923 57.7654 130.305C47.8745 130.687 40.1645 139.054 40.5444 148.994C40.9244 158.935 49.2505 166.683 59.1413 166.301Z" fill="#263238"/>
<path d="M40.547 147.992C40.549 148.008 40.549 148.025 40.547 148.041C40.4843 152.814 42.3093 157.417 45.6211 160.838C48.9328 164.259 53.4605 166.22 58.2096 166.288C62.9586 166.357 67.5406 164.529 70.949 161.204C74.3574 157.88 76.3135 153.332 76.3875 148.56C76.3875 148.56 76.3875 148.529 76.3875 148.514L40.547 147.992Z" fill="#263238"/>
<path d="M45.8817 148.116C45.845 150.617 46.5472 153.073 47.8994 155.173C49.2517 157.273 51.1932 158.923 53.4786 159.914C55.7639 160.905 58.2904 161.193 60.7384 160.741C63.1864 160.289 65.446 159.117 67.2315 157.374C69.0169 155.631 70.2479 153.396 70.7689 150.95C71.2899 148.504 71.0773 145.957 70.1582 143.633C69.239 141.308 67.6546 139.31 65.6052 137.89C63.5558 136.47 61.1336 135.694 58.6448 135.658C55.3086 135.609 52.0899 136.895 49.6965 139.231C47.3031 141.567 45.931 144.763 45.8817 148.116Z" fill="#FAFAFA"/>
<path d="M58.6444 135.658C55.3082 135.609 52.0895 136.895 49.6961 139.231C47.3027 141.567 45.9306 144.763 45.8813 148.116L71.0448 148.492C71.0938 145.137 69.8148 141.901 67.4893 139.494C65.1638 137.087 61.9822 135.707 58.6444 135.658Z" fill="#E0E0E0"/>
<path d="M50.8011 148.188C50.7791 149.711 51.207 151.207 52.0308 152.485C52.8546 153.764 54.0373 154.769 55.4292 155.372C56.8211 155.975 58.3598 156.15 59.8507 155.875C61.3415 155.599 62.7175 154.885 63.8047 153.824C64.8919 152.762 65.6414 151.4 65.9584 149.911C66.2755 148.421 66.1458 146.87 65.5858 145.454C65.0259 144.039 64.0607 142.822 62.8125 141.957C61.5643 141.093 60.089 140.62 58.5733 140.598C56.5413 140.569 54.581 141.353 53.1235 142.776C51.666 144.199 50.8306 146.146 50.8011 148.188Z" fill="#263238"/>
<path d="M23.7014 79.9551H22.2396C20.592 79.9551 19.2563 81.2974 19.2563 82.9533V94.8745C19.2563 96.5304 20.592 97.8727 22.2396 97.8727H23.7014C25.349 97.8727 26.6846 96.5304 26.6846 94.8745V82.9533C26.6846 81.2974 25.349 79.9551 23.7014 79.9551Z" fill="#263238"/>
<path d="M16.1834 108.949H15.8096V90.0014C15.8106 89.098 16.1681 88.2318 16.8038 87.5929C17.4395 86.9541 18.3014 86.5947 19.2003 86.5938H20.0976V86.9695H19.2003C18.4005 86.9705 17.6337 87.2902 17.0681 87.8586C16.5026 88.427 16.1844 89.1976 16.1834 90.0014V108.949Z" fill="#263238"/>
<path d="M18.7289 108.971L17.6896 91.2558C17.675 90.9529 17.7214 90.6502 17.8259 90.3658C17.9304 90.0813 18.091 89.821 18.298 89.6003C18.5049 89.3797 18.7541 89.2033 19.0305 89.0817C19.3069 88.9601 19.6048 88.8958 19.9065 88.8926V89.2683C19.6549 89.2684 19.406 89.3201 19.175 89.4203C18.944 89.5206 18.7358 89.6672 18.5632 89.8512C18.3907 90.0352 18.2573 90.2527 18.1714 90.4904C18.0854 90.728 18.0487 90.9808 18.0635 91.2333L19.1028 108.952L18.7289 108.971Z" fill="#263238"/>
<path d="M19.9071 107.242H14.8677V113.107H19.9071V107.242Z" fill="#263238"/>
<path d="M18.0453 96.1094H15.9966V96.4851H18.0453V96.1094Z" fill="#263238"/>
<path d="M35.1523 69.0222L35.5972 68.9621L36.9094 68.8081L41.9937 68.2182L60.9476 66.0504C61.957 65.9414 62.9851 65.8062 64.0505 65.7122C64.5948 65.6705 65.1423 65.706 65.6768 65.8174C66.2202 65.9452 66.7445 66.1448 67.2357 66.4111C68.249 66.9778 69.0705 67.8361 69.5947 68.8757C69.8658 69.4072 70.0489 69.9795 70.1367 70.5702C70.1838 70.8685 70.21 71.1698 70.2152 71.4719V72.3773C70.2152 77.2278 70.2152 82.4351 70.2152 87.9543C70.2152 98.9927 70.2152 111.271 70.2152 124.398V124.496H50.5248C49.4008 124.459 48.2756 124.513 47.1602 124.657C44.8594 124.99 42.6887 125.934 40.8722 127.392C39.0557 128.85 37.6593 130.768 36.8271 132.949C36.6657 133.35 36.5296 133.76 36.4197 134.178C36.2981 134.591 36.202 135.012 36.1318 135.437L36.0346 136.075L35.9897 136.395L35.971 136.714L35.9411 137.356V137.68V137.717C36.0234 137.634 35.8252 137.845 35.8402 137.822H10.8711V137.717C10.8711 132.055 10.8711 126.596 10.8711 121.381C10.8711 118.774 10.8711 116.228 10.8711 113.743V110.069C10.8711 109.464 10.8711 108.866 10.8711 108.269C10.8833 107.675 10.9257 107.082 10.9982 106.492C11.2833 104.219 12.0017 102.022 13.1142 100.022C14.1435 98.0759 15.1404 96.1974 16.1049 94.3865L21.406 84.4038L25.709 76.2998C26.023 75.7111 26.3246 75.1413 26.6137 74.5903C26.7632 74.3198 26.8941 74.0455 27.0511 73.79C27.2059 73.5404 27.3744 73.2995 27.5558 73.0686C28.2041 72.2562 28.9674 71.5435 29.8213 70.9534C30.9974 70.151 32.3121 69.5764 33.6981 69.2589C34.1739 69.1443 34.6574 69.0651 35.1448 69.0222L34.771 69.0786C34.528 69.1162 34.1691 69.18 33.6981 69.289C32.3203 69.6164 31.0148 70.1972 29.8475 71.0022C29.0008 71.5932 28.245 72.3058 27.6044 73.1175C27.4234 73.3443 27.2573 73.5828 27.1072 73.8313C26.9539 74.0793 26.8231 74.3573 26.6735 74.6316L25.7726 76.3448L21.507 84.4564C19.9069 87.4847 18.1424 90.8247 16.2358 94.4466L13.245 100.082C12.1429 102.067 11.4332 104.247 11.1552 106.503C11.084 107.088 11.0428 107.676 11.0318 108.265C11.0318 108.855 11.0318 109.46 11.0318 110.061V113.736C11.0318 116.218 11.0318 118.764 11.0318 121.374C11.0318 126.589 11.0318 132.048 11.0318 137.71L10.9384 137.619H35.8103C35.8365 137.601 35.6308 137.8 35.7168 137.71V137.668V137.345L35.7505 136.691V136.368L35.7991 136.045L35.8963 135.395C35.9673 134.964 36.0647 134.537 36.1879 134.118C36.2997 133.694 36.4383 133.277 36.6028 132.87C37.4482 130.657 38.8656 128.711 40.7088 127.231C42.5521 125.752 44.7546 124.794 47.0892 124.455C48.2048 124.312 49.3298 124.258 50.4538 124.293H70.0545L69.9573 124.387C69.9573 111.275 69.9573 98.9964 69.9573 87.943C69.9573 82.4238 69.9573 77.2165 69.9573 72.3661C69.9816 71.7701 69.9566 71.1732 69.8825 70.5814C69.7975 70.0041 69.6194 69.4444 69.3554 68.9246C68.8479 67.9083 68.0464 67.0701 67.0562 66.52C66.579 66.2574 66.0684 66.0615 65.5384 65.9377C65.0165 65.827 64.4817 65.7903 63.9496 65.8287C62.8916 65.9189 61.8561 66.0541 60.8504 66.1631L41.9002 68.2708L36.8122 68.8306L35.5 68.9697L35.1523 69.0222Z" fill="#263238"/>
<path d="M64.2483 110.544C64.2483 110.544 64.353 110.544 64.5399 110.499C64.8148 110.45 65.0768 110.345 65.3101 110.191C65.6778 109.949 65.9532 109.589 66.0914 109.169C66.1759 108.907 66.2101 108.632 66.1923 108.358C66.1843 108.053 66.1062 107.755 65.9643 107.486C65.8016 107.178 65.5597 106.92 65.2638 106.738C64.9678 106.556 64.6288 106.458 64.282 106.453H61.8146H56.1621C55.6914 106.453 55.2375 106.628 54.8866 106.943C54.5357 107.258 54.3124 107.692 54.2592 108.162C54.2005 108.608 54.2829 109.062 54.4947 109.458C54.7048 109.834 55.0339 110.127 55.4293 110.293C55.8204 110.429 56.2358 110.48 56.6481 110.443H57.8444H59.994L63.1081 110.473H63.9567C64.0544 110.471 64.1521 110.478 64.2483 110.495C64.1516 110.507 64.0542 110.514 63.9567 110.514H63.1081L59.994 110.544H57.8444H56.6481C56.4387 110.544 56.2368 110.544 56.0163 110.544C55.7919 110.527 55.5714 110.477 55.362 110.394C54.9296 110.214 54.5692 109.894 54.3377 109.485C54.1056 109.054 54.014 108.561 54.076 108.076C54.1338 107.56 54.3783 107.084 54.763 106.737C55.1476 106.391 55.6456 106.199 56.1621 106.197H61.8146H64.282C64.8212 106.208 65.3352 106.429 65.7148 106.814C66.0945 107.199 66.31 107.718 66.3157 108.26C66.3276 108.547 66.2857 108.834 66.1923 109.105C66.0386 109.542 65.742 109.912 65.3512 110.157C65.1073 110.31 64.8328 110.406 64.5474 110.439C64.4524 110.486 64.3519 110.522 64.2483 110.544Z" fill="#263238"/>
<path d="M63.5643 105.826C62.4991 105.92 61.4293 105.952 60.3604 105.92C59.2903 105.952 58.2193 105.92 57.1528 105.826C58.2191 105.729 59.2902 105.697 60.3604 105.729C61.4293 105.697 62.4992 105.73 63.5643 105.826Z" fill="white"/>
<path d="M38.7671 152.625L35.7764 152.407C36.5577 141.643 37.7017 135.203 39.2756 132.72C42.2962 127.948 45.2982 127.084 48.6217 126.517C51.7171 125.987 54.8387 126.111 57.8594 126.235L58.6071 126.265C64.8428 126.509 77.9049 126.291 78.047 126.291L78.0956 129.297C77.9648 129.297 64.8204 129.519 58.5024 129.271L57.7547 129.241C54.8873 129.128 51.9265 129.004 49.1376 129.485C46.1655 129.992 44.1879 130.574 41.8027 134.339C41.0812 135.462 39.7279 139.366 38.7671 152.625Z" fill="#263238"/>
<path d="M226.928 30.0078H79.6401V128.564H226.928V30.0078Z" fill="#FF9500"/>
<path d="M225.163 126.615C225.163 125.98 225.133 89.8329 225.084 32.2365L225.163 32.3116L81.2325 32.3342L81.3297 32.2365C81.3297 65.7837 81.3297 97.7153 81.3297 126.615L81.2399 126.525L225.17 126.615L81.2399 126.705H81.1353V126.615C81.1353 97.7153 81.1353 65.7837 81.1353 32.2365V32.1426H81.2437L225.174 32.1614H225.252V32.2403C225.193 89.8329 225.163 125.984 225.163 126.615Z" fill="#263238"/>
<g opacity="0.5">
<path d="M100.522 79.1672L101.913 107.357L211.146 84.521L209.214 55.1367L100.522 79.1672Z" fill="black"/>
</g>
<path d="M108.799 98.6877L109.547 96.0577C111.009 96.6901 112.632 96.8452 114.186 96.501C115.858 96.1253 116.803 95.3288 116.583 94.3633C116.13 92.248 109.854 94.7878 108.945 90.5723C108.366 87.8522 110.358 85.5829 114.007 84.7977C115.775 84.422 117.495 84.4595 118.8 84.9479L118.145 87.5291C116.934 87.0713 115.615 86.9837 114.355 87.2774C112.586 87.6531 111.697 88.5623 111.898 89.5091C112.347 91.6844 118.646 89.1334 119.517 93.2023C120.101 95.945 118.071 98.2218 114.403 99.0108C112.265 99.4767 110.097 99.27 108.799 98.6877Z" fill="white"/>
<path d="M133.653 80.7852L133.843 94.5812L130.797 95.2387L130.718 89.6219L124.755 90.9068L124.838 96.5425L121.768 97.1849L121.578 83.3851L124.643 82.7238L124.718 88.1453L130.681 86.8604L130.606 81.4389L133.653 80.7852Z" fill="white"/>
<path d="M136.771 80.1144L139.829 79.4531L140.019 93.2492L136.954 93.9105L136.771 80.1144Z" fill="white"/>
<path d="M154.296 80.6547C155.014 84.0173 152.999 86.6661 149.063 87.4964L146.128 88.1276L146.184 91.926L143.118 92.5873L142.939 78.7762L148.263 77.649C151.552 76.9239 153.743 78.0548 154.296 80.6547ZM151.268 81.5827C150.995 80.2978 149.964 79.8883 148.42 80.2227L146.031 80.7374L146.09 85.5277L148.666 84.9716C150.67 84.5283 151.642 83.3298 151.268 81.5715V81.5827Z" fill="white"/>
<path d="M167.867 77.7138C168.585 81.0952 166.57 83.7252 162.633 84.5555L159.702 85.1904L159.766 88.9889L156.7 89.6501L156.506 75.854L161.829 74.7043C165.13 73.9943 167.321 75.1251 167.867 77.7138ZM164.839 78.6455C164.566 77.3569 163.53 76.9473 161.99 77.2817L159.601 77.7964L159.661 82.5905L162.237 82.0345C164.256 81.5986 165.22 80.4001 164.846 78.6455H164.839Z" fill="white"/>
<path d="M170.11 72.923L173.176 72.2617L173.37 86.0616L170.305 86.7228L170.11 72.923Z" fill="white"/>
<path d="M188.339 69.0078L188.533 82.8039L186.028 83.3449L179.355 76.1087L179.467 84.7501L176.477 85.4001L176.282 71.6002L178.802 71.0554L185.483 78.2954L185.348 69.654L188.339 69.0078Z" fill="white"/>
<path d="M200.462 73.077L203.248 72.4758L203.319 78.1528C202.084 79.5367 200.437 80.4818 198.623 80.8467C194.634 81.707 191.617 79.9262 190.888 76.5072C189.924 71.9987 192.485 67.8659 197.468 66.7838C199.988 66.239 202.003 66.6523 203.45 67.9109L201.648 70.1652C200.526 69.2973 199.36 69.117 197.909 69.4326C194.825 70.0976 193.326 72.7539 193.946 75.6656C194.369 77.6494 195.973 78.7089 198.474 78.1678C199.229 78.0128 199.94 77.6907 200.556 77.2248L200.462 73.077Z" fill="white"/>
<path d="M191.688 56.7961L213.734 51.6075L212.863 49.248L191.688 56.7961Z" fill="#FAFAFA"/>
<path d="M92.9746 73.3758L108.302 69.769L107.697 68.1309L92.9746 73.3758Z" fill="#FAFAFA"/>
<path d="M145.452 110.493L167.497 105.301L166.63 102.945L145.452 110.493Z" fill="#FAFAFA"/>
<path d="M58.7042 76.6777C58.7042 76.6777 58.6593 76.7228 58.5659 76.7942L58.1546 77.091C57.7808 77.3503 57.2686 77.7109 56.6181 78.158C55.3134 79.0447 53.4965 80.2545 51.4703 81.5582C49.444 82.8619 47.5935 84.0154 46.2364 84.8382C45.5635 85.2477 45.014 85.5896 44.6327 85.8L44.1915 86.048C44.1413 86.0806 44.0873 86.1071 44.0308 86.1269C44.0308 86.1269 44.0756 86.0818 44.1691 86.0179L44.5915 85.7324L46.1654 84.7217L51.3581 81.3929L56.5321 78.0416L58.106 77.0309L58.5397 76.7604C58.5914 76.727 58.6465 76.6992 58.7042 76.6777Z" fill="#FAFAFA"/>
<path d="M52.3155 78.377C52.3155 78.377 52.2706 78.422 52.1772 78.4934L51.766 78.7902C51.3921 79.0457 50.8799 79.4102 50.2257 79.8535C48.921 80.7439 47.1041 81.95 45.0816 83.2349C43.0591 84.5198 41.2048 85.6958 39.8478 86.5186C39.1749 86.9281 38.6253 87.27 38.244 87.4767L37.8028 87.7284C37.7534 87.7616 37.6992 87.787 37.6421 87.8035C37.684 87.7621 37.7304 87.7256 37.7804 87.6946L38.2029 87.4128L39.773 86.3984L44.9694 83.0733L50.1435 79.722L51.7173 78.7076L52.1473 78.4408C52.2003 78.4122 52.2569 78.3907 52.3155 78.377Z" fill="#FAFAFA"/>
<path d="M20.8416 89.3142C20.7843 89.2115 20.7451 89.0997 20.7257 88.9836C20.6658 88.7694 20.5836 88.4538 20.4901 88.0631C20.2444 87.0419 20.1189 85.9953 20.1163 84.9447C20.111 83.8834 20.3543 82.8357 20.8266 81.8864C20.9743 81.6024 21.1523 81.3353 21.3575 81.0899C21.4266 80.9962 21.5099 80.9138 21.6042 80.8457C21.3656 81.2019 21.1459 81.5706 20.9462 81.9503C20.5202 82.8942 20.3021 83.9195 20.307 84.956C20.3183 85.9938 20.4297 87.0281 20.6397 88.0443C20.7332 88.463 20.8006 88.8871 20.8416 89.3142Z" fill="#FAFAFA"/>
<path d="M5.61854 115.951C5.60502 115.817 5.60502 115.683 5.61854 115.549C5.61854 115.279 5.61854 114.888 5.64097 114.422C5.67088 113.456 5.74191 112.123 5.8578 110.665C5.97369 109.207 6.11201 107.87 6.23164 106.908C6.29146 106.427 6.3438 106.04 6.38492 105.781C6.39899 105.641 6.42782 105.504 6.4709 105.371C6.48969 105.511 6.48969 105.652 6.4709 105.792L6.37371 106.919C6.29146 107.926 6.1793 109.23 6.05594 110.676C5.93257 112.123 5.8578 113.423 5.78677 114.433C5.75312 114.884 5.72322 115.264 5.70078 115.56C5.6894 115.694 5.66178 115.825 5.61854 115.951Z" fill="#FAFAFA"/>
<path d="M46.5881 123.244C46.5881 123.285 45.8665 123.387 44.7487 123.751C44.0945 123.965 43.4561 124.225 42.8384 124.529C41.3249 125.284 39.9557 126.302 38.7934 127.535C38.3188 128.035 37.8803 128.569 37.4812 129.132C36.8045 130.097 36.4868 130.762 36.4531 130.743C36.5087 130.58 36.5788 130.421 36.6625 130.27C36.7461 130.086 36.841 129.908 36.9466 129.736C37.0662 129.534 37.1971 129.297 37.369 129.053C37.7561 128.472 38.1886 127.923 38.6625 127.411C39.2499 126.785 39.889 126.211 40.5729 125.694C41.2631 125.19 41.9962 124.749 42.7636 124.375C43.3905 124.072 44.0406 123.821 44.7076 123.624C44.988 123.53 45.2534 123.477 45.4815 123.421C45.6776 123.373 45.876 123.335 46.0759 123.308C46.2442 123.27 46.4157 123.249 46.5881 123.244Z" fill="#FAFAFA"/>
<path d="M83.4043 100.562C83.3996 100.508 83.3996 100.454 83.4043 100.401C83.4043 100.285 83.4043 100.128 83.4043 99.9272C83.4043 99.4988 83.4043 98.8864 83.3782 98.105C83.3557 96.5119 83.3258 94.2239 83.2847 91.4023C83.1838 85.7328 83.0454 77.9218 82.8922 69.2917C82.7389 60.6617 82.6081 52.8356 82.5557 47.1774C82.5295 44.3483 82.5221 42.0565 82.5258 40.4747C82.5258 39.6895 82.5258 39.0771 82.5258 38.6525V38.1791C82.5258 38.0702 82.5258 38.0176 82.5258 38.0176C82.5308 38.0713 82.5308 38.1254 82.5258 38.1791C82.5258 38.2918 82.5258 38.4496 82.5258 38.6525C82.5258 39.0771 82.5258 39.6895 82.552 40.4747C82.5744 42.0677 82.6043 44.3521 82.6454 47.1736C82.7464 52.8431 82.8847 60.6541 83.038 69.288C83.1912 77.9218 83.3258 85.7403 83.3744 91.3985C83.4006 94.2314 83.4118 96.5195 83.4081 98.1012C83.4081 98.8864 83.4081 99.4988 83.4081 99.9272C83.4081 100.126 83.4081 100.284 83.4081 100.401C83.41 100.454 83.4088 100.508 83.4043 100.562Z" fill="#FAFAFA"/>
<path d="M191.569 166.281C201.459 165.883 209.156 157.503 208.761 147.564C208.365 137.624 200.027 129.889 190.137 130.286C180.247 130.684 172.55 139.063 172.945 149.003C173.341 158.943 181.679 166.678 191.569 166.281Z" fill="#263238"/>
<path d="M172.925 147.992C172.925 147.992 172.925 148.026 172.925 148.041C172.857 152.817 174.679 157.425 177.991 160.85C181.303 164.276 185.833 166.239 190.586 166.308C195.338 166.377 199.923 164.546 203.331 161.217C206.74 157.889 208.694 153.335 208.762 148.56V148.514L172.925 147.992Z" fill="#263238"/>
<path d="M178.26 148.116C178.224 150.616 178.926 153.071 180.278 155.17C181.63 157.269 183.571 158.917 185.856 159.908C188.14 160.898 190.666 161.185 193.113 160.733C195.56 160.281 197.818 159.11 199.603 157.368C201.388 155.626 202.618 153.391 203.139 150.946C203.66 148.501 203.448 145.956 202.53 143.632C201.611 141.308 200.028 139.31 197.98 137.891C195.931 136.471 193.51 135.694 191.023 135.658C187.686 135.609 184.468 136.895 182.074 139.231C179.681 141.567 178.309 144.763 178.26 148.116Z" fill="#FAFAFA"/>
<path d="M191.023 135.658C189.371 135.633 187.731 135.936 186.195 136.549C184.66 137.162 183.259 138.073 182.074 139.23C180.889 140.387 179.942 141.767 179.288 143.292C178.633 144.817 178.284 146.456 178.26 148.116L203.42 148.492C203.445 146.831 203.145 145.181 202.535 143.637C201.926 142.093 201.019 140.685 199.868 139.493C198.717 138.301 197.343 137.349 195.825 136.691C194.308 136.033 192.676 135.682 191.023 135.658Z" fill="#E0E0E0"/>
<path d="M183.195 148.188C183.173 149.711 183.601 151.207 184.424 152.485C185.248 153.764 186.431 154.769 187.823 155.372C189.215 155.975 190.753 156.15 192.244 155.875C193.735 155.599 195.111 154.885 196.198 153.824C197.285 152.762 198.035 151.4 198.352 149.911C198.669 148.421 198.539 146.87 197.979 145.454C197.419 144.039 196.454 142.822 195.206 141.957C193.958 141.093 192.483 140.62 190.967 140.598C188.935 140.569 186.975 141.353 185.517 142.776C184.06 144.199 183.224 146.146 183.195 148.188Z" fill="#263238"/>
<path d="M167.284 153.234C167.284 153.234 164.554 127.686 190.896 127.686C215.195 127.686 214.657 149.657 214.425 153.057H210.616C210.616 153.057 212.556 131.401 190.896 131.401C169.235 131.401 171.119 153.497 171.119 153.497C171.119 153.497 169.519 153.418 167.284 153.234Z" fill="#455A64"/>
<path d="M181.393 130.331C181.328 130.365 181.258 130.39 181.187 130.406C181.049 130.455 180.843 130.504 180.589 130.594C179.858 130.828 179.142 131.107 178.447 131.432C176.144 132.493 174.104 134.055 172.473 136.004C170.843 137.953 169.663 140.241 169.018 142.703C168.821 143.444 168.67 144.197 168.566 144.957C168.525 145.228 168.51 145.438 168.487 145.581C168.481 145.655 168.469 145.727 168.45 145.799C168.441 145.727 168.441 145.653 168.45 145.581C168.45 145.434 168.45 145.205 168.495 144.95C168.569 144.177 168.702 143.411 168.891 142.658C169.504 140.158 170.679 137.833 172.327 135.861C173.974 133.889 176.05 132.324 178.394 131.285C179.099 130.969 179.827 130.705 180.57 130.496C180.832 130.421 181.041 130.38 181.18 130.346C181.25 130.333 181.321 130.328 181.393 130.331Z" fill="#FAFAFA"/>
<path d="M229.978 125.361C229.978 125.361 230.924 143.503 231.398 147.179C231.872 150.856 232.818 156.22 232.818 156.22C232.818 156.22 232.142 156.696 232.007 157.173C231.872 157.649 232.074 159.415 232.074 159.415L237.011 159.754C237.011 159.754 237.214 158.532 237.214 155.743V151.59C237.214 151.048 238.027 127.8 238.027 127.8L238.634 151.66C238.634 151.66 238.431 159.068 238.771 159.203C239.105 159.377 239.422 159.582 239.717 159.815L244.045 159.68C244.228 158.876 244.342 158.058 244.384 157.234C244.384 156.281 243.775 154.447 243.843 153.426C243.91 152.406 245.67 144.115 245.67 142.688V120.465H230.117L229.978 125.361Z" fill="#263238" stroke="#263238" stroke-width="0.4" stroke-linecap="round" stroke-linejoin="round"/>
<path d="M236.537 159.416C236.537 159.416 234.713 157.853 233.901 157.989C233.09 158.124 232.344 158.601 232.277 158.804C232.209 159.007 231.735 159.416 231.6 159.823C231.465 160.229 229.301 162.271 228.827 162.815C228.353 163.359 228.016 163.427 228.423 163.766C228.674 163.973 228.973 164.113 229.293 164.175H237.011C237.011 164.175 237.283 163.563 237.214 162.339C237.144 161.114 237.011 159.755 237.011 159.755L236.537 159.416Z" fill="white" stroke="#263238" stroke-width="0.4" stroke-linecap="round" stroke-linejoin="round"/>
<path d="M228.242 163.492C228.242 163.571 228.29 163.652 228.423 163.763C228.674 163.97 228.973 164.11 229.293 164.172H237.011C237.094 163.953 237.149 163.725 237.175 163.492H228.242Z" fill="white" stroke="#263238" stroke-width="0.4" stroke-linecap="round" stroke-linejoin="round"/>
<path d="M239.745 159.416C239.745 159.416 241.466 157.853 242.231 157.989C242.997 158.124 243.697 158.601 243.754 158.804C243.81 159.007 244.263 159.416 244.391 159.823C244.519 160.229 246.566 162.271 247.001 162.815C247.436 163.359 247.766 163.427 247.384 163.766C247.148 163.973 246.862 164.113 246.555 164.175H239.291C239.291 164.175 239.036 163.563 239.099 162.339C239.162 161.114 239.291 159.755 239.291 159.755L239.745 159.416Z" fill="white" stroke="#263238" stroke-width="0.4" stroke-linecap="round" stroke-linejoin="round"/>
<path d="M247.562 163.492C247.562 163.571 247.516 163.652 247.392 163.763C247.156 163.97 246.87 164.111 246.563 164.172H239.299C239.222 163.952 239.17 163.724 239.145 163.492H247.562Z" fill="white" stroke="#263238" stroke-width="0.4" stroke-linecap="round" stroke-linejoin="round"/>
<path d="M235.678 96.0977L233.721 97.7676L234.073 120.841H242.531C242.531 120.841 242.934 97.2605 242.784 96.9064C242.634 96.5523 241.727 96.1982 241.727 96.1982L235.678 96.0977Z" fill="white" stroke="#263238" stroke-width="0.4" stroke-linecap="round" stroke-linejoin="round"/>
<path d="M250.024 106.151L253.388 107.087C253.388 107.087 249.98 100.805 249.36 99.2987C248.875 98.1227 248.273 97.7686 248.023 97.6746C246.733 96.8375 241.728 96.1992 241.728 96.1992L241.337 107.72L240.739 126.842H247.857C247.857 126.842 247.257 120.09 246.926 117.95L246.459 114.94C246.459 114.94 247.035 110.35 247.546 105.954L250.024 106.151Z" fill="#FF9500" stroke="#263238" stroke-width="0.4" stroke-linecap="round" stroke-linejoin="round"/>
<path d="M242.514 110.693C242.294 111.272 242.017 111.827 241.688 112.35" stroke="#263238" stroke-width="0.4" stroke-linecap="round" stroke-linejoin="round"/>
<path d="M242.777 96.9062L243.96 99.5532L242.988 100.613L244.528 102.487C244.528 102.487 243.927 106.567 242.868 109.728" stroke="#263238" stroke-width="0.4" stroke-linecap="round" stroke-linejoin="round"/>
<path d="M235.099 90.5029C235.099 90.5029 234.467 89.6286 234.012 90.2559C233.557 90.8832 235.278 93.0493 235.278 93.0493L235.099 90.5029Z" fill="white" stroke="#263238" stroke-width="0.4" stroke-linecap="round" stroke-linejoin="round"/>
<path d="M242.418 90.5029C242.418 90.5029 243.051 89.6286 243.506 90.2559C243.96 90.8832 242.24 93.0493 242.24 93.0493L242.418 90.5029Z" fill="white" stroke="#263238" stroke-width="0.4" stroke-linecap="round" stroke-linejoin="round"/>
<path d="M234.958 90.0077C234.958 90.0077 235.345 94.0732 235.417 94.7814C235.489 95.4896 235.732 97.0087 236.015 97.5377C236.298 98.0667 238.231 100.049 238.758 99.8371C239.284 99.6251 241.115 97.7148 241.609 97.1486C242.103 96.5825 241.924 95.5574 241.996 95.3104C242.068 95.0634 242.346 92.6241 242.346 92.6241L242.514 90.0492C242.514 90.0492 242.585 89.8022 242.479 88.211C242.372 86.6197 242.375 85.9115 242.198 85.5225C242.022 85.1334 241.565 84.9214 240.754 84.7094C239.943 84.4973 238.012 84.5345 236.815 85.1356C235.619 85.7367 235.021 86.5848 234.986 86.9017C234.951 87.2186 234.958 90.0077 234.958 90.0077Z" fill="white" stroke="#263238" stroke-width="0.4" stroke-linecap="round" stroke-linejoin="round"/>
<path d="M238.197 88.8408C238.197 88.8408 237.109 88.1326 236.507 89.0594" stroke="#263238" stroke-width="0.4" stroke-linecap="round" stroke-linejoin="round"/>
<path d="M239.708 88.9109C239.939 88.77 240.21 88.7108 240.478 88.7429C240.746 88.775 240.996 88.8965 241.187 89.088" stroke="#263238" stroke-width="0.4" stroke-linecap="round" stroke-linejoin="round"/>
<path d="M239.392 89.2656C239.537 89.5338 239.612 89.8347 239.61 90.1399C239.645 90.776 239.538 92.0831 239.538 92.0831L238.203 91.941" stroke="#263238" stroke-width="0.4" stroke-linecap="round" stroke-linejoin="round"/>
<path d="M237.492 92.4121C237.492 92.4121 238.16 93.505 239.85 92.9411" stroke="#263238" stroke-width="0.4" stroke-linecap="round" stroke-linejoin="round"/>
<path d="M237.703 89.8833C237.703 90.0888 237.609 90.2549 237.485 90.2549C237.361 90.2549 237.268 90.0888 237.268 89.8833C237.268 89.6778 237.363 89.5117 237.485 89.5117C237.607 89.5117 237.703 89.6778 237.703 89.8833Z" fill="#263238"/>
<path d="M240.694 89.8833C240.694 90.0888 240.6 90.2549 240.476 90.2549C240.352 90.2549 240.259 90.0888 240.259 89.8833C240.259 89.6778 240.352 89.5117 240.476 89.5117C240.6 89.5117 240.694 89.6778 240.694 89.8833Z" fill="#263238"/>
<path d="M237.986 90.3633C237.707 90.6279 237.369 90.8213 237 90.9272" stroke="#263238" stroke-width="0.4" stroke-linecap="round" stroke-linejoin="round"/>
<path d="M240.061 90.3633C240.061 90.3633 240.482 90.8573 240.976 90.9272" stroke="#263238" stroke-width="0.4" stroke-linecap="round" stroke-linejoin="round"/>
<path d="M237.527 95.8066C237.527 95.8066 238.197 96.6198 240.061 95.8416" stroke="#263238" stroke-width="0.4" stroke-linecap="round" stroke-linejoin="round"/>
<path d="M234.573 86.6841C234.573 86.6841 234.678 90.2557 234.791 90.3256C234.904 90.3956 235.213 90.4677 235.282 90.2207C235.326 89.8332 235.337 89.4429 235.317 89.0535C235.317 89.0535 235.669 89.0185 235.739 88.4524C235.809 87.8863 235.493 86.8961 235.493 86.8961C235.493 86.8961 236.759 85.9781 237.955 85.624C239.151 85.2699 239.787 85.801 240.524 85.8426C240.957 85.8673 241.384 85.7285 241.72 85.4535C241.72 85.4535 241.368 85.9846 241.368 86.2316C241.368 86.4786 241.827 87.7879 241.755 88.177C241.683 88.5661 241.616 88.9901 241.827 89.13C242.038 89.2699 242.283 89.4491 242.283 89.4491C242.283 89.4491 242.283 90.4043 242.425 90.4742C242.566 90.5442 242.812 90.1573 242.847 89.6262C242.882 89.095 242.882 87.8229 243.064 87.4404C243.247 87.0579 243.521 86.7693 243.31 86.2032C243.099 85.6371 242.36 85.1431 242.255 85.1103C242.151 85.0776 240.813 83.3442 239.088 82.9246C237.364 82.5049 234.621 84.977 234.338 85.7551C234.056 86.5333 234.573 86.6841 234.573 86.6841Z" fill="#263238" stroke="#263238" stroke-width="0.4" stroke-linecap="round" stroke-linejoin="round"/>
<path d="M219.048 99.2314C218.849 98.7342 218.687 98.2227 218.563 97.7013C218.487 97.2139 217.889 96.4249 217.293 96.1997C216.649 95.9498 216.073 95.5506 215.612 95.0347C215.088 94.4729 214.79 94.285 214.714 94.8467C214.638 95.4085 215.014 95.6729 215.388 96.0117C215.762 96.3505 216.134 96.65 216.134 96.65C215.759 96.7721 215.37 96.8456 214.977 96.8686C214.287 96.9028 213.595 96.8395 212.922 96.6806C212.361 96.5298 210.418 95.1046 210.605 95.6664C210.792 96.2281 211.726 96.9429 212.474 97.6576C213.222 98.3724 213.707 98.7505 214.566 99.0084C215.425 99.2664 216.806 99.6095 216.806 99.6095L217.591 100.661L219.048 99.2314Z" fill="white" stroke="#263238" stroke-width="0.4" stroke-linecap="round" stroke-linejoin="round"/>
<path d="M213.259 98.2187C213.259 98.2187 212.063 97.3181 211.876 96.3039C211.688 95.2897 211.765 94.916 212.026 95.0646C212.287 95.2132 212.922 96.6799 212.922 96.6799L214.042 97.9192" fill="white"/>
<path d="M213.259 98.2187C213.259 98.2187 212.063 97.3181 211.876 96.3039C211.688 95.2897 211.765 94.916 212.026 95.0646C212.287 95.2132 212.922 96.6799 212.922 96.6799L214.042 97.9192" stroke="#263238" stroke-width="0.4" stroke-linecap="round" stroke-linejoin="round"/>
<path d="M214.266 98.7088C214.266 98.7088 213.146 98.0312 213.035 97.3558C212.924 96.6804 212.661 94.6913 212.922 94.8399C213.183 94.9886 213.707 97.0935 213.707 97.0935L214.342 97.6574" fill="white"/>
<path d="M214.266 98.7088C214.266 98.7088 213.146 98.0312 213.035 97.3558C212.924 96.6804 212.661 94.6913 212.922 94.8399C213.183 94.9886 213.707 97.0935 213.707 97.0935L214.342 97.6574" stroke="#263238" stroke-width="0.4" stroke-linecap="round" stroke-linejoin="round"/>
<path d="M214.892 98.7458C214.892 98.7458 214.22 97.4344 214.07 97.0191C213.92 96.6038 213.585 94.8792 213.922 94.9535C214.259 95.0278 214.557 96.7546 214.557 96.7546L215.416 97.8475C215.416 97.8475 216.61 97.4715 216.939 97.5458C217.267 97.6202 217.687 98.2977 217.687 98.2977" fill="white"/>
<path d="M214.892 98.7458C214.892 98.7458 214.22 97.4344 214.07 97.0191C213.92 96.6038 213.585 94.8792 213.922 94.9535C214.259 95.0278 214.557 96.7546 214.557 96.7546L215.416 97.8475C215.416 97.8475 216.61 97.4715 216.939 97.5458C217.267 97.6202 217.687 98.2977 217.687 98.2977" stroke="#263238" stroke-width="0.4" stroke-linecap="round" stroke-linejoin="round"/>
<path d="M219.936 99.8269L219.043 98.9941L216.835 101.309L217.483 102.164L219.936 99.8269Z" fill="white" stroke="#263238" stroke-width="0.4" stroke-linecap="round" stroke-linejoin="round"/>
<path d="M235.678 96.0977C235.678 96.0977 234.921 102.117 234.821 105.56C234.721 109.003 235.073 127.066 235.073 127.066L228.377 126.863C228.377 126.863 229.131 120.487 229.682 118.159C230.06 116.364 230.195 114.526 230.084 112.694C230.034 112.39 229.682 109.608 229.682 109.608C229.682 109.608 225.904 112.137 225.451 112.087C224.999 112.036 222.38 110.119 220.366 107.584C219.086 105.921 218.051 104.08 217.295 102.119L219.677 99.3851L225.317 105.053C225.317 105.053 228.235 99.1337 228.538 98.9807C228.84 98.8277 235.678 96.0977 235.678 96.0977Z" fill="#FF9500" stroke="#263238" stroke-width="0.4" stroke-linecap="round" stroke-linejoin="round"/>
<path d="M232.896 106.502C233.263 108.463 233.788 110.391 234.467 112.266" stroke="#263238" stroke-width="0.4" stroke-linecap="round" stroke-linejoin="round"/>
<path d="M234.392 97.1074L233.174 100.205L234.149 101.02L232.446 102.812C232.486 103.736 232.583 104.657 232.737 105.569" stroke="#263238" stroke-width="0.4" stroke-linecap="round" stroke-linejoin="round"/>
<path d="M229.533 108.797C229.533 108.797 228.526 104.345 228.229 102.574L229.533 108.797Z" fill="white"/>
<path d="M229.533 108.797C229.533 108.797 228.526 104.345 228.229 102.574" stroke="#263238" stroke-width="0.4" stroke-linecap="round" stroke-linejoin="round"/>
<path d="M235.569 99.5371L236.428 102.07L238.759 99.8387L240.61 102.243L241.422 100.081" fill="white"/>
<path d="M235.569 99.5371L236.428 102.07L238.759 99.8387L240.61 102.243L241.422 100.081" stroke="#263238" stroke-width="0.4" stroke-linecap="round" stroke-linejoin="round"/>
<path d="M239.655 101.147L238.603 103.036L237.394 101.134L238.759 99.8379L239.655 101.147Z" fill="#263238" stroke="#263238" stroke-width="0.4" stroke-linecap="round" stroke-linejoin="round"/>
<path d="M238.603 103.035L236.258 118.812L238.348 120.502L239.98 118.762L238.603 103.035Z" fill="#263238" stroke="#263238" stroke-width="0.4" stroke-linecap="round" stroke-linejoin="round"/>
<path d="M247.919 96.6287C249.59 96.2295 250.623 94.5444 250.225 92.8649C249.828 91.1855 248.152 90.1476 246.48 90.5468C244.809 90.9459 243.777 92.631 244.174 94.3105C244.571 95.99 246.248 97.0278 247.919 96.6287Z" fill="white" stroke="#263238" stroke-width="0.4" stroke-linecap="round" stroke-linejoin="round"/>
<path d="M245.156 97.6094C245.156 97.6094 245.05 99.0083 245.13 99.2772C245.211 99.5461 245.783 100.621 245.783 100.621C245.783 100.621 245.702 101.376 245.835 101.618C245.968 101.861 247.253 103.393 247.253 103.393L248.775 102.047L247.912 100.324L247.886 98.0925C247.886 98.0925 246.211 96.6433 245.156 97.6094Z" fill="white" stroke="#263238" stroke-width="0.4" stroke-linecap="round" stroke-linejoin="round"/>
<path d="M245.913 96.0654L246.383 99.9452C246.409 100.143 246.511 100.322 246.667 100.444C246.823 100.567 247.021 100.623 247.218 100.601C247.408 100.58 247.582 100.487 247.707 100.342C247.831 100.197 247.897 100.01 247.89 99.8184L247.755 95.8556C247.755 95.8556 246.594 94.9791 245.913 96.0654Z" fill="white" stroke="#263238" stroke-width="0.4" stroke-linecap="round" stroke-linejoin="round"/>
<path d="M245.994 96.9121C245.994 96.9121 244.993 97.0323 244.993 97.3493C244.993 97.6662 245.352 99.1197 245.672 99.2006C245.991 99.2815 246.233 99.2815 246.233 98.6367C246.2 98.0562 246.12 97.4794 245.994 96.9121Z" fill="white" stroke="#263238" stroke-width="0.4" stroke-linecap="round" stroke-linejoin="round"/>
<path d="M248.355 97.998C248.355 97.998 246.033 98.1991 245.993 98.4352C245.954 98.6713 246.033 99.2811 246.193 99.2811C246.354 99.2811 248.434 99.2964 248.475 99.0625C248.516 98.8286 248.636 98.3194 248.355 97.998Z" fill="white" stroke="#263238" stroke-width="0.4" stroke-linecap="round" stroke-linejoin="round"/>
<path d="M248.284 99.1309C248.284 99.1309 246.216 99.2467 246.172 99.4609C246.129 99.6751 246.185 100.213 246.329 100.217C246.472 100.222 248.319 100.292 248.362 100.088C248.406 99.885 248.525 99.4238 248.284 99.1309Z" fill="white" stroke="#263238" stroke-width="0.4" stroke-linecap="round" stroke-linejoin="round"/>
<path d="M248.001 100.141C248.001 100.141 246.287 100.237 246.261 100.414C246.235 100.591 246.272 101.037 246.392 101.041C246.511 101.046 248.038 101.102 248.073 100.934C248.108 100.766 248.201 100.383 248.001 100.141Z" fill="white" stroke="#263238" stroke-width="0.4" stroke-linecap="round" stroke-linejoin="round"/>
<path d="M248.194 96.9512C248.194 96.9512 245.871 97.1523 245.832 97.3883C245.793 97.6244 245.871 98.232 246.032 98.232C246.193 98.232 248.272 98.2495 248.314 98.0135C248.355 97.7774 248.475 97.2637 248.194 96.9512Z" fill="white" stroke="#263238" stroke-width="0.4" stroke-linecap="round" stroke-linejoin="round"/>
<path d="M248.738 101.281L248.064 100.934L246.235 103.187L246.985 104.193L248.738 101.281Z" fill="white" stroke="#263238" stroke-width="0.4" stroke-linecap="round" stroke-linejoin="round"/>
<path d="M248.604 100.883C248.604 100.883 247.938 102.441 247.44 102.999C246.942 103.556 246.385 104.057 246.385 104.057C246.385 104.057 248.712 109.571 249.039 110.629C249.365 111.687 250.646 112.411 251.201 112.577C251.755 112.743 253.084 112.299 253.593 111.742C254.102 111.184 254.811 109.403 254.424 108.402C254.037 107.401 248.604 100.883 248.604 100.883Z" fill="#FF9500" stroke="#263238" stroke-width="0.4" stroke-linecap="round" stroke-linejoin="round"/>
<path d="M252.416 97.7349C255.424 96.9524 257.232 93.8672 256.453 90.8439C255.675 87.8205 252.605 86.0039 249.596 86.7864C246.588 87.5688 244.781 90.654 245.559 93.6774C246.338 96.7007 249.408 98.5173 252.416 97.7349Z" fill="#FF9500" stroke="#263238" stroke-width="0.4" stroke-linecap="round" stroke-linejoin="round"/>
<path d="M252.038 96.7469C254.505 96.1736 256.042 93.699 255.472 91.2197C254.902 88.7404 252.439 87.1953 249.972 87.7686C247.505 88.3419 245.968 90.8165 246.538 93.2958C247.109 95.7751 249.571 97.3202 252.038 96.7469Z" fill="#263238" stroke="#263238" stroke-width="0.4" stroke-linecap="round" stroke-linejoin="round"/>
<path d="M250.563 94.3549C251.59 94.3549 252.423 93.5182 252.423 92.486C252.423 91.4539 251.59 90.6172 250.563 90.6172C249.536 90.6172 248.704 91.4539 248.704 92.486C248.704 93.5182 249.536 94.3549 250.563 94.3549Z" fill="white" stroke="#263238" stroke-width="0.4" stroke-linecap="round" stroke-linejoin="round"/>
<path d="M252.031 92.2643C252.032 92.0602 251.972 91.8605 251.859 91.6906C251.747 91.5206 251.586 91.3881 251.399 91.3096C251.211 91.2312 251.005 91.2105 250.806 91.25C250.606 91.2896 250.423 91.3877 250.279 91.5319C250.136 91.6761 250.038 91.8599 249.998 92.0601C249.958 92.2603 249.978 92.4678 250.056 92.6565C250.134 92.8451 250.265 93.0064 250.434 93.1198C250.603 93.2333 250.801 93.2938 251.005 93.2938C251.276 93.2938 251.537 93.1855 251.73 92.9924C251.922 92.7994 252.031 92.5376 252.031 92.2643Z" fill="#FF9500" stroke="#263238" stroke-width="0.4" stroke-linecap="round" stroke-linejoin="round"/>
</svg>
