<svg width="40" height="40" viewBox="0 0 40 40" fill="none" xmlns="http://www.w3.org/2000/svg">
<rect width="40" height="40" rx="20" fill="#FFF8DD"/>
<path d="M16.2499 29.0004C16.2499 29.2971 16.162 29.5871 15.9971 29.8338C15.8323 30.0804 15.598 30.2727 15.324 30.3862C15.0499 30.4998 14.7483 30.5295 14.4573 30.4716C14.1663 30.4137 13.899 30.2709 13.6893 30.0611C13.4795 29.8513 13.3366 29.584 13.2788 29.2931C13.2209 29.0021 13.2506 28.7005 13.3641 28.4264C13.4776 28.1523 13.6699 27.918 13.9166 27.7532C14.1632 27.5884 14.4533 27.5004 14.7499 27.5004C15.1478 27.5004 15.5293 27.6585 15.8106 27.9398C16.0919 28.2211 16.2499 28.6026 16.2499 29.0004ZM28.2499 27.5004C27.9533 27.5004 27.6632 27.5884 27.4166 27.7532C27.1699 27.918 26.9776 28.1523 26.8641 28.4264C26.7506 28.7005 26.7209 29.0021 26.7788 29.2931C26.8366 29.584 26.9795 29.8513 27.1893 30.0611C27.399 30.2709 27.6663 30.4137 27.9573 30.4716C28.2483 30.5295 28.5499 30.4998 28.824 30.3862C29.098 30.2727 29.3323 30.0804 29.4971 29.8338C29.662 29.5871 29.7499 29.2971 29.7499 29.0004C29.7499 28.6026 29.5919 28.2211 29.3106 27.9398C29.0293 27.6585 28.6478 27.5004 28.2499 27.5004ZM30.4999 24.5004H13.2499V15.0607C13.2506 14.8637 13.212 14.6685 13.1365 14.4864C13.061 14.3044 12.9501 14.1392 12.8102 14.0004L10.7806 11.9698C10.7109 11.9001 10.6281 11.8448 10.5371 11.8071C10.4461 11.7694 10.3485 11.75 10.2499 11.75C10.0509 11.75 9.86003 11.8291 9.7193 11.9698C9.64962 12.0395 9.59435 12.1222 9.55663 12.2132C9.51892 12.3043 9.49951 12.4019 9.49951 12.5004C9.49951 12.6994 9.57857 12.8903 9.7193 13.031L11.7499 15.0607V24.5004H10.9999C10.801 24.5004 10.6103 24.5794 10.4696 24.7201C10.3289 24.8607 10.2499 25.0515 10.2499 25.2504C10.2499 25.4493 10.3289 25.6401 10.4696 25.7807C10.6103 25.9214 10.801 26.0004 10.9999 26.0004H30.4999C30.6988 26.0004 30.8896 25.9214 31.0303 25.7807C31.1709 25.6401 31.2499 25.4493 31.2499 25.2504C31.2499 25.0515 31.1709 24.8607 31.0303 24.7201C30.8896 24.5794 30.6988 24.5004 30.4999 24.5004ZM16.2499 23.0004H28.2499C28.6478 23.0004 29.0293 22.8424 29.3106 22.5611C29.5919 22.2798 29.7499 21.8982 29.7499 21.5004V15.5004C29.7499 15.1026 29.5919 14.7211 29.3106 14.4398C29.0293 14.1585 28.6478 14.0004 28.2499 14.0004H16.2499C15.8521 14.0004 15.4706 14.1585 15.1893 14.4398C14.908 14.7211 14.7499 15.1026 14.7499 15.5004V21.5004C14.7499 21.8982 14.908 22.2798 15.1893 22.5611C15.4706 22.8424 15.8521 23.0004 16.2499 23.0004Z" fill="#FFCC00"/>
</svg>
