<svg width="272" height="240" viewBox="0 0 272 240" fill="none" xmlns="http://www.w3.org/2000/svg">
<path opacity="0.7" d="M71.2739 58.8771C71.2739 58.8771 39.467 86.3221 28.8474 116.1C18.2278 145.878 29.6563 176.009 59.3863 191.451C89.1163 206.892 130.817 190.001 171.237 192.746C211.657 195.492 250.112 179.68 257.07 143.685C264.028 107.689 234.838 104.597 218.962 70.7388C203.086 36.8802 147.58 -2.18478 71.2739 58.8771Z" fill="#FFF0B2"/>
<path d="M250.61 154.545H200.932V194.241H250.61V154.545Z" fill="white" stroke="#263238" stroke-miterlimit="10"/>
<path d="M250.61 174.285H200.932V181.606H250.61V174.285Z" fill="#263238" stroke="#263238" stroke-miterlimit="10"/>
<path d="M228.903 180.246H222.639V194.244H228.903V180.246Z" fill="#263238" stroke="#263238" stroke-miterlimit="10"/>
<path d="M228.218 180.926H223.318V188.931H228.218V180.926Z" fill="white" stroke="#263238" stroke-miterlimit="10"/>
<path d="M251.907 152.807H199.628V170.161H251.907V152.807Z" fill="#FFCC00" stroke="#263238" stroke-miterlimit="10"/>
<path d="M236.945 170.817V158.571L225.337 149.773L214.599 158.571V170.817" fill="white"/>
<path d="M236.945 170.817V158.571L225.337 149.773L214.599 158.571V170.817" stroke="#263238" stroke-miterlimit="10"/>
<path d="M233.143 160.838H218.394V169.947H233.143V160.838Z" fill="white" stroke="#263238" stroke-miterlimit="10"/>
<path d="M231.11 160.838H220.432V169.947H231.11V160.838Z" fill="white" stroke="#263238" stroke-miterlimit="10"/>
<path d="M228.699 160.838H222.844V169.947H228.699V160.838Z" fill="white" stroke="#263238" stroke-miterlimit="10"/>
<path d="M225.505 160.945V169.916" stroke="#263238" stroke-miterlimit="10"/>
<path d="M218.536 162.775H233.055" stroke="#263238" stroke-miterlimit="10"/>
<path d="M218.536 164.568H233.055" stroke="#263238" stroke-miterlimit="10"/>
<path d="M218.536 166.355H233.055" stroke="#263238" stroke-miterlimit="10"/>
<path d="M218.536 168.148H233.055" stroke="#263238" stroke-miterlimit="10"/>
<path d="M233.312 180.246H230.18V194.244H233.312V180.246Z" fill="white" stroke="#263238" stroke-miterlimit="10"/>
<path d="M231.749 180.416V194.21" stroke="#263238" stroke-miterlimit="10"/>
<path d="M230.262 184.932H233.21" stroke="#263238" stroke-miterlimit="10"/>
<path d="M230.262 190.225H233.21" stroke="#263238" stroke-miterlimit="10"/>
<path d="M221.05 180.246H217.918V194.244H221.05V180.246Z" fill="white" stroke="#263238" stroke-miterlimit="10"/>
<path d="M219.487 180.416V194.21" stroke="#263238" stroke-miterlimit="10"/>
<path d="M218 184.932H220.948" stroke="#263238" stroke-miterlimit="10"/>
<path d="M218 190.225H220.948" stroke="#263238" stroke-miterlimit="10"/>
<path d="M246.784 180.078H238.952V190.807H246.784V180.078Z" fill="white" stroke="#263238" stroke-miterlimit="10"/>
<path d="M243.55 180.078H242.186V190.807H243.55V180.078Z" fill="white" stroke="#263238" stroke-miterlimit="10"/>
<path d="M238.993 182.76H246.605" stroke="#263238" stroke-miterlimit="10"/>
<path d="M238.993 185.498H246.605" stroke="#263238" stroke-miterlimit="10"/>
<path d="M238.993 188.236H246.605" stroke="#263238" stroke-miterlimit="10"/>
<path d="M211.87 180.078H204.039V190.807H211.87V180.078Z" fill="white" stroke="#263238" stroke-miterlimit="10"/>
<path d="M208.64 180.078H207.276V190.807H208.64V180.078Z" fill="white" stroke="#263238" stroke-miterlimit="10"/>
<path d="M204.084 182.76H211.697" stroke="#263238" stroke-miterlimit="10"/>
<path d="M204.084 185.498H211.697" stroke="#263238" stroke-miterlimit="10"/>
<path d="M204.084 188.236H211.697" stroke="#263238" stroke-miterlimit="10"/>
<path d="M212.554 160.155L225.337 149.773L238.609 159.812" stroke="#263238" stroke-width="2" stroke-miterlimit="10"/>
<path d="M236.495 192.166H215.053V194.24H236.495V192.166Z" fill="white" stroke="#263238" stroke-miterlimit="10"/>
<path d="M236.495 193.064H215.053V194.245H236.495V193.064Z" fill="white" stroke="#263238" stroke-miterlimit="10"/>
<path d="M216.811 174.795H214.599V194.239H216.811V174.795Z" fill="white" stroke="#263238" stroke-miterlimit="10"/>
<path d="M237.587 174.795H235.375V194.239H237.587V174.795Z" fill="white" stroke="#263238" stroke-miterlimit="10"/>
<path d="M251.907 173.416H199.628V178.407H251.907V173.416Z" fill="#FFCC00" stroke="#263238" stroke-miterlimit="10"/>
<path d="M76.1326 152.797H27.1489V194.245H76.1326V152.797Z" fill="#FFCC00" stroke="#263238" stroke-linecap="round" stroke-linejoin="round"/>
<path d="M76.1326 179.848H27.1489V194.244H76.1326V179.848Z" fill="#263238" stroke="#263238" stroke-linecap="round" stroke-linejoin="round"/>
<path d="M59.4418 164.189H43.8394V194.24H59.4418V164.189Z" fill="white" stroke="#263238" stroke-linecap="round" stroke-linejoin="round"/>
<path d="M57.7921 164.189H44.9434V178.3H57.7921V164.189Z" fill="white" stroke="#263238" stroke-linecap="round" stroke-linejoin="round"/>
<path d="M57.7921 179.229H44.9434V193.339H57.7921V179.229Z" fill="white" stroke="#263238" stroke-linecap="round" stroke-linejoin="round"/>
<path d="M58.9262 178.975C58.9262 179.169 58.8686 179.359 58.7608 179.52C58.6531 179.681 58.4999 179.807 58.3206 179.881C58.1414 179.956 57.9442 179.975 57.7539 179.937C57.5636 179.899 57.3888 179.806 57.2517 179.669C57.1145 179.531 57.0211 179.357 56.9832 179.166C56.9454 178.976 56.9648 178.779 57.039 178.6C57.1133 178.42 57.239 178.267 57.4003 178.159C57.5616 178.052 57.7513 177.994 57.9453 177.994C58.2054 177.994 58.4549 178.097 58.6389 178.281C58.8228 178.465 58.9262 178.715 58.9262 178.975Z" fill="white" stroke="#263238" stroke-linecap="round" stroke-linejoin="round"/>
<path d="M57.5829 168.721L51.8457 174.55" stroke="#263238" stroke-width="0.5" stroke-linecap="round" stroke-linejoin="round"/>
<path d="M53.362 170.27L47.6196 176.094" stroke="#263238" stroke-width="0.5" stroke-linecap="round" stroke-linejoin="round"/>
<path d="M57.5829 182.32L51.8457 188.144" stroke="#263238" stroke-width="0.5" stroke-linecap="round" stroke-linejoin="round"/>
<path d="M53.362 183.863L47.6196 189.692" stroke="#263238" stroke-width="0.5" stroke-linecap="round" stroke-linejoin="round"/>
<path d="M74.9939 164.189H62.7378V182.009H74.9939V164.189Z" fill="white" stroke="#263238" stroke-linecap="round" stroke-linejoin="round"/>
<path d="M73.9614 169.135L68.2241 174.964" stroke="#263238" stroke-width="0.5" stroke-linecap="round" stroke-linejoin="round"/>
<path d="M69.7419 170.682L63.9995 176.506" stroke="#263238" stroke-width="0.5" stroke-linecap="round" stroke-linejoin="round"/>
<path d="M40.2791 164.189H28.0229V182.009H40.2791V164.189Z" fill="white" stroke="#263238" stroke-linecap="round" stroke-linejoin="round"/>
<path d="M38.736 169.135L32.9937 174.964" stroke="#263238" stroke-width="0.5" stroke-linecap="round" stroke-linejoin="round"/>
<path d="M34.5107 170.682L28.7734 176.506" stroke="#263238" stroke-width="0.5" stroke-linecap="round" stroke-linejoin="round"/>
<path d="M25.1572 159.541H30.542V164.18C30.542 164.857 30.2728 165.507 29.7938 165.986C29.3147 166.465 28.665 166.734 27.9875 166.734H27.7525C27.075 166.734 26.4253 166.465 25.9463 165.986C25.4672 165.507 25.1981 164.857 25.1981 164.18V159.541H25.1572Z" fill="#FFCC00"/>
<mask id="mask0_1468_13253" style="mask-type:luminance" maskUnits="userSpaceOnUse" x="25" y="159" width="6" height="8">
<path d="M25.1567 159.539H30.5415V164.178C30.5415 164.855 30.2723 165.505 29.7933 165.984C29.3142 166.463 28.6645 166.732 27.987 166.732H27.752C27.0746 166.732 26.4248 166.463 25.9458 165.984C25.4667 165.505 25.1976 164.855 25.1976 164.178V159.539H25.1567Z" fill="white"/>
</mask>
<g mask="url(#mask0_1468_13253)">
<path opacity="0.3" d="M25.1567 159.539H30.5415V164.178C30.5415 164.855 30.2723 165.505 29.7933 165.984C29.3142 166.463 28.6645 166.732 27.987 166.732H27.752C27.0746 166.732 26.4248 166.463 25.9458 165.984C25.4667 165.505 25.1976 164.855 25.1976 164.178V159.539H25.1567Z" fill="black"/>
</g>
<path d="M25.1572 159.541H30.542V164.18C30.542 164.857 30.2728 165.507 29.7938 165.986C29.3147 166.465 28.665 166.734 27.9875 166.734H27.7525C27.075 166.734 26.4253 166.465 25.9463 165.986C25.4672 165.507 25.1981 164.857 25.1981 164.18V159.541H25.1572Z" stroke="#263238" stroke-linecap="round" stroke-linejoin="round"/>
<path d="M30.4243 159.541H35.8039V164.18C35.8039 164.857 35.5348 165.507 35.0558 165.986C34.5767 166.465 33.927 166.734 33.2495 166.734H33.0145C32.337 166.734 31.6873 166.465 31.2083 165.986C30.7292 165.507 30.4601 164.857 30.4601 164.18V159.541H30.4243Z" fill="#B2B2B2" stroke="#263238" stroke-linecap="round" stroke-linejoin="round"/>
<path d="M35.6851 159.541H41.0698V164.18C41.0698 164.857 40.8007 165.507 40.3216 165.986C39.8426 166.465 39.1928 166.734 38.5154 166.734H38.2599C37.5824 166.734 36.9327 166.465 36.4537 165.986C35.9746 165.507 35.7055 164.857 35.7055 164.18V159.541H35.6851Z" fill="#FFCC00"/>
<mask id="mask1_1468_13253" style="mask-type:luminance" maskUnits="userSpaceOnUse" x="35" y="159" width="7" height="8">
<path d="M35.6841 159.539H41.0688V164.178C41.0688 164.855 40.7997 165.505 40.3206 165.984C39.8416 166.463 39.1919 166.732 38.5144 166.732H38.2589C37.5815 166.732 36.9317 166.463 36.4527 165.984C35.9736 165.505 35.7045 164.855 35.7045 164.178V159.539H35.6841Z" fill="white"/>
</mask>
<g mask="url(#mask1_1468_13253)">
<path opacity="0.3" d="M35.6841 159.539H41.0688V164.178C41.0688 164.855 40.7997 165.505 40.3206 165.984C39.8416 166.463 39.1919 166.732 38.5144 166.732H38.2589C37.5815 166.732 36.9317 166.463 36.4527 165.984C35.9736 165.505 35.7045 164.855 35.7045 164.178V159.539H35.6841Z" fill="black"/>
</g>
<path d="M35.6851 159.541H41.0698V164.18C41.0698 164.857 40.8007 165.507 40.3216 165.986C39.8426 166.465 39.1928 166.734 38.5154 166.734H38.2599C37.5824 166.734 36.9327 166.465 36.4537 165.986C35.9746 165.507 35.7055 164.857 35.7055 164.18V159.541H35.6851Z" stroke="#263238" stroke-linecap="round" stroke-linejoin="round"/>
<path d="M40.9536 159.541H46.3332V164.18C46.3332 164.857 46.0641 165.507 45.5851 165.986C45.106 166.465 44.4563 166.734 43.7788 166.734H43.5234C42.8459 166.734 42.1962 166.465 41.7171 165.986C41.2381 165.507 40.9689 164.857 40.9689 164.18V159.541H40.9536Z" fill="#B2B2B2" stroke="#263238" stroke-linecap="round" stroke-linejoin="round"/>
<path d="M46.2158 159.541H51.6005V164.18C51.6005 164.857 51.3314 165.507 50.8524 165.986C50.3733 166.465 49.7236 166.734 49.0461 166.734H48.8111C48.1336 166.734 47.4839 166.465 47.0049 165.986C46.5258 165.507 46.2567 164.857 46.2567 164.18V159.541H46.2158Z" fill="#FFCC00"/>
<mask id="mask2_1468_13253" style="mask-type:luminance" maskUnits="userSpaceOnUse" x="46" y="159" width="6" height="8">
<path d="M46.2153 159.539H51.6001V164.178C51.6001 164.855 51.3309 165.505 50.8519 165.984C50.3728 166.463 49.7231 166.732 49.0456 166.732H48.8106C48.1332 166.732 47.4834 166.463 47.0044 165.984C46.5253 165.505 46.2562 164.855 46.2562 164.178V159.539H46.2153Z" fill="white"/>
</mask>
<g mask="url(#mask2_1468_13253)">
<path opacity="0.3" d="M46.2153 159.539H51.6001V164.178C51.6001 164.855 51.3309 165.505 50.8519 165.984C50.3728 166.463 49.7231 166.732 49.0456 166.732H48.8106C48.1332 166.732 47.4834 166.463 47.0044 165.984C46.5253 165.505 46.2562 164.855 46.2562 164.178V159.539H46.2153Z" fill="black"/>
</g>
<path d="M46.2158 159.541H51.6005V164.18C51.6005 164.857 51.3314 165.507 50.8524 165.986C50.3733 166.465 49.7236 166.734 49.0461 166.734H48.8111C48.1336 166.734 47.4839 166.465 47.0049 165.986C46.5258 165.507 46.2567 164.857 46.2567 164.18V159.541H46.2158Z" stroke="#263238" stroke-linecap="round" stroke-linejoin="round"/>
<path d="M51.478 159.541H56.8628V164.18C56.8628 164.857 56.5936 165.507 56.1146 165.986C55.6355 166.465 54.9858 166.734 54.3083 166.734H54.0733C53.3958 166.734 52.7461 166.465 52.2671 165.986C51.788 165.507 51.5189 164.857 51.5189 164.18V159.541H51.478Z" fill="#B2B2B2" stroke="#263238" stroke-linecap="round" stroke-linejoin="round"/>
<path d="M56.7451 159.541H62.1298V164.18C62.1298 164.857 61.8607 165.507 61.3817 165.986C60.9026 166.465 60.2529 166.734 59.5754 166.734H59.3404C58.6629 166.734 58.0132 166.465 57.5342 165.986C57.0551 165.507 56.786 164.857 56.786 164.18V159.541H56.7451Z" fill="#FFCC00"/>
<mask id="mask3_1468_13253" style="mask-type:luminance" maskUnits="userSpaceOnUse" x="56" y="159" width="7" height="8">
<path d="M56.7451 159.539H62.1298V164.178C62.1298 164.855 61.8607 165.505 61.3817 165.984C60.9026 166.463 60.2529 166.732 59.5754 166.732H59.3404C58.6629 166.732 58.0132 166.463 57.5342 165.984C57.0551 165.505 56.786 164.855 56.786 164.178V159.539H56.7451Z" fill="white"/>
</mask>
<g mask="url(#mask3_1468_13253)">
<path opacity="0.3" d="M56.7451 159.539H62.1298V164.178C62.1298 164.855 61.8607 165.505 61.3817 165.984C60.9026 166.463 60.2529 166.732 59.5754 166.732H59.3404C58.6629 166.732 58.0132 166.463 57.5342 165.984C57.0551 165.505 56.786 164.855 56.786 164.178V159.539H56.7451Z" fill="black"/>
</g>
<path d="M56.7451 159.541H62.1298V164.18C62.1298 164.857 61.8607 165.507 61.3817 165.986C60.9026 166.465 60.2529 166.734 59.5754 166.734H59.3404C58.6629 166.734 58.0132 166.465 57.5342 165.986C57.0551 165.507 56.786 164.857 56.786 164.18V159.541H56.7451Z" stroke="#263238" stroke-linecap="round" stroke-linejoin="round"/>
<path d="M62.0063 159.541H67.3911V164.185C67.3911 164.862 67.1219 165.512 66.6429 165.991C66.1639 166.47 65.5141 166.739 64.8367 166.739H64.6016C63.9242 166.739 63.2744 166.47 62.7954 165.991C62.3163 165.512 62.0472 164.862 62.0472 164.185V159.541H62.0063Z" fill="#B2B2B2" stroke="#263238" stroke-linecap="round" stroke-linejoin="round"/>
<path d="M67.2793 159.541H72.664V164.185C72.664 164.862 72.3949 165.512 71.9158 165.991C71.4368 166.47 70.7871 166.739 70.1096 166.739H69.8337C69.1562 166.739 68.5065 166.47 68.0275 165.991C67.5484 165.512 67.2793 164.862 67.2793 164.185V159.546V159.541Z" fill="#FFCC00"/>
<mask id="mask4_1468_13253" style="mask-type:luminance" maskUnits="userSpaceOnUse" x="67" y="159" width="6" height="8">
<path d="M67.2788 159.539H72.6635V164.183C72.6635 164.86 72.3944 165.51 71.9154 165.989C71.4363 166.468 70.7866 166.737 70.1091 166.737H69.8332C69.1558 166.737 68.506 166.468 68.027 165.989C67.5479 165.51 67.2788 164.86 67.2788 164.183V159.544V159.539Z" fill="white"/>
</mask>
<g mask="url(#mask4_1468_13253)">
<path opacity="0.3" d="M67.2788 159.539H72.6635V164.183C72.6635 164.86 72.3944 165.51 71.9154 165.989C71.4363 166.468 70.7866 166.737 70.1091 166.737H69.8332C69.1558 166.737 68.506 166.468 68.027 165.989C67.5479 165.51 67.2788 164.86 67.2788 164.183V159.544V159.539Z" fill="black"/>
</g>
<path d="M67.2793 159.541H72.664V164.185C72.664 164.862 72.3949 165.512 71.9158 165.991C71.4368 166.47 70.7871 166.739 70.1096 166.739H69.8337C69.1562 166.739 68.5065 166.47 68.0275 165.991C67.5484 165.512 67.2793 164.862 67.2793 164.185V159.546V159.541Z" stroke="#263238" stroke-linecap="round" stroke-linejoin="round"/>
<path d="M72.5366 159.54H77.9213V164.179C77.9213 164.857 77.6522 165.506 77.1732 165.985C76.6941 166.464 76.0444 166.734 75.3669 166.734H75.1319C74.4544 166.734 73.8047 166.464 73.3257 165.985C72.8466 165.506 72.5775 164.857 72.5775 164.179V159.535L72.5366 159.54Z" fill="#B2B2B2" stroke="#263238" stroke-linecap="round" stroke-linejoin="round"/>
<path d="M30.542 152.664H25.1572V159.878H30.542V152.664Z" fill="#FFCC00" stroke="#263238" stroke-linecap="round" stroke-linejoin="round"/>
<path d="M35.809 152.664H30.4243V159.878H35.809V152.664Z" fill="white" stroke="#263238" stroke-linecap="round" stroke-linejoin="round"/>
<path d="M41.0698 152.664H35.6851V159.878H41.0698V152.664Z" fill="#FFCC00" stroke="#263238" stroke-linecap="round" stroke-linejoin="round"/>
<path d="M46.3383 152.664H40.9536V159.878H46.3383V152.664Z" fill="white" stroke="#263238" stroke-linecap="round" stroke-linejoin="round"/>
<path d="M51.6005 152.664H46.2158V159.878H51.6005V152.664Z" fill="#FFCC00" stroke="#263238" stroke-linecap="round" stroke-linejoin="round"/>
<path d="M56.8628 152.664H51.478V159.878H56.8628V152.664Z" fill="white" stroke="#263238" stroke-linecap="round" stroke-linejoin="round"/>
<path d="M62.1298 152.664H56.7451V159.878H62.1298V152.664Z" fill="#FFCC00" stroke="#263238" stroke-linecap="round" stroke-linejoin="round"/>
<path d="M67.3911 152.664H62.0063V159.878H67.3911V152.664Z" fill="white" stroke="#263238" stroke-linecap="round" stroke-linejoin="round"/>
<path d="M72.6591 152.664H67.2744V159.878H72.6591V152.664Z" fill="#FFCC00" stroke="#263238" stroke-linecap="round" stroke-linejoin="round"/>
<path d="M77.9213 152.664H72.5366V159.878H77.9213V152.664Z" fill="white" stroke="#263238" stroke-linecap="round" stroke-linejoin="round"/>
<path d="M107.425 92.7309L119.19 84.3779L111.64 71.616L71.3307 63.5645L67.1108 84.6793L107.425 92.7309Z" fill="white" stroke="#263238" stroke-miterlimit="10"/>
<path d="M76.5626 70.8383L77.8909 71.104L77.7019 72.0389L76.3736 71.7732L75.8269 74.4758L74.8052 74.2715L76.1233 67.7168L78.8463 68.2686L78.6572 69.2035L76.9662 68.8612L76.5626 70.8383Z" fill="#263238"/>
<path d="M80.3216 75.392C80.2883 75.1145 80.3108 74.833 80.388 74.5644L80.5975 73.5426C80.7201 72.9346 80.5566 72.669 80.0866 72.5719L79.7289 72.5004L79.2181 75.1672L78.1963 74.9629L79.5144 68.4082L81.047 68.7198C82.1148 68.9344 82.4724 69.527 82.268 70.5335L82.1659 71.0444C82.0279 71.7187 81.7265 72.1172 81.2258 72.2398C81.6959 72.5566 81.7623 73.0879 81.6243 73.7725L81.4251 74.7943C81.3512 75.0602 81.3338 75.3386 81.374 75.6117L80.3216 75.392ZM80.3216 69.5475L79.9129 71.5604L80.3165 71.6421C80.6996 71.7187 80.9653 71.5961 81.0726 71.075L81.2054 70.4262C81.2974 69.9562 81.1799 69.7212 80.8171 69.6445L80.3216 69.5475Z" fill="#263238"/>
<path d="M83.8782 72.1577L85.2882 72.4438L85.0992 73.3787L83.6892 73.0977L83.3009 75.0135L85.0788 75.3712L84.8898 76.3112L82.0952 75.7441L83.4133 69.1895L86.2232 69.7565L86.0341 70.6915L84.2563 70.3338L83.8782 72.1577Z" fill="#263238"/>
<path d="M87.4697 72.8828L88.8848 73.1689L88.6958 74.1038L87.2807 73.8177L86.8975 75.7386L88.6754 76.0962L88.4864 77.0311L85.6714 76.459L86.9895 69.9043L89.7942 70.4714L89.6103 71.4063L87.8273 71.0487L87.4697 72.8828Z" fill="#263238"/>
<path d="M75.8053 76.4593C76.827 76.6585 77.2 77.3636 76.9854 78.4109L76.9445 78.6152L75.9739 78.4211L76.0301 78.1503C76.122 77.6803 75.9688 77.4657 75.6418 77.3993C75.3148 77.3329 75.09 77.476 74.9981 77.9409C74.7273 79.2896 76.6891 79.9486 76.311 81.8185C76.1016 82.8709 75.4528 83.3511 74.4412 83.157C73.4296 82.9629 73.0312 82.2527 73.2406 81.2003L73.3224 80.8018L74.293 80.996L74.2011 81.466C74.1091 81.9309 74.2777 82.1403 74.6047 82.2068C74.9317 82.2732 75.1718 82.1454 75.2688 81.6959C75.5396 80.3471 73.5778 79.6881 73.9559 77.8131C74.1653 76.7352 74.7988 76.2396 75.8053 76.4593Z" fill="#263238"/>
<path d="M77.7635 83.7348L76.7417 83.5254L78.0547 76.9707L79.0764 77.1751L78.5094 79.9849L79.6793 80.2199L80.2464 77.4101L81.2681 77.6246L79.9501 84.1742L78.9027 83.9647L79.4647 81.1549L78.2948 80.9198L77.7635 83.7348Z" fill="#263238"/>
<path d="M82.2016 77.8086L83.2234 78.0181L81.9002 84.5676L80.8784 84.3632L82.2016 77.8086Z" fill="#263238"/>
<path d="M86.8562 80.4279L86.6876 81.2811C86.473 82.3284 85.8548 82.8137 84.8228 82.594L84.312 82.497L83.8011 84.9543L82.7793 84.75L84.1383 78.1953L85.6709 78.5018C86.6927 78.7113 87.0656 79.3806 86.8562 80.4279ZM84.971 79.3397L84.5265 81.5569L85.0374 81.654C85.3644 81.7204 85.5483 81.608 85.6709 81.1431L85.865 80.1622C85.9621 79.6922 85.814 79.5083 85.487 79.4419L84.971 79.3397Z" fill="#263238"/>
<path d="M90.5347 81.1752L90.3661 82.0232C90.1516 83.0706 89.5334 83.5559 88.5014 83.3362L88.0161 83.2391L87.5052 85.6965L86.4834 85.4921L87.8015 78.9375L89.3341 79.244C90.3559 79.4535 90.7493 80.1227 90.5347 81.1752ZM88.6547 80.0819L88.2051 82.2991L88.6904 82.4013C89.0225 82.4626 89.2268 82.3502 89.3239 81.8904L89.5181 80.9095C89.6151 80.4395 89.467 80.2556 89.14 80.1892L88.6547 80.0819Z" fill="#263238"/>
<path d="M91.4904 79.6777L92.5122 79.8872L91.1941 86.4418L90.1724 86.2324L91.4904 79.6777Z" fill="#263238"/>
<path d="M93.9733 82.0784L93.018 86.8245L92.0933 86.6406L93.4113 80.0859L94.7039 80.3465L94.9695 84.4795L95.7614 80.5611L96.6759 80.745L95.3782 87.2741L94.3207 87.0646L93.9733 82.0784Z" fill="#263238"/>
<path d="M98.5303 84.1229L99.971 84.409L99.5521 86.4883C99.3426 87.5407 98.6938 88.0209 97.6823 87.8268C96.6707 87.6327 96.2671 86.9174 96.4817 85.8701L97.1663 82.4625C97.3757 81.4152 98.0246 80.9298 99.0361 81.124C100.048 81.3181 100.451 82.0334 100.237 83.0807L100.109 83.7193L99.1383 83.5251L99.2762 82.8201C99.3733 82.3501 99.1996 82.1355 98.8726 82.0691C98.5457 82.0027 98.3055 82.1355 98.2085 82.6055L97.4984 86.1664C97.4013 86.6313 97.575 86.8408 97.902 86.9072C98.2289 86.9736 98.469 86.8459 98.5661 86.3963L98.8062 85.1855L98.3413 85.0936L98.5303 84.1229Z" fill="#263238"/>
<path d="M119.191 84.3773C119.191 84.3773 120.616 88.8782 127.059 88.8782C133.501 88.8782 132.724 84.4999 145.348 83.4679C157.972 82.4359 165.446 95.5759 165.446 95.5759" stroke="#263238" stroke-miterlimit="10"/>
<path d="M174.56 117.334H103.634V163.329H174.56V117.334Z" fill="#FFCC00" stroke="#263238" stroke-linecap="round" stroke-linejoin="round"/>
<path d="M174.56 117.334H103.634L115.241 95.6934H186.167L174.56 117.334Z" fill="#FFCC00" stroke="#263238" stroke-linecap="round" stroke-linejoin="round"/>
<path d="M109.826 106.254H110.337" stroke="#263238" stroke-miterlimit="10"/>
<path d="M111.344 106.254H179.532" stroke="#263238" stroke-miterlimit="10" stroke-dasharray="1.98 1.98"/>
<path d="M180.037 106.254H180.548" stroke="#263238" stroke-miterlimit="10"/>
<path d="M186.168 95.6934V140.948L174.561 163.335V117.334L186.168 95.6934Z" fill="#FFCC00"/>
<mask id="mask5_1468_13253" style="mask-type:luminance" maskUnits="userSpaceOnUse" x="174" y="95" width="13" height="69">
<path d="M186.168 95.6934V140.948L174.561 163.335V117.334L186.168 95.6934Z" fill="white"/>
</mask>
<g mask="url(#mask5_1468_13253)">
<path opacity="0.2" d="M186.168 95.6934V140.948L174.561 163.335V117.334L186.168 95.6934Z" fill="black"/>
</g>
<path d="M186.168 95.6934V140.948L174.561 163.335V117.334L186.168 95.6934Z" stroke="#263238" stroke-linecap="round" stroke-linejoin="round"/>
<path d="M132.458 117.334H142.594L153.491 95.6934H143.36L132.458 117.334Z" fill="white" stroke="#263238" stroke-miterlimit="10"/>
<path d="M142.665 136.523L137.689 132.931L132.458 136.523V117.334H142.665V136.523Z" fill="white" stroke="#263238" stroke-miterlimit="10"/>
<path d="M100.007 96.0918H96.6558" stroke="#263238" stroke-miterlimit="10"/>
<path d="M112.63 96.0918H102.581" stroke="#263238" stroke-miterlimit="10"/>
<path d="M102.582 116.961H86.6118" stroke="#263238" stroke-miterlimit="10"/>
<path d="M88.9261 137.57H86.6118" stroke="#263238" stroke-miterlimit="10"/>
<path d="M102.581 137.57H91.5049" stroke="#263238" stroke-miterlimit="10"/>
<path d="M102.581 125.979H94.8511" stroke="#263238" stroke-miterlimit="10"/>
<path d="M110.056 102.535H102.326" stroke="#263238" stroke-miterlimit="10"/>
<path d="M102.581 154.574H94.8511" stroke="#263238" stroke-miterlimit="10"/>
</svg>
