<svg width="69" height="69" viewBox="0 0 69 69" fill="none" xmlns="http://www.w3.org/2000/svg">
<rect width="69" height="69" rx="34.5" fill="#F5F5F5"/>
<path d="M21.1826 41.0212L27.5321 34.4106H40.943L47.9384 41.0212H21.1826Z" fill="#078634"/>
<path opacity="0.1" d="M27.5321 34.2661L35.4171 41.3172L21.1826 40.8767L27.5321 34.2661Z" fill="black"/>
<path d="M44.8133 41.8149H21.0381V50.3998H44.8133V41.8149Z" fill="#078634"/>
<path opacity="0.8" d="M44.8133 41.8149H21.0381V50.3998H44.8133V41.8149Z" fill="white"/>
<path opacity="0.05" d="M35.0462 41.8149H21.0381V50.3998H35.0462V41.8149Z" fill="black"/>
<path d="M43.9932 43.0376H30.3037V48.0952H43.9932V43.0376Z" fill="#078634"/>
<path opacity="0.1" d="M30.3037 43.0376V48.0952H43.9915V43.0376H30.3037ZM43.4361 47.6182H30.7895V43.5999H43.4361V47.6182Z" fill="white"/>
<path opacity="0.1" d="M35.4728 43.0376H30.3037V48.0952H35.4728V43.0376Z" fill="black"/>
<path d="M42.8432 43.6001H31.248V47.5313H42.8432V43.6001Z" fill="#078634"/>
<path opacity="0.5" d="M42.8449 43.6021H31.248V47.5332H42.8449V43.6021Z" fill="white"/>
<path opacity="0.05" d="M35.1061 43.6001H31.248V47.5313H35.1061V43.6001Z" fill="black"/>
<path opacity="0.3" d="M34.435 43.6021L33.3816 47.5332H31.9453L32.9986 43.6021H34.435Z" fill="white"/>
<path opacity="0.3" d="M42.8452 43.6021V47.0423L42.7129 47.5332H41.2783L42.3299 43.6021H42.8452Z" fill="white"/>
<path opacity="0.3" d="M35.2882 43.6021L34.2366 47.5332H33.8223L34.8738 43.6021H35.2882Z" fill="white"/>
<path opacity="0.3" d="M41.9236 43.6021L40.8703 47.5332H40.6631L41.7147 43.6021H41.9236Z" fill="white"/>
<path d="M28.032 43.624H21.0244V47.5796H28.032V43.624Z" fill="black"/>
<path d="M28.032 43.624H21.0244V47.5796H28.032V43.624Z" fill="#078634"/>
<path opacity="0.5" d="M28.032 43.624H21.0244V47.5796H28.032V43.624Z" fill="white"/>
<path opacity="0.3" d="M21.0244 43.624V47.113L21.9576 43.624H21.0244Z" fill="white"/>
<path opacity="0.3" d="M22.9374 43.624L21.8788 47.5796H21.4053L22.4638 43.624H22.9374Z" fill="white"/>
<path d="M41.7263 47.5312H32.8994V47.815H33.3016V50.477H33.5192V50.3203H36.4006V50.477H36.6165V50.3203H39.4978V50.477H39.7155V50.3203H42.6473V50.477H42.8597V50.3203H45.7411V50.477H45.9587V50.3203H48.8401V50.477H49.056V47.815H49.4599V47.5312H41.7263ZM36.4006 50.2455H33.5192V49.9617H36.4006V50.2455ZM36.4006 49.8868H33.5192V49.5978H36.4006V49.8868ZM36.4006 49.5282H33.5192V49.2496H36.4006V49.5282ZM36.4006 49.1695H33.5192V48.884H36.4006V49.1695ZM36.4006 48.8109H33.5192V48.5254H36.4006V48.8109ZM36.4006 48.4522H33.5192V48.1667H36.4006V48.4522ZM36.4006 48.0936H33.5192V47.815H36.4006V48.0936ZM39.4978 50.2455H36.6165V49.9617H39.4978V50.2455ZM39.4978 49.8868H36.6165V49.5978H39.4978V49.8868ZM39.4978 49.5282H36.6165V49.2496H39.4978V49.5282ZM39.4978 49.1695H36.6165V48.884H39.4978V49.1695ZM39.4978 48.8109H36.6165V48.5254H39.4978V48.8109ZM39.4978 48.4522H36.6165V48.1667H39.4978V48.4522ZM39.4978 48.0936H36.6165V47.815H39.4978V48.0936ZM42.6473 50.2455H39.7155V49.9617H42.6473V50.2455ZM42.6473 49.8868H39.7155V49.5978H42.6473V49.8868ZM42.6473 49.5282H39.7155V49.2496H42.6473V49.5282ZM42.6473 49.1695H39.7155V48.884H42.6473V49.1695ZM42.6473 48.8109H39.7155V48.5254H42.6473V48.8109ZM42.6473 48.4522H39.7155V48.1667H42.6473V48.4522ZM42.6473 48.0936H39.7155V47.815H42.6473V48.0936ZM45.7446 50.2455H42.8597V49.9617H45.7411L45.7446 50.2455ZM45.7446 49.8868H42.8597V49.5978H45.7411L45.7446 49.8868ZM45.7446 49.5282H42.8597V49.2496H45.7411L45.7446 49.5282ZM45.7446 49.1695H42.8597V48.884H45.7411L45.7446 49.1695ZM45.7446 48.8109H42.8597V48.5254H45.7411L45.7446 48.8109ZM45.7446 48.4522H42.8597V48.1667H45.7411L45.7446 48.4522ZM45.7446 48.0936H42.8597V47.815H45.7411L45.7446 48.0936ZM48.8436 50.2455H45.9622V49.9617H48.8436V50.2455ZM48.8436 49.8868H45.9622V49.5978H48.8436V49.8868ZM48.8436 49.5282H45.9622V49.2496H48.8436V49.5282ZM48.8436 49.1695H45.9622V48.884H48.8436V49.1695ZM48.8436 48.8109H45.9622V48.5254H48.8436V48.8109ZM48.8436 48.4522H45.9622V48.1667H48.8436V48.4522ZM48.8436 48.0936H45.9622V47.815H48.8436V48.0936Z" fill="#078634"/>
<path opacity="0.3" d="M41.7263 47.5312H32.8994V47.815H33.3016V50.477H33.5192V50.3203H36.4006V50.477H36.6165V50.3203H39.4978V50.477H39.7155V50.3203H42.6473V50.477H42.8597V50.3203H45.7411V50.477H45.9587V50.3203H48.8401V50.477H49.056V47.815H49.4599V47.5312H41.7263ZM36.4006 50.2455H33.5192V49.9617H36.4006V50.2455ZM36.4006 49.8868H33.5192V49.5978H36.4006V49.8868ZM36.4006 49.5282H33.5192V49.2496H36.4006V49.5282ZM36.4006 49.1695H33.5192V48.884H36.4006V49.1695ZM36.4006 48.8109H33.5192V48.5254H36.4006V48.8109ZM36.4006 48.4522H33.5192V48.1667H36.4006V48.4522ZM36.4006 48.0936H33.5192V47.815H36.4006V48.0936ZM39.4978 50.2455H36.6165V49.9617H39.4978V50.2455ZM39.4978 49.8868H36.6165V49.5978H39.4978V49.8868ZM39.4978 49.5282H36.6165V49.2496H39.4978V49.5282ZM39.4978 49.1695H36.6165V48.884H39.4978V49.1695ZM39.4978 48.8109H36.6165V48.5254H39.4978V48.8109ZM39.4978 48.4522H36.6165V48.1667H39.4978V48.4522ZM39.4978 48.0936H36.6165V47.815H39.4978V48.0936ZM42.6473 50.2455H39.7155V49.9617H42.6473V50.2455ZM42.6473 49.8868H39.7155V49.5978H42.6473V49.8868ZM42.6473 49.5282H39.7155V49.2496H42.6473V49.5282ZM42.6473 49.1695H39.7155V48.884H42.6473V49.1695ZM42.6473 48.8109H39.7155V48.5254H42.6473V48.8109ZM42.6473 48.4522H39.7155V48.1667H42.6473V48.4522ZM42.6473 48.0936H39.7155V47.815H42.6473V48.0936ZM45.7446 50.2455H42.8597V49.9617H45.7411L45.7446 50.2455ZM45.7446 49.8868H42.8597V49.5978H45.7411L45.7446 49.8868ZM45.7446 49.5282H42.8597V49.2496H45.7411L45.7446 49.5282ZM45.7446 49.1695H42.8597V48.884H45.7411L45.7446 49.1695ZM45.7446 48.8109H42.8597V48.5254H45.7411L45.7446 48.8109ZM45.7446 48.4522H42.8597V48.1667H45.7411L45.7446 48.4522ZM45.7446 48.0936H42.8597V47.815H45.7411L45.7446 48.0936ZM48.8436 50.2455H45.9622V49.9617H48.8436V50.2455ZM48.8436 49.8868H45.9622V49.5978H48.8436V49.8868ZM48.8436 49.5282H45.9622V49.2496H48.8436V49.5282ZM48.8436 49.1695H45.9622V48.884H48.8436V49.1695ZM48.8436 48.8109H45.9622V48.5254H48.8436V48.8109ZM48.8436 48.4522H45.9622V48.1667H48.8436V48.4522ZM48.8436 48.0936H45.9622V47.815H48.8436V48.0936Z" fill="white"/>
<path d="M48.7617 50.9224H39.5361V60.9575H48.7617V50.9224Z" fill="#078634"/>
<path opacity="0.3" d="M48.7617 50.9224H39.5361V60.9575H48.7617V50.9224Z" fill="white"/>
<path d="M21.7993 50.3999H19.8633V60.973H21.7993V50.3999Z" fill="#078634"/>
<path opacity="0.3" d="M21.7993 50.3999H19.8633V60.973H21.7993V50.3999Z" fill="white"/>
<path opacity="0.2" d="M21.7993 51.3804H20.5684V60.9733H21.7993V51.3804Z" fill="white"/>
<path d="M44.8289 50.7363H21.0381V60.9734H44.8289V50.7363Z" fill="#078634"/>
<path opacity="0.8" d="M44.8289 50.7363H21.0381V60.9734H44.8289V50.7363Z" fill="white"/>
<path opacity="0.05" d="M33.2565 50.7363H21.0381V60.9734H33.2565V50.7363Z" fill="black"/>
<path d="M31.2811 52.9302H26.6953V56.8857H31.2811V52.9302Z" fill="black"/>
<path d="M26.4156 52.9302H22.124V56.8857H26.4156V52.9302Z" fill="black"/>
<path d="M26.4156 52.9302H22.124V56.8857H26.4156V52.9302Z" fill="#078634"/>
<path d="M31.2811 52.9302H26.6953V56.8857H31.2811V52.9302Z" fill="#078634"/>
<path opacity="0.5" d="M31.2811 52.9302H26.6953V56.8857H31.2811V52.9302Z" fill="white"/>
<path opacity="0.5" d="M26.4156 52.9302H22.124V56.8857H26.4156V52.9302Z" fill="white"/>
<path opacity="0.3" d="M25.043 52.9302L23.9827 56.8857H22.334L23.3925 52.9302H25.043Z" fill="white"/>
<path opacity="0.3" d="M26.0213 52.9302L24.9628 56.8857H24.4893L25.5478 52.9302H26.0213Z" fill="white"/>
<path opacity="0.3" d="M31.2814 53.3252V56.8856H30.3291L31.2814 53.3252Z" fill="white"/>
<path d="M45.0335 56.8857V52.9302H45.8744V52.2407H39.666V57.5856H45.8744V56.8857H45.0335Z" fill="#078634"/>
<path d="M45.2144 52.9302H40.9229V56.8857H45.2144V52.9302Z" fill="black"/>
<path d="M45.2144 52.9302H40.9229V56.8857H45.2144V52.9302Z" fill="#078634"/>
<path opacity="0.5" d="M45.2144 52.9302H40.9229V56.8857H45.2144V52.9302Z" fill="white"/>
<path opacity="0.3" d="M43.8391 52.9302L42.7806 56.8857H41.1318L42.1904 52.9302H43.8391Z" fill="white"/>
<path opacity="0.3" d="M44.819 52.9302L43.7605 56.8857H43.2852L44.3437 52.9302H44.819Z" fill="white"/>
<path opacity="0.1" d="M40.2498 52.2407H39.6631V57.5856H40.2498V52.2407Z" fill="black"/>
<path d="M37.4092 52.9302H34.3955V60.9736H37.4092V52.9302Z" fill="#078634"/>
<path opacity="0.1" d="M37.1324 52.9302H34.3955V60.9736H37.1324V52.9302Z" fill="white"/>
<path opacity="0.2" d="M36.8118 53.4717H36.2129V56.0048H36.8118V53.4717Z" fill="white"/>
<path d="M49.4206 51.2886H47.8711V60.9738H49.4206V51.2886Z" fill="#078634"/>
<path opacity="0.3" d="M49.4206 51.2886H47.8711V60.9738H49.4206V51.2886Z" fill="white"/>
<path opacity="0.2" d="M49.4193 51.2886H48.6445V60.9738H49.4193V51.2886Z" fill="white"/>
<path d="M49.4181 50.3999H20.6846V51.4062H49.4181V50.3999Z" fill="#078634"/>
<path opacity="0.3" d="M49.4181 50.3999H20.6846V51.4062H49.4181V50.3999Z" fill="white"/>
<path opacity="0.2" d="M49.4212 50.3999H38.6113V51.4062H49.4212V50.3999Z" fill="white"/>
<path d="M49.0451 40.8145H19.8623V41.8208H49.0451V40.8145Z" fill="#078634"/>
<path opacity="0.3" d="M49.0451 40.8145H19.8623V41.8208H49.0451V40.8145Z" fill="white"/>
<path opacity="0.2" d="M49.0445 40.8145H37.7871V41.8208H49.0445V40.8145Z" fill="white"/>
<path d="M50.256 60.7261H18.8517L18.5 60.9733H50.6076L50.256 60.7261Z" fill="#078634"/>
<path d="M43.9692 10.0596H24.3115C23.7539 10.0596 23.3018 10.5117 23.3018 11.0694V22.4068C23.3018 22.9645 23.7539 23.4166 24.3115 23.4166H43.9692C44.5269 23.4166 44.979 22.9645 44.979 22.4068V11.0694C44.979 10.5117 44.5269 10.0596 43.9692 10.0596Z" fill="#078634"/>
<path opacity="0.6" d="M43.9692 10.0596H24.3115C23.7539 10.0596 23.3018 10.5117 23.3018 11.0694V22.4068C23.3018 22.9645 23.7539 23.4166 24.3115 23.4166H43.9692C44.5269 23.4166 44.979 22.9645 44.979 22.4068V11.0694C44.979 10.5117 44.5269 10.0596 43.9692 10.0596Z" fill="white"/>
<path d="M34.3152 34.7716V22.8179H33.967V34.7716C33.8819 34.8113 33.8128 34.8788 33.7712 34.963C33.7296 35.0472 33.718 35.1431 33.7383 35.2349C33.7586 35.3266 33.8096 35.4086 33.8828 35.4675C33.9561 35.5263 34.0472 35.5583 34.1411 35.5583C34.2351 35.5583 34.3262 35.5263 34.3995 35.4675C34.4727 35.4086 34.5237 35.3266 34.544 35.2349C34.5643 35.1431 34.5527 35.0472 34.5111 34.963C34.4695 34.8788 34.4004 34.8113 34.3152 34.7716Z" fill="#078634"/>
<path opacity="0.6" d="M34.3152 34.7716V22.8179H33.967V34.7716C33.8819 34.8113 33.8128 34.8788 33.7712 34.963C33.7296 35.0472 33.718 35.1431 33.7383 35.2349C33.7586 35.3266 33.8096 35.4086 33.8828 35.4675C33.9561 35.5263 34.0472 35.5583 34.1411 35.5583C34.2351 35.5583 34.3262 35.5263 34.3995 35.4675C34.4727 35.4086 34.5237 35.3266 34.544 35.2349C34.5643 35.1431 34.5527 35.0472 34.5111 34.963C34.4695 34.8788 34.4004 34.8113 34.3152 34.7716Z" fill="white"/>
<path d="M43.0968 15.8609H35.5199C35.4654 15.8609 35.4132 15.8392 35.3746 15.8007C35.3361 15.7622 35.3145 15.7099 35.3145 15.6554C35.3142 15.6283 35.3194 15.6014 35.3296 15.5763C35.3398 15.5511 35.3549 15.5283 35.374 15.509C35.3931 15.4898 35.4158 15.4745 35.4409 15.464C35.4659 15.4536 35.4928 15.4482 35.5199 15.4482H43.0968C43.1517 15.4482 43.2044 15.4701 43.2433 15.5089C43.2821 15.5478 43.3039 15.6005 43.3039 15.6554C43.3039 15.6825 43.2986 15.7094 43.2881 15.7344C43.2777 15.7595 43.2624 15.7822 43.2432 15.8013C43.2239 15.8204 43.201 15.8355 43.1759 15.8457C43.1508 15.8559 43.1239 15.8611 43.0968 15.8609Z" fill="#078634"/>
<path d="M43.0968 17.6534H35.5199C35.4928 17.6534 35.4659 17.648 35.4409 17.6375C35.4158 17.6271 35.3931 17.6118 35.374 17.5926C35.3549 17.5733 35.3398 17.5504 35.3296 17.5253C35.3194 17.5002 35.3142 17.4733 35.3145 17.4462C35.3145 17.4192 35.3198 17.3925 35.3301 17.3676C35.3404 17.3426 35.3556 17.32 35.3746 17.3009C35.3937 17.2818 35.4164 17.2667 35.4413 17.2564C35.4662 17.246 35.4929 17.2407 35.5199 17.2407H43.0968C43.1239 17.2405 43.1508 17.2456 43.1759 17.2559C43.201 17.2661 43.2239 17.2812 43.2432 17.3003C43.2624 17.3194 43.2777 17.3421 43.2881 17.3671C43.2986 17.3922 43.3039 17.419 43.3039 17.4462C43.3039 17.5011 43.2821 17.5538 43.2433 17.5927C43.2044 17.6315 43.1517 17.6534 43.0968 17.6534Z" fill="#078634"/>
<path d="M43.0968 19.4476H35.5199C35.4928 19.4476 35.4659 19.4422 35.4409 19.4318C35.4158 19.4213 35.3931 19.406 35.374 19.3868C35.3549 19.3675 35.3398 19.3447 35.3296 19.3195C35.3194 19.2944 35.3142 19.2675 35.3145 19.2404C35.3145 19.1857 35.336 19.1333 35.3745 19.0945C35.413 19.0557 35.4653 19.0337 35.5199 19.0332H43.0968C43.1517 19.0332 43.2044 19.055 43.2433 19.0939C43.2821 19.1327 43.3039 19.1854 43.3039 19.2404C43.3039 19.2953 43.2821 19.348 43.2433 19.3869C43.2044 19.4257 43.1517 19.4476 43.0968 19.4476Z" fill="#078634"/>
<path d="M43.0968 21.2383H35.5199C35.4929 21.2383 35.4662 21.233 35.4413 21.2227C35.4164 21.2123 35.3937 21.1972 35.3746 21.1781C35.3556 21.1591 35.3404 21.1364 35.3301 21.1115C35.3198 21.0866 35.3145 21.0598 35.3145 21.0329C35.3142 21.0057 35.3194 20.9788 35.3296 20.9537C35.3398 20.9286 35.3549 20.9057 35.374 20.8865C35.3931 20.8672 35.4158 20.8519 35.4409 20.8415C35.4659 20.8311 35.4928 20.8257 35.5199 20.8257H43.0968C43.1517 20.8257 43.2044 20.8475 43.2433 20.8864C43.2821 20.9252 43.3039 20.9779 43.3039 21.0329C43.3039 21.06 43.2986 21.0868 43.2881 21.1119C43.2777 21.1369 43.2624 21.1596 43.2432 21.1787C43.2239 21.1978 43.201 21.2129 43.1759 21.2232C43.1508 21.2334 43.1239 21.2385 43.0968 21.2383Z" fill="#078634"/>
<path d="M25.1709 12.1155H25.6532C25.7347 12.1093 25.8167 12.1199 25.8939 12.1468C25.9712 12.1737 26.042 12.2163 26.102 12.2719C26.162 12.3275 26.2099 12.3948 26.2426 12.4698C26.2754 12.5448 26.2923 12.6257 26.2923 12.7075C26.2923 12.7892 26.2754 12.8702 26.2426 12.9451C26.2099 13.0201 26.162 13.0874 26.102 13.143C26.042 13.1986 25.9712 13.2412 25.8939 13.2681C25.8167 13.295 25.7347 13.3057 25.6532 13.2994H25.1709V12.1155ZM25.6462 13.1897C25.7121 13.1937 25.7781 13.1841 25.8401 13.1616C25.9022 13.1391 25.959 13.1042 26.007 13.0589C26.0551 13.0137 26.0934 12.9591 26.1195 12.8985C26.1457 12.8379 26.1592 12.7726 26.1592 12.7066C26.1592 12.6406 26.1457 12.5753 26.1195 12.5147C26.0934 12.4541 26.0551 12.3995 26.007 12.3542C25.959 12.309 25.9022 12.274 25.8401 12.2515C25.7781 12.2291 25.7121 12.2195 25.6462 12.2235H25.298V13.1897H25.6462Z" fill="#078634"/>
<path d="M27.4031 13.1894V13.2991H26.5674V12.1152H27.377V12.2232H26.691V12.6445H27.3038V12.7507H26.691V13.1894H27.4031Z" fill="#078634"/>
<path d="M27.6982 12.1152H27.8219V13.1894H28.4852V13.2991H27.6982V12.1152Z" fill="#078634"/>
<path d="M28.6914 12.1152H28.8168V13.2991H28.6914V12.1152Z" fill="#078634"/>
<path d="M30.1721 12.1152L29.6498 13.2991H29.5262L29.0039 12.1152H29.1397L29.5924 13.1424L30.0485 12.1152H30.1721Z" fill="#078634"/>
<path d="M31.1785 13.1894V13.2991H30.3428V12.1152H31.1541V12.2232H30.4681V12.6445H31.0792V12.7507H30.4681V13.1894H31.1785Z" fill="#078634"/>
<path d="M32.2805 13.2999L32.0089 12.9187C31.9776 12.9205 31.9462 12.9205 31.9149 12.9187H31.5963V13.2947H31.4727V12.1108H31.9149C32.2161 12.1108 32.3971 12.264 32.3971 12.5165C32.4013 12.6 32.3768 12.6825 32.3277 12.7503C32.2787 12.818 32.208 12.867 32.1273 12.8891L32.4163 13.2947L32.2805 13.2999ZM32.2805 12.5217C32.2805 12.3319 32.1551 12.224 31.9184 12.224H31.6032V12.8177H31.9184C32.1482 12.8177 32.2735 12.708 32.2735 12.5148L32.2805 12.5217Z" fill="#078634"/>
<path d="M33.0818 12.89V13.2991H32.9581V12.89L32.4863 12.1152H32.6186L33.0243 12.7803L33.43 12.1152H33.5553L33.0818 12.89Z" fill="#078634"/>
<path d="M34.9334 12.9823H34.2735L34.1325 13.2991H34.002L34.5417 12.1152H34.6653L35.2067 13.2991H35.0744L34.9334 12.9823ZM34.8864 12.8813L34.6026 12.2458L34.3275 12.8813H34.8864Z" fill="#078634"/>
<path d="M35.4023 12.1155H35.8846C35.9662 12.1093 36.0481 12.1199 36.1254 12.1468C36.2026 12.1737 36.2734 12.2163 36.3335 12.2719C36.3935 12.3275 36.4413 12.3948 36.4741 12.4698C36.5068 12.5448 36.5237 12.6257 36.5237 12.7075C36.5237 12.7892 36.5068 12.8702 36.4741 12.9451C36.4413 13.0201 36.3935 13.0874 36.3335 13.143C36.2734 13.1986 36.2026 13.2412 36.1254 13.2681C36.0481 13.295 35.9662 13.3057 35.8846 13.2994H35.4023V12.1155ZM35.8776 13.1897C35.9435 13.1937 36.0095 13.1841 36.0716 13.1616C36.1336 13.1391 36.1904 13.1042 36.2385 13.0589C36.2865 13.0137 36.3248 12.9591 36.351 12.8985C36.3772 12.8379 36.3907 12.7726 36.3907 12.7066C36.3907 12.6406 36.3772 12.5753 36.351 12.5147C36.3248 12.4541 36.2865 12.3995 36.2385 12.3542C36.1904 12.309 36.1336 12.274 36.0716 12.2515C36.0095 12.2291 35.9435 12.2195 35.8776 12.2235H35.5294V13.1897H35.8776Z" fill="#078634"/>
<path d="M36.7959 12.1155H37.2869C37.3684 12.1093 37.4504 12.1199 37.5276 12.1468C37.6049 12.1737 37.6757 12.2163 37.7357 12.2719C37.7957 12.3275 37.8436 12.3948 37.8763 12.4698C37.9091 12.5448 37.926 12.6257 37.926 12.7075C37.926 12.7892 37.9091 12.8702 37.8763 12.9451C37.8436 13.0201 37.7957 13.0874 37.7357 13.143C37.6757 13.1986 37.6049 13.2412 37.5276 13.2681C37.4504 13.295 37.3684 13.3057 37.2869 13.2994H36.8046L36.7959 12.1155ZM37.2712 13.1897C37.3371 13.1937 37.4031 13.1841 37.4651 13.1616C37.5272 13.1391 37.584 13.1042 37.632 13.0589C37.6801 13.0137 37.7184 12.9591 37.7445 12.8985C37.7707 12.8379 37.7842 12.7726 37.7842 12.7066C37.7842 12.6406 37.7707 12.5753 37.7445 12.5147C37.7184 12.4541 37.6801 12.3995 37.632 12.3542C37.584 12.309 37.5272 12.274 37.4651 12.2515C37.4031 12.2291 37.3371 12.2195 37.2712 12.2235H36.923V13.1897H37.2712Z" fill="#078634"/>
<path d="M39.0002 13.2999L38.7286 12.9187C38.6973 12.9205 38.6659 12.9205 38.6346 12.9187H38.316V13.2947H38.1924V12.1108H38.6346C38.9358 12.1108 39.1169 12.264 39.1169 12.5165C39.121 12.6 39.0965 12.6825 39.0475 12.7503C38.9984 12.818 38.9277 12.867 38.847 12.8891L39.136 13.2947L39.0002 13.2999ZM39.0002 12.5217C39.0002 12.3319 38.8749 12.224 38.6381 12.224H38.323V12.8177H38.6381C38.8679 12.8177 38.9932 12.708 38.9932 12.5148L39.0002 12.5217Z" fill="#078634"/>
<path d="M40.2468 13.1894V13.2991H39.4111V12.1152H40.2224V12.2232H39.5365V12.6445H40.1476V12.7507H39.5365V13.1894H40.2468Z" fill="#078634"/>
<path d="M40.4287 13.1548L40.4775 13.0591C40.5857 13.1526 40.7244 13.2034 40.8674 13.2018C41.0886 13.2018 41.186 13.1096 41.186 12.9929C41.186 12.6691 40.4566 12.8676 40.4566 12.4306C40.4566 12.2565 40.5924 12.105 40.8936 12.105C41.0232 12.1037 41.1504 12.1407 41.2592 12.2112L41.2174 12.3105C41.1209 12.2478 41.0086 12.214 40.8936 12.213C40.6777 12.213 40.5802 12.3087 40.5802 12.4271C40.5802 12.7509 41.3097 12.5559 41.3097 12.986C41.3097 13.1601 41.1704 13.308 40.8674 13.308C40.7072 13.3137 40.5506 13.259 40.4287 13.1548Z" fill="#078634"/>
<path d="M41.4658 13.1548L41.5146 13.0591C41.6226 13.1529 41.7614 13.2037 41.9046 13.2018C42.1257 13.2018 42.2214 13.1096 42.2214 12.9929C42.2214 12.6691 41.4937 12.8676 41.4937 12.4306C41.4937 12.2565 41.6295 12.105 41.9289 12.105C42.0591 12.1037 42.1869 12.1406 42.2963 12.2112L42.2545 12.3105C42.1575 12.2476 42.0445 12.2137 41.9289 12.213C41.713 12.213 41.6173 12.3087 41.6173 12.4271C41.6173 12.7509 42.345 12.5559 42.345 12.986C42.345 13.1601 42.2075 13.3081 41.9046 13.3081C41.7443 13.3137 41.5877 13.259 41.4658 13.1548Z" fill="#078634"/>
<path d="M25.709 15.23V15.9612H25.6445L25.1745 15.3693V15.9612H25.0996V15.23H25.164L25.6341 15.8237V15.23H25.709Z" fill="#078634"/>
<path d="M26.4056 15.7662H25.9982L25.9111 15.9612H25.8311L26.1653 15.23H26.2402L26.5745 15.9612H26.4926L26.4056 15.7662ZM26.3777 15.7035L26.2036 15.3118L26.0295 15.7035H26.3777Z" fill="#078634"/>
<path d="M27.4554 15.23V15.9612H27.3805V15.3762L27.0932 15.8689H27.0567L26.7712 15.3797V15.9612H26.6963V15.23H26.7607L27.0776 15.7732L27.391 15.23H27.4554Z" fill="#078634"/>
<path d="M28.2108 15.895V15.9612H27.6885V15.23H28.1899V15.2996H27.7651V15.559H28.1429V15.6252H27.7651V15.8968L28.2108 15.895Z" fill="#078634"/>
<path d="M25.557 17.5636H25.1496L25.0625 17.7586H24.9824L25.3167 17.0273H25.3916L25.7258 17.7586H25.6457L25.557 17.5636ZM25.5291 17.5009L25.355 17.1074L25.1809 17.5009H25.5291Z" fill="#078634"/>
<path d="M25.8477 17.0232H26.1454C26.1964 17.0182 26.2479 17.024 26.2965 17.0401C26.3452 17.0562 26.3899 17.0823 26.4279 17.1167C26.4659 17.1512 26.4962 17.1932 26.517 17.24C26.5377 17.2869 26.5484 17.3376 26.5484 17.3888C26.5484 17.4401 26.5377 17.4908 26.517 17.5376C26.4962 17.5845 26.4659 17.6265 26.4279 17.6609C26.3899 17.6954 26.3452 17.7215 26.2965 17.7376C26.2479 17.7537 26.1964 17.7594 26.1454 17.7544H25.8477V17.0232ZM26.1419 17.6866C26.183 17.6897 26.2243 17.6843 26.2633 17.6707C26.3022 17.6571 26.338 17.6357 26.3682 17.6076C26.3985 17.5796 26.4226 17.5456 26.4391 17.5078C26.4556 17.47 26.4642 17.4292 26.4642 17.388C26.4642 17.3467 26.4556 17.3059 26.4391 17.2681C26.4226 17.2303 26.3985 17.1963 26.3682 17.1683C26.338 17.1403 26.3022 17.1188 26.2633 17.1052C26.2243 17.0916 26.183 17.0862 26.1419 17.0894H25.9243V17.6866H26.1419Z" fill="#078634"/>
<path d="M26.71 17.0232H27.0146C27.0656 17.0182 27.1171 17.024 27.1658 17.0401C27.2145 17.0562 27.2592 17.0823 27.2972 17.1167C27.3351 17.1512 27.3655 17.1932 27.3862 17.24C27.407 17.2869 27.4177 17.3376 27.4177 17.3888C27.4177 17.4401 27.407 17.4908 27.3862 17.5376C27.3655 17.5845 27.3351 17.6265 27.2972 17.6609C27.2592 17.6954 27.2145 17.7215 27.1658 17.7376C27.1171 17.7537 27.0656 17.7594 27.0146 17.7544H26.7169L26.71 17.0232ZM27.0024 17.6866C27.0436 17.6897 27.0849 17.6843 27.1239 17.6707C27.1628 17.6571 27.1985 17.6357 27.2288 17.6076C27.259 17.5796 27.2832 17.5456 27.2997 17.5078C27.3162 17.47 27.3247 17.4292 27.3247 17.388C27.3247 17.3467 27.3162 17.3059 27.2997 17.2681C27.2832 17.2303 27.259 17.1963 27.2288 17.1683C27.1985 17.1403 27.1628 17.1188 27.1239 17.1052C27.0849 17.0916 27.0436 17.0862 27.0024 17.0894H26.7866V17.6866H27.0024Z" fill="#078634"/>
<path d="M28.0721 17.7552L27.898 17.5202H27.8388H27.6438V17.7517H27.5654V17.0205H27.8388C28.0251 17.0205 28.1382 17.1145 28.1382 17.2712C28.1401 17.3237 28.1238 17.3752 28.0921 17.4171C28.0604 17.459 28.0152 17.4886 27.9641 17.501L28.1382 17.7517L28.0721 17.7552ZM28.0721 17.2747C28.0721 17.158 27.9937 17.0901 27.8475 17.0901H27.6542V17.4575H27.8475C27.9902 17.4575 28.0686 17.3896 28.0686 17.2747H28.0721Z" fill="#078634"/>
<path d="M28.8446 17.6868V17.7547H28.3223V17.0234H28.8237V17.0896H28.4076V17.3507H28.7871V17.4169H28.4076V17.6868H28.8446Z" fill="#078634"/>
<path d="M28.957 17.6653L28.9884 17.6062C29.0549 17.6642 29.1404 17.6958 29.2286 17.6949C29.3662 17.6949 29.4254 17.6375 29.4254 17.5644C29.4254 17.3642 28.9762 17.4878 28.9762 17.2162C28.9762 17.1082 29.058 17.0142 29.2443 17.0142C29.3247 17.0129 29.4036 17.036 29.4706 17.0804L29.4445 17.1413C29.3847 17.1028 29.3154 17.0817 29.2443 17.0804C29.112 17.0804 29.051 17.1396 29.051 17.2127C29.051 17.4146 29.502 17.2928 29.502 17.5609C29.502 17.6688 29.4167 17.7594 29.2286 17.7594C29.1296 17.7625 29.0329 17.7291 28.957 17.6653Z" fill="#078634"/>
<path d="M29.5977 17.6653L29.629 17.6062C29.6955 17.6642 29.781 17.6958 29.8693 17.6949C30.0068 17.6949 30.066 17.6375 30.066 17.5644C30.066 17.3642 29.6168 17.4878 29.6168 17.2162C29.6168 17.1082 29.7004 17.0142 29.8849 17.0142C29.9653 17.0129 30.0442 17.036 30.1113 17.0804L30.0851 17.1413C30.0254 17.1028 29.956 17.0817 29.8849 17.0804C29.7526 17.0804 29.6917 17.1396 29.6917 17.2127C29.6917 17.4146 30.1426 17.2928 30.1426 17.5609C30.1426 17.6688 30.0573 17.7594 29.8693 17.7594C29.7702 17.7625 29.6735 17.7291 29.5977 17.6653Z" fill="#078634"/>
<path d="M25.6707 19.0676C25.6707 19.2225 25.5575 19.3166 25.3712 19.3166H25.1745V19.5481H25.0996V18.8169H25.3729C25.5575 18.8169 25.6707 18.9109 25.6707 19.0676ZM25.5923 19.0676C25.5923 18.951 25.5157 18.8831 25.3695 18.8831H25.1745V19.2487H25.3695C25.5157 19.2487 25.5923 19.1825 25.5923 19.0676Z" fill="#078634"/>
<path d="M25.7844 19.1828C25.7819 19.1066 25.8023 19.0314 25.8429 18.9668C25.8835 18.9022 25.9424 18.8512 26.0122 18.8204C26.0819 18.7895 26.1593 18.7802 26.2344 18.7935C26.3095 18.8069 26.3788 18.8424 26.4336 18.8954C26.4884 18.9485 26.5261 19.0167 26.5419 19.0913C26.5577 19.1659 26.5509 19.2435 26.5223 19.3142C26.4937 19.3849 26.4446 19.4455 26.3814 19.4881C26.3182 19.5308 26.2437 19.5536 26.1674 19.5536C26.1176 19.5558 26.0678 19.5477 26.0212 19.53C25.9746 19.5123 25.932 19.4852 25.8962 19.4505C25.8603 19.4158 25.8319 19.3742 25.8127 19.3282C25.7935 19.2822 25.7839 19.2327 25.7844 19.1828ZM26.4808 19.1828C26.4818 19.1216 26.4646 19.0614 26.4313 19.01C26.398 18.9586 26.3501 18.9183 26.2938 18.8942C26.2375 18.8702 26.1753 18.8634 26.1151 18.8749C26.055 18.8863 25.9996 18.9154 25.956 18.9584C25.9125 19.0015 25.8827 19.0566 25.8706 19.1166C25.8585 19.1766 25.8645 19.2389 25.8879 19.2955C25.9114 19.3521 25.9511 19.4004 26.0022 19.4343C26.0532 19.4682 26.1131 19.4861 26.1744 19.4857C26.2141 19.4862 26.2536 19.4787 26.2903 19.4636C26.3271 19.4485 26.3605 19.4261 26.3884 19.3979C26.4164 19.3696 26.4383 19.336 26.453 19.299C26.4677 19.2621 26.4748 19.2226 26.4738 19.1828H26.4808Z" fill="#078634"/>
<path d="M26.6553 19.4599L26.6849 19.399C26.7512 19.4585 26.8378 19.4903 26.9269 19.4878C27.0627 19.4878 27.1236 19.4304 27.1236 19.359C27.1236 19.1588 26.6727 19.2824 26.6727 19.0108C26.6727 18.9046 26.7563 18.8106 26.9425 18.8106C27.0226 18.8101 27.1011 18.8324 27.1689 18.875L27.1428 18.9376C27.0833 18.8984 27.0138 18.8772 26.9425 18.8767C26.8085 18.8767 26.7493 18.9359 26.7493 19.009C26.7493 19.2092 27.1985 19.0891 27.1985 19.3572C27.1985 19.4634 27.1132 19.5557 26.9269 19.5557C26.8276 19.5587 26.7307 19.5246 26.6553 19.4599Z" fill="#078634"/>
<path d="M27.4989 18.8831H27.2412V18.8169H27.8332V18.8831H27.5755V19.5481H27.4989V18.8831Z" fill="#078634"/>
<path d="M28.378 19.3514H27.9706L27.8836 19.5481H27.8018L28.136 18.8169H28.2126L28.5469 19.5481H28.4651L28.378 19.3514ZM28.3502 19.2887L28.1761 18.897L28.002 19.2887H28.3502Z" fill="#078634"/>
<path d="M28.6699 18.8169H28.7465V19.4785H29.1557V19.5464H28.6699V18.8169Z" fill="#078634"/>
<path d="M29.4932 19.1825C29.4924 19.1325 29.5019 19.0828 29.521 19.0366C29.5402 18.9903 29.5685 18.9485 29.6044 18.9136C29.6402 18.8787 29.6829 18.8515 29.7296 18.8337C29.7763 18.8159 29.8262 18.8078 29.8762 18.8099C29.9258 18.8082 29.9752 18.8167 30.0214 18.835C30.0675 18.8533 30.1094 18.8809 30.1443 18.9161L30.0956 18.9666C30.0672 18.9379 30.0333 18.9154 29.9958 18.9005C29.9584 18.8855 29.9183 18.8784 29.878 18.8795C29.8382 18.8795 29.7988 18.8874 29.762 18.9026C29.7253 18.9178 29.6919 18.9401 29.6638 18.9683C29.6356 18.9964 29.6133 19.0298 29.5981 19.0666C29.5829 19.1033 29.575 19.1427 29.575 19.1825C29.575 19.2223 29.5829 19.2617 29.5981 19.2984C29.6133 19.3352 29.6356 19.3686 29.6638 19.3967C29.6919 19.4248 29.7253 19.4471 29.762 19.4624C29.7988 19.4776 29.8382 19.4854 29.878 19.4854C29.9184 19.4867 29.9587 19.4794 29.9962 19.4641C30.0337 19.4488 30.0676 19.4258 30.0956 19.3966L30.1443 19.4454C30.11 19.4815 30.0683 19.5099 30.022 19.5285C29.9758 19.5471 29.926 19.5556 29.8762 19.5533C29.8264 19.5554 29.7766 19.5474 29.73 19.5297C29.6834 19.512 29.6409 19.4849 29.605 19.4502C29.5692 19.4155 29.5408 19.3739 29.5216 19.3279C29.5023 19.2818 29.4927 19.2324 29.4932 19.1825Z" fill="#078634"/>
<path d="M30.2297 19.1828C30.2273 19.1066 30.2476 19.0314 30.2882 18.9668C30.3288 18.9022 30.3877 18.8512 30.4575 18.8204C30.5272 18.7895 30.6046 18.7802 30.6797 18.7935C30.7548 18.8069 30.8241 18.8424 30.8789 18.8954C30.9337 18.9485 30.9714 19.0167 30.9872 19.0913C31.003 19.1659 30.9962 19.2435 30.9676 19.3142C30.939 19.3849 30.8899 19.4455 30.8267 19.4881C30.7635 19.5308 30.689 19.5536 30.6127 19.5536C30.5629 19.5558 30.5131 19.5477 30.4665 19.53C30.4199 19.5123 30.3773 19.4852 30.3415 19.4505C30.3057 19.4158 30.2773 19.3742 30.258 19.3282C30.2388 19.2822 30.2292 19.2327 30.2297 19.1828ZM30.9261 19.1828C30.9271 19.1216 30.9099 19.0614 30.8766 19.01C30.8433 18.9586 30.7954 18.9183 30.7391 18.8942C30.6828 18.8702 30.6206 18.8634 30.5604 18.8749C30.5003 18.8863 30.4449 18.9154 30.4013 18.9584C30.3578 19.0015 30.328 19.0566 30.3159 19.1166C30.3038 19.1766 30.3098 19.2389 30.3333 19.2955C30.3567 19.3521 30.3965 19.4004 30.4475 19.4343C30.4985 19.4682 30.5584 19.4861 30.6197 19.4857C30.6594 19.4862 30.6989 19.4787 30.7356 19.4636C30.7724 19.4485 30.8058 19.4261 30.8337 19.3979C30.8617 19.3696 30.8836 19.336 30.8983 19.299C30.913 19.2621 30.9201 19.2226 30.9191 19.1828H30.9261Z" fill="#078634"/>
<path d="M31.1689 18.8167H31.4667C31.5177 18.8117 31.5692 18.8174 31.6178 18.8335C31.6665 18.8497 31.7112 18.8758 31.7492 18.9102C31.7871 18.9446 31.8175 18.9866 31.8382 19.0335C31.859 19.0804 31.8697 19.131 31.8697 19.1823C31.8697 19.2335 31.859 19.2842 31.8382 19.3311C31.8175 19.378 31.7871 19.42 31.7492 19.4544C31.7112 19.4888 31.6665 19.5149 31.6178 19.531C31.5692 19.5471 31.5177 19.5529 31.4667 19.5479H31.1689V18.8167ZM31.4632 19.48C31.5043 19.4831 31.5456 19.4778 31.5846 19.4642C31.6235 19.4506 31.6593 19.4291 31.6895 19.4011C31.7198 19.3731 31.7439 19.3391 31.7604 19.3013C31.7769 19.2635 31.7854 19.2227 31.7854 19.1814C31.7854 19.1402 31.7769 19.0994 31.7604 19.0616C31.7439 19.0238 31.7198 18.9898 31.6895 18.9618C31.6593 18.9337 31.6235 18.9122 31.5846 18.8987C31.5456 18.8851 31.5043 18.8797 31.4632 18.8828H31.2473V19.4783L31.4632 19.48Z" fill="#078634"/>
<path d="M32.5496 19.4783V19.5462H32.0273V18.8149H32.5288V18.8811H32.1039V19.1405H32.4817V19.2067H32.1039V19.4783H32.5496Z" fill="#078634"/>
<path d="M25.6707 20.8591C25.6707 21.0158 25.5575 21.1098 25.3712 21.1098H25.1745V21.3396H25.0996V20.6084H25.3729C25.5575 20.6084 25.6707 20.6972 25.6707 20.8591ZM25.5923 20.8591C25.5923 20.7425 25.5157 20.6763 25.3695 20.6763H25.1745V21.0454H25.3695C25.5157 21.0454 25.5923 20.974 25.5923 20.8591Z" fill="#078634"/>
<path d="M26.449 20.6084V21.3396H26.3724V21.0019H25.9145V21.3396H25.8379V20.6084H25.9145V20.9357H26.3724V20.6084H26.449Z" fill="#078634"/>
<path d="M26.6223 20.9746C26.6198 20.898 26.6403 20.8225 26.6811 20.7576C26.7219 20.6927 26.7811 20.6415 26.8511 20.6105C26.9212 20.5795 26.9989 20.5702 27.0743 20.5836C27.1498 20.597 27.2195 20.6327 27.2745 20.686C27.3295 20.7393 27.3674 20.8078 27.3833 20.8827C27.3991 20.9577 27.3922 21.0357 27.3635 21.1067C27.3348 21.1777 27.2855 21.2385 27.222 21.2814C27.1585 21.3242 27.0836 21.3471 27.007 21.3472C26.9569 21.3495 26.9068 21.3416 26.8599 21.3239C26.8129 21.3062 26.7701 21.279 26.734 21.2441C26.698 21.2092 26.6695 21.1673 26.6502 21.1209C26.631 21.0746 26.6215 21.0248 26.6223 20.9746ZM27.3187 20.9746C27.3197 20.9134 27.3025 20.8532 27.2692 20.8018C27.2359 20.7504 27.188 20.7101 27.1317 20.686C27.0754 20.6619 27.0132 20.6552 26.953 20.6666C26.8928 20.6781 26.8375 20.7072 26.7939 20.7502C26.7503 20.7933 26.7206 20.8483 26.7085 20.9084C26.6964 20.9684 26.7024 21.0307 26.7258 21.0873C26.7493 21.1438 26.789 21.1922 26.84 21.2261C26.8911 21.2599 26.951 21.2779 27.0122 21.2775C27.0521 21.2782 27.0918 21.2709 27.1288 21.2559C27.1657 21.2409 27.1993 21.2186 27.2274 21.1903C27.2556 21.162 27.2777 21.1283 27.2925 21.0912C27.3073 21.0542 27.3144 21.0145 27.3134 20.9746H27.3187Z" fill="#078634"/>
<path d="M28.1755 20.6084V21.3396H28.1111L27.6411 20.7477V21.3396H27.5645V20.6084H27.6289L28.0989 21.2021V20.6084H28.1755Z" fill="#078634"/>
<path d="M28.9295 21.2735V21.3396H28.4072V20.6084H28.9086V20.6763H28.4838V20.9357H28.8616V21.0019H28.4838V21.2735H28.9295Z" fill="#078634"/>
<path d="M33.7401 15.4742C33.7387 15.4659 33.739 15.4574 33.7412 15.4493C33.7434 15.4412 33.7473 15.4337 33.7527 15.4273C33.7581 15.4208 33.7648 15.4157 33.7724 15.4121C33.78 15.4086 33.7883 15.4067 33.7967 15.4067C33.8051 15.4067 33.8134 15.4086 33.821 15.4121C33.8286 15.4157 33.8353 15.4208 33.8407 15.4273C33.8461 15.4337 33.85 15.4412 33.8522 15.4493C33.8544 15.4574 33.8547 15.4659 33.8533 15.4742C33.8547 15.4824 33.8544 15.4909 33.8522 15.499C33.85 15.5071 33.8461 15.5146 33.8407 15.5211C33.8353 15.5275 33.8286 15.5326 33.821 15.5362C33.8134 15.5397 33.8051 15.5416 33.7967 15.5416C33.7883 15.5416 33.78 15.5397 33.7724 15.5362C33.7648 15.5326 33.7581 15.5275 33.7527 15.5211C33.7473 15.5146 33.7434 15.5071 33.7412 15.499C33.739 15.4909 33.7387 15.4824 33.7401 15.4742ZM33.7401 15.9181C33.7425 15.9048 33.7494 15.8928 33.7598 15.8841C33.7701 15.8754 33.7832 15.8706 33.7967 15.8706C33.8102 15.8706 33.8233 15.8754 33.8336 15.8841C33.844 15.8928 33.851 15.9048 33.8533 15.9181C33.8547 15.9264 33.8544 15.9349 33.8522 15.943C33.85 15.9511 33.8461 15.9586 33.8407 15.965C33.8353 15.9714 33.8286 15.9766 33.821 15.9801C33.8134 15.9837 33.8051 15.9855 33.7967 15.9855C33.7883 15.9855 33.78 15.9837 33.7724 15.9801C33.7648 15.9766 33.7581 15.9714 33.7527 15.965C33.7473 15.9586 33.7434 15.9511 33.7412 15.943C33.739 15.9349 33.7387 15.9264 33.7401 15.9181Z" fill="#078634"/>
<path d="M33.7401 17.2565C33.7425 17.2432 33.7494 17.2311 33.7598 17.2224C33.7701 17.2137 33.7832 17.209 33.7967 17.209C33.8102 17.209 33.8233 17.2137 33.8336 17.2224C33.844 17.2311 33.851 17.2432 33.8533 17.2565C33.8547 17.2647 33.8544 17.2732 33.8522 17.2813C33.85 17.2894 33.8461 17.2969 33.8407 17.3034C33.8353 17.3098 33.8286 17.315 33.821 17.3185C33.8134 17.3221 33.8051 17.3239 33.7967 17.3239C33.7883 17.3239 33.78 17.3221 33.7724 17.3185C33.7648 17.315 33.7581 17.3098 33.7527 17.3034C33.7473 17.2969 33.7434 17.2894 33.7412 17.2813C33.739 17.2732 33.7387 17.2647 33.7401 17.2565ZM33.7401 17.7022C33.7425 17.6889 33.7494 17.6768 33.7598 17.6681C33.7701 17.6594 33.7832 17.6547 33.7967 17.6547C33.8102 17.6547 33.8233 17.6594 33.8336 17.6681C33.844 17.6768 33.851 17.6889 33.8533 17.7022C33.8547 17.7104 33.8544 17.7189 33.8522 17.727C33.85 17.7351 33.8461 17.7426 33.8407 17.7491C33.8353 17.7555 33.8286 17.7607 33.821 17.7642C33.8134 17.7678 33.8051 17.7696 33.7967 17.7696C33.7883 17.7696 33.78 17.7678 33.7724 17.7642C33.7648 17.7607 33.7581 17.7555 33.7527 17.7491C33.7473 17.7426 33.7434 17.7351 33.7412 17.727C33.739 17.7189 33.7387 17.7104 33.7401 17.7022Z" fill="#078634"/>
<path d="M33.7401 19.0499C33.7425 19.0366 33.7494 19.0246 33.7598 19.0159C33.7701 19.0072 33.7832 19.0024 33.7967 19.0024C33.8102 19.0024 33.8233 19.0072 33.8336 19.0159C33.844 19.0246 33.851 19.0366 33.8533 19.0499C33.8547 19.0582 33.8544 19.0667 33.8522 19.0748C33.85 19.0829 33.8461 19.0904 33.8407 19.0968C33.8353 19.1033 33.8286 19.1084 33.821 19.112C33.8134 19.1155 33.8051 19.1173 33.7967 19.1173C33.7883 19.1173 33.78 19.1155 33.7724 19.112C33.7648 19.1084 33.7581 19.1033 33.7527 19.0968C33.7473 19.0904 33.7434 19.0829 33.7412 19.0748C33.739 19.0667 33.7387 19.0582 33.7401 19.0499ZM33.7401 19.4956C33.7387 19.4874 33.739 19.4789 33.7412 19.4708C33.7434 19.4627 33.7473 19.4552 33.7527 19.4487C33.7581 19.4423 33.7648 19.4371 33.7724 19.4336C33.78 19.43 33.7883 19.4282 33.7967 19.4282C33.8051 19.4282 33.8134 19.43 33.821 19.4336C33.8286 19.4371 33.8353 19.4423 33.8407 19.4487C33.8461 19.4552 33.85 19.4627 33.8522 19.4708C33.8544 19.4789 33.8547 19.4874 33.8533 19.4956C33.8547 19.5039 33.8544 19.5124 33.8522 19.5205C33.85 19.5286 33.8461 19.5361 33.8407 19.5425C33.8353 19.549 33.8286 19.5541 33.821 19.5577C33.8134 19.5612 33.8051 19.563 33.7967 19.563C33.7883 19.563 33.78 19.5612 33.7724 19.5577C33.7648 19.5541 33.7581 19.549 33.7527 19.5425C33.7473 19.5361 33.7434 19.5286 33.7412 19.5205C33.739 19.5124 33.7387 19.5039 33.7401 19.4956Z" fill="#078634"/>
<path d="M33.7401 20.8433C33.7387 20.835 33.739 20.8266 33.7412 20.8185C33.7434 20.8104 33.7473 20.8028 33.7527 20.7964C33.7581 20.79 33.7648 20.7848 33.7724 20.7813C33.78 20.7777 33.7883 20.7759 33.7967 20.7759C33.8051 20.7759 33.8134 20.7777 33.821 20.7813C33.8286 20.7848 33.8353 20.79 33.8407 20.7964C33.8461 20.8028 33.85 20.8104 33.8522 20.8185C33.8544 20.8266 33.8547 20.835 33.8533 20.8433C33.8547 20.8516 33.8544 20.86 33.8522 20.8681C33.85 20.8762 33.8461 20.8838 33.8407 20.8902C33.8353 20.8966 33.8286 20.9018 33.821 20.9053C33.8134 20.9089 33.8051 20.9107 33.7967 20.9107C33.7883 20.9107 33.78 20.9089 33.7724 20.9053C33.7648 20.9018 33.7581 20.8966 33.7527 20.8902C33.7473 20.8838 33.7434 20.8762 33.7412 20.8681C33.739 20.86 33.7387 20.8516 33.7401 20.8433ZM33.7401 21.2873C33.7425 21.2739 33.7494 21.2619 33.7598 21.2532C33.7701 21.2445 33.7832 21.2398 33.7967 21.2398C33.8102 21.2398 33.8233 21.2445 33.8336 21.2532C33.844 21.2619 33.851 21.2739 33.8533 21.2873C33.8547 21.2955 33.8544 21.304 33.8522 21.3121C33.85 21.3202 33.8461 21.3277 33.8407 21.3342C33.8353 21.3406 33.8286 21.3457 33.821 21.3493C33.8134 21.3528 33.8051 21.3547 33.7967 21.3547C33.7883 21.3547 33.78 21.3528 33.7724 21.3493C33.7648 21.3457 33.7581 21.3406 33.7527 21.3342C33.7473 21.3277 33.7434 21.3202 33.7412 21.3121C33.739 21.304 33.7387 21.2955 33.7401 21.2873Z" fill="#078634"/>
<path d="M46.2311 8.61968C45.8178 8.20618 45.2572 7.9738 44.6726 7.97363C44.088 7.97347 43.5273 8.20555 43.1138 8.61881C42.7003 9.03207 42.4679 9.59266 42.4678 10.1773C42.4676 10.7619 42.6997 11.3226 43.1129 11.7361L44.6711 13.303L46.2381 11.7361C46.6503 11.3218 46.8811 10.7608 46.8798 10.1764C46.8785 9.59204 46.6452 9.03208 46.2311 8.61968ZM45.3937 10.9004C45.251 11.043 45.0692 11.1401 44.8713 11.1794C44.6734 11.2187 44.4683 11.1985 44.2819 11.1213C44.0955 11.044 43.9362 10.9132 43.8242 10.7455C43.7121 10.5777 43.6523 10.3805 43.6523 10.1787C43.6523 9.97699 43.7121 9.77977 43.8242 9.61201C43.9362 9.44425 44.0955 9.31348 44.2819 9.23624C44.4683 9.159 44.6734 9.13876 44.8713 9.17807C45.0692 9.21738 45.251 9.31449 45.3937 9.4571C45.4885 9.55185 45.5637 9.66435 45.615 9.78817C45.6663 9.91199 45.6927 10.0447 45.6927 10.1787C45.6927 10.3128 45.6663 10.4455 45.615 10.5693C45.5637 10.6931 45.4885 10.8056 45.3937 10.9004Z" fill="#078634"/>
</svg>
