<svg width="69" height="69" viewBox="0 0 69 69" fill="none" xmlns="http://www.w3.org/2000/svg">
<rect width="69" height="69" rx="34.5" fill="#F5F5F5"/>
<path d="M54.7477 10.3027H27.3975C26.9293 10.3027 26.5498 10.6823 26.5498 11.1505V37.7773C26.5498 38.2455 26.9293 38.625 27.3975 38.625H54.7477C55.2159 38.625 55.5954 38.2455 55.5954 37.7773V11.1505C55.5954 10.6823 55.2159 10.3027 54.7477 10.3027Z" fill="white"/>
<mask id="mask0_638_22863" style="mask-type:luminance" maskUnits="userSpaceOnUse" x="26" y="10" width="30" height="29">
<path d="M54.7487 10.3027H27.3985C26.9303 10.3027 26.5508 10.6823 26.5508 11.1505V37.7773C26.5508 38.2455 26.9303 38.625 27.3985 38.625H54.7487C55.2168 38.625 55.5964 38.2455 55.5964 37.7773V11.1505C55.5964 10.6823 55.2168 10.3027 54.7487 10.3027Z" fill="white"/>
</mask>
<g mask="url(#mask0_638_22863)">
<path d="M51.094 36.3857H44.361C43.9405 36.3857 43.5372 36.2186 43.2398 35.9212C42.9425 35.6239 42.7754 35.2206 42.7754 34.8C42.7754 34.3795 42.9425 33.9762 43.2398 33.6788C43.5372 33.3814 43.9405 33.2144 44.361 33.2144H51.094C51.5145 33.2144 51.9179 33.3814 52.2152 33.6788C52.5126 33.9762 52.6797 34.3795 52.6797 34.8C52.6797 35.2206 52.5126 35.6239 52.2152 35.9212C51.9179 36.2186 51.5145 36.3857 51.094 36.3857Z" fill="#0F913D" stroke="#263238" stroke-width="0.3" stroke-linecap="round" stroke-linejoin="round"/>
<path d="M46.0064 35.5783H45.749L45.7051 35.2831H45.3916L45.3477 35.5783H45.1172L45.377 33.9561H45.7502L46.0064 35.5783ZM45.4246 35.0636H45.6685L45.5465 34.2427L45.4246 35.0636Z" fill="#263238"/>
<path d="M46.8615 34.9731V35.1877C46.8615 35.4475 46.7322 35.5963 46.4821 35.5963C46.2321 35.5963 46.1016 35.4475 46.1016 35.1877V34.3449C46.1016 34.0851 46.2309 33.9375 46.4821 33.9375C46.7334 33.9375 46.8615 34.0851 46.8615 34.3449V34.5022H46.6175V34.329C46.6175 34.2132 46.5663 34.1692 46.4846 34.1692C46.4028 34.1692 46.3528 34.2132 46.3528 34.329V35.2048C46.3528 35.3207 46.4041 35.3622 46.4846 35.3622C46.5651 35.3622 46.6175 35.3207 46.6175 35.2048V34.9731H46.8615Z" fill="#263238"/>
<path d="M47.7579 34.9731V35.1877C47.7579 35.4475 47.6274 35.5963 47.3774 35.5963C47.1273 35.5963 46.998 35.4475 46.998 35.1877V34.3449C46.998 34.0851 47.1273 33.9375 47.3774 33.9375C47.6274 33.9375 47.7579 34.0851 47.7579 34.3449V34.5022H47.514V34.329C47.514 34.2132 47.4628 34.1692 47.3823 34.1692C47.3018 34.1692 47.2505 34.2132 47.2505 34.329V35.2048C47.2505 35.3207 47.3005 35.3622 47.3823 35.3622C47.464 35.3622 47.514 35.3207 47.514 35.2048V34.9731H47.7579Z" fill="#263238"/>
<path d="M48.167 34.6391H48.5171V34.8709H48.167V35.3466H48.6074V35.5783H47.9121V33.9561H48.6074V34.1902H48.167V34.6391Z" fill="#263238"/>
<path d="M49.5211 34.3561V34.5671C49.5211 34.8269 49.3992 34.9684 49.1406 34.9684H49.0186V35.5783H48.7637V33.9561H49.143C49.3955 33.9561 49.5211 34.0975 49.5211 34.3561ZM49.021 34.1902V34.7391H49.143C49.2247 34.7391 49.265 34.7025 49.265 34.5867V34.3427C49.265 34.2207 49.2211 34.1902 49.143 34.1902H49.021Z" fill="#263238"/>
<path d="M49.5645 33.9561H50.3524V34.1902H50.0865V35.5807H49.8316V34.1902H49.5645V33.9561Z" fill="#263238"/>
<path d="M37.7783 36.3857H31.0466C30.6261 36.3857 30.2227 36.2186 29.9254 35.9212C29.628 35.6239 29.4609 35.2206 29.4609 34.8C29.4609 34.3795 29.628 33.9762 29.9254 33.6788C30.2227 33.3814 30.6261 33.2144 31.0466 33.2144H37.7783C38.1989 33.2144 38.6022 33.3814 38.8996 33.6788C39.1969 33.9762 39.364 34.3795 39.364 34.8C39.364 35.2206 39.1969 35.6239 38.8996 35.9212C38.6022 36.2186 38.1989 36.3857 37.7783 36.3857Z" fill="#0F913D"/>
<mask id="mask1_638_22863" style="mask-type:luminance" maskUnits="userSpaceOnUse" x="29" y="33" width="11" height="4">
<path d="M37.7744 36.3852H31.0427C30.6221 36.3852 30.2188 36.2181 29.9215 35.9208C29.6241 35.6234 29.457 35.2201 29.457 34.7995C29.457 34.379 29.6241 33.9757 29.9215 33.6783C30.2188 33.3809 30.6221 33.2139 31.0427 33.2139H37.7744C38.195 33.2139 38.5983 33.3809 38.8956 33.6783C39.193 33.9757 39.3601 34.379 39.3601 34.7995C39.3601 35.2201 39.193 35.6234 38.8956 35.9208C38.5983 36.2181 38.195 36.3852 37.7744 36.3852Z" fill="white"/>
</mask>
<g mask="url(#mask1_638_22863)">
<path opacity="0.6" d="M37.7744 36.3852H31.0427C30.6221 36.3852 30.2188 36.2181 29.9215 35.9208C29.6241 35.6234 29.457 35.2201 29.457 34.7995C29.457 34.379 29.6241 33.9757 29.9215 33.6783C30.2188 33.3809 30.6221 33.2139 31.0427 33.2139H37.7744C38.195 33.2139 38.5983 33.3809 38.8956 33.6783C39.193 33.9757 39.3601 34.379 39.3601 34.7995C39.3601 35.2201 39.193 35.6234 38.8956 35.9208C38.5983 36.2181 38.195 36.3852 37.7744 36.3852Z" fill="white"/>
</g>
<path d="M37.7783 36.3857H31.0466C30.6261 36.3857 30.2227 36.2186 29.9254 35.9212C29.628 35.6239 29.4609 35.2206 29.4609 34.8C29.4609 34.3795 29.628 33.9762 29.9254 33.6788C30.2227 33.3814 30.6261 33.2144 31.0466 33.2144H37.7783C38.1989 33.2144 38.6022 33.3814 38.8996 33.6788C39.1969 33.9762 39.364 34.3795 39.364 34.8C39.364 35.2206 39.1969 35.6239 38.8996 35.9212C38.6022 36.2186 38.1989 36.3857 37.7783 36.3857Z" stroke="#263238" stroke-width="0.3" stroke-linecap="round" stroke-linejoin="round"/>
<path d="M31.623 33.9561H32.0268C32.2817 33.9561 32.4061 34.0975 32.4061 34.3561V35.177C32.4061 35.4368 32.2841 35.5783 32.0268 35.5783H31.623V33.9561ZM31.878 34.1878V35.3466H32.0219C32.1024 35.3466 32.1512 35.3039 32.1512 35.188V34.3452C32.1512 34.2293 32.1024 34.1878 32.0219 34.1878H31.878Z" fill="#263238"/>
<path d="M32.8233 34.6391H33.1733V34.8709H32.8233V35.3466H33.2636V35.5783H32.5684V33.9561H33.2636V34.1902H32.8233V34.6391Z" fill="#263238"/>
<path d="M34.1622 34.9731V35.1877C34.1622 35.4475 34.0329 35.5963 33.7817 35.5963C33.5304 35.5963 33.4023 35.4475 33.4023 35.1877V34.3449C33.4023 34.0851 33.5316 33.9375 33.7817 33.9375C34.0317 33.9375 34.1622 34.0851 34.1622 34.3449V34.5022H33.9183V34.329C33.9183 34.2132 33.8683 34.1692 33.7866 34.1692C33.7048 34.1692 33.6548 34.2132 33.6548 34.329V35.2048C33.6548 35.3207 33.7061 35.3622 33.7866 35.3622C33.8671 35.3622 33.9183 35.3207 33.9183 35.2048V34.9731H34.1622Z" fill="#263238"/>
<path d="M34.3164 33.9561H34.5713V35.3466H34.9934V35.5783H34.3188L34.3164 33.9561Z" fill="#263238"/>
<path d="M35.1035 33.9561H35.3597V35.5783H35.1035V33.9561Z" fill="#263238"/>
<path d="M35.7762 34.4025V35.5783H35.5469V33.9561H35.8664L36.1238 34.9318V33.9561H36.3507V35.5783H36.0921L35.7762 34.4025Z" fill="#263238"/>
<path d="M36.7881 34.6391H37.1382V34.8709H36.7881V35.3466H37.2285V35.5783H36.5332V33.9561H37.2285V34.1902H36.7881V34.6391Z" fill="#263238"/>
<path d="M47.6795 23.0908C47.6795 24.3985 47.2917 25.6769 46.5651 26.7643C45.8386 27.8517 44.8059 28.6992 43.5977 29.1996C42.3894 29.7001 41.0599 29.831 39.7773 29.5759C38.4947 29.3208 37.3165 28.691 36.3917 27.7663C35.467 26.8416 34.8373 25.6634 34.5821 24.3807C34.327 23.0981 34.4579 21.7686 34.9584 20.5604C35.4589 19.3522 36.3064 18.3195 37.3937 17.5929C38.4811 16.8664 39.7595 16.4786 41.0673 16.4786C41.9365 16.4752 42.7979 16.6439 43.6017 16.975C44.4054 17.3061 45.1357 17.793 45.7504 18.4077C46.365 19.0224 46.8519 19.7526 47.183 20.5564C47.5141 21.3601 47.6829 22.2215 47.6795 23.0908Z" fill="#0F913D" stroke="#263238" stroke-width="0.5" stroke-linecap="round" stroke-linejoin="round"/>
<path d="M46.562 26.768C45.9699 27.652 45.1732 28.3801 44.2396 28.8903C43.306 29.4006 42.263 29.6781 41.1992 29.6992C40.1355 29.7203 39.0823 29.4843 38.1292 29.0114C37.1761 28.5385 36.3513 27.8425 35.7246 26.9827C35.7636 26.9168 35.8027 26.851 35.8466 26.7863C36.0905 26.3826 37.5835 25.7434 39.6949 25.5141C40.1713 25.4617 40.65 25.4332 41.1293 25.4287C41.6483 25.4238 42.167 25.454 42.682 25.519C44.5165 25.7483 46.0424 26.3557 46.562 26.768Z" fill="#757575" stroke="#263238" stroke-width="0.3" stroke-linecap="round" stroke-linejoin="round"/>
<path d="M42.8374 25.6755C42.6727 25.9671 42.4323 26.2088 42.1416 26.3752C41.851 26.5415 41.5208 26.6264 41.1859 26.6208C40.2101 26.6208 39.5039 25.7768 39.5039 25.7768C39.8454 25.4706 39.8698 24.9022 39.8162 24.4546C39.794 24.2352 39.7532 24.0181 39.6942 23.8057H42.6045C42.4276 24.3875 42.4337 24.8046 42.502 25.0949C42.5984 25.5231 42.8374 25.6755 42.8374 25.6755Z" fill="white" stroke="#263238" stroke-width="0.3" stroke-linecap="round" stroke-linejoin="round"/>
<path d="M42.4951 25.0949C40.3923 25.6462 39.9751 24.4448 39.9751 24.4448L39.8153 24.4546C39.7932 24.2352 39.7523 24.0181 39.6934 23.8057H42.6037C42.4207 24.3875 42.4268 24.8046 42.4951 25.0949Z" fill="#263238"/>
<path d="M43.2306 21.762C43.2306 21.762 43.4648 21.5071 43.5807 21.5913C43.6583 21.6548 43.7169 21.7385 43.7501 21.8332C43.7832 21.9279 43.7896 22.0299 43.7685 22.1279C43.7063 22.3451 43.4343 22.722 43.4123 22.9415C43.3904 23.1611 43.2513 23.4099 43.0964 23.2647C42.9415 23.1196 43.2306 21.762 43.2306 21.762Z" fill="white" stroke="#263238" stroke-width="0.3" stroke-linecap="round" stroke-linejoin="round"/>
<path d="M39.054 21.762C39.054 21.762 38.8198 21.5071 38.7039 21.5913C38.6263 21.6548 38.5677 21.7385 38.5345 21.8332C38.5014 21.9279 38.495 22.0299 38.5161 22.1279C38.5783 22.3451 38.8503 22.722 38.8723 22.9415C38.8942 23.1611 39.0333 23.4099 39.1882 23.2647C39.3431 23.1196 39.054 21.762 39.054 21.762Z" fill="white" stroke="#263238" stroke-width="0.3" stroke-linecap="round" stroke-linejoin="round"/>
<path d="M41.0928 18.8213C44.0409 18.8213 43.3395 22.7464 42.8004 24.0064C42.6101 24.4492 41.6221 25.0297 41.1452 25.0297C40.7012 25.0297 39.6815 24.3357 39.5059 23.9198C38.9546 22.6513 38.2874 18.8213 41.0928 18.8213Z" fill="white" stroke="#263238" stroke-width="0.3" stroke-linecap="round" stroke-linejoin="round"/>
<path d="M41.5918 21.2427C41.5918 21.2427 42.359 21.0049 42.5969 21.4793" stroke="#263238" stroke-width="0.2" stroke-linecap="round" stroke-linejoin="round"/>
<path d="M42.1612 21.8881C42.1612 21.9783 42.1149 22.0515 42.0588 22.0515C42.0026 22.0515 41.9551 21.9783 41.9551 21.8881C41.9551 21.7978 42.0014 21.7246 42.0588 21.7246C42.1161 21.7246 42.1612 21.7978 42.1612 21.8881Z" fill="#263238"/>
<path d="M40.6926 21.2427C40.6926 21.2427 39.9253 21.0049 39.6875 21.4793" stroke="#263238" stroke-width="0.2" stroke-linecap="round" stroke-linejoin="round"/>
<path d="M40.123 21.8881C40.123 21.9783 40.1694 22.0515 40.2255 22.0515C40.2816 22.0515 40.3292 21.9783 40.3292 21.8881C40.3292 21.7978 40.2828 21.7246 40.2255 21.7246C40.1682 21.7246 40.123 21.7978 40.123 21.8881Z" fill="#263238"/>
<path d="M42.3113 19.8227C41.5726 20.0586 40.7788 20.0586 40.0401 19.8227C40.0401 19.8227 39.6413 19.7995 39.4851 19.9996C39.329 20.1996 39.4852 20.8168 39.5266 21.068C39.5681 21.3193 39.1814 21.4937 39.2339 22.128L39.0839 22.3476C39.0839 22.3476 38.6679 21.3254 38.7728 20.4472C38.8777 19.569 39.4327 19.2275 39.4327 19.2275C39.4327 19.2275 39.6852 18.4676 41.1684 18.4737C42.7675 18.4798 42.9285 19.3446 42.9285 19.3446C42.9285 19.3446 44.0116 20.0679 43.2102 22.422L43.037 22.1292C43.0783 21.817 43.0065 21.5003 42.8345 21.2364C42.6943 21.0327 42.9175 20.4204 42.865 20.1057C42.8126 19.791 42.3113 19.8227 42.3113 19.8227Z" fill="#263238"/>
<path d="M41.3182 21.7246C41.3182 21.7246 41.3268 22.4418 41.5146 22.6748C41.6109 22.7968 41.4231 23.0529 41.1328 23.0993" stroke="#263238" stroke-width="0.2" stroke-linecap="round" stroke-linejoin="round"/>
<path d="M40.498 23.5151C40.5184 23.5891 40.5531 23.6582 40.6002 23.7187C40.6473 23.7792 40.7058 23.8298 40.7725 23.8676C40.9737 23.9542 41.5861 23.9177 41.7019 23.8457C41.8178 23.7737 41.8751 23.5383 41.8751 23.5383" fill="white"/>
<path d="M40.498 23.5151C40.5184 23.5891 40.5531 23.6582 40.6002 23.7187C40.6473 23.7792 40.7058 23.8298 40.7725 23.8676C40.9737 23.9542 41.5861 23.9177 41.7019 23.8457C41.8178 23.7737 41.8751 23.5383 41.8751 23.5383" stroke="#263238" stroke-width="0.2" stroke-linecap="round" stroke-linejoin="round"/>
<path d="M40.4316 23.5005C40.9334 23.608 41.4522 23.608 41.9539 23.5005" stroke="#263238" stroke-width="0.2" stroke-linecap="round" stroke-linejoin="round"/>
<path d="M42.5981 19.8532C42.5981 19.8532 42.2688 20.3411 41.1857 20.4472C41.2683 20.3704 41.3336 20.2768 41.3772 20.1727C41.2134 20.2927 41.0273 20.3788 40.8297 20.4259C40.6322 20.473 40.4273 20.4803 40.227 20.4472C40.0208 20.4193 39.811 20.4459 39.6183 20.5245C39.4257 20.603 39.2571 20.7307 39.1292 20.8948L38.9463 21.7242C38.9463 21.7242 38.2986 20.9924 38.7596 19.8166L38.5938 19.9544C38.5938 19.9544 38.7779 18.3822 40.6673 18.3248L40.438 18.187C40.438 18.187 42.32 17.7857 43.0568 19.025C43.0568 19.025 43.7118 19.1469 43.8728 20.2801L43.6886 20.1581C43.6886 20.1581 43.9801 21.0985 43.3751 21.8852C43.3702 21.8877 42.5981 20.6423 42.5981 19.8532Z" fill="#263238"/>
<path opacity="0.5" d="M48.2593 14.4936H33.8835C33.7865 14.4936 33.6934 14.455 33.6248 14.3864C33.5561 14.3178 33.5176 14.2247 33.5176 14.1276C33.5176 14.0306 33.5561 13.9375 33.6248 13.8689C33.6934 13.8003 33.7865 13.7617 33.8835 13.7617H48.2593C48.3564 13.7617 48.4494 13.8003 48.5181 13.8689C48.5867 13.9375 48.6252 14.0306 48.6252 14.1276C48.6252 14.2247 48.5867 14.3178 48.5181 14.3864C48.4494 14.455 48.3564 14.4936 48.2593 14.4936Z" fill="#263238"/>
<g opacity="0.4">
<path d="M47.233 30.7334H34.9076C34.8886 30.7334 34.8698 30.7297 34.8522 30.7223C34.8347 30.715 34.8188 30.7043 34.8054 30.6908C34.792 30.6773 34.7814 30.6613 34.7743 30.6437C34.7671 30.6261 34.7635 30.6073 34.7637 30.5883C34.7637 30.5501 34.7788 30.5135 34.8058 30.4865C34.8328 30.4595 34.8694 30.4443 34.9076 30.4443H47.233C47.252 30.4442 47.2709 30.4478 47.2885 30.4549C47.3061 30.4621 47.3221 30.4727 47.3356 30.4861C47.3491 30.4994 47.3598 30.5154 47.3671 30.5329C47.3744 30.5505 47.3782 30.5693 47.3782 30.5883C47.3782 30.6268 47.3629 30.6637 47.3357 30.6909C47.3085 30.7181 47.2715 30.7334 47.233 30.7334Z" fill="black"/>
<path d="M46.0143 31.5069H36.1283C36.1093 31.5069 36.0905 31.5031 36.0729 31.4958C36.0554 31.4885 36.0395 31.4778 36.0261 31.4643C36.0127 31.4508 36.0021 31.4348 35.995 31.4172C35.9878 31.3996 35.9842 31.3807 35.9844 31.3617C35.9844 31.3235 35.9995 31.2869 36.0265 31.2599C36.0535 31.2329 36.0901 31.2178 36.1283 31.2178H46.0143C46.0333 31.2176 46.0521 31.2212 46.0697 31.2284C46.0873 31.2355 46.1033 31.2461 46.1168 31.2595C46.1303 31.2729 46.141 31.2888 46.1484 31.3063C46.1557 31.3239 46.1594 31.3427 46.1594 31.3617C46.1594 31.4002 46.1441 31.4371 46.1169 31.4643C46.0897 31.4916 46.0528 31.5069 46.0143 31.5069Z" fill="black"/>
</g>
<path d="M47.5802 26.1543H45.5249C45.2016 26.1543 44.9395 26.4164 44.9395 26.7398V28.795C44.9395 29.1184 45.2016 29.3805 45.5249 29.3805H47.5802C47.9035 29.3805 48.1657 29.1184 48.1657 28.795V26.7398C48.1657 26.4164 47.9035 26.1543 47.5802 26.1543Z" fill="#263238" stroke="white" stroke-width="0.5" stroke-linecap="round" stroke-linejoin="round"/>
<path d="M47.3552 27.5854H46.7355V26.9658H46.3696V27.5854H45.75V27.9514H46.3696V28.5698H46.7355V27.9514H47.3552V27.5854Z" fill="white"/>
<path opacity="0.3" d="M54.7784 11.6568C54.7784 11.7745 54.7434 11.8896 54.678 11.9874C54.6126 12.0853 54.5197 12.1616 54.4109 12.2067C54.3021 12.2517 54.1825 12.2635 54.067 12.2405C53.9515 12.2176 53.8455 12.1609 53.7622 12.0776C53.679 11.9944 53.6223 11.8883 53.5993 11.7729C53.5764 11.6574 53.5881 11.5377 53.6332 11.429C53.6783 11.3202 53.7545 11.2272 53.8524 11.1618C53.9503 11.0964 54.0654 11.0615 54.1831 11.0615C54.341 11.0615 54.4924 11.1242 54.604 11.2359C54.7156 11.3475 54.7784 11.4989 54.7784 11.6568Z" fill="black"/>
<path opacity="0.3" d="M53.0713 11.6568C53.0713 11.7745 53.0364 11.8896 52.971 11.9874C52.9056 12.0853 52.8126 12.1616 52.7039 12.2067C52.5951 12.2517 52.4754 12.2635 52.36 12.2405C52.2445 12.2176 52.1384 12.1609 52.0552 12.0776C51.972 11.9944 51.9153 11.8883 51.8923 11.7729C51.8693 11.6574 51.8811 11.5377 51.9262 11.429C51.9712 11.3202 52.0475 11.2272 52.1454 11.1618C52.2433 11.0964 52.3584 11.0615 52.4761 11.0615C52.634 11.0615 52.7854 11.1242 52.897 11.2359C53.0086 11.3475 53.0713 11.4989 53.0713 11.6568Z" fill="black"/>
<path opacity="0.3" d="M43.4658 35.6538C43.4658 35.6538 44.2294 35.8185 44.2562 36.3747C44.3147 37.57 44.3123 37.6066 43.4731 37.5005C43.4731 37.5005 42.9657 38.197 41.7362 37.997L41.3154 38.6288H39.1406C39.7444 37.9079 40.2299 37.3115 40.4421 37.0285C41.2215 35.9905 44.8636 34.4609 44.8636 34.4609C44.8636 34.4609 44.849 34.8574 43.4658 35.6538Z" fill="black" fill-opacity="0.7"/>
</g>
<path d="M54.7477 10.3027H27.3975C26.9293 10.3027 26.5498 10.6823 26.5498 11.1505V37.7773C26.5498 38.2455 26.9293 38.625 27.3975 38.625H54.7477C55.2159 38.625 55.5954 38.2455 55.5954 37.7773V11.1505C55.5954 10.6823 55.2159 10.3027 54.7477 10.3027Z" stroke="#263238" stroke-width="0.3" stroke-linecap="round" stroke-linejoin="round"/>
<path d="M15.9903 55.7961C15.9903 55.7961 16.2049 54.2336 16.3647 53.5896C16.5245 52.9456 17.4625 50.4537 17.6662 49.0583L15.2584 47.1396C15.2584 47.1396 14.3509 51.8198 14.3509 52.5541L13.8545 54.1531" fill="white"/>
<path d="M15.9903 55.7961C15.9903 55.7961 16.2049 54.2336 16.3647 53.5896C16.5245 52.9456 17.4625 50.4537 17.6662 49.0583L15.2584 47.1396C15.2584 47.1396 14.3509 51.8198 14.3509 52.5541L13.8545 54.1531" stroke="#263238" stroke-width="0.3" stroke-linecap="round" stroke-linejoin="round"/>
<path d="M18.3763 50.8231C17.873 50.4393 17.3762 50.0327 16.8858 49.6033C16.1771 48.9935 15.4868 48.3299 14.8232 47.6335C14.9838 46.8551 15.1833 46.0853 15.4209 45.327C15.6475 44.6137 16.1308 44.0099 16.7773 43.6327L16.8017 43.6181L16.9151 43.5547C16.9858 43.5169 17.0541 43.4827 17.12 43.4534C17.3367 43.3535 17.5643 43.279 17.7982 43.2314L18.3166 50.0461L18.3763 50.8231Z" fill="#0F913D"/>
<mask id="mask2_638_22863" style="mask-type:luminance" maskUnits="userSpaceOnUse" x="14" y="43" width="5" height="8">
<path d="M18.3734 50.8236C17.8701 50.4398 17.3732 50.0332 16.8829 49.6038C16.1742 48.994 15.4838 48.3304 14.8203 47.634C14.9808 46.8556 15.1803 46.0858 15.418 45.3274C15.6446 44.6142 16.1279 44.0104 16.7743 43.6332L16.7987 43.6186L16.9122 43.5552C16.9829 43.5174 17.0512 43.4832 17.1171 43.4539C17.3338 43.354 17.5614 43.2795 17.7953 43.2319L18.3136 50.0466L18.3734 50.8236Z" fill="white"/>
</mask>
<g mask="url(#mask2_638_22863)">
<path opacity="0.3" d="M18.3734 50.8236C17.8701 50.4398 17.3732 50.0332 16.8829 49.6038C16.1742 48.994 15.4838 48.3304 14.8203 47.634C14.9808 46.8556 15.1803 46.0858 15.418 45.3274C15.6446 44.6142 16.1279 44.0104 16.7743 43.6332L16.7987 43.6186L16.9122 43.5552C16.9829 43.5174 17.0512 43.4832 17.1171 43.4539C17.3338 43.354 17.5614 43.2795 17.7953 43.2319L18.3136 50.0466L18.3734 50.8236Z" fill="black" fill-opacity="0.7"/>
</g>
<path d="M18.3763 50.8231C17.873 50.4393 17.3762 50.0327 16.8858 49.6033C16.1771 48.9935 15.4868 48.3299 14.8232 47.6335C14.9838 46.8551 15.1833 46.0853 15.4209 45.327C15.6475 44.6137 16.1308 44.0099 16.7773 43.6327L16.8017 43.6181L16.9151 43.5547C16.9858 43.5169 17.0541 43.4827 17.12 43.4534C17.3367 43.3535 17.5643 43.279 17.7982 43.2314L18.3166 50.0461L18.3763 50.8231Z" stroke="#263238" stroke-width="0.5" stroke-linecap="round" stroke-linejoin="round"/>
<path d="M15.8682 47.0361C15.8682 47.0361 16.1487 48.9426 17.4367 49.6695" stroke="#263238" stroke-width="0.5" stroke-linecap="round" stroke-linejoin="round"/>
<path d="M28.7816 48.5824C28.7816 49.5582 27.9876 53.5052 27.9876 53.5052L27.9607 56.973C27.9607 56.973 26.3177 57.5182 23.666 57.5182C20.4167 57.5182 18.9774 56.6485 18.8505 56.5668L18.8408 56.5607L19.3287 54.1566C19.3287 54.1566 16.7672 48.1116 16.7172 47.9042C16.6379 47.5968 16.5696 47.2858 16.5147 46.976C16.3721 46.2603 16.3347 45.5277 16.4037 44.8012C16.4417 44.3909 16.5625 43.9926 16.7587 43.6303C16.7725 43.6059 16.7871 43.5815 16.8026 43.5571C16.8687 43.4504 16.946 43.351 17.0331 43.2607L17.0563 43.2363C17.1367 43.1559 17.2227 43.0813 17.3137 43.0131C17.3441 42.9899 17.3759 42.9679 17.4076 42.946L17.4869 42.8923L17.5381 42.8594L17.6052 42.8179L17.7088 42.7582C19.6348 41.6909 23.2196 41.8555 23.2196 41.8555C23.2591 41.8427 23.3001 41.8349 23.3416 41.8324H23.3501C23.4217 41.8282 23.4936 41.8339 23.5636 41.8494C24.4564 42.0226 26.0909 43.4802 27.2948 45.1427C27.6563 45.6335 27.9754 46.1542 28.2486 46.6991C28.5779 47.3627 28.7816 48.0164 28.7816 48.5824Z" fill="#0F913D"/>
<path opacity="0.3" d="M28.7593 48.2482C28.1125 48.0475 27.5018 47.7448 26.9504 47.3517C26.0856 47.5139 25.2513 46.6528 25.0342 46.1917L27.8713 46.0088C28.0091 46.2357 28.1335 46.4638 28.2445 46.6894C28.5 47.1774 28.6739 47.704 28.7593 48.2482Z" fill="black" fill-opacity="0.7"/>
<path opacity="0.3" d="M19.9054 54.7739C19.9054 54.7739 20.5433 57.5037 18.8503 56.5633L18.8405 56.5572L19.3284 54.1531C19.3284 54.1531 16.767 48.1081 16.717 47.9007C16.6377 47.5933 16.5694 47.2823 16.5145 46.9725C16.3722 46.258 16.3348 45.5266 16.4035 44.8014C16.4415 44.3911 16.5622 43.9927 16.7584 43.6304C16.7723 43.606 16.7869 43.5816 16.8023 43.5572C16.8685 43.4505 16.9457 43.3512 17.0329 43.2608L17.0561 43.2364C17.1364 43.156 17.2224 43.0814 17.3134 43.0132C17.3439 42.9901 17.3756 42.9681 17.4073 42.9461L17.4866 42.8925L17.5378 42.8595L17.6049 42.8181L17.7086 42.7583C19.4809 42.8949 21.4508 43.7341 21.8313 45.4564C21.8313 45.4564 21.6703 48.0946 21.0909 49.0595C20.7311 49.6608 20.6091 52.4686 22.3887 51.6563C21.8325 54.4592 19.9054 54.7739 19.9054 54.7739Z" fill="black" fill-opacity="0.7"/>
<path d="M18.8405 56.557L19.3284 54.1529C19.3284 54.1529 16.767 48.1079 16.717 47.9006C16.6377 47.5932 16.5694 47.2822 16.5145 46.9723C16.3722 46.2579 16.3348 45.5265 16.4035 44.8012C16.4415 44.3909 16.5622 43.9926 16.7584 43.6303C16.7723 43.6059 16.7869 43.5815 16.8023 43.5571C16.8685 43.4504 16.9457 43.351 17.0329 43.2607L17.0561 43.2363C17.1364 43.1559 17.2224 43.0813 17.3134 43.0131C19.0894 41.6714 23.2194 41.8555 23.2194 41.8555C23.2589 41.8427 23.2999 41.8349 23.3414 41.8324H23.3499C23.4215 41.8282 23.4933 41.8339 23.5633 41.8494C24.4562 42.0226 26.0906 43.4802 27.2945 45.1427C27.6561 45.6335 27.9752 46.1542 28.2484 46.6991C28.5813 47.3736 28.785 48.0262 28.785 48.5885C28.785 49.5643 27.991 53.5114 27.991 53.5114L27.9642 56.9791" stroke="#263238" stroke-width="0.5" stroke-linecap="round" stroke-linejoin="round"/>
<path d="M25.0072 36.3313C24.8621 36.1508 24.2144 35.7214 24.2144 35.7214C24.0924 34.8786 24.0168 33.754 23.1435 32.8819C21.9493 31.6902 19.194 32.0671 18.2913 33.8443C16.4898 37.3949 19.8953 40.7394 24.0631 40.032C24.4181 39.9722 24.6572 39.6246 24.7059 37.9743L24.8169 37.7438C24.8169 37.7438 24.7023 37.3498 24.6669 37.1522C24.8767 36.9497 25.1121 36.463 25.0072 36.3313Z" fill="white" stroke="#263238" stroke-width="0.3" stroke-linecap="round" stroke-linejoin="round"/>
<path d="M23.9832 34.4033C23.8763 34.5773 23.7942 34.7653 23.7393 34.962" stroke="#263238" stroke-width="0.5" stroke-linecap="round" stroke-linejoin="round"/>
<path d="M24.0459 35.9912C24.0459 35.9912 24.3362 36.1669 24.4679 36.7231" stroke="#263238" stroke-width="0.3" stroke-linecap="round" stroke-linejoin="round"/>
<path d="M24.7798 37.8271C24.7798 37.8271 24.6664 38.0101 24.1943 37.9564" stroke="#263238" stroke-width="0.3" stroke-linecap="round" stroke-linejoin="round"/>
<path d="M23.5425 32.4211C23.5425 32.4211 24.6402 31.9686 24.3231 34.1154C24.006 36.2621 22.4191 38.815 21.0811 38.3369L21.1042 38.1454C21.1042 38.1454 22.2752 38.6077 23.2607 36.5719C24.2463 34.5362 24.1645 32.6688 23.601 32.9969L23.5425 32.4211Z" fill="#263238"/>
<path d="M23.4436 35.7485C23.4436 35.7485 23.024 36.8548 22.6886 37.2122C22.6886 37.2122 22.5532 36.789 22.23 36.7853C21.9068 36.7817 21.6201 35.9217 21.6201 35.9217L23.4436 35.7485Z" fill="#263238"/>
<path d="M22.9914 35.7998C22.9914 35.7998 22.2205 37.6794 22.7852 39.1309C23.35 40.5824 24.9417 41.6728 24.9417 41.6728L24.4282 41.4399C24.4282 41.4399 23.0768 40.5507 22.6047 39.0114C22.3273 38.035 22.3206 37.0017 22.5852 36.0218L22.9914 35.7998Z" fill="#263238"/>
<path d="M16.6385 33.2979C16.6385 33.2979 15.3541 33.8236 15.4236 35.7276C15.4931 37.6316 16.7983 39.2868 17.0605 41.714C17.2886 43.8254 14.987 45.6843 17.3179 48.1518C17.3179 48.1518 16.297 46.5661 16.608 44.7926C16.919 43.0192 17.9863 43.2741 17.1947 40.387C16.4031 37.4998 14.7235 35.7922 16.4628 33.9516L16.6385 33.2979Z" fill="#263238"/>
<path d="M24.1279 41.185C21.7786 39.875 22.4202 37.0781 22.4202 37.0781C24.1876 35.7754 24.423 33.336 24.0986 32.7078C23.7741 32.0796 23.0667 32.2943 23.0667 32.2943C20.2503 30.9526 16.7838 32.2053 16.1252 34.1776C15.2823 36.7036 16.7228 38.6442 17.4266 40.7641C18.0584 42.6694 16.5948 43.0146 16.5996 44.9113C16.3228 48.4485 19.9503 49.9256 19.9503 49.9256C19.8548 49.8681 19.7757 49.7869 19.7208 49.6899C19.6659 49.5928 19.637 49.4833 19.6368 49.3718C19.6368 48.9852 20.626 48.9852 21.2773 47.8959C21.8177 46.9921 21.8604 44.7881 22.0409 43.722C22.2848 42.7572 22.5898 41.9863 23.2204 41.8461C24.8817 41.474 26.3148 43.0865 26.3148 43.0865C26.3148 43.0865 26.4783 42.495 24.1279 41.185Z" fill="#263238"/>
<g opacity="0.3">
<path d="M23.4395 32.6812C23.6957 33.1312 21.7734 35.5122 21.0769 37.5699C20.3804 39.6276 21.0891 40.8339 21.0891 40.8339" stroke="white" stroke-width="0.5" stroke-linecap="round" stroke-linejoin="round"/>
<path d="M19.1339 33.2983C19.1339 33.2983 17.0421 35.0999 18.2326 38.3944C19.423 41.6889 18.8961 43.9601 18.4997 45.736C18.1033 47.5119 18.4253 48.1218 18.9083 48.6048" stroke="white" stroke-width="0.5" stroke-linecap="round" stroke-linejoin="round"/>
<path d="M21.765 38.7358C21.765 38.7358 22.8871 39.9995 22.1175 41.8254C21.3478 43.6514 20.9295 44.9565 20.6392 46.3775C20.3489 47.7985 19.7061 48.1522 19.7061 48.1522" stroke="white" stroke-width="0.5" stroke-linecap="round" stroke-linejoin="round"/>
<path d="M21.8299 32.3811C21.8299 32.3811 20.6724 32.3274 20.1223 33.807C19.5722 35.2865 20.0906 37.8431 19.8979 38.7359" stroke="white" stroke-width="0.5" stroke-linecap="round" stroke-linejoin="round"/>
<path d="M18.8384 32.3809C18.8384 32.3809 17.1405 32.4516 16.5989 34.7996C16.0574 37.1476 17.6882 39.1211 17.8614 40.9507C18.0346 42.7803 17.0076 44.4745 17.0698 45.7358C17.132 46.997 17.8614 47.6629 17.8614 47.6629" stroke="white" stroke-width="0.5" stroke-linecap="round" stroke-linejoin="round"/>
</g>
<path d="M29.4574 42.0398C29.4574 42.0398 33.1727 42.3167 33.7033 42.3167C34.2339 42.3167 39.1555 37.4377 40.024 36.4778C40.8924 35.5178 44.659 34.3115 44.659 34.3115C44.659 34.3115 44.6114 34.7104 43.1636 35.3764C43.1636 35.3764 43.9089 35.6081 43.8869 36.1643C43.8393 37.3609 43.8332 37.3975 43.0062 37.2157C43.0062 37.2157 42.4391 37.8658 41.2328 37.5572C41.2328 37.5572 38.3383 41.1579 37.0588 42.8021C35.7793 44.4463 35.2499 44.9976 34.7669 45.1769C34.2839 45.3562 28.3975 45.7392 28.3975 45.7392L29.4574 42.0398Z" fill="white" stroke="#263238" stroke-width="0.3" stroke-linecap="round" stroke-linejoin="round"/>
<path d="M24.78 46.4176C26.7071 47.6239 29.9394 46.1285 29.9394 46.1285C29.9394 46.1285 30.5188 43.5036 29.9394 41.824C29.9394 41.824 25.8863 41.0349 23.6663 41.796C23.5508 41.8397 23.4456 41.9071 23.3576 41.9939C23.2696 42.0806 23.2007 42.1848 23.1553 42.2997" fill="#0F913D"/>
<path d="M24.78 46.4176C26.7071 47.6239 29.9394 46.1285 29.9394 46.1285C29.9394 46.1285 30.5188 43.5036 29.9394 41.824C29.9394 41.824 25.8863 41.0349 23.6663 41.796C23.5508 41.8397 23.4456 41.9071 23.3576 41.9939C23.2696 42.0806 23.2007 42.1848 23.1553 42.2997" stroke="#263238" stroke-width="0.5" stroke-linecap="round" stroke-linejoin="round"/>
<path d="M29.4268 41.7363C29.7496 43.0872 29.7763 44.492 29.5048 45.8542" stroke="#263238" stroke-width="0.5" stroke-linecap="round" stroke-linejoin="round"/>
<path d="M28.7822 43.4243C28.7822 43.4243 27.4405 45.6125 25.7256 45.9345" stroke="#263238" stroke-width="0.5" stroke-linecap="round" stroke-linejoin="round"/>
<path d="M27.5336 46.8223C27.5336 46.8223 26.642 47.8798 25.5479 47.8798" stroke="#263238" stroke-width="0.5" stroke-linecap="round" stroke-linejoin="round"/>
<path d="M26.675 46.8887C26.7586 47.0956 26.7586 47.327 26.675 47.5339C26.675 47.5339 26.8262 48.1694 26.5408 49.0854C26.331 49.7612 26.3407 51.6774 26.2432 53.0252C26.2432 53.0252 26.553 54.6511 26.5408 57.0954" stroke="#263238" stroke-width="0.5" stroke-linecap="round" stroke-linejoin="round"/>
<path d="M24.6123 41.5731C24.6123 41.5731 26.2724 41.4633 27.253 42.6209" stroke="#263238" stroke-width="0.5" stroke-linecap="round" stroke-linejoin="round"/>
<path d="M43.5832 36.4927C43.5832 36.4927 43.3393 36.9147 43.0526 37.0111C43.0526 37.0111 43.0307 37.4514 42.2939 37.599" stroke="#263238" stroke-width="0.5" stroke-linecap="round" stroke-linejoin="round"/>
<path d="M43.3799 36.7695C43.4496 36.8104 43.5024 36.8748 43.5287 36.9513" stroke="#263238" stroke-width="0.5" stroke-linecap="round" stroke-linejoin="round"/>
<path d="M19.3232 54.1533C19.3232 54.1533 21.0382 56.3891 22.6726 55.5853" stroke="#263238" stroke-width="0.5" stroke-linecap="round" stroke-linejoin="round"/>
<path d="M23.6662 49.5234C23.6662 49.5234 22.5087 53.0765 19.9033 52.9155" stroke="#263238" stroke-width="0.5" stroke-linecap="round" stroke-linejoin="round"/>
</svg>
