<svg width="69" height="69" viewBox="0 0 69 69" fill="none" xmlns="http://www.w3.org/2000/svg">
<rect width="69" height="69" rx="34.5" fill="#F5F5F5"/>
<path d="M53.334 37.9839H15.501V41.7649H53.334V37.9839Z" fill="#0F913D"/>
<g opacity="0.4">
<path d="M53.334 37.9839H15.501V41.7649H53.334V37.9839Z" fill="black"/>
</g>
<path d="M45.1362 42.2417H33.9688V45.7433H45.1362V42.2417Z" fill="#455A64"/>
<path d="M26.165 40.6582V45.2869H29.9784L31.5068 43.0718H59.3497V40.6582H26.165Z" fill="#263238"/>
<path d="M25.9279 26.001C25.9237 25.9266 25.8905 25.8567 25.8354 25.8066C25.7802 25.7564 25.7076 25.7298 25.6331 25.7326C24.126 25.7948 16.9712 26.1228 15.4999 26.8299C14.3736 27.3718 13.14 29.3943 12.2701 30.7566C11.6465 31.733 10.2689 33.9004 9.99028 35.0088C9.75429 35.9459 9.61201 37.8952 9.6282 38.8622L10.0218 43.979H16.5061L17.1553 42.2888C17.3624 41.7503 17.7279 41.2873 18.2035 40.9608C18.6791 40.6343 19.2424 40.4595 19.8193 40.4596H26.2627V31.9681L25.9279 26.001Z" fill="#0F913D"/>
<path d="M14.7312 27.3965C13.8383 28.2484 12.9421 29.6968 12.2699 30.7566C11.6923 31.6605 10.4688 33.5851 10.0693 34.7455C10.0616 34.7668 10.0556 34.7872 10.0488 34.8085C10.2465 34.754 10.5506 34.6424 10.6452 34.455C10.7875 34.1713 10.9698 33.1992 13.2241 29.5298C13.9091 28.4112 14.577 27.7569 14.7312 27.3965Z" fill="#455A64"/>
<path d="M22.5959 27.0174C20.938 27.1119 17.3436 27.3582 16.1951 27.7484C14.6991 28.2595 13.0199 32.2203 12.9407 32.3941L11.8093 35.2908C11.8029 35.3097 11.8012 35.3299 11.8041 35.3496C11.8071 35.3694 11.8148 35.3881 11.8264 35.4043C11.838 35.4206 11.8534 35.4338 11.8711 35.4429C11.8889 35.4521 11.9086 35.4568 11.9285 35.4569H14.8533C14.9641 35.4569 15.074 35.4373 15.1779 35.399L22.8703 32.5313C23.0401 32.4679 23.1865 32.3541 23.2899 32.2052C23.3933 32.0563 23.4487 31.8793 23.4487 31.698V27.8242C23.4488 27.7143 23.4264 27.6055 23.383 27.5046C23.3395 27.4036 23.276 27.3126 23.1961 27.2371C23.1163 27.1615 23.0219 27.1031 22.9187 27.0653C22.8155 27.0275 22.7057 27.0112 22.5959 27.0174Z" fill="#263238"/>
<path d="M12.1357 35.172C12.1357 35.172 13.2194 32.7414 13.5841 31.9448C14.1344 30.7418 15.42 28.2814 16.2882 28.0164C17.0865 27.777 19.3817 27.4857 22.6123 27.3008H22.643C22.7817 27.3012 22.9146 27.3566 23.0127 27.4548C23.1107 27.553 23.1658 27.686 23.1661 27.8247V31.7864C23.1658 31.884 23.1358 31.9792 23.0801 32.0594C23.0244 32.1396 22.9456 32.2009 22.8542 32.2353L17.1708 32.9365C16.943 32.9646 16.724 33.042 16.5291 33.1632C16.3342 33.2844 16.1679 33.4466 16.042 33.6385L15.0571 35.1405C14.9993 35.1619 14.9381 35.1729 14.8765 35.1729L12.1357 35.172Z" fill="#455A64"/>
<path d="M16.9654 32.9804L15.0332 35.1324L16.1024 27.987L16.3699 27.895L15.8434 33.1882C15.8409 33.2148 15.8453 33.2416 15.8561 33.266C15.867 33.2904 15.8839 33.3116 15.9053 33.3276C15.9266 33.3436 15.9518 33.3538 15.9782 33.3573C16.0047 33.3608 16.0316 33.3575 16.0564 33.3476L16.9654 32.9804Z" fill="#263238"/>
<path d="M9.50092 39.3589C9.49411 39.266 9.52563 39.1885 9.57334 39.1885L10.6093 39.0931C10.6945 39.0846 10.7738 39.2456 10.784 39.4339L10.8308 40.2288C10.8385 40.3566 10.8002 40.4648 10.7456 40.4741L9.68921 40.6564C9.6415 40.665 9.59549 40.5943 9.58868 40.5005L9.50092 39.3589Z" fill="#EBEBEB"/>
<path d="M16.9649 43.0723H9.5V46.0652H16.9649V43.0723Z" fill="#263238"/>
<path d="M21.9486 49.1913C24.2026 49.1047 25.9597 47.2073 25.8731 44.9533C25.7865 42.6992 23.889 40.9422 21.635 41.0288C19.381 41.1154 17.6239 43.0128 17.7105 45.2668C17.7971 47.5209 19.6945 49.2779 21.9486 49.1913Z" fill="#263238"/>
<path d="M17.7103 45.0396C17.7108 45.0432 17.7108 45.0469 17.7103 45.0506C17.696 46.1329 18.1119 47.1766 18.8667 47.9525C19.6214 48.7283 20.6532 49.1728 21.7355 49.1884C22.8177 49.204 23.8619 48.7893 24.6387 48.0355C25.4154 47.2817 25.8612 46.2504 25.8781 45.1682C25.8781 45.1682 25.8781 45.1614 25.8781 45.158L17.7103 45.0396Z" fill="#263238"/>
<path d="M18.9261 45.0681C18.9177 45.6352 19.0777 46.1921 19.3859 46.6684C19.6941 47.1446 20.1365 47.5187 20.6573 47.7434C21.1782 47.9681 21.7539 48.0334 22.3118 47.9308C22.8697 47.8283 23.3846 47.5627 23.7915 47.1675C24.1984 46.7722 24.4789 46.2653 24.5977 45.7106C24.7164 45.1559 24.6679 44.5785 24.4585 44.0514C24.249 43.5243 23.8879 43.0711 23.4209 42.7492C22.9539 42.4273 22.4018 42.2511 21.8347 42.243C21.0744 42.232 20.3409 42.5235 19.7954 43.0533C19.25 43.5831 18.9373 44.3078 18.9261 45.0681Z" fill="#FAFAFA"/>
<path d="M21.8344 42.243C21.0741 42.232 20.3406 42.5235 19.7951 43.0533C19.2497 43.5831 18.937 44.3078 18.9258 45.0681L24.6603 45.1533C24.6715 44.3926 24.38 43.6587 23.8501 43.1129C23.3201 42.5671 22.595 42.2542 21.8344 42.243Z" fill="#E0E0E0"/>
<path d="M20.0471 45.0839C20.042 45.4293 20.1396 45.7685 20.3273 46.0585C20.515 46.3485 20.7846 46.5762 21.1018 46.713C21.419 46.8498 21.7696 46.8895 22.1094 46.827C22.4491 46.7645 22.7627 46.6027 23.0105 46.3619C23.2582 46.1212 23.429 45.8124 23.5013 45.4746C23.5735 45.1368 23.544 44.7851 23.4164 44.4641C23.2888 44.1431 23.0688 43.8672 22.7844 43.6711C22.4999 43.4751 22.1637 43.3679 21.8183 43.363C21.3552 43.3564 20.9085 43.534 20.5763 43.8567C20.2442 44.1794 20.0538 44.6209 20.0471 45.0839Z" fill="#263238"/>
<path d="M13.8714 29.6113H13.5383C13.1628 29.6113 12.8584 29.9157 12.8584 30.2912V32.9945C12.8584 33.3699 13.1628 33.6743 13.5383 33.6743H13.8714C14.2469 33.6743 14.5512 33.3699 14.5512 32.9945V30.2912C14.5512 29.9157 14.2469 29.6113 13.8714 29.6113Z" fill="#263238"/>
<path d="M12.1575 36.1863H12.0723V31.8899C12.0725 31.685 12.154 31.4886 12.2988 31.3438C12.4437 31.1989 12.6401 31.1174 12.845 31.1172H13.0495V31.2024H12.845C12.6627 31.2026 12.488 31.2751 12.3591 31.404C12.2302 31.5329 12.1577 31.7076 12.1575 31.8899V36.1863Z" fill="#263238"/>
<path d="M12.7394 36.1911L12.5026 32.1741C12.4992 32.1054 12.5098 32.0367 12.5336 31.9722C12.5574 31.9077 12.594 31.8487 12.6412 31.7987C12.6884 31.7486 12.7451 31.7086 12.8081 31.6811C12.8711 31.6535 12.939 31.6389 13.0078 31.6382V31.7234C12.9504 31.7234 12.8937 31.7351 12.8411 31.7579C12.7884 31.7806 12.741 31.8138 12.7016 31.8556C12.6623 31.8973 12.6319 31.9466 12.6123 32.0005C12.5927 32.0544 12.5844 32.1117 12.5877 32.169L12.8246 36.1868L12.7394 36.1911Z" fill="#263238"/>
<path d="M13.0068 35.7993H11.8584V37.1292H13.0068V35.7993Z" fill="#263238"/>
<path d="M12.5821 33.2749H12.1152V33.3601H12.5821V33.2749Z" fill="#263238"/>
<path d="M16.4817 27.1323L16.5831 27.1187L16.8821 27.0838L18.0408 26.95L22.3602 26.4584C22.5903 26.4337 22.8246 26.4031 23.0674 26.3818C23.1914 26.3723 23.3162 26.3803 23.438 26.4056C23.5618 26.4346 23.6813 26.4798 23.7932 26.5402C24.0242 26.6687 24.2114 26.8634 24.3308 27.0991C24.3926 27.2196 24.4343 27.3494 24.4544 27.4834C24.4651 27.551 24.4711 27.6193 24.4722 27.6878V27.8931C24.4722 28.993 24.4722 30.1738 24.4722 31.4254C24.4722 33.9284 24.4722 36.7126 24.4722 39.6894V39.7115H19.985C19.7288 39.7031 19.4724 39.7154 19.2182 39.7482C18.6939 39.8236 18.1992 40.0377 17.7852 40.3682C17.3713 40.6988 17.053 41.1338 16.8634 41.6284C16.8266 41.7193 16.7956 41.8123 16.7705 41.907C16.7428 42.0007 16.7209 42.096 16.7049 42.1924L16.6828 42.3373L16.6726 42.4097L16.6683 42.4821L16.6615 42.6278V42.7011V42.7096C16.6802 42.6908 16.6351 42.7385 16.6385 42.7334H10.9482V42.7096C10.9482 41.4257 10.9482 40.1878 10.9482 39.0053C10.9482 38.414 10.9482 37.8367 10.9482 37.2732V36.44C10.9482 36.3028 10.9482 36.1674 10.9482 36.0319C10.951 35.8972 10.9607 35.7627 10.9772 35.6289C11.0422 35.1135 11.2059 34.6154 11.4594 34.1619C11.694 33.7206 11.9212 33.2946 12.141 32.8839L13.3491 30.6203L14.3297 28.7826C14.4012 28.6491 14.47 28.5199 14.5358 28.3949C14.5699 28.3336 14.5997 28.2714 14.6355 28.2135C14.6708 28.1569 14.7092 28.1023 14.7505 28.0499C14.8983 27.8657 15.0722 27.7041 15.2668 27.5703C15.5348 27.3883 15.8345 27.258 16.1503 27.186C16.2587 27.16 16.3689 27.1421 16.48 27.1323L16.3948 27.1451C16.3394 27.1536 16.2577 27.1681 16.1503 27.1928C15.8363 27.2671 15.5388 27.3988 15.2728 27.5813C15.0798 27.7153 14.9076 27.8769 14.7616 28.061C14.7204 28.1124 14.6825 28.1665 14.6483 28.2229C14.6134 28.2791 14.5836 28.3421 14.5495 28.4043L14.3442 28.7928L13.3721 30.6322C13.0074 31.3189 12.6053 32.0763 12.1708 32.8976L11.4892 34.1755C11.2381 34.6256 11.0763 35.12 11.013 35.6315C10.9968 35.7641 10.9874 35.8975 10.9849 36.0311C10.9849 36.1648 10.9849 36.302 10.9849 36.4383V37.2715C10.9849 37.8344 10.9849 38.4117 10.9849 39.0036C10.9849 40.1861 10.9849 41.424 10.9849 42.7079L10.9636 42.6874H16.6317C16.6376 42.6832 16.5908 42.7283 16.6104 42.7079V42.6985V42.6252L16.618 42.477V42.4037L16.6291 42.3305L16.6513 42.1831C16.6674 42.0852 16.6896 41.9885 16.7177 41.8934C16.7432 41.7972 16.7748 41.7027 16.8123 41.6105C17.0049 41.1087 17.3279 40.6673 17.748 40.3318C18.1681 39.9964 18.67 39.779 19.202 39.7022C19.4563 39.6698 19.7126 39.6576 19.9688 39.6655H24.4356L24.4135 39.6868C24.4135 36.7135 24.4135 33.9293 24.4135 31.4228C24.4135 30.1713 24.4135 28.9905 24.4135 27.8906C24.419 27.7555 24.4133 27.6201 24.3964 27.4859C24.377 27.355 24.3365 27.2281 24.2763 27.1102C24.1607 26.8797 23.978 26.6897 23.7523 26.5649C23.6436 26.5054 23.5272 26.461 23.4064 26.4329C23.2875 26.4078 23.1656 26.3995 23.0444 26.4082C22.8033 26.4286 22.5673 26.4593 22.3381 26.484L18.0195 26.962L16.86 27.0889L16.561 27.1204L16.4817 27.1323Z" fill="#263238"/>
<path d="M23.1116 36.5482C23.1116 36.5482 23.1354 36.5482 23.178 36.538C23.2406 36.5269 23.3004 36.5031 23.3535 36.4681C23.4373 36.4132 23.5001 36.3315 23.5316 36.2364C23.5508 36.1771 23.5586 36.1146 23.5546 36.0524C23.5527 35.9834 23.5349 35.9157 23.5026 35.8547C23.4655 35.7849 23.4104 35.7264 23.343 35.6851C23.2755 35.6439 23.1982 35.6216 23.1192 35.6204H22.5569H21.2688C21.1615 35.6206 21.0581 35.6602 20.9781 35.7316C20.8981 35.8031 20.8472 35.9015 20.8351 36.0081C20.8217 36.1093 20.8405 36.2121 20.8888 36.302C20.9367 36.3871 21.0117 36.4536 21.1018 36.4911C21.1909 36.5221 21.2856 36.5337 21.3795 36.5252H21.6521H22.142L22.8517 36.532H23.0451C23.0674 36.5316 23.0896 36.5333 23.1116 36.5371C23.0895 36.5398 23.0673 36.5412 23.0451 36.5414H22.8517L22.142 36.5482H21.6521H21.3795C21.3318 36.5482 21.2858 36.5482 21.2355 36.5482C21.1844 36.5444 21.1341 36.5329 21.0864 36.5141C20.9879 36.4732 20.9058 36.4007 20.853 36.308C20.8001 36.2104 20.7792 36.0986 20.7934 35.9885C20.8065 35.8715 20.8623 35.7635 20.9499 35.6849C21.0376 35.6064 21.1511 35.5628 21.2688 35.5625H22.5569H23.1192C23.2421 35.5649 23.3592 35.6151 23.4457 35.7024C23.5323 35.7897 23.5814 35.9073 23.5827 36.0302C23.5854 36.0953 23.5759 36.1603 23.5546 36.2219C23.5195 36.3208 23.4519 36.4049 23.3629 36.4605C23.3073 36.4951 23.2447 36.5169 23.1797 36.5244C23.158 36.5351 23.1352 36.5431 23.1116 36.5482Z" fill="#263238"/>
<path d="M22.9562 35.4779C22.7135 35.4993 22.4697 35.5064 22.2261 35.4992C21.9822 35.5064 21.7382 35.4993 21.4951 35.4779C21.7381 35.456 21.9822 35.4486 22.2261 35.4558C22.4697 35.4486 22.7135 35.456 22.9562 35.4779Z" fill="white"/>
<path d="M17.3046 46.0902L16.623 46.0408C16.8011 43.5999 17.0618 42.1397 17.4205 41.5765C18.1089 40.4945 18.793 40.2986 19.5504 40.1699C20.2558 40.0498 20.9672 40.0779 21.6556 40.106L21.826 40.1128C23.247 40.1682 26.2238 40.1188 26.2562 40.1188L26.2672 40.8004C26.2374 40.8004 23.2419 40.8506 21.8021 40.7944L21.6317 40.7876C20.9783 40.762 20.3035 40.7339 19.668 40.843C18.9906 40.958 18.54 41.09 17.9964 41.9437C17.832 42.1984 17.5236 43.0836 17.3046 46.0902Z" fill="#263238"/>
<path d="M60.1856 18.2856H26.6201V40.6343H60.1856V18.2856Z" fill="#0F913D"/>
<path d="M59.7816 40.1921C59.7816 40.0481 59.7748 31.8514 59.7637 18.7908L59.7816 18.8079L26.9811 18.813L27.0033 18.7908C27.0033 26.398 27.0033 33.6388 27.0033 40.1921L26.9828 40.1716L59.7833 40.1921L26.9828 40.2125H26.959V40.1921C26.959 33.6388 26.959 26.398 26.959 18.7908V18.7695H26.9837L59.7841 18.7738H59.802V18.7917C59.7884 31.8514 59.7816 40.0489 59.7816 40.1921Z" fill="#263238"/>
<g opacity="0.5">
<path d="M31.3789 30.2743L31.6958 36.6666L56.5893 31.4884L56.1488 24.8252L31.3789 30.2743Z" fill="black"/>
</g>
<path d="M33.2646 34.7011L33.435 34.1048C33.7682 34.2482 34.1381 34.2833 34.4923 34.2053C34.8731 34.1201 35.0887 33.9395 35.0384 33.7205C34.9353 33.2409 33.5049 33.8168 33.2979 32.8609C33.1658 32.2441 33.6199 31.7295 34.4514 31.5515C34.8544 31.4663 35.2463 31.4748 35.5436 31.5855L35.3945 32.1708C35.1185 32.067 34.8179 32.0472 34.5307 32.1137C34.1277 32.1989 33.9249 32.4051 33.9709 32.6198C34.0732 33.1131 35.5087 32.5346 35.7072 33.4573C35.8401 34.0792 35.3775 34.5955 34.5417 34.7744C34.0544 34.8801 33.5603 34.8332 33.2646 34.7011Z" fill="white"/>
<path d="M38.9276 30.6416L38.9711 33.77L38.2767 33.9191L38.2588 32.6454L36.8999 32.9368L36.9187 34.2147L36.2192 34.3604L36.1758 31.2312L36.8744 31.0812L36.8914 32.3106L38.2503 32.0192L38.2333 30.7898L38.9276 30.6416Z" fill="white"/>
<path d="M39.6396 30.4893L40.3366 30.3394L40.38 33.4678L39.6814 33.6177L39.6396 30.4893Z" fill="white"/>
<path d="M43.6322 30.6118C43.7958 31.3743 43.3366 31.9749 42.4395 32.1632L41.7707 32.3063L41.7834 33.1676L41.0848 33.3176L41.0439 30.1858L42.2571 29.9302C43.0069 29.7658 43.5061 30.0222 43.6322 30.6118ZM42.9421 30.8222C42.8799 30.5308 42.6448 30.438 42.2929 30.5138L41.7485 30.6305L41.7621 31.7168L42.3491 31.5907C42.8058 31.4901 43.0273 31.2184 42.9421 30.8196V30.8222Z" fill="white"/>
<path d="M46.7258 29.9445C46.8894 30.7113 46.4302 31.3076 45.5331 31.4959L44.8651 31.6399L44.8796 32.5012L44.181 32.6512L44.1367 29.5228L45.3499 29.2621C46.1022 29.101 46.6014 29.3575 46.7258 29.9445ZM46.0357 30.1558C45.9735 29.8636 45.7376 29.7707 45.3865 29.8465L44.8421 29.9632L44.8558 31.0503L45.4428 30.9242C45.9028 30.8254 46.1226 30.5536 46.0374 30.1558H46.0357Z" fill="white"/>
<path d="M47.2373 28.8584L47.9359 28.7085L47.9802 31.8377L47.2816 31.9877L47.2373 28.8584Z" fill="white"/>
<path d="M51.3911 27.9707L51.4354 31.0991L50.8646 31.2218L49.3439 29.5809L49.3694 31.5404L48.6879 31.6878L48.6436 28.5586L49.2178 28.435L50.7402 30.0767L50.7096 28.1172L51.3911 27.9707Z" fill="white"/>
<path d="M54.1534 28.8934L54.7881 28.7571L54.8043 30.0444C54.5229 30.3582 54.1475 30.5725 53.7343 30.6553C52.8252 30.8504 52.1377 30.4465 51.9715 29.6712C51.7517 28.6489 52.3353 27.7117 53.471 27.4664C54.0452 27.3428 54.5044 27.4366 54.8341 27.722L54.4235 28.2331C54.1679 28.0363 53.9021 27.9954 53.5715 28.067C52.8687 28.2178 52.527 28.8201 52.6685 29.4804C52.7647 29.9302 53.1302 30.1705 53.7002 30.0478C53.8723 30.0127 54.0344 29.9396 54.1747 29.834L54.1534 28.8934Z" fill="white"/>
<path d="M36.3408 24.3603V29.9432L50.5277 26.8233L50.5225 21.3052L36.3408 24.3603Z" fill="#0F913D"/>
<g opacity="0.3">
<path d="M36.3418 24.3603V29.9432L50.5286 26.8233L50.5235 21.3052L36.3418 24.3603Z" fill="black"/>
</g>
<path d="M38.4214 25.749L38.4529 26.9775L40.0052 26.6248L40.0112 26.911L38.4615 27.2637L38.4972 28.5911L38.1854 28.6618L38.1045 25.5334L40.156 25.0674L40.1628 25.3536L38.4214 25.749Z" fill="white"/>
<path d="M42.4878 26.6324L43.2793 27.5039L42.9385 27.5815L42.1837 26.7508C42.1377 26.7661 42.0823 26.7781 42.0303 26.79L41.1783 26.9834L41.2056 27.9751L40.8895 28.0466L40.8086 24.9191L41.8855 24.6737C42.567 24.5195 43.0254 24.7436 43.1464 25.2778C43.2861 25.8929 43.0348 26.3683 42.4878 26.6324ZM42.8371 25.3791C42.7477 24.9864 42.4222 24.8398 41.9264 24.9532L41.1315 25.1338L41.1673 26.6988L41.9758 26.5157C42.6505 26.3614 42.9709 25.9695 42.8371 25.3791Z" fill="white"/>
<path d="M44.2171 24.4316L44.2452 25.5451L45.7966 25.1924L45.8068 25.4735L44.2546 25.8254L44.2852 26.9874L46.0846 26.5785L46.0914 26.8648L43.9794 27.3444L43.8984 24.2169L45.95 23.75L45.9568 24.0363L44.2171 24.4316Z" fill="white"/>
<path d="M47.0769 23.7823L47.105 24.8949L48.6573 24.5422L48.6667 24.8234L47.1153 25.1761L47.1451 26.3381L48.9453 25.9292L48.9512 26.2155L46.8401 26.6926L46.7549 23.5642L48.8073 23.0981L48.8141 23.3844L47.0769 23.7823Z" fill="white"/>
<path d="M52.1543 24.36L57.1783 23.1835L56.9798 22.6484L52.1543 24.36Z" fill="#FAFAFA"/>
<path d="M29.6582 28.12L33.1512 27.3021L33.0132 26.9307L29.6582 28.12Z" fill="#FAFAFA"/>
<path d="M41.6172 36.5363L46.6412 35.3589L46.4435 34.8247L41.6172 36.5363Z" fill="#FAFAFA"/>
<path d="M48.276 21.6843C48.276 21.6962 45.594 22.3377 42.2807 23.1164C38.9675 23.8951 36.2778 24.5179 36.2744 24.5059C36.271 24.494 38.9555 23.8525 42.2705 23.0738C45.5855 22.2951 48.2734 21.6723 48.276 21.6843Z" fill="#FAFAFA"/>
<path d="M36.3033 29.3823C36.3033 29.3942 35.1531 29.6379 33.7287 29.9241C32.3042 30.2104 31.1481 30.4353 31.1455 30.4234C31.143 30.4115 32.2957 30.1678 33.7201 29.8807C35.1446 29.5936 36.3007 29.3704 36.3033 29.3823Z" fill="#FAFAFA"/>
<path d="M36.3489 28.8772C36.345 28.8625 36.3433 28.8473 36.3438 28.8321C36.3438 28.7972 36.3438 28.7546 36.3395 28.7034C36.3395 28.585 36.3395 28.4248 36.3327 28.2297C36.3327 27.8234 36.3259 27.2738 36.3225 26.6664C36.3191 26.059 36.3106 25.5086 36.3063 25.1031C36.3063 24.908 36.3012 24.7478 36.2995 24.6294V24.4999C36.2973 24.4852 36.2973 24.4703 36.2995 24.4556C36.3034 24.47 36.3054 24.4849 36.3055 24.4999C36.3055 24.5348 36.3106 24.5765 36.314 24.6285C36.3208 24.7401 36.3276 24.902 36.3344 25.1022C36.3489 25.5018 36.36 26.0547 36.3642 26.6655C36.3685 27.2764 36.3642 27.8293 36.3642 28.2289C36.3642 28.4248 36.3591 28.585 36.3574 28.7034C36.3574 28.7546 36.3574 28.7972 36.3532 28.8321C36.353 28.8472 36.3516 28.8623 36.3489 28.8772Z" fill="#FAFAFA"/>
<path d="M21.8478 28.8687C21.8478 28.8687 21.8376 28.8789 21.8163 28.8951L21.7226 28.9624C21.6374 29.0212 21.5207 29.1029 21.3725 29.2043C21.0751 29.4054 20.6611 29.6797 20.1993 29.9753C19.7375 30.271 19.3158 30.5325 19.0066 30.7191C18.8532 30.812 18.728 30.8895 18.6411 30.9372L18.5405 30.9934C18.5291 31.0008 18.5168 31.0069 18.5039 31.0113C18.5039 31.0113 18.5141 31.0011 18.5354 30.9866L18.6317 30.9219L18.9904 30.6927L20.1737 29.9379L21.3529 29.1779L21.7115 28.9487L21.8104 28.8874C21.8221 28.8798 21.8347 28.8735 21.8478 28.8687Z" fill="#FAFAFA"/>
<path d="M20.3918 29.2539C20.3918 29.2539 20.3816 29.2641 20.3603 29.2803L20.2666 29.3476C20.1814 29.4056 20.0646 29.4882 19.9155 29.5887C19.6182 29.7906 19.2042 30.0641 18.7433 30.3555C18.2823 30.6469 17.8598 30.9135 17.5505 31.1001C17.3972 31.193 17.2719 31.2705 17.185 31.3174L17.0845 31.3744C17.0732 31.382 17.0609 31.3877 17.0479 31.3915C17.0574 31.3821 17.068 31.3738 17.0794 31.3668L17.1756 31.3029L17.5335 31.0728L18.7177 30.3189L19.8968 29.5589L20.2555 29.3289L20.3535 29.2684C20.3655 29.2619 20.3784 29.257 20.3918 29.2539Z" fill="#FAFAFA"/>
<path d="M13.221 31.7338C13.2079 31.7105 13.199 31.6851 13.1946 31.6588C13.1809 31.6103 13.1622 31.5387 13.1409 31.4501C13.0849 31.2185 13.0563 30.9812 13.0557 30.743C13.0545 30.5023 13.1099 30.2647 13.2176 30.0495C13.2512 29.9851 13.2918 29.9245 13.3385 29.8689C13.3543 29.8476 13.3733 29.8289 13.3948 29.8135C13.3404 29.8943 13.2903 29.9779 13.2448 30.064C13.1477 30.278 13.098 30.5105 13.0991 30.7455C13.1017 30.9809 13.1271 31.2154 13.175 31.4458C13.1963 31.5408 13.2116 31.6369 13.221 31.7338Z" fill="#FAFAFA"/>
<path d="M9.74938 37.7741C9.7463 37.7438 9.7463 37.7133 9.74938 37.683C9.74938 37.6216 9.74938 37.533 9.75449 37.4274C9.76131 37.2084 9.7775 36.906 9.80391 36.5754C9.83032 36.2449 9.86184 35.9416 9.8891 35.7235C9.90273 35.6144 9.91466 35.5266 9.92403 35.4679C9.92724 35.4363 9.93381 35.4052 9.94363 35.375C9.94791 35.4067 9.94791 35.4388 9.94363 35.4704L9.92148 35.726C9.90273 35.9543 9.87717 36.25 9.84906 36.578C9.82095 36.906 9.80391 37.2007 9.78772 37.4299C9.78005 37.5322 9.77324 37.6182 9.76812 37.6855C9.76553 37.7157 9.75924 37.7455 9.74938 37.7741Z" fill="#FAFAFA"/>
<path d="M19.087 39.4277C19.087 39.4371 18.9226 39.4601 18.6678 39.5427C18.5187 39.5912 18.3733 39.6501 18.2325 39.7191C17.8876 39.8904 17.5755 40.1211 17.3107 40.4007C17.2025 40.5141 17.1026 40.6351 17.0116 40.7628C16.8574 40.9817 16.785 41.1325 16.7773 41.1282C16.79 41.0911 16.806 41.0552 16.8251 41.0209C16.8441 40.9793 16.8657 40.9389 16.8898 40.8999C16.9171 40.8539 16.9469 40.8002 16.9861 40.7449C17.0743 40.6131 17.1729 40.4886 17.2809 40.3726C17.4147 40.2307 17.5604 40.1005 17.7162 39.9832C17.8735 39.869 18.0406 39.769 18.2155 39.6842C18.3583 39.6156 18.5065 39.5586 18.6585 39.5138C18.7224 39.4925 18.7829 39.4806 18.8348 39.4678C18.8795 39.4569 18.9247 39.4484 18.9703 39.4422C19.0086 39.4337 19.0477 39.4288 19.087 39.4277Z" fill="#FAFAFA"/>
<path d="M27.4768 34.2846C27.4757 34.2724 27.4757 34.2602 27.4768 34.248C27.4768 34.2219 27.4768 34.1861 27.4768 34.1406C27.4768 34.0435 27.4768 33.9047 27.4708 33.7274C27.4657 33.3662 27.4589 32.8474 27.4495 32.2075C27.4265 30.9219 27.395 29.1507 27.3601 27.1938C27.3251 25.2368 27.2953 23.4622 27.2834 22.1791C27.2774 21.5376 27.2757 21.0179 27.2766 20.6592C27.2766 20.4812 27.2766 20.3423 27.2766 20.246V20.1387C27.2766 20.114 27.2766 20.1021 27.2766 20.1021C27.2777 20.1142 27.2777 20.1265 27.2766 20.1387C27.2766 20.1642 27.2766 20.2 27.2766 20.246C27.2766 20.3423 27.2766 20.4812 27.2825 20.6592C27.2876 21.0205 27.2945 21.5385 27.3038 22.1783C27.3268 23.4639 27.3584 25.2351 27.3933 27.1929C27.4282 29.1507 27.4589 30.9236 27.47 32.2067C27.4759 32.8491 27.4785 33.3679 27.4776 33.7266C27.4776 33.9047 27.4776 34.0435 27.4776 34.1406C27.4776 34.1858 27.4776 34.2216 27.4776 34.248C27.4781 34.2602 27.4778 34.2724 27.4768 34.2846Z" fill="#FAFAFA"/>
<path d="M52.1262 49.1869C54.3801 49.0967 56.1341 47.1965 56.044 44.9426C55.9539 42.6887 54.0537 40.9347 51.7998 41.0248C49.5459 41.1149 47.7918 43.0151 47.8819 45.269C47.9721 47.5229 49.8723 49.277 52.1262 49.1869Z" fill="#263238"/>
<path d="M47.8784 45.0396C47.8784 45.0396 47.8784 45.0472 47.8784 45.0506C47.8628 46.1336 48.278 47.1785 49.0328 47.9553C49.7876 48.7321 50.82 49.1773 51.903 49.1929C52.986 49.2084 54.0308 48.7932 54.8077 48.0384C55.5845 47.2836 56.0296 46.2512 56.0452 45.1682V45.158L47.8784 45.0396Z" fill="#263238"/>
<path d="M49.094 45.0681C49.0859 45.635 49.246 46.1916 49.5541 46.6676C49.8622 47.1435 50.3046 47.5174 50.8252 47.7419C51.3458 47.9665 51.9213 48.0316 52.479 47.9291C53.0366 47.8266 53.5513 47.561 53.958 47.166C54.3647 46.7709 54.6452 46.2642 54.7639 45.7098C54.8826 45.1553 54.8343 44.5782 54.625 44.0512C54.4157 43.5243 54.0548 43.0713 53.5881 42.7494C53.1213 42.4275 52.5696 42.2513 52.0026 42.243C51.2423 42.232 50.5088 42.5235 49.9634 43.0533C49.418 43.5831 49.1053 44.3078 49.094 45.0681Z" fill="#FAFAFA"/>
<path d="M52.0023 42.243C51.6259 42.2375 51.252 42.3062 50.902 42.4452C50.5521 42.5841 50.233 42.7907 49.9629 43.0531C49.6928 43.3154 49.477 43.6284 49.3279 43.9741C49.1787 44.3199 49.0992 44.6916 49.0938 45.0681L54.8274 45.1533C54.8332 44.7766 54.7647 44.4026 54.6258 44.0524C54.4869 43.7023 54.2803 43.383 54.018 43.1127C53.7556 42.8424 53.4426 42.6265 53.0967 42.4773C52.7509 42.328 52.379 42.2484 52.0023 42.243Z" fill="#E0E0E0"/>
<path d="M50.218 45.0839C50.2129 45.4293 50.3105 45.7685 50.4982 46.0585C50.6859 46.3485 50.9555 46.5762 51.2727 46.713C51.5899 46.8498 51.9405 46.8895 52.2803 46.827C52.62 46.7645 52.9336 46.6027 53.1814 46.3619C53.4291 46.1212 53.5999 45.8124 53.6722 45.4746C53.7444 45.1368 53.7149 44.7851 53.5873 44.4641C53.4597 44.1431 53.2397 43.8672 52.9553 43.6711C52.6708 43.4751 52.3346 43.3679 51.9892 43.363C51.5261 43.3564 51.0794 43.534 50.7472 43.8567C50.4151 44.1794 50.2247 44.6209 50.218 45.0839Z" fill="#263238"/>
<path d="M46.5925 46.2284C46.5925 46.2284 45.9706 40.4351 51.9735 40.4351C57.5113 40.4351 57.3886 45.4173 57.3358 46.1883H56.4676C56.4676 46.1883 56.9098 41.2776 51.9735 41.2776C47.0373 41.2776 47.4667 46.288 47.4667 46.288C47.4667 46.288 47.102 46.2701 46.5925 46.2284Z" fill="#455A64"/>
<path d="M49.8075 41.0349C49.7926 41.0425 49.7769 41.0482 49.7606 41.0519C49.7291 41.063 49.6822 41.074 49.6243 41.0945C49.4577 41.1475 49.2947 41.2109 49.1361 41.2845C48.6113 41.5252 48.1464 41.8793 47.7749 42.3212C47.4033 42.7632 47.1344 43.282 46.9875 43.8404C46.9425 44.0084 46.9081 44.1792 46.8844 44.3515C46.875 44.4129 46.8716 44.4606 46.8665 44.493C46.865 44.5096 46.8622 44.5262 46.858 44.5424C46.8559 44.526 46.8559 44.5094 46.858 44.493C46.858 44.4597 46.858 44.4078 46.8682 44.3498C46.8851 44.1746 46.9153 44.0008 46.9585 43.8301C47.0982 43.2633 47.366 42.736 47.7415 42.2889C48.1169 41.8418 48.59 41.4868 49.1242 41.2513C49.2849 41.1795 49.4506 41.1197 49.62 41.0723C49.6797 41.0553 49.7274 41.0459 49.7589 41.0383C49.7749 41.0353 49.7912 41.0342 49.8075 41.0349Z" fill="#FAFAFA"/>
</svg>
