<svg width="69" height="69" viewBox="0 0 69 69" fill="none" xmlns="http://www.w3.org/2000/svg">
<rect width="69" height="69" rx="34.5" fill="#F5F5F5"/>
<path d="M54.7476 10.3047H27.3975C26.9293 10.3047 26.5497 10.6842 26.5497 11.1524V37.7793C26.5497 38.2474 26.9293 38.627 27.3975 38.627H54.7476C55.2158 38.627 55.5953 38.2474 55.5953 37.7793V11.1524C55.5953 10.6842 55.2158 10.3047 54.7476 10.3047Z" fill="white"/>
<mask id="mask0_2925_66004" style="mask-type:luminance" maskUnits="userSpaceOnUse" x="26" y="10" width="30" height="29">
<path d="M54.7482 10.3047H27.3981C26.9299 10.3047 26.5504 10.6842 26.5504 11.1524V37.7793C26.5504 38.2474 26.9299 38.627 27.3981 38.627H54.7482C55.2164 38.627 55.5959 38.2474 55.5959 37.7793V11.1524C55.5959 10.6842 55.2164 10.3047 54.7482 10.3047Z" fill="white"/>
</mask>
<g mask="url(#mask0_2925_66004)">
<path d="M51.0936 36.3862H44.3606C43.9401 36.3862 43.5368 36.2191 43.2394 35.9217C42.942 35.6244 42.775 35.221 42.775 34.8005C42.775 34.38 42.942 33.9766 43.2394 33.6793C43.5368 33.3819 43.9401 33.2148 44.3606 33.2148H51.0936C51.5141 33.2148 51.9174 33.3819 52.2148 33.6793C52.5122 33.9766 52.6792 34.38 52.6792 34.8005C52.6792 35.221 52.5122 35.6244 52.2148 35.9217C51.9174 36.2191 51.5141 36.3862 51.0936 36.3862Z" fill="#0F913D" stroke="#263238" stroke-width="0.3" stroke-linecap="round" stroke-linejoin="round"/>
<path d="M46.0059 35.5793H45.7486L45.7047 35.2841H45.3912L45.3473 35.5793H45.1168L45.3766 33.957H45.7498L46.0059 35.5793ZM45.4241 35.0646H45.6681L45.5461 34.2437L45.4241 35.0646Z" fill="#263238"/>
<path d="M46.861 34.9731V35.1877C46.861 35.4475 46.7317 35.5963 46.4817 35.5963C46.2316 35.5963 46.1011 35.4475 46.1011 35.1877V34.3449C46.1011 34.0851 46.2304 33.9375 46.4817 33.9375C46.733 33.9375 46.861 34.0851 46.861 34.3449V34.5022H46.6171V34.329C46.6171 34.2132 46.5659 34.1692 46.4841 34.1692C46.4024 34.1692 46.3524 34.2132 46.3524 34.329V35.2048C46.3524 35.3207 46.4036 35.3622 46.4841 35.3622C46.5646 35.3622 46.6171 35.3207 46.6171 35.2048V34.9731H46.861Z" fill="#263238"/>
<path d="M47.7575 34.9731V35.1877C47.7575 35.4475 47.627 35.5963 47.377 35.5963C47.1269 35.5963 46.9976 35.4475 46.9976 35.1877V34.3449C46.9976 34.0851 47.1269 33.9375 47.377 33.9375C47.627 33.9375 47.7575 34.0851 47.7575 34.3449V34.5022H47.5136V34.329C47.5136 34.2132 47.4623 34.1692 47.3818 34.1692C47.3013 34.1692 47.2501 34.2132 47.2501 34.329V35.2048C47.2501 35.3207 47.3001 35.3622 47.3818 35.3622C47.4636 35.3622 47.5136 35.3207 47.5136 35.2048V34.9731H47.7575Z" fill="#263238"/>
<path d="M48.1666 34.6401H48.5167V34.8718H48.1666V35.3475H48.6069V35.5793H47.9117V33.957H48.6069V34.1912H48.1666V34.6401Z" fill="#263238"/>
<path d="M49.5207 34.3571V34.5681C49.5207 34.8279 49.3987 34.9694 49.1401 34.9694H49.0182V35.5793H48.7632V33.957H49.1426C49.3951 33.957 49.5207 34.0985 49.5207 34.3571ZM49.0206 34.1912V34.7401H49.1426C49.2243 34.7401 49.2646 34.7035 49.2646 34.5876V34.3437C49.2646 34.2217 49.2206 34.1912 49.1426 34.1912H49.0206Z" fill="#263238"/>
<path d="M49.564 33.957H50.352V34.1912H50.0861V35.5817H49.8311V34.1912H49.564V33.957Z" fill="#263238"/>
<path d="M37.7779 36.3862H31.0462C30.6256 36.3862 30.2223 36.2191 29.9249 35.9217C29.6276 35.6244 29.4605 35.221 29.4605 34.8005C29.4605 34.38 29.6276 33.9766 29.9249 33.6793C30.2223 33.3819 30.6256 33.2148 31.0462 33.2148H37.7779C38.1984 33.2148 38.6018 33.3819 38.8991 33.6793C39.1965 33.9766 39.3636 34.38 39.3636 34.8005C39.3636 35.221 39.1965 35.6244 38.8991 35.9217C38.6018 36.2191 38.1984 36.3862 37.7779 36.3862Z" fill="#0F913D"/>
<mask id="mask1_2925_66004" style="mask-type:luminance" maskUnits="userSpaceOnUse" x="29" y="33" width="11" height="4">
<path d="M37.7744 36.3862H31.0426C30.6221 36.3862 30.2188 36.2191 29.9214 35.9217C29.624 35.6244 29.457 35.221 29.457 34.8005C29.457 34.38 29.624 33.9766 29.9214 33.6793C30.2188 33.3819 30.6221 33.2148 31.0426 33.2148H37.7744C38.1949 33.2148 38.5982 33.3819 38.8956 33.6793C39.193 33.9766 39.36 34.38 39.36 34.8005C39.36 35.221 39.193 35.6244 38.8956 35.9217C38.5982 36.2191 38.1949 36.3862 37.7744 36.3862Z" fill="white"/>
</mask>
<g mask="url(#mask1_2925_66004)">
<path opacity="0.6" d="M37.7744 36.3862H31.0426C30.6221 36.3862 30.2188 36.2191 29.9214 35.9217C29.624 35.6244 29.457 35.221 29.457 34.8005C29.457 34.38 29.624 33.9766 29.9214 33.6793C30.2188 33.3819 30.6221 33.2148 31.0426 33.2148H37.7744C38.1949 33.2148 38.5982 33.3819 38.8956 33.6793C39.193 33.9766 39.36 34.38 39.36 34.8005C39.36 35.221 39.193 35.6244 38.8956 35.9217C38.5982 36.2191 38.1949 36.3862 37.7744 36.3862Z" fill="white"/>
</g>
<path d="M37.7779 36.3862H31.0462C30.6256 36.3862 30.2223 36.2191 29.9249 35.9217C29.6276 35.6244 29.4605 35.221 29.4605 34.8005C29.4605 34.38 29.6276 33.9766 29.9249 33.6793C30.2223 33.3819 30.6256 33.2148 31.0462 33.2148H37.7779C38.1984 33.2148 38.6018 33.3819 38.8991 33.6793C39.1965 33.9766 39.3636 34.38 39.3636 34.8005C39.3636 35.221 39.1965 35.6244 38.8991 35.9217C38.6018 36.2191 38.1984 36.3862 37.7779 36.3862Z" stroke="#263238" stroke-width="0.3" stroke-linecap="round" stroke-linejoin="round"/>
<path d="M31.6226 33.957H32.0264C32.2813 33.957 32.4057 34.0985 32.4057 34.3571V35.178C32.4057 35.4378 32.2837 35.5793 32.0264 35.5793H31.6226V33.957ZM31.8775 34.1888V35.3475H32.0215C32.102 35.3475 32.1508 35.3048 32.1508 35.189V34.3461C32.1508 34.2303 32.102 34.1888 32.0215 34.1888H31.8775Z" fill="#263238"/>
<path d="M32.8229 34.6401H33.1729V34.8718H32.8229V35.3475H33.2632V35.5793H32.5679V33.957H33.2632V34.1912H32.8229V34.6401Z" fill="#263238"/>
<path d="M34.1618 34.9731V35.1877C34.1618 35.4475 34.0325 35.5963 33.7813 35.5963C33.53 35.5963 33.4019 35.4475 33.4019 35.1877V34.3449C33.4019 34.0851 33.5312 33.9375 33.7813 33.9375C34.0313 33.9375 34.1618 34.0851 34.1618 34.3449V34.5022H33.9179V34.329C33.9179 34.2132 33.8679 34.1692 33.7861 34.1692C33.7044 34.1692 33.6544 34.2132 33.6544 34.329V35.2048C33.6544 35.3207 33.7056 35.3622 33.7861 35.3622C33.8666 35.3622 33.9179 35.3207 33.9179 35.2048V34.9731H34.1618Z" fill="#263238"/>
<path d="M34.316 33.957H34.5709V35.3475H34.9929V35.5793H34.3184L34.316 33.957Z" fill="#263238"/>
<path d="M35.1031 33.957H35.3592V35.5793H35.1031V33.957Z" fill="#263238"/>
<path d="M35.7758 34.4035V35.5793H35.5464V33.957H35.866L36.1234 34.9328V33.957H36.3503V35.5793H36.0917L35.7758 34.4035Z" fill="#263238"/>
<path d="M36.7877 34.6401H37.1378V34.8718H36.7877V35.3475H37.228V35.5793H36.5328V33.957H37.228V34.1912H36.7877V34.6401Z" fill="#263238"/>
<path d="M47.679 23.0927C47.679 24.4005 47.2912 25.6789 46.5647 26.7662C45.8381 27.8536 44.8054 28.7011 43.5972 29.2016C42.389 29.702 41.0595 29.833 39.7769 29.5779C38.4942 29.3227 37.3161 28.693 36.3913 27.7682C35.4666 26.8435 34.8368 25.6653 34.5817 24.3827C34.3266 23.1 34.4575 21.7706 34.958 20.5623C35.4584 19.3541 36.3059 18.3214 37.3933 17.5949C38.4807 16.8683 39.7591 16.4805 41.0668 16.4805C41.9361 16.4771 42.7975 16.6458 43.6012 16.9769C44.405 17.308 45.1353 17.795 45.7499 18.4096C46.3646 19.0243 46.8515 19.7546 47.1826 20.5583C47.5137 21.3621 47.6824 22.2234 47.679 23.0927Z" fill="#0F913D" stroke="#263238" stroke-width="0.5" stroke-linecap="round" stroke-linejoin="round"/>
<path d="M46.5615 26.7695C45.9694 27.6535 45.1728 28.3815 44.2391 28.8918C43.3055 29.4021 42.2626 29.6796 41.1988 29.7006C40.135 29.7217 39.0819 29.4858 38.1288 29.0129C37.1757 28.5399 36.3508 27.844 35.7242 26.9841C35.7632 26.9183 35.8022 26.8524 35.8462 26.7878C36.0901 26.384 37.5831 25.7449 39.6944 25.5156C40.1708 25.4632 40.6496 25.4347 41.1288 25.4302C41.6479 25.4253 42.1666 25.4554 42.6816 25.5205C44.516 25.7498 46.0419 26.3572 46.5615 26.7695Z" fill="#757575" stroke="#263238" stroke-width="0.3" stroke-linecap="round" stroke-linejoin="round"/>
<path d="M42.837 25.6745C42.6722 25.9661 42.4319 26.2078 42.1412 26.3742C41.8505 26.5406 41.5204 26.6254 41.1855 26.6198C40.2097 26.6198 39.5035 25.7758 39.5035 25.7758C39.845 25.4696 39.8694 24.9012 39.8157 24.4536C39.7935 24.2342 39.7527 24.0171 39.6938 23.8047H42.6041C42.4272 24.3865 42.4333 24.8037 42.5016 25.0939C42.5979 25.5221 42.837 25.6745 42.837 25.6745Z" fill="white" stroke="#263238" stroke-width="0.3" stroke-linecap="round" stroke-linejoin="round"/>
<path d="M42.4947 25.0939C40.3918 25.6453 39.9747 24.4438 39.9747 24.4438L39.8149 24.4536C39.7927 24.2342 39.7519 24.0171 39.6929 23.8047H42.6032C42.4203 24.3865 42.4264 24.8037 42.4947 25.0939Z" fill="#263238"/>
<path d="M43.2302 21.762C43.2302 21.762 43.4644 21.5071 43.5802 21.5913C43.6579 21.6548 43.7165 21.7385 43.7497 21.8332C43.7828 21.9279 43.7892 22.0299 43.7681 22.1279C43.7059 22.3451 43.4339 22.722 43.4119 22.9415C43.39 23.1611 43.2509 23.4099 43.096 23.2647C42.9411 23.1196 43.2302 21.762 43.2302 21.762Z" fill="white" stroke="#263238" stroke-width="0.3" stroke-linecap="round" stroke-linejoin="round"/>
<path d="M39.0536 21.762C39.0536 21.762 38.8194 21.5071 38.7035 21.5913C38.6259 21.6548 38.5672 21.7385 38.5341 21.8332C38.5009 21.9279 38.4946 22.0299 38.5157 22.1279C38.5779 22.3451 38.8499 22.722 38.8718 22.9415C38.8938 23.1611 39.0328 23.4099 39.1877 23.2647C39.3427 23.1196 39.0536 21.762 39.0536 21.762Z" fill="white" stroke="#263238" stroke-width="0.3" stroke-linecap="round" stroke-linejoin="round"/>
<path d="M41.0923 18.8242C44.0404 18.8242 43.3391 22.7493 42.8 24.0093C42.6097 24.4521 41.6217 25.0327 41.1448 25.0327C40.7008 25.0327 39.6811 24.3386 39.5055 23.9227C38.9541 22.6542 38.2869 18.8242 41.0923 18.8242Z" fill="white" stroke="#263238" stroke-width="0.3" stroke-linecap="round" stroke-linejoin="round"/>
<path d="M41.5914 21.2432C41.5914 21.2432 42.3586 21.0054 42.5964 21.4798" stroke="#263238" stroke-width="0.2" stroke-linecap="round" stroke-linejoin="round"/>
<path d="M42.1608 21.89C42.1608 21.9803 42.1144 22.0535 42.0583 22.0535C42.0022 22.0535 41.9547 21.9803 41.9547 21.89C41.9547 21.7997 42.001 21.7266 42.0583 21.7266C42.1157 21.7266 42.1608 21.7997 42.1608 21.89Z" fill="#263238"/>
<path d="M40.6921 21.2432C40.6921 21.2432 39.9249 21.0054 39.6871 21.4798" stroke="#263238" stroke-width="0.2" stroke-linecap="round" stroke-linejoin="round"/>
<path d="M40.1226 21.89C40.1226 21.9803 40.169 22.0535 40.2251 22.0535C40.2812 22.0535 40.3288 21.9803 40.3288 21.89C40.3288 21.7997 40.2824 21.7266 40.2251 21.7266C40.1677 21.7266 40.1226 21.7997 40.1226 21.89Z" fill="#263238"/>
<path d="M42.3109 19.8256C41.5722 20.0616 40.7784 20.0616 40.0397 19.8256C40.0397 19.8256 39.6408 19.8025 39.4847 20.0025C39.3286 20.2025 39.4847 20.8197 39.5262 21.071C39.5677 21.3222 39.181 21.4967 39.2335 22.1309L39.0834 22.3505C39.0834 22.3505 38.6675 21.3283 38.7724 20.4501C38.8773 19.5719 39.4323 19.2304 39.4323 19.2304C39.4323 19.2304 39.6848 18.4705 41.168 18.4766C42.767 18.4827 42.928 19.3475 42.928 19.3475C42.928 19.3475 44.0112 20.0708 43.2098 22.4249L43.0366 22.1321C43.0779 21.8199 43.0061 21.5032 42.8341 21.2393C42.6938 21.0356 42.9171 20.4233 42.8646 20.1086C42.8122 19.7939 42.3109 19.8256 42.3109 19.8256Z" fill="#263238"/>
<path d="M41.3178 21.7266C41.3178 21.7266 41.3263 22.4438 41.5142 22.6767C41.6105 22.7987 41.4227 23.0549 41.1324 23.1012" stroke="#263238" stroke-width="0.2" stroke-linecap="round" stroke-linejoin="round"/>
<path d="M40.4976 23.5156C40.5179 23.5895 40.5526 23.6587 40.5997 23.7192C40.6468 23.7797 40.7054 23.8303 40.7721 23.8681C40.9733 23.9547 41.5856 23.9181 41.7015 23.8462C41.8174 23.7742 41.8747 23.5388 41.8747 23.5388" fill="white"/>
<path d="M40.4976 23.5156C40.5179 23.5895 40.5526 23.6587 40.5997 23.7192C40.6468 23.7797 40.7054 23.8303 40.7721 23.8681C40.9733 23.9547 41.5856 23.9181 41.7015 23.8462C41.8174 23.7742 41.8747 23.5388 41.8747 23.5388" stroke="#263238" stroke-width="0.2" stroke-linecap="round" stroke-linejoin="round"/>
<path d="M40.4312 23.5C40.9329 23.6075 41.4517 23.6075 41.9534 23.5" stroke="#263238" stroke-width="0.2" stroke-linecap="round" stroke-linejoin="round"/>
<path d="M42.5977 19.8532C42.5977 19.8532 42.2684 20.3411 41.1853 20.4472C41.2679 20.3704 41.3332 20.2768 41.3768 20.1727C41.2129 20.2927 41.0268 20.3788 40.8293 20.4259C40.6318 20.473 40.4269 20.4803 40.2265 20.4472C40.0204 20.4193 39.8105 20.4459 39.6179 20.5245C39.4253 20.603 39.2566 20.7307 39.1288 20.8948L38.9458 21.7242C38.9458 21.7242 38.2981 20.9924 38.7592 19.8166L38.5933 19.9544C38.5933 19.9544 38.7775 18.3822 40.6669 18.3248L40.4376 18.187C40.4376 18.187 42.3196 17.7857 43.0563 19.025C43.0563 19.025 43.7113 19.1469 43.8723 20.2801L43.6882 20.1581C43.6882 20.1581 43.9797 21.0985 43.3747 21.8852C43.3698 21.8877 42.5977 20.6423 42.5977 19.8532Z" fill="#263238"/>
<path opacity="0.5" d="M48.2589 14.4936H33.8831C33.786 14.4936 33.693 14.455 33.6243 14.3864C33.5557 14.3178 33.5172 14.2247 33.5172 14.1276C33.5172 14.0306 33.5557 13.9375 33.6243 13.8689C33.693 13.8003 33.786 13.7617 33.8831 13.7617H48.2589C48.3559 13.7617 48.449 13.8003 48.5176 13.8689C48.5863 13.9375 48.6248 14.0306 48.6248 14.1276C48.6248 14.2247 48.5863 14.3178 48.5176 14.3864C48.449 14.455 48.3559 14.4936 48.2589 14.4936Z" fill="#263238"/>
<g opacity="0.4">
<path d="M47.2329 30.7344H34.9075C34.8885 30.7344 34.8697 30.7306 34.8521 30.7233C34.8346 30.716 34.8187 30.7053 34.8053 30.6918C34.7919 30.6783 34.7813 30.6623 34.7742 30.6447C34.767 30.6271 34.7634 30.6083 34.7636 30.5892C34.7636 30.5511 34.7787 30.5145 34.8057 30.4875C34.8327 30.4605 34.8693 30.4453 34.9075 30.4453H47.2329C47.2519 30.4452 47.2708 30.4488 47.2884 30.4559C47.306 30.4631 47.322 30.4737 47.3355 30.487C47.349 30.5004 47.3597 30.5163 47.367 30.5339C47.3743 30.5514 47.3781 30.5702 47.3781 30.5892C47.3781 30.6277 47.3628 30.6647 47.3356 30.6919C47.3083 30.7191 47.2714 30.7344 47.2329 30.7344Z" fill="black"/>
<path d="M46.0142 31.5078H36.1282C36.1092 31.5078 36.0904 31.5041 36.0728 31.4968C36.0553 31.4895 36.0394 31.4787 36.026 31.4652C36.0126 31.4518 36.002 31.4357 35.9949 31.4181C35.9877 31.4005 35.9841 31.3817 35.9843 31.3627C35.9843 31.3245 35.9994 31.2879 36.0264 31.2609C36.0534 31.2339 36.09 31.2188 36.1282 31.2188H46.0142C46.0332 31.2186 46.052 31.2222 46.0696 31.2294C46.0872 31.2365 46.1032 31.2471 46.1167 31.2605C46.1302 31.2739 46.1409 31.2898 46.1482 31.3073C46.1555 31.3249 46.1593 31.3437 46.1593 31.3627C46.1593 31.4012 46.144 31.4381 46.1168 31.4653C46.0896 31.4925 46.0526 31.5078 46.0142 31.5078Z" fill="black"/>
</g>
<path d="M47.5798 26.1562H45.5245C45.2011 26.1562 44.939 26.4184 44.939 26.7417V28.797C44.939 29.1203 45.2011 29.3825 45.5245 29.3825H47.5798C47.9031 29.3825 48.1652 29.1203 48.1652 28.797V26.7417C48.1652 26.4184 47.9031 26.1562 47.5798 26.1562Z" fill="#263238" stroke="white" stroke-width="0.5" stroke-linecap="round" stroke-linejoin="round"/>
<path d="M47.3547 27.5845H46.7351V26.9648H46.3692V27.5845H45.7496V27.9504H46.3692V28.5688H46.7351V27.9504H47.3547V27.5845Z" fill="white"/>
<path opacity="0.3" d="M54.7779 11.6577C54.7779 11.7755 54.743 11.8905 54.6776 11.9884C54.6122 12.0863 54.5192 12.1626 54.4105 12.2077C54.3017 12.2527 54.182 12.2645 54.0666 12.2415C53.9511 12.2186 53.845 12.1619 53.7618 12.0786C53.6786 11.9954 53.6219 11.8893 53.5989 11.7739C53.5759 11.6584 53.5877 11.5387 53.6328 11.4299C53.6778 11.3212 53.7541 11.2282 53.852 11.1628C53.9499 11.0974 54.065 11.0625 54.1827 11.0625C54.3406 11.0625 54.492 11.1252 54.6036 11.2368C54.7152 11.3485 54.7779 11.4999 54.7779 11.6577Z" fill="black"/>
<path opacity="0.3" d="M53.0709 11.6577C53.0709 11.7755 53.036 11.8905 52.9706 11.9884C52.9052 12.0863 52.8122 12.1626 52.7035 12.2077C52.5947 12.2527 52.475 12.2645 52.3595 12.2415C52.2441 12.2186 52.138 12.1619 52.0548 12.0786C51.9715 11.9954 51.9148 11.8893 51.8919 11.7739C51.8689 11.6584 51.8807 11.5387 51.9257 11.4299C51.9708 11.3212 52.0471 11.2282 52.145 11.1628C52.2429 11.0974 52.3579 11.0625 52.4757 11.0625C52.6335 11.0625 52.7849 11.1252 52.8966 11.2368C53.0082 11.3485 53.0709 11.4999 53.0709 11.6577Z" fill="black"/>
<path opacity="0.3" d="M43.4654 35.6538C43.4654 35.6538 44.2289 35.8185 44.2558 36.3747C44.3143 37.57 44.3119 37.6066 43.4727 37.5005C43.4727 37.5005 42.9653 38.197 41.7358 37.997L41.315 38.6288H39.1402C39.744 37.9079 40.2294 37.3115 40.4417 37.0285C41.2211 35.9905 44.8632 34.4609 44.8632 34.4609C44.8632 34.4609 44.8486 34.8574 43.4654 35.6538Z" fill="black" fill-opacity="0.7"/>
</g>
<path d="M54.7476 10.3047H27.3975C26.9293 10.3047 26.5497 10.6842 26.5497 11.1524V37.7793C26.5497 38.2474 26.9293 38.627 27.3975 38.627H54.7476C55.2158 38.627 55.5953 38.2474 55.5953 37.7793V11.1524C55.5953 10.6842 55.2158 10.3047 54.7476 10.3047Z" stroke="#263238" stroke-width="0.3" stroke-linecap="round" stroke-linejoin="round"/>
<path d="M15.9902 55.7971C15.9902 55.7971 16.2049 54.2346 16.3646 53.5906C16.5244 52.9466 17.4624 50.4546 17.6661 49.0593L15.2583 47.1406C15.2583 47.1406 14.3509 51.8208 14.3509 52.555L13.8544 54.1541" fill="white"/>
<path d="M15.9902 55.7971C15.9902 55.7971 16.2049 54.2346 16.3646 53.5906C16.5244 52.9466 17.4624 50.4546 17.6661 49.0593L15.2583 47.1406C15.2583 47.1406 14.3509 51.8208 14.3509 52.555L13.8544 54.1541" stroke="#263238" stroke-width="0.3" stroke-linecap="round" stroke-linejoin="round"/>
<path d="M18.3763 50.826C17.8729 50.4422 17.3761 50.0356 16.8858 49.6063C16.1771 48.9964 15.4867 48.3329 14.8232 47.6364C14.9837 46.8581 15.1832 46.0882 15.4209 45.3299C15.6474 44.6166 16.1308 44.0128 16.7772 43.6357L16.8016 43.621L16.915 43.5576C16.9858 43.5198 17.0541 43.4856 17.1199 43.4564C17.3367 43.3564 17.5642 43.2819 17.7981 43.2344L18.3165 50.049L18.3763 50.826Z" fill="#0F913D"/>
<mask id="mask2_2925_66004" style="mask-type:luminance" maskUnits="userSpaceOnUse" x="14" y="43" width="5" height="8">
<path d="M18.373 50.826C17.8696 50.4422 17.3728 50.0356 16.8825 49.6063C16.1738 48.9964 15.4834 48.3329 14.8199 47.6364C14.9804 46.8581 15.1799 46.0882 15.4176 45.3299C15.6441 44.6166 16.1275 44.0128 16.7739 43.6357L16.7983 43.621L16.9117 43.5576C16.9825 43.5198 17.0508 43.4856 17.1166 43.4564C17.3334 43.3564 17.561 43.2819 17.7948 43.2344L18.3132 50.049L18.373 50.826Z" fill="white"/>
</mask>
<g mask="url(#mask2_2925_66004)">
<path opacity="0.3" d="M18.373 50.826C17.8696 50.4422 17.3728 50.0356 16.8825 49.6063C16.1738 48.9964 15.4834 48.3329 14.8199 47.6364C14.9804 46.8581 15.1799 46.0882 15.4176 45.3299C15.6441 44.6166 16.1275 44.0128 16.7739 43.6357L16.7983 43.621L16.9117 43.5576C16.9825 43.5198 17.0508 43.4856 17.1166 43.4564C17.3334 43.3564 17.561 43.2819 17.7948 43.2344L18.3132 50.049L18.373 50.826Z" fill="black" fill-opacity="0.7"/>
</g>
<path d="M18.3763 50.826C17.8729 50.4422 17.3761 50.0356 16.8858 49.6063C16.1771 48.9964 15.4867 48.3329 14.8232 47.6364C14.9837 46.8581 15.1832 46.0882 15.4209 45.3299C15.6474 44.6166 16.1308 44.0128 16.7772 43.6357L16.8016 43.621L16.915 43.5576C16.9858 43.5198 17.0541 43.4856 17.1199 43.4564C17.3367 43.3564 17.5642 43.2819 17.7981 43.2344L18.3165 50.049L18.3763 50.826Z" stroke="#263238" stroke-width="0.5" stroke-linecap="round" stroke-linejoin="round"/>
<path d="M15.8681 47.0391C15.8681 47.0391 16.1486 48.9455 17.4367 49.6725" stroke="#263238" stroke-width="0.5" stroke-linecap="round" stroke-linejoin="round"/>
<path d="M28.7816 48.5834C28.7816 49.5592 27.9875 53.5062 27.9875 53.5062L27.9607 56.9739C27.9607 56.9739 26.3177 57.5192 23.666 57.5192C20.4166 57.5192 18.9773 56.6495 18.8505 56.5678L18.8407 56.5617L19.3286 54.1576C19.3286 54.1576 16.7672 48.1126 16.7171 47.9052C16.6379 47.5978 16.5696 47.2868 16.5147 46.977C16.372 46.2613 16.3347 45.5287 16.4037 44.8022C16.4417 44.3919 16.5624 43.9936 16.7586 43.6312C16.7724 43.6068 16.7871 43.5824 16.8025 43.5581C16.8686 43.4514 16.9459 43.352 17.0331 43.2617L17.0562 43.2373C17.1366 43.1569 17.2226 43.0823 17.3136 43.0141C17.3441 42.9909 17.3758 42.9689 17.4075 42.947L17.4868 42.8933L17.538 42.8604L17.6051 42.8189L17.7088 42.7591C19.6348 41.6919 23.2196 41.8565 23.2196 41.8565C23.2591 41.8436 23.3001 41.8358 23.3415 41.8333H23.3501C23.4217 41.8292 23.4935 41.8349 23.5635 41.8504C24.4564 42.0236 26.0908 43.4812 27.2947 45.1437C27.6563 45.6345 27.9754 46.1552 28.2485 46.7001C28.5779 47.3636 28.7816 48.0174 28.7816 48.5834Z" fill="#0F913D"/>
<path opacity="0.3" d="M28.7592 48.2512C28.1124 48.0504 27.5018 47.7478 26.9503 47.3547C26.0855 47.5169 25.2512 46.6557 25.0341 46.1947L27.8712 46.0117C28.0091 46.2386 28.1335 46.4667 28.2445 46.6923C28.5 47.1804 28.6738 47.7069 28.7592 48.2512Z" fill="black" fill-opacity="0.7"/>
<path opacity="0.3" d="M19.9053 54.7773C19.9053 54.7773 20.5432 57.5071 18.8502 56.5667L18.8405 56.5606L19.3284 54.1565C19.3284 54.1565 16.7669 48.1115 16.7169 47.9041C16.6376 47.5968 16.5693 47.2857 16.5144 46.9759C16.3722 46.2614 16.3348 45.53 16.4034 44.8048C16.4414 44.3945 16.5622 43.9962 16.7584 43.6338C16.7722 43.6094 16.7868 43.585 16.8023 43.5606C16.8684 43.454 16.9457 43.3546 17.0328 43.2642L17.056 43.2399C17.1364 43.1594 17.2224 43.0848 17.3134 43.0166C17.3439 42.9935 17.3756 42.9715 17.4073 42.9496L17.4866 42.8959L17.5378 42.863L17.6049 42.8215L17.7086 42.7617C19.4808 42.8983 21.4507 43.7375 21.8313 45.4598C21.8313 45.4598 21.6703 48.0981 21.0909 49.0629C20.7311 49.6642 20.6091 52.472 22.3887 51.6597C21.8325 54.4627 19.9053 54.7773 19.9053 54.7773Z" fill="black" fill-opacity="0.7"/>
<path d="M18.8405 56.558L19.3284 54.1539C19.3284 54.1539 16.7669 48.1089 16.7169 47.9015C16.6376 47.5942 16.5693 47.2831 16.5144 46.9733C16.3722 46.2588 16.3348 45.5274 16.4034 44.8022C16.4414 44.3919 16.5622 43.9936 16.7584 43.6312C16.7722 43.6068 16.7868 43.5824 16.8023 43.5581C16.8684 43.4514 16.9457 43.352 17.0328 43.2617L17.056 43.2373C17.1364 43.1569 17.2224 43.0823 17.3134 43.0141C19.0893 41.6723 23.2193 41.8565 23.2193 41.8565C23.2588 41.8436 23.2998 41.8358 23.3413 41.8333H23.3498C23.4214 41.8292 23.4933 41.8349 23.5633 41.8504C24.4561 42.0236 26.0906 43.4812 27.2945 45.1437C27.656 45.6345 27.9751 46.1552 28.2483 46.7001C28.5813 47.3746 28.785 48.0272 28.785 48.5895C28.785 49.5653 27.9909 53.5123 27.9909 53.5123L27.9641 56.98" stroke="#263238" stroke-width="0.5" stroke-linecap="round" stroke-linejoin="round"/>
<path d="M25.0072 36.3333C24.862 36.1527 24.2143 35.7234 24.2143 35.7234C24.0924 34.8805 24.0167 33.756 23.1434 32.8838C21.9493 31.6922 19.1939 32.0691 18.2913 33.8462C16.4897 37.3969 19.8952 40.7414 24.0631 40.0339C24.418 39.9742 24.6571 39.6265 24.7059 37.9762L24.8169 37.7457C24.8169 37.7457 24.7022 37.3517 24.6668 37.1541C24.8766 36.9517 25.1121 36.465 25.0072 36.3333Z" fill="white" stroke="#263238" stroke-width="0.3" stroke-linecap="round" stroke-linejoin="round"/>
<path d="M23.9831 34.4062C23.8762 34.5802 23.7941 34.7682 23.7392 34.9649" stroke="#263238" stroke-width="0.5" stroke-linecap="round" stroke-linejoin="round"/>
<path d="M24.0458 35.9922C24.0458 35.9922 24.3361 36.1678 24.4679 36.724" stroke="#263238" stroke-width="0.3" stroke-linecap="round" stroke-linejoin="round"/>
<path d="M24.7797 37.8281C24.7797 37.8281 24.6663 38.0111 24.1943 37.9574" stroke="#263238" stroke-width="0.3" stroke-linecap="round" stroke-linejoin="round"/>
<path d="M23.5424 32.4226C23.5424 32.4226 24.6402 31.9701 24.3231 34.1168C24.0059 36.2636 22.419 38.8165 21.081 38.3383L21.1042 38.1468C21.1042 38.1468 22.2751 38.6091 23.2607 36.5734C24.2462 34.5376 24.1645 32.6702 23.601 32.9983L23.5424 32.4226Z" fill="#263238"/>
<path d="M23.4436 35.75C23.4436 35.75 23.024 36.8563 22.6885 37.2137C22.6885 37.2137 22.5532 36.7904 22.2299 36.7868C21.9067 36.7831 21.6201 35.9232 21.6201 35.9232L23.4436 35.75Z" fill="#263238"/>
<path d="M22.9913 35.8008C22.9913 35.8008 22.2204 37.6804 22.7852 39.1319C23.3499 40.5834 24.9417 41.6738 24.9417 41.6738L24.4282 41.4408C24.4282 41.4408 23.0767 40.5517 22.6047 39.0123C22.3273 38.036 22.3205 37.0026 22.5851 36.0228L22.9913 35.8008Z" fill="#263238"/>
<path d="M16.6384 33.3008C16.6384 33.3008 15.354 33.8265 15.4236 35.7305C15.4931 37.6345 16.7982 39.2897 17.0604 41.717C17.2885 43.8283 14.9869 45.6872 17.3178 48.1547C17.3178 48.1547 16.2969 46.5691 16.6079 44.7956C16.919 43.0221 17.9862 43.277 17.1946 40.3899C16.403 37.5028 14.7234 35.7951 16.4628 33.9546L16.6384 33.3008Z" fill="#263238"/>
<path d="M24.1278 41.1874C21.7786 39.8774 22.4202 37.0805 22.4202 37.0805C24.1876 35.7779 24.423 33.3384 24.0985 32.7102C23.7741 32.0821 23.0666 32.2967 23.0666 32.2967C20.2503 30.955 16.7838 32.2077 16.1251 34.18C15.2823 36.7061 16.7228 38.6467 17.4266 40.7666C18.0584 42.6718 16.5947 43.017 16.5996 44.9137C16.3227 48.4509 19.9502 49.928 19.9502 49.928C19.8547 49.8705 19.7757 49.7893 19.7208 49.6923C19.6659 49.5953 19.6369 49.4857 19.6367 49.3743C19.6367 48.9876 20.6259 48.9876 21.2773 47.8984C21.8176 46.9946 21.8603 44.7905 22.0408 43.7245C22.2848 42.7596 22.5897 41.9888 23.2203 41.8485C24.8816 41.4765 26.3148 43.089 26.3148 43.089C26.3148 43.089 26.4782 42.4974 24.1278 41.1874Z" fill="#263238"/>
<g opacity="0.3">
<path d="M23.4398 32.6836C23.6959 33.1337 21.7736 35.5146 21.0772 37.5723C20.3807 39.63 21.0894 40.8363 21.0894 40.8363" stroke="white" stroke-width="0.5" stroke-linecap="round" stroke-linejoin="round"/>
<path d="M19.1342 33.3008C19.1342 33.3008 17.0423 35.1023 18.2328 38.3968C19.4233 41.6913 18.8963 43.9625 18.4999 45.7384C18.1035 47.5144 18.4255 48.1242 18.9085 48.6073" stroke="white" stroke-width="0.5" stroke-linecap="round" stroke-linejoin="round"/>
<path d="M21.7652 38.7383C21.7652 38.7383 22.8874 40.0019 22.1177 41.8279C21.3481 43.6538 20.9297 44.9589 20.6394 46.3799C20.3491 47.8009 19.7063 48.1546 19.7063 48.1546" stroke="white" stroke-width="0.5" stroke-linecap="round" stroke-linejoin="round"/>
<path d="M21.8302 32.3831C21.8302 32.3831 20.6726 32.3294 20.1225 33.8089C19.5724 35.2885 20.0908 37.845 19.8981 38.7379" stroke="white" stroke-width="0.5" stroke-linecap="round" stroke-linejoin="round"/>
<path d="M18.8385 32.3828C18.8385 32.3828 17.1406 32.4536 16.5991 34.8016C16.0575 37.1495 17.6883 39.1231 17.8615 40.9527C18.0347 42.7823 17.0077 44.4765 17.0699 45.7377C17.1321 46.9989 17.8615 47.6649 17.8615 47.6649" stroke="white" stroke-width="0.5" stroke-linecap="round" stroke-linejoin="round"/>
</g>
<path d="M29.4574 42.0408C29.4574 42.0408 33.1727 42.3176 33.7033 42.3176C34.2338 42.3176 39.1555 37.4387 40.0239 36.4788C40.8924 35.5188 44.6589 34.3125 44.6589 34.3125C44.6589 34.3125 44.6114 34.7114 43.1635 35.3773C43.1635 35.3773 43.9088 35.6091 43.8868 36.1653C43.8393 37.3618 43.8332 37.3984 43.0062 37.2167C43.0062 37.2167 42.439 37.8668 41.2327 37.5582C41.2327 37.5582 38.3383 41.1589 37.0588 42.8031C35.7792 44.4473 35.2499 44.9986 34.7669 45.1779C34.2838 45.3572 28.3974 45.7402 28.3974 45.7402L29.4574 42.0408Z" fill="white" stroke="#263238" stroke-width="0.3" stroke-linecap="round" stroke-linejoin="round"/>
<path d="M24.7799 46.4215C26.7071 47.6278 29.9394 46.1324 29.9394 46.1324C29.9394 46.1324 30.5188 43.5075 29.9394 41.828C29.9394 41.828 25.8862 41.0388 23.6663 41.7999C23.5507 41.8436 23.4455 41.911 23.3575 41.9978C23.2695 42.0845 23.2006 42.1887 23.1552 42.3037" fill="#0F913D"/>
<path d="M24.7799 46.4215C26.7071 47.6278 29.9394 46.1324 29.9394 46.1324C29.9394 46.1324 30.5188 43.5075 29.9394 41.828C29.9394 41.828 25.8862 41.0388 23.6663 41.7999C23.5507 41.8436 23.4455 41.911 23.3575 41.9978C23.2695 42.0845 23.2006 42.1887 23.1552 42.3037" stroke="#263238" stroke-width="0.5" stroke-linecap="round" stroke-linejoin="round"/>
<path d="M29.4267 41.7383C29.7496 43.0892 29.7762 44.494 29.5048 45.8561" stroke="#263238" stroke-width="0.5" stroke-linecap="round" stroke-linejoin="round"/>
<path d="M28.7822 43.4258C28.7822 43.4258 27.4405 45.614 25.7255 45.936" stroke="#263238" stroke-width="0.5" stroke-linecap="round" stroke-linejoin="round"/>
<path d="M27.5335 46.8242C27.5335 46.8242 26.6419 47.8817 25.5478 47.8817" stroke="#263238" stroke-width="0.5" stroke-linecap="round" stroke-linejoin="round"/>
<path d="M26.6749 46.8906C26.7585 47.0976 26.7585 47.3289 26.6749 47.5359C26.6749 47.5359 26.8261 48.1713 26.5407 49.0874C26.3309 49.7631 26.3407 51.6793 26.2431 53.0271C26.2431 53.0271 26.5529 54.653 26.5407 57.0974" stroke="#263238" stroke-width="0.5" stroke-linecap="round" stroke-linejoin="round"/>
<path d="M24.6122 41.577C24.6122 41.577 26.2723 41.4672 27.253 42.6248" stroke="#263238" stroke-width="0.5" stroke-linecap="round" stroke-linejoin="round"/>
<path d="M43.5831 36.4961C43.5831 36.4961 43.3392 36.9181 43.0526 37.0145C43.0526 37.0145 43.0306 37.4548 42.2939 37.6024" stroke="#263238" stroke-width="0.5" stroke-linecap="round" stroke-linejoin="round"/>
<path d="M43.3798 36.7734C43.4496 36.8143 43.5024 36.8788 43.5286 36.9552" stroke="#263238" stroke-width="0.5" stroke-linecap="round" stroke-linejoin="round"/>
<path d="M19.3232 54.1562C19.3232 54.1562 21.0381 56.392 22.6726 55.5882" stroke="#263238" stroke-width="0.5" stroke-linecap="round" stroke-linejoin="round"/>
<path d="M23.6661 49.5273C23.6661 49.5273 22.5086 53.0804 19.9033 52.9194" stroke="#263238" stroke-width="0.5" stroke-linecap="round" stroke-linejoin="round"/>
</svg>
