<svg width="69" height="69" viewBox="0 0 69 69" fill="none" xmlns="http://www.w3.org/2000/svg">
<rect width="69" height="69" rx="34.5" fill="#F5F5F5"/>
<path d="M31.5895 15.6328H29.4967L28.4497 41.6908H32.6366L31.5895 15.6328Z" fill="#0F913D" stroke="#263238" stroke-width="0.2" stroke-miterlimit="10"/>
<path d="M31.5806 15.8639H29.5096C29.48 15.8639 29.4507 15.858 29.4234 15.8467C29.3961 15.8353 29.3714 15.8187 29.3505 15.7978C29.3297 15.7768 29.3132 15.7519 29.302 15.7246C29.2908 15.6972 29.2851 15.6679 29.2853 15.6383C29.2853 15.5789 29.3089 15.5218 29.351 15.4798C29.393 15.4377 29.4501 15.4141 29.5096 15.4141H31.5806C31.64 15.4141 31.6971 15.4377 31.7391 15.4798C31.7812 15.5218 31.8048 15.5789 31.8048 15.6383C31.8048 15.6979 31.7812 15.7551 31.7392 15.7974C31.6972 15.8396 31.6402 15.8636 31.5806 15.8639Z" fill="white" stroke="#263238" stroke-width="0.2" stroke-miterlimit="10"/>
<path d="M29.4482 16.832L29.411 17.7727H31.6755L31.6371 16.832H29.4482Z" fill="white" stroke="#263238" stroke-width="0.2" stroke-miterlimit="10"/>
<path d="M32.4916 38.1034L32.4544 37.1641H28.6315L28.5931 38.1034H32.4916Z" fill="white" stroke="#263238" stroke-width="0.2" stroke-miterlimit="10"/>
<path d="M28.8651 31.3555L28.8267 32.2949H32.2587L32.2215 31.3555H28.8651Z" fill="white" stroke="#263238" stroke-width="0.2" stroke-miterlimit="10"/>
<path d="M28.7483 34.2578L28.7098 35.1985H32.3751L32.3379 34.2578H28.7483Z" fill="white" stroke="#263238" stroke-width="0.2" stroke-miterlimit="10"/>
<path d="M28.9814 28.4492L28.9442 29.3886H32.1417L32.1045 28.4492H28.9814Z" fill="white" stroke="#263238" stroke-width="0.2" stroke-miterlimit="10"/>
<path d="M29.3314 19.7344L29.2943 20.6738H31.792L31.7536 19.7344H29.3314Z" fill="white" stroke="#263238" stroke-width="0.2" stroke-miterlimit="10"/>
<path d="M29.0982 25.543L29.061 26.4836H32.0253L31.9881 25.543H29.0982Z" fill="white" stroke="#263238" stroke-width="0.2" stroke-miterlimit="10"/>
<path d="M29.2146 22.6406L29.1774 23.58H31.9084L31.8713 22.6406H29.2146Z" fill="white" stroke="#263238" stroke-width="0.2" stroke-miterlimit="10"/>
<path d="M37.2282 15.6328H35.1354L34.0884 41.6908H38.2752L37.2282 15.6328Z" fill="#0F913D" stroke="#263238" stroke-width="0.2" stroke-miterlimit="10"/>
<path d="M37.2196 15.8639H35.1486C35.119 15.8639 35.0898 15.858 35.0625 15.8467C35.0352 15.8353 35.0104 15.8187 34.9896 15.7978C34.9687 15.7768 34.9522 15.7519 34.941 15.7246C34.9298 15.6972 34.9242 15.6679 34.9243 15.6383C34.9243 15.5789 34.948 15.5218 34.99 15.4798C35.0321 15.4377 35.0891 15.4141 35.1486 15.4141H37.2196C37.2791 15.4141 37.3361 15.4377 37.3782 15.4798C37.4202 15.5218 37.4439 15.5789 37.4439 15.6383C37.4439 15.6979 37.4203 15.7551 37.3783 15.7974C37.3362 15.8396 37.2792 15.8636 37.2196 15.8639Z" fill="white" stroke="#263238" stroke-width="0.2" stroke-miterlimit="10"/>
<path d="M35.0868 16.832L35.0497 17.7727H37.3142L37.2758 16.832H35.0868Z" fill="white" stroke="#263238" stroke-width="0.2" stroke-miterlimit="10"/>
<path d="M38.1306 38.1034L38.0935 37.1641H34.2706L34.2321 38.1034H38.1306Z" fill="white" stroke="#263238" stroke-width="0.2" stroke-miterlimit="10"/>
<path d="M34.5038 31.3555L34.4653 32.2949H37.8974L37.8602 31.3555H34.5038Z" fill="white" stroke="#263238" stroke-width="0.2" stroke-miterlimit="10"/>
<path d="M34.387 34.2578L34.3485 35.1985H38.0138L37.9766 34.2578H34.387Z" fill="white" stroke="#263238" stroke-width="0.2" stroke-miterlimit="10"/>
<path d="M34.6205 28.4492L34.5833 29.3886H37.7808L37.7436 28.4492H34.6205Z" fill="white" stroke="#263238" stroke-width="0.2" stroke-miterlimit="10"/>
<path d="M34.9705 19.7344L34.9333 20.6738H37.4311L37.3939 19.7344H34.9705Z" fill="white" stroke="#263238" stroke-width="0.2" stroke-miterlimit="10"/>
<path d="M34.7369 25.543L34.6997 26.4836H37.664L37.6268 25.543H34.7369Z" fill="white" stroke="#263238" stroke-width="0.2" stroke-miterlimit="10"/>
<path d="M34.8537 22.6406L34.8165 23.58H37.5475L37.5104 22.6406H34.8537Z" fill="white" stroke="#263238" stroke-width="0.2" stroke-miterlimit="10"/>
<path d="M42.8672 15.6328H40.7745L39.7274 41.6908H43.9143L42.8672 15.6328Z" fill="#0F913D" stroke="#263238" stroke-width="0.2" stroke-miterlimit="10"/>
<path d="M42.8583 15.8639H40.7873C40.7577 15.8639 40.7284 15.858 40.7011 15.8467C40.6739 15.8353 40.6491 15.8187 40.6282 15.7978C40.6074 15.7768 40.5909 15.7519 40.5797 15.7246C40.5685 15.6972 40.5628 15.6679 40.563 15.6383C40.563 15.5789 40.5866 15.5218 40.6287 15.4798C40.6707 15.4377 40.7278 15.4141 40.7873 15.4141H42.8583C42.9178 15.4141 42.9748 15.4377 43.0169 15.4798C43.0589 15.5218 43.0825 15.5789 43.0825 15.6383C43.0825 15.6979 43.059 15.7551 43.0169 15.7974C42.9749 15.8396 42.9179 15.8636 42.8583 15.8639Z" fill="white" stroke="#263238" stroke-width="0.2" stroke-miterlimit="10"/>
<path d="M40.7259 16.832L40.6888 17.7727H42.9533L42.9149 16.832H40.7259Z" fill="white" stroke="#263238" stroke-width="0.2" stroke-miterlimit="10"/>
<path d="M43.7693 38.1034L43.7321 37.1641H39.9092L39.8708 38.1034H43.7693Z" fill="white" stroke="#263238" stroke-width="0.2" stroke-miterlimit="10"/>
<path d="M40.1428 31.3555L40.1044 32.2949H43.5364L43.4992 31.3555H40.1428Z" fill="white" stroke="#263238" stroke-width="0.2" stroke-miterlimit="10"/>
<path d="M40.0259 34.2578L39.9888 35.1985H43.6528L43.6156 34.2578H40.0259Z" fill="white" stroke="#263238" stroke-width="0.2" stroke-miterlimit="10"/>
<path d="M40.2592 28.4492L40.222 29.3886H43.4195L43.3823 28.4492H40.2592Z" fill="white" stroke="#263238" stroke-width="0.2" stroke-miterlimit="10"/>
<path d="M40.6091 19.7344L40.572 20.6738H43.0697L43.0326 19.7344H40.6091Z" fill="white" stroke="#263238" stroke-width="0.2" stroke-miterlimit="10"/>
<path d="M40.3759 25.543L40.3387 26.4836H43.303L43.2658 25.543H40.3759Z" fill="white" stroke="#263238" stroke-width="0.2" stroke-miterlimit="10"/>
<path d="M40.4927 22.6406L40.4556 23.58H43.1866L43.1494 22.6406H40.4927Z" fill="white" stroke="#263238" stroke-width="0.2" stroke-miterlimit="10"/>
<path d="M19.9682 35.7344H11.638V53.5045H19.9682V35.7344Z" fill="#263238" stroke="#263238" stroke-width="0.2" stroke-linecap="round" stroke-linejoin="round"/>
<path d="M19.5981 33.3633L24.1092 35.9982H23.2416L18.7587 33.758L19.5981 33.3633Z" fill="white" stroke="#263238" stroke-width="0.2" stroke-miterlimit="10"/>
<path d="M23.635 53.5043H15.3048V35.7342L19.598 33.3633L23.635 35.7342V53.5043Z" fill="#0F913D" stroke="#263238" stroke-width="0.2" stroke-linecap="round" stroke-linejoin="round"/>
<path d="M10.9974 36.1186H14.6639L19.5979 33.3633H15.8814L10.9974 36.1186Z" fill="#8F8F8F" stroke="#263238" stroke-width="0.2" stroke-linecap="round" stroke-linejoin="round"/>
<path d="M20.2387 34.8984H18.8931V36.1159H20.2387V34.8984Z" fill="#263238" stroke="#263238" stroke-width="0.2" stroke-miterlimit="10"/>
<path d="M43.5685 38.4922H16.6364V53.5019H43.5685V38.4922Z" fill="#263238" stroke="#263238" stroke-width="0.2" stroke-linecap="round" stroke-linejoin="round"/>
<path d="M57.0031 38.4922H28.4896V53.5019H57.0031V38.4922Z" fill="white" stroke="#263238" stroke-width="0.2" stroke-linecap="round" stroke-linejoin="round"/>
<path d="M36.8363 44.2461H32.1368V53.5041H36.8363V44.2461Z" fill="white" stroke="#263238" stroke-width="0.2" stroke-linecap="round" stroke-linejoin="round"/>
<path d="M36.0648 44.2461H32.1368V53.5041H36.0648V44.2461Z" fill="#263238" stroke="#263238" stroke-width="0.2" stroke-linecap="round" stroke-linejoin="round"/>
<path d="M45.2523 44.2461H40.5529V53.5041H45.2523V44.2461Z" fill="white" stroke="#263238" stroke-width="0.2" stroke-linecap="round" stroke-linejoin="round"/>
<path d="M44.4808 44.2461H40.5529V53.5041H44.4808V44.2461Z" fill="#263238" stroke="#263238" stroke-width="0.2" stroke-linecap="round" stroke-linejoin="round"/>
<path d="M53.6695 44.2461H48.97V53.5041H53.6695V44.2461Z" fill="white" stroke="#263238" stroke-width="0.2" stroke-linecap="round" stroke-linejoin="round"/>
<path d="M52.898 44.2461H48.97V53.5041H52.898V44.2461Z" fill="#263238" stroke="#263238" stroke-width="0.2" stroke-linecap="round" stroke-linejoin="round"/>
<path d="M20.2812 40.2109H17.7181V42.5613H20.2812V40.2109Z" fill="white" stroke="#263238" stroke-width="0.2" stroke-linecap="round" stroke-linejoin="round"/>
<path d="M23.7464 40.2109H21.1833V42.5613H23.7464V40.2109Z" fill="white" stroke="#263238" stroke-width="0.2" stroke-linecap="round" stroke-linejoin="round"/>
<path d="M27.2117 40.2109H24.6486V42.5613H27.2117V40.2109Z" fill="white" stroke="#263238" stroke-width="0.2" stroke-linecap="round" stroke-linejoin="round"/>
<path d="M36.3443 40.2109H32.515V42.5613H36.3443V40.2109Z" fill="white" stroke="#263238" stroke-width="0.2" stroke-linecap="round" stroke-linejoin="round"/>
<path d="M36.1263 40.2109H32.297V42.5613H36.1263V40.2109Z" fill="white" stroke="#263238" stroke-width="0.2" stroke-linecap="round" stroke-linejoin="round"/>
<path d="M44.7536 40.2109H40.9243V42.5613H44.7536V40.2109Z" fill="white" stroke="#263238" stroke-width="0.2" stroke-linecap="round" stroke-linejoin="round"/>
<path d="M44.5345 40.2109H40.7052V42.5613H44.5345V40.2109Z" fill="white" stroke="#263238" stroke-width="0.2" stroke-linecap="round" stroke-linejoin="round"/>
<path d="M53.1622 40.2109H49.3329V42.5613H53.1622V40.2109Z" fill="white" stroke="#263238" stroke-width="0.2" stroke-linecap="round" stroke-linejoin="round"/>
<path d="M52.9442 40.2109H49.1149V42.5613H52.9442V40.2109Z" fill="white" stroke="#263238" stroke-width="0.2" stroke-linecap="round" stroke-linejoin="round"/>
<path d="M16.2619 42.5352H12.8517V44.51H16.2619V42.5352Z" fill="#0F913D" stroke="#263238" stroke-width="0.2" stroke-linecap="round" stroke-linejoin="round"/>
<path d="M17.3361 42.5352H13.9259V44.51H17.3361V42.5352Z" fill="#0F913D" stroke="#263238" stroke-width="0.2" stroke-linecap="round" stroke-linejoin="round"/>
<path d="M20.4311 43.6484H12.0228V53.5037H20.4311V43.6484Z" fill="#263238" stroke="#263238" stroke-width="0.2" stroke-linecap="round" stroke-linejoin="round"/>
<path d="M26.6697 43.6484H18.2614V53.5037H26.6697V43.6484Z" fill="#0F913D" stroke="#263238" stroke-width="0.2" stroke-linecap="round" stroke-linejoin="round"/>
<path d="M23.5952 49.8867H21.3345V53.5033H23.5952V49.8867Z" fill="#263238" stroke="#263238" stroke-width="0.2" stroke-linecap="round" stroke-linejoin="round"/>
<path d="M17.4463 44.8242H16.0482V51.5153H17.4463V44.8242Z" fill="#0F913D" stroke="#263238" stroke-width="0.2" stroke-linecap="round" stroke-linejoin="round"/>
<path d="M15.6596 44.8242H14.2614V51.5153H15.6596V44.8242Z" fill="#0F913D" stroke="#263238" stroke-width="0.2" stroke-linecap="round" stroke-linejoin="round"/>
<path d="M13.8717 44.8242H12.4735V51.5153H13.8717V44.8242Z" fill="#0F913D" stroke="#263238" stroke-width="0.2" stroke-linecap="round" stroke-linejoin="round"/>
<path d="M31.4406 40.0273H29.4286V53.444H31.4406V40.0273Z" fill="white" stroke="#263238" stroke-width="0.2" stroke-linecap="round" stroke-linejoin="round"/>
<path d="M31.7563 40.0273H29.7443V53.444H31.7563V40.0273Z" fill="#0F913D" stroke="#263238" stroke-width="0.2" stroke-miterlimit="10"/>
<path d="M39.6481 40.0273H37.636V53.444H39.6481V40.0273Z" fill="white" stroke="#263238" stroke-width="0.2" stroke-linecap="round" stroke-linejoin="round"/>
<path d="M39.9645 40.0273H37.9525V53.444H39.9645V40.0273Z" fill="#0F913D" stroke="#263238" stroke-width="0.2" stroke-miterlimit="10"/>
<path d="M48.0524 40.0273H46.0403V53.444H48.0524V40.0273Z" fill="white" stroke="#263238" stroke-width="0.2" stroke-linecap="round" stroke-linejoin="round"/>
<path d="M48.3692 40.0273H46.3571V53.444H48.3692V40.0273Z" fill="#0F913D" stroke="#263238" stroke-width="0.2" stroke-miterlimit="10"/>
<path d="M56.4684 40.0273H54.4564V53.444H56.4684V40.0273Z" fill="white" stroke="#263238" stroke-width="0.2" stroke-linecap="round" stroke-linejoin="round"/>
<path d="M56.7837 40.0273H54.7716V53.444H56.7837V40.0273Z" fill="#0F913D" stroke="#263238" stroke-width="0.2" stroke-miterlimit="10"/>
</svg>
