<svg width="69" height="69" viewBox="0 0 69 69" fill="none" xmlns="http://www.w3.org/2000/svg">
<rect width="69" height="69" rx="34.5" fill="#F5F5F5"/>
<path d="M21.1825 41.0208L27.5319 34.4102H40.9429L47.9383 41.0208H21.1825Z" fill="#078634"/>
<path opacity="0.1" d="M27.5319 34.2656L35.417 41.3167L21.1825 40.8762L27.5319 34.2656Z" fill="black"/>
<path d="M44.813 41.8164H21.0378V50.4013H44.813V41.8164Z" fill="#078634"/>
<path opacity="0.8" d="M44.813 41.8164H21.0378V50.4013H44.813V41.8164Z" fill="white"/>
<path opacity="0.05" d="M35.0459 41.8164H21.0378V50.4013H35.0459V41.8164Z" fill="black"/>
<path d="M43.9936 43.0352H30.304V48.0928H43.9936V43.0352Z" fill="#078634"/>
<path opacity="0.1" d="M30.304 43.0352V48.0928H43.9918V43.0352H30.304ZM43.4364 47.6157H30.7898V43.5975H43.4364V47.6157Z" fill="white"/>
<path opacity="0.1" d="M35.4731 43.0352H30.304V48.0928H35.4731V43.0352Z" fill="black"/>
<path d="M42.8429 43.5977H31.2478V47.5289H42.8429V43.5977Z" fill="#078634"/>
<path opacity="0.5" d="M42.8446 43.6016H31.2478V47.5328H42.8446V43.6016Z" fill="white"/>
<path opacity="0.05" d="M35.1059 43.5977H31.2478V47.5289H35.1059V43.5977Z" fill="black"/>
<path opacity="0.3" d="M34.4345 43.6016L33.3812 47.5328H31.9449L32.9982 43.6016H34.4345Z" fill="white"/>
<path opacity="0.3" d="M42.8452 43.6016V47.0418L42.7129 47.5328H41.2783L42.3299 43.6016H42.8452Z" fill="white"/>
<path opacity="0.3" d="M35.2879 43.6016L34.2363 47.5328H33.822L34.8735 43.6016H35.2879Z" fill="white"/>
<path opacity="0.3" d="M41.9234 43.6016L40.8701 47.5328H40.6629L41.7145 43.6016H41.9234Z" fill="white"/>
<path d="M28.0315 43.625H21.024V47.5806H28.0315V43.625Z" fill="black"/>
<path d="M28.0315 43.625H21.024V47.5806H28.0315V43.625Z" fill="#078634"/>
<path opacity="0.5" d="M28.0315 43.625H21.024V47.5806H28.0315V43.625Z" fill="white"/>
<path opacity="0.3" d="M21.024 43.625V47.114L21.9572 43.625H21.024Z" fill="white"/>
<path opacity="0.3" d="M22.937 43.625L21.8785 47.5806H21.4049L22.4634 43.625H22.937Z" fill="white"/>
<path d="M41.7261 47.5312H32.8992V47.815H33.3013V50.477H33.519V50.3203H36.4003V50.477H36.6162V50.3203H39.4976V50.477H39.7152V50.3203H42.6471V50.477H42.8595V50.3203H45.7408V50.477H45.9585V50.3203H48.8398V50.477H49.0557V47.815H49.4596V47.5312H41.7261ZM36.4003 50.2455H33.519V49.9617H36.4003V50.2455ZM36.4003 49.8868H33.519V49.5978H36.4003V49.8868ZM36.4003 49.5282H33.519V49.2496H36.4003V49.5282ZM36.4003 49.1695H33.519V48.884H36.4003V49.1695ZM36.4003 48.8109H33.519V48.5254H36.4003V48.8109ZM36.4003 48.4522H33.519V48.1667H36.4003V48.4522ZM36.4003 48.0936H33.519V47.815H36.4003V48.0936ZM39.4976 50.2455H36.6162V49.9617H39.4976V50.2455ZM39.4976 49.8868H36.6162V49.5978H39.4976V49.8868ZM39.4976 49.5282H36.6162V49.2496H39.4976V49.5282ZM39.4976 49.1695H36.6162V48.884H39.4976V49.1695ZM39.4976 48.8109H36.6162V48.5254H39.4976V48.8109ZM39.4976 48.4522H36.6162V48.1667H39.4976V48.4522ZM39.4976 48.0936H36.6162V47.815H39.4976V48.0936ZM42.6471 50.2455H39.7152V49.9617H42.6471V50.2455ZM42.6471 49.8868H39.7152V49.5978H42.6471V49.8868ZM42.6471 49.5282H39.7152V49.2496H42.6471V49.5282ZM42.6471 49.1695H39.7152V48.884H42.6471V49.1695ZM42.6471 48.8109H39.7152V48.5254H42.6471V48.8109ZM42.6471 48.4522H39.7152V48.1667H42.6471V48.4522ZM42.6471 48.0936H39.7152V47.815H42.6471V48.0936ZM45.7443 50.2455H42.8595V49.9617H45.7408L45.7443 50.2455ZM45.7443 49.8868H42.8595V49.5978H45.7408L45.7443 49.8868ZM45.7443 49.5282H42.8595V49.2496H45.7408L45.7443 49.5282ZM45.7443 49.1695H42.8595V48.884H45.7408L45.7443 49.1695ZM45.7443 48.8109H42.8595V48.5254H45.7408L45.7443 48.8109ZM45.7443 48.4522H42.8595V48.1667H45.7408L45.7443 48.4522ZM45.7443 48.0936H42.8595V47.815H45.7408L45.7443 48.0936ZM48.8433 50.2455H45.9619V49.9617H48.8433V50.2455ZM48.8433 49.8868H45.9619V49.5978H48.8433V49.8868ZM48.8433 49.5282H45.9619V49.2496H48.8433V49.5282ZM48.8433 49.1695H45.9619V48.884H48.8433V49.1695ZM48.8433 48.8109H45.9619V48.5254H48.8433V48.8109ZM48.8433 48.4522H45.9619V48.1667H48.8433V48.4522ZM48.8433 48.0936H45.9619V47.815H48.8433V48.0936Z" fill="#078634"/>
<path opacity="0.3" d="M41.7261 47.5312H32.8992V47.815H33.3013V50.477H33.519V50.3203H36.4003V50.477H36.6162V50.3203H39.4976V50.477H39.7152V50.3203H42.6471V50.477H42.8595V50.3203H45.7408V50.477H45.9585V50.3203H48.8398V50.477H49.0557V47.815H49.4596V47.5312H41.7261ZM36.4003 50.2455H33.519V49.9617H36.4003V50.2455ZM36.4003 49.8868H33.519V49.5978H36.4003V49.8868ZM36.4003 49.5282H33.519V49.2496H36.4003V49.5282ZM36.4003 49.1695H33.519V48.884H36.4003V49.1695ZM36.4003 48.8109H33.519V48.5254H36.4003V48.8109ZM36.4003 48.4522H33.519V48.1667H36.4003V48.4522ZM36.4003 48.0936H33.519V47.815H36.4003V48.0936ZM39.4976 50.2455H36.6162V49.9617H39.4976V50.2455ZM39.4976 49.8868H36.6162V49.5978H39.4976V49.8868ZM39.4976 49.5282H36.6162V49.2496H39.4976V49.5282ZM39.4976 49.1695H36.6162V48.884H39.4976V49.1695ZM39.4976 48.8109H36.6162V48.5254H39.4976V48.8109ZM39.4976 48.4522H36.6162V48.1667H39.4976V48.4522ZM39.4976 48.0936H36.6162V47.815H39.4976V48.0936ZM42.6471 50.2455H39.7152V49.9617H42.6471V50.2455ZM42.6471 49.8868H39.7152V49.5978H42.6471V49.8868ZM42.6471 49.5282H39.7152V49.2496H42.6471V49.5282ZM42.6471 49.1695H39.7152V48.884H42.6471V49.1695ZM42.6471 48.8109H39.7152V48.5254H42.6471V48.8109ZM42.6471 48.4522H39.7152V48.1667H42.6471V48.4522ZM42.6471 48.0936H39.7152V47.815H42.6471V48.0936ZM45.7443 50.2455H42.8595V49.9617H45.7408L45.7443 50.2455ZM45.7443 49.8868H42.8595V49.5978H45.7408L45.7443 49.8868ZM45.7443 49.5282H42.8595V49.2496H45.7408L45.7443 49.5282ZM45.7443 49.1695H42.8595V48.884H45.7408L45.7443 49.1695ZM45.7443 48.8109H42.8595V48.5254H45.7408L45.7443 48.8109ZM45.7443 48.4522H42.8595V48.1667H45.7408L45.7443 48.4522ZM45.7443 48.0936H42.8595V47.815H45.7408L45.7443 48.0936ZM48.8433 50.2455H45.9619V49.9617H48.8433V50.2455ZM48.8433 49.8868H45.9619V49.5978H48.8433V49.8868ZM48.8433 49.5282H45.9619V49.2496H48.8433V49.5282ZM48.8433 49.1695H45.9619V48.884H48.8433V49.1695ZM48.8433 48.8109H45.9619V48.5254H48.8433V48.8109ZM48.8433 48.4522H45.9619V48.1667H48.8433V48.4522ZM48.8433 48.0936H45.9619V47.815H48.8433V48.0936Z" fill="white"/>
<path d="M48.7619 50.9219H39.5363V60.957H48.7619V50.9219Z" fill="#078634"/>
<path opacity="0.3" d="M48.7619 50.9219H39.5363V60.957H48.7619V50.9219Z" fill="white"/>
<path d="M21.7995 50.3984H19.8635V60.9716H21.7995V50.3984Z" fill="#078634"/>
<path opacity="0.3" d="M21.7995 50.3984H19.8635V60.9716H21.7995V50.3984Z" fill="white"/>
<path opacity="0.2" d="M21.7996 51.3789H20.5687V60.9719H21.7996V51.3789Z" fill="white"/>
<path d="M44.8286 50.7344H21.0378V60.9715H44.8286V50.7344Z" fill="#078634"/>
<path opacity="0.8" d="M44.8286 50.7344H21.0378V60.9715H44.8286V50.7344Z" fill="white"/>
<path opacity="0.05" d="M33.2562 50.7344H21.0378V60.9715H33.2562V50.7344Z" fill="black"/>
<path d="M31.2814 52.9297H26.6956V56.8852H31.2814V52.9297Z" fill="black"/>
<path d="M26.4154 52.9297H22.1238V56.8852H26.4154V52.9297Z" fill="black"/>
<path d="M26.4154 52.9297H22.1238V56.8852H26.4154V52.9297Z" fill="#078634"/>
<path d="M31.2814 52.9297H26.6956V56.8852H31.2814V52.9297Z" fill="#078634"/>
<path opacity="0.5" d="M31.2814 52.9297H26.6956V56.8852H31.2814V52.9297Z" fill="white"/>
<path opacity="0.5" d="M26.4154 52.9297H22.1238V56.8852H26.4154V52.9297Z" fill="white"/>
<path opacity="0.3" d="M25.0431 52.9297L23.9828 56.8852H22.3341L23.3926 52.9297H25.0431Z" fill="white"/>
<path opacity="0.3" d="M26.0215 52.9297L24.9629 56.8852H24.4894L25.5479 52.9297H26.0215Z" fill="white"/>
<path opacity="0.3" d="M31.2814 53.3242V56.8846H30.3291L31.2814 53.3242Z" fill="white"/>
<path d="M45.0332 56.8872V52.9316H45.8741V52.2422H39.6657V57.5871H45.8741V56.8872H45.0332Z" fill="#078634"/>
<path d="M45.2141 52.9297H40.9225V56.8852H45.2141V52.9297Z" fill="black"/>
<path d="M45.2141 52.9297H40.9225V56.8852H45.2141V52.9297Z" fill="#078634"/>
<path opacity="0.5" d="M45.2141 52.9297H40.9225V56.8852H45.2141V52.9297Z" fill="white"/>
<path opacity="0.3" d="M43.8392 52.9297L42.7807 56.8852H41.132L42.1905 52.9297H43.8392Z" fill="white"/>
<path opacity="0.3" d="M44.8186 52.9297L43.76 56.8852H43.2847L44.3433 52.9297H44.8186Z" fill="white"/>
<path opacity="0.1" d="M40.2501 52.2422H39.6633V57.5871H40.2501V52.2422Z" fill="black"/>
<path d="M37.409 52.9297H34.3953V60.9731H37.409V52.9297Z" fill="#078634"/>
<path opacity="0.1" d="M37.1322 52.9297H34.3953V60.9731H37.1322V52.9297Z" fill="white"/>
<path opacity="0.2" d="M36.8114 53.4727H36.2125V56.0058H36.8114V53.4727Z" fill="white"/>
<path d="M49.4205 51.2891H47.871V60.9743H49.4205V51.2891Z" fill="#078634"/>
<path opacity="0.3" d="M49.4205 51.2891H47.871V60.9743H49.4205V51.2891Z" fill="white"/>
<path opacity="0.2" d="M49.4189 51.2891H48.6441V60.9743H49.4189V51.2891Z" fill="white"/>
<path d="M49.4179 50.3984H20.6843V51.4047H49.4179V50.3984Z" fill="#078634"/>
<path opacity="0.3" d="M49.4179 50.3984H20.6843V51.4047H49.4179V50.3984Z" fill="white"/>
<path opacity="0.2" d="M49.4211 50.3984H38.6111V51.4047H49.4211V50.3984Z" fill="white"/>
<path d="M49.0446 40.8125H19.8619V41.8188H49.0446V40.8125Z" fill="#078634"/>
<path opacity="0.3" d="M49.0446 40.8125H19.8619V41.8188H49.0446V40.8125Z" fill="white"/>
<path opacity="0.2" d="M49.0445 40.8125H37.7871V41.8188H49.0445V40.8125Z" fill="white"/>
<path d="M50.256 60.7266H18.8517L18.5 60.9738H50.6076L50.256 60.7266Z" fill="#078634"/>
<path d="M43.9685 10.0586H24.3107C23.7531 10.0586 23.301 10.5107 23.301 11.0684V22.4058C23.301 22.9635 23.7531 23.4156 24.3107 23.4156H43.9685C44.5261 23.4156 44.9782 22.9635 44.9782 22.4058V11.0684C44.9782 10.5107 44.5261 10.0586 43.9685 10.0586Z" fill="#078634"/>
<path opacity="0.6" d="M43.9685 10.0586H24.3107C23.7531 10.0586 23.301 10.5107 23.301 11.0684V22.4058C23.301 22.9635 23.7531 23.4156 24.3107 23.4156H43.9685C44.5261 23.4156 44.9782 22.9635 44.9782 22.4058V11.0684C44.9782 10.5107 44.5261 10.0586 43.9685 10.0586Z" fill="white"/>
<path d="M34.3152 34.7702V22.8164H33.967V34.7702C33.8819 34.8098 33.8128 34.8773 33.7712 34.9615C33.7296 35.0458 33.718 35.1417 33.7383 35.2334C33.7586 35.3251 33.8096 35.4072 33.8828 35.466C33.9561 35.5248 34.0472 35.5569 34.1411 35.5569C34.2351 35.5569 34.3262 35.5248 34.3995 35.466C34.4727 35.4072 34.5237 35.3251 34.544 35.2334C34.5643 35.1417 34.5527 35.0458 34.5111 34.9615C34.4695 34.8773 34.4004 34.8098 34.3152 34.7702Z" fill="#078634"/>
<path opacity="0.6" d="M34.3152 34.7702V22.8164H33.967V34.7702C33.8819 34.8098 33.8128 34.8773 33.7712 34.9615C33.7296 35.0458 33.718 35.1417 33.7383 35.2334C33.7586 35.3251 33.8096 35.4072 33.8828 35.466C33.9561 35.5248 34.0472 35.5569 34.1411 35.5569C34.2351 35.5569 34.3262 35.5248 34.3995 35.466C34.4727 35.4072 34.5237 35.3251 34.544 35.2334C34.5643 35.1417 34.5527 35.0458 34.5111 34.9615C34.4695 34.8773 34.4004 34.8098 34.3152 34.7702Z" fill="white"/>
<path d="M43.0966 15.8618H35.5197C35.4652 15.8618 35.413 15.8402 35.3744 15.8017C35.3359 15.7631 35.3143 15.7109 35.3143 15.6564C35.314 15.6293 35.3192 15.6024 35.3294 15.5772C35.3396 15.5521 35.3547 15.5293 35.3738 15.51C35.3929 15.4907 35.4157 15.4755 35.4407 15.465C35.4657 15.4546 35.4926 15.4492 35.5197 15.4492H43.0966C43.1515 15.4492 43.2042 15.471 43.2431 15.5099C43.2819 15.5488 43.3038 15.6014 43.3038 15.6564C43.3038 15.6835 43.2984 15.7104 43.288 15.7354C43.2775 15.7605 43.2622 15.7832 43.243 15.8023C43.2237 15.8214 43.2009 15.8365 43.1757 15.8467C43.1506 15.8569 43.1237 15.8621 43.0966 15.8618Z" fill="#078634"/>
<path d="M43.0966 17.6548H35.5197C35.4926 17.6548 35.4657 17.6494 35.4407 17.639C35.4157 17.6286 35.3929 17.6133 35.3738 17.594C35.3547 17.5748 35.3396 17.5519 35.3294 17.5268C35.3192 17.5017 35.314 17.4748 35.3143 17.4476C35.3143 17.4207 35.3196 17.3939 35.3299 17.369C35.3402 17.3441 35.3554 17.3214 35.3744 17.3024C35.3935 17.2833 35.4162 17.2682 35.4411 17.2578C35.466 17.2475 35.4927 17.2422 35.5197 17.2422H43.0966C43.1237 17.242 43.1506 17.2471 43.1757 17.2573C43.2009 17.2676 43.2237 17.2827 43.243 17.3017C43.2622 17.3208 43.2775 17.3436 43.288 17.3686C43.2984 17.3937 43.3038 17.4205 43.3038 17.4476C43.3038 17.5026 43.2819 17.5553 43.2431 17.5941C43.2042 17.633 43.1515 17.6548 43.0966 17.6548Z" fill="#078634"/>
<path d="M43.0966 19.4495H35.5197C35.4926 19.4495 35.4657 19.4441 35.4407 19.4337C35.4157 19.4233 35.3929 19.408 35.3738 19.3887C35.3547 19.3695 35.3396 19.3466 35.3294 19.3215C35.3192 19.2964 35.314 19.2695 35.3143 19.2423C35.3143 19.1877 35.3359 19.1353 35.3743 19.0964C35.4128 19.0576 35.4651 19.0356 35.5197 19.0352H43.0966C43.1515 19.0352 43.2042 19.057 43.2431 19.0958C43.2819 19.1347 43.3038 19.1874 43.3038 19.2423C43.3038 19.2973 43.2819 19.35 43.2431 19.3888C43.2042 19.4277 43.1515 19.4495 43.0966 19.4495Z" fill="#078634"/>
<path d="M43.0966 21.2407H35.5197C35.4927 21.2407 35.466 21.2354 35.4411 21.2251C35.4162 21.2148 35.3935 21.1996 35.3744 21.1806C35.3554 21.1615 35.3402 21.1388 35.3299 21.1139C35.3196 21.089 35.3143 21.0623 35.3143 21.0353C35.314 21.0082 35.3192 20.9813 35.3294 20.9562C35.3396 20.931 35.3547 20.9082 35.3738 20.8889C35.3929 20.8696 35.4157 20.8544 35.4407 20.8439C35.4657 20.8335 35.4926 20.8281 35.5197 20.8281H43.0966C43.1515 20.8281 43.2042 20.85 43.2431 20.8888C43.2819 20.9277 43.3038 20.9804 43.3038 21.0353C43.3038 21.0624 43.2984 21.0893 43.288 21.1143C43.2775 21.1394 43.2622 21.1621 43.243 21.1812C43.2237 21.2003 43.2009 21.2154 43.1757 21.2256C43.1506 21.2358 43.1237 21.241 43.0966 21.2407Z" fill="#078634"/>
<path d="M25.1713 12.115H25.6536C25.7351 12.1088 25.8171 12.1194 25.8943 12.1463C25.9716 12.1732 26.0424 12.2158 26.1024 12.2714C26.1624 12.327 26.2103 12.3944 26.2431 12.4693C26.2758 12.5443 26.2927 12.6252 26.2927 12.707C26.2927 12.7888 26.2758 12.8697 26.2431 12.9446C26.2103 13.0196 26.1624 13.087 26.1024 13.1425C26.0424 13.1981 25.9716 13.2407 25.8943 13.2676C25.8171 13.2945 25.7351 13.3052 25.6536 13.2989H25.1713V12.115ZM25.6466 13.1892C25.7125 13.1932 25.7785 13.1836 25.8406 13.1611C25.9026 13.1386 25.9594 13.1037 26.0075 13.0584C26.0555 13.0132 26.0938 12.9586 26.12 12.898C26.1461 12.8374 26.1596 12.7721 26.1596 12.7061C26.1596 12.6401 26.1461 12.5748 26.12 12.5142C26.0938 12.4536 26.0555 12.399 26.0075 12.3537C25.9594 12.3085 25.9026 12.2735 25.8406 12.2511C25.7785 12.2286 25.7125 12.219 25.6466 12.223H25.2984V13.1892H25.6466Z" fill="#078634"/>
<path d="M27.4037 13.1914V13.3011H26.568V12.1172H27.3776V12.2251H26.6916V12.6465H27.3044V12.7527H26.6916V13.1914H27.4037Z" fill="#078634"/>
<path d="M27.6986 12.1172H27.8222V13.1914H28.4855V13.3011H27.6986V12.1172Z" fill="#078634"/>
<path d="M28.6917 12.1172H28.8171V13.3011H28.6917V12.1172Z" fill="#078634"/>
<path d="M30.1721 12.1172L29.6498 13.3011H29.5261L29.0038 12.1172H29.1396L29.5923 13.1444L30.0484 12.1172H30.1721Z" fill="#078634"/>
<path d="M31.1788 13.1914V13.3011H30.3431V12.1172H31.1544V12.2251H30.4684V12.6465H31.0795V12.7527H30.4684V13.1914H31.1788Z" fill="#078634"/>
<path d="M32.2807 13.2985L32.0091 12.9172C31.9778 12.919 31.9464 12.919 31.9151 12.9172H31.5964V13.2933H31.4728V12.1094H31.9151C32.2162 12.1094 32.3973 12.2626 32.3973 12.515C32.4015 12.5986 32.377 12.681 32.3279 12.7488C32.2789 12.8165 32.2081 12.8655 32.1275 12.8876L32.4165 13.2933L32.2807 13.2985ZM32.2807 12.5203C32.2807 12.3305 32.1553 12.2225 31.9185 12.2225H31.6034V12.8162H31.9185C32.1483 12.8162 32.2737 12.7065 32.2737 12.5133L32.2807 12.5203Z" fill="#078634"/>
<path d="M33.0816 12.8919V13.3011H32.958V12.8919L32.4862 12.1172H32.6185L33.0242 12.7823L33.4298 12.1172H33.5552L33.0816 12.8919Z" fill="#078634"/>
<path d="M34.9339 12.9842H34.2741L34.1331 13.3011H34.0025L34.5422 12.1172H34.6658L35.2073 13.3011H35.075L34.9339 12.9842ZM34.8869 12.8832L34.6031 12.2478L34.3281 12.8832H34.8869Z" fill="#078634"/>
<path d="M35.4024 12.115H35.8847C35.9662 12.1088 36.0482 12.1194 36.1254 12.1463C36.2027 12.1732 36.2735 12.2158 36.3335 12.2714C36.3935 12.327 36.4414 12.3944 36.4741 12.4693C36.5069 12.5443 36.5238 12.6252 36.5238 12.707C36.5238 12.7888 36.5069 12.8697 36.4741 12.9446C36.4414 13.0196 36.3935 13.087 36.3335 13.1425C36.2735 13.1981 36.2027 13.2407 36.1254 13.2676C36.0482 13.2945 35.9662 13.3052 35.8847 13.2989H35.4024V12.115ZM35.8777 13.1892C35.9436 13.1932 36.0096 13.1836 36.0716 13.1611C36.1337 13.1386 36.1905 13.1037 36.2385 13.0584C36.2866 13.0132 36.3249 12.9586 36.351 12.898C36.3772 12.8374 36.3907 12.7721 36.3907 12.7061C36.3907 12.6401 36.3772 12.5748 36.351 12.5142C36.3249 12.4536 36.2866 12.399 36.2385 12.3537C36.1905 12.3085 36.1337 12.2735 36.0716 12.2511C36.0096 12.2286 35.9436 12.219 35.8777 12.223H35.5295V13.1892H35.8777Z" fill="#078634"/>
<path d="M36.7958 12.115H37.2868C37.3684 12.1088 37.4503 12.1194 37.5276 12.1463C37.6048 12.1732 37.6756 12.2158 37.7357 12.2714C37.7957 12.327 37.8435 12.3944 37.8763 12.4693C37.909 12.5443 37.9259 12.6252 37.9259 12.707C37.9259 12.7888 37.909 12.8697 37.8763 12.9446C37.8435 13.0196 37.7957 13.087 37.7357 13.1425C37.6756 13.1981 37.6048 13.2407 37.5276 13.2676C37.4503 13.2945 37.3684 13.3052 37.2868 13.2989H36.8045L36.7958 12.115ZM37.2711 13.1892C37.337 13.1932 37.403 13.1836 37.4651 13.1611C37.5271 13.1386 37.5839 13.1037 37.632 13.0584C37.68 13.0132 37.7183 12.9586 37.7445 12.898C37.7706 12.8374 37.7841 12.7721 37.7841 12.7061C37.7841 12.6401 37.7706 12.5748 37.7445 12.5142C37.7183 12.4536 37.68 12.399 37.632 12.3537C37.5839 12.3085 37.5271 12.2735 37.4651 12.2511C37.403 12.2286 37.337 12.219 37.2711 12.223H36.9229V13.1892H37.2711Z" fill="#078634"/>
<path d="M39.0003 13.2985L38.7287 12.9172C38.6974 12.919 38.666 12.919 38.6347 12.9172H38.3161V13.2933H38.1925V12.1094H38.6347C38.9359 12.1094 39.117 12.2626 39.117 12.515C39.1211 12.5986 39.0967 12.681 39.0476 12.7488C38.9985 12.8165 38.9278 12.8655 38.8471 12.8876L39.1361 13.2933L39.0003 13.2985ZM39.0003 12.5203C39.0003 12.3305 38.875 12.2225 38.6382 12.2225H38.3231V12.8162H38.6382C38.868 12.8162 38.9934 12.7065 38.9934 12.5133L39.0003 12.5203Z" fill="#078634"/>
<path d="M40.2469 13.1914V13.3011H39.4113V12.1172H40.2226V12.2251H39.5366V12.6465H40.1477V12.7527H39.5366V13.1914H40.2469Z" fill="#078634"/>
<path d="M40.4294 13.1553L40.4781 13.0596C40.5864 13.1531 40.7251 13.2039 40.8681 13.2023C41.0892 13.2023 41.1867 13.1101 41.1867 12.9934C41.1867 12.6696 40.4572 12.8681 40.4572 12.4311C40.4572 12.257 40.593 12.1055 40.8942 12.1055C41.0239 12.1042 41.1511 12.1411 41.2598 12.2117L41.2181 12.3109C41.1216 12.2483 41.0093 12.2145 40.8942 12.2134C40.6783 12.2134 40.5808 12.3092 40.5808 12.4276C40.5808 12.7514 41.3103 12.5564 41.3103 12.9865C41.3103 13.1606 41.1711 13.3085 40.8681 13.3085C40.7079 13.3142 40.5513 13.2595 40.4294 13.1553Z" fill="#078634"/>
<path d="M41.4662 13.1553L41.5149 13.0596C41.623 13.1534 41.7618 13.2042 41.9049 13.2023C42.126 13.2023 42.2218 13.1101 42.2218 12.9934C42.2218 12.6696 41.494 12.8681 41.494 12.4311C41.494 12.257 41.6298 12.1055 41.9293 12.1055C42.0595 12.1042 42.1872 12.1411 42.2966 12.2117L42.2549 12.3109C42.1579 12.248 42.0449 12.2142 41.9293 12.2134C41.7134 12.2134 41.6177 12.3092 41.6177 12.4276C41.6177 12.7514 42.3454 12.5564 42.3454 12.9865C42.3454 13.1606 42.2079 13.3085 41.9049 13.3085C41.7447 13.3142 41.5881 13.2595 41.4662 13.1553Z" fill="#078634"/>
<path d="M25.7095 15.2305V15.9617H25.6451L25.175 15.3697V15.9617H25.1002V15.2305H25.1646L25.6346 15.8241V15.2305H25.7095Z" fill="#078634"/>
<path d="M26.4058 15.7667H25.9984L25.9113 15.9617H25.8312L26.1655 15.2305H26.2404L26.5746 15.9617H26.4928L26.4058 15.7667ZM26.3779 15.704L26.2038 15.3123L26.0297 15.704H26.3779Z" fill="#078634"/>
<path d="M27.4557 15.2305V15.9617H27.3808V15.3767L27.0935 15.8694H27.057L26.7715 15.3802V15.9617H26.6966V15.2305H26.761L27.0779 15.7737L27.3913 15.2305H27.4557Z" fill="#078634"/>
<path d="M28.2112 15.8955V15.9617H27.6889V15.2305H28.1903V15.3001H27.7655V15.5595H28.1433V15.6257H27.7655V15.8973L28.2112 15.8955Z" fill="#078634"/>
<path d="M25.5574 17.5636H25.15L25.063 17.7586H24.9829L25.3172 17.0273H25.392L25.7263 17.7586H25.6462L25.5574 17.5636ZM25.5296 17.5009L25.3555 17.1074L25.1814 17.5009H25.5296Z" fill="#078634"/>
<path d="M25.8474 17.0252H26.1451C26.1961 17.0202 26.2476 17.0259 26.2963 17.042C26.3449 17.0582 26.3897 17.0843 26.4277 17.1187C26.4656 17.1531 26.496 17.1951 26.5167 17.242C26.5375 17.2888 26.5482 17.3395 26.5482 17.3908C26.5482 17.442 26.5375 17.4927 26.5167 17.5396C26.496 17.5865 26.4656 17.6284 26.4277 17.6629C26.3897 17.6973 26.3449 17.7234 26.2963 17.7395C26.2476 17.7556 26.1961 17.7614 26.1451 17.7564H25.8474V17.0252ZM26.1416 17.6885C26.1828 17.6916 26.2241 17.6863 26.2631 17.6727C26.302 17.6591 26.3377 17.6376 26.368 17.6096C26.3982 17.5816 26.4224 17.5476 26.4389 17.5098C26.4554 17.472 26.4639 17.4312 26.4639 17.3899C26.4639 17.3487 26.4554 17.3079 26.4389 17.2701C26.4224 17.2323 26.3982 17.1983 26.368 17.1703C26.3377 17.1422 26.302 17.1207 26.2631 17.1072C26.2241 17.0936 26.1828 17.0882 26.1416 17.0913H25.924V17.6885H26.1416Z" fill="#078634"/>
<path d="M26.7103 17.0252H27.015C27.066 17.0202 27.1175 17.0259 27.1662 17.042C27.2148 17.0582 27.2596 17.0843 27.2975 17.1187C27.3355 17.1531 27.3658 17.1951 27.3866 17.242C27.4074 17.2888 27.4181 17.3395 27.4181 17.3908C27.4181 17.442 27.4074 17.4927 27.3866 17.5396C27.3658 17.5865 27.3355 17.6284 27.2975 17.6629C27.2596 17.6973 27.2148 17.7234 27.1662 17.7395C27.1175 17.7556 27.066 17.7614 27.015 17.7564H26.7173L26.7103 17.0252ZM27.0028 17.6885C27.0439 17.6916 27.0853 17.6863 27.1242 17.6727C27.1632 17.6591 27.1989 17.6376 27.2292 17.6096C27.2594 17.5816 27.2835 17.5476 27.3001 17.5098C27.3166 17.472 27.3251 17.4312 27.3251 17.3899C27.3251 17.3487 27.3166 17.3079 27.3001 17.2701C27.2835 17.2323 27.2594 17.1983 27.2292 17.1703C27.1989 17.1422 27.1632 17.1207 27.1242 17.1072C27.0853 17.0936 27.0439 17.0882 27.0028 17.0913H26.7869V17.6885H27.0028Z" fill="#078634"/>
<path d="M28.0726 17.7542L27.8985 17.5192H27.8393H27.6443V17.7508H27.566V17.0195H27.8393C28.0256 17.0195 28.1388 17.1135 28.1388 17.2702C28.1407 17.3227 28.1244 17.3743 28.0926 17.4161C28.0609 17.458 28.0157 17.4877 27.9647 17.5L28.1388 17.7508L28.0726 17.7542ZM28.0726 17.2737C28.0726 17.1571 27.9943 17.0892 27.848 17.0892H27.6548V17.4565H27.848C27.9908 17.4565 28.0691 17.3886 28.0691 17.2737H28.0726Z" fill="#078634"/>
<path d="M28.8452 17.6868V17.7547H28.3229V17.0234H28.8243V17.0896H28.4082V17.3507H28.7878V17.4169H28.4082V17.6868H28.8452Z" fill="#078634"/>
<path d="M28.957 17.6668L28.9883 17.6076C29.0548 17.6656 29.1403 17.6972 29.2286 17.6964C29.3661 17.6964 29.4253 17.639 29.4253 17.5658C29.4253 17.3656 28.9761 17.4892 28.9761 17.2176C28.9761 17.1097 29.058 17.0157 29.2442 17.0157C29.3246 17.0144 29.4035 17.0375 29.4706 17.0818L29.4445 17.1428C29.3847 17.1043 29.3153 17.0832 29.2442 17.0818C29.1119 17.0818 29.051 17.141 29.051 17.2141C29.051 17.4161 29.5019 17.2942 29.5019 17.5624C29.5019 17.6703 29.4166 17.7608 29.2286 17.7608C29.1295 17.764 29.0328 17.7305 28.957 17.6668Z" fill="#078634"/>
<path d="M29.5983 17.6668L29.6296 17.6076C29.6961 17.6656 29.7816 17.6972 29.8699 17.6964C30.0074 17.6964 30.0666 17.639 30.0666 17.5658C30.0666 17.3656 29.6174 17.4892 29.6174 17.2176C29.6174 17.1097 29.701 17.0157 29.8855 17.0157C29.9659 17.0144 30.0448 17.0375 30.1119 17.0818L30.0857 17.1428C30.026 17.1043 29.9566 17.0832 29.8855 17.0818C29.7532 17.0818 29.6923 17.141 29.6923 17.2141C29.6923 17.4161 30.1432 17.2942 30.1432 17.5624C30.1432 17.6703 30.0579 17.7608 29.8699 17.7608C29.7708 17.764 29.6741 17.7305 29.5983 17.6668Z" fill="#078634"/>
<path d="M25.6712 19.0671C25.6712 19.2221 25.558 19.3161 25.3718 19.3161H25.175V19.5476H25.1002V18.8164H25.3735C25.558 18.8164 25.6712 18.9104 25.6712 19.0671ZM25.5929 19.0671C25.5929 18.9505 25.5163 18.8826 25.37 18.8826H25.175V19.2482H25.37C25.5163 19.2482 25.5929 19.182 25.5929 19.0671Z" fill="#078634"/>
<path d="M25.7846 19.1843C25.7821 19.108 25.8025 19.0328 25.8431 18.9683C25.8837 18.9037 25.9426 18.8527 26.0124 18.8218C26.0821 18.791 26.1595 18.7816 26.2345 18.795C26.3096 18.8084 26.379 18.8439 26.4338 18.8969C26.4886 18.95 26.5263 19.0182 26.5421 19.0928C26.5579 19.1674 26.5511 19.245 26.5225 19.3157C26.4939 19.3864 26.4448 19.447 26.3816 19.4896C26.3184 19.5323 26.2438 19.5551 26.1676 19.5551C26.1177 19.5572 26.068 19.5492 26.0214 19.5315C25.9747 19.5137 25.9322 19.4867 25.8964 19.452C25.8605 19.4173 25.8321 19.3757 25.8129 19.3296C25.7937 19.2836 25.784 19.2342 25.7846 19.1843ZM26.481 19.1843C26.482 19.123 26.4648 19.0629 26.4315 19.0115C26.3982 18.9601 26.3503 18.9198 26.294 18.8957C26.2377 18.8716 26.1755 18.8649 26.1153 18.8763C26.0551 18.8878 25.9997 18.9169 25.9562 18.9599C25.9126 19.003 25.8829 19.058 25.8708 19.1181C25.8587 19.1781 25.8647 19.2404 25.8881 19.297C25.9116 19.3535 25.9513 19.4019 26.0023 19.4357C26.0533 19.4696 26.1133 19.4875 26.1745 19.4872C26.2143 19.4877 26.2537 19.4802 26.2905 19.4651C26.3273 19.45 26.3606 19.4276 26.3886 19.3993C26.4165 19.3711 26.4385 19.3374 26.4532 19.3005C26.4679 19.2635 26.4749 19.224 26.474 19.1843H26.481Z" fill="#078634"/>
<path d="M26.6553 19.4619L26.6849 19.401C26.7513 19.4604 26.8379 19.4922 26.9269 19.4898C27.0627 19.4898 27.1237 19.4323 27.1237 19.3609C27.1237 19.1607 26.6727 19.2843 26.6727 19.0127C26.6727 18.9065 26.7563 18.8125 26.9426 18.8125C27.0226 18.812 27.1011 18.8344 27.1689 18.8769L27.1428 18.9396C27.0834 18.9003 27.0138 18.8791 26.9426 18.8787C26.8085 18.8787 26.7493 18.9379 26.7493 19.011C26.7493 19.2112 27.1985 19.0911 27.1985 19.3592C27.1985 19.4654 27.1132 19.5577 26.9269 19.5577C26.8276 19.5607 26.7308 19.5265 26.6553 19.4619Z" fill="#078634"/>
<path d="M27.4993 18.8826H27.2416V18.8164H27.8336V18.8826H27.5759V19.5476H27.4993V18.8826Z" fill="#078634"/>
<path d="M28.3784 19.3509H27.971L27.884 19.5476H27.8021L28.1364 18.8164H28.213L28.5473 19.5476H28.4654L28.3784 19.3509ZM28.3505 19.2882L28.1764 18.8965L28.0023 19.2882H28.3505Z" fill="#078634"/>
<path d="M28.6699 18.8164H28.7465V19.478H29.1556V19.5459H28.6699V18.8164Z" fill="#078634"/>
<path d="M29.4931 19.1815C29.4924 19.1315 29.5019 19.0818 29.521 19.0356C29.5401 18.9894 29.5685 18.9475 29.6043 18.9126C29.6402 18.8777 29.6828 18.8505 29.7295 18.8327C29.7763 18.8149 29.8262 18.8068 29.8762 18.8089C29.9258 18.8072 29.9752 18.8158 30.0213 18.834C30.0674 18.8523 30.1093 18.8799 30.1443 18.9151L30.0955 18.9656C30.0672 18.937 30.0332 18.9145 29.9958 18.8995C29.9583 18.8845 29.9182 18.8774 29.8779 18.8786C29.8381 18.8786 29.7987 18.8864 29.762 18.9016C29.7252 18.9169 29.6918 18.9392 29.6637 18.9673C29.6356 18.9954 29.6133 19.0288 29.598 19.0656C29.5828 19.1023 29.575 19.1417 29.575 19.1815C29.575 19.2213 29.5828 19.2607 29.598 19.2974C29.6133 19.3342 29.6356 19.3676 29.6637 19.3957C29.6918 19.4238 29.7252 19.4462 29.762 19.4614C29.7987 19.4766 29.8381 19.4844 29.8779 19.4844C29.9184 19.4857 29.9587 19.4785 29.9962 19.4632C30.0336 19.4479 30.0675 19.4249 30.0955 19.3956L30.1443 19.4444C30.1099 19.4805 30.0682 19.5089 30.022 19.5275C29.9757 19.5461 29.926 19.5546 29.8762 19.5523C29.8263 19.5545 29.7766 19.5464 29.73 19.5287C29.6833 19.511 29.6408 19.4839 29.605 19.4492C29.5691 19.4145 29.5407 19.3729 29.5215 19.3269C29.5023 19.2808 29.4926 19.2314 29.4931 19.1815Z" fill="#078634"/>
<path d="M30.2301 19.1843C30.2276 19.108 30.248 19.0328 30.2886 18.9683C30.3292 18.9037 30.3881 18.8527 30.4579 18.8218C30.5276 18.791 30.605 18.7816 30.68 18.795C30.7551 18.8084 30.8245 18.8439 30.8793 18.8969C30.9341 18.95 30.9718 19.0182 30.9876 19.0928C31.0034 19.1674 30.9966 19.245 30.968 19.3157C30.9394 19.3864 30.8903 19.447 30.8271 19.4896C30.7639 19.5323 30.6893 19.5551 30.6131 19.5551C30.5632 19.5572 30.5135 19.5492 30.4669 19.5315C30.4202 19.5137 30.3777 19.4867 30.3419 19.452C30.306 19.4173 30.2776 19.3757 30.2584 19.3296C30.2392 19.2836 30.2295 19.2342 30.2301 19.1843ZM30.9265 19.1843C30.9275 19.123 30.9103 19.0629 30.877 19.0115C30.8437 18.9601 30.7958 18.9198 30.7395 18.8957C30.6832 18.8716 30.621 18.8649 30.5608 18.8763C30.5006 18.8878 30.4452 18.9169 30.4017 18.9599C30.3581 19.003 30.3284 19.058 30.3163 19.1181C30.3042 19.1781 30.3102 19.2404 30.3336 19.297C30.3571 19.3535 30.3968 19.4019 30.4478 19.4357C30.4988 19.4696 30.5588 19.4875 30.62 19.4872C30.6598 19.4877 30.6992 19.4802 30.736 19.4651C30.7728 19.45 30.8061 19.4276 30.8341 19.3993C30.862 19.3711 30.884 19.3374 30.8987 19.3005C30.9134 19.2635 30.9204 19.224 30.9195 19.1843H30.9265Z" fill="#078634"/>
<path d="M31.1696 18.8181H31.4673C31.5183 18.8132 31.5698 18.8189 31.6185 18.835C31.6671 18.8511 31.7119 18.8772 31.7499 18.9117C31.7878 18.9461 31.8182 18.9881 31.8389 19.035C31.8597 19.0818 31.8704 19.1325 31.8704 19.1838C31.8704 19.235 31.8597 19.2857 31.8389 19.3326C31.8182 19.3794 31.7878 19.4214 31.7499 19.4559C31.7119 19.4903 31.6671 19.5164 31.6185 19.5325C31.5698 19.5486 31.5183 19.5544 31.4673 19.5494H31.1696V18.8181ZM31.4638 19.4815C31.505 19.4846 31.5463 19.4792 31.5853 19.4656C31.6242 19.4521 31.6599 19.4306 31.6902 19.4026C31.7204 19.3745 31.7446 19.3405 31.7611 19.3027C31.7776 19.2649 31.7861 19.2241 31.7861 19.1829C31.7861 19.1416 31.7776 19.1008 31.7611 19.063C31.7446 19.0252 31.7204 18.9913 31.6902 18.9632C31.6599 18.9352 31.6242 18.9137 31.5853 18.9001C31.5463 18.8866 31.505 18.8812 31.4638 18.8843H31.248V19.4797L31.4638 19.4815Z" fill="#078634"/>
<path d="M32.55 19.4797V19.5476H32.0276V18.8164H32.5291V18.8826H32.1043V19.142H32.4821V19.2081H32.1043V19.4797H32.55Z" fill="#078634"/>
<path d="M25.6712 20.8601C25.6712 21.0168 25.558 21.1108 25.3718 21.1108H25.175V21.3406H25.1002V20.6094H25.3735C25.558 20.6094 25.6712 20.6982 25.6712 20.8601ZM25.5929 20.8601C25.5929 20.7434 25.5163 20.6773 25.37 20.6773H25.175V21.0464H25.37C25.5163 21.0464 25.5929 20.975 25.5929 20.8601Z" fill="#078634"/>
<path d="M26.4488 20.6094V21.3406H26.3722V21.0028H25.9143V21.3406H25.8377V20.6094H25.9143V20.9367H26.3722V20.6094H26.4488Z" fill="#078634"/>
<path d="M26.6224 20.9751C26.62 20.8985 26.6404 20.8229 26.6812 20.7581C26.722 20.6932 26.7812 20.642 26.8513 20.611C26.9213 20.58 26.999 20.5707 27.0745 20.5841C27.1499 20.5975 27.2196 20.6332 27.2746 20.6865C27.3296 20.7398 27.3675 20.8083 27.3834 20.8832C27.3992 20.9582 27.3924 21.0362 27.3636 21.1072C27.3349 21.1782 27.2856 21.239 27.2221 21.2819C27.1586 21.3247 27.0838 21.3476 27.0071 21.3476C26.957 21.35 26.9069 21.3421 26.86 21.3244C26.813 21.3067 26.7702 21.2795 26.7342 21.2446C26.6981 21.2097 26.6696 21.1678 26.6504 21.1214C26.6311 21.0751 26.6216 21.0253 26.6224 20.9751ZM27.3188 20.9751C27.3198 20.9138 27.3026 20.8537 27.2693 20.8023C27.236 20.7509 27.1881 20.7106 27.1318 20.6865C27.0755 20.6624 27.0133 20.6557 26.9531 20.6671C26.893 20.6786 26.8376 20.7077 26.794 20.7507C26.7505 20.7938 26.7207 20.8488 26.7086 20.9089C26.6965 20.9689 26.7025 21.0312 26.726 21.0878C26.7494 21.1443 26.7892 21.1927 26.8402 21.2265C26.8912 21.2604 26.9511 21.2783 27.0124 21.278C27.0523 21.2787 27.0919 21.2714 27.1289 21.2564C27.1659 21.2414 27.1994 21.2191 27.2276 21.1908C27.2557 21.1625 27.2778 21.1288 27.2926 21.0917C27.3074 21.0546 27.3145 21.015 27.3136 20.9751H27.3188Z" fill="#078634"/>
<path d="M28.1754 20.6094V21.3406H28.111L27.6409 20.7487V21.3406H27.5643V20.6094H27.6288L28.0988 21.2031V20.6094H28.1754Z" fill="#078634"/>
<path d="M28.9301 21.2744V21.3406H28.4078V20.6094H28.9092V20.6773H28.4844V20.9367H28.8622V21.0028H28.4844V21.2744H28.9301Z" fill="#078634"/>
<path d="M33.7406 15.4737C33.7391 15.4654 33.7395 15.4569 33.7416 15.4488C33.7438 15.4407 33.7477 15.4332 33.7531 15.4268C33.7585 15.4203 33.7653 15.4152 33.7729 15.4116C33.7805 15.4081 33.7888 15.4062 33.7971 15.4062C33.8055 15.4062 33.8138 15.4081 33.8214 15.4116C33.829 15.4152 33.8358 15.4203 33.8411 15.4268C33.8465 15.4332 33.8505 15.4407 33.8526 15.4488C33.8548 15.4569 33.8552 15.4654 33.8537 15.4737C33.8552 15.4819 33.8548 15.4904 33.8526 15.4985C33.8505 15.5066 33.8465 15.5141 33.8411 15.5206C33.8358 15.527 33.829 15.5322 33.8214 15.5357C33.8138 15.5392 33.8055 15.5411 33.7971 15.5411C33.7888 15.5411 33.7805 15.5392 33.7729 15.5357C33.7653 15.5322 33.7585 15.527 33.7531 15.5206C33.7477 15.5141 33.7438 15.5066 33.7416 15.4985C33.7395 15.4904 33.7391 15.4819 33.7406 15.4737ZM33.7406 15.9176C33.7429 15.9043 33.7499 15.8923 33.7602 15.8836C33.7706 15.8749 33.7836 15.8701 33.7971 15.8701C33.8106 15.8701 33.8237 15.8749 33.8341 15.8836C33.8444 15.8923 33.8514 15.9043 33.8537 15.9176C33.8552 15.9259 33.8548 15.9344 33.8526 15.9425C33.8505 15.9506 33.8465 15.9581 33.8411 15.9645C33.8358 15.9709 33.829 15.9761 33.8214 15.9797C33.8138 15.9832 33.8055 15.985 33.7971 15.985C33.7888 15.985 33.7805 15.9832 33.7729 15.9797C33.7653 15.9761 33.7585 15.9709 33.7531 15.9645C33.7477 15.9581 33.7438 15.9506 33.7416 15.9425C33.7395 15.9344 33.7391 15.9259 33.7406 15.9176Z" fill="#078634"/>
<path d="M33.7406 17.2584C33.7429 17.2451 33.7499 17.2331 33.7602 17.2244C33.7706 17.2157 33.7836 17.2109 33.7971 17.2109C33.8106 17.2109 33.8237 17.2157 33.8341 17.2244C33.8444 17.2331 33.8514 17.2451 33.8537 17.2584C33.8552 17.2667 33.8548 17.2752 33.8526 17.2833C33.8505 17.2914 33.8465 17.2989 33.8411 17.3053C33.8358 17.3118 33.829 17.3169 33.8214 17.3205C33.8138 17.324 33.8055 17.3258 33.7971 17.3258C33.7888 17.3258 33.7805 17.324 33.7729 17.3205C33.7653 17.3169 33.7585 17.3118 33.7531 17.3053C33.7477 17.2989 33.7438 17.2914 33.7416 17.2833C33.7395 17.2752 33.7391 17.2667 33.7406 17.2584ZM33.7406 17.7041C33.7429 17.6908 33.7499 17.6788 33.7602 17.6701C33.7706 17.6614 33.7836 17.6566 33.7971 17.6566C33.8106 17.6566 33.8237 17.6614 33.8341 17.6701C33.8444 17.6788 33.8514 17.6908 33.8537 17.7041C33.8552 17.7124 33.8548 17.7209 33.8526 17.729C33.8505 17.7371 33.8465 17.7446 33.8411 17.751C33.8358 17.7575 33.829 17.7626 33.8214 17.7662C33.8138 17.7697 33.8055 17.7715 33.7971 17.7715C33.7888 17.7715 33.7805 17.7697 33.7729 17.7662C33.7653 17.7626 33.7585 17.7575 33.7531 17.751C33.7477 17.7446 33.7438 17.7371 33.7416 17.729C33.7395 17.7209 33.7391 17.7124 33.7406 17.7041Z" fill="#078634"/>
<path d="M33.7406 19.0514C33.7429 19.0381 33.7499 19.026 33.7602 19.0174C33.7706 19.0087 33.7836 19.0039 33.7971 19.0039C33.8106 19.0039 33.8237 19.0087 33.8341 19.0174C33.8444 19.026 33.8514 19.0381 33.8537 19.0514C33.8552 19.0597 33.8548 19.0681 33.8526 19.0762C33.8505 19.0843 33.8465 19.0919 33.8411 19.0983C33.8358 19.1047 33.829 19.1099 33.8214 19.1134C33.8138 19.117 33.8055 19.1188 33.7971 19.1188C33.7888 19.1188 33.7805 19.117 33.7729 19.1134C33.7653 19.1099 33.7585 19.1047 33.7531 19.0983C33.7477 19.0919 33.7438 19.0843 33.7416 19.0762C33.7395 19.0681 33.7391 19.0597 33.7406 19.0514ZM33.7406 19.4971C33.7391 19.4888 33.7395 19.4804 33.7416 19.4723C33.7438 19.4641 33.7477 19.4566 33.7531 19.4502C33.7585 19.4438 33.7653 19.4386 33.7729 19.4351C33.7805 19.4315 33.7888 19.4297 33.7971 19.4297C33.8055 19.4297 33.8138 19.4315 33.8214 19.4351C33.829 19.4386 33.8358 19.4438 33.8411 19.4502C33.8465 19.4566 33.8505 19.4641 33.8526 19.4723C33.8548 19.4804 33.8552 19.4888 33.8537 19.4971C33.8552 19.5054 33.8548 19.5138 33.8526 19.5219C33.8505 19.53 33.8465 19.5376 33.8411 19.544C33.8358 19.5504 33.829 19.5556 33.8214 19.5591C33.8138 19.5627 33.8055 19.5645 33.7971 19.5645C33.7888 19.5645 33.7805 19.5627 33.7729 19.5591C33.7653 19.5556 33.7585 19.5504 33.7531 19.544C33.7477 19.5376 33.7438 19.53 33.7416 19.5219C33.7395 19.5138 33.7391 19.5054 33.7406 19.4971Z" fill="#078634"/>
<path d="M33.7406 20.8448C33.7391 20.8365 33.7395 20.828 33.7416 20.8199C33.7438 20.8118 33.7477 20.8043 33.7531 20.7979C33.7585 20.7914 33.7653 20.7863 33.7729 20.7827C33.7805 20.7792 33.7888 20.7773 33.7971 20.7773C33.8055 20.7773 33.8138 20.7792 33.8214 20.7827C33.829 20.7863 33.8358 20.7914 33.8411 20.7979C33.8465 20.8043 33.8505 20.8118 33.8526 20.8199C33.8548 20.828 33.8552 20.8365 33.8537 20.8448C33.8552 20.853 33.8548 20.8615 33.8526 20.8696C33.8505 20.8777 33.8465 20.8852 33.8411 20.8917C33.8358 20.8981 33.829 20.9033 33.8214 20.9068C33.8138 20.9103 33.8055 20.9122 33.7971 20.9122C33.7888 20.9122 33.7805 20.9103 33.7729 20.9068C33.7653 20.9033 33.7585 20.8981 33.7531 20.8917C33.7477 20.8852 33.7438 20.8777 33.7416 20.8696C33.7395 20.8615 33.7391 20.853 33.7406 20.8448ZM33.7406 21.2887C33.7429 21.2754 33.7499 21.2634 33.7602 21.2547C33.7706 21.246 33.7836 21.2412 33.7971 21.2412C33.8106 21.2412 33.8237 21.246 33.8341 21.2547C33.8444 21.2634 33.8514 21.2754 33.8537 21.2887C33.8552 21.297 33.8548 21.3055 33.8526 21.3136C33.8505 21.3217 33.8465 21.3292 33.8411 21.3356C33.8358 21.342 33.829 21.3472 33.8214 21.3508C33.8138 21.3543 33.8055 21.3561 33.7971 21.3561C33.7888 21.3561 33.7805 21.3543 33.7729 21.3508C33.7653 21.3472 33.7585 21.342 33.7531 21.3356C33.7477 21.3292 33.7438 21.3217 33.7416 21.3136C33.7395 21.3055 33.7391 21.297 33.7406 21.2887Z" fill="#078634"/>
<path d="M46.2315 8.6187C45.8182 8.20521 45.2576 7.97282 44.673 7.97266C44.0884 7.97249 43.5277 8.20457 43.1142 8.61783C42.7007 9.03109 42.4683 9.59168 42.4681 10.1763C42.468 10.7609 42.7001 11.3216 43.1133 11.7351L44.6715 13.302L46.2384 11.7351C46.6506 11.3209 46.8815 10.7599 46.8802 10.1755C46.8789 9.59106 46.6455 9.0311 46.2315 8.6187ZM45.394 10.8994C45.2513 11.042 45.0695 11.1391 44.8716 11.1784C44.6738 11.2178 44.4687 11.1975 44.2823 11.1203C44.0959 11.043 43.9366 10.9123 43.8245 10.7445C43.7124 10.5767 43.6526 10.3795 43.6526 10.1778C43.6526 9.97602 43.7124 9.77879 43.8245 9.61103C43.9366 9.44327 44.0959 9.3125 44.2823 9.23527C44.4687 9.15803 44.6738 9.13778 44.8716 9.1771C45.0695 9.21641 45.2513 9.31351 45.394 9.45612C45.4888 9.55087 45.564 9.66337 45.6154 9.78719C45.6667 9.91102 45.6931 10.0437 45.6931 10.1778C45.6931 10.3118 45.6667 10.4445 45.6154 10.5683C45.564 10.6922 45.4888 10.8047 45.394 10.8994Z" fill="#078634"/>
</svg>
