<svg width="69" height="69" viewBox="0 0 69 69" fill="none" xmlns="http://www.w3.org/2000/svg">
<rect width="69" height="69" rx="34.5" fill="#F5F5F5"/>
<path d="M53.3336 37.9844H15.5006V41.7654H53.3336V37.9844Z" fill="#0F913D"/>
<g opacity="0.4">
<path d="M53.3342 37.9844H15.5012V41.7654H53.3342V37.9844Z" fill="black"/>
</g>
<path d="M45.1361 42.2422H33.9686V45.7437H45.1361V42.2422Z" fill="#455A64"/>
<path d="M26.165 40.6562V45.2849H29.9783L31.5068 43.0699H59.3497V40.6562H26.165Z" fill="#263238"/>
<path d="M25.9278 25.999C25.9236 25.9246 25.8904 25.8548 25.8353 25.8046C25.7802 25.7544 25.7076 25.7279 25.6331 25.7307C24.1259 25.7929 16.9712 26.1209 15.4998 26.828C14.3736 27.3698 13.1399 29.3924 12.2701 30.7547C11.6464 31.731 10.2688 33.8984 9.99022 35.0068C9.75423 35.944 9.61195 37.8932 9.62814 38.8602L10.0217 43.9771H16.506L17.1552 42.2868C17.3624 41.7484 17.7278 41.2854 18.2034 40.9589C18.679 40.6323 19.2424 40.4576 19.8193 40.4576H26.2627V31.9662L25.9278 25.999Z" fill="#0F913D"/>
<path d="M14.7311 27.3945C13.8382 28.2465 12.942 29.6948 12.2698 30.7547C11.6921 31.6586 10.4687 33.5832 10.0692 34.7435C10.0615 34.7648 10.0555 34.7853 10.0487 34.8066C10.2464 34.7521 10.5505 34.6404 10.6451 34.453C10.7874 34.1693 10.9697 33.1972 13.224 29.5278C13.9089 28.4092 14.5769 27.7549 14.7311 27.3945Z" fill="#455A64"/>
<path d="M22.5957 27.0169C20.9378 27.1115 17.3434 27.3577 16.195 27.7479C14.6989 28.259 13.0197 32.2198 12.9405 32.3936L11.8091 35.2903C11.8027 35.3092 11.801 35.3294 11.804 35.3491C11.8069 35.3689 11.8146 35.3876 11.8262 35.4038C11.8379 35.4201 11.8532 35.4333 11.871 35.4424C11.8887 35.4516 11.9084 35.4564 11.9284 35.4564H14.8531C14.9639 35.4564 15.0738 35.4368 15.1777 35.3985L22.8701 32.5308C23.0399 32.4674 23.1863 32.3536 23.2897 32.2047C23.3931 32.0558 23.4485 31.8788 23.4486 31.6976V27.8237C23.4486 27.7138 23.4262 27.605 23.3828 27.5041C23.3394 27.4031 23.2758 27.3121 23.1959 27.2366C23.1161 27.161 23.0217 27.1026 22.9185 27.0648C22.8153 27.0271 22.7055 27.0107 22.5957 27.0169Z" fill="#263238"/>
<path d="M12.1356 35.172C12.1356 35.172 13.2193 32.7414 13.5839 31.9448C14.1343 30.7418 15.4199 28.2814 16.288 28.0164C17.0863 27.777 19.3815 27.4857 22.6121 27.3008H22.6428C22.7815 27.3012 22.9144 27.3566 23.0125 27.4548C23.1105 27.553 23.1657 27.686 23.1659 27.8247V31.7864C23.1656 31.884 23.1356 31.9792 23.0799 32.0594C23.0242 32.1396 22.9454 32.2009 22.8541 32.2353L17.1706 32.9365C16.9428 32.9646 16.7238 33.042 16.5289 33.1632C16.334 33.2844 16.1678 33.4466 16.0418 33.6385L15.0569 35.1405C14.9991 35.1619 14.938 35.1729 14.8763 35.1729L12.1356 35.172Z" fill="#455A64"/>
<path d="M16.965 32.9799L15.0328 35.1319L16.102 27.9865L16.3695 27.8945L15.843 33.1878C15.8405 33.2143 15.8449 33.2411 15.8557 33.2655C15.8665 33.2899 15.8835 33.3111 15.9048 33.3271C15.9262 33.3431 15.9513 33.3533 15.9778 33.3568C16.0043 33.3603 16.0312 33.357 16.056 33.3471L16.965 32.9799Z" fill="#263238"/>
<path d="M9.50092 39.3599C9.49411 39.267 9.52563 39.1895 9.57334 39.1895L10.6093 39.0941C10.6945 39.0856 10.7738 39.2466 10.784 39.4349L10.8308 40.2297C10.8385 40.3575 10.8002 40.4657 10.7456 40.4751L9.68921 40.6574C9.6415 40.6659 9.59549 40.5952 9.58868 40.5015L9.50092 39.3599Z" fill="#EBEBEB"/>
<path d="M16.9649 43.0703H9.5V46.0632H16.9649V43.0703Z" fill="#263238"/>
<path d="M21.9491 49.1894C24.2031 49.1028 25.9601 47.2053 25.8736 44.9513C25.787 42.6973 23.8895 40.9402 21.6355 41.0268C19.3815 41.1134 17.6244 43.0108 17.711 45.2649C17.7976 47.5189 19.695 49.276 21.9491 49.1894Z" fill="#263238"/>
<path d="M17.71 45.0391C17.7104 45.0427 17.7104 45.0465 17.71 45.0501C17.6957 46.1324 18.1116 47.1761 18.8663 47.952C19.621 48.7278 20.6528 49.1723 21.7351 49.1879C22.8174 49.2035 23.8616 48.7888 24.6383 48.035C25.4151 47.2812 25.8608 46.25 25.8777 45.1677C25.8777 45.1677 25.8777 45.1609 25.8777 45.1575L17.71 45.0391Z" fill="#263238"/>
<path d="M18.9262 45.0676C18.9178 45.6347 19.0779 46.1917 19.386 46.6679C19.6942 47.1441 20.1367 47.5182 20.6575 47.7429C21.1783 47.9676 21.754 48.0329 22.3119 47.9304C22.8698 47.8278 23.3847 47.5622 23.7916 47.167C24.1985 46.7718 24.4791 46.2648 24.5978 45.7101C24.7165 45.1554 24.6681 44.578 24.4586 44.0509C24.2491 43.5238 23.8881 43.0706 23.421 42.7487C22.954 42.4268 22.402 42.2506 21.8348 42.2425C21.0745 42.2316 20.341 42.523 19.7956 43.0528C19.2501 43.5826 18.9374 44.3073 18.9262 45.0676Z" fill="#FAFAFA"/>
<path d="M21.8345 42.2425C21.0742 42.2316 20.3407 42.523 19.7953 43.0528C19.2498 43.5826 18.9371 44.3073 18.9259 45.0676L24.6604 45.1528C24.6716 44.3921 24.3801 43.6582 23.8502 43.1124C23.3202 42.5666 22.5952 42.2537 21.8345 42.2425Z" fill="#E0E0E0"/>
<path d="M20.0472 45.0844C20.0422 45.4298 20.1397 45.769 20.3275 46.059C20.5152 46.3489 20.7847 46.5767 21.1019 46.7135C21.4192 46.8503 21.7698 46.89 22.1096 46.8275C22.4493 46.765 22.7629 46.6031 23.0106 46.3624C23.2584 46.1217 23.4292 45.8129 23.5015 45.4751C23.5737 45.1373 23.5442 44.7856 23.4166 44.4646C23.2889 44.1436 23.069 43.8676 22.7845 43.6716C22.5001 43.4756 22.1639 43.3684 21.8185 43.3635C21.3554 43.3569 20.9087 43.5345 20.5765 43.8572C20.2443 44.1799 20.054 44.6213 20.0472 45.0844Z" fill="#263238"/>
<path d="M13.8717 29.6094H13.5386C13.1631 29.6094 12.8587 29.9138 12.8587 30.2892V32.9925C12.8587 33.368 13.1631 33.6724 13.5386 33.6724H13.8717C14.2472 33.6724 14.5515 33.368 14.5515 32.9925V30.2892C14.5515 29.9138 14.2472 29.6094 13.8717 29.6094Z" fill="#263238"/>
<path d="M12.1573 36.1863H12.0721V31.8899C12.0724 31.685 12.1539 31.4886 12.2987 31.3438C12.4436 31.1989 12.64 31.1174 12.8449 31.1172H13.0493V31.2024H12.8449C12.6626 31.2026 12.4879 31.2751 12.359 31.404C12.2301 31.5329 12.1576 31.7076 12.1573 31.8899V36.1863Z" fill="#263238"/>
<path d="M12.7393 36.1896L12.5025 32.1726C12.4992 32.1039 12.5097 32.0353 12.5335 31.9708C12.5574 31.9063 12.594 31.8472 12.6411 31.7972C12.6883 31.7472 12.7451 31.7072 12.8081 31.6796C12.871 31.652 12.9389 31.6374 13.0077 31.6367V31.7219C12.9504 31.7219 12.8936 31.7337 12.841 31.7564C12.7883 31.7791 12.7409 31.8124 12.7016 31.8541C12.6622 31.8958 12.6319 31.9451 12.6123 31.999C12.5927 32.0529 12.5843 32.1103 12.5877 32.1675L12.8245 36.1853L12.7393 36.1896Z" fill="#263238"/>
<path d="M13.0065 35.8008H11.858V37.1307H13.0065V35.8008Z" fill="#263238"/>
<path d="M12.5818 33.2734H12.1149V33.3586H12.5818V33.2734Z" fill="#263238"/>
<path d="M16.4813 27.1333L16.5827 27.1197L16.8817 27.0848L18.0404 26.951L22.3598 26.4594C22.5898 26.4347 22.8241 26.404 23.0669 26.3827C23.191 26.3733 23.3157 26.3813 23.4375 26.4066C23.5614 26.4356 23.6809 26.4808 23.7928 26.5412C24.0237 26.6697 24.211 26.8643 24.3304 27.1001C24.3922 27.2206 24.4339 27.3504 24.4539 27.4843C24.4647 27.552 24.4706 27.6203 24.4718 27.6888V27.8941C24.4718 28.994 24.4718 30.1748 24.4718 31.4263C24.4718 33.9294 24.4718 36.7136 24.4718 39.6904V39.7125H19.9846C19.7284 39.7041 19.472 39.7163 19.2178 39.7491C18.6934 39.8246 18.1988 40.0386 17.7848 40.3692C17.3708 40.6997 17.0526 41.1348 16.863 41.6294C16.8262 41.7202 16.7952 41.8133 16.7701 41.908C16.7424 42.0017 16.7205 42.097 16.7045 42.1934L16.6824 42.3382L16.6721 42.4107L16.6679 42.4831L16.6611 42.6288V42.702V42.7106C16.6798 42.6918 16.6346 42.7395 16.6381 42.7344H10.9478V42.7106C10.9478 41.4267 10.9478 40.1888 10.9478 39.0062C10.9478 38.415 10.9478 37.8376 10.9478 37.2742V36.441C10.9478 36.3038 10.9478 36.1684 10.9478 36.0329C10.9506 35.8982 10.9603 35.7637 10.9768 35.6299C11.0418 35.1144 11.2055 34.6163 11.459 34.1628C11.6936 33.7215 11.9208 33.2955 12.1406 32.8849L13.3486 30.6212L14.3292 28.7836C14.4008 28.6501 14.4695 28.5209 14.5354 28.3959C14.5695 28.3346 14.5993 28.2724 14.6351 28.2145C14.6704 28.1578 14.7088 28.1032 14.7501 28.0509C14.8979 27.8666 15.0718 27.705 15.2664 27.5712C15.5344 27.3893 15.834 27.259 16.1499 27.187C16.2583 27.161 16.3685 27.143 16.4796 27.1333L16.3944 27.1461C16.339 27.1546 16.2572 27.1691 16.1499 27.1938C15.8359 27.268 15.5384 27.3998 15.2724 27.5823C15.0794 27.7163 14.9072 27.8779 14.7612 28.062C14.7199 28.1134 14.6821 28.1675 14.6479 28.2238C14.6129 28.2801 14.5831 28.3431 14.549 28.4053L14.3437 28.7938L13.3716 30.6332C13.007 31.3199 12.6049 32.0772 12.1704 32.8985L11.4888 34.1765C11.2376 34.6265 11.0759 35.121 11.0126 35.6325C10.9963 35.7651 10.9869 35.8985 10.9844 36.032C10.9844 36.1658 10.9844 36.303 10.9844 36.4393V37.2725C10.9844 37.8354 10.9844 38.4127 10.9844 39.0045C10.9844 40.187 10.9844 41.4249 10.9844 42.7089L10.9632 42.6884H16.6312C16.6372 42.6841 16.5903 42.7293 16.6099 42.7089V42.6995V42.6262L16.6176 42.478V42.4047L16.6287 42.3314L16.6508 42.184C16.667 42.0862 16.6892 41.9895 16.7173 41.8944C16.7428 41.7982 16.7744 41.7037 16.8119 41.6115C17.0045 41.1097 17.3275 40.6683 17.7476 40.3328C18.1676 39.9974 18.6696 39.78 19.2016 39.7031C19.4558 39.6708 19.7122 39.6585 19.9684 39.6665H24.4352L24.413 39.6878C24.413 36.7145 24.413 33.9303 24.413 31.4238C24.413 30.1723 24.413 28.9914 24.413 27.8916C24.4186 27.7564 24.4129 27.6211 24.396 27.4869C24.3766 27.356 24.336 27.2291 24.2759 27.1112C24.1602 26.8807 23.9776 26.6906 23.7519 26.5659C23.6432 26.5064 23.5268 26.4619 23.406 26.4339C23.2871 26.4088 23.1652 26.4004 23.0439 26.4092C22.8028 26.4296 22.5668 26.4603 22.3377 26.485L18.0191 26.9629L16.8596 27.0899L16.5605 27.1214L16.4813 27.1333Z" fill="#263238"/>
<path d="M23.1117 36.5482C23.1117 36.5482 23.1355 36.5482 23.1781 36.538C23.2408 36.5269 23.3005 36.5031 23.3536 36.4681C23.4374 36.4132 23.5002 36.3315 23.5317 36.2364C23.5509 36.1771 23.5587 36.1146 23.5547 36.0524C23.5529 35.9834 23.5351 35.9157 23.5027 35.8547C23.4657 35.7849 23.4105 35.7264 23.3431 35.6851C23.2756 35.6439 23.1984 35.6216 23.1193 35.6204H22.557H21.2689C21.1616 35.6206 21.0582 35.6602 20.9782 35.7316C20.8982 35.8031 20.8474 35.9015 20.8352 36.0081C20.8219 36.1093 20.8406 36.2121 20.8889 36.302C20.9368 36.3871 21.0118 36.4536 21.1019 36.4911C21.191 36.5221 21.2857 36.5337 21.3796 36.5252H21.6523H22.1421L22.8518 36.532H23.0452C23.0675 36.5316 23.0897 36.5333 23.1117 36.5371C23.0896 36.5398 23.0674 36.5412 23.0452 36.5414H22.8518L22.1421 36.5482H21.6523H21.3796C21.3319 36.5482 21.2859 36.5482 21.2357 36.5482C21.1845 36.5444 21.1343 36.5329 21.0866 36.5141C20.988 36.4732 20.9059 36.4007 20.8531 36.308C20.8002 36.2104 20.7794 36.0986 20.7935 35.9885C20.8067 35.8715 20.8624 35.7635 20.95 35.6849C21.0377 35.6064 21.1512 35.5628 21.2689 35.5625H22.557H23.1193C23.2422 35.5649 23.3594 35.6151 23.4459 35.7024C23.5324 35.7897 23.5815 35.9073 23.5828 36.0302C23.5855 36.0953 23.576 36.1603 23.5547 36.2219C23.5196 36.3208 23.4521 36.4049 23.363 36.4605C23.3074 36.4951 23.2449 36.5169 23.1798 36.5244C23.1582 36.5351 23.1353 36.5431 23.1117 36.5482Z" fill="#263238"/>
<path d="M22.956 35.4779C22.7132 35.4993 22.4694 35.5064 22.2259 35.4992C21.982 35.5064 21.7379 35.4993 21.4949 35.4779C21.7379 35.456 21.982 35.4486 22.2259 35.4558C22.4695 35.4486 22.7133 35.456 22.956 35.4779Z" fill="white"/>
<path d="M17.3049 46.0907L16.6234 46.0413C16.8014 43.6004 17.0621 42.1401 17.4208 41.577C18.1092 40.495 18.7933 40.2991 19.5507 40.1704C20.2561 40.0503 20.9675 40.0784 21.6559 40.1065L21.8263 40.1133C23.2473 40.1687 26.2241 40.1193 26.2565 40.1193L26.2675 40.8009C26.2377 40.8009 23.2422 40.8511 21.8024 40.7949L21.632 40.7881C20.9786 40.7625 20.3038 40.7344 19.6683 40.8435C18.9909 40.9585 18.5403 41.0905 17.9967 41.9442C17.8323 42.1989 17.5239 43.0841 17.3049 46.0907Z" fill="#263238"/>
<path d="M60.1856 18.2852H26.6201V40.6338H60.1856V18.2852Z" fill="#0F913D"/>
<path d="M59.7821 40.1921C59.7821 40.0481 59.7753 31.8514 59.7642 18.7908L59.7821 18.8079L26.9816 18.813L27.0038 18.7908C27.0038 26.398 27.0038 33.6388 27.0038 40.1921L26.9833 40.1716L59.7838 40.1921L26.9833 40.2125H26.9595V40.1921C26.9595 33.6388 26.9595 26.398 26.9595 18.7908V18.7695H26.9842L59.7846 18.7738H59.8025V18.7917C59.7889 31.8514 59.7821 40.0489 59.7821 40.1921Z" fill="#263238"/>
<g opacity="0.5">
<path d="M31.3792 30.2734L31.6961 36.6656L56.5895 31.4874L56.149 24.8242L31.3792 30.2734Z" fill="black"/>
</g>
<path d="M33.2645 34.6992L33.4349 34.1028C33.7681 34.2462 34.1379 34.2814 34.4922 34.2034C34.873 34.1182 35.0886 33.9375 35.0383 33.7186C34.9352 33.2389 33.5048 33.8149 33.2978 32.859C33.1657 32.2421 33.6198 31.7276 34.4513 31.5495C34.8543 31.4643 35.2462 31.4728 35.5435 31.5836L35.3944 32.1689C35.1184 32.0651 34.8178 32.0452 34.5305 32.1118C34.1276 32.197 33.9248 32.4032 33.9708 32.6179C34.073 33.1111 35.5086 32.5327 35.7071 33.4553C35.84 34.0773 35.3774 34.5936 34.5416 34.7725C34.0543 34.8781 33.5602 34.8312 33.2645 34.6992Z" fill="white"/>
<path d="M38.9279 30.6406L38.9713 33.769L38.277 33.9181L38.2591 32.6444L36.9002 32.9358L36.9189 34.2137L36.2195 34.3594L36.176 31.2302L36.8746 31.0802L36.8917 32.3096L38.2505 32.0182L38.2335 30.7889L38.9279 30.6406Z" fill="white"/>
<path d="M39.6394 30.4898L40.3363 30.3398L40.3798 33.4682L39.6811 33.6182L39.6394 30.4898Z" fill="white"/>
<path d="M43.6326 30.6093C43.7962 31.3718 43.337 31.9725 42.4399 32.1607L41.7711 32.3039L41.7839 33.1652L41.0853 33.3152L41.0444 30.1833L42.2576 29.9278C43.0073 29.7633 43.5065 30.0198 43.6326 30.6093ZM42.9425 30.8198C42.8803 30.5284 42.6452 30.4355 42.2933 30.5114L41.7489 30.6281L41.7626 31.7143L42.3496 31.5882C42.8062 31.4877 43.0277 31.2159 42.9425 30.8172V30.8198Z" fill="white"/>
<path d="M46.7258 29.9445C46.8893 30.7113 46.4301 31.3076 45.533 31.4959L44.8651 31.6399L44.8796 32.5012L44.181 32.6512L44.1367 29.5228L45.3499 29.2621C46.1021 29.101 46.6014 29.3575 46.7258 29.9445ZM46.0357 30.1558C45.9735 29.8636 45.7375 29.7707 45.3865 29.8465L44.8421 29.9632L44.8557 31.0503L45.4427 30.9242C45.9028 30.8254 46.1226 30.5536 46.0374 30.1558H46.0357Z" fill="white"/>
<path d="M47.2369 28.857L47.9355 28.707L47.9798 31.8363L47.2812 31.9862L47.2369 28.857Z" fill="white"/>
<path d="M51.3911 27.9688L51.4354 31.0971L50.8646 31.2198L49.3438 29.579L49.3694 31.5385L48.6878 31.6859L48.6435 28.5566L49.2177 28.4331L50.7402 30.0748L50.7095 28.1153L51.3911 27.9688Z" fill="white"/>
<path d="M54.1537 28.8944L54.7884 28.7581L54.8046 30.0454C54.5232 30.3592 54.1478 30.5735 53.7345 30.6562C52.8255 30.8513 52.1379 30.4475 51.9718 29.6722C51.752 28.6499 52.3356 27.7127 53.4712 27.4673C54.0455 27.3438 54.5047 27.4375 54.8344 27.7229L54.4237 28.2341C54.1681 28.0373 53.9023 27.9964 53.5718 28.068C52.8689 28.2188 52.5273 28.8211 52.6687 29.4814C52.765 29.9312 53.1305 30.1715 53.7004 30.0488C53.8725 30.0136 54.0346 29.9406 54.175 29.8349L54.1537 28.8944Z" fill="white"/>
<path d="M36.3409 24.3598V29.9427L50.5278 26.8228L50.5227 21.3047L36.3409 24.3598Z" fill="#0F913D"/>
<g opacity="0.3">
<path d="M36.342 24.3598V29.9427L50.5289 26.8228L50.5238 21.3047L36.342 24.3598Z" fill="black"/>
</g>
<path d="M38.4213 25.748L38.4528 26.9765L40.0051 26.6238L40.0111 26.91L38.4613 27.2628L38.4971 28.5901L38.1853 28.6608L38.1044 25.5324L40.1559 25.0664L40.1627 25.3527L38.4213 25.748Z" fill="white"/>
<path d="M42.4873 26.6314L43.2788 27.503L42.938 27.5805L42.1832 26.7498C42.1372 26.7652 42.0818 26.7771 42.0298 26.789L41.1779 26.9824L41.2051 27.9741L40.889 28.0456L40.8081 24.9181L41.885 24.6727C42.5666 24.5185 43.0249 24.7426 43.1459 25.2768C43.2856 25.8919 43.0343 26.3673 42.4873 26.6314ZM42.8366 25.3782C42.7472 24.9854 42.4217 24.8389 41.9259 24.9522L41.131 25.1328L41.1668 26.6978L41.9753 26.5147C42.65 26.3605 42.9704 25.9686 42.8366 25.3782Z" fill="white"/>
<path d="M44.2174 24.4316L44.2456 25.5451L45.797 25.1924L45.8072 25.4735L44.2549 25.8254L44.2856 26.9874L46.0849 26.5785L46.0917 26.8648L43.9797 27.3444L43.8988 24.2169L45.9503 23.75L45.9571 24.0363L44.2174 24.4316Z" fill="white"/>
<path d="M47.0769 23.7818L47.105 24.8944L48.6572 24.5417L48.6666 24.8229L47.1152 25.1756L47.145 26.3377L48.9452 25.9287L48.9512 26.215L46.84 26.6921L46.7548 23.5637L48.8072 23.0977L48.814 23.3839L47.0769 23.7818Z" fill="white"/>
<path d="M52.1544 24.36L57.1784 23.1835L56.9799 22.6484L52.1544 24.36Z" fill="#FAFAFA"/>
<path d="M29.6584 28.119L33.1515 27.3011L33.0135 26.9297L29.6584 28.119Z" fill="#FAFAFA"/>
<path d="M41.6169 36.5358L46.6409 35.3584L46.4432 34.8242L41.6169 36.5358Z" fill="#FAFAFA"/>
<path d="M48.2759 21.6838C48.2759 21.6957 45.5939 22.3372 42.2807 23.1159C38.9674 23.8946 36.2778 24.5174 36.2744 24.5055C36.2709 24.4935 38.9555 23.852 42.2704 23.0733C45.5854 22.2946 48.2734 21.6718 48.2759 21.6838Z" fill="#FAFAFA"/>
<path d="M36.3037 29.3833C36.3037 29.3952 35.1536 29.6389 33.7291 29.9251C32.3046 30.2114 31.1485 30.4363 31.1459 30.4244C31.1434 30.4124 32.2961 30.1688 33.7206 29.8817C35.145 29.5946 36.3011 29.3713 36.3037 29.3833Z" fill="#FAFAFA"/>
<path d="M36.3492 28.8748C36.3453 28.8601 36.3436 28.8449 36.3441 28.8296C36.3441 28.7947 36.3441 28.7521 36.3398 28.701C36.3398 28.5826 36.3398 28.4224 36.333 28.2273C36.333 27.8209 36.3262 27.2714 36.3228 26.664C36.3194 26.0565 36.3109 25.5061 36.3066 25.1006C36.3066 24.9055 36.3015 24.7453 36.2998 24.6269V24.4974C36.2976 24.4827 36.2976 24.4678 36.2998 24.4531C36.3037 24.4676 36.3057 24.4825 36.3058 24.4974C36.3058 24.5324 36.3109 24.5741 36.3143 24.6261C36.3211 24.7377 36.3279 24.8996 36.3347 25.0998C36.3492 25.4993 36.3603 26.0523 36.3646 26.6631C36.3688 27.274 36.3646 27.8269 36.3646 28.2265C36.3646 28.4224 36.3594 28.5826 36.3577 28.701C36.3577 28.7521 36.3577 28.7947 36.3535 28.8296C36.3533 28.8448 36.3519 28.8599 36.3492 28.8748Z" fill="#FAFAFA"/>
<path d="M21.848 28.8672C21.848 28.8672 21.8378 28.8774 21.8165 28.8936L21.7228 28.9609C21.6376 29.0197 21.5209 29.1015 21.3726 29.2029C21.0753 29.4039 20.6613 29.6783 20.1995 29.9739C19.7377 30.2695 19.316 30.5311 19.0067 30.7176C18.8534 30.8105 18.7282 30.888 18.6413 30.9357L18.5407 30.992C18.5293 30.9994 18.517 31.0054 18.5041 31.0099C18.5041 31.0099 18.5143 30.9996 18.5356 30.9852L18.6319 30.9204L18.9906 30.6912L20.1739 29.9364L21.353 29.1764L21.7117 28.9473L21.8105 28.8859C21.8223 28.8783 21.8349 28.8721 21.848 28.8672Z" fill="#FAFAFA"/>
<path d="M20.3923 29.2539C20.3923 29.2539 20.3821 29.2641 20.3608 29.2803L20.267 29.3476C20.1818 29.4056 20.0651 29.4882 19.916 29.5887C19.6187 29.7906 19.2046 30.0641 18.7437 30.3555C18.2828 30.6469 17.8603 30.9135 17.551 31.1001C17.3976 31.193 17.2724 31.2705 17.1855 31.3174L17.085 31.3744C17.0737 31.382 17.0614 31.3877 17.0483 31.3915C17.0579 31.3821 17.0685 31.3738 17.0799 31.3668L17.1761 31.3029L17.534 31.0728L18.7182 30.3189L19.8973 29.5589L20.256 29.3289L20.3539 29.2684C20.366 29.2619 20.3789 29.257 20.3923 29.2539Z" fill="#FAFAFA"/>
<path d="M13.2206 31.7328C13.2075 31.7095 13.1986 31.6842 13.1942 31.6578C13.1806 31.6093 13.1618 31.5377 13.1405 31.4491C13.0845 31.2176 13.0559 30.9802 13.0553 30.742C13.0541 30.5013 13.1096 30.2638 13.2172 30.0485C13.2509 29.9841 13.2914 29.9235 13.3382 29.8679C13.3539 29.8466 13.3729 29.8279 13.3944 29.8125C13.34 29.8933 13.29 29.9769 13.2445 30.063C13.1474 30.277 13.0977 30.5095 13.0988 30.7445C13.1014 30.9799 13.1267 31.2144 13.1746 31.4449C13.1959 31.5398 13.2113 31.636 13.2206 31.7328Z" fill="#FAFAFA"/>
<path d="M9.74969 37.7741C9.74661 37.7438 9.74661 37.7133 9.74969 37.683C9.74969 37.6216 9.74969 37.533 9.7548 37.4274C9.76161 37.2084 9.7778 36.906 9.80421 36.5754C9.83062 36.2449 9.86214 35.9416 9.88941 35.7235C9.90304 35.6144 9.91497 35.5266 9.92434 35.4679C9.92754 35.4363 9.93411 35.4052 9.94393 35.375C9.94821 35.4067 9.94821 35.4388 9.94393 35.4704L9.92178 35.726C9.90304 35.9543 9.87748 36.25 9.84937 36.578C9.82125 36.906 9.80421 37.2007 9.78802 37.4299C9.78036 37.5322 9.77354 37.6182 9.76843 37.6855C9.76584 37.7157 9.75954 37.7455 9.74969 37.7741Z" fill="#FAFAFA"/>
<path d="M19.0868 39.4258C19.0868 39.4352 18.9224 39.4582 18.6677 39.5408C18.5186 39.5892 18.3731 39.6481 18.2323 39.7172C17.8874 39.8884 17.5754 40.1192 17.3105 40.3987C17.2023 40.5121 17.1024 40.6332 17.0114 40.7608C16.8572 40.9798 16.7848 41.1306 16.7772 41.1263C16.7898 41.0892 16.8058 41.0532 16.8249 41.0189C16.8439 40.9773 16.8656 40.9369 16.8896 40.898C16.9169 40.852 16.9467 40.7983 16.9859 40.7429C17.0741 40.6112 17.1727 40.4867 17.2807 40.3706C17.4145 40.2288 17.5602 40.0985 17.716 39.9813C17.8733 39.8671 18.0404 39.767 18.2153 39.6822C18.3581 39.6136 18.5063 39.5566 18.6583 39.5118C18.7222 39.4905 18.7827 39.4786 18.8346 39.4658C18.8793 39.455 18.9245 39.4465 18.9701 39.4403C19.0085 39.4317 19.0475 39.4269 19.0868 39.4258Z" fill="#FAFAFA"/>
<path d="M27.477 34.2841C27.4759 34.2719 27.4759 34.2597 27.477 34.2475C27.477 34.2214 27.477 34.1856 27.477 34.1402C27.477 34.043 27.477 33.9042 27.4711 33.727C27.466 33.3657 27.4591 32.8469 27.4498 32.2071C27.4268 30.9215 27.3952 29.1502 27.3603 27.1933C27.3254 25.2363 27.2956 23.4617 27.2836 22.1786C27.2777 21.5371 27.276 21.0174 27.2768 20.6587C27.2768 20.4807 27.2768 20.3418 27.2768 20.2455V20.1382C27.2768 20.1135 27.2768 20.1016 27.2768 20.1016C27.278 20.1137 27.278 20.126 27.2768 20.1382C27.2768 20.1638 27.2768 20.1995 27.2768 20.2455C27.2768 20.3418 27.2768 20.4807 27.2828 20.6587C27.2879 21.02 27.2947 21.538 27.3041 22.1778C27.3271 23.4634 27.3586 25.2346 27.3935 27.1924C27.4285 29.1502 27.4591 30.9232 27.4702 32.2062C27.4762 32.8486 27.4787 33.3674 27.4779 33.7261C27.4779 33.9042 27.4779 34.043 27.4779 34.1402C27.4779 34.1853 27.4779 34.2211 27.4779 34.2475C27.4783 34.2597 27.478 34.272 27.477 34.2841Z" fill="#FAFAFA"/>
<path d="M52.1264 49.1864C54.3803 49.0962 56.1343 47.196 56.0442 44.9421C55.9541 42.6882 54.0539 40.9342 51.8 41.0243C49.5461 41.1144 47.792 43.0146 47.8821 45.2685C47.9723 47.5224 49.8725 49.2765 52.1264 49.1864Z" fill="#263238"/>
<path d="M47.878 45.0391C47.878 45.0391 47.878 45.0467 47.878 45.0501C47.8624 46.1331 48.2777 47.178 49.0324 47.9548C49.7872 48.7316 50.8197 49.1768 51.9026 49.1924C52.9856 49.208 54.0305 48.7927 54.8073 48.0379C55.5841 47.2832 56.0293 46.2507 56.0449 45.1677V45.1575L47.878 45.0391Z" fill="#263238"/>
<path d="M49.0941 45.0676C49.0859 45.6345 49.246 46.1911 49.5542 46.6671C49.8623 47.143 50.3046 47.5169 50.8253 47.7414C51.3459 47.966 51.9214 48.0311 52.479 47.9286C53.0367 47.8261 53.5514 47.5605 53.9581 47.1655C54.3648 46.7705 54.6452 46.2637 54.764 45.7093C54.8827 45.1549 54.8343 44.5777 54.625 44.0507C54.4157 43.5238 54.0549 43.0708 53.5881 42.7489C53.1213 42.427 52.5696 42.2508 52.0027 42.2425C51.2424 42.2316 50.5089 42.523 49.9635 43.0528C49.418 43.5826 49.1053 44.3073 49.0941 45.0676Z" fill="#FAFAFA"/>
<path d="M52.0024 42.2425C51.6259 42.237 51.252 42.3057 50.9021 42.4447C50.5521 42.5837 50.233 42.7902 49.9629 43.0526C49.6928 43.3149 49.4771 43.6279 49.3279 43.9736C49.1788 44.3194 49.0993 44.6911 49.0938 45.0676L54.8275 45.1528C54.8332 44.7762 54.7647 44.4021 54.6258 44.052C54.4869 43.7018 54.2804 43.3825 54.018 43.1122C53.7557 42.8419 53.4426 42.626 53.0968 42.4768C52.7509 42.3275 52.379 42.2479 52.0024 42.2425Z" fill="#E0E0E0"/>
<path d="M50.2183 45.0844C50.2133 45.4298 50.3108 45.769 50.4986 46.059C50.6863 46.3489 50.9558 46.5767 51.273 46.7135C51.5902 46.8503 51.9409 46.89 52.2806 46.8275C52.6204 46.765 52.934 46.6031 53.1817 46.3624C53.4295 46.1217 53.6003 45.8129 53.6725 45.4751C53.7448 45.1373 53.7153 44.7856 53.5876 44.4646C53.46 44.1436 53.2401 43.8676 52.9556 43.6716C52.6712 43.4756 52.335 43.3684 51.9895 43.3635C51.5265 43.3569 51.0797 43.5345 50.7476 43.8572C50.4154 44.1799 50.2251 44.6213 50.2183 45.0844Z" fill="#263238"/>
<path d="M46.5924 46.2269C46.5924 46.2269 45.9704 40.4336 51.9733 40.4336C57.5111 40.4336 57.3884 45.4159 57.3356 46.1869H56.4674C56.4674 46.1869 56.9096 41.2762 51.9733 41.2762C47.0371 41.2762 47.4665 46.2866 47.4665 46.2866C47.4665 46.2866 47.1018 46.2687 46.5924 46.2269Z" fill="#455A64"/>
<path d="M49.8073 41.0353C49.7925 41.043 49.7768 41.0487 49.7605 41.0524C49.729 41.0635 49.6821 41.0745 49.6242 41.095C49.4576 41.148 49.2946 41.2114 49.136 41.285C48.6112 41.5257 48.1463 41.8798 47.7748 42.3217C47.4032 42.7637 47.1343 43.2825 46.9874 43.8408C46.9424 44.0089 46.9079 44.1797 46.8843 44.352C46.8749 44.4134 46.8715 44.4611 46.8664 44.4935C46.8649 44.5101 46.8621 44.5267 46.8579 44.5429C46.8558 44.5265 46.8558 44.5099 46.8579 44.4935C46.8579 44.4602 46.8579 44.4083 46.8681 44.3503C46.885 44.1751 46.9152 44.0013 46.9584 43.8306C47.098 43.2637 47.3659 42.7365 47.7414 42.2894C48.1168 41.8423 48.5899 41.4873 49.1241 41.2517C49.2847 41.18 49.4505 41.1202 49.6199 41.0728C49.6795 41.0558 49.7273 41.0464 49.7588 41.0388C49.7748 41.0358 49.7911 41.0347 49.8073 41.0353Z" fill="#FAFAFA"/>
</svg>
