<svg width="69" height="69" viewBox="0 0 69 69" fill="none" xmlns="http://www.w3.org/2000/svg">
<rect width="69" height="69" rx="34.5" fill="#F5F5F5"/>
<path d="M17.177 49.6524V23.8479C17.1772 22.7311 16.8349 21.6411 16.1962 20.7249L15.2946 19.4336H31.3141L32.2158 20.7249C32.8545 21.6411 33.1968 22.7311 33.1965 23.8479V49.4077" stroke="#263238" stroke-width="1.8" stroke-linecap="round" stroke-linejoin="round"/>
<path d="M51.2209 55.309C52.1369 55.309 52.8794 54.5665 52.8794 53.6506C52.8794 52.7347 52.1369 51.9922 51.2209 51.9922C50.305 51.9922 49.5625 52.7347 49.5625 53.6506C49.5625 54.5665 50.305 55.309 51.2209 55.309Z" fill="#263238"/>
<path opacity="0.4" d="M52.0514 53.6523C52.0517 53.4881 52.0034 53.3274 51.9124 53.1906C51.8214 53.0539 51.6919 52.9472 51.5402 52.884C51.3885 52.8209 51.2216 52.8042 51.0604 52.836C50.8992 52.8679 50.7512 52.9468 50.6349 53.0628C50.5186 53.1788 50.4393 53.3267 50.4071 53.4878C50.375 53.6489 50.3913 53.8159 50.4541 53.9677C50.5168 54.1195 50.6232 54.2493 50.7598 54.3406C50.8964 54.4319 51.0569 54.4806 51.2212 54.4806C51.3301 54.4809 51.438 54.4596 51.5387 54.4181C51.6395 54.3766 51.731 54.3156 51.8081 54.2387C51.8852 54.1618 51.9464 54.0704 51.9881 53.9698C52.0299 53.8691 52.0514 53.7613 52.0514 53.6523Z" fill="white"/>
<path d="M51.0211 54.0207C50.8918 54.0205 50.7656 53.9807 50.6596 53.9067C50.5536 53.8327 50.4728 53.7279 50.4282 53.6065L49.4512 50.9297H51.6517V53.39C51.6517 53.5573 51.5853 53.7177 51.467 53.8359C51.3488 53.9542 51.1884 54.0207 51.0211 54.0207Z" fill="#263238"/>
<path opacity="0.2" d="M51.0211 54.0207C50.8918 54.0205 50.7656 53.9807 50.6596 53.9067C50.5536 53.8327 50.4728 53.7279 50.4282 53.6065L49.4512 50.9297H51.6517V53.39C51.6517 53.5573 51.5853 53.7177 51.467 53.8359C51.3488 53.9542 51.1884 54.0207 51.0211 54.0207Z" fill="white"/>
<path d="M32.7733 55.309C33.6892 55.309 34.4317 54.5665 34.4317 53.6506C34.4317 52.7347 33.6892 51.9922 32.7733 51.9922C31.8574 51.9922 31.1149 52.7347 31.1149 53.6506C31.1149 54.5665 31.8574 55.309 32.7733 55.309Z" fill="#263238"/>
<path opacity="0.4" d="M33.6037 53.6523C33.604 53.4881 33.5557 53.3274 33.4647 53.1906C33.3737 53.0539 33.2442 52.9472 33.0925 52.884C32.9408 52.8209 32.7739 52.8042 32.6127 52.836C32.4516 52.8679 32.3035 52.9468 32.1872 53.0628C32.0709 53.1788 31.9916 53.3267 31.9594 53.4878C31.9273 53.6489 31.9436 53.8159 32.0064 53.9677C32.0691 54.1195 32.1755 54.2493 32.3121 54.3406C32.4487 54.4319 32.6092 54.4806 32.7735 54.4806C32.8824 54.4809 32.9903 54.4596 33.0911 54.4181C33.1918 54.3766 33.2833 54.3156 33.3604 54.2387C33.4375 54.1618 33.4987 54.0704 33.5404 53.9698C33.5822 53.8691 33.6037 53.7613 33.6037 53.6523Z" fill="white"/>
<path d="M32.5735 54.0207C32.4442 54.0205 32.318 53.9807 32.212 53.9067C32.1059 53.8327 32.0252 53.7279 31.9805 53.6065L31.0035 50.9297H33.2041V53.39C33.2041 53.5573 33.1377 53.7177 33.0194 53.8359C32.9011 53.9542 32.7407 54.0207 32.5735 54.0207Z" fill="#263238"/>
<path opacity="0.2" d="M32.5735 54.0207C32.4442 54.0205 32.318 53.9807 32.212 53.9067C32.1059 53.8327 32.0252 53.7279 31.9805 53.6065L31.0035 50.9297H33.2041V53.39C33.2041 53.5573 33.1377 53.7177 33.0194 53.8359C32.9011 53.9542 32.7407 54.0207 32.5735 54.0207Z" fill="white"/>
<path d="M54.0726 49V50.5662C54.0726 50.7065 54.0169 50.841 53.9177 50.9402C53.8185 51.0394 53.6839 51.0952 53.5436 51.0952H16.4728C16.3325 51.0952 16.1979 51.0394 16.0987 50.9402C15.9995 50.841 15.9438 50.7065 15.9438 50.5662V49H54.0726Z" fill="#263238"/>
<path opacity="0.4" d="M54.0726 49V50.5662C54.0726 50.7065 54.0169 50.841 53.9177 50.9402C53.8185 51.0394 53.6839 51.0952 53.5436 51.0952H16.4728C16.3325 51.0952 16.1979 51.0394 16.0987 50.9402C15.9995 50.841 15.9438 50.7065 15.9438 50.5662V49H54.0726Z" fill="white"/>
<path opacity="0.2" d="M40.8955 49V50.5662C40.8955 50.7065 40.8398 50.841 40.7406 50.9402C40.6414 51.0394 40.5068 51.0952 40.3665 51.0952H16.4728C16.3325 51.0952 16.1979 51.0394 16.0987 50.9402C15.9995 50.841 15.9438 50.7065 15.9438 50.5662V49H40.8955Z" fill="white"/>
<path d="M37.8557 55.309C38.7716 55.309 39.5141 54.5665 39.5141 53.6506C39.5141 52.7347 38.7716 51.9922 37.8557 51.9922C36.9398 51.9922 36.1973 52.7347 36.1973 53.6506C36.1973 54.5665 36.9398 55.309 37.8557 55.309Z" fill="#263238"/>
<path opacity="0.6" d="M38.6861 53.6523C38.6865 53.4881 38.6381 53.3274 38.5471 53.1906C38.4561 53.0539 38.3266 52.9472 38.175 52.884C38.0233 52.8209 37.8563 52.8042 37.6952 52.836C37.534 52.8679 37.3859 52.9468 37.2696 53.0628C37.1533 53.1788 37.0741 53.3267 37.0419 53.4878C37.0097 53.6489 37.0261 53.8159 37.0888 53.9677C37.1516 54.1195 37.258 54.2493 37.3946 54.3406C37.5311 54.4319 37.6917 54.4806 37.856 54.4806C37.9649 54.4809 38.0728 54.4596 38.1735 54.4181C38.2742 54.3766 38.3658 54.3156 38.4429 54.2387C38.52 54.1618 38.5812 54.0704 38.6229 53.9698C38.6646 53.8691 38.6861 53.7613 38.6861 53.6523Z" fill="white"/>
<path d="M37.6559 54.0207C37.5266 54.0205 37.4004 53.9807 37.2944 53.9067C37.1883 53.8327 37.1076 53.7279 37.0629 53.6065L36.0859 50.9297H38.2865V53.39C38.2865 53.5573 38.2201 53.7177 38.1018 53.8359C37.9835 53.9542 37.8231 54.0207 37.6559 54.0207Z" fill="#263238"/>
<path opacity="0.4" d="M37.6559 54.0207C37.5266 54.0205 37.4004 53.9807 37.2944 53.9067C37.1883 53.8327 37.1076 53.7279 37.0629 53.6065L36.0859 50.9297H38.2865V53.39C38.2865 53.5573 38.2201 53.7177 38.1018 53.8359C37.9835 53.9542 37.8231 54.0207 37.6559 54.0207Z" fill="white"/>
<path d="M19.4081 55.309C20.324 55.309 21.0665 54.5665 21.0665 53.6506C21.0665 52.7347 20.324 51.9922 19.4081 51.9922C18.4921 51.9922 17.7496 52.7347 17.7496 53.6506C17.7496 54.5665 18.4921 55.309 19.4081 55.309Z" fill="#263238"/>
<path opacity="0.6" d="M20.2373 53.6523C20.2376 53.4881 20.1893 53.3274 20.0983 53.1906C20.0073 53.0539 19.8778 52.9472 19.7261 52.884C19.5745 52.8209 19.4075 52.8042 19.2463 52.836C19.0852 52.8679 18.9371 52.9468 18.8208 53.0628C18.7045 53.1788 18.6252 53.3267 18.5931 53.4878C18.5609 53.6489 18.5772 53.8159 18.64 53.9677C18.7028 54.1195 18.8092 54.2493 18.9457 54.3406C19.0823 54.4319 19.2429 54.4806 19.4071 54.4806C19.516 54.4809 19.624 54.4596 19.7247 54.4181C19.8254 54.3766 19.9169 54.3156 19.994 54.2387C20.0711 54.1618 20.1323 54.0704 20.174 53.9698C20.2158 53.8691 20.2373 53.7613 20.2373 53.6523Z" fill="white"/>
<path d="M19.2083 54.0207C19.0789 54.0205 18.9528 53.9807 18.8467 53.9067C18.7407 53.8327 18.6599 53.7279 18.6153 53.6065L17.6383 50.9297H19.8389V53.39C19.8389 53.5573 19.7724 53.7177 19.6542 53.8359C19.5359 53.9542 19.3755 54.0207 19.2083 54.0207Z" fill="#263238"/>
<path opacity="0.4" d="M19.2083 54.0207C19.0789 54.0205 18.9528 53.9807 18.8467 53.9067C18.7407 53.8327 18.6599 53.7279 18.6153 53.6065L17.6383 50.9297H19.8389V53.39C19.8389 53.5573 19.7724 53.7177 19.6542 53.8359C19.5359 53.9542 19.3755 54.0207 19.2083 54.0207Z" fill="white"/>
<path d="M38.0889 36.8477H20.5352V48.9988H38.0889V36.8477Z" fill="#0F913D"/>
<path opacity="0.4" d="M38.0889 36.8477H20.5352V48.9988H38.0889V36.8477Z" fill="white"/>
<path opacity="0.2" d="M28.6805 36.8477H20.5352V48.9988H28.6805V36.8477Z" fill="white"/>
<path opacity="0.2" d="M27.9108 46.4297H26.8924C26.7967 46.4297 26.7192 46.5072 26.7192 46.6029V47.994C26.7192 48.0896 26.7967 48.1672 26.8924 48.1672H27.9108C28.0064 48.1672 28.0839 48.0896 28.0839 47.994V46.6029C28.0839 46.5072 28.0064 46.4297 27.9108 46.4297Z" fill="black"/>
<path opacity="0.2" d="M26.0732 46.4297H25.0548C24.9592 46.4297 24.8817 46.5072 24.8817 46.6029V47.994C24.8817 48.0896 24.9592 48.1672 25.0548 48.1672H26.0732C26.1689 48.1672 26.2464 48.0896 26.2464 47.994V46.6029C26.2464 46.5072 26.1689 46.4297 26.0732 46.4297Z" fill="black"/>
<path opacity="0.4" d="M34.3147 36.8477H33.3227V38.1145H34.3147V36.8477Z" fill="black"/>
<path opacity="0.2" d="M37.027 42.0352H30.1938V43.6239H37.027V42.0352Z" fill="black"/>
<path opacity="0.2" d="M23.4021 37.4805H21.066V39.8166H23.4021V37.4805Z" fill="black"/>
<path d="M39.8807 24.6992H22.327V36.8504H39.8807V24.6992Z" fill="#0F913D"/>
<path opacity="0.4" d="M39.8807 24.6992H22.327V36.8504H39.8807V24.6992Z" fill="black"/>
<path opacity="0.2" d="M30.4723 24.6992H22.327V36.8504H30.4723V24.6992Z" fill="white"/>
<path opacity="0.2" d="M29.7049 34.2812H28.6865C28.5908 34.2812 28.5133 34.3588 28.5133 34.4544V35.8456C28.5133 35.9412 28.5908 36.0187 28.6865 36.0187H29.7049C29.8005 36.0187 29.8781 35.9412 29.8781 35.8456V34.4544C29.8781 34.3588 29.8005 34.2812 29.7049 34.2812Z" fill="black"/>
<path opacity="0.2" d="M27.8674 34.2812H26.849C26.7533 34.2812 26.6758 34.3588 26.6758 34.4544V35.8456C26.6758 35.9412 26.7533 36.0187 26.849 36.0187H27.8674C27.963 36.0187 28.0405 35.9412 28.0405 35.8456V34.4544C28.0405 34.3588 27.963 34.2812 27.8674 34.2812Z" fill="black"/>
<path opacity="0.4" d="M36.1065 24.6992H35.1144V25.9661H36.1065V24.6992Z" fill="black"/>
<path opacity="0.2" d="M38.8188 29.8867H31.9855V31.4755H38.8188V29.8867Z" fill="black"/>
<path opacity="0.2" d="M25.1963 25.332H22.8602V27.6681H25.1963V25.332Z" fill="black"/>
<path d="M50.6256 24.6992H33.0719V36.8504H50.6256V24.6992Z" fill="#0F913D"/>
<path opacity="0.4" d="M50.6256 24.6992H33.0719V36.8504H50.6256V24.6992Z" fill="white"/>
<path opacity="0.2" d="M41.2172 24.6992H33.0719V36.8504H41.2172V24.6992Z" fill="white"/>
<path opacity="0.2" d="M40.4498 34.2812H39.4314C39.3358 34.2812 39.2582 34.3588 39.2582 34.4544V35.8456C39.2582 35.9412 39.3358 36.0187 39.4314 36.0187H40.4498C40.5455 36.0187 40.623 35.9412 40.623 35.8456V34.4544C40.623 34.3588 40.5455 34.2812 40.4498 34.2812Z" fill="black"/>
<path opacity="0.2" d="M38.6123 34.2812H37.5939C37.4982 34.2812 37.4207 34.3588 37.4207 34.4544V35.8456C37.4207 35.9412 37.4982 36.0187 37.5939 36.0187H38.6123C38.7079 36.0187 38.7855 35.9412 38.7855 35.8456V34.4544C38.7855 34.3588 38.7079 34.2812 38.6123 34.2812Z" fill="black"/>
<path opacity="0.4" d="M46.8514 24.6992H45.8594V25.9661H46.8514V24.6992Z" fill="black"/>
<path opacity="0.2" d="M49.5649 29.8867H42.7316V31.4755H49.5649V29.8867Z" fill="black"/>
<path opacity="0.2" d="M35.9412 25.332H33.6051V27.6681H35.9412V25.332Z" fill="black"/>
<path d="M44.5553 12.5469H27.0016V24.698H44.5553V12.5469Z" fill="#0F913D"/>
<path opacity="0.2" d="M35.1469 12.5469H27.0016V24.698H35.1469V12.5469Z" fill="white"/>
<path opacity="0.2" d="M34.3771 22.1289H33.3587C33.2631 22.1289 33.1855 22.2064 33.1855 22.3021V23.6932C33.1855 23.7889 33.2631 23.8664 33.3587 23.8664H34.3771C34.4728 23.8664 34.5503 23.7889 34.5503 23.6932V22.3021C34.5503 22.2064 34.4728 22.1289 34.3771 22.1289Z" fill="black"/>
<path opacity="0.2" d="M32.542 22.1289H31.5236C31.4279 22.1289 31.3504 22.2064 31.3504 22.3021V23.6932C31.3504 23.7889 31.4279 23.8664 31.5236 23.8664H32.542C32.6376 23.8664 32.7152 23.7889 32.7152 23.6932V22.3021C32.7152 22.2064 32.6376 22.1289 32.542 22.1289Z" fill="black"/>
<path opacity="0.4" d="M40.7811 12.5469H39.7891V13.8138H40.7811V12.5469Z" fill="black"/>
<path opacity="0.2" d="M43.4934 17.7344H36.6602V19.3232H43.4934V17.7344Z" fill="black"/>
<path opacity="0.2" d="M29.8685 13.1797H27.5324V15.5158H29.8685V13.1797Z" fill="black"/>
<path d="M49.2592 36.8477H31.7055V48.9988H49.2592V36.8477Z" fill="#263238"/>
<path opacity="0.2" d="M49.2592 36.8477H31.7055V48.9988H49.2592V36.8477Z" fill="white"/>
<path opacity="0.2" d="M39.8508 36.8477H31.7055V48.9988H39.8508V36.8477Z" fill="white"/>
<path opacity="0.2" d="M39.081 46.4297H38.0627C37.967 46.4297 37.8895 46.5072 37.8895 46.6029V47.994C37.8895 48.0896 37.967 48.1672 38.0627 48.1672H39.081C39.1767 48.1672 39.2542 48.0896 39.2542 47.994V46.6029C39.2542 46.5072 39.1767 46.4297 39.081 46.4297Z" fill="black"/>
<path opacity="0.2" d="M37.2435 46.4297H36.2251C36.1295 46.4297 36.0519 46.5072 36.0519 46.6029V47.994C36.0519 48.0896 36.1295 48.1672 36.2251 48.1672H37.2435C37.3392 48.1672 37.4167 48.0896 37.4167 47.994V46.6029C37.4167 46.5072 37.3392 46.4297 37.2435 46.4297Z" fill="black"/>
<path opacity="0.4" d="M45.485 36.8477H44.493V38.1145H45.485V36.8477Z" fill="black"/>
<path opacity="0.2" d="M48.1973 42.0352H41.3641V43.6239H48.1973V42.0352Z" fill="black"/>
<path opacity="0.2" d="M34.5724 37.4805H32.2363V39.8166H34.5724V37.4805Z" fill="black"/>
</svg>
