<svg width="28" height="24" viewBox="0 0 28 24" fill="none" xmlns="http://www.w3.org/2000/svg">
<path d="M26.5625 0H1.0625C0.780707 0 0.510456 0.111942 0.311199 0.311199C0.111942 0.510457 0 0.780707 0 1.0625V22.3125C0 22.5943 0.111942 22.8645 0.311199 23.0638C0.510456 23.2631 0.780707 23.375 1.0625 23.375H26.5625C26.8443 23.375 27.1145 23.2631 27.3138 23.0638C27.5131 22.8645 27.625 22.5943 27.625 22.3125V1.0625C27.625 0.780707 27.5131 0.510457 27.3138 0.311199C27.1145 0.111942 26.8443 0 26.5625 0ZM2.125 3.1875C2.125 2.90571 2.23694 2.63546 2.4362 2.4362C2.63546 2.23694 2.90571 2.125 3.1875 2.125H7.4375C7.71929 2.125 7.98954 2.23694 8.1888 2.4362C8.38806 2.63546 8.5 2.90571 8.5 3.1875C8.5 3.46929 8.38806 3.73954 8.1888 3.9388C7.98954 4.13806 7.71929 4.25 7.4375 4.25H4.25V7.4375C4.25 7.71929 4.13806 7.98954 3.9388 8.1888C3.73954 8.38806 3.46929 8.5 3.1875 8.5C2.90571 8.5 2.63546 8.38806 2.4362 8.1888C2.23694 7.98954 2.125 7.71929 2.125 7.4375V3.1875ZM7.4375 21.25H3.1875C2.90571 21.25 2.63546 21.1381 2.4362 20.9388C2.23694 20.7395 2.125 20.4693 2.125 20.1875V15.9375C2.125 15.6557 2.23694 15.3855 2.4362 15.1862C2.63546 14.9869 2.90571 14.875 3.1875 14.875C3.46929 14.875 3.73954 14.9869 3.9388 15.1862C4.13806 15.3855 4.25 15.6557 4.25 15.9375V19.125H7.4375C7.71929 19.125 7.98954 19.2369 8.1888 19.4362C8.38806 19.6355 8.5 19.9057 8.5 20.1875C8.5 20.4693 8.38806 20.7395 8.1888 20.9388C7.98954 21.1381 7.71929 21.25 7.4375 21.25ZM10.625 14.875C10.625 15.1568 10.5131 15.427 10.3138 15.6263C10.1145 15.8256 9.84429 15.9375 9.5625 15.9375C9.28071 15.9375 9.01046 15.8256 8.8112 15.6263C8.61194 15.427 8.5 15.1568 8.5 14.875V8.5C8.5 8.21821 8.61194 7.94796 8.8112 7.7487C9.01046 7.54944 9.28071 7.4375 9.5625 7.4375C9.84429 7.4375 10.1145 7.54944 10.3138 7.7487C10.5131 7.94796 10.625 8.21821 10.625 8.5V14.875ZM14.875 14.875C14.875 15.1568 14.7631 15.427 14.5638 15.6263C14.3645 15.8256 14.0943 15.9375 13.8125 15.9375C13.5307 15.9375 13.2605 15.8256 13.0612 15.6263C12.8619 15.427 12.75 15.1568 12.75 14.875V8.5C12.75 8.21821 12.8619 7.94796 13.0612 7.7487C13.2605 7.54944 13.5307 7.4375 13.8125 7.4375C14.0943 7.4375 14.3645 7.54944 14.5638 7.7487C14.7631 7.94796 14.875 8.21821 14.875 8.5V14.875ZM18.0625 15.9375C17.7807 15.9375 17.5105 15.8256 17.3112 15.6263C17.1119 15.427 17 15.1568 17 14.875V8.5C17 8.21821 17.1119 7.94796 17.3112 7.7487C17.5105 7.54944 17.7807 7.4375 18.0625 7.4375C18.3443 7.4375 18.6145 7.54944 18.8138 7.7487C19.0131 7.94796 19.125 8.21821 19.125 8.5V14.875C19.125 15.1568 19.0131 15.427 18.8138 15.6263C18.6145 15.8256 18.3443 15.9375 18.0625 15.9375ZM25.5 20.1875C25.5 20.4693 25.3881 20.7395 25.1888 20.9388C24.9895 21.1381 24.7193 21.25 24.4375 21.25H20.1875C19.9057 21.25 19.6355 21.1381 19.4362 20.9388C19.2369 20.7395 19.125 20.4693 19.125 20.1875C19.125 19.9057 19.2369 19.6355 19.4362 19.4362C19.6355 19.2369 19.9057 19.125 20.1875 19.125H23.375V15.9375C23.375 15.6557 23.4869 15.3855 23.6862 15.1862C23.8855 14.9869 24.1557 14.875 24.4375 14.875C24.7193 14.875 24.9895 14.9869 25.1888 15.1862C25.3881 15.3855 25.5 15.6557 25.5 15.9375V20.1875ZM25.5 7.4375C25.5 7.71929 25.3881 7.98954 25.1888 8.1888C24.9895 8.38806 24.7193 8.5 24.4375 8.5C24.1557 8.5 23.8855 8.38806 23.6862 8.1888C23.4869 7.98954 23.375 7.71929 23.375 7.4375V4.25H20.1875C19.9057 4.25 19.6355 4.13806 19.4362 3.9388C19.2369 3.73954 19.125 3.46929 19.125 3.1875C19.125 2.90571 19.2369 2.63546 19.4362 2.4362C19.6355 2.23694 19.9057 2.125 20.1875 2.125H24.4375C24.7193 2.125 24.9895 2.23694 25.1888 2.4362C25.3881 2.63546 25.5 2.90571 25.5 3.1875V7.4375Z" fill="black"/>
</svg>
