<svg width="69" height="69" viewBox="0 0 69 69" fill="none" xmlns="http://www.w3.org/2000/svg">
<rect width="69" height="69" rx="34.5" fill="#F5F5F5"/>
<path d="M50.1454 55.8856C50.1017 55.8856 50.0597 55.8682 50.0288 55.8372C49.9979 55.8063 49.9805 55.7643 49.9805 55.7206V37.9275C49.9805 37.8837 49.9979 37.8418 50.0288 37.8108C50.0597 37.7799 50.1017 37.7625 50.1454 37.7625C50.1892 37.7625 50.2312 37.7799 50.2621 37.8108C50.293 37.8418 50.3104 37.8837 50.3104 37.9275V55.7206C50.3104 55.7643 50.293 55.8063 50.2621 55.8372C50.2312 55.8682 50.1892 55.8856 50.1454 55.8856Z" fill="#263238"/>
<path d="M49.9705 47.6241C49.9464 47.6254 49.9224 47.6214 49.9002 47.6122C49.8779 47.6031 49.858 47.5891 49.8418 47.5713L42.7549 39.8245C42.7368 39.8095 42.7221 39.7908 42.7118 39.7696C42.7016 39.7484 42.6959 39.7253 42.6954 39.7017C42.6948 39.6782 42.6992 39.6548 42.7085 39.6331C42.7177 39.6115 42.7314 39.592 42.7487 39.5761C42.7661 39.5602 42.7866 39.5482 42.809 39.5408C42.8314 39.5335 42.8551 39.5311 42.8785 39.5337C42.9019 39.5363 42.9244 39.5438 42.9447 39.5559C42.9649 39.5679 42.9823 39.5842 42.9958 39.6035L50.0826 47.347C50.0981 47.3623 50.1104 47.3805 50.1187 47.4006C50.1271 47.4207 50.1314 47.4423 50.1314 47.4641C50.1314 47.4859 50.1271 47.5074 50.1187 47.5275C50.1104 47.5476 50.0981 47.5659 50.0826 47.5812C50.0678 47.5956 50.0503 47.6068 50.031 47.6142C50.0117 47.6216 49.9911 47.625 49.9705 47.6241Z" fill="#263238"/>
<path d="M50.191 40.1705C50.1464 40.1704 50.1037 40.1526 50.0722 40.121C50.0568 40.1057 50.0445 40.0874 50.0361 40.0673C50.0277 40.0472 50.0234 40.0256 50.0234 40.0039C50.0234 39.9821 50.0277 39.9605 50.0361 39.9404C50.0445 39.9203 50.0568 39.9021 50.0722 39.8867L54.8265 35.3634C54.8417 35.3465 54.8602 35.333 54.8808 35.3236C54.9015 35.3142 54.9239 35.3091 54.9466 35.3088C54.9693 35.3084 54.9918 35.3127 55.0127 35.3215C55.0337 35.3302 55.0526 35.3432 55.0683 35.3596C55.084 35.376 55.0961 35.3954 55.104 35.4167C55.1118 35.438 55.1152 35.4607 55.1139 35.4833C55.1125 35.506 55.1066 35.5281 55.0963 35.5484C55.086 35.5686 55.0717 35.5865 55.0542 35.6009L50.3032 40.1309C50.2882 40.1449 50.2705 40.1556 50.2512 40.1624C50.2319 40.1692 50.2114 40.172 50.191 40.1705Z" fill="#263238"/>
<path d="M46.0986 43.4603C46.0571 43.4604 46.017 43.4449 45.9864 43.4167C45.9558 43.3886 45.937 43.35 45.9337 43.3085L45.5542 38.6301C45.5507 38.5864 45.5648 38.543 45.5932 38.5096C45.6217 38.4762 45.6623 38.4555 45.706 38.452C45.7498 38.4485 45.7931 38.4625 45.8265 38.4909C45.8599 38.5194 45.8807 38.56 45.8842 38.6037L46.2636 43.2821C46.2656 43.3255 46.251 43.3681 46.2228 43.4011C46.1946 43.4342 46.155 43.4553 46.1118 43.4603H46.0986Z" fill="#263238"/>
<path d="M50.1203 52.2263C50.0843 52.226 50.0494 52.2139 50.021 52.1918C49.9925 52.1698 49.972 52.139 49.9627 52.1042C49.9533 52.0695 49.9556 52.0326 49.9692 51.9992C49.9828 51.9659 50.0069 51.9379 50.0378 51.9195L55.4553 48.7786C55.4925 48.7618 55.5346 48.7593 55.5735 48.7718C55.6124 48.7843 55.6453 48.8107 55.6658 48.846C55.6864 48.8813 55.6931 48.923 55.6846 48.9629C55.6762 49.0029 55.6533 49.0383 55.6202 49.0623L50.2028 52.1901C50.1797 52.2104 50.1509 52.2231 50.1203 52.2263Z" fill="#263238"/>
<path d="M56.625 38.2703L52.3161 38.1251C52.2941 38.1247 52.2725 38.1199 52.2524 38.111C52.2324 38.1021 52.2143 38.0893 52.1992 38.0733C52.1841 38.0573 52.1724 38.0385 52.1647 38.018C52.1571 37.9974 52.1535 37.9755 52.1544 37.9536C52.1585 37.9107 52.1782 37.8708 52.2099 37.8416C52.2416 37.8123 52.2829 37.7958 52.326 37.7952L56.6382 37.9404C56.6819 37.9404 56.7239 37.9577 56.7548 37.9887C56.7858 38.0196 56.8032 38.0616 56.8032 38.1053C56.8032 38.1491 56.7858 38.191 56.7548 38.222C56.7239 38.2529 56.6819 38.2703 56.6382 38.2703H56.625Z" fill="#263238"/>
<path d="M48.9629 35.7366C48.9629 37.2279 50.1935 38.4388 50.1935 38.4388C50.1935 38.4388 51.4275 37.2279 51.4275 35.7366C51.4275 34.2454 50.1935 33.0345 50.1935 33.0345C50.1935 33.0345 48.9629 34.2454 48.9629 35.7366Z" fill="#0F913D"/>
<path d="M55.3952 33.3509C54.2305 34.2813 54.0557 35.9904 54.0557 35.9904C54.0557 35.9904 55.7713 36.1982 56.9359 35.2645C58.1006 34.3308 58.2755 32.6251 58.2755 32.6251C58.2755 32.6251 56.5598 32.4172 55.3952 33.3509Z" fill="#0F913D"/>
<path d="M57.3993 36.8252C55.908 36.8252 54.707 38.0756 54.707 38.0756C54.707 38.0756 55.9245 39.2996 57.4158 39.2897C58.907 39.2798 60.1113 38.0393 60.1113 38.0393C60.1113 38.0393 58.8906 36.8153 57.3993 36.8252Z" fill="#0F913D"/>
<path d="M44.3698 38.4946C44.5216 39.976 45.8743 41.0548 45.8743 41.0548C45.8743 41.0548 46.9763 39.7351 46.8245 38.2405C46.6727 36.7459 45.32 35.6803 45.32 35.6803C45.32 35.6803 44.2181 37.0132 44.3698 38.4946Z" fill="#0F913D"/>
<path d="M52.512 46.0765C51.7532 47.3633 50.0771 47.779 50.0771 47.779C50.0771 47.779 49.6317 46.1095 50.3906 44.8096C51.1494 43.5097 52.8255 43.1105 52.8255 43.1105C52.8255 43.1105 53.2709 44.7931 52.512 46.0765Z" fill="#0F913D"/>
<path d="M47.6919 38.5376C48.4474 39.8243 50.1268 40.24 50.1268 40.24C50.1268 40.24 50.5722 38.5705 49.7969 37.2706C49.0215 35.9707 47.362 35.5715 47.362 35.5715C47.362 35.5715 46.9331 37.2541 47.6919 38.5376Z" fill="#0F913D"/>
<path d="M55.6843 46.997C54.4603 47.8482 54.1699 49.554 54.1699 49.554C54.1699 49.554 55.8658 49.8839 57.0931 49.0228C58.3204 48.1617 58.6075 46.4691 58.6075 46.4691C58.6075 46.4691 56.9083 46.1458 55.6843 46.997Z" fill="#0F913D"/>
<path d="M40.7382 39.1445C41.728 40.2564 43.4568 40.3388 43.4568 40.3388C43.4568 40.3388 43.5723 38.6166 42.5792 37.5014C41.5861 36.3863 39.8606 36.3038 39.8606 36.3038C39.8606 36.3038 39.7451 38.0293 40.7382 39.1445Z" fill="#0F913D"/>
<path d="M57.4844 56.0175C57.4844 56.0175 52.1231 53.8729 49.9785 53.8729C47.834 53.8729 42.7432 56.1495 42.7432 56.1495L57.4844 56.0175Z" fill="#263238"/>
<path d="M39.7306 34.558C39.7306 33.7002 39.7768 32.8226 39.7834 31.9515C41.5287 31.8196 43.4126 31.6711 44.2243 31.5853C45.1628 31.5048 46.0769 31.2438 46.9165 30.8166L49.226 29.6651C49.226 29.6651 52.1129 30.259 52.2844 30.2854C52.456 30.3118 52.5187 30.6153 52.1525 30.7143C51.7764 30.7708 51.3934 30.7607 51.0208 30.6846C51.0208 30.6846 52.3801 30.9453 52.3405 31.1564C52.3187 31.2731 52.2535 31.3771 52.158 31.4476C52.0624 31.518 51.9437 31.5495 51.8258 31.5358C51.3538 31.5153 50.8808 31.5274 50.4104 31.5721C50.4104 31.5721 52.2646 32.2947 51.7302 32.5454C51.1957 32.7962 50.4599 32.3178 50.4599 32.3178C50.4599 32.3178 51.3078 32.9974 50.8921 33.0337C50.4308 33.0033 49.9752 32.9146 49.5361 32.7698C49.5361 32.7698 47.6522 33.2185 46.9957 33.357C46.5634 33.4352 46.1191 33.4149 45.6957 33.2977C45.6957 33.2977 42.3964 34.3468 39.7207 34.9176C39.7306 34.7955 39.7306 34.6768 39.7306 34.558Z" fill="white"/>
<path d="M39.7236 35.0826C39.6798 35.0826 39.6379 35.0653 39.6069 35.0343C39.576 35.0034 39.5586 34.9614 39.5586 34.9177V34.558C39.5586 34.0961 39.5586 33.6309 39.585 33.1624C39.585 32.7599 39.6081 32.3541 39.6114 31.9483C39.6113 31.9071 39.627 31.8674 39.6552 31.8374C39.6834 31.8073 39.722 31.7892 39.7632 31.7866C42.0364 31.6151 43.5277 31.493 44.2007 31.4204C45.1204 31.3445 46.0167 31.0913 46.8402 30.6748L49.176 29.5167C49.21 29.5038 49.2476 29.5038 49.2816 29.5167C50.2714 29.7213 52.2015 30.1139 52.3335 30.137C52.4066 30.1494 52.4734 30.1862 52.5231 30.2412C52.5728 30.2963 52.6024 30.3665 52.6073 30.4405C52.607 30.5383 52.5746 30.6333 52.515 30.7108C52.4553 30.7883 52.3718 30.8441 52.2774 30.8694C52.571 31.008 52.5578 31.1202 52.5479 31.1994C52.5366 31.2816 52.5084 31.3606 52.4653 31.4316C52.4222 31.5025 52.365 31.5638 52.2972 31.6118C52.2265 31.664 52.1456 31.7007 52.0597 31.7195C51.9739 31.7382 51.885 31.7386 51.799 31.7206C51.5717 31.7025 51.3433 31.7025 51.116 31.7206C51.5944 31.9516 51.997 32.2122 52.0069 32.4531C52.0088 32.512 51.9919 32.5699 51.9587 32.6186C51.9255 32.6672 51.8776 32.704 51.8221 32.7236C51.6026 32.8184 51.3583 32.8393 51.1259 32.783C51.1538 32.821 51.1733 32.8645 51.1829 32.9106C51.1926 32.9567 51.1923 33.0043 51.182 33.0503C51.1639 33.103 51.1296 33.1486 51.084 33.1806C51.0383 33.2126 50.9837 33.2294 50.928 33.2284C50.4586 33.2067 49.9945 33.1201 49.5489 32.9711C49.2618 33.0404 47.6452 33.4231 47.048 33.5485C46.6098 33.6292 46.1592 33.6123 45.7283 33.499C45.3159 33.6309 42.2673 34.5778 39.7895 35.109L39.7236 35.0826ZM39.9413 32.1133C39.9413 32.4696 39.9413 32.8259 39.9182 33.1822C39.9182 33.6474 39.8918 34.1093 39.8918 34.5679V34.7032C42.4917 34.1324 45.6161 33.1426 45.6491 33.1327C45.6816 33.1245 45.7156 33.1245 45.7481 33.1327C46.1445 33.2428 46.5607 33.2619 46.9655 33.1888C47.6254 33.0536 49.4829 32.6082 49.4994 32.6049C49.5283 32.5951 49.5596 32.5951 49.5885 32.6049C49.9809 32.7324 50.3857 32.8186 50.796 32.8622C50.6653 32.7051 50.5182 32.5625 50.3572 32.4366C50.3252 32.4096 50.3045 32.3716 50.299 32.3302C50.2935 32.2887 50.3037 32.2466 50.3275 32.2123C50.3516 32.1768 50.3888 32.1524 50.4308 32.1444C50.4729 32.1364 50.5164 32.1453 50.5519 32.1694C50.7333 32.2848 51.2777 32.5488 51.6373 32.4003C51.2426 32.1069 50.8053 31.8755 50.3407 31.7141C50.3057 31.7015 50.276 31.6773 50.2568 31.6454C50.2376 31.6136 50.2299 31.576 50.2351 31.5392C50.2409 31.502 50.259 31.4678 50.2865 31.442C50.314 31.4163 50.3494 31.4006 50.3869 31.3973C50.8724 31.3475 51.3612 31.3365 51.8485 31.3643C51.9311 31.3786 52.016 31.3609 52.086 31.3148C52.1339 31.2798 52.1705 31.2317 52.1916 31.1763C51.8096 31.0213 51.4111 30.9107 51.0039 30.8463C50.9608 30.8376 50.9229 30.8123 50.8982 30.7759C50.8736 30.7395 50.8641 30.6949 50.8719 30.6517C50.8758 30.6302 50.884 30.6098 50.896 30.5916C50.908 30.5734 50.9236 30.5579 50.9418 30.5458C50.96 30.5338 50.9804 30.5256 51.0018 30.5217C51.0233 30.5178 51.0453 30.5182 51.0666 30.523C51.4115 30.5962 51.7668 30.6074 52.1157 30.556C52.2147 30.5263 52.2576 30.4834 52.2675 30.457L49.2618 29.8368L46.9853 30.9651C46.1276 31.3999 45.1926 31.6611 44.2337 31.7338C43.5738 31.8196 42.1321 31.9384 39.9446 32.1034L39.9413 32.1133Z" fill="#263238"/>
<path d="M47.7756 32.4234C47.6649 32.4235 47.5545 32.4136 47.4456 32.3937L46.3866 32.1892C46.3428 32.1809 46.3042 32.1555 46.2791 32.1187C46.2541 32.0819 46.2446 32.0366 46.253 31.9929C46.2613 31.9491 46.2866 31.9105 46.3234 31.8854C46.3602 31.8604 46.4055 31.8509 46.4493 31.8593L47.5347 32.0638C47.8003 32.1141 48.075 32.0769 48.3176 31.958C48.5603 31.839 48.7579 31.6446 48.8809 31.404C48.894 31.3763 48.9145 31.3528 48.9401 31.3359C48.9657 31.3191 48.9954 31.3095 49.026 31.3083C49.7303 31.3181 50.4339 31.2617 51.1277 31.14C51.2201 31.107 51.253 31.0707 51.253 31.0542C51.253 31.0377 51.1442 30.886 50.999 30.8365C50.7911 30.7672 49.3493 30.6286 48.4651 30.556C48.4219 30.5527 48.3818 30.5324 48.3534 30.4997C48.325 30.467 48.3106 30.4244 48.3134 30.3812C48.3183 30.338 48.3395 30.2984 48.3725 30.2702C48.4056 30.242 48.4481 30.2275 48.4915 30.2294C48.7258 30.2492 50.801 30.4208 51.1013 30.523C51.2238 30.5555 51.3343 30.6225 51.4198 30.7161C51.5052 30.8097 51.5619 30.926 51.583 31.0509C51.583 31.1532 51.5401 31.3413 51.253 31.4502C50.8439 31.5986 49.5341 31.6316 49.1415 31.6382C49.0016 31.8765 48.8021 32.0742 48.5626 32.2119C48.3231 32.3496 48.0518 32.4225 47.7756 32.4234Z" fill="#263238"/>
<path d="M30.355 48.5967L29.2299 53.0474C29.2299 53.0474 30.9356 54.2121 31.3942 54.4628C31.8528 54.7136 33.5157 55.1227 33.9314 55.2942C34.3471 55.4658 34.6407 55.8782 34.1393 56.1686C33.6378 56.4589 31.0181 56.6701 29.8502 56.6272C28.6822 56.5843 26.9369 56.3764 26.9369 56.3764C26.9369 56.3764 25.2311 56.3764 25.0662 56.0036C24.9012 55.6308 25.0233 54.3374 25.3565 53.9217C25.7809 53.3674 26.115 52.7494 26.3463 52.0906C26.4288 51.6749 26.8049 49.1773 26.8049 49.1773L30.355 48.5967Z" fill="white"/>
<path d="M30.1821 56.8087H29.8522C28.6942 56.7658 26.9455 56.5613 26.9257 56.558C26.3879 56.558 25.1276 56.5085 24.9462 56.0862C24.7647 55.6638 24.8967 54.2913 25.2596 53.836C25.6711 53.3023 25.9972 52.708 26.2263 52.0742C26.3088 51.6684 26.6783 49.1972 26.6816 49.1708C26.6871 49.1366 26.7031 49.1049 26.7273 49.0801C26.7515 49.0553 26.7828 49.0386 26.8168 49.0323L30.3537 48.4516C30.3806 48.447 30.4082 48.4492 30.4341 48.4579C30.46 48.4666 30.4833 48.4816 30.5019 48.5016C30.5206 48.5215 30.534 48.5458 30.5409 48.5722C30.5479 48.5986 30.5482 48.6263 30.5418 48.6528L29.4464 52.9947C29.8126 53.2422 31.1158 54.1264 31.5019 54.3342C32.0264 54.552 32.5655 54.7328 33.1152 54.8753C33.5144 54.9908 33.8543 55.0931 34.0225 55.1591C34.166 55.2028 34.295 55.2844 34.3961 55.3953C34.4971 55.5062 34.5664 55.6423 34.5966 55.7892C34.5983 55.903 34.5663 56.0148 34.5047 56.1105C34.443 56.2062 34.3545 56.2815 34.2502 56.327C33.7091 56.6108 31.4392 56.8087 30.1821 56.8087ZM26.962 49.3358C26.8828 49.8406 26.5925 51.7707 26.5199 52.1369C26.2804 52.8219 25.9317 53.4636 25.4872 54.0373C25.187 54.4167 25.0814 55.6408 25.22 55.9476C25.286 56.0928 26.1075 56.2247 26.9389 56.2247C26.9752 56.2247 28.7139 56.4359 29.8588 56.4755C31.1158 56.5217 33.6266 56.2907 34.0555 56.04C34.1413 55.9905 34.2436 55.908 34.237 55.8123C34.2304 55.7166 34.072 55.5418 33.8708 55.4626C33.6695 55.3834 33.366 55.2976 32.9931 55.1888C32.4199 55.0419 31.8586 54.8522 31.3138 54.6213C30.8552 54.3705 29.2055 53.2455 29.1363 53.1993C29.1075 53.1807 29.0855 53.1533 29.0736 53.1212C29.0617 53.0891 29.0605 53.0539 29.0703 53.0211L30.1293 48.8145L26.962 49.3358Z" fill="#263238"/>
<path d="M25.0676 56.0039C24.8994 55.6278 25.0247 54.3377 25.358 53.922C25.4273 53.8362 25.5064 53.7241 25.5889 53.5921C26.5556 54.0276 28.6045 54.12 28.6045 54.12C28.6869 53.8742 28.7563 53.6242 28.8123 53.371C28.8552 53.1236 29.228 53.0411 29.228 53.0411C29.228 53.0411 30.9338 54.2058 31.3924 54.4565C31.851 54.7073 33.5138 55.1164 33.9295 55.2879C34.3453 55.4595 34.6389 55.8719 34.1374 56.1623C33.6359 56.4526 31.0163 56.6637 29.8483 56.6208C28.6804 56.578 26.935 56.3701 26.935 56.3701C26.935 56.3701 25.2326 56.3767 25.0676 56.0039Z" fill="white"/>
<path d="M30.1821 56.8087H29.8522C28.6942 56.7658 26.9455 56.5613 26.9257 56.558C26.3879 56.558 25.1276 56.5085 24.9462 56.0862C24.7647 55.6639 24.8967 54.2914 25.2596 53.8361C25.3256 53.7536 25.4015 53.6447 25.4806 53.5259C25.5026 53.4939 25.535 53.4706 25.5723 53.4597C25.6096 53.4489 25.6495 53.4513 25.6852 53.4665C26.4803 53.8262 28.0607 53.9482 28.516 53.9746C28.5655 53.8163 28.6513 53.5325 28.681 53.3709C28.737 53.0211 29.1726 52.9156 29.222 52.9057C29.2439 52.9001 29.2667 52.8993 29.2889 52.9033C29.3111 52.9073 29.3322 52.916 29.3507 52.9287C29.3672 52.9287 31.0565 54.0934 31.5019 54.3343C32.0264 54.5521 32.5655 54.7329 33.1152 54.8753C33.5144 54.9908 33.8543 55.0931 34.0225 55.1591C34.166 55.2028 34.295 55.2845 34.3961 55.3953C34.4971 55.5062 34.5664 55.6423 34.5966 55.7892C34.5983 55.9031 34.5663 56.0148 34.5047 56.1105C34.443 56.2062 34.3545 56.2815 34.2502 56.327C33.7091 56.6108 31.4392 56.8087 30.1821 56.8087ZM25.2332 55.9476C25.2992 56.0928 26.1207 56.2248 26.9521 56.2248C26.9884 56.2248 28.7271 56.4359 29.872 56.4755C31.129 56.5217 33.6398 56.2907 34.0687 56.04C34.1545 55.9905 34.2568 55.908 34.2502 55.8123C34.2436 55.7167 34.0852 55.5418 33.884 55.4626C33.6827 55.3834 33.3792 55.2976 33.0063 55.1888C32.4331 55.0419 31.8718 54.8522 31.327 54.6213C30.9113 54.3969 29.5355 53.4599 29.2121 53.2422C29.1198 53.2752 29.001 53.3379 28.9878 53.4204C28.9312 53.6827 28.8596 53.9416 28.7733 54.1957C28.7635 54.2302 28.7421 54.2602 28.7126 54.2807C28.6831 54.3012 28.6474 54.3108 28.6117 54.3079C28.5292 54.3079 26.6849 54.2188 25.6621 53.8196C25.606 53.902 25.5499 53.9779 25.5004 54.0373C25.2002 54.4167 25.0946 55.6408 25.2332 55.9476Z" fill="#263238"/>
<path d="M20.1172 50.9262L17.5371 52.0084C17.5266 52.7594 17.6976 53.5019 18.0353 54.1727C18.5764 55.1295 18.9096 55.8224 19.5332 56.1688C20.1568 56.5152 20.8232 57.0002 20.4075 57.3334C19.9918 57.6667 16.0392 57.6271 15.5806 57.4588C15.122 57.2906 13.7099 55.1295 13.3767 54.5455C13.0435 53.9616 12.5024 52.1767 12.7168 51.9259C12.9313 51.6752 14.0893 50.3851 14.0893 50.3851L14.4655 50.1773L19.2099 49.5174L20.1172 50.9262Z" fill="white"/>
<path d="M17.8049 57.7523C17.0423 57.7765 16.2791 57.7301 15.5251 57.6137C14.9477 57.4059 13.3905 54.905 13.2354 54.6279C12.9451 54.1231 12.2786 52.1864 12.5755 51.8202C12.7834 51.5694 13.8952 50.3289 13.9513 50.2761C13.9641 50.2623 13.9785 50.2501 13.9942 50.2398L14.3671 50.0319C14.3867 50.029 14.4068 50.029 14.4264 50.0319L19.1708 49.3721C19.2019 49.3679 19.2334 49.3725 19.262 49.3854C19.2906 49.3982 19.315 49.4187 19.3325 49.4447L20.2464 50.8601C20.2593 50.8805 20.2677 50.9034 20.2711 50.9272C20.2745 50.9511 20.2728 50.9754 20.2662 50.9986C20.2587 51.0217 20.2463 51.0427 20.2298 51.0604C20.2132 51.0781 20.193 51.0919 20.1705 51.1009L17.6927 52.1402C17.6974 52.8281 17.8612 53.5056 18.1711 54.1198L18.3625 54.4497C18.7881 55.2184 19.0982 55.7694 19.603 56.0432C20.1078 56.3171 20.6555 56.6833 20.6918 57.0759C20.698 57.154 20.684 57.2324 20.651 57.3035C20.6181 57.3746 20.5674 57.436 20.5037 57.4817C20.2464 57.6764 18.996 57.7523 17.8049 57.7523ZM14.1757 50.5169C14.0272 50.6819 13.0143 51.8036 12.823 52.0313C12.7174 52.2524 13.1694 53.8723 13.5059 54.4662C13.9414 55.2217 15.2711 57.1749 15.6241 57.3036C16.1256 57.485 19.966 57.4686 20.2926 57.2046C20.3652 57.1485 20.3619 57.1056 20.3586 57.0858C20.3586 56.9506 20.1012 56.6635 19.4447 56.3138C18.8541 56.0004 18.5077 55.3768 18.0689 54.5916L17.8808 54.2616C17.527 53.565 17.3481 52.7927 17.3595 52.0115C17.3609 51.9801 17.3713 51.9497 17.3895 51.924C17.4076 51.8983 17.4327 51.8783 17.4618 51.8663L19.8604 50.8601L19.1081 49.6987L14.4891 50.3586L14.1757 50.5169Z" fill="#263238"/>
<path d="M12.7102 51.9258C12.918 51.6751 14.0827 50.3851 14.0827 50.3851L14.4588 50.1772H14.4852C14.4852 50.5071 14.4852 50.8602 14.4852 51.1373C14.4852 51.8467 15.3595 52.6781 15.3595 52.6781C15.8397 52.3536 16.3569 52.0877 16.9003 51.8862C17.7317 51.5959 17.5239 52.0116 17.5239 52.0116C17.5134 52.7626 17.6843 53.5051 18.022 54.176C18.5631 55.1328 18.8964 55.8256 19.5199 56.172C20.1435 56.5185 20.81 57.0035 20.3942 57.3367C19.9785 57.6699 16.026 57.6303 15.5674 57.4621C15.1088 57.2938 13.6967 55.1328 13.3634 54.5488C13.0302 53.9648 12.5023 52.1898 12.7102 51.9258Z" fill="white"/>
<path d="M17.8049 57.7526C17.0423 57.7769 16.2791 57.7305 15.5251 57.6141C14.9477 57.4062 13.3905 54.9054 13.2354 54.6282C12.9451 54.1234 12.2786 52.1867 12.5755 51.8205C12.7834 51.5698 13.8952 50.3292 13.9513 50.2764C13.9633 50.2627 13.9779 50.2514 13.9942 50.2434L14.3671 50.0323C14.3867 50.0293 14.4068 50.0293 14.4264 50.0323C14.4511 50.0277 14.4764 50.0282 14.5008 50.0339C14.5253 50.0396 14.5482 50.0503 14.5683 50.0653C14.5879 50.0798 14.6043 50.0981 14.6168 50.1191C14.6293 50.14 14.6374 50.1632 14.6409 50.1874C14.6409 50.5173 14.6409 50.8736 14.6409 51.1507C14.6409 51.6522 15.1589 52.2494 15.3733 52.4705C15.8355 52.1664 16.3315 51.9173 16.8514 51.7281C17.277 51.5797 17.5113 51.5764 17.6499 51.7281C17.6861 51.7741 17.7095 51.8288 17.7177 51.8868C17.7258 51.9448 17.7183 52.0039 17.696 52.0581C17.6923 52.7691 17.8562 53.4711 18.1744 54.1069L18.3658 54.4368C18.7914 55.2056 19.1015 55.7566 19.6063 56.0304C20.1111 56.3043 20.6588 56.6705 20.6951 57.0631C20.7013 57.1412 20.6873 57.2196 20.6543 57.2907C20.6214 57.3618 20.5707 57.4232 20.507 57.4689C20.2464 57.6768 18.996 57.7526 17.8049 57.7526ZM12.856 52.0251C12.7471 52.2659 13.1859 53.8727 13.5158 54.4665C13.9513 55.2221 15.281 57.1753 15.634 57.3039C16.1355 57.4854 19.9759 57.4689 20.3025 57.205C20.3751 57.1489 20.3718 57.106 20.3685 57.0862C20.3685 56.9509 20.1111 56.6639 19.4546 56.3141C18.864 56.0007 18.5176 55.3771 18.0788 54.5919L17.8907 54.262C17.5369 53.5654 17.358 52.7931 17.3694 52.0119C17.366 51.9933 17.366 51.9743 17.3694 51.9558C17.2255 51.9625 17.0838 51.9938 16.9504 52.0482C16.4214 52.2431 15.9183 52.5024 15.4525 52.8202C15.4213 52.8418 15.3835 52.852 15.3457 52.849C15.3078 52.8459 15.2721 52.83 15.2447 52.8037C15.2051 52.7674 14.3176 51.9129 14.3176 51.154C14.3176 50.9495 14.3176 50.7053 14.3176 50.4612L14.179 50.5371C14.0404 50.6822 13.0407 51.7908 12.8428 52.0251H12.856Z" fill="#263238"/>
<path d="M22.6131 39.7346L22.8606 40.4836C22.8606 40.4836 26.0675 38.0685 29.2711 36.9467C32.4747 35.825 34.8799 35.5709 35.8037 36.7785C36.7275 37.986 36.1336 40.4836 35.2197 41.7274C34.3058 42.9712 32.026 48.9298 32.026 48.9298L30.6535 49.0123L29.2381 50.1769C29.2381 50.1769 24.949 51.1667 24.4541 51.3845C23.9592 51.6022 21.2076 52.9648 21.2076 52.9648C20.6177 52.4604 20.0611 51.9182 19.5415 51.3416C19.1974 50.8145 18.892 50.2631 18.6276 49.6919L13.7479 50.2099C13.7479 50.2099 11.4615 48.4613 11.1679 45.7987C10.8742 43.1362 11.379 41.3051 11.6693 40.8498C11.9597 40.3945 12.5833 39.3948 12.5833 39.3948L13.0847 38.7712L22.6131 39.7346Z" fill="#263238"/>
<path d="M21.2018 53.1302C21.1619 53.1306 21.1233 53.1166 21.093 53.0906C20.4944 52.5783 19.9301 52.0272 19.4037 51.441C19.0699 50.9353 18.7754 50.4048 18.5228 49.854L13.7718 50.3819C13.7508 50.3848 13.7294 50.3834 13.709 50.3777C13.6886 50.3721 13.6695 50.3623 13.653 50.3489C13.5574 50.2763 11.3039 48.5277 11.0136 45.8256C10.7233 43.1235 11.238 41.2396 11.5382 40.7678C11.8384 40.296 12.4521 39.3128 12.4521 39.3128L12.9602 38.6628C12.9771 38.6412 12.9994 38.6243 13.0249 38.6139C13.0504 38.6035 13.0781 38.5999 13.1054 38.6034L22.6337 39.5602C22.6651 39.5637 22.6949 39.5761 22.7195 39.596C22.744 39.6159 22.7624 39.6424 22.7723 39.6724L22.9505 40.2069C23.6829 39.679 26.4642 37.7456 29.2191 36.7789C32.8484 35.512 35.0325 35.4757 35.9365 36.67C36.9263 37.9897 36.2664 40.5929 35.3558 41.8202C34.4452 43.0476 32.1984 48.9203 32.1753 48.9797C32.1639 49.0094 32.1441 49.0352 32.1183 49.054C32.0926 49.0727 32.0619 49.0836 32.0301 49.0853L30.7104 49.1645L29.3379 50.2961C29.3177 50.3123 29.2939 50.3236 29.2686 50.3291C27.7905 50.6591 24.897 51.3651 24.511 51.5268C24.0227 51.7313 21.3041 53.0906 21.2744 53.1038C21.2524 53.1178 21.2277 53.1269 21.2018 53.1302ZM18.6218 49.501C18.6531 49.5008 18.6839 49.5098 18.7102 49.5268C18.7366 49.5438 18.7574 49.5681 18.7702 49.5967C19.0304 50.1623 19.3314 50.7081 19.671 51.2298C20.1538 51.7737 20.6742 52.283 21.2282 52.7541C21.733 52.5034 23.9337 51.408 24.3824 51.2199C24.8311 51.0319 28.7044 50.118 29.1564 50.0124L30.5421 48.8708C30.5701 48.8501 30.6032 48.8376 30.6378 48.8345L31.9048 48.7587C32.2182 47.9503 34.2143 42.7968 35.0919 41.619C36.0256 40.3487 36.4941 37.9436 35.6758 36.8647C34.8576 35.7858 32.7428 35.8914 29.328 37.089C26.1871 38.191 22.9966 40.5764 22.9637 40.6028C22.943 40.6178 22.9191 40.6278 22.8938 40.6318C22.8686 40.6358 22.8428 40.6338 22.8185 40.6259C22.7927 40.6194 22.769 40.6062 22.7499 40.5877C22.7308 40.5691 22.7169 40.5459 22.7096 40.5203L22.4952 39.8605L13.1614 38.9235L12.716 39.4777C12.716 39.4777 12.1024 40.4675 11.812 40.9195C11.5217 41.3715 11.0499 43.1466 11.3369 45.7629C11.5943 48.1054 13.4716 49.7485 13.8048 50.0223L18.602 49.4878L18.6218 49.501Z" fill="#263238"/>
<path d="M13.6265 45.8913C13.5988 45.8916 13.5716 45.8847 13.5473 45.8714C13.523 45.8581 13.5026 45.8388 13.4879 45.8154C13.4665 45.7773 13.4611 45.7323 13.4729 45.6903C13.4846 45.6482 13.5126 45.6125 13.5506 45.5911C13.9215 45.3492 14.3059 45.1289 14.702 44.9312C14.7212 44.9211 14.7423 44.9149 14.7639 44.913C14.7856 44.9112 14.8074 44.9138 14.828 44.9206C14.8486 44.9273 14.8677 44.9382 14.884 44.9525C14.9004 44.9668 14.9137 44.9842 14.9231 45.0038C14.9429 45.0423 14.9468 45.0871 14.9338 45.1285C14.9208 45.1699 14.8921 45.2045 14.8538 45.2248C14.4672 45.4224 14.0926 45.6427 13.7321 45.8847C13.6988 45.8995 13.6613 45.9018 13.6265 45.8913Z" fill="white"/>
<path d="M31.0622 48.4716C31.0307 48.4719 30.9998 48.4633 30.973 48.4466C30.9463 48.4299 30.9249 48.4059 30.9113 48.3775C30.8978 48.349 30.8927 48.3173 30.8966 48.286C30.9006 48.2547 30.9134 48.2252 30.9336 48.201C30.9336 48.201 32.0223 46.8153 31.4977 45.8024C30.9732 44.7896 24.1403 43.3972 20.0492 43.7668C18.4657 43.8865 16.914 44.2736 15.4599 44.9116C15.42 44.9295 15.3748 44.9308 15.3339 44.9154C15.2931 44.8999 15.2601 44.8689 15.2421 44.8291C15.2328 44.8095 15.2276 44.7882 15.2267 44.7665C15.2258 44.7447 15.2294 44.7231 15.2371 44.7027C15.2448 44.6824 15.2565 44.6638 15.2715 44.6481C15.2865 44.6324 15.3046 44.6199 15.3246 44.6114C16.8134 43.9514 18.4051 43.5541 20.0294 43.4368C24.0974 43.0706 31.1381 44.3903 31.7914 45.6507C32.4149 46.8549 31.2404 48.3462 31.1909 48.4089C31.1754 48.4281 31.1558 48.4437 31.1336 48.4546C31.1113 48.4654 31.087 48.4712 31.0622 48.4716Z" fill="white"/>
<path d="M13.9184 43.727C13.8785 43.7267 13.8401 43.7123 13.8099 43.6863C13.7797 43.6603 13.7597 43.6245 13.7534 43.5851C13.7477 43.5419 13.7589 43.4982 13.7848 43.4631C13.8106 43.4281 13.849 43.4044 13.892 43.3971C15.7095 43.1466 17.546 43.0626 19.3787 43.1463C19.4004 43.1476 19.4216 43.1532 19.4411 43.1627C19.4606 43.1722 19.4781 43.1854 19.4925 43.2016C19.5069 43.2179 19.5179 43.2368 19.525 43.2573C19.5321 43.2778 19.5351 43.2995 19.5338 43.3212C19.5325 43.3428 19.5269 43.364 19.5174 43.3836C19.508 43.4031 19.4947 43.4205 19.4785 43.4349C19.4622 43.4493 19.4433 43.4604 19.4228 43.4675C19.4023 43.4746 19.3806 43.4775 19.3589 43.4762C17.5494 43.3943 15.7361 43.4771 13.9415 43.7237L13.9184 43.727Z" fill="white"/>
<path d="M20.7831 42.853C20.757 42.8522 20.7313 42.8466 20.7072 42.8365C20.669 42.8161 20.6401 42.7817 20.6266 42.7405C20.613 42.6994 20.6159 42.6545 20.6346 42.6154C21.0207 41.8434 22.3668 40.7348 22.4262 40.6887C22.4427 40.6747 22.4619 40.6642 22.4825 40.6578C22.5032 40.6514 22.525 40.6492 22.5465 40.6513C22.5681 40.6535 22.5889 40.6599 22.6079 40.6703C22.6269 40.6807 22.6437 40.6948 22.6571 40.7117C22.6711 40.7283 22.6816 40.7475 22.688 40.7681C22.6944 40.7888 22.6966 40.8106 22.6944 40.8321C22.6923 40.8536 22.6858 40.8745 22.6754 40.8935C22.6651 40.9125 22.651 40.9292 22.634 40.9427C22.634 40.9427 21.2846 42.0546 20.9316 42.7606C20.918 42.7884 20.8968 42.8118 20.8706 42.8281C20.8443 42.8444 20.814 42.8531 20.7831 42.853Z" fill="#263238"/>
<path d="M28.2306 44.3507C28.1997 44.3514 28.1693 44.3432 28.1429 44.3271C28.1165 44.311 28.0953 44.2877 28.0818 44.26C28.0682 44.2322 28.0629 44.2011 28.0665 44.1704C28.0701 44.1397 28.0824 44.1107 28.1019 44.0868C29.1841 42.6681 33.4864 39.603 33.6711 39.4678C33.6886 39.4552 33.7084 39.4462 33.7294 39.4414C33.7504 39.4366 33.7721 39.436 33.7933 39.4397C33.8145 39.4434 33.8347 39.4513 33.8529 39.4629C33.871 39.4745 33.8866 39.4896 33.8988 39.5074C33.9115 39.5246 33.9207 39.5443 33.9258 39.5651C33.9309 39.586 33.9317 39.6076 33.9283 39.6288C33.925 39.65 33.9174 39.6703 33.9061 39.6885C33.8948 39.7068 33.88 39.7226 33.8625 39.735C33.8163 39.768 29.4183 42.9023 28.3626 44.2781C28.3477 44.2997 28.3281 44.3174 28.3052 44.33C28.2823 44.3426 28.2567 44.3497 28.2306 44.3507Z" fill="white"/>
<path d="M18.6198 49.8438C18.5885 49.8439 18.5577 49.835 18.5314 49.818C18.505 49.801 18.4842 49.7767 18.4714 49.7481C18.4619 49.7284 18.4564 49.707 18.4553 49.6852C18.4542 49.6634 18.4574 49.6416 18.4647 49.621C18.4721 49.6004 18.4835 49.5815 18.4982 49.5654C18.5129 49.5493 18.5307 49.5362 18.5505 49.527C18.6759 49.4709 21.5826 48.1446 23.2058 47.8114C23.7865 47.6926 24.1956 47.6398 24.5256 47.6002C25.1115 47.5569 25.6821 47.3929 26.2016 47.1185C26.2401 47.1025 26.2831 47.1017 26.3222 47.1161C26.3613 47.1305 26.3934 47.1592 26.4122 47.1964C26.431 47.2336 26.4351 47.2765 26.4235 47.3165C26.412 47.3565 26.3858 47.3907 26.3501 47.4122C25.797 47.705 25.1893 47.8803 24.5652 47.9269C24.2352 47.9665 23.8393 48.0159 23.2718 48.1347C21.6849 48.4647 18.7188 49.8141 18.6891 49.8273C18.6674 49.8374 18.6438 49.843 18.6198 49.8438Z" fill="white"/>
<path d="M27.5503 48.2009C26.924 48.2227 26.2993 48.1253 25.7093 47.9139C25.6894 47.9054 25.6713 47.8928 25.6563 47.8772C25.6412 47.8615 25.6295 47.8429 25.6218 47.8226C25.6141 47.8022 25.6106 47.7806 25.6115 47.7588C25.6123 47.7371 25.6176 47.7158 25.6269 47.6962C25.6449 47.6564 25.6779 47.6254 25.7187 47.6099C25.7595 47.5945 25.8048 47.5958 25.8446 47.6137C26.6266 47.9667 28.1211 47.8512 28.1343 47.8512C28.1559 47.8485 28.1778 47.8502 28.1987 47.8563C28.2196 47.8624 28.239 47.8727 28.2557 47.8867C28.2725 47.9006 28.2861 47.9178 28.2959 47.9373C28.3057 47.9567 28.3113 47.978 28.3125 47.9997C28.3143 48.0214 28.3118 48.0432 28.3051 48.0639C28.2985 48.0846 28.2878 48.1038 28.2737 48.1204C28.2596 48.1369 28.2423 48.1505 28.2229 48.1604C28.2036 48.1703 28.1824 48.1762 28.1607 48.1779C28.1376 48.1812 27.8902 48.2009 27.5503 48.2009Z" fill="white"/>
<path d="M26.3243 11.5061C26.3243 11.5061 26.0207 10.6714 24.7373 10.3711C23.9818 10.193 22.7808 10.0709 22.1737 10.7011C21.3918 11.4962 21.2169 12.6608 20.2271 13.291C19.1648 13.9674 18.0463 14.2181 17.3667 15.4091C16.819 16.3659 18.2278 17.9496 18.076 18.4808C17.9242 19.012 16.7926 18.6293 16.6408 20.2195C16.489 21.8098 17.5481 22.7171 17.5481 22.9447C17.5481 23.1724 16.5583 23.0206 16.489 24.2315C16.4198 25.4423 17.6999 26.2737 17.6999 26.2737C17.6999 26.2737 21.7085 22.8689 22.6917 21.7339C23.6749 20.5989 23.4506 19.0087 23.2229 18.1773C22.9953 17.3458 24.0543 14.4689 25.1134 13.5582C25.7395 13.0325 26.1668 12.3083 26.3243 11.5061Z" fill="#263238"/>
<path d="M17.7037 26.4255C17.6721 26.4254 17.6412 26.4162 17.6147 26.3991C17.5586 26.3628 16.2455 25.4984 16.3279 24.205C16.3194 23.9168 16.4081 23.634 16.5799 23.4024C16.7517 23.1707 16.9965 23.0037 17.2748 22.9282L17.3639 22.8919L17.2386 22.7072C16.6799 21.9924 16.4091 21.0943 16.4797 20.1898C16.5853 19.068 17.1792 18.8239 17.5718 18.6655C17.7763 18.5797 17.9017 18.5269 17.9215 18.4214C17.9413 18.3158 17.7763 17.8869 17.6081 17.5405C17.2781 16.8443 16.8492 15.9733 17.2254 15.3134C17.74 14.4127 18.4758 14.0333 19.2577 13.6308C19.5481 13.479 19.8483 13.324 20.1419 13.1392C20.6283 12.7776 21.0134 12.297 21.2604 11.7436C21.4727 11.3191 21.7412 10.9251 22.0588 10.5723C22.7814 9.83659 24.2001 10.0741 24.7774 10.2094C26.1335 10.5393 26.47 11.4104 26.4832 11.4499C26.4898 11.4748 26.4898 11.501 26.4832 11.5258C26.3212 12.3665 25.8736 13.1253 25.2163 13.6737C24.1539 14.5843 23.1773 17.3887 23.3752 18.1211C23.5732 18.8536 23.8932 20.5791 22.8111 21.8262C21.8213 22.9612 17.9644 26.2473 17.7994 26.3859C17.7727 26.4092 17.7391 26.4231 17.7037 26.4255ZM23.5798 10.3909C23.1143 10.3531 22.6528 10.5014 22.2964 10.8033C21.9972 11.1344 21.7451 11.5052 21.5474 11.9053C21.2782 12.508 20.8548 13.0292 20.3201 13.4163C20.0133 13.611 19.7064 13.7694 19.4095 13.9244C18.6737 14.3038 17.9776 14.6635 17.5124 15.4784C17.2221 15.9865 17.6015 16.7684 17.905 17.3986C18.136 17.8704 18.3174 18.2465 18.2349 18.5105C18.1525 18.7744 17.9215 18.8734 17.6939 18.9691C17.3177 19.1241 16.8921 19.299 16.803 20.2228C16.7426 21.0537 16.9944 21.8772 17.5091 22.5323C17.6411 22.7269 17.7136 22.8325 17.7136 22.9447C17.7136 23.1262 17.5388 23.1922 17.3837 23.2482C17.1662 23.303 16.9746 23.4317 16.8415 23.6123C16.7085 23.7929 16.6424 24.0141 16.6546 24.238C16.5952 25.1453 17.4035 25.8448 17.6906 26.0592C18.3108 25.5314 21.6893 22.6346 22.5702 21.6217C23.56 20.4933 23.2301 18.8635 23.0651 18.2168C22.8144 17.3029 23.8965 14.383 25.0084 13.4328C25.5859 12.9416 25.9878 12.2757 26.1533 11.5357C26.0807 11.3774 25.7375 10.7835 24.6983 10.5459C24.3323 10.4531 23.9572 10.4011 23.5798 10.3909Z" fill="#263238"/>
<path d="M10.6078 40.8997C10.9213 40.0386 13.6696 35.093 13.6696 35.093C14.3624 33.7435 14.534 31.9553 15.019 30.5069C15.8603 27.9995 16.629 25.393 18.5393 23.519C19.3114 22.7635 20.7301 22.229 21.4889 21.4669C21.9475 21.0083 21.7397 21.0511 22.1983 20.8829C22.6569 20.7146 25.194 20.7179 26.8569 21.8001C27.6973 22.2572 28.4975 22.7848 29.2489 23.3772C30.4894 24.3669 31.1625 25.8912 31.9543 27.2373C32.3938 27.9645 32.8695 28.6693 33.3796 29.3489C33.594 29.6392 34.6993 31.5099 35.0028 31.5132L40.9416 31.5858L40.7964 34.9148L33.6567 35.6143L29.3149 31.0744C29.2324 31.4736 27.8665 31.7343 27.5497 32.2886L25.679 37.5114L26.3092 38.1415C26.3092 38.1415 24.5012 40.418 24.2669 40.8106C24.0327 41.2033 23.4025 42.0644 23.4025 42.0644L22.4589 41.3715L22.0663 43.1004L16.4905 42.3151L10.9971 44.199L9.50586 45.2185C9.50586 45.2185 10.2944 41.7641 10.6078 40.8997Z" fill="#0F913D"/>
<path d="M9.5095 45.3834C9.47633 45.3837 9.44395 45.3733 9.41712 45.3537C9.38941 45.3357 9.3679 45.3095 9.35551 45.2789C9.34312 45.2482 9.34044 45.2144 9.34784 45.1822C9.38083 45.0403 10.1397 41.708 10.4531 40.8436C10.6939 40.1837 13.2047 35.5185 13.5248 35.017C13.9243 34.1337 14.2156 33.2054 14.3925 32.2522C14.5343 31.6485 14.6795 31.0216 14.8676 30.4541L15.0457 29.9262C15.8211 27.587 16.6228 25.1719 18.4275 23.4035C18.8846 23.0005 19.386 22.6507 19.9221 22.3609C20.4447 22.0821 20.933 21.7433 21.3771 21.3513C21.4762 21.252 21.5698 21.1474 21.6575 21.0379C21.7829 20.8795 21.8258 20.8466 22.1458 20.7278C22.6671 20.5397 25.2735 20.5727 26.9496 21.6615C27.7958 22.1198 28.6005 22.6508 29.3548 23.2484C30.3776 24.0733 31.0044 25.228 31.6412 26.3432C31.793 26.617 31.9447 26.8876 32.0998 27.1548C32.5371 27.8777 33.0106 28.578 33.5185 29.2532C33.568 29.3225 33.667 29.4775 33.7956 29.6755C34.0761 30.111 34.8184 31.269 35.0296 31.3515L40.9485 31.4208C40.9923 31.423 41.0337 31.4419 41.064 31.4736C41.0801 31.4894 41.0926 31.5084 41.1006 31.5295C41.1085 31.5506 41.1118 31.5732 41.1102 31.5957L40.965 34.9214C40.9635 34.9609 40.9476 34.9985 40.9202 35.0271C40.8929 35.0557 40.856 35.0732 40.8166 35.0764L33.6769 35.7792C33.6521 35.7815 33.6271 35.7782 33.6037 35.7696C33.5803 35.7611 33.5591 35.7474 33.5416 35.7297L29.3449 31.3548C29.1277 31.5292 28.8851 31.6693 28.6256 31.7705C28.2561 31.9454 27.8338 32.1466 27.6985 32.3842L25.874 37.4816L26.4184 38.0359C26.4445 38.0668 26.4588 38.106 26.4588 38.1464C26.4588 38.1869 26.4445 38.226 26.4184 38.2569C26.3986 38.28 24.617 40.5302 24.3893 40.8964C24.1617 41.2626 23.5414 42.1303 23.5183 42.1666C23.5054 42.1843 23.4892 42.1992 23.4705 42.2105C23.4518 42.2219 23.4311 42.2294 23.4094 42.2326C23.3874 42.2357 23.365 42.2343 23.3435 42.2287C23.3219 42.223 23.3018 42.2131 23.2841 42.1996L22.545 41.6453L22.2151 43.1267C22.2064 43.1667 22.1828 43.2019 22.1491 43.2252C22.1154 43.2484 22.0741 43.258 22.0336 43.2521L16.5205 42.4833L11.0866 44.3475L9.61178 45.3372C9.58465 45.3649 9.54817 45.3813 9.5095 45.3834ZM22.9937 20.9686C22.7454 20.9587 22.4969 20.982 22.2547 21.0379C22.0006 21.1303 21.9973 21.1369 21.9248 21.2425C21.8303 21.3584 21.7289 21.4686 21.6212 21.5724C21.158 21.9854 20.6474 22.342 20.1003 22.6348C19.5878 22.9106 19.1075 23.2426 18.6684 23.6246C16.9197 25.3369 16.1312 27.7157 15.3691 30.0153L15.1942 30.5465C15.0094 31.0975 14.8643 31.688 14.729 32.3116C14.5449 33.2921 14.2436 34.247 13.8316 35.1556C13.8019 35.2084 11.0866 40.1046 10.7797 40.9459C10.5356 41.6057 9.9978 43.8889 9.78995 44.8325L10.9348 44.0472L10.9744 44.0274L16.4677 42.1435C16.4928 42.1388 16.5185 42.1388 16.5436 42.1435L21.9677 42.909L22.3273 41.3286C22.3334 41.302 22.3459 41.2773 22.3637 41.2566C22.3816 41.2359 22.4042 41.2198 22.4296 41.2098C22.4558 41.2005 22.484 41.1977 22.5116 41.2018C22.5392 41.2058 22.5654 41.2165 22.5879 41.2329L23.3929 41.84C23.581 41.5826 23.9769 41.0218 24.1518 40.7314C24.3629 40.3817 25.7387 38.6331 26.1149 38.1613L25.5903 37.6367C25.5682 37.614 25.5528 37.5857 25.5458 37.5548C25.5388 37.524 25.5405 37.4918 25.5507 37.4618L27.4082 32.2456C27.6095 31.8926 28.0681 31.6682 28.497 31.4736C28.7543 31.3515 29.1568 31.1668 29.1568 31.0546C29.1628 31.0252 29.1768 30.9979 29.1971 30.9758C29.2175 30.9537 29.2435 30.9376 29.2723 30.9292C29.3011 30.9214 29.3316 30.9212 29.3605 30.9287C29.3894 30.9362 29.4159 30.9512 29.4373 30.9721L33.7264 35.4426L40.6549 34.763L40.7868 31.7507L34.9966 31.6781C34.7491 31.6781 34.4159 31.2657 33.5086 29.8536C33.3865 29.6623 33.2908 29.5237 33.2414 29.4478C32.7276 28.7629 32.2486 28.0527 31.8062 27.3198C31.6478 27.0525 31.496 26.7787 31.3443 26.5048C30.7372 25.4161 30.1103 24.291 29.137 23.5058C28.3955 22.9177 27.6039 22.3955 26.7714 21.9452C25.6068 21.1765 23.9604 20.9686 22.9937 20.9686Z" fill="#263238"/>
<path d="M41.4642 31.5856L41.4477 35.2478L39.8343 35.4359L39.7354 31.3646L41.4642 31.5856Z" fill="white"/>
<path d="M39.8376 35.6006C39.7987 35.6011 39.761 35.587 39.7321 35.561C39.7145 35.5464 39.7001 35.5283 39.6899 35.5078C39.6797 35.4874 39.6738 35.465 39.6727 35.4422L39.5737 31.3676C39.5719 31.344 39.5757 31.3203 39.5849 31.2985C39.5941 31.2767 39.6083 31.2574 39.6265 31.2422C39.644 31.2259 39.6649 31.2136 39.6877 31.2062C39.7105 31.1988 39.7347 31.1964 39.7584 31.1993L41.4873 31.4237C41.5275 31.4285 41.5645 31.448 41.5913 31.4784C41.6181 31.5089 41.6327 31.5481 41.6324 31.5886L41.616 35.2475C41.6155 35.2879 41.6007 35.3267 41.574 35.357C41.5474 35.3873 41.5107 35.407 41.4708 35.4125L39.8574 35.6006H39.8376ZM39.9069 31.5523L39.9993 35.2508L41.286 35.0991L41.3025 31.7305L39.9069 31.5523Z" fill="#263238"/>
<path d="M19.2892 34.294C19.2456 34.2934 19.2041 34.2756 19.1737 34.2445C19.1579 34.2297 19.1453 34.2118 19.1367 34.1919C19.1281 34.1721 19.1237 34.1507 19.1237 34.129C19.1237 34.1074 19.1281 34.086 19.1367 34.0661C19.1453 34.0463 19.1579 34.0284 19.1737 34.0136L20.9487 32.2385C19.7541 32.7221 18.5297 33.1288 17.2832 33.456C17.2622 33.4613 17.2403 33.4624 17.2188 33.4592C17.1973 33.4559 17.1768 33.4483 17.1583 33.4369C17.1398 33.4256 17.1238 33.4106 17.1113 33.3929C17.0987 33.3751 17.0899 33.3551 17.0852 33.3339C17.0804 33.3127 17.0797 33.2907 17.0834 33.2692C17.0871 33.2477 17.095 33.2272 17.1067 33.2088C17.1183 33.1904 17.1335 33.1745 17.1513 33.162C17.1692 33.1495 17.1893 33.1406 17.2106 33.1359C18.6948 32.7269 20.1516 32.2244 21.5723 31.6315C21.6073 31.617 21.6463 31.615 21.6826 31.6259C21.7189 31.6368 21.7504 31.6599 21.7717 31.6913C21.793 31.7226 21.8029 31.7604 21.7996 31.7982C21.7963 31.836 21.7801 31.8715 21.7537 31.8987L19.4079 34.2445C19.3765 34.2761 19.3337 34.2939 19.2892 34.294Z" fill="#263238"/>
<path d="M22.3899 39.2894C21.9631 39.2323 21.5432 39.1328 21.1361 38.9925C21.0946 38.9789 21.0601 38.9494 21.0403 38.9104C21.0206 38.8714 21.017 38.8262 21.0306 38.7846C21.0456 38.7433 21.0758 38.7094 21.1151 38.6897C21.1544 38.6701 21.1997 38.6663 21.2417 38.679C21.6174 38.8145 22.0052 38.914 22.3998 38.976C22.5944 38.9463 23.8548 38.161 24.9534 37.4154C24.971 37.4001 24.9916 37.3886 25.0139 37.3818C25.0362 37.3751 25.0597 37.3731 25.0828 37.376C25.1059 37.379 25.1282 37.3868 25.1481 37.399C25.1679 37.4111 25.185 37.4274 25.1982 37.4466C25.2113 37.4659 25.2202 37.4877 25.2243 37.5106C25.2284 37.5336 25.2276 37.5571 25.2219 37.5798C25.2163 37.6024 25.2059 37.6235 25.1914 37.6418C25.177 37.6601 25.1589 37.6752 25.1382 37.6859C24.4123 38.1577 22.7066 39.2894 22.3899 39.2894Z" fill="#263238"/>
<path d="M22.614 39.9C22.5801 39.9 22.547 39.8895 22.5192 39.87C22.4915 39.8506 22.4704 39.823 22.4589 39.7911L22.2378 39.1808C22.228 39.1507 22.228 39.1184 22.2378 39.0884C22.3914 38.3351 22.5964 37.5932 22.8515 36.8679C23.1517 36.1124 25.0455 32.4667 25.128 32.3116C25.1484 32.2733 25.183 32.2446 25.2243 32.2316C25.2657 32.2187 25.3105 32.2225 25.3491 32.2423C25.3684 32.2521 25.3855 32.2656 25.3994 32.2821C25.4134 32.2985 25.4239 32.3176 25.4304 32.3382C25.4368 32.3588 25.4391 32.3805 25.437 32.402C25.435 32.4235 25.4286 32.4444 25.4184 32.4634C25.3986 32.503 23.4388 36.251 23.155 36.99C22.9153 37.684 22.7202 38.3926 22.5711 39.1115L22.7756 39.6789C22.7896 39.7201 22.7871 39.7651 22.7686 39.8044C22.7502 39.8438 22.7172 39.8745 22.6766 39.8901L22.614 39.9Z" fill="#263238"/>
<path d="M28.1132 23.7893L27.7206 25.1222L26.9287 24.2314L28.1132 23.7893Z" fill="white"/>
<path d="M27.7366 25.2869C27.713 25.2867 27.6896 25.2816 27.668 25.2719C27.6465 25.2623 27.6271 25.2483 27.6112 25.2308L26.8227 24.34C26.8049 24.3199 26.7923 24.2959 26.786 24.2698C26.7796 24.2438 26.7797 24.2166 26.7862 24.1906C26.7927 24.1647 26.8054 24.1406 26.8233 24.1207C26.8411 24.1007 26.8636 24.0854 26.8887 24.0761L28.0698 23.6339C28.0986 23.6228 28.13 23.62 28.1603 23.6259C28.1907 23.6317 28.2187 23.6459 28.2414 23.6669C28.2637 23.6881 28.2799 23.7149 28.288 23.7446C28.2961 23.7743 28.296 23.8056 28.2876 23.8352L27.895 25.1549C27.8868 25.1833 27.8712 25.2091 27.8497 25.2294C27.8283 25.2497 27.8017 25.2639 27.7729 25.2704L27.7366 25.2869ZM27.2285 24.2971L27.6607 24.7854L27.8785 24.053L27.2285 24.2971Z" fill="#263238"/>
<path d="M26.544 22.295L28.1145 23.7895L25.8181 24.7529L25.4453 23.3969L26.544 22.295Z" fill="white"/>
<path d="M25.8169 24.918C25.7931 24.9244 25.7681 24.9244 25.7443 24.918C25.723 24.9088 25.7042 24.8948 25.6893 24.877C25.6744 24.8593 25.6639 24.8383 25.6585 24.8157L25.2857 23.4564C25.2777 23.4283 25.2772 23.3987 25.2841 23.3703C25.2911 23.342 25.3053 23.3159 25.3253 23.2947L26.4174 22.1664C26.4481 22.1371 26.4888 22.1208 26.5312 22.1208C26.5736 22.1208 26.6143 22.1371 26.645 22.1664L28.2155 23.6576C28.2352 23.6765 28.2499 23.6999 28.2586 23.7258C28.2672 23.7516 28.2694 23.7792 28.265 23.8061C28.2602 23.8336 28.2486 23.8594 28.2313 23.8813C28.214 23.9032 28.1916 23.9204 28.166 23.9315L25.8565 24.8949C25.8446 24.9047 25.8313 24.9125 25.8169 24.918ZM25.6288 23.4432L25.9258 24.5287L27.8163 23.7335L26.5461 22.526L25.6288 23.4432Z" fill="#263238"/>
<path d="M31.6975 14.1849C31.8451 14.7266 31.9554 15.2778 32.0275 15.8346C32.1924 16.9596 31.5689 17.3325 31.4435 18.0418C31.3181 18.7512 32.1528 19.7476 32.1033 20.0214C32.0539 20.2952 31.3148 20.315 31.3148 20.315C31.3148 20.315 29.8433 22.8951 29.4276 22.938C29.0119 22.9809 27.6097 21.77 27.6097 21.77L26.0293 23.5187C26.0293 23.5187 26.1943 24.8912 25.8215 24.7229C25.0925 24.3042 24.4552 23.7432 23.9475 23.0732C23.4455 22.4758 22.8572 21.9565 22.2021 21.5325C22.2021 21.5325 23.2414 20.2128 23.4493 19.411C23.6571 18.6093 22.7894 19.2461 22.6179 17.3292C22.4463 15.4123 23.1985 13.5449 24.5315 12.5023C25.8644 11.4597 28.4411 11.0044 30.2722 12.0041C32.1033 13.0038 31.8097 13.8517 31.6975 14.1849Z" fill="white"/>
<path d="M25.877 24.9309C25.8338 24.9321 25.7908 24.923 25.7517 24.9045C25.3525 24.7297 24.6365 24.1853 23.8183 23.1955C23.3258 22.6138 22.7512 22.107 22.1125 21.691C22.0923 21.6794 22.0749 21.6636 22.0613 21.6447C22.0478 21.6257 22.0385 21.6041 22.0341 21.5812C22.0298 21.5583 22.0304 21.5348 22.0359 21.5122C22.0415 21.4896 22.0519 21.4684 22.0663 21.4502C22.0663 21.4502 23.0891 20.1305 23.2871 19.3848C23.3465 19.1572 23.3135 19.1341 23.165 19.0153C22.9209 18.8272 22.5513 18.5402 22.4491 17.3656C22.2808 15.4158 23.0561 13.4659 24.4286 12.3936C25.8012 11.3213 28.4373 10.833 30.3674 11.8789C32.083 12.8159 32.0698 13.6407 31.8785 14.1884C32.0193 14.7261 32.1294 15.2714 32.2084 15.8216C32.2966 16.3826 32.1795 16.9566 31.8785 17.4382C31.7604 17.638 31.6747 17.8551 31.6244 18.0816C31.5551 18.461 31.8323 18.9889 32.0368 19.3782C32.1806 19.583 32.2682 19.8219 32.2909 20.0711C32.2381 20.4241 31.7036 20.4934 31.4331 20.5033C30.859 21.4931 29.889 23.0833 29.4535 23.1262C29.018 23.1691 28.0711 22.3938 27.6356 22.0243L26.2103 23.598C26.2565 24.0302 26.2862 24.7 26.0486 24.8781C25.999 24.9145 25.9385 24.9331 25.877 24.9309ZM22.4359 21.5063C23.0513 21.9192 23.6065 22.4155 24.0855 22.9811C24.5713 23.6234 25.1748 24.1675 25.8638 24.5845C25.9226 24.2472 25.9226 23.9023 25.8638 23.565C25.8607 23.5412 25.863 23.517 25.8704 23.4942C25.8778 23.4714 25.8902 23.4505 25.9067 23.4331L27.4871 21.6844C27.5179 21.6542 27.5594 21.6373 27.6026 21.6373C27.6457 21.6373 27.6872 21.6542 27.718 21.6844C28.3779 22.2453 29.1895 22.826 29.4106 22.8128C29.6415 22.7435 30.5059 21.4403 31.1691 20.2723C31.1838 20.2469 31.205 20.2259 31.2305 20.2114C31.256 20.1969 31.2849 20.1894 31.3143 20.1898C31.6442 20.1898 31.9312 20.0975 31.9411 20.0381C31.889 19.8643 31.8147 19.698 31.7201 19.5432C31.4825 19.0912 31.1889 18.527 31.2747 18.0354C31.3316 17.7768 31.4285 17.5285 31.5617 17.2997C31.8306 16.8801 31.9363 16.3765 31.8587 15.8843C31.7862 15.3275 31.6759 14.7764 31.5287 14.2346C31.5171 14.1992 31.5171 14.1611 31.5287 14.1257C31.6343 13.8486 31.9115 13.1063 30.1892 12.166C28.3944 11.1762 25.9001 11.6546 24.6299 12.6509C23.3597 13.6473 22.6173 15.4916 22.779 17.3327C22.8681 18.3686 23.1551 18.593 23.3663 18.7547C23.4872 18.8236 23.5784 18.9349 23.6223 19.0671C23.6661 19.1993 23.6596 19.343 23.6038 19.4706C23.429 20.1371 22.713 21.1367 22.4359 21.5063Z" fill="#263238"/>
<path d="M22.776 20.1765L26.778 24.5744L25.6497 26.5243L21.4893 21.4665L22.776 20.1765Z" fill="white"/>
<path d="M25.6469 26.6896C25.6225 26.6893 25.5984 26.6838 25.5762 26.6736C25.5541 26.6633 25.5343 26.6486 25.5182 26.6302L21.3611 21.5724C21.333 21.5425 21.3174 21.5029 21.3174 21.4619C21.3174 21.4208 21.333 21.3813 21.3611 21.3514L22.6445 20.0613C22.6605 20.0453 22.6795 20.0327 22.7005 20.0242C22.7215 20.0157 22.7439 20.0115 22.7666 20.0118C22.789 20.0117 22.8111 20.0164 22.8316 20.0255C22.8521 20.0346 22.8704 20.0479 22.8853 20.0646L26.8973 24.4758C26.921 24.5018 26.936 24.5345 26.9401 24.5694C26.9442 24.6043 26.9374 24.6397 26.9204 24.6705L25.7887 26.6203C25.7755 26.6435 25.7569 26.663 25.7345 26.6774C25.7121 26.6917 25.6866 26.7005 25.66 26.7028L25.6469 26.6896ZM21.7108 21.4767L25.6205 26.2376L26.574 24.588L22.7666 20.4177L21.7108 21.4767Z" fill="#263238"/>
<path d="M31.3024 12.453C31.3024 12.453 32.9521 12.7433 33.0874 13.2745C33.2226 13.8057 32.5562 14.1884 32.51 14.7691C32.4638 15.3497 33.1863 15.7358 33.0412 16.2175C32.8825 16.6507 32.6883 17.07 32.4605 17.4712C32.3612 16.9181 32.2133 16.3749 32.0184 15.8479C31.8336 15.5411 31.7313 14.614 31.6885 14.1983C31.6456 13.7826 30.7745 13.1425 30.7745 13.1425C30.7745 13.1425 30.4347 11.9713 31.3024 12.453Z" fill="#263238"/>
<path d="M32.4612 17.636H32.4348C32.4016 17.6301 32.371 17.6143 32.3469 17.5908C32.3227 17.5673 32.3063 17.537 32.2995 17.504C32.2096 16.9681 32.0682 16.4422 31.8772 15.9335C31.6924 15.6234 31.5902 14.8448 31.5209 14.2014C31.4978 13.9573 31.0128 13.5053 30.6762 13.2611C30.6463 13.2404 30.6242 13.2102 30.6136 13.1753C30.5806 13.0599 30.4288 12.4759 30.7092 12.2515C30.861 12.1295 31.0788 12.1459 31.3691 12.2944C31.699 12.3571 33.0979 12.6441 33.2596 13.2281C33.285 13.3953 33.2724 13.5661 33.2227 13.7278C33.173 13.8894 33.0875 14.0378 32.9726 14.1618C32.8261 14.3411 32.7274 14.5544 32.6855 14.7821C32.6978 15.0203 32.7909 15.2472 32.9495 15.4255C33.0538 15.536 33.1313 15.6691 33.176 15.8144C33.2206 15.9598 33.2312 16.1134 33.2068 16.2635C33.0454 16.7088 32.8478 17.1403 32.6162 17.5535C32.6008 17.5805 32.578 17.6025 32.5506 17.6171C32.5232 17.6317 32.4922 17.6382 32.4612 17.636ZM30.9171 13.017C31.1184 13.1687 31.8046 13.7131 31.8508 14.1552C31.8699 14.7005 31.9745 15.2393 32.1609 15.7521C32.3275 16.1468 32.4514 16.5583 32.5305 16.9794C32.6685 16.7137 32.7865 16.4379 32.8835 16.1546C32.933 15.9863 32.8109 15.8049 32.669 15.597C32.4606 15.3607 32.3435 15.0576 32.3391 14.7425C32.3807 14.459 32.4943 14.191 32.669 13.9639C32.8307 13.7263 32.9693 13.5218 32.9099 13.304C32.8307 13.0104 31.8739 12.7101 31.2602 12.6013L31.2107 12.5848C31.0161 12.4759 30.9237 12.4792 30.9006 12.4957C30.8775 12.5122 30.861 12.7992 30.9171 13.0302V13.017Z" fill="#263238"/>
<path d="M24.5258 12.5192C25.8455 11.4799 28.4355 11.0213 30.2666 12.021C32.0977 13.0207 31.8074 13.8521 31.682 14.1853C31.682 14.1853 31.6589 14.6374 30.3953 15.2708C29.1317 15.9043 28.772 15.6304 28.4553 16.4883C28.1386 17.3461 26.5582 17.9795 26.1986 17.7519C26.12 17.7021 26.0311 17.671 25.9387 17.661C25.8462 17.651 25.7527 17.6624 25.6653 17.6943C25.578 17.7262 25.4991 17.7777 25.4348 17.8449C25.3706 17.9121 25.3226 17.9931 25.2946 18.0818C25.2391 18.2598 25.158 18.4288 25.0537 18.5833C25.088 18.6694 25.0997 18.7628 25.0876 18.8547C25.0754 18.9465 25.0399 19.0337 24.9844 19.1079C24.6545 19.484 23.6086 19.1508 23.6086 19.1508H23.4668C23.3909 18.778 22.7508 18.9627 22.6122 17.3494C22.4572 15.4325 23.1929 13.5618 24.5258 12.5192Z" fill="#263238"/>
<path d="M24.4401 19.4373C24.1581 19.4302 23.8784 19.3847 23.6087 19.302H23.4965C23.4565 19.3059 23.4165 19.2944 23.3846 19.2699C23.3528 19.2454 23.3314 19.2097 23.3249 19.17C23.3249 19.1206 23.2787 19.0876 23.1797 19.0117C22.9356 18.8203 22.5694 18.5333 22.4671 17.362C22.2988 15.4121 23.0742 13.4622 24.4467 12.39C25.806 11.3309 28.4553 10.8294 30.3854 11.8753C32.1373 12.8321 32.0846 13.6701 31.8833 14.2244C31.8602 14.3696 31.6853 14.8282 30.5108 15.4154C30.1751 15.5823 29.8278 15.7246 29.4715 15.841C28.9898 16.0027 28.8314 16.0555 28.65 16.5438C28.4322 17.1377 27.6899 17.626 27.0498 17.8437C26.8156 17.9262 26.39 18.0384 26.1524 17.8932C26.0983 17.8554 26.036 17.8309 25.9707 17.8217C25.9053 17.8126 25.8387 17.819 25.7763 17.8404C25.7101 17.8629 25.6499 17.9001 25.6001 17.9493C25.5504 17.9984 25.5125 18.0582 25.4893 18.1242C25.4335 18.2918 25.3605 18.4533 25.2715 18.6059C25.293 18.7108 25.2886 18.8195 25.2587 18.9224C25.2288 19.0252 25.1743 19.1193 25.0999 19.1964C25.0117 19.2787 24.9078 19.3425 24.7945 19.3838C24.6811 19.4252 24.5606 19.4434 24.4401 19.4373ZM23.6285 18.9721H23.6812C23.9881 19.0711 24.671 19.1997 24.8789 18.9721C24.9515 18.8896 24.9614 18.7906 24.9119 18.596C24.9067 18.5721 24.9066 18.5474 24.9117 18.5235C24.9169 18.4996 24.927 18.477 24.9416 18.4574C25.0353 18.3139 25.1097 18.1585 25.1626 17.9955C25.2028 17.8843 25.2671 17.7834 25.351 17.7001C25.4348 17.6168 25.5362 17.5532 25.6476 17.5138C25.7569 17.4773 25.8731 17.466 25.9874 17.4809C26.1017 17.4957 26.2111 17.5363 26.3075 17.5996C26.5174 17.6388 26.7344 17.6111 26.9278 17.5204C27.4721 17.3323 28.1419 16.9067 28.3233 16.4184C28.5576 15.7817 28.8545 15.6794 29.3494 15.5144C29.6888 15.4033 30.0196 15.2677 30.3392 15.1086C31.4577 14.551 31.5336 14.1584 31.5336 14.1551C31.5317 14.1409 31.5317 14.1264 31.5336 14.1122C31.6391 13.8351 31.9163 13.0927 30.1941 12.1524C28.3992 11.1626 25.905 11.641 24.6347 12.6374C23.348 13.6272 22.6222 15.4781 22.7805 17.3191C22.8729 18.3551 23.16 18.5795 23.3711 18.7444C23.4549 18.8013 23.5267 18.8742 23.5823 18.9589H23.6153L23.6285 18.9721Z" fill="#263238"/>
<path d="M30.2838 18.4513C30.198 18.679 30.2244 18.8967 30.3431 18.9429C30.4619 18.9891 30.6269 18.8406 30.7127 18.613C30.7985 18.3853 30.7688 18.1709 30.65 18.1247C30.5312 18.0785 30.3761 18.2269 30.2838 18.4513Z" fill="#263238"/>
<path d="M30.7778 20.9649C30.523 20.9574 30.2747 20.8819 30.0589 20.7462C29.8431 20.6104 29.6675 20.4194 29.5505 20.1929C29.5298 20.1541 29.5248 20.1089 29.5364 20.0665C29.5481 20.0242 29.5756 19.9879 29.6132 19.9652C29.6514 19.9447 29.6961 19.9398 29.7379 19.9515C29.7798 19.9631 29.8154 19.9905 29.8375 20.0279C29.9256 20.2074 30.0616 20.3591 30.2304 20.4662C30.3992 20.5733 30.5944 20.6317 30.7943 20.635C30.8379 20.6322 30.8809 20.6465 30.9141 20.6748C30.9474 20.7031 30.9683 20.7433 30.9725 20.7867C30.9752 20.83 30.9608 20.8726 30.9324 20.9053C30.904 20.938 30.8639 20.9582 30.8207 20.9616L30.7778 20.9649Z" fill="#263238"/>
<path d="M31.1882 17.8441C31.1625 17.8447 31.137 17.8389 31.114 17.8274C31.091 17.8159 31.0712 17.799 31.0562 17.7781C31.0199 17.732 30.6966 17.3393 30.1126 17.7781C30.0773 17.8036 30.0335 17.8143 29.9905 17.8082C29.9474 17.802 29.9084 17.7794 29.8816 17.7452C29.8554 17.7102 29.8441 17.6661 29.8503 17.6228C29.8565 17.5795 29.8796 17.5404 29.9146 17.5142C30.0298 17.4167 30.1632 17.3432 30.3071 17.2978C30.4509 17.2525 30.6024 17.2363 30.7526 17.2503C30.9761 17.2862 31.1784 17.4037 31.3201 17.5802C31.333 17.5977 31.3422 17.6176 31.3473 17.6387C31.3524 17.6598 31.3533 17.6817 31.3499 17.7032C31.3466 17.7247 31.339 17.7452 31.3277 17.7638C31.3163 17.7823 31.3014 17.7984 31.2838 17.8111C31.256 17.8315 31.2226 17.843 31.1882 17.8441Z" fill="#263238"/>
<path d="M26.4004 19.4674H26.0276C25.5954 19.4674 25.084 18.8637 24.985 18.7416C24.9687 18.7253 24.9559 18.7058 24.9476 18.6843C24.9393 18.6627 24.9356 18.6397 24.9367 18.6167C24.9379 18.5936 24.9438 18.5711 24.9542 18.5505C24.9646 18.5299 24.9792 18.5117 24.997 18.4971C25.0149 18.4825 25.0356 18.4718 25.0578 18.4657C25.0801 18.4596 25.1034 18.4582 25.1262 18.4617C25.149 18.4651 25.1708 18.4733 25.1903 18.4857C25.2097 18.4981 25.2263 18.5145 25.2391 18.5337C25.4436 18.7845 25.823 19.1375 26.0276 19.1375H26.4004C26.4442 19.1375 26.4861 19.1549 26.5171 19.1858C26.548 19.2168 26.5654 19.2587 26.5654 19.3025C26.5654 19.3462 26.548 19.3882 26.5171 19.4191C26.4861 19.4501 26.4442 19.4674 26.4004 19.4674Z" fill="#263238"/>
<path d="M27.6076 21.7997L26.7432 21.0937L26.8322 22.6707L27.6076 21.7997Z" fill="#263238"/>
<path d="M26.8313 22.826C26.8139 22.8292 26.796 22.8292 26.7785 22.826C26.7479 22.8145 26.7213 22.7944 26.702 22.768C26.6826 22.7416 26.6714 22.7102 26.6697 22.6775L26.5773 21.0972C26.576 21.0656 26.5838 21.0343 26.5995 21.0068C26.6153 20.9794 26.6384 20.957 26.6664 20.9421C26.6952 20.9272 26.7278 20.9211 26.7601 20.9246C26.7924 20.9282 26.8229 20.9411 26.8478 20.9619L27.7122 21.668C27.7464 21.6972 27.7677 21.7387 27.7716 21.7834C27.7737 21.8054 27.7713 21.8276 27.7645 21.8486C27.7576 21.8696 27.7466 21.8889 27.732 21.9055L26.9567 22.7798C26.9227 22.8112 26.8776 22.8278 26.8313 22.826ZM26.9303 21.4469L26.9732 22.2552L27.3691 21.8098L26.9303 21.4469Z" fill="#263238"/>
<path d="M27.0803 29.6717L31.6334 32.7664C31.6334 32.7664 34.6027 33.7991 37.3643 34.4952C40.1258 35.1914 42.7553 35.7787 43.0357 35.7754C43.3162 35.7721 46.1338 34.9241 46.3746 34.9043C46.6155 34.8845 48.6412 36.1449 48.6412 36.1449C48.6412 36.1449 48.7468 37.3557 48.6412 37.5405C48.5357 37.7253 48.1959 37.5075 48.1959 37.5075C48.0661 37.7873 47.9057 38.0517 47.7174 38.296C47.5723 38.4082 47.2787 38.8206 47.1071 38.5996C46.8937 38.1999 46.7096 37.7853 46.5561 37.359C45.8676 37.4891 45.1726 37.5827 44.4742 37.6395C43.9167 37.6395 40.878 37.3095 40.1852 37.2567C39.4923 37.204 31.221 36.3527 31.0395 36.1416C30.858 35.9304 23.748 30.8627 23.748 30.8627L27.0803 29.6717Z" fill="white"/>
<path d="M47.2327 38.8278H47.2029C47.1578 38.8249 47.1138 38.8118 47.0744 38.7895C47.0349 38.7672 47.0011 38.7363 46.9753 38.6991C46.7653 38.3307 46.5886 37.9442 46.4474 37.5443C45.7931 37.6693 45.1322 37.7563 44.4678 37.805C43.9861 37.805 42.033 37.6103 40.8617 37.4916L40.1622 37.4223C39.796 37.386 31.1618 36.5612 30.9242 36.2444C30.723 36.0333 26.4735 32.9979 23.6658 31.0117C23.641 30.9943 23.6215 30.9705 23.6094 30.9427C23.5974 30.915 23.5931 30.8845 23.5972 30.8545C23.6013 30.8246 23.6135 30.7963 23.6326 30.7728C23.6517 30.7493 23.6768 30.7315 23.7053 30.7214L27.0244 29.5172C27.0486 29.5075 27.0748 29.5039 27.1007 29.5068C27.1266 29.5097 27.1514 29.5189 27.1729 29.5337L31.6962 32.6185C31.9635 32.7109 34.7877 33.6776 37.3908 34.3341C40.1985 35.0435 42.7588 35.611 43.0194 35.611C43.1613 35.611 44.2303 35.3074 44.9363 35.1128C45.7612 34.8818 46.2329 34.7498 46.3484 34.7399C46.5959 34.7201 47.7704 35.4163 48.714 36.0069C48.7362 36.0197 48.7548 36.0379 48.7681 36.0598C48.7814 36.0817 48.7889 36.1066 48.7899 36.1322C48.8229 36.5084 48.8889 37.4091 48.7899 37.6136C48.7726 37.6516 48.747 37.6852 48.7151 37.7121C48.6831 37.7389 48.6455 37.7582 48.6052 37.7687C48.4937 37.7893 48.3786 37.7755 48.2752 37.7291C48.1615 37.9824 48.0103 38.2171 47.8265 38.4253C47.7896 38.4575 47.7544 38.4917 47.7209 38.5275C47.6014 38.6851 47.4272 38.7922 47.2327 38.8278ZM46.5728 37.1946C46.6062 37.1948 46.6388 37.205 46.6664 37.2238C46.694 37.2426 46.7154 37.2692 46.7278 37.3002C46.8716 37.7139 47.0482 38.1155 47.2557 38.5012C47.3453 38.4434 47.4263 38.3734 47.4966 38.2933C47.54 38.2475 47.5863 38.2045 47.6352 38.1646C47.8039 37.9388 47.9477 37.6955 48.0641 37.4388C48.0736 37.4174 48.0877 37.3984 48.1054 37.383C48.1231 37.3676 48.1439 37.3562 48.1663 37.3497C48.1885 37.344 48.2117 37.3428 48.2343 37.3462C48.257 37.3496 48.2788 37.3575 48.2983 37.3695C48.3691 37.4146 48.4492 37.4428 48.5326 37.452C48.5402 37.0489 48.5248 36.6457 48.4864 36.2444C47.8167 35.7982 47.1129 35.4054 46.3814 35.0699C46.2989 35.0699 45.6325 35.2645 45.0419 35.4295C44.3846 35.6378 43.7159 35.8085 43.0392 35.9409C42.7093 35.9409 40.0006 35.3305 37.3281 34.6542C34.5897 33.9646 31.6138 32.9352 31.5841 32.9253L31.5445 32.9055L27.0607 29.8537L24.1079 30.926C25.9621 32.2457 30.7065 35.611 31.1486 36.0135C31.6204 36.2114 38.1629 36.901 40.1919 37.0923L40.8947 37.1649C41.9835 37.2738 44.0059 37.4751 44.4645 37.4751C45.0023 37.4751 46.5035 37.1979 46.52 37.1979L46.5728 37.1946Z" fill="#263238"/>
<path d="M48.1943 37.6725C48.1581 37.6727 48.1229 37.6613 48.0938 37.6399C48.0647 37.6185 48.0432 37.5883 48.0326 37.5538L47.7621 36.5904L46.8745 35.9833C46.8382 35.9588 46.8131 35.9209 46.8048 35.8779C46.7964 35.8349 46.8055 35.7903 46.83 35.754C46.8545 35.7177 46.8924 35.6926 46.9354 35.6842C46.9784 35.6759 47.023 35.685 47.0593 35.7095L47.9963 36.3528C48.029 36.3729 48.0526 36.4048 48.0623 36.4419L48.3526 37.4647C48.3639 37.5071 48.3581 37.5522 48.3365 37.5905C48.3149 37.6287 48.2793 37.6569 48.2372 37.6692L48.1943 37.6725Z" fill="#263238"/>
<path d="M47.7268 38.4612C47.6878 38.4609 47.6502 38.4469 47.6206 38.4215C47.591 38.3961 47.5714 38.3611 47.5651 38.3226L47.3738 37.158L46.6116 36.254C46.5837 36.2201 46.5701 36.1766 46.5738 36.1328C46.5775 36.089 46.5982 36.0484 46.6314 36.0197C46.6657 35.9926 46.7089 35.9795 46.7525 35.9832C46.796 35.9869 46.8365 36.007 46.8657 36.0395L47.6575 36.9831C47.6754 37.0064 47.6878 37.0335 47.6938 37.0623L47.8918 38.2698C47.8985 38.3127 47.888 38.3564 47.8627 38.3916C47.8374 38.4268 47.7992 38.4506 47.7565 38.4579L47.7268 38.4612Z" fill="#263238"/>
<path d="M47.1164 38.7652C47.0729 38.7635 47.0318 38.7451 47.0017 38.7137C46.9715 38.6823 46.9547 38.6405 46.9547 38.597L46.9778 37.462L46.2586 36.492C46.2456 36.4747 46.2361 36.455 46.2307 36.434C46.2254 36.413 46.2242 36.3912 46.2272 36.3697C46.2303 36.3483 46.2376 36.3276 46.2486 36.309C46.2596 36.2904 46.2742 36.2741 46.2916 36.2611C46.3089 36.2481 46.3286 36.2386 46.3496 36.2332C46.3706 36.2279 46.3924 36.2267 46.4139 36.2297C46.4353 36.2328 46.4559 36.24 46.4746 36.2511C46.4932 36.2621 46.5095 36.2767 46.5225 36.2941L47.278 37.3102C47.3002 37.3397 47.3118 37.3757 47.3111 37.4125L47.2847 38.6036C47.2842 38.6252 47.2795 38.6466 47.2708 38.6664C47.2622 38.6863 47.2496 38.7042 47.234 38.7193C47.2184 38.7343 47.2 38.7461 47.1798 38.7539C47.1596 38.7618 47.1381 38.7657 47.1164 38.7652Z" fill="#263238"/>
<path d="M21.0845 24.7559C21.0845 24.7559 23.0013 25.1749 23.5127 25.7687C24.0241 26.3626 31.2232 32.0374 31.2232 32.0374L37.703 34.017L36.8782 37.049L31.4443 36.9072L18.7354 30.5395" fill="#0F913D"/>
<path d="M36.8765 37.2111L31.4458 37.0693C31.4218 37.0693 31.398 37.0637 31.3765 37.0527L18.6644 30.6818C18.6255 30.662 18.5961 30.6277 18.5825 30.5863C18.5689 30.5448 18.5722 30.4997 18.5918 30.4608C18.6012 30.4412 18.6145 30.4238 18.6309 30.4095C18.6472 30.3952 18.6663 30.3843 18.6869 30.3775C18.7075 30.3707 18.7293 30.3682 18.7509 30.37C18.7726 30.3719 18.7936 30.378 18.8128 30.3882L31.492 36.7393L36.7709 36.8779L37.5198 34.123L31.1951 32.1929C31.1748 32.1863 31.1558 32.1762 31.139 32.1632C30.8454 31.9322 23.9234 26.4752 23.4054 25.8747C23.0161 25.4227 21.5842 25.0301 21.0662 24.9146C21.0446 24.9101 21.024 24.9013 21.0057 24.8888C20.9875 24.8763 20.9718 24.8604 20.9597 24.8418C20.9476 24.8233 20.9393 24.8025 20.9352 24.7808C20.9311 24.759 20.9314 24.7367 20.9359 24.715C20.9405 24.6934 20.9492 24.6728 20.9617 24.6545C20.9742 24.6363 20.9902 24.6206 21.0087 24.6085C21.0273 24.5964 21.048 24.5881 21.0698 24.584C21.0915 24.5799 21.1139 24.5801 21.1355 24.5847C21.218 24.6012 23.1151 25.0235 23.6562 25.6504C24.0521 26.109 28.8262 29.9131 31.3205 31.8761L37.7673 33.8557C37.8085 33.868 37.8434 33.8959 37.8643 33.9335C37.8853 33.9711 37.8907 34.0154 37.8795 34.057L37.0546 37.089C37.0446 37.1274 37.021 37.1609 36.9883 37.1833C36.9556 37.2057 36.9159 37.2156 36.8765 37.2111Z" fill="#263238"/>
<path d="M38.3676 33.9183L37.3151 37.6235L35.7314 37.5179L36.6355 33.3773L38.3676 33.9183Z" fill="white"/>
<path d="M37.3086 37.7882L35.7249 37.6826C35.701 37.6814 35.6776 37.6748 35.6564 37.6634C35.6353 37.652 35.617 37.636 35.6028 37.6166C35.5885 37.5982 35.5783 37.5768 35.5732 37.554C35.5681 37.5312 35.568 37.5075 35.5731 37.4847L36.4772 33.344C36.4822 33.3214 36.4918 33.3001 36.5054 33.2813C36.519 33.2626 36.5364 33.2469 36.5563 33.2352C36.5968 33.2135 36.6438 33.2076 36.6883 33.2187L38.4204 33.7598C38.4611 33.7727 38.4952 33.8009 38.5155 33.8384C38.5358 33.876 38.5407 33.9199 38.5293 33.961L37.4735 37.6727C37.4632 37.7078 37.4412 37.7383 37.4112 37.7593C37.3813 37.7802 37.3451 37.7904 37.3086 37.7882ZM35.9262 37.3659L37.1865 37.4517L38.1631 34.0435L36.7576 33.6047L35.9262 37.3659Z" fill="#263238"/>
</svg>
