<svg width="51" height="32" viewBox="0 0 51 32" fill="none" xmlns="http://www.w3.org/2000/svg">
<path d="M43.834 19.6982H6.00098V23.4792H43.834V19.6982Z" fill="#0F913D"/>
<g opacity="0.4">
<path d="M43.834 19.6984H6.00098V23.4794H43.834V19.6984Z" fill="black"/>
</g>
<path d="M35.6362 23.9562H24.4688V27.4578H35.6362V23.9562Z" fill="#455A64"/>
<path d="M16.665 22.3724V27.0011H20.4784L22.0068 24.786H49.8497V22.3724H16.665Z" fill="#263238"/>
<path d="M16.4279 7.71541C16.4237 7.64098 16.3905 7.57116 16.3354 7.52098C16.2802 7.47079 16.2076 7.44424 16.1331 7.44704C14.626 7.50923 7.47124 7.83724 5.99991 8.54436C4.87362 9.08621 3.63998 11.1088 2.77013 12.471C2.14649 13.4474 0.768876 15.6148 0.490285 16.7232C0.254292 17.6603 0.112015 19.6096 0.128202 20.5766L0.521807 25.6935H7.00607L7.65527 24.0032C7.86243 23.4648 8.2279 23.0018 8.70349 22.6752C9.17907 22.3487 9.74245 22.1739 10.3193 22.174H16.7627V13.6825L16.4279 7.71541Z" fill="#0F913D"/>
<path d="M5.2312 9.11078C4.33834 9.96274 3.44208 11.4111 2.76989 12.4709C2.19226 13.3748 0.968844 15.2994 0.569275 16.4598C0.561608 16.4811 0.555644 16.5015 0.548828 16.5228C0.746483 16.4683 1.05063 16.3567 1.1452 16.1693C1.28748 15.8856 1.4698 14.9135 3.72408 11.2441C4.40906 10.1255 5.07699 9.47116 5.2312 9.11078Z" fill="#455A64"/>
<path d="M13.0959 8.73161C11.438 8.82618 7.84359 9.07239 6.69515 9.46259C5.19911 9.97377 3.5199 13.9345 3.44066 14.1083L2.30926 17.005C2.30292 17.0239 2.30117 17.0441 2.30415 17.0638C2.30713 17.0836 2.31475 17.1023 2.3264 17.1186C2.33804 17.1348 2.35338 17.148 2.37114 17.1572C2.38889 17.1663 2.40857 17.1711 2.42854 17.1711H5.35331C5.46409 17.1711 5.57399 17.1515 5.67791 17.1132L13.3703 14.2455C13.5401 14.1821 13.6865 14.0683 13.7899 13.9194C13.8933 13.7705 13.9487 13.5936 13.9487 13.4123V9.53842C13.9488 9.42852 13.9264 9.31976 13.883 9.21881C13.8395 9.11785 13.776 9.02683 13.6961 8.9513C13.6163 8.87577 13.5219 8.81733 13.4187 8.77955C13.3155 8.74178 13.2057 8.72547 13.0959 8.73161Z" fill="#263238"/>
<path d="M2.63574 16.8866C2.63574 16.8866 3.71943 14.456 4.08407 13.6594C4.63444 12.4564 5.92005 9.99599 6.78819 9.73103C7.58648 9.49163 9.88166 9.20026 13.1123 9.01538H13.143C13.2817 9.01583 13.4146 9.07121 13.5127 9.16939C13.6107 9.26758 13.6658 9.40059 13.6661 9.53934V13.501C13.6658 13.5986 13.6358 13.6938 13.5801 13.774C13.5244 13.8542 13.4456 13.9155 13.3542 13.9499L7.67082 14.6511C7.443 14.6792 7.22402 14.7566 7.02909 14.8778C6.83416 14.999 6.66794 15.1612 6.54198 15.3531L5.55711 16.8551C5.4993 16.8765 5.43814 16.8875 5.3765 16.8875L2.63574 16.8866Z" fill="#455A64"/>
<path d="M7.46545 14.6946L5.5332 16.8467L6.60241 9.70126L6.86993 9.60925L6.34342 14.9025C6.34093 14.9291 6.34532 14.9558 6.35615 14.9802C6.36698 15.0046 6.38389 15.0258 6.40526 15.0418C6.42664 15.0578 6.45176 15.068 6.47823 15.0715C6.50469 15.075 6.53161 15.0717 6.55641 15.0618L7.46545 14.6946Z" fill="#263238"/>
<path d="M0.000924949 21.0732C-0.00589073 20.9803 0.0256317 20.9028 0.0733414 20.9028L1.10932 20.8074C1.19452 20.7989 1.27375 20.9599 1.28398 21.1482L1.33083 21.9431C1.3385 22.0708 1.30016 22.179 1.24564 22.1884L0.189208 22.3707C0.141498 22.3793 0.0954924 22.3085 0.0886767 22.2148L0.000924949 21.0732Z" fill="#EBEBEB"/>
<path d="M7.46487 24.7868H0V27.7797H7.46487V24.7868Z" fill="#263238"/>
<path d="M12.4486 30.9059C14.7026 30.8193 16.4597 28.9219 16.3731 26.6679C16.2865 24.4138 14.389 22.6568 12.135 22.7434C9.88096 22.83 8.12391 24.7274 8.2105 26.9814C8.29709 29.2355 10.1945 30.9925 12.4486 30.9059Z" fill="#263238"/>
<path d="M8.21032 26.7542C8.21077 26.7578 8.21077 26.7615 8.21032 26.7652C8.19603 27.8475 8.61193 28.8912 9.36665 29.6671C10.1214 30.4429 11.1532 30.8874 12.2355 30.903C13.3177 30.9186 14.3619 30.5039 15.1387 29.7501C15.9154 28.9963 16.3612 27.965 16.3781 26.8828C16.3781 26.8828 16.3781 26.876 16.3781 26.8726L8.21032 26.7542Z" fill="#263238"/>
<path d="M9.42609 26.7822C9.41773 27.3494 9.57774 27.9063 9.88591 28.3825C10.1941 28.8587 10.6365 29.2329 11.1573 29.4576C11.6782 29.6823 12.2539 29.7475 12.8118 29.645C13.3697 29.5425 13.8846 29.2768 14.2915 28.8816C14.6984 28.4864 14.9789 27.9794 15.0977 27.4248C15.2164 26.8701 15.1679 26.2927 14.9585 25.7656C14.749 25.2384 14.3879 24.7853 13.9209 24.4634C13.4539 24.1415 12.9018 23.9653 12.3347 23.9571C11.5744 23.9462 10.8409 24.2377 10.2954 24.7675C9.75001 25.2972 9.43731 26.022 9.42609 26.7822Z" fill="#FAFAFA"/>
<path d="M12.3344 23.9571C11.5741 23.9462 10.8406 24.2377 10.2951 24.7675C9.7497 25.2972 9.437 26.022 9.42578 26.7822L15.1603 26.8674C15.1715 26.1068 14.88 25.3728 14.3501 24.8271C13.8201 24.2813 13.095 23.9684 12.3344 23.9571Z" fill="#E0E0E0"/>
<path d="M10.5471 26.7985C10.542 27.1439 10.6396 27.4831 10.8273 27.7731C11.015 28.0631 11.2846 28.2908 11.6018 28.4276C11.919 28.5644 12.2696 28.6041 12.6094 28.5416C12.9491 28.4791 13.2627 28.3173 13.5105 28.0765C13.7582 27.8358 13.929 27.527 14.0013 27.1892C14.0735 26.8514 14.044 26.4997 13.9164 26.1787C13.7888 25.8577 13.5688 25.5818 13.2844 25.3857C12.9999 25.1897 12.6637 25.0825 12.3183 25.0776C11.8552 25.071 11.4085 25.2486 11.0763 25.5713C10.7442 25.894 10.5538 26.3355 10.5471 26.7985Z" fill="#263238"/>
<path d="M4.37138 11.3259H4.03826C3.66278 11.3259 3.3584 11.6303 3.3584 12.0057V14.709C3.3584 15.0845 3.66278 15.3889 4.03826 15.3889H4.37138C4.74686 15.3889 5.05124 15.0845 5.05124 14.709V12.0057C5.05124 11.6303 4.74686 11.3259 4.37138 11.3259Z" fill="#263238"/>
<path d="M2.65746 17.9005H2.57227V13.6041C2.57249 13.3992 2.65398 13.2028 2.79884 13.0579C2.94371 12.9131 3.14012 12.8316 3.34499 12.8314H3.54946V12.9166H3.34499C3.16272 12.9168 2.98797 12.9893 2.85908 13.1182C2.7302 13.2471 2.65769 13.4218 2.65746 13.6041V17.9005Z" fill="#263238"/>
<path d="M3.2394 17.9056L3.00255 13.8886C2.99922 13.8199 3.00979 13.7513 3.03361 13.6868C3.05743 13.6223 3.09402 13.5632 3.14119 13.5132C3.18835 13.4632 3.24513 13.4232 3.30812 13.3956C3.3711 13.368 3.43901 13.3534 3.50776 13.3527V13.4379C3.45042 13.4379 3.39369 13.4497 3.34105 13.4724C3.28841 13.4951 3.24097 13.5284 3.20164 13.5701C3.16231 13.6118 3.13192 13.6611 3.11233 13.715C3.09275 13.7689 3.08438 13.8263 3.08775 13.8835L3.32459 17.9013L3.2394 17.9056Z" fill="#263238"/>
<path d="M3.50684 17.5138H2.3584V18.8437H3.50684V17.5138Z" fill="#263238"/>
<path d="M3.08211 14.9894H2.61523V15.0746H3.08211V14.9894Z" fill="#263238"/>
<path d="M6.98172 8.8467L7.0831 8.83307L7.38214 8.79814L8.54081 8.66438L12.8602 8.1728C13.0903 8.14809 13.3246 8.11742 13.5674 8.09612C13.6914 8.08667 13.8162 8.0947 13.938 8.11998C14.0618 8.14894 14.1813 8.19421 14.2932 8.25459C14.5242 8.38309 14.7114 8.57773 14.8308 8.81347C14.8926 8.93398 14.9343 9.06377 14.9544 9.19771C14.9651 9.26536 14.9711 9.33369 14.9722 9.40218V9.6075C14.9722 10.7074 14.9722 11.8882 14.9722 13.1397C14.9722 15.6428 14.9722 18.427 14.9722 21.4037V21.4259H10.485C10.2288 21.4175 9.9724 21.4297 9.71821 21.4625C9.19388 21.538 8.69918 21.752 8.28522 22.0826C7.87126 22.4131 7.55303 22.8482 7.3634 23.3428C7.3266 23.4336 7.29558 23.5267 7.27053 23.6214C7.24284 23.7151 7.22093 23.8104 7.20493 23.9068L7.18278 24.0516L7.17256 24.124L7.1683 24.1965L7.16148 24.3421V24.4154V24.4239C7.18023 24.4052 7.13507 24.4529 7.13848 24.4478H1.44824V24.4239C1.44824 23.14 1.44824 21.9021 1.44824 20.7196C1.44824 20.1284 1.44824 19.551 1.44824 18.9876V18.1544C1.44824 18.0172 1.44824 17.8817 1.44824 17.7463C1.45102 17.6115 1.46069 17.477 1.47721 17.3433C1.54218 16.8278 1.7059 16.3297 1.95942 15.8762C2.19399 15.4349 2.42118 15.0089 2.64099 14.5983L3.84907 12.3346L4.82967 10.4969C4.90123 10.3635 4.96996 10.2343 5.03585 10.1093C5.06992 10.048 5.09974 9.98577 5.13552 9.92784C5.1708 9.87122 5.2092 9.81661 5.25054 9.76426C5.39829 9.58002 5.57223 9.41842 5.76683 9.28461C6.03484 9.10267 6.33447 8.97236 6.65031 8.90037C6.75874 8.87437 6.86894 8.85643 6.98002 8.8467L6.89482 8.85948C6.83944 8.868 6.75766 8.88248 6.65031 8.90719C6.33633 8.98142 6.03881 9.11314 5.77279 9.29568C5.57983 9.42968 5.4076 9.59129 5.26161 9.77534C5.22037 9.82677 5.18252 9.88085 5.1483 9.93721C5.11337 9.99344 5.08355 10.0565 5.04948 10.1187L4.84415 10.5072L3.87207 12.3466C3.50743 13.0332 3.1053 13.7906 2.6708 14.6119L1.98924 15.8899C1.73807 16.3399 1.57635 16.8343 1.51299 17.3459C1.49675 17.4785 1.48737 17.6118 1.48488 17.7454C1.48488 17.8792 1.48488 18.0163 1.48488 18.1527V18.9859C1.48488 19.5487 1.48488 20.1261 1.48488 20.7179C1.48488 21.9004 1.48488 23.1383 1.48488 24.4222L1.46358 24.4018H7.13166C7.13763 24.3975 7.09077 24.4427 7.11037 24.4222V24.4129V24.3396L7.11803 24.1913V24.1181L7.12911 24.0448L7.15126 23.8974C7.16745 23.7996 7.18964 23.7029 7.21771 23.6078C7.2432 23.5116 7.27479 23.4171 7.31228 23.3249C7.50494 22.823 7.82794 22.3816 8.248 22.0462C8.66806 21.7107 9.16998 21.4934 9.70203 21.4165C9.95625 21.3842 10.2126 21.3719 10.4688 21.3799H14.9356L14.9135 21.4012C14.9135 18.4278 14.9135 15.6436 14.9135 13.1372C14.9135 11.8856 14.9135 10.7048 14.9135 9.60494C14.919 9.46981 14.9133 9.33445 14.8964 9.20026C14.877 9.06933 14.8365 8.94244 14.7763 8.82455C14.6607 8.5941 14.478 8.40403 14.2523 8.27929C14.1436 8.21975 14.0272 8.17532 13.9064 8.14724C13.7875 8.12214 13.6656 8.11382 13.5444 8.12253C13.3033 8.14298 13.0673 8.17365 12.8381 8.19836L8.51951 8.67631L7.35999 8.80325L7.06095 8.83477L6.98172 8.8467Z" fill="#263238"/>
<path d="M13.6116 18.2626C13.6116 18.2626 13.6354 18.2626 13.678 18.2524C13.7406 18.2413 13.8004 18.2175 13.8535 18.1826C13.9373 18.1276 14.0001 18.0459 14.0316 17.9508C14.0508 17.8915 14.0586 17.829 14.0546 17.7668C14.0527 17.6978 14.0349 17.6301 14.0026 17.5691C13.9655 17.4993 13.9104 17.4408 13.843 17.3996C13.7755 17.3583 13.6982 17.336 13.6192 17.3349H13.0569H11.7688C11.6615 17.335 11.5581 17.3746 11.4781 17.4461C11.3981 17.5175 11.3472 17.6159 11.3351 17.7225C11.3217 17.8237 11.3405 17.9265 11.3888 18.0164C11.4367 18.1015 11.5117 18.1681 11.6018 18.2056C11.6909 18.2365 11.7856 18.2481 11.8795 18.2396H12.1521H12.642L13.3517 18.2464H13.5451C13.5674 18.246 13.5896 18.2477 13.6116 18.2516C13.5895 18.2542 13.5673 18.2557 13.5451 18.2558H13.3517L12.642 18.2626H12.1521H11.8795C11.8318 18.2626 11.7858 18.2626 11.7355 18.2626C11.6844 18.2588 11.6341 18.2473 11.5864 18.2286C11.4879 18.1877 11.4058 18.1151 11.353 18.0224C11.3001 17.9248 11.2792 17.813 11.2934 17.7029C11.3065 17.5859 11.3623 17.4779 11.4499 17.3993C11.5376 17.3208 11.6511 17.2772 11.7688 17.2769H13.0569H13.6192C13.7421 17.2793 13.8592 17.3295 13.9457 17.4168C14.0323 17.5042 14.0814 17.6217 14.0827 17.7446C14.0854 17.8097 14.0759 17.8748 14.0546 17.9363C14.0195 18.0353 13.9519 18.1194 13.8629 18.1749C13.8073 18.2095 13.7447 18.2313 13.6797 18.2388C13.658 18.2495 13.6352 18.2575 13.6116 18.2626Z" fill="#263238"/>
<path d="M13.4562 17.1925C13.2135 17.2139 12.9697 17.221 12.7261 17.2138C12.4822 17.221 12.2382 17.2139 11.9951 17.1925C12.2381 17.1706 12.4822 17.1632 12.7261 17.1704C12.9697 17.1632 13.2135 17.1706 13.4562 17.1925Z" fill="white"/>
<path d="M7.80461 27.8045L7.12305 27.7551C7.30111 25.3142 7.56181 23.854 7.92048 23.2908C8.60886 22.2088 9.29299 22.0129 10.0504 21.8842C10.7558 21.7641 11.4672 21.7922 12.1556 21.8203L12.326 21.8271C13.747 21.8825 16.7238 21.8331 16.7562 21.8331L16.7672 22.5147C16.7374 22.5147 13.7419 22.5649 12.3021 22.5087L12.1317 22.5019C11.4783 22.4763 10.8035 22.4482 10.168 22.5573C9.49064 22.6723 9.03996 22.8043 8.49641 23.658C8.33198 23.9127 8.02357 24.7979 7.80461 27.8045Z" fill="#263238"/>
<path d="M50.6856 0H17.1201V22.3486H50.6856V0Z" fill="#0F913D"/>
<path d="M50.2816 21.9064C50.2816 21.7624 50.2748 13.5657 50.2637 0.505186L50.2816 0.522225L17.4811 0.527337L17.5033 0.505186C17.5033 8.11233 17.5033 15.3531 17.5033 21.9064L17.4828 21.886L50.2833 21.9064L17.4828 21.9269H17.459V21.9064C17.459 15.3531 17.459 8.11233 17.459 0.505186V0.483887H17.4837L50.2841 0.488147H50.302V0.506038C50.2884 13.5657 50.2816 21.7633 50.2816 21.9064Z" fill="#263238"/>
<path d="M23.7646 14.4156L23.935 13.8193C24.2682 13.9627 24.6381 13.9978 24.9923 13.9198C25.3731 13.8346 25.5887 13.654 25.5384 13.435C25.4353 12.9554 24.0049 13.5313 23.7979 12.5754C23.6658 11.9586 24.1199 11.444 24.9514 11.2659C25.3544 11.1807 25.7463 11.1893 26.0436 11.3L25.8945 11.8853C25.6185 11.7815 25.3179 11.7616 25.0307 11.8282C24.6277 11.9134 24.4249 12.1196 24.4709 12.3343C24.5732 12.8276 26.0087 12.2491 26.2072 13.1718C26.3401 13.7937 25.8775 14.31 25.0417 14.4889C24.5544 14.5945 24.0603 14.5477 23.7646 14.4156Z" fill="white"/>
<path d="M29.4276 10.3561L29.4711 13.4845L28.7767 13.6336L28.7588 12.3599L27.3999 12.6513L27.4187 13.9292L26.7192 14.0749L26.6758 10.9456L27.3744 10.7957L27.3914 12.0251L28.7503 11.7337L28.7333 10.5043L29.4276 10.3561Z" fill="white"/>
<path d="M30.1396 10.2035L30.8366 10.0536L30.88 13.182L30.1814 13.3319L30.1396 10.2035Z" fill="white"/>
<path d="M34.1322 10.3261C34.2958 11.0886 33.8366 11.6892 32.9395 11.8775L32.2707 12.0206L32.2834 12.8819L31.5848 13.0319L31.5439 9.90009L32.7571 9.6445C33.5069 9.48007 34.0061 9.73651 34.1322 10.3261ZM33.4421 10.5365C33.3799 10.2451 33.1448 10.1523 32.7929 10.2281L32.2485 10.3448L32.2621 11.4311L32.8491 11.305C33.3058 11.2044 33.5273 10.9327 33.4421 10.5339V10.5365Z" fill="white"/>
<path d="M37.2258 9.65909C37.3894 10.4259 36.9302 11.0222 36.0331 11.2105L35.3651 11.3545L35.3796 12.2158L34.681 12.3658L34.6367 9.23737L35.8499 8.97667C36.6022 8.81565 37.1014 9.07209 37.2258 9.65909ZM36.5357 9.87037C36.4735 9.57815 36.2376 9.48529 35.8865 9.56111L35.3421 9.67783L35.3558 10.7649L35.9428 10.6388C36.4028 10.54 36.6226 10.2682 36.5374 9.87037H36.5357Z" fill="white"/>
<path d="M37.7373 8.57273L38.4359 8.42279L38.4802 11.552L37.7816 11.702L37.7373 8.57273Z" fill="white"/>
<path d="M41.8911 7.68518L41.9354 10.8136L41.3646 10.9363L39.8439 9.29538L39.8694 11.2549L39.1879 11.4023L39.1436 8.27303L39.7178 8.1495L41.2402 9.79123L41.2096 7.83172L41.8911 7.68518Z" fill="white"/>
<path d="M44.6534 8.6077L45.2881 8.47139L45.3043 9.7587C45.0229 10.0725 44.6475 10.2868 44.2343 10.3696C43.3252 10.5647 42.6377 10.1608 42.4715 9.38554C42.2517 8.36319 42.8353 7.42603 43.971 7.18067C44.5452 7.05713 45.0044 7.15085 45.3341 7.43625L44.9235 7.94743C44.6679 7.75063 44.4021 7.70973 44.0715 7.7813C43.3687 7.9321 43.027 8.53443 43.1685 9.1947C43.2647 9.64453 43.6302 9.88479 44.2002 9.76211C44.3723 9.72695 44.5344 9.6539 44.6747 9.54826L44.6534 8.6077Z" fill="white"/>
<path d="M42.6543 6.0745L47.6783 4.89795L47.4798 4.36292L42.6543 6.0745Z" fill="#FAFAFA"/>
<path d="M20.1582 9.83423L23.6512 9.01635L23.5132 8.6449L20.1582 9.83423Z" fill="#FAFAFA"/>
<path d="M32.1172 18.2507L37.1412 17.0733L36.9435 16.5391L32.1172 18.2507Z" fill="#FAFAFA"/>
<path d="M38.776 3.39854C38.776 3.41047 36.094 4.052 32.7807 4.83069C29.4675 5.60938 26.7778 6.23216 26.7744 6.22024C26.771 6.20831 29.4555 5.56678 32.7705 4.78809C36.0855 4.0094 38.7734 3.38662 38.776 3.39854Z" fill="#FAFAFA"/>
<path d="M26.8033 11.0968C26.8033 11.1088 25.6531 11.3524 24.2287 11.6387C22.8042 11.9249 21.6481 12.1499 21.6455 12.1379C21.643 12.126 22.7957 11.8823 24.2201 11.5952C25.6446 11.3081 26.8007 11.0849 26.8033 11.0968Z" fill="#FAFAFA"/>
<path d="M26.8489 10.5916C26.845 10.5769 26.8433 10.5617 26.8438 10.5464C26.8438 10.5115 26.8438 10.4689 26.8395 10.4178C26.8395 10.2994 26.8395 10.1392 26.8327 9.9441C26.8327 9.53772 26.8259 8.9882 26.8225 8.38076C26.8191 7.77331 26.8106 7.22294 26.8063 6.81741C26.8063 6.62231 26.8012 6.46214 26.7995 6.34372V6.21422C26.7973 6.19954 26.7973 6.18461 26.7995 6.16992C26.8034 6.18436 26.8054 6.19926 26.8055 6.21422C26.8055 6.24915 26.8106 6.2909 26.814 6.34287C26.8208 6.45448 26.8276 6.61635 26.8344 6.81656C26.8489 7.21613 26.86 7.76905 26.8642 8.3799C26.8685 8.99076 26.8642 9.54368 26.8642 9.94325C26.8642 10.1392 26.8591 10.2994 26.8574 10.4178C26.8574 10.4689 26.8574 10.5115 26.8532 10.5464C26.853 10.5616 26.8516 10.5767 26.8489 10.5916Z" fill="#FAFAFA"/>
<path d="M12.3478 10.5831C12.3478 10.5831 12.3376 10.5934 12.3163 10.6095L12.2226 10.6768C12.1374 10.7356 12.0207 10.8174 11.8725 10.9188C11.5751 11.1199 11.1611 11.3942 10.6993 11.6898C10.2375 11.9855 9.81582 12.247 9.50656 12.4336C9.35321 12.5265 9.22797 12.604 9.14107 12.6517L9.04054 12.7079C9.02909 12.7153 9.01679 12.7213 9.00391 12.7258C9.00391 12.7258 9.01413 12.7156 9.03543 12.7011L9.1317 12.6364L9.49038 12.4072L10.6737 11.6523L11.8529 10.8924L12.2115 10.6632L12.3104 10.6019C12.3221 10.5943 12.3347 10.588 12.3478 10.5831Z" fill="#FAFAFA"/>
<path d="M10.8918 10.9681C10.8918 10.9681 10.8816 10.9783 10.8603 10.9945L10.7666 11.0618C10.6814 11.1197 10.5646 11.2024 10.4155 11.3029C10.1182 11.5048 9.70416 11.7783 9.24325 12.0697C8.78234 12.361 8.35977 12.6277 8.05051 12.8143C7.89715 12.9071 7.77192 12.9847 7.68502 13.0315L7.58449 13.0886C7.57323 13.0961 7.56087 13.1019 7.54785 13.1056C7.5574 13.0963 7.56797 13.088 7.57937 13.0809L7.67565 13.017L8.03347 12.787L9.21769 12.033L10.3968 11.2731L10.7555 11.0431L10.8535 10.9826C10.8655 10.9761 10.8784 10.9712 10.8918 10.9681Z" fill="#FAFAFA"/>
<path d="M3.72096 13.4482C3.70791 13.4249 3.69897 13.3996 3.69455 13.3732C3.68092 13.3247 3.66218 13.2531 3.64088 13.1645C3.58487 12.933 3.55627 12.6956 3.55568 12.4574C3.55448 12.2167 3.60993 11.9791 3.71756 11.7639C3.75122 11.6995 3.79179 11.6389 3.83853 11.5833C3.8543 11.562 3.87327 11.5433 3.89476 11.5279C3.84038 11.6087 3.79033 11.6923 3.74482 11.7784C3.64773 11.9924 3.59804 12.2249 3.59913 12.4599C3.60172 12.6953 3.62711 12.9298 3.67496 13.1602C3.69626 13.2552 3.71163 13.3514 3.72096 13.4482Z" fill="#FAFAFA"/>
<path d="M0.249381 19.4887C0.2463 19.4584 0.2463 19.4279 0.249381 19.3976C0.249381 19.3362 0.249381 19.2476 0.254493 19.142C0.261309 18.923 0.277496 18.6206 0.303906 18.29C0.330317 17.9595 0.36184 17.6562 0.389102 17.4381C0.402734 17.329 0.414661 17.2412 0.424033 17.1825C0.42724 17.1509 0.433809 17.1198 0.443628 17.0896C0.447908 17.1213 0.447908 17.1534 0.443628 17.185L0.421477 17.4406C0.402734 17.6689 0.377175 17.9646 0.34906 18.2926C0.320946 18.6206 0.303907 18.9153 0.287719 19.1445C0.280052 19.2468 0.273236 19.3328 0.268124 19.4001C0.265531 19.4303 0.259236 19.4601 0.249381 19.4887Z" fill="#FAFAFA"/>
<path d="M9.58701 21.1423C9.58701 21.1516 9.42258 21.1746 9.16784 21.2573C9.01874 21.3057 8.87325 21.3646 8.73249 21.4336C8.38758 21.6049 8.07554 21.8357 7.81067 22.1152C7.70251 22.2286 7.60258 22.3496 7.51163 22.4773C7.35743 22.6962 7.28501 22.847 7.27734 22.8428C7.29001 22.8056 7.30598 22.7697 7.32505 22.7354C7.34412 22.6938 7.36574 22.6534 7.3898 22.6145C7.41707 22.5685 7.44688 22.5148 7.48607 22.4594C7.57428 22.3277 7.67285 22.2032 7.78085 22.0871C7.91471 21.9453 8.06035 21.815 8.2162 21.6977C8.3735 21.5836 8.54056 21.4835 8.71545 21.3987C8.85831 21.3301 9.00646 21.2731 9.15847 21.2283C9.22237 21.207 9.28286 21.1951 9.33483 21.1823C9.37951 21.1715 9.42473 21.1629 9.47029 21.1568C9.50864 21.1482 9.54773 21.1434 9.58701 21.1423Z" fill="#FAFAFA"/>
<path d="M17.9768 15.9989C17.9757 15.9867 17.9757 15.9745 17.9768 15.9623C17.9768 15.9362 17.9768 15.9004 17.9768 15.8549C17.9768 15.7578 17.9768 15.6189 17.9708 15.4417C17.9657 15.0805 17.9589 14.5617 17.9495 13.9218C17.9265 12.6362 17.895 10.865 17.8601 8.90806C17.8251 6.95111 17.7953 5.17648 17.7834 3.89342C17.7774 3.2519 17.7757 2.7322 17.7766 2.37353C17.7766 2.19547 17.7766 2.0566 17.7766 1.96033V1.85298C17.7766 1.82827 17.7766 1.81635 17.7766 1.81635C17.7777 1.82853 17.7777 1.84079 17.7766 1.85298C17.7766 1.87854 17.7766 1.91432 17.7766 1.96033C17.7766 2.0566 17.7766 2.19547 17.7825 2.37353C17.7876 2.73476 17.7945 3.25275 17.8038 3.89257C17.8268 5.17818 17.8584 6.9494 17.8933 8.90721C17.9282 10.865 17.9589 12.6379 17.97 13.921C17.9759 14.5634 17.9785 15.0822 17.9776 15.4409C17.9776 15.6189 17.9776 15.7578 17.9776 15.8549C17.9776 15.9001 17.9776 15.9359 17.9776 15.9623C17.9781 15.9745 17.9778 15.9867 17.9768 15.9989Z" fill="#FAFAFA"/>
<path d="M42.6262 30.9011C44.8801 30.811 46.6341 28.9108 46.544 26.6569C46.4539 24.403 44.5537 22.649 42.2998 22.7391C40.0459 22.8292 38.2918 24.7294 38.3819 26.9833C38.4721 29.2372 40.3723 30.9913 42.6262 30.9011Z" fill="#263238"/>
<path d="M38.3784 26.7542C38.3784 26.7542 38.3784 26.7618 38.3784 26.7652C38.3628 27.8482 38.778 28.8931 39.5328 29.6699C40.2876 30.4467 41.32 30.8919 42.403 30.9075C43.486 30.923 44.5308 30.5078 45.3077 29.753C46.0845 28.9982 46.5296 27.9658 46.5452 26.8828V26.8726L38.3784 26.7542Z" fill="#263238"/>
<path d="M39.594 26.7822C39.5859 27.3492 39.746 27.9058 40.0541 28.3817C40.3622 28.8577 40.8046 29.2316 41.3252 29.4561C41.8458 29.6807 42.4213 29.7458 42.979 29.6433C43.5366 29.5408 44.0513 29.2752 44.458 28.8801C44.8647 28.4851 45.1452 27.9783 45.2639 27.4239C45.3826 26.8695 45.3343 26.2923 45.125 25.7654C44.9157 25.2385 44.5548 24.7854 44.0881 24.4636C43.6213 24.1417 43.0696 23.9655 42.5026 23.9571C41.7423 23.9462 41.0088 24.2377 40.4634 24.7675C39.918 25.2972 39.6053 26.022 39.594 26.7822Z" fill="#FAFAFA"/>
<path d="M42.5023 23.9572C42.1259 23.9516 41.752 24.0203 41.402 24.1593C41.0521 24.2983 40.733 24.5049 40.4629 24.7672C40.1928 25.0296 39.977 25.3426 39.8279 25.6883C39.6787 26.034 39.5992 26.4058 39.5938 26.7823L45.3274 26.8675C45.3332 26.4908 45.2647 26.1167 45.1258 25.7666C44.9869 25.4165 44.7803 25.0971 44.518 24.8269C44.2556 24.5566 43.9426 24.3407 43.5967 24.1914C43.2509 24.0422 42.879 23.9626 42.5023 23.9572Z" fill="#E0E0E0"/>
<path d="M40.718 26.7985C40.7129 27.1439 40.8105 27.4831 40.9982 27.7731C41.1859 28.0631 41.4555 28.2908 41.7727 28.4276C42.0899 28.5644 42.4405 28.6041 42.7803 28.5416C43.12 28.4791 43.4336 28.3173 43.6814 28.0765C43.9291 27.8358 44.0999 27.527 44.1722 27.1892C44.2444 26.8514 44.2149 26.4997 44.0873 26.1787C43.9597 25.8577 43.7397 25.5818 43.4553 25.3857C43.1708 25.1897 42.8346 25.0825 42.4892 25.0776C42.0261 25.071 41.5794 25.2486 41.2472 25.5713C40.9151 25.894 40.7247 26.3355 40.718 26.7985Z" fill="#263238"/>
<path d="M37.0925 27.9426C37.0925 27.9426 36.4706 22.1492 42.4735 22.1492C48.0113 22.1492 47.8886 27.1315 47.8358 27.9025H46.9676C46.9676 27.9025 47.4098 22.9918 42.4735 22.9918C37.5373 22.9918 37.9667 28.0022 37.9667 28.0022C37.9667 28.0022 37.602 27.9843 37.0925 27.9426Z" fill="#455A64"/>
<path d="M40.3075 22.7491C40.2926 22.7567 40.2769 22.7625 40.2606 22.7661C40.2291 22.7772 40.1822 22.7883 40.1243 22.8087C39.9577 22.8617 39.7947 22.9252 39.6361 22.9987C39.1113 23.2394 38.6464 23.5935 38.2749 24.0354C37.9033 24.4774 37.6344 24.9962 37.4875 25.5546C37.4425 25.7227 37.4081 25.8934 37.3844 26.0658C37.375 26.1271 37.3716 26.1748 37.3665 26.2072C37.365 26.2239 37.3622 26.2404 37.358 26.2566C37.3559 26.2402 37.3559 26.2236 37.358 26.2072C37.358 26.174 37.358 26.122 37.3682 26.0641C37.3851 25.8888 37.4153 25.7151 37.4585 25.5444C37.5982 24.9775 37.866 24.4502 38.2415 24.0031C38.6169 23.556 39.09 23.201 39.6242 22.9655C39.7849 22.8938 39.9506 22.834 40.12 22.7866C40.1797 22.7695 40.2274 22.7602 40.2589 22.7525C40.2749 22.7496 40.2912 22.7484 40.3075 22.7491Z" fill="#FAFAFA"/>
</svg>
