<svg width="43" height="32" viewBox="0 0 43 32" fill="none" xmlns="http://www.w3.org/2000/svg">
<path d="M24.4867 4.8358H24.3616V2.45989H22.2822V2.33478H24.4867V4.8358Z" fill="#263238"/>
<path d="M23.8604 2.80777H24.048C24.5685 2.80777 24.9901 3.23065 24.9901 3.74988V5.98816C24.9901 6.50863 24.5672 6.93026 24.048 6.93026H23.8604V2.80652V2.80777Z" fill="#263238"/>
<path d="M38.6523 14.0782H37.7002V18.2895H38.6523V14.0782Z" fill="#263238"/>
<path d="M13.3696 24.396C13.6787 24.4323 37.1012 24.3447 37.1012 24.3447L37.9507 20.4549L27.0495 16.9192L26.3627 10.8349H22.1626L21.4645 15.6818L14.1991 12.7566L5.00452 11.9784L4.19629 17.6186L13.3684 24.3947L13.3696 24.396Z" fill="#0F913D"/>
<path opacity="0.5" d="M13.3696 24.396C13.6787 24.4323 37.1012 24.3447 37.1012 24.3447L37.9507 20.4549L27.0495 16.9192L26.3627 10.8349H22.1626L21.4645 15.6818L14.1991 12.7566L5.00452 11.9784L4.19629 17.6186L13.3684 24.3947L13.3696 24.396Z" fill="black"/>
<path d="M5.13823 1.50425L4.07227 12.9096L10.906 13.1286L15.1661 15.0065L18.4941 18.8087H23.331L23.1233 16.3565L22.2187 0.674744L5.13823 1.50425Z" fill="#0F913D"/>
<path opacity="0.5" d="M5.14577 1.50425L4.08105 12.9096L10.9148 13.1286L15.1749 15.0065L18.5029 18.8087H23.3398L23.1321 16.3565L22.8418 11.5484L22.2275 0.674744L5.14577 1.50425Z" fill="white"/>
<path d="M13.5289 11.6182C13.5289 11.6182 10.8803 6.37216 10.4799 6.37216C10.0795 6.37216 9.83431 6.53856 9.45647 6.70622C9.07863 6.87387 9.59034 11.6182 9.59034 11.6182H13.5289Z" fill="#263238"/>
<path opacity="0.3" d="M6.28738 11.5481L16.1839 1.80298C16.1839 1.80298 20.6217 1.80298 20.444 1.80298C20.2663 1.80298 10.8828 11.5481 10.8828 11.5481H6.28613H6.28738Z" fill="white"/>
<path d="M37.7569 13.0671C37.1964 12.15 23.6841 10.6198 23.5527 10.576L24.0319 20.5814L27.1447 20.714C27.1447 20.714 37.4266 21.1069 37.5254 21.0631C37.6243 21.0193 38.3161 13.9841 37.7556 13.0658L37.7569 13.0671Z" fill="#0F913D"/>
<path d="M22.5243 1.80315H4.70689C4.51046 1.80315 4.35156 1.64425 4.35156 1.44782C4.35156 1.25139 4.51046 1.0925 4.70689 1.0925H22.5243C22.7207 1.0925 22.8796 1.25139 22.8796 1.44782C22.8796 1.64425 22.7207 1.80315 22.5243 1.80315Z" fill="#0F913D"/>
<path d="M5.38943 0H21.9345C22.2297 0 22.4687 0.238968 22.4687 0.534236V1.24738H4.85645V0.534236C4.85645 0.238968 5.09541 0 5.39068 0H5.38943Z" fill="#0F913D"/>
<path d="M25.6943 12.3737V1.54014C25.6943 1.54014 25.7894 0.326538 27.4121 0.326538V1.21359C27.4121 1.21359 26.5539 0.988389 26.5539 1.82415V12.4138L25.6956 12.3725L25.6943 12.3737Z" fill="#263238"/>
<path d="M8.75828 31.2582C13.4141 31.2582 17.1884 27.5651 17.1884 23.0095C17.1884 18.4538 13.4141 14.7607 8.75828 14.7607C4.10244 14.7607 0.328125 18.4538 0.328125 23.0095C0.328125 27.5651 4.10244 31.2582 8.75828 31.2582Z" fill="#263238"/>
<path d="M8.75295 31.6326H8.74544C8.47895 31.6226 8.21496 31.6025 7.95848 31.5763L8.0373 30.8293C8.27502 30.8544 8.52024 30.8719 8.76671 30.8819C9.01194 30.8819 9.25966 30.8706 9.50113 30.8494L9.56744 31.5975C9.30095 31.6213 9.02945 31.6338 8.7592 31.6338H8.7517L8.75295 31.6326ZM11.1489 31.311L10.9499 30.5866C11.4229 30.4565 11.8858 30.2826 12.3262 30.0699L12.6527 30.7455C12.1711 30.9782 11.6656 31.1684 11.1489 31.311ZM6.38955 31.2923C5.86283 31.1546 5.35486 30.9745 4.87818 30.7568L5.18971 30.0737C5.62636 30.2738 6.09429 30.439 6.57847 30.5653L6.3883 31.291L6.38955 31.2923ZM3.48441 29.9535C3.04527 29.6408 2.63614 29.2842 2.26956 28.8926L2.81756 28.3796C3.15036 28.7337 3.5207 29.0577 3.91981 29.3417L3.48441 29.9535ZM14.0302 29.9185L13.5861 29.313C13.9814 29.0227 14.3518 28.6962 14.6871 28.3396L15.2338 28.8538C14.8673 29.2429 14.4619 29.6007 14.029 29.9185H14.0302ZM1.28992 27.6139C1.00842 27.161 0.768198 26.6756 0.576774 26.1701L1.27866 25.9024C1.45382 26.3628 1.67277 26.8044 1.92925 27.2173L1.29117 27.6127L1.28992 27.6139ZM16.2247 27.5876L15.5929 27.1823C15.8582 26.7694 16.0834 26.3303 16.2648 25.8773L16.9617 26.1563C16.7627 26.653 16.515 27.1347 16.2247 27.5876ZM0.145132 24.6225C0.0487948 24.097 0 23.559 0 23.0222H0.750682C0.750682 23.5127 0.795723 24.0056 0.884553 24.4873L0.146383 24.6225H0.145132ZM17.4158 24.6124L16.6789 24.4711C16.7702 23.9931 16.8165 23.5014 16.8165 23.011V22.9872H17.5672V23.011C17.5672 23.549 17.5159 24.0882 17.4158 24.6124ZM0.879549 21.5559L0.140128 21.4233C0.235214 20.8928 0.379094 20.3711 0.566765 19.8731L1.26865 20.1384C1.09725 20.5938 0.965878 21.0705 0.878298 21.5559H0.879549ZM16.6739 21.5271C16.5801 21.048 16.4399 20.575 16.2573 20.1209L16.9529 19.8394C17.1543 20.3373 17.3082 20.8565 17.4108 21.3833L16.6739 21.5271ZM1.91549 18.8222L1.27616 18.4281C1.55892 17.9689 1.88797 17.5373 2.2533 17.1457L2.80255 17.6574C2.47099 18.0127 2.17322 18.4043 1.91549 18.8222ZM15.5804 18.8184C15.3164 18.4081 15.0111 18.0202 14.6733 17.6636L15.2188 17.1469C15.5879 17.5373 15.9232 17.9627 16.2122 18.4118L15.5817 18.8184H15.5804ZM13.5686 16.6927C13.172 16.405 12.7478 16.151 12.3062 15.9383L12.6315 15.2614C13.1144 15.4929 13.5786 15.7707 14.0115 16.0859L13.5698 16.6927H13.5686ZM3.90104 16.6915L3.46315 16.0809C3.89354 15.7719 4.36271 15.5004 4.85441 15.274L5.16844 15.9558C4.71929 16.1635 4.29265 16.41 3.89979 16.6915H3.90104ZM6.55721 15.4591L6.36578 14.7335C6.86624 14.6008 7.39422 14.5045 7.93471 14.4457L8.01478 15.1914C7.51182 15.2464 7.02138 15.3353 6.55721 15.4579V15.4591ZM10.9287 15.4253C10.457 15.2965 9.97031 15.2102 9.47986 15.1689L9.54492 14.4207C10.0792 14.467 10.6109 14.5608 11.1264 14.7009L10.9287 15.4253Z" fill="#263238"/>
<path opacity="0.3" d="M8.76108 26.9907C11.0082 26.9907 12.8298 25.2083 12.8298 23.0096C12.8298 20.8108 11.0082 19.0284 8.76108 19.0284C6.514 19.0284 4.69238 20.8108 4.69238 23.0096C4.69238 25.2083 6.514 26.9907 8.76108 26.9907Z" fill="white"/>
<path opacity="0.3" d="M8.76272 25.6909C10.2767 25.6909 11.504 24.4905 11.504 23.0097C11.504 21.5289 10.2767 20.3285 8.76272 20.3285C7.24878 20.3285 6.02148 21.5289 6.02148 23.0097C6.02148 24.4905 7.24878 25.6909 8.76272 25.6909Z" fill="white"/>
<path d="M35.5155 31.2573C39.0098 31.2573 41.8425 28.4862 41.8425 25.0679C41.8425 21.6496 39.0098 18.8785 35.5155 18.8785C32.0212 18.8785 29.1885 21.6496 29.1885 25.0679C29.1885 28.4862 32.0212 31.2573 35.5155 31.2573Z" fill="#263238"/>
<path d="M35.5075 31.6328H35.4999C35.236 31.6228 34.9732 31.6003 34.7205 31.5677L34.8156 30.8233C35.0433 30.8521 35.281 30.8721 35.5212 30.8821C35.7589 30.8821 35.9979 30.8671 36.2306 30.8408L36.3182 31.5865C36.0529 31.6178 35.7827 31.6328 35.5137 31.634H35.5062L35.5075 31.6328ZM37.8721 31.2149L37.6131 30.5105C38.0585 30.3466 38.4839 30.1302 38.878 29.8662L39.2959 30.4892C38.853 30.787 38.3738 31.031 37.8734 31.2149H37.8721ZM33.1766 31.2124C32.6624 31.0347 32.1782 30.8008 31.739 30.5168L32.1469 29.8862C32.536 30.1377 32.9651 30.3454 33.4231 30.503L33.1778 31.2124H33.1766ZM30.5142 29.4808C30.1551 29.0867 29.8461 28.6438 29.5971 28.1659L30.2627 27.8181C30.4829 28.2397 30.7544 28.6288 31.0697 28.9754L30.5142 29.4808ZM40.507 29.4496L39.9527 28.9428C40.2743 28.5925 40.5508 28.2034 40.776 27.7893L41.4353 28.1471C41.1814 28.615 40.8686 29.0529 40.507 29.4483V29.4496ZM29.0366 26.667C28.9115 26.1503 28.8489 25.6173 28.8477 25.0818H29.5983C29.5983 25.5573 29.6559 26.0314 29.7672 26.4906L29.0378 26.667H29.0366ZM42.0196 26.657L41.2915 26.4731C41.4078 26.0164 41.4654 25.5448 41.4654 25.0693V25.043H42.216V25.0693C42.216 25.6061 42.1497 26.1403 42.0184 26.657H42.0196ZM29.7597 23.6693L29.0291 23.4966C29.1529 22.9724 29.3394 22.467 29.5833 21.9965L30.2502 22.3418C30.035 22.7585 29.8698 23.2051 29.7597 23.6706V23.6693ZM41.2852 23.6405C41.1676 23.1839 40.9924 22.7422 40.7635 22.3256L41.4216 21.9653C41.6793 22.4357 41.8782 22.9361 42.0121 23.4529L41.2852 23.6405ZM31.0522 21.1795L30.4942 20.6766C30.852 20.28 31.2623 19.9297 31.714 19.6344L32.1244 20.2637C31.7278 20.5227 31.3662 20.8305 31.0522 21.1795ZM39.9365 21.1758C39.6162 20.828 39.2521 20.5189 38.8567 20.2562L39.2721 19.6306C39.7175 19.9272 40.1266 20.275 40.4882 20.6666L39.9365 21.1758ZM33.398 19.6406L33.1503 18.9325C33.6345 18.7636 34.1537 18.641 34.6942 18.5709L34.7918 19.3153C34.3026 19.3792 33.8347 19.4893 33.398 19.6419V19.6406ZM37.5893 19.6156C37.1452 19.4542 36.6798 19.3454 36.2068 19.2916L36.2907 18.5459C36.8224 18.606 37.3454 18.7286 37.8446 18.91L37.5881 19.6156H37.5893Z" fill="#263238"/>
<path opacity="0.3" d="M35.5169 28.0554C37.2036 28.0554 38.5709 26.7178 38.5709 25.0677C38.5709 23.4176 37.2036 22.08 35.5169 22.08C33.8302 22.08 32.4629 23.4176 32.4629 25.0677C32.4629 26.7178 33.8302 28.0554 35.5169 28.0554Z" fill="white"/>
<path opacity="0.3" d="M35.5149 27.0812C36.6509 27.0812 37.5717 26.1799 37.5717 25.0681C37.5717 23.9563 36.6509 23.055 35.5149 23.055C34.3789 23.055 33.458 23.9563 33.458 25.0681C33.458 26.1799 34.3789 27.0812 35.5149 27.0812Z" fill="white"/>
<path d="M4.07227 13.1983L4.19988 11.548H22.8443L23.2659 18.8071L18.1988 18.8084L14.4955 13.9402L10.5419 13.3221L4.07227 13.1983Z" fill="#0F913D"/>
<path d="M22.6991 8.89574L21.762 8.72809L19.3861 10.8025L18.6367 9.55884L19.9929 8.29269C20.063 8.21012 20.0605 8.09251 19.9867 8.01244C19.9141 7.93111 19.789 7.90859 19.6877 7.95739L15.9105 9.77154C15.7804 9.83409 15.7191 9.97422 15.7653 10.1031C15.8066 10.2169 15.923 10.2933 16.0544 10.292L17.4394 10.0493L18.3852 11.7709L17.1841 12.9694L19.0596 15.0901L19.9604 15.274L20.2106 17.3259L23.1233 17.3472L22.843 11.5469L22.6991 8.89449V8.89574Z" fill="#263238"/>
<path d="M4.07227 13.1983L4.19988 11.548H22.8443L23.331 18.8084H18.1988L14.4955 13.9402L10.5419 13.3221L4.07227 13.1983Z" fill="#0F913D"/>
<path d="M2.18972 14.0016C2.18972 14.0016 2.09464 12.5591 2.18972 12.5591C2.28481 12.5591 9.96303 10.9426 14.5622 14.0016C19.1601 17.0606 19.065 19.3327 19.065 19.3327L17.8327 19.6818C17.8327 19.6818 14.8462 11.5982 2.18972 14.0016Z" fill="#0F913D"/>
<path opacity="0.3" d="M2.18972 14.0016C2.18972 14.0016 2.09464 12.5591 2.18972 12.5591C2.28481 12.5591 9.96303 10.9426 14.5622 14.0016C19.1601 17.0606 19.065 19.3327 19.065 19.3327L17.8327 19.6818C17.8327 19.6818 14.8462 11.5982 2.18972 14.0016Z" fill="black"/>
<path d="M14.1998 1.47638H13.2227V11.7958H14.1998V1.47638Z" fill="#0F913D"/>
<path d="M15.1009 4.27027H13.9736V3.48456H15.1009C15.3174 3.48456 15.4938 3.65972 15.4938 3.87741C15.4938 4.09386 15.3186 4.27027 15.1009 4.27027Z" fill="#0F913D"/>
<path d="M15.1009 8.74671H13.9736V7.961H15.1009C15.3174 7.961 15.4938 8.13616 15.4938 8.35386C15.4938 8.5703 15.3186 8.74671 15.1009 8.74671Z" fill="#0F913D"/>
<path opacity="0.3" d="M4.38439 9.55627C4.38439 9.55627 11.4471 1.80298 11.5484 1.80298H13.2237L4.19922 11.5481L4.38564 9.55627H4.38439Z" fill="white"/>
<g opacity="0.3">
<path d="M23.6388 12.3449C28.3393 12.5175 31.8712 12.6264 31.8712 12.6264C31.8712 12.6264 26.8892 11.2326 23.585 11.2326L23.6388 12.3449Z" fill="black"/>
</g>
<path d="M23.7385 21.4596H18.8516V23.4852H23.7385V21.4596Z" fill="#263238"/>
<path d="M23.7787 23.8419H18.8154V24.5951H23.7787V23.8419Z" fill="#263238"/>
<path opacity="0.3" d="M26.8145 18.4747C26.6694 18.4747 26.5518 18.3571 26.5518 18.2119V15.024C26.5518 14.8789 26.6694 14.7613 26.8145 14.7613C26.9596 14.7613 27.0772 14.8789 27.0772 15.024V18.2119C27.0772 18.3571 26.9596 18.4747 26.8145 18.4747Z" fill="black"/>
<path opacity="0.3" d="M27.8116 18.4747C27.6664 18.4747 27.5488 18.3571 27.5488 18.2119V15.024C27.5488 14.8789 27.6664 14.7613 27.8116 14.7613C27.9567 14.7613 28.0743 14.8789 28.0743 15.024V18.2119C28.0743 18.3571 27.9567 18.4747 27.8116 18.4747Z" fill="black"/>
<path opacity="0.3" d="M28.8096 18.4747C28.6645 18.4747 28.5469 18.3571 28.5469 18.2119V15.024C28.5469 14.8789 28.6645 14.7613 28.8096 14.7613C28.9547 14.7613 29.0724 14.8789 29.0724 15.024V18.2119C29.0724 18.3571 28.9547 18.4747 28.8096 18.4747Z" fill="black"/>
<path opacity="0.3" d="M29.8096 18.4747C29.6645 18.4747 29.5469 18.3571 29.5469 18.2119V15.024C29.5469 14.8789 29.6645 14.7613 29.8096 14.7613C29.9547 14.7613 30.0724 14.8789 30.0724 15.024V18.2119C30.0724 18.3571 29.9547 18.4747 29.8096 18.4747Z" fill="black"/>
<path opacity="0.3" d="M22.4701 1.05857H4.86914V0.673218H22.4701V1.05857Z" fill="black"/>
<path d="M4.19922 11.4896C9.40144 11.4708 17.2523 11.4946 22.5259 11.4896C21.7627 11.5146 20.9995 11.5309 20.235 11.5497C14.9002 11.6472 9.52906 11.6272 4.19922 11.4896Z" fill="#263238"/>
<path d="M26.5511 14.9715C26.6362 16.0412 26.6362 17.1235 26.5511 18.1919C26.466 17.1222 26.466 16.04 26.5511 14.9715Z" fill="#263238"/>
<path d="M27.5579 14.9715C27.643 16.0412 27.643 17.1235 27.5579 18.1919C27.4729 17.1222 27.4729 16.04 27.5579 14.9715Z" fill="#263238"/>
<path d="M28.5648 14.9715C28.6499 16.0412 28.6499 17.1235 28.5648 18.1919C28.4797 17.1222 28.4797 16.04 28.5648 14.9715Z" fill="#263238"/>
<path d="M29.5716 14.9715C29.6567 16.0412 29.6567 17.1235 29.5716 18.1919C29.4865 17.1222 29.4865 16.04 29.5716 14.9715Z" fill="#263238"/>
<path d="M23.583 13.665C28.211 13.8852 33.3506 14.223 37.9723 14.6071C33.3394 14.3856 28.2022 14.0503 23.583 13.665Z" fill="#263238"/>
<path d="M13.6756 11.5131C13.7607 12.1724 13.7619 12.8343 13.6756 13.4936C13.5893 12.8343 13.5905 12.1724 13.6756 11.5131Z" fill="#263238"/>
<path opacity="0.3" d="M16.0824 12.7367H14.7325C14.5661 12.7367 14.4297 12.6016 14.4297 12.4339C14.4297 12.2675 14.5648 12.1312 14.7325 12.1312H16.0824C16.2488 12.1312 16.3852 12.2663 16.3852 12.4339C16.3852 12.6003 16.2501 12.7367 16.0824 12.7367Z" fill="black"/>
</svg>
