<svg width="44" height="38" viewBox="0 0 44 38" fill="none" xmlns="http://www.w3.org/2000/svg">
<path d="M25.1735 23.8568H18.0986V37.9192H25.1735V23.8568Z" fill="#263238"/>
<path opacity="0.2" d="M25.1735 28.3825H18.0986V30.5516H25.1735V28.3825Z" fill="black"/>
<path d="M29.9468 36.973H13.3223V37.941H29.9468V36.973Z" fill="#263238"/>
<path opacity="0.2" d="M29.9468 36.973H13.3223V37.941H29.9468V36.973Z" fill="black"/>
<path d="M41.7186 0H1.55473C0.696077 0 0 0.696078 0 1.55473V28.3447C0 29.2034 0.696077 29.8995 1.55473 29.8995H41.7186C42.5773 29.8995 43.2734 29.2034 43.2734 28.3447V1.55473C43.2734 0.696078 42.5773 0 41.7186 0Z" fill="#263238"/>
<path opacity="0.5" d="M41.7186 0H1.55473C0.696077 0 0 0.696078 0 1.55473V28.3447C0 29.2034 0.696077 29.8995 1.55473 29.8995H41.7186C42.5773 29.8995 43.2734 29.2034 43.2734 28.3447V1.55473C43.2734 0.696078 42.5773 0 41.7186 0Z" fill="white"/>
<path d="M42.388 0.982605H0.736328V26.7478H42.388V0.982605Z" fill="#263238"/>
<path d="M22.7289 28.6377C22.8715 28.0336 22.4974 27.4283 21.8933 27.2857C21.2892 27.1432 20.6839 27.5173 20.5414 28.1214C20.3988 28.7254 20.7729 29.3307 21.377 29.4733C21.9811 29.6159 22.5863 29.2418 22.7289 28.6377Z" fill="#E0E0E0"/>
<path opacity="0.7" d="M41.6424 1.44403H1.48145V26.2863H41.6424V1.44403Z" fill="white"/>
<path d="M41.6424 1.44403H1.48145V25.9631H41.6424V1.44403Z" fill="#0F913D"/>
<g opacity="0.9">
<path d="M41.6415 1.44427H1.48047V26.2865H41.6415V1.44427Z" fill="white"/>
</g>
<path d="M41.6407 9.06067H14.3252V18.5914H41.6407V9.06067Z" fill="#0F913D"/>
<g opacity="0.4">
<path d="M41.6398 9.06079H14.3242V18.5915H41.6398V9.06079Z" fill="white"/>
</g>
<path d="M14.3266 9.06067H5.57617V18.5914H14.3266V9.06067Z" fill="#0F913D"/>
<g opacity="0.7">
<path d="M14.3266 9.06079H5.57617V18.5915H14.3266V9.06079Z" fill="white"/>
</g>
<path d="M5.57499 9.06067H1.48145V18.5914H5.57499V9.06067Z" fill="#0F913D"/>
<g opacity="0.6">
<path d="M5.57402 9.06079H1.48047V18.5915H5.57402V9.06079Z" fill="white"/>
</g>
<path d="M32.329 6.72394H9.19434V8.11126H32.329V6.72394Z" fill="#0F913D"/>
<g opacity="0.8">
<path d="M32.3309 6.72375H9.19629V8.11108H32.3309V6.72375Z" fill="white"/>
</g>
<path d="M33.8324 6.72394H32.3301V8.11126H33.8324V6.72394Z" fill="#0F913D"/>
<g opacity="0.5">
<path d="M33.8324 6.72375H32.3301V8.11108H33.8324V6.72375Z" fill="white"/>
</g>
<path d="M41.6424 1.44403H1.48145V3.01186H41.6424V1.44403Z" fill="#0F913D"/>
<path d="M37.8 2.2273C37.8003 2.31633 37.7742 2.40344 37.7249 2.4776C37.6757 2.55177 37.6055 2.60965 37.5234 2.64392C37.4412 2.67819 37.3507 2.6873 37.2634 2.67011C37.176 2.65292 37.0957 2.6102 37.0327 2.54734C36.9696 2.48449 36.9266 2.40435 36.9091 2.31705C36.8917 2.22975 36.9005 2.13923 36.9345 2.05695C36.9685 1.97467 37.0261 1.90434 37.1002 1.85484C37.1742 1.80535 37.2612 1.77893 37.3502 1.77893C37.4693 1.77893 37.5835 1.82612 37.6678 1.91017C37.7521 1.99421 37.7997 2.10825 37.8 2.2273Z" fill="white"/>
<path d="M39.5276 2.2273C39.5279 2.31633 39.5017 2.40344 39.4525 2.4776C39.4032 2.55177 39.3331 2.60965 39.2509 2.64392C39.1687 2.67819 39.0782 2.6873 38.9909 2.67011C38.9035 2.65292 38.8233 2.6102 38.7602 2.54734C38.6971 2.48449 38.6542 2.40435 38.6367 2.31705C38.6192 2.22975 38.628 2.13923 38.662 2.05695C38.696 1.97467 38.7537 1.90434 38.8277 1.85484C38.9017 1.80535 38.9887 1.77893 39.0778 1.77893C39.1968 1.77893 39.311 1.82612 39.3953 1.91017C39.4796 1.99421 39.5272 2.10825 39.5276 2.2273Z" fill="white"/>
<path d="M41.2522 2.2273C41.2525 2.31633 41.2263 2.40344 41.1771 2.4776C41.1278 2.55177 41.0577 2.60965 40.9755 2.64392C40.8933 2.67819 40.8029 2.6873 40.7155 2.67011C40.6281 2.65292 40.5479 2.6102 40.4848 2.54734C40.4218 2.48449 40.3788 2.40435 40.3613 2.31705C40.3438 2.22975 40.3526 2.13923 40.3866 2.05695C40.4206 1.97467 40.4783 1.90434 40.5523 1.85484C40.6263 1.80535 40.7133 1.77893 40.8024 1.77893C40.9214 1.77893 41.0356 1.82612 41.1199 1.91017C41.2042 1.99421 41.2518 2.10825 41.2522 2.2273Z" fill="white"/>
<path d="M2.77837 7.99479C2.69898 7.97791 2.6228 7.94842 2.55273 7.90744L2.67938 7.6163C2.73797 7.64982 2.80058 7.67575 2.86572 7.69345C2.92996 7.71266 2.99665 7.72247 3.0637 7.72256C3.10309 7.72503 3.14259 7.72009 3.18016 7.70801C3.19005 7.70431 3.19864 7.69778 3.20485 7.68924C3.21106 7.6807 3.21463 7.67052 3.2151 7.65997C3.2151 7.63522 3.20054 7.61775 3.16997 7.60465C3.12238 7.58828 3.07375 7.57515 3.02439 7.56534C2.94832 7.55027 2.87341 7.52984 2.80021 7.5042C2.73962 7.48201 2.68556 7.44497 2.64299 7.39648C2.59625 7.3403 2.57234 7.26858 2.57603 7.19559C2.57528 7.12416 2.59719 7.05434 2.63862 6.99615C2.68382 6.93037 2.74772 6.87966 2.82205 6.85058C2.91469 6.81409 3.01364 6.79628 3.11319 6.79817C3.19254 6.79809 3.27164 6.80687 3.34903 6.82437C3.42028 6.83957 3.48893 6.86507 3.55283 6.90007L3.43491 7.19122C3.33457 7.13695 3.22287 7.10703 3.10883 7.10387C3.00838 7.10387 2.96325 7.12862 2.96325 7.17812C2.96325 7.20141 2.97781 7.21888 3.00838 7.23053C3.05604 7.24627 3.10467 7.25891 3.15396 7.26837C3.23056 7.28125 3.30602 7.30023 3.3796 7.32515C3.44053 7.34677 3.49508 7.3833 3.53827 7.43142C3.58558 7.48671 3.60959 7.55821 3.60524 7.63085C3.60602 7.70206 3.58465 7.77176 3.5441 7.83029C3.49734 7.89519 3.43327 7.94564 3.35922 7.97586C3.26659 8.01242 3.16763 8.03024 3.06807 8.02827C2.97051 8.02883 2.87324 8.01759 2.77837 7.99479Z" fill="#263238"/>
<path d="M3.95831 7.1389H3.61621V6.83319H4.69346V7.1389H4.35136V8.0007H3.95831V7.1389Z" fill="#263238"/>
<path d="M5.0525 7.94968C4.98034 7.91058 4.9168 7.85735 4.86566 7.79316C4.81452 7.72898 4.77682 7.65516 4.75481 7.5761C4.73281 7.49704 4.72694 7.41435 4.73757 7.33298C4.74819 7.2516 4.77509 7.1732 4.81666 7.10244C4.87398 7.00995 4.95554 6.93493 5.0525 6.88553C5.15689 6.83195 5.2729 6.80495 5.39023 6.80692C5.50798 6.8053 5.62438 6.83228 5.72941 6.88553C5.82566 6.93539 5.90665 7.01033 5.96379 7.10244C6.02125 7.19716 6.05101 7.3061 6.04968 7.41688C6.05157 7.52773 6.02177 7.63682 5.96379 7.73132C5.90714 7.8242 5.82606 7.89973 5.72941 7.94968C5.62438 8.00294 5.50798 8.02991 5.39023 8.02829C5.2729 8.03027 5.15689 8.00327 5.0525 7.94968ZM5.5227 7.67309C5.56333 7.64887 5.59617 7.6135 5.61732 7.57119C5.64163 7.52346 5.65364 7.47042 5.65226 7.41688C5.65328 7.36337 5.64129 7.31042 5.61732 7.26257C5.59575 7.22093 5.56298 7.18615 5.5227 7.16213C5.48262 7.13829 5.43686 7.1257 5.39023 7.1257C5.3436 7.1257 5.29783 7.13829 5.25775 7.16213C5.21748 7.18615 5.18471 7.22093 5.16313 7.26257C5.13916 7.31042 5.12717 7.36337 5.12819 7.41688C5.12681 7.47042 5.13882 7.52346 5.16313 7.57119C5.18428 7.6135 5.21712 7.64887 5.25775 7.67309C5.29783 7.69693 5.3436 7.70951 5.39023 7.70951C5.43686 7.70951 5.48262 7.69693 5.5227 7.67309Z" fill="#263238"/>
<path d="M6.69316 7.70821H6.58543V7.99936H6.19238V6.83476H6.76012C6.85696 6.83307 6.95311 6.85141 7.04254 6.88862C7.11747 6.92091 7.18162 6.97394 7.22742 7.04148C7.27143 7.11157 7.29372 7.19312 7.29147 7.27585C7.29315 7.3525 7.2735 7.4281 7.23469 7.49421C7.19552 7.55744 7.1389 7.608 7.07165 7.63979L7.31767 7.99936H6.89114L6.69316 7.70821ZM6.84892 7.17395C6.81517 7.14715 6.77251 7.13415 6.72955 7.13756H6.58398V7.41124H6.72955C6.77251 7.41464 6.81517 7.40164 6.84892 7.37484C6.87473 7.34777 6.88913 7.3118 6.88913 7.2744C6.88913 7.23699 6.87473 7.20102 6.84892 7.17395Z" fill="#263238"/>
<path d="M8.40555 7.70371V7.99485H7.43457V6.83026H8.38371V7.12141H7.8218V7.25825H8.31529V7.54212H7.8218V7.69497L8.40555 7.70371Z" fill="#263238"/>
<path d="M35.8442 8.10989C35.8442 8.14963 35.8324 8.18847 35.8103 8.22151C35.7882 8.25454 35.7569 8.28029 35.7202 8.29549C35.6834 8.3107 35.6431 8.31468 35.6041 8.30693C35.5651 8.29918 35.5293 8.28004 35.5012 8.25195C35.4731 8.22385 35.454 8.18806 35.4462 8.14909C35.4385 8.11012 35.4425 8.06972 35.4577 8.03302C35.4729 7.99631 35.4986 7.96493 35.5317 7.94286C35.5647 7.92078 35.6035 7.909 35.6433 7.909C35.6697 7.90881 35.6959 7.91387 35.7204 7.9239C35.7448 7.93393 35.7671 7.94872 35.7858 7.96741C35.8045 7.9861 35.8192 8.00833 35.8293 8.03279C35.8393 8.05725 35.8444 8.08346 35.8442 8.10989Z" fill="#263238"/>
<path d="M36.8952 8.31078C37.0062 8.31078 37.0961 8.22084 37.0961 8.10989C37.0961 7.99894 37.0062 7.909 36.8952 7.909C36.7843 7.909 36.6943 7.99894 36.6943 8.10989C36.6943 8.22084 36.7843 8.31078 36.8952 8.31078Z" fill="#263238"/>
<path d="M35.4769 6.69191L35.3416 6.25519H34.835V6.39203H35.2397L35.6196 7.62795H36.9516L37.0681 6.80983L35.4769 6.69191ZM36.8468 7.53333L35.7128 7.52169L35.4988 6.79381L36.9385 6.90008L36.8468 7.53333Z" fill="#263238"/>
<path d="M20.6971 17.4426C20.6974 17.5222 20.6741 17.6001 20.63 17.6664C20.586 17.7327 20.5232 17.7844 20.4498 17.815C20.3763 17.8456 20.2954 17.8537 20.2173 17.8382C20.1392 17.8228 20.0675 17.7845 20.0112 17.7282C19.955 17.6719 19.9167 17.6002 19.9012 17.5221C19.8857 17.444 19.8938 17.3631 19.9244 17.2897C19.955 17.2162 20.0067 17.1534 20.073 17.1094C20.1393 17.0654 20.2172 17.042 20.2968 17.0423C20.403 17.0423 20.5048 17.0845 20.5799 17.1596C20.6549 17.2346 20.6971 17.3365 20.6971 17.4426Z" fill="#0F913D"/>
<path opacity="0.9" d="M20.6971 17.4426C20.6974 17.5222 20.6741 17.6001 20.63 17.6664C20.586 17.7327 20.5232 17.7844 20.4498 17.815C20.3763 17.8456 20.2954 17.8537 20.2173 17.8382C20.1392 17.8228 20.0675 17.7845 20.0112 17.7282C19.955 17.6719 19.9167 17.6002 19.9012 17.5221C19.8857 17.444 19.8938 17.3631 19.9244 17.2897C19.955 17.2162 20.0067 17.1534 20.073 17.1094C20.1393 17.0654 20.2172 17.042 20.2968 17.0423C20.403 17.0423 20.5048 17.0845 20.5799 17.1596C20.6549 17.2346 20.6971 17.3365 20.6971 17.4426Z" fill="white"/>
<path d="M21.869 17.4426C21.8693 17.5222 21.846 17.6 21.802 17.6662C21.758 17.7325 21.6954 17.7842 21.622 17.8149C21.5486 17.8455 21.4678 17.8537 21.3897 17.8383C21.3117 17.823 21.24 17.7848 21.1836 17.7287C21.1273 17.6726 21.0889 17.601 21.0733 17.523C21.0576 17.445 21.0655 17.3642 21.0959 17.2907C21.1262 17.2172 21.1777 17.1543 21.2438 17.1101C21.3099 17.0659 21.3877 17.0423 21.4672 17.0423C21.5199 17.0421 21.5721 17.0523 21.6209 17.0724C21.6696 17.0924 21.7139 17.1218 21.7512 17.159C21.7886 17.1962 21.8182 17.2404 21.8384 17.2891C21.8586 17.3378 21.869 17.3899 21.869 17.4426Z" fill="#0F913D"/>
<path opacity="0.9" d="M21.869 17.4426C21.8693 17.5222 21.846 17.6 21.802 17.6662C21.758 17.7325 21.6954 17.7842 21.622 17.8149C21.5486 17.8455 21.4678 17.8537 21.3897 17.8383C21.3117 17.823 21.24 17.7848 21.1836 17.7287C21.1273 17.6726 21.0889 17.601 21.0733 17.523C21.0576 17.445 21.0655 17.3642 21.0959 17.2907C21.1262 17.2172 21.1777 17.1543 21.2438 17.1101C21.3099 17.0659 21.3877 17.0423 21.4672 17.0423C21.5199 17.0421 21.5721 17.0523 21.6209 17.0724C21.6696 17.0924 21.7139 17.1218 21.7512 17.159C21.7886 17.1962 21.8182 17.2404 21.8384 17.2891C21.8586 17.3378 21.869 17.3899 21.869 17.4426Z" fill="white"/>
<path d="M23.0487 17.4646C23.049 17.5441 23.0257 17.6219 22.9817 17.6882C22.9377 17.7545 22.8751 17.8062 22.8017 17.8368C22.7283 17.8675 22.6474 17.8756 22.5694 17.8603C22.4914 17.845 22.4196 17.8068 22.3633 17.7507C22.307 17.6945 22.2686 17.623 22.2529 17.545C22.2373 17.467 22.2452 17.3861 22.2756 17.3126C22.3059 17.2391 22.3574 17.1763 22.4235 17.1321C22.4896 17.0879 22.5674 17.0643 22.6469 17.0643C22.7532 17.0643 22.8552 17.1064 22.9305 17.1814C23.0058 17.2565 23.0483 17.3583 23.0487 17.4646Z" fill="#0F913D"/>
<path opacity="0.9" d="M23.0487 17.4646C23.049 17.5441 23.0257 17.6219 22.9817 17.6882C22.9377 17.7545 22.8751 17.8062 22.8017 17.8368C22.7283 17.8675 22.6474 17.8756 22.5694 17.8603C22.4914 17.845 22.4196 17.8068 22.3633 17.7507C22.307 17.6945 22.2686 17.623 22.2529 17.545C22.2373 17.467 22.2452 17.3861 22.2756 17.3126C22.3059 17.2391 22.3574 17.1763 22.4235 17.1321C22.4896 17.0879 22.5674 17.0643 22.6469 17.0643C22.7532 17.0643 22.8552 17.1064 22.9305 17.1814C23.0058 17.2565 23.0483 17.3583 23.0487 17.4646Z" fill="white"/>
<path d="M24.2293 17.4646C24.2296 17.5441 24.2063 17.6219 24.1623 17.6882C24.1184 17.7545 24.0557 17.8062 23.9823 17.8368C23.9089 17.8675 23.8281 17.8756 23.7501 17.8603C23.672 17.845 23.6003 17.8068 23.544 17.7507C23.4876 17.6945 23.4492 17.623 23.4336 17.545C23.418 17.467 23.4259 17.3861 23.4562 17.3126C23.4866 17.2391 23.5381 17.1763 23.6042 17.1321C23.6703 17.0879 23.748 17.0643 23.8276 17.0643C23.9338 17.0647 24.0355 17.1069 24.1107 17.1819C24.186 17.2568 24.2286 17.3584 24.2293 17.4646Z" fill="#0F913D"/>
<path opacity="0.9" d="M24.2293 17.4646C24.2296 17.5441 24.2063 17.6219 24.1623 17.6882C24.1184 17.7545 24.0557 17.8062 23.9823 17.8368C23.9089 17.8675 23.8281 17.8756 23.7501 17.8603C23.672 17.845 23.6003 17.8068 23.544 17.7507C23.4876 17.6945 23.4492 17.623 23.4336 17.545C23.418 17.467 23.4259 17.3861 23.4562 17.3126C23.4866 17.2391 23.5381 17.1763 23.6042 17.1321C23.6703 17.0879 23.748 17.0643 23.8276 17.0643C23.9338 17.0647 24.0355 17.1069 24.1107 17.1819C24.186 17.2568 24.2286 17.3584 24.2293 17.4646Z" fill="white"/>
<path d="M25.4061 17.4646C25.4064 17.5441 25.3831 17.6219 25.3391 17.6882C25.2951 17.7545 25.2325 17.8062 25.1591 17.8368C25.0857 17.8675 25.0049 17.8756 24.9268 17.8603C24.8488 17.845 24.7771 17.8068 24.7207 17.7507C24.6644 17.6945 24.626 17.623 24.6104 17.545C24.5947 17.467 24.6026 17.3861 24.633 17.3126C24.6633 17.2391 24.7148 17.1763 24.7809 17.1321C24.8471 17.0879 24.9248 17.0643 25.0043 17.0643C25.1105 17.0647 25.2123 17.1069 25.2875 17.1819C25.3627 17.2568 25.4053 17.3584 25.4061 17.4646Z" fill="#0F913D"/>
<path opacity="0.5" d="M25.4061 17.4646C25.4064 17.5441 25.3831 17.6219 25.3391 17.6882C25.2951 17.7545 25.2325 17.8062 25.1591 17.8368C25.0857 17.8675 25.0049 17.8756 24.9268 17.8603C24.8488 17.845 24.7771 17.8068 24.7207 17.7507C24.6644 17.6945 24.626 17.623 24.6104 17.545C24.5947 17.467 24.6026 17.3861 24.633 17.3126C24.6633 17.2391 24.7148 17.1763 24.7809 17.1321C24.8471 17.0879 24.9248 17.0643 25.0043 17.0643C25.1105 17.0647 25.2123 17.1069 25.2875 17.1819C25.3627 17.2568 25.4053 17.3584 25.4061 17.4646Z" fill="white"/>
<path d="M26.5848 17.4646C26.5851 17.5441 26.5618 17.6219 26.5178 17.6882C26.4738 17.7545 26.4112 17.8062 26.3378 17.8368C26.2644 17.8675 26.1836 17.8756 26.1055 17.8603C26.0275 17.845 25.9558 17.8068 25.8994 17.7507C25.8431 17.6945 25.8047 17.623 25.7891 17.545C25.7735 17.467 25.7813 17.3861 25.8117 17.3126C25.8421 17.2391 25.8936 17.1763 25.9597 17.1321C26.0258 17.0879 26.1035 17.0643 26.183 17.0643C26.2892 17.0647 26.391 17.1069 26.4662 17.1819C26.5414 17.2568 26.5841 17.3584 26.5848 17.4646Z" fill="#0F913D"/>
<path opacity="0.9" d="M26.5848 17.4646C26.5851 17.5441 26.5618 17.6219 26.5178 17.6882C26.4738 17.7545 26.4112 17.8062 26.3378 17.8368C26.2644 17.8675 26.1836 17.8756 26.1055 17.8603C26.0275 17.845 25.9558 17.8068 25.8994 17.7507C25.8431 17.6945 25.8047 17.623 25.7891 17.545C25.7735 17.467 25.7813 17.3861 25.8117 17.3126C25.8421 17.2391 25.8936 17.1763 25.9597 17.1321C26.0258 17.0879 26.1035 17.0643 26.183 17.0643C26.2892 17.0647 26.391 17.1069 26.4662 17.1819C26.5414 17.2568 26.5841 17.3584 26.5848 17.4646Z" fill="white"/>
<path d="M27.7635 17.4646C27.7638 17.5441 27.7405 17.6219 27.6965 17.6882C27.6526 17.7545 27.5899 17.8062 27.5165 17.8368C27.4431 17.8675 27.3623 17.8756 27.2843 17.8603C27.2062 17.845 27.1345 17.8068 27.0782 17.7507C27.0218 17.6945 26.9834 17.623 26.9678 17.545C26.9522 17.467 26.96 17.3861 26.9904 17.3126C27.0208 17.2391 27.0723 17.1763 27.1384 17.1321C27.2045 17.0879 27.2822 17.0643 27.3617 17.0643C27.4679 17.0647 27.5697 17.1069 27.6449 17.1819C27.7201 17.2568 27.7628 17.3584 27.7635 17.4646Z" fill="#0F913D"/>
<path opacity="0.9" d="M27.7635 17.4646C27.7638 17.5441 27.7405 17.6219 27.6965 17.6882C27.6526 17.7545 27.5899 17.8062 27.5165 17.8368C27.4431 17.8675 27.3623 17.8756 27.2843 17.8603C27.2062 17.845 27.1345 17.8068 27.0782 17.7507C27.0218 17.6945 26.9834 17.623 26.9678 17.545C26.9522 17.467 26.96 17.3861 26.9904 17.3126C27.0208 17.2391 27.0723 17.1763 27.1384 17.1321C27.2045 17.0879 27.2822 17.0643 27.3617 17.0643C27.4679 17.0647 27.5697 17.1069 27.6449 17.1819C27.7201 17.2568 27.7628 17.3584 27.7635 17.4646Z" fill="white"/>
<path d="M28.9432 17.4646C28.9435 17.5442 28.9201 17.6221 28.8761 17.6884C28.8321 17.7547 28.7693 17.8064 28.6959 17.837C28.6224 17.8676 28.5415 17.8756 28.4634 17.8602C28.3853 17.8447 28.3136 17.8064 28.2573 17.7502C28.2011 17.6939 28.1628 17.6222 28.1473 17.5441C28.1318 17.466 28.1399 17.3851 28.1705 17.3116C28.2011 17.2382 28.2528 17.1754 28.3191 17.1314C28.3854 17.0873 28.4633 17.064 28.5429 17.0643C28.6489 17.0647 28.7505 17.107 28.8255 17.1819C28.9005 17.2569 28.9428 17.3585 28.9432 17.4646Z" fill="#0F913D"/>
<path opacity="0.9" d="M28.9432 17.4646C28.9435 17.5442 28.9201 17.6221 28.8761 17.6884C28.8321 17.7547 28.7693 17.8064 28.6959 17.837C28.6224 17.8676 28.5415 17.8756 28.4634 17.8602C28.3853 17.8447 28.3136 17.8064 28.2573 17.7502C28.2011 17.6939 28.1628 17.6222 28.1473 17.5441C28.1318 17.466 28.1399 17.3851 28.1705 17.3116C28.2011 17.2382 28.2528 17.1754 28.3191 17.1314C28.3854 17.0873 28.4633 17.064 28.5429 17.0643C28.6489 17.0647 28.7505 17.107 28.8255 17.1819C28.9005 17.2569 28.9428 17.3585 28.9432 17.4646Z" fill="white"/>
<path d="M16.6332 14.3347C16.4636 14.2988 16.301 14.2359 16.1514 14.1484L16.4221 13.5355C16.5475 13.6076 16.6815 13.6633 16.821 13.7015C16.9587 13.7414 17.1012 13.7624 17.2446 13.7641C17.3291 13.7691 17.4137 13.7572 17.4936 13.7291C17.515 13.7224 17.5337 13.709 17.547 13.691C17.5603 13.6729 17.5676 13.6511 17.5678 13.6287C17.5678 13.5763 17.5358 13.537 17.4703 13.5108C17.3653 13.4743 17.2578 13.4456 17.1486 13.4249C16.9855 13.3933 16.825 13.35 16.6682 13.2953C16.5395 13.2485 16.4244 13.1705 16.3333 13.0682C16.2318 12.9489 16.1797 12.7952 16.1878 12.6388C16.1864 12.4865 16.2321 12.3375 16.3188 12.2122C16.4182 12.0752 16.5552 11.97 16.7133 11.9094C16.9153 11.8303 17.1311 11.7927 17.348 11.7988C17.5174 11.7989 17.6863 11.8174 17.8517 11.8541C18.0045 11.8857 18.1518 11.9402 18.2884 12.0157L18.038 12.6228C17.8241 12.508 17.5863 12.4446 17.3436 12.4379C17.1282 12.4379 17.0204 12.4903 17.0204 12.5951C17.0204 12.6446 17.0525 12.6824 17.1165 12.7072C17.2196 12.7419 17.3252 12.7687 17.4324 12.7873C17.5956 12.8151 17.7562 12.856 17.9128 12.9095C18.0431 12.9558 18.16 13.0333 18.2535 13.1352C18.3551 13.2539 18.4073 13.4071 18.399 13.5632C18.4004 13.7152 18.354 13.8639 18.2666 13.9882C18.1669 14.1244 18.0306 14.2294 17.8735 14.291C17.6716 14.3706 17.4557 14.4087 17.2388 14.4031C17.035 14.4041 16.8317 14.3811 16.6332 14.3347Z" fill="#263238"/>
<path d="M20.3432 13.9126H19.3969L19.2295 14.3493H18.375L19.4639 11.8571H20.2908L21.3797 14.3493H20.5062L20.3432 13.9126ZM20.1117 13.3084L19.87 12.681L19.6284 13.3084H20.1117Z" fill="#263238"/>
<path d="M21.5137 11.8556H22.3536V13.6956H23.4789V14.3478H21.5137V11.8556Z" fill="#263238"/>
<path d="M25.7829 13.7146V14.3478H23.71V11.8556H25.7364V12.4888H24.5368V12.78H25.5908V13.3841H24.5368V13.7131L25.7829 13.7146Z" fill="#263238"/>
<path d="M41.6424 3.01202H1.48145V5.99338H41.6424V3.01202Z" fill="#0F913D"/>
<g opacity="0.7">
<path d="M41.6415 3.01184H1.48047V5.9932H41.6415V3.01184Z" fill="white"/>
</g>
<path d="M39.3775 5.31919H6.07155C5.85496 5.31919 5.64724 5.23315 5.49408 5.08C5.34092 4.92684 5.25488 4.71912 5.25488 4.50252C5.25488 4.28593 5.34092 4.0782 5.49408 3.92505C5.64724 3.77189 5.85496 3.68585 6.07155 3.68585H39.3775C39.5941 3.68585 39.8018 3.77189 39.9549 3.92505C40.1081 4.0782 40.1941 4.28593 40.1941 4.50252C40.1941 4.71912 40.1081 4.92684 39.9549 5.08C39.8018 5.23315 39.5941 5.31919 39.3775 5.31919Z" fill="#263238"/>
<path opacity="0.7" d="M39.3775 5.31919H6.07155C5.85496 5.31919 5.64724 5.23315 5.49408 5.08C5.34092 4.92684 5.25488 4.71912 5.25488 4.50252C5.25488 4.28593 5.34092 4.0782 5.49408 3.92505C5.64724 3.77189 5.85496 3.68585 6.07155 3.68585H39.3775C39.5941 3.68585 39.8018 3.77189 39.9549 3.92505C40.1081 4.0782 40.1941 4.28593 40.1941 4.50252C40.1941 4.71912 40.1081 4.92684 39.9549 5.08C39.8018 5.23315 39.5941 5.31919 39.3775 5.31919Z" fill="white"/>
<path d="M39.1189 3.87659L39.3227 4.28856L39.7769 4.35407L39.4479 4.67579L39.5251 5.12853L39.1189 4.91453L38.7113 5.12853L38.7899 4.67579L38.4609 4.35407L38.9151 4.28856L39.1189 3.87659Z" fill="#0F913D"/>
<path d="M20.8749 4.1839H6.27377C6.13066 4.1839 6.01465 4.29991 6.01465 4.44302V4.60315C6.01465 4.74626 6.13066 4.86228 6.27377 4.86228H20.8749C21.018 4.86228 21.134 4.74626 21.134 4.60315V4.44302C21.134 4.29991 21.018 4.1839 20.8749 4.1839Z" fill="#0F913D"/>
<path d="M3.60668 3.64661L2.70703 4.54626H2.97052V5.3571H4.24284V4.54626H4.50487L3.60668 3.64661Z" fill="#0F913D"/>
<path d="M12.4064 10.2716H6.68822C6.65216 10.2718 6.61641 10.2648 6.58304 10.2512C6.54967 10.2375 6.51933 10.2174 6.49376 10.1919C6.46819 10.1665 6.4479 10.1363 6.43406 10.103C6.42021 10.0697 6.41309 10.034 6.41309 9.99791C6.41309 9.92494 6.44207 9.85496 6.49367 9.80336C6.54527 9.75177 6.61525 9.72278 6.68822 9.72278H12.4064C12.4791 9.72316 12.5487 9.75232 12.6 9.80388C12.6513 9.85543 12.6801 9.92519 12.6801 9.99791C12.6801 10.0705 12.6512 10.1401 12.5999 10.1914C12.5486 10.2428 12.479 10.2716 12.4064 10.2716Z" fill="#0F913D"/>
<path d="M12.4064 11.3693H6.68822C6.65216 11.3695 6.61642 11.3626 6.58304 11.3489C6.54967 11.3352 6.51933 11.3151 6.49376 11.2897C6.46819 11.2642 6.44791 11.234 6.43406 11.2007C6.42022 11.1674 6.41309 11.1317 6.41309 11.0956C6.4129 11.0594 6.41988 11.0236 6.43364 10.9901C6.4474 10.9566 6.46766 10.9262 6.49324 10.9007C6.51883 10.8751 6.54924 10.8548 6.58271 10.8411C6.61618 10.8273 6.65204 10.8203 6.68822 10.8205H12.4064C12.4424 10.8205 12.4781 10.8276 12.5114 10.8415C12.5447 10.8553 12.575 10.8756 12.6004 10.9012C12.6258 10.9267 12.646 10.9571 12.6596 10.9905C12.6733 11.0238 12.6803 11.0596 12.6801 11.0956C12.6801 11.1682 12.6512 11.2378 12.5999 11.2892C12.5486 11.3405 12.479 11.3693 12.4064 11.3693Z" fill="#0F913D"/>
<path d="M12.4064 12.4671H6.68822C6.65216 12.4673 6.61642 12.4603 6.58304 12.4467C6.54967 12.433 6.51933 12.4129 6.49376 12.3874C6.46819 12.362 6.44791 12.3318 6.43406 12.2985C6.42022 12.2652 6.41309 12.2295 6.41309 12.1934C6.4129 12.1572 6.41988 12.1214 6.43364 12.0879C6.4474 12.0544 6.46766 12.024 6.49324 11.9984C6.51883 11.9728 6.54924 11.9526 6.58271 11.9388C6.61618 11.9251 6.65204 11.9181 6.68822 11.9183H12.4064C12.4424 11.9183 12.4781 11.9254 12.5114 11.9392C12.5447 11.9531 12.575 11.9734 12.6004 11.999C12.6258 12.0245 12.646 12.0549 12.6596 12.0882C12.6733 12.1216 12.6803 12.1574 12.6801 12.1934C12.6801 12.266 12.6512 12.3356 12.5999 12.3869C12.5486 12.4383 12.479 12.4671 12.4064 12.4671Z" fill="#0F913D"/>
<path d="M12.4064 13.5646H6.68822C6.61525 13.5646 6.54527 13.5356 6.49367 13.484C6.44207 13.4324 6.41309 13.3624 6.41309 13.2894C6.41309 13.2534 6.42021 13.2177 6.43406 13.1844C6.4479 13.1511 6.46819 13.1208 6.49376 13.0954C6.51933 13.07 6.54967 13.0498 6.58304 13.0362C6.61641 13.0225 6.65216 13.0156 6.68822 13.0158H12.4064C12.479 13.0158 12.5486 13.0446 12.5999 13.0959C12.6512 13.1472 12.6801 13.2168 12.6801 13.2894C12.6801 13.3621 12.6513 13.4319 12.6 13.4835C12.5487 13.535 12.4791 13.5642 12.4064 13.5646Z" fill="#0F913D"/>
<path d="M12.4064 14.6608H6.68822C6.61525 14.6608 6.54527 14.6318 6.49367 14.5802C6.44207 14.5286 6.41309 14.4587 6.41309 14.3857C6.41309 14.3496 6.42021 14.3139 6.43406 14.2806C6.4479 14.2473 6.46819 14.2171 6.49376 14.1916C6.51933 14.1662 6.54967 14.1461 6.58304 14.1324C6.61641 14.1187 6.65216 14.1118 6.68822 14.112H12.4064C12.479 14.112 12.5486 14.1408 12.5999 14.1922C12.6512 14.2435 12.6801 14.3131 12.6801 14.3857C12.6801 14.4584 12.6513 14.5282 12.6 14.5797C12.5487 14.6313 12.4791 14.6604 12.4064 14.6608Z" fill="#0F913D"/>
<path d="M12.4064 15.7598H6.68822C6.61525 15.7598 6.54527 15.7308 6.49367 15.6792C6.44207 15.6276 6.41309 15.5576 6.41309 15.4846C6.41309 15.4486 6.42021 15.4128 6.43406 15.3796C6.4479 15.3463 6.46819 15.316 6.49376 15.2906C6.51933 15.2652 6.54967 15.245 6.58304 15.2314C6.61641 15.2177 6.65216 15.2107 6.68822 15.2109H12.4064C12.479 15.2109 12.5486 15.2398 12.5999 15.2911C12.6512 15.3424 12.6801 15.412 12.6801 15.4846C12.6801 15.5573 12.6513 15.6271 12.6 15.6787C12.5487 15.7302 12.4791 15.7594 12.4064 15.7598Z" fill="#0F913D"/>
<path d="M12.4064 16.8575H6.68822C6.61525 16.8575 6.54527 16.8285 6.49367 16.7769C6.44207 16.7254 6.41309 16.6554 6.41309 16.5824C6.41309 16.5463 6.42021 16.5106 6.43406 16.4773C6.4479 16.444 6.46819 16.4138 6.49376 16.3884C6.51933 16.3629 6.54967 16.3428 6.58304 16.3291C6.61641 16.3155 6.65216 16.3085 6.68822 16.3087H12.4064C12.479 16.3087 12.5486 16.3376 12.5999 16.3889C12.6512 16.4402 12.6801 16.5098 12.6801 16.5824C12.6801 16.6551 12.6513 16.7249 12.6 16.7764C12.5487 16.828 12.4791 16.8571 12.4064 16.8575Z" fill="#0F913D"/>
<path d="M12.4064 17.9549H6.68822C6.61525 17.9549 6.54527 17.926 6.49367 17.8744C6.44207 17.8228 6.41309 17.7528 6.41309 17.6798C6.41309 17.6437 6.42021 17.608 6.43406 17.5747C6.4479 17.5414 6.46819 17.5112 6.49376 17.4858C6.51933 17.4603 6.54967 17.4402 6.58304 17.4265C6.61641 17.4129 6.65216 17.4059 6.68822 17.4061H12.4064C12.479 17.4061 12.5486 17.435 12.5999 17.4863C12.6512 17.5376 12.6801 17.6072 12.6801 17.6798C12.6801 17.7525 12.6513 17.8223 12.6 17.8739C12.5487 17.9254 12.4791 17.9546 12.4064 17.9549Z" fill="#0F913D"/>
<g opacity="0.5">
<path d="M12.4074 10.2717H6.6892C6.65314 10.2719 6.61739 10.265 6.58402 10.2513C6.55064 10.2376 6.5203 10.2175 6.49474 10.1921C6.46917 10.1666 6.44888 10.1364 6.43503 10.1031C6.42119 10.0698 6.41406 10.0341 6.41406 9.99804C6.41406 9.92507 6.44305 9.85508 6.49465 9.80349C6.54625 9.75189 6.61623 9.7229 6.6892 9.7229H12.4074C12.4801 9.72329 12.5497 9.75244 12.601 9.804C12.6522 9.85555 12.681 9.92532 12.681 9.99804C12.681 10.0706 12.6522 10.1402 12.6009 10.1916C12.5495 10.2429 12.4799 10.2717 12.4074 10.2717Z" fill="white"/>
<path d="M12.4074 11.3695H6.6892C6.65314 11.3697 6.61739 11.3628 6.58402 11.3491C6.55065 11.3354 6.52031 11.3153 6.49474 11.2899C6.46917 11.2644 6.44888 11.2342 6.43504 11.2009C6.42119 11.1676 6.41407 11.1319 6.41407 11.0958C6.41387 11.0596 6.42086 11.0238 6.43462 10.9903C6.44838 10.9568 6.46863 10.9264 6.49422 10.9008C6.51981 10.8753 6.55022 10.855 6.58368 10.8412C6.61715 10.8275 6.65302 10.8205 6.6892 10.8207H12.4074C12.4434 10.8207 12.4791 10.8278 12.5124 10.8417C12.5457 10.8555 12.576 10.8758 12.6014 10.9014C12.6268 10.9269 12.647 10.9573 12.6606 10.9906C12.6743 11.024 12.6812 11.0598 12.681 11.0958C12.681 11.1684 12.6522 11.238 12.6009 11.2893C12.5496 11.3407 12.4799 11.3695 12.4074 11.3695Z" fill="white"/>
<path d="M12.4074 12.4669H6.6892C6.65314 12.4671 6.61739 12.4602 6.58402 12.4465C6.55065 12.4328 6.52031 12.4127 6.49474 12.3873C6.46917 12.3618 6.44888 12.3316 6.43504 12.2983C6.42119 12.265 6.41407 12.2293 6.41407 12.1932C6.41387 12.157 6.42086 12.1212 6.43462 12.0877C6.44838 12.0542 6.46863 12.0238 6.49422 11.9982C6.51981 11.9727 6.55022 11.9524 6.58368 11.9386C6.61715 11.9249 6.65302 11.9179 6.6892 11.9181H12.4074C12.4434 11.9181 12.4791 11.9252 12.5124 11.9391C12.5457 11.9529 12.576 11.9732 12.6014 11.9988C12.6268 12.0243 12.647 12.0547 12.6606 12.088C12.6743 12.1214 12.6812 12.1572 12.681 12.1932C12.681 12.2658 12.6522 12.3354 12.6009 12.3868C12.5496 12.4381 12.4799 12.4669 12.4074 12.4669Z" fill="white"/>
<path d="M12.4074 13.5647H6.6892C6.61623 13.5647 6.54625 13.5357 6.49465 13.4841C6.44305 13.4325 6.41406 13.3625 6.41406 13.2896C6.41406 13.2535 6.42119 13.2178 6.43503 13.1845C6.44888 13.1512 6.46917 13.1209 6.49474 13.0955C6.5203 13.0701 6.55064 13.05 6.58402 13.0363C6.61739 13.0226 6.65314 13.0157 6.6892 13.0159H12.4074C12.4799 13.0159 12.5495 13.0447 12.6009 13.096C12.6522 13.1474 12.681 13.217 12.681 13.2896C12.681 13.3623 12.6522 13.432 12.601 13.4836C12.5497 13.5351 12.4801 13.5643 12.4074 13.5647Z" fill="white"/>
<path d="M12.4074 14.6607H6.6892C6.61623 14.6607 6.54625 14.6317 6.49465 14.5801C6.44305 14.5285 6.41406 14.4585 6.41406 14.3856C6.41406 14.3495 6.42119 14.3138 6.43503 14.2805C6.44888 14.2472 6.46917 14.217 6.49474 14.1915C6.5203 14.1661 6.55064 14.146 6.58402 14.1323C6.61739 14.1186 6.65314 14.1117 6.6892 14.1119H12.4074C12.4799 14.1119 12.5495 14.1407 12.6009 14.192C12.6522 14.2434 12.681 14.313 12.681 14.3856C12.681 14.4583 12.6522 14.528 12.601 14.5796C12.5497 14.6312 12.4801 14.6603 12.4074 14.6607Z" fill="white"/>
<path d="M12.4074 15.7599H6.6892C6.61623 15.7599 6.54625 15.7309 6.49465 15.6793C6.44305 15.6277 6.41406 15.5577 6.41406 15.4847C6.41406 15.4487 6.42119 15.413 6.43503 15.3797C6.44888 15.3464 6.46917 15.3161 6.49474 15.2907C6.5203 15.2653 6.55064 15.2451 6.58402 15.2315C6.61739 15.2178 6.65314 15.2109 6.6892 15.2111H12.4074C12.4799 15.2111 12.5495 15.2399 12.6009 15.2912C12.6522 15.3425 12.681 15.4122 12.681 15.4847C12.681 15.5575 12.6522 15.6272 12.601 15.6788C12.5497 15.7303 12.4801 15.7595 12.4074 15.7599Z" fill="white"/>
<path d="M12.4074 16.8573H6.6892C6.61623 16.8573 6.54625 16.8284 6.49465 16.7768C6.44305 16.7252 6.41406 16.6552 6.41406 16.5822C6.41406 16.5462 6.42119 16.5104 6.43503 16.4771C6.44888 16.4438 6.46917 16.4136 6.49474 16.3882C6.5203 16.3627 6.55064 16.3426 6.58402 16.329C6.61739 16.3153 6.65314 16.3083 6.6892 16.3085H12.4074C12.4799 16.3085 12.5495 16.3374 12.6009 16.3887C12.6522 16.44 12.681 16.5096 12.681 16.5822C12.681 16.6549 12.6522 16.7247 12.601 16.7763C12.5497 16.8278 12.4801 16.857 12.4074 16.8573Z" fill="white"/>
<path d="M12.4074 17.9551H6.6892C6.61623 17.9551 6.54625 17.9261 6.49465 17.8745C6.44305 17.823 6.41406 17.753 6.41406 17.68C6.41406 17.6439 6.42119 17.6082 6.43503 17.5749C6.44888 17.5416 6.46917 17.5114 6.49474 17.486C6.5203 17.4605 6.55064 17.4404 6.58402 17.4267C6.61739 17.4131 6.65314 17.4061 6.6892 17.4063H12.4074C12.4799 17.4063 12.5495 17.4352 12.6009 17.4865C12.6522 17.5378 12.681 17.6074 12.681 17.68C12.681 17.7527 12.6522 17.8225 12.601 17.874C12.5497 17.9256 12.4801 17.9547 12.4074 17.9551Z" fill="white"/>
</g>
<path d="M20.9797 19.488H2.35352V25.4012H20.9797V19.488Z" fill="#0F913D"/>
<g opacity="0.7">
<path d="M20.9797 19.4882H2.35352V25.4014H20.9797V19.4882Z" fill="white"/>
</g>
<path d="M6.58718 20.0411H3.34961V23.2787H6.58718V20.0411Z" fill="#0F913D"/>
<path d="M6.40949 23.5336H3.49219V23.7607H6.40949V23.5336Z" fill="#0F913D"/>
<path opacity="0.2" d="M6.40949 23.5336H3.49219V23.7607H6.40949V23.5336Z" fill="white"/>
<path d="M6.40949 23.8509H3.49219V24.078H6.40949V23.8509Z" fill="#0F913D"/>
<path opacity="0.2" d="M6.40949 23.8509H3.49219V24.078H6.40949V23.8509Z" fill="white"/>
<path d="M4.91299 24.6516H3.49219V24.8786H4.91299V24.6516Z" fill="#0F913D"/>
<path opacity="0.2" d="M4.91299 24.6516H3.49219V24.8786H4.91299V24.6516Z" fill="white"/>
<path d="M4.46462 24.2308H3.49219V24.5409H4.46462V24.2308Z" fill="#0F913D"/>
<path opacity="0.2" d="M4.46462 24.2308H3.49219V24.5409H4.46462V24.2308Z" fill="white"/>
<path d="M19.8811 20.0411H16.6436V23.2787H19.8811V20.0411Z" fill="#0F913D"/>
<path d="M19.7054 23.5336H16.7881V23.7607H19.7054V23.5336Z" fill="#0F913D"/>
<path opacity="0.2" d="M19.7054 23.5336H16.7881V23.7607H19.7054V23.5336Z" fill="white"/>
<path d="M19.7054 23.8509H16.7881V24.078H19.7054V23.8509Z" fill="#0F913D"/>
<path opacity="0.2" d="M19.7054 23.8509H16.7881V24.078H19.7054V23.8509Z" fill="white"/>
<path d="M18.2089 24.6516H16.7881V24.8786H18.2089V24.6516Z" fill="#0F913D"/>
<path opacity="0.2" d="M18.2089 24.6516H16.7881V24.8786H18.2089V24.6516Z" fill="white"/>
<path d="M17.7605 24.2308H16.7881V24.5409H17.7605V24.2308Z" fill="#0F913D"/>
<path opacity="0.2" d="M17.7605 24.2308H16.7881V24.5409H17.7605V24.2308Z" fill="white"/>
<path d="M11.1643 20.0411H7.92676V23.2787H11.1643V20.0411Z" fill="#0F913D"/>
<path d="M10.9896 23.5336H8.07227V23.7607H10.9896V23.5336Z" fill="#0F913D"/>
<path opacity="0.2" d="M10.9896 23.5336H8.07227V23.7607H10.9896V23.5336Z" fill="white"/>
<path d="M10.9896 23.8509H8.07227V24.078H10.9896V23.8509Z" fill="#0F913D"/>
<path opacity="0.2" d="M10.9896 23.8509H8.07227V24.078H10.9896V23.8509Z" fill="white"/>
<path d="M9.49307 24.6516H8.07227V24.8786H9.49307V24.6516Z" fill="#0F913D"/>
<path opacity="0.2" d="M9.49307 24.6516H8.07227V24.8786H9.49307V24.6516Z" fill="white"/>
<path d="M9.0447 24.2308H8.07227V24.5409H9.0447V24.2308Z" fill="#0F913D"/>
<path opacity="0.2" d="M9.0447 24.2308H8.07227V24.5409H9.0447V24.2308Z" fill="white"/>
<path d="M15.5237 20.0411H12.2861V23.2787H15.5237V20.0411Z" fill="#0F913D"/>
<path d="M15.3489 23.5336H12.4316V23.7607H15.3489V23.5336Z" fill="#0F913D"/>
<path opacity="0.2" d="M15.3489 23.5336H12.4316V23.7607H15.3489V23.5336Z" fill="white"/>
<path d="M15.3489 23.8509H12.4316V24.078H15.3489V23.8509Z" fill="#0F913D"/>
<path opacity="0.2" d="M15.3489 23.8509H12.4316V24.078H15.3489V23.8509Z" fill="white"/>
<path d="M13.8524 24.6516H12.4316V24.8786H13.8524V24.6516Z" fill="#0F913D"/>
<path opacity="0.2" d="M13.8524 24.6516H12.4316V24.8786H13.8524V24.6516Z" fill="white"/>
<path d="M13.4041 24.2308H12.4316V24.5409H13.4041V24.2308Z" fill="#0F913D"/>
<path opacity="0.2" d="M13.4041 24.2308H12.4316V24.5409H13.4041V24.2308Z" fill="white"/>
<path d="M40.4065 19.488H21.7803V25.4012H40.4065V19.488Z" fill="#0F913D"/>
<g opacity="0.7">
<path d="M40.4084 19.4882H21.7822V25.4014H40.4084V19.4882Z" fill="white"/>
</g>
<path d="M26.0608 20.0411H22.8232V23.2787H26.0608V20.0411Z" fill="#0F913D"/>
<path d="M25.889 23.5336H22.9717V23.7607H25.889V23.5336Z" fill="#0F913D"/>
<path opacity="0.2" d="M25.889 23.5336H22.9717V23.7607H25.889V23.5336Z" fill="white"/>
<path d="M25.889 23.8509H22.9717V24.078H25.889V23.8509Z" fill="#0F913D"/>
<path opacity="0.2" d="M25.889 23.8509H22.9717V24.078H25.889V23.8509Z" fill="white"/>
<path d="M24.3925 24.6516H22.9717V24.8786H24.3925V24.6516Z" fill="#0F913D"/>
<path opacity="0.2" d="M24.3925 24.6516H22.9717V24.8786H24.3925V24.6516Z" fill="white"/>
<path d="M23.9441 24.2308H22.9717V24.5409H23.9441V24.2308Z" fill="#0F913D"/>
<path opacity="0.2" d="M23.9441 24.2308H22.9717V24.5409H23.9441V24.2308Z" fill="white"/>
<path d="M39.3596 20.0411H36.1221V23.2787H39.3596V20.0411Z" fill="#0F913D"/>
<path d="M39.182 23.5336H36.2646V23.7607H39.182V23.5336Z" fill="#0F913D"/>
<path opacity="0.2" d="M39.182 23.5336H36.2646V23.7607H39.182V23.5336Z" fill="white"/>
<path d="M39.182 23.8509H36.2646V24.078H39.182V23.8509Z" fill="#0F913D"/>
<path opacity="0.2" d="M39.182 23.8509H36.2646V24.078H39.182V23.8509Z" fill="white"/>
<path d="M37.6855 24.6516H36.2646V24.8786H37.6855V24.6516Z" fill="#0F913D"/>
<path opacity="0.2" d="M37.6855 24.6516H36.2646V24.8786H37.6855V24.6516Z" fill="white"/>
<path d="M37.2371 24.2308H36.2646V24.5409H37.2371V24.2308Z" fill="#0F913D"/>
<path opacity="0.2" d="M37.2371 24.2308H36.2646V24.5409H37.2371V24.2308Z" fill="white"/>
<path d="M30.6428 20.0411H27.4053V23.2787H30.6428V20.0411Z" fill="#0F913D"/>
<path d="M30.4681 23.5336H27.5508V23.7607H30.4681V23.5336Z" fill="#0F913D"/>
<path opacity="0.2" d="M30.4681 23.5336H27.5508V23.7607H30.4681V23.5336Z" fill="white"/>
<path d="M30.4681 23.8509H27.5508V24.078H30.4681V23.8509Z" fill="#0F913D"/>
<path opacity="0.2" d="M30.4681 23.8509H27.5508V24.078H30.4681V23.8509Z" fill="white"/>
<path d="M28.9716 24.6516H27.5508V24.8786H28.9716V24.6516Z" fill="#0F913D"/>
<path opacity="0.2" d="M28.9716 24.6516H27.5508V24.8786H28.9716V24.6516Z" fill="white"/>
<path d="M28.5232 24.2308H27.5508V24.5409H28.5232V24.2308Z" fill="#0F913D"/>
<path opacity="0.2" d="M28.5232 24.2308H27.5508V24.5409H28.5232V24.2308Z" fill="white"/>
<path d="M35.0003 20.0411H31.7627V23.2787H35.0003V20.0411Z" fill="#0F913D"/>
<path d="M34.8255 23.5336H31.9082V23.7607H34.8255V23.5336Z" fill="#0F913D"/>
<path opacity="0.2" d="M34.8255 23.5336H31.9082V23.7607H34.8255V23.5336Z" fill="white"/>
<path d="M34.8255 23.8509H31.9082V24.078H34.8255V23.8509Z" fill="#0F913D"/>
<path opacity="0.2" d="M34.8255 23.8509H31.9082V24.078H34.8255V23.8509Z" fill="white"/>
<path d="M33.329 24.6516H31.9082V24.8786H33.329V24.6516Z" fill="#0F913D"/>
<path opacity="0.2" d="M33.329 24.6516H31.9082V24.8786H33.329V24.6516Z" fill="white"/>
<path d="M32.8806 24.2308H31.9082V24.5409H32.8806V24.2308Z" fill="#0F913D"/>
<path opacity="0.2" d="M32.8806 24.2308H31.9082V24.5409H32.8806V24.2308Z" fill="white"/>
<path d="M34.4134 16.9784C37.6663 16.9784 40.3033 16.6297 40.3033 16.1995C40.3033 15.7694 37.6663 15.4207 34.4134 15.4207C31.1605 15.4207 28.5234 15.7694 28.5234 16.1995C28.5234 16.6297 31.1605 16.9784 34.4134 16.9784Z" fill="#0F913D"/>
<path opacity="0.1" d="M34.4134 16.9784C37.6663 16.9784 40.3033 16.6297 40.3033 16.1995C40.3033 15.7694 37.6663 15.4207 34.4134 15.4207C31.1605 15.4207 28.5234 15.7694 28.5234 16.1995C28.5234 16.6297 31.1605 16.9784 34.4134 16.9784Z" fill="black"/>
<path d="M35.0012 15.8837L34.3709 14.4891H32.9006L33.1262 15.7992C33.1295 15.8163 33.1289 15.8338 33.1245 15.8505C33.1201 15.8673 33.1121 15.8829 33.1009 15.8961C33.0897 15.9094 33.0758 15.92 33.06 15.9271C33.0442 15.9343 33.0271 15.9378 33.0097 15.9375H32.3663C32.3497 15.9375 32.3338 15.9441 32.322 15.9559C32.3103 15.9676 32.3037 15.9835 32.3037 16.0001V16.07C32.3037 16.0782 32.3053 16.0864 32.3085 16.094C32.3116 16.1016 32.3162 16.1085 32.322 16.1143C32.3279 16.1201 32.3348 16.1247 32.3424 16.1278C32.3499 16.131 32.3581 16.1326 32.3663 16.1326H34.9575C34.9664 16.1326 34.9753 16.1308 34.9835 16.1274C34.9917 16.1239 34.9992 16.1189 35.0054 16.1125C35.0116 16.1061 35.0165 16.0986 35.0198 16.0903C35.0231 16.082 35.0247 16.0731 35.0245 16.0642V15.9929C35.0247 15.9552 35.0168 15.918 35.0012 15.8837Z" fill="#0F913D"/>
<path opacity="0.2" d="M33.0345 15.9316H32.3663C32.3497 15.9316 32.3338 15.9382 32.322 15.95C32.3103 15.9617 32.3037 15.9776 32.3037 15.9942V16.0641C32.3037 16.0807 32.3103 16.0966 32.322 16.1084C32.3338 16.1201 32.3497 16.1267 32.3663 16.1267H34.9575C34.9757 16.1267 34.9931 16.1195 35.0059 16.1067C35.0187 16.0938 35.0259 16.0764 35.0259 16.0583V15.9869C35.0259 15.9678 35.0234 15.9487 35.0187 15.9302L33.0345 15.9316Z" fill="white"/>
<path d="M35.0873 15.8837L34.457 14.4891H34.374L35.0029 15.8837C35.0174 15.9167 35.0248 15.9524 35.0247 15.9885V16.0598C35.0249 16.0687 35.0233 16.0776 35.0201 16.0859C35.0168 16.0942 35.0119 16.1017 35.0057 16.1081C34.9994 16.1145 34.992 16.1196 34.9837 16.123C34.9755 16.1265 34.9667 16.1282 34.9578 16.1282H35.0408C35.0497 16.1282 35.0586 16.1265 35.0669 16.123C35.0752 16.1196 35.0828 16.1146 35.0891 16.1082C35.0955 16.1018 35.1005 16.0943 35.104 16.086C35.1074 16.0777 35.1092 16.0688 35.1092 16.0598V15.9885C35.1092 15.9524 35.1018 15.9167 35.0873 15.8837Z" fill="#0F913D"/>
<g opacity="0.2">
<path d="M35.0883 15.8835L34.458 14.4889H34.375L35.0039 15.8835C35.0183 15.9165 35.0258 15.9522 35.0257 15.9883V16.0596C35.0259 16.0685 35.0243 16.0774 35.021 16.0857C35.0178 16.094 35.0129 16.1016 35.0066 16.1079C35.0004 16.1143 34.9929 16.1194 34.9847 16.1228C34.9765 16.1263 34.9677 16.1281 34.9588 16.1281H35.0417C35.0507 16.1281 35.0596 16.1263 35.0679 16.1228C35.0762 16.1194 35.0838 16.1144 35.0901 16.108C35.0965 16.1017 35.1015 16.0941 35.1049 16.0858C35.1084 16.0775 35.1102 16.0686 35.1102 16.0596V15.9883C35.1102 15.9522 35.1027 15.9166 35.0883 15.8835Z" fill="black"/>
</g>
<path opacity="0.2" d="M34.3731 14.4891H32.9014L32.9596 14.8224H34.5245L34.3731 14.4891Z" fill="black"/>
<path d="M36.629 14.6359H30.3446C30.3152 14.6363 30.286 14.6305 30.2591 14.6187C30.2321 14.607 30.2079 14.5897 30.1881 14.568C30.1683 14.5463 30.1533 14.5206 30.1442 14.4927C30.135 14.4647 30.1319 14.4352 30.1349 14.4059L30.5324 9.86839C30.5384 9.8062 30.5671 9.7484 30.613 9.70599C30.6589 9.66358 30.7188 9.63952 30.7813 9.63839H37.0628C37.0922 9.63799 37.1213 9.64385 37.1482 9.65557C37.1751 9.66729 37.1992 9.68461 37.2189 9.70637C37.2385 9.72813 37.2534 9.75383 37.2624 9.78176C37.2714 9.8097 37.2743 9.83923 37.271 9.86839L36.875 14.4059C36.8684 14.4674 36.84 14.5245 36.7948 14.5667C36.7496 14.6089 36.6908 14.6335 36.629 14.6359Z" fill="#263238"/>
<path d="M30.1806 13.9154L30.1369 14.406C30.1338 14.4352 30.1369 14.4648 30.1461 14.4927C30.1553 14.5207 30.1703 14.5463 30.1901 14.5681C30.2099 14.5898 30.234 14.6071 30.261 14.6188C30.288 14.6305 30.3171 14.6364 30.3465 14.636H36.6266C36.6891 14.6346 36.749 14.6105 36.7951 14.5682C36.8412 14.5258 36.8703 14.4682 36.877 14.406L36.9192 13.9154H30.1806Z" fill="#0F913D"/>
<path d="M36.7001 13.7771H30.4288C30.4128 13.7774 30.3969 13.7743 30.3822 13.768C30.3675 13.7616 30.3543 13.7522 30.3435 13.7404C30.3328 13.7285 30.3247 13.7145 30.3198 13.6992C30.3149 13.684 30.3133 13.6678 30.3152 13.6519L30.6428 9.90193C30.6474 9.86865 30.6634 9.83799 30.6881 9.81517C30.7128 9.79235 30.7446 9.77877 30.7782 9.77674H37.0495C37.0656 9.77618 37.0816 9.77913 37.0964 9.78539C37.1112 9.79165 37.1245 9.80106 37.1353 9.81298C37.1461 9.8249 37.1542 9.83904 37.159 9.8544C37.1638 9.86976 37.1652 9.88598 37.163 9.90193L36.8355 13.6519C36.8308 13.6852 36.8148 13.7159 36.7902 13.7387C36.7655 13.7615 36.7337 13.7751 36.7001 13.7771Z" fill="#0F913D"/>
<path d="M36.7001 13.7771H30.4288C30.4128 13.7774 30.3969 13.7743 30.3822 13.768C30.3675 13.7616 30.3543 13.7522 30.3435 13.7404C30.3328 13.7285 30.3247 13.7145 30.3198 13.6992C30.3149 13.684 30.3133 13.6678 30.3152 13.6519L30.6428 9.90193C30.6474 9.86865 30.6634 9.83799 30.6881 9.81517C30.7128 9.79235 30.7446 9.77877 30.7782 9.77674H37.0495C37.0656 9.77618 37.0816 9.77913 37.0964 9.78539C37.1112 9.79165 37.1245 9.80106 37.1353 9.81298C37.1461 9.8249 37.1542 9.83904 37.159 9.8544C37.1638 9.86976 37.1652 9.88598 37.163 9.90193L36.8355 13.6519C36.8308 13.6852 36.8148 13.7159 36.7902 13.7387C36.7655 13.7615 36.7337 13.7751 36.7001 13.7771Z" fill="#0F913D"/>
<path d="M37.2044 9.63854H37.0661C37.0954 9.63814 37.1245 9.644 37.1514 9.65572C37.1784 9.66745 37.2025 9.68476 37.2221 9.70652C37.2418 9.72828 37.2567 9.75398 37.2657 9.78192C37.2746 9.80985 37.2776 9.83939 37.2743 9.86855L36.8783 14.4061C36.8716 14.4683 36.8425 14.5259 36.7964 14.5683C36.7504 14.6106 36.6905 14.6347 36.6279 14.6361H36.7735C36.8359 14.6347 36.8956 14.6105 36.9414 14.5681C36.9873 14.5258 37.0161 14.4682 37.0224 14.4061L37.4198 9.86855C37.423 9.83881 37.4197 9.80874 37.4102 9.78038C37.4007 9.75203 37.3852 9.72605 37.3648 9.70423C37.3443 9.6824 37.3194 9.66523 37.2917 9.6539C37.2641 9.64256 37.2343 9.63732 37.2044 9.63854Z" fill="#0F913D"/>
<path opacity="0.2" d="M37.2044 9.63854H37.0661C37.0954 9.63814 37.1245 9.644 37.1514 9.65572C37.1784 9.66745 37.2025 9.68476 37.2221 9.70652C37.2418 9.72828 37.2567 9.75398 37.2657 9.78192C37.2746 9.80985 37.2776 9.83939 37.2743 9.86855L36.8783 14.4061C36.8716 14.4683 36.8425 14.5259 36.7964 14.5683C36.7504 14.6106 36.6905 14.6347 36.6279 14.6361H36.7735C36.8359 14.6347 36.8956 14.6105 36.9414 14.5681C36.9873 14.5258 37.0161 14.4682 37.0224 14.4061L37.4198 9.86855C37.423 9.83881 37.4197 9.80874 37.4102 9.78038C37.4007 9.75203 37.3852 9.72605 37.3648 9.70423C37.3443 9.6824 37.3194 9.66523 37.2917 9.6539C37.2641 9.64256 37.2343 9.63732 37.2044 9.63854Z" fill="#0F913D"/>
<g opacity="0.3">
<path d="M36.9649 9.77649H36.7232L35.873 13.7769H36.1132L36.9649 9.77649Z" fill="white"/>
<path d="M35.6272 13.7769L36.4773 9.77649H35.5718L34.7217 13.7769H35.6272Z" fill="white"/>
</g>
<path opacity="0.6" d="M30.1806 13.9154L30.1369 14.406C30.1338 14.4352 30.1369 14.4648 30.1461 14.4927C30.1553 14.5207 30.1703 14.5463 30.1901 14.5681C30.2099 14.5898 30.234 14.6071 30.261 14.6188C30.288 14.6305 30.3171 14.6364 30.3465 14.636H36.6266C36.6891 14.6346 36.749 14.6105 36.7951 14.5682C36.8412 14.5258 36.8703 14.4682 36.877 14.406L36.9192 13.9154H30.1806Z" fill="white"/>
<path opacity="0.2" d="M37.2044 9.64293H37.0661C37.0954 9.64254 37.1245 9.6484 37.1514 9.66012C37.1784 9.67184 37.2025 9.68916 37.2221 9.71092C37.2418 9.73267 37.2567 9.75838 37.2657 9.78631C37.2746 9.81425 37.2776 9.84378 37.2743 9.87294L36.8783 14.4105C36.8716 14.4727 36.8425 14.5303 36.7964 14.5726C36.7504 14.615 36.6905 14.6391 36.6279 14.6405H36.7735C36.8359 14.639 36.8956 14.6149 36.9414 14.5725C36.9873 14.5302 37.0161 14.4726 37.0224 14.4105L37.4198 9.87294C37.423 9.8432 37.4197 9.81313 37.4102 9.78478C37.4007 9.75642 37.3852 9.73045 37.3648 9.70862C37.3443 9.68679 37.3194 9.66963 37.2917 9.65829C37.2641 9.64696 37.2343 9.64172 37.2044 9.64293Z" fill="white"/>
<path d="M34.0293 15.9083H37.8768C37.9019 15.9086 37.9268 15.9036 37.9499 15.8936C37.973 15.8836 37.9936 15.8689 38.0105 15.8503C38.0275 15.8317 38.0403 15.8098 38.0481 15.7859C38.0559 15.762 38.0585 15.7367 38.0559 15.7117L37.8157 12.9662C37.81 12.9132 37.7851 12.864 37.7456 12.8281C37.7062 12.7922 37.655 12.7719 37.6017 12.7711H33.7541C33.7291 12.7708 33.7044 12.7758 33.6814 12.7857C33.6585 12.7956 33.6379 12.8102 33.621 12.8286C33.6041 12.847 33.5913 12.8688 33.5833 12.8925C33.5754 12.9162 33.5726 12.9413 33.5751 12.9662L33.8153 15.7117C33.8206 15.765 33.8454 15.8145 33.8848 15.8507C33.9243 15.887 33.9757 15.9075 34.0293 15.9083Z" fill="#263238"/>
<path opacity="0.4" d="M34.0293 15.9083H37.8768C37.9019 15.9086 37.9268 15.9036 37.9499 15.8936C37.973 15.8836 37.9936 15.8689 38.0105 15.8503C38.0275 15.8317 38.0403 15.8098 38.0481 15.7859C38.0559 15.762 38.0585 15.7367 38.0559 15.7117L37.8157 12.9662C37.81 12.9132 37.7851 12.864 37.7456 12.8281C37.7062 12.7922 37.655 12.7719 37.6017 12.7711H33.7541C33.7291 12.7708 33.7044 12.7758 33.6814 12.7857C33.6585 12.7956 33.6379 12.8102 33.621 12.8286C33.6041 12.847 33.5913 12.8688 33.5833 12.8925C33.5754 12.9162 33.5726 12.9413 33.5751 12.9662L33.8153 15.7117C33.8206 15.765 33.8454 15.8145 33.8848 15.8507C33.9243 15.887 33.9757 15.9075 34.0293 15.9083Z" fill="white"/>
<path d="M34.0996 15.9083H37.9471C37.9722 15.9086 37.9972 15.9036 38.0202 15.8936C38.0433 15.8836 38.0639 15.8689 38.0809 15.8503C38.0978 15.8317 38.1106 15.8098 38.1184 15.7859C38.1262 15.762 38.1288 15.7367 38.1262 15.7117L37.886 12.9662C37.8803 12.9132 37.8554 12.864 37.816 12.8281C37.7765 12.7922 37.7253 12.7719 37.672 12.7711H33.8245C33.7995 12.7708 33.7747 12.7758 33.7517 12.7857C33.7288 12.7956 33.7082 12.8102 33.6913 12.8286C33.6744 12.847 33.6616 12.8688 33.6537 12.8925C33.6458 12.9162 33.6429 12.9413 33.6454 12.9662L33.8856 15.7117C33.8909 15.765 33.9157 15.8145 33.9552 15.8507C33.9946 15.887 34.046 15.9075 34.0996 15.9083Z" fill="#263238"/>
<path opacity="0.7" d="M34.0996 15.9083H37.9471C37.9722 15.9086 37.9972 15.9036 38.0202 15.8936C38.0433 15.8836 38.0639 15.8689 38.0809 15.8503C38.0978 15.8317 38.1106 15.8098 38.1184 15.7859C38.1262 15.762 38.1288 15.7367 38.1262 15.7117L37.886 12.9662C37.8803 12.9132 37.8554 12.864 37.816 12.8281C37.7765 12.7922 37.7253 12.7719 37.672 12.7711H33.8245C33.7995 12.7708 33.7747 12.7758 33.7517 12.7857C33.7288 12.7956 33.7082 12.8102 33.6913 12.8286C33.6744 12.847 33.6616 12.8688 33.6537 12.8925C33.6458 12.9162 33.6429 12.9413 33.6454 12.9662L33.8856 15.7117C33.8909 15.765 33.9157 15.8145 33.9552 15.8507C33.9946 15.887 34.046 15.9075 34.0996 15.9083Z" fill="white"/>
<path d="M34.042 15.7132H37.971L37.7308 12.9662H33.8018L34.042 15.7132Z" fill="#0F913D"/>
<path opacity="0.5" d="M34.042 15.7132H37.971L37.7308 12.9662H33.8018L34.042 15.7132Z" fill="white"/>
<path d="M34.1299 16.1705H38.0604C38.1017 16.1707 38.1427 16.1627 38.181 16.147C38.2192 16.1312 38.2539 16.1081 38.2832 16.0789C38.3124 16.0496 38.3356 16.0149 38.3513 15.9766C38.367 15.9384 38.375 15.8974 38.3748 15.8561H33.8184C33.8182 15.8972 33.8261 15.9379 33.8416 15.976C33.8572 16.014 33.8801 16.0486 33.909 16.0778C33.9379 16.107 33.9723 16.1302 34.0102 16.1461C34.0481 16.162 34.0888 16.1703 34.1299 16.1705Z" fill="#263238"/>
<path opacity="0.2" d="M34.1299 16.1705H38.0604C38.1017 16.1707 38.1427 16.1627 38.181 16.147C38.2192 16.1312 38.2539 16.1081 38.2832 16.0789C38.3124 16.0496 38.3356 16.0149 38.3513 15.9766C38.367 15.9384 38.375 15.8974 38.3748 15.8561H33.8184C33.8182 15.8972 33.8261 15.9379 33.8416 15.976C33.8572 16.014 33.8801 16.0486 33.909 16.0778C33.9379 16.107 33.9723 16.1302 34.0102 16.1461C34.0481 16.162 34.0888 16.1703 34.1299 16.1705Z" fill="white"/>
<path d="M34.4424 16.1705H38.3729C38.4142 16.1705 38.4551 16.1624 38.4932 16.1466C38.5314 16.1308 38.566 16.1076 38.5952 16.0784C38.6244 16.0492 38.6476 16.0146 38.6634 15.9764C38.6792 15.9383 38.6873 15.8974 38.6873 15.8561H34.1279C34.1279 15.9395 34.1611 16.0195 34.22 16.0784C34.279 16.1374 34.359 16.1705 34.4424 16.1705Z" fill="#263238"/>
<path opacity="0.5" d="M34.4424 16.1705H38.3729C38.4142 16.1705 38.4551 16.1624 38.4932 16.1466C38.5314 16.1308 38.566 16.1076 38.5952 16.0784C38.6244 16.0492 38.6476 16.0146 38.6634 15.9764C38.6792 15.9383 38.6873 15.8974 38.6873 15.8561H34.1279C34.1279 15.9395 34.1611 16.0195 34.22 16.0784C34.279 16.1374 34.359 16.1705 34.4424 16.1705Z" fill="white"/>
<path opacity="0.3" d="M36.8167 15.8561C36.8007 15.884 36.7776 15.9073 36.7497 15.9234C36.7218 15.9395 36.6902 15.9479 36.658 15.9478H36.1587C36.1264 15.9481 36.0947 15.9397 36.0668 15.9236C36.0389 15.9074 36.0159 15.8841 36 15.8561H36.8167Z" fill="black"/>
<path d="M32.6631 12.6825H32.3516L32.0371 16.2724H32.3486C32.4211 16.2728 32.491 16.2461 32.5449 16.1977C32.5987 16.1492 32.6325 16.0824 32.6398 16.0104L32.9076 12.9446C32.9115 12.9107 32.9079 12.8764 32.8972 12.8441C32.8865 12.8118 32.8689 12.7821 32.8457 12.7572C32.8225 12.7323 32.7941 12.7128 32.7626 12.6999C32.7311 12.687 32.6971 12.6811 32.6631 12.6825Z" fill="#263238"/>
<path d="M32.2844 16.2722H31.0019C30.9684 16.2728 30.9351 16.2663 30.9043 16.253C30.8734 16.2397 30.8458 16.22 30.8232 16.1952C30.8006 16.1704 30.7836 16.1411 30.7732 16.1092C30.7629 16.0773 30.7594 16.0435 30.7632 16.0102L31.031 12.9444C31.0381 12.8735 31.0709 12.8078 31.1233 12.7595C31.1756 12.7112 31.2437 12.6838 31.3149 12.6823H32.5989C32.6324 12.6819 32.6655 12.6886 32.6962 12.702C32.7269 12.7153 32.7545 12.735 32.777 12.7598C32.7996 12.7845 32.8166 12.8138 32.8271 12.8456C32.8375 12.8774 32.8411 12.9111 32.8376 12.9444L32.5683 16.0102C32.5612 16.081 32.5284 16.1468 32.4761 16.195C32.4238 16.2433 32.3556 16.2708 32.2844 16.2722Z" fill="#0F913D"/>
<path d="M32.5931 12.7422H32.2598C32.2488 12.7422 32.2383 12.746 32.2298 12.7529C32.2214 12.7598 32.2155 12.7693 32.2132 12.78V12.7917C32.2071 12.8173 32.1926 12.8403 32.172 12.8569C32.1515 12.8735 32.126 12.8828 32.0996 12.8834H31.7823C31.7573 12.8838 31.7331 12.8744 31.7149 12.8573C31.6967 12.8402 31.6859 12.8166 31.6847 12.7917V12.78C31.6844 12.7698 31.6801 12.7602 31.6727 12.7531C31.6654 12.7461 31.6556 12.7421 31.6454 12.7422H31.3121C31.257 12.743 31.2041 12.764 31.1635 12.8014C31.123 12.8387 31.0976 12.8897 31.0922 12.9445L30.8244 16.0103C30.8215 16.036 30.8241 16.062 30.832 16.0866C30.84 16.1111 30.853 16.1338 30.8704 16.1529C30.8877 16.172 30.909 16.1873 30.9327 16.1976C30.9564 16.2079 30.982 16.213 31.0078 16.2126H32.2918C32.3466 16.2115 32.3991 16.1902 32.4394 16.1529C32.4796 16.1157 32.5048 16.0649 32.5101 16.0103L32.778 12.9445C32.7812 12.9187 32.7787 12.8924 32.7708 12.8676C32.7628 12.8428 32.7496 12.82 32.7321 12.8008C32.7145 12.7816 32.693 12.7664 32.669 12.7563C32.645 12.7461 32.6191 12.7413 32.5931 12.7422Z" fill="#0F913D"/>
<path opacity="0.7" d="M32.5931 12.7422H32.2598C32.2488 12.7422 32.2383 12.746 32.2298 12.7529C32.2214 12.7598 32.2155 12.7693 32.2132 12.78V12.7917C32.2071 12.8173 32.1926 12.8403 32.172 12.8569C32.1515 12.8735 32.126 12.8828 32.0996 12.8834H31.7823C31.7573 12.8838 31.7331 12.8744 31.7149 12.8573C31.6967 12.8402 31.6859 12.8166 31.6847 12.7917V12.78C31.6844 12.7698 31.6801 12.7602 31.6727 12.7531C31.6654 12.7461 31.6556 12.7421 31.6454 12.7422H31.3121C31.257 12.743 31.2041 12.764 31.1635 12.8014C31.123 12.8387 31.0976 12.8897 31.0922 12.9445L30.8244 16.0103C30.8215 16.036 30.8241 16.062 30.832 16.0866C30.84 16.1111 30.853 16.1338 30.8704 16.1529C30.8877 16.172 30.909 16.1873 30.9327 16.1976C30.9564 16.2079 30.982 16.213 31.0078 16.2126H32.2918C32.3466 16.2115 32.3991 16.1902 32.4394 16.1529C32.4796 16.1157 32.5048 16.0649 32.5101 16.0103L32.778 12.9445C32.7812 12.9187 32.7787 12.8924 32.7708 12.8676C32.7628 12.8428 32.7496 12.82 32.7321 12.8008C32.7145 12.7816 32.693 12.7664 32.669 12.7563C32.645 12.7461 32.6191 12.7413 32.5931 12.7422Z" fill="white"/>
<g opacity="0.2">
<path d="M31.8715 12.777C31.8707 12.7838 31.8675 12.7901 31.8624 12.7947C31.8573 12.7993 31.8507 12.8018 31.8438 12.8017C31.8406 12.802 31.8373 12.8015 31.8343 12.8003C31.8312 12.7992 31.8285 12.7973 31.8262 12.7949C31.824 12.7926 31.8223 12.7897 31.8213 12.7866C31.8204 12.7835 31.8201 12.7802 31.8205 12.777C31.8209 12.7699 31.824 12.7632 31.8291 12.7584C31.8343 12.7535 31.8411 12.7508 31.8482 12.7508C31.8515 12.7508 31.8548 12.7515 31.8578 12.7528C31.8609 12.7541 31.8636 12.7561 31.8658 12.7586C31.868 12.7611 31.8696 12.764 31.8706 12.7672C31.8716 12.7704 31.8719 12.7737 31.8715 12.777Z" fill="black"/>
<path d="M32.0547 12.7508H31.9673C31.9602 12.7508 31.9534 12.7535 31.9483 12.7584C31.9431 12.7632 31.94 12.7699 31.9397 12.777C31.9392 12.7802 31.9395 12.7835 31.9405 12.7866C31.9415 12.7897 31.9432 12.7926 31.9454 12.7949C31.9476 12.7973 31.9504 12.7992 31.9534 12.8003C31.9564 12.8015 31.9597 12.802 31.9629 12.8017H32.0503C32.0571 12.8015 32.0635 12.7989 32.0686 12.7943C32.0736 12.7898 32.0769 12.7837 32.078 12.777C32.0784 12.7737 32.0781 12.7704 32.0771 12.7672C32.0761 12.764 32.0745 12.7611 32.0723 12.7586C32.07 12.7561 32.0673 12.7541 32.0643 12.7528C32.0613 12.7515 32.058 12.7508 32.0547 12.7508Z" fill="black"/>
</g>
<path d="M31.2354 12.8834H31.2616L31.2645 12.8558H31.2368L31.2354 12.8834Z" fill="#0F913D"/>
<path d="M31.2905 12.8556L31.2891 12.8833H31.3167L31.3182 12.8556L31.3211 12.8294H31.2934L31.2905 12.8556Z" fill="#0F913D"/>
<path d="M31.3501 12.8019L31.3471 12.8295L31.3457 12.8557L31.3428 12.8834H31.3704L31.3719 12.8557L31.3748 12.8295L31.3763 12.8019H31.3501Z" fill="#0F913D"/>
<path d="M32.5121 12.8033V12.8237H32.499V12.863H32.5121V12.8834H32.6315V12.8033H32.5121ZM32.5602 12.863H32.5194V12.8237H32.5587L32.5602 12.863Z" fill="#0F913D"/>
<g opacity="0.4">
<path d="M31.7811 12.8832L30.8945 16.1776C30.9268 16.2005 30.9655 16.2127 31.0052 16.2125H31.0707L31.966 12.8832H31.7811Z" fill="white"/>
<path d="M32.5934 12.742H32.26C32.2491 12.7421 32.2386 12.7459 32.2301 12.7528C32.2216 12.7597 32.2158 12.7692 32.2134 12.7799V12.7915C32.2075 12.8165 32.1937 12.839 32.1741 12.8555C32.1544 12.872 32.1299 12.8817 32.1043 12.8832L31.209 16.2125H31.8917L32.7768 12.9138C32.7746 12.867 32.7541 12.8228 32.7199 12.7908C32.6857 12.7587 32.6403 12.7412 32.5934 12.742Z" fill="white"/>
</g>
</svg>
