<svg width="43" height="48" viewBox="0 0 43 48" fill="none" xmlns="http://www.w3.org/2000/svg">
<path d="M41.0436 0.150024H13.6934C13.2252 0.150024 12.8457 0.52956 12.8457 0.997741V27.6246C12.8457 28.0928 13.2252 28.4723 13.6934 28.4723H41.0436C41.5118 28.4723 41.8913 28.0928 41.8913 27.6246V0.997741C41.8913 0.52956 41.5118 0.150024 41.0436 0.150024Z" fill="white"/>
<mask id="mask0_585_40981" style="mask-type:luminance" maskUnits="userSpaceOnUse" x="12" y="0" width="30" height="29">
<path d="M41.0445 0.150146H13.6944C13.2262 0.150146 12.8467 0.529682 12.8467 0.997863V27.6247C12.8467 28.0929 13.2262 28.4724 13.6944 28.4724H41.0445C41.5127 28.4724 41.8923 28.0929 41.8923 27.6247V0.997863C41.8923 0.529682 41.5127 0.150146 41.0445 0.150146Z" fill="white"/>
</mask>
<g mask="url(#mask0_585_40981)">
<path d="M37.3899 26.2331H30.6569C30.2364 26.2331 29.8331 26.066 29.5357 25.7687C29.2383 25.4713 29.0713 25.068 29.0713 24.6474C29.0713 24.2269 29.2383 23.8236 29.5357 23.5262C29.8331 23.2288 30.2364 23.0618 30.6569 23.0618H37.3899C37.8104 23.0618 38.2138 23.2288 38.5111 23.5262C38.8085 23.8236 38.9756 24.2269 38.9756 24.6474C38.9756 25.068 38.8085 25.4713 38.5111 25.7687C38.2138 26.066 37.8104 26.2331 37.3899 26.2331Z" fill="#0F913D" stroke="#263238" stroke-width="0.3" stroke-linecap="round" stroke-linejoin="round"/>
<path d="M32.3023 25.4257H32.0449L32.001 25.1305H31.6875L31.6436 25.4257H31.4131L31.6729 23.8035H32.0461L32.3023 25.4257ZM31.7205 24.911H31.9644L31.8424 24.0901L31.7205 24.911Z" fill="#263238"/>
<path d="M33.1574 24.8207V25.0354C33.1574 25.2952 33.0281 25.444 32.778 25.444C32.528 25.444 32.3975 25.2952 32.3975 25.0354V24.1925C32.3975 23.9327 32.5268 23.7852 32.778 23.7852C33.0293 23.7852 33.1574 23.9327 33.1574 24.1925V24.3499H32.9134V24.1767C32.9134 24.0608 32.8622 24.0169 32.7805 24.0169C32.6987 24.0169 32.6487 24.0608 32.6487 24.1767V25.0525C32.6487 25.1683 32.7 25.2098 32.7805 25.2098C32.861 25.2098 32.9134 25.1683 32.9134 25.0525V24.8207H33.1574Z" fill="#263238"/>
<path d="M34.0538 24.8207V25.0354C34.0538 25.2952 33.9233 25.444 33.6733 25.444C33.4232 25.444 33.2939 25.2952 33.2939 25.0354V24.1925C33.2939 23.9327 33.4232 23.7852 33.6733 23.7852C33.9233 23.7852 34.0538 23.9327 34.0538 24.1925V24.3499H33.8099V24.1767C33.8099 24.0608 33.7587 24.0169 33.6782 24.0169C33.5977 24.0169 33.5464 24.0608 33.5464 24.1767V25.0525C33.5464 25.1683 33.5964 25.2098 33.6782 25.2098C33.7599 25.2098 33.8099 25.1683 33.8099 25.0525V24.8207H34.0538Z" fill="#263238"/>
<path d="M34.4629 24.4865H34.813V24.7183H34.4629V25.194H34.9033V25.4257H34.208V23.8035H34.9033V24.0377H34.4629V24.4865Z" fill="#263238"/>
<path d="M35.817 24.2035V24.4146C35.817 24.6744 35.6951 24.8159 35.4365 24.8159H35.3145V25.4257H35.0596V23.8035H35.4389C35.6914 23.8035 35.817 23.945 35.817 24.2035ZM35.3169 24.0377V24.5865H35.4389C35.5206 24.5865 35.5609 24.5499 35.5609 24.4341V24.1901C35.5609 24.0682 35.517 24.0377 35.4389 24.0377H35.3169Z" fill="#263238"/>
<path d="M35.8604 23.8035H36.6483V24.0377H36.3824V25.4282H36.1275V24.0377H35.8604V23.8035Z" fill="#263238"/>
<path d="M24.0742 26.2331H17.3425C16.922 26.2331 16.5186 26.066 16.2213 25.7687C15.9239 25.4713 15.7568 25.068 15.7568 24.6474C15.7568 24.2269 15.9239 23.8236 16.2213 23.5262C16.5186 23.2288 16.922 23.0618 17.3425 23.0618H24.0742C24.4948 23.0618 24.8981 23.2288 25.1955 23.5262C25.4928 23.8236 25.6599 24.2269 25.6599 24.6474C25.6599 25.068 25.4928 25.4713 25.1955 25.7687C24.8981 26.066 24.4948 26.2331 24.0742 26.2331Z" fill="#0F913D"/>
<mask id="mask1_585_40981" style="mask-type:luminance" maskUnits="userSpaceOnUse" x="15" y="23" width="11" height="4">
<path d="M24.0703 26.2328H17.3386C16.918 26.2328 16.5147 26.0657 16.2174 25.7683C15.92 25.471 15.7529 25.0677 15.7529 24.6471C15.7529 24.2266 15.92 23.8233 16.2174 23.5259C16.5147 23.2285 16.918 23.0615 17.3386 23.0615H24.0703C24.4909 23.0615 24.8942 23.2285 25.1915 23.5259C25.4889 23.8233 25.656 24.2266 25.656 24.6471C25.656 25.0677 25.4889 25.471 25.1915 25.7683C24.8942 26.0657 24.4909 26.2328 24.0703 26.2328Z" fill="white"/>
</mask>
<g mask="url(#mask1_585_40981)">
<path opacity="0.6" d="M24.0703 26.2328H17.3386C16.918 26.2328 16.5147 26.0657 16.2174 25.7683C15.92 25.471 15.7529 25.0677 15.7529 24.6471C15.7529 24.2266 15.92 23.8233 16.2174 23.5259C16.5147 23.2285 16.918 23.0615 17.3386 23.0615H24.0703C24.4909 23.0615 24.8942 23.2285 25.1915 23.5259C25.4889 23.8233 25.656 24.2266 25.656 24.6471C25.656 25.0677 25.4889 25.471 25.1915 25.7683C24.8942 26.0657 24.4909 26.2328 24.0703 26.2328Z" fill="white"/>
</g>
<path d="M24.0742 26.2331H17.3425C16.922 26.2331 16.5186 26.066 16.2213 25.7687C15.9239 25.4713 15.7568 25.068 15.7568 24.6474C15.7568 24.2269 15.9239 23.8236 16.2213 23.5262C16.5186 23.2288 16.922 23.0618 17.3425 23.0618H24.0742C24.4948 23.0618 24.8981 23.2288 25.1955 23.5262C25.4928 23.8236 25.6599 24.2269 25.6599 24.6474C25.6599 25.068 25.4928 25.4713 25.1955 25.7687C24.8981 26.066 24.4948 26.2331 24.0742 26.2331Z" stroke="#263238" stroke-width="0.3" stroke-linecap="round" stroke-linejoin="round"/>
<path d="M17.9189 23.8035H18.3227C18.5776 23.8035 18.702 23.945 18.702 24.2035V25.0244C18.702 25.2842 18.58 25.4257 18.3227 25.4257H17.9189V23.8035ZM18.1739 24.0352V25.194H18.3178C18.3983 25.194 18.4471 25.1513 18.4471 25.0354V24.1926C18.4471 24.0767 18.3983 24.0352 18.3178 24.0352H18.1739Z" fill="#263238"/>
<path d="M19.1192 24.4865H19.4692V24.7183H19.1192V25.194H19.5595V25.4257H18.8643V23.8035H19.5595V24.0377H19.1192V24.4865Z" fill="#263238"/>
<path d="M20.4581 24.8207V25.0354C20.4581 25.2952 20.3288 25.444 20.0776 25.444C19.8263 25.444 19.6982 25.2952 19.6982 25.0354V24.1925C19.6982 23.9327 19.8275 23.7852 20.0776 23.7852C20.3276 23.7852 20.4581 23.9327 20.4581 24.1925V24.3499H20.2142V24.1767C20.2142 24.0608 20.1642 24.0169 20.0825 24.0169C20.0007 24.0169 19.9507 24.0608 19.9507 24.1767V25.0525C19.9507 25.1683 20.002 25.2098 20.0825 25.2098C20.163 25.2098 20.2142 25.1683 20.2142 25.0525V24.8207H20.4581Z" fill="#263238"/>
<path d="M20.6123 23.8035H20.8672V25.194H21.2893V25.4257H20.6147L20.6123 23.8035Z" fill="#263238"/>
<path d="M21.3994 23.8035H21.6556V25.4257H21.3994V23.8035Z" fill="#263238"/>
<path d="M22.0721 24.2499V25.4257H21.8428V23.8035H22.1623L22.4197 24.7793V23.8035H22.6466V25.4257H22.388L22.0721 24.2499Z" fill="#263238"/>
<path d="M23.084 24.4865H23.4341V24.7183H23.084V25.194H23.5244V25.4257H22.8291V23.8035H23.5244V24.0377H23.084V24.4865Z" fill="#263238"/>
<path d="M33.9754 12.9379C33.9754 14.2457 33.5876 15.5241 32.861 16.6115C32.1344 17.6988 31.1018 18.5463 29.8935 19.0468C28.6853 19.5473 27.3558 19.6782 26.0732 19.4231C24.7906 19.1679 23.6124 18.5382 22.6876 17.6135C21.7629 16.6887 21.1332 15.5105 20.878 14.2279C20.6229 12.9453 20.7538 11.6158 21.2543 10.4075C21.7548 9.19933 22.6023 8.16665 23.6896 7.44009C24.777 6.71353 26.0554 6.32573 27.3632 6.32573C28.2324 6.32235 29.0938 6.49106 29.8976 6.82216C30.7013 7.15325 31.4316 7.64017 32.0462 8.25485C32.6609 8.86952 33.1478 9.59979 33.4789 10.4035C33.81 11.2073 33.9788 12.0687 33.9754 12.9379Z" fill="#0F913D" stroke="#263238" stroke-width="0.5" stroke-linecap="round" stroke-linejoin="round"/>
<path d="M32.8579 16.6154C32.2658 17.4994 31.4691 18.2275 30.5355 18.7378C29.6019 19.2481 28.5589 19.5255 27.4951 19.5466C26.4314 19.5677 25.3782 19.3317 24.4251 18.8588C23.472 18.3859 22.6472 17.6899 22.0205 16.8301C22.0595 16.7642 22.0986 16.6984 22.1425 16.6337C22.3864 16.23 23.8794 15.5908 25.9907 15.3615C26.4672 15.3091 26.9459 15.2806 27.4252 15.2762C27.9442 15.2712 28.4629 15.3014 28.9779 15.3664C30.8124 15.5957 32.3383 16.2032 32.8579 16.6154Z" fill="#757575" stroke="#263238" stroke-width="0.3" stroke-linecap="round" stroke-linejoin="round"/>
<path d="M29.1333 15.5227C28.9686 15.8143 28.7282 16.056 28.4375 16.2223C28.1469 16.3887 27.8167 16.4736 27.4818 16.468C26.506 16.468 25.7998 15.6239 25.7998 15.6239C26.1413 15.3178 26.1657 14.7494 26.1121 14.3017C26.0899 14.0824 26.0491 13.8653 25.9901 13.6528H28.9004C28.7235 14.2346 28.7296 14.6518 28.7979 14.9421C28.8943 15.3702 29.1333 15.5227 29.1333 15.5227Z" fill="white" stroke="#263238" stroke-width="0.3" stroke-linecap="round" stroke-linejoin="round"/>
<path d="M28.791 14.9421C26.6882 15.4934 26.271 14.292 26.271 14.292L26.1112 14.3017C26.089 14.0824 26.0482 13.8653 25.9893 13.6528H28.8996C28.7166 14.2346 28.7227 14.6518 28.791 14.9421Z" fill="#263238"/>
<path d="M29.5265 11.6097C29.5265 11.6097 29.7607 11.3548 29.8766 11.4389C29.9542 11.5024 30.0128 11.5861 30.046 11.6808C30.0791 11.7755 30.0855 11.8775 30.0644 11.9756C30.0022 12.1927 29.7302 12.5696 29.7082 12.7892C29.6863 13.0087 29.5472 13.2575 29.3923 13.1124C29.2374 12.9672 29.5265 11.6097 29.5265 11.6097Z" fill="white" stroke="#263238" stroke-width="0.3" stroke-linecap="round" stroke-linejoin="round"/>
<path d="M25.3499 11.6097C25.3499 11.6097 25.1157 11.3548 24.9998 11.4389C24.9222 11.5024 24.8636 11.5861 24.8304 11.6808C24.7973 11.7755 24.7909 11.8775 24.812 11.9756C24.8742 12.1927 25.1462 12.5696 25.1682 12.7892C25.1901 13.0087 25.3292 13.2575 25.4841 13.1124C25.639 12.9672 25.3499 11.6097 25.3499 11.6097Z" fill="white" stroke="#263238" stroke-width="0.3" stroke-linecap="round" stroke-linejoin="round"/>
<path d="M27.3887 8.66895C30.3368 8.66895 29.6354 12.5941 29.0963 13.854C28.906 14.2968 27.918 14.8774 27.4411 14.8774C26.9971 14.8774 25.9774 14.1834 25.8018 13.7674C25.2505 12.4989 24.5833 8.66895 27.3887 8.66895Z" fill="white" stroke="#263238" stroke-width="0.3" stroke-linecap="round" stroke-linejoin="round"/>
<path d="M27.8877 11.0901C27.8877 11.0901 28.6549 10.8523 28.8928 11.3268" stroke="#263238" stroke-width="0.2" stroke-linecap="round" stroke-linejoin="round"/>
<path d="M28.4571 11.7352C28.4571 11.8255 28.4108 11.8987 28.3547 11.8987C28.2985 11.8987 28.251 11.8255 28.251 11.7352C28.251 11.645 28.2973 11.5718 28.3547 11.5718C28.412 11.5718 28.4571 11.645 28.4571 11.7352Z" fill="#263238"/>
<path d="M26.9885 11.0901C26.9885 11.0901 26.2212 10.8523 25.9834 11.3268" stroke="#263238" stroke-width="0.2" stroke-linecap="round" stroke-linejoin="round"/>
<path d="M26.4189 11.7352C26.4189 11.8255 26.4653 11.8987 26.5214 11.8987C26.5775 11.8987 26.6251 11.8255 26.6251 11.7352C26.6251 11.645 26.5787 11.5718 26.5214 11.5718C26.4641 11.5718 26.4189 11.645 26.4189 11.7352Z" fill="#263238"/>
<path d="M28.6072 9.67036C27.8685 9.90628 27.0747 9.90628 26.336 9.67036C26.336 9.67036 25.9372 9.64718 25.781 9.84722C25.6249 10.0473 25.781 10.6644 25.8225 10.9157C25.864 11.167 25.4773 11.3414 25.5298 11.9757L25.3798 12.1952C25.3798 12.1952 24.9638 11.1731 25.0687 10.2949C25.1736 9.41665 25.7286 9.07512 25.7286 9.07512C25.7286 9.07512 25.9811 8.31523 27.4643 8.32133C29.0634 8.32742 29.2244 9.19222 29.2244 9.19222C29.2244 9.19222 30.3075 9.91552 29.5061 12.2696L29.3329 11.9769C29.3742 11.6646 29.3024 11.3479 29.1304 11.084C28.9902 10.8803 29.2134 10.268 29.1609 9.95333C29.1085 9.63864 28.6072 9.67036 28.6072 9.67036Z" fill="#263238"/>
<path d="M27.6141 11.5718C27.6141 11.5718 27.6226 12.289 27.8105 12.522C27.9068 12.6439 27.719 12.9001 27.4287 12.9464" stroke="#263238" stroke-width="0.2" stroke-linecap="round" stroke-linejoin="round"/>
<path d="M26.7939 13.3625C26.8143 13.4365 26.849 13.5056 26.8961 13.5661C26.9432 13.6266 27.0017 13.6772 27.0684 13.7151C27.2696 13.8017 27.8819 13.7651 27.9978 13.6931C28.1137 13.6211 28.171 13.3857 28.171 13.3857" fill="white"/>
<path d="M26.7939 13.3625C26.8143 13.4365 26.849 13.5056 26.8961 13.5661C26.9432 13.6266 27.0017 13.6772 27.0684 13.7151C27.2696 13.8017 27.8819 13.7651 27.9978 13.6931C28.1137 13.6211 28.171 13.3857 28.171 13.3857" stroke="#263238" stroke-width="0.2" stroke-linecap="round" stroke-linejoin="round"/>
<path d="M26.7275 13.3479C27.2293 13.4554 27.7481 13.4554 28.2498 13.3479" stroke="#263238" stroke-width="0.2" stroke-linecap="round" stroke-linejoin="round"/>
<path d="M28.894 9.70082C28.894 9.70082 28.5647 10.1887 27.4816 10.2948C27.5642 10.218 27.6295 10.1245 27.6731 10.0204C27.5093 10.1404 27.3232 10.2264 27.1256 10.2736C26.9281 10.3207 26.7232 10.3279 26.5229 10.2948C26.3167 10.2669 26.1069 10.2936 25.9142 10.3721C25.7216 10.4507 25.553 10.5784 25.4251 10.7425L25.2422 11.5719C25.2422 11.5719 24.5945 10.8401 25.0555 9.66423L24.8896 9.80206C24.8896 9.80206 25.0738 8.22981 26.9632 8.17249L26.7339 8.03466C26.7339 8.03466 28.6159 7.63336 29.3527 8.87262C29.3527 8.87262 30.0077 8.99459 30.1687 10.1277L29.9845 10.0058C29.9845 10.0058 30.276 10.9462 29.671 11.7329C29.6661 11.7353 28.894 10.49 28.894 9.70082Z" fill="#263238"/>
<path opacity="0.5" d="M34.5552 4.34122H20.1794C20.0823 4.34122 19.9893 4.30266 19.9207 4.23404C19.852 4.16542 19.8135 4.07234 19.8135 3.9753C19.8135 3.87825 19.852 3.78517 19.9207 3.71655C19.9893 3.64793 20.0823 3.60938 20.1794 3.60938H34.5552C34.6523 3.60938 34.7453 3.64793 34.814 3.71655C34.8826 3.78517 34.9211 3.87825 34.9211 3.9753C34.9211 4.07234 34.8826 4.16542 34.814 4.23404C34.7453 4.30266 34.6523 4.34122 34.5552 4.34122Z" fill="#263238"/>
<g opacity="0.4">
<path d="M33.5289 20.5809H21.2035C21.1845 20.5809 21.1657 20.5771 21.1481 20.5698C21.1306 20.5625 21.1147 20.5518 21.1013 20.5383C21.0879 20.5248 21.0773 20.5088 21.0702 20.4912C21.063 20.4736 21.0594 20.4547 21.0596 20.4357C21.0596 20.3976 21.0747 20.361 21.1017 20.334C21.1287 20.307 21.1653 20.2918 21.2035 20.2918H33.5289C33.5479 20.2917 33.5668 20.2953 33.5844 20.3024C33.602 20.3096 33.618 20.3202 33.6315 20.3335C33.645 20.3469 33.6557 20.3628 33.663 20.3804C33.6703 20.3979 33.6741 20.4167 33.6741 20.4357C33.6741 20.4742 33.6588 20.5112 33.6316 20.5384C33.6044 20.5656 33.5674 20.5809 33.5289 20.5809Z" fill="black"/>
<path d="M32.3102 21.3541H22.4242C22.4052 21.3541 22.3864 21.3503 22.3688 21.343C22.3513 21.3357 22.3354 21.325 22.322 21.3115C22.3086 21.298 22.298 21.282 22.2909 21.2644C22.2837 21.2468 22.2801 21.2279 22.2803 21.2089C22.2803 21.1708 22.2954 21.1342 22.3224 21.1072C22.3494 21.0802 22.386 21.065 22.4242 21.065H32.3102C32.3292 21.0648 32.348 21.0684 32.3656 21.0756C32.3832 21.0828 32.3992 21.0933 32.4127 21.1067C32.4262 21.1201 32.4369 21.136 32.4442 21.1536C32.4516 21.1711 32.4553 21.1899 32.4553 21.2089C32.4553 21.2474 32.44 21.2844 32.4128 21.3116C32.3856 21.3388 32.3487 21.3541 32.3102 21.3541Z" fill="black"/>
</g>
<path d="M33.8761 16.002H31.8208C31.4975 16.002 31.2354 16.2641 31.2354 16.5874V18.6427C31.2354 18.966 31.4975 19.2282 31.8208 19.2282H33.8761C34.1994 19.2282 34.4616 18.966 34.4616 18.6427V16.5874C34.4616 16.2641 34.1994 16.002 33.8761 16.002Z" fill="#263238" stroke="white" stroke-width="0.5" stroke-linecap="round" stroke-linejoin="round"/>
<path d="M33.6511 17.4326H33.0314V16.813H32.6655V17.4326H32.0459V17.7985H32.6655V18.4169H33.0314V17.7985H33.6511V17.4326Z" fill="white"/>
<path opacity="0.3" d="M41.0743 1.50417C41.0743 1.62189 41.0393 1.73698 40.9739 1.83486C40.9085 1.93275 40.8156 2.00904 40.7068 2.05409C40.598 2.09914 40.4784 2.11093 40.3629 2.08796C40.2474 2.06499 40.1414 2.0083 40.0581 1.92506C39.9749 1.84181 39.9182 1.73576 39.8952 1.62029C39.8723 1.50483 39.884 1.38515 39.9291 1.27638C39.9742 1.16762 40.0504 1.07466 40.1483 1.00925C40.2462 0.943846 40.3613 0.908936 40.479 0.908936C40.6369 0.908936 40.7883 0.971648 40.8999 1.08328C41.0115 1.1949 41.0743 1.3463 41.0743 1.50417Z" fill="black"/>
<path opacity="0.3" d="M39.3672 1.50417C39.3672 1.62189 39.3323 1.73698 39.2669 1.83486C39.2015 1.93275 39.1085 2.00904 38.9998 2.05409C38.891 2.09914 38.7713 2.11093 38.6559 2.08796C38.5404 2.06499 38.4343 2.0083 38.3511 1.92506C38.2679 1.84181 38.2112 1.73576 38.1882 1.62029C38.1652 1.50483 38.177 1.38515 38.2221 1.27638C38.2671 1.16762 38.3434 1.07466 38.4413 1.00925C38.5392 0.943846 38.6543 0.908936 38.772 0.908936C38.9299 0.908936 39.0813 0.971648 39.1929 1.08328C39.3045 1.1949 39.3672 1.3463 39.3672 1.50417Z" fill="black"/>
<path opacity="0.3" d="M29.7617 25.5013C29.7617 25.5013 30.5253 25.6659 30.5521 26.2221C30.6106 27.4175 30.6082 27.4541 29.769 27.3479C29.769 27.3479 29.2616 28.0444 28.0321 27.8444L27.6113 28.4762H25.4365C26.0403 27.7553 26.5257 27.1589 26.738 26.8759C27.5174 25.8379 31.1595 24.3083 31.1595 24.3083C31.1595 24.3083 31.1449 24.7048 29.7617 25.5013Z" fill="black" fill-opacity="0.7"/>
</g>
<path d="M41.0436 0.150024H13.6934C13.2252 0.150024 12.8457 0.52956 12.8457 0.997741V27.6246C12.8457 28.0928 13.2252 28.4723 13.6934 28.4723H41.0436C41.5118 28.4723 41.8913 28.0928 41.8913 27.6246V0.997741C41.8913 0.52956 41.5118 0.150024 41.0436 0.150024Z" stroke="#263238" stroke-width="0.3" stroke-linecap="round" stroke-linejoin="round"/>
<path d="M2.28615 45.6434C2.28615 45.6434 2.50082 44.0809 2.66061 43.4369C2.82039 42.7929 3.75837 40.301 3.96207 38.9056L1.55431 36.9869C1.55431 36.9869 0.646823 41.6671 0.646823 42.4013L0.150391 44.0004" fill="white"/>
<path d="M2.28615 45.6434C2.28615 45.6434 2.50082 44.0809 2.66061 43.4369C2.82039 42.7929 3.75837 40.301 3.96207 38.9056L1.55431 36.9869C1.55431 36.9869 0.646823 41.6671 0.646823 42.4013L0.150391 44.0004" stroke="#263238" stroke-width="0.3" stroke-linecap="round" stroke-linejoin="round"/>
<path d="M4.67223 40.6706C4.16889 40.2868 3.67205 39.8802 3.18171 39.4509C2.47305 38.841 1.78268 38.1775 1.11914 37.481C1.27968 36.7027 1.47915 35.9329 1.71681 35.1745C1.94339 34.4612 2.42674 33.8574 3.07316 33.4803L3.09755 33.4656L3.21099 33.4022C3.28173 33.3644 3.35004 33.3302 3.4159 33.301C3.63263 33.201 3.86021 33.1265 4.09408 33.079L4.61247 39.8936L4.67223 40.6706Z" fill="#0F913D"/>
<mask id="mask2_585_40981" style="mask-type:luminance" maskUnits="userSpaceOnUse" x="1" y="33" width="4" height="8">
<path d="M4.6693 40.6707C4.16596 40.2869 3.66912 39.8804 3.17879 39.451C2.47012 38.8411 1.77975 38.1776 1.11621 37.4811C1.27675 36.7028 1.47622 35.933 1.71388 35.1746C1.94046 34.4613 2.42381 33.8576 3.07023 33.4804L3.09462 33.4658L3.20806 33.4023C3.2788 33.3645 3.34711 33.3304 3.41298 33.3011C3.6297 33.2012 3.85728 33.1267 4.09115 33.0791L4.60954 39.8938L4.6693 40.6707Z" fill="white"/>
</mask>
<g mask="url(#mask2_585_40981)">
<path opacity="0.3" d="M4.6693 40.6707C4.16596 40.2869 3.66912 39.8804 3.17879 39.451C2.47012 38.8411 1.77975 38.1776 1.11621 37.4811C1.27675 36.7028 1.47622 35.933 1.71388 35.1746C1.94046 34.4613 2.42381 33.8576 3.07023 33.4804L3.09462 33.4658L3.20806 33.4023C3.2788 33.3645 3.34711 33.3304 3.41298 33.3011C3.6297 33.2012 3.85728 33.1267 4.09115 33.0791L4.60954 39.8938L4.6693 40.6707Z" fill="black" fill-opacity="0.7"/>
</g>
<path d="M4.67223 40.6706C4.16889 40.2868 3.67205 39.8802 3.18171 39.4509C2.47305 38.841 1.78268 38.1775 1.11914 37.481C1.27968 36.7027 1.47915 35.9329 1.71681 35.1745C1.94339 34.4612 2.42674 33.8574 3.07316 33.4803L3.09755 33.4656L3.21099 33.4022C3.28173 33.3644 3.35004 33.3302 3.4159 33.301C3.63263 33.201 3.86021 33.1265 4.09408 33.079L4.61247 39.8936L4.67223 40.6706Z" stroke="#263238" stroke-width="0.5" stroke-linecap="round" stroke-linejoin="round"/>
<path d="M2.16406 36.8834C2.16406 36.8834 2.4446 38.7899 3.73264 39.5168" stroke="#263238" stroke-width="0.5" stroke-linecap="round" stroke-linejoin="round"/>
<path d="M15.0775 38.4299C15.0775 39.4057 14.2835 43.3528 14.2835 43.3528L14.2566 46.8205C14.2566 46.8205 12.6136 47.3657 9.96194 47.3657C6.71256 47.3657 5.27327 46.496 5.14642 46.4143L5.13666 46.4082L5.62456 44.0041C5.62456 44.0041 3.06311 37.9591 3.0131 37.7518C2.93382 37.4444 2.86551 37.1333 2.81062 36.8235C2.66801 36.1079 2.63061 35.3752 2.69963 34.6487C2.73762 34.2385 2.85836 33.8401 3.05457 33.4778C3.0684 33.4534 3.08303 33.429 3.09848 33.4046C3.1646 33.2979 3.24188 33.1986 3.32901 33.1082L3.35219 33.0838C3.43257 33.0034 3.51858 32.9288 3.60955 32.8606C3.64004 32.8374 3.67176 32.8155 3.70347 32.7935L3.78275 32.7399L3.83398 32.7069L3.90107 32.6655L4.00475 32.6057C5.93071 31.5384 9.51552 31.7031 9.51552 31.7031C9.55502 31.6902 9.59601 31.6824 9.63749 31.6799H9.64603C9.71763 31.6757 9.78946 31.6815 9.85948 31.697C10.7523 31.8702 12.3868 33.3278 13.5907 34.9903C13.9522 35.481 14.2713 36.0017 14.5445 36.5467C14.8738 37.2102 15.0775 37.864 15.0775 38.4299Z" fill="#0F913D"/>
<path opacity="0.3" d="M15.0552 38.0958C14.4084 37.895 13.7977 37.5924 13.2463 37.1993C12.3815 37.3615 11.5472 36.5003 11.3301 36.0393L14.1672 35.8563C14.305 36.0832 14.4294 36.3113 14.5404 36.5369C14.7959 37.025 14.9698 37.5515 15.0552 38.0958Z" fill="black" fill-opacity="0.7"/>
<path opacity="0.3" d="M6.20126 44.6212C6.20126 44.6212 6.83918 47.351 5.14619 46.4106L5.13643 46.4045L5.62432 44.0004C5.62432 44.0004 3.06287 37.9554 3.01287 37.748C2.93358 37.4406 2.86528 37.1296 2.81039 36.8198C2.66813 36.1053 2.63074 35.3739 2.69939 34.6486C2.73738 34.2384 2.85813 33.84 3.05434 33.4777C3.06816 33.4533 3.0828 33.4289 3.09825 33.4045C3.16436 33.2978 3.24164 33.1985 3.32878 33.1081L3.35195 33.0837C3.43234 33.0033 3.51834 32.9287 3.60932 32.8605C3.63981 32.8373 3.67152 32.8154 3.70324 32.7934L3.78252 32.7398L3.83375 32.7068L3.90083 32.6654L4.00451 32.6056C5.77679 32.7422 7.74666 33.5814 8.12722 35.3036C8.12722 35.3036 7.96622 37.9419 7.38684 38.9068C7.02702 39.5081 6.90504 42.3159 8.68464 41.5036C8.12844 44.3065 6.20126 44.6212 6.20126 44.6212Z" fill="black" fill-opacity="0.7"/>
<path d="M5.13643 46.4046L5.62432 44.0005C5.62432 44.0005 3.06287 37.9555 3.01287 37.7481C2.93358 37.4407 2.86528 37.1297 2.81039 36.8199C2.66813 36.1054 2.63074 35.374 2.69939 34.6487C2.73738 34.2385 2.85813 33.8401 3.05434 33.4778C3.06816 33.4534 3.0828 33.429 3.09825 33.4046C3.16436 33.2979 3.24164 33.1986 3.32878 33.1082L3.35195 33.0838C3.43234 33.0034 3.51834 32.9288 3.60932 32.8606C5.38525 31.5189 9.51528 31.7031 9.51528 31.7031C9.55479 31.6902 9.59578 31.6824 9.63725 31.6799H9.64579C9.71739 31.6757 9.78922 31.6815 9.85925 31.697C10.7521 31.8702 12.3865 33.3278 13.5904 34.9903C13.952 35.481 14.2711 36.0017 14.5443 36.5467C14.8772 37.2212 15.0809 37.8737 15.0809 38.436C15.0809 39.4118 14.2869 43.3589 14.2869 43.3589L14.2601 46.8266" stroke="#263238" stroke-width="0.5" stroke-linecap="round" stroke-linejoin="round"/>
<path d="M11.3031 26.1788C11.158 25.9983 10.5103 25.569 10.5103 25.569C10.3883 24.7261 10.3127 23.6015 9.43936 22.7294C8.24523 21.5377 5.48985 21.9146 4.58724 23.6918C2.78569 27.2424 6.1912 30.587 10.359 29.8795C10.714 29.8198 10.953 29.4721 11.0018 27.8218L11.1128 27.5913C11.1128 27.5913 10.9982 27.1973 10.9628 26.9997C11.1726 26.7972 11.408 26.3106 11.3031 26.1788Z" fill="white" stroke="#263238" stroke-width="0.3" stroke-linecap="round" stroke-linejoin="round"/>
<path d="M10.2791 24.2506C10.1722 24.4246 10.0901 24.6126 10.0352 24.8092" stroke="#263238" stroke-width="0.5" stroke-linecap="round" stroke-linejoin="round"/>
<path d="M10.3418 25.8385C10.3418 25.8385 10.6321 26.0141 10.7638 26.5703" stroke="#263238" stroke-width="0.3" stroke-linecap="round" stroke-linejoin="round"/>
<path d="M11.0757 27.6742C11.0757 27.6742 10.9623 27.8572 10.4902 27.8035" stroke="#263238" stroke-width="0.3" stroke-linecap="round" stroke-linejoin="round"/>
<path d="M9.83838 22.2684C9.83838 22.2684 10.9361 21.8159 10.619 23.9627C10.3019 26.1094 8.715 28.6623 7.37695 28.1842L7.40013 27.9927C7.40013 27.9927 8.57107 28.4549 9.55662 26.4192C10.5422 24.3835 10.4604 22.516 9.89693 22.8442L9.83838 22.2684Z" fill="#263238"/>
<path d="M9.73952 25.5958C9.73952 25.5958 9.31993 26.7021 8.9845 27.0595C8.9845 27.0595 8.84911 26.6363 8.52588 26.6326C8.20265 26.6289 7.91602 25.769 7.91602 25.769L9.73952 25.5958Z" fill="#263238"/>
<path d="M9.28728 25.6471C9.28728 25.6471 8.5164 27.5267 9.08114 28.9782C9.64588 30.4297 11.2376 31.5201 11.2376 31.5201L10.7241 31.2872C10.7241 31.2872 9.37266 30.398 8.90062 28.8587C8.62324 27.8823 8.6165 26.849 8.8811 25.8691L9.28728 25.6471Z" fill="#263238"/>
<path d="M2.93438 23.1454C2.93438 23.1454 1.65 23.6711 1.71952 25.5751C1.78905 27.4791 3.09416 29.1343 3.35641 31.5616C3.5845 33.6729 1.28286 35.5318 3.61377 37.9993C3.61377 37.9993 2.59285 36.4137 2.90389 34.6402C3.21492 32.8667 4.28219 33.1216 3.49058 30.2345C2.69897 27.3474 1.01939 25.6397 2.75874 23.7992L2.93438 23.1454Z" fill="#263238"/>
<path d="M10.4238 31.0323C8.07454 29.7223 8.71612 26.9254 8.71612 26.9254C10.4835 25.6227 10.7189 23.1832 10.3945 22.5551C10.07 21.9269 9.36259 22.1416 9.36259 22.1416C6.54621 20.7999 3.07972 22.0525 2.42106 24.0249C1.57823 26.5509 3.01874 28.4915 3.72252 30.6114C4.35435 32.5167 2.89066 32.8619 2.89554 34.7585C2.61866 38.2958 6.24616 39.7729 6.24616 39.7729C6.15067 39.7154 6.07164 39.6342 6.01673 39.5371C5.96181 39.4401 5.93286 39.3306 5.93269 39.2191C5.93269 38.8325 6.92189 38.8325 7.57323 37.7432C8.11357 36.8394 8.15627 34.6354 8.33679 33.5693C8.58074 32.6045 8.88567 31.8336 9.51627 31.6933C11.1776 31.3213 12.6107 32.9338 12.6107 32.9338C12.6107 32.9338 12.7742 32.3422 10.4238 31.0323Z" fill="#263238"/>
<g opacity="0.3">
<path d="M9.73545 22.5283C9.99159 22.9783 8.06929 25.3593 7.37282 27.417C6.67635 29.4747 7.38501 30.681 7.38501 30.681" stroke="white" stroke-width="0.5" stroke-linecap="round" stroke-linejoin="round"/>
<path d="M5.42985 23.1454C5.42985 23.1454 3.338 24.947 4.52846 28.2415C5.71892 31.536 5.192 33.8072 4.79558 35.5831C4.39917 37.359 4.72118 37.9689 5.2042 38.4519" stroke="white" stroke-width="0.5" stroke-linecap="round" stroke-linejoin="round"/>
<path d="M8.06087 28.5829C8.06087 28.5829 9.18303 29.8466 8.41337 31.6725C7.64372 33.4985 7.22535 34.8036 6.93505 36.2246C6.64476 37.6456 6.00195 37.9993 6.00195 37.9993" stroke="white" stroke-width="0.5" stroke-linecap="round" stroke-linejoin="round"/>
<path d="M8.12582 22.2282C8.12582 22.2282 6.96829 22.1745 6.41819 23.6541C5.86809 25.1336 6.38648 27.6902 6.19376 28.583" stroke="white" stroke-width="0.5" stroke-linecap="round" stroke-linejoin="round"/>
<path d="M5.13428 22.2282C5.13428 22.2282 3.43641 22.299 2.89485 24.6469C2.35328 26.9949 3.98407 28.9685 4.15728 30.7981C4.33048 32.6277 3.30346 34.3219 3.36567 35.5831C3.42787 36.8443 4.15728 37.5103 4.15728 37.5103" stroke="white" stroke-width="0.5" stroke-linecap="round" stroke-linejoin="round"/>
</g>
<path d="M15.7533 31.8873C15.7533 31.8873 19.4686 32.1642 19.9992 32.1642C20.5298 32.1642 25.4514 27.2852 26.3199 26.3253C27.1883 25.3654 30.9549 24.1591 30.9549 24.1591C30.9549 24.1591 30.9073 24.5579 29.4595 25.2239C29.4595 25.2239 30.2048 25.4556 30.1828 26.0118C30.1352 27.2084 30.1291 27.245 29.3021 27.0633C29.3021 27.0633 28.735 27.7134 27.5286 27.4048C27.5286 27.4048 24.6342 31.0054 23.3547 32.6496C22.0752 34.2938 21.5458 34.8452 21.0628 35.0245C20.5798 35.2038 14.6934 35.5868 14.6934 35.5868L15.7533 31.8873Z" fill="white" stroke="#263238" stroke-width="0.3" stroke-linecap="round" stroke-linejoin="round"/>
<path d="M11.0759 36.2649C13.003 37.4712 16.2353 35.9758 16.2353 35.9758C16.2353 35.9758 16.8147 33.3509 16.2353 31.6713C16.2353 31.6713 12.1822 30.8822 9.96224 31.6433C9.84666 31.687 9.74148 31.7544 9.65347 31.8412C9.56546 31.9279 9.49655 32.0321 9.45117 32.147" fill="#0F913D"/>
<path d="M11.0759 36.2649C13.003 37.4712 16.2353 35.9758 16.2353 35.9758C16.2353 35.9758 16.8147 33.3509 16.2353 31.6713C16.2353 31.6713 12.1822 30.8822 9.96224 31.6433C9.84666 31.687 9.74148 31.7544 9.65347 31.8412C9.56546 31.9279 9.49655 32.0321 9.45117 32.147" stroke="#263238" stroke-width="0.5" stroke-linecap="round" stroke-linejoin="round"/>
<path d="M15.7227 31.5836C16.0455 32.9345 16.0722 34.3393 15.8007 35.7015" stroke="#263238" stroke-width="0.5" stroke-linecap="round" stroke-linejoin="round"/>
<path d="M15.0781 33.2716C15.0781 33.2716 13.7364 35.4598 12.0215 35.7818" stroke="#263238" stroke-width="0.5" stroke-linecap="round" stroke-linejoin="round"/>
<path d="M13.8295 36.6698C13.8295 36.6698 12.9379 37.7273 11.8438 37.7273" stroke="#263238" stroke-width="0.5" stroke-linecap="round" stroke-linejoin="round"/>
<path d="M12.9708 36.7357C13.0545 36.9427 13.0545 37.174 12.9708 37.381C12.9708 37.381 13.1221 38.0164 12.8367 38.9325C12.6269 39.6082 12.6366 41.5244 12.5391 42.8722C12.5391 42.8722 12.8489 44.4981 12.8367 46.9425" stroke="#263238" stroke-width="0.5" stroke-linecap="round" stroke-linejoin="round"/>
<path d="M10.9082 31.4201C10.9082 31.4201 12.5683 31.3104 13.5489 32.4679" stroke="#263238" stroke-width="0.5" stroke-linecap="round" stroke-linejoin="round"/>
<path d="M29.8791 26.34C29.8791 26.34 29.6352 26.762 29.3485 26.8584C29.3485 26.8584 29.3266 27.2987 28.5898 27.4463" stroke="#263238" stroke-width="0.5" stroke-linecap="round" stroke-linejoin="round"/>
<path d="M29.6758 26.6168C29.7455 26.6577 29.7983 26.7221 29.8246 26.7986" stroke="#263238" stroke-width="0.5" stroke-linecap="round" stroke-linejoin="round"/>
<path d="M5.61914 44.0006C5.61914 44.0006 7.33409 46.2364 8.96854 45.4326" stroke="#263238" stroke-width="0.5" stroke-linecap="round" stroke-linejoin="round"/>
<path d="M9.96211 39.3705C9.96211 39.3705 8.80458 42.9236 6.19922 42.7626" stroke="#263238" stroke-width="0.5" stroke-linecap="round" stroke-linejoin="round"/>
</svg>
