<svg width="40" height="43" viewBox="0 0 40 43" fill="none" xmlns="http://www.w3.org/2000/svg">
<path d="M2.78283 37.1066V11.3021C2.78305 10.1853 2.44074 9.09533 1.80208 8.17917L0.900391 6.88782H16.9199L17.8216 8.17917C18.4603 9.09533 18.8026 10.1853 18.8024 11.3021V36.8619" stroke="#263238" stroke-width="1.8" stroke-linecap="round" stroke-linejoin="round"/>
<path d="M36.8264 42.7633C37.7423 42.7633 38.4848 42.0208 38.4848 41.1049C38.4848 40.189 37.7423 39.4465 36.8264 39.4465C35.9105 39.4465 35.168 40.189 35.168 41.1049C35.168 42.0208 35.9105 42.7633 36.8264 42.7633Z" fill="#263238"/>
<path opacity="0.4" d="M37.6574 41.105C37.6578 40.9407 37.6094 40.78 37.5184 40.6433C37.4274 40.5065 37.2979 40.3998 37.1462 40.3367C36.9946 40.2736 36.8276 40.2569 36.6664 40.2887C36.5053 40.3205 36.3572 40.3994 36.2409 40.5154C36.1246 40.6315 36.0453 40.7794 36.0132 40.9405C35.981 41.1015 35.9973 41.2686 36.0601 41.4204C36.1229 41.5722 36.2293 41.7019 36.3658 41.7932C36.5024 41.8845 36.663 41.9333 36.8272 41.9333C36.9362 41.9335 37.0441 41.9123 37.1448 41.8708C37.2455 41.8292 37.337 41.7683 37.4141 41.6913C37.4912 41.6144 37.5524 41.523 37.5941 41.4224C37.6359 41.3218 37.6574 41.2139 37.6574 41.105Z" fill="white"/>
<path d="M36.6266 41.4738C36.4973 41.4737 36.3711 41.4339 36.2651 41.3599C36.159 41.2858 36.0783 41.1811 36.0336 41.0597L35.0566 38.3829H37.2572V40.8432C37.2572 41.0105 37.1908 41.1709 37.0725 41.2891C36.9542 41.4074 36.7938 41.4738 36.6266 41.4738Z" fill="#263238"/>
<path opacity="0.2" d="M36.6266 41.4738C36.4973 41.4737 36.3711 41.4339 36.2651 41.3599C36.159 41.2858 36.0783 41.1811 36.0336 41.0597L35.0566 38.3829H37.2572V40.8432C37.2572 41.0105 37.1908 41.1709 37.0725 41.2891C36.9542 41.4074 36.7938 41.4738 36.6266 41.4738Z" fill="white"/>
<path d="M18.3791 42.7633C19.2951 42.7633 20.0376 42.0208 20.0376 41.1049C20.0376 40.189 19.2951 39.4465 18.3791 39.4465C17.4632 39.4465 16.7207 40.189 16.7207 41.1049C16.7207 42.0208 17.4632 42.7633 18.3791 42.7633Z" fill="#263238"/>
<path opacity="0.4" d="M19.2091 41.105C19.2095 40.9407 19.1611 40.78 19.0701 40.6433C18.9792 40.5065 18.8496 40.3998 18.698 40.3367C18.5463 40.2736 18.3793 40.2569 18.2182 40.2887C18.057 40.3205 17.9089 40.3994 17.7926 40.5154C17.6764 40.6315 17.5971 40.7794 17.5649 40.9405C17.5327 41.1015 17.5491 41.2686 17.6118 41.4204C17.6746 41.5722 17.781 41.7019 17.9176 41.7932C18.0541 41.8845 18.2147 41.9333 18.379 41.9333C18.4879 41.9335 18.5958 41.9123 18.6965 41.8708C18.7972 41.8292 18.8888 41.7683 18.9659 41.6913C19.043 41.6144 19.1042 41.523 19.1459 41.4224C19.1877 41.3218 19.2091 41.2139 19.2091 41.105Z" fill="white"/>
<path d="M18.1793 41.4738C18.05 41.4737 17.9238 41.4339 17.8178 41.3599C17.7118 41.2858 17.631 41.1811 17.5864 41.0597L16.6094 38.3829H18.8099V40.8432C18.8099 41.0105 18.7435 41.1709 18.6252 41.2891C18.507 41.4074 18.3466 41.4738 18.1793 41.4738Z" fill="#263238"/>
<path opacity="0.2" d="M18.1793 41.4738C18.05 41.4737 17.9238 41.4339 17.8178 41.3599C17.7118 41.2858 17.631 41.1811 17.5864 41.0597L16.6094 38.3829H18.8099V40.8432C18.8099 41.0105 18.7435 41.1709 18.6252 41.2891C18.507 41.4074 18.3466 41.4738 18.1793 41.4738Z" fill="white"/>
<path d="M39.6786 36.4534V38.0196C39.6786 38.1598 39.6229 38.2944 39.5237 38.3936C39.4245 38.4928 39.2899 38.5485 39.1496 38.5485H2.07877C1.93848 38.5485 1.80393 38.4928 1.70473 38.3936C1.60553 38.2944 1.5498 38.1598 1.5498 38.0196V36.4534H39.6786Z" fill="#263238"/>
<path opacity="0.4" d="M39.6786 36.4534V38.0196C39.6786 38.1598 39.6229 38.2944 39.5237 38.3936C39.4245 38.4928 39.2899 38.5485 39.1496 38.5485H2.07877C1.93848 38.5485 1.80393 38.4928 1.70473 38.3936C1.60553 38.2944 1.5498 38.1598 1.5498 38.0196V36.4534H39.6786Z" fill="white"/>
<path opacity="0.2" d="M26.5015 36.4534V38.0196C26.5015 38.1598 26.4458 38.2944 26.3466 38.3936C26.2474 38.4928 26.1129 38.5485 25.9726 38.5485H2.07877C1.93848 38.5485 1.80393 38.4928 1.70473 38.3936C1.60553 38.2944 1.5498 38.1598 1.5498 38.0196V36.4534H26.5015Z" fill="white"/>
<path d="M23.4612 42.7633C24.3771 42.7633 25.1196 42.0208 25.1196 41.1049C25.1196 40.189 24.3771 39.4465 23.4612 39.4465C22.5452 39.4465 21.8027 40.189 21.8027 41.1049C21.8027 42.0208 22.5452 42.7633 23.4612 42.7633Z" fill="#263238"/>
<path opacity="0.6" d="M24.2921 41.105C24.2925 40.9407 24.2441 40.78 24.1532 40.6433C24.0622 40.5065 23.9326 40.3998 23.781 40.3367C23.6293 40.2736 23.4623 40.2569 23.3012 40.2887C23.14 40.3205 22.9919 40.3994 22.8756 40.5154C22.7594 40.6315 22.6801 40.7794 22.6479 40.9405C22.6157 41.1015 22.6321 41.2686 22.6948 41.4204C22.7576 41.5722 22.864 41.7019 23.0006 41.7932C23.1371 41.8845 23.2977 41.9333 23.462 41.9333C23.5709 41.9335 23.6788 41.9123 23.7795 41.8708C23.8802 41.8292 23.9718 41.7683 24.0489 41.6913C24.126 41.6144 24.1872 41.523 24.2289 41.4224C24.2707 41.3218 24.2921 41.2139 24.2921 41.105Z" fill="white"/>
<path d="M23.2614 41.4738C23.132 41.4737 23.0059 41.4339 22.8998 41.3599C22.7938 41.2858 22.713 41.1811 22.6684 41.0597L21.6914 38.3829H23.892V40.8432C23.892 41.0105 23.8255 41.1709 23.7073 41.2891C23.589 41.4074 23.4286 41.4738 23.2614 41.4738Z" fill="#263238"/>
<path opacity="0.4" d="M23.2614 41.4738C23.132 41.4737 23.0059 41.4339 22.8998 41.3599C22.7938 41.2858 22.713 41.1811 22.6684 41.0597L21.6914 38.3829H23.892V40.8432C23.892 41.0105 23.8255 41.1709 23.7073 41.2891C23.589 41.4074 23.4286 41.4738 23.2614 41.4738Z" fill="white"/>
<path d="M5.0139 42.7633C5.92982 42.7633 6.67233 42.0208 6.67233 41.1049C6.67233 40.189 5.92982 39.4465 5.0139 39.4465C4.09797 39.4465 3.35547 40.189 3.35547 41.1049C3.35547 42.0208 4.09797 42.7633 5.0139 42.7633Z" fill="#263238"/>
<path opacity="0.6" d="M5.84293 41.105C5.8433 40.9407 5.79493 40.78 5.70394 40.6433C5.61294 40.5065 5.48342 40.3998 5.33176 40.3367C5.18011 40.2736 5.01313 40.2569 4.85197 40.2887C4.69082 40.3205 4.54272 40.3994 4.42643 40.5154C4.31014 40.6315 4.23089 40.7794 4.19871 40.9405C4.16652 41.1015 4.18285 41.2686 4.24563 41.4204C4.30841 41.5722 4.41481 41.7019 4.55137 41.7932C4.68792 41.8845 4.8485 41.9333 5.01277 41.9333C5.1217 41.9335 5.22961 41.9123 5.33032 41.8708C5.43102 41.8292 5.52255 41.7683 5.59967 41.6913C5.67678 41.6144 5.73796 41.523 5.7797 41.4224C5.82144 41.3218 5.84293 41.2139 5.84293 41.105Z" fill="white"/>
<path d="M4.81409 41.4738C4.68477 41.4737 4.5586 41.4339 4.45257 41.3599C4.34655 41.2858 4.26577 41.1811 4.22113 41.0597L3.24414 38.3829H5.44471V40.8432C5.44471 41.0105 5.37827 41.1709 5.26001 41.2891C5.14175 41.4074 4.98134 41.4738 4.81409 41.4738Z" fill="#263238"/>
<path opacity="0.4" d="M4.81409 41.4738C4.68477 41.4737 4.5586 41.4339 4.45257 41.3599C4.34655 41.2858 4.26577 41.1811 4.22113 41.0597L3.24414 38.3829H5.44471V40.8432C5.44471 41.0105 5.37827 41.1709 5.26001 41.2891C5.14175 41.4074 4.98134 41.4738 4.81409 41.4738Z" fill="white"/>
<path d="M23.6944 24.3024H6.14062V36.4535H23.6944V24.3024Z" fill="#0F913D"/>
<path opacity="0.4" d="M23.6944 24.3024H6.14062V36.4535H23.6944V24.3024Z" fill="white"/>
<path opacity="0.2" d="M14.2859 24.3024H6.14062V36.4535H14.2859V24.3024Z" fill="white"/>
<path opacity="0.2" d="M13.5168 33.8839H12.4984C12.4027 33.8839 12.3252 33.9614 12.3252 34.0571V35.4482C12.3252 35.5439 12.4027 35.6214 12.4984 35.6214H13.5168C13.6124 35.6214 13.69 35.5439 13.69 35.4482V34.0571C13.69 33.9614 13.6124 33.8839 13.5168 33.8839Z" fill="black"/>
<path opacity="0.2" d="M11.6789 33.8839H10.6605C10.5648 33.8839 10.4873 33.9614 10.4873 34.0571V35.4482C10.4873 35.5439 10.5648 35.6214 10.6605 35.6214H11.6789C11.7745 35.6214 11.8521 35.5439 11.8521 35.4482V34.0571C11.8521 33.9614 11.7745 33.8839 11.6789 33.8839Z" fill="black"/>
<path opacity="0.4" d="M19.9208 24.3024H18.9287V25.5692H19.9208V24.3024Z" fill="black"/>
<path opacity="0.2" d="M22.6331 29.4902H15.7998V31.079H22.6331V29.4902Z" fill="black"/>
<path opacity="0.2" d="M9.00798 24.9347H6.67188V27.2708H9.00798V24.9347Z" fill="black"/>
<path d="M25.4864 12.1512H7.93262V24.3023H25.4864V12.1512Z" fill="#0F913D"/>
<path opacity="0.4" d="M25.4864 12.1512H7.93262V24.3023H25.4864V12.1512Z" fill="black"/>
<path opacity="0.2" d="M16.0779 12.1512H7.93262V24.3023H16.0779V12.1512Z" fill="white"/>
<path opacity="0.2" d="M15.3107 21.7327H14.2923C14.1967 21.7327 14.1191 21.8103 14.1191 21.9059V23.297C14.1191 23.3927 14.1967 23.4702 14.2923 23.4702H15.3107C15.4064 23.4702 15.4839 23.3927 15.4839 23.297V21.9059C15.4839 21.8103 15.4064 21.7327 15.3107 21.7327Z" fill="black"/>
<path opacity="0.2" d="M13.4728 21.7327H12.4544C12.3588 21.7327 12.2812 21.8103 12.2812 21.9059V23.297C12.2812 23.3927 12.3588 23.4702 12.4544 23.4702H13.4728C13.5685 23.4702 13.646 23.3927 13.646 23.297V21.9059C13.646 21.8103 13.5685 21.7327 13.4728 21.7327Z" fill="black"/>
<path opacity="0.4" d="M21.7118 12.1512H20.7197V13.4181H21.7118V12.1512Z" fill="black"/>
<path opacity="0.2" d="M24.4241 17.3392H17.5908V18.928H24.4241V17.3392Z" fill="black"/>
<path opacity="0.2" d="M10.8019 12.7837H8.46582V15.1198H10.8019V12.7837Z" fill="black"/>
<path d="M36.2315 12.1512H18.6777V24.3023H36.2315V12.1512Z" fill="#0F913D"/>
<path opacity="0.4" d="M36.2315 12.1512H18.6777V24.3023H36.2315V12.1512Z" fill="white"/>
<path opacity="0.2" d="M26.823 12.1512H18.6777V24.3023H26.823V12.1512Z" fill="white"/>
<path opacity="0.2" d="M26.0558 21.7327H25.0374C24.9418 21.7327 24.8643 21.8103 24.8643 21.9059V23.297C24.8643 23.3927 24.9418 23.4702 25.0374 23.4702H26.0558C26.1515 23.4702 26.229 23.3927 26.229 23.297V21.9059C26.229 21.8103 26.1515 21.7327 26.0558 21.7327Z" fill="black"/>
<path opacity="0.2" d="M24.2179 21.7327H23.1995C23.1039 21.7327 23.0264 21.8103 23.0264 21.9059V23.297C23.0264 23.3927 23.1039 23.4702 23.1995 23.4702H24.2179C24.3136 23.4702 24.3911 23.3927 24.3911 23.297V21.9059C24.3911 21.8103 24.3136 21.7327 24.2179 21.7327Z" fill="black"/>
<path opacity="0.4" d="M32.4569 12.1512H31.4648V13.4181H32.4569V12.1512Z" fill="black"/>
<path opacity="0.2" d="M35.1702 17.3392H28.3369V18.928H35.1702V17.3392Z" fill="black"/>
<path opacity="0.2" d="M21.547 12.7837H19.2109V15.1198H21.547V12.7837Z" fill="black"/>
<path d="M30.1612 0H12.6074V12.1511H30.1612V0Z" fill="#0F913D"/>
<path opacity="0.2" d="M20.7527 0H12.6074V12.1511H20.7527V0Z" fill="white"/>
<path opacity="0.2" d="M19.9826 9.58154H18.9642C18.8686 9.58154 18.791 9.65908 18.791 9.75473V11.1458C18.791 11.2415 18.8686 11.319 18.9642 11.319H19.9826C20.0782 11.319 20.1558 11.2415 20.1558 11.1458V9.75473C20.1558 9.65908 20.0782 9.58154 19.9826 9.58154Z" fill="black"/>
<path opacity="0.2" d="M18.1476 9.58154H17.1292C17.0336 9.58154 16.9561 9.65908 16.9561 9.75473V11.1458C16.9561 11.2415 17.0336 11.319 17.1292 11.319H18.1476C18.2433 11.319 18.3208 11.2415 18.3208 11.1458V9.75473C18.3208 9.65908 18.2433 9.58154 18.1476 9.58154Z" fill="black"/>
<path opacity="0.4" d="M26.3866 0H25.3945V1.26688H26.3866V0Z" fill="black"/>
<path opacity="0.2" d="M29.0989 5.18805H22.2656V6.77683H29.0989V5.18805Z" fill="black"/>
<path opacity="0.2" d="M15.4738 0.632507H13.1377V2.96861H15.4738V0.632507Z" fill="black"/>
<path d="M34.8653 24.3024H17.3115V36.4535H34.8653V24.3024Z" fill="#263238"/>
<path opacity="0.2" d="M34.8653 24.3024H17.3115V36.4535H34.8653V24.3024Z" fill="white"/>
<path opacity="0.2" d="M25.4568 24.3024H17.3115V36.4535H25.4568V24.3024Z" fill="white"/>
<path opacity="0.2" d="M24.6867 33.8839H23.6683C23.5727 33.8839 23.4951 33.9614 23.4951 34.0571V35.4482C23.4951 35.5439 23.5727 35.6214 23.6683 35.6214H24.6867C24.7823 35.6214 24.8599 35.5439 24.8599 35.4482V34.0571C24.8599 33.9614 24.7823 33.8839 24.6867 33.8839Z" fill="black"/>
<path opacity="0.2" d="M22.8488 33.8839H21.8304C21.7348 33.8839 21.6572 33.9614 21.6572 34.0571V35.4482C21.6572 35.5439 21.7348 35.6214 21.8304 35.6214H22.8488C22.9445 35.6214 23.022 35.5439 23.022 35.4482V34.0571C23.022 33.9614 22.9445 33.8839 22.8488 33.8839Z" fill="black"/>
<path opacity="0.4" d="M31.0907 24.3024H30.0986V25.5692H31.0907V24.3024Z" fill="black"/>
<path opacity="0.2" d="M33.803 29.4902H26.9697V31.079H33.803V29.4902Z" fill="black"/>
<path opacity="0.2" d="M20.1779 24.9347H17.8418V27.2708H20.1779V24.9347Z" fill="black"/>
</svg>
