<svg width="32" height="45" viewBox="0 0 32 45" fill="none" xmlns="http://www.w3.org/2000/svg">
<path d="M25.5863 34.2534C27.651 33.8912 29.0311 31.9238 28.6689 29.8591C28.3067 27.7944 26.3393 26.4142 24.2746 26.7764C22.2099 27.1386 20.8298 29.106 21.192 31.1707C21.5542 33.2354 23.5216 34.6156 25.5863 34.2534Z" fill="#0F913D"/>
<g opacity="0.1">
<path d="M23.5699 26.9703C23.1049 27.1494 22.6797 27.4183 22.3187 27.7617C21.9577 28.1051 21.6678 28.5163 21.4657 28.9717C21.2636 29.4271 21.1532 29.9179 21.1408 30.416C21.1284 30.9142 21.2143 31.4098 21.3935 31.8747C21.3935 31.8747 23.9257 31.0292 24.139 29.7963C24.3523 28.5634 23.5699 26.9703 23.5699 26.9703Z" fill="white"/>
</g>
<path d="M25.8349 32.8516C27.3171 32.2778 28.0536 30.6111 27.4798 29.1289C26.906 27.6466 25.2393 26.9102 23.7571 27.4839C22.2748 28.0577 21.5384 29.7244 22.1121 31.2067C22.6859 32.6889 24.3526 33.4254 25.8349 32.8516Z" fill="#0F913D"/>
<g opacity="0.2">
<path d="M25.8339 32.8512C27.3162 32.2775 28.0526 30.6107 27.4788 29.1285C26.9051 27.6462 25.2383 26.9098 23.7561 27.4836C22.2739 28.0573 21.5374 29.7241 22.1112 31.2063C22.6849 32.6885 24.3517 33.425 25.8339 32.8512Z" fill="black"/>
</g>
<path d="M27.6647 29.5253C27.8674 30.0507 27.9097 30.6244 27.7862 31.1739C27.6628 31.7233 27.3792 32.2238 26.9713 32.612C26.5633 33.0002 26.0494 33.2587 25.4946 33.3548C24.9397 33.4509 24.3688 33.3803 23.8541 33.1519C23.3393 32.9234 22.9039 32.5475 22.6029 32.0716C22.3019 31.5956 22.1488 31.0411 22.163 30.4782C22.1772 29.9152 22.358 29.3691 22.6827 28.909C23.0073 28.4488 23.4611 28.0953 23.9866 27.8931C24.6909 27.6222 25.4738 27.6419 26.1635 27.948C26.8532 28.254 27.3931 28.8214 27.6647 29.5253Z" fill="#0F913D"/>
<g opacity="0.2">
<path d="M27.6666 29.5255C27.8693 30.0509 27.9116 30.6246 27.7882 31.174C27.6647 31.7234 27.3811 32.2239 26.9732 32.6121C26.5653 33.0004 26.0514 33.2589 25.4965 33.355C24.9416 33.4511 24.3707 33.3804 23.856 33.152C23.3413 32.9236 22.9059 32.5476 22.6049 32.0717C22.3039 31.5958 22.1508 31.0413 22.165 30.4783C22.1792 29.9154 22.36 29.3693 22.6846 28.9091C23.0092 28.4489 23.463 28.0954 23.9886 27.8932C24.6928 27.6223 25.4758 27.642 26.1654 27.9481C26.8551 28.2542 27.3951 28.8215 27.6666 29.5255Z" fill="white"/>
</g>
<path d="M25.0257 30.2763L24.7645 29.5973C24.8947 29.565 25.0286 29.55 25.1628 29.5527C25.2339 29.5608 25.3041 29.575 25.3728 29.5951V29.5701L25.3837 29.285V29.2197L25.2139 29.1392L25.165 29.1871C24.9822 29.1664 24.7972 29.1827 24.6209 29.2349L24.4761 28.8606L24.3238 28.8116L24.3597 28.9052L24.2008 28.9673L24.3467 29.3481C23.8406 29.6006 23.7068 30.001 23.8385 30.3394C24.0191 30.8074 24.4663 30.7747 24.8755 30.7214L25.1345 31.395C24.8822 31.4685 24.6142 31.4685 24.3619 31.395L24.3412 31.7933C24.5752 31.8781 24.9364 31.8629 25.2738 31.7563L25.3826 32.0381L25.252 32.0914L25.4174 32.1295L25.6938 32.0207L25.5491 31.6431C26.0573 31.3863 26.1955 30.9902 26.0638 30.6485C25.8875 30.1849 25.4348 30.2241 25.0257 30.2763ZM24.7232 30.3122C24.5055 30.3297 24.3325 30.3122 24.2694 30.1501C24.2063 29.988 24.2694 29.8411 24.4925 29.7148L24.7232 30.3122ZM25.412 31.2807L25.1824 30.6844C25.4065 30.6637 25.585 30.6844 25.6481 30.8487C25.7036 30.9945 25.6438 31.1491 25.412 31.2807Z" fill="#0F913D"/>
<g opacity="0.3">
<path d="M25.0266 30.2766L24.7655 29.5976C24.8957 29.5652 25.0296 29.5502 25.1638 29.5529C25.2349 29.561 25.3051 29.5752 25.3738 29.5954V29.5703L25.3847 29.2852V29.22L25.2149 29.1394L25.1659 29.1873C24.9832 29.1667 24.7982 29.183 24.6218 29.2352L24.4771 28.8609L24.3248 28.8119L24.3607 28.9055L24.2018 28.9675L24.3476 29.3484C23.8416 29.6008 23.7078 30.0013 23.8394 30.3397C24.0201 30.8076 24.4673 30.775 24.8765 30.7216L25.1355 31.3952C24.8832 31.4687 24.6152 31.4687 24.3629 31.3952L24.3422 31.7935C24.5761 31.8784 24.9374 31.8631 25.2748 31.7565L25.3836 32.0383L25.253 32.0917L25.4184 32.1297L25.6948 32.0209L25.5501 31.6433C26.0582 31.3865 26.1964 30.9904 26.0648 30.6487C25.8885 30.1852 25.4358 30.2243 25.0266 30.2766ZM24.7241 30.3125C24.5065 30.3299 24.3335 30.3125 24.2704 30.1503C24.2073 29.9882 24.2704 29.8413 24.4934 29.7151L24.7241 30.3125ZM25.413 31.281L25.1833 30.6846C25.4075 30.664 25.586 30.6846 25.6491 30.849C25.7046 30.9948 25.6447 31.1493 25.413 31.281Z" fill="black"/>
</g>
<path d="M25.4032 31.5984L25.5491 31.976L25.2727 32.0848L25.129 31.7104C24.7906 31.8193 24.4293 31.8323 24.1954 31.7485L24.216 31.3503C24.4684 31.4232 24.7363 31.4232 24.9886 31.3503L24.7297 30.6767C24.3205 30.7289 23.8733 30.7615 23.6937 30.2936C23.561 29.9498 23.6937 29.5548 24.2008 29.3023L24.055 28.9214L24.3314 28.8126L24.475 29.187C24.7201 29.1042 24.982 29.0844 25.2367 29.1293L25.2291 29.5232C25.0242 29.4896 24.8144 29.4989 24.6132 29.5504L24.8755 30.2316C25.2846 30.1783 25.7373 30.1391 25.9169 30.6081C26.0507 30.9476 25.9136 31.3415 25.4032 31.5984ZM24.573 30.2632L24.3423 29.6625C24.117 29.792 24.0626 29.9519 24.1246 30.0978C24.1867 30.2436 24.3553 30.2817 24.573 30.2632ZM25.499 30.8007C25.4348 30.6353 25.2574 30.6146 25.0333 30.6353L25.2629 31.2316C25.4936 31.1 25.5545 30.9454 25.499 30.8007Z" fill="#0F913D"/>
<path d="M22.5537 33.3353C22.5537 33.3353 22.544 33.3288 22.5265 33.3146L22.4525 33.2493C22.4145 33.2149 22.3782 33.1786 22.3437 33.1405C22.3024 33.097 22.2512 33.0502 22.2023 32.9914L22.1239 32.9011C22.0967 32.8696 22.0717 32.8337 22.0434 32.7988C21.9868 32.7292 21.9346 32.6487 21.8769 32.566C21.7579 32.382 21.6538 32.1888 21.5657 31.9881C21.4807 31.786 21.4115 31.5775 21.3589 31.3646C21.3383 31.2656 21.3165 31.172 21.3045 31.0828C21.298 31.0382 21.2904 30.9957 21.286 30.9544C21.2817 30.913 21.2784 30.8739 21.2741 30.8358C21.2653 30.7596 21.2653 30.69 21.2632 30.6301C21.2604 30.5783 21.2604 30.5263 21.2632 30.4745V30.3766C21.2589 30.3757 21.2551 30.3734 21.2525 30.3699C21.2499 30.3664 21.2487 30.3621 21.2491 30.3578C21.2495 30.3535 21.2515 30.3495 21.2547 30.3466C21.2579 30.3437 21.2621 30.342 21.2664 30.342C21.2708 30.342 21.2749 30.3437 21.2782 30.3466C21.2814 30.3495 21.2834 30.3535 21.2838 30.3578C21.2842 30.3621 21.283 30.3664 21.2804 30.3699C21.2778 30.3734 21.274 30.3757 21.2697 30.3766C21.2697 30.4016 21.2697 30.4342 21.2697 30.4745C21.2697 30.5148 21.2697 30.5692 21.2697 30.629C21.2697 30.6889 21.2751 30.7585 21.286 30.8336C21.286 30.8717 21.2947 30.9109 21.2991 30.9522C21.3034 30.9936 21.3121 31.0349 21.3187 31.0795C21.3317 31.1677 21.3546 31.2602 21.3763 31.3581C21.4287 31.5693 21.4978 31.776 21.5831 31.9762C21.6705 32.1756 21.7731 32.3681 21.89 32.5518C21.9465 32.6345 21.9988 32.715 22.0532 32.7847C22.0804 32.8195 22.1054 32.8554 22.1326 32.887L22.2088 32.9784C22.2567 33.0371 22.3056 33.0872 22.347 33.1296C22.3883 33.1721 22.4243 33.2102 22.4558 33.2385L22.5265 33.307C22.5461 33.3255 22.5548 33.3342 22.5537 33.3353Z" fill="white"/>
<path d="M24.0308 30.4819C23.9912 30.475 23.9538 30.4586 23.922 30.434C23.8418 30.3793 23.7811 30.3004 23.749 30.2087C23.7178 30.1163 23.7178 30.0161 23.749 29.9236C23.7575 29.8831 23.7766 29.8455 23.8045 29.8148C23.8045 29.8148 23.786 29.8562 23.7686 29.9236C23.7451 30.0125 23.7481 30.1063 23.7773 30.1935C23.8084 30.2797 23.8635 30.3553 23.9361 30.4111C23.9905 30.4612 24.0319 30.4775 24.0308 30.4819Z" fill="white"/>
<path d="M24.2364 29.2186C24.2288 29.2186 24.2037 29.174 24.1809 29.1098C24.158 29.0456 24.1439 29.001 24.1515 28.9945C24.1591 28.9879 24.183 29.0391 24.207 29.1033C24.2309 29.1675 24.244 29.2165 24.2364 29.2186Z" fill="white"/>
<path d="M24.0343 27.6223C24.0063 27.6353 23.9772 27.6455 23.9472 27.6528C23.9121 27.662 23.8776 27.6733 23.8438 27.6865C23.8036 27.7007 23.7579 27.7148 23.7089 27.7366C23.6599 27.7583 23.6055 27.7779 23.55 27.8051C23.4945 27.8323 23.4336 27.8617 23.3716 27.8944C23.2383 27.9682 23.1106 28.0519 22.9896 28.1446C22.8695 28.2382 22.7561 28.34 22.6501 28.4493C22.6022 28.5016 22.5565 28.5494 22.5174 28.5984C22.4782 28.6474 22.4412 28.692 22.4085 28.7355C22.3759 28.779 22.3498 28.8171 22.3258 28.852C22.3019 28.8868 22.2823 28.9172 22.2671 28.9434C22.252 28.9706 22.2345 28.9965 22.2148 29.0206C22.2268 28.992 22.241 28.9643 22.2573 28.9379C22.274 28.9054 22.2925 28.8738 22.3128 28.8432C22.3356 28.8084 22.3607 28.766 22.3922 28.7235C22.4238 28.6811 22.4575 28.6321 22.501 28.5832C22.5446 28.5342 22.5859 28.4842 22.6327 28.4319C22.7385 28.3199 22.8527 28.2163 22.9744 28.1218C23.0972 28.029 23.2267 27.9453 23.3618 27.8715C23.4249 27.84 23.4837 27.8084 23.5424 27.7834C23.6012 27.7583 23.6512 27.7366 23.7046 27.717C23.7579 27.6974 23.8003 27.6843 23.8406 27.6713C23.8808 27.6582 23.9168 27.6484 23.9494 27.6419C23.9772 27.6333 24.0055 27.6267 24.0343 27.6223Z" fill="white"/>
<path d="M26.6548 33.7063C26.6375 33.7221 26.6185 33.736 26.5982 33.7477C26.5453 33.7833 26.4904 33.816 26.4339 33.8456C26.0619 34.0463 25.6485 34.1581 25.226 34.172C25.1455 34.172 25.0802 34.172 25.0345 34.172C25.0111 34.1719 24.9878 34.1697 24.9648 34.1655C24.988 34.163 25.0113 34.163 25.0345 34.1655C25.0802 34.1655 25.1433 34.1655 25.2249 34.159C25.4334 34.1453 25.64 34.1114 25.8419 34.0578C26.0433 34.0025 26.2387 33.9274 26.4252 33.8336C26.4959 33.7977 26.5536 33.7661 26.5917 33.7444C26.6113 33.7295 26.6325 33.7167 26.6548 33.7063Z" fill="white"/>
<path d="M21.2413 35.6824H29.2764V34.0621H21.2413V35.6824Z" fill="#0F913D"/>
<path d="M28.7585 34.0894C28.74 34.0894 28.7236 34.4419 28.7236 34.875C28.7236 35.3081 28.74 35.6607 28.7585 35.6607C28.777 35.6607 28.7933 35.3092 28.7933 34.875C28.7933 34.4408 28.778 34.0894 28.7585 34.0894Z" fill="#263238"/>
<path d="M28.0133 34.0894C27.9938 34.0894 27.9785 34.4419 27.9785 34.875C27.9785 35.3081 27.9938 35.6607 28.0133 35.6607C28.0329 35.6607 28.0482 35.3092 28.0482 34.875C28.0482 34.4408 28.0318 34.0894 28.0133 34.0894Z" fill="#263238"/>
<path d="M27.278 34.0894C27.2584 34.0894 27.2432 34.4419 27.2432 34.875C27.2432 35.3081 27.2584 35.6607 27.278 35.6607C27.2976 35.6607 27.3128 35.3092 27.3128 34.875C27.3128 34.4408 27.2976 34.0894 27.278 34.0894Z" fill="#263238"/>
<path d="M26.5456 34.0894C26.526 34.0894 26.5107 34.4419 26.5107 34.875C26.5107 35.3081 26.526 35.6607 26.5456 35.6607C26.5652 35.6607 26.5804 35.3092 26.5804 34.875C26.5804 34.4408 26.5662 34.0894 26.5456 34.0894Z" fill="#263238"/>
<path d="M25.8131 34.0894C25.7936 34.0894 25.7783 34.4419 25.7783 34.875C25.7783 35.3081 25.7936 35.6607 25.8131 35.6607C25.8327 35.6607 25.848 35.3092 25.848 34.875C25.848 34.4408 25.8327 34.0894 25.8131 34.0894Z" fill="#263238"/>
<path d="M25.0807 34.0894C25.0611 34.0894 25.0459 34.4419 25.0459 34.875C25.0459 35.3081 25.0611 35.6607 25.0807 35.6607C25.1003 35.6607 25.1155 35.3092 25.1155 34.875C25.1155 34.4408 25.1003 34.0894 25.0807 34.0894Z" fill="#263238"/>
<path d="M24.3473 34.0894C24.3277 34.0894 24.3125 34.4419 24.3125 34.875C24.3125 35.3081 24.3277 35.6607 24.3473 35.6607C24.3669 35.6607 24.3821 35.3092 24.3821 34.875C24.3821 34.4408 24.3669 34.0894 24.3473 34.0894Z" fill="#263238"/>
<path d="M23.6178 34.0894C23.5982 34.0894 23.583 34.4419 23.583 34.875C23.583 35.3081 23.5982 35.6607 23.6178 35.6607C23.6374 35.6607 23.6526 35.3092 23.6526 34.875C23.6526 34.4408 23.6374 34.0894 23.6178 34.0894Z" fill="#263238"/>
<path d="M22.8844 34.0894C22.8648 34.0894 22.8496 34.4419 22.8496 34.875C22.8496 35.3081 22.8648 35.6607 22.8844 35.6607C22.904 35.6607 22.9193 35.3092 22.9193 34.875C22.9193 34.4408 22.904 34.0894 22.8844 34.0894Z" fill="#263238"/>
<path d="M22.152 34.0894C22.1324 34.0894 22.1172 34.4419 22.1172 34.875C22.1172 35.3081 22.1324 35.6607 22.152 35.6607C22.1716 35.6607 22.1868 35.3092 22.1868 34.875C22.1868 34.4408 22.1716 34.0894 22.152 34.0894Z" fill="#263238"/>
<path d="M21.4196 34.0894C21.4 34.0894 21.3848 34.4419 21.3848 34.875C21.3848 35.3081 21.4 35.6607 21.4196 35.6607C21.4392 35.6607 21.4544 35.3092 21.4544 34.875C21.4544 34.4408 21.4381 34.0894 21.4196 34.0894Z" fill="#263238"/>
<g opacity="0.3">
<path d="M29.1483 34.0645C26.5674 34.4099 23.952 34.4099 21.3711 34.0645H29.1483Z" fill="black"/>
</g>
<path d="M21.2334 34.0673C21.2334 34.0869 23.0289 34.1021 25.2433 34.1021C27.4578 34.1021 29.2544 34.0869 29.2544 34.0673C29.2544 34.0477 27.4589 34.0325 25.2433 34.0325C23.0278 34.0325 21.2334 34.0477 21.2334 34.0673Z" fill="#263238"/>
<path d="M21.0606 37.2754H29.0957V35.6551H21.0606V37.2754Z" fill="#0F913D"/>
<path d="M28.5778 35.6833C28.5582 35.6833 28.543 36.0348 28.543 36.4679C28.543 36.901 28.5582 37.2536 28.5778 37.2536C28.5974 37.2536 28.6126 36.9021 28.6126 36.4679C28.6126 36.0337 28.5963 35.6833 28.5778 35.6833Z" fill="#263238"/>
<path d="M27.8327 35.6833C27.8131 35.6833 27.7979 36.0348 27.7979 36.4679C27.7979 36.901 27.8131 37.2536 27.8327 37.2536C27.8523 37.2536 27.8675 36.9021 27.8675 36.4679C27.8675 36.0337 27.8523 35.6833 27.8327 35.6833Z" fill="#263238"/>
<path d="M27.0973 35.6833C27.0788 35.6833 27.0625 36.0348 27.0625 36.4679C27.0625 36.901 27.0788 37.2536 27.0973 37.2536C27.1158 37.2536 27.1321 36.9021 27.1321 36.4679C27.1321 36.0337 27.1169 35.6833 27.0973 35.6833Z" fill="#263238"/>
<path d="M26.3649 35.6833C26.3453 35.6833 26.3301 36.0348 26.3301 36.4679C26.3301 36.901 26.3453 37.2536 26.3649 37.2536C26.3845 37.2536 26.3997 36.9021 26.3997 36.4679C26.3997 36.0337 26.3845 35.6833 26.3649 35.6833Z" fill="#263238"/>
<path d="M25.6325 35.6833C25.6129 35.6833 25.5977 36.0348 25.5977 36.4679C25.5977 36.901 25.6129 37.2536 25.6325 37.2536C25.6521 37.2536 25.6673 36.9021 25.6673 36.4679C25.6673 36.0337 25.6521 35.6833 25.6325 35.6833Z" fill="#263238"/>
<path d="M24.9001 35.6833C24.8805 35.6833 24.8652 36.0348 24.8652 36.4679C24.8652 36.901 24.8805 37.2536 24.9001 37.2536C24.9196 37.2536 24.9349 36.9021 24.9349 36.4679C24.9349 36.0337 24.9196 35.6833 24.9001 35.6833Z" fill="#263238"/>
<path d="M24.1715 35.6833C24.152 35.6833 24.1367 36.0348 24.1367 36.4679C24.1367 36.901 24.152 37.2536 24.1715 37.2536C24.1911 37.2536 24.2064 36.9021 24.2064 36.4679C24.2064 36.0337 24.1868 35.6833 24.1715 35.6833Z" fill="#263238"/>
<path d="M23.4372 35.6833C23.4176 35.6833 23.4023 36.0348 23.4023 36.4679C23.4023 36.901 23.4176 37.2536 23.4372 37.2536C23.4568 37.2536 23.472 36.9021 23.472 36.4679C23.472 36.0337 23.4568 35.6833 23.4372 35.6833Z" fill="#263238"/>
<path d="M22.7038 35.6833C22.6842 35.6833 22.6689 36.0348 22.6689 36.4679C22.6689 36.901 22.6842 37.2536 22.7038 37.2536C22.7234 37.2536 22.7386 36.9021 22.7386 36.4679C22.7386 36.0337 22.7234 35.6833 22.7038 35.6833Z" fill="#263238"/>
<path d="M21.9713 35.6833C21.9518 35.6833 21.9365 36.0348 21.9365 36.4679C21.9365 36.901 21.9518 37.2536 21.9713 37.2536C21.9909 37.2536 22.0062 36.9021 22.0062 36.4679C22.0062 36.0337 21.9964 35.6833 21.9713 35.6833Z" fill="#263238"/>
<path d="M21.234 35.6833C21.2145 35.6833 21.1992 36.0348 21.1992 36.4679C21.1992 36.901 21.2145 37.2536 21.234 37.2536C21.2536 37.2536 21.2689 36.9021 21.2689 36.4679C21.2689 36.0337 21.258 35.6833 21.234 35.6833Z" fill="#263238"/>
<g opacity="0.3">
<path d="M28.9677 35.6573C26.3865 36.0028 23.7707 36.0028 21.1895 35.6573H28.9677Z" fill="black"/>
</g>
<path d="M21.0586 35.6607C21.0586 35.6803 22.8541 35.6955 25.0696 35.6955C27.2851 35.6955 29.0795 35.6803 29.0795 35.6607C29.0795 35.6411 27.2851 35.6259 25.0696 35.6259C22.8541 35.6259 21.0586 35.6476 21.0586 35.6607Z" fill="#263238"/>
<path d="M21.8233 38.8434H29.8584V37.2231H21.8233V38.8434Z" fill="#0F913D"/>
<path d="M29.3415 37.2504C29.3219 37.2504 29.3066 37.6029 29.3066 38.036C29.3066 38.4691 29.3219 38.8217 29.3415 38.8217C29.3611 38.8217 29.3763 38.4702 29.3763 38.036C29.3763 37.6018 29.36 37.2504 29.3415 37.2504Z" fill="#263238"/>
<path d="M28.5954 37.2504C28.5758 37.2504 28.5605 37.6029 28.5605 38.036C28.5605 38.4691 28.5758 38.8217 28.5954 38.8217C28.615 38.8217 28.6302 38.4702 28.6302 38.036C28.6302 37.6018 28.615 37.2504 28.5954 37.2504Z" fill="#263238"/>
<path d="M27.861 37.2504C27.8425 37.2504 27.8262 37.6029 27.8262 38.036C27.8262 38.4691 27.8425 38.8217 27.861 38.8217C27.8795 38.8217 27.8958 38.4702 27.8958 38.036C27.8958 37.6018 27.8806 37.2504 27.861 37.2504Z" fill="#263238"/>
<path d="M27.1276 37.2504C27.1091 37.2504 27.0928 37.6029 27.0928 38.036C27.0928 38.4691 27.1091 38.8217 27.1276 38.8217C27.1461 38.8217 27.1624 38.4702 27.1624 38.036C27.1624 37.6018 27.1472 37.2504 27.1276 37.2504Z" fill="#263238"/>
<path d="M26.3952 37.2504C26.3767 37.2504 26.3604 37.6029 26.3604 38.036C26.3604 38.4691 26.3767 38.8217 26.3952 38.8217C26.4137 38.8217 26.43 38.4702 26.43 38.036C26.43 37.6018 26.4148 37.2504 26.3952 37.2504Z" fill="#263238"/>
<path d="M25.6628 37.2504C25.6443 37.2504 25.6279 37.6029 25.6279 38.036C25.6279 38.4691 25.6443 38.8217 25.6628 38.8217C25.6813 38.8217 25.6976 38.4702 25.6976 38.036C25.6976 37.6018 25.6823 37.2504 25.6628 37.2504Z" fill="#263238"/>
<path d="M24.9352 37.2504C24.9156 37.2504 24.9004 37.6029 24.9004 38.036C24.9004 38.4691 24.9156 38.8217 24.9352 38.8217C24.9548 38.8217 24.97 38.4702 24.97 38.036C24.97 37.6018 24.9515 37.2504 24.9352 37.2504Z" fill="#263238"/>
<path d="M24.1999 37.2504C24.1803 37.2504 24.165 37.6029 24.165 38.036C24.165 38.4691 24.1803 38.8217 24.1999 38.8217C24.2194 38.8217 24.2347 38.4702 24.2347 38.036C24.2347 37.6018 24.2194 37.2504 24.1999 37.2504Z" fill="#263238"/>
<path d="M23.4665 37.2504C23.4469 37.2504 23.4316 37.6029 23.4316 38.036C23.4316 38.4691 23.4469 38.8217 23.4665 38.8217C23.4861 38.8217 23.5013 38.4702 23.5013 38.036C23.5013 37.6018 23.4861 37.2504 23.4665 37.2504Z" fill="#263238"/>
<path d="M22.734 37.2504C22.7145 37.2504 22.6992 37.6029 22.6992 38.036C22.6992 38.4691 22.7145 38.8217 22.734 38.8217C22.7536 38.8217 22.7689 38.4702 22.7689 38.036C22.7689 37.6018 22.758 37.2504 22.734 37.2504Z" fill="#263238"/>
<path d="M22.0016 37.2504C21.982 37.2504 21.9668 37.6029 21.9668 38.036C21.9668 38.4691 21.982 38.8217 22.0016 38.8217C22.0212 38.8217 22.0364 38.4702 22.0364 38.036C22.0364 37.6018 22.0212 37.2504 22.0016 37.2504Z" fill="#263238"/>
<g opacity="0.3">
<path d="M29.7314 37.2255C27.1502 37.571 24.5344 37.571 21.9531 37.2255H29.7314Z" fill="black"/>
</g>
<path d="M21.8213 37.2287C21.8213 37.2483 23.6168 37.2635 25.8323 37.2635C28.0478 37.2635 29.8422 37.2483 29.8422 37.2287C29.8422 37.2091 28.0478 37.1938 25.8323 37.1938C23.6168 37.1938 21.8213 37.2102 21.8213 37.2287Z" fill="#263238"/>
<path d="M20.8819 40.3898H28.917V38.8315H20.8819V40.3898Z" fill="#0F913D"/>
<path d="M28.4001 38.8588C28.3805 38.8588 28.3652 39.1961 28.3652 39.614C28.3652 40.0318 28.3805 40.3692 28.4001 40.3692C28.4196 40.3692 28.4349 40.0307 28.4349 39.614C28.4349 39.1972 28.4153 38.8588 28.4001 38.8588Z" fill="#263238"/>
<path d="M27.6549 38.8588C27.6354 38.8588 27.6201 39.1961 27.6201 39.614C27.6201 40.0318 27.6354 40.3692 27.6549 40.3692C27.6745 40.3692 27.6898 40.0307 27.6898 39.614C27.6898 39.1972 27.6756 38.8588 27.6549 38.8588Z" fill="#263238"/>
<path d="M26.9196 38.8588C26.9011 38.8588 26.8848 39.1961 26.8848 39.614C26.8848 40.0318 26.9011 40.3692 26.9196 40.3692C26.9381 40.3692 26.9544 40.0307 26.9544 39.614C26.9544 39.1972 26.9392 38.8588 26.9196 38.8588Z" fill="#263238"/>
<path d="M26.1872 38.8588C26.1687 38.8588 26.1523 39.1961 26.1523 39.614C26.1523 40.0318 26.1687 40.3692 26.1872 40.3692C26.2057 40.3692 26.222 40.0307 26.222 39.614C26.222 39.1972 26.2068 38.8588 26.1872 38.8588Z" fill="#263238"/>
<path d="M25.4538 38.8588C25.4353 38.8588 25.4189 39.1961 25.4189 39.614C25.4189 40.0318 25.4353 40.3692 25.4538 40.3692C25.4723 40.3692 25.4886 40.0307 25.4886 39.614C25.4886 39.1972 25.4777 38.8588 25.4538 38.8588Z" fill="#263238"/>
<path d="M24.7213 38.8588C24.7018 38.8588 24.6865 39.1961 24.6865 39.614C24.6865 40.0318 24.7018 40.3692 24.7213 40.3692C24.7409 40.3692 24.7562 40.0307 24.7562 39.614C24.7562 39.1972 24.7409 38.8588 24.7213 38.8588Z" fill="#263238"/>
<path d="M23.9889 38.8588C23.9693 38.8588 23.9541 39.1961 23.9541 39.614C23.9541 40.0318 23.9693 40.3692 23.9889 40.3692C24.0085 40.3692 24.0237 40.0307 24.0237 39.614C24.0237 39.1972 24.0085 38.8588 23.9889 38.8588Z" fill="#263238"/>
<path d="M23.2565 38.8588C23.2369 38.8588 23.2217 39.1961 23.2217 39.614C23.2217 40.0318 23.2369 40.3692 23.2565 40.3692C23.2761 40.3692 23.2913 40.0307 23.2913 39.614C23.2913 39.1972 23.2761 38.8588 23.2565 38.8588Z" fill="#263238"/>
<path d="M22.526 38.8588C22.5064 38.8588 22.4912 39.1961 22.4912 39.614C22.4912 40.0318 22.5064 40.3692 22.526 40.3692C22.5456 40.3692 22.5609 40.0307 22.5609 39.614C22.5609 39.1972 22.5413 38.8588 22.526 38.8588Z" fill="#263238"/>
<path d="M21.7936 38.8588C21.774 38.8588 21.7588 39.1961 21.7588 39.614C21.7588 40.0318 21.774 40.3692 21.7936 40.3692C21.8132 40.3692 21.8284 40.0307 21.8284 39.614C21.8284 39.1972 21.8132 38.8588 21.7936 38.8588Z" fill="#263238"/>
<path d="M21.0602 38.8588C21.0406 38.8588 21.0254 39.1961 21.0254 39.614C21.0254 40.0318 21.0406 40.3692 21.0602 40.3692C21.0798 40.3692 21.095 40.0307 21.095 39.614C21.095 39.1972 21.0798 38.8588 21.0602 38.8588Z" fill="#263238"/>
<g opacity="0.3">
<path d="M28.7871 38.8339C26.2131 39.2757 23.5827 39.2757 21.0088 38.8339H28.7871Z" fill="black"/>
</g>
<path d="M20.8799 38.837C20.8799 38.8565 22.6754 38.8718 24.8909 38.8718C27.1064 38.8718 28.9008 38.8565 28.9008 38.837C28.9008 38.8174 27.1108 38.8032 24.8909 38.8032C22.671 38.8032 20.8799 38.8174 20.8799 38.837Z" fill="#263238"/>
<path d="M21.3995 41.9492H29.4346V40.3909H21.3995V41.9492Z" fill="#0F913D"/>
<path d="M28.9167 40.417C28.8982 40.417 28.8818 40.7554 28.8818 41.1733C28.8818 41.5911 28.8982 41.9285 28.9167 41.9285C28.9352 41.9285 28.9526 41.59 28.9526 41.1733C28.9526 40.7565 28.9362 40.417 28.9167 40.417Z" fill="#263238"/>
<path d="M28.1715 40.417C28.152 40.417 28.1367 40.7554 28.1367 41.1733C28.1367 41.5911 28.152 41.9285 28.1715 41.9285C28.1911 41.9285 28.2064 41.59 28.2064 41.1733C28.2064 40.7565 28.19 40.417 28.1715 40.417Z" fill="#263238"/>
<path d="M27.4362 40.417C27.4166 40.417 27.4014 40.7554 27.4014 41.1733C27.4014 41.5911 27.4166 41.9285 27.4362 41.9285C27.4558 41.9285 27.471 41.59 27.471 41.1733C27.471 40.7565 27.4547 40.417 27.4362 40.417Z" fill="#263238"/>
<path d="M26.7038 40.417C26.6842 40.417 26.6689 40.7554 26.6689 41.1733C26.6689 41.5911 26.6842 41.9285 26.7038 41.9285C26.7234 41.9285 26.7386 41.59 26.7386 41.1733C26.7386 40.7565 26.7234 40.417 26.7038 40.417Z" fill="#263238"/>
<path d="M25.9713 40.417C25.9518 40.417 25.9365 40.7554 25.9365 41.1733C25.9365 41.5911 25.9518 41.9285 25.9713 41.9285C25.9909 41.9285 26.0062 41.59 26.0062 41.1733C26.0062 40.7565 25.9909 40.417 25.9713 40.417Z" fill="#263238"/>
<path d="M25.2379 40.417C25.2184 40.417 25.2031 40.7554 25.2031 41.1733C25.2031 41.5911 25.2184 41.9285 25.2379 41.9285C25.2575 41.9285 25.2728 41.59 25.2728 41.1733C25.2728 40.7565 25.2597 40.417 25.2379 40.417Z" fill="#263238"/>
<path d="M24.5055 40.417C24.4859 40.417 24.4707 40.7554 24.4707 41.1733C24.4707 41.5911 24.4859 41.9285 24.5055 41.9285C24.5251 41.9285 24.5403 41.59 24.5403 41.1733C24.5403 40.7565 24.5251 40.417 24.5055 40.417Z" fill="#263238"/>
<path d="M23.7731 40.417C23.7535 40.417 23.7383 40.7554 23.7383 41.1733C23.7383 41.5911 23.7535 41.9285 23.7731 41.9285C23.7927 41.9285 23.8079 41.59 23.8079 41.1733C23.8079 40.7565 23.7927 40.417 23.7731 40.417Z" fill="#263238"/>
<path d="M23.0426 40.417C23.023 40.417 23.0078 40.7554 23.0078 41.1733C23.0078 41.5911 23.023 41.9285 23.0426 41.9285C23.0622 41.9285 23.0775 41.59 23.0775 41.1733C23.0775 40.7565 23.0622 40.417 23.0426 40.417Z" fill="#263238"/>
<path d="M22.3102 40.417C22.2906 40.417 22.2754 40.7554 22.2754 41.1733C22.2754 41.5911 22.2906 41.9285 22.3102 41.9285C22.3298 41.9285 22.345 41.59 22.345 41.1733C22.345 40.7565 22.3298 40.417 22.3102 40.417Z" fill="#263238"/>
<path d="M21.5778 40.417C21.5582 40.417 21.543 40.7554 21.543 41.1733C21.543 41.5911 21.5582 41.9285 21.5778 41.9285C21.5974 41.9285 21.6126 41.59 21.6126 41.1733C21.6126 40.7565 21.5963 40.417 21.5778 40.417Z" fill="#263238"/>
<g opacity="0.3">
<path d="M29.3045 40.3933C26.7363 40.8933 24.0956 40.8933 21.5273 40.3933H29.3045Z" fill="black"/>
</g>
<path d="M21.3975 40.3964C21.3975 40.416 23.193 40.4312 25.4074 40.4312C27.6218 40.4312 29.4184 40.416 29.4184 40.3964C29.4184 40.3768 27.6229 40.3616 25.4074 40.3616C23.1919 40.3616 21.3975 40.3768 21.3975 40.3964Z" fill="#263238"/>
<path d="M20.9395 43.4868H28.9746V41.9285H20.9395V43.4868Z" fill="#0F913D"/>
<path d="M28.4577 41.959C28.4381 41.959 28.4229 42.2974 28.4229 42.7142C28.4229 43.131 28.4381 43.4759 28.4577 43.4759C28.4773 43.4759 28.4925 43.1375 28.4925 42.7142C28.4925 42.2909 28.4762 41.959 28.4577 41.959Z" fill="#263238"/>
<path d="M27.7126 41.959C27.693 41.959 27.6777 42.2974 27.6777 42.7142C27.6777 43.131 27.693 43.4759 27.7126 43.4759C27.7321 43.4759 27.7474 43.1375 27.7474 42.7142C27.7474 42.2909 27.7321 41.959 27.7126 41.959Z" fill="#263238"/>
<path d="M26.9772 41.959C26.9587 41.959 26.9424 42.2974 26.9424 42.7142C26.9424 43.131 26.9587 43.4759 26.9772 43.4759C26.9957 43.4759 27.012 43.1375 27.012 42.7142C27.012 42.2909 27.0022 41.959 26.9772 41.959Z" fill="#263238"/>
<path d="M26.2399 41.959C26.2203 41.959 26.2051 42.2974 26.2051 42.7142C26.2051 43.131 26.2203 43.4759 26.2399 43.4759C26.2595 43.4759 26.2747 43.1375 26.2747 42.7142C26.2747 42.2909 26.2638 41.959 26.2399 41.959Z" fill="#263238"/>
<path d="M25.5114 41.959C25.4918 41.959 25.4766 42.2974 25.4766 42.7142C25.4766 43.131 25.4918 43.4759 25.5114 43.4759C25.531 43.4759 25.5462 43.1375 25.5462 42.7142C25.5462 42.2909 25.531 41.959 25.5114 41.959Z" fill="#263238"/>
<path d="M24.779 41.959C24.7594 41.959 24.7441 42.2974 24.7441 42.7142C24.7441 43.131 24.7594 43.4759 24.779 43.4759C24.7985 43.4759 24.8138 43.1375 24.8138 42.7142C24.8138 42.2909 24.7985 41.959 24.779 41.959Z" fill="#263238"/>
<path d="M24.0465 41.959C24.027 41.959 24.0117 42.2974 24.0117 42.7142C24.0117 43.131 24.027 43.4759 24.0465 43.4759C24.0661 43.4759 24.0814 43.1375 24.0814 42.7142C24.0814 42.2909 24.0629 41.959 24.0465 41.959Z" fill="#263238"/>
<path d="M23.3141 41.959C23.2945 41.959 23.2793 42.2974 23.2793 42.7142C23.2793 43.131 23.2945 43.4759 23.3141 43.4759C23.3337 43.4759 23.3489 43.1375 23.3489 42.7142C23.3489 42.2909 23.3337 41.959 23.3141 41.959Z" fill="#263238"/>
<path d="M22.5837 41.959C22.5641 41.959 22.5488 42.2974 22.5488 42.7142C22.5488 43.131 22.5641 43.4759 22.5837 43.4759C22.6032 43.4759 22.6185 43.1375 22.6185 42.7142C22.6185 42.2909 22.6032 41.959 22.5837 41.959Z" fill="#263238"/>
<path d="M21.8512 41.959C21.8316 41.959 21.8164 42.2974 21.8164 42.7142C21.8164 43.131 21.8316 43.4759 21.8512 43.4759C21.8708 43.4759 21.8861 43.1375 21.8861 42.7142C21.8861 42.2909 21.8708 41.959 21.8512 41.959Z" fill="#263238"/>
<path d="M21.1178 41.959C21.0982 41.959 21.083 42.2974 21.083 42.7142C21.083 43.131 21.0982 43.4759 21.1178 43.4759C21.1374 43.4759 21.1527 43.1375 21.1527 42.7142C21.1527 42.2909 21.1374 41.959 21.1178 41.959Z" fill="#263238"/>
<g opacity="0.3">
<path d="M28.8506 41.9308C26.2766 42.3726 23.6462 42.3726 21.0723 41.9308H28.8506Z" fill="black"/>
</g>
<path d="M20.9375 41.9339C20.9375 41.9524 22.733 41.9687 24.9485 41.9687C27.1641 41.9687 28.9585 41.9524 28.9585 41.9339C28.9585 41.9154 27.163 41.899 24.9485 41.899C22.7341 41.899 20.9375 41.9143 20.9375 41.9339Z" fill="#263238"/>
<path d="M28.9738 43.4824C28.9738 43.4824 28.9738 43.4737 28.9738 43.4563C28.9738 43.4389 28.9738 43.4095 28.9738 43.3779C28.9738 43.305 28.9738 43.2038 28.9738 43.0743C28.9738 42.8066 28.9683 42.4214 28.9651 41.9459V41.9285H28.9825H29.4254L29.4069 41.9481C29.4069 41.4921 29.4069 40.9687 29.4069 40.3887L29.4308 40.4126H28.8867V40.3876C28.8867 39.9055 28.8867 39.3832 28.8867 38.8413V38.8152H29.8541L29.828 38.8413C29.828 38.2646 29.828 37.7107 29.828 37.1905L29.8519 37.2156H29.0663V37.1916C29.0663 36.628 29.0663 36.1187 29.0663 35.6812V35.6617H29.2839L29.2665 35.6801C29.2665 35.1774 29.2665 34.7748 29.2665 34.494C29.2665 34.358 29.2665 34.2514 29.2665 34.1752C29.2665 34.1404 29.2665 34.1143 29.2665 34.0925C29.2656 34.0831 29.2656 34.0736 29.2665 34.0642C29.2679 34.0736 29.2679 34.0831 29.2665 34.0925C29.2665 34.1132 29.2665 34.1404 29.2665 34.1752C29.2665 34.2514 29.2665 34.3569 29.2741 34.493C29.2741 34.7748 29.2861 35.1774 29.2948 35.6791V35.6976H29.0771L29.0957 35.6791C29.0957 36.1143 29.0956 36.6258 29.1011 37.1895L29.0771 37.1666H29.8389H29.8639V37.1916C29.8639 37.7118 29.8639 38.2657 29.8639 38.8424V38.8685H28.8954L28.9226 38.8424C28.9226 39.3865 28.9226 39.9066 28.9226 40.3887L28.8976 40.3637H29.4417V40.3876C29.4417 40.9643 29.4417 41.491 29.4417 41.947V41.9666H28.9792L28.9966 41.9491C28.9966 42.4268 28.9912 42.8099 28.989 43.0776C28.989 43.2071 28.989 43.3083 28.989 43.3812C28.989 43.4127 28.989 43.4389 28.989 43.4595C28.9853 43.468 28.9801 43.4757 28.9738 43.4824Z" fill="#263238"/>
<path d="M31.9183 20.5937C31.9412 21.2471 31.7698 21.8926 31.4257 22.4486C31.0817 23.0046 30.5806 23.4461 29.9857 23.7173C29.3908 23.9884 28.7288 24.0771 28.0835 23.9721C27.4382 23.8671 26.8385 23.5731 26.3602 23.1273C25.882 22.6815 25.5467 22.1038 25.3967 21.4675C25.2468 20.8311 25.2889 20.1645 25.5177 19.5521C25.7465 18.9396 26.1518 18.4088 26.6824 18.0267C27.2129 17.6446 27.8448 17.4283 28.4982 17.4053C29.3745 17.3748 30.227 17.6935 30.8684 18.2914C31.5098 18.8893 31.8874 19.7174 31.9183 20.5937Z" fill="#0F913D"/>
<g opacity="0.1">
<path d="M28.4979 17.405C27.6217 17.4359 26.7937 17.8136 26.196 18.455C25.5983 19.0964 25.2798 19.949 25.3106 20.8252C25.3106 20.8252 27.635 20.848 28.1606 19.8926C28.6862 18.9372 28.4979 17.405 28.4979 17.405Z" fill="white"/>
</g>
<path d="M31.0705 20.5707C31.0879 21.0673 30.9576 21.5579 30.6961 21.9804C30.4347 22.403 30.0538 22.7385 29.6016 22.9446C29.1495 23.1507 28.6464 23.2181 28.1559 23.1383C27.6655 23.0585 27.2097 22.8351 26.8462 22.4963C26.4827 22.1574 26.2279 21.7184 26.1139 21.2348C25.9999 20.7511 26.0319 20.2445 26.2058 19.779C26.3797 19.3136 26.6877 18.9101 27.0909 18.6196C27.494 18.3292 27.9743 18.1648 28.4709 18.1473C28.8007 18.1357 29.1296 18.1891 29.4388 18.3046C29.748 18.4201 30.0313 18.5954 30.2727 18.8205C30.5142 19.0455 30.7089 19.3159 30.8458 19.6162C30.9826 19.9165 31.059 20.2408 31.0705 20.5707Z" fill="#0F913D"/>
<g opacity="0.2">
<path d="M31.0696 20.5709C31.0869 21.0675 30.9566 21.5581 30.6951 21.9807C30.4337 22.4032 30.0528 22.7388 29.6006 22.9449C29.1485 23.151 28.6454 23.2184 28.1549 23.1386C27.6645 23.0588 27.2087 22.8353 26.8452 22.4965C26.4818 22.1577 26.2269 21.7187 26.1129 21.235C25.9989 20.7514 26.0309 20.2448 26.2048 19.7793C26.3787 19.3138 26.6867 18.9103 27.0899 18.6199C27.4931 18.3295 27.9733 18.1651 28.4699 18.1476C28.7997 18.1359 29.1286 18.1894 29.4378 18.3049C29.747 18.4204 30.0304 18.5957 30.2718 18.8207C30.5132 19.0457 30.7079 19.3161 30.8448 19.6164C30.9817 19.9168 31.0581 20.2411 31.0696 20.5709Z" fill="black"/>
</g>
<path d="M31.1458 20.673C31.1623 21.1628 31.0332 21.6466 30.7748 22.0631C30.5164 22.4796 30.1403 22.8102 29.6941 23.013C29.2479 23.2158 28.7516 23.2818 28.2678 23.2026C27.7841 23.1234 27.3348 22.9026 26.9765 22.5681C26.6183 22.2336 26.3672 21.8004 26.2551 21.3232C26.1431 20.846 26.1749 20.3464 26.3468 19.8873C26.5186 19.4283 26.8227 19.0305 27.2205 18.7442C27.6184 18.4579 28.0922 18.296 28.582 18.279C28.9076 18.2676 29.2322 18.3206 29.5373 18.4348C29.8424 18.549 30.122 18.7222 30.3601 18.9446C30.5982 19.1669 30.7902 19.434 30.925 19.7306C31.0598 20.0271 31.1348 20.3474 31.1458 20.673Z" fill="#0F913D"/>
<g opacity="0.2">
<path d="M31.1477 20.6731C31.1642 21.163 31.0351 21.6467 30.7767 22.0632C30.5183 22.4797 30.1423 22.8103 29.696 23.0131C29.2498 23.216 28.7535 23.2819 28.2698 23.2028C27.7861 23.1236 27.3367 22.9028 26.9785 22.5682C26.6202 22.2337 26.3692 21.8005 26.2571 21.3233C26.145 20.8462 26.1769 20.3465 26.3487 19.8874C26.5206 19.4284 26.8246 19.0306 27.2225 18.7443C27.6203 18.458 28.0941 18.2962 28.584 18.2791C28.9096 18.2678 29.2342 18.3207 29.5393 18.4349C29.8444 18.5491 30.124 18.7223 30.3621 18.9447C30.6002 19.167 30.7921 19.4341 30.9269 19.7307C31.0618 20.0273 31.1368 20.3475 31.1477 20.6731Z" fill="white"/>
</g>
<path d="M28.7577 20.5415L28.7359 19.9082C28.852 19.9179 28.9663 19.9435 29.0754 19.9844C29.1319 20.0105 29.1858 20.0418 29.2365 20.078L29.2441 20.0584L29.3344 19.8266L29.3551 19.7733L29.2376 19.6579L29.1842 19.6851C29.0395 19.6144 28.8816 19.5747 28.7207 19.5687L28.7087 19.2194L28.5999 19.1356V19.2238H28.4508L28.4628 19.5796C27.9753 19.6438 27.7522 19.9311 27.7631 20.251C27.7783 20.6863 28.157 20.7875 28.5085 20.8604L28.5302 21.4883C28.3016 21.4781 28.0807 21.4025 27.8937 21.2706L27.7631 21.5971C27.9944 21.7516 28.2673 21.832 28.5455 21.8278L28.5542 22.0911L28.4323 22.0976L28.5574 22.1771L28.8153 22.1673L28.8023 21.8158C29.2941 21.7483 29.5194 21.4632 29.5085 21.1433C29.4933 20.7113 29.1091 20.6145 28.7577 20.5415ZM28.4976 20.485C28.3137 20.4382 28.1766 20.3761 28.1711 20.2227C28.1657 20.0693 28.2571 19.9681 28.478 19.9256L28.4976 20.485ZM28.7903 21.4774L28.7707 20.9224C28.9612 20.9692 29.1026 21.0312 29.1081 21.1901C29.1124 21.325 29.0188 21.4349 28.7903 21.4774Z" fill="#0F913D"/>
<g opacity="0.3">
<path d="M28.7586 20.5417L28.7369 19.9083C28.853 19.918 28.9673 19.9436 29.0764 19.9845C29.1329 20.0106 29.1868 20.042 29.2374 20.0781L29.2451 20.0585L29.3354 19.8267L29.3561 19.7734L29.2385 19.6581L29.1852 19.6853C29.0405 19.6145 28.8826 19.5748 28.7216 19.5688L28.7097 19.2195L28.6009 19.1357V19.2239H28.4518L28.4637 19.5797C27.9762 19.6439 27.7532 19.9312 27.7641 20.2511C27.7793 20.6864 28.158 20.7876 28.5094 20.8605L28.5312 21.4884C28.3026 21.4782 28.0817 21.4027 27.8946 21.2707L27.7641 21.5972C27.9954 21.7517 28.2683 21.8322 28.5465 21.8279L28.5552 22.0912L28.4333 22.0978L28.5584 22.1772L28.8163 22.1674L28.8033 21.8159C29.2951 21.7485 29.5204 21.4634 29.5095 21.1434C29.4943 20.7114 29.1101 20.6146 28.7586 20.5417ZM28.4986 20.4851C28.3147 20.4383 28.1776 20.3763 28.1721 20.2228C28.1667 20.0694 28.2581 19.9682 28.479 19.9258L28.4986 20.4851ZM28.7913 21.4775L28.7717 20.9225C28.9621 20.9693 29.1036 21.0313 29.109 21.1902C29.1134 21.3252 29.0198 21.4351 28.7913 21.4775Z" fill="black"/>
</g>
<path d="M28.6943 21.7374L28.7062 22.09L28.4483 22.0987L28.4364 21.7505C28.1591 21.7519 27.8878 21.6704 27.6572 21.5165L27.7878 21.1901C27.9754 21.3209 28.196 21.3963 28.4244 21.4077L28.4026 20.7787C28.0511 20.7069 27.6736 20.6068 27.6583 20.1705C27.6463 19.844 27.8694 19.5622 28.358 19.498L28.345 19.1421L28.6029 19.1334L28.6148 19.4827C28.8403 19.4843 29.0617 19.5423 29.259 19.6514L29.1415 19.9778C28.9823 19.892 28.8071 19.8401 28.6268 19.8255L28.6496 20.4599C29.0011 20.5328 29.3853 20.6297 29.4005 21.066C29.4114 21.3859 29.185 21.67 28.6943 21.7374ZM28.3896 20.4022L28.37 19.8429C28.1523 19.8854 28.0577 20.0018 28.062 20.14C28.0664 20.2782 28.2057 20.3554 28.3896 20.4022ZM28.9989 21.1074C28.9935 20.9539 28.8531 20.8897 28.6627 20.8397L28.6823 21.3957C28.9097 21.3533 29.0033 21.2423 28.9989 21.1074Z" fill="#0F913D"/>
<path d="M28.7102 23.2639H28.7309L28.7897 23.2574L28.8865 23.2487C28.9308 23.2457 28.9748 23.2395 29.0182 23.2302L29.1814 23.1986C29.2128 23.1931 29.2438 23.1851 29.2739 23.1747L29.3719 23.1453C29.4087 23.136 29.445 23.1248 29.4807 23.1116L29.5895 23.0681C29.6265 23.0517 29.6657 23.0387 29.6983 23.0191L29.8147 22.9582C29.9857 22.8654 30.1459 22.7541 30.2924 22.6263L30.4067 22.5174C30.4263 22.4989 30.4459 22.4804 30.4644 22.4609L30.5188 22.3967C30.5536 22.3542 30.5928 22.3118 30.6276 22.2661C30.6624 22.2204 30.694 22.1714 30.7277 22.1235L30.7527 22.0865C30.761 22.0742 30.7686 22.0615 30.7756 22.0484L30.8191 21.9701L30.8637 21.8907C30.8785 21.8636 30.8916 21.8356 30.9029 21.8069C30.9269 21.7503 30.9541 21.698 30.9769 21.636L31.0357 21.4543C31.1863 20.9426 31.1672 20.3959 30.9813 19.896C30.9573 19.8358 30.9334 19.7771 30.9094 19.7197C30.8833 19.6621 30.8518 19.6109 30.8235 19.5532C30.8103 19.5255 30.7954 19.4986 30.7789 19.4727C30.7625 19.4477 30.7462 19.4216 30.7288 19.3966L30.6798 19.3215L30.6548 19.2845L30.6276 19.2507L30.5188 19.1147C30.4818 19.0712 30.4404 19.032 30.4013 18.9917L30.3436 18.9319L30.2816 18.8786L30.1597 18.7698C30.0044 18.6525 29.8365 18.5529 29.6591 18.4727L29.5405 18.4194C29.5013 18.403 29.4611 18.3922 29.423 18.3791L29.3142 18.3421C29.2783 18.3301 29.2413 18.3247 29.2054 18.316L29.1052 18.2942C29.0746 18.286 29.0433 18.2802 29.0117 18.2768L28.8463 18.2561C28.8026 18.2503 28.7586 18.2474 28.7146 18.2474H28.6167H28.5568H28.5361H28.7146C28.7589 18.2462 28.8033 18.248 28.8473 18.2529L29.0138 18.2714C29.0453 18.2749 29.0766 18.2803 29.1074 18.2877L29.2086 18.3095C29.2424 18.3182 29.2794 18.3225 29.3174 18.3345L29.4263 18.3704C29.4643 18.3845 29.5046 18.3943 29.5438 18.4107L29.6646 18.4629C29.8433 18.543 30.0127 18.6426 30.1695 18.76L30.2935 18.8688C30.3142 18.8862 30.336 18.9036 30.3556 18.9221L30.4143 18.982C30.4535 19.0222 30.4959 19.0614 30.5329 19.1049L30.6418 19.242L30.67 19.2769L30.6951 19.3138C30.7114 19.3389 30.7288 19.3639 30.7451 19.39L30.7963 19.4662C30.8137 19.4912 30.8257 19.5206 30.8409 19.5478C30.8692 19.6022 30.9007 19.6566 30.9279 19.7143C30.9551 19.772 30.9758 19.8329 31.0009 19.8928C31.0905 20.1446 31.1426 20.4082 31.1554 20.6752C31.1618 20.9427 31.1281 21.2098 31.0553 21.4674C31.0357 21.5283 31.015 21.5892 30.9954 21.6491C30.9758 21.7089 30.9454 21.7655 30.9203 21.8221C30.9088 21.8511 30.8958 21.8794 30.8812 21.907L30.8365 21.9864L30.7919 22.0659L30.7691 22.105L30.743 22.1409L30.6428 22.2857C30.608 22.3314 30.5688 22.3738 30.534 22.4162L30.4796 22.4804L30.4209 22.5381L30.3044 22.6469C30.1564 22.7755 29.9943 22.8868 29.8213 22.9788L29.7048 23.0398C29.6667 23.0583 29.6265 23.0713 29.5895 23.0876L29.4807 23.1312C29.445 23.144 29.4087 23.1549 29.3719 23.1638L29.2728 23.1932C29.2425 23.2026 29.2116 23.2102 29.1803 23.2161L29.016 23.2454C28.9722 23.2537 28.9278 23.2588 28.8833 23.2607L28.7864 23.2683H28.7266L28.7102 23.2639Z" fill="#263238"/>
<path d="M25.8534 22.3578C25.8534 22.3578 25.8469 22.3502 25.8371 22.3328L25.7946 22.2588C25.7761 22.2273 25.7544 22.187 25.7315 22.1391C25.7087 22.0912 25.6815 22.0379 25.6575 21.9759C25.6456 21.9443 25.6325 21.9128 25.6184 21.879C25.6042 21.8453 25.5944 21.8094 25.5814 21.7702C25.5542 21.6962 25.5335 21.6157 25.5106 21.5308C25.416 21.16 25.3872 20.7755 25.4258 20.3948C25.4355 20.3077 25.4443 20.2239 25.4606 20.1477C25.4671 20.1086 25.4725 20.0716 25.4813 20.0389C25.49 20.0063 25.4976 19.9693 25.5063 19.9366C25.5193 19.8724 25.54 19.8148 25.5542 19.7647C25.5683 19.7147 25.5846 19.6711 25.5988 19.6363C25.6129 19.6015 25.6216 19.5775 25.6292 19.5569C25.6323 19.5472 25.6367 19.5381 25.6423 19.5297C25.6408 19.5397 25.6383 19.5496 25.6347 19.559C25.6271 19.5797 25.6184 19.6069 25.6075 19.6396C25.5966 19.6722 25.5814 19.7179 25.5683 19.768C25.5552 19.818 25.5357 19.8768 25.5226 19.941C25.5153 19.9736 25.5077 20.0074 25.4997 20.0422C25.4921 20.0781 25.4878 20.1151 25.4802 20.151C25.466 20.2272 25.4584 20.3099 25.4475 20.3969C25.432 20.5859 25.4301 20.7757 25.4421 20.965C25.4581 21.1538 25.4883 21.3411 25.5324 21.5254C25.5552 21.6092 25.5748 21.6897 25.601 21.7637C25.6129 21.8007 25.6238 21.8366 25.6369 21.8725L25.6739 21.9694C25.6967 22.0314 25.7228 22.0847 25.7446 22.1326C25.7664 22.1805 25.7859 22.2218 25.8034 22.2545L25.8414 22.3306C25.8467 22.3391 25.8507 22.3483 25.8534 22.3578Z" fill="white"/>
<path d="M27.8821 20.4283C27.8517 20.4117 27.8259 20.3877 27.807 20.3587C27.7559 20.2909 27.7281 20.2085 27.7275 20.1236C27.7284 20.0389 27.7562 19.9565 27.807 19.8886C27.826 19.859 27.8522 19.8347 27.8831 19.8179C27.8831 19.8179 27.8549 19.8462 27.8211 19.8984C27.7765 19.965 27.7527 20.0434 27.7527 20.1236C27.7527 20.2039 27.7765 20.2823 27.8211 20.3489C27.8549 20.4 27.8853 20.4251 27.8821 20.4283Z" fill="white"/>
<path d="M28.4098 19.4468C28.3967 19.4144 28.3911 19.3794 28.3935 19.3445C28.3877 19.3081 28.3907 19.2708 28.4022 19.2357C28.4098 19.2357 28.4163 19.2814 28.4185 19.3391C28.4243 19.3752 28.4213 19.4121 28.4098 19.4468Z" fill="white"/>
<path d="M28.6963 18.0745C28.6691 18.0774 28.6418 18.0774 28.6147 18.0745C28.5896 18.0745 28.557 18.0745 28.5211 18.0745C28.4852 18.0745 28.4416 18.0745 28.3959 18.0745C28.3502 18.0745 28.2991 18.0745 28.2447 18.0865C28.1903 18.0985 28.1359 18.1007 28.0727 18.1094C27.9423 18.1329 27.8136 18.1653 27.6875 18.2062C27.5618 18.2493 27.4392 18.3013 27.3208 18.3618C27.2675 18.3912 27.212 18.4173 27.1696 18.4467C27.1271 18.4761 27.0803 18.5022 27.0422 18.5283C27.0042 18.5544 26.9704 18.5794 26.941 18.6012C26.9117 18.623 26.8855 18.6426 26.866 18.6589C26.8465 18.6777 26.825 18.6941 26.8018 18.7079C26.8197 18.688 26.8389 18.6695 26.8594 18.6524C26.879 18.6339 26.903 18.6132 26.9323 18.5903C26.9617 18.5675 26.9933 18.5403 27.0325 18.5142C27.0716 18.488 27.1119 18.4576 27.1587 18.4293C27.2055 18.401 27.2566 18.3716 27.3099 18.3411C27.4288 18.2795 27.5521 18.2267 27.6788 18.1834C27.8062 18.1419 27.9364 18.1099 28.0684 18.0876C28.1304 18.0789 28.1881 18.0691 28.2425 18.0658C28.2969 18.0626 28.3513 18.0582 28.3948 18.0571C28.4384 18.056 28.4841 18.0571 28.5211 18.0571C28.5581 18.0571 28.5896 18.0571 28.6157 18.0571L28.6963 18.0745Z" fill="white"/>
<path d="M29.1258 23.8288C29.1071 23.8363 29.0878 23.8421 29.0681 23.8462C29.0144 23.8607 28.9599 23.8719 28.9049 23.88C28.7251 23.9094 28.5425 23.9181 28.3608 23.9061C28.1762 23.8939 27.9937 23.8607 27.8167 23.8071C27.7503 23.7853 27.6959 23.7668 27.66 23.7505C27.6408 23.7438 27.6222 23.7355 27.6045 23.7255C27.6247 23.7284 27.6444 23.7339 27.6633 23.7418C27.7002 23.7548 27.7547 23.7712 27.8221 23.7897C27.9974 23.8384 28.1771 23.8693 28.3586 23.8822C28.5401 23.8938 28.7224 23.8876 28.9027 23.8637C28.9723 23.8539 29.0278 23.8441 29.067 23.8375C29.0861 23.832 29.1059 23.829 29.1258 23.8288Z" fill="white"/>
<path d="M17.9354 43.4444L3.19601 43.3737C2.34453 43.3697 1.52951 43.0276 0.930176 42.4228C0.330843 41.8179 -0.00372923 40.9998 3.13621e-05 40.1483L0.15564 3.19821C0.157492 2.77599 0.242562 2.35828 0.405982 1.96897C0.569403 1.57966 0.807967 1.22639 1.10803 0.929356C1.4081 0.632322 1.76378 0.397357 2.15473 0.237899C2.54568 0.078441 2.96423 -0.00238209 3.38644 5.3449e-05L18.1214 0.0642559C18.9727 0.0682875 19.7876 0.410184 20.3869 1.01479C20.9862 1.6194 21.3209 2.43723 21.3174 3.28852L21.1618 40.243C21.1607 40.6652 21.0763 41.0831 20.9134 41.4726C20.7505 41.8621 20.5124 42.2157 20.2127 42.5131C19.913 42.8105 19.5576 43.0458 19.1668 43.2056C18.776 43.3654 18.3576 43.4466 17.9354 43.4444Z" fill="#263238"/>
<path d="M18.1007 1.34378L15.2475 1.33072L6.90006 1.29155H5.89568L3.39287 1.28067C3.09754 1.27923 2.80483 1.336 2.53145 1.44773C2.25807 1.55946 2.00938 1.72396 1.79959 1.93182C1.5898 2.13969 1.42303 2.38686 1.30879 2.6592C1.19455 2.93154 1.1351 3.22372 1.13381 3.51905L0.981467 39.5899C0.980178 39.8852 1.03705 40.1778 1.14885 40.451C1.26064 40.7243 1.42516 40.9728 1.63301 41.1825C1.84086 41.3922 2.08798 41.5589 2.36025 41.673C2.63252 41.7872 2.92461 41.8466 3.21985 41.8479L17.9309 41.9154C18.2262 41.9164 18.5189 41.8592 18.7921 41.7471C19.0653 41.6349 19.3137 41.4701 19.5232 41.2619C19.7327 41.0537 19.8991 40.8063 20.013 40.5338C20.1268 40.2613 20.1859 39.9691 20.1867 39.6737L20.3391 3.60284C20.3405 3.30751 20.2837 3.01479 20.172 2.74141C20.0603 2.46803 19.8958 2.21935 19.6879 2.00956C19.48 1.79977 19.2329 1.63299 18.9605 1.51876C18.6882 1.40452 18.396 1.34506 18.1007 1.34378Z" fill="#FAFAFA"/>
<path d="M18.2086 4.62153C18.2086 4.65795 18.1978 4.69354 18.1776 4.72381C18.1573 4.75408 18.1285 4.77765 18.0948 4.79153C18.0612 4.80542 18.0241 4.809 17.9884 4.80181C17.9527 4.79463 17.92 4.777 17.8943 4.75118C17.8686 4.72535 17.8512 4.69248 17.8442 4.65673C17.8373 4.62099 17.841 4.58398 17.8551 4.55039C17.8692 4.51681 17.893 4.48816 17.9233 4.46809C17.9537 4.44801 17.9894 4.43741 18.0258 4.43763C18.0744 4.43791 18.1209 4.45742 18.1551 4.49187C18.1894 4.52633 18.2086 4.57294 18.2086 4.62153Z" fill="#263238"/>
<path d="M18.2057 5.28753C18.2055 5.32385 18.1945 5.3593 18.1742 5.3894C18.1538 5.4195 18.125 5.4429 18.0914 5.45665C18.0578 5.47041 18.0209 5.47389 17.9853 5.46668C17.9497 5.45946 17.917 5.44186 17.8914 5.41609C17.8658 5.39033 17.8484 5.35756 17.8413 5.32192C17.8343 5.28628 17.838 5.24936 17.852 5.21582C17.8659 5.18227 17.8895 5.15362 17.9197 5.13346C17.95 5.1133 17.9855 5.10254 18.0218 5.10254C18.0707 5.10283 18.1174 5.12244 18.1519 5.1571C18.1864 5.19177 18.2057 5.23865 18.2057 5.28753Z" fill="#263238"/>
<path d="M18.2059 5.94575C18.2061 5.98243 18.1954 6.01834 18.1752 6.04893C18.1549 6.07952 18.1261 6.1034 18.0922 6.11753C18.0584 6.13167 18.0211 6.13542 17.9851 6.12832C17.9491 6.12122 17.9161 6.10358 17.8901 6.07764C17.8642 6.0517 17.8465 6.01864 17.8394 5.98265C17.8323 5.94667 17.8361 5.90938 17.8502 5.87554C17.8644 5.84169 17.8882 5.81281 17.9188 5.79257C17.9494 5.77232 17.9853 5.76163 18.022 5.76184C18.0707 5.76213 18.1173 5.7816 18.1517 5.81602C18.1862 5.85045 18.2056 5.89706 18.2059 5.94575Z" fill="#263238"/>
<path d="M18.8563 10.9081H4.11147C3.85305 10.9081 3.64355 11.1176 3.64355 11.376V20.3883C3.64355 20.6467 3.85305 20.8562 4.11147 20.8562H18.8563C19.1147 20.8562 19.3242 20.6467 19.3242 20.3883V11.376C19.3242 11.1176 19.1147 10.9081 18.8563 10.9081Z" fill="#EBEBEB"/>
<path d="M18.4276 10.2616H3.68276C3.42434 10.2616 3.21484 10.4711 3.21484 10.7295V19.7418C3.21484 20.0002 3.42434 20.2097 3.68276 20.2097H18.4276C18.686 20.2097 18.8955 20.0002 18.8955 19.7418V10.7295C18.8955 10.4711 18.686 10.2616 18.4276 10.2616Z" fill="#E0E0E0"/>
<path d="M17.9276 9.72498H3.18276C2.92434 9.72498 2.71484 9.93447 2.71484 10.1929V19.2052C2.71484 19.4636 2.92434 19.6731 3.18276 19.6731H17.9276C18.186 19.6731 18.3955 19.4636 18.3955 19.2052V10.1929C18.3955 9.93447 18.186 9.72498 17.9276 9.72498Z" fill="#0F913D"/>
<path d="M5.29967 11.9971C5.29967 12.1244 5.19847 12.1984 5.00477 12.1984H4.625V11.4617H4.9841C5.168 11.4617 5.26267 11.5389 5.26267 11.6532C5.26334 11.6867 5.25449 11.7197 5.23716 11.7484C5.21983 11.7771 5.19472 11.8003 5.16474 11.8153C5.20457 11.8257 5.23966 11.8494 5.26419 11.8824C5.28873 11.9155 5.30125 11.9559 5.29967 11.9971ZM4.79367 11.5901V11.7642H4.96342C5.04612 11.7642 5.09183 11.7348 5.09183 11.6771C5.09183 11.6195 5.04612 11.5901 4.96342 11.5901H4.79367ZM5.12883 11.9796C5.12883 11.9176 5.08095 11.8882 4.9928 11.8882H4.79367V12.07H4.9928C5.08095 12.07 5.12883 12.0428 5.12883 11.9796Z" fill="white"/>
<path d="M5.91225 12.0406H5.57057L5.50527 12.1984H5.33008L5.65653 11.4617H5.8252L6.15165 12.1984H5.97319L5.91225 12.0406ZM5.85893 11.9111L5.74141 11.6292L5.62497 11.9111H5.85893Z" fill="white"/>
<path d="M6.90916 11.4617V12.1984H6.76878L6.40207 11.7511V12.1984H6.2334V11.4617H6.37486L6.74049 11.9089V11.4617H6.90916Z" fill="white"/>
<path d="M7.34928 11.9091L7.25025 12.0179V12.204H7.08594V11.4673H7.25569V11.8111L7.58215 11.4673H7.77149L7.4668 11.7937L7.79325 12.2018H7.59412L7.34928 11.9091Z" fill="white"/>
<path d="M5.15966 15.0584H5.02472V15.2358H4.95508V15.0584H4.57422V15.0084L4.93223 14.5601H5.00949L4.66454 14.9953H4.95726V14.8397H5.02472V14.9953H5.15966V15.0584Z" fill="white"/>
<path d="M5.65558 15.0421C5.65558 15.1509 5.57397 15.2423 5.41074 15.2423C5.32138 15.2454 5.23421 15.2143 5.16699 15.1553L5.20181 15.0998C5.25838 15.1525 5.33349 15.1806 5.41074 15.1781C5.51956 15.1781 5.58485 15.1259 5.58485 15.0421C5.58485 14.9583 5.52718 14.9083 5.40204 14.9083H5.35416V14.8571L5.54133 14.6221H5.19529V14.5601H5.63056V14.6101L5.44013 14.8506C5.58377 14.8637 5.65558 14.9344 5.65558 15.0421Z" fill="white"/>
<path d="M6.20332 15.0378C6.20332 15.152 6.12389 15.2423 5.95849 15.2423C5.86947 15.2452 5.78271 15.2141 5.71582 15.1553L5.75064 15.0998C5.77822 15.1259 5.81069 15.1462 5.84618 15.1597C5.88167 15.1731 5.91947 15.1794 5.9574 15.1781C6.07274 15.1781 6.13368 15.1226 6.13368 15.0399C6.13368 14.9572 6.07927 14.8996 5.90734 14.8996H5.7637L5.79852 14.5601H6.1685V14.6221H5.85946L5.83552 14.8397H5.92257C6.12606 14.8375 6.20332 14.9181 6.20332 15.0378Z" fill="white"/>
<path d="M6.79919 15.0342C6.79887 15.0634 6.7925 15.0922 6.78049 15.1188C6.76848 15.1454 6.75108 15.1692 6.7294 15.1887C6.70773 15.2083 6.68224 15.2231 6.65454 15.2323C6.62685 15.2414 6.59755 15.2448 6.5685 15.2421C6.38895 15.2421 6.29102 15.1169 6.29102 14.9037C6.29102 14.6741 6.41616 14.5544 6.60006 14.5544C6.65574 14.552 6.71103 14.5648 6.76002 14.5914L6.73173 14.6468C6.6922 14.6239 6.64682 14.6129 6.60115 14.6153C6.45533 14.6153 6.36175 14.7089 6.36175 14.8928C6.36175 14.908 6.36175 14.9265 6.36175 14.9472C6.3814 14.9101 6.41138 14.8794 6.44807 14.8589C6.48475 14.8385 6.52658 14.8291 6.5685 14.8318C6.59729 14.8281 6.62654 14.8306 6.65431 14.8391C6.68207 14.8475 6.70772 14.8618 6.72954 14.881C6.75136 14.9001 6.76885 14.9237 6.78086 14.9501C6.79287 14.9765 6.79912 15.0052 6.79919 15.0342ZM6.73064 15.0342C6.73064 14.945 6.66426 14.8884 6.56088 14.8884C6.53969 14.886 6.51824 14.888 6.49782 14.8941C6.47741 14.9003 6.45848 14.9106 6.44218 14.9244C6.42588 14.9381 6.41256 14.9551 6.40303 14.9741C6.3935 14.9932 6.38797 15.014 6.38678 15.0353C6.38678 15.1104 6.4488 15.1811 6.56524 15.1811C6.58581 15.1836 6.60667 15.1817 6.62646 15.1755C6.64624 15.1694 6.66453 15.1592 6.68012 15.1456C6.69571 15.1319 6.70826 15.1152 6.71696 15.0964C6.72567 15.0776 6.73033 15.0571 6.73064 15.0364V15.0342Z" fill="white"/>
<path d="M8.2569 15.2355L8.09584 15.0233L7.93371 15.2355H7.85645L8.05776 14.9754L7.86624 14.7284H7.9435L8.09584 14.9264L8.24819 14.7284H8.32436L8.13284 14.9721L8.33524 15.2322L8.2569 15.2355Z" fill="white"/>
<path d="M8.77481 15.2355L8.61049 15.0233L8.44835 15.2355H8.37109L8.57241 14.9754L8.38089 14.7284H8.45815L8.61049 14.9264L8.76284 14.7284H8.83792L8.65075 14.9721L8.85316 15.2322L8.77481 15.2355Z" fill="white"/>
<path d="M9.29107 15.2355L9.13002 15.0233L8.96788 15.2355H8.89062L9.09085 14.9754L8.89933 14.7284H8.97659L9.13002 14.9264L9.28237 14.7284H9.35745L9.16593 14.9721L9.36942 15.2322L9.29107 15.2355Z" fill="white"/>
<path d="M9.80606 15.2355L9.64501 15.0233L9.4796 15.2355H9.40234L9.60366 14.9754L9.41214 14.7284H9.4894L9.64174 14.9264L9.79409 14.7284H9.87026L9.67983 14.9721L9.88223 15.2322L9.80606 15.2355Z" fill="white"/>
<path d="M11.584 15.2357L11.423 15.0235L11.2609 15.2357H11.1836L11.3838 14.9724L11.1934 14.7253H11.2706L11.423 14.9234L11.5753 14.7253H11.6559L11.4589 14.9724L11.6624 15.2324L11.584 15.2357Z" fill="white"/>
<path d="M12.0987 15.2355L11.9376 15.0233L11.7755 15.2355H11.6982L11.8996 14.9754L11.708 14.7284H11.7853L11.9376 14.9264L12.09 14.7284H12.1662L11.9746 14.9721L12.177 15.2322L12.0987 15.2355Z" fill="white"/>
<path d="M12.6153 15.2357L12.4542 15.0235L12.2921 15.2357H12.2148L12.4183 14.9724L12.2268 14.7253H12.3041L12.4564 14.9234L12.6088 14.7253H12.6838L12.4912 14.9724L12.6936 15.2324L12.6153 15.2357Z" fill="white"/>
<path d="M13.1299 15.2355L12.9689 15.0233L12.8068 15.2355H12.7295L12.9297 14.9754L12.7436 14.7284H12.8209L12.9743 14.9264L13.1267 14.7284H13.2018L13.0048 14.9721L13.2083 15.2322L13.1299 15.2355Z" fill="white"/>
<path d="M14.7306 14.5601V15.2358H14.6609V14.6221H14.501V14.5601H14.7306Z" fill="white"/>
<path d="M15.3363 15.0421C15.3363 15.1509 15.2546 15.2423 15.0914 15.2423C15.002 15.2454 14.9149 15.2143 14.8477 15.1553L14.8825 15.0998C14.9104 15.126 14.9433 15.1464 14.9791 15.1598C15.015 15.1733 15.0531 15.1795 15.0914 15.1781C15.2002 15.1781 15.2655 15.1259 15.2655 15.0421C15.2655 14.9583 15.2078 14.9083 15.0827 14.9083H15.0348V14.8571L15.222 14.6221H14.8759V14.5601H15.3112V14.6101L15.1208 14.8506C15.2644 14.8637 15.3363 14.9344 15.3363 15.0421Z" fill="white"/>
<path d="M16.0084 15.0584H15.8724V15.2358H15.8038V15.0584H15.4219V15.0084L15.7799 14.5601H15.8571L15.5122 14.9953H15.8049V14.8397H15.8724V14.9953H16.0084V15.0584Z" fill="white"/>
<path d="M16.5293 15.1746V15.2355H16.0549V15.1898L16.3356 14.9145C16.4118 14.8394 16.427 14.7937 16.427 14.748C16.427 14.6696 16.3715 14.6218 16.2681 14.6218C16.2338 14.6195 16.1994 14.625 16.1675 14.6381C16.1356 14.6511 16.1072 14.6712 16.0842 14.6968L16.0342 14.6544C16.0646 14.6217 16.1017 14.5961 16.1431 14.5794C16.1845 14.5626 16.229 14.5552 16.2736 14.5576C16.4107 14.5576 16.4977 14.6272 16.4977 14.7404C16.4964 14.7814 16.486 14.8217 16.4672 14.8582C16.4483 14.8947 16.4216 14.9266 16.3889 14.9515L16.1593 15.1778L16.5293 15.1746Z" fill="white"/>
<path d="M4.22852 16.6382C4.22833 16.6156 4.2328 16.5931 4.24166 16.5722C4.25051 16.5514 4.26355 16.5326 4.27998 16.5169C4.29641 16.5013 4.31587 16.4893 4.33715 16.4815C4.35844 16.4737 4.3811 16.4704 4.40372 16.4717C4.42848 16.4708 4.45314 16.4754 4.47591 16.4852C4.49867 16.495 4.51899 16.5097 4.53539 16.5283L4.48751 16.5729C4.47783 16.5609 4.46555 16.5513 4.45161 16.5447C4.43766 16.5381 4.42241 16.5347 4.40698 16.5348C4.37957 16.5348 4.35327 16.5457 4.33388 16.5651C4.3145 16.5845 4.30361 16.6108 4.30361 16.6382C4.30361 16.6656 4.3145 16.6919 4.33388 16.7113C4.35327 16.7307 4.37957 16.7416 4.40698 16.7416C4.42241 16.7417 4.43766 16.7384 4.45161 16.7318C4.46555 16.7252 4.47783 16.7155 4.48751 16.7035L4.53539 16.747C4.51924 16.7663 4.49884 16.7815 4.4758 16.7915C4.45276 16.8015 4.42771 16.806 4.40263 16.8047C4.3801 16.8059 4.35756 16.8025 4.3364 16.7946C4.31524 16.7868 4.29592 16.7747 4.27961 16.7591C4.2633 16.7435 4.25035 16.7247 4.24157 16.7039C4.23278 16.6831 4.22834 16.6608 4.22852 16.6382Z" fill="white"/>
<path d="M4.79174 16.7309H4.64266L4.61328 16.7995H4.53711L4.68075 16.473H4.75474L4.89838 16.7995H4.82112L4.79174 16.7309ZM4.76889 16.6743L4.71775 16.5503L4.6666 16.6743H4.76889Z" fill="white"/>
<path d="M5.13926 16.7995L5.07614 16.7102H5.00759V16.7995H4.93359V16.473H5.07288C5.15885 16.473 5.21325 16.5176 5.21325 16.5895C5.21367 16.6112 5.20757 16.6325 5.19574 16.6508C5.18391 16.669 5.16689 16.6833 5.14688 16.6917L5.2187 16.7951L5.13926 16.7995ZM5.06853 16.5383H5.00759V16.6471H5.06853C5.11423 16.6471 5.13708 16.6265 5.13708 16.5905C5.13708 16.5546 5.11423 16.5383 5.06853 16.5383Z" fill="white"/>
<path d="M5.24707 16.7678L5.2721 16.7112C5.30392 16.7336 5.342 16.7454 5.38092 16.7449C5.42553 16.7449 5.44294 16.7308 5.44294 16.7112C5.44294 16.6503 5.25578 16.6916 5.25578 16.5719C5.25578 16.5175 5.30039 16.4718 5.3918 16.4718C5.42992 16.4715 5.46745 16.4813 5.50062 16.5001L5.47776 16.5567C5.45052 16.5412 5.41988 16.5326 5.38853 16.5317C5.34392 16.5317 5.32651 16.548 5.32651 16.5687C5.32651 16.6274 5.51476 16.5872 5.51476 16.7047C5.51476 16.7591 5.46906 16.8048 5.37765 16.8048C5.33142 16.8057 5.28596 16.7928 5.24707 16.7678Z" fill="white"/>
<path d="M5.99716 16.4771V16.8035H5.92207V16.6718H5.77517V16.8035H5.70117V16.4771H5.77517V16.6044H5.92207V16.4771H5.99716Z" fill="white"/>
<path d="M6.05008 16.6383C6.04812 16.6031 6.05677 16.5681 6.07491 16.5379C6.09305 16.5076 6.11985 16.4835 6.15184 16.4687C6.18383 16.4538 6.21954 16.4489 6.25435 16.4546C6.28917 16.4602 6.32149 16.4762 6.34713 16.5004C6.37277 16.5246 6.39056 16.556 6.3982 16.5904C6.40583 16.6248 6.40296 16.6608 6.38995 16.6936C6.37695 16.7263 6.3544 16.7545 6.32524 16.7743C6.29608 16.7942 6.26163 16.8048 6.22636 16.8048C6.20369 16.8062 6.18098 16.8029 6.15964 16.7951C6.13829 16.7873 6.11876 16.7753 6.10225 16.7597C6.08574 16.7441 6.07259 16.7253 6.06362 16.7044C6.05465 16.6835 6.05004 16.6611 6.05008 16.6383ZM6.32756 16.6383C6.32713 16.6184 6.32084 16.5991 6.30946 16.5827C6.29808 16.5664 6.28213 16.5537 6.2636 16.5464C6.24508 16.5391 6.2248 16.5374 6.20532 16.5415C6.18583 16.5457 6.168 16.5555 6.15407 16.5697C6.14013 16.584 6.13071 16.602 6.12698 16.6216C6.12324 16.6411 6.12537 16.6614 6.13309 16.6797C6.14081 16.6981 6.15378 16.7138 6.17037 16.7248C6.18696 16.7358 6.20644 16.7417 6.22636 16.7417C6.23974 16.7417 6.25298 16.739 6.26529 16.7338C6.2776 16.7285 6.28871 16.7209 6.29797 16.7112C6.30722 16.7015 6.31442 16.6901 6.31913 16.6776C6.32385 16.6651 6.32597 16.6517 6.32539 16.6383H6.32756Z" fill="white"/>
<path d="M6.45898 16.4771H6.53407V16.7382H6.69512V16.7992H6.45898V16.4771Z" fill="white"/>
<path d="M6.7373 16.4771H6.88421C6.9275 16.4771 6.96902 16.4942 6.99963 16.5249C7.03024 16.5555 7.04744 16.597 7.04744 16.6403C7.04744 16.6836 7.03024 16.7251 6.99963 16.7557C6.96902 16.7863 6.9275 16.8035 6.88421 16.8035H6.7373V16.4771ZM6.88094 16.7382C6.9075 16.7382 6.93296 16.7277 6.95174 16.7089C6.97051 16.6901 6.98106 16.6647 6.98106 16.6381C6.98106 16.6115 6.97051 16.5861 6.95174 16.5673C6.93296 16.5485 6.9075 16.538 6.88094 16.538H6.81239V16.7382H6.88094Z" fill="white"/>
<path d="M7.36833 16.7396V16.7995H7.11914V16.473H7.3618V16.5329H7.19531V16.6047H7.34439V16.6635H7.19531V16.7375L7.36833 16.7396Z" fill="white"/>
<path d="M7.63047 16.7995L7.56736 16.7102H7.4988V16.7995H7.4248V16.473H7.56409C7.65006 16.473 7.70447 16.5176 7.70447 16.5895C7.70488 16.6112 7.69878 16.6325 7.68695 16.6508C7.67512 16.669 7.6581 16.6833 7.63809 16.6917L7.70991 16.7951L7.63047 16.7995ZM7.55974 16.5383H7.4988V16.6471H7.55974C7.60544 16.6471 7.62829 16.6265 7.62829 16.5905C7.62829 16.5546 7.60871 16.5383 7.563 16.5383H7.55974Z" fill="white"/>
<path d="M8.76284 17.6012H4.32634C4.23078 17.6012 4.15332 17.6787 4.15332 17.7742V17.8417C4.15332 17.9372 4.23078 18.0147 4.32634 18.0147H8.76284C8.8584 18.0147 8.93586 17.9372 8.93586 17.8417V17.7742C8.93586 17.6787 8.8584 17.6012 8.76284 17.6012Z" fill="white"/>
<path d="M16.6689 17.6012H14.3576C14.262 17.6012 14.1846 17.6787 14.1846 17.7742V17.8417C14.1846 17.9372 14.262 18.0147 14.3576 18.0147H16.6689C16.7644 18.0147 16.8419 17.9372 16.8419 17.8417V17.7742C16.8419 17.6787 16.7644 17.6012 16.6689 17.6012Z" fill="white"/>
<g opacity="0.2">
<path d="M17.8764 9.72485H3.23499C3.09723 9.72485 2.96509 9.77951 2.86758 9.87682C2.77006 9.97413 2.71513 10.1062 2.71484 10.2439V12.8708C3.63979 13.5161 4.91079 13.6325 6.03814 13.3942C7.3668 13.1167 8.57032 12.4366 9.80758 11.8794C11.0448 11.3223 12.4061 10.8761 13.7435 11.1058C15.0069 11.3234 16.0831 12.108 17.2257 12.6901C17.6004 12.8838 17.9924 13.0419 18.3966 13.1624V10.2439C18.3963 10.1062 18.3413 9.97413 18.2438 9.87682C18.1463 9.77951 18.0142 9.72485 17.8764 9.72485Z" fill="white"/>
</g>
<path d="M6.1594 23.5494H3.99936C3.4717 23.5494 3.04395 23.9772 3.04395 24.5049V26.6649C3.04395 27.1926 3.4717 27.6203 3.99936 27.6203H6.1594C6.68706 27.6203 7.11481 27.1926 7.11481 26.6649V24.5049C7.11481 23.9772 6.68706 23.5494 6.1594 23.5494Z" fill="#0F913D"/>
<path d="M5.48165 26.2078H4.59152C4.57984 26.2078 4.56849 26.2039 4.55938 26.1965C4.55028 26.1892 4.54395 26.179 4.54147 26.1676L4.21501 24.8617H3.90597C3.89154 24.8617 3.8777 24.856 3.8675 24.8458C3.85729 24.8356 3.85156 24.8218 3.85156 24.8073C3.85156 24.7929 3.85729 24.7791 3.8675 24.7689C3.8777 24.7587 3.89154 24.7529 3.90597 24.7529H4.25745C4.26923 24.7531 4.28063 24.7571 4.28988 24.7644C4.29913 24.7716 4.30571 24.7818 4.3086 24.7932L4.63505 26.099H5.48383C5.49826 26.099 5.5121 26.1047 5.5223 26.1149C5.5325 26.1251 5.53824 26.139 5.53824 26.1534C5.53824 26.1678 5.5325 26.1817 5.5223 26.1919C5.5121 26.2021 5.49826 26.2078 5.48383 26.2078H5.48165Z" fill="white"/>
<path d="M4.76122 26.6257C4.85317 26.6257 4.92771 26.5512 4.92771 26.4592C4.92771 26.3673 4.85317 26.2927 4.76122 26.2927C4.66927 26.2927 4.59473 26.3673 4.59473 26.4592C4.59473 26.5512 4.66927 26.6257 4.76122 26.6257Z" fill="#0F913D"/>
<path d="M4.75963 26.6778C4.71658 26.6778 4.67451 26.6651 4.63872 26.6411C4.60293 26.6172 4.57503 26.5832 4.55856 26.5435C4.54209 26.5037 4.53778 26.4599 4.54617 26.4177C4.55457 26.3755 4.5753 26.3367 4.60574 26.3063C4.63617 26.2759 4.67495 26.2551 4.71717 26.2467C4.75939 26.2383 4.80314 26.2426 4.84291 26.2591C4.88268 26.2756 4.91667 26.3035 4.94059 26.3393C4.9645 26.3751 4.97726 26.4171 4.97726 26.4602C4.97726 26.5179 4.95433 26.5733 4.91352 26.6141C4.8727 26.6549 4.81735 26.6778 4.75963 26.6778ZM4.75963 26.3448C4.73834 26.3449 4.71753 26.3511 4.69978 26.3629C4.68202 26.3746 4.66809 26.3913 4.65972 26.4109C4.65135 26.4304 4.6489 26.452 4.65267 26.473C4.65645 26.4939 4.66629 26.5133 4.68096 26.5287C4.69564 26.5441 4.71452 26.5549 4.73526 26.5597C4.756 26.5645 4.77768 26.5631 4.79764 26.5557C4.81759 26.5483 4.83493 26.5352 4.84752 26.518C4.86011 26.5008 4.86738 26.4804 4.86844 26.4591C4.86821 26.4298 4.85684 26.4017 4.83663 26.3805C4.81642 26.3592 4.78889 26.3465 4.75963 26.3448Z" fill="white"/>
<path d="M5.687 26.6257C5.77895 26.6257 5.85349 26.5512 5.85349 26.4592C5.85349 26.3673 5.77895 26.2927 5.687 26.2927C5.59505 26.2927 5.52051 26.3673 5.52051 26.4592C5.52051 26.5512 5.59505 26.6257 5.687 26.6257Z" fill="#0F913D"/>
<path d="M5.68541 26.6778C5.64237 26.6778 5.60029 26.6651 5.5645 26.6411C5.52871 26.6172 5.50081 26.5832 5.48434 26.5435C5.46787 26.5037 5.46356 26.4599 5.47196 26.4177C5.48035 26.3755 5.50108 26.3367 5.53152 26.3063C5.56195 26.2759 5.60073 26.2551 5.64295 26.2467C5.68517 26.2383 5.72893 26.2426 5.7687 26.2591C5.80846 26.2756 5.84245 26.3035 5.86637 26.3393C5.89028 26.3751 5.90305 26.4171 5.90305 26.4602C5.90305 26.5179 5.88012 26.5733 5.8393 26.6141C5.79849 26.6549 5.74313 26.6778 5.68541 26.6778ZM5.68541 26.3448C5.66439 26.3459 5.64414 26.3531 5.6271 26.3654C5.61006 26.3778 5.59698 26.3948 5.58942 26.4145C5.58187 26.4341 5.58018 26.4555 5.58455 26.4761C5.58892 26.4967 5.59917 26.5156 5.61405 26.5305C5.62893 26.5453 5.64781 26.5556 5.6684 26.56C5.68898 26.5643 5.7104 26.5626 5.73004 26.5551C5.74969 26.5475 5.76672 26.5344 5.77908 26.5174C5.79144 26.5004 5.79859 26.4801 5.79967 26.4591C5.80045 26.4439 5.79803 26.4287 5.79256 26.4145C5.7871 26.4003 5.77871 26.3873 5.76794 26.3766C5.75717 26.3658 5.74426 26.3574 5.73004 26.3519C5.71583 26.3465 5.70062 26.3441 5.68541 26.3448Z" fill="white"/>
<path d="M5.82769 25.9628H4.56105C4.5541 25.963 4.54719 25.9617 4.54073 25.9592C4.53426 25.9566 4.52838 25.9528 4.52341 25.9479C4.51844 25.9431 4.5145 25.9372 4.51181 25.9308C4.50911 25.9244 4.50773 25.9175 4.50773 25.9106C4.50801 25.8966 4.51376 25.8834 4.52373 25.8736C4.5337 25.8638 4.5471 25.8584 4.56105 25.8584H5.77981L5.9191 25.0738H4.32492C4.31049 25.0738 4.29665 25.0681 4.28644 25.0579C4.27624 25.0476 4.27051 25.0338 4.27051 25.0194C4.27051 25.0049 4.27624 24.9911 4.28644 24.9809C4.29665 24.9707 4.31049 24.965 4.32492 24.965H5.98656C5.9942 24.9651 6.00173 24.9667 6.00866 24.9699C6.0156 24.9731 6.02179 24.9777 6.02683 24.9835C6.03183 24.9894 6.03541 24.9964 6.03729 25.004C6.03918 25.0115 6.03932 25.0194 6.03771 25.027L5.87992 25.916C5.87857 25.9289 5.87248 25.9409 5.86283 25.9495C5.85317 25.9581 5.84065 25.9629 5.82769 25.9628Z" fill="white"/>
<path d="M16.3118 24.2643H8.87411C8.64754 24.2643 8.46387 24.448 8.46387 24.6745V24.8367C8.46387 25.0632 8.64754 25.2469 8.87411 25.2469H16.3118C16.5384 25.2469 16.722 25.0632 16.722 24.8367V24.6745C16.722 24.448 16.5384 24.2643 16.3118 24.2643Z" fill="#E0E0E0"/>
<path d="M12.2279 26.1958H8.87411C8.64754 26.1958 8.46387 26.3795 8.46387 26.606V26.7682C8.46387 26.9948 8.64754 27.1784 8.87411 27.1784H12.2279C12.4544 27.1784 12.6381 26.9948 12.6381 26.7682V26.606C12.6381 26.3795 12.4544 26.1958 12.2279 26.1958Z" fill="#E0E0E0"/>
<path d="M20.1544 22.0161C20.1544 22.0313 15.8572 22.0444 10.5578 22.0444C5.25837 22.0444 0.958984 22.0313 0.958984 22.0161C0.958984 22.0009 5.25619 21.9878 10.5578 21.9878C15.8594 21.9878 20.1544 22.0009 20.1544 22.0161Z" fill="#E0E0E0"/>
<path d="M15.1529 29.2515H6.16237C5.18818 29.2515 4.39844 30.0412 4.39844 31.0154V31.7086C4.39844 32.6828 5.18818 33.4725 6.16237 33.4725H15.1529C16.1271 33.4725 16.9168 32.6828 16.9168 31.7086V31.0154C16.9168 30.0412 16.1271 29.2515 15.1529 29.2515Z" fill="#0F913D"/>
<path d="M10.4133 31.1622C10.4133 31.3798 10.2544 31.5061 9.99981 31.5061H9.83658V31.7498H9.57324V30.8173H9.99981C10.2544 30.8173 10.4133 30.95 10.4133 31.1622ZM10.1478 31.1622C10.1478 31.0762 10.0923 31.0251 9.98348 31.0251H9.83658V31.295H9.98348C10.0923 31.295 10.1478 31.2482 10.1478 31.1622Z" fill="white"/>
<path d="M11.1176 31.5692H10.7236L10.6496 31.7498H10.3809L10.7922 30.8173H11.0523L11.4647 31.7498H11.1905L11.1176 31.5692ZM11.0403 31.3744L10.9206 31.0762L10.8009 31.3744H11.0403Z" fill="white"/>
<path d="M11.9834 31.4158V31.7498H11.7201V31.4114L11.3643 30.8173H11.6428L11.8605 31.1883L12.0781 30.8173H12.3338L11.9834 31.4158Z" fill="white"/>
<path d="M4.08576 5.76855C4.18926 5.33171 3.91904 4.89368 3.4822 4.79017C3.04536 4.68666 2.60733 4.95688 2.50382 5.39372C2.40031 5.83056 2.67053 6.2686 3.10737 6.37211C3.54421 6.47561 3.98225 6.20539 4.08576 5.76855Z" fill="#0F913D"/>
<path d="M13.3018 5.16248H7.81086C7.64619 5.16248 7.5127 5.29597 7.5127 5.46064V5.57707C7.5127 5.74174 7.64619 5.87523 7.81086 5.87523H13.3018C13.4665 5.87523 13.6 5.74174 13.6 5.57707V5.46064C13.6 5.29597 13.4665 5.16248 13.3018 5.16248Z" fill="#E0E0E0"/>
<path d="M17.4874 34.6899H5.06152V35.5202H17.4874V34.6899Z" fill="#263238"/>
<path d="M5.65039 35.1036C5.75921 35.1406 7.21519 35.1406 7.21519 38.0145C7.21519 40.8884 7.14228 44.4543 8.67008 44.5632C10.1979 44.672 18.2384 44.5632 18.2384 44.5632V37.3507C18.2384 36.7726 18.0094 36.218 17.6016 35.8083C17.1937 35.3986 16.6402 35.1672 16.0621 35.1646L5.65039 35.1036Z" fill="#FAFAFA"/>
<path d="M5.64877 35.1036L11.6925 35.1221L14.759 35.133H15.5991C15.8899 35.1212 16.1813 35.1354 16.4696 35.1755C16.7706 35.2331 17.0562 35.3534 17.3078 35.5284C17.5594 35.7035 17.7713 35.9295 17.9299 36.1918C18.0978 36.4615 18.2051 36.7645 18.2444 37.0798C18.2607 37.2392 18.2673 37.3994 18.264 37.5597V38.0417C18.264 38.6881 18.264 39.3475 18.264 40.0222V44.5925H18.2357C15.4239 44.6263 12.7502 44.6513 10.3192 44.6317C10.0156 44.6317 9.71638 44.6241 9.42039 44.6187C9.12441 44.6132 8.83387 44.611 8.54223 44.5708C8.39872 44.5394 8.26409 44.4762 8.14832 44.3858C8.03857 44.2935 7.94321 44.1853 7.86539 44.0648C7.72038 43.828 7.61042 43.5714 7.53894 43.3031C7.4049 42.7982 7.3182 42.282 7.27995 41.7611C7.23533 41.2627 7.21575 40.7817 7.20487 40.3236C7.18093 39.4063 7.20486 38.5771 7.18854 37.8502C7.17222 37.1233 7.06231 36.4976 6.83815 36.0384C6.74061 35.8343 6.60885 35.6485 6.44858 35.4889C6.32807 35.3755 6.1894 35.2832 6.03834 35.2157C5.91141 35.1663 5.77979 35.1298 5.64551 35.1069L5.74888 35.1232C5.84973 35.1402 5.94831 35.1687 6.04269 35.2081C6.19629 35.2746 6.33756 35.3666 6.46055 35.4801C6.62361 35.6399 6.75796 35.8265 6.85774 36.0319C7.08734 36.4932 7.20269 37.1255 7.2201 37.8524C7.23751 38.5793 7.2201 39.4096 7.24513 40.3258C7.2571 40.7828 7.27777 41.2627 7.32348 41.7611C7.36293 42.2787 7.44999 42.7916 7.58355 43.2933C7.65384 43.5565 7.76158 43.8083 7.90348 44.0408C7.97868 44.1568 8.07073 44.261 8.17661 44.3499C8.28684 44.4347 8.4142 44.4944 8.54985 44.5251C8.82843 44.5621 9.1255 44.5599 9.42039 44.5697C9.71529 44.5795 10.0156 44.5806 10.3192 44.5827C12.748 44.5991 15.4228 44.5719 18.2346 44.5381L18.2063 44.5664V40.02C18.2063 39.3475 18.2063 38.6859 18.2063 38.0395V37.5564C18.2104 37.3984 18.2046 37.2403 18.1889 37.083C18.1329 36.6309 17.9349 36.2082 17.6234 35.8758C17.3119 35.5434 16.903 35.3184 16.4555 35.2331C16.1714 35.1937 15.8845 35.1792 15.598 35.1896L14.7612 35.1842L11.7143 35.1602L5.64877 35.1036Z" fill="#263238"/>
<path d="M8.70703 44.5642C8.70703 44.5642 9.96497 44.5642 10.2305 42.7089C10.5515 40.4977 10.2305 38.5608 11.94 38.4878C13.6495 38.4149 18.234 38.4878 18.234 38.4878V44.5642H8.70703Z" fill="#E0E0E0"/>
<path d="M11.7285 38.5097C11.7285 38.5097 13.1072 38.3432 13.1072 40.6349C13.1072 42.9266 13.1431 44.4435 14.6709 44.6122C16.1987 44.7808 25.5864 44.6122 25.5864 44.6122C25.5864 44.6122 24.0946 43.9092 23.9857 41.8351C23.8769 39.7611 23.4417 38.4966 21.9476 38.4563C20.4535 38.4161 11.7285 38.5097 11.7285 38.5097Z" fill="#FAFAFA"/>
<path d="M11.7307 38.5096H11.8232H12.0941L13.1399 38.4933L16.9866 38.452L19.6461 38.4335H21.1293C21.3839 38.4335 21.6429 38.4335 21.9052 38.4411C22.1748 38.443 22.4418 38.4942 22.693 38.5923C22.9474 38.7048 23.168 38.8819 23.3328 39.106C23.4977 39.335 23.6252 39.5888 23.7104 39.8579C23.8721 40.4128 23.9681 40.9847 23.9966 41.562C24.0064 41.7089 24.014 41.8558 24.0304 41.9973L24.0521 42.2149L24.0935 42.4325L24.1131 42.5413L24.1435 42.6502L24.2045 42.8678C24.254 43.0089 24.3117 43.147 24.3775 43.2813C24.641 43.8344 25.0679 44.2932 25.6006 44.5958L25.6953 44.648H25.5865H25.3264C22.8072 44.6894 20.4078 44.7166 18.2249 44.7155C17.1368 44.7155 16.0954 44.7155 15.1247 44.6698C14.8851 44.6635 14.6463 44.6376 14.4109 44.5926C14.1822 44.5402 13.9697 44.433 13.7917 44.2802C13.6253 44.1295 13.4945 43.9436 13.4087 43.7362C13.325 43.5405 13.2633 43.3361 13.2248 43.1268C13.1551 42.7394 13.1158 42.3472 13.1072 41.9537C13.0931 41.5816 13.092 41.2312 13.092 40.9025C13.092 40.7393 13.092 40.5761 13.0844 40.4292C13.0844 40.353 13.0844 40.279 13.0735 40.2061C13.0626 40.1332 13.0561 40.0625 13.0474 39.9939L13.0343 39.8905C13.0278 39.8568 13.0202 39.8242 13.0126 39.7915C12.9984 39.7262 12.9832 39.662 12.9701 39.6L12.9092 39.4237L12.8798 39.3399L12.8406 39.2616C12.7591 39.0745 12.6354 38.9088 12.4794 38.7773C12.367 38.6784 12.235 38.6042 12.092 38.5597C12.0046 38.5315 11.9138 38.515 11.8221 38.5107C11.7905 38.5107 11.7677 38.5107 11.7514 38.5107H11.7285C11.7361 38.5103 11.7438 38.5103 11.7514 38.5107C11.7749 38.5094 11.7985 38.5094 11.8221 38.5107C11.9147 38.5132 12.0066 38.5282 12.0952 38.5553C12.2406 38.597 12.3753 38.6694 12.4902 38.7675C12.6497 38.8994 12.7767 39.0662 12.8613 39.255C13.0789 39.6718 13.1257 40.254 13.1236 40.9058C13.1236 41.2323 13.1236 41.5848 13.1431 41.9559C13.1538 42.3472 13.1942 42.7372 13.2639 43.1224C13.3025 43.3288 13.3638 43.5302 13.4467 43.7231C13.5324 43.9224 13.6609 44.1004 13.8233 44.2443C13.9957 44.3924 14.202 44.4955 14.4239 44.5447C14.6565 44.589 14.8924 44.6137 15.1291 44.6187C16.0986 44.6589 17.1357 44.66 18.2271 44.66C20.4089 44.66 22.8083 44.6285 25.3275 44.5882L25.5875 44.5828L25.5756 44.6372C25.0315 44.3291 24.5953 43.861 24.3263 43.2965C24.2599 43.1597 24.2014 43.019 24.1511 42.8754L24.0891 42.6578L24.0587 42.549L24.038 42.4401L23.9966 42.2225L23.9749 42.0049C23.9585 41.8558 23.9509 41.71 23.9411 41.5696C23.9135 40.9964 23.8185 40.4285 23.6582 39.8775C23.5765 39.6102 23.4523 39.3577 23.2904 39.1299C23.1314 38.9127 22.9183 38.7408 22.6723 38.6315C22.4273 38.5358 22.1671 38.4853 21.9041 38.4824C21.6418 38.4824 21.3839 38.4759 21.1293 38.4737H19.6461L16.9866 38.4846L13.1399 38.5086L12.0941 38.514H11.8221L11.7307 38.5096Z" fill="#263238"/>
<path d="M12.0915 38.5062C12.0915 38.5128 11.9827 38.5062 11.7868 38.5291C11.5112 38.5674 11.2549 38.692 11.0545 38.8849C10.7987 39.1232 10.6072 39.5139 10.5104 39.9655C10.4135 40.4171 10.4015 40.9361 10.383 41.4748C10.3759 41.984 10.3168 42.4912 10.2068 42.9884C10.1514 43.2043 10.076 43.4145 9.98151 43.6163C9.90395 43.795 9.80414 43.9632 9.68444 44.1169C9.58335 44.2429 9.45882 44.3482 9.31772 44.427C9.20925 44.4825 9.09349 44.5224 8.97386 44.5456C8.89874 44.5587 8.82267 44.5656 8.74643 44.5663C8.72 44.5687 8.69342 44.5687 8.66699 44.5663C8.69306 44.5603 8.71968 44.557 8.74643 44.5565C8.81963 44.5518 8.89238 44.5416 8.96407 44.526C9.08 44.5 9.19171 44.4579 9.29596 44.4009C9.43249 44.3223 9.55227 44.2176 9.64853 44.0929C9.76329 43.9405 9.85903 43.7746 9.93363 43.5989C10.0243 43.3986 10.0971 43.1906 10.1513 42.9775C10.2572 42.4831 10.3141 41.9793 10.321 41.4737C10.3439 40.9372 10.3515 40.4182 10.4538 39.9568C10.5561 39.4954 10.753 39.1004 11.0207 38.8577C11.2281 38.6622 11.4937 38.5399 11.777 38.5095C11.8206 38.5034 11.8646 38.5001 11.9087 38.4997C11.9409 38.498 11.9733 38.498 12.0055 38.4997C12.0343 38.4989 12.0631 38.5011 12.0915 38.5062Z" fill="#263238"/>
<path d="M16.6719 36.7705C16.6719 36.7857 14.9091 36.7988 12.7349 36.7988C10.5607 36.7988 8.79785 36.7857 8.79785 36.7705C8.79785 36.7552 10.5596 36.7422 12.7349 36.7422C14.9101 36.7422 16.6719 36.7542 16.6719 36.7705Z" fill="#E0E0E0"/>
<path d="M16.834 37.9414C16.834 37.9566 15.1289 37.9697 13.0254 37.9697C10.922 37.9697 9.2168 37.9566 9.2168 37.9414C9.2168 37.9261 10.9209 37.9131 13.0254 37.9131C15.13 37.9131 16.834 37.9261 16.834 37.9414Z" fill="#E0E0E0"/>
<path d="M22.2022 40.2179C22.2022 40.2342 20.4393 40.2462 18.2652 40.2462C16.091 40.2462 14.3281 40.2342 14.3281 40.2179C14.3281 40.2015 16.091 40.1896 18.2652 40.1896C20.4393 40.1896 22.2022 40.2037 22.2022 40.2179Z" fill="#E0E0E0"/>
<path d="M22.2985 41.5858C22.2985 41.601 20.6815 41.6141 18.6869 41.6141C16.6922 41.6141 15.0752 41.601 15.0752 41.5858C15.0752 41.5706 16.6922 41.5575 18.6869 41.5575C20.6815 41.5575 22.2985 41.5706 22.2985 41.5858Z" fill="#E0E0E0"/>
<path d="M15.7202 11.1038H14.9541C14.7648 11.1038 14.6113 11.2572 14.6113 11.4465V12.2126C14.6113 12.4019 14.7648 12.5554 14.9541 12.5554H15.7202C15.9095 12.5554 16.063 12.4019 16.063 12.2126V11.4465C16.063 11.2572 15.9095 11.1038 15.7202 11.1038Z" fill="white"/>
</svg>
