<svg width="57" height="28" viewBox="0 0 57 28" fill="none" xmlns="http://www.w3.org/2000/svg">
<path d="M13.252 0.0212097V12.8617H56.1464L51.617 5.36744L42.7172 0.0212097H13.252Z" fill="#0F913D"/>
<path opacity="0.5" d="M13.252 0.0212097V12.8617H56.1464L51.617 5.36744L42.7172 0.0212097H13.252Z" fill="black"/>
<path opacity="0.1" d="M13.252 5.36746V12.8617H56.1464L51.617 5.36746H13.252Z" fill="black"/>
<path d="M25.6918 27.776L56.1436 27.776V12.8644L25.6918 12.8644L25.6918 27.776Z" fill="#0F913D"/>
<path opacity="0.2" d="M25.6918 27.776L56.1436 27.776V12.8644L25.6918 12.8644L25.6918 27.776Z" fill="black"/>
<path opacity="0.1" d="M25.6963 13.8216H56.148V14.047H25.6963V13.8216ZM25.6963 15.3252H56.148V15.0972H25.6963V15.3252ZM25.6963 16.6008H56.148V16.3754H25.6963V16.6008ZM25.6963 17.879H56.148V17.6509H25.6963V17.879ZM25.6963 19.1546H56.148V18.9292H25.6963V19.1546ZM25.6963 20.4328H56.148V20.2074H25.6963V20.4328ZM25.6963 21.7083H56.148V21.4829H25.6963V21.7083ZM25.6963 22.9866H56.148V22.7585H25.6963V22.9866ZM25.6963 24.2621H56.148V24.0367H25.6963V24.2621ZM25.6963 25.5403H56.148V25.3123H25.6963V25.5403ZM25.6963 26.8159H56.148V26.5905H25.6963V26.8159Z" fill="black"/>
<path d="M0.811523 12.862V27.7763H25.6916V12.862L21.1622 5.36778L13.2489 0.671265L5.34097 5.36778L0.811523 12.862Z" fill="#0F913D"/>
<path opacity="0.1" d="M25.6916 13.8218V14.0472H0.811523V13.8218H25.6916ZM0.811523 15.0947V15.3228H25.6916V15.0947H0.811523ZM0.867219 12.769H25.6916V12.5436H1.00511L0.867219 12.769ZM1.63627 11.4961H24.8669L24.729 11.268H1.77416L1.63627 11.4961ZM2.41063 10.2179H24.0926L23.9547 9.98982H2.54852L2.41063 10.2179ZM3.18232 8.93966H23.3208L23.1829 8.7116H3.32023L3.18232 8.93966ZM3.95668 7.6641H22.5465L22.4139 7.43604H4.08928L3.95668 7.6641ZM4.72573 6.38589H21.7774L21.6395 6.15782H4.86363L4.72573 6.38589ZM5.78649 5.10767H20.7273L20.3454 4.87961H6.15245L5.78649 5.10767ZM7.92923 3.83211H18.5792L18.2 3.60669H8.30845L7.92923 3.83211ZM10.0826 2.55389H16.4286L16.0467 2.32848H10.4591L10.0826 2.55389ZM12.2359 1.27568H14.2779L13.8933 1.05026H12.6151L12.2359 1.27568ZM0.816832 16.3756V16.601H25.697V16.3756H0.816832ZM0.816832 17.6538V17.8792H25.697V17.6538H0.816832ZM0.816832 18.9267V19.1468H25.697V18.9188L0.816832 18.9267ZM0.816832 20.2049V20.433H25.697V20.2076L0.816832 20.2049ZM0.816832 21.4831V21.7112H25.697V21.4831H0.816832ZM0.816832 22.7587V22.9841H25.697V22.7587H0.816832ZM0.816832 24.0369V24.2623H25.697V24.0369H0.816832ZM0.816832 25.3151V25.5406H25.697V25.3151H0.816832ZM0.816832 26.5907V26.8161H25.697V26.5907H0.816832Z" fill="black"/>
<path d="M0.954685 13.7077L5.74931 5.77583L13.2515 1.31799L20.7591 5.77583L25.3787 13.4213H56.9363V12.3048H26.0072L21.5679 4.95905L13.2515 0.0212097L4.94049 4.95905L0 13.1322L0.954685 13.7077Z" fill="white"/>
<path d="M0.954685 13.7077L5.74401 5.76788L13.2436 1.30473C13.2436 1.27291 20.7617 5.75993 20.7723 5.75197C20.7829 5.74401 25.3972 13.3974 25.4078 13.4027C25.1771 13.4027 57.2863 13.2568 56.87 13.4186V12.3048C57.2943 12.4984 25.9064 12.2756 26.0072 12.3419C25.9753 12.3764 21.5626 4.98292 21.544 4.97496C21.6183 5.01739 13.1587 0.00530218 13.2621 0.0397769C13.2621 0.0397769 4.92988 4.98027 4.94844 4.96436L0.0026464 13.1322L0.954685 13.7077ZM0.954685 13.7077L0 13.1322L4.93253 4.9511L13.2515 0C13.2781 0.0185633 21.5732 4.92192 21.5918 4.94314C21.5652 4.94314 26.1345 12.3685 26.0072 12.2677C26.0284 12.2146 56.9681 12.2677 56.9999 12.2385V13.4186C57.0635 13.6042 25.4423 13.3921 25.3601 13.4531C25.3601 13.4531 20.7113 5.76258 20.7458 5.79705C20.7803 5.83153 13.172 1.30473 13.2621 1.3339C13.2621 1.3339 5.74136 5.79175 5.75727 5.77849L0.954685 13.7077Z" fill="#263238"/>
<path d="M47.8417 19.3615H53.127V16.1686H47.8417V19.3615Z" fill="#263238"/>
<path d="M47.4688 15.7972H53.4992V19.7326H47.4688V15.7972ZM52.754 16.5397H48.2113V18.9901H52.754V16.5397Z" fill="white"/>
<path d="M38.2743 19.3615H43.5596V16.1686H38.2743V19.3615Z" fill="#263238"/>
<path d="M37.9053 15.7972H43.9357V19.7326H37.9053V15.7972ZM43.1932 16.5397H38.6505V18.9901H43.1932V16.5397Z" fill="white"/>
<path d="M28.7099 19.3615H33.9951V16.1686H28.7099V19.3615Z" fill="#263238"/>
<path d="M28.3408 15.7972H34.3686V19.7326H28.3408V15.7972ZM33.6261 16.5397H29.0834V18.9901H33.6261V16.5397Z" fill="white"/>
<path d="M10.8986 11.1886H15.0488V7.03838L10.8986 7.03838V11.1886Z" fill="#263238"/>
<path d="M10.5303 6.68283H15.4363V11.5623H10.5303V6.68283ZM14.6778 7.42536H11.2728V10.8304H14.6778V7.42536Z" fill="white"/>
<path d="M5.54459 27.3887L20.4111 27.3887V16.1685H5.54459L5.54459 27.3887Z" fill="#455A64"/>
<path d="M5.1709 15.7972H20.78V27.7599H5.1709V15.7972ZM20.0374 16.5397H5.91343V27.0174H20.0374V16.5397Z" fill="white"/>
<path d="M20.0942 15.956L12.6621 27.1762L13.2812 27.5862L20.7133 16.3661L20.0942 15.956Z" fill="white"/>
<path d="M5.85237 15.9541L5.2334 16.3643L12.6675 27.5831L13.2864 27.173L5.85237 15.9541Z" fill="white"/>
<path d="M13.349 16.1683H12.6064V27.3885H13.349V16.1683Z" fill="white"/>
</svg>
