<svg width="69" height="69" viewBox="0 0 69 69" fill="none" xmlns="http://www.w3.org/2000/svg">
<rect width="69" height="69" rx="34.5" fill="#F5F5F5"/>
<path d="M21.1826 41.0227L27.5321 34.4121H40.943L47.9384 41.0227H21.1826Z" fill="#078634"/>
<path opacity="0.1" d="M27.5321 34.2676L35.4171 41.3187L21.1826 40.8782L27.5321 34.2676Z" fill="black"/>
<path d="M44.8133 41.8164H21.0381V50.4013H44.8133V41.8164Z" fill="#078634"/>
<path opacity="0.8" d="M44.8133 41.8164H21.0381V50.4013H44.8133V41.8164Z" fill="white"/>
<path opacity="0.05" d="M35.0462 41.8164H21.0381V50.4013H35.0462V41.8164Z" fill="black"/>
<path d="M43.9932 43.0391H30.3037V48.0967H43.9932V43.0391Z" fill="#078634"/>
<path opacity="0.1" d="M30.3037 43.0391V48.0967H43.9915V43.0391H30.3037ZM43.4361 47.6197H30.7895V43.6014H43.4361V47.6197Z" fill="white"/>
<path opacity="0.1" d="M35.4728 43.0391H30.3037V48.0967H35.4728V43.0391Z" fill="black"/>
<path d="M42.8432 43.6016H31.248V47.5328H42.8432V43.6016Z" fill="#078634"/>
<path opacity="0.5" d="M42.8449 43.6035H31.248V47.5347H42.8449V43.6035Z" fill="white"/>
<path opacity="0.05" d="M35.1061 43.6016H31.248V47.5328H35.1061V43.6016Z" fill="black"/>
<path opacity="0.3" d="M34.435 43.6035L33.3816 47.5347H31.9453L32.9986 43.6035H34.435Z" fill="white"/>
<path opacity="0.3" d="M42.8452 43.6035V47.0437L42.7129 47.5347H41.2783L42.3299 43.6035H42.8452Z" fill="white"/>
<path opacity="0.3" d="M35.2882 43.6035L34.2366 47.5347H33.8223L34.8738 43.6035H35.2882Z" fill="white"/>
<path opacity="0.3" d="M41.9236 43.6035L40.8703 47.5347H40.6631L41.7147 43.6035H41.9236Z" fill="white"/>
<path d="M28.032 43.625H21.0244V47.5806H28.032V43.625Z" fill="black"/>
<path d="M28.032 43.625H21.0244V47.5806H28.032V43.625Z" fill="#078634"/>
<path opacity="0.5" d="M28.032 43.625H21.0244V47.5806H28.032V43.625Z" fill="white"/>
<path opacity="0.3" d="M21.0244 43.625V47.114L21.9576 43.625H21.0244Z" fill="white"/>
<path opacity="0.3" d="M22.9374 43.625L21.8788 47.5806H21.4053L22.4638 43.625H22.9374Z" fill="white"/>
<path d="M41.7263 47.5332H32.8994V47.817H33.3016V50.479H33.5192V50.3223H36.4006V50.479H36.6165V50.3223H39.4978V50.479H39.7155V50.3223H42.6473V50.479H42.8597V50.3223H45.7411V50.479H45.9587V50.3223H48.8401V50.479H49.056V47.817H49.4599V47.5332H41.7263ZM36.4006 50.2474H33.5192V49.9636H36.4006V50.2474ZM36.4006 49.8888H33.5192V49.5998H36.4006V49.8888ZM36.4006 49.5301H33.5192V49.2516H36.4006V49.5301ZM36.4006 49.1715H33.5192V48.886H36.4006V49.1715ZM36.4006 48.8128H33.5192V48.5273H36.4006V48.8128ZM36.4006 48.4542H33.5192V48.1687H36.4006V48.4542ZM36.4006 48.0955H33.5192V47.817H36.4006V48.0955ZM39.4978 50.2474H36.6165V49.9636H39.4978V50.2474ZM39.4978 49.8888H36.6165V49.5998H39.4978V49.8888ZM39.4978 49.5301H36.6165V49.2516H39.4978V49.5301ZM39.4978 49.1715H36.6165V48.886H39.4978V49.1715ZM39.4978 48.8128H36.6165V48.5273H39.4978V48.8128ZM39.4978 48.4542H36.6165V48.1687H39.4978V48.4542ZM39.4978 48.0955H36.6165V47.817H39.4978V48.0955ZM42.6473 50.2474H39.7155V49.9636H42.6473V50.2474ZM42.6473 49.8888H39.7155V49.5998H42.6473V49.8888ZM42.6473 49.5301H39.7155V49.2516H42.6473V49.5301ZM42.6473 49.1715H39.7155V48.886H42.6473V49.1715ZM42.6473 48.8128H39.7155V48.5273H42.6473V48.8128ZM42.6473 48.4542H39.7155V48.1687H42.6473V48.4542ZM42.6473 48.0955H39.7155V47.817H42.6473V48.0955ZM45.7446 50.2474H42.8597V49.9636H45.7411L45.7446 50.2474ZM45.7446 49.8888H42.8597V49.5998H45.7411L45.7446 49.8888ZM45.7446 49.5301H42.8597V49.2516H45.7411L45.7446 49.5301ZM45.7446 49.1715H42.8597V48.886H45.7411L45.7446 49.1715ZM45.7446 48.8128H42.8597V48.5273H45.7411L45.7446 48.8128ZM45.7446 48.4542H42.8597V48.1687H45.7411L45.7446 48.4542ZM45.7446 48.0955H42.8597V47.817H45.7411L45.7446 48.0955ZM48.8436 50.2474H45.9622V49.9636H48.8436V50.2474ZM48.8436 49.8888H45.9622V49.5998H48.8436V49.8888ZM48.8436 49.5301H45.9622V49.2516H48.8436V49.5301ZM48.8436 49.1715H45.9622V48.886H48.8436V49.1715ZM48.8436 48.8128H45.9622V48.5273H48.8436V48.8128ZM48.8436 48.4542H45.9622V48.1687H48.8436V48.4542ZM48.8436 48.0955H45.9622V47.817H48.8436V48.0955Z" fill="#078634"/>
<path opacity="0.3" d="M41.7263 47.5332H32.8994V47.817H33.3016V50.479H33.5192V50.3223H36.4006V50.479H36.6165V50.3223H39.4978V50.479H39.7155V50.3223H42.6473V50.479H42.8597V50.3223H45.7411V50.479H45.9587V50.3223H48.8401V50.479H49.056V47.817H49.4599V47.5332H41.7263ZM36.4006 50.2474H33.5192V49.9636H36.4006V50.2474ZM36.4006 49.8888H33.5192V49.5998H36.4006V49.8888ZM36.4006 49.5301H33.5192V49.2516H36.4006V49.5301ZM36.4006 49.1715H33.5192V48.886H36.4006V49.1715ZM36.4006 48.8128H33.5192V48.5273H36.4006V48.8128ZM36.4006 48.4542H33.5192V48.1687H36.4006V48.4542ZM36.4006 48.0955H33.5192V47.817H36.4006V48.0955ZM39.4978 50.2474H36.6165V49.9636H39.4978V50.2474ZM39.4978 49.8888H36.6165V49.5998H39.4978V49.8888ZM39.4978 49.5301H36.6165V49.2516H39.4978V49.5301ZM39.4978 49.1715H36.6165V48.886H39.4978V49.1715ZM39.4978 48.8128H36.6165V48.5273H39.4978V48.8128ZM39.4978 48.4542H36.6165V48.1687H39.4978V48.4542ZM39.4978 48.0955H36.6165V47.817H39.4978V48.0955ZM42.6473 50.2474H39.7155V49.9636H42.6473V50.2474ZM42.6473 49.8888H39.7155V49.5998H42.6473V49.8888ZM42.6473 49.5301H39.7155V49.2516H42.6473V49.5301ZM42.6473 49.1715H39.7155V48.886H42.6473V49.1715ZM42.6473 48.8128H39.7155V48.5273H42.6473V48.8128ZM42.6473 48.4542H39.7155V48.1687H42.6473V48.4542ZM42.6473 48.0955H39.7155V47.817H42.6473V48.0955ZM45.7446 50.2474H42.8597V49.9636H45.7411L45.7446 50.2474ZM45.7446 49.8888H42.8597V49.5998H45.7411L45.7446 49.8888ZM45.7446 49.5301H42.8597V49.2516H45.7411L45.7446 49.5301ZM45.7446 49.1715H42.8597V48.886H45.7411L45.7446 49.1715ZM45.7446 48.8128H42.8597V48.5273H45.7411L45.7446 48.8128ZM45.7446 48.4542H42.8597V48.1687H45.7411L45.7446 48.4542ZM45.7446 48.0955H42.8597V47.817H45.7411L45.7446 48.0955ZM48.8436 50.2474H45.9622V49.9636H48.8436V50.2474ZM48.8436 49.8888H45.9622V49.5998H48.8436V49.8888ZM48.8436 49.5301H45.9622V49.2516H48.8436V49.5301ZM48.8436 49.1715H45.9622V48.886H48.8436V49.1715ZM48.8436 48.8128H45.9622V48.5273H48.8436V48.8128ZM48.8436 48.4542H45.9622V48.1687H48.8436V48.4542ZM48.8436 48.0955H45.9622V47.817H48.8436V48.0955Z" fill="white"/>
<path d="M48.7617 50.9238H39.5361V60.959H48.7617V50.9238Z" fill="#078634"/>
<path opacity="0.3" d="M48.7617 50.9238H39.5361V60.959H48.7617V50.9238Z" fill="white"/>
<path d="M21.7993 50.4023H19.8633V60.9755H21.7993V50.4023Z" fill="#078634"/>
<path opacity="0.3" d="M21.7993 50.4023H19.8633V60.9755H21.7993V50.4023Z" fill="white"/>
<path opacity="0.2" d="M21.7993 51.3809H20.5684V60.9738H21.7993V51.3809Z" fill="white"/>
<path d="M44.8289 50.7383H21.0381V60.9754H44.8289V50.7383Z" fill="#078634"/>
<path opacity="0.8" d="M44.8289 50.7383H21.0381V60.9754H44.8289V50.7383Z" fill="white"/>
<path opacity="0.05" d="M33.2565 50.7383H21.0381V60.9754H33.2565V50.7383Z" fill="black"/>
<path d="M31.2811 52.9316H26.6953V56.8872H31.2811V52.9316Z" fill="black"/>
<path d="M26.4156 52.9316H22.124V56.8872H26.4156V52.9316Z" fill="black"/>
<path d="M26.4156 52.9316H22.124V56.8872H26.4156V52.9316Z" fill="#078634"/>
<path d="M31.2811 52.9316H26.6953V56.8872H31.2811V52.9316Z" fill="#078634"/>
<path opacity="0.5" d="M31.2811 52.9316H26.6953V56.8872H31.2811V52.9316Z" fill="white"/>
<path opacity="0.5" d="M26.4156 52.9316H22.124V56.8872H26.4156V52.9316Z" fill="white"/>
<path opacity="0.3" d="M25.043 52.9316L23.9827 56.8872H22.334L23.3925 52.9316H25.043Z" fill="white"/>
<path opacity="0.3" d="M26.0213 52.9316L24.9628 56.8872H24.4893L25.5478 52.9316H26.0213Z" fill="white"/>
<path opacity="0.3" d="M31.2814 53.3262V56.8865H30.3291L31.2814 53.3262Z" fill="white"/>
<path d="M45.0335 56.8872V52.9316H45.8744V52.2422H39.666V57.5871H45.8744V56.8872H45.0335Z" fill="#078634"/>
<path d="M45.2144 52.9316H40.9229V56.8872H45.2144V52.9316Z" fill="black"/>
<path d="M45.2144 52.9316H40.9229V56.8872H45.2144V52.9316Z" fill="#078634"/>
<path opacity="0.5" d="M45.2144 52.9316H40.9229V56.8872H45.2144V52.9316Z" fill="white"/>
<path opacity="0.3" d="M43.8391 52.9316L42.7806 56.8872H41.1318L42.1904 52.9316H43.8391Z" fill="white"/>
<path opacity="0.3" d="M44.819 52.9316L43.7605 56.8872H43.2852L44.3437 52.9316H44.819Z" fill="white"/>
<path opacity="0.1" d="M40.2498 52.2422H39.6631V57.5871H40.2498V52.2422Z" fill="black"/>
<path d="M37.4092 52.9316H34.3955V60.9751H37.4092V52.9316Z" fill="#078634"/>
<path opacity="0.1" d="M37.1324 52.9316H34.3955V60.9751H37.1324V52.9316Z" fill="white"/>
<path opacity="0.2" d="M36.8118 53.4727H36.2129V56.0058H36.8118V53.4727Z" fill="white"/>
<path d="M49.4206 51.2891H47.8711V60.9743H49.4206V51.2891Z" fill="#078634"/>
<path opacity="0.3" d="M49.4206 51.2891H47.8711V60.9743H49.4206V51.2891Z" fill="white"/>
<path opacity="0.2" d="M49.4193 51.2891H48.6445V60.9743H49.4193V51.2891Z" fill="white"/>
<path d="M49.4181 50.4023H20.6846V51.4087H49.4181V50.4023Z" fill="#078634"/>
<path opacity="0.3" d="M49.4181 50.4023H20.6846V51.4087H49.4181V50.4023Z" fill="white"/>
<path opacity="0.2" d="M49.4212 50.4023H38.6113V51.4087H49.4212V50.4023Z" fill="white"/>
<path d="M49.0451 40.8164H19.8623V41.8227H49.0451V40.8164Z" fill="#078634"/>
<path opacity="0.3" d="M49.0451 40.8164H19.8623V41.8227H49.0451V40.8164Z" fill="white"/>
<path opacity="0.2" d="M49.0445 40.8164H37.7871V41.8227H49.0445V40.8164Z" fill="white"/>
<path d="M50.256 60.7285H18.8517L18.5 60.9757H50.6076L50.256 60.7285Z" fill="#078634"/>
<path d="M43.9692 10.0605H24.3115C23.7539 10.0605 23.3018 10.5126 23.3018 11.0703V22.4078C23.3018 22.9655 23.7539 23.4175 24.3115 23.4175H43.9692C44.5269 23.4175 44.979 22.9655 44.979 22.4078V11.0703C44.979 10.5126 44.5269 10.0605 43.9692 10.0605Z" fill="#078634"/>
<path opacity="0.6" d="M43.9692 10.0605H24.3115C23.7539 10.0605 23.3018 10.5126 23.3018 11.0703V22.4078C23.3018 22.9655 23.7539 23.4175 24.3115 23.4175H43.9692C44.5269 23.4175 44.979 22.9655 44.979 22.4078V11.0703C44.979 10.5126 44.5269 10.0605 43.9692 10.0605Z" fill="white"/>
<path d="M34.3152 34.7721V22.8184H33.967V34.7721C33.8819 34.8117 33.8128 34.8793 33.7712 34.9635C33.7296 35.0477 33.718 35.1436 33.7383 35.2354C33.7586 35.3271 33.8096 35.4091 33.8828 35.4679C33.9561 35.5268 34.0472 35.5588 34.1411 35.5588C34.2351 35.5588 34.3262 35.5268 34.3995 35.4679C34.4727 35.4091 34.5237 35.3271 34.544 35.2354C34.5643 35.1436 34.5527 35.0477 34.5111 34.9635C34.4695 34.8793 34.4004 34.8117 34.3152 34.7721Z" fill="#078634"/>
<path opacity="0.6" d="M34.3152 34.7721V22.8184H33.967V34.7721C33.8819 34.8117 33.8128 34.8793 33.7712 34.9635C33.7296 35.0477 33.718 35.1436 33.7383 35.2354C33.7586 35.3271 33.8096 35.4091 33.8828 35.4679C33.9561 35.5268 34.0472 35.5588 34.1411 35.5588C34.2351 35.5588 34.3262 35.5268 34.3995 35.4679C34.4727 35.4091 34.5237 35.3271 34.544 35.2354C34.5643 35.1436 34.5527 35.0477 34.5111 34.9635C34.4695 34.8793 34.4004 34.8117 34.3152 34.7721Z" fill="white"/>
<path d="M43.0968 15.8618H35.5199C35.4654 15.8618 35.4132 15.8402 35.3746 15.8017C35.3361 15.7631 35.3145 15.7109 35.3145 15.6564C35.3142 15.6293 35.3194 15.6024 35.3296 15.5772C35.3398 15.5521 35.3549 15.5293 35.374 15.51C35.3931 15.4907 35.4158 15.4755 35.4409 15.465C35.4659 15.4546 35.4928 15.4492 35.5199 15.4492H43.0968C43.1517 15.4492 43.2044 15.471 43.2433 15.5099C43.2821 15.5488 43.3039 15.6014 43.3039 15.6564C43.3039 15.6835 43.2986 15.7104 43.2881 15.7354C43.2777 15.7605 43.2624 15.7832 43.2432 15.8023C43.2239 15.8214 43.201 15.8365 43.1759 15.8467C43.1508 15.8569 43.1239 15.8621 43.0968 15.8618Z" fill="#078634"/>
<path d="M43.0968 17.6529H35.5199C35.4928 17.6529 35.4659 17.6475 35.4409 17.6371C35.4158 17.6266 35.3931 17.6113 35.374 17.5921C35.3549 17.5728 35.3398 17.55 35.3296 17.5248C35.3194 17.4997 35.3142 17.4728 35.3145 17.4457C35.3145 17.4187 35.3198 17.392 35.3301 17.3671C35.3404 17.3421 35.3556 17.3195 35.3746 17.3004C35.3937 17.2813 35.4164 17.2662 35.4413 17.2559C35.4662 17.2456 35.4929 17.2402 35.5199 17.2402H43.0968C43.1239 17.24 43.1508 17.2452 43.1759 17.2554C43.201 17.2656 43.2239 17.2807 43.2432 17.2998C43.2624 17.3189 43.2777 17.3416 43.2881 17.3667C43.2986 17.3917 43.3039 17.4186 43.3039 17.4457C43.3039 17.5006 43.2821 17.5533 43.2433 17.5922C43.2044 17.631 43.1517 17.6529 43.0968 17.6529Z" fill="#078634"/>
<path d="M43.0968 19.4476H35.5199C35.4928 19.4476 35.4659 19.4422 35.4409 19.4318C35.4158 19.4213 35.3931 19.406 35.374 19.3868C35.3549 19.3675 35.3398 19.3447 35.3296 19.3195C35.3194 19.2944 35.3142 19.2675 35.3145 19.2404C35.3145 19.1857 35.336 19.1333 35.3745 19.0945C35.413 19.0557 35.4653 19.0337 35.5199 19.0332H43.0968C43.1517 19.0332 43.2044 19.055 43.2433 19.0939C43.2821 19.1327 43.3039 19.1854 43.3039 19.2404C43.3039 19.2953 43.2821 19.348 43.2433 19.3869C43.2044 19.4257 43.1517 19.4476 43.0968 19.4476Z" fill="#078634"/>
<path d="M43.0968 21.2388H35.5199C35.4929 21.2388 35.4662 21.2335 35.4413 21.2232C35.4164 21.2128 35.3937 21.1977 35.3746 21.1786C35.3556 21.1595 35.3404 21.1369 35.3301 21.112C35.3198 21.087 35.3145 21.0603 35.3145 21.0333C35.3142 21.0062 35.3194 20.9793 35.3296 20.9542C35.3398 20.9291 35.3549 20.9062 35.374 20.887C35.3931 20.8677 35.4158 20.8524 35.4409 20.842C35.4659 20.8315 35.4928 20.8262 35.5199 20.8262H43.0968C43.1517 20.8262 43.2044 20.848 43.2433 20.8869C43.2821 20.9257 43.3039 20.9784 43.3039 21.0333C43.3039 21.0605 43.2986 21.0873 43.2881 21.1124C43.2777 21.1374 43.2624 21.1601 43.2432 21.1792C43.2239 21.1983 43.201 21.2134 43.1759 21.2237C43.1508 21.2339 43.1239 21.239 43.0968 21.2388Z" fill="#078634"/>
<path d="M25.1709 12.117H25.6532C25.7347 12.1107 25.8167 12.1214 25.8939 12.1483C25.9712 12.1752 26.042 12.2178 26.102 12.2734C26.162 12.3289 26.2099 12.3963 26.2426 12.4713C26.2754 12.5462 26.2923 12.6271 26.2923 12.7089C26.2923 12.7907 26.2754 12.8716 26.2426 12.9466C26.2099 13.0215 26.162 13.0889 26.102 13.1445C26.042 13.2001 25.9712 13.2426 25.8939 13.2696C25.8167 13.2965 25.7347 13.3071 25.6532 13.3009H25.1709V12.117ZM25.6462 13.1912C25.7121 13.1951 25.7781 13.1856 25.8401 13.1631C25.9022 13.1406 25.959 13.1056 26.007 13.0604C26.0551 13.0151 26.0934 12.9605 26.1195 12.9C26.1457 12.8394 26.1592 12.774 26.1592 12.708C26.1592 12.642 26.1457 12.5767 26.1195 12.5161C26.0934 12.4555 26.0551 12.4009 26.007 12.3557C25.959 12.3104 25.9022 12.2755 25.8401 12.253C25.7781 12.2305 25.7121 12.221 25.6462 12.2249H25.298V13.1912H25.6462Z" fill="#078634"/>
<path d="M27.4031 13.1894V13.2991H26.5674V12.1152H27.377V12.2232H26.691V12.6445H27.3038V12.7507H26.691V13.1894H27.4031Z" fill="#078634"/>
<path d="M27.6982 12.1152H27.8219V13.1894H28.4852V13.2991H27.6982V12.1152Z" fill="#078634"/>
<path d="M28.6914 12.1152H28.8168V13.2991H28.6914V12.1152Z" fill="#078634"/>
<path d="M30.1721 12.1152L29.6498 13.2991H29.5262L29.0039 12.1152H29.1397L29.5924 13.1424L30.0485 12.1152H30.1721Z" fill="#078634"/>
<path d="M31.1785 13.1894V13.2991H30.3428V12.1152H31.1541V12.2232H30.4681V12.6445H31.0792V12.7507H30.4681V13.1894H31.1785Z" fill="#078634"/>
<path d="M32.2805 13.3004L32.0089 12.9192C31.9776 12.921 31.9462 12.921 31.9149 12.9192H31.5963V13.2952H31.4727V12.1113H31.9149C32.2161 12.1113 32.3971 12.2645 32.3971 12.517C32.4013 12.6005 32.3768 12.683 32.3277 12.7507C32.2787 12.8185 32.208 12.8675 32.1273 12.8896L32.4163 13.2952L32.2805 13.3004ZM32.2805 12.5222C32.2805 12.3324 32.1551 12.2245 31.9184 12.2245H31.6032V12.8182H31.9184C32.1482 12.8182 32.2735 12.7085 32.2735 12.5152L32.2805 12.5222Z" fill="#078634"/>
<path d="M33.0818 12.89V13.2991H32.9581V12.89L32.4863 12.1152H32.6186L33.0243 12.7803L33.43 12.1152H33.5553L33.0818 12.89Z" fill="#078634"/>
<path d="M34.9334 12.9823H34.2735L34.1325 13.2991H34.002L34.5417 12.1152H34.6653L35.2067 13.2991H35.0744L34.9334 12.9823ZM34.8864 12.8813L34.6026 12.2458L34.3275 12.8813H34.8864Z" fill="#078634"/>
<path d="M35.4023 12.117H35.8846C35.9662 12.1107 36.0481 12.1214 36.1254 12.1483C36.2026 12.1752 36.2734 12.2178 36.3335 12.2734C36.3935 12.3289 36.4413 12.3963 36.4741 12.4713C36.5068 12.5462 36.5237 12.6271 36.5237 12.7089C36.5237 12.7907 36.5068 12.8716 36.4741 12.9466C36.4413 13.0215 36.3935 13.0889 36.3335 13.1445C36.2734 13.2001 36.2026 13.2426 36.1254 13.2696C36.0481 13.2965 35.9662 13.3071 35.8846 13.3009H35.4023V12.117ZM35.8776 13.1912C35.9435 13.1951 36.0095 13.1856 36.0716 13.1631C36.1336 13.1406 36.1904 13.1056 36.2385 13.0604C36.2865 13.0151 36.3248 12.9605 36.351 12.9C36.3772 12.8394 36.3907 12.774 36.3907 12.708C36.3907 12.642 36.3772 12.5767 36.351 12.5161C36.3248 12.4555 36.2865 12.4009 36.2385 12.3557C36.1904 12.3104 36.1336 12.2755 36.0716 12.253C36.0095 12.2305 35.9435 12.221 35.8776 12.2249H35.5294V13.1912H35.8776Z" fill="#078634"/>
<path d="M36.7959 12.117H37.2869C37.3684 12.1107 37.4504 12.1214 37.5276 12.1483C37.6049 12.1752 37.6757 12.2178 37.7357 12.2734C37.7957 12.3289 37.8436 12.3963 37.8763 12.4713C37.9091 12.5462 37.926 12.6271 37.926 12.7089C37.926 12.7907 37.9091 12.8716 37.8763 12.9466C37.8436 13.0215 37.7957 13.0889 37.7357 13.1445C37.6757 13.2001 37.6049 13.2426 37.5276 13.2696C37.4504 13.2965 37.3684 13.3071 37.2869 13.3009H36.8046L36.7959 12.117ZM37.2712 13.1912C37.3371 13.1951 37.4031 13.1856 37.4651 13.1631C37.5272 13.1406 37.584 13.1056 37.632 13.0604C37.6801 13.0151 37.7184 12.9605 37.7445 12.9C37.7707 12.8394 37.7842 12.774 37.7842 12.708C37.7842 12.642 37.7707 12.5767 37.7445 12.5161C37.7184 12.4555 37.6801 12.4009 37.632 12.3557C37.584 12.3104 37.5272 12.2755 37.4651 12.253C37.4031 12.2305 37.3371 12.221 37.2712 12.2249H36.923V13.1912H37.2712Z" fill="#078634"/>
<path d="M39.0002 13.3004L38.7286 12.9192C38.6973 12.921 38.6659 12.921 38.6346 12.9192H38.316V13.2952H38.1924V12.1113H38.6346C38.9358 12.1113 39.1169 12.2645 39.1169 12.517C39.121 12.6005 39.0965 12.683 39.0475 12.7507C38.9984 12.8185 38.9277 12.8675 38.847 12.8896L39.136 13.2952L39.0002 13.3004ZM39.0002 12.5222C39.0002 12.3324 38.8749 12.2245 38.6381 12.2245H38.323V12.8182H38.6381C38.8679 12.8182 38.9932 12.7085 38.9932 12.5152L39.0002 12.5222Z" fill="#078634"/>
<path d="M40.2468 13.1894V13.2991H39.4111V12.1152H40.2224V12.2232H39.5365V12.6445H40.1476V12.7507H39.5365V13.1894H40.2468Z" fill="#078634"/>
<path d="M40.4287 13.1553L40.4775 13.0596C40.5857 13.1531 40.7244 13.2039 40.8674 13.2023C41.0886 13.2023 41.186 13.1101 41.186 12.9934C41.186 12.6696 40.4566 12.8681 40.4566 12.4311C40.4566 12.257 40.5924 12.1055 40.8936 12.1055C41.0232 12.1042 41.1504 12.1411 41.2592 12.2117L41.2174 12.3109C41.1209 12.2483 41.0086 12.2145 40.8936 12.2134C40.6777 12.2134 40.5802 12.3092 40.5802 12.4276C40.5802 12.7514 41.3097 12.5564 41.3097 12.9865C41.3097 13.1606 41.1704 13.3085 40.8674 13.3085C40.7072 13.3142 40.5506 13.2595 40.4287 13.1553Z" fill="#078634"/>
<path d="M41.4658 13.1553L41.5146 13.0596C41.6226 13.1534 41.7614 13.2042 41.9046 13.2023C42.1257 13.2023 42.2214 13.1101 42.2214 12.9934C42.2214 12.6696 41.4937 12.8681 41.4937 12.4311C41.4937 12.257 41.6295 12.1055 41.9289 12.1055C42.0591 12.1042 42.1869 12.1411 42.2963 12.2117L42.2545 12.3109C42.1575 12.248 42.0445 12.2142 41.9289 12.2134C41.713 12.2134 41.6173 12.3092 41.6173 12.4276C41.6173 12.7514 42.345 12.5564 42.345 12.9865C42.345 13.1606 42.2075 13.3085 41.9046 13.3085C41.7443 13.3142 41.5877 13.2595 41.4658 13.1553Z" fill="#078634"/>
<path d="M25.709 15.2305V15.9617H25.6445L25.1745 15.3697V15.9617H25.0996V15.2305H25.164L25.6341 15.8241V15.2305H25.709Z" fill="#078634"/>
<path d="M26.4056 15.7667H25.9982L25.9111 15.9617H25.8311L26.1653 15.2305H26.2402L26.5745 15.9617H26.4926L26.4056 15.7667ZM26.3777 15.704L26.2036 15.3123L26.0295 15.704H26.3777Z" fill="#078634"/>
<path d="M27.4554 15.2305V15.9617H27.3805V15.3767L27.0932 15.8694H27.0567L26.7712 15.3802V15.9617H26.6963V15.2305H26.7607L27.0776 15.7737L27.391 15.2305H27.4554Z" fill="#078634"/>
<path d="M28.2108 15.8955V15.9617H27.6885V15.2305H28.1899V15.3001H27.7651V15.5595H28.1429V15.6257H27.7651V15.8973L28.2108 15.8955Z" fill="#078634"/>
<path d="M25.557 17.5636H25.1496L25.0625 17.7586H24.9824L25.3167 17.0273H25.3916L25.7258 17.7586H25.6457L25.557 17.5636ZM25.5291 17.5009L25.355 17.1074L25.1809 17.5009H25.5291Z" fill="#078634"/>
<path d="M25.8477 17.0232H26.1454C26.1964 17.0182 26.2479 17.024 26.2965 17.0401C26.3452 17.0562 26.3899 17.0823 26.4279 17.1167C26.4659 17.1512 26.4962 17.1932 26.517 17.24C26.5377 17.2869 26.5484 17.3376 26.5484 17.3888C26.5484 17.4401 26.5377 17.4908 26.517 17.5376C26.4962 17.5845 26.4659 17.6265 26.4279 17.6609C26.3899 17.6954 26.3452 17.7215 26.2965 17.7376C26.2479 17.7537 26.1964 17.7594 26.1454 17.7544H25.8477V17.0232ZM26.1419 17.6866C26.183 17.6897 26.2243 17.6843 26.2633 17.6707C26.3022 17.6571 26.338 17.6357 26.3682 17.6076C26.3985 17.5796 26.4226 17.5456 26.4391 17.5078C26.4556 17.47 26.4642 17.4292 26.4642 17.388C26.4642 17.3467 26.4556 17.3059 26.4391 17.2681C26.4226 17.2303 26.3985 17.1963 26.3682 17.1683C26.338 17.1403 26.3022 17.1188 26.2633 17.1052C26.2243 17.0916 26.183 17.0862 26.1419 17.0894H25.9243V17.6866H26.1419Z" fill="#078634"/>
<path d="M26.71 17.0232H27.0146C27.0656 17.0182 27.1171 17.024 27.1658 17.0401C27.2145 17.0562 27.2592 17.0823 27.2972 17.1167C27.3351 17.1512 27.3655 17.1932 27.3862 17.24C27.407 17.2869 27.4177 17.3376 27.4177 17.3888C27.4177 17.4401 27.407 17.4908 27.3862 17.5376C27.3655 17.5845 27.3351 17.6265 27.2972 17.6609C27.2592 17.6954 27.2145 17.7215 27.1658 17.7376C27.1171 17.7537 27.0656 17.7594 27.0146 17.7544H26.7169L26.71 17.0232ZM27.0024 17.6866C27.0436 17.6897 27.0849 17.6843 27.1239 17.6707C27.1628 17.6571 27.1985 17.6357 27.2288 17.6076C27.259 17.5796 27.2832 17.5456 27.2997 17.5078C27.3162 17.47 27.3247 17.4292 27.3247 17.388C27.3247 17.3467 27.3162 17.3059 27.2997 17.2681C27.2832 17.2303 27.259 17.1963 27.2288 17.1683C27.1985 17.1403 27.1628 17.1188 27.1239 17.1052C27.0849 17.0916 27.0436 17.0862 27.0024 17.0894H26.7866V17.6866H27.0024Z" fill="#078634"/>
<path d="M28.0721 17.7562L27.898 17.5212H27.8388H27.6438V17.7527H27.5654V17.0215H27.8388C28.0251 17.0215 28.1382 17.1155 28.1382 17.2722C28.1401 17.3247 28.1238 17.3762 28.0921 17.4181C28.0604 17.46 28.0152 17.4896 27.9641 17.502L28.1382 17.7527L28.0721 17.7562ZM28.0721 17.2757C28.0721 17.159 27.9937 17.0911 27.8475 17.0911H27.6542V17.4585H27.8475C27.9902 17.4585 28.0686 17.3906 28.0686 17.2757H28.0721Z" fill="#078634"/>
<path d="M28.8446 17.6868V17.7547H28.3223V17.0234H28.8237V17.0896H28.4076V17.3507H28.7871V17.4169H28.4076V17.6868H28.8446Z" fill="#078634"/>
<path d="M28.957 17.6668L28.9884 17.6076C29.0549 17.6656 29.1404 17.6972 29.2286 17.6964C29.3662 17.6964 29.4254 17.639 29.4254 17.5658C29.4254 17.3656 28.9762 17.4892 28.9762 17.2176C28.9762 17.1097 29.058 17.0157 29.2443 17.0157C29.3247 17.0144 29.4036 17.0375 29.4706 17.0818L29.4445 17.1428C29.3847 17.1043 29.3154 17.0832 29.2443 17.0818C29.112 17.0818 29.051 17.141 29.051 17.2141C29.051 17.4161 29.502 17.2942 29.502 17.5624C29.502 17.6703 29.4167 17.7608 29.2286 17.7608C29.1296 17.764 29.0329 17.7305 28.957 17.6668Z" fill="#078634"/>
<path d="M29.5977 17.6668L29.629 17.6076C29.6955 17.6656 29.781 17.6972 29.8693 17.6964C30.0068 17.6964 30.066 17.639 30.066 17.5658C30.066 17.3656 29.6168 17.4892 29.6168 17.2176C29.6168 17.1097 29.7004 17.0157 29.8849 17.0157C29.9653 17.0144 30.0442 17.0375 30.1113 17.0818L30.0851 17.1428C30.0254 17.1043 29.956 17.0832 29.8849 17.0818C29.7526 17.0818 29.6917 17.141 29.6917 17.2141C29.6917 17.4161 30.1426 17.2942 30.1426 17.5624C30.1426 17.6703 30.0573 17.7608 29.8693 17.7608C29.7702 17.764 29.6735 17.7305 29.5977 17.6668Z" fill="#078634"/>
<path d="M25.6707 19.0691C25.6707 19.224 25.5575 19.318 25.3712 19.318H25.1745V19.5496H25.0996V18.8184H25.3729C25.5575 18.8184 25.6707 18.9124 25.6707 19.0691ZM25.5923 19.0691C25.5923 18.9524 25.5157 18.8845 25.3695 18.8845H25.1745V19.2501H25.3695C25.5157 19.2501 25.5923 19.184 25.5923 19.0691Z" fill="#078634"/>
<path d="M25.7844 19.1823C25.7819 19.1061 25.8023 19.0309 25.8429 18.9663C25.8835 18.9017 25.9424 18.8508 26.0122 18.8199C26.0819 18.789 26.1593 18.7797 26.2344 18.793C26.3095 18.8064 26.3788 18.8419 26.4336 18.895C26.4884 18.948 26.5261 19.0162 26.5419 19.0908C26.5577 19.1654 26.5509 19.2431 26.5223 19.3138C26.4937 19.3845 26.4446 19.445 26.3814 19.4877C26.3182 19.5303 26.2437 19.5531 26.1674 19.5532C26.1176 19.5553 26.0678 19.5472 26.0212 19.5295C25.9746 19.5118 25.932 19.4848 25.8962 19.4501C25.8603 19.4154 25.8319 19.3737 25.8127 19.3277C25.7935 19.2817 25.7839 19.2322 25.7844 19.1823ZM26.4808 19.1823C26.4818 19.1211 26.4646 19.0609 26.4313 19.0095C26.398 18.9581 26.3501 18.9178 26.2938 18.8938C26.2375 18.8697 26.1753 18.8629 26.1151 18.8744C26.055 18.8858 25.9996 18.9149 25.956 18.958C25.9125 19.001 25.8827 19.0561 25.8706 19.1161C25.8585 19.1761 25.8645 19.2384 25.8879 19.295C25.9114 19.3516 25.9511 19.3999 26.0022 19.4338C26.0532 19.4677 26.1131 19.4856 26.1744 19.4853C26.2141 19.4857 26.2536 19.4782 26.2903 19.4631C26.3271 19.448 26.3605 19.4256 26.3884 19.3974C26.4164 19.3691 26.4383 19.3355 26.453 19.2985C26.4677 19.2616 26.4748 19.2221 26.4738 19.1823H26.4808Z" fill="#078634"/>
<path d="M26.6553 19.4599L26.6849 19.399C26.7512 19.4585 26.8378 19.4903 26.9269 19.4878C27.0627 19.4878 27.1236 19.4304 27.1236 19.359C27.1236 19.1588 26.6727 19.2824 26.6727 19.0108C26.6727 18.9046 26.7563 18.8106 26.9425 18.8106C27.0226 18.8101 27.1011 18.8324 27.1689 18.875L27.1428 18.9376C27.0833 18.8984 27.0138 18.8772 26.9425 18.8767C26.8085 18.8767 26.7493 18.9359 26.7493 19.009C26.7493 19.2092 27.1985 19.0891 27.1985 19.3572C27.1985 19.4634 27.1132 19.5557 26.9269 19.5557C26.8276 19.5587 26.7307 19.5246 26.6553 19.4599Z" fill="#078634"/>
<path d="M27.4989 18.8845H27.2412V18.8184H27.8332V18.8845H27.5755V19.5496H27.4989V18.8845Z" fill="#078634"/>
<path d="M28.378 19.3528H27.9706L27.8836 19.5496H27.8018L28.136 18.8184H28.2126L28.5469 19.5496H28.4651L28.378 19.3528ZM28.3502 19.2902L28.1761 18.8984L28.002 19.2902H28.3502Z" fill="#078634"/>
<path d="M28.6699 18.8184H28.7465V19.4799H29.1557V19.5478H28.6699V18.8184Z" fill="#078634"/>
<path d="M29.4932 19.1835C29.4924 19.1334 29.5019 19.0838 29.521 19.0375C29.5402 18.9913 29.5685 18.9495 29.6044 18.9146C29.6402 18.8797 29.6829 18.8525 29.7296 18.8347C29.7763 18.8168 29.8262 18.8087 29.8762 18.8109C29.9258 18.8092 29.9752 18.8177 30.0214 18.836C30.0675 18.8543 30.1094 18.8819 30.1443 18.9171L30.0956 18.9676C30.0672 18.9389 30.0333 18.9164 29.9958 18.9014C29.9584 18.8865 29.9183 18.8793 29.878 18.8805C29.8382 18.8805 29.7988 18.8884 29.762 18.9036C29.7253 18.9188 29.6919 18.9411 29.6638 18.9693C29.6356 18.9974 29.6133 19.0308 29.5981 19.0675C29.5829 19.1043 29.575 19.1437 29.575 19.1835C29.575 19.2232 29.5829 19.2626 29.5981 19.2994C29.6133 19.3361 29.6356 19.3695 29.6638 19.3977C29.6919 19.4258 29.7253 19.4481 29.762 19.4633C29.7988 19.4786 29.8382 19.4864 29.878 19.4864C29.9184 19.4877 29.9587 19.4804 29.9962 19.4651C30.0337 19.4498 30.0676 19.4268 30.0956 19.3976L30.1443 19.4463C30.11 19.4825 30.0683 19.5108 30.022 19.5295C29.9758 19.5481 29.926 19.5565 29.8762 19.5543C29.8264 19.5564 29.7766 19.5484 29.73 19.5307C29.6834 19.5129 29.6409 19.4859 29.605 19.4512C29.5692 19.4165 29.5408 19.3749 29.5216 19.3288C29.5023 19.2828 29.4927 19.2333 29.4932 19.1835Z" fill="#078634"/>
<path d="M30.2297 19.1823C30.2273 19.1061 30.2476 19.0309 30.2882 18.9663C30.3288 18.9017 30.3877 18.8508 30.4575 18.8199C30.5272 18.789 30.6046 18.7797 30.6797 18.793C30.7548 18.8064 30.8241 18.8419 30.8789 18.895C30.9337 18.948 30.9714 19.0162 30.9872 19.0908C31.003 19.1654 30.9962 19.2431 30.9676 19.3138C30.939 19.3845 30.8899 19.445 30.8267 19.4877C30.7635 19.5303 30.689 19.5531 30.6127 19.5532C30.5629 19.5553 30.5131 19.5472 30.4665 19.5295C30.4199 19.5118 30.3773 19.4848 30.3415 19.4501C30.3057 19.4154 30.2773 19.3737 30.258 19.3277C30.2388 19.2817 30.2292 19.2322 30.2297 19.1823ZM30.9261 19.1823C30.9271 19.1211 30.9099 19.0609 30.8766 19.0095C30.8433 18.9581 30.7954 18.9178 30.7391 18.8938C30.6828 18.8697 30.6206 18.8629 30.5604 18.8744C30.5003 18.8858 30.4449 18.9149 30.4013 18.958C30.3578 19.001 30.328 19.0561 30.3159 19.1161C30.3038 19.1761 30.3098 19.2384 30.3333 19.295C30.3567 19.3516 30.3965 19.3999 30.4475 19.4338C30.4985 19.4677 30.5584 19.4856 30.6197 19.4853C30.6594 19.4857 30.6989 19.4782 30.7356 19.4631C30.7724 19.448 30.8058 19.4256 30.8337 19.3974C30.8617 19.3691 30.8836 19.3355 30.8983 19.2985C30.913 19.2616 30.9201 19.2221 30.9191 19.1823H30.9261Z" fill="#078634"/>
<path d="M31.1689 18.8162H31.4667C31.5177 18.8112 31.5692 18.817 31.6178 18.8331C31.6665 18.8492 31.7112 18.8753 31.7492 18.9097C31.7871 18.9441 31.8175 18.9861 31.8382 19.033C31.859 19.0799 31.8697 19.1306 31.8697 19.1818C31.8697 19.2331 31.859 19.2837 31.8382 19.3306C31.8175 19.3775 31.7871 19.4195 31.7492 19.4539C31.7112 19.4883 31.6665 19.5144 31.6178 19.5305C31.5692 19.5467 31.5177 19.5524 31.4667 19.5474H31.1689V18.8162ZM31.4632 19.4795C31.5043 19.4827 31.5456 19.4773 31.5846 19.4637C31.6235 19.4501 31.6593 19.4286 31.6895 19.4006C31.7198 19.3726 31.7439 19.3386 31.7604 19.3008C31.7769 19.263 31.7854 19.2222 31.7854 19.1809C31.7854 19.1397 31.7769 19.0989 31.7604 19.0611C31.7439 19.0233 31.7198 18.9893 31.6895 18.9613C31.6593 18.9332 31.6235 18.9118 31.5846 18.8982C31.5456 18.8846 31.5043 18.8792 31.4632 18.8824H31.2473V19.4778L31.4632 19.4795Z" fill="#078634"/>
<path d="M32.5496 19.4778V19.5457H32.0273V18.8145H32.5288V18.8806H32.1039V19.14H32.4817V19.2062H32.1039V19.4778H32.5496Z" fill="#078634"/>
<path d="M25.6707 20.8601C25.6707 21.0168 25.5575 21.1108 25.3712 21.1108H25.1745V21.3406H25.0996V20.6094H25.3729C25.5575 20.6094 25.6707 20.6982 25.6707 20.8601ZM25.5923 20.8601C25.5923 20.7434 25.5157 20.6773 25.3695 20.6773H25.1745V21.0464H25.3695C25.5157 21.0464 25.5923 20.975 25.5923 20.8601Z" fill="#078634"/>
<path d="M26.449 20.6094V21.3406H26.3724V21.0028H25.9145V21.3406H25.8379V20.6094H25.9145V20.9367H26.3724V20.6094H26.449Z" fill="#078634"/>
<path d="M26.6223 20.9751C26.6198 20.8985 26.6403 20.8229 26.6811 20.7581C26.7219 20.6932 26.7811 20.642 26.8511 20.611C26.9212 20.58 26.9989 20.5707 27.0743 20.5841C27.1498 20.5975 27.2195 20.6332 27.2745 20.6865C27.3295 20.7398 27.3674 20.8083 27.3833 20.8832C27.3991 20.9582 27.3922 21.0362 27.3635 21.1072C27.3348 21.1782 27.2855 21.239 27.222 21.2819C27.1585 21.3247 27.0836 21.3476 27.007 21.3476C26.9569 21.35 26.9068 21.3421 26.8599 21.3244C26.8129 21.3067 26.7701 21.2795 26.734 21.2446C26.698 21.2097 26.6695 21.1678 26.6502 21.1214C26.631 21.0751 26.6215 21.0253 26.6223 20.9751ZM27.3187 20.9751C27.3197 20.9138 27.3025 20.8537 27.2692 20.8023C27.2359 20.7509 27.188 20.7106 27.1317 20.6865C27.0754 20.6624 27.0132 20.6557 26.953 20.6671C26.8928 20.6786 26.8375 20.7077 26.7939 20.7507C26.7503 20.7938 26.7206 20.8488 26.7085 20.9089C26.6964 20.9689 26.7024 21.0312 26.7258 21.0878C26.7493 21.1443 26.789 21.1927 26.84 21.2265C26.8911 21.2604 26.951 21.2783 27.0122 21.278C27.0521 21.2787 27.0918 21.2714 27.1288 21.2564C27.1657 21.2414 27.1993 21.2191 27.2274 21.1908C27.2556 21.1625 27.2777 21.1288 27.2925 21.0917C27.3073 21.0546 27.3144 21.015 27.3134 20.9751H27.3187Z" fill="#078634"/>
<path d="M28.1755 20.6094V21.3406H28.1111L27.6411 20.7487V21.3406H27.5645V20.6094H27.6289L28.0989 21.2031V20.6094H28.1755Z" fill="#078634"/>
<path d="M28.9295 21.2744V21.3406H28.4072V20.6094H28.9086V20.6773H28.4838V20.9367H28.8616V21.0028H28.4838V21.2744H28.9295Z" fill="#078634"/>
<path d="M33.7401 15.4756C33.7387 15.4674 33.739 15.4589 33.7412 15.4508C33.7434 15.4427 33.7473 15.4351 33.7527 15.4287C33.7581 15.4223 33.7648 15.4171 33.7724 15.4136C33.78 15.41 33.7883 15.4082 33.7967 15.4082C33.8051 15.4082 33.8134 15.41 33.821 15.4136C33.8286 15.4171 33.8353 15.4223 33.8407 15.4287C33.8461 15.4351 33.85 15.4427 33.8522 15.4508C33.8544 15.4589 33.8547 15.4674 33.8533 15.4756C33.8547 15.4839 33.8544 15.4924 33.8522 15.5005C33.85 15.5086 33.8461 15.5161 33.8407 15.5225C33.8353 15.5289 33.8286 15.5341 33.821 15.5377C33.8134 15.5412 33.8051 15.543 33.7967 15.543C33.7883 15.543 33.78 15.5412 33.7724 15.5377C33.7648 15.5341 33.7581 15.5289 33.7527 15.5225C33.7473 15.5161 33.7434 15.5086 33.7412 15.5005C33.739 15.4924 33.7387 15.4839 33.7401 15.4756ZM33.7401 15.9196C33.7425 15.9063 33.7494 15.8942 33.7598 15.8855C33.7701 15.8768 33.7832 15.8721 33.7967 15.8721C33.8102 15.8721 33.8233 15.8768 33.8336 15.8855C33.844 15.8942 33.851 15.9063 33.8533 15.9196C33.8547 15.9278 33.8544 15.9363 33.8522 15.9444C33.85 15.9525 33.8461 15.96 33.8407 15.9665C33.8353 15.9729 33.8286 15.9781 33.821 15.9816C33.8134 15.9852 33.8051 15.987 33.7967 15.987C33.7883 15.987 33.78 15.9852 33.7724 15.9816C33.7648 15.9781 33.7581 15.9729 33.7527 15.9665C33.7473 15.96 33.7434 15.9525 33.7412 15.9444C33.739 15.9363 33.7387 15.9278 33.7401 15.9196Z" fill="#078634"/>
<path d="M33.7401 17.2565C33.7425 17.2432 33.7494 17.2311 33.7598 17.2224C33.7701 17.2137 33.7832 17.209 33.7967 17.209C33.8102 17.209 33.8233 17.2137 33.8336 17.2224C33.844 17.2311 33.851 17.2432 33.8533 17.2565C33.8547 17.2647 33.8544 17.2732 33.8522 17.2813C33.85 17.2894 33.8461 17.2969 33.8407 17.3034C33.8353 17.3098 33.8286 17.315 33.821 17.3185C33.8134 17.3221 33.8051 17.3239 33.7967 17.3239C33.7883 17.3239 33.78 17.3221 33.7724 17.3185C33.7648 17.315 33.7581 17.3098 33.7527 17.3034C33.7473 17.2969 33.7434 17.2894 33.7412 17.2813C33.739 17.2732 33.7387 17.2647 33.7401 17.2565ZM33.7401 17.7022C33.7425 17.6889 33.7494 17.6768 33.7598 17.6681C33.7701 17.6594 33.7832 17.6547 33.7967 17.6547C33.8102 17.6547 33.8233 17.6594 33.8336 17.6681C33.844 17.6768 33.851 17.6889 33.8533 17.7022C33.8547 17.7104 33.8544 17.7189 33.8522 17.727C33.85 17.7351 33.8461 17.7426 33.8407 17.7491C33.8353 17.7555 33.8286 17.7607 33.821 17.7642C33.8134 17.7678 33.8051 17.7696 33.7967 17.7696C33.7883 17.7696 33.78 17.7678 33.7724 17.7642C33.7648 17.7607 33.7581 17.7555 33.7527 17.7491C33.7473 17.7426 33.7434 17.7351 33.7412 17.727C33.739 17.7189 33.7387 17.7104 33.7401 17.7022Z" fill="#078634"/>
<path d="M33.7401 19.0514C33.7425 19.0381 33.7494 19.026 33.7598 19.0174C33.7701 19.0087 33.7832 19.0039 33.7967 19.0039C33.8102 19.0039 33.8233 19.0087 33.8336 19.0174C33.844 19.026 33.851 19.0381 33.8533 19.0514C33.8547 19.0597 33.8544 19.0681 33.8522 19.0762C33.85 19.0843 33.8461 19.0919 33.8407 19.0983C33.8353 19.1047 33.8286 19.1099 33.821 19.1134C33.8134 19.117 33.8051 19.1188 33.7967 19.1188C33.7883 19.1188 33.78 19.117 33.7724 19.1134C33.7648 19.1099 33.7581 19.1047 33.7527 19.0983C33.7473 19.0919 33.7434 19.0843 33.7412 19.0762C33.739 19.0681 33.7387 19.0597 33.7401 19.0514ZM33.7401 19.4971C33.7387 19.4888 33.739 19.4804 33.7412 19.4723C33.7434 19.4641 33.7473 19.4566 33.7527 19.4502C33.7581 19.4438 33.7648 19.4386 33.7724 19.4351C33.78 19.4315 33.7883 19.4297 33.7967 19.4297C33.8051 19.4297 33.8134 19.4315 33.821 19.4351C33.8286 19.4386 33.8353 19.4438 33.8407 19.4502C33.8461 19.4566 33.85 19.4641 33.8522 19.4723C33.8544 19.4804 33.8547 19.4888 33.8533 19.4971C33.8547 19.5054 33.8544 19.5138 33.8522 19.5219C33.85 19.53 33.8461 19.5376 33.8407 19.544C33.8353 19.5504 33.8286 19.5556 33.821 19.5591C33.8134 19.5627 33.8051 19.5645 33.7967 19.5645C33.7883 19.5645 33.78 19.5627 33.7724 19.5591C33.7648 19.5556 33.7581 19.5504 33.7527 19.544C33.7473 19.5376 33.7434 19.53 33.7412 19.5219C33.739 19.5138 33.7387 19.5054 33.7401 19.4971Z" fill="#078634"/>
<path d="M33.7401 20.8448C33.7387 20.8365 33.739 20.828 33.7412 20.8199C33.7434 20.8118 33.7473 20.8043 33.7527 20.7979C33.7581 20.7914 33.7648 20.7863 33.7724 20.7827C33.78 20.7792 33.7883 20.7773 33.7967 20.7773C33.8051 20.7773 33.8134 20.7792 33.821 20.7827C33.8286 20.7863 33.8353 20.7914 33.8407 20.7979C33.8461 20.8043 33.85 20.8118 33.8522 20.8199C33.8544 20.828 33.8547 20.8365 33.8533 20.8448C33.8547 20.853 33.8544 20.8615 33.8522 20.8696C33.85 20.8777 33.8461 20.8852 33.8407 20.8917C33.8353 20.8981 33.8286 20.9033 33.821 20.9068C33.8134 20.9103 33.8051 20.9122 33.7967 20.9122C33.7883 20.9122 33.78 20.9103 33.7724 20.9068C33.7648 20.9033 33.7581 20.8981 33.7527 20.8917C33.7473 20.8852 33.7434 20.8777 33.7412 20.8696C33.739 20.8615 33.7387 20.853 33.7401 20.8448ZM33.7401 21.2887C33.7425 21.2754 33.7494 21.2634 33.7598 21.2547C33.7701 21.246 33.7832 21.2412 33.7967 21.2412C33.8102 21.2412 33.8233 21.246 33.8336 21.2547C33.844 21.2634 33.851 21.2754 33.8533 21.2887C33.8547 21.297 33.8544 21.3055 33.8522 21.3136C33.85 21.3217 33.8461 21.3292 33.8407 21.3356C33.8353 21.342 33.8286 21.3472 33.821 21.3508C33.8134 21.3543 33.8051 21.3561 33.7967 21.3561C33.7883 21.3561 33.78 21.3543 33.7724 21.3508C33.7648 21.3472 33.7581 21.342 33.7527 21.3356C33.7473 21.3292 33.7434 21.3217 33.7412 21.3136C33.739 21.3055 33.7387 21.297 33.7401 21.2887Z" fill="#078634"/>
<path d="M46.2311 8.62065C45.8178 8.20716 45.2572 7.97477 44.6726 7.97461C44.088 7.97445 43.5273 8.20652 43.1138 8.61978C42.7003 9.03304 42.4679 9.59364 42.4678 10.1782C42.4676 10.7628 42.6997 11.3236 43.1129 11.7371L44.6711 13.304L46.2381 11.7371C46.6503 11.3228 46.8811 10.7618 46.8798 10.1774C46.8785 9.59301 46.6452 9.03305 46.2311 8.62065ZM45.3937 10.9014C45.251 11.044 45.0692 11.1411 44.8713 11.1804C44.6734 11.2197 44.4683 11.1995 44.2819 11.1222C44.0955 11.045 43.9362 10.9142 43.8242 10.7465C43.7121 10.5787 43.6523 10.3815 43.6523 10.1797C43.6523 9.97797 43.7121 9.78075 43.8242 9.61298C43.9362 9.44522 44.0955 9.31446 44.2819 9.23722C44.4683 9.15998 44.6734 9.13974 44.8713 9.17905C45.0692 9.21836 45.251 9.31546 45.3937 9.45808C45.4885 9.55282 45.5637 9.66532 45.615 9.78915C45.6663 9.91297 45.6927 10.0457 45.6927 10.1797C45.6927 10.3138 45.6663 10.4465 45.615 10.5703C45.5637 10.6941 45.4885 10.8066 45.3937 10.9014Z" fill="#078634"/>
</svg>
