<svg width="69" height="69" viewBox="0 0 69 69" fill="none" xmlns="http://www.w3.org/2000/svg">
<rect width="69" height="69" rx="34.5" fill="#F5F5F5"/>
<path d="M53.334 37.9824H15.501V41.7634H53.334V37.9824Z" fill="#0F913D"/>
<g opacity="0.4">
<path d="M53.334 37.9844H15.501V41.7654H53.334V37.9844Z" fill="black"/>
</g>
<path d="M45.1362 42.2422H33.9688V45.7437H45.1362V42.2422Z" fill="#455A64"/>
<path d="M26.165 40.6582V45.2869H29.9784L31.5068 43.0718H59.3497V40.6582H26.165Z" fill="#263238"/>
<path d="M25.9279 26.001C25.9237 25.9266 25.8905 25.8567 25.8354 25.8066C25.7802 25.7564 25.7076 25.7298 25.6331 25.7326C24.126 25.7948 16.9712 26.1228 15.4999 26.8299C14.3736 27.3718 13.14 29.3943 12.2701 30.7566C11.6465 31.733 10.2689 33.9004 9.99028 35.0088C9.75429 35.9459 9.61201 37.8952 9.6282 38.8622L10.0218 43.979H16.5061L17.1553 42.2888C17.3624 41.7503 17.7279 41.2873 18.2035 40.9608C18.6791 40.6343 19.2424 40.4595 19.8193 40.4596H26.2627V31.9681L25.9279 26.001Z" fill="#0F913D"/>
<path d="M14.7312 27.3965C13.8383 28.2484 12.9421 29.6968 12.2699 30.7566C11.6923 31.6605 10.4688 33.5851 10.0693 34.7455C10.0616 34.7668 10.0556 34.7872 10.0488 34.8085C10.2465 34.754 10.5506 34.6424 10.6452 34.455C10.7875 34.1713 10.9698 33.1992 13.2241 29.5298C13.9091 28.4112 14.577 27.7569 14.7312 27.3965Z" fill="#455A64"/>
<path d="M22.5959 27.0169C20.938 27.1115 17.3436 27.3577 16.1951 27.7479C14.6991 28.259 13.0199 32.2198 12.9407 32.3936L11.8093 35.2903C11.8029 35.3092 11.8012 35.3294 11.8041 35.3491C11.8071 35.3689 11.8148 35.3876 11.8264 35.4038C11.838 35.4201 11.8534 35.4333 11.8711 35.4424C11.8889 35.4516 11.9086 35.4564 11.9285 35.4564H14.8533C14.9641 35.4564 15.074 35.4368 15.1779 35.3985L22.8703 32.5308C23.0401 32.4674 23.1865 32.3536 23.2899 32.2047C23.3933 32.0558 23.4487 31.8788 23.4487 31.6976V27.8237C23.4488 27.7138 23.4264 27.605 23.383 27.5041C23.3395 27.4031 23.276 27.3121 23.1961 27.2366C23.1163 27.161 23.0219 27.1026 22.9187 27.0648C22.8155 27.0271 22.7057 27.0107 22.5959 27.0169Z" fill="#263238"/>
<path d="M12.1357 35.172C12.1357 35.172 13.2194 32.7414 13.5841 31.9448C14.1344 30.7418 15.42 28.2814 16.2882 28.0164C17.0865 27.777 19.3817 27.4857 22.6123 27.3008H22.643C22.7817 27.3012 22.9146 27.3566 23.0127 27.4548C23.1107 27.553 23.1658 27.686 23.1661 27.8247V31.7864C23.1658 31.884 23.1358 31.9792 23.0801 32.0594C23.0244 32.1396 22.9456 32.2009 22.8542 32.2353L17.1708 32.9365C16.943 32.9646 16.724 33.042 16.5291 33.1632C16.3342 33.2844 16.1679 33.4466 16.042 33.6385L15.0571 35.1405C14.9993 35.1619 14.9381 35.1729 14.8765 35.1729L12.1357 35.172Z" fill="#455A64"/>
<path d="M16.9654 32.9799L15.0332 35.1319L16.1024 27.9865L16.3699 27.8945L15.8434 33.1878C15.8409 33.2143 15.8453 33.2411 15.8561 33.2655C15.867 33.2899 15.8839 33.3111 15.9053 33.3271C15.9266 33.3431 15.9518 33.3533 15.9782 33.3568C16.0047 33.3603 16.0316 33.357 16.0564 33.3471L16.9654 32.9799Z" fill="#263238"/>
<path d="M9.50092 39.3579C9.49411 39.2651 9.52563 39.1875 9.57334 39.1875L10.6093 39.0921C10.6945 39.0836 10.7738 39.2446 10.784 39.4329L10.8308 40.2278C10.8385 40.3556 10.8002 40.4638 10.7456 40.4731L9.68921 40.6555C9.6415 40.664 9.59549 40.5933 9.58868 40.4996L9.50092 39.3579Z" fill="#EBEBEB"/>
<path d="M16.9649 43.0723H9.5V46.0652H16.9649V43.0723Z" fill="#263238"/>
<path d="M21.9486 49.1913C24.2026 49.1047 25.9597 47.2073 25.8731 44.9533C25.7865 42.6992 23.889 40.9422 21.635 41.0288C19.381 41.1154 17.6239 43.0128 17.7105 45.2668C17.7971 47.5209 19.6945 49.2779 21.9486 49.1913Z" fill="#263238"/>
<path d="M17.7103 45.0391C17.7108 45.0427 17.7108 45.0465 17.7103 45.0501C17.696 46.1324 18.1119 47.1761 18.8667 47.952C19.6214 48.7278 20.6532 49.1723 21.7355 49.1879C22.8177 49.2035 23.8619 48.7888 24.6387 48.035C25.4154 47.2812 25.8612 46.25 25.8781 45.1677C25.8781 45.1677 25.8781 45.1609 25.8781 45.1575L17.7103 45.0391Z" fill="#263238"/>
<path d="M18.9261 45.0676C18.9177 45.6347 19.0777 46.1917 19.3859 46.6679C19.6941 47.1441 20.1365 47.5182 20.6573 47.7429C21.1782 47.9676 21.7539 48.0329 22.3118 47.9304C22.8697 47.8278 23.3846 47.5622 23.7915 47.167C24.1984 46.7718 24.4789 46.2648 24.5977 45.7101C24.7164 45.1554 24.6679 44.578 24.4585 44.0509C24.249 43.5238 23.8879 43.0706 23.4209 42.7487C22.9539 42.4268 22.4018 42.2506 21.8347 42.2425C21.0744 42.2316 20.3409 42.523 19.7954 43.0528C19.25 43.5826 18.9373 44.3073 18.9261 45.0676Z" fill="#FAFAFA"/>
<path d="M21.8344 42.2425C21.0741 42.2316 20.3406 42.523 19.7951 43.0528C19.2497 43.5826 18.937 44.3073 18.9258 45.0676L24.6603 45.1528C24.6715 44.3921 24.38 43.6582 23.8501 43.1124C23.3201 42.5666 22.595 42.2537 21.8344 42.2425Z" fill="#E0E0E0"/>
<path d="M20.0471 45.0844C20.042 45.4298 20.1396 45.769 20.3273 46.059C20.515 46.3489 20.7846 46.5767 21.1018 46.7135C21.419 46.8503 21.7696 46.89 22.1094 46.8275C22.4491 46.765 22.7627 46.6031 23.0105 46.3624C23.2582 46.1217 23.429 45.8129 23.5013 45.4751C23.5735 45.1373 23.544 44.7856 23.4164 44.4646C23.2888 44.1436 23.0688 43.8676 22.7844 43.6716C22.4999 43.4756 22.1637 43.3684 21.8183 43.3635C21.3552 43.3569 20.9085 43.5345 20.5763 43.8572C20.2442 44.1799 20.0538 44.6213 20.0471 45.0844Z" fill="#263238"/>
<path d="M13.8714 29.6113H13.5383C13.1628 29.6113 12.8584 29.9157 12.8584 30.2912V32.9945C12.8584 33.3699 13.1628 33.6743 13.5383 33.6743H13.8714C14.2469 33.6743 14.5512 33.3699 14.5512 32.9945V30.2912C14.5512 29.9157 14.2469 29.6113 13.8714 29.6113Z" fill="#263238"/>
<path d="M12.1575 36.1863H12.0723V31.8899C12.0725 31.685 12.154 31.4886 12.2988 31.3438C12.4437 31.1989 12.6401 31.1174 12.845 31.1172H13.0495V31.2024H12.845C12.6627 31.2026 12.488 31.2751 12.3591 31.404C12.2302 31.5329 12.1577 31.7076 12.1575 31.8899V36.1863Z" fill="#263238"/>
<path d="M12.7394 36.1915L12.5026 32.1746C12.4992 32.1059 12.5098 32.0372 12.5336 31.9727C12.5574 31.9082 12.594 31.8492 12.6412 31.7992C12.6884 31.7491 12.7451 31.7091 12.8081 31.6816C12.8711 31.654 12.939 31.6394 13.0078 31.6387V31.7239C12.9504 31.7239 12.8937 31.7356 12.8411 31.7583C12.7884 31.7811 12.741 31.8143 12.7016 31.8561C12.6623 31.8978 12.6319 31.9471 12.6123 32.001C12.5927 32.0549 12.5844 32.1122 12.5877 32.1694L12.8246 36.1873L12.7394 36.1915Z" fill="#263238"/>
<path d="M13.0068 35.7988H11.8584V37.1287H13.0068V35.7988Z" fill="#263238"/>
<path d="M12.5821 33.2754H12.1152V33.3606H12.5821V33.2754Z" fill="#263238"/>
<path d="M16.4817 27.1314L16.5831 27.1177L16.8821 27.0828L18.0408 26.949L22.3602 26.4575C22.5903 26.4328 22.8246 26.4021 23.0674 26.3808C23.1914 26.3713 23.3162 26.3794 23.438 26.4046C23.5618 26.4336 23.6813 26.4789 23.7932 26.5393C24.0242 26.6678 24.2114 26.8624 24.3308 27.0981C24.3926 27.2187 24.4343 27.3484 24.4544 27.4824C24.4651 27.55 24.4711 27.6184 24.4722 27.6868V27.8922C24.4722 28.992 24.4722 30.1729 24.4722 31.4244C24.4722 33.9275 24.4722 36.7117 24.4722 39.6884V39.7106H19.985C19.7288 39.7021 19.4724 39.7144 19.2182 39.7472C18.6939 39.8226 18.1992 40.0367 17.7852 40.3672C17.3713 40.6978 17.053 41.1328 16.8634 41.6275C16.8266 41.7183 16.7956 41.8113 16.7705 41.9061C16.7428 41.9998 16.7209 42.0951 16.7049 42.1915L16.6828 42.3363L16.6726 42.4087L16.6683 42.4811L16.6615 42.6268V42.7001V42.7086C16.6802 42.6899 16.6351 42.7376 16.6385 42.7325H10.9482V42.7086C10.9482 41.4247 10.9482 40.1868 10.9482 39.0043C10.9482 38.413 10.9482 37.8357 10.9482 37.2722V36.439C10.9482 36.3019 10.9482 36.1664 10.9482 36.0309C10.951 35.8962 10.9607 35.7617 10.9772 35.628C11.0422 35.1125 11.2059 34.6144 11.4594 34.1609C11.694 33.7196 11.9212 33.2936 12.141 32.8829L13.3491 30.6193L14.3297 28.7816C14.4012 28.6481 14.47 28.5189 14.5358 28.394C14.5699 28.3326 14.5997 28.2704 14.6355 28.2125C14.6708 28.1559 14.7092 28.1013 14.7505 28.0489C14.8983 27.8647 15.0722 27.7031 15.2668 27.5693C15.5348 27.3873 15.8345 27.257 16.1503 27.185C16.2587 27.159 16.3689 27.1411 16.48 27.1314L16.3948 27.1441C16.3394 27.1527 16.2577 27.1671 16.1503 27.1919C15.8363 27.2661 15.5388 27.3978 15.2728 27.5804C15.0798 27.7143 14.9076 27.876 14.7616 28.06C14.7204 28.1114 14.6825 28.1655 14.6483 28.2219C14.6134 28.2781 14.5836 28.3412 14.5495 28.4033L14.3442 28.7918L13.3721 30.6312C13.0074 31.3179 12.6053 32.0753 12.1708 32.8966L11.4892 34.1745C11.2381 34.6246 11.0763 35.119 11.013 35.6305C10.9968 35.7631 10.9874 35.8965 10.9849 36.0301C10.9849 36.1638 10.9849 36.301 10.9849 36.4373V37.2705C10.9849 37.8334 10.9849 38.4107 10.9849 39.0026C10.9849 40.1851 10.9849 41.423 10.9849 42.7069L10.9636 42.6864H16.6317C16.6376 42.6822 16.5908 42.7273 16.6104 42.7069V42.6975V42.6243L16.618 42.476V42.4027L16.6291 42.3295L16.6513 42.1821C16.6674 42.0843 16.6896 41.9875 16.7177 41.8924C16.7432 41.7962 16.7748 41.7018 16.8123 41.6096C17.0049 41.1077 17.3279 40.6663 17.748 40.3309C18.1681 39.9954 18.67 39.7781 19.202 39.7012C19.4563 39.6688 19.7126 39.6566 19.9688 39.6645H24.4356L24.4135 39.6858C24.4135 36.7125 24.4135 33.9283 24.4135 31.4218C24.4135 30.1703 24.4135 28.9895 24.4135 27.8896C24.419 27.7545 24.4133 27.6191 24.3964 27.4849C24.377 27.354 24.3365 27.2271 24.2763 27.1092C24.1607 26.8788 23.978 26.6887 23.7523 26.564C23.6436 26.5044 23.5272 26.46 23.4064 26.4319C23.2875 26.4068 23.1656 26.3985 23.0444 26.4072C22.8033 26.4276 22.5673 26.4583 22.3381 26.483L18.0195 26.961L16.86 27.0879L16.561 27.1194L16.4817 27.1314Z" fill="#263238"/>
<path d="M23.1116 36.5482C23.1116 36.5482 23.1354 36.5482 23.178 36.538C23.2406 36.5269 23.3004 36.5031 23.3535 36.4681C23.4373 36.4132 23.5001 36.3315 23.5316 36.2364C23.5508 36.1771 23.5586 36.1146 23.5546 36.0524C23.5527 35.9834 23.5349 35.9157 23.5026 35.8547C23.4655 35.7849 23.4104 35.7264 23.343 35.6851C23.2755 35.6439 23.1982 35.6216 23.1192 35.6204H22.5569H21.2688C21.1615 35.6206 21.0581 35.6602 20.9781 35.7316C20.8981 35.8031 20.8472 35.9015 20.8351 36.0081C20.8217 36.1093 20.8405 36.2121 20.8888 36.302C20.9367 36.3871 21.0117 36.4536 21.1018 36.4911C21.1909 36.5221 21.2856 36.5337 21.3795 36.5252H21.6521H22.142L22.8517 36.532H23.0451C23.0674 36.5316 23.0896 36.5333 23.1116 36.5371C23.0895 36.5398 23.0673 36.5412 23.0451 36.5414H22.8517L22.142 36.5482H21.6521H21.3795C21.3318 36.5482 21.2858 36.5482 21.2355 36.5482C21.1844 36.5444 21.1341 36.5329 21.0864 36.5141C20.9879 36.4732 20.9058 36.4007 20.853 36.308C20.8001 36.2104 20.7792 36.0986 20.7934 35.9885C20.8065 35.8715 20.8623 35.7635 20.9499 35.6849C21.0376 35.6064 21.1511 35.5628 21.2688 35.5625H22.5569H23.1192C23.2421 35.5649 23.3592 35.6151 23.4457 35.7024C23.5323 35.7897 23.5814 35.9073 23.5827 36.0302C23.5854 36.0953 23.5759 36.1603 23.5546 36.2219C23.5195 36.3208 23.4519 36.4049 23.3629 36.4605C23.3073 36.4951 23.2447 36.5169 23.1797 36.5244C23.158 36.5351 23.1352 36.5431 23.1116 36.5482Z" fill="#263238"/>
<path d="M22.9562 35.4779C22.7135 35.4993 22.4697 35.5064 22.2261 35.4992C21.9822 35.5064 21.7382 35.4993 21.4951 35.4779C21.7381 35.456 21.9822 35.4486 22.2261 35.4558C22.4697 35.4486 22.7135 35.456 22.9562 35.4779Z" fill="white"/>
<path d="M17.3046 46.0887L16.623 46.0393C16.8011 43.5985 17.0618 42.1382 17.4205 41.575C18.1089 40.4931 18.793 40.2971 19.5504 40.1685C20.2558 40.0483 20.9672 40.0765 21.6556 40.1046L21.826 40.1114C23.247 40.1668 26.2238 40.1173 26.2562 40.1173L26.2672 40.7989C26.2374 40.7989 23.2419 40.8492 21.8021 40.7929L21.6317 40.7861C20.9783 40.7606 20.3035 40.7325 19.668 40.8415C18.9906 40.9565 18.54 41.0886 17.9964 41.9422C17.832 42.197 17.5236 43.0822 17.3046 46.0887Z" fill="#263238"/>
<path d="M60.1856 18.2852H26.6201V40.6338H60.1856V18.2852Z" fill="#0F913D"/>
<path d="M59.7816 40.1921C59.7816 40.0481 59.7748 31.8514 59.7637 18.7908L59.7816 18.8079L26.9811 18.813L27.0033 18.7908C27.0033 26.398 27.0033 33.6388 27.0033 40.1921L26.9828 40.1716L59.7833 40.1921L26.9828 40.2125H26.959V40.1921C26.959 33.6388 26.959 26.398 26.959 18.7908V18.7695H26.9837L59.7841 18.7738H59.802V18.7917C59.7884 31.8514 59.7816 40.0489 59.7816 40.1921Z" fill="#263238"/>
<g opacity="0.5">
<path d="M31.3789 30.2734L31.6958 36.6656L56.5893 31.4874L56.1488 24.8242L31.3789 30.2734Z" fill="black"/>
</g>
<path d="M33.2646 34.7011L33.435 34.1048C33.7682 34.2482 34.1381 34.2833 34.4923 34.2053C34.8731 34.1201 35.0887 33.9395 35.0384 33.7205C34.9353 33.2409 33.5049 33.8168 33.2979 32.8609C33.1658 32.2441 33.6199 31.7295 34.4514 31.5515C34.8544 31.4663 35.2463 31.4748 35.5436 31.5855L35.3945 32.1708C35.1185 32.067 34.8179 32.0472 34.5307 32.1137C34.1277 32.1989 33.9249 32.4051 33.9709 32.6198C34.0732 33.1131 35.5087 32.5346 35.7072 33.4573C35.8401 34.0792 35.3775 34.5955 34.5417 34.7744C34.0544 34.8801 33.5603 34.8332 33.2646 34.7011Z" fill="white"/>
<path d="M38.9276 30.6406L38.9711 33.769L38.2767 33.9181L38.2588 32.6444L36.8999 32.9358L36.9187 34.2137L36.2192 34.3594L36.1758 31.2302L36.8744 31.0802L36.8914 32.3096L38.2503 32.0182L38.2333 30.7889L38.9276 30.6406Z" fill="white"/>
<path d="M39.6396 30.4878L40.3366 30.3379L40.38 33.4663L39.6814 33.6162L39.6396 30.4878Z" fill="white"/>
<path d="M43.6322 30.6113C43.7958 31.3738 43.3366 31.9744 42.4395 32.1627L41.7707 32.3058L41.7834 33.1672L41.0848 33.3171L41.0439 30.1853L42.2571 29.9297C43.0069 29.7653 43.5061 30.0217 43.6322 30.6113ZM42.9421 30.8217C42.8799 30.5303 42.6448 30.4375 42.2929 30.5133L41.7485 30.63L41.7621 31.7163L42.3491 31.5902C42.8058 31.4897 43.0273 31.2179 42.9421 30.8192V30.8217Z" fill="white"/>
<path d="M46.7258 29.9445C46.8894 30.7113 46.4302 31.3076 45.5331 31.4959L44.8651 31.6399L44.8796 32.5012L44.181 32.6512L44.1367 29.5228L45.3499 29.2621C46.1022 29.101 46.6014 29.3575 46.7258 29.9445ZM46.0357 30.1558C45.9735 29.8636 45.7376 29.7707 45.3865 29.8465L44.8421 29.9632L44.8558 31.0503L45.4428 30.9242C45.9028 30.8254 46.1226 30.5536 46.0374 30.1558H46.0357Z" fill="white"/>
<path d="M47.2373 28.857L47.9359 28.707L47.9802 31.8363L47.2816 31.9862L47.2373 28.857Z" fill="white"/>
<path d="M51.3911 27.9707L51.4354 31.0991L50.8646 31.2218L49.3439 29.5809L49.3694 31.5404L48.6879 31.6878L48.6436 28.5586L49.2178 28.435L50.7402 30.0767L50.7096 28.1172L51.3911 27.9707Z" fill="white"/>
<path d="M54.1534 28.8924L54.7881 28.7561L54.8043 30.0434C54.5229 30.3572 54.1475 30.5715 53.7343 30.6543C52.8252 30.8494 52.1377 30.4456 51.9715 29.6703C51.7517 28.6479 52.3353 27.7108 53.471 27.4654C54.0452 27.3419 54.5044 27.4356 54.8341 27.721L54.4235 28.2322C54.1679 28.0354 53.9021 27.9945 53.5715 28.066C52.8687 28.2168 52.527 28.8192 52.6685 29.4794C52.7647 29.9293 53.1302 30.1695 53.7002 30.0468C53.8723 30.0117 54.0344 29.9386 54.1747 29.833L54.1534 28.8924Z" fill="white"/>
<path d="M36.3408 24.3598V29.9427L50.5277 26.8228L50.5225 21.3047L36.3408 24.3598Z" fill="#0F913D"/>
<g opacity="0.3">
<path d="M36.3418 24.3598V29.9427L50.5286 26.8228L50.5235 21.3047L36.3418 24.3598Z" fill="black"/>
</g>
<path d="M38.4214 25.748L38.4529 26.9765L40.0052 26.6238L40.0112 26.91L38.4615 27.2628L38.4972 28.5901L38.1854 28.6608L38.1045 25.5324L40.156 25.0664L40.1628 25.3527L38.4214 25.748Z" fill="white"/>
<path d="M42.4878 26.6314L43.2793 27.503L42.9385 27.5805L42.1837 26.7498C42.1377 26.7652 42.0823 26.7771 42.0303 26.789L41.1783 26.9824L41.2056 27.9741L40.8895 28.0456L40.8086 24.9181L41.8855 24.6727C42.567 24.5185 43.0254 24.7426 43.1464 25.2768C43.2861 25.8919 43.0348 26.3673 42.4878 26.6314ZM42.8371 25.3782C42.7477 24.9854 42.4222 24.8389 41.9264 24.9522L41.1315 25.1328L41.1673 26.6978L41.9758 26.5147C42.6505 26.3605 42.9709 25.9686 42.8371 25.3782Z" fill="white"/>
<path d="M44.2171 24.4316L44.2452 25.5451L45.7966 25.1924L45.8068 25.4735L44.2546 25.8254L44.2852 26.9874L46.0846 26.5785L46.0914 26.8648L43.9794 27.3444L43.8984 24.2169L45.95 23.75L45.9568 24.0363L44.2171 24.4316Z" fill="white"/>
<path d="M47.0769 23.7818L47.105 24.8944L48.6573 24.5417L48.6667 24.8229L47.1153 25.1756L47.1451 26.3377L48.9453 25.9287L48.9512 26.215L46.8401 26.6921L46.7549 23.5637L48.8073 23.0977L48.8141 23.3839L47.0769 23.7818Z" fill="white"/>
<path d="M52.1543 24.36L57.1783 23.1835L56.9798 22.6484L52.1543 24.36Z" fill="#FAFAFA"/>
<path d="M29.6582 28.119L33.1512 27.3011L33.0132 26.9297L29.6582 28.119Z" fill="#FAFAFA"/>
<path d="M41.6172 36.5358L46.6412 35.3584L46.4435 34.8242L41.6172 36.5358Z" fill="#FAFAFA"/>
<path d="M48.276 21.6838C48.276 21.6957 45.594 22.3372 42.2807 23.1159C38.9675 23.8946 36.2778 24.5174 36.2744 24.5055C36.271 24.4935 38.9555 23.852 42.2705 23.0733C45.5855 22.2946 48.2734 21.6718 48.276 21.6838Z" fill="#FAFAFA"/>
<path d="M36.3033 29.3813C36.3033 29.3932 35.1531 29.6369 33.7287 29.9232C32.3042 30.2094 31.1481 30.4343 31.1455 30.4224C31.143 30.4105 32.2957 30.1668 33.7201 29.8797C35.1446 29.5926 36.3007 29.3694 36.3033 29.3813Z" fill="#FAFAFA"/>
<path d="M36.3489 28.8767C36.345 28.862 36.3433 28.8468 36.3438 28.8316C36.3438 28.7967 36.3438 28.7541 36.3395 28.703C36.3395 28.5845 36.3395 28.4244 36.3327 28.2293C36.3327 27.8229 36.3259 27.2734 36.3225 26.6659C36.3191 26.0585 36.3106 25.5081 36.3063 25.1026C36.3063 24.9075 36.3012 24.7473 36.2995 24.6289V24.4994C36.2973 24.4847 36.2973 24.4698 36.2995 24.4551C36.3034 24.4695 36.3054 24.4844 36.3055 24.4994C36.3055 24.5343 36.3106 24.5761 36.314 24.628C36.3208 24.7396 36.3276 24.9015 36.3344 25.1017C36.3489 25.5013 36.36 26.0542 36.3642 26.6651C36.3685 27.2759 36.3642 27.8288 36.3642 28.2284C36.3642 28.4244 36.3591 28.5845 36.3574 28.703C36.3574 28.7541 36.3574 28.7967 36.3532 28.8316C36.353 28.8467 36.3516 28.8618 36.3489 28.8767Z" fill="#FAFAFA"/>
<path d="M21.8478 28.8691C21.8478 28.8691 21.8376 28.8794 21.8163 28.8956L21.7226 28.9629C21.6374 29.0216 21.5207 29.1034 21.3725 29.2048C21.0751 29.4059 20.6611 29.6802 20.1993 29.9758C19.7375 30.2715 19.3158 30.533 19.0066 30.7196C18.8532 30.8125 18.728 30.89 18.6411 30.9377L18.5405 30.9939C18.5291 31.0013 18.5168 31.0073 18.5039 31.0118C18.5039 31.0118 18.5141 31.0016 18.5354 30.9871L18.6317 30.9224L18.9904 30.6932L20.1737 29.9384L21.3529 29.1784L21.7115 28.9492L21.8104 28.8879C21.8221 28.8803 21.8347 28.874 21.8478 28.8691Z" fill="#FAFAFA"/>
<path d="M20.3918 29.2539C20.3918 29.2539 20.3816 29.2641 20.3603 29.2803L20.2666 29.3476C20.1814 29.4056 20.0646 29.4882 19.9155 29.5887C19.6182 29.7906 19.2042 30.0641 18.7433 30.3555C18.2823 30.6469 17.8598 30.9135 17.5505 31.1001C17.3972 31.193 17.2719 31.2705 17.185 31.3174L17.0845 31.3744C17.0732 31.382 17.0609 31.3877 17.0479 31.3915C17.0574 31.3821 17.068 31.3738 17.0794 31.3668L17.1756 31.3029L17.5335 31.0728L18.7177 30.3189L19.8968 29.5589L20.2555 29.3289L20.3535 29.2684C20.3655 29.2619 20.3784 29.257 20.3918 29.2539Z" fill="#FAFAFA"/>
<path d="M13.221 31.7328C13.2079 31.7095 13.199 31.6842 13.1946 31.6578C13.1809 31.6093 13.1622 31.5377 13.1409 31.4491C13.0849 31.2176 13.0563 30.9802 13.0557 30.742C13.0545 30.5013 13.1099 30.2638 13.2176 30.0485C13.2512 29.9841 13.2918 29.9235 13.3385 29.8679C13.3543 29.8466 13.3733 29.8279 13.3948 29.8125C13.3404 29.8933 13.2903 29.9769 13.2448 30.063C13.1477 30.277 13.098 30.5095 13.0991 30.7445C13.1017 30.9799 13.1271 31.2144 13.175 31.4449C13.1963 31.5398 13.2116 31.636 13.221 31.7328Z" fill="#FAFAFA"/>
<path d="M9.74938 37.7741C9.7463 37.7438 9.7463 37.7133 9.74938 37.683C9.74938 37.6216 9.74938 37.533 9.75449 37.4274C9.76131 37.2084 9.7775 36.906 9.80391 36.5754C9.83032 36.2449 9.86184 35.9416 9.8891 35.7235C9.90273 35.6144 9.91466 35.5266 9.92403 35.4679C9.92724 35.4363 9.93381 35.4052 9.94363 35.375C9.94791 35.4067 9.94791 35.4388 9.94363 35.4704L9.92148 35.726C9.90273 35.9543 9.87717 36.25 9.84906 36.578C9.82095 36.906 9.80391 37.2007 9.78772 37.4299C9.78005 37.5322 9.77324 37.6182 9.76812 37.6855C9.76553 37.7157 9.75924 37.7455 9.74938 37.7741Z" fill="#FAFAFA"/>
<path d="M19.087 39.4277C19.087 39.4371 18.9226 39.4601 18.6678 39.5427C18.5187 39.5912 18.3733 39.6501 18.2325 39.7191C17.8876 39.8904 17.5755 40.1211 17.3107 40.4007C17.2025 40.5141 17.1026 40.6351 17.0116 40.7628C16.8574 40.9817 16.785 41.1325 16.7773 41.1282C16.79 41.0911 16.806 41.0552 16.8251 41.0209C16.8441 40.9793 16.8657 40.9389 16.8898 40.8999C16.9171 40.8539 16.9469 40.8002 16.9861 40.7449C17.0743 40.6131 17.1729 40.4886 17.2809 40.3726C17.4147 40.2307 17.5604 40.1005 17.7162 39.9832C17.8735 39.869 18.0406 39.769 18.2155 39.6842C18.3583 39.6156 18.5065 39.5586 18.6585 39.5138C18.7224 39.4925 18.7829 39.4806 18.8348 39.4678C18.8795 39.4569 18.9247 39.4484 18.9703 39.4422C19.0086 39.4337 19.0477 39.4288 19.087 39.4277Z" fill="#FAFAFA"/>
<path d="M27.4768 34.2841C27.4757 34.2719 27.4757 34.2597 27.4768 34.2475C27.4768 34.2214 27.4768 34.1856 27.4768 34.1402C27.4768 34.043 27.4768 33.9042 27.4708 33.727C27.4657 33.3657 27.4589 32.8469 27.4495 32.2071C27.4265 30.9215 27.395 29.1502 27.3601 27.1933C27.3251 25.2363 27.2953 23.4617 27.2834 22.1786C27.2774 21.5371 27.2757 21.0174 27.2766 20.6587C27.2766 20.4807 27.2766 20.3418 27.2766 20.2455V20.1382C27.2766 20.1135 27.2766 20.1016 27.2766 20.1016C27.2777 20.1137 27.2777 20.126 27.2766 20.1382C27.2766 20.1638 27.2766 20.1995 27.2766 20.2455C27.2766 20.3418 27.2766 20.4807 27.2825 20.6587C27.2876 21.02 27.2945 21.538 27.3038 22.1778C27.3268 23.4634 27.3584 25.2346 27.3933 27.1924C27.4282 29.1502 27.4589 30.9232 27.47 32.2062C27.4759 32.8486 27.4785 33.3674 27.4776 33.7261C27.4776 33.9042 27.4776 34.043 27.4776 34.1402C27.4776 34.1853 27.4776 34.2211 27.4776 34.2475C27.4781 34.2597 27.4778 34.272 27.4768 34.2841Z" fill="#FAFAFA"/>
<path d="M52.1262 49.1864C54.3801 49.0962 56.1341 47.196 56.044 44.9421C55.9539 42.6882 54.0537 40.9342 51.7998 41.0243C49.5459 41.1144 47.7918 43.0146 47.8819 45.2685C47.9721 47.5224 49.8723 49.2765 52.1262 49.1864Z" fill="#263238"/>
<path d="M47.8784 45.0391C47.8784 45.0391 47.8784 45.0467 47.8784 45.0501C47.8628 46.1331 48.278 47.178 49.0328 47.9548C49.7876 48.7316 50.82 49.1768 51.903 49.1924C52.986 49.208 54.0308 48.7927 54.8077 48.0379C55.5845 47.2832 56.0296 46.2507 56.0452 45.1677V45.1575L47.8784 45.0391Z" fill="#263238"/>
<path d="M49.094 45.0676C49.0859 45.6345 49.246 46.1911 49.5541 46.6671C49.8622 47.143 50.3046 47.5169 50.8252 47.7414C51.3458 47.966 51.9213 48.0311 52.479 47.9286C53.0366 47.8261 53.5513 47.5605 53.958 47.1655C54.3647 46.7705 54.6452 46.2637 54.7639 45.7093C54.8826 45.1549 54.8343 44.5777 54.625 44.0507C54.4157 43.5238 54.0548 43.0708 53.5881 42.7489C53.1213 42.427 52.5696 42.2508 52.0026 42.2425C51.2423 42.2316 50.5088 42.523 49.9634 43.0528C49.418 43.5826 49.1053 44.3073 49.094 45.0676Z" fill="#FAFAFA"/>
<path d="M52.0023 42.2425C51.6259 42.237 51.252 42.3057 50.902 42.4447C50.5521 42.5837 50.233 42.7902 49.9629 43.0526C49.6928 43.3149 49.477 43.6279 49.3279 43.9736C49.1787 44.3194 49.0992 44.6911 49.0938 45.0676L54.8274 45.1528C54.8332 44.7762 54.7647 44.4021 54.6258 44.052C54.4869 43.7018 54.2803 43.3825 54.018 43.1122C53.7556 42.8419 53.4426 42.626 53.0967 42.4768C52.7509 42.3275 52.379 42.2479 52.0023 42.2425Z" fill="#E0E0E0"/>
<path d="M50.218 45.0844C50.2129 45.4298 50.3105 45.769 50.4982 46.059C50.6859 46.3489 50.9555 46.5767 51.2727 46.7135C51.5899 46.8503 51.9405 46.89 52.2803 46.8275C52.62 46.765 52.9336 46.6031 53.1814 46.3624C53.4291 46.1217 53.5999 45.8129 53.6722 45.4751C53.7444 45.1373 53.7149 44.7856 53.5873 44.4646C53.4597 44.1436 53.2397 43.8676 52.9553 43.6716C52.6708 43.4756 52.3346 43.3684 51.9892 43.3635C51.5261 43.3569 51.0794 43.5345 50.7472 43.8572C50.4151 44.1799 50.2247 44.6213 50.218 45.0844Z" fill="#263238"/>
<path d="M46.5925 46.2269C46.5925 46.2269 45.9706 40.4336 51.9735 40.4336C57.5113 40.4336 57.3886 45.4159 57.3358 46.1869H56.4676C56.4676 46.1869 56.9098 41.2762 51.9735 41.2762C47.0373 41.2762 47.4667 46.2866 47.4667 46.2866C47.4667 46.2866 47.102 46.2687 46.5925 46.2269Z" fill="#455A64"/>
<path d="M49.8075 41.0334C49.7926 41.041 49.7769 41.0468 49.7606 41.0504C49.7291 41.0615 49.6822 41.0726 49.6243 41.093C49.4577 41.146 49.2947 41.2095 49.1361 41.283C48.6113 41.5237 48.1464 41.8778 47.7749 42.3197C47.4033 42.7617 47.1344 43.2805 46.9875 43.8389C46.9425 44.007 46.9081 44.1777 46.8844 44.3501C46.875 44.4114 46.8716 44.4591 46.8665 44.4915C46.865 44.5082 46.8622 44.5247 46.858 44.5409C46.8559 44.5245 46.8559 44.5079 46.858 44.4915C46.858 44.4583 46.858 44.4063 46.8682 44.3484C46.8851 44.1731 46.9153 43.9994 46.9585 43.8287C47.0982 43.2618 47.366 42.7345 47.7415 42.2874C48.1169 41.8403 48.59 41.4853 49.1242 41.2498C49.2849 41.1781 49.4506 41.1183 49.62 41.0709C49.6797 41.0538 49.7274 41.0445 49.7589 41.0368C49.7749 41.0339 49.7912 41.0327 49.8075 41.0334Z" fill="#FAFAFA"/>
</svg>
