<svg width="69" height="69" viewBox="0 0 69 69" fill="none" xmlns="http://www.w3.org/2000/svg">
<rect width="69" height="69" rx="34.5" fill="#F5F5F5"/>
<path d="M44.3099 45.8231C46.3746 45.4609 47.7547 43.4935 47.3925 41.4288C47.0303 39.3641 45.0629 37.9839 42.9982 38.3461C40.9335 38.7083 39.5534 40.6757 39.9156 42.7404C40.2778 44.8051 42.2452 46.1853 44.3099 45.8231Z" fill="#0F913D"/>
<g opacity="0.1">
<path d="M42.2935 38.5391C41.8285 38.7181 41.4034 38.987 41.0423 39.3304C40.6813 39.6738 40.3914 40.085 40.1893 40.5404C39.9872 40.9959 39.8768 41.4867 39.8645 41.9848C39.8521 42.4829 39.9379 42.9786 40.1172 43.4435C40.1172 43.4435 42.6493 42.598 42.8626 41.3651C43.0759 40.1322 42.2935 38.5391 42.2935 38.5391Z" fill="white"/>
</g>
<path d="M44.5585 44.4206C46.0408 43.8468 46.7772 42.1801 46.2035 40.6978C45.6297 39.2156 43.963 38.4791 42.4807 39.0529C40.9985 39.6267 40.262 41.2934 40.8358 42.7756C41.4096 44.2579 43.0763 44.9943 44.5585 44.4206Z" fill="#0F913D"/>
<g opacity="0.2">
<path d="M44.5575 44.4206C46.0398 43.8468 46.7762 42.1801 46.2025 40.6978C45.6287 39.2156 43.962 38.4791 42.4797 39.0529C40.9975 39.6267 40.261 41.2934 40.8348 42.7756C41.4086 44.2579 43.0753 44.9943 44.5575 44.4206Z" fill="black"/>
</g>
<path d="M46.3883 41.0955C46.591 41.6209 46.6333 42.1946 46.5099 42.7441C46.3864 43.2935 46.1028 43.794 45.6949 44.1822C45.287 44.5704 44.7731 44.8289 44.2182 44.925C43.6633 45.0211 43.0924 44.9505 42.5777 44.7221C42.063 44.4936 41.6276 44.1177 41.3266 43.6418C41.0256 43.1658 40.8725 42.6113 40.8866 42.0484C40.9008 41.4854 41.0817 40.9393 41.4063 40.4792C41.7309 40.019 42.1847 39.6655 42.7103 39.4633C43.4145 39.1923 44.1975 39.2121 44.8871 39.5182C45.5768 39.8242 46.1167 40.3916 46.3883 41.0955Z" fill="#0F913D"/>
<g opacity="0.2">
<path d="M46.3903 41.0955C46.5929 41.6209 46.6352 42.1946 46.5118 42.7441C46.3884 43.2935 46.1048 43.794 45.6968 44.1822C45.2889 44.5704 44.775 44.8289 44.2201 44.925C43.6653 45.0211 43.0944 44.9505 42.5797 44.7221C42.0649 44.4936 41.6295 44.1177 41.3285 43.6418C41.0275 43.1658 40.8744 42.6113 40.8886 42.0484C40.9028 41.4854 41.0836 40.9393 41.4082 40.4792C41.7329 40.019 42.1867 39.6655 42.7122 39.4633C43.4164 39.1923 44.1994 39.2121 44.8891 39.5182C45.5788 39.8242 46.1187 40.3916 46.3903 41.0955Z" fill="white"/>
</g>
<path d="M43.7493 41.8455L43.4881 41.1665C43.6184 41.1342 43.7523 41.1192 43.8864 41.1219C43.9575 41.13 44.0278 41.1442 44.0964 41.1643V41.1393L44.1073 40.8542V40.7889L43.9376 40.7084L43.8886 40.7563C43.7059 40.7357 43.5208 40.7519 43.3445 40.8042L43.1998 40.4298L43.0474 40.3809L43.0833 40.4744L42.9245 40.5365L43.0703 40.9173C42.5643 41.1698 42.4304 41.5702 42.5621 41.9087C42.7427 42.3766 43.19 42.3439 43.5991 42.2906L43.8581 42.9642C43.6058 43.0377 43.3378 43.0377 43.0855 42.9642L43.0648 43.3625C43.2988 43.4473 43.6601 43.4321 43.9974 43.3255L44.1062 43.6073L43.9756 43.6606L44.1411 43.6987L44.4174 43.5899L44.2727 43.2123C44.7809 42.9555 44.9191 42.5594 44.7874 42.2177C44.6111 41.7541 44.1585 41.7933 43.7493 41.8455ZM43.4468 41.8815C43.2292 41.8989 43.0561 41.8815 42.993 41.7193C42.9299 41.5572 42.993 41.4103 43.2161 41.284L43.4468 41.8815ZM44.1356 42.8499L43.906 42.2536C44.1302 42.2329 44.3086 42.2536 44.3717 42.4179C44.4272 42.5637 44.3674 42.7183 44.1356 42.8499Z" fill="#0F913D"/>
<g opacity="0.3">
<path d="M43.7503 41.8455L43.4891 41.1665C43.6193 41.1342 43.7533 41.1192 43.8874 41.1219C43.9585 41.13 44.0287 41.1442 44.0974 41.1643V41.1393L44.1083 40.8542V40.7889L43.9385 40.7084L43.8896 40.7563C43.7068 40.7357 43.5218 40.7519 43.3455 40.8042L43.2008 40.4298L43.0484 40.3809L43.0843 40.4744L42.9254 40.5365L43.0713 40.9173C42.5653 41.1698 42.4314 41.5702 42.5631 41.9087C42.7437 42.3766 43.191 42.3439 43.6001 42.2906L43.8591 42.9642C43.6068 43.0377 43.3388 43.0377 43.0865 42.9642L43.0658 43.3625C43.2998 43.4473 43.6611 43.4321 43.9984 43.3255L44.1072 43.6073L43.9766 43.6606L44.142 43.6987L44.4184 43.5899L44.2737 43.2123C44.7819 42.9555 44.9201 42.5594 44.7884 42.2177C44.6121 41.7541 44.1594 41.7933 43.7503 41.8455ZM43.4478 41.8815C43.2301 41.8989 43.0571 41.8815 42.994 41.7193C42.9309 41.5572 42.994 41.4103 43.2171 41.284L43.4478 41.8815ZM44.1366 42.8499L43.907 42.2536C44.1311 42.2329 44.3096 42.2536 44.3727 42.4179C44.4282 42.5637 44.3684 42.7183 44.1366 42.8499Z" fill="black"/>
</g>
<path d="M44.1269 43.1685L44.2727 43.5461L43.9963 43.655L43.8526 43.2806C43.5142 43.3894 43.1529 43.4025 42.919 43.3187L42.9397 42.9204C43.192 42.9934 43.4599 42.9934 43.7123 42.9204L43.4533 42.2469C43.0441 42.2991 42.5969 42.3317 42.4173 41.8638C42.2846 41.52 42.4173 41.1249 42.9244 40.8725L42.7786 40.4916L43.055 40.3828L43.1987 40.7571C43.4437 40.6744 43.7056 40.6546 43.9604 40.6995L43.9528 41.0934C43.7478 41.0598 43.5381 41.0691 43.3369 41.1206L43.5991 41.8018C44.0083 41.7485 44.4609 41.7093 44.6405 42.1783C44.7743 42.5178 44.6372 42.9117 44.1269 43.1685ZM43.2966 41.8334L43.0659 41.2327C42.8406 41.3622 42.7862 41.5221 42.8483 41.6679C42.9103 41.8138 43.079 41.8519 43.2966 41.8334ZM44.2226 42.3709C44.1584 42.2055 43.9811 42.1848 43.7569 42.2055L43.9865 42.8018C44.2172 42.6702 44.2781 42.5156 44.2226 42.3709Z" fill="#0F913D"/>
<path d="M41.2774 44.9054C41.2774 44.9054 41.2676 44.8988 41.2502 44.8847L41.1762 44.8194C41.1381 44.785 41.1018 44.7486 41.0674 44.7106C41.026 44.6671 40.9749 44.6203 40.9259 44.5615L40.8476 44.4712C40.8203 44.4396 40.7953 44.4037 40.767 44.3689C40.7104 44.2993 40.6582 44.2187 40.6005 44.136C40.4815 43.952 40.3775 43.7588 40.2893 43.5582C40.2043 43.3561 40.1352 43.1476 40.0826 42.9347C40.0619 42.8357 40.0401 42.7421 40.0282 42.6528C40.0216 42.6082 40.014 42.5658 40.0097 42.5244C40.0053 42.4831 40.002 42.4439 39.9977 42.4058C39.989 42.3297 39.989 42.26 39.9868 42.2002C39.9841 42.1483 39.9841 42.0964 39.9868 42.0446V41.9466C39.9825 41.9458 39.9787 41.9434 39.9761 41.94C39.9735 41.9365 39.9723 41.9322 39.9727 41.9279C39.9731 41.9236 39.9751 41.9196 39.9783 41.9166C39.9816 41.9137 39.9857 41.9121 39.9901 41.9121C39.9944 41.9121 39.9986 41.9137 40.0018 41.9166C40.005 41.9196 40.007 41.9236 40.0074 41.9279C40.0078 41.9322 40.0066 41.9365 40.004 41.94C40.0014 41.9434 39.9976 41.9458 39.9933 41.9466C39.9933 41.9717 39.9933 42.0043 39.9933 42.0446C39.9933 42.0848 39.9933 42.1392 39.9933 42.1991C39.9933 42.2589 39.9988 42.3286 40.0097 42.4037C40.0097 42.4417 40.0184 42.4809 40.0227 42.5223C40.0271 42.5636 40.0358 42.605 40.0423 42.6496C40.0554 42.7377 40.0782 42.8302 40.1 42.9282C40.1523 43.1394 40.2214 43.3461 40.3067 43.5462C40.3941 43.7457 40.4967 43.9382 40.6136 44.1219C40.6702 44.2046 40.7224 44.2851 40.7768 44.3548C40.804 44.3896 40.8291 44.4255 40.8563 44.457L40.9324 44.5485C40.9803 44.6072 41.0293 44.6573 41.0706 44.6997C41.112 44.7421 41.1479 44.7802 41.1794 44.8085L41.2502 44.8771C41.2698 44.8956 41.2785 44.9043 41.2774 44.9054Z" fill="white"/>
<path d="M42.7544 42.0518C42.7148 42.045 42.6775 42.0285 42.6456 42.0039C42.5654 41.9492 42.5048 41.8703 42.4726 41.7787C42.4414 41.6862 42.4414 41.5861 42.4726 41.4936C42.4811 41.453 42.5003 41.4155 42.5281 41.3848C42.5281 41.3848 42.5096 41.4261 42.4922 41.4936C42.4687 41.5825 42.4717 41.6763 42.5009 41.7635C42.532 41.8497 42.5871 41.9252 42.6598 41.9811C42.7142 42.0311 42.7555 42.0475 42.7544 42.0518Z" fill="white"/>
<path d="M42.96 40.7872C42.9524 40.7872 42.9274 40.7426 42.9045 40.6784C42.8817 40.6142 42.8675 40.5696 42.8751 40.5631C42.8827 40.5565 42.9067 40.6077 42.9306 40.6719C42.9546 40.7361 42.9676 40.7851 42.96 40.7872Z" fill="white"/>
<path d="M42.7579 39.1914C42.73 39.2044 42.7008 39.2146 42.6709 39.2219C42.6358 39.2311 42.6013 39.2424 42.5675 39.2556C42.5272 39.2698 42.4815 39.2839 42.4325 39.3057C42.3836 39.3274 42.3292 39.347 42.2737 39.3742C42.2182 39.4014 42.1572 39.4308 42.0952 39.4635C41.9619 39.5373 41.8342 39.621 41.7133 39.7137C41.5931 39.8073 41.4797 39.9091 41.3737 40.0184C41.3259 40.0707 41.2802 40.1185 41.241 40.1675C41.2018 40.2165 41.1648 40.2611 41.1322 40.3046C41.0995 40.3481 41.0734 40.3862 41.0495 40.421C41.0255 40.4559 41.0059 40.4863 40.9907 40.5125C40.9756 40.5397 40.9581 40.5656 40.9385 40.5897C40.9504 40.5611 40.9646 40.5334 40.9809 40.507C40.9976 40.4744 41.0162 40.4428 41.0364 40.4123C41.0593 40.3775 41.0843 40.3351 41.1158 40.2926C41.1474 40.2502 41.1811 40.2012 41.2247 40.1523C41.2682 40.1033 41.3095 40.0532 41.3563 40.001C41.4621 39.889 41.5763 39.7853 41.698 39.6909C41.8208 39.598 41.9503 39.5144 42.0854 39.4406C42.1485 39.409 42.2073 39.3775 42.2661 39.3525C42.3248 39.3274 42.3749 39.3057 42.4282 39.2861C42.4815 39.2665 42.524 39.2534 42.5642 39.2404C42.6045 39.2273 42.6404 39.2175 42.673 39.211C42.7008 39.2024 42.7292 39.1958 42.7579 39.1914Z" fill="white"/>
<path d="M45.3784 45.2754C45.3611 45.2912 45.3422 45.3051 45.3218 45.3167C45.2689 45.3524 45.2141 45.3851 45.1575 45.4147C44.7855 45.6154 44.3721 45.7272 43.9496 45.7411C43.8691 45.7411 43.8038 45.7411 43.7581 45.7411C43.7348 45.7409 43.7115 45.7388 43.6885 45.7346C43.7116 45.7321 43.735 45.7321 43.7581 45.7346C43.8038 45.7346 43.8669 45.7346 43.9486 45.7281C44.157 45.7144 44.3636 45.6805 44.5655 45.6269C44.7669 45.5716 44.9623 45.4965 45.1488 45.4027C45.2195 45.3668 45.2772 45.3352 45.3153 45.3135C45.3349 45.2986 45.3561 45.2858 45.3784 45.2754Z" fill="white"/>
<path d="M39.9649 47.252H48V45.6317H39.9649V47.252Z" fill="#0F913D"/>
<path d="M47.4821 45.6582C47.4636 45.6582 47.4473 46.0108 47.4473 46.4439C47.4473 46.877 47.4636 47.2295 47.4821 47.2295C47.5006 47.2295 47.5169 46.878 47.5169 46.4439C47.5169 46.0097 47.5017 45.6582 47.4821 45.6582Z" fill="#263238"/>
<path d="M46.737 45.6582C46.7174 45.6582 46.7021 46.0108 46.7021 46.4439C46.7021 46.877 46.7174 47.2295 46.737 47.2295C46.7566 47.2295 46.7718 46.878 46.7718 46.4439C46.7718 46.0097 46.7555 45.6582 46.737 45.6582Z" fill="#263238"/>
<path d="M46.0016 45.6582C45.982 45.6582 45.9668 46.0108 45.9668 46.4439C45.9668 46.877 45.982 47.2295 46.0016 47.2295C46.0212 47.2295 46.0364 46.878 46.0364 46.4439C46.0364 46.0097 46.0212 45.6582 46.0016 45.6582Z" fill="#263238"/>
<path d="M45.2692 45.6582C45.2496 45.6582 45.2344 46.0108 45.2344 46.4439C45.2344 46.877 45.2496 47.2295 45.2692 47.2295C45.2888 47.2295 45.304 46.878 45.304 46.4439C45.304 46.0097 45.2899 45.6582 45.2692 45.6582Z" fill="#263238"/>
<path d="M44.5368 45.6582C44.5172 45.6582 44.502 46.0108 44.502 46.4439C44.502 46.877 44.5172 47.2295 44.5368 47.2295C44.5564 47.2295 44.5716 46.878 44.5716 46.4439C44.5716 46.0097 44.5564 45.6582 44.5368 45.6582Z" fill="#263238"/>
<path d="M43.8044 45.6582C43.7848 45.6582 43.7695 46.0108 43.7695 46.4439C43.7695 46.877 43.7848 47.2295 43.8044 47.2295C43.8239 47.2295 43.8392 46.878 43.8392 46.4439C43.8392 46.0097 43.8239 45.6582 43.8044 45.6582Z" fill="#263238"/>
<path d="M43.071 45.6582C43.0514 45.6582 43.0361 46.0108 43.0361 46.4439C43.0361 46.877 43.0514 47.2295 43.071 47.2295C43.0905 47.2295 43.1058 46.878 43.1058 46.4439C43.1058 46.0097 43.0905 45.6582 43.071 45.6582Z" fill="#263238"/>
<path d="M42.3415 45.6582C42.3219 45.6582 42.3066 46.0108 42.3066 46.4439C42.3066 46.877 42.3219 47.2295 42.3415 47.2295C42.3611 47.2295 42.3763 46.878 42.3763 46.4439C42.3763 46.0097 42.3611 45.6582 42.3415 45.6582Z" fill="#263238"/>
<path d="M41.6081 45.6582C41.5885 45.6582 41.5732 46.0108 41.5732 46.4439C41.5732 46.877 41.5885 47.2295 41.6081 47.2295C41.6277 47.2295 41.6429 46.878 41.6429 46.4439C41.6429 46.0097 41.6277 45.6582 41.6081 45.6582Z" fill="#263238"/>
<path d="M40.8756 45.6582C40.8561 45.6582 40.8408 46.0108 40.8408 46.4439C40.8408 46.877 40.8561 47.2295 40.8756 47.2295C40.8952 47.2295 40.9105 46.878 40.9105 46.4439C40.9105 46.0097 40.8952 45.6582 40.8756 45.6582Z" fill="#263238"/>
<path d="M40.1432 45.6582C40.1236 45.6582 40.1084 46.0108 40.1084 46.4439C40.1084 46.877 40.1236 47.2295 40.1432 47.2295C40.1628 47.2295 40.178 46.878 40.178 46.4439C40.178 46.0097 40.1617 45.6582 40.1432 45.6582Z" fill="#263238"/>
<g opacity="0.3">
<path d="M47.8719 45.6328C45.291 45.9783 42.6756 45.9783 40.0947 45.6328H47.8719Z" fill="black"/>
</g>
<path d="M39.957 45.6364C39.957 45.656 41.7525 45.6712 43.967 45.6712C46.1814 45.6712 47.978 45.656 47.978 45.6364C47.978 45.6168 46.1825 45.6016 43.967 45.6016C41.7514 45.6016 39.957 45.6168 39.957 45.6364Z" fill="#263238"/>
<path d="M39.7842 48.8457H47.8193V47.2254H39.7842V48.8457Z" fill="#0F913D"/>
<path d="M47.3014 47.252C47.2818 47.252 47.2666 47.6034 47.2666 48.0365C47.2666 48.4696 47.2818 48.8222 47.3014 48.8222C47.321 48.8222 47.3362 48.4707 47.3362 48.0365C47.3362 47.6023 47.3199 47.252 47.3014 47.252Z" fill="#263238"/>
<path d="M46.5563 47.252C46.5367 47.252 46.5215 47.6034 46.5215 48.0365C46.5215 48.4696 46.5367 48.8222 46.5563 48.8222C46.5759 48.8222 46.5911 48.4707 46.5911 48.0365C46.5911 47.6023 46.5759 47.252 46.5563 47.252Z" fill="#263238"/>
<path d="M45.821 47.252C45.8025 47.252 45.7861 47.6034 45.7861 48.0365C45.7861 48.4696 45.8025 48.8222 45.821 48.8222C45.8395 48.8222 45.8558 48.4707 45.8558 48.0365C45.8558 47.6023 45.8405 47.252 45.821 47.252Z" fill="#263238"/>
<path d="M45.0885 47.252C45.0689 47.252 45.0537 47.6034 45.0537 48.0365C45.0537 48.4696 45.0689 48.8222 45.0885 48.8222C45.1081 48.8222 45.1234 48.4707 45.1234 48.0365C45.1234 47.6023 45.1081 47.252 45.0885 47.252Z" fill="#263238"/>
<path d="M44.3561 47.252C44.3365 47.252 44.3213 47.6034 44.3213 48.0365C44.3213 48.4696 44.3365 48.8222 44.3561 48.8222C44.3757 48.8222 44.3909 48.4707 44.3909 48.0365C44.3909 47.6023 44.3757 47.252 44.3561 47.252Z" fill="#263238"/>
<path d="M43.6237 47.252C43.6041 47.252 43.5889 47.6034 43.5889 48.0365C43.5889 48.4696 43.6041 48.8222 43.6237 48.8222C43.6433 48.8222 43.6585 48.4707 43.6585 48.0365C43.6585 47.6023 43.6433 47.252 43.6237 47.252Z" fill="#263238"/>
<path d="M42.8952 47.252C42.8756 47.252 42.8604 47.6034 42.8604 48.0365C42.8604 48.4696 42.8756 48.8222 42.8952 48.8222C42.9148 48.8222 42.93 48.4707 42.93 48.0365C42.93 47.6023 42.9104 47.252 42.8952 47.252Z" fill="#263238"/>
<path d="M42.1608 47.252C42.1412 47.252 42.126 47.6034 42.126 48.0365C42.126 48.4696 42.1412 48.8222 42.1608 48.8222C42.1804 48.8222 42.1956 48.4707 42.1956 48.0365C42.1956 47.6023 42.1804 47.252 42.1608 47.252Z" fill="#263238"/>
<path d="M41.4274 47.252C41.4078 47.252 41.3926 47.6034 41.3926 48.0365C41.3926 48.4696 41.4078 48.8222 41.4274 48.8222C41.447 48.8222 41.4622 48.4707 41.4622 48.0365C41.4622 47.6023 41.447 47.252 41.4274 47.252Z" fill="#263238"/>
<path d="M40.695 47.252C40.6754 47.252 40.6602 47.6034 40.6602 48.0365C40.6602 48.4696 40.6754 48.8222 40.695 48.8222C40.7146 48.8222 40.7298 48.4707 40.7298 48.0365C40.7298 47.6023 40.72 47.252 40.695 47.252Z" fill="#263238"/>
<path d="M39.9577 47.252C39.9381 47.252 39.9229 47.6034 39.9229 48.0365C39.9229 48.4696 39.9381 48.8222 39.9577 48.8222C39.9773 48.8222 39.9925 48.4707 39.9925 48.0365C39.9925 47.6023 39.9816 47.252 39.9577 47.252Z" fill="#263238"/>
<g opacity="0.3">
<path d="M47.6914 47.2266C45.1101 47.5721 42.4943 47.5721 39.9131 47.2266H47.6914Z" fill="black"/>
</g>
<path d="M39.7822 47.2301C39.7822 47.2497 41.5777 47.265 43.7932 47.265C46.0088 47.265 47.8032 47.2497 47.8032 47.2301C47.8032 47.2105 46.0088 47.1953 43.7932 47.1953C41.5777 47.1953 39.7822 47.2171 39.7822 47.2301Z" fill="#263238"/>
<path d="M40.5469 50.4121H48.582V48.7918H40.5469V50.4121Z" fill="#0F913D"/>
<path d="M48.0651 48.8203C48.0455 48.8203 48.0303 49.1729 48.0303 49.606C48.0303 50.0391 48.0455 50.3916 48.0651 50.3916C48.0847 50.3916 48.0999 50.0402 48.0999 49.606C48.0999 49.1718 48.0836 48.8203 48.0651 48.8203Z" fill="#263238"/>
<path d="M47.319 48.8203C47.2994 48.8203 47.2842 49.1729 47.2842 49.606C47.2842 50.0391 47.2994 50.3916 47.319 50.3916C47.3386 50.3916 47.3538 50.0402 47.3538 49.606C47.3538 49.1718 47.3386 48.8203 47.319 48.8203Z" fill="#263238"/>
<path d="M46.5846 48.8203C46.5661 48.8203 46.5498 49.1729 46.5498 49.606C46.5498 50.0391 46.5661 50.3916 46.5846 50.3916C46.6031 50.3916 46.6194 50.0402 46.6194 49.606C46.6194 49.1718 46.6042 48.8203 46.5846 48.8203Z" fill="#263238"/>
<path d="M45.8512 48.8203C45.8327 48.8203 45.8164 49.1729 45.8164 49.606C45.8164 50.0391 45.8327 50.3916 45.8512 50.3916C45.8697 50.3916 45.8861 50.0402 45.8861 49.606C45.8861 49.1718 45.8708 48.8203 45.8512 48.8203Z" fill="#263238"/>
<path d="M45.1188 48.8203C45.1003 48.8203 45.084 49.1729 45.084 49.606C45.084 50.0391 45.1003 50.3916 45.1188 50.3916C45.1373 50.3916 45.1536 50.0402 45.1536 49.606C45.1536 49.1718 45.1384 48.8203 45.1188 48.8203Z" fill="#263238"/>
<path d="M44.3864 48.8203C44.3679 48.8203 44.3516 49.1729 44.3516 49.606C44.3516 50.0391 44.3679 50.3916 44.3864 50.3916C44.4049 50.3916 44.4212 50.0402 44.4212 49.606C44.4212 49.1718 44.406 48.8203 44.3864 48.8203Z" fill="#263238"/>
<path d="M43.6588 48.8203C43.6393 48.8203 43.624 49.1729 43.624 49.606C43.624 50.0391 43.6393 50.3916 43.6588 50.3916C43.6784 50.3916 43.6937 50.0402 43.6937 49.606C43.6937 49.1718 43.6752 48.8203 43.6588 48.8203Z" fill="#263238"/>
<path d="M42.9235 48.8203C42.9039 48.8203 42.8887 49.1729 42.8887 49.606C42.8887 50.0391 42.9039 50.3916 42.9235 50.3916C42.9431 50.3916 42.9583 50.0402 42.9583 49.606C42.9583 49.1718 42.9431 48.8203 42.9235 48.8203Z" fill="#263238"/>
<path d="M42.1901 48.8203C42.1705 48.8203 42.1553 49.1729 42.1553 49.606C42.1553 50.0391 42.1705 50.3916 42.1901 50.3916C42.2097 50.3916 42.2249 50.0402 42.2249 49.606C42.2249 49.1718 42.2097 48.8203 42.1901 48.8203Z" fill="#263238"/>
<path d="M41.4577 48.8203C41.4381 48.8203 41.4229 49.1729 41.4229 49.606C41.4229 50.0391 41.4381 50.3916 41.4577 50.3916C41.4773 50.3916 41.4925 50.0402 41.4925 49.606C41.4925 49.1718 41.4816 48.8203 41.4577 48.8203Z" fill="#263238"/>
<path d="M40.7252 48.8203C40.7057 48.8203 40.6904 49.1729 40.6904 49.606C40.6904 50.0391 40.7057 50.3916 40.7252 50.3916C40.7448 50.3916 40.7601 50.0402 40.7601 49.606C40.7601 49.1718 40.7448 48.8203 40.7252 48.8203Z" fill="#263238"/>
<g opacity="0.3">
<path d="M48.455 48.7949C45.8738 49.1404 43.258 49.1404 40.6768 48.7949H48.455Z" fill="black"/>
</g>
<path d="M40.5449 48.7985C40.5449 48.8181 42.3404 48.8333 44.5559 48.8333C46.7715 48.8333 48.5659 48.8181 48.5659 48.7985C48.5659 48.7789 46.7715 48.7637 44.5559 48.7637C42.3404 48.7637 40.5449 48.78 40.5449 48.7985Z" fill="#263238"/>
<path d="M39.6055 51.959H47.6406V50.4007H39.6055V51.959Z" fill="#0F913D"/>
<path d="M47.1237 50.4277C47.1041 50.4277 47.0889 50.7651 47.0889 51.1829C47.0889 51.6008 47.1041 51.9381 47.1237 51.9381C47.1433 51.9381 47.1585 51.5997 47.1585 51.1829C47.1585 50.7662 47.1389 50.4277 47.1237 50.4277Z" fill="#263238"/>
<path d="M46.3786 50.4277C46.359 50.4277 46.3438 50.7651 46.3438 51.1829C46.3438 51.6008 46.359 51.9381 46.3786 51.9381C46.3982 51.9381 46.4134 51.5997 46.4134 51.1829C46.4134 50.7662 46.3992 50.4277 46.3786 50.4277Z" fill="#263238"/>
<path d="M45.6432 50.4277C45.6247 50.4277 45.6084 50.7651 45.6084 51.1829C45.6084 51.6008 45.6247 51.9381 45.6432 51.9381C45.6617 51.9381 45.678 51.5997 45.678 51.1829C45.678 50.7662 45.6628 50.4277 45.6432 50.4277Z" fill="#263238"/>
<path d="M44.9108 50.4277C44.8923 50.4277 44.876 50.7651 44.876 51.1829C44.876 51.6008 44.8923 51.9381 44.9108 51.9381C44.9293 51.9381 44.9456 51.5997 44.9456 51.1829C44.9456 50.7662 44.9304 50.4277 44.9108 50.4277Z" fill="#263238"/>
<path d="M44.1774 50.4277C44.1589 50.4277 44.1426 50.7651 44.1426 51.1829C44.1426 51.6008 44.1589 51.9381 44.1774 51.9381C44.1959 51.9381 44.2122 51.5997 44.2122 51.1829C44.2122 50.7662 44.2013 50.4277 44.1774 50.4277Z" fill="#263238"/>
<path d="M43.445 50.4277C43.4254 50.4277 43.4102 50.7651 43.4102 51.1829C43.4102 51.6008 43.4254 51.9381 43.445 51.9381C43.4646 51.9381 43.4798 51.5997 43.4798 51.1829C43.4798 50.7662 43.4646 50.4277 43.445 50.4277Z" fill="#263238"/>
<path d="M42.7126 50.4277C42.693 50.4277 42.6777 50.7651 42.6777 51.1829C42.6777 51.6008 42.693 51.9381 42.7126 51.9381C42.7321 51.9381 42.7474 51.5997 42.7474 51.1829C42.7474 50.7662 42.7321 50.4277 42.7126 50.4277Z" fill="#263238"/>
<path d="M41.9801 50.4277C41.9605 50.4277 41.9453 50.7651 41.9453 51.1829C41.9453 51.6008 41.9605 51.9381 41.9801 51.9381C41.9997 51.9381 42.015 51.5997 42.015 51.1829C42.015 50.7662 41.9997 50.4277 41.9801 50.4277Z" fill="#263238"/>
<path d="M41.2497 50.4277C41.2301 50.4277 41.2148 50.7651 41.2148 51.1829C41.2148 51.6008 41.2301 51.9381 41.2497 51.9381C41.2693 51.9381 41.2845 51.5997 41.2845 51.1829C41.2845 50.7662 41.2649 50.4277 41.2497 50.4277Z" fill="#263238"/>
<path d="M40.5172 50.4277C40.4977 50.4277 40.4824 50.7651 40.4824 51.1829C40.4824 51.6008 40.4977 51.9381 40.5172 51.9381C40.5368 51.9381 40.5521 51.5997 40.5521 51.1829C40.5521 50.7662 40.5368 50.4277 40.5172 50.4277Z" fill="#263238"/>
<path d="M39.7838 50.4277C39.7643 50.4277 39.749 50.7651 39.749 51.1829C39.749 51.6008 39.7643 51.9381 39.7838 51.9381C39.8034 51.9381 39.8187 51.5997 39.8187 51.1829C39.8187 50.7662 39.8034 50.4277 39.7838 50.4277Z" fill="#263238"/>
<g opacity="0.3">
<path d="M47.5107 50.4023C44.9368 50.8441 42.3064 50.8441 39.7324 50.4023H47.5107Z" fill="black"/>
</g>
<path d="M39.6035 50.4068C39.6035 50.4264 41.399 50.4416 43.6145 50.4416C45.8301 50.4416 47.6245 50.4264 47.6245 50.4068C47.6245 50.3872 45.8344 50.373 43.6145 50.373C41.3947 50.373 39.6035 50.3872 39.6035 50.4068Z" fill="#263238"/>
<path d="M40.1231 53.5195H48.1582V51.9613H40.1231V53.5195Z" fill="#0F913D"/>
<path d="M47.6403 51.9863C47.6218 51.9863 47.6055 52.3248 47.6055 52.7426C47.6055 53.1605 47.6218 53.4978 47.6403 53.4978C47.6588 53.4978 47.6762 53.1594 47.6762 52.7426C47.6762 52.3258 47.6599 51.9863 47.6403 51.9863Z" fill="#263238"/>
<path d="M46.8952 51.9863C46.8756 51.9863 46.8604 52.3248 46.8604 52.7426C46.8604 53.1605 46.8756 53.4978 46.8952 53.4978C46.9148 53.4978 46.93 53.1594 46.93 52.7426C46.93 52.3258 46.9137 51.9863 46.8952 51.9863Z" fill="#263238"/>
<path d="M46.1598 51.9863C46.1402 51.9863 46.125 52.3248 46.125 52.7426C46.125 53.1605 46.1402 53.4978 46.1598 53.4978C46.1794 53.4978 46.1946 53.1594 46.1946 52.7426C46.1946 52.3258 46.1783 51.9863 46.1598 51.9863Z" fill="#263238"/>
<path d="M45.4274 51.9863C45.4078 51.9863 45.3926 52.3248 45.3926 52.7426C45.3926 53.1605 45.4078 53.4978 45.4274 53.4978C45.447 53.4978 45.4622 53.1594 45.4622 52.7426C45.4622 52.3258 45.447 51.9863 45.4274 51.9863Z" fill="#263238"/>
<path d="M44.695 51.9863C44.6754 51.9863 44.6602 52.3248 44.6602 52.7426C44.6602 53.1605 44.6754 53.4978 44.695 53.4978C44.7146 53.4978 44.7298 53.1594 44.7298 52.7426C44.7298 52.3258 44.7146 51.9863 44.695 51.9863Z" fill="#263238"/>
<path d="M43.9616 51.9863C43.942 51.9863 43.9268 52.3248 43.9268 52.7426C43.9268 53.1605 43.942 53.4978 43.9616 53.4978C43.9812 53.4978 43.9964 53.1594 43.9964 52.7426C43.9964 52.3258 43.9833 51.9863 43.9616 51.9863Z" fill="#263238"/>
<path d="M43.2292 51.9863C43.2096 51.9863 43.1943 52.3248 43.1943 52.7426C43.1943 53.1605 43.2096 53.4978 43.2292 53.4978C43.2487 53.4978 43.264 53.1594 43.264 52.7426C43.264 52.3258 43.2487 51.9863 43.2292 51.9863Z" fill="#263238"/>
<path d="M42.4967 51.9863C42.4771 51.9863 42.4619 52.3248 42.4619 52.7426C42.4619 53.1605 42.4771 53.4978 42.4967 53.4978C42.5163 53.4978 42.5316 53.1594 42.5316 52.7426C42.5316 52.3258 42.5163 51.9863 42.4967 51.9863Z" fill="#263238"/>
<path d="M41.7663 51.9863C41.7467 51.9863 41.7314 52.3248 41.7314 52.7426C41.7314 53.1605 41.7467 53.4978 41.7663 53.4978C41.7859 53.4978 41.8011 53.1594 41.8011 52.7426C41.8011 52.3258 41.7859 51.9863 41.7663 51.9863Z" fill="#263238"/>
<path d="M41.0338 51.9863C41.0143 51.9863 40.999 52.3248 40.999 52.7426C40.999 53.1605 41.0143 53.4978 41.0338 53.4978C41.0534 53.4978 41.0687 53.1594 41.0687 52.7426C41.0687 52.3258 41.0534 51.9863 41.0338 51.9863Z" fill="#263238"/>
<path d="M40.3014 51.9863C40.2818 51.9863 40.2666 52.3248 40.2666 52.7426C40.2666 53.1605 40.2818 53.4978 40.3014 53.4978C40.321 53.4978 40.3362 53.1594 40.3362 52.7426C40.3362 52.3258 40.3199 51.9863 40.3014 51.9863Z" fill="#263238"/>
<g opacity="0.3">
<path d="M48.0282 51.9629C45.4599 52.4629 42.8193 52.4629 40.251 51.9629H48.0282Z" fill="black"/>
</g>
<path d="M40.1211 51.9665C40.1211 51.9861 41.9166 52.0013 44.131 52.0013C46.3455 52.0013 48.142 51.9861 48.142 51.9665C48.142 51.9469 46.3466 51.9316 44.131 51.9316C41.9155 51.9316 40.1211 51.9469 40.1211 51.9665Z" fill="#263238"/>
<path d="M39.6631 55.0566H47.6982V53.4984H39.6631V55.0566Z" fill="#0F913D"/>
<path d="M47.1813 53.5273C47.1617 53.5273 47.1465 53.8658 47.1465 54.2825C47.1465 54.6993 47.1617 55.0443 47.1813 55.0443C47.2009 55.0443 47.2161 54.7058 47.2161 54.2825C47.2161 53.8592 47.1998 53.5273 47.1813 53.5273Z" fill="#263238"/>
<path d="M46.4362 53.5273C46.4166 53.5273 46.4014 53.8658 46.4014 54.2825C46.4014 54.6993 46.4166 55.0443 46.4362 55.0443C46.4558 55.0443 46.471 54.7058 46.471 54.2825C46.471 53.8592 46.4558 53.5273 46.4362 53.5273Z" fill="#263238"/>
<path d="M45.7008 53.5273C45.6823 53.5273 45.666 53.8658 45.666 54.2825C45.666 54.6993 45.6823 55.0443 45.7008 55.0443C45.7193 55.0443 45.7357 54.7058 45.7357 54.2825C45.7357 53.8592 45.7259 53.5273 45.7008 53.5273Z" fill="#263238"/>
<path d="M44.9635 53.5273C44.9439 53.5273 44.9287 53.8658 44.9287 54.2825C44.9287 54.6993 44.9439 55.0443 44.9635 55.0443C44.9831 55.0443 44.9984 54.7058 44.9984 54.2825C44.9984 53.8592 44.9875 53.5273 44.9635 53.5273Z" fill="#263238"/>
<path d="M44.235 53.5273C44.2154 53.5273 44.2002 53.8658 44.2002 54.2825C44.2002 54.6993 44.2154 55.0443 44.235 55.0443C44.2546 55.0443 44.2698 54.7058 44.2698 54.2825C44.2698 53.8592 44.2546 53.5273 44.235 53.5273Z" fill="#263238"/>
<path d="M43.5026 53.5273C43.483 53.5273 43.4678 53.8658 43.4678 54.2825C43.4678 54.6993 43.483 55.0443 43.5026 55.0443C43.5222 55.0443 43.5374 54.7058 43.5374 54.2825C43.5374 53.8592 43.5222 53.5273 43.5026 53.5273Z" fill="#263238"/>
<path d="M42.7702 53.5273C42.7506 53.5273 42.7354 53.8658 42.7354 54.2825C42.7354 54.6993 42.7506 55.0443 42.7702 55.0443C42.7898 55.0443 42.805 54.7058 42.805 54.2825C42.805 53.8592 42.7865 53.5273 42.7702 53.5273Z" fill="#263238"/>
<path d="M42.0378 53.5273C42.0182 53.5273 42.0029 53.8658 42.0029 54.2825C42.0029 54.6993 42.0182 55.0443 42.0378 55.0443C42.0573 55.0443 42.0726 54.7058 42.0726 54.2825C42.0726 53.8592 42.0573 53.5273 42.0378 53.5273Z" fill="#263238"/>
<path d="M41.3073 53.5273C41.2877 53.5273 41.2725 53.8658 41.2725 54.2825C41.2725 54.6993 41.2877 55.0443 41.3073 55.0443C41.3269 55.0443 41.3421 54.7058 41.3421 54.2825C41.3421 53.8592 41.3269 53.5273 41.3073 53.5273Z" fill="#263238"/>
<path d="M40.5749 53.5273C40.5553 53.5273 40.54 53.8658 40.54 54.2825C40.54 54.6993 40.5553 55.0443 40.5749 55.0443C40.5944 55.0443 40.6097 54.7058 40.6097 54.2825C40.6097 53.8592 40.5944 53.5273 40.5749 53.5273Z" fill="#263238"/>
<path d="M39.8415 53.5273C39.8219 53.5273 39.8066 53.8658 39.8066 54.2825C39.8066 54.6993 39.8219 55.0443 39.8415 55.0443C39.8611 55.0443 39.8763 54.7058 39.8763 54.2825C39.8763 53.8592 39.8611 53.5273 39.8415 53.5273Z" fill="#263238"/>
<g opacity="0.3">
<path d="M47.5742 53.5C45.0002 53.9418 42.3698 53.9418 39.7959 53.5H47.5742Z" fill="black"/>
</g>
<path d="M39.6611 53.5036C39.6611 53.5221 41.4566 53.5384 43.6722 53.5384C45.8877 53.5384 47.6821 53.5221 47.6821 53.5036C47.6821 53.4851 45.8866 53.4688 43.6722 53.4688C41.4577 53.4688 39.6611 53.484 39.6611 53.5036Z" fill="#263238"/>
<path d="M47.6974 55.051C47.6974 55.051 47.6974 55.0423 47.6974 55.0249C47.6974 55.0075 47.6974 54.9781 47.6974 54.9465C47.6974 54.8736 47.6974 54.7724 47.6974 54.6429C47.6974 54.3752 47.692 53.99 47.6887 53.5145V53.4971H47.7061H48.149L48.1305 53.5167C48.1305 53.0607 48.1305 52.5373 48.1305 51.9573L48.1544 51.9812H47.6104V51.9562C47.6104 51.4741 47.6104 50.9518 47.6104 50.4099V50.3838H48.5777L48.5516 50.4099C48.5516 49.8332 48.5516 49.2793 48.5516 48.7591L48.5756 48.7842H47.7899V48.7602C47.7899 48.1966 47.7899 47.6873 47.7899 47.2498V47.2303H48.0075L47.9901 47.2488C47.9901 46.746 47.9901 46.3434 47.9901 46.0626C47.9901 45.9266 47.9901 45.82 47.9901 45.7438C47.9901 45.709 47.9901 45.6829 47.9901 45.6611C47.9892 45.6517 47.9892 45.6422 47.9901 45.6328C47.9915 45.6422 47.9915 45.6517 47.9901 45.6611C47.9901 45.6818 47.9901 45.709 47.9901 45.7438C47.9901 45.82 47.9901 45.9255 47.9977 46.0616C47.9977 46.3434 48.0097 46.746 48.0184 47.2477V47.2662H47.8008L47.8193 47.2477C47.8193 47.6829 47.8193 48.1944 47.8247 48.7581L47.8008 48.7352H48.5625H48.5875V48.7602C48.5875 49.2804 48.5875 49.8343 48.5875 50.411V50.4371H47.6191L47.6463 50.411C47.6463 50.9551 47.6463 51.4752 47.6463 51.9573L47.6212 51.9323H48.1653V51.9562C48.1653 52.5329 48.1653 53.0596 48.1653 53.5156V53.5352H47.7028L47.7203 53.5177C47.7203 53.9955 47.7148 54.3785 47.7126 54.6462C47.7126 54.7757 47.7126 54.8769 47.7126 54.9498C47.7126 54.9813 47.7126 55.0075 47.7126 55.0281C47.7089 55.0366 47.7037 55.0443 47.6974 55.051Z" fill="#263238"/>
<path d="M50.642 32.163C50.6648 32.8164 50.4934 33.4619 50.1494 34.0179C49.8054 34.5739 49.3042 35.0154 48.7093 35.2866C48.1144 35.5578 47.4524 35.6465 46.8071 35.5415C46.1618 35.4364 45.5621 35.1424 45.0839 34.6966C44.6056 34.2508 44.2703 33.6732 44.1204 33.0368C43.9704 32.4004 44.0125 31.7339 44.2413 31.1214C44.4702 30.509 44.8755 29.9781 45.406 29.596C45.9365 29.2139 46.5684 28.9977 47.2218 28.9747C48.0981 28.9441 48.9507 29.2628 49.592 29.8607C50.2334 30.4586 50.6111 31.2867 50.642 32.163Z" fill="#0F913D"/>
<g opacity="0.1">
<path d="M47.2215 28.9746C46.3454 29.0055 45.5173 29.3832 44.9196 30.0246C44.3219 30.666 44.0034 31.5186 44.0343 32.3947C44.0343 32.3947 46.3586 32.4176 46.8842 31.4622C47.4098 30.5068 47.2215 28.9746 47.2215 28.9746Z" fill="white"/>
</g>
<path d="M49.7942 32.1398C49.8115 32.6364 49.6812 33.127 49.4198 33.5495C49.1583 33.9721 48.7774 34.3076 48.3253 34.5137C47.8731 34.7198 47.37 34.7872 46.8795 34.7074C46.3891 34.6276 45.9333 34.4042 45.5698 34.0653C45.2064 33.7265 44.9515 33.2875 44.8375 32.8039C44.7235 32.3202 44.7555 31.8136 44.9294 31.3481C45.1033 30.8827 45.4113 30.4792 45.8145 30.1887C46.2177 29.8983 46.6979 29.7339 47.1945 29.7164C47.5244 29.7048 47.8532 29.7582 48.1624 29.8737C48.4716 29.9892 48.755 30.1645 48.9964 30.3895C49.2378 30.6146 49.4325 30.885 49.5694 31.1853C49.7063 31.4856 49.7827 31.8099 49.7942 32.1398Z" fill="#0F913D"/>
<g opacity="0.2">
<path d="M49.7932 32.1398C49.8105 32.6364 49.6802 33.127 49.4188 33.5495C49.1573 33.9721 48.7764 34.3076 48.3243 34.5137C47.8721 34.7198 47.369 34.7872 46.8786 34.7074C46.3881 34.6276 45.9323 34.4042 45.5689 34.0653C45.2054 33.7265 44.9505 33.2875 44.8365 32.8039C44.7225 32.3202 44.7545 31.8136 44.9284 31.3481C45.1023 30.8827 45.4103 30.4792 45.8135 30.1887C46.2167 29.8983 46.697 29.7339 47.1936 29.7164C47.5234 29.7048 47.8523 29.7582 48.1614 29.8737C48.4706 29.9892 48.754 30.1645 48.9954 30.3895C49.2368 30.6146 49.4315 30.885 49.5684 31.1853C49.7053 31.4856 49.7817 31.8099 49.7932 32.1398Z" fill="black"/>
</g>
<path d="M49.8694 32.2431C49.8859 32.733 49.7568 33.2168 49.4984 33.6333C49.24 34.0498 48.8639 34.3804 48.4177 34.5832C47.9715 34.786 47.4752 34.852 46.9915 34.7728C46.5078 34.6936 46.0584 34.4728 45.7001 34.1383C45.3419 33.8038 45.0909 33.3706 44.9788 32.8934C44.8667 32.4162 44.8986 31.9166 45.0704 31.4575C45.2422 30.9985 45.5463 30.6007 45.9442 30.3144C46.342 30.0281 46.8158 29.8662 47.3057 29.8492C47.6312 29.8378 47.9559 29.8908 48.261 30.005C48.5661 30.1192 48.8457 30.2924 49.0838 30.5147C49.3219 30.7371 49.5138 31.0042 49.6486 31.3007C49.7834 31.5973 49.8585 31.9176 49.8694 32.2431Z" fill="#0F913D"/>
<g opacity="0.2">
<path d="M49.8714 32.2431C49.8879 32.733 49.7587 33.2168 49.5004 33.6333C49.242 34.0498 48.8659 34.3804 48.4197 34.5832C47.9735 34.786 47.4771 34.852 46.9934 34.7728C46.5097 34.6936 46.0603 34.4728 45.7021 34.1383C45.3438 33.8038 45.0928 33.3706 44.9807 32.8934C44.8686 32.4162 44.9005 31.9166 45.0724 31.4575C45.2442 30.9985 45.5483 30.6007 45.9461 30.3144C46.344 30.0281 46.8178 29.8662 47.3076 29.8492C47.6332 29.8378 47.9578 29.8908 48.2629 30.005C48.568 30.1192 48.8476 30.2924 49.0857 30.5147C49.3238 30.7371 49.5158 31.0042 49.6506 31.3007C49.7854 31.5973 49.8604 31.9176 49.8714 32.2431Z" fill="white"/>
</g>
<path d="M47.4813 32.111L47.4595 31.4777C47.5757 31.4873 47.6899 31.513 47.799 31.5539C47.8555 31.58 47.9094 31.6113 47.9601 31.6474L47.9677 31.6279L48.058 31.3961L48.0787 31.3427L47.9612 31.2274L47.9079 31.2546C47.7632 31.1838 47.6053 31.1442 47.4443 31.1382L47.4323 30.7889L47.3235 30.7051V30.7932H47.1744L47.1864 31.1491C46.6989 31.2133 46.4758 31.5005 46.4867 31.8205C46.5019 32.2557 46.8806 32.3569 47.2321 32.4298L47.2539 33.0577C47.0252 33.0475 46.8043 32.972 46.6173 32.8401L46.4867 33.1665C46.7181 33.321 46.9909 33.4015 47.2691 33.3972L47.2778 33.6606L47.1559 33.6671L47.2811 33.7465L47.539 33.7367L47.5259 33.3853C48.0178 33.3178 48.243 33.0327 48.2321 32.7128C48.2169 32.2808 47.8328 32.1839 47.4813 32.111ZM47.2212 32.0544C47.0373 32.0076 46.9002 31.9456 46.8948 31.7922C46.8893 31.6387 46.9807 31.5375 47.2016 31.4951L47.2212 32.0544ZM47.5139 33.0468L47.4944 32.4919C47.6848 32.5387 47.8263 32.6007 47.8317 32.7596C47.836 32.8945 47.7425 33.0044 47.5139 33.0468Z" fill="#0F913D"/>
<g opacity="0.3">
<path d="M47.4823 32.111L47.4605 31.4777C47.5766 31.4873 47.6909 31.513 47.8 31.5539C47.8565 31.58 47.9104 31.6113 47.9611 31.6474L47.9687 31.6279L48.059 31.3961L48.0797 31.3427L47.9622 31.2274L47.9088 31.2546C47.7642 31.1838 47.6062 31.1442 47.4453 31.1382L47.4333 30.7889L47.3245 30.7051V30.7932H47.1754L47.1874 31.1491C46.6999 31.2133 46.4768 31.5005 46.4877 31.8205C46.5029 32.2557 46.8816 32.3569 47.2331 32.4298L47.2548 33.0577C47.0262 33.0475 46.8053 32.972 46.6183 32.8401L46.4877 33.1665C46.719 33.321 46.9919 33.4015 47.2701 33.3972L47.2788 33.6606L47.1569 33.6671L47.2821 33.7465L47.5399 33.7367L47.5269 33.3853C48.0187 33.3178 48.244 33.0327 48.2331 32.7128C48.2179 32.2808 47.8338 32.1839 47.4823 32.111ZM47.2222 32.0544C47.0383 32.0076 46.9012 31.9456 46.8958 31.7922C46.8903 31.6387 46.9817 31.5375 47.2026 31.4951L47.2222 32.0544ZM47.5149 33.0468L47.4953 32.4919C47.6858 32.5387 47.8272 32.6007 47.8327 32.7596C47.837 32.8945 47.7434 33.0044 47.5149 33.0468Z" fill="black"/>
</g>
<path d="M47.4179 33.3071L47.4299 33.6597L47.172 33.6684L47.16 33.3202C46.8828 33.3216 46.6114 33.2401 46.3809 33.0862L46.5114 32.7598C46.699 32.8906 46.9196 32.966 47.148 32.9774L47.1263 32.3484C46.7748 32.2766 46.3972 32.1765 46.3819 31.7402C46.37 31.4137 46.5931 31.1319 47.0816 31.0677L47.0686 30.7118L47.3265 30.7031L47.3385 31.0524C47.5639 31.054 47.7854 31.112 47.9827 31.2211L47.8651 31.5475C47.706 31.4617 47.5307 31.4098 47.3504 31.3952L47.3733 32.0296C47.7248 32.1025 48.1089 32.1994 48.1241 32.6357C48.135 32.9557 47.9087 33.2397 47.4179 33.3071ZM47.1132 31.9719L47.0936 31.4126C46.876 31.4551 46.7813 31.5715 46.7857 31.7097C46.79 31.8479 46.9293 31.9251 47.1132 31.9719ZM47.7226 32.6771C47.7171 32.5236 47.5768 32.4594 47.3863 32.4094L47.4059 32.9654C47.6334 32.923 47.7269 32.812 47.7226 32.6771Z" fill="#0F913D"/>
<path d="M47.4339 34.8333H47.4546L47.5133 34.8267L47.6102 34.818C47.6544 34.815 47.6984 34.8088 47.7418 34.7995L47.9051 34.768C47.9365 34.7624 47.9674 34.7544 47.9975 34.744L48.0955 34.7147C48.1323 34.7054 48.1687 34.6941 48.2043 34.6809L48.3131 34.6374C48.3501 34.6211 48.3893 34.608 48.4219 34.5884L48.5384 34.5275C48.7093 34.4347 48.8695 34.3234 49.0161 34.1956L49.1303 34.0868C49.1499 34.0683 49.1695 34.0498 49.188 34.0302L49.2424 33.966C49.2772 33.9236 49.3164 33.8811 49.3512 33.8354C49.3861 33.7897 49.4176 33.7407 49.4514 33.6929L49.4764 33.6559C49.4846 33.6436 49.4923 33.6308 49.4992 33.6178L49.5428 33.5394L49.5874 33.46C49.6022 33.4329 49.6153 33.4049 49.6266 33.3762C49.6505 33.3196 49.6777 33.2674 49.7005 33.2054L49.7593 33.0236C49.91 32.512 49.8909 31.9653 49.7049 31.4654C49.681 31.4051 49.657 31.3464 49.6331 31.2891C49.607 31.2314 49.5754 31.1803 49.5471 31.1226C49.534 31.0948 49.5191 31.0679 49.5025 31.0421C49.4862 31.017 49.4699 30.9909 49.4524 30.9659L49.4035 30.8908L49.3784 30.8538L49.3512 30.8201L49.2424 30.6841C49.2054 30.6405 49.1641 30.6013 49.1249 30.5611L49.0672 30.5012L49.0052 30.4479L48.8833 30.3391C48.728 30.2218 48.5601 30.1222 48.3828 30.042L48.2642 29.9887C48.225 29.9724 48.1847 29.9615 48.1466 29.9484L48.0378 29.9114C48.0019 29.8995 47.9649 29.894 47.929 29.8853L47.8289 29.8636C47.7982 29.8553 47.7669 29.8495 47.7353 29.8462L47.5699 29.8255C47.5262 29.8197 47.4823 29.8168 47.4382 29.8168H47.3403H47.2804H47.2598H47.4382C47.4825 29.8156 47.5269 29.8174 47.571 29.8222L47.7375 29.8407C47.769 29.8442 47.8002 29.8497 47.8311 29.857L47.9323 29.8788C47.966 29.8875 48.003 29.8919 48.0411 29.9038L48.1499 29.9397C48.188 29.9539 48.2282 29.9637 48.2674 29.98L48.3882 30.0322C48.567 30.1123 48.7363 30.2119 48.8931 30.3293L49.0172 30.4381C49.0378 30.4555 49.0596 30.4729 49.0792 30.4914L49.138 30.5513C49.1771 30.5916 49.2196 30.6307 49.2566 30.6743L49.3654 30.8114L49.3937 30.8462L49.4187 30.8832C49.435 30.9082 49.4524 30.9332 49.4688 30.9594L49.5199 31.0355C49.5373 31.0606 49.5493 31.0899 49.5645 31.1171C49.5928 31.1716 49.6244 31.226 49.6516 31.2836C49.6788 31.3413 49.6995 31.4022 49.7245 31.4621C49.8141 31.7139 49.8662 31.9775 49.879 32.2445C49.8855 32.5121 49.8517 32.7791 49.7789 33.0367C49.7593 33.0976 49.7386 33.1586 49.719 33.2184C49.6995 33.2783 49.669 33.3349 49.644 33.3914C49.6325 33.4204 49.6194 33.4488 49.6048 33.4763L49.5602 33.5557L49.5156 33.6352L49.4927 33.6744L49.4666 33.7103L49.3665 33.855C49.3317 33.9007 49.2925 33.9431 49.2577 33.9856L49.2032 34.0498L49.1445 34.1075L49.0281 34.2163C48.8801 34.3448 48.718 34.4562 48.5449 34.5482L48.4285 34.6091C48.3904 34.6276 48.3501 34.6407 48.3131 34.657L48.2043 34.7005C48.1686 34.7133 48.1323 34.7242 48.0955 34.7332L47.9965 34.7625C47.9661 34.7719 47.9352 34.7796 47.904 34.7854L47.7397 34.8148C47.6958 34.8231 47.6515 34.8282 47.6069 34.83L47.51 34.8376H47.4502L47.4339 34.8333Z" fill="#263238"/>
<path d="M44.577 33.9278C44.577 33.9278 44.5705 33.9202 44.5607 33.9028L44.5183 33.8288C44.4998 33.7972 44.478 33.7569 44.4552 33.7091C44.4323 33.6612 44.4051 33.6079 44.3812 33.5458C44.3692 33.5143 44.3561 33.4827 44.342 33.449C44.3278 33.4152 44.3181 33.3793 44.305 33.3402C44.2778 33.2662 44.2571 33.1856 44.2343 33.1008C44.1396 32.73 44.1109 32.3454 44.1494 31.9647C44.1592 31.8777 44.1679 31.7939 44.1842 31.7177C44.1907 31.6785 44.1962 31.6415 44.2049 31.6089C44.2136 31.5762 44.2212 31.5392 44.2299 31.5066C44.243 31.4424 44.2636 31.3847 44.2778 31.3347C44.2919 31.2846 44.3083 31.2411 44.3224 31.2063C44.3366 31.1714 44.3453 31.1475 44.3529 31.1268C44.3559 31.1172 44.3603 31.108 44.3659 31.0996C44.3645 31.1096 44.3619 31.1195 44.3583 31.129C44.3507 31.1497 44.342 31.1769 44.3311 31.2095C44.3202 31.2422 44.305 31.2879 44.2919 31.3379C44.2789 31.388 44.2593 31.4467 44.2462 31.5109C44.239 31.5436 44.2314 31.5773 44.2234 31.6121C44.2158 31.648 44.2114 31.685 44.2038 31.721C44.1896 31.7971 44.182 31.8798 44.1712 31.9669C44.1556 32.1558 44.1538 32.3457 44.1657 32.5349C44.1817 32.7237 44.2119 32.9111 44.256 33.0953C44.2789 33.1791 44.2985 33.2596 44.3246 33.3336C44.3366 33.3706 44.3474 33.4065 44.3605 33.4425L44.3975 33.5393C44.4203 33.6013 44.4465 33.6546 44.4682 33.7025C44.49 33.7504 44.5096 33.7918 44.527 33.8244L44.5651 33.9006C44.5703 33.9091 44.5743 33.9182 44.577 33.9278Z" fill="white"/>
<path d="M46.6057 31.9972C46.5753 31.9805 46.5495 31.9566 46.5306 31.9275C46.4796 31.8598 46.4517 31.7773 46.4512 31.6925C46.452 31.6077 46.4798 31.5254 46.5306 31.4574C46.5496 31.4278 46.5758 31.4035 46.6068 31.3867C46.6068 31.3867 46.5785 31.415 46.5448 31.4672C46.5001 31.5339 46.4763 31.6123 46.4763 31.6925C46.4763 31.7727 46.5001 31.8511 46.5448 31.9177C46.5785 31.9689 46.609 31.9939 46.6057 31.9972Z" fill="white"/>
<path d="M47.1334 31.0158C47.1203 30.9834 47.1147 30.9484 47.1171 30.9135C47.1114 30.8771 47.1143 30.8398 47.1258 30.8047C47.1334 30.8047 47.1399 30.8504 47.1421 30.9081C47.1479 30.9442 47.1449 30.9811 47.1334 31.0158Z" fill="white"/>
<path d="M47.4199 29.6448C47.3928 29.6477 47.3654 29.6477 47.3383 29.6448C47.3133 29.6448 47.2806 29.6448 47.2447 29.6448C47.2088 29.6448 47.1653 29.6448 47.1196 29.6448C47.0739 29.6448 47.0227 29.6448 46.9683 29.6568C46.9139 29.6688 46.8595 29.671 46.7964 29.6797C46.6659 29.7032 46.5372 29.7356 46.4112 29.7765C46.2854 29.8197 46.1629 29.8717 46.0444 29.9321C45.9911 29.9615 45.9356 29.9876 45.8932 30.017C45.8508 30.0464 45.804 30.0725 45.7659 30.0986C45.7278 30.1247 45.6941 30.1498 45.6647 30.1715C45.6353 30.1933 45.6092 30.2129 45.5896 30.2292C45.5702 30.248 45.5486 30.2644 45.5254 30.2782C45.5433 30.2583 45.5626 30.2398 45.5831 30.2227C45.6027 30.2042 45.6266 30.1835 45.656 30.1606C45.6854 30.1378 45.7169 30.1106 45.7561 30.0845C45.7953 30.0584 45.8355 30.0279 45.8823 29.9996C45.9291 29.9713 45.9802 29.9419 46.0336 29.9115C46.1525 29.8498 46.2758 29.7971 46.4025 29.7537C46.5298 29.7122 46.66 29.6802 46.792 29.6579C46.8541 29.6492 46.9117 29.6394 46.9661 29.6361C47.0205 29.6329 47.075 29.6285 47.1185 29.6274C47.162 29.6263 47.2077 29.6274 47.2447 29.6274C47.2817 29.6274 47.3133 29.6274 47.3394 29.6274L47.4199 29.6448Z" fill="white"/>
<path d="M47.8494 35.3983C47.8307 35.4058 47.8114 35.4116 47.7917 35.4157C47.738 35.4301 47.6835 35.4414 47.6285 35.4494C47.4487 35.4788 47.2662 35.4876 47.0844 35.4756C46.8999 35.4634 46.7173 35.4302 46.5403 35.3765C46.4739 35.3548 46.4195 35.3363 46.3836 35.32C46.3644 35.3133 46.3458 35.3049 46.3281 35.2949C46.3483 35.2978 46.3681 35.3033 46.3869 35.3112C46.4239 35.3243 46.4783 35.3406 46.5458 35.3591C46.721 35.4078 46.9008 35.4388 47.0822 35.4516C47.2638 35.4633 47.446 35.4571 47.6263 35.4331C47.696 35.4233 47.7515 35.4135 47.7906 35.407C47.8097 35.4014 47.8295 35.3985 47.8494 35.3983Z" fill="white"/>
<path d="M36.659 55.0147L21.9196 54.944C21.0682 54.94 20.2531 54.5979 19.6538 53.9931C19.0545 53.3883 18.7199 52.5701 18.7237 51.7187L18.8793 14.7685C18.8811 14.3463 18.9662 13.9286 19.1296 13.5393C19.293 13.15 19.5316 12.7967 19.8317 12.4997C20.1317 12.2026 20.4874 11.9677 20.8784 11.8082C21.2693 11.6488 21.6879 11.5679 22.1101 11.5704L36.8451 11.6346C37.6964 11.6386 38.5112 11.9805 39.1105 12.5851C39.7098 13.1897 40.0445 14.0075 40.0411 14.8588L39.8854 51.8133C39.8843 52.2355 39.7999 52.6534 39.637 53.0429C39.4742 53.4324 39.2361 53.786 38.9364 54.0834C38.6367 54.3808 38.2812 54.6161 37.8905 54.7759C37.4997 54.9357 37.0812 55.0169 36.659 55.0147Z" fill="#263238"/>
<path d="M36.8243 12.9147L33.9711 12.9016L25.6237 12.8625H24.6193L22.1165 12.8516C21.8212 12.8502 21.5285 12.9069 21.2551 13.0187C20.9817 13.1304 20.733 13.2949 20.5232 13.5027C20.3134 13.7106 20.1467 13.9578 20.0324 14.2301C19.9182 14.5025 19.8587 14.7946 19.8574 15.09L19.7051 51.1609C19.7038 51.4561 19.7607 51.7487 19.8725 52.022C19.9843 52.2952 20.1488 52.5438 20.3566 52.7534C20.5645 52.9631 20.8116 53.1298 21.0839 53.244C21.3562 53.3581 21.6482 53.4175 21.9435 53.4188L36.6545 53.4863C36.9499 53.4873 37.2425 53.4301 37.5157 53.318C37.7889 53.2059 38.0374 53.041 38.2469 52.8328C38.4563 52.6247 38.6228 52.3773 38.7366 52.1047C38.8504 51.8322 38.9095 51.54 38.9103 51.2447L39.0627 15.1738C39.0641 14.8784 39.0073 14.5857 38.8956 14.3123C38.7839 14.039 38.6194 13.7903 38.4115 13.5805C38.2037 13.3707 37.9565 13.2039 37.6842 13.0897C37.4118 12.9754 37.1196 12.916 36.8243 12.9147Z" fill="#FAFAFA"/>
<path d="M36.9323 16.1917C36.9323 16.2281 36.9214 16.2637 36.9012 16.294C36.8809 16.3243 36.8521 16.3478 36.8185 16.3617C36.7848 16.3756 36.7478 16.3792 36.7121 16.372C36.6764 16.3648 36.6436 16.3472 36.6179 16.3214C36.5923 16.2955 36.5748 16.2627 36.5679 16.2269C36.5609 16.1912 36.5647 16.1542 36.5788 16.1206C36.5929 16.087 36.6166 16.0584 36.647 16.0383C36.6774 16.0182 36.713 16.0076 36.7494 16.0078C36.798 16.0081 36.8445 16.0276 36.8788 16.0621C36.913 16.0965 36.9323 16.1431 36.9323 16.1917Z" fill="#263238"/>
<path d="M36.9293 16.8588C36.9291 16.8951 36.9181 16.9306 36.8978 16.9607C36.8775 16.9908 36.8487 17.0142 36.815 17.0279C36.7814 17.0417 36.7445 17.0452 36.7089 17.038C36.6733 17.0307 36.6406 17.0131 36.615 16.9874C36.5894 16.9616 36.572 16.9289 36.565 16.8932C36.558 16.8576 36.5617 16.8206 36.5756 16.7871C36.5896 16.7536 36.6131 16.7249 36.6434 16.7047C36.6736 16.6846 36.7091 16.6738 36.7454 16.6738C36.7943 16.6741 36.8411 16.6937 36.8755 16.7284C36.91 16.7631 36.9293 16.8099 36.9293 16.8588Z" fill="#263238"/>
<path d="M36.9295 17.5159C36.9298 17.5526 36.9191 17.5885 36.8988 17.6191C36.8786 17.6497 36.8497 17.6736 36.8159 17.6877C36.782 17.7019 36.7447 17.7056 36.7087 17.6985C36.6728 17.6914 36.6397 17.6738 36.6138 17.6478C36.5878 17.6219 36.5702 17.5888 36.5631 17.5528C36.556 17.5169 36.5597 17.4796 36.5739 17.4457C36.588 17.4119 36.6119 17.383 36.6425 17.3628C36.6731 17.3425 36.709 17.3318 36.7456 17.332C36.7943 17.3323 36.8409 17.3518 36.8754 17.3862C36.9098 17.4206 36.9293 17.4673 36.9295 17.5159Z" fill="#263238"/>
<path d="M37.5799 22.4785H22.8351C22.5767 22.4785 22.3672 22.688 22.3672 22.9464V31.9587C22.3672 32.2171 22.5767 32.4266 22.8351 32.4266H37.5799C37.8383 32.4266 38.0478 32.2171 38.0478 31.9587V22.9464C38.0478 22.688 37.8383 22.4785 37.5799 22.4785Z" fill="#EBEBEB"/>
<path d="M37.1512 21.832H22.4064C22.148 21.832 21.9385 22.0415 21.9385 22.2999V31.3122C21.9385 31.5707 22.148 31.7801 22.4064 31.7801H37.1512C37.4096 31.7801 37.6191 31.5707 37.6191 31.3122V22.2999C37.6191 22.0415 37.4096 21.832 37.1512 21.832Z" fill="#E0E0E0"/>
<path d="M36.6512 21.2949H21.9064C21.648 21.2949 21.4385 21.5044 21.4385 21.7628V30.7751C21.4385 31.0335 21.648 31.243 21.9064 31.243H36.6512C36.9096 31.243 37.1191 31.0335 37.1191 30.7751V21.7628C37.1191 21.5044 36.9096 21.2949 36.6512 21.2949Z" fill="#0F913D"/>
<path d="M24.0233 23.5666C24.0233 23.6939 23.9221 23.7679 23.7284 23.7679H23.3486V23.0312H23.7077C23.8916 23.0312 23.9863 23.1085 23.9863 23.2228C23.987 23.2563 23.9781 23.2893 23.9608 23.318C23.9435 23.3467 23.9183 23.3699 23.8884 23.3849C23.9282 23.3953 23.9633 23.419 23.9878 23.452C24.0124 23.4851 24.0249 23.5255 24.0233 23.5666ZM23.5173 23.1597V23.3338H23.6871C23.7698 23.3338 23.8155 23.3044 23.8155 23.2467C23.8155 23.189 23.7698 23.1597 23.6871 23.1597H23.5173ZM23.8525 23.5492C23.8525 23.4872 23.8046 23.4578 23.7164 23.4578H23.5173V23.6395H23.7164C23.8046 23.6395 23.8525 23.6123 23.8525 23.5492Z" fill="white"/>
<path d="M24.6359 23.6102H24.2942L24.2289 23.7679H24.0537L24.3802 23.0312H24.5488L24.8753 23.7679H24.6968L24.6359 23.6102ZM24.5826 23.4807L24.465 23.1988L24.3486 23.4807H24.5826Z" fill="white"/>
<path d="M25.6328 23.0312V23.7679H25.4924L25.1257 23.3207V23.7679H24.957V23.0312H25.0985L25.4641 23.4785V23.0312H25.6328Z" fill="white"/>
<path d="M26.0729 23.4789L25.9739 23.5877V23.7738H25.8096V23.0371H25.9793V23.381L26.3058 23.0371H26.4951L26.1904 23.3636L26.5169 23.7716H26.3177L26.0729 23.4789Z" fill="white"/>
<path d="M23.8833 26.6292H23.7484V26.8066H23.6787V26.6292H23.2979V26.5792L23.6559 26.1309H23.7331L23.3882 26.5661H23.6809V26.4105H23.7484V26.5661H23.8833V26.6292Z" fill="white"/>
<path d="M24.3792 26.6129C24.3792 26.7217 24.2976 26.8131 24.1344 26.8131C24.045 26.8162 23.9578 26.7851 23.8906 26.7261L23.9254 26.6706C23.982 26.7233 24.0571 26.7514 24.1344 26.7489C24.2432 26.7489 24.3085 26.6967 24.3085 26.6129C24.3085 26.5291 24.2508 26.4791 24.1257 26.4791H24.0778V26.4279L24.265 26.1929H23.9189V26.1309H24.3542V26.1809L24.1638 26.4214C24.3074 26.4345 24.3792 26.5052 24.3792 26.6129Z" fill="white"/>
<path d="M24.927 26.6086C24.927 26.7228 24.8475 26.8131 24.6821 26.8131C24.5931 26.816 24.5063 26.7849 24.4395 26.7261L24.4743 26.6706C24.5019 26.6967 24.5343 26.717 24.5698 26.7305C24.6053 26.7439 24.6431 26.7502 24.681 26.7489C24.7964 26.7489 24.8573 26.6934 24.8573 26.6107C24.8573 26.528 24.8029 26.4704 24.631 26.4704H24.4873L24.5222 26.1309H24.8921V26.1929H24.5831L24.5592 26.4105H24.6462C24.8497 26.4083 24.927 26.4889 24.927 26.6086Z" fill="white"/>
<path d="M25.5228 26.6052C25.5225 26.6343 25.5161 26.6631 25.5041 26.6897C25.4921 26.7163 25.4747 26.7401 25.453 26.7597C25.4314 26.7792 25.4059 26.794 25.3782 26.8032C25.3505 26.8124 25.3212 26.8157 25.2921 26.813C25.1126 26.813 25.0146 26.6879 25.0146 26.4746C25.0146 26.245 25.1398 26.1253 25.3237 26.1253C25.3794 26.1229 25.4347 26.1357 25.4837 26.1623L25.4554 26.2178C25.4158 26.1948 25.3704 26.1838 25.3248 26.1862C25.179 26.1862 25.0854 26.2798 25.0854 26.4637C25.0854 26.4789 25.0854 26.4974 25.0854 26.5181C25.105 26.481 25.135 26.4503 25.1717 26.4299C25.2084 26.4094 25.2502 26.4 25.2921 26.4028C25.3209 26.3991 25.3502 26.4015 25.3779 26.41C25.4057 26.4185 25.4313 26.4327 25.4532 26.4519C25.475 26.471 25.4925 26.4946 25.5045 26.521C25.5165 26.5475 25.5228 26.5761 25.5228 26.6052ZM25.4543 26.6052C25.4543 26.5159 25.3879 26.4593 25.2845 26.4593C25.2633 26.4569 25.2419 26.4589 25.2215 26.4651C25.201 26.4713 25.1821 26.4815 25.1658 26.4953C25.1495 26.509 25.1362 26.526 25.1267 26.5451C25.1171 26.5641 25.1116 26.585 25.1104 26.6063C25.1104 26.6813 25.1724 26.7521 25.2889 26.7521C25.3094 26.7545 25.3303 26.7526 25.3501 26.7465C25.3699 26.7403 25.3882 26.7301 25.4037 26.7165C25.4193 26.7028 25.4319 26.6861 25.4406 26.6673C25.4493 26.6485 25.454 26.6281 25.4543 26.6073V26.6052Z" fill="white"/>
<path d="M26.9805 26.8059L26.8195 26.5937L26.6573 26.8059H26.5801L26.7814 26.5458L26.5899 26.2988H26.6671L26.8195 26.4969L26.9718 26.2988H27.048L26.8565 26.5426L27.0589 26.8027L26.9805 26.8059Z" fill="white"/>
<path d="M27.4984 26.8059L27.3341 26.5937L27.172 26.8059H27.0947L27.296 26.5458L27.1045 26.2988H27.1818L27.3341 26.4969L27.4865 26.2988H27.5616L27.3744 26.5426L27.5768 26.8027L27.4984 26.8059Z" fill="white"/>
<path d="M28.0147 26.8059L27.8537 26.5937L27.6915 26.8059H27.6143L27.8145 26.5458L27.623 26.2988H27.7002L27.8537 26.4969L28.006 26.2988H28.0811L27.8896 26.5426L28.0931 26.8027L28.0147 26.8059Z" fill="white"/>
<path d="M28.5297 26.8059L28.3686 26.5937L28.2032 26.8059H28.126L28.3273 26.5458L28.1358 26.2988H28.213L28.3654 26.4969L28.5177 26.2988H28.5939L28.4035 26.5426L28.6059 26.8027L28.5297 26.8059Z" fill="white"/>
<path d="M30.3077 26.8053L30.1466 26.5931L29.9845 26.8053H29.9072L30.1075 26.5419L29.917 26.2949H29.9943L30.1466 26.493L30.299 26.2949H30.3795L30.1825 26.5419L30.386 26.802L30.3077 26.8053Z" fill="white"/>
<path d="M30.8223 26.8059L30.6613 26.5937L30.4991 26.8059H30.4219L30.6232 26.5458L30.4317 26.2988H30.5089L30.6613 26.4969L30.8136 26.2988H30.8898L30.6983 26.5426L30.9007 26.8027L30.8223 26.8059Z" fill="white"/>
<path d="M31.3389 26.8053L31.1779 26.5931L31.0157 26.8053H30.9385L31.142 26.5419L30.9504 26.2949H31.0277L31.1801 26.493L31.3324 26.2949H31.4075L31.2149 26.5419L31.4173 26.802L31.3389 26.8053Z" fill="white"/>
<path d="M31.8536 26.8059L31.6925 26.5937L31.5304 26.8059H31.4531L31.6533 26.5458L31.4673 26.2988H31.5445L31.698 26.4969L31.8503 26.2988H31.9254L31.7284 26.5426L31.9319 26.8027L31.8536 26.8059Z" fill="white"/>
<path d="M33.4542 26.1309V26.8066H33.3846V26.1929H33.2246V26.1309H33.4542Z" fill="white"/>
<path d="M34.0599 26.6129C34.0599 26.7217 33.9783 26.8131 33.815 26.8131C33.7257 26.8162 33.6385 26.7851 33.5713 26.7261L33.6061 26.6706C33.6341 26.6968 33.6669 26.7172 33.7028 26.7306C33.7386 26.7441 33.7768 26.7503 33.815 26.7489C33.9239 26.7489 33.9892 26.6967 33.9892 26.6129C33.9892 26.5291 33.9315 26.4791 33.8063 26.4791H33.7585V26.4279L33.9456 26.1929H33.5996V26.1309H34.0349V26.1809L33.8444 26.4214C33.9881 26.4345 34.0599 26.5052 34.0599 26.6129Z" fill="white"/>
<path d="M34.732 26.6292H34.596V26.8066H34.5275V26.6292H34.1455V26.5792L34.5035 26.1309H34.5808L34.2358 26.5661H34.5285V26.4105H34.596V26.5661H34.732V26.6292Z" fill="white"/>
<path d="M35.2529 26.7444V26.8053H34.7785V26.7596L35.0592 26.4843C35.1354 26.4092 35.1506 26.3635 35.1506 26.3178C35.1506 26.2395 35.0952 26.1916 34.9918 26.1916C34.9574 26.1893 34.923 26.1949 34.8911 26.2079C34.8593 26.2209 34.8308 26.241 34.8079 26.2667L34.7578 26.2242C34.7882 26.1915 34.8254 26.1659 34.8667 26.1492C34.9081 26.1325 34.9527 26.125 34.9972 26.1274C35.1343 26.1274 35.2214 26.197 35.2214 26.3102C35.2201 26.3513 35.2096 26.3915 35.1908 26.428C35.172 26.4646 35.1452 26.4964 35.1126 26.5213L34.883 26.7476L35.2529 26.7444Z" fill="white"/>
<path d="M22.9522 28.2078C22.952 28.1851 22.9564 28.1627 22.9653 28.1418C22.9741 28.121 22.9872 28.1021 23.0036 28.0865C23.02 28.0709 23.0395 28.0588 23.0608 28.0511C23.0821 28.0433 23.1047 28.04 23.1274 28.0413C23.1521 28.0404 23.1768 28.045 23.1995 28.0548C23.2223 28.0646 23.2426 28.0793 23.259 28.0979L23.2111 28.1425C23.2015 28.1305 23.1892 28.1208 23.1752 28.1142C23.1613 28.1076 23.146 28.1043 23.1306 28.1044C23.1032 28.1044 23.0769 28.1153 23.0575 28.1347C23.0381 28.1541 23.0272 28.1804 23.0272 28.2078C23.0272 28.2352 23.0381 28.2615 23.0575 28.2809C23.0769 28.3003 23.1032 28.3112 23.1306 28.3112C23.146 28.3113 23.1613 28.308 23.1752 28.3014C23.1892 28.2948 23.2015 28.2851 23.2111 28.2731L23.259 28.3166C23.2429 28.3359 23.2225 28.3511 23.1994 28.3611C23.1764 28.3711 23.1513 28.3756 23.1263 28.3743C23.1037 28.3755 23.0812 28.372 23.06 28.3642C23.0389 28.3563 23.0195 28.3443 23.0032 28.3287C22.9869 28.3131 22.974 28.2943 22.9652 28.2735C22.9564 28.2527 22.952 28.2304 22.9522 28.2078Z" fill="white"/>
<path d="M23.5154 28.3009H23.3663L23.3369 28.3694H23.2607L23.4044 28.043H23.4784L23.622 28.3694H23.5448L23.5154 28.3009ZM23.4925 28.2443L23.4414 28.1202L23.3902 28.2443H23.4925Z" fill="white"/>
<path d="M23.8629 28.3694L23.7998 28.2802H23.7312V28.3694H23.6572V28.043H23.7965C23.8825 28.043 23.9369 28.0876 23.9369 28.1594C23.9373 28.1811 23.9312 28.2025 23.9194 28.2207C23.9075 28.2389 23.8905 28.2532 23.8705 28.2617L23.9423 28.3651L23.8629 28.3694ZM23.7922 28.1083H23.7312V28.2171H23.7922C23.8379 28.2171 23.8607 28.1964 23.8607 28.1605C23.8607 28.1246 23.8379 28.1083 23.7922 28.1083Z" fill="white"/>
<path d="M23.9707 28.339L23.9957 28.2824C24.0276 28.3048 24.0656 28.3166 24.1046 28.3161C24.1492 28.3161 24.1666 28.302 24.1666 28.2824C24.1666 28.2214 23.9794 28.2628 23.9794 28.1431C23.9794 28.0887 24.024 28.043 24.1154 28.043C24.1536 28.0427 24.1911 28.0525 24.2242 28.0713L24.2014 28.1279C24.1742 28.1123 24.1435 28.1037 24.1122 28.1028C24.0676 28.1028 24.0501 28.1191 24.0501 28.1398C24.0501 28.1986 24.2384 28.1583 24.2384 28.2758C24.2384 28.3303 24.1927 28.376 24.1013 28.376C24.055 28.3769 24.0096 28.364 23.9707 28.339Z" fill="white"/>
<path d="M24.7208 28.0469V28.3733H24.6457V28.2417H24.4988V28.3733H24.4248V28.0469H24.4988V28.1742H24.6457V28.0469H24.7208Z" fill="white"/>
<path d="M24.7737 28.2095C24.7718 28.1743 24.7804 28.1393 24.7985 28.1091C24.8167 28.0788 24.8435 28.0547 24.8755 28.0398C24.9075 28.025 24.9432 28.0201 24.978 28.0257C25.0128 28.0314 25.0451 28.0473 25.0708 28.0716C25.0964 28.0958 25.1142 28.1271 25.1218 28.1616C25.1295 28.196 25.1266 28.2319 25.1136 28.2647C25.1006 28.2975 25.078 28.3256 25.0489 28.3455C25.0197 28.3653 24.9853 28.376 24.95 28.376C24.9273 28.3773 24.9046 28.374 24.8833 28.3663C24.8619 28.3585 24.8424 28.3464 24.8259 28.3308C24.8094 28.3152 24.7962 28.2964 24.7873 28.2756C24.7783 28.2547 24.7737 28.2322 24.7737 28.2095ZM25.0512 28.2095C25.0508 28.1896 25.0445 28.1703 25.0331 28.1539C25.0217 28.1375 25.0058 28.1249 24.9872 28.1176C24.9687 28.1103 24.9484 28.1086 24.929 28.1127C24.9095 28.1169 24.8916 28.1267 24.8777 28.1409C24.8638 28.1551 24.8543 28.1732 24.8506 28.1927C24.8469 28.2123 24.849 28.2325 24.8567 28.2509C24.8644 28.2693 24.8774 28.285 24.894 28.296C24.9106 28.307 24.9301 28.3129 24.95 28.3129C24.9634 28.3129 24.9766 28.3102 24.9889 28.305C25.0012 28.2997 25.0123 28.292 25.0216 28.2824C25.0309 28.2727 25.0381 28.2613 25.0428 28.2487C25.0475 28.2362 25.0496 28.2229 25.049 28.2095H25.0512Z" fill="white"/>
<path d="M25.1826 28.0469H25.2577V28.308H25.4188V28.369H25.1826V28.0469Z" fill="white"/>
<path d="M25.4609 28.0469H25.6078C25.6511 28.0469 25.6926 28.0641 25.7233 28.0947C25.7539 28.1253 25.7711 28.1668 25.7711 28.2101C25.7711 28.2534 25.7539 28.2949 25.7233 28.3255C25.6926 28.3561 25.6511 28.3733 25.6078 28.3733H25.4609V28.0469ZM25.6046 28.308C25.6311 28.308 25.6566 28.2975 25.6754 28.2787C25.6941 28.2599 25.7047 28.2345 25.7047 28.2079C25.7047 28.1814 25.6941 28.1559 25.6754 28.1371C25.6566 28.1184 25.6311 28.1078 25.6046 28.1078H25.536V28.308H25.6046Z" fill="white"/>
<path d="M26.092 28.3096V28.3694H25.8428V28.043H26.0854V28.1028H25.9189V28.1746H26.068V28.2334H25.9189V28.3074L26.092 28.3096Z" fill="white"/>
<path d="M26.3541 28.3694L26.291 28.2802H26.2224V28.3694H26.1484V28.043H26.2877C26.3737 28.043 26.4281 28.0876 26.4281 28.1594C26.4285 28.1811 26.4224 28.2025 26.4106 28.2207C26.3988 28.2389 26.3817 28.2532 26.3617 28.2617L26.4335 28.3651L26.3541 28.3694ZM26.2834 28.1083H26.2224V28.2171H26.2834C26.3291 28.2171 26.3519 28.1964 26.3519 28.1605C26.3519 28.1246 26.3323 28.1083 26.2866 28.1083H26.2834Z" fill="white"/>
<path d="M27.4865 29.1719H23.05C22.9544 29.1719 22.877 29.2493 22.877 29.3449V29.4124C22.877 29.5079 22.9544 29.5854 23.05 29.5854H27.4865C27.582 29.5854 27.6595 29.5079 27.6595 29.4124V29.3449C27.6595 29.2493 27.582 29.1719 27.4865 29.1719Z" fill="white"/>
<path d="M35.3925 29.1719H33.0812C32.9857 29.1719 32.9082 29.2493 32.9082 29.3449V29.4124C32.9082 29.5079 32.9857 29.5854 33.0812 29.5854H35.3925C35.4881 29.5854 35.5655 29.5079 35.5655 29.4124V29.3449C35.5655 29.2493 35.4881 29.1719 35.3925 29.1719Z" fill="white"/>
<g opacity="0.2">
<path d="M36.6 21.2949H21.9586C21.8209 21.2949 21.6887 21.3496 21.5912 21.4469C21.4937 21.5442 21.4388 21.6762 21.4385 21.814V24.4408C22.3634 25.0861 23.6344 25.2026 24.7618 24.9643C26.0904 24.6868 27.294 24.0067 28.5312 23.4495C29.7685 22.8924 31.1298 22.4462 32.4672 22.6758C33.7305 22.8935 34.8067 23.678 35.9493 24.2602C36.324 24.4538 36.716 24.612 37.1202 24.7325V21.814C37.1199 21.6762 37.065 21.5442 36.9675 21.4469C36.87 21.3496 36.7378 21.2949 36.6 21.2949Z" fill="white"/>
</g>
<path d="M24.883 35.1191H22.723C22.1953 35.1191 21.7676 35.5469 21.7676 36.0746V38.2346C21.7676 38.7623 22.1953 39.19 22.723 39.19H24.883C25.4107 39.19 25.8384 38.7623 25.8384 38.2346V36.0746C25.8384 35.5469 25.4107 35.1191 24.883 35.1191Z" fill="#0F913D"/>
<path d="M24.2053 37.7791H23.3152C23.3035 37.7791 23.2921 37.7751 23.283 37.7678C23.2739 37.7605 23.2676 37.7503 23.2651 37.7388L22.9386 36.433H22.6296C22.6152 36.433 22.6013 36.4273 22.5911 36.4171C22.5809 36.4069 22.5752 36.3931 22.5752 36.3786C22.5752 36.3642 22.5809 36.3504 22.5911 36.3402C22.6013 36.33 22.6152 36.3242 22.6296 36.3242H22.9811C22.9929 36.3243 23.0043 36.3284 23.0135 36.3356C23.0228 36.3429 23.0293 36.3531 23.0322 36.3645L23.3587 37.6703H24.2075C24.2219 37.6703 24.2357 37.676 24.2459 37.6862C24.2561 37.6964 24.2619 37.7103 24.2619 37.7247C24.2619 37.7391 24.2561 37.753 24.2459 37.7632C24.2357 37.7734 24.2219 37.7791 24.2075 37.7791H24.2053Z" fill="white"/>
<path d="M23.4849 38.1963C23.5768 38.1963 23.6513 38.1217 23.6513 38.0298C23.6513 37.9378 23.5768 37.8633 23.4849 37.8633C23.3929 37.8633 23.3184 37.9378 23.3184 38.0298C23.3184 38.1217 23.3929 38.1963 23.4849 38.1963Z" fill="#0F913D"/>
<path d="M23.4833 38.2478C23.4402 38.2478 23.3981 38.235 23.3623 38.2111C23.3266 38.1872 23.2987 38.1532 23.2822 38.1134C23.2657 38.0737 23.2614 38.0299 23.2698 37.9877C23.2782 37.9455 23.2989 37.9067 23.3294 37.8762C23.3598 37.8458 23.3986 37.8251 23.4408 37.8167C23.483 37.8083 23.5268 37.8126 23.5665 37.8291C23.6063 37.8455 23.6403 37.8734 23.6642 37.9092C23.6881 37.945 23.7009 37.9871 23.7009 38.0301C23.7009 38.0879 23.678 38.1432 23.6372 38.184C23.5963 38.2248 23.541 38.2478 23.4833 38.2478ZM23.4833 37.9148C23.462 37.9148 23.4412 37.9211 23.4234 37.9328C23.4056 37.9446 23.3917 37.9612 23.3834 37.9808C23.375 38.0004 23.3725 38.022 23.3763 38.0429C23.3801 38.0639 23.3899 38.0832 23.4046 38.0987C23.4193 38.1141 23.4382 38.1248 23.4589 38.1296C23.4796 38.1344 23.5013 38.133 23.5213 38.1256C23.5412 38.1182 23.5586 38.1051 23.5712 38.0879C23.5837 38.0708 23.591 38.0503 23.5921 38.029C23.5918 37.9997 23.5805 37.9716 23.5603 37.9504C23.5401 37.9292 23.5125 37.9164 23.4833 37.9148Z" fill="white"/>
<path d="M24.4106 38.1963C24.5026 38.1963 24.5771 38.1217 24.5771 38.0298C24.5771 37.9378 24.5026 37.8633 24.4106 37.8633C24.3187 37.8633 24.2441 37.9378 24.2441 38.0298C24.2441 38.1217 24.3187 38.1963 24.4106 38.1963Z" fill="#0F913D"/>
<path d="M24.409 38.2478C24.366 38.2478 24.3239 38.235 24.2881 38.2111C24.2523 38.1872 24.2244 38.1532 24.208 38.1134C24.1915 38.0737 24.1872 38.0299 24.1956 37.9877C24.204 37.9455 24.2247 37.9067 24.2552 37.8762C24.2856 37.8458 24.3244 37.8251 24.3666 37.8167C24.4088 37.8083 24.4526 37.8126 24.4923 37.8291C24.5321 37.8455 24.5661 37.8734 24.59 37.9092C24.6139 37.945 24.6267 37.9871 24.6267 38.0301C24.6267 38.0879 24.6037 38.1432 24.5629 38.184C24.5221 38.2248 24.4668 38.2478 24.409 38.2478ZM24.409 37.9148C24.388 37.9159 24.3678 37.923 24.3507 37.9354C24.3337 37.9477 24.3206 37.9648 24.3131 37.9844C24.3055 38.0041 24.3038 38.0255 24.3082 38.0461C24.3126 38.0666 24.3228 38.0855 24.3377 38.1004C24.3526 38.1153 24.3714 38.1255 24.392 38.1299C24.4126 38.1343 24.434 38.1326 24.4537 38.125C24.4733 38.1175 24.4904 38.1044 24.5027 38.0874C24.5151 38.0703 24.5222 38.0501 24.5233 38.029C24.5241 38.0138 24.5217 37.9986 24.5162 37.9844C24.5107 37.9702 24.5023 37.9573 24.4916 37.9465C24.4808 37.9357 24.4679 37.9274 24.4537 37.9219C24.4395 37.9164 24.4243 37.914 24.409 37.9148Z" fill="white"/>
<path d="M24.5513 37.533H23.2847C23.2777 37.5332 23.2708 37.5319 23.2644 37.5294C23.2579 37.5268 23.252 37.523 23.247 37.5181C23.2421 37.5132 23.2381 37.5074 23.2354 37.501C23.2327 37.4946 23.2314 37.4877 23.2314 37.4808C23.2316 37.4668 23.2374 37.4535 23.2474 37.4438C23.2573 37.434 23.2707 37.4285 23.2847 37.4286H24.5034L24.6427 36.644H23.0485C23.0341 36.644 23.0203 36.6382 23.0101 36.628C22.9999 36.6178 22.9941 36.604 22.9941 36.5896C22.9941 36.5751 22.9999 36.5613 23.0101 36.5511C23.0203 36.5409 23.0341 36.5352 23.0485 36.5352H24.7102C24.7178 36.5352 24.7254 36.5369 24.7323 36.5401C24.7392 36.5433 24.7454 36.5479 24.7505 36.5537C24.7555 36.5596 24.759 36.5666 24.7609 36.5742C24.7628 36.5817 24.763 36.5896 24.7613 36.5972L24.6036 37.4862C24.6022 37.4991 24.5961 37.511 24.5865 37.5197C24.5768 37.5283 24.5643 37.5331 24.5513 37.533Z" fill="white"/>
<path d="M35.0354 35.834H27.5977C27.3712 35.834 27.1875 36.0177 27.1875 36.2442V36.4064C27.1875 36.6329 27.3712 36.8166 27.5977 36.8166H35.0354C35.262 36.8166 35.4457 36.6329 35.4457 36.4064V36.2442C35.4457 36.0177 35.262 35.834 35.0354 35.834Z" fill="#E0E0E0"/>
<path d="M30.9515 37.7656H27.5977C27.3712 37.7656 27.1875 37.9493 27.1875 38.1759V38.338C27.1875 38.5646 27.3712 38.7482 27.5977 38.7482H30.9515C31.1781 38.7482 31.3617 38.5646 31.3617 38.338V38.1759C31.3617 37.9493 31.1781 37.7656 30.9515 37.7656Z" fill="#E0E0E0"/>
<path d="M38.8781 33.5869C38.8781 33.6021 34.5808 33.6152 29.2814 33.6152C23.982 33.6152 19.6826 33.6021 19.6826 33.5869C19.6826 33.5717 23.9798 33.5586 29.2814 33.5586C34.583 33.5586 38.8781 33.5717 38.8781 33.5869Z" fill="#E0E0E0"/>
<path d="M33.8765 40.8223H24.886C23.9118 40.8223 23.1221 41.612 23.1221 42.5862V43.2794C23.1221 44.2536 23.9118 45.0433 24.886 45.0433H33.8765C34.8507 45.0433 35.6405 44.2536 35.6405 43.2794V42.5862C35.6405 41.612 34.8507 40.8223 33.8765 40.8223Z" fill="#0F913D"/>
<path d="M29.1369 42.7317C29.1369 42.9493 28.9781 43.0755 28.7234 43.0755H28.5602V43.3193H28.2969V42.3867H28.7234C28.9781 42.3867 29.1369 42.5195 29.1369 42.7317ZM28.8714 42.7317C28.8714 42.6457 28.8159 42.5946 28.7071 42.5946H28.5602V42.8644H28.7071C28.8159 42.8644 28.8714 42.8176 28.8714 42.7317Z" fill="white"/>
<path d="M29.8412 43.1386H29.4473L29.3733 43.3193H29.1045L29.5158 42.3867H29.7759L30.1883 43.3193H29.9141L29.8412 43.1386ZM29.7639 42.9439L29.6442 42.6457L29.5245 42.9439H29.7639Z" fill="white"/>
<path d="M30.7071 42.9852V43.3193H30.4437V42.9809L30.0879 42.3867H30.3665L30.5841 42.7578L30.8017 42.3867H31.0575L30.7071 42.9852Z" fill="white"/>
<path d="M22.8094 17.3397C22.9129 16.9029 22.6427 16.4648 22.2058 16.3613C21.769 16.2578 21.331 16.5281 21.2275 16.9649C21.1239 17.4017 21.3942 17.8398 21.831 17.9433C22.2678 18.0468 22.7059 17.7766 22.8094 17.3397Z" fill="#0F913D"/>
<path d="M32.0254 16.7324H26.5345C26.3698 16.7324 26.2363 16.8659 26.2363 17.0306V17.147C26.2363 17.3117 26.3698 17.4452 26.5345 17.4452H32.0254C32.1901 17.4452 32.3236 17.3117 32.3236 17.147V17.0306C32.3236 16.8659 32.1901 16.7324 32.0254 16.7324Z" fill="#E0E0E0"/>
<path d="M36.2111 46.2598H23.7852V47.09H36.2111V46.2598Z" fill="#263238"/>
<path d="M24.374 46.6738C24.4828 46.7108 25.9388 46.7108 25.9388 49.5847C25.9388 52.4586 25.8659 56.0245 27.3937 56.1334C28.9215 56.2422 36.9621 56.1334 36.9621 56.1334V48.9209C36.9621 48.3428 36.7331 47.7882 36.3252 47.3785C35.9173 46.9688 35.3638 46.7374 34.7857 46.7348L24.374 46.6738Z" fill="#FAFAFA"/>
<path d="M24.3724 46.6738L30.4161 46.6923L33.4826 46.7032H34.3227C34.6136 46.6914 34.9049 46.7056 35.1932 46.7456C35.4943 46.8033 35.7798 46.9235 36.0314 47.0986C36.283 47.2737 36.495 47.4997 36.6536 47.762C36.8215 48.0317 36.9288 48.3347 36.9681 48.65C36.9844 48.8094 36.9909 48.9696 36.9876 49.1298V49.6119C36.9876 50.2583 36.9876 50.9177 36.9876 51.5924V56.1627H36.9594C34.1475 56.1965 31.4738 56.2215 29.0429 56.2019C28.7393 56.2019 28.44 56.1943 28.144 56.1888C27.848 56.1834 27.5575 56.1812 27.2659 56.141C27.1223 56.1096 26.9877 56.0464 26.8719 55.956C26.7622 55.8636 26.6668 55.7554 26.589 55.635C26.444 55.3981 26.3341 55.1416 26.2626 54.8732C26.1285 54.3684 26.0418 53.8522 26.0036 53.3313C25.959 52.8329 25.9394 52.3519 25.9285 51.8938C25.9046 50.9765 25.9285 50.1473 25.9122 49.4204C25.8959 48.6935 25.7859 48.0678 25.5618 47.6086C25.4642 47.4045 25.3325 47.2186 25.1722 47.059C25.0517 46.9457 24.913 46.8534 24.762 46.7859C24.635 46.7364 24.5034 46.7 24.3691 46.6771L24.4725 46.6934C24.5734 46.7104 24.6719 46.7389 24.7663 46.7783C24.9199 46.8448 25.0612 46.9368 25.1842 47.0503C25.3472 47.2101 25.4816 47.3967 25.5814 47.602C25.811 48.0634 25.9263 48.6957 25.9437 49.4226C25.9611 50.1495 25.9437 50.9797 25.9688 51.896C25.9807 52.353 26.0014 52.8329 26.0471 53.3313C26.0866 53.8489 26.1736 54.3618 26.3072 54.8635C26.3775 55.1267 26.4852 55.3784 26.6271 55.611C26.7023 55.727 26.7944 55.8312 26.9002 55.9201C27.0105 56.0048 27.1378 56.0646 27.2735 56.0953C27.5521 56.1323 27.8491 56.1301 28.144 56.1399C28.4389 56.1497 28.7393 56.1508 29.0429 56.1529C31.4717 56.1693 34.1464 56.1421 36.9583 56.1083L36.93 56.1366V51.5902C36.93 50.9177 36.93 50.2561 36.93 49.6097V49.1266C36.9341 48.9686 36.9283 48.8105 36.9126 48.6532C36.8566 48.2011 36.6586 47.7784 36.3471 47.446C36.0356 47.1136 35.6266 46.8885 35.1791 46.8033C34.8951 46.7639 34.6082 46.7493 34.3216 46.7598L33.4848 46.7544L30.4379 46.7304L24.3724 46.6738Z" fill="#263238"/>
<path d="M27.4307 56.1342C27.4307 56.1342 28.6886 56.1342 28.9541 54.2788C29.2751 52.0677 28.9541 50.1307 30.6636 50.0578C32.3732 49.9849 36.9577 50.0578 36.9577 50.0578V56.1342H27.4307Z" fill="#E0E0E0"/>
<path d="M30.4521 50.081C30.4521 50.081 31.8309 49.9145 31.8309 52.2062C31.8309 54.4979 31.8668 56.0148 33.3946 56.1835C34.9224 56.3521 44.3101 56.1835 44.3101 56.1835C44.3101 56.1835 42.8182 55.4805 42.7094 53.4064C42.6006 51.3324 42.1653 50.0679 40.6712 50.0276C39.1771 49.9874 30.4521 50.081 30.4521 50.081Z" fill="#FAFAFA"/>
<path d="M30.4543 50.0801H30.5468H30.8178L31.8635 50.0638L35.7102 50.0224L38.3697 50.0039H39.8529C40.1075 50.0039 40.3665 50.0039 40.6288 50.0115C40.8984 50.0134 41.1655 50.0646 41.4166 50.1628C41.671 50.2753 41.8916 50.4523 42.0565 50.6764C42.2213 50.9055 42.3488 51.1593 42.4341 51.4283C42.5957 51.9832 42.6917 52.5552 42.7203 53.1324C42.7301 53.2793 42.7377 53.4262 42.754 53.5677L42.7758 53.7853L42.8171 54.003L42.8367 54.1118L42.8672 54.2206L42.9281 54.4382C42.9776 54.5793 43.0354 54.7174 43.1011 54.8517C43.3646 55.4048 43.7915 55.8637 44.3242 56.1663L44.4189 56.2185H44.3101H44.05C41.5309 56.2598 39.1315 56.287 36.9486 56.286C35.8604 56.286 34.819 56.286 33.8483 56.2402C33.6087 56.2339 33.37 56.208 33.1345 56.163C32.9058 56.1106 32.6933 56.0035 32.5153 55.8507C32.349 55.6999 32.2181 55.5141 32.1323 55.3066C32.0486 55.1109 31.987 54.9065 31.9484 54.6972C31.8787 54.3099 31.8394 53.9176 31.8309 53.5242C31.8167 53.152 31.8156 52.8016 31.8156 52.473C31.8156 52.3098 31.8156 52.1465 31.808 51.9996C31.808 51.9235 31.808 51.8495 31.7971 51.7765C31.7863 51.7036 31.7797 51.6329 31.771 51.5644L31.758 51.461C31.7514 51.4272 31.7438 51.3946 31.7362 51.3619C31.7221 51.2967 31.7068 51.2325 31.6938 51.1704L31.6328 50.9941L31.6034 50.9104L31.5643 50.832C31.4827 50.645 31.3591 50.4792 31.203 50.3478C31.0906 50.2488 30.9586 50.1746 30.8156 50.1301C30.7282 50.1019 30.6375 50.0855 30.5457 50.0812C30.5142 50.0812 30.4913 50.0812 30.475 50.0812H30.4521C30.4598 50.0807 30.4674 50.0807 30.475 50.0812C30.4986 50.0798 30.5222 50.0798 30.5457 50.0812C30.6384 50.0836 30.7303 50.0986 30.8189 50.1258C30.9642 50.1674 31.0989 50.2398 31.2139 50.338C31.3734 50.4698 31.5003 50.6366 31.5849 50.8255C31.8026 51.2423 31.8494 51.8244 31.8472 52.4762C31.8472 52.8027 31.8472 53.1553 31.8668 53.5263C31.8775 53.9177 31.9179 54.3076 31.9876 54.6929C32.0261 54.8992 32.0875 55.1007 32.1704 55.2935C32.256 55.4929 32.3846 55.6708 32.5469 55.8148C32.7193 55.9628 32.9257 56.066 33.1476 56.1151C33.3801 56.1594 33.616 56.1842 33.8527 56.1891C34.8223 56.2294 35.8593 56.2305 36.9507 56.2305C39.1325 56.2305 41.532 56.1989 44.0511 56.1586L44.3112 56.1532L44.2992 56.2076C43.7551 55.8995 43.319 55.4314 43.05 54.867C42.9835 54.7301 42.925 54.5895 42.8748 54.4458L42.8128 54.2282L42.7823 54.1194L42.7616 54.0106L42.7203 53.7929L42.6985 53.5753C42.6822 53.4262 42.6746 53.2804 42.6648 53.14C42.6371 52.5669 42.5422 51.9989 42.3818 51.4479C42.3002 51.1806 42.176 50.9282 42.014 50.7003C41.855 50.4831 41.6419 50.3113 41.3959 50.202C41.151 50.1062 40.8907 50.0557 40.6277 50.0529C40.3654 50.0529 40.1075 50.0463 39.8529 50.0442H38.3697L35.7102 50.0551L31.8635 50.079L30.8178 50.0844H30.5457L30.4543 50.0801Z" fill="#263238"/>
<path d="M30.8151 50.0762C30.8151 50.0827 30.7063 50.0762 30.5104 50.099C30.2349 50.1374 29.9785 50.2619 29.7781 50.4549C29.5224 50.6932 29.3308 51.0838 29.234 51.5354C29.1371 51.987 29.1252 52.5061 29.1067 53.0447C29.0995 53.554 29.0405 54.0611 28.9304 54.5584C28.875 54.7742 28.7996 54.9844 28.7051 55.1863C28.6276 55.365 28.5278 55.5331 28.4081 55.6868C28.307 55.8129 28.1825 55.9182 28.0414 55.9969C27.9329 56.0525 27.8171 56.0924 27.6975 56.1156C27.6224 56.1286 27.5463 56.1355 27.4701 56.1362C27.4436 56.1386 27.4171 56.1386 27.3906 56.1362C27.4167 56.1302 27.4433 56.1269 27.4701 56.1264C27.5433 56.1217 27.616 56.1115 27.6877 56.096C27.8036 56.07 27.9153 56.0278 28.0196 55.9708C28.1561 55.8922 28.2759 55.7876 28.3722 55.6629C28.4869 55.5104 28.5827 55.3445 28.6573 55.1688C28.7479 54.9685 28.8207 54.7606 28.8749 54.5475C28.9809 54.053 29.0377 53.5493 29.0447 53.0436C29.0675 52.5072 29.0751 51.9881 29.1774 51.5267C29.2797 51.0653 29.4767 50.6703 29.7444 50.4277C29.9517 50.2322 30.2173 50.1099 30.5006 50.0794C30.5443 50.0733 30.5882 50.07 30.6323 50.0696C30.6646 50.0679 30.6969 50.0679 30.7292 50.0696C30.758 50.0688 30.7868 50.071 30.8151 50.0762Z" fill="#263238"/>
<path d="M35.3955 48.3408C35.3955 48.356 33.6327 48.3691 31.4585 48.3691C29.2843 48.3691 27.5215 48.356 27.5215 48.3408C27.5215 48.3256 29.2832 48.3125 31.4585 48.3125C33.6338 48.3125 35.3955 48.3245 35.3955 48.3408Z" fill="#E0E0E0"/>
<path d="M35.5577 49.5127C35.5577 49.5279 33.8525 49.541 31.749 49.541C29.6456 49.541 27.9404 49.5279 27.9404 49.5127C27.9404 49.4974 29.6445 49.4844 31.749 49.4844C33.8536 49.4844 35.5577 49.4974 35.5577 49.5127Z" fill="#E0E0E0"/>
<path d="M40.9258 51.7881C40.9258 51.8044 39.163 51.8164 36.9888 51.8164C34.8146 51.8164 33.0518 51.8044 33.0518 51.7881C33.0518 51.7717 34.8146 51.7598 36.9888 51.7598C39.163 51.7598 40.9258 51.7739 40.9258 51.7881Z" fill="#E0E0E0"/>
<path d="M41.0221 53.1552C41.0221 53.1705 39.4051 53.1835 37.4105 53.1835C35.4159 53.1835 33.7988 53.1705 33.7988 53.1552C33.7988 53.14 35.4159 53.127 37.4105 53.127C39.4051 53.127 41.0221 53.14 41.0221 53.1552Z" fill="#E0E0E0"/>
<path d="M34.4438 22.6738H33.6777C33.4884 22.6738 33.335 22.8273 33.335 23.0166V23.7827C33.335 23.972 33.4884 24.1255 33.6777 24.1255H34.4438C34.6331 24.1255 34.7866 23.972 34.7866 23.7827V23.0166C34.7866 22.8273 34.6331 22.6738 34.4438 22.6738Z" fill="white"/>
</svg>
