<svg width="69" height="69" viewBox="0 0 69 69" fill="none" xmlns="http://www.w3.org/2000/svg">
<rect width="69" height="69" rx="34.5" fill="#F5F5F5"/>
<path d="M54.7477 10.3027H27.3975C26.9293 10.3027 26.5498 10.6823 26.5498 11.1505V37.7773C26.5498 38.2455 26.9293 38.625 27.3975 38.625H54.7477C55.2159 38.625 55.5954 38.2455 55.5954 37.7773V11.1505C55.5954 10.6823 55.2159 10.3027 54.7477 10.3027Z" fill="white"/>
<mask id="mask0_822_42732" style="mask-type:luminance" maskUnits="userSpaceOnUse" x="26" y="10" width="30" height="29">
<path d="M54.7487 10.3027H27.3985C26.9303 10.3027 26.5508 10.6823 26.5508 11.1505V37.7773C26.5508 38.2455 26.9303 38.625 27.3985 38.625H54.7487C55.2168 38.625 55.5964 38.2455 55.5964 37.7773V11.1505C55.5964 10.6823 55.2168 10.3027 54.7487 10.3027Z" fill="white"/>
</mask>
<g mask="url(#mask0_822_42732)">
<path d="M51.094 36.3862H44.361C43.9405 36.3862 43.5372 36.2191 43.2398 35.9217C42.9425 35.6244 42.7754 35.221 42.7754 34.8005C42.7754 34.38 42.9425 33.9766 43.2398 33.6793C43.5372 33.3819 43.9405 33.2148 44.361 33.2148H51.094C51.5145 33.2148 51.9179 33.3819 52.2152 33.6793C52.5126 33.9766 52.6797 34.38 52.6797 34.8005C52.6797 35.221 52.5126 35.6244 52.2152 35.9217C51.9179 36.2191 51.5145 36.3862 51.094 36.3862Z" fill="#0F913D" stroke="#263238" stroke-width="0.3" stroke-linecap="round" stroke-linejoin="round"/>
<path d="M46.0064 35.5793H45.749L45.7051 35.2841H45.3916L45.3477 35.5793H45.1172L45.377 33.957H45.7502L46.0064 35.5793ZM45.4246 35.0646H45.6685L45.5465 34.2437L45.4246 35.0646Z" fill="#263238"/>
<path d="M46.8615 34.975V35.1897C46.8615 35.4495 46.7322 35.5983 46.4821 35.5983C46.2321 35.5983 46.1016 35.4495 46.1016 35.1897V34.3468C46.1016 34.087 46.2309 33.9395 46.4821 33.9395C46.7334 33.9395 46.8615 34.087 46.8615 34.3468V34.5042H46.6175V34.331C46.6175 34.2151 46.5663 34.1712 46.4846 34.1712C46.4028 34.1712 46.3528 34.2151 46.3528 34.331V35.2068C46.3528 35.3226 46.4041 35.3641 46.4846 35.3641C46.5651 35.3641 46.6175 35.3226 46.6175 35.2068V34.975H46.8615Z" fill="#263238"/>
<path d="M47.7579 34.975V35.1897C47.7579 35.4495 47.6274 35.5983 47.3774 35.5983C47.1273 35.5983 46.998 35.4495 46.998 35.1897V34.3468C46.998 34.087 47.1273 33.9395 47.3774 33.9395C47.6274 33.9395 47.7579 34.087 47.7579 34.3468V34.5042H47.514V34.331C47.514 34.2151 47.4628 34.1712 47.3823 34.1712C47.3018 34.1712 47.2505 34.2151 47.2505 34.331V35.2068C47.2505 35.3226 47.3005 35.3641 47.3823 35.3641C47.464 35.3641 47.514 35.3226 47.514 35.2068V34.975H47.7579Z" fill="#263238"/>
<path d="M48.167 34.6401H48.5171V34.8718H48.167V35.3475H48.6074V35.5793H47.9121V33.957H48.6074V34.1912H48.167V34.6401Z" fill="#263238"/>
<path d="M49.5211 34.3571V34.5681C49.5211 34.8279 49.3992 34.9694 49.1406 34.9694H49.0186V35.5793H48.7637V33.957H49.143C49.3955 33.957 49.5211 34.0985 49.5211 34.3571ZM49.021 34.1912V34.7401H49.143C49.2247 34.7401 49.265 34.7035 49.265 34.5876V34.3437C49.265 34.2217 49.2211 34.1912 49.143 34.1912H49.021Z" fill="#263238"/>
<path d="M49.5645 33.957H50.3524V34.1912H50.0865V35.5817H49.8316V34.1912H49.5645V33.957Z" fill="#263238"/>
<path d="M37.7783 36.3862H31.0466C30.6261 36.3862 30.2227 36.2191 29.9254 35.9217C29.628 35.6244 29.4609 35.221 29.4609 34.8005C29.4609 34.38 29.628 33.9766 29.9254 33.6793C30.2227 33.3819 30.6261 33.2148 31.0466 33.2148H37.7783C38.1989 33.2148 38.6022 33.3819 38.8996 33.6793C39.1969 33.9766 39.364 34.38 39.364 34.8005C39.364 35.221 39.1969 35.6244 38.8996 35.9217C38.6022 36.2191 38.1989 36.3862 37.7783 36.3862Z" fill="#0F913D"/>
<mask id="mask1_822_42732" style="mask-type:luminance" maskUnits="userSpaceOnUse" x="29" y="33" width="11" height="4">
<path d="M37.7744 36.3862H31.0427C30.6221 36.3862 30.2188 36.2191 29.9215 35.9217C29.6241 35.6244 29.457 35.221 29.457 34.8005C29.457 34.38 29.6241 33.9766 29.9215 33.6793C30.2188 33.3819 30.6221 33.2148 31.0427 33.2148H37.7744C38.195 33.2148 38.5983 33.3819 38.8956 33.6793C39.193 33.9766 39.3601 34.38 39.3601 34.8005C39.3601 35.221 39.193 35.6244 38.8956 35.9217C38.5983 36.2191 38.195 36.3862 37.7744 36.3862Z" fill="white"/>
</mask>
<g mask="url(#mask1_822_42732)">
<path opacity="0.6" d="M37.7744 36.3862H31.0427C30.6221 36.3862 30.2188 36.2191 29.9215 35.9217C29.6241 35.6244 29.457 35.221 29.457 34.8005C29.457 34.38 29.6241 33.9766 29.9215 33.6793C30.2188 33.3819 30.6221 33.2148 31.0427 33.2148H37.7744C38.195 33.2148 38.5983 33.3819 38.8956 33.6793C39.193 33.9766 39.3601 34.38 39.3601 34.8005C39.3601 35.221 39.193 35.6244 38.8956 35.9217C38.5983 36.2191 38.195 36.3862 37.7744 36.3862Z" fill="white"/>
</g>
<path d="M37.7783 36.3862H31.0466C30.6261 36.3862 30.2227 36.2191 29.9254 35.9217C29.628 35.6244 29.4609 35.221 29.4609 34.8005C29.4609 34.38 29.628 33.9766 29.9254 33.6793C30.2227 33.3819 30.6261 33.2148 31.0466 33.2148H37.7783C38.1989 33.2148 38.6022 33.3819 38.8996 33.6793C39.1969 33.9766 39.364 34.38 39.364 34.8005C39.364 35.221 39.1969 35.6244 38.8996 35.9217C38.6022 36.2191 38.1989 36.3862 37.7783 36.3862Z" stroke="#263238" stroke-width="0.3" stroke-linecap="round" stroke-linejoin="round"/>
<path d="M31.623 33.957H32.0268C32.2817 33.957 32.4061 34.0985 32.4061 34.3571V35.178C32.4061 35.4378 32.2841 35.5793 32.0268 35.5793H31.623V33.957ZM31.878 34.1888V35.3475H32.0219C32.1024 35.3475 32.1512 35.3048 32.1512 35.189V34.3461C32.1512 34.2303 32.1024 34.1888 32.0219 34.1888H31.878Z" fill="#263238"/>
<path d="M32.8233 34.6401H33.1733V34.8718H32.8233V35.3475H33.2636V35.5793H32.5684V33.957H33.2636V34.1912H32.8233V34.6401Z" fill="#263238"/>
<path d="M34.1622 34.975V35.1897C34.1622 35.4495 34.0329 35.5983 33.7817 35.5983C33.5304 35.5983 33.4023 35.4495 33.4023 35.1897V34.3468C33.4023 34.087 33.5316 33.9395 33.7817 33.9395C34.0317 33.9395 34.1622 34.087 34.1622 34.3468V34.5042H33.9183V34.331C33.9183 34.2151 33.8683 34.1712 33.7866 34.1712C33.7048 34.1712 33.6548 34.2151 33.6548 34.331V35.2068C33.6548 35.3226 33.7061 35.3641 33.7866 35.3641C33.8671 35.3641 33.9183 35.3226 33.9183 35.2068V34.975H34.1622Z" fill="#263238"/>
<path d="M34.3164 33.957H34.5713V35.3475H34.9934V35.5793H34.3188L34.3164 33.957Z" fill="#263238"/>
<path d="M35.1035 33.957H35.3597V35.5793H35.1035V33.957Z" fill="#263238"/>
<path d="M35.7762 34.4035V35.5793H35.5469V33.957H35.8664L36.1238 34.9328V33.957H36.3507V35.5793H36.0921L35.7762 34.4035Z" fill="#263238"/>
<path d="M36.7881 34.6401H37.1382V34.8718H36.7881V35.3475H37.2285V35.5793H36.5332V33.957H37.2285V34.1912H36.7881V34.6401Z" fill="#263238"/>
<path d="M47.6795 23.0908C47.6795 24.3985 47.2917 25.6769 46.5651 26.7643C45.8386 27.8517 44.8059 28.6992 43.5977 29.1996C42.3894 29.7001 41.0599 29.831 39.7773 29.5759C38.4947 29.3208 37.3165 28.691 36.3917 27.7663C35.467 26.8416 34.8373 25.6634 34.5821 24.3807C34.327 23.0981 34.4579 21.7686 34.9584 20.5604C35.4589 19.3522 36.3064 18.3195 37.3937 17.5929C38.4811 16.8664 39.7595 16.4786 41.0673 16.4786C41.9365 16.4752 42.7979 16.6439 43.6017 16.975C44.4054 17.3061 45.1357 17.793 45.7504 18.4077C46.365 19.0224 46.8519 19.7526 47.183 20.5564C47.5141 21.3601 47.6829 22.2215 47.6795 23.0908Z" fill="#0F913D" stroke="#263238" stroke-width="0.5" stroke-linecap="round" stroke-linejoin="round"/>
<path d="M46.562 26.7695C45.9699 27.6535 45.1732 28.3815 44.2396 28.8918C43.306 29.4021 42.263 29.6796 41.1992 29.7006C40.1355 29.7217 39.0823 29.4858 38.1292 29.0129C37.1761 28.5399 36.3513 27.844 35.7246 26.9841C35.7636 26.9183 35.8027 26.8524 35.8466 26.7878C36.0905 26.384 37.5835 25.7449 39.6949 25.5156C40.1713 25.4632 40.65 25.4347 41.1293 25.4302C41.6483 25.4253 42.167 25.4554 42.682 25.5205C44.5165 25.7498 46.0424 26.3572 46.562 26.7695Z" fill="#757575" stroke="#263238" stroke-width="0.3" stroke-linecap="round" stroke-linejoin="round"/>
<path d="M42.8374 25.6765C42.6727 25.9681 42.4323 26.2098 42.1416 26.3762C41.851 26.5425 41.5208 26.6274 41.1859 26.6218C40.2101 26.6218 39.5039 25.7777 39.5039 25.7777C39.8454 25.4716 39.8698 24.9032 39.8162 24.4555C39.794 24.2362 39.7532 24.0191 39.6942 23.8066H42.6045C42.4276 24.3885 42.4337 24.8056 42.502 25.0959C42.5984 25.524 42.8374 25.6765 42.8374 25.6765Z" fill="white" stroke="#263238" stroke-width="0.3" stroke-linecap="round" stroke-linejoin="round"/>
<path d="M42.4951 25.0959C40.3923 25.6472 39.9751 24.4458 39.9751 24.4458L39.8153 24.4555C39.7932 24.2362 39.7523 24.0191 39.6934 23.8066H42.6037C42.4207 24.3885 42.4268 24.8056 42.4951 25.0959Z" fill="#263238"/>
<path d="M43.2306 21.764C43.2306 21.764 43.4648 21.5091 43.5807 21.5932C43.6583 21.6567 43.7169 21.7404 43.7501 21.8351C43.7832 21.9298 43.7896 22.0318 43.7685 22.1299C43.7063 22.347 43.4343 22.7239 43.4123 22.9435C43.3904 23.163 43.2513 23.4118 43.0964 23.2667C42.9415 23.1215 43.2306 21.764 43.2306 21.764Z" fill="white" stroke="#263238" stroke-width="0.3" stroke-linecap="round" stroke-linejoin="round"/>
<path d="M39.054 21.764C39.054 21.764 38.8198 21.5091 38.7039 21.5932C38.6263 21.6567 38.5677 21.7404 38.5345 21.8351C38.5014 21.9298 38.495 22.0318 38.5161 22.1299C38.5783 22.347 38.8503 22.7239 38.8723 22.9435C38.8942 23.163 39.0333 23.4118 39.1882 23.2667C39.3431 23.1215 39.054 21.764 39.054 21.764Z" fill="white" stroke="#263238" stroke-width="0.3" stroke-linecap="round" stroke-linejoin="round"/>
<path d="M41.0928 18.8223C44.0409 18.8223 43.3395 22.7474 42.8004 24.0074C42.6101 24.4501 41.6221 25.0307 41.1452 25.0307C40.7012 25.0307 39.6815 24.3367 39.5059 23.9208C38.9546 22.6522 38.2874 18.8223 41.0928 18.8223Z" fill="white" stroke="#263238" stroke-width="0.3" stroke-linecap="round" stroke-linejoin="round"/>
<path d="M41.5918 21.2432C41.5918 21.2432 42.359 21.0054 42.5969 21.4798" stroke="#263238" stroke-width="0.2" stroke-linecap="round" stroke-linejoin="round"/>
<path d="M42.1612 21.8881C42.1612 21.9783 42.1149 22.0515 42.0588 22.0515C42.0026 22.0515 41.9551 21.9783 41.9551 21.8881C41.9551 21.7978 42.0014 21.7246 42.0588 21.7246C42.1161 21.7246 42.1612 21.7978 42.1612 21.8881Z" fill="#263238"/>
<path d="M40.6926 21.2432C40.6926 21.2432 39.9253 21.0054 39.6875 21.4798" stroke="#263238" stroke-width="0.2" stroke-linecap="round" stroke-linejoin="round"/>
<path d="M40.123 21.8881C40.123 21.9783 40.1694 22.0515 40.2255 22.0515C40.2816 22.0515 40.3292 21.9783 40.3292 21.8881C40.3292 21.7978 40.2828 21.7246 40.2255 21.7246C40.1682 21.7246 40.123 21.7978 40.123 21.8881Z" fill="#263238"/>
<path d="M42.3113 19.8237C41.5726 20.0596 40.7788 20.0596 40.0401 19.8237C40.0401 19.8237 39.6413 19.8005 39.4851 20.0005C39.329 20.2006 39.4852 20.8178 39.5266 21.069C39.5681 21.3203 39.1814 21.4947 39.2339 22.129L39.0839 22.3485C39.0839 22.3485 38.6679 21.3264 38.7728 20.4482C38.8777 19.57 39.4327 19.2284 39.4327 19.2284C39.4327 19.2284 39.6852 18.4685 41.1684 18.4746C42.7675 18.4807 42.9285 19.3455 42.9285 19.3455C42.9285 19.3455 44.0116 20.0688 43.2102 22.4229L43.037 22.1302C43.0783 21.818 43.0065 21.5012 42.8345 21.2374C42.6943 21.0337 42.9175 20.4213 42.865 20.1067C42.8126 19.792 42.3113 19.8237 42.3113 19.8237Z" fill="#263238"/>
<path d="M41.3182 21.7246C41.3182 21.7246 41.3268 22.4418 41.5146 22.6748C41.6109 22.7968 41.4231 23.0529 41.1328 23.0993" stroke="#263238" stroke-width="0.2" stroke-linecap="round" stroke-linejoin="round"/>
<path d="M40.498 23.5156C40.5184 23.5895 40.5531 23.6587 40.6002 23.7192C40.6473 23.7797 40.7058 23.8303 40.7725 23.8681C40.9737 23.9547 41.5861 23.9181 41.7019 23.8462C41.8178 23.7742 41.8751 23.5388 41.8751 23.5388" fill="white"/>
<path d="M40.498 23.5156C40.5184 23.5895 40.5531 23.6587 40.6002 23.7192C40.6473 23.7797 40.7058 23.8303 40.7725 23.8681C40.9737 23.9547 41.5861 23.9181 41.7019 23.8462C41.8178 23.7742 41.8751 23.5388 41.8751 23.5388" stroke="#263238" stroke-width="0.2" stroke-linecap="round" stroke-linejoin="round"/>
<path d="M40.4316 23.502C40.9334 23.6095 41.4522 23.6095 41.9539 23.502" stroke="#263238" stroke-width="0.2" stroke-linecap="round" stroke-linejoin="round"/>
<path d="M42.5981 19.8551C42.5981 19.8551 42.2688 20.343 41.1857 20.4491C41.2683 20.3723 41.3336 20.2787 41.3772 20.1747C41.2134 20.2947 41.0273 20.3807 40.8297 20.4279C40.6322 20.475 40.4273 20.4822 40.227 20.4491C40.0208 20.4212 39.811 20.4479 39.6183 20.5264C39.4257 20.605 39.2571 20.7327 39.1292 20.8968L38.9463 21.7262C38.9463 21.7262 38.2986 20.9943 38.7596 19.8185L38.5938 19.9564C38.5938 19.9564 38.7779 18.3841 40.6673 18.3268L40.438 18.189C40.438 18.189 42.32 17.7877 43.0568 19.0269C43.0568 19.0269 43.7118 19.1489 43.8728 20.282L43.6886 20.16C43.6886 20.16 43.9801 21.1005 43.3751 21.8872C43.3702 21.8896 42.5981 20.6443 42.5981 19.8551Z" fill="#263238"/>
<path opacity="0.5" d="M48.2593 14.4955H33.8835C33.7865 14.4955 33.6934 14.457 33.6248 14.3883C33.5561 14.3197 33.5176 14.2266 33.5176 14.1296C33.5176 14.0325 33.5561 13.9395 33.6248 13.8708C33.6934 13.8022 33.7865 13.7637 33.8835 13.7637H48.2593C48.3564 13.7637 48.4494 13.8022 48.5181 13.8708C48.5867 13.9395 48.6252 14.0325 48.6252 14.1296C48.6252 14.2266 48.5867 14.3197 48.5181 14.3883C48.4494 14.457 48.3564 14.4955 48.2593 14.4955Z" fill="#263238"/>
<g opacity="0.4">
<path d="M47.233 30.7344H34.9076C34.8886 30.7344 34.8698 30.7306 34.8522 30.7233C34.8347 30.716 34.8188 30.7053 34.8054 30.6918C34.792 30.6783 34.7814 30.6623 34.7743 30.6447C34.7671 30.6271 34.7635 30.6083 34.7637 30.5892C34.7637 30.5511 34.7788 30.5145 34.8058 30.4875C34.8328 30.4605 34.8694 30.4453 34.9076 30.4453H47.233C47.252 30.4452 47.2709 30.4488 47.2885 30.4559C47.3061 30.4631 47.3221 30.4737 47.3356 30.487C47.3491 30.5004 47.3598 30.5163 47.3671 30.5339C47.3744 30.5514 47.3782 30.5702 47.3782 30.5892C47.3782 30.6277 47.3629 30.6647 47.3357 30.6919C47.3085 30.7191 47.2715 30.7344 47.233 30.7344Z" fill="black"/>
<path d="M46.0143 31.5078H36.1283C36.1093 31.5078 36.0905 31.5041 36.0729 31.4968C36.0554 31.4895 36.0395 31.4787 36.0261 31.4652C36.0127 31.4518 36.0021 31.4357 35.995 31.4181C35.9878 31.4005 35.9842 31.3817 35.9844 31.3627C35.9844 31.3245 35.9995 31.2879 36.0265 31.2609C36.0535 31.2339 36.0901 31.2188 36.1283 31.2188H46.0143C46.0333 31.2186 46.0521 31.2222 46.0697 31.2294C46.0873 31.2365 46.1033 31.2471 46.1168 31.2605C46.1303 31.2739 46.141 31.2898 46.1484 31.3073C46.1557 31.3249 46.1594 31.3437 46.1594 31.3627C46.1594 31.4012 46.1441 31.4381 46.1169 31.4653C46.0897 31.4925 46.0528 31.5078 46.0143 31.5078Z" fill="black"/>
</g>
<path d="M47.5802 26.1562H45.5249C45.2016 26.1562 44.9395 26.4184 44.9395 26.7417V28.797C44.9395 29.1203 45.2016 29.3825 45.5249 29.3825H47.5802C47.9035 29.3825 48.1657 29.1203 48.1657 28.797V26.7417C48.1657 26.4184 47.9035 26.1562 47.5802 26.1562Z" fill="#263238" stroke="white" stroke-width="0.5" stroke-linecap="round" stroke-linejoin="round"/>
<path d="M47.3552 27.5864H46.7355V26.9668H46.3696V27.5864H45.75V27.9523H46.3696V28.5707H46.7355V27.9523H47.3552V27.5864Z" fill="white"/>
<path opacity="0.3" d="M54.7784 11.6577C54.7784 11.7755 54.7434 11.8905 54.678 11.9884C54.6126 12.0863 54.5197 12.1626 54.4109 12.2077C54.3021 12.2527 54.1825 12.2645 54.067 12.2415C53.9515 12.2186 53.8455 12.1619 53.7622 12.0786C53.679 11.9954 53.6223 11.8893 53.5993 11.7739C53.5764 11.6584 53.5881 11.5387 53.6332 11.4299C53.6783 11.3212 53.7545 11.2282 53.8524 11.1628C53.9503 11.0974 54.0654 11.0625 54.1831 11.0625C54.341 11.0625 54.4924 11.1252 54.604 11.2368C54.7156 11.3485 54.7784 11.4999 54.7784 11.6577Z" fill="black"/>
<path opacity="0.3" d="M53.0713 11.6577C53.0713 11.7755 53.0364 11.8905 52.971 11.9884C52.9056 12.0863 52.8126 12.1626 52.7039 12.2077C52.5951 12.2527 52.4754 12.2645 52.36 12.2415C52.2445 12.2186 52.1384 12.1619 52.0552 12.0786C51.972 11.9954 51.9153 11.8893 51.8923 11.7739C51.8693 11.6584 51.8811 11.5387 51.9262 11.4299C51.9712 11.3212 52.0475 11.2282 52.1454 11.1628C52.2433 11.0974 52.3584 11.0625 52.4761 11.0625C52.634 11.0625 52.7854 11.1252 52.897 11.2368C53.0086 11.3485 53.0713 11.4999 53.0713 11.6577Z" fill="black"/>
<path opacity="0.3" d="M43.4658 35.6538C43.4658 35.6538 44.2294 35.8185 44.2562 36.3747C44.3147 37.57 44.3123 37.6066 43.4731 37.5005C43.4731 37.5005 42.9657 38.197 41.7362 37.997L41.3154 38.6288H39.1406C39.7444 37.9079 40.2299 37.3115 40.4421 37.0285C41.2215 35.9905 44.8636 34.4609 44.8636 34.4609C44.8636 34.4609 44.849 34.8574 43.4658 35.6538Z" fill="black" fill-opacity="0.7"/>
</g>
<path d="M54.7477 10.3027H27.3975C26.9293 10.3027 26.5498 10.6823 26.5498 11.1505V37.7773C26.5498 38.2455 26.9293 38.625 27.3975 38.625H54.7477C55.2159 38.625 55.5954 38.2455 55.5954 37.7773V11.1505C55.5954 10.6823 55.2159 10.3027 54.7477 10.3027Z" stroke="#263238" stroke-width="0.3" stroke-linecap="round" stroke-linejoin="round"/>
<path d="M15.9903 55.7971C15.9903 55.7971 16.2049 54.2346 16.3647 53.5906C16.5245 52.9466 17.4625 50.4546 17.6662 49.0593L15.2584 47.1406C15.2584 47.1406 14.3509 51.8208 14.3509 52.555L13.8545 54.1541" fill="white"/>
<path d="M15.9903 55.7971C15.9903 55.7971 16.2049 54.2346 16.3647 53.5906C16.5245 52.9466 17.4625 50.4546 17.6662 49.0593L15.2584 47.1406C15.2584 47.1406 14.3509 51.8208 14.3509 52.555L13.8545 54.1541" stroke="#263238" stroke-width="0.3" stroke-linecap="round" stroke-linejoin="round"/>
<path d="M18.3763 50.8241C17.873 50.4403 17.3762 50.0337 16.8858 49.6043C16.1771 48.9945 15.4868 48.3309 14.8232 47.6345C14.9838 46.8561 15.1833 46.0863 15.4209 45.3279C15.6475 44.6146 16.1308 44.0109 16.7773 43.6337L16.8017 43.6191L16.9151 43.5557C16.9858 43.5178 17.0541 43.4837 17.12 43.4544C17.3367 43.3545 17.5643 43.28 17.7982 43.2324L18.3166 50.0471L18.3763 50.8241Z" fill="#0F913D"/>
<mask id="mask2_822_42732" style="mask-type:luminance" maskUnits="userSpaceOnUse" x="14" y="43" width="5" height="8">
<path d="M18.3734 50.8241C17.8701 50.4403 17.3732 50.0337 16.8829 49.6043C16.1742 48.9945 15.4838 48.3309 14.8203 47.6345C14.9808 46.8561 15.1803 46.0863 15.418 45.3279C15.6446 44.6146 16.1279 44.0109 16.7743 43.6337L16.7987 43.6191L16.9122 43.5557C16.9829 43.5178 17.0512 43.4837 17.1171 43.4544C17.3338 43.3545 17.5614 43.28 17.7953 43.2324L18.3136 50.0471L18.3734 50.8241Z" fill="white"/>
</mask>
<g mask="url(#mask2_822_42732)">
<path opacity="0.3" d="M18.3734 50.8241C17.8701 50.4403 17.3732 50.0337 16.8829 49.6043C16.1742 48.9945 15.4838 48.3309 14.8203 47.6345C14.9808 46.8561 15.1803 46.0863 15.418 45.3279C15.6446 44.6146 16.1279 44.0109 16.7743 43.6337L16.7987 43.6191L16.9122 43.5557C16.9829 43.5178 17.0512 43.4837 17.1171 43.4544C17.3338 43.3545 17.5614 43.28 17.7953 43.2324L18.3136 50.0471L18.3734 50.8241Z" fill="black" fill-opacity="0.7"/>
</g>
<path d="M18.3763 50.8241C17.873 50.4403 17.3762 50.0337 16.8858 49.6043C16.1771 48.9945 15.4868 48.3309 14.8232 47.6345C14.9838 46.8561 15.1833 46.0863 15.4209 45.3279C15.6475 44.6146 16.1308 44.0109 16.7773 43.6337L16.8017 43.6191L16.9151 43.5557C16.9858 43.5178 17.0541 43.4837 17.12 43.4544C17.3367 43.3545 17.5643 43.28 17.7982 43.2324L18.3166 50.0471L18.3763 50.8241Z" stroke="#263238" stroke-width="0.5" stroke-linecap="round" stroke-linejoin="round"/>
<path d="M15.8682 47.0371C15.8682 47.0371 16.1487 48.9436 17.4367 49.6705" stroke="#263238" stroke-width="0.5" stroke-linecap="round" stroke-linejoin="round"/>
<path d="M28.7816 48.5834C28.7816 49.5592 27.9876 53.5062 27.9876 53.5062L27.9607 56.9739C27.9607 56.9739 26.3177 57.5192 23.666 57.5192C20.4167 57.5192 18.9774 56.6495 18.8505 56.5678L18.8408 56.5617L19.3287 54.1576C19.3287 54.1576 16.7672 48.1126 16.7172 47.9052C16.6379 47.5978 16.5696 47.2868 16.5147 46.977C16.3721 46.2613 16.3347 45.5287 16.4037 44.8022C16.4417 44.3919 16.5625 43.9936 16.7587 43.6312C16.7725 43.6068 16.7871 43.5824 16.8026 43.5581C16.8687 43.4514 16.946 43.352 17.0331 43.2617L17.0563 43.2373C17.1367 43.1569 17.2227 43.0823 17.3137 43.0141C17.3441 42.9909 17.3759 42.9689 17.4076 42.947L17.4869 42.8933L17.5381 42.8604L17.6052 42.8189L17.7088 42.7591C19.6348 41.6919 23.2196 41.8565 23.2196 41.8565C23.2591 41.8436 23.3001 41.8358 23.3416 41.8333H23.3501C23.4217 41.8292 23.4936 41.8349 23.5636 41.8504C24.4564 42.0236 26.0909 43.4812 27.2948 45.1437C27.6563 45.6345 27.9754 46.1552 28.2486 46.7001C28.5779 47.3636 28.7816 48.0174 28.7816 48.5834Z" fill="#0F913D"/>
<path opacity="0.3" d="M28.7593 48.2492C28.1125 48.0485 27.5018 47.7458 26.9504 47.3527C26.0856 47.5149 25.2513 46.6538 25.0342 46.1927L27.8713 46.0098C28.0091 46.2366 28.1335 46.4647 28.2445 46.6904C28.5 47.1784 28.6739 47.705 28.7593 48.2492Z" fill="black" fill-opacity="0.7"/>
<path opacity="0.3" d="M19.9054 54.7734C19.9054 54.7734 20.5433 57.5032 18.8503 56.5628L18.8405 56.5567L19.3284 54.1526C19.3284 54.1526 16.767 48.1076 16.717 47.9002C16.6377 47.5928 16.5694 47.2818 16.5145 46.972C16.3722 46.2575 16.3348 45.5261 16.4035 44.8009C16.4415 44.3906 16.5622 43.9922 16.7584 43.6299C16.7723 43.6055 16.7869 43.5811 16.8023 43.5567C16.8685 43.45 16.9457 43.3507 17.0329 43.2603L17.0561 43.236C17.1364 43.1555 17.2224 43.0809 17.3134 43.0127C17.3439 42.9896 17.3756 42.9676 17.4073 42.9457L17.4866 42.892L17.5378 42.859L17.6049 42.8176L17.7086 42.7578C19.4809 42.8944 21.4508 43.7336 21.8313 45.4559C21.8313 45.4559 21.6703 48.0942 21.0909 49.059C20.7311 49.6603 20.6091 52.4681 22.3887 51.6558C21.8325 54.4587 19.9054 54.7734 19.9054 54.7734Z" fill="black" fill-opacity="0.7"/>
<path d="M18.8405 56.558L19.3284 54.1539C19.3284 54.1539 16.767 48.1089 16.717 47.9015C16.6377 47.5942 16.5694 47.2831 16.5145 46.9733C16.3722 46.2588 16.3348 45.5274 16.4035 44.8022C16.4415 44.3919 16.5622 43.9936 16.7584 43.6312C16.7723 43.6068 16.7869 43.5824 16.8023 43.5581C16.8685 43.4514 16.9457 43.352 17.0329 43.2617L17.0561 43.2373C17.1364 43.1569 17.2224 43.0823 17.3134 43.0141C19.0894 41.6723 23.2194 41.8565 23.2194 41.8565C23.2589 41.8436 23.2999 41.8358 23.3414 41.8333H23.3499C23.4215 41.8292 23.4933 41.8349 23.5633 41.8504C24.4562 42.0236 26.0906 43.4812 27.2945 45.1437C27.6561 45.6345 27.9752 46.1552 28.2484 46.7001C28.5813 47.3746 28.785 48.0272 28.785 48.5895C28.785 49.5653 27.991 53.5123 27.991 53.5123L27.9642 56.98" stroke="#263238" stroke-width="0.5" stroke-linecap="round" stroke-linejoin="round"/>
<path d="M25.0072 36.3313C24.8621 36.1508 24.2144 35.7214 24.2144 35.7214C24.0924 34.8786 24.0168 33.754 23.1435 32.8819C21.9493 31.6902 19.194 32.0671 18.2913 33.8443C16.4898 37.3949 19.8953 40.7394 24.0631 40.032C24.4181 39.9722 24.6572 39.6246 24.7059 37.9743L24.8169 37.7438C24.8169 37.7438 24.7023 37.3498 24.6669 37.1522C24.8767 36.9497 25.1121 36.463 25.0072 36.3313Z" fill="white" stroke="#263238" stroke-width="0.3" stroke-linecap="round" stroke-linejoin="round"/>
<path d="M23.9832 34.4043C23.8763 34.5783 23.7942 34.7663 23.7393 34.9629" stroke="#263238" stroke-width="0.5" stroke-linecap="round" stroke-linejoin="round"/>
<path d="M24.0459 35.9922C24.0459 35.9922 24.3362 36.1678 24.4679 36.724" stroke="#263238" stroke-width="0.3" stroke-linecap="round" stroke-linejoin="round"/>
<path d="M24.7798 37.8281C24.7798 37.8281 24.6664 38.0111 24.1943 37.9574" stroke="#263238" stroke-width="0.3" stroke-linecap="round" stroke-linejoin="round"/>
<path d="M23.5425 32.4226C23.5425 32.4226 24.6402 31.9701 24.3231 34.1168C24.006 36.2636 22.4191 38.8165 21.0811 38.3383L21.1042 38.1468C21.1042 38.1468 22.2752 38.6091 23.2607 36.5734C24.2463 34.5376 24.1645 32.6702 23.601 32.9983L23.5425 32.4226Z" fill="#263238"/>
<path d="M23.4436 35.75C23.4436 35.75 23.024 36.8563 22.6886 37.2137C22.6886 37.2137 22.5532 36.7904 22.23 36.7868C21.9068 36.7831 21.6201 35.9232 21.6201 35.9232L23.4436 35.75Z" fill="#263238"/>
<path d="M22.9914 35.8008C22.9914 35.8008 22.2205 37.6804 22.7852 39.1319C23.35 40.5834 24.9417 41.6738 24.9417 41.6738L24.4282 41.4408C24.4282 41.4408 23.0768 40.5517 22.6047 39.0123C22.3273 38.036 22.3206 37.0026 22.5852 36.0228L22.9914 35.8008Z" fill="#263238"/>
<path d="M16.6385 33.2988C16.6385 33.2988 15.3541 33.8245 15.4236 35.7285C15.4931 37.6326 16.7983 39.2877 17.0605 41.715C17.2886 43.8264 14.987 45.6853 17.3179 48.1528C17.3179 48.1528 16.297 46.5671 16.608 44.7936C16.919 43.0201 17.9863 43.2751 17.1947 40.3879C16.4031 37.5008 14.7235 35.7932 16.4628 33.9526L16.6385 33.2988Z" fill="#263238"/>
<path d="M24.1279 41.1854C21.7786 39.8755 22.4202 37.0786 22.4202 37.0786C24.1876 35.7759 24.423 33.3364 24.0986 32.7083C23.7741 32.0801 23.0667 32.2948 23.0667 32.2948C20.2503 30.9531 16.7838 32.2057 16.1252 34.1781C15.2823 36.7041 16.7228 38.6447 17.4266 40.7646C18.0584 42.6699 16.5948 43.0151 16.5996 44.9117C16.3228 48.449 19.9503 49.9261 19.9503 49.9261C19.8548 49.8686 19.7757 49.7874 19.7208 49.6903C19.6659 49.5933 19.637 49.4838 19.6368 49.3723C19.6368 48.9857 20.626 48.9857 21.2773 47.8964C21.8177 46.9926 21.8604 44.7885 22.0409 43.7225C22.2848 42.7577 22.5898 41.9868 23.2204 41.8465C24.8817 41.4745 26.3148 43.087 26.3148 43.087C26.3148 43.087 26.4783 42.4954 24.1279 41.1854Z" fill="#263238"/>
<g opacity="0.3">
<path d="M23.4395 32.6816C23.6957 33.1317 21.7734 35.5126 21.0769 37.5703C20.3804 39.628 21.0891 40.8344 21.0891 40.8344" stroke="white" stroke-width="0.5" stroke-linecap="round" stroke-linejoin="round"/>
<path d="M19.1339 33.2988C19.1339 33.2988 17.0421 35.1004 18.2326 38.3949C19.423 41.6894 18.8961 43.9605 18.4997 45.7365C18.1033 47.5124 18.4253 48.1223 18.9083 48.6053" stroke="white" stroke-width="0.5" stroke-linecap="round" stroke-linejoin="round"/>
<path d="M21.765 38.7363C21.765 38.7363 22.8871 40 22.1175 41.8259C21.3478 43.6519 20.9295 44.957 20.6392 46.378C20.3489 47.799 19.7061 48.1527 19.7061 48.1527" stroke="white" stroke-width="0.5" stroke-linecap="round" stroke-linejoin="round"/>
<path d="M21.8299 32.3811C21.8299 32.3811 20.6724 32.3274 20.1223 33.807C19.5722 35.2865 20.0906 37.8431 19.8979 38.7359" stroke="white" stroke-width="0.5" stroke-linecap="round" stroke-linejoin="round"/>
<path d="M18.8384 32.3809C18.8384 32.3809 17.1405 32.4516 16.5989 34.7996C16.0574 37.1476 17.6882 39.1211 17.8614 40.9507C18.0346 42.7803 17.0076 44.4745 17.0698 45.7358C17.132 46.997 17.8614 47.6629 17.8614 47.6629" stroke="white" stroke-width="0.5" stroke-linecap="round" stroke-linejoin="round"/>
</g>
<path d="M29.4574 42.0408C29.4574 42.0408 33.1727 42.3176 33.7033 42.3176C34.2339 42.3176 39.1555 37.4387 40.024 36.4788C40.8924 35.5188 44.659 34.3125 44.659 34.3125C44.659 34.3125 44.6114 34.7114 43.1636 35.3773C43.1636 35.3773 43.9089 35.6091 43.8869 36.1653C43.8393 37.3618 43.8332 37.3984 43.0062 37.2167C43.0062 37.2167 42.4391 37.8668 41.2328 37.5582C41.2328 37.5582 38.3383 41.1589 37.0588 42.8031C35.7793 44.4473 35.2499 44.9986 34.7669 45.1779C34.2839 45.3572 28.3975 45.7402 28.3975 45.7402L29.4574 42.0408Z" fill="white" stroke="#263238" stroke-width="0.3" stroke-linecap="round" stroke-linejoin="round"/>
<path d="M24.78 46.4176C26.7071 47.6239 29.9394 46.1285 29.9394 46.1285C29.9394 46.1285 30.5188 43.5036 29.9394 41.824C29.9394 41.824 25.8863 41.0349 23.6663 41.796C23.5508 41.8397 23.4456 41.9071 23.3576 41.9939C23.2696 42.0806 23.2007 42.1848 23.1553 42.2997" fill="#0F913D"/>
<path d="M24.78 46.4176C26.7071 47.6239 29.9394 46.1285 29.9394 46.1285C29.9394 46.1285 30.5188 43.5036 29.9394 41.824C29.9394 41.824 25.8863 41.0349 23.6663 41.796C23.5508 41.8397 23.4456 41.9071 23.3576 41.9939C23.2696 42.0806 23.2007 42.1848 23.1553 42.2997" stroke="#263238" stroke-width="0.5" stroke-linecap="round" stroke-linejoin="round"/>
<path d="M29.4268 41.7363C29.7496 43.0872 29.7763 44.492 29.5048 45.8542" stroke="#263238" stroke-width="0.5" stroke-linecap="round" stroke-linejoin="round"/>
<path d="M28.7822 43.4258C28.7822 43.4258 27.4405 45.614 25.7256 45.936" stroke="#263238" stroke-width="0.5" stroke-linecap="round" stroke-linejoin="round"/>
<path d="M27.5336 46.8223C27.5336 46.8223 26.642 47.8798 25.5479 47.8798" stroke="#263238" stroke-width="0.5" stroke-linecap="round" stroke-linejoin="round"/>
<path d="M26.675 46.8887C26.7586 47.0956 26.7586 47.327 26.675 47.5339C26.675 47.5339 26.8262 48.1694 26.5408 49.0854C26.331 49.7612 26.3407 51.6774 26.2432 53.0252C26.2432 53.0252 26.553 54.6511 26.5408 57.0954" stroke="#263238" stroke-width="0.5" stroke-linecap="round" stroke-linejoin="round"/>
<path d="M24.6123 41.5731C24.6123 41.5731 26.2724 41.4633 27.253 42.6209" stroke="#263238" stroke-width="0.5" stroke-linecap="round" stroke-linejoin="round"/>
<path d="M43.5832 36.4922C43.5832 36.4922 43.3393 36.9142 43.0526 37.0106C43.0526 37.0106 43.0307 37.4509 42.2939 37.5985" stroke="#263238" stroke-width="0.5" stroke-linecap="round" stroke-linejoin="round"/>
<path d="M43.3799 36.7695C43.4496 36.8104 43.5024 36.8748 43.5287 36.9513" stroke="#263238" stroke-width="0.5" stroke-linecap="round" stroke-linejoin="round"/>
<path d="M19.3232 54.1543C19.3232 54.1543 21.0382 56.3901 22.6726 55.5863" stroke="#263238" stroke-width="0.5" stroke-linecap="round" stroke-linejoin="round"/>
<path d="M23.6662 49.5234C23.6662 49.5234 22.5087 53.0765 19.9033 52.9155" stroke="#263238" stroke-width="0.5" stroke-linecap="round" stroke-linejoin="round"/>
</svg>
