<svg width="69" height="69" viewBox="0 0 69 69" fill="none" xmlns="http://www.w3.org/2000/svg">
<rect width="69" height="69" rx="34.5" fill="#F5F5F5"/>
<path d="M17.1774 49.6543V23.8499C17.1776 22.7331 16.8353 21.6431 16.1966 20.7269L15.2949 19.4355H31.3145L32.2162 20.7269C32.8548 21.6431 33.1971 22.7331 33.1969 23.8499V49.4096" stroke="#263238" stroke-width="1.8" stroke-linecap="round" stroke-linejoin="round"/>
<path d="M51.2209 55.311C52.1369 55.311 52.8794 54.5685 52.8794 53.6526C52.8794 52.7366 52.1369 51.9941 51.2209 51.9941C50.305 51.9941 49.5625 52.7366 49.5625 53.6526C49.5625 54.5685 50.305 55.311 51.2209 55.311Z" fill="#263238"/>
<path opacity="0.4" d="M52.0519 53.6523C52.0523 53.4881 52.0039 53.3274 51.9129 53.1906C51.8219 53.0539 51.6924 52.9472 51.5408 52.884C51.3891 52.8209 51.2221 52.8042 51.061 52.836C50.8998 52.8679 50.7517 52.9468 50.6354 53.0628C50.5191 53.1788 50.4399 53.3267 50.4077 53.4878C50.3755 53.6489 50.3918 53.8159 50.4546 53.9677C50.5174 54.1195 50.6238 54.2493 50.7603 54.3406C50.8969 54.4319 51.0575 54.4806 51.2218 54.4806C51.3307 54.4809 51.4386 54.4596 51.5393 54.4181C51.64 54.3766 51.7315 54.3156 51.8087 54.2387C51.8858 54.1618 51.9469 54.0704 51.9887 53.9698C52.0304 53.8691 52.0519 53.7613 52.0519 53.6523Z" fill="white"/>
<path d="M51.0211 54.0207C50.8918 54.0205 50.7656 53.9807 50.6596 53.9067C50.5536 53.8327 50.4728 53.7279 50.4282 53.6065L49.4512 50.9297H51.6517V53.39C51.6517 53.5573 51.5853 53.7177 51.467 53.8359C51.3488 53.9542 51.1884 54.0207 51.0211 54.0207Z" fill="#263238"/>
<path opacity="0.2" d="M51.0211 54.0207C50.8918 54.0205 50.7656 53.9807 50.6596 53.9067C50.5536 53.8327 50.4728 53.7279 50.4282 53.6065L49.4512 50.9297H51.6517V53.39C51.6517 53.5573 51.5853 53.7177 51.467 53.8359C51.3488 53.9542 51.1884 54.0207 51.0211 54.0207Z" fill="white"/>
<path d="M32.7737 55.311C33.6896 55.311 34.4321 54.5685 34.4321 53.6526C34.4321 52.7366 33.6896 51.9941 32.7737 51.9941C31.8577 51.9941 31.1152 52.7366 31.1152 53.6526C31.1152 54.5685 31.8577 55.311 32.7737 55.311Z" fill="#263238"/>
<path opacity="0.4" d="M33.6037 53.6523C33.604 53.4881 33.5557 53.3274 33.4647 53.1906C33.3737 53.0539 33.2442 52.9472 33.0925 52.884C32.9408 52.8209 32.7739 52.8042 32.6127 52.836C32.4516 52.8679 32.3035 52.9468 32.1872 53.0628C32.0709 53.1788 31.9916 53.3267 31.9594 53.4878C31.9273 53.6489 31.9436 53.8159 32.0064 53.9677C32.0691 54.1195 32.1755 54.2493 32.3121 54.3406C32.4487 54.4319 32.6092 54.4806 32.7735 54.4806C32.8824 54.4809 32.9903 54.4596 33.0911 54.4181C33.1918 54.3766 33.2833 54.3156 33.3604 54.2387C33.4375 54.1618 33.4987 54.0704 33.5404 53.9698C33.5822 53.8691 33.6037 53.7613 33.6037 53.6523Z" fill="white"/>
<path d="M32.5739 54.0207C32.4445 54.0205 32.3184 53.9807 32.2123 53.9067C32.1063 53.8327 32.0255 53.7279 31.9809 53.6065L31.0039 50.9297H33.2045V53.39C33.2045 53.5573 33.138 53.7177 33.0198 53.8359C32.9015 53.9542 32.7411 54.0207 32.5739 54.0207Z" fill="#263238"/>
<path opacity="0.2" d="M32.5739 54.0207C32.4445 54.0205 32.3184 53.9807 32.2123 53.9067C32.1063 53.8327 32.0255 53.7279 31.9809 53.6065L31.0039 50.9297H33.2045V53.39C33.2045 53.5573 33.138 53.7177 33.0198 53.8359C32.9015 53.9542 32.7411 54.0207 32.5739 54.0207Z" fill="white"/>
<path d="M54.0731 49V50.5662C54.0731 50.7065 54.0174 50.841 53.9182 50.9402C53.819 51.0394 53.6845 51.0952 53.5442 51.0952H16.4733C16.333 51.0952 16.1985 51.0394 16.0993 50.9402C16.0001 50.841 15.9443 50.7065 15.9443 50.5662V49H54.0731Z" fill="#263238"/>
<path opacity="0.4" d="M54.0731 49V50.5662C54.0731 50.7065 54.0174 50.841 53.9182 50.9402C53.819 51.0394 53.6845 51.0952 53.5442 51.0952H16.4733C16.333 51.0952 16.1985 51.0394 16.0993 50.9402C16.0001 50.841 15.9443 50.7065 15.9443 50.5662V49H54.0731Z" fill="white"/>
<path opacity="0.2" d="M40.8961 49V50.5662C40.8961 50.7065 40.8403 50.841 40.7411 50.9402C40.6419 51.0394 40.5074 51.0952 40.3671 51.0952H16.4733C16.333 51.0952 16.1985 51.0394 16.0993 50.9402C16.0001 50.841 15.9443 50.7065 15.9443 50.5662V49H40.8961Z" fill="white"/>
<path d="M37.8557 55.311C38.7716 55.311 39.5141 54.5685 39.5141 53.6526C39.5141 52.7366 38.7716 51.9941 37.8557 51.9941C36.9398 51.9941 36.1973 52.7366 36.1973 53.6526C36.1973 54.5685 36.9398 55.311 37.8557 55.311Z" fill="#263238"/>
<path opacity="0.6" d="M38.6867 53.6523C38.6871 53.4881 38.6387 53.3274 38.5477 53.1906C38.4567 53.0539 38.3272 52.9472 38.1755 52.884C38.0239 52.8209 37.8569 52.8042 37.6957 52.836C37.5346 52.8679 37.3865 52.9468 37.2702 53.0628C37.1539 53.1788 37.0746 53.3267 37.0425 53.4878C37.0103 53.6489 37.0266 53.8159 37.0894 53.9677C37.1522 54.1195 37.2586 54.2493 37.3951 54.3406C37.5317 54.4319 37.6923 54.4806 37.8565 54.4806C37.9655 54.4809 38.0734 54.4596 38.1741 54.4181C38.2748 54.3766 38.3663 54.3156 38.4434 54.2387C38.5205 54.1618 38.5817 54.0704 38.6234 53.9698C38.6652 53.8691 38.6867 53.7613 38.6867 53.6523Z" fill="white"/>
<path d="M37.6559 54.0207C37.5266 54.0205 37.4004 53.9807 37.2944 53.9067C37.1883 53.8327 37.1076 53.7279 37.0629 53.6065L36.0859 50.9297H38.2865V53.39C38.2865 53.5573 38.2201 53.7177 38.1018 53.8359C37.9835 53.9542 37.8231 54.0207 37.6559 54.0207Z" fill="#263238"/>
<path opacity="0.4" d="M37.6559 54.0207C37.5266 54.0205 37.4004 53.9807 37.2944 53.9067C37.1883 53.8327 37.1076 53.7279 37.0629 53.6065L36.0859 50.9297H38.2865V53.39C38.2865 53.5573 38.2201 53.7177 38.1018 53.8359C37.9835 53.9542 37.8231 54.0207 37.6559 54.0207Z" fill="white"/>
<path d="M19.4084 55.311C20.3244 55.311 21.0669 54.5685 21.0669 53.6526C21.0669 52.7366 20.3244 51.9941 19.4084 51.9941C18.4925 51.9941 17.75 52.7366 17.75 53.6526C17.75 54.5685 18.4925 55.311 19.4084 55.311Z" fill="#263238"/>
<path opacity="0.6" d="M20.2375 53.6523C20.2378 53.4881 20.1895 53.3274 20.0985 53.1906C20.0075 53.0539 19.878 52.9472 19.7263 52.884C19.5746 52.8209 19.4077 52.8042 19.2465 52.836C19.0853 52.8679 18.9373 52.9468 18.821 53.0628C18.7047 53.1788 18.6254 53.3267 18.5932 53.4878C18.5611 53.6489 18.5774 53.8159 18.6402 53.9677C18.7029 54.1195 18.8093 54.2493 18.9459 54.3406C19.0825 54.4319 19.243 54.4806 19.4073 54.4806C19.5162 54.4809 19.6241 54.4596 19.7248 54.4181C19.8256 54.3766 19.9171 54.3156 19.9942 54.2387C20.0713 54.1618 20.1325 54.0704 20.1742 53.9698C20.216 53.8691 20.2375 53.7613 20.2375 53.6523Z" fill="white"/>
<path d="M19.2086 54.0207C19.0793 54.0205 18.9531 53.9807 18.8471 53.9067C18.7411 53.8327 18.6603 53.7279 18.6157 53.6065L17.6387 50.9297H19.8392V53.39C19.8392 53.5573 19.7728 53.7177 19.6545 53.8359C19.5363 53.9542 19.3759 54.0207 19.2086 54.0207Z" fill="#263238"/>
<path opacity="0.4" d="M19.2086 54.0207C19.0793 54.0205 18.9531 53.9807 18.8471 53.9067C18.7411 53.8327 18.6603 53.7279 18.6157 53.6065L17.6387 50.9297H19.8392V53.39C19.8392 53.5573 19.7728 53.7177 19.6545 53.8359C19.5363 53.9542 19.3759 54.0207 19.2086 54.0207Z" fill="white"/>
<path d="M38.0889 36.8496H20.5352V49.0007H38.0889V36.8496Z" fill="#0F913D"/>
<path opacity="0.4" d="M38.0889 36.8496H20.5352V49.0007H38.0889V36.8496Z" fill="white"/>
<path opacity="0.2" d="M28.6805 36.8496H20.5352V49.0007H28.6805V36.8496Z" fill="white"/>
<path opacity="0.2" d="M27.9113 46.4316H26.8929C26.7973 46.4316 26.7197 46.5092 26.7197 46.6048V47.9959C26.7197 48.0916 26.7973 48.1691 26.8929 48.1691H27.9113C28.007 48.1691 28.0845 48.0916 28.0845 47.9959V46.6048C28.0845 46.5092 28.007 46.4316 27.9113 46.4316Z" fill="black"/>
<path opacity="0.2" d="M26.0734 46.4316H25.055C24.9594 46.4316 24.8818 46.5092 24.8818 46.6048V47.9959C24.8818 48.0916 24.9594 48.1691 25.055 48.1691H26.0734C26.1691 48.1691 26.2466 48.0916 26.2466 47.9959V46.6048C26.2466 46.5092 26.1691 46.4316 26.0734 46.4316Z" fill="black"/>
<path opacity="0.4" d="M34.3153 36.8496H33.3232V38.1165H34.3153V36.8496Z" fill="black"/>
<path opacity="0.2" d="M37.0276 42.0371H30.1943V43.6259H37.0276V42.0371Z" fill="black"/>
<path opacity="0.2" d="M23.4025 37.4824H21.0664V39.8185H23.4025V37.4824Z" fill="black"/>
<path d="M39.8809 24.6973H22.3271V36.8484H39.8809V24.6973Z" fill="#0F913D"/>
<path opacity="0.4" d="M39.8809 24.6973H22.3271V36.8484H39.8809V24.6973Z" fill="black"/>
<path opacity="0.2" d="M30.4725 24.6973H22.3271V36.8484H30.4725V24.6973Z" fill="white"/>
<path opacity="0.2" d="M29.7053 34.2793H28.6869C28.5912 34.2793 28.5137 34.3568 28.5137 34.4525V35.8436C28.5137 35.9393 28.5912 36.0168 28.6869 36.0168H29.7053C29.8009 36.0168 29.8784 35.9393 29.8784 35.8436V34.4525C29.8784 34.3568 29.8009 34.2793 29.7053 34.2793Z" fill="black"/>
<path opacity="0.2" d="M27.8674 34.2793H26.849C26.7533 34.2793 26.6758 34.3568 26.6758 34.4525V35.8436C26.6758 35.9393 26.7533 36.0168 26.849 36.0168H27.8674C27.963 36.0168 28.0405 35.9393 28.0405 35.8436V34.4525C28.0405 34.3568 27.963 34.2793 27.8674 34.2793Z" fill="black"/>
<path opacity="0.4" d="M36.1063 24.6973H35.1143V25.9641H36.1063V24.6973Z" fill="black"/>
<path opacity="0.2" d="M38.8186 29.8867H31.9854V31.4755H38.8186V29.8867Z" fill="black"/>
<path opacity="0.2" d="M25.1965 25.3301H22.8604V27.6662H25.1965V25.3301Z" fill="black"/>
<path d="M50.626 24.6973H33.0723V36.8484H50.626V24.6973Z" fill="#0F913D"/>
<path opacity="0.4" d="M50.626 24.6973H33.0723V36.8484H50.626V24.6973Z" fill="white"/>
<path opacity="0.2" d="M41.2176 24.6973H33.0723V36.8484H41.2176V24.6973Z" fill="white"/>
<path opacity="0.2" d="M40.4504 34.2793H39.432C39.3363 34.2793 39.2588 34.3568 39.2588 34.4525V35.8436C39.2588 35.9393 39.3363 36.0168 39.432 36.0168H40.4504C40.546 36.0168 40.6236 35.9393 40.6236 35.8436V34.4525C40.6236 34.3568 40.546 34.2793 40.4504 34.2793Z" fill="black"/>
<path opacity="0.2" d="M38.6125 34.2793H37.5941C37.4984 34.2793 37.4209 34.3568 37.4209 34.4525V35.8436C37.4209 35.9393 37.4984 36.0168 37.5941 36.0168H38.6125C38.7081 36.0168 38.7857 35.9393 38.7857 35.8436V34.4525C38.7857 34.3568 38.7081 34.2793 38.6125 34.2793Z" fill="black"/>
<path opacity="0.4" d="M46.8514 24.6973H45.8594V25.9641H46.8514V24.6973Z" fill="black"/>
<path opacity="0.2" d="M49.5647 29.8867H42.7314V31.4755H49.5647V29.8867Z" fill="black"/>
<path opacity="0.2" d="M35.9416 25.3301H33.6055V27.6662H35.9416V25.3301Z" fill="black"/>
<path d="M44.5557 12.5469H27.002V24.698H44.5557V12.5469Z" fill="#0F913D"/>
<path opacity="0.2" d="M35.1473 12.5469H27.002V24.698H35.1473V12.5469Z" fill="white"/>
<path opacity="0.2" d="M34.3771 22.1289H33.3587C33.2631 22.1289 33.1855 22.2064 33.1855 22.3021V23.6932C33.1855 23.7889 33.2631 23.8664 33.3587 23.8664H34.3771C34.4728 23.8664 34.5503 23.7889 34.5503 23.6932V22.3021C34.5503 22.2064 34.4728 22.1289 34.3771 22.1289Z" fill="black"/>
<path opacity="0.2" d="M32.5422 22.1289H31.5238C31.4281 22.1289 31.3506 22.2064 31.3506 22.3021V23.6932C31.3506 23.7889 31.4281 23.8664 31.5238 23.8664H32.5422C32.6378 23.8664 32.7154 23.7889 32.7154 23.6932V22.3021C32.7154 22.2064 32.6378 22.1289 32.5422 22.1289Z" fill="black"/>
<path opacity="0.4" d="M40.7811 12.5469H39.7891V13.8138H40.7811V12.5469Z" fill="black"/>
<path opacity="0.2" d="M43.4934 17.7344H36.6602V19.3232H43.4934V17.7344Z" fill="black"/>
<path opacity="0.2" d="M29.8683 13.1797H27.5322V15.5158H29.8683V13.1797Z" fill="black"/>
<path d="M49.2598 36.8496H31.7061V49.0007H49.2598V36.8496Z" fill="#263238"/>
<path opacity="0.2" d="M49.2598 36.8496H31.7061V49.0007H49.2598V36.8496Z" fill="white"/>
<path opacity="0.2" d="M39.8514 36.8496H31.7061V49.0007H39.8514V36.8496Z" fill="white"/>
<path opacity="0.2" d="M39.0812 46.4316H38.0628C37.9672 46.4316 37.8896 46.5092 37.8896 46.6048V47.9959C37.8896 48.0916 37.9672 48.1691 38.0628 48.1691H39.0812C39.1769 48.1691 39.2544 48.0916 39.2544 47.9959V46.6048C39.2544 46.5092 39.1769 46.4316 39.0812 46.4316Z" fill="black"/>
<path opacity="0.2" d="M37.2433 46.4316H36.2249C36.1293 46.4316 36.0518 46.5092 36.0518 46.6048V47.9959C36.0518 48.0916 36.1293 48.1691 36.2249 48.1691H37.2433C37.339 48.1691 37.4165 48.0916 37.4165 47.9959V46.6048C37.4165 46.5092 37.339 46.4316 37.2433 46.4316Z" fill="black"/>
<path opacity="0.4" d="M45.4852 36.8496H44.4932V38.1165H45.4852V36.8496Z" fill="black"/>
<path opacity="0.2" d="M48.1975 42.0371H41.3643V43.6259H48.1975V42.0371Z" fill="black"/>
<path opacity="0.2" d="M34.5724 37.4824H32.2363V39.8185H34.5724V37.4824Z" fill="black"/>
</svg>
