<svg width="122" height="126" viewBox="0 0 122 126" fill="none" xmlns="http://www.w3.org/2000/svg">
<g opacity="0.2">
<path d="M28.5709 24.0467C28.3917 25.6697 27.9261 27.2481 27.1955 28.7084C26.3976 30.4723 26.2926 32.1941 25.1587 33.8635C30.4923 34.1365 34.5135 34.5355 36.5293 34.273C38.7762 31.1232 38.8707 26.5771 38.3772 23.0493C35.2274 24.0047 31.3742 23.0493 28.0985 23.8473L28.5709 24.0467Z" fill="black"/>
</g>
<path d="M28.6759 22.7068C28.2915 24.3102 27.6307 25.8344 26.7231 27.211C25.676 28.9296 24.489 30.559 23.1743 32.0826C26.9544 32.6073 30.7757 32.7725 34.587 32.5761C37.0617 30.029 38.4248 26.6042 38.3772 23.0533C34.5765 22.9378 28.6759 22.7068 28.6759 22.7068Z" fill="white"/>
<g opacity="0.2">
<path d="M11.898 37.4608C11.7173 39.0835 11.2517 40.6616 10.5226 42.1225C9.72467 43.8758 10.1657 45.5977 9.03174 47.2671C14.3653 47.5506 18.3865 47.9495 20.4129 47.6871C22.6492 44.5373 22.1977 39.9911 21.7043 36.4634C18.5545 37.4083 14.7013 36.4634 11.4256 37.2613L11.898 37.4608Z" fill="black"/>
</g>
<path d="M12.003 36.1008C11.617 37.707 10.9563 39.2343 10.0502 40.6155C9.00309 42.3341 7.81619 43.9635 6.50146 45.4871C10.282 46.0063 14.1028 46.1716 17.9141 45.9806C20.4003 43.4378 21.7781 40.0139 21.7463 36.4578C17.9036 36.3528 12.003 36.1008 12.003 36.1008Z" fill="white"/>
<g opacity="0.2">
<path d="M46.2055 23.2084C46.028 24.8304 45.566 26.4084 44.8406 27.87C44.0426 29.6234 43.8746 31.3453 42.7407 33.0146C48.0848 33.2981 52.106 33.6971 54.1219 33.4346C56.3687 30.2848 56.5262 25.7387 56.0433 22.2109C52.8935 23.1559 49.0298 22.2109 45.754 23.0089L46.2055 23.2084Z" fill="black"/>
</g>
<path d="M46.317 21.8477C45.9309 23.4538 45.2703 24.9811 44.3642 26.3623C43.3171 28.0809 42.1302 29.7103 40.8154 31.234C44.596 31.7532 48.4168 31.9184 52.2281 31.7274C54.6978 29.1764 56.0633 25.7552 56.0288 22.2046C52.1966 22.0891 46.317 21.8477 46.317 21.8477Z" fill="#5856D6"/>
<g opacity="0.2">
<path d="M111.355 111.882C111.174 113.505 110.708 115.083 109.979 116.544C109.181 118.297 109.013 120.019 107.879 121.688C113.213 121.961 117.234 122.371 119.25 122.108C121.497 118.959 121.654 114.402 121.171 110.885C118.022 111.83 114.168 110.885 110.882 111.672L111.355 111.882Z" fill="black"/>
</g>
<path d="M111.461 110.531C111.075 112.138 110.414 113.665 109.508 115.046C108.464 116.763 107.276 118.389 105.959 119.907C109.743 120.429 113.568 120.597 117.383 120.411C119.843 117.859 121.204 114.444 121.173 110.899C117.362 110.773 111.461 110.531 111.461 110.531Z" fill="#5856D6"/>
<g opacity="0.2">
<path d="M90.5705 115.278C90.3913 116.901 89.9256 118.48 89.1951 119.94C88.3866 121.704 88.2186 123.426 87.0952 125.095C92.4288 125.368 96.45 125.767 98.4764 125.504C100.713 122.355 100.881 117.809 100.387 114.281C97.2375 115.226 93.3843 114.281 90.098 115.079L90.5705 115.278Z" fill="black"/>
</g>
<path d="M90.6732 113.936C90.2831 115.539 89.6189 117.063 88.7099 118.44C87.6628 120.158 86.4759 121.788 85.1611 123.311C88.9452 123.831 92.7695 123.996 96.5843 123.805C99.0541 121.255 100.416 117.832 100.375 114.282C96.5738 114.167 90.6732 113.936 90.6732 113.936Z" fill="#5856D6"/>
<g opacity="0.2">
<path d="M71.9113 112.054C71.7334 113.677 71.2676 115.255 70.5359 116.715C69.7379 118.479 69.57 120.201 68.436 121.87C73.7696 122.143 77.7908 122.542 79.8067 122.28C82.0535 119.13 82.211 114.584 81.7281 111.056C78.5783 112.012 74.7251 111.056 71.4388 111.854L71.9113 112.054Z" fill="black"/>
</g>
<path d="M72.0192 110.714C71.6331 112.32 70.9724 113.848 70.0663 115.229C69.0165 116.942 67.8297 118.568 66.5176 120.09C70.3015 120.611 74.1256 120.78 77.9407 120.594C80.4053 118.036 81.7665 114.612 81.7309 111.061C77.9302 110.903 72.0192 110.714 72.0192 110.714Z" fill="white"/>
<path d="M121.502 13.6543H60.354V103.549H121.502V13.6543Z" fill="#263238"/>
<path d="M119.02 102.428H56.8643L59.8775 66.7304C60.4006 60.5505 60.6039 54.3477 60.4865 48.1468L59.783 12.5125H120.616L120.899 56.2207C120.899 59.7485 120.899 63.2762 120.689 66.7934L119.02 102.428Z" fill="white" stroke="#263238" stroke-linecap="round" stroke-linejoin="round"/>
<path d="M116.438 101.211H53.6211L55.5425 91.216C59.6477 66.7528 60.6661 55.9176 60.0991 24.2204L59.4482 11.3169H119.031L119.735 23.5065C121.247 76.5486 116.438 101.211 116.438 101.211Z" fill="white" stroke="#263238" stroke-linecap="round" stroke-linejoin="round"/>
<path d="M62.9782 15.8497C62.5705 15.8169 62.1902 15.6318 61.9128 15.3312C61.6355 15.0306 61.4814 14.6366 61.4814 14.2276C61.4814 13.8186 61.6355 13.4246 61.9128 13.124C62.1902 12.8234 62.5705 12.6383 62.9782 12.6055C63.0423 12.6055 63.1037 12.6309 63.149 12.6762C63.1943 12.7215 63.2197 12.7829 63.2197 12.847C63.2197 12.911 63.1943 12.9724 63.149 13.0177C63.1037 13.063 63.0423 13.0884 62.9782 13.0884C62.7519 13.0884 62.5306 13.1556 62.3424 13.2813C62.1542 13.4071 62.0075 13.5858 61.9209 13.7949C61.8343 14.004 61.8117 14.2341 61.8558 14.4561C61.9 14.6781 62.009 14.882 62.169 15.0421C62.3291 15.2021 62.533 15.3111 62.755 15.3553C62.9769 15.3994 63.2071 15.3768 63.4162 15.2902C63.6253 15.2035 63.804 15.0568 63.9298 14.8687C64.0555 14.6805 64.1226 14.4592 64.1226 14.2329C64.1226 14.2011 64.1289 14.1697 64.141 14.1404C64.1532 14.1111 64.1709 14.0845 64.1934 14.0621C64.2158 14.0397 64.2424 14.0219 64.2717 14.0097C64.301 13.9976 64.3324 13.9914 64.3641 13.9914C64.3958 13.9914 64.4272 13.9976 64.4565 14.0097C64.4858 14.0219 64.5124 14.0397 64.5349 14.0621C64.5573 14.0845 64.5751 14.1111 64.5872 14.1404C64.5994 14.1697 64.6056 14.2011 64.6056 14.2329C64.6028 14.6626 64.4301 15.0739 64.1253 15.3768C63.8204 15.6797 63.408 15.8497 62.9782 15.8497Z" fill="#263238"/>
<path d="M62.9438 15.1754C61.4529 15.1754 61.3794 12.0257 61.3794 11.3327C61.3794 10.6923 61.4529 7.46899 62.9438 7.46899C64.4347 7.46899 64.5292 10.9442 64.5397 11.3432H63.2483C63.2443 10.5973 63.1383 9.85552 62.9333 9.13838C62.7448 9.84701 62.6564 10.5786 62.6708 11.3117C62.6517 12.0492 62.7437 12.7854 62.9438 13.4956C62.9438 13.4956 62.9438 13.4011 62.9438 13.3381L63.0488 12.9916L63.9412 13.2541C64.0315 13.2809 64.1075 13.3422 64.1527 13.4248C64.198 13.5074 64.2088 13.6045 64.1827 13.695C63.9622 14.682 63.5317 15.1754 62.9438 15.1754Z" fill="#263238"/>
<path d="M64.3632 14.4743C64.2992 14.4743 64.2377 14.4489 64.1925 14.4036C64.1472 14.3583 64.1217 14.2969 64.1217 14.2329C64.1217 13.9293 64.0012 13.6382 63.7865 13.4236C63.5719 13.209 63.2808 13.0884 62.9773 13.0884C62.9456 13.0884 62.9142 13.0822 62.8849 13.0701C62.8556 13.0579 62.829 13.0401 62.8066 13.0177C62.7841 12.9953 62.7663 12.9687 62.7542 12.9394C62.7421 12.9101 62.7358 12.8787 62.7358 12.847C62.7384 12.7837 62.7647 12.7238 62.8094 12.6791C62.8542 12.6343 62.9141 12.6081 62.9773 12.6055C63.4081 12.6082 63.8204 12.7806 64.125 13.0852C64.4296 13.3898 64.6019 13.8021 64.6047 14.2329C64.6021 14.2961 64.5758 14.356 64.5311 14.4007C64.4864 14.4455 64.4264 14.4718 64.3632 14.4743Z" fill="#263238"/>
<path d="M70.6223 15.8497C70.2146 15.8169 69.8342 15.6318 69.5569 15.3312C69.2795 15.0306 69.1255 14.6366 69.1255 14.2276C69.1255 13.8186 69.2795 13.4246 69.5569 13.124C69.8342 12.8234 70.2146 12.6383 70.6223 12.6055C70.6863 12.6055 70.7477 12.6309 70.793 12.6762C70.8383 12.7215 70.8637 12.7829 70.8637 12.847C70.8637 12.911 70.8383 12.9724 70.793 13.0177C70.7477 13.063 70.6863 13.0884 70.6223 13.0884C70.3959 13.0884 70.1747 13.1556 69.9865 13.2813C69.7983 13.4071 69.6516 13.5858 69.565 13.7949C69.4783 14.004 69.4557 14.2341 69.4999 14.4561C69.544 14.6781 69.653 14.882 69.8131 15.0421C69.9731 15.2021 70.177 15.3111 70.399 15.3553C70.621 15.3994 70.8511 15.3768 71.0602 15.2902C71.2693 15.2035 71.4481 15.0568 71.5738 14.8687C71.6996 14.6805 71.7667 14.4592 71.7667 14.2329C71.7667 14.2011 71.7729 14.1697 71.7851 14.1404C71.7972 14.1111 71.815 14.0845 71.8374 14.0621C71.8598 14.0397 71.8865 14.0219 71.9158 14.0097C71.9451 13.9976 71.9764 13.9914 72.0082 13.9914C72.0399 13.9914 72.0713 13.9976 72.1006 14.0097C72.1299 14.0219 72.1565 14.0397 72.1789 14.0621C72.2013 14.0845 72.2191 14.1111 72.2313 14.1404C72.2434 14.1697 72.2497 14.2011 72.2497 14.2329C72.2469 14.6626 72.0742 15.0739 71.7693 15.3768C71.4644 15.6797 71.0521 15.8497 70.6223 15.8497Z" fill="#263238"/>
<path d="M70.5859 15.1754C69.1055 15.1754 69.0215 12.0257 69.0215 11.3327C69.0215 10.6923 69.095 7.46899 70.5859 7.46899C72.0767 7.46899 72.1398 10.9232 72.1398 11.3222H70.8483C70.8444 10.5763 70.7384 9.83452 70.5334 9.11737C70.3448 9.82601 70.2565 10.5576 70.2709 11.2907C70.2518 12.0282 70.3438 12.7644 70.5439 13.4746C70.5464 13.4221 70.5464 13.3695 70.5439 13.3171L70.6489 12.9706L71.5413 13.2331C71.6316 13.2599 71.7076 13.3212 71.7528 13.4038C71.7981 13.4864 71.8088 13.5835 71.7828 13.674C71.6043 14.682 71.1738 15.1754 70.5859 15.1754Z" fill="#263238"/>
<path d="M72.0072 14.4743C71.9432 14.4743 71.8818 14.4489 71.8365 14.4036C71.7912 14.3583 71.7658 14.2969 71.7658 14.2329C71.7658 13.9293 71.6452 13.6382 71.4306 13.4236C71.216 13.209 70.9249 13.0884 70.6213 13.0884C70.5896 13.0884 70.5582 13.0822 70.5289 13.0701C70.4996 13.0579 70.473 13.0401 70.4506 13.0177C70.4282 12.9953 70.4104 12.9687 70.3982 12.9394C70.3861 12.9101 70.3799 12.8787 70.3799 12.847C70.3825 12.7837 70.4087 12.7238 70.4535 12.6791C70.4982 12.6343 70.5581 12.6081 70.6213 12.6055C71.0521 12.6082 71.4645 12.7806 71.7691 13.0852C72.0737 13.3898 72.246 13.8021 72.2487 14.2329C72.2462 14.2961 72.2199 14.356 72.1751 14.4007C72.1304 14.4455 72.0705 14.4718 72.0072 14.4743Z" fill="#263238"/>
<path d="M78.2643 15.8497C77.8567 15.8169 77.4763 15.6318 77.1989 15.3312C76.9216 15.0306 76.7676 14.6366 76.7676 14.2276C76.7676 13.8186 76.9216 13.4246 77.1989 13.124C77.4763 12.8234 77.8567 12.6383 78.2643 12.6055C78.3284 12.6055 78.3898 12.6309 78.4351 12.6762C78.4804 12.7215 78.5058 12.7829 78.5058 12.847C78.5058 12.911 78.4804 12.9724 78.4351 13.0177C78.3898 13.063 78.3284 13.0884 78.2643 13.0884C78.038 13.0884 77.8168 13.1556 77.6286 13.2813C77.4404 13.4071 77.2937 13.5858 77.2071 13.7949C77.1204 14.004 77.0978 14.2341 77.1419 14.4561C77.1861 14.6781 77.2951 14.882 77.4551 15.0421C77.6152 15.2021 77.8191 15.3111 78.0411 15.3553C78.2631 15.3994 78.4932 15.3768 78.7023 15.2902C78.9114 15.2035 79.0902 15.0568 79.2159 14.8687C79.3417 14.6805 79.4088 14.4592 79.4088 14.2329C79.4088 14.2011 79.415 14.1697 79.4271 14.1404C79.4393 14.1111 79.4571 14.0845 79.4795 14.0621C79.5019 14.0397 79.5285 14.0219 79.5578 14.0097C79.5871 13.9976 79.6185 13.9914 79.6503 13.9914C79.682 13.9914 79.7134 13.9976 79.7427 14.0097C79.772 14.0219 79.7986 14.0397 79.821 14.0621C79.8434 14.0845 79.8612 14.1111 79.8734 14.1404C79.8855 14.1697 79.8917 14.2011 79.8917 14.2329C79.889 14.6626 79.7163 15.0739 79.4114 15.3768C79.1065 15.6797 78.6941 15.8497 78.2643 15.8497Z" fill="#263238"/>
<path d="M78.2299 15.1754C76.7495 15.1754 76.6655 12.0257 76.6655 11.3327C76.6655 10.6923 76.739 7.46899 78.2299 7.46899C79.7208 7.46899 79.8153 10.9442 79.8258 11.3432H78.5344C78.5304 10.5973 78.4245 9.85552 78.2194 9.13838C78.0309 9.84701 77.9425 10.5786 77.9569 11.3117C77.9378 12.0492 78.0298 12.7854 78.2299 13.4956C78.2324 13.4431 78.2324 13.3905 78.2299 13.3381L78.3349 12.9916L79.2273 13.2541C79.3176 13.2809 79.3936 13.3422 79.4389 13.4248C79.4841 13.5074 79.4949 13.6045 79.4688 13.695C79.2484 14.682 78.8179 15.1754 78.2299 15.1754Z" fill="#263238"/>
<path d="M79.6513 14.4743C79.6196 14.4743 79.5882 14.4681 79.5589 14.456C79.5296 14.4438 79.503 14.426 79.4805 14.4036C79.4581 14.3812 79.4403 14.3546 79.4282 14.3253C79.4161 14.296 79.4098 14.2646 79.4098 14.2329C79.4098 13.9293 79.2892 13.6382 79.0746 13.4236C78.86 13.209 78.5689 13.0884 78.2654 13.0884C78.2337 13.0884 78.2023 13.0822 78.173 13.0701C78.1437 13.0579 78.1171 13.0401 78.0946 13.0177C78.0722 12.9953 78.0544 12.9687 78.0423 12.9394C78.0301 12.9101 78.0239 12.8787 78.0239 12.847C78.0265 12.7837 78.0528 12.7238 78.0975 12.6791C78.1423 12.6343 78.2022 12.6081 78.2654 12.6055C78.6961 12.6082 79.1085 12.7806 79.4131 13.0852C79.7177 13.3898 79.89 13.8021 79.8928 14.2329C79.8902 14.2961 79.8639 14.356 79.8192 14.4007C79.7744 14.4455 79.7145 14.4718 79.6513 14.4743Z" fill="#263238"/>
<path d="M85.9079 15.8497C85.5002 15.8169 85.1199 15.6318 84.8425 15.3312C84.5651 15.0306 84.4111 14.6366 84.4111 14.2276C84.4111 13.8186 84.5651 13.4246 84.8425 13.124C85.1199 12.8234 85.5002 12.6383 85.9079 12.6055C85.9719 12.6055 86.0334 12.6309 86.0787 12.6762C86.124 12.7215 86.1494 12.7829 86.1494 12.847C86.1494 12.911 86.124 12.9724 86.0787 13.0177C86.0334 13.063 85.9719 13.0884 85.9079 13.0884C85.6816 13.0884 85.4603 13.1556 85.2721 13.2813C85.0839 13.4071 84.9372 13.5858 84.8506 13.7949C84.764 14.004 84.7413 14.2341 84.7855 14.4561C84.8297 14.6781 84.9387 14.882 85.0987 15.0421C85.2588 15.2021 85.4626 15.3111 85.6846 15.3553C85.9066 15.3994 86.1368 15.3768 86.3459 15.2902C86.555 15.2035 86.7337 15.0568 86.8595 14.8687C86.9852 14.6805 87.0523 14.4592 87.0523 14.2329C87.0523 14.2011 87.0586 14.1697 87.0707 14.1404C87.0828 14.1111 87.1006 14.0845 87.1231 14.0621C87.1455 14.0397 87.1721 14.0219 87.2014 14.0097C87.2307 13.9976 87.2621 13.9914 87.2938 13.9914C87.3255 13.9914 87.3569 13.9976 87.3862 14.0097C87.4155 14.0219 87.4421 14.0397 87.4646 14.0621C87.487 14.0845 87.5048 14.1111 87.5169 14.1404C87.529 14.1697 87.5353 14.2011 87.5353 14.2329C87.5353 14.4461 87.4931 14.6572 87.4112 14.854C87.3293 15.0509 87.2093 15.2296 87.058 15.3799C86.9068 15.5302 86.7273 15.649 86.5299 15.7297C86.3325 15.8103 86.1211 15.8511 85.9079 15.8497Z" fill="#263238"/>
<path d="M85.8774 15.1754C84.397 15.1754 84.313 12.0257 84.313 11.3327C84.313 10.6923 84.3865 7.46899 85.8774 7.46899C87.3683 7.46899 87.4628 10.9442 87.4733 11.3432H86.1818C86.1779 10.5973 86.0719 9.85552 85.8669 9.13838C85.6784 9.84701 85.59 10.5786 85.6044 11.3117C85.5853 12.0492 85.6773 12.7854 85.8774 13.4956C85.8799 13.4431 85.8799 13.3905 85.8774 13.3381L85.9824 12.9916L86.8748 13.2541C86.9651 13.2809 87.0411 13.3422 87.0863 13.4248C87.1316 13.5074 87.1423 13.6045 87.1163 13.695C86.8958 14.682 86.4653 15.1754 85.8774 15.1754Z" fill="#263238"/>
<path d="M87.2934 14.4743C87.2293 14.4743 87.1679 14.4489 87.1226 14.4036C87.0773 14.3583 87.0519 14.2969 87.0519 14.2329C87.0519 13.9293 86.9313 13.6382 86.7167 13.4236C86.5021 13.209 86.211 13.0884 85.9075 13.0884C85.8758 13.0884 85.8444 13.0822 85.8151 13.0701C85.7858 13.0579 85.7592 13.0401 85.7367 13.0177C85.7143 12.9953 85.6965 12.9687 85.6844 12.9394C85.6723 12.9101 85.666 12.8787 85.666 12.847C85.6686 12.7837 85.6949 12.7238 85.7396 12.6791C85.7844 12.6343 85.8443 12.6081 85.9075 12.6055C86.3391 12.6055 86.753 12.7769 87.0582 13.0821C87.3634 13.3873 87.5349 13.8012 87.5349 14.2329C87.5323 14.2961 87.506 14.356 87.4613 14.4007C87.4165 14.4455 87.3566 14.4718 87.2934 14.4743Z" fill="#263238"/>
<path d="M93.509 15.8442C93.285 15.8623 93.0597 15.8337 92.8473 15.7604C92.6348 15.6871 92.4399 15.5705 92.2748 15.4181C92.1096 15.2657 91.9778 15.0808 91.8877 14.875C91.7975 14.6691 91.751 14.4468 91.751 14.2221C91.751 13.9974 91.7975 13.7751 91.8877 13.5693C91.9778 13.3634 92.1096 13.1785 92.2748 13.0261C92.4399 12.8737 92.6348 12.7572 92.8473 12.6838C93.0597 12.6105 93.285 12.5819 93.509 12.6C93.573 12.6 93.6344 12.6254 93.6797 12.6707C93.725 12.716 93.7504 12.7774 93.7504 12.8415C93.7504 12.9055 93.725 12.9669 93.6797 13.0122C93.6344 13.0575 93.573 13.0829 93.509 13.0829C93.2822 13.0809 93.0599 13.1462 92.8703 13.2707C92.6808 13.3952 92.5324 13.5732 92.4442 13.7821C92.356 13.991 92.3318 14.2214 92.3748 14.4441C92.4177 14.6668 92.5259 14.8717 92.6855 15.0328C92.8451 15.1939 93.049 15.3039 93.2713 15.349C93.4936 15.394 93.7242 15.3719 93.934 15.2856C94.1437 15.1993 94.323 15.0527 94.4493 14.8642C94.5755 14.6758 94.6429 14.4541 94.6429 14.2274C94.6429 14.1956 94.6491 14.1642 94.6613 14.1349C94.6734 14.1056 94.6912 14.079 94.7136 14.0566C94.736 14.0342 94.7627 14.0164 94.792 14.0043C94.8213 13.9921 94.8527 13.9859 94.8844 13.9859C94.9161 13.9859 94.9475 13.9921 94.9768 14.0043C95.0061 14.0164 95.0327 14.0342 95.0551 14.0566C95.0775 14.079 95.0953 14.1056 95.1075 14.1349C95.1196 14.1642 95.1259 14.1956 95.1259 14.2274C95.1259 14.6562 94.9555 15.0674 94.6523 15.3707C94.349 15.6739 93.9378 15.8442 93.509 15.8442Z" fill="#263238"/>
<path d="M93.4672 15.1754C91.9868 15.1754 91.9028 12.0257 91.9028 11.3327C91.9028 10.6923 91.9763 7.46899 93.4672 7.46899C94.9581 7.46899 95.0631 10.9442 95.0736 11.3432H93.7822C93.7811 10.5964 93.6715 9.85367 93.4567 9.13838C93.2682 9.84701 93.1798 10.5786 93.1942 11.3117C93.1798 12.049 93.2718 12.7845 93.4672 13.4956C93.4879 13.4442 93.5054 13.3916 93.5197 13.3381L93.6142 12.9916L94.5171 13.2541C94.6074 13.2809 94.6834 13.3422 94.7287 13.4248C94.7739 13.5074 94.7847 13.6045 94.7586 13.695C94.4961 14.682 94.0552 15.1754 93.4672 15.1754Z" fill="#263238"/>
<path d="M94.8854 14.4743C94.8222 14.4718 94.7623 14.4455 94.7175 14.4007C94.6728 14.356 94.6465 14.2961 94.644 14.2329C94.6453 14.0831 94.617 13.9345 94.5607 13.7957C94.5043 13.6569 94.421 13.5307 94.3156 13.4243C94.2101 13.3178 94.0847 13.2334 93.9464 13.1757C93.8082 13.1181 93.6598 13.0884 93.51 13.0884C93.4783 13.0884 93.4469 13.0822 93.4176 13.0701C93.3883 13.0579 93.3617 13.0401 93.3393 13.0177C93.3169 12.9953 93.2991 12.9687 93.2869 12.9394C93.2748 12.9101 93.2686 12.8787 93.2686 12.847C93.2686 12.7829 93.294 12.7215 93.3393 12.6762C93.3846 12.6309 93.446 12.6055 93.51 12.6055C93.9398 12.6082 94.3511 12.7809 94.654 13.0858C94.9569 13.3907 95.1269 13.8031 95.1269 14.2329C95.1269 14.2646 95.1207 14.296 95.1085 14.3253C95.0964 14.3546 95.0786 14.3812 95.0562 14.4036C95.0338 14.426 95.0071 14.4438 94.9779 14.456C94.9486 14.4681 94.9172 14.4743 94.8854 14.4743Z" fill="#263238"/>
<path d="M101.153 15.8442C100.929 15.8623 100.703 15.8337 100.491 15.7604C100.278 15.6871 100.083 15.5705 99.9183 15.4181C99.7532 15.2657 99.6214 15.0808 99.5312 14.875C99.4411 14.6691 99.3945 14.4468 99.3945 14.2221C99.3945 13.9974 99.4411 13.7751 99.5312 13.5693C99.6214 13.3634 99.7532 13.1785 99.9183 13.0261C100.083 12.8737 100.278 12.7572 100.491 12.6838C100.703 12.6105 100.929 12.5819 101.153 12.6C101.184 12.6 101.216 12.6062 101.245 12.6184C101.274 12.6305 101.301 12.6483 101.323 12.6707C101.346 12.6931 101.363 12.7197 101.376 12.749C101.388 12.7783 101.394 12.8098 101.394 12.8415C101.394 12.8732 101.388 12.9046 101.376 12.9339C101.363 12.9632 101.346 12.9898 101.323 13.0122C101.301 13.0346 101.274 13.0524 101.245 13.0646C101.216 13.0767 101.184 13.0829 101.153 13.0829C100.926 13.0809 100.703 13.1462 100.514 13.2707C100.324 13.3952 100.176 13.5732 100.088 13.7821C99.9995 13.991 99.9754 14.2214 100.018 14.4441C100.061 14.6668 100.169 14.8717 100.329 15.0328C100.489 15.1939 100.693 15.3039 100.915 15.349C101.137 15.394 101.368 15.3719 101.578 15.2856C101.787 15.1993 101.967 15.0527 102.093 14.8642C102.219 14.6758 102.286 14.4541 102.286 14.2274C102.286 14.1956 102.293 14.1642 102.305 14.1349C102.317 14.1056 102.335 14.079 102.357 14.0566C102.38 14.0342 102.406 14.0164 102.436 14.0043C102.465 13.9921 102.496 13.9859 102.528 13.9859C102.56 13.9859 102.591 13.9921 102.62 14.0043C102.65 14.0164 102.676 14.0342 102.699 14.0566C102.721 14.079 102.739 14.1056 102.751 14.1349C102.763 14.1642 102.769 14.1956 102.769 14.2274C102.769 14.6562 102.599 15.0674 102.296 15.3707C101.993 15.6739 101.581 15.8442 101.153 15.8442Z" fill="#263238"/>
<path d="M101.111 15.1754C99.6309 15.1754 99.5469 12.0257 99.5469 11.3327C99.5469 10.6923 99.6204 7.46899 101.111 7.46899C102.602 7.46899 102.707 10.9442 102.718 11.3432H101.426C101.425 10.5964 101.315 9.85367 101.101 9.13838C100.912 9.84701 100.824 10.5786 100.838 11.3117C100.824 12.049 100.916 12.7845 101.111 13.4956C101.132 13.4442 101.149 13.3916 101.164 13.3381L101.258 12.9916L102.161 13.2541C102.251 13.2809 102.327 13.3422 102.373 13.4248C102.418 13.5074 102.429 13.6045 102.403 13.695C102.14 14.682 101.699 15.1754 101.111 15.1754Z" fill="#263238"/>
<path d="M102.529 14.4743C102.466 14.4718 102.406 14.4455 102.362 14.4007C102.317 14.356 102.291 14.2961 102.288 14.2329C102.289 14.0831 102.261 13.9345 102.205 13.7957C102.148 13.6569 102.065 13.5307 101.96 13.4243C101.854 13.3178 101.729 13.2334 101.59 13.1757C101.452 13.1181 101.304 13.0884 101.154 13.0884C101.122 13.0884 101.091 13.0822 101.062 13.0701C101.032 13.0579 101.006 13.0401 100.983 13.0177C100.961 12.9953 100.943 12.9687 100.931 12.9394C100.919 12.9101 100.913 12.8787 100.913 12.847C100.913 12.7829 100.938 12.7215 100.983 12.6762C101.029 12.6309 101.09 12.6055 101.154 12.6055C101.584 12.6082 101.995 12.7809 102.298 13.0858C102.601 13.3907 102.771 13.8031 102.771 14.2329C102.771 14.2646 102.765 14.296 102.753 14.3253C102.74 14.3546 102.723 14.3812 102.7 14.4036C102.678 14.426 102.651 14.4438 102.622 14.456C102.593 14.4681 102.561 14.4743 102.529 14.4743Z" fill="#263238"/>
<path d="M108.797 15.8442C108.573 15.8623 108.347 15.8337 108.135 15.7604C107.922 15.6871 107.728 15.5705 107.562 15.4181C107.397 15.2657 107.265 15.0808 107.175 14.875C107.085 14.6691 107.039 14.4468 107.039 14.2221C107.039 13.9974 107.085 13.7751 107.175 13.5693C107.265 13.3634 107.397 13.1785 107.562 13.0261C107.728 12.8737 107.922 12.7572 108.135 12.6838C108.347 12.6105 108.573 12.5819 108.797 12.6C108.861 12.6 108.922 12.6254 108.967 12.6707C109.013 12.716 109.038 12.7774 109.038 12.8415C109.038 12.9055 109.013 12.9669 108.967 13.0122C108.922 13.0575 108.861 13.0829 108.797 13.0829C108.57 13.0829 108.349 13.1501 108.161 13.2758C107.973 13.4016 107.826 13.5803 107.739 13.7894C107.653 13.9985 107.63 14.2286 107.674 14.4506C107.718 14.6726 107.827 14.8765 107.987 15.0366C108.147 15.1966 108.351 15.3056 108.573 15.3498C108.795 15.3939 109.025 15.3713 109.235 15.2847C109.444 15.198 109.622 15.0514 109.748 14.8632C109.874 14.675 109.941 14.4537 109.941 14.2274C109.941 14.1956 109.947 14.1642 109.959 14.1349C109.972 14.1056 109.989 14.079 110.012 14.0566C110.034 14.0342 110.061 14.0164 110.09 14.0043C110.119 13.9921 110.151 13.9859 110.182 13.9859C110.214 13.9859 110.246 13.9921 110.275 14.0043C110.304 14.0164 110.331 14.0342 110.353 14.0566C110.376 14.079 110.393 14.1056 110.406 14.1349C110.418 14.1642 110.424 14.1956 110.424 14.2274C110.424 14.4406 110.382 14.6517 110.3 14.8485C110.218 15.0454 110.098 15.2241 109.947 15.3744C109.795 15.5247 109.616 15.6436 109.419 15.7242C109.221 15.8048 109.01 15.8456 108.797 15.8442Z" fill="#263238"/>
<path d="M108.755 15.1754C107.275 15.1754 107.191 12.0257 107.191 11.3327C107.191 10.6923 107.264 7.46899 108.755 7.46899C110.246 7.46899 110.351 10.9442 110.362 11.3432H109.07C109.069 10.5964 108.96 9.85367 108.745 9.13838C108.556 9.84701 108.468 10.5786 108.482 11.3117C108.468 12.049 108.56 12.7845 108.755 13.4956C108.776 13.4442 108.793 13.3916 108.808 13.3381L108.902 12.9916L109.805 13.2541C109.895 13.2809 109.972 13.3422 110.017 13.4248C110.062 13.5074 110.073 13.6045 110.047 13.695C109.784 14.682 109.343 15.1754 108.755 15.1754Z" fill="#263238"/>
<path d="M110.173 14.4743C110.11 14.4718 110.05 14.4455 110.005 14.4007C109.96 14.356 109.934 14.2961 109.932 14.2329C109.933 14.0831 109.905 13.9345 109.848 13.7957C109.792 13.6569 109.709 13.5307 109.603 13.4243C109.498 13.3178 109.372 13.2334 109.234 13.1757C109.096 13.1181 108.947 13.0884 108.798 13.0884C108.766 13.0884 108.735 13.0822 108.705 13.0701C108.676 13.0579 108.649 13.0401 108.627 13.0177C108.604 12.9953 108.587 12.9687 108.575 12.9394C108.562 12.9101 108.556 12.8787 108.556 12.847C108.556 12.7829 108.582 12.7215 108.627 12.6762C108.672 12.6309 108.734 12.6055 108.798 12.6055C109.227 12.6082 109.639 12.7809 109.942 13.0858C110.245 13.3907 110.415 13.8031 110.415 14.2329C110.415 14.2646 110.408 14.296 110.396 14.3253C110.384 14.3546 110.366 14.3812 110.344 14.4036C110.321 14.426 110.295 14.4438 110.265 14.456C110.236 14.4681 110.205 14.4743 110.173 14.4743Z" fill="#263238"/>
<path d="M116.437 15.8497C116.03 15.8169 115.649 15.6318 115.372 15.3312C115.094 15.0306 114.94 14.6366 114.94 14.2276C114.94 13.8186 115.094 13.4246 115.372 13.124C115.649 12.8234 116.03 12.6383 116.437 12.6055C116.469 12.6055 116.5 12.6117 116.53 12.6239C116.559 12.636 116.586 12.6538 116.608 12.6762C116.63 12.6986 116.648 12.7252 116.66 12.7545C116.672 12.7838 116.679 12.8152 116.679 12.847C116.679 12.8787 116.672 12.9101 116.66 12.9394C116.648 12.9687 116.63 12.9953 116.608 13.0177C116.586 13.0401 116.559 13.0579 116.53 13.0701C116.5 13.0822 116.469 13.0884 116.437 13.0884C116.21 13.0864 115.988 13.1517 115.799 13.2762C115.609 13.4007 115.461 13.5787 115.372 13.7876C115.284 13.9965 115.26 14.2269 115.303 14.4496C115.346 14.6723 115.454 14.8772 115.614 15.0383C115.773 15.1994 115.977 15.3094 116.2 15.3545C116.422 15.3995 116.652 15.3774 116.862 15.2911C117.072 15.2048 117.251 15.0582 117.377 14.8697C117.504 14.6813 117.571 14.4596 117.571 14.2329C117.571 14.2011 117.577 14.1697 117.589 14.1404C117.602 14.1111 117.619 14.0845 117.642 14.0621C117.664 14.0397 117.691 14.0219 117.72 14.0097C117.749 13.9976 117.781 13.9914 117.813 13.9914C117.844 13.9914 117.876 13.9976 117.905 14.0097C117.934 14.0219 117.961 14.0397 117.983 14.0621C118.006 14.0845 118.024 14.1111 118.036 14.1404C118.048 14.1697 118.054 14.2011 118.054 14.2329C118.054 14.6617 117.884 15.0729 117.58 15.3762C117.277 15.6794 116.866 15.8497 116.437 15.8497Z" fill="#263238"/>
<path d="M116.397 15.1754C114.917 15.1754 114.833 12.0257 114.833 11.3327C114.833 10.6923 114.917 7.46899 116.397 7.46899C117.878 7.46899 117.993 10.9442 118.004 11.3432H116.712C116.711 10.5964 116.602 9.85367 116.387 9.13838C116.198 9.84701 116.11 10.5786 116.124 11.3117C116.11 12.049 116.202 12.7845 116.397 13.4956C116.418 13.4442 116.436 13.3916 116.45 13.3381L116.544 12.9916L117.447 13.2541C117.538 13.2809 117.614 13.3422 117.659 13.4248C117.704 13.5074 117.715 13.6045 117.689 13.695C117.426 14.682 116.985 15.1754 116.397 15.1754Z" fill="#263238"/>
<path d="M117.815 14.4743C117.752 14.4718 117.692 14.4455 117.647 14.4007C117.602 14.356 117.576 14.2961 117.574 14.2329C117.575 14.0831 117.547 13.9345 117.49 13.7957C117.434 13.6569 117.351 13.5307 117.245 13.4243C117.14 13.3178 117.014 13.2334 116.876 13.1757C116.738 13.1181 116.59 13.0884 116.44 13.0884C116.408 13.0884 116.377 13.0822 116.347 13.0701C116.318 13.0579 116.291 13.0401 116.269 13.0177C116.247 12.9953 116.229 12.9687 116.217 12.9394C116.204 12.9101 116.198 12.8787 116.198 12.847C116.198 12.7829 116.224 12.7215 116.269 12.6762C116.314 12.6309 116.376 12.6055 116.44 12.6055C116.87 12.6082 117.281 12.7809 117.584 13.0858C117.887 13.3907 118.057 13.8031 118.057 14.2329C118.057 14.2646 118.05 14.296 118.038 14.3253C118.026 14.3546 118.008 14.3812 117.986 14.4036C117.963 14.426 117.937 14.4438 117.908 14.456C117.878 14.4681 117.847 14.4743 117.815 14.4743Z" fill="#263238"/>
<path d="M78.2207 9.14087H87.5335V2.68384C87.5335 2.10465 87.7636 1.54919 88.1731 1.13964C88.5827 0.730087 89.1381 0.5 89.7173 0.5C90.2965 0.5 90.852 0.730087 91.2616 1.13964C91.6711 1.54919 91.9012 2.10465 91.9012 2.68384V9.14087H101.098" fill="white"/>
<path d="M78.2207 9.14087H87.5335V2.68384C87.5335 2.10465 87.7636 1.54919 88.1731 1.13964C88.5827 0.730087 89.1381 0.5 89.7173 0.5C90.2965 0.5 90.852 0.730087 91.2616 1.13964C91.6711 1.54919 91.9012 2.10465 91.9012 2.68384V9.14087H101.098" stroke="#263238" stroke-linecap="round" stroke-linejoin="round"/>
<path d="M84.1832 20.1401V21.589H82.5243V30.2719H80.9284V21.589H79.2695V20.1401H84.1832Z" fill="#263238"/>
<path d="M88.4248 30.2719L88.1518 28.4345H86.1989L85.9154 30.2719H84.4561L86.0834 20.1401H88.4143L89.9891 30.2719H88.4248ZM87.8893 27.0591L87.1228 21.9355L86.3564 27.0591H87.8893Z" fill="#263238"/>
<path d="M91.1545 20.6865C91.6392 20.2606 92.2625 20.0256 92.9078 20.0256C93.5532 20.0256 94.1765 20.2606 94.6612 20.6865C95.0888 21.2156 95.2991 21.8875 95.2492 22.5659V22.8914H93.7478V22.4714C93.7702 22.2007 93.6999 21.9304 93.5483 21.705C93.472 21.6243 93.3787 21.5618 93.2752 21.5218C93.1717 21.4818 93.0605 21.4655 92.9498 21.474C92.8408 21.4656 92.7312 21.482 92.6294 21.522C92.5275 21.562 92.4361 21.6246 92.3619 21.705C92.2067 21.9291 92.1326 22.1995 92.1519 22.4714C92.1443 22.87 92.2659 23.2604 92.4984 23.5843C92.8077 23.9727 93.1599 24.3249 93.5483 24.6342C93.8714 24.9232 94.1765 25.2318 94.4617 25.5582C94.7067 25.8438 94.9051 26.1662 95.0497 26.5136C95.2237 26.9215 95.3095 27.3616 95.3017 27.805C95.3441 28.4892 95.1267 29.1642 94.6927 29.6949C94.4625 29.924 94.1861 30.1014 93.882 30.2155C93.5779 30.3295 93.2529 30.3775 92.9288 30.3563C92.6045 30.3796 92.279 30.3326 91.9746 30.2184C91.6702 30.1042 91.394 29.9257 91.165 29.6949C90.7273 29.1663 90.5093 28.4897 90.556 27.805V27.2171H92.0574V27.952C92.0574 28.603 92.3304 28.9284 92.8869 28.9284C93.4433 28.9284 93.7058 28.603 93.7058 27.952C93.7135 27.5549 93.596 27.1655 93.3698 26.8391C93.0576 26.4533 92.7057 26.1014 92.3199 25.7892C91.9997 25.5008 91.6948 25.1959 91.4065 24.8757C91.1617 24.5841 90.9601 24.2588 90.808 23.9098C90.6425 23.4997 90.5604 23.0606 90.5665 22.6184C90.5073 21.9228 90.7178 21.2312 91.1545 20.6865Z" fill="#263238"/>
<path d="M97.7726 27.1536V30.3034H96.1768V20.1401H97.7726V24.5498L99.8725 20.1401H101.458L99.2425 24.6548L101.458 30.2719H99.82L98.2766 26.2297L97.7726 27.1536Z" fill="#263238"/>
<path d="M80.1108 35.0276C88.2239 33.0329 96.5557 32.0664 104.91 32.1508L80.1108 35.0276Z" fill="white"/>
<path d="M80.1108 35.0276C88.2239 33.0329 96.5557 32.0664 104.91 32.1508" stroke="#263238" stroke-linecap="round" stroke-linejoin="round"/>
<path d="M72.5943 66.8052H65.5493V73.8502H72.5943V66.8052Z" stroke="#5856D6" stroke-linecap="round" stroke-linejoin="round"/>
<path d="M71.6261 78.3203H64.5811V85.3653H71.6261V78.3203Z" stroke="#5856D6" stroke-linecap="round" stroke-linejoin="round"/>
<path d="M72.9185 54.9788H65.8735V62.0237H72.9185V54.9788Z" stroke="#5856D6" stroke-linecap="round" stroke-linejoin="round"/>
<path d="M73.6236 43.8433H66.5786V50.8882H73.6236V43.8433Z" stroke="#5856D6" stroke-linecap="round" stroke-linejoin="round"/>
<path d="M68.2593 46.2306H68.8368C68.9474 47.765 69.4617 49.2428 70.3276 50.5143C70.4326 50.6613 70.5586 50.8188 70.7266 50.8398C70.8946 50.8608 71.1676 50.5773 71.2621 50.3253C72.578 47.0706 73.7644 43.7668 74.8213 40.4141" stroke="#263238" stroke-linecap="round" stroke-linejoin="round"/>
<path d="M80.1108 62.7729C80.8353 61.3345 81.6017 59.9171 82.3262 58.4682C82.8481 57.2176 83.5561 56.053 84.426 55.0139C84.6765 54.7545 84.9507 54.519 85.245 54.3105C85.267 54.2825 85.2962 54.2609 85.3294 54.2479C85.3627 54.235 85.3988 54.2312 85.434 54.237C85.434 54.552 85.098 54.7935 84.9615 55.0664C84.991 55.109 85.0339 55.1404 85.0834 55.1557C85.1329 55.1709 85.1861 55.1691 85.2345 55.1504C85.6754 55.1504 86.1059 55.1504 86.5469 55.1504C86.9726 55.1352 87.392 55.2566 87.7438 55.4969C87.8769 55.6327 87.9707 55.8021 88.0151 55.987C88.0595 56.1719 88.0528 56.3654 87.9958 56.5468C87.8171 57.2487 87.5226 57.9158 87.1243 58.5207C86.7375 59.1608 86.2719 59.7498 85.7384 60.274C85.3348 60.7088 84.88 61.0931 84.384 61.4185C84.1635 61.618 83.9536 61.6599 83.7541 61.513C83.5546 61.366 83.5021 61.3135 83.5966 61.072C83.7276 60.7166 83.9397 60.3966 84.216 60.1376C84.6198 59.7528 85.0892 59.4434 85.6019 59.2241C86.1985 58.9416 86.8164 58.7064 87.4498 58.5207C87.7912 58.4204 88.144 58.364 88.4997 58.3527C88.7622 58.3527 89.0247 58.3527 89.2872 58.3527C89.4711 58.3212 89.6509 58.2683 89.8226 58.1952C89.4113 58.4871 89.0705 58.8674 88.8252 59.3081L88.7097 59.7701L88.7727 60.1691L89.0877 60.4C89.2215 60.4262 89.3599 60.4167 89.4889 60.3725C89.6179 60.3283 89.733 60.2509 89.8226 60.1481C89.9952 60.0551 90.1319 59.9074 90.2111 59.7281C90.3223 59.6017 90.4015 59.4505 90.4421 59.2871C90.5143 59.1675 90.537 59.0243 90.5051 58.8882C90.5196 58.8348 90.5162 58.7781 90.4953 58.7269C90.4744 58.6756 90.4373 58.6327 90.3896 58.6047C90.3691 58.5603 90.3337 58.5245 90.2896 58.5035C90.2455 58.4824 90.1955 58.4773 90.1481 58.4892C90.1102 58.466 90.0666 58.4537 90.0221 58.4537C89.9776 58.4537 89.9341 58.466 89.8961 58.4892C89.7432 58.5614 89.6099 58.6694 89.5077 58.8042C89.6127 58.8042 89.7701 58.7307 89.8646 58.6887C90.1796 58.5522 90.4946 58.4472 90.8201 58.3422C91.6356 58.0806 92.4666 57.8702 93.3084 57.7122C93.199 57.8271 93.0712 57.9229 92.9304 57.9957C92.5999 58.1933 92.3024 58.4412 92.0485 58.7307C91.8209 59.0637 91.6868 59.4516 91.66 59.8541C91.66 60.1376 91.66 60.5365 92.0799 60.5365C92.3762 60.5019 92.6546 60.3773 92.8779 60.1796C93.1576 59.9613 93.4208 59.7226 93.6653 59.4656C93.7283 59.4026 94.2323 58.9931 94.0643 58.8147C94.0013 58.9616 93.9488 59.1086 93.8963 59.2556C93.8493 59.4239 93.8493 59.6018 93.8963 59.7701C94.0643 60.0431 94.5473 59.7071 94.7153 59.6021C94.9584 59.4648 95.1701 59.278 95.3364 59.0537C95.5028 58.8294 95.6203 58.5727 95.6812 58.3002C95.5892 58.5339 95.5223 58.7768 95.4817 59.0246C95.3921 59.2795 95.3921 59.5573 95.4817 59.8121C95.8492 59.8121 96.0592 59.3921 96.2377 59.1086C96.4162 58.8252 96.5106 58.5417 96.7311 58.6467C96.7258 58.8488 96.683 59.0481 96.6051 59.2346C96.6051 59.2976 96.5421 59.4761 96.4581 59.5076C96.5065 59.2618 96.6315 59.0376 96.8151 58.8672C96.8646 58.8237 96.9237 58.7925 96.9876 58.776C97.0514 58.7596 97.1182 58.7585 97.1826 58.7727C97.3876 58.8258 97.6051 58.7996 97.7915 58.6992C98.0225 58.5732 98.2535 58.4367 98.474 58.2897C98.6945 58.1427 98.663 58.1217 98.747 58.2057C98.621 58.5942 98.4425 58.9722 98.348 59.3606C98.348 59.5181 98.2745 59.6756 98.243 59.8331C98.2042 59.9165 98.1925 60.0099 98.2095 60.1002C98.2264 60.1906 98.2712 60.2734 98.3375 60.337C98.5187 60.314 98.6956 60.2644 98.8625 60.1901C99.4364 59.9784 99.9913 59.7185 100.521 59.4131C100.922 59.203 101.278 58.9179 101.571 58.5732C101.696 58.4601 101.793 58.32 101.855 58.1637C101.906 58.1037 101.939 58.0297 101.948 57.9512C101.957 57.8727 101.943 57.7932 101.907 57.7227C101.795 57.6761 101.674 57.6575 101.553 57.6684C101.432 57.6794 101.316 57.7197 101.214 57.7857L100.794 58.0167C100.62 58.1205 100.474 58.2641 100.366 58.4357C100.258 58.6072 100.193 58.8019 100.175 59.0036C100.113 59.1745 100.106 59.3606 100.155 59.5356C100.204 59.7107 100.306 59.8661 100.448 59.9801C100.482 60.044 100.528 60.1004 100.585 60.1459C100.641 60.1913 100.706 60.2249 100.776 60.2445C100.845 60.2641 100.918 60.2694 100.99 60.2601C101.062 60.2507 101.131 60.2269 101.193 60.1901C101.576 60.0897 101.933 59.9109 102.243 59.6651C102.763 59.3502 103.199 58.9144 103.514 58.3947C103.356 58.3947 102.989 59.0981 102.978 59.1086C102.821 59.3921 102.695 59.6756 102.548 59.9591C102.653 59.5587 102.868 59.1954 103.167 58.9092C103.451 58.5837 103.818 58.1427 104.217 58.0797C104.233 58.2905 104.19 58.5016 104.091 58.6887C104.039 58.8252 103.997 58.9512 103.955 59.0876C103.881 59.2373 103.859 59.4071 103.892 59.5706C103.944 59.604 104.003 59.6261 104.064 59.6357C104.126 59.6453 104.188 59.6422 104.248 59.6264C104.309 59.6106 104.365 59.5826 104.414 59.5441C104.462 59.5056 104.503 59.4574 104.532 59.4026C104.847 59.1755 105.129 58.9071 105.372 58.6047C105.631 58.3346 105.847 58.0265 106.012 57.6912C106.178 57.5075 106.264 57.2662 106.254 57.0193C105.925 57.378 105.671 57.7993 105.508 58.2582C105.382 58.4894 105.32 58.7507 105.33 59.0141C105.255 59.2607 105.274 59.526 105.382 59.7596C105.389 59.9144 105.44 60.064 105.53 60.1905C105.619 60.3171 105.743 60.4153 105.886 60.4735H106.453L107.062 60.2216C107.185 60.1586 107.292 60.068 107.374 59.9569C107.456 59.8458 107.511 59.7171 107.535 59.5811C107.629 59.3019 107.629 58.9994 107.535 58.7202C107.524 58.6336 107.486 58.5529 107.425 58.4904C107.364 58.4278 107.285 58.3868 107.199 58.3737L106.779 58.2477C106.48 58.1707 106.174 58.125 105.865 58.1112C105.865 58.1112 105.403 58.1112 105.33 58.1952C105.928 58.2741 106.535 58.2528 107.125 58.1322C107.51 58.0958 107.876 57.946 108.175 57.7017C108.175 57.7017 107.997 57.7017 108.028 57.7647C108.06 57.8277 108.165 57.7647 108.207 57.7647C108.18 57.7984 108.162 57.8376 108.153 57.8795C108.144 57.9213 108.144 57.9646 108.154 58.0062C108.506 58.2078 108.88 58.3698 109.267 58.4892C109.824 58.6572 110.023 58.9826 109.887 59.4551C109.913 59.7266 109.85 59.9993 109.708 60.2321C109.566 60.465 109.353 60.6455 109.099 60.7465C108.658 61.3135 108.27 61.366 107.955 60.9145C108.185 60.4289 108.574 60.0364 109.057 59.8016C109.407 59.4912 109.85 59.3064 110.317 59.2766" stroke="#263238" stroke-width="0.75" stroke-linecap="round" stroke-linejoin="round"/>
<path d="M78.6304 45.6657C78.6304 46.2012 81.5806 45.2458 81.4442 45.2773C83.8905 44.5633 86.4733 43.4294 89.0666 43.6079" stroke="#263238" stroke-width="0.75" stroke-linecap="round" stroke-linejoin="round"/>
<path d="M83.6906 43.2238C83.7123 43.1799 83.7474 43.1441 83.7908 43.1214C83.8342 43.0988 83.8837 43.0905 83.9321 43.0978C83.9082 43.2278 83.8694 43.3546 83.8166 43.4758C83.6263 44.124 83.4756 44.7832 83.3651 45.4496C83.1027 46.5835 82.8087 47.6965 82.5042 48.7989C82.2658 49.3566 82.1409 49.9562 82.1367 50.5627" stroke="#263238" stroke-width="0.75" stroke-linecap="round" stroke-linejoin="round"/>
<path d="M85.3602 45.8013C85.3938 46.5818 85.316 47.3631 85.1292 48.1216C84.903 48.6839 84.7512 49.2733 84.6777 49.875C85.4862 48.825 85.9061 47.4077 87.2605 46.9352C87.5545 47.3867 87.3235 47.9851 87.2605 48.4891C87.1075 48.9991 87.0575 49.5344 87.1136 50.064C87.4507 50.1229 87.7965 50.1114 88.129 50.0301C88.4615 49.9487 88.7735 49.7994 89.0454 49.5915C89.7238 49.258 90.3165 48.773 90.7778 48.1741C90.9353 47.9011 91.1348 47.1242 90.7148 47.0297C90.2948 46.9352 89.9169 47.5126 89.7384 47.8276C89.3884 48.3993 89.2474 49.0746 89.3394 49.7385C89.3465 49.8678 89.3863 49.9933 89.455 50.1031C89.5237 50.2129 89.6192 50.3035 89.7325 50.3665C89.8457 50.4294 89.9731 50.4625 90.1026 50.4629C90.2322 50.4632 90.3597 50.4307 90.4733 50.3684C91.0298 50.106 91.3867 49.3185 91.6912 48.8775C91.8671 48.6229 92.025 48.3563 92.1637 48.0796C92.1637 48.3736 92.1637 48.6676 92.1637 48.951C92.1059 49.324 92.0216 49.6924 91.9117 50.0535C92.2267 49.245 92.3002 47.5021 93.3921 47.3447C93.6231 47.5756 93.5076 48.2371 93.5076 48.4891C93.476 48.7611 93.476 49.0359 93.5076 49.308C93.7386 49.308 94.022 48.7306 94.085 48.6256C94.2556 48.2906 94.475 47.9827 94.736 47.7121C95.2294 47.2922 95.6389 47.5231 95.7859 48.1426C95.799 48.6179 95.6982 49.0895 95.4919 49.518C95.4278 49.6778 95.4096 49.8524 95.4394 50.022C95.4919 50.1899 95.5339 50.2319 95.7334 50.169C96.1009 50.0535 96.4054 49.686 96.7833 49.5495C97.7808 49.1715 99.0512 48.8355 99.6286 47.8486C99.6856 47.7753 99.7259 47.6905 99.7469 47.6C99.7678 47.5096 99.7688 47.4157 99.7498 47.3248C99.7309 47.2339 99.6923 47.1482 99.637 47.0737C99.5816 46.9992 99.5107 46.9376 99.4291 46.8932C98.9252 46.6202 98.4422 46.9667 98.1167 47.3657C97.7206 47.8394 97.4434 48.4009 97.3083 49.0035C97.1075 49.5789 97.0892 50.2022 97.2558 50.7884C97.6128 51.4394 98.7887 50.5574 98.9987 50.3579C99.421 49.953 99.8173 49.5216 100.185 49.0665" stroke="#263238" stroke-width="0.75" stroke-linecap="round" stroke-linejoin="round"/>
<path d="M105.824 45.0231C105.756 45.0877 105.709 45.1711 105.688 45.2627C105.668 45.3544 105.675 45.4501 105.709 45.5376C105.856 45.5376 105.95 45.4431 106.003 45.2646C106.349 44.8656 106.717 44.4772 107.105 44.1097C107.336 43.8787 108.397 42.6398 108.848 42.9023C108.719 43.4685 108.525 44.0181 108.271 44.5402C107.679 45.7545 107.177 47.0108 106.769 48.2989L106.475 49.4433C106.475 49.6008 106.475 49.7583 106.423 49.9263C106.455 49.9697 106.497 50.005 106.545 50.0293C106.594 50.0536 106.647 50.0663 106.701 50.0663C106.755 50.0663 106.809 50.0536 106.857 50.0293C106.905 50.005 106.947 49.9697 106.979 49.9263" stroke="#263238" stroke-width="0.75" stroke-linecap="round" stroke-linejoin="round"/>
<path d="M77.8843 74.2025C77.9068 74.0722 77.9455 73.9452 77.9998 73.8246C78.4553 72.9563 79.0594 72.1746 79.7846 71.5147C81.0197 70.2669 82.3425 69.109 83.7428 68.05C84.4571 67.4239 85.243 66.8847 86.0842 66.4436C86.1401 66.8184 86.1004 67.2012 85.9687 67.5565C85.7482 68.428 85.4017 69.2574 85.1813 70.1288C84.9608 71.0003 84.8453 71.5672 84.7193 72.2917C84.6563 72.6381 84.4568 73.3416 84.7193 73.6881C85.0658 73.6251 85.0028 73.1001 85.0133 72.9006" stroke="#263238" stroke-width="0.75" stroke-linecap="round" stroke-linejoin="round"/>
<path d="M82.3047 71.1246C83.0359 71.1477 83.7653 71.0374 84.457 70.7992C85.4777 70.5499 86.478 70.2235 87.4493 69.8228" stroke="#263238" stroke-width="0.75" stroke-linecap="round" stroke-linejoin="round"/>
<path d="M88.3947 66.6584H88.4892C88.2162 67.7819 87.8278 68.8843 87.4393 69.9867C87.1768 70.8056 86.9353 71.6246 86.7253 72.4645C86.6114 72.654 86.5426 72.8671 86.5244 73.0875C86.5062 73.3078 86.539 73.5293 86.6203 73.7349C86.6739 73.7734 86.7381 73.7941 86.8041 73.7941C86.87 73.7941 86.9343 73.7734 86.9878 73.7349" stroke="#263238" stroke-width="0.75" stroke-linecap="round" stroke-linejoin="round"/>
<path d="M89.4569 70.0125C88.9817 70.9563 88.6929 71.983 88.6064 73.0362C88.6064 73.2147 88.6065 73.4247 88.7849 73.5192C88.9634 73.6137 89.1524 73.5192 89.1419 73.3617" stroke="#263238" stroke-width="0.75" stroke-linecap="round" stroke-linejoin="round"/>
<path d="M87.4502 71.3204C87.8045 71.345 88.1559 71.4012 88.5001 71.4884C88.8256 71.4884 89.1721 71.4884 89.4976 71.4884C89.823 71.4884 90.2955 71.4884 90.5475 71.2889C90.7575 71.2889 91.4399 71.9819 91.6604 71.9714C91.8345 71.9472 91.9997 71.8798 92.1409 71.7753C92.2822 71.6707 92.3949 71.5324 92.4688 71.3729C92.6473 71.0474 92.5213 70.8795 92.1119 70.827C91.916 70.7884 91.7133 70.8064 91.5273 70.8789C91.3413 70.9514 91.1799 71.0754 91.0619 71.2364C90.684 71.7614 90.411 73.4938 91.6184 73.2418C92.2525 73.0432 92.7933 72.6217 93.1408 72.0554C93.5757 71.5687 93.9723 71.0492 94.3272 70.5015C93.7288 70.9949 94.0437 71.8979 93.7393 72.4858C93.6763 71.6774 94.5372 70.449 95.5871 70.743C95.8286 70.806 95.7341 70.911 95.5871 71.1209C95.3561 71.6249 95.0307 72.0764 94.8207 72.5908C95.1986 72.0974 95.4611 71.5409 95.8706 71.0264C95.9756 70.89 96.2381 70.5015 96.511 70.5435C97.1515 70.617 96.826 71.8664 96.8995 72.2339C97.2355 72.3283 97.8444 71.7089 97.9494 71.6039C98.3988 71.141 98.8949 70.7258 99.4298 70.365C99.3038 71.0369 98.3799 71.4779 98.5479 72.2549C98.9364 72.1709 99.1463 71.6669 99.2933 71.3834C99.4403 71.0999 99.4718 70.7115 99.6818 70.575C99.8183 70.7325 99.5558 71.1839 99.5978 71.3939C99.6448 71.585 99.7371 71.762 99.8669 71.91C99.9966 72.058 100.16 72.1727 100.343 72.2443C101.582 72.7378 102.853 71.0684 103.304 70.2915C103.011 70.6394 102.783 71.0379 102.632 71.4674L102.338 72.3178C102.279 72.3842 102.234 72.462 102.206 72.5464C102.178 72.6307 102.168 72.7199 102.176 72.8085C102.184 72.897 102.21 72.983 102.252 73.0611C102.294 73.1393 102.352 73.2079 102.422 73.2628H102.979C103.369 73.0918 103.701 72.8109 103.934 72.4543C104.161 72.235 104.34 71.9703 104.459 71.6774C104.676 71.372 104.779 71.0009 104.753 70.6275" stroke="#263238" stroke-width="0.75" stroke-linecap="round" stroke-linejoin="round"/>
<path d="M104.594 69.0839H104.5C104.481 69.1196 104.472 69.1592 104.472 69.1994C104.472 69.2396 104.481 69.2792 104.5 69.3149C104.689 69.2414 104.794 68.8424 104.5 68.8844C104.374 69.1259 104.563 69.1469 104.804 69.1574" stroke="#263238" stroke-width="0.75" stroke-linecap="round" stroke-linejoin="round"/>
<path d="M101.224 71.2189H102.788C103.201 71.2452 103.614 71.2452 104.027 71.2189C104.258 71.2189 104.888 70.7779 105.077 70.7674V70.7044C105.266 70.8514 105.182 71.3449 105.203 71.5338C105.224 71.7228 105.203 72.7308 105.57 72.7518C105.885 72.3428 106.169 71.9111 106.421 71.4604L107.051 70.6099C107.134 70.4042 107.286 70.2337 107.481 70.127C107.451 70.3529 107.376 70.5706 107.261 70.7674C107.243 70.987 107.273 71.2079 107.349 71.4147C107.425 71.6214 107.545 71.809 107.702 71.9643C108.237 72.1743 108.752 71.7123 109.004 71.3764C109.151 71.2084 109.466 70.7149 109.224 70.4839C108.983 70.2529 107.996 70.5994 107.702 70.7989C107.219 71.1349 106.074 72.5523 107.156 72.8987C107.444 72.9737 107.747 72.9755 108.037 72.904C108.327 72.8325 108.594 72.69 108.815 72.4893C109.142 72.263 109.439 71.9947 109.696 71.6913C109.729 71.606 109.782 71.5303 109.852 71.4715C109.922 71.4127 110.006 71.3727 110.095 71.3554" stroke="#263238" stroke-width="0.75" stroke-linecap="round" stroke-linejoin="round"/>
<path d="M82.2526 78.7429C82.494 78.6379 82.41 78.9424 82.3785 79.0474C82.0741 79.9608 81.6331 80.8322 81.3286 81.7457C80.9438 82.6256 80.7232 83.5686 80.6777 84.528C80.6541 84.6491 80.6698 84.7746 80.7227 84.8861C80.7757 84.9975 80.8629 85.0891 80.9716 85.1474C81.0269 85.1817 81.093 85.1943 81.157 85.1827C81.221 85.171 81.2784 85.136 81.3181 85.0844" stroke="#263238" stroke-width="0.75" stroke-linecap="round" stroke-linejoin="round"/>
<path d="M80.54 78.6417V78.7152C80.6793 78.7361 80.8208 78.7361 80.96 78.7152C81.5749 78.6959 82.1866 78.6185 82.7869 78.4842C83.3853 78.3582 83.9733 78.2007 84.5822 78.0957C84.7695 78.0325 84.9724 78.0325 85.1597 78.0957C85.2023 78.0864 85.2465 78.0867 85.289 78.0965C85.3316 78.1063 85.3714 78.1255 85.4055 78.1527C85.4397 78.1798 85.4674 78.2142 85.4866 78.2534C85.5059 78.2926 85.5161 78.3356 85.5167 78.3792" stroke="#263238" stroke-width="0.75" stroke-linecap="round" stroke-linejoin="round"/>
<path d="M80.1108 82.1642C81.495 81.5537 82.971 81.1776 84.4785 81.0513" stroke="#263238" stroke-width="0.75" stroke-linecap="round" stroke-linejoin="round"/>
<path d="M85.6873 81.9104C85.6445 82.2373 85.5635 82.5579 85.4458 82.8658C85.3636 83.2557 85.3284 83.654 85.3408 84.0522" stroke="#263238" stroke-width="0.75" stroke-linecap="round" stroke-linejoin="round"/>
<path d="M86.4531 80.6995V80.6147" stroke="#263238" stroke-width="0.75" stroke-linecap="round" stroke-linejoin="round"/>
<path d="M86.9678 81.9102C87.2723 81.8367 87.1253 82.4351 87.1148 82.5191C87.0098 83.0861 86.7578 83.5691 86.6948 84.1885C86.7612 84.115 86.805 84.0238 86.8208 83.926C86.9783 83.5691 87.1463 83.2121 87.3143 82.8761C87.5313 82.438 87.8307 82.0459 88.1962 81.7212C88.2431 81.6364 88.3139 81.5673 88.3998 81.5225C88.4857 81.4777 88.5828 81.4592 88.6792 81.4692C88.6398 82.1306 88.5271 82.7855 88.3432 83.4221C88.2907 83.758 88.0702 84.4195 88.4272 84.6715" stroke="#263238" stroke-width="0.75" stroke-linecap="round" stroke-linejoin="round"/>
<path d="M90.1407 81.8281C89.8055 82.7156 89.573 83.6385 89.4478 84.5789C89.6367 84.6419 89.8467 84.1275 89.8887 84.054" stroke="#263238" stroke-width="0.75" stroke-linecap="round" stroke-linejoin="round"/>
<path d="M90.915 80.5347V80.45" stroke="#263238" stroke-width="0.75" stroke-linecap="round" stroke-linejoin="round"/>
<path d="M92.8774 81.5024C92.4835 81.7189 92.1109 81.972 91.7645 82.2584L91.334 82.6469L91.103 82.9828C91.103 83.2663 91.544 83.2243 91.7225 83.2558C91.8449 83.2512 91.967 83.2722 92.0809 83.3174C92.1947 83.3626 92.298 83.431 92.3839 83.5183C92.5729 83.8123 92.3839 84.1272 92.1739 84.3687C91.964 84.6102 91.124 85.4187 91.124 84.7572" stroke="#263238" stroke-width="0.75" stroke-linecap="round" stroke-linejoin="round"/>
<path d="M94.3361 80.969C94.1051 81.557 93.8531 82.1344 93.6431 82.7329C93.5801 82.9113 93.1077 83.9928 93.2757 84.0978C93.5381 83.7933 93.7586 83.4573 94.0316 83.1633C94.3046 82.8693 94.609 82.3969 94.9345 82.5124C95.0298 82.8461 95.1491 83.1724 95.2915 83.4888C95.4805 83.8248 95.8689 84.2027 96.3414 84.0558C96.6723 83.8916 96.9643 83.6587 97.1979 83.3727C97.4314 83.0866 97.6012 82.7539 97.6958 82.3969C97.5048 82.6272 97.3652 82.8957 97.2864 83.1843C97.0557 83.6741 96.9101 84.1996 96.8559 84.7382" stroke="#263238" stroke-width="0.75" stroke-linecap="round" stroke-linejoin="round"/>
<path d="M97.9395 80.2783C97.9194 80.3038 97.8939 80.3246 97.8649 80.3391C97.8358 80.3536 97.8039 80.3615 97.7715 80.3623" stroke="#263238" stroke-width="0.75" stroke-linecap="round" stroke-linejoin="round"/>
<path d="M98.4549 84.0559C98.3709 84.4024 98.2869 84.7489 98.2134 85.1059C98.5809 84.0559 98.9063 82.796 100.04 82.3446C100.544 82.1451 100.597 82.5231 100.607 82.9535C100.628 83.2121 100.628 83.4719 100.607 83.7305C100.548 83.7991 100.516 83.8866 100.516 83.9772C100.516 84.0678 100.548 84.1553 100.607 84.2239L100.901 84.0664" stroke="#263238" stroke-width="0.75" stroke-linecap="round" stroke-linejoin="round"/>
<path d="M102.307 81.9097C102.108 82.1407 100.974 83.6525 101.751 83.6315C102.118 83.6315 102.486 82.9701 102.612 82.7391C102.721 82.4146 102.904 82.1199 103.147 81.8782C103.378 81.9937 103.357 82.3191 103.399 82.5396C103.514 83.2736 103.514 84.021 103.399 84.755C103.353 85.1715 103.193 85.5674 102.937 85.8994C102.8 86.0846 102.626 86.2385 102.425 86.3507C102.224 86.463 102.001 86.531 101.772 86.5503C101.663 86.5308 101.562 86.481 101.48 86.4067C101.399 86.3325 101.339 86.2367 101.31 86.1304C101.289 85.9344 101.316 85.7362 101.389 85.5532C101.462 85.3702 101.579 85.2079 101.73 85.0804L102.696 84.314C103.252 83.9465 103.808 83.558 104.354 83.1696L106.045 81.9517" stroke="#263238" stroke-width="0.75" stroke-linecap="round" stroke-linejoin="round"/>
<path d="M20.395 88.4906C29.8024 90.386 39.4324 90.9273 48.993 90.0981C49.2715 90.112 49.5497 90.0661 49.8089 89.9635C50.0682 89.8609 50.3025 89.704 50.496 89.5033C50.9703 88.8201 50.4157 87.8958 49.9656 87.2206C49.1386 85.9442 48.5859 84.51 48.3424 83.0088C48.0989 81.5075 48.1699 79.9721 48.5509 78.4998C41.0822 84.493 31.9191 87.9879 22.3562 88.4906H20.395Z" fill="white" stroke="#263238" stroke-linecap="round" stroke-linejoin="round"/>
<path d="M0.500237 120.332H41.1226L41.1226 88.5192H0.500237L0.500237 120.332Z" fill="#999999" stroke="#263238" stroke-linecap="round" stroke-linejoin="round"/>
<path d="M68.5003 88.52H40.9312V120.333H68.5003V88.52Z" fill="white" stroke="#263238" stroke-linecap="round" stroke-linejoin="round"/>
<path d="M30.0635 90.5854H38.3021" stroke="#263238" stroke-linecap="round" stroke-linejoin="round"/>
<path d="M3.33984 90.5854H12.0768" stroke="#263238" stroke-linecap="round" stroke-linejoin="round"/>
<path d="M24.7583 96.531H38.3018" stroke="#263238" stroke-linecap="round" stroke-linejoin="round"/>
<path d="M3.33984 96.531H15.2115" stroke="#263238" stroke-linecap="round" stroke-linejoin="round"/>
<path d="M31.5264 102.477H38.3021" stroke="#263238" stroke-linecap="round" stroke-linejoin="round"/>
<path d="M3.33984 102.477H18.3944" stroke="#263238" stroke-linecap="round" stroke-linejoin="round"/>
<path d="M24.7583 108.435H38.3018" stroke="#263238" stroke-linecap="round" stroke-linejoin="round"/>
<path d="M3.33984 108.435H8.60451" stroke="#263238" stroke-linecap="round" stroke-linejoin="round"/>
<path d="M31.5264 114.38H38.3021" stroke="#263238" stroke-linecap="round" stroke-linejoin="round"/>
<path d="M3.33984 114.38H9.46454" stroke="#263238" stroke-linecap="round" stroke-linejoin="round"/>
<path d="M56.3477 90.5854H65.6713" stroke="#263238" stroke-linecap="round" stroke-linejoin="round"/>
<path d="M43.7598 90.5854H47.8268" stroke="#263238" stroke-linecap="round" stroke-linejoin="round"/>
<path d="M54.9976 96.531H65.6716" stroke="#263238" stroke-linecap="round" stroke-linejoin="round"/>
<path d="M43.7598 96.531H50.2944" stroke="#263238" stroke-linecap="round" stroke-linejoin="round"/>
<path d="M57.5029 102.477H65.6692" stroke="#263238" stroke-linecap="round" stroke-linejoin="round"/>
<path d="M43.7598 102.477H52.8021" stroke="#263238" stroke-linecap="round" stroke-linejoin="round"/>
<path d="M52.1665 108.435H65.6698" stroke="#263238" stroke-linecap="round" stroke-linejoin="round"/>
<path d="M43.7598 108.435H45.0779" stroke="#263238" stroke-linecap="round" stroke-linejoin="round"/>
<path d="M57.5029 114.38H65.6692" stroke="#263238" stroke-linecap="round" stroke-linejoin="round"/>
<path d="M43.7598 114.38H45.7611" stroke="#263238" stroke-linecap="round" stroke-linejoin="round"/>
<path d="M2.33545 93.7918L9.46485 90.6169H3.34016L2.33545 93.7918Z" fill="white" stroke="#263238" stroke-linecap="round" stroke-linejoin="round"/>
<path d="M64.5791 93.7918L57.4497 90.6169H63.5744L64.5791 93.7918Z" fill="#999999" stroke="#263238" stroke-linecap="round" stroke-linejoin="round"/>
<path d="M58.5581 111.611L51.4287 108.428H61.8053L58.5581 111.611Z" fill="#999999" stroke="#263238" stroke-linecap="round" stroke-linejoin="round"/>
<path d="M20.892 107.031L24.0267 102.489H9.26953L20.892 107.031Z" fill="white" stroke="#263238" stroke-linecap="round" stroke-linejoin="round"/>
</svg>
