<svg width="136" height="108" viewBox="0 0 136 108" fill="none" xmlns="http://www.w3.org/2000/svg">
<path d="M124.25 104.441C125.26 92.6219 124.669 80.1913 122.174 68.6151C118.645 52.2284 108.712 40.0553 92.757 35.1426C84.0944 32.4735 74.2364 31.4585 65.7003 35.1426C55.5126 39.5496 50.5364 50.6602 44.402 59.3209C42.9339 61.3948 41.4551 62.6691 38.8663 62.6216C35.6236 62.5614 32.3614 61.8677 29.108 62.1159C23.6489 62.5304 21.5091 66.5668 20.4579 71.5343C20.082 73.3106 19.4798 75.1855 18.0544 76.2608C17.4593 76.7117 16.7591 76.991 16.0678 77.2649C10.5446 79.4556 7.13267 80.8686 4.43876 86.3929C2.56799 93.0984 3.03657 104.753 3.03657 104.753H125.809L124.25 104.441Z" fill="#FFCC00"/>
<path opacity="0.8" d="M124.25 104.441C125.26 92.6219 124.669 80.1913 122.174 68.6151C118.645 52.2284 108.712 40.0553 92.757 35.1426C84.0944 32.4735 74.2364 31.4585 65.7003 35.1426C55.5126 39.5496 50.5364 50.6602 44.402 59.3209C42.9339 61.3948 41.4551 62.6691 38.8663 62.6216C35.6236 62.5614 32.3614 61.8677 29.108 62.1159C23.6489 62.5304 21.5091 66.5668 20.4579 71.5343C20.082 73.3106 19.4798 75.1855 18.0544 76.2608C17.4593 76.7117 16.7591 76.991 16.0678 77.2649C10.5446 79.4556 7.13267 80.8686 4.43876 86.3929C2.56799 93.0984 3.03657 104.753 3.03657 104.753H125.809L124.25 104.441Z" fill="white"/>
<path d="M76.184 26.6819C74.7466 20.2195 67.2991 15.4059 60.8093 16.3283C59.1917 16.5594 57.6173 17.1645 56.4011 18.2866C54.7444 19.8102 55.138 21.5413 54.3175 23.4311C54.0884 23.9559 53.6438 24.422 53.0798 24.518C51.4662 24.7961 50.1659 23.1863 48.5307 23.1746C47.3087 23.1648 45.746 23.8404 45.0645 24.8959C44.43 25.8751 44.8686 27.5945 43.7308 28.2466C42.4521 28.9751 40.8991 27.5886 39.5166 28.0899C37.8011 28.7146 38.5805 29.9621 37.9499 30.7415C37.3193 31.5209 36.0778 31.2115 34.3603 31.0548C32.6429 30.8982 31.2407 32.927 31.2407 32.927H85.3881C85.3881 32.927 85.8561 32.1436 83.8214 29.026C81.7868 25.9084 78.9844 28.0899 77.737 28.0899C76.4895 28.0899 76.184 26.6839 76.184 26.6819Z" stroke="#263238" stroke-width="0.681813" stroke-miterlimit="10"/>
<path d="M120.555 35.6376C119.772 32.138 115.744 29.5315 112.227 30.0309C111.343 30.1337 110.511 30.5024 109.841 31.0884C108.942 31.9148 109.156 32.8509 108.711 33.8751C108.656 34.0199 108.566 34.1491 108.449 34.2514C108.332 34.3538 108.192 34.4262 108.042 34.4626C107.166 34.6114 106.463 33.7399 105.578 33.7341C104.916 33.7341 104.068 34.0944 103.7 34.6662C103.355 35.1989 103.596 36.1271 102.977 36.4816C102.284 36.8732 101.444 36.1252 100.696 36.3974C99.7658 36.7342 100.189 37.4098 99.85 37.8328C99.5112 38.2558 98.8356 38.0874 97.9054 38.0032C96.9752 37.919 96.2153 39.0156 96.2153 39.0156H125.533C125.533 39.0156 125.788 38.5946 124.689 36.9046C123.591 35.2146 122.069 36.3974 121.393 36.3974C120.718 36.3974 120.555 35.6395 120.555 35.6376Z" stroke="#263238" stroke-width="0.681813" stroke-miterlimit="10"/>
<path d="M35.7261 48.693C35.1876 46.2784 32.4068 44.4807 29.9824 44.8254C29.372 44.8962 28.7977 45.151 28.3354 45.5558C27.7166 46.1237 27.8635 46.7719 27.5521 47.4769C27.5144 47.577 27.4527 47.6662 27.3725 47.7369C27.2922 47.8076 27.1959 47.8575 27.0919 47.8823C26.4888 47.9861 26.0031 47.3849 25.3921 47.381C25.1417 47.3824 24.8949 47.4411 24.6706 47.5524C24.4462 47.6637 24.2503 47.8248 24.0977 48.0233C23.8607 48.3915 24.0252 49.0318 23.5983 49.2747C23.1205 49.5488 22.5408 49.0299 22.0316 49.2179C21.3913 49.4509 21.6831 49.917 21.4441 50.2088C21.2052 50.5006 20.745 50.3831 20.1027 50.3243C19.4604 50.2656 18.9375 51.0234 18.9375 51.0234H39.1708C39.1708 51.0234 39.3451 50.7317 38.5833 49.5665C37.8215 48.4013 36.7758 49.2179 36.3097 49.2179C35.8436 49.2179 35.7261 48.693 35.7261 48.693Z" stroke="#263238" stroke-width="0.681813" stroke-miterlimit="10"/>
<path d="M108.123 46.2295C93.026 46.2295 80.794 58.3838 80.794 73.377C80.7879 80.0631 83.2675 86.5128 87.751 91.4729C90.9669 91.0139 94.2455 91.3124 97.3256 92.3446C100.767 93.4929 103.933 95.3419 106.624 97.7751H109.072C111.764 95.3425 114.93 93.4936 118.371 92.3446C121.61 91.2598 125.065 90.9863 128.433 91.5483C132.961 86.5802 135.468 80.0988 135.461 73.377C135.456 58.3861 123.22 46.2295 108.123 46.2295Z" fill="#FFCC00"/>
<path opacity="0.5" d="M108.123 46.2295C93.026 46.2295 80.794 58.3838 80.794 73.377C80.7879 80.0631 83.2675 86.5128 87.751 91.4729C90.9669 91.0139 94.2455 91.3124 97.3256 92.3446C100.767 93.4929 103.933 95.3419 106.624 97.7751H109.072C111.764 95.3425 114.93 93.4936 118.371 92.3446C121.61 91.2598 125.065 90.9863 128.433 91.5483C132.961 86.5802 135.468 80.0988 135.461 73.377C135.456 58.3861 123.22 46.2295 108.123 46.2295Z" fill="white"/>
<path d="M120.853 84.2684C120.012 84.6752 119.179 85.0977 118.356 85.5359C117.532 85.9809 116.735 86.4725 115.967 87.0084C115.682 87.2063 115.402 87.4112 115.124 87.6162L119.6 79.2738L113.456 88.8955C112.827 89.3965 112.217 89.9078 111.623 90.4292C110.631 91.2938 109.665 92.1726 108.72 93.0796L108.407 84.0305L114.836 74.2439L108.36 82.6546L108.077 74.5619L107.606 83.6252L107.135 92.7097C106.315 91.9323 105.478 91.1713 104.623 90.4268C103.95 89.8426 103.262 89.2654 102.56 88.707L96.7686 78.7838L101.038 87.5408C100.802 87.3618 100.55 87.1827 100.298 87.0084C99.531 86.4725 98.7342 85.9809 97.9113 85.5359C97.0883 85.0977 96.2558 84.6752 95.414 84.2684C93.7315 83.4456 92.0051 82.7158 90.2427 82.0821C91.948 82.8185 93.6114 83.6483 95.2255 84.5676C96.0312 85.0215 96.826 85.4927 97.6097 85.9812C98.377 86.4616 99.1157 86.9863 99.8219 87.5526C101.223 88.6794 102.56 89.8836 103.827 91.1595C104.941 92.2645 106.023 93.4071 107.055 94.5686L106.468 106.096H109.161L108.784 95.0256C109.938 93.7063 111.166 92.4035 112.429 91.1501C113.696 89.8747 115.033 88.6705 116.434 87.5432C117.141 86.9768 117.88 86.4521 118.648 85.9718C119.43 85.4888 120.227 85.0294 121.03 84.5582C122.645 83.6389 124.309 82.8091 126.015 82.0727C124.256 82.7097 122.533 83.4427 120.853 84.2684Z" fill="#263238"/>
<path d="M22.7868 65.4578C12.5385 65.4578 4.23146 73.7035 4.23146 83.8859C4.225 88.4224 5.90428 92.7994 8.94334 96.1674C11.1265 95.8556 13.3523 96.0581 15.4434 96.7588C17.7865 97.5363 19.9423 98.7927 21.7738 100.448H23.4371C25.264 98.7969 27.413 97.5416 29.7486 96.7611C31.9476 96.0252 34.2936 95.8399 36.5809 96.2216C39.6543 92.8498 41.356 88.4507 41.3516 83.8883C41.3493 73.7036 33.0422 65.4578 22.7868 65.4578Z" fill="#FFCC00"/>
<path opacity="0.5" d="M22.7868 65.4578C12.5385 65.4578 4.23146 73.7035 4.23146 83.8859C4.225 88.4224 5.90428 92.7994 8.94334 96.1674C11.1265 95.8556 13.3523 96.0581 15.4434 96.7588C17.7865 97.5363 19.9423 98.7927 21.7738 100.448H23.4371C25.264 98.7969 27.413 97.5416 29.7486 96.7611C31.9476 96.0252 34.2936 95.8399 36.5809 96.2216C39.6543 92.8498 41.356 88.4507 41.3516 83.8883C41.3493 73.7036 33.0422 65.4578 22.7868 65.4578Z" fill="white"/>
<path d="M31.4366 91.2763C30.8641 91.5519 30.2987 91.837 29.7403 92.1362C29.1812 92.4376 28.64 92.7711 28.1194 93.1351C27.9263 93.2694 27.7354 93.4084 27.547 93.5474L30.5861 87.8932L26.4161 94.4238C25.992 94.7631 25.5774 95.1118 25.1698 95.4652C24.496 96.0518 23.8411 96.6431 23.2002 97.2651L22.9882 91.1208L27.3514 84.4771L22.9552 90.1926L22.7668 84.6938L22.4534 90.8452L22.1401 97.0106C21.5817 96.4829 21.0139 95.9693 20.4344 95.4628C19.9632 95.0646 19.5108 94.6736 19.0208 94.2848L15.0887 87.5516L17.9866 93.4909C17.8193 93.3707 17.6544 93.2553 17.4847 93.1304C16.9642 92.7664 16.423 92.4329 15.8639 92.1315C15.3055 91.8323 14.7401 91.5472 14.1676 91.2716C13.0258 90.7123 11.8539 90.2168 10.6572 89.7873C11.8151 90.287 12.9445 90.8501 14.0404 91.4742C14.5869 91.7828 15.1264 92.0985 15.6589 92.4166C16.1792 92.7457 16.6803 93.1044 17.1596 93.4909C18.1136 94.2556 19.0237 95.0737 19.8854 95.941C20.6393 96.6902 21.3744 97.4653 22.0741 98.2546L21.676 106.079H23.4971L23.2379 98.5703C24.0225 97.675 24.8565 96.7915 25.7117 95.941C26.5762 95.074 27.4886 94.256 28.4446 93.4909C28.9249 93.1068 29.4267 92.7505 29.9477 92.4236C30.4801 92.0962 31.0196 91.7805 31.5662 91.4813C32.662 90.8572 33.7914 90.294 34.9493 89.7944C33.7519 90.223 32.5792 90.7177 31.4366 91.2763Z" fill="#263238"/>
<path d="M10.7448 93.478H4.771V101.518H10.7448V93.478Z" fill="#263238" stroke="#263238" stroke-width="0.51136" stroke-miterlimit="10"/>
<path d="M7.41268 94.0271H7.05273V101.514H7.41268V94.0271Z" fill="white" stroke="#263238" stroke-width="0.51136" stroke-miterlimit="10"/>
<path d="M10.7448 93.478H4.771V94.0774H10.7448V93.478Z" fill="#FFCC00" stroke="#263238" stroke-width="0.51136" stroke-miterlimit="10"/>
<path d="M8.07115 103.397H17.4852V99.7367C17.4852 99.7367 15.3844 98.3181 10.7085 98.7437V100.762H8.70798C8.70798 100.762 8.10576 98.538 6.70403 97.9245C5.3023 97.311 2.36386 97.2719 0.474121 100.251H0.844454C1.3761 99.7979 2.05391 99.5652 2.74458 99.5984H6.15026V103.397H8.07115Z" fill="#FFCC00" stroke="#263238" stroke-width="0.51136" stroke-miterlimit="10"/>
<path d="M9.57327 99.563V97.8182L9.17525 97.3713L8.57302 97.6125L8.98143 97.155L9.60788 96.4493L9.37599 96.9954L10.0094 97.2011V96.6195H10.3728V94.0271H5.13965V96.2081H5.86993V96.9954H7.57278V97.921H5.13965V101.51H10.3728V99.563H9.57327Z" fill="white" stroke="#263238" stroke-width="0.51136" stroke-miterlimit="10"/>
<path d="M8.67627 101.14V104.392H10.5799V101.14H8.67627ZM10.3583 101.516V102.168H8.89778V101.516H10.3583ZM10.3583 102.37V102.987H8.89778V102.37H10.3583ZM8.89778 104.012V103.193H10.3583V104.012H8.89778Z" fill="#FFCC00" stroke="#263238" stroke-width="0.51136" stroke-miterlimit="10"/>
<path d="M0.460938 100.25C0.460938 100.25 1.79691 98.2282 4.76996 98.2636C7.74301 98.2991 8.23102 100.523 8.23102 100.523V101.587H2.53065L2.39913 99.7177C2.39913 99.7177 1.22929 99.856 0.831272 100.267L0.460938 100.25Z" fill="#263238" stroke="#263238" stroke-width="0.51136" stroke-miterlimit="10"/>
<path d="M4.49906 106.61C6.6017 106.61 8.30623 104.864 8.30623 102.709C8.30623 100.555 6.6017 98.8081 4.49906 98.8081C2.39642 98.8081 0.691895 100.555 0.691895 102.709C0.691895 104.864 2.39642 106.61 4.49906 106.61Z" fill="#263238" stroke="#263238" stroke-width="0.51136" stroke-miterlimit="10"/>
<path d="M4.49881 104.984C5.72408 104.984 6.71735 103.967 6.71735 102.711C6.71735 101.456 5.72408 100.438 4.49881 100.438C3.27355 100.438 2.28027 101.456 2.28027 102.711C2.28027 103.967 3.27355 104.984 4.49881 104.984Z" fill="white" stroke="#263238" stroke-width="0.51136" stroke-miterlimit="10"/>
<path d="M17.8158 104.879C18.3944 103.447 17.731 101.807 16.3341 101.214C14.9372 100.621 13.3358 101.3 12.7571 102.732C12.1785 104.163 12.8419 105.804 14.2388 106.397C15.6357 106.99 17.2371 106.31 17.8158 104.879Z" fill="#263238" stroke="#263238" stroke-width="0.51136" stroke-miterlimit="10"/>
<path d="M16.8771 103.802C16.8778 103.479 16.7848 103.162 16.6099 102.893C16.435 102.624 16.1861 102.414 15.8946 102.289C15.6031 102.165 15.2822 102.132 14.9724 102.195C14.6627 102.257 14.3781 102.413 14.1546 102.641C13.9311 102.87 13.7788 103.161 13.7169 103.478C13.6551 103.796 13.6865 104.125 13.8072 104.424C13.9278 104.722 14.1323 104.978 14.3948 105.158C14.6572 105.338 14.9659 105.434 15.2816 105.434C15.7041 105.434 16.1095 105.262 16.4086 104.956C16.7077 104.65 16.8762 104.235 16.8771 103.802Z" fill="white" stroke="#263238" stroke-width="0.51136" stroke-miterlimit="10"/>
<path d="M91.4888 65.8828L97.6183 71.1066L102.716 86.4944H97.8917L91.4888 65.8828Z" fill="#263238" stroke="#263238" stroke-width="0.681813" stroke-miterlimit="10"/>
<path d="M127.542 78.0203H92.6719V92.4008H127.542V78.0203Z" fill="#C2C2C2" stroke="#263238" stroke-width="0.681813" stroke-miterlimit="10"/>
<path d="M125.812 92.2456H92.6719V106.626H125.812V92.2456Z" fill="#FFCC00" stroke="#263238" stroke-width="0.681813" stroke-miterlimit="10"/>
<path d="M104.218 92.2456H92.6719V106.626H104.218V92.2456Z" fill="#263238" stroke="#263238" stroke-width="0.681813" stroke-miterlimit="10"/>
<path d="M125.812 92.2456H92.6719V94.2068H125.812V92.2456Z" fill="#263238" stroke="#263238" stroke-width="0.681813" stroke-miterlimit="10"/>
<path d="M92.6719 92.3973H101.819L101.778 90.234L97.7146 78.0203H92.6719V92.3973Z" fill="#263238" stroke="#263238" stroke-width="0.681813" stroke-miterlimit="10"/>
<path d="M127.542 91.1997H92.6719V92.4019H127.542V91.1997Z" fill="white" stroke="#263238" stroke-width="0.681813" stroke-miterlimit="10"/>
<path d="M101.774 90.2343V106.619H36.2354V90.2343H38.5266L38.4677 90.1598L46.7051 66.392L61.4665 59.1077L68.8178 55.4797L76.7263 59.3808L90.9305 66.392L99.1297 90.1598L99.0709 90.2343H101.774Z" fill="#FFCC00" stroke="#263238" stroke-width="0.681813" stroke-miterlimit="10"/>
<path d="M102.122 90.2322H101.43V106.616H102.122V90.2322Z" fill="white" stroke="#263238" stroke-width="0.681813" stroke-miterlimit="10"/>
<path d="M36.5897 90.2322H35.8975V106.616H36.5897V90.2322Z" fill="white" stroke="#263238" stroke-width="0.681813" stroke-miterlimit="10"/>
<path d="M84.1148 94.7734H80.2661V99.6994H84.1148V94.7734Z" fill="white" stroke="#263238" stroke-width="0.681813" stroke-miterlimit="10"/>
<path d="M83.3518 95.7451H81.0225V98.7276H83.3518V95.7451Z" fill="#263238"/>
<path d="M82.1577 95.1306V99.2622" stroke="white" stroke-width="0.681813" stroke-miterlimit="10"/>
<path d="M80.4888 97.2881H83.7352" stroke="white" stroke-width="0.681813" stroke-miterlimit="10"/>
<path d="M93.6466 94.7734H89.7979V99.6994H93.6466V94.7734Z" fill="white" stroke="#263238" stroke-width="0.681813" stroke-miterlimit="10"/>
<path d="M92.8942 95.7451H90.5649V98.7276H92.8942V95.7451Z" fill="#263238"/>
<path d="M91.7002 95.1306V99.2622" stroke="white" stroke-width="0.681813" stroke-miterlimit="10"/>
<path d="M90.0288 97.2881H93.2753" stroke="white" stroke-width="0.681813" stroke-miterlimit="10"/>
<path d="M73.2731 77.3406H63.6548V88.0968H73.2731V77.3406Z" fill="white" stroke="#263238" stroke-width="0.681813" stroke-miterlimit="10"/>
<path d="M72.0928 78.6697H64.8384V86.7803H72.0928V78.6697Z" fill="#263238"/>
<path d="M64.104 87.7295L72.6009 78.3386" stroke="white" stroke-width="0.681813" stroke-miterlimit="10"/>
<path d="M72.7466 87.3303L64.2739 78.1948" stroke="white" stroke-width="0.681813" stroke-miterlimit="10"/>
<path d="M115.971 94.2024H110.34V100.497H115.971V94.2024Z" fill="white" stroke="#263238" stroke-width="0.681813" stroke-miterlimit="10"/>
<path d="M115.276 94.9783H111.029V99.7269H115.276V94.9783Z" fill="#263238"/>
<path d="M110.604 100.279L115.578 94.782" stroke="white" stroke-width="0.681813" stroke-miterlimit="10"/>
<path d="M115.653 100.052L110.693 94.7036" stroke="white" stroke-width="0.681813" stroke-miterlimit="10"/>
<path d="M115.971 100.321H110.34V106.616H115.971V100.321Z" fill="white" stroke="#263238" stroke-width="0.681813" stroke-miterlimit="10"/>
<path d="M115.276 101.102H111.029V105.85H115.276V101.102Z" fill="#263238"/>
<path d="M110.604 106.398L115.578 100.901" stroke="white" stroke-width="0.681813" stroke-miterlimit="10"/>
<path d="M115.653 106.166L110.693 100.818" stroke="white" stroke-width="0.681813" stroke-miterlimit="10"/>
<path d="M83.8995 66.5408H80.0508V71.4667H83.8995V66.5408Z" fill="white" stroke="#263238" stroke-width="0.681813" stroke-miterlimit="10"/>
<path d="M83.1428 67.5127H80.8135V70.4952H83.1428V67.5127Z" fill="#263238"/>
<path d="M81.9487 66.8938V71.0253" stroke="white" stroke-width="0.681813" stroke-miterlimit="10"/>
<path d="M80.2817 69.0513H83.5282" stroke="white" stroke-width="0.681813" stroke-miterlimit="10"/>
<path d="M55.6583 66.5408H51.8096V71.4667H55.6583V66.5408Z" fill="white" stroke="#263238" stroke-width="0.681813" stroke-miterlimit="10"/>
<path d="M54.9016 67.5127H52.5723V70.4952H54.9016V67.5127Z" fill="#263238"/>
<path d="M53.7075 66.8938V71.0253" stroke="white" stroke-width="0.681813" stroke-miterlimit="10"/>
<path d="M52.0449 69.0513H55.2914" stroke="white" stroke-width="0.681813" stroke-miterlimit="10"/>
<path d="M45.6875 94.7734H41.8423V99.6994H45.6875V94.7734Z" fill="white" stroke="#263238" stroke-width="0.681813" stroke-miterlimit="10"/>
<path d="M44.9255 95.7451H42.5962V98.7276H44.9255V95.7451Z" fill="#263238"/>
<path d="M43.7358 95.1306V99.2622" stroke="white" stroke-width="0.681813" stroke-miterlimit="10"/>
<path d="M42.0708 97.2881H45.3138" stroke="white" stroke-width="0.681813" stroke-miterlimit="10"/>
<path d="M55.2212 94.7734H51.376V99.6994H55.2212V94.7734Z" fill="white" stroke="#263238" stroke-width="0.681813" stroke-miterlimit="10"/>
<path d="M54.4655 95.7451H52.1362V98.7276H54.4655V95.7451Z" fill="#263238"/>
<path d="M53.2759 95.1306V99.2622" stroke="white" stroke-width="0.681813" stroke-miterlimit="10"/>
<path d="M51.6069 97.2881H54.8534" stroke="white" stroke-width="0.681813" stroke-miterlimit="10"/>
<path d="M81.3508 94.0542H53.5308V106.619H81.3508V94.0542Z" fill="white" stroke="#263238" stroke-width="0.681813" stroke-miterlimit="10"/>
<path d="M76.0993 94.0542H58.7871V106.619H76.0993V94.0542Z" fill="#263238" stroke="#263238" stroke-width="0.681813" stroke-miterlimit="10"/>
<path d="M76.7271 59.3808V72.1194H61.4673V59.1077L68.8186 55.4797L76.7271 59.3808Z" stroke="white" stroke-width="0.681813" stroke-miterlimit="10"/>
<path d="M41.3156 90.0253L49.328 66.9099L70.6481 56.3878L69.0076 55.5757L61.1891 59.2497L46.9156 66.2929L38.8617 89.5288H38.6852L38.4672 90.1636L38.526 90.2381H37.0239V90.9473H42.0459L41.3156 90.0253Z" fill="#263238" stroke="#263238" stroke-width="0.681813" stroke-miterlimit="10"/>
<path d="M102.765 90.9421H97.6254L98.3522 90.02L90.3779 66.9047L68.8225 56.2655L47.267 66.9047L39.2546 90.02L39.9849 90.9421H34.9629V89.5235H37.9567L46.1525 65.8798L68.8225 54.6909L91.4924 65.8798L99.6501 89.5235H102.765V90.9421Z" fill="white" stroke="#263238" stroke-width="0.681813" stroke-miterlimit="10"/>
<path d="M99.689 90.9415H101.776V90.2322H100.25L99.689 90.9415Z" fill="white" stroke="#263238" stroke-width="0.681813" stroke-miterlimit="10"/>
<path d="M29.9248 1.58878L32.2022 9.60006L33.6454 8.9759L32.659 0L29.9248 1.58878Z" fill="#263238"/>
<path d="M25.6733 4.24681L30.4842 10.9778L31.6333 9.88911L27.7084 1.7998L25.6733 4.24681Z" fill="#263238"/>
<path d="M22.5659 8.24771L29.3323 12.8828L30.0487 11.4572L23.6596 5.22974L22.5659 8.24771Z" fill="#263238"/>
<path d="M20.9751 13.0791L28.8836 15.0651L29.0774 13.4728L20.9959 9.86255L20.9751 13.0791Z" fill="#263238"/>
<path d="M21.101 18.1855L29.193 17.2812L28.8468 15.7172L20.0488 15.1533L21.101 18.1855Z" fill="#263238"/>
<path d="M22.919 22.9392L30.2218 19.2509L29.3738 17.9033L20.9185 20.4567L22.919 22.9392Z" fill="#263238"/>
<path d="M26.2149 26.7623L31.846 20.737L30.5966 19.7688L23.5049 25.1345L26.2149 26.7623Z" fill="#263238"/>
<path d="M30.5922 29.2093L33.8698 21.574L32.3781 21.1023L27.5015 28.6277L30.5922 29.2093Z" fill="#263238"/>
<path d="M35.5132 29.975L36.0462 21.6516L34.4852 21.7296L32.4155 30.5105L35.5132 29.975Z" fill="#263238"/>
<path d="M40.3949 28.961L38.121 20.9497L36.6777 21.5739L37.6641 30.5498L40.3949 28.961Z" fill="#263238"/>
<path d="M44.6489 26.3079L39.8346 19.5769L38.689 20.6656L42.6103 28.7585L44.6489 26.3079Z" fill="#263238"/>
<path d="M47.7626 22.3163L40.9928 17.6812L40.2798 19.1068L46.6654 25.3342L47.7626 22.3163Z" fill="#263238"/>
<path d="M49.3475 17.4706L41.4389 15.4846L41.2451 17.0769L49.3232 20.6907L49.3475 17.4706Z" fill="#263238"/>
<path d="M49.2292 12.3684L41.1338 13.2727L41.4834 14.8367L50.2814 15.4006L49.2292 12.3684Z" fill="#263238"/>
<path d="M47.4059 7.61816L40.103 11.3064L40.951 12.654L49.4064 10.1006L47.4059 7.61816Z" fill="#263238"/>
<path d="M44.1111 3.7915L38.48 9.81681L39.726 10.785L46.8211 5.4193L44.1111 3.7915Z" fill="#263238"/>
<path d="M39.7367 1.34668L36.4556 8.98205L37.9507 9.45372L42.8274 1.92829L39.7367 1.34668Z" fill="#263238"/>
<path d="M34.8069 0.583356L34.2739 8.90672L35.8383 8.8287L37.908 0.0478516L34.8069 0.583356Z" fill="#263238"/>
<path d="M35.1604 26.9536C41.453 26.9536 46.5542 21.7267 46.5542 15.2789C46.5542 8.83119 41.453 3.60425 35.1604 3.60425C28.8678 3.60425 23.7666 8.83119 23.7666 15.2789C23.7666 21.7267 28.8678 26.9536 35.1604 26.9536Z" stroke="#263238" stroke-width="0.681813" stroke-miterlimit="10"/>
<path d="M35.1605 21.734C38.6394 21.734 41.4596 18.8443 41.4596 15.2796C41.4596 11.7149 38.6394 8.8252 35.1605 8.8252C31.6815 8.8252 28.8613 11.7149 28.8613 15.2796C28.8613 18.8443 31.6815 21.734 35.1605 21.734Z" stroke="#263238" stroke-width="0.681813" stroke-miterlimit="10"/>
<path d="M35.0919 17.0972L23.5527 106.601" stroke="#263238" stroke-width="0.681813" stroke-miterlimit="10"/>
<path d="M35.0957 17.0972L46.6349 106.601" stroke="#263238" stroke-width="0.681813" stroke-miterlimit="10"/>
<path d="M35.0957 17.0972V106.615" stroke="#263238" stroke-width="2.04544" stroke-miterlimit="10"/>
<path d="M33.2204 17.9698H36.9722V15.8703L34.0719 10.6252H32.5352L33.2204 15.6966V17.9698Z" fill="#263238" stroke="#263238" stroke-width="0.681813" stroke-miterlimit="10"/>
<path d="M29.6284 35.4583H40.3785" stroke="#263238" stroke-width="1.36363" stroke-miterlimit="10"/>
<path d="M31.8511 42.449H38.5171" stroke="#263238" stroke-width="0.681813" stroke-miterlimit="10"/>
<path d="M30.9839 50.1672H39.3804" stroke="#263238" stroke-width="0.681813" stroke-miterlimit="10"/>
<path d="M29.5107 61.2546H40.8492" stroke="#263238" stroke-width="0.681813" stroke-miterlimit="10"/>
<path d="M27.6104 75.4492H42.756" stroke="#263238" stroke-width="0.681813" stroke-miterlimit="10"/>
<path d="M25.1787 92.3069H44.7476" stroke="#263238" stroke-width="0.681813" stroke-miterlimit="10"/>
</svg>
