<svg width="122" height="114" viewBox="0 0 122 114" fill="none" xmlns="http://www.w3.org/2000/svg">
<path d="M102.359 21.1033C98.0253 16.8201 93.0032 13.2948 87.5022 10.6745C79.3069 6.84501 70.285 4.99762 61.2605 4.8888C34.8867 4.57788 32.8787 35.5507 24.7688 39.8596C16.659 44.1684 1.96799 44.6737 1.44979 61.9064C1.1311 72.7446 3.65992 83.8885 10.7774 92.3326C17.2938 100.067 26.8675 103.992 36.2988 106.884C46.8908 110.135 58.1228 113.325 69.2641 111.13C80.6982 108.879 88.7329 99.8258 98.1253 93.7084C104.038 89.8582 109.344 85.8007 112.995 79.6211C113.43 78.8818 113.841 78.1296 114.228 77.3643C119.112 67.7595 120.069 56.6804 117.374 46.293C114.967 36.9654 109.495 28.0809 102.359 21.1033Z" fill="#FF9500"/>
<path opacity="0.7" d="M102.359 21.1033C98.0253 16.8201 93.0032 13.2948 87.5022 10.6745C79.3069 6.84501 70.285 4.99762 61.2605 4.8888C34.8867 4.57788 32.8787 35.5507 24.7688 39.8596C16.659 44.1684 1.96799 44.6737 1.44979 61.9064C1.1311 72.7446 3.65992 83.8885 10.7774 92.3326C17.2938 100.067 26.8675 103.992 36.2988 106.884C46.8908 110.135 58.1228 113.325 69.2641 111.13C80.6982 108.879 88.7329 99.8258 98.1253 93.7084C104.038 89.8582 109.344 85.8007 112.995 79.6211C113.43 78.8818 113.841 78.1296 114.228 77.3643C119.112 67.7595 120.069 56.6804 117.374 46.293C114.967 36.9654 109.495 28.0809 102.359 21.1033Z" fill="white"/>
<path d="M0.183105 93.4496H4.58781V85.1583H7.95612V88.2675H11.3244V82.8264H19.0974V87.7493H26.0931V81.2718H31.7933V87.4902H37.4599V73.7579H40.8619V79.4581H43.712V71.426H50.7077V88.2675H60.0353V77.1262H65.9946V83.6037H71.1766V75.0534H80.2451V84.381H84.9089V78.9399H88.5363V82.5673H92.1637V78.1626H94.2365V73.7579H97.3457V86.2699H100.185V83.0855H100.973V90.0813H105.637V80.4945H109.005V85.1583H111.078V90.0813H113.151V83.3446H114.705V93.4496H120.924" stroke="#263238" stroke-width="0.366667" stroke-linecap="round" stroke-linejoin="round"/>
<path d="M86.9835 44.6255C86.7029 44.8518 86.3754 45.0128 86.0248 45.0971C85.0662 45.3095 82.5063 45.2033 82.0788 46.377C81.9403 46.7292 81.7249 47.0459 81.4483 47.3042C81.1717 47.5624 80.8409 47.7555 80.4801 47.8694C80.4801 47.8694 78.4539 47.9757 78.3477 48.4032C78.2415 48.8307 77.4927 49.5769 77.4927 49.5769H112.36C112.36 49.5769 113.531 47.7632 111.611 46.0557C109.932 44.5633 106.864 46.833 106.481 44.9856" stroke="#263238" stroke-width="0.366667" stroke-linecap="round" stroke-linejoin="round"/>
<path d="M106.157 42.2708C105.768 40.8691 104.949 38.975 103.286 38.2703C100.511 37.0991 98.166 38.6978 97.526 40.299C96.8861 41.9003 96.4585 42.9652 94.0075 41.5764C91.5564 40.1876 89.4214 40.299 88.6726 42.1102C88.4621 42.638 88.1973 43.1425 87.8823 43.6155" stroke="#263238" stroke-width="0.366667" stroke-linecap="round" stroke-linejoin="round"/>
<path d="M27.7349 63.2212H39.8478C39.8478 63.2212 40.5577 62.1252 39.397 61.094C38.2362 60.0628 35.9768 61.9956 36.2878 59.7985C36.2878 59.7985 36.0287 57.0883 34.3523 56.3783C33.9234 56.1812 33.4503 56.0999 32.9802 56.1427C32.5102 56.1854 32.0595 56.3506 31.6732 56.6219" stroke="#263238" stroke-width="0.366667" stroke-linecap="round" stroke-linejoin="round"/>
<path d="M30.8793 57.6094C30.4932 58.5784 30.2341 59.2236 28.7521 58.3867C27.27 57.5498 25.9771 57.6094 25.5263 58.7106C25.0754 59.8117 24.4899 60.3869 23.9121 60.5243C23.3343 60.6616 21.7849 60.589 21.5258 61.3016C21.4421 61.5147 21.3119 61.7064 21.1447 61.8629C20.9775 62.0193 20.7775 62.1365 20.5593 62.2058C20.5593 62.2058 19.3338 62.2706 19.2638 62.5271C19.1348 62.7928 18.9593 63.0332 18.7456 63.237H25.8346" stroke="#263238" stroke-width="0.366667" stroke-linecap="round" stroke-linejoin="round"/>
<path d="M88.3621 63.2211H94.0831C94.0831 63.2211 94.793 62.1252 93.6322 61.0939C92.4715 60.0627 90.2121 61.9956 90.536 59.7984C90.536 59.7984 90.2769 57.0882 88.6005 56.3783C86.9241 55.6684 85.5043 56.6374 85.1182 57.6039C84.7321 58.5703 84.473 59.218 82.9884 58.3812C81.5037 57.5443 80.2134 57.6039 79.7626 58.705C79.3118 59.8062 78.7262 60.3814 78.151 60.5187C77.5758 60.6561 76.0212 60.5835 75.7647 61.296C75.6798 61.5089 75.5489 61.7003 75.3813 61.8566C75.2138 62.0129 75.0138 62.1303 74.7956 62.2003C74.7956 62.2003 73.5701 62.2651 73.5001 62.5216C73.3712 62.7873 73.1956 63.0277 72.9819 63.2315H86.4552" stroke="#263238" stroke-width="0.366667" stroke-linecap="round" stroke-linejoin="round"/>
<path d="M53.3196 36.5823H49.0885L46.9717 89.2651H55.4365L53.3196 36.5823Z" fill="#FF9500" stroke="#263238" stroke-width="0.366667" stroke-miterlimit="10"/>
<path d="M53.2987 37.0454H49.1116C49.0519 37.0454 48.9927 37.0336 48.9375 37.0107C48.8823 36.9877 48.8322 36.9541 48.7901 36.9117C48.748 36.8693 48.7146 36.819 48.692 36.7637C48.6693 36.7084 48.6579 36.6492 48.6582 36.5894C48.6582 36.4692 48.706 36.3538 48.791 36.2688C48.8761 36.1838 48.9914 36.136 49.1116 36.136H53.2987C53.419 36.136 53.5343 36.1838 53.6193 36.2688C53.7044 36.3538 53.7521 36.4692 53.7521 36.5894C53.7521 36.7099 53.7044 36.8255 53.6195 36.911C53.5345 36.9964 53.4192 37.0447 53.2987 37.0454Z" fill="white" stroke="#263238" stroke-width="0.366667" stroke-miterlimit="10"/>
<path d="M48.9902 38.998L48.915 40.8998H53.4933L53.4156 38.998H48.9902Z" fill="white" stroke="#263238" stroke-width="0.366667" stroke-miterlimit="10"/>
<path d="M55.1426 82.0088L55.0674 80.1096H47.3385L47.2607 82.0088H55.1426Z" fill="white" stroke="#263238" stroke-width="0.366667" stroke-miterlimit="10"/>
<path d="M47.8087 68.3672L47.731 70.2664H54.6697L54.5945 68.3672H47.8087Z" fill="white" stroke="#263238" stroke-width="0.366667" stroke-miterlimit="10"/>
<path d="M47.5733 74.2373L47.4956 76.1391H54.9059L54.8307 74.2373H47.5733Z" fill="white" stroke="#263238" stroke-width="0.366667" stroke-miterlimit="10"/>
<path d="M48.0449 62.4924L47.9697 64.3916H54.4343L54.3591 62.4924H48.0449Z" fill="white" stroke="#263238" stroke-width="0.366667" stroke-miterlimit="10"/>
<path d="M48.7538 44.8728L48.6787 46.772H53.7286L53.6508 44.8728H48.7538Z" fill="white" stroke="#263238" stroke-width="0.366667" stroke-miterlimit="10"/>
<path d="M48.2797 56.6177L48.2046 58.5195H54.1976L54.1224 56.6177H48.2797Z" fill="white" stroke="#263238" stroke-width="0.366667" stroke-miterlimit="10"/>
<path d="M48.5185 50.7476L48.4434 52.6468H53.9648L53.8897 50.7476H48.5185Z" fill="white" stroke="#263238" stroke-width="0.366667" stroke-miterlimit="10"/>
<path d="M64.7186 36.5823H60.4875L58.3706 89.2651H66.8354L64.7186 36.5823Z" fill="#FF9500" stroke="#263238" stroke-width="0.366667" stroke-miterlimit="10"/>
<path d="M64.7001 37.0454H60.513C60.4532 37.0454 60.3941 37.0336 60.3389 37.0107C60.2837 36.9877 60.2336 36.9541 60.1915 36.9117C60.1493 36.8693 60.116 36.819 60.0933 36.7637C60.0707 36.7084 60.0592 36.6492 60.0596 36.5894C60.0596 36.4692 60.1074 36.3538 60.1924 36.2688C60.2774 36.1838 60.3927 36.136 60.513 36.136H64.7001C64.8203 36.136 64.9357 36.1838 65.0207 36.2688C65.1057 36.3538 65.1535 36.4692 65.1535 36.5894C65.1535 36.7099 65.1058 36.8255 65.0208 36.911C64.9359 36.9964 64.8206 37.0447 64.7001 37.0454Z" fill="white" stroke="#263238" stroke-width="0.366667" stroke-miterlimit="10"/>
<path d="M60.3886 38.998L60.3135 40.8998H64.8918L64.814 38.998H60.3886Z" fill="white" stroke="#263238" stroke-width="0.366667" stroke-miterlimit="10"/>
<path d="M66.5434 82.0088L66.4683 80.1096H58.7394L58.6616 82.0088H66.5434Z" fill="white" stroke="#263238" stroke-width="0.366667" stroke-miterlimit="10"/>
<path d="M59.2096 68.3672L59.1318 70.2664H66.0705L65.9954 68.3672H59.2096Z" fill="white" stroke="#263238" stroke-width="0.366667" stroke-miterlimit="10"/>
<path d="M58.9747 74.2373L58.897 76.1391H66.3072L66.2321 74.2373H58.9747Z" fill="white" stroke="#263238" stroke-width="0.366667" stroke-miterlimit="10"/>
<path d="M59.4457 62.4924L59.3706 64.3916H65.8352L65.76 62.4924H59.4457Z" fill="white" stroke="#263238" stroke-width="0.366667" stroke-miterlimit="10"/>
<path d="M60.1523 44.8728L60.0771 46.772H65.127L65.0519 44.8728H60.1523Z" fill="white" stroke="#263238" stroke-width="0.366667" stroke-miterlimit="10"/>
<path d="M59.6811 56.6177L59.606 58.5195H65.5989L65.5238 56.6177H59.6811Z" fill="white" stroke="#263238" stroke-width="0.366667" stroke-miterlimit="10"/>
<path d="M59.9174 50.7476L59.8423 52.6468H65.3637L65.2886 50.7476H59.9174Z" fill="white" stroke="#263238" stroke-width="0.366667" stroke-miterlimit="10"/>
<path d="M76.1194 36.5823H71.8883L69.7715 89.2651H78.2363L76.1194 36.5823Z" fill="#FF9500" stroke="#263238" stroke-width="0.366667" stroke-miterlimit="10"/>
<path d="M76.1009 37.0454H71.9139C71.8541 37.0454 71.7949 37.0336 71.7398 37.0107C71.6846 36.9877 71.6345 36.9541 71.5923 36.9117C71.5502 36.8693 71.5169 36.819 71.4942 36.7637C71.4716 36.7084 71.4601 36.6492 71.4605 36.5894C71.4605 36.4692 71.5082 36.3538 71.5933 36.2688C71.6783 36.1838 71.7936 36.136 71.9139 36.136H76.1009C76.2212 36.136 76.3365 36.1838 76.4216 36.2688C76.5066 36.3538 76.5544 36.4692 76.5544 36.5894C76.5544 36.7099 76.5067 36.8255 76.4217 36.911C76.3368 36.9964 76.2214 37.0447 76.1009 37.0454Z" fill="white" stroke="#263238" stroke-width="0.366667" stroke-miterlimit="10"/>
<path d="M71.79 38.998L71.7148 40.8998H76.2931L76.2154 38.998H71.79Z" fill="white" stroke="#263238" stroke-width="0.366667" stroke-miterlimit="10"/>
<path d="M77.9443 82.0088L77.8692 80.1096H70.1402L70.0625 82.0088H77.9443Z" fill="white" stroke="#263238" stroke-width="0.366667" stroke-miterlimit="10"/>
<path d="M70.6119 68.3672L70.5342 70.2664H77.4729L77.3977 68.3672H70.6119Z" fill="white" stroke="#263238" stroke-width="0.366667" stroke-miterlimit="10"/>
<path d="M70.3754 74.2373L70.3003 76.1391H77.708L77.6328 74.2373H70.3754Z" fill="white" stroke="#263238" stroke-width="0.366667" stroke-miterlimit="10"/>
<path d="M70.8466 62.4924L70.7715 64.3916H77.236L77.1609 62.4924H70.8466Z" fill="white" stroke="#263238" stroke-width="0.366667" stroke-miterlimit="10"/>
<path d="M71.5537 44.8728L71.4785 46.772H76.5284L76.4532 44.8728H71.5537Z" fill="white" stroke="#263238" stroke-width="0.366667" stroke-miterlimit="10"/>
<path d="M71.082 56.6177L71.0068 58.5195H76.9998L76.9247 56.6177H71.082Z" fill="white" stroke="#263238" stroke-width="0.366667" stroke-miterlimit="10"/>
<path d="M71.3183 50.7476L71.2432 52.6468H76.7646L76.6895 50.7476H71.3183Z" fill="white" stroke="#263238" stroke-width="0.366667" stroke-miterlimit="10"/>
<path d="M29.8225 77.2163H12.981V113.143H29.8225V77.2163Z" fill="#263238" stroke="#263238" stroke-width="0.366667" stroke-linecap="round" stroke-linejoin="round"/>
<path d="M29.0741 72.4231L38.1944 77.7502H36.4403L27.377 73.2211L29.0741 72.4231Z" fill="white" stroke="#263238" stroke-width="0.366667" stroke-miterlimit="10"/>
<path d="M37.2361 113.143H20.3945V77.2165L29.0744 72.4231L37.2361 77.2165V113.143Z" fill="#FF9500" stroke="#263238" stroke-width="0.366667" stroke-linecap="round" stroke-linejoin="round"/>
<path d="M11.686 77.9938H19.0989L29.0743 72.4231H21.5604L11.686 77.9938Z" fill="#8F8F8F" stroke="#263238" stroke-width="0.366667" stroke-linecap="round" stroke-linejoin="round"/>
<path d="M30.3709 75.531H27.6504V77.9925H30.3709V75.531Z" fill="#263238" stroke="#263238" stroke-width="0.366667" stroke-miterlimit="10"/>
<path d="M77.5369 82.7976H23.0869V113.143H77.5369V82.7976Z" fill="#263238" stroke="#263238" stroke-width="0.366667" stroke-linecap="round" stroke-linejoin="round"/>
<path d="M104.697 82.7976H47.0493V113.143H104.697V82.7976Z" fill="white" stroke="#263238" stroke-width="0.366667" stroke-linecap="round" stroke-linejoin="round"/>
<path d="M63.9255 94.4253H54.4243V113.143H63.9255V94.4253Z" fill="white" stroke="#263238" stroke-width="0.366667" stroke-linecap="round" stroke-linejoin="round"/>
<path d="M62.3657 94.4253H54.4243V113.143H62.3657V94.4253Z" fill="#263238" stroke="#263238" stroke-width="0.366667" stroke-linecap="round" stroke-linejoin="round"/>
<path d="M80.9411 94.4253H71.4399V113.143H80.9411V94.4253Z" fill="white" stroke="#263238" stroke-width="0.366667" stroke-linecap="round" stroke-linejoin="round"/>
<path d="M79.3814 94.4253H71.4399V113.143H79.3814V94.4253Z" fill="#263238" stroke="#263238" stroke-width="0.366667" stroke-linecap="round" stroke-linejoin="round"/>
<path d="M97.9607 94.4253H88.4595V113.143H97.9607V94.4253Z" fill="white" stroke="#263238" stroke-width="0.366667" stroke-linecap="round" stroke-linejoin="round"/>
<path d="M96.4009 94.4253H88.4595V113.143H96.4009V94.4253Z" fill="#263238" stroke="#263238" stroke-width="0.366667" stroke-linecap="round" stroke-linejoin="round"/>
<path d="M30.4559 86.2732H25.2739V91.0251H30.4559V86.2732Z" fill="white" stroke="#263238" stroke-width="0.366667" stroke-linecap="round" stroke-linejoin="round"/>
<path d="M37.4608 86.2732H32.2788V91.0251H37.4608V86.2732Z" fill="white" stroke="#263238" stroke-width="0.366667" stroke-linecap="round" stroke-linejoin="round"/>
<path d="M44.4662 86.2732H39.2842V91.0251H44.4662V86.2732Z" fill="white" stroke="#263238" stroke-width="0.366667" stroke-linecap="round" stroke-linejoin="round"/>
<path d="M62.9328 86.2732H55.1909V91.0251H62.9328V86.2732Z" fill="white" stroke="#263238" stroke-width="0.366667" stroke-linecap="round" stroke-linejoin="round"/>
<path d="M62.4909 86.2732H54.749V91.0251H62.4909V86.2732Z" fill="white" stroke="#263238" stroke-width="0.366667" stroke-linecap="round" stroke-linejoin="round"/>
<path d="M79.9328 86.2732H72.1909V91.0251H79.9328V86.2732Z" fill="white" stroke="#263238" stroke-width="0.366667" stroke-linecap="round" stroke-linejoin="round"/>
<path d="M79.489 86.2732H71.7471V91.0251H79.489V86.2732Z" fill="white" stroke="#263238" stroke-width="0.366667" stroke-linecap="round" stroke-linejoin="round"/>
<path d="M96.9328 86.2732H89.1909V91.0251H96.9328V86.2732Z" fill="white" stroke="#263238" stroke-width="0.366667" stroke-linecap="round" stroke-linejoin="round"/>
<path d="M96.4924 86.2732H88.7505V91.0251H96.4924V86.2732Z" fill="white" stroke="#263238" stroke-width="0.366667" stroke-linecap="round" stroke-linejoin="round"/>
<path d="M22.3312 90.9712H15.4365V94.9639H22.3312V90.9712Z" fill="#FF9500" stroke="#263238" stroke-width="0.366667" stroke-linecap="round" stroke-linejoin="round"/>
<path d="M24.5021 90.9712H17.6074V94.9639H24.5021V90.9712Z" fill="#FF9500" stroke="#263238" stroke-width="0.366667" stroke-linecap="round" stroke-linejoin="round"/>
<path d="M30.7579 93.2175H13.7583V113.142H30.7579V93.2175Z" fill="#263238" stroke="#263238" stroke-width="0.366667" stroke-linecap="round" stroke-linejoin="round"/>
<path d="M43.3702 93.2175H26.3706V113.142H43.3702V93.2175Z" fill="#FF9500" stroke="#263238" stroke-width="0.366667" stroke-linecap="round" stroke-linejoin="round"/>
<path d="M37.156 105.831H32.5854V113.143H37.156V105.831Z" fill="#263238" stroke="#263238" stroke-width="0.366667" stroke-linecap="round" stroke-linejoin="round"/>
<path d="M24.7228 95.5928H21.896V109.12H24.7228V95.5928Z" fill="#FF9500" stroke="#263238" stroke-width="0.366667" stroke-linecap="round" stroke-linejoin="round"/>
<path d="M21.1134 95.5928H18.2866V109.12H21.1134V95.5928Z" fill="#FF9500" stroke="#263238" stroke-width="0.366667" stroke-linecap="round" stroke-linejoin="round"/>
<path d="M17.4967 95.5928H14.6699V109.12H17.4967V95.5928Z" fill="#FF9500" stroke="#263238" stroke-width="0.366667" stroke-linecap="round" stroke-linejoin="round"/>
<path d="M53.0176 85.896H48.9497V113.021H53.0176V85.896Z" fill="white" stroke="#263238" stroke-width="0.366667" stroke-linecap="round" stroke-linejoin="round"/>
<path d="M53.6558 85.896H49.5879V113.021H53.6558V85.896Z" fill="#FF9500" stroke="#263238" stroke-width="0.366667" stroke-miterlimit="10"/>
<path d="M69.6104 85.896H65.5425V113.021H69.6104V85.896Z" fill="white" stroke="#263238" stroke-width="0.366667" stroke-linecap="round" stroke-linejoin="round"/>
<path d="M70.2515 85.896H66.1836V113.021H70.2515V85.896Z" fill="#FF9500" stroke="#263238" stroke-width="0.366667" stroke-miterlimit="10"/>
<path d="M86.6035 85.896H82.5356V113.021H86.6035V85.896Z" fill="white" stroke="#263238" stroke-width="0.366667" stroke-linecap="round" stroke-linejoin="round"/>
<path d="M87.2422 85.896H83.1743V113.021H87.2422V85.896Z" fill="#FF9500" stroke="#263238" stroke-width="0.366667" stroke-miterlimit="10"/>
<path d="M103.619 85.896H99.5513V113.021H103.619V85.896Z" fill="white" stroke="#263238" stroke-width="0.366667" stroke-linecap="round" stroke-linejoin="round"/>
<path d="M104.254 85.896H100.186V113.021H104.254V85.896Z" fill="#FF9500" stroke="#263238" stroke-width="0.366667" stroke-miterlimit="10"/>
<path d="M94.4636 12.7049C93.1937 13.1856 92.1495 14.1237 91.5359 15.335C90.9224 16.5463 90.7839 17.9432 91.1476 19.2513C91.5114 20.5595 92.3511 21.6844 93.5019 22.4051C94.6526 23.1257 96.0312 23.3901 97.367 23.1463C98.7027 22.9025 99.899 22.168 100.721 21.0872C101.543 20.0064 101.931 18.6574 101.809 17.3051C101.687 15.9528 101.064 14.6949 100.062 13.7785C99.06 12.8622 97.7517 12.3535 96.3939 12.3525C96.1826 12.3529 95.9716 12.365 95.7617 12.3888" stroke="#263238" stroke-width="0.366667" stroke-linecap="round" stroke-linejoin="round"/>
<path d="M96.3936 25.9138V29.3676" stroke="#263238" stroke-width="0.366667" stroke-linecap="round" stroke-linejoin="round"/>
<path d="M96.3936 24.5293V25.2651" stroke="#263238" stroke-width="0.366667" stroke-linecap="round" stroke-linejoin="round"/>
<path d="M96.3936 8.44238V10.3649" stroke="#263238" stroke-width="0.366667" stroke-linecap="round" stroke-linejoin="round"/>
<path d="M96.3936 5.53003V7.40073" stroke="#263238" stroke-width="0.366667" stroke-linecap="round" stroke-linejoin="round"/>
<path d="M87.8314 17.449H84.4761" stroke="#263238" stroke-width="0.366667" stroke-linecap="round" stroke-linejoin="round"/>
<path d="M89.3119 17.449H88.7393" stroke="#263238" stroke-width="0.366667" stroke-linecap="round" stroke-linejoin="round"/>
<path d="M106.846 17.449H103.478" stroke="#263238" stroke-width="0.366667" stroke-linecap="round" stroke-linejoin="round"/>
<path d="M108.315 17.449H107.514" stroke="#263238" stroke-width="0.366667" stroke-linecap="round" stroke-linejoin="round"/>
<path d="M91.3894 22.4548L87.9692 25.875" stroke="#263238" stroke-width="0.366667" stroke-linecap="round" stroke-linejoin="round"/>
<path d="M104.823 9.02002L101.403 12.4401" stroke="#263238" stroke-width="0.366667" stroke-linecap="round" stroke-linejoin="round"/>
<path d="M91.3894 12.4401L87.9692 9.02002" stroke="#263238" stroke-width="0.366667" stroke-linecap="round" stroke-linejoin="round"/>
<path d="M104.823 25.875L101.403 22.4548" stroke="#263238" stroke-width="0.366667" stroke-linecap="round" stroke-linejoin="round"/>
<path d="M0.440918 113.142H121.182" stroke="#263238" stroke-width="0.366667" stroke-linecap="round" stroke-linejoin="round"/>
</svg>
