<svg width="242" height="154" viewBox="0 0 242 154" fill="none" xmlns="http://www.w3.org/2000/svg">
<path d="M220.123 14.7449C220.328 13.2759 218.252 12.0668 216.697 11.9421C215.952 11.8797 215.179 11.994 214.476 11.748C212.952 11.218 212.342 9.2466 210.855 8.62991C209.743 8.15872 208.461 8.57794 207.391 9.12188C206.32 9.66582 205.246 10.3483 204.04 10.4246C203.001 10.4904 201.854 10.1024 200.922 10.6151C200.229 10.9962 199.883 11.7827 199.252 12.2469C198.622 12.7112 197.832 12.7978 197.066 12.8394C196.301 12.881 195.511 12.8879 194.814 13.2066C194.118 13.5254 193.543 14.246 193.688 15.0151L220.123 14.7449Z" fill="#F5F5F5"/>
<path d="M53.238 40.9045H23.9551V133.707H53.238V40.9045Z" fill="#F5F5F5"/>
<path d="M53.2401 40.9045H38.5986V133.451H53.2401V40.9045Z" fill="#EBEBEB"/>
<path d="M37.6353 31.7917H27.2935V40.9036H37.6353V31.7917Z" fill="#F5F5F5"/>
<path d="M37.6391 31.7917H35.1758V40.9036H37.6391V31.7917Z" fill="#EBEBEB"/>
<path d="M21.519 40.9026V40.3726H54.0969V40.9026" fill="#E0E0E0"/>
<path d="M32.2165 44.8767H29.7393V50.1013H32.2165V44.8767Z" fill="#FAFAFA"/>
<path d="M38.5966 52.1561C38.5966 52.2081 35.319 52.2531 31.2758 52.2531C27.2326 52.2531 23.9551 52.2081 23.9551 52.1561C23.9551 52.1042 27.2326 52.0557 31.2758 52.0557C35.319 52.0557 38.5966 52.0972 38.5966 52.1561Z" fill="#E0E0E0"/>
<path d="M46.9772 44.8767H44.5V50.1013H46.9772V44.8767Z" fill="#E0E0E0"/>
<path d="M53.3597 52.1561C53.3597 52.2081 50.0822 52.2531 46.039 52.2531C41.9958 52.2531 38.7183 52.2081 38.7183 52.1561C38.7183 52.1042 41.9958 52.0557 46.039 52.0557C50.0822 52.0557 53.3597 52.0972 53.3597 52.1561Z" fill="#E0E0E0"/>
<path d="M46.9772 55.2524H44.5V60.4805H46.9772V55.2524Z" fill="#E0E0E0"/>
<path d="M53.3597 62.5368C53.3597 62.5887 50.0822 62.6338 46.039 62.6338C41.9958 62.6338 38.7183 62.5887 38.7183 62.5368C38.7183 62.4848 41.9958 62.4363 46.039 62.4363C50.0822 62.4363 53.3597 62.4813 53.3597 62.5368Z" fill="#E0E0E0"/>
<path d="M46.9772 65.9412H44.5V71.1658H46.9772V65.9412Z" fill="#E0E0E0"/>
<path d="M53.3597 73.2206C53.3597 73.276 50.0822 73.3211 46.039 73.3211C41.9958 73.3211 38.7183 73.276 38.7183 73.2206C38.7183 73.1652 41.9958 73.1201 46.039 73.1201C50.0822 73.1201 53.3597 73.1652 53.3597 73.2206Z" fill="#E0E0E0"/>
<path d="M46.9772 76.6299H44.5V81.8545H46.9772V76.6299Z" fill="#E0E0E0"/>
<path d="M53.3597 83.9093C53.3597 83.9647 50.0822 84.0098 46.039 84.0098C41.9958 84.0098 38.7183 83.9647 38.7183 83.9093C38.7183 83.8539 41.9958 83.8088 46.039 83.8088C50.0822 83.8088 53.3597 83.8539 53.3597 83.9093Z" fill="#E0E0E0"/>
<path d="M46.9772 87.0205H44.5V92.2451H46.9772V87.0205Z" fill="#E0E0E0"/>
<path d="M53.3597 94.2899C53.3597 94.3454 50.0822 94.3904 46.039 94.3904C41.9958 94.3904 38.7183 94.3454 38.7183 94.2899C38.7183 94.2345 41.9958 94.1895 46.039 94.1895C50.0822 94.1895 53.3597 94.2345 53.3597 94.2899Z" fill="#E0E0E0"/>
<path d="M46.9772 97.4407H44.5V102.665H46.9772V97.4407Z" fill="#E0E0E0"/>
<path d="M46.9772 108.005H44.5V113.23H46.9772V108.005Z" fill="#E0E0E0"/>
<path d="M53.3597 104.717C53.3597 104.772 50.0822 104.817 46.039 104.817C41.9958 104.817 38.7183 104.772 38.7183 104.717C38.7183 104.661 41.9958 104.62 46.039 104.62C50.0822 104.62 53.3597 104.665 53.3597 104.717Z" fill="#E0E0E0"/>
<path d="M32.2165 55.4165H29.7393V60.6411H32.2165V55.4165Z" fill="#FAFAFA"/>
<path d="M38.5966 62.6908C38.5966 62.7462 35.319 62.7913 31.2758 62.7913C27.2326 62.7913 23.9551 62.7462 23.9551 62.6908C23.9551 62.6354 27.2326 62.5903 31.2758 62.5903C35.319 62.5903 38.5966 62.6354 38.5966 62.6908Z" fill="#E0E0E0"/>
<path d="M32.2165 65.946H29.7393V71.1706H32.2165V65.946Z" fill="#FAFAFA"/>
<path d="M38.5966 73.2255C38.5966 73.2809 35.319 73.3259 31.2758 73.3259C27.2326 73.3259 23.9551 73.2809 23.9551 73.2255C23.9551 73.17 27.2326 73.125 31.2758 73.125C35.319 73.125 38.5966 73.17 38.5966 73.2255Z" fill="#E0E0E0"/>
<path d="M32.2165 76.4807H29.7393V81.7053H32.2165V76.4807Z" fill="#FAFAFA"/>
<path d="M38.5966 83.7553C38.5966 83.8072 35.319 83.8523 31.2758 83.8523C27.2326 83.8523 23.9551 83.8072 23.9551 83.7553C23.9551 83.7033 27.2326 83.6548 31.2758 83.6548C35.319 83.6548 38.5966 83.6998 38.5966 83.7553Z" fill="#E0E0E0"/>
<path d="M32.2165 87.0205H29.7393V92.2451H32.2165V87.0205Z" fill="#FAFAFA"/>
<path d="M38.5966 94.2899C38.5966 94.3454 35.319 94.3904 31.2758 94.3904C27.2326 94.3904 23.9551 94.3454 23.9551 94.2899C23.9551 94.2345 27.2326 94.1895 31.2758 94.1895C35.319 94.1895 38.5966 94.2345 38.5966 94.2899Z" fill="#E0E0E0"/>
<path d="M32.2165 97.55H29.7393V102.775H32.2165V97.55Z" fill="#FAFAFA"/>
<path d="M38.5966 104.825C38.5966 104.88 35.319 104.925 31.2758 104.925C27.2326 104.925 23.9551 104.88 23.9551 104.825C23.9551 104.769 27.2326 104.724 31.2758 104.724C35.319 104.724 38.5966 104.776 38.5966 104.825Z" fill="#E0E0E0"/>
<path d="M32.2165 108.085H29.7393V113.309H32.2165V108.085Z" fill="#FAFAFA"/>
<path d="M168.784 19.7358H126.575V153.503H168.784V19.7358Z" fill="#F5F5F5"/>
<path d="M168.78 19.7358H147.677V153.136H168.78V19.7358Z" fill="#EBEBEB"/>
<path d="M146.292 6.60596H131.387V19.7402H146.292V6.60596Z" fill="#F5F5F5"/>
<path d="M146.293 6.60596H142.742V19.7402H146.293V6.60596Z" fill="#EBEBEB"/>
<path d="M123.055 19.7359V18.9702H170.015V19.7359" fill="#E0E0E0"/>
<path d="M138.474 25.468H134.902V33H138.474V25.468Z" fill="#FAFAFA"/>
<path d="M147.678 35.9558C147.678 36.0355 142.955 36.1013 137.128 36.1013C131.3 36.1013 126.575 36.0355 126.575 35.9558C126.575 35.8761 131.297 35.8137 137.128 35.8137C142.959 35.8137 147.678 35.8761 147.678 35.9558Z" fill="#E0E0E0"/>
<path d="M159.767 25.468H156.195V33H159.767V25.468Z" fill="#E0E0E0"/>
<path d="M168.969 35.9558C168.969 36.0355 164.244 36.1013 158.416 36.1013C152.589 36.1013 147.863 36.0355 147.863 35.9558C147.863 35.8761 152.589 35.8137 158.416 35.8137C164.244 35.8137 168.969 35.8761 168.969 35.9558Z" fill="#E0E0E0"/>
<path d="M159.767 40.4224H156.195V47.9544H159.767V40.4224Z" fill="#E0E0E0"/>
<path d="M168.969 50.9136C168.969 50.9933 164.244 51.0556 158.416 51.0556C152.589 51.0556 147.863 50.9933 147.863 50.9136C147.863 50.8339 152.589 50.7681 158.416 50.7681C164.244 50.7681 168.969 50.8339 168.969 50.9136Z" fill="#E0E0E0"/>
<path d="M159.767 55.8391H156.195V63.3711H159.767V55.8391Z" fill="#E0E0E0"/>
<path d="M168.969 66.3252C168.969 66.4049 164.244 66.4707 158.416 66.4707C152.589 66.4707 147.863 66.4049 147.863 66.3252C147.863 66.2455 152.589 66.1797 158.416 66.1797C164.244 66.1797 168.969 66.2455 168.969 66.3252Z" fill="#E0E0E0"/>
<path d="M159.767 71.2458H156.195V78.7779H159.767V71.2458Z" fill="#E0E0E0"/>
<path d="M168.969 81.7336C168.969 81.8133 164.244 81.8791 158.416 81.8791C152.589 81.8791 147.863 81.8133 147.863 81.7336C147.863 81.6539 152.589 81.5916 158.416 81.5916C164.244 81.5916 168.969 81.6539 168.969 81.7336Z" fill="#E0E0E0"/>
<path d="M159.767 86.21H156.195V93.742H159.767V86.21Z" fill="#E0E0E0"/>
<path d="M168.969 96.7014C168.969 96.7776 164.244 96.8435 158.416 96.8435C152.589 96.8435 147.863 96.7776 147.863 96.7014C147.863 96.6252 152.589 96.5559 158.416 96.5559C164.244 96.5559 168.969 96.6217 168.969 96.7014Z" fill="#E0E0E0"/>
<path d="M159.767 101.239H156.195V108.771H159.767V101.239Z" fill="#E0E0E0"/>
<path d="M159.767 116.462H156.195V123.994H159.767V116.462Z" fill="#E0E0E0"/>
<path d="M168.969 111.732C168.969 111.811 164.244 111.877 158.416 111.877C152.589 111.877 147.863 111.811 147.863 111.732C147.863 111.652 152.589 111.59 158.416 111.59C164.244 111.59 168.969 111.652 168.969 111.732Z" fill="#E0E0E0"/>
<path d="M138.474 40.656H134.902V48.188H138.474V40.656Z" fill="#FAFAFA"/>
<path d="M147.678 51.1472C147.678 51.2234 142.955 51.2893 137.128 51.2893C131.3 51.2893 126.575 51.2234 126.575 51.1472C126.575 51.071 131.297 51.0017 137.128 51.0017C142.959 51.0017 147.678 51.0675 147.678 51.1472Z" fill="#E0E0E0"/>
<path d="M138.474 55.8391H134.902V63.3711H138.474V55.8391Z" fill="#FAFAFA"/>
<path d="M147.678 66.3303C147.678 66.4065 142.955 66.4724 137.128 66.4724C131.3 66.4724 126.575 66.4065 126.575 66.3303C126.575 66.2541 131.297 66.1848 137.128 66.1848C142.959 66.1848 147.678 66.2506 147.678 66.3303Z" fill="#E0E0E0"/>
<path d="M138.474 71.022H134.902V78.554H138.474V71.022Z" fill="#FAFAFA"/>
<path d="M147.678 81.5134C147.678 81.5897 142.955 81.6555 137.128 81.6555C131.3 81.6555 126.575 81.5897 126.575 81.5134C126.575 81.4372 131.297 81.3679 137.128 81.3679C142.959 81.3679 147.678 81.4337 147.678 81.5134Z" fill="#E0E0E0"/>
<path d="M138.474 86.21H134.902V93.742H138.474V86.21Z" fill="#FAFAFA"/>
<path d="M147.678 96.7014C147.678 96.7776 142.955 96.8435 137.128 96.8435C131.3 96.8435 126.575 96.7776 126.575 96.7014C126.575 96.6252 131.297 96.5559 137.128 96.5559C142.959 96.5559 147.678 96.6217 147.678 96.7014Z" fill="#E0E0E0"/>
<path d="M138.474 101.393H134.902V108.925H138.474V101.393Z" fill="#FAFAFA"/>
<path d="M147.678 111.884C147.678 111.964 142.955 112.026 137.128 112.026C131.3 112.026 126.575 111.964 126.575 111.884C126.575 111.805 131.297 111.739 137.128 111.739C142.959 111.739 147.678 111.805 147.678 111.884Z" fill="#E0E0E0"/>
<path d="M138.474 116.581H134.902V124.113H138.474V116.581Z" fill="#FAFAFA"/>
<path d="M183.675 80.4182H160.615V153.5H183.675V80.4182Z" fill="#F5F5F5"/>
<path d="M183.674 80.4182H172.144V153.299H183.674V80.4182Z" fill="#EBEBEB"/>
<path d="M171.392 73.2444H163.25V80.4195H171.392V73.2444Z" fill="#F5F5F5"/>
<path d="M171.392 73.2444H169.452V80.4195H171.392V73.2444Z" fill="#EBEBEB"/>
<path d="M158.701 80.4199V80.0007H184.36V80.4199" fill="#E0E0E0"/>
<path d="M167.117 83.5503H165.167V87.6662H167.117V83.5503Z" fill="#FAFAFA"/>
<path d="M172.145 89.2826C172.145 89.3241 169.564 89.3588 166.38 89.3588C163.196 89.3588 160.615 89.3241 160.615 89.2826C160.615 89.241 163.196 89.2029 166.38 89.2029C169.564 89.2029 172.145 89.2306 172.145 89.2826Z" fill="#E0E0E0"/>
<path d="M178.75 83.5503H176.8V87.6662H178.75V83.5503Z" fill="#E0E0E0"/>
<path d="M183.781 89.2826C183.781 89.3241 181.2 89.3588 178.016 89.3588C174.832 89.3588 172.251 89.3241 172.251 89.2826C172.251 89.241 174.832 89.2029 178.016 89.2029C181.2 89.2029 183.781 89.2306 183.781 89.2826Z" fill="#E0E0E0"/>
<path d="M178.75 91.7234H176.8V95.8393H178.75V91.7234Z" fill="#E0E0E0"/>
<path d="M183.781 97.4508C183.781 97.4958 181.2 97.5305 178.016 97.5305C174.832 97.5305 172.251 97.4958 172.251 97.4508C172.251 97.4057 174.832 97.3711 178.016 97.3711C181.2 97.3711 183.781 97.4092 183.781 97.4508Z" fill="#E0E0E0"/>
<path d="M178.75 100.14H176.8V104.256H178.75V100.14Z" fill="#E0E0E0"/>
<path d="M183.781 105.858C183.781 105.899 181.2 105.937 178.016 105.937C174.832 105.937 172.251 105.899 172.251 105.858C172.251 105.816 174.832 105.778 178.016 105.778C181.2 105.778 183.781 105.823 183.781 105.858Z" fill="#E0E0E0"/>
<path d="M178.75 108.557H176.8V112.673H178.75V108.557Z" fill="#E0E0E0"/>
<path d="M183.781 114.294C183.781 114.336 181.2 114.37 178.016 114.37C174.832 114.37 172.251 114.336 172.251 114.294C172.251 114.253 174.832 114.215 178.016 114.215C181.2 114.215 183.781 114.249 183.781 114.294Z" fill="#E0E0E0"/>
<path d="M178.75 116.735H176.8V120.851H178.75V116.735Z" fill="#E0E0E0"/>
<path d="M183.781 122.462C183.781 122.508 181.2 122.542 178.016 122.542C174.832 122.542 172.251 122.508 172.251 122.462C172.251 122.417 174.832 122.383 178.016 122.383C181.2 122.383 183.781 122.417 183.781 122.462Z" fill="#E0E0E0"/>
<path d="M178.75 124.948H176.8V129.064H178.75V124.948Z" fill="#E0E0E0"/>
<path d="M178.75 133.266H176.8V137.382H178.75V133.266Z" fill="#E0E0E0"/>
<path d="M183.781 130.676C183.781 130.717 181.2 130.752 178.016 130.752C174.832 130.752 172.251 130.717 172.251 130.676C172.251 130.634 174.832 130.596 178.016 130.596C181.2 130.596 183.781 130.631 183.781 130.676Z" fill="#E0E0E0"/>
<path d="M167.117 91.8428H165.167V95.9587H167.117V91.8428Z" fill="#FAFAFA"/>
<path d="M172.145 97.5751C172.145 97.6201 169.564 97.6547 166.38 97.6547C163.196 97.6547 160.615 97.6201 160.615 97.5751C160.615 97.53 163.196 97.4954 166.38 97.4954C169.564 97.4954 172.145 97.5439 172.145 97.5751Z" fill="#E0E0E0"/>
<path d="M167.117 100.145H165.167V104.261H167.117V100.145Z" fill="#FAFAFA"/>
<path d="M172.145 105.858C172.145 105.899 169.564 105.934 166.38 105.934C163.196 105.934 160.615 105.899 160.615 105.858C160.615 105.816 163.196 105.778 166.38 105.778C169.564 105.778 172.145 105.827 172.145 105.858Z" fill="#E0E0E0"/>
<path d="M167.117 108.443H165.167V112.559H167.117V108.443Z" fill="#FAFAFA"/>
<path d="M172.145 114.177C172.145 114.222 169.564 114.256 166.38 114.256C163.196 114.256 160.615 114.222 160.615 114.177C160.615 114.132 163.196 114.1 166.38 114.1C169.564 114.1 172.145 114.128 172.145 114.177Z" fill="#E0E0E0"/>
<path d="M167.117 116.735H165.167V120.851H167.117V116.735Z" fill="#FAFAFA"/>
<path d="M172.145 122.462C172.145 122.508 169.564 122.542 166.38 122.542C163.196 122.542 160.615 122.508 160.615 122.462C160.615 122.417 163.196 122.383 166.38 122.383C169.564 122.383 172.145 122.417 172.145 122.462Z" fill="#E0E0E0"/>
<path d="M167.117 125.028H165.167V129.144H167.117V125.028Z" fill="#FAFAFA"/>
<path d="M172.145 130.77C172.145 130.812 169.564 130.846 166.38 130.846C163.196 130.846 160.615 130.812 160.615 130.77C160.615 130.729 163.196 130.69 166.38 130.69C169.564 130.69 172.145 130.725 172.145 130.77Z" fill="#E0E0E0"/>
<path d="M167.117 133.325H165.167V137.441H167.117V133.325Z" fill="#FAFAFA"/>
<path d="M68.0272 106.389H43.1997V153.508H68.0272V106.389Z" fill="#E0E0E0"/>
<path d="M68.0278 106.389H56.3867V153.508H68.0278V106.389Z" fill="#EBEBEB"/>
<path d="M50.6311 110.819H48.3999V116.241H50.6311V110.819Z" fill="#F5F5F5"/>
<path d="M50.6311 132.042H48.3999V137.465H50.6311V132.042Z" fill="#F5F5F5"/>
<path d="M56.3877 118.37C56.3877 118.418 53.4359 118.453 49.8049 118.453C46.174 118.453 43.2222 118.418 43.2222 118.37C43.2222 118.321 46.174 118.286 49.8049 118.286C53.4359 118.286 56.3877 118.331 56.3877 118.37Z" fill="#F5F5F5"/>
<path d="M50.6311 121.513H48.3999V126.935H50.6311V121.513Z" fill="#F5F5F5"/>
<path d="M56.3877 129.077C56.3877 129.122 53.4359 129.16 49.8049 129.16C46.174 129.16 43.2222 129.122 43.2222 129.077C43.2222 129.032 46.174 128.99 49.8049 128.99C53.4359 128.99 56.3877 129.021 56.3877 129.077Z" fill="#F5F5F5"/>
<path d="M61.094 110.819H58.8628V116.241H61.094V110.819Z" fill="#E0E0E0"/>
<path d="M65.9387 110.819H63.7075V116.241H65.9387V110.819Z" fill="#E0E0E0"/>
<path d="M61.094 121.11H58.8628V126.532H61.094V121.11Z" fill="#E0E0E0"/>
<path d="M65.9387 121.11H63.7075V126.532H65.9387V121.11Z" fill="#E0E0E0"/>
<path d="M61.094 131.401H58.8628V136.823H61.094V131.401Z" fill="#E0E0E0"/>
<path d="M65.9387 131.401H63.7075V136.823H65.9387V131.401Z" fill="#E0E0E0"/>
<path d="M69.8919 105.251H41.333V106.432H69.8919V105.251Z" fill="#E0E0E0"/>
<path d="M68.197 106.551C68.197 106.596 62.6536 106.634 55.8041 106.634C48.9545 106.634 43.4111 106.596 43.4111 106.551C43.4111 106.506 48.9545 106.464 55.8041 106.464C62.6536 106.464 68.197 106.488 68.197 106.551Z" fill="#EBEBEB"/>
<path d="M43.489 153.472H3.50726L3.33057 90.2817H43.3157L43.489 153.472Z" fill="#EBEBEB"/>
<path d="M43.3073 90.2817H23.3164V153.472H43.3073V90.2817Z" fill="#E0E0E0"/>
<path d="M22.0104 77.8381H7.89209V90.2795H22.0104V77.8381Z" fill="#EBEBEB"/>
<path d="M22.0121 77.8381H18.6479V90.2795H22.0121V77.8381Z" fill="#E0E0E0"/>
<path d="M44.4857 89.551H0V90.2751H44.4857V89.551Z" fill="#E0E0E0"/>
<path d="M14.6032 95.7056H11.2183V102.843H14.6032V95.7056Z" fill="white"/>
<path d="M23.3249 105.648C23.3249 105.724 18.8486 105.783 13.3295 105.783C7.81032 105.783 3.33057 105.724 3.33057 105.648C3.33057 105.571 7.80685 105.52 13.3295 105.52C18.8521 105.52 23.3249 105.571 23.3249 105.648Z" fill="#E0E0E0"/>
<path d="M34.7775 95.7056H31.3926V102.843H34.7775V95.7056Z" fill="#F5F5F5"/>
<path d="M43.4786 105.645C43.4786 105.721 39.0024 105.78 33.4832 105.78C27.9641 105.78 23.4878 105.721 23.4878 105.645C23.4878 105.568 27.9606 105.51 33.4832 105.51C39.0058 105.51 43.4786 105.568 43.4786 105.645Z" fill="#EBEBEB"/>
<path d="M34.7775 109.875H31.3926V117.012H34.7775V109.875Z" fill="#F5F5F5"/>
<path d="M43.4786 119.817C43.4786 119.89 39.0024 119.952 33.4832 119.952C27.9641 119.952 23.4878 119.89 23.4878 119.817C23.4878 119.744 27.9606 119.678 33.4832 119.678C39.0058 119.678 43.4786 119.741 43.4786 119.817Z" fill="#EBEBEB"/>
<path d="M34.7775 124.471H31.3926V131.608H34.7775V124.471Z" fill="#F5F5F5"/>
<path d="M43.4786 134.403C43.4786 134.476 39.0024 134.539 33.4832 134.539C27.9641 134.539 23.4878 134.476 23.4878 134.403C23.4878 134.331 27.9606 134.265 33.4832 134.265C39.0058 134.265 43.4786 134.327 43.4786 134.403Z" fill="#EBEBEB"/>
<path d="M34.7775 139.067H31.3926V146.204H34.7775V139.067Z" fill="#F5F5F5"/>
<path d="M43.4786 149.001C43.4786 149.078 39.0024 149.14 33.4832 149.14C27.9641 149.14 23.4878 149.078 23.4878 149.001C23.4878 148.925 27.9606 148.866 33.4832 148.866C39.0058 148.866 43.4786 148.929 43.4786 149.001Z" fill="#EBEBEB"/>
<path d="M14.6032 110.088H11.2183V117.225H14.6032V110.088Z" fill="white"/>
<path d="M23.3249 120.027C23.3249 120.103 18.8486 120.162 13.3295 120.162C7.81032 120.162 3.33057 120.103 3.33057 120.027C3.33057 119.951 7.80685 119.892 13.3295 119.892C18.8521 119.892 23.3249 119.951 23.3249 120.027Z" fill="#E0E0E0"/>
<path d="M14.6032 124.476H11.2183V131.613H14.6032V124.476Z" fill="white"/>
<path d="M23.3249 134.407C23.3249 134.483 18.8486 134.542 13.3295 134.542C7.81032 134.542 3.33057 134.483 3.33057 134.407C3.33057 134.331 7.80685 134.265 13.3295 134.265C18.8521 134.265 23.3249 134.331 23.3249 134.407Z" fill="#E0E0E0"/>
<path d="M14.6032 138.859H11.2183V145.996H14.6032V138.859Z" fill="white"/>
<path d="M23.3249 148.797C23.3249 148.874 18.8486 148.933 13.3295 148.933C7.81032 148.933 3.33057 148.874 3.33057 148.797C3.33057 148.721 7.80685 148.662 13.3295 148.662C18.8521 148.662 23.3249 148.721 23.3249 148.797Z" fill="#E0E0E0"/>
<path d="M233.018 55.6251C233.306 53.5255 230.343 51.814 228.116 51.62C227.055 51.5334 225.95 51.6962 224.945 51.3463C222.766 50.5876 221.897 47.7709 219.769 46.8735C218.179 46.2014 216.346 46.8008 214.808 47.5665C213.27 48.3321 211.742 49.3161 210.02 49.4269C208.523 49.5239 206.902 48.9661 205.585 49.7006C204.608 50.2446 204.095 51.3706 203.195 52.0358C202.294 52.701 201.168 52.8222 200.076 52.8811C198.985 52.94 197.852 52.9504 196.858 53.4078C195.863 53.8651 195.039 54.9148 195.247 55.9889L233.018 55.6251Z" fill="#F5F5F5"/>
<path d="M241.887 130.382H209.721V153.505H241.887V130.382Z" fill="#EBEBEB"/>
<path d="M218.343 130.382C218.392 130.382 218.343 135.264 218.343 135.264H215.963V130.382H218.343Z" fill="#F5F5F5"/>
<path d="M225.797 153.51H241.879V130.387H225.797V153.51Z" fill="#E0E0E0"/>
<path d="M215.005 148.98H210.698V152.026H215.005V148.98Z" fill="white"/>
<path d="M217.948 148.98H215.796V152.026H217.948V148.98Z" fill="white"/>
<path d="M238.83 115.323H217.887V130.38H238.83V115.323Z" fill="#EBEBEB"/>
<path d="M223.501 115.323C223.529 115.323 223.501 118.504 223.501 118.504H221.949V115.323H223.501Z" fill="#F5F5F5"/>
<path d="M228.36 130.382H238.83V115.325H228.36V130.382Z" fill="#E0E0E0"/>
<path d="M221.324 127.429H218.521V129.414H221.324V127.429Z" fill="white"/>
<path d="M223.238 127.429H221.834V129.414H223.238V127.429Z" fill="white"/>
<path d="M24.7525 15.2588C24.9153 14.0704 23.2384 13.0899 21.9808 12.9895C21.3779 12.941 20.7543 13.031 20.1826 12.8336C18.9492 12.4039 18.4503 10.8102 17.2516 10.3009C16.3508 9.91983 15.3149 10.2594 14.4418 10.6994C13.5687 11.1394 12.7095 11.6902 11.7324 11.7387C10.8836 11.7942 9.96202 11.4789 9.2206 11.8946C8.66626 12.203 8.37523 12.8405 7.86593 13.2147C7.33498 13.5438 6.7201 13.7123 6.09551 13.6997C5.47462 13.6821 4.85607 13.7832 4.27312 13.9977C3.70839 14.254 3.23373 14.8499 3.35846 15.4597L24.7525 15.2588Z" fill="#EBEBEB"/>
<path d="M238.857 39.402C239.017 38.2414 237.381 37.2886 236.152 37.1881C235.566 37.1431 234.956 37.2297 234.398 37.0391C233.196 36.6165 232.715 35.0609 231.54 34.5654C230.664 34.1982 229.652 34.5273 228.8 34.9535C227.947 35.3796 227.105 35.9236 226.156 35.9928C225.328 36.0483 224.424 35.7399 223.707 36.1453C223.166 36.4467 222.885 37.0669 222.387 37.4341C221.866 37.753 221.265 37.9154 220.654 37.9018C220.049 37.8859 219.446 37.9846 218.877 38.1929C218.326 38.4423 217.872 39.0244 217.987 39.6168L238.857 39.402Z" fill="#EBEBEB"/>
<path d="M61.5826 22.625C61.8805 20.4527 58.8109 18.665 56.5138 18.4675C55.4121 18.3809 54.2722 18.5472 53.2328 18.1869C50.9774 17.4004 50.0766 14.4867 47.8765 13.5582C46.2308 12.8653 44.3392 13.482 42.7454 14.2858C41.1517 15.0895 39.5753 16.0977 37.7945 16.2121C36.2423 16.3125 34.562 15.7374 33.2039 16.4927C32.1957 17.0574 31.6656 18.225 30.7336 18.9179C29.8016 19.6108 28.6375 19.7321 27.5046 19.7945C26.3717 19.8568 25.2041 19.8672 24.1751 20.3384C23.1461 20.8096 22.2973 21.8975 22.5086 23.0096L61.5826 22.625Z" fill="#F5F5F5"/>
<path d="M241.769 153.5C241.769 153.552 188.865 153.59 123.626 153.59C58.3871 153.59 5.48242 153.552 5.48242 153.5C5.48242 153.448 58.3767 153.41 123.643 153.41C188.91 153.41 241.769 153.451 241.769 153.5Z" fill="#263238"/>
<path d="M99.9883 138.996C100.356 139.082 100.703 139.241 101.008 139.465C101.313 139.688 101.569 139.97 101.762 140.295C102.146 140.947 102.375 141.679 102.431 142.433C102.583 143.885 102.084 145.492 101.475 146.812C100.054 146.033 99.3958 144.28 99.0944 143.368C98.644 141.927 98.7029 139.048 99.9883 138.996Z" fill="#FFCC00"/>
<path d="M103.375 148.845C103.205 148.457 103.14 148.032 103.187 147.612C103.234 147.191 103.39 146.791 103.641 146.451C103.899 146.116 104.221 145.835 104.588 145.626C104.955 145.417 105.36 145.282 105.779 145.231C105.969 145.186 106.167 145.184 106.358 145.224C106.549 145.264 106.728 145.346 106.884 145.463C107.01 145.596 107.097 145.759 107.139 145.937C107.181 146.115 107.176 146.3 107.123 146.475C107.009 146.822 106.806 147.134 106.534 147.379C105.644 148.252 104.622 148.938 103.375 148.845Z" fill="#FFCC00"/>
<path d="M102.797 153.519C102.778 153.421 102.77 153.321 102.773 153.221C102.773 153.006 102.755 152.733 102.745 152.403C102.686 151.498 102.774 150.589 103.005 149.711C103.252 148.831 103.73 148.033 104.39 147.401C104.591 147.213 104.813 147.051 105.052 146.915C105.117 146.877 105.184 146.843 105.253 146.815C105.298 146.794 105.322 146.784 105.326 146.787C105.009 146.98 104.712 147.204 104.439 147.456C103.81 148.094 103.353 148.881 103.109 149.743C102.881 150.61 102.785 151.507 102.824 152.403C102.824 152.75 102.824 153.027 102.824 153.221C102.825 153.321 102.816 153.421 102.797 153.519Z" fill="#263238"/>
<path d="M100.139 141.198C100.158 141.237 100.172 141.278 100.181 141.32C100.209 141.413 100.24 141.535 100.282 141.666C100.368 141.981 100.489 142.435 100.628 143C100.916 144.126 101.29 145.685 101.667 147.421C102.045 149.157 102.343 150.73 102.547 151.876C102.648 152.448 102.728 152.916 102.776 153.231C102.8 153.383 102.818 153.508 102.831 153.602C102.835 153.646 102.835 153.69 102.831 153.733C102.815 153.692 102.803 153.649 102.797 153.605C102.776 153.512 102.752 153.39 102.721 153.238C102.658 152.909 102.568 152.448 102.461 151.89C102.239 150.75 101.924 149.174 101.553 147.442C101.182 145.709 100.815 144.147 100.548 143.017C100.417 142.46 100.309 142.006 100.233 141.677L100.15 141.33C100.142 141.287 100.138 141.243 100.139 141.198Z" fill="#263238"/>
<path d="M101.494 150.163C101.161 149.337 100.636 148.602 99.9624 148.018C99.2888 147.435 98.4861 147.021 97.6206 146.809C97.1806 146.705 96.6332 146.695 96.3699 147.066C96.1066 147.436 96.3006 147.949 96.5501 148.327C97.0881 149.105 97.8443 149.706 98.7235 150.055C99.6027 150.404 100.566 150.485 101.491 150.288" fill="#FFCC00"/>
<path d="M98.1183 148.104C98.2122 148.111 98.3052 148.129 98.3954 148.156C98.5032 148.18 98.6096 148.21 98.7142 148.246C98.8389 148.291 98.9809 148.326 99.1299 148.395C99.2956 148.46 99.4575 148.534 99.615 148.617C99.7974 148.708 99.9744 148.81 100.145 148.922C100.538 149.179 100.901 149.48 101.226 149.819C101.546 150.163 101.825 150.543 102.058 150.952C102.157 151.13 102.246 151.314 102.324 151.503C102.395 151.666 102.458 151.832 102.511 152.002C102.556 152.142 102.593 152.284 102.622 152.428C102.652 152.535 102.672 152.643 102.685 152.753C102.705 152.846 102.715 152.94 102.716 153.034C102.692 153.034 102.647 152.636 102.439 152.026C102.383 151.86 102.318 151.697 102.245 151.537C102.164 151.353 102.073 151.174 101.971 151C101.74 150.601 101.464 150.229 101.15 149.892C100.836 149.56 100.488 149.262 100.11 149.005C99.9428 148.892 99.7693 148.788 99.5907 148.693C99.4279 148.599 99.265 148.53 99.1195 148.464C98.5063 148.208 98.1113 148.125 98.1183 148.104Z" fill="#263238"/>
<path d="M210.312 149.858C210.443 149.352 210.111 148.842 209.737 148.472C209.362 148.101 208.915 147.779 208.721 147.287C208.406 146.497 208.829 145.475 208.292 144.817C207.976 144.429 207.412 144.297 207.131 143.885C207.001 143.655 206.916 143.404 206.878 143.143C206.579 141.831 205.933 140.624 205.007 139.647C204.947 140.817 205.2 141.981 205.742 143.019C205.996 143.417 206.182 143.855 206.293 144.314C206.41 145.066 205.991 145.839 206.175 146.577C206.386 147.419 207.332 147.983 207.377 148.849C207.415 149.584 206.774 150.235 206.823 150.963C206.862 151.274 206.974 151.572 207.148 151.832C207.401 152.317 207.784 152.722 208.256 152.999C208.727 153.277 209.266 153.416 209.813 153.402L211.361 153.457L210.312 149.858Z" fill="#FFCC00"/>
<g opacity="0.3">
<path d="M210.311 149.867C210.443 149.362 210.11 148.852 209.736 148.482C209.362 148.111 208.915 147.789 208.721 147.297C208.406 146.507 208.828 145.485 208.291 144.826C207.976 144.438 207.411 144.307 207.131 143.894C207.001 143.665 206.915 143.414 206.878 143.153C206.578 141.841 205.932 140.634 205.007 139.657C204.946 140.826 205.2 141.99 205.741 143.028C205.995 143.427 206.182 143.865 206.292 144.324C206.41 145.076 205.991 145.848 206.174 146.586C206.386 147.428 207.332 147.993 207.377 148.859C207.415 149.594 206.774 150.245 206.822 150.973C206.862 151.284 206.973 151.582 207.148 151.842C207.4 152.327 207.784 152.731 208.255 153.009C208.726 153.286 209.266 153.426 209.812 153.412L211.361 153.467L210.311 149.867Z" fill="black"/>
</g>
<path d="M211.677 153.49C211.818 153.515 211.962 153.515 212.103 153.49C212.275 153.465 212.443 153.423 212.606 153.365C212.83 153.285 213.04 153.168 213.226 153.019C213.34 152.927 213.428 152.808 213.482 152.672C213.528 152.523 213.553 152.368 213.555 152.212C213.558 152.044 213.57 151.876 213.593 151.709C213.621 151.533 213.685 151.365 213.78 151.214C214.031 150.894 214.227 150.536 214.362 150.154C214.438 149.704 214.424 149.243 214.321 148.799C214.209 148.319 214.222 147.818 214.359 147.344C214.525 146.862 214.861 146.422 215.031 145.878C215.201 145.334 215.121 144.735 215.159 144.146C215.169 143.849 215.238 143.557 215.36 143.287C215.485 143.013 215.658 142.757 215.793 142.469C216.029 141.865 216.164 141.226 216.192 140.578C216.23 140.252 216.268 139.923 216.303 139.59C216.325 139.255 216.383 138.923 216.476 138.599C216.578 138.273 216.702 137.953 216.846 137.643C216.918 137.48 216.979 137.312 217.027 137.141C217.054 136.961 217.065 136.794 217.075 136.611C217.092 136.253 217.079 135.895 217.034 135.54C216.992 135.194 216.926 134.826 216.888 134.47V134.407V134.338L216.826 134.369C216.498 134.533 216.212 134.77 215.991 135.062C215.777 135.35 215.605 135.668 215.481 136.004C215.259 136.664 215.098 137.342 215 138.031C214.901 138.688 214.685 139.321 214.362 139.902C214.193 140.176 213.988 140.429 213.808 140.695C213.616 140.958 213.485 141.26 213.423 141.579C213.333 142.234 213.694 142.809 213.617 143.387C213.584 143.673 213.488 143.947 213.337 144.191C213.195 144.437 213.032 144.666 212.873 144.884C212.713 145.108 212.575 145.347 212.46 145.598C212.35 145.843 212.285 146.106 212.27 146.374C212.232 146.894 212.304 147.389 212.27 147.857C212.227 148.301 212.098 148.734 211.889 149.128C211.701 149.509 211.494 149.852 211.32 150.168C211.233 150.329 211.155 150.494 211.085 150.663C211.023 150.821 210.977 150.984 210.95 151.152C210.907 151.444 210.907 151.742 210.95 152.035C210.992 152.444 211.145 152.833 211.393 153.161C211.432 153.208 211.474 153.253 211.518 153.296C211.55 153.328 211.584 153.357 211.622 153.383L211.708 153.445C211.599 153.356 211.499 153.256 211.41 153.147C211.17 152.82 211.024 152.433 210.988 152.028C210.954 151.739 210.961 151.446 211.009 151.158C211.039 150.995 211.086 150.835 211.147 150.68C211.217 150.515 211.296 150.353 211.383 150.195C211.556 149.849 211.767 149.523 211.958 149.139C212.173 148.738 212.307 148.299 212.353 147.846C212.394 147.368 212.322 146.869 212.353 146.36C212.369 146.101 212.433 145.848 212.54 145.612C212.654 145.368 212.791 145.136 212.949 144.919C213.105 144.69 213.271 144.461 213.416 144.209C213.575 143.955 213.675 143.67 213.711 143.374C213.787 142.753 213.43 142.175 213.52 141.568C213.582 141.263 213.709 140.974 213.895 140.723C214.068 140.46 214.276 140.21 214.449 139.926C214.78 139.337 215.001 138.693 215.1 138.024C215.2 137.342 215.36 136.669 215.578 136.015C215.701 135.687 215.869 135.378 216.077 135.097C216.287 134.814 216.56 134.583 216.874 134.425L216.805 134.383V134.445C216.843 134.809 216.909 135.162 216.95 135.516C216.992 135.861 217.004 136.208 216.989 136.555C216.984 136.728 216.969 136.9 216.943 137.071C216.899 137.237 216.841 137.4 216.77 137.556C216.625 137.87 216.5 138.193 216.396 138.523C216.303 138.851 216.245 139.188 216.223 139.528C216.185 139.874 216.147 140.193 216.112 140.519C216.085 141.156 215.954 141.784 215.724 142.379C215.596 142.66 215.422 142.92 215.291 143.204C215.166 143.484 215.096 143.787 215.086 144.094C215.052 144.69 215.128 145.276 214.969 145.802C214.809 146.329 214.47 146.769 214.3 147.268C214.161 147.753 214.149 148.266 214.265 148.757C214.368 149.193 214.386 149.645 214.317 150.088C214.183 150.462 213.99 150.813 213.746 151.127C213.648 151.285 213.583 151.46 213.555 151.644C213.534 151.811 213.522 151.98 213.52 152.149C213.521 152.302 213.499 152.454 213.455 152.6C213.403 152.726 213.321 152.838 213.216 152.925C213.034 153.073 212.829 153.191 212.609 153.272C212.449 153.332 212.283 153.376 212.114 153.404C212.01 153.425 211.904 153.435 211.799 153.435L211.677 153.49Z" fill="#263238"/>
<path d="M216.552 135.262C216.551 135.279 216.551 135.295 216.552 135.311L216.518 135.45C216.487 135.571 216.452 135.754 216.393 135.987C216.334 136.219 216.192 136.472 216.071 136.794C215.929 137.152 215.807 137.517 215.704 137.889C215.586 138.304 215.482 138.762 215.357 139.25C215.264 139.776 215.098 140.285 214.862 140.764C214.737 141.014 214.591 141.27 214.481 141.547C214.368 141.832 214.293 142.13 214.255 142.434C214.174 143.064 214.058 143.688 213.909 144.305C213.601 145.573 213.303 146.782 213.036 147.88C212.769 148.979 212.509 149.959 212.301 150.798C212.093 151.636 211.931 152.291 211.816 152.766C211.761 152.991 211.719 153.171 211.688 153.299L211.657 153.441C211.655 153.457 211.655 153.474 211.657 153.49C211.657 153.49 211.657 153.472 211.674 153.441L211.716 153.306C211.75 153.174 211.799 152.998 211.861 152.772C211.983 152.301 212.159 151.636 212.378 150.815C212.596 149.994 212.845 148.996 213.129 147.905C213.414 146.813 213.701 145.597 214.013 144.329C214.161 143.709 214.277 143.081 214.359 142.448C214.396 142.152 214.468 141.861 214.574 141.582C214.685 141.312 214.824 141.059 214.952 140.802C215.186 140.317 215.352 139.802 215.444 139.271C215.551 138.779 215.652 138.322 215.763 137.909C215.873 137.497 215.998 137.13 216.109 136.811C216.22 136.492 216.358 136.233 216.414 135.993C216.469 135.754 216.497 135.578 216.521 135.453L216.552 135.304C216.552 135.28 216.552 135.262 216.552 135.262Z" fill="#263238"/>
<path d="M211.946 153.496C212.958 152.896 213.246 151.07 212.826 149.976C212.407 148.881 211.666 147.876 211.551 146.705C211.465 145.804 211.759 144.883 211.551 144.003C211.271 142.818 210.114 141.9 210.124 140.68C210.124 139.987 210.522 139.35 210.491 138.667C210.453 137.829 209.798 137.163 209.41 136.426C208.801 135.293 208.762 133.959 208.551 132.691C208.34 131.423 207.858 130.065 206.736 129.441C206.573 130.518 206.289 131.256 206.389 132.711C206.424 133.238 207.03 134.239 207.113 135.386C207.162 136.079 207.196 136.772 207.238 137.444C207.246 138.115 207.356 138.781 207.564 139.419C207.747 139.897 208.042 140.334 208.177 140.826C208.433 141.758 208.097 142.766 208.305 143.708C208.478 144.505 209.033 145.191 209.144 146.002C209.303 147.138 208.568 148.319 208.943 149.404C209.13 149.944 209.573 150.377 209.698 150.932C209.798 151.365 209.698 151.819 209.778 152.252C209.92 152.945 211.253 153.492 211.964 153.45" fill="#FFCC00"/>
<path d="M207.015 130.515C207.015 130.515 207.015 130.535 207.015 130.574L207.039 130.75C207.06 130.906 207.087 131.135 207.139 131.443C207.191 131.752 207.347 132.074 207.486 132.483C207.624 132.891 207.742 133.349 207.857 133.868C207.971 134.388 208.068 134.96 208.168 135.576C208.249 136.242 208.424 136.893 208.688 137.51C208.827 137.835 208.986 138.158 209.107 138.501C209.223 138.855 209.294 139.223 209.319 139.595C209.376 140.384 209.475 141.17 209.617 141.948C209.925 143.541 210.219 145.066 210.49 146.452C210.76 147.838 211.027 149.068 211.241 150.114C211.456 151.16 211.633 151.992 211.758 152.581C211.817 152.865 211.865 153.09 211.9 153.249L211.941 153.422L211.959 153.481C211.96 153.462 211.96 153.442 211.959 153.422L211.927 153.246C211.896 153.086 211.855 152.858 211.803 152.57C211.685 151.981 211.519 151.139 211.318 150.1C211.117 149.061 210.843 147.782 210.569 146.396C210.296 145.01 210.012 143.496 209.703 141.892C209.563 141.116 209.464 140.333 209.405 139.547C209.379 139.167 209.305 138.793 209.187 138.431C209.062 138.085 208.903 137.756 208.761 137.437C208.499 136.827 208.323 136.183 208.238 135.524C208.134 134.908 208.033 134.333 207.912 133.813C207.807 133.345 207.679 132.882 207.527 132.427C207.399 132.025 207.24 131.693 207.181 131.388C207.122 131.083 207.091 130.865 207.06 130.712C207.06 130.639 207.035 130.584 207.029 130.539C207.024 130.531 207.02 130.522 207.015 130.515Z" fill="#263238"/>
<path d="M182.447 107.773H28.5938V123.149H182.447V107.773Z" fill="#FFCC00"/>
<g opacity="0.4">
<path d="M182.445 107.78H28.5918V123.156H182.445V107.78Z" fill="black"/>
</g>
<path d="M149.11 125.094H103.696V139.334H149.11V125.094Z" fill="#455A64"/>
<path d="M71.96 118.656V137.479H87.4676L93.6831 128.471H206.91V118.656H71.96Z" fill="#263238"/>
<path d="M70.9957 59.046C70.9787 58.7433 70.8436 58.4594 70.6194 58.2554C70.3952 58.0513 70.0999 57.9433 69.797 57.9547C63.6681 58.2076 34.5722 59.5415 28.5888 62.4171C24.0086 64.6205 18.9918 72.8455 15.4544 78.3853C12.9183 82.3558 7.31604 91.1697 6.18311 95.6771C5.22341 99.4881 4.64482 107.415 4.71065 111.347L6.3113 132.156H32.6805L35.3206 125.282C36.163 123.092 37.6492 121.21 39.5833 119.882C41.5173 118.554 43.8084 117.843 46.1544 117.844H72.3573V83.312L70.9957 59.046Z" fill="#FFCC00"/>
<path d="M25.4595 64.7251C21.8286 68.1897 18.1838 74.0795 15.4502 78.3894C13.1012 82.0653 8.12603 89.8918 6.50112 94.6106C6.46994 94.6972 6.44569 94.7804 6.41797 94.867C7.22176 94.6453 8.45863 94.1914 8.8432 93.4292C9.42179 92.2755 10.1632 88.3224 19.3306 73.4004C22.1162 68.8514 24.8324 66.1906 25.4595 64.7251Z" fill="#455A64"/>
<path d="M57.4516 63.1792C50.7095 63.5638 36.0923 64.565 31.422 66.1518C25.3381 68.2306 18.5093 84.3374 18.1871 85.0442L13.5861 96.8238C13.5603 96.9008 13.5532 96.9828 13.5653 97.0631C13.5774 97.1435 13.6084 97.2197 13.6558 97.2857C13.7032 97.3517 13.7655 97.4054 13.8377 97.4426C13.9099 97.4798 13.9899 97.4992 14.0712 97.4994H25.9652C26.4157 97.4995 26.8626 97.4197 27.2852 97.2638L58.5673 85.602C59.258 85.3443 59.8534 84.8816 60.2739 84.276C60.6943 83.6705 60.9197 82.9509 60.9197 82.2136V66.4602C60.92 66.0133 60.829 65.571 60.6523 65.1604C60.4757 64.7499 60.2172 64.3797 59.8925 64.0726C59.5678 63.7655 59.1839 63.5278 58.7642 63.3742C58.3445 63.2206 57.8979 63.1542 57.4516 63.1792Z" fill="#263238"/>
<path d="M14.9043 96.3467C14.9043 96.3467 19.3113 86.4622 20.7941 83.2229C23.0323 78.3309 28.2604 68.3251 31.7908 67.2477C35.0372 66.2741 44.3709 65.0892 57.5087 64.3374H57.6334C58.1977 64.3392 58.7382 64.5644 59.1368 64.9637C59.5355 65.363 59.7598 65.9039 59.7607 66.4681V82.5784C59.7595 82.9755 59.6375 83.3627 59.411 83.6888C59.1845 84.0149 58.8643 84.2644 58.4927 84.4043L35.3802 87.2556C34.4537 87.37 33.5632 87.6845 32.7705 88.1775C31.9778 88.6705 31.3018 89.3301 30.7896 90.1105L26.7845 96.2185C26.5494 96.3055 26.3007 96.3501 26.05 96.3502L14.9043 96.3467Z" fill="#455A64"/>
<path d="M34.5423 87.4286L26.6846 96.1802L31.0327 67.1227L32.1206 66.7485L29.9794 88.274C29.9693 88.3821 29.9872 88.491 30.0312 88.5902C30.0752 88.6894 30.144 88.7757 30.2309 88.8407C30.3179 88.9057 30.42 88.9473 30.5277 88.9615C30.6353 88.9757 30.7447 88.9621 30.8456 88.9219L34.5423 87.4286Z" fill="#263238"/>
<path d="M4.19712 113.37C4.1694 112.992 4.29759 112.677 4.49161 112.677L8.70459 112.289C9.05105 112.254 9.37326 112.909 9.41484 113.675L9.60539 116.907C9.63657 117.427 9.48066 117.867 9.25893 117.905L4.9628 118.646C4.76878 118.681 4.58169 118.394 4.55398 118.012L4.19712 113.37Z" fill="#EBEBEB"/>
<path d="M34.5504 128.475H4.19336V140.646H34.5504V128.475Z" fill="#263238"/>
<path d="M54.8108 153.355C63.9772 153.003 71.1225 145.287 70.7704 136.121C70.4182 126.954 62.702 119.809 53.5356 120.161C44.3693 120.513 37.2239 128.23 37.5761 137.396C37.9282 146.562 45.6445 153.707 54.8108 153.355Z" fill="#263238"/>
<path d="M37.581 136.469C37.5829 136.484 37.5829 136.499 37.581 136.514C37.5229 140.916 39.2143 145.16 42.2835 148.315C45.3527 151.47 49.5487 153.278 53.9499 153.341C58.3511 153.404 62.5975 151.718 65.7562 148.653C68.915 145.587 70.7277 141.393 70.7963 136.992C70.7963 136.992 70.7963 136.965 70.7963 136.951L37.581 136.469Z" fill="#263238"/>
<path d="M42.5228 136.589C42.4887 138.896 43.1395 141.16 44.3927 143.097C45.6459 145.033 47.4452 146.555 49.5632 147.469C51.6811 148.383 54.0225 148.648 56.2912 148.231C58.5599 147.814 60.654 146.734 62.3087 145.126C63.9633 143.519 65.1042 141.458 65.587 139.202C66.0698 136.946 65.8728 134.598 65.021 132.455C64.1692 130.311 62.7008 128.468 60.8015 127.159C58.9022 125.85 56.6574 125.134 54.351 125.101C51.2591 125.056 48.2762 126.241 46.0581 128.396C43.84 130.55 42.5684 133.497 42.5228 136.589Z" fill="#FAFAFA"/>
<path d="M54.357 125.101C51.2652 125.056 48.2823 126.241 46.0642 128.396C43.8461 130.55 42.5744 133.497 42.5288 136.589L65.8492 136.936C65.8945 133.842 64.7093 130.858 62.5541 128.638C60.3989 126.419 57.4504 125.146 54.357 125.101Z" fill="#E0E0E0"/>
<path d="M47.0784 136.647C47.058 138.052 47.4546 139.431 48.218 140.61C48.9815 141.79 50.0775 142.716 51.3675 143.272C52.6575 143.829 54.0834 143.99 55.4651 143.736C56.8467 143.482 58.122 142.823 59.1295 141.845C60.1371 140.866 60.8317 139.61 61.1255 138.236C61.4193 136.862 61.2991 135.432 60.7802 134.127C60.2612 132.821 59.3668 131.699 58.21 130.902C57.0532 130.105 55.686 129.669 54.2813 129.649C52.3982 129.622 50.5815 130.344 49.2307 131.657C47.8799 132.969 47.1058 134.764 47.0784 136.647Z" fill="#263238"/>
<path d="M21.9769 73.7334H20.6222C19.0952 73.7334 17.8574 74.9712 17.8574 76.4981V87.4913C17.8574 89.0182 19.0952 90.256 20.6222 90.256H21.9769C23.5038 90.256 24.7416 89.0182 24.7416 87.4913V76.4981C24.7416 74.9712 23.5038 73.7334 21.9769 73.7334Z" fill="#263238"/>
<path d="M15.0047 100.473H14.6582V83.0008C14.6591 82.1677 14.9905 81.3689 15.5796 80.7798C16.1687 80.1907 16.9675 79.8593 17.8006 79.8584H18.6321V80.2049H17.8006C17.0594 80.2058 16.3487 80.5006 15.8246 81.0248C15.3004 81.5489 15.0056 82.2595 15.0047 83.0008V100.473Z" fill="#263238"/>
<path d="M17.3592 100.486L16.396 84.1504C16.3825 83.8711 16.4254 83.592 16.5223 83.3297C16.6192 83.0674 16.768 82.8273 16.9598 82.6239C17.1516 82.4204 17.3825 82.2577 17.6386 82.1456C17.8948 82.0334 18.1709 81.9741 18.4505 81.9712V82.3176C18.2173 82.3177 17.9866 82.3654 17.7725 82.4579C17.5585 82.5503 17.3655 82.6855 17.2056 82.8552C17.0457 83.0249 16.9221 83.2254 16.8424 83.4446C16.7628 83.6637 16.7288 83.8969 16.7425 84.1296L17.7056 100.469L17.3592 100.486Z" fill="#263238"/>
<path d="M18.4511 98.8943H13.7808V104.303H18.4511V98.8943Z" fill="#263238"/>
<path d="M16.7311 88.6282H14.8325V88.9746H16.7311V88.6282Z" fill="#263238"/>
<path d="M32.5798 63.6468L32.9921 63.5913L34.2082 63.4493L38.9201 62.9053L56.4857 60.9063C57.4212 60.8058 58.3739 60.6811 59.3614 60.5945C59.8658 60.556 60.3731 60.5887 60.8685 60.6915C61.3721 60.8093 61.858 60.9933 62.3132 61.2389C63.2523 61.7615 64.0137 62.553 64.4994 63.5116C64.7507 64.0017 64.9204 64.5295 65.0018 65.0742C65.0453 65.3493 65.0696 65.6272 65.0745 65.9057V66.7406C65.0745 71.2134 65.0745 76.0153 65.0745 81.1048C65.0745 91.2838 65.0745 102.606 65.0745 114.711V114.801H46.8264C45.7847 114.767 44.7419 114.817 43.7082 114.95C41.5759 115.257 39.5642 116.128 37.8807 117.472C36.1973 118.816 34.9032 120.585 34.132 122.597C33.9823 122.966 33.8562 123.344 33.7544 123.73C33.6417 124.111 33.5526 124.498 33.4876 124.89L33.3975 125.479L33.3559 125.774L33.3386 126.068L33.3109 126.661V126.959V126.993C33.3871 126.917 33.2035 127.111 33.2173 127.09H10.0771V126.993C10.0771 121.772 10.0771 116.738 10.0771 111.929C10.0771 109.525 10.0771 107.177 10.0771 104.886V101.497C10.0771 100.94 10.0771 100.389 10.0771 99.8378C10.0884 99.2899 10.1278 98.743 10.1949 98.1991C10.4592 96.1029 11.125 94.0773 12.1559 92.2331C13.1098 90.4384 14.0337 88.7061 14.9276 87.0362L19.8404 77.8308L23.8282 70.3577C24.1192 69.8149 24.3987 69.2894 24.6667 68.7813C24.8052 68.5318 24.9265 68.2789 25.072 68.0433C25.2155 67.8131 25.3716 67.591 25.5397 67.3781C26.1406 66.6289 26.8479 65.9717 27.6393 65.4276C28.7292 64.6877 29.9477 64.1578 31.2321 63.865C31.673 63.7593 32.1212 63.6863 32.5729 63.6468L32.2265 63.6987C32.0013 63.7334 31.6687 63.7923 31.2321 63.8928C29.9553 64.1946 28.7454 64.7303 27.6636 65.4726C26.8789 66.0175 26.1785 66.6747 25.5848 67.4232C25.417 67.6323 25.2631 67.8522 25.124 68.0814C24.9819 68.3101 24.8607 68.5665 24.7221 68.8194L23.8871 70.3992L19.934 77.8793C18.4511 80.6717 16.8158 83.7518 15.0489 87.0916L12.2772 92.2885C11.2558 94.1188 10.5981 96.1294 10.3405 98.2095C10.2744 98.7488 10.2363 99.2911 10.2261 99.8344C10.2261 100.378 10.2261 100.936 10.2261 101.49V104.879C10.2261 107.168 10.2261 109.516 10.2261 111.922C10.2261 116.731 10.2261 121.765 10.2261 126.986L10.1395 126.903H33.1896C33.2139 126.886 33.0233 127.069 33.103 126.986V126.948V126.65L33.1342 126.047V125.749L33.1792 125.451L33.2693 124.852C33.3351 124.454 33.4254 124.061 33.5395 123.674C33.6432 123.283 33.7716 122.899 33.9241 122.524C34.7076 120.483 36.0211 118.688 37.7294 117.324C39.4376 115.96 41.4787 115.076 43.6424 114.763C44.6762 114.632 45.7188 114.582 46.7605 114.614H64.9255L64.8355 114.701C64.8355 102.609 64.8355 91.2872 64.8355 81.0944C64.8355 76.0049 64.8355 71.203 64.8355 66.7302C64.858 66.1807 64.8348 65.6303 64.7662 65.0846C64.6873 64.5521 64.5223 64.0361 64.2776 63.5567C63.8074 62.6196 63.0646 61.8466 62.1469 61.3394C61.7046 61.0972 61.2314 60.9165 60.7403 60.8023C60.2565 60.7003 59.7609 60.6664 59.2678 60.7019C58.2873 60.785 57.3276 60.9097 56.3956 61.0102L38.8335 62.9539L34.1181 63.4701L32.9021 63.5983L32.5798 63.6468Z" fill="#263238"/>
<path d="M59.5453 101.938C59.5453 101.938 59.6423 101.938 59.8156 101.897C60.0703 101.852 60.3131 101.755 60.5293 101.613C60.8701 101.389 61.1253 101.057 61.2534 100.67C61.3317 100.429 61.3634 100.175 61.3469 99.9221C61.3395 99.6414 61.2671 99.3663 61.1356 99.1183C60.9848 98.8344 60.7606 98.5963 60.4864 98.4287C60.2121 98.2611 59.8979 98.1702 59.5765 98.1655H57.2899H52.0514C51.6152 98.1661 51.1945 98.3271 50.8693 98.6178C50.5441 98.9085 50.3372 99.3086 50.2879 99.7419C50.2334 100.153 50.3098 100.572 50.5061 100.937C50.7009 101.283 51.0058 101.554 51.3723 101.706C51.7347 101.832 52.1197 101.879 52.5018 101.845H53.6104H55.6026L58.4886 101.873H59.2751C59.3656 101.871 59.4561 101.878 59.5453 101.893C59.4556 101.904 59.3654 101.91 59.2751 101.911H58.4886L55.6026 101.938H53.6104H52.5018C52.3077 101.938 52.1206 101.938 51.9162 101.938C51.7083 101.923 51.5039 101.876 51.3099 101.8C50.9092 101.634 50.5752 101.339 50.3606 100.961C50.1455 100.565 50.0606 100.11 50.1181 99.6622C50.1717 99.1866 50.3982 98.7472 50.7547 98.4278C51.1112 98.1084 51.5727 97.9312 52.0514 97.9299H57.2899H59.5765C60.0763 97.9398 60.5525 98.1439 60.9044 98.499C61.2562 98.8541 61.456 99.3322 61.4613 99.832C61.4723 100.097 61.4335 100.361 61.3469 100.612C61.2044 101.014 60.9296 101.356 60.5674 101.582C60.3414 101.722 60.087 101.811 59.8225 101.841C59.7344 101.885 59.6413 101.918 59.5453 101.938Z" fill="#263238"/>
<path d="M58.9135 97.5884C57.9263 97.6753 56.9349 97.7042 55.9443 97.675C54.9526 97.7043 53.96 97.6753 52.9717 97.5884C53.9599 97.4992 54.9525 97.4691 55.9443 97.4983C56.935 97.4692 57.9265 97.4993 58.9135 97.5884Z" fill="white"/>
<path d="M35.9289 140.744L33.1572 140.543C33.8813 130.617 34.9415 124.679 36.4001 122.389C39.1995 117.989 41.9816 117.192 45.0617 116.669C47.9304 116.18 50.8233 116.295 53.6227 116.409L54.3157 116.437C60.0946 116.662 72.2 116.461 72.3317 116.461L72.3767 119.233C72.2554 119.233 60.0739 119.437 54.2186 119.209L53.5257 119.181C50.8684 119.077 48.1244 118.963 45.5398 119.406C42.7854 119.874 40.9526 120.411 38.7422 123.882C38.0735 124.918 36.8193 128.518 35.9289 140.744Z" fill="#263238"/>
<path d="M210.309 27.6724H73.8096V118.555H210.309V27.6724Z" fill="#FFCC00"/>
<path d="M208.67 116.753C208.67 116.167 208.642 82.8347 208.597 29.7226L208.67 29.7919L75.282 29.8127L75.3721 29.7226C75.3721 60.6579 75.3721 90.1034 75.3721 116.753L75.2889 116.67L208.677 116.753L75.2889 116.836H75.1919V116.753C75.1919 90.1034 75.1919 60.6579 75.1919 29.7226V29.636H75.2924L208.68 29.6533H208.753V29.7261C208.698 82.8347 208.67 116.171 208.67 116.753Z" fill="#263238"/>
<g opacity="0.5">
<path d="M93.165 70.6331L94.4539 96.6279L195.687 75.5702L193.895 48.4736L93.165 70.6331Z" fill="black"/>
</g>
<path d="M100.835 88.6295L101.528 86.2043C102.883 86.7875 104.387 86.9305 105.827 86.6131C107.376 86.2667 108.253 85.5322 108.048 84.6418C107.629 82.6912 101.812 85.0333 100.97 81.146C100.433 78.6377 102.28 76.5451 105.661 75.821C107.3 75.4745 108.894 75.5091 110.103 75.9595L109.497 78.3397C108.374 77.9176 107.152 77.8368 105.983 78.1076C104.345 78.454 103.52 79.2925 103.707 80.1655C104.123 82.1715 109.961 79.8191 110.768 83.5712C111.309 86.1004 109.427 88.1999 106.028 88.9275C104.047 89.3571 102.037 89.1665 100.835 88.6295Z" fill="white"/>
<path d="M123.867 72.1177L124.044 84.8396L121.221 85.4459L121.148 80.2664L115.622 81.4513L115.698 86.6482L112.853 87.2406L112.677 74.5152L115.518 73.9054L115.587 78.9048L121.113 77.7199L121.044 72.7205L123.867 72.1177Z" fill="white"/>
<path d="M126.754 71.4997L129.588 70.8899L129.765 83.6118L126.924 84.2216L126.754 71.4997Z" fill="white"/>
<path d="M143.002 71.9957C143.667 75.0965 141.799 77.5391 138.151 78.3047L135.431 78.8868L135.483 82.3895L132.642 82.9993L132.476 70.2634L137.41 69.2241C140.459 68.5554 142.489 69.5982 143.002 71.9957ZM140.195 72.8515C139.942 71.6666 138.986 71.289 137.555 71.5973L135.341 72.072L135.397 76.4893L137.784 75.9765C139.641 75.5677 140.542 74.4625 140.195 72.8411V72.8515Z" fill="white"/>
<path d="M155.57 69.2882C156.236 72.4063 154.368 74.8316 150.72 75.5972L148.004 76.1827L148.063 79.6854L145.222 80.2952L145.042 67.5732L149.975 66.5131C153.034 65.8583 155.065 66.9011 155.57 69.2882ZM152.764 70.1474C152.511 68.9591 151.552 68.5814 150.124 68.8898L147.91 69.3644L147.966 73.7852L150.353 73.2725C152.224 72.8706 153.118 71.7654 152.771 70.1474H152.764Z" fill="white"/>
<path d="M157.652 64.8676L160.493 64.2578L160.673 76.9832L157.832 77.593L157.652 64.8676Z" fill="white"/>
<path d="M174.547 61.26L174.728 73.982L172.406 74.4809L166.222 67.8081L166.326 75.7766L163.554 76.376L163.374 63.6506L165.709 63.1482L171.9 69.8245L171.776 61.8559L174.547 61.26Z" fill="white"/>
<path d="M185.782 65.0028L188.363 64.4484L188.429 69.6834C187.284 70.9596 185.758 71.8311 184.077 72.1675C180.38 72.9609 177.584 71.3187 176.909 68.166C176.015 64.0085 178.388 60.1974 183.007 59.1996C185.342 58.6972 187.209 59.0783 188.55 60.239L186.88 62.3177C185.841 61.5174 184.76 61.3511 183.415 61.6421C180.557 62.2554 179.168 64.7048 179.743 67.3899C180.134 69.2192 181.621 70.1962 183.938 69.6973C184.638 69.5544 185.298 69.2573 185.868 68.8277L185.782 65.0028Z" fill="white"/>
<path d="M177.647 52.3761L198.078 47.5915L197.271 45.4158L177.647 52.3761Z" fill="#FAFAFA"/>
<path d="M86.1689 67.6625L100.374 64.3365L99.8126 62.8259L86.1689 67.6625Z" fill="#FAFAFA"/>
<path d="M134.8 101.892L155.231 97.1044L154.427 94.9321L134.8 101.892Z" fill="#FAFAFA"/>
<path d="M113.192 72.8007C113.192 72.8492 108.514 73.8401 102.722 75.0042C96.9287 76.1683 92.2272 77.0829 92.2168 77.0344C92.2064 76.9859 96.8941 75.995 102.687 74.8275C108.48 73.6599 113.181 72.7522 113.192 72.8007Z" fill="#FAFAFA"/>
<path d="M54.4121 70.7107C54.4121 70.7107 54.3705 70.7523 54.2839 70.8181L53.9028 71.0918C53.5563 71.3309 53.0817 71.6635 52.4788 72.0757C51.2697 72.8934 49.5859 74.009 47.7081 75.2112C45.8302 76.4134 44.1153 77.477 42.8576 78.2358C42.234 78.6134 41.7247 78.9287 41.3713 79.1227L40.9625 79.3514C40.9159 79.3815 40.8659 79.4059 40.8135 79.4241C40.8135 79.4241 40.8551 79.3826 40.9417 79.3237L41.3332 79.0603L42.7918 78.1284L47.6041 75.0588L52.3992 71.9683L53.8578 71.0364L54.2597 70.7869C54.3076 70.7561 54.3587 70.7305 54.4121 70.7107Z" fill="#FAFAFA"/>
<path d="M48.4785 72.2769C48.4785 72.2769 48.4369 72.3184 48.3503 72.3843L47.9692 72.658C47.6227 72.8936 47.1481 73.2296 46.5418 73.6384C45.3326 74.4595 43.6488 75.5717 41.7745 76.7566C39.9001 77.9415 38.1817 79.0259 36.924 79.7846C36.3004 80.1623 35.7911 80.4775 35.4377 80.6681L35.0289 80.9002C34.9831 80.9309 34.9328 80.9542 34.8799 80.9695C34.9187 80.9313 34.9617 80.8976 35.0081 80.869L35.3996 80.6092L36.8547 79.6737L41.6705 76.6076L46.4656 73.5172L47.9242 72.5817L48.3226 72.3358C48.3718 72.3093 48.4242 72.2895 48.4785 72.2769Z" fill="#FAFAFA"/>
<path d="M19.3177 82.3629C19.2646 82.2682 19.2283 82.1651 19.2103 82.058C19.1549 81.8605 19.0787 81.5695 18.992 81.2092C18.7643 80.2675 18.648 79.3024 18.6456 78.3336C18.6407 77.3549 18.8662 76.3888 19.3039 75.5134C19.4408 75.2515 19.6057 75.0052 19.7958 74.7789C19.8599 74.6925 19.9371 74.6165 20.0245 74.5537C19.8033 74.8822 19.5998 75.2222 19.4147 75.5723C19.0199 76.4427 18.8178 77.3882 18.8223 78.344C18.8328 79.301 18.9361 80.2548 19.1306 81.1919C19.2173 81.5779 19.2798 81.969 19.3177 82.3629Z" fill="#FAFAFA"/>
<path d="M5.20959 106.925C5.19706 106.802 5.19706 106.678 5.20959 106.555C5.20959 106.305 5.20959 105.945 5.23038 105.515C5.2581 104.625 5.32392 103.395 5.43133 102.051C5.53873 100.707 5.66692 99.4731 5.77779 98.5862C5.83322 98.1427 5.88173 97.7859 5.91984 97.5468C5.93288 97.4185 5.95959 97.2919 5.99953 97.1692C6.01693 97.2979 6.01693 97.4285 5.99953 97.5572L5.90945 98.5966C5.83322 99.5251 5.72928 100.727 5.61495 102.061C5.50062 103.395 5.43133 104.594 5.3655 105.526C5.33432 105.942 5.3066 106.291 5.28581 106.565C5.27527 106.688 5.24967 106.809 5.20959 106.925Z" fill="#FAFAFA"/>
<path d="M43.1738 113.65C43.1738 113.688 42.5052 113.782 41.4692 114.118C40.8629 114.314 40.2712 114.554 39.6988 114.835C38.2962 115.531 37.0272 116.47 35.9501 117.606C35.5103 118.068 35.1039 118.56 34.734 119.079C34.1069 119.969 33.8124 120.583 33.7812 120.565C33.8328 120.414 33.8977 120.268 33.9753 120.129C34.0528 119.959 34.1407 119.795 34.2386 119.637C34.3494 119.45 34.4707 119.231 34.6301 119.006C34.9888 118.47 35.3896 117.964 35.8288 117.492C36.3732 116.915 36.9655 116.386 37.5993 115.909C38.2389 115.444 38.9183 115.038 39.6295 114.693C40.2105 114.414 40.813 114.182 41.4311 114C41.691 113.913 41.937 113.865 42.1483 113.813C42.33 113.769 42.5139 113.734 42.6992 113.709C42.8551 113.674 43.0141 113.654 43.1738 113.65Z" fill="#FAFAFA"/>
<path d="M77.3018 92.7299C77.2974 92.6803 77.2974 92.6305 77.3018 92.5809C77.3018 92.4747 77.3018 92.3292 77.3018 92.1444C77.3018 91.7494 77.3018 91.1847 77.2776 90.4641C77.2568 88.9951 77.2291 86.8851 77.191 84.2832C77.0974 79.0552 76.9692 71.8523 76.8272 63.8941C76.6851 55.936 76.5639 48.7193 76.5154 43.5016C76.4911 40.8928 76.4842 38.7794 76.4877 37.3208C76.4877 36.5967 76.4877 36.0319 76.4877 35.6404V35.2039C76.4877 35.1034 76.4877 35.0549 76.4877 35.0549C76.4923 35.1045 76.4923 35.1544 76.4877 35.2039C76.4877 35.3078 76.4877 35.4534 76.4877 35.6404C76.4877 36.0319 76.4877 36.5967 76.5119 37.3208C76.5327 38.7898 76.5604 40.8962 76.5985 43.4981C76.6921 48.7262 76.8203 55.9291 76.9623 63.8907C77.1044 71.8523 77.2291 79.0621 77.2741 84.2798C77.2984 86.8921 77.3088 89.002 77.3053 90.4606C77.3053 91.1847 77.3053 91.7494 77.3053 92.1444C77.3053 92.328 77.3053 92.4735 77.3053 92.5809C77.3071 92.6306 77.3059 92.6803 77.3018 92.7299Z" fill="#FAFAFA"/>
<path d="M177.539 153.337C186.705 152.971 193.838 145.243 193.472 136.077C193.105 126.912 185.378 119.779 176.212 120.145C167.046 120.512 159.913 128.239 160.279 137.405C160.646 146.57 168.373 153.704 177.539 153.337Z" fill="#263238"/>
<path d="M160.263 136.469C160.263 136.469 160.263 136.5 160.263 136.514C160.2 140.918 161.889 145.167 164.958 148.326C168.028 151.485 172.226 153.296 176.63 153.359C181.034 153.422 185.283 151.734 188.442 148.664C191.602 145.595 193.412 141.397 193.475 136.992V136.951L160.263 136.469Z" fill="#263238"/>
<path d="M165.212 136.589C165.179 138.895 165.83 141.158 167.083 143.094C168.336 145.029 170.135 146.55 172.252 147.463C174.369 148.376 176.71 148.641 178.977 148.224C181.245 147.807 183.338 146.727 184.992 145.12C186.646 143.514 187.787 141.453 188.269 139.199C188.752 136.944 188.556 134.597 187.704 132.454C186.853 130.311 185.386 128.469 183.488 127.16C181.59 125.851 179.346 125.134 177.04 125.101C173.949 125.056 170.966 126.241 168.748 128.396C166.529 130.55 165.258 133.497 165.212 136.589Z" fill="#FAFAFA"/>
<path d="M177.039 125.101C175.508 125.078 173.988 125.358 172.565 125.923C171.141 126.488 169.844 127.328 168.745 128.395C167.647 129.462 166.769 130.734 166.163 132.14C165.557 133.546 165.233 135.058 165.211 136.589L188.528 136.936C188.551 135.404 188.273 133.883 187.708 132.459C187.143 131.035 186.303 129.737 185.236 128.637C184.169 127.538 182.896 126.66 181.49 126.053C180.083 125.446 178.571 125.123 177.039 125.101Z" fill="#E0E0E0"/>
<path d="M169.783 136.647C169.763 138.052 170.159 139.431 170.923 140.61C171.686 141.79 172.782 142.716 174.072 143.272C175.362 143.829 176.788 143.99 178.17 143.736C179.551 143.482 180.827 142.823 181.834 141.845C182.842 140.866 183.536 139.61 183.83 138.236C184.124 136.862 184.004 135.432 183.485 134.127C182.966 132.821 182.071 131.699 180.915 130.902C179.758 130.105 178.391 129.669 176.986 129.649C175.103 129.622 173.286 130.344 171.935 131.657C170.585 132.969 169.81 134.764 169.783 136.647Z" fill="#263238"/>
<path d="M155.027 141.306C155.027 141.306 152.497 117.746 176.909 117.746C199.429 117.746 198.93 138.007 198.715 141.143H195.185C195.185 141.143 196.983 121.173 176.909 121.173C156.835 121.173 158.581 141.548 158.581 141.548C158.581 141.548 157.099 141.475 155.027 141.306Z" fill="#455A64"/>
<path d="M168.112 120.188C168.051 120.219 167.987 120.243 167.921 120.258C167.793 120.303 167.602 120.348 167.367 120.431C166.689 120.646 166.026 120.904 165.381 121.203C163.247 122.182 161.357 123.622 159.846 125.419C158.335 127.217 157.241 129.327 156.644 131.597C156.461 132.281 156.321 132.975 156.224 133.676C156.186 133.925 156.173 134.119 156.152 134.251C156.146 134.319 156.134 134.386 156.117 134.452C156.109 134.385 156.109 134.318 156.117 134.251C156.117 134.116 156.117 133.905 156.159 133.669C156.227 132.956 156.35 132.25 156.526 131.556C157.094 129.25 158.183 127.106 159.71 125.288C161.237 123.47 163.161 122.026 165.333 121.068C165.986 120.777 166.66 120.533 167.349 120.341C167.592 120.271 167.786 120.233 167.914 120.202C167.979 120.19 168.045 120.186 168.112 120.188Z" fill="#FAFAFA"/>
<path d="M212.371 117.02C212.371 117.02 213.262 134.022 213.709 137.467C214.155 140.913 215.046 145.94 215.046 145.94C215.046 145.94 214.409 146.386 214.282 146.833C214.155 147.279 214.346 148.934 214.346 148.934L218.996 149.252C218.996 149.252 219.186 148.107 219.186 145.493V141.601C219.186 141.093 219.952 119.306 219.952 119.306L220.524 141.667C220.524 141.667 220.333 148.609 220.653 148.736C220.967 148.898 221.266 149.09 221.544 149.309L225.62 149.182C225.793 148.429 225.9 147.662 225.94 146.89C225.94 145.997 225.366 144.278 225.43 143.322C225.493 142.365 227.15 134.596 227.15 133.258V112.432H212.502L212.371 117.02Z" fill="#263238" stroke="#263238" stroke-width="0.488661" stroke-linecap="round" stroke-linejoin="round"/>
<path d="M218.544 148.931C218.544 148.931 216.826 147.466 216.062 147.593C215.298 147.72 214.595 148.167 214.532 148.357C214.468 148.548 214.022 148.931 213.895 149.312C213.768 149.693 211.729 151.606 211.283 152.116C210.836 152.626 210.519 152.69 210.902 153.007C211.139 153.201 211.42 153.333 211.721 153.39H218.991C218.991 153.39 219.247 152.817 219.182 151.67C219.116 150.522 218.991 149.248 218.991 149.248L218.544 148.931Z" fill="white" stroke="#263238" stroke-width="0.488661" stroke-linecap="round" stroke-linejoin="round"/>
<path d="M210.73 152.756C210.73 152.83 210.776 152.905 210.9 153.01C211.138 153.204 211.419 153.335 211.72 153.393H218.99C219.067 153.188 219.119 152.974 219.143 152.756H210.73Z" fill="white" stroke="#263238" stroke-width="0.488661" stroke-linecap="round" stroke-linejoin="round"/>
<path d="M221.567 148.931C221.567 148.931 223.187 147.466 223.908 147.593C224.629 147.72 225.289 148.167 225.342 148.357C225.396 148.548 225.822 148.931 225.942 149.312C226.063 149.693 227.991 151.606 228.401 152.116C228.81 152.626 229.122 152.69 228.761 153.007C228.539 153.201 228.27 153.333 227.981 153.39H221.139C221.139 153.39 220.899 152.817 220.959 151.67C221.018 150.522 221.139 149.248 221.139 149.248L221.567 148.931Z" fill="white" stroke="#263238" stroke-width="0.488661" stroke-linecap="round" stroke-linejoin="round"/>
<path d="M228.931 152.756C228.931 152.83 228.888 152.905 228.772 153.01C228.549 153.204 228.28 153.336 227.991 153.393H221.149C221.076 153.187 221.028 152.973 221.004 152.756H228.931Z" fill="white" stroke="#263238" stroke-width="0.488661" stroke-linecap="round" stroke-linejoin="round"/>
<path d="M217.74 89.5928L215.896 91.1578L216.228 112.781H224.194C224.194 112.781 224.573 90.6825 224.432 90.3507C224.29 90.0188 223.436 89.687 223.436 89.687L217.74 89.5928Z" fill="white" stroke="#263238" stroke-width="0.488661" stroke-linecap="round" stroke-linejoin="round"/>
<path d="M231.253 99.0134L234.421 99.8901C234.421 99.8901 231.212 94.003 230.628 92.5916C230.171 91.4896 229.604 91.1578 229.368 91.0697C228.153 90.2851 223.44 89.687 223.44 89.687L223.071 100.484L222.508 118.404H229.212C229.212 118.404 228.647 112.076 228.336 110.071L227.895 107.25C227.895 107.25 228.438 102.948 228.919 98.829L231.253 99.0134Z" fill="#FFCC00" stroke="#263238" stroke-width="0.488661" stroke-linecap="round" stroke-linejoin="round"/>
<path d="M224.189 103.274C223.982 103.817 223.721 104.337 223.41 104.827" stroke="#263238" stroke-width="0.488661" stroke-linecap="round" stroke-linejoin="round"/>
<path d="M224.432 90.3533L225.546 92.8339L224.631 93.8274L226.081 95.5828C226.081 95.5828 225.516 99.4072 224.518 102.369" stroke="#263238" stroke-width="0.488661" stroke-linecap="round" stroke-linejoin="round"/>
<path d="M217.189 84.3491C217.189 84.3491 216.592 83.5297 216.164 84.1176C215.736 84.7055 217.356 86.7355 217.356 86.7355L217.189 84.3491Z" fill="white" stroke="#263238" stroke-width="0.488661" stroke-linecap="round" stroke-linejoin="round"/>
<path d="M224.09 84.3491C224.09 84.3491 224.686 83.5297 225.115 84.1176C225.543 84.7055 223.922 86.7355 223.922 86.7355L224.09 84.3491Z" fill="white" stroke="#263238" stroke-width="0.488661" stroke-linecap="round" stroke-linejoin="round"/>
<path d="M217.062 83.8899C217.062 83.8899 217.427 87.7 217.494 88.3637C217.562 89.0273 217.791 90.451 218.058 90.9467C218.324 91.4424 220.145 93.3003 220.641 93.1016C221.136 92.9029 222.861 91.1126 223.326 90.5821C223.791 90.0515 223.623 89.0908 223.691 88.8594C223.758 88.6279 224.02 86.3419 224.02 86.3419L224.178 83.9289C224.178 83.9289 224.246 83.6974 224.145 82.2062C224.045 80.7149 224.047 80.0512 223.881 79.6866C223.715 79.322 223.285 79.1233 222.521 78.9246C221.757 78.7259 219.938 78.7607 218.811 79.3241C217.685 79.8874 217.121 80.6822 217.089 80.9792C217.056 81.2762 217.062 83.8899 217.062 83.8899Z" fill="white" stroke="#263238" stroke-width="0.488661" stroke-linecap="round" stroke-linejoin="round"/>
<path d="M220.115 82.7906C220.115 82.7906 219.091 82.1269 218.523 82.9954" stroke="#263238" stroke-width="0.488661" stroke-linecap="round" stroke-linejoin="round"/>
<path d="M221.536 82.8627C221.753 82.7306 222.009 82.6752 222.261 82.7052C222.514 82.7353 222.749 82.8492 222.929 83.0287" stroke="#263238" stroke-width="0.488661" stroke-linecap="round" stroke-linejoin="round"/>
<path d="M221.24 83.1943C221.376 83.4457 221.447 83.7276 221.444 84.0137C221.477 84.6098 221.377 85.8347 221.377 85.8347L220.119 85.7016" stroke="#263238" stroke-width="0.488661" stroke-linecap="round" stroke-linejoin="round"/>
<path d="M219.445 86.1375C219.445 86.1375 220.074 87.1617 221.666 86.6332" stroke="#263238" stroke-width="0.488661" stroke-linecap="round" stroke-linejoin="round"/>
<path d="M219.656 83.7713C219.656 83.9639 219.568 84.1196 219.451 84.1196C219.335 84.1196 219.247 83.9639 219.247 83.7713C219.247 83.5788 219.337 83.4231 219.451 83.4231C219.566 83.4231 219.656 83.5788 219.656 83.7713Z" fill="#263238"/>
<path d="M222.475 83.7713C222.475 83.9639 222.387 84.1196 222.27 84.1196C222.154 84.1196 222.065 83.9639 222.065 83.7713C222.065 83.5788 222.154 83.4231 222.27 83.4231C222.387 83.4231 222.475 83.5788 222.475 83.7713Z" fill="#263238"/>
<path d="M219.908 84.2185C219.646 84.4665 219.328 84.6477 218.98 84.747" stroke="#263238" stroke-width="0.488661" stroke-linecap="round" stroke-linejoin="round"/>
<path d="M221.862 84.2185C221.862 84.2185 222.259 84.6814 222.724 84.747" stroke="#263238" stroke-width="0.488661" stroke-linecap="round" stroke-linejoin="round"/>
<path d="M219.485 89.3242C219.485 89.3242 220.116 90.0862 221.872 89.357" stroke="#263238" stroke-width="0.488661" stroke-linecap="round" stroke-linejoin="round"/>
<path d="M216.694 80.7715C216.694 80.7715 216.792 84.1186 216.899 84.1841C217.005 84.2497 217.296 84.3173 217.362 84.0858C217.403 83.7227 217.414 83.3568 217.394 82.9919C217.394 82.9919 217.726 82.9592 217.792 82.4286C217.857 81.8981 217.56 80.9702 217.56 80.9702C217.56 80.9702 218.753 80.1098 219.879 79.778C221.006 79.4462 221.604 79.9439 222.298 79.9828C222.706 80.006 223.108 79.8759 223.425 79.6182C223.425 79.6182 223.093 80.116 223.093 80.3475C223.093 80.5789 223.525 81.8059 223.458 82.1705C223.39 82.5352 223.327 82.9325 223.525 83.0636C223.724 83.1947 223.956 83.3627 223.956 83.3627C223.956 83.3627 223.956 84.2579 224.089 84.3234C224.222 84.389 224.453 84.0264 224.486 83.5286C224.519 83.0309 224.519 81.8387 224.691 81.4802C224.863 81.1218 225.121 80.8514 224.922 80.3208C224.724 79.7903 224.027 79.3274 223.929 79.2966C223.831 79.2659 222.571 77.6415 220.946 77.2482C219.322 76.8549 216.739 79.1717 216.473 79.9009C216.206 80.6301 216.694 80.7715 216.694 80.7715Z" fill="#263238" stroke="#263238" stroke-width="0.488661" stroke-linecap="round" stroke-linejoin="round"/>
<path d="M202.077 92.528C201.89 92.062 201.737 91.5828 201.62 91.0941C201.549 90.6373 200.985 89.8979 200.424 89.6869C199.818 89.4526 199.275 89.0786 198.841 88.5951C198.347 88.0686 198.066 87.8925 197.995 88.4189C197.923 88.9454 198.277 89.1932 198.63 89.5107C198.982 89.8282 199.332 90.1089 199.332 90.1089C198.979 90.2233 198.613 90.2921 198.243 90.3137C197.592 90.3457 196.941 90.2864 196.307 90.1375C195.778 89.9962 193.949 88.6606 194.125 89.1871C194.301 89.7135 195.18 90.3833 195.885 91.0532C196.589 91.723 197.046 92.0774 197.855 92.3191C198.664 92.5608 199.965 92.8824 199.965 92.8824L200.705 93.8677L202.077 92.528Z" fill="white" stroke="#263238" stroke-width="0.488661" stroke-linecap="round" stroke-linejoin="round"/>
<path d="M196.627 91.5785C196.627 91.5785 195.5 90.7346 195.324 89.7841C195.148 88.8337 195.22 88.4834 195.465 88.6227C195.711 88.762 196.309 90.1364 196.309 90.1364L197.364 91.2979" fill="white"/>
<path d="M196.627 91.5785C196.627 91.5785 195.5 90.7346 195.324 89.7841C195.148 88.8337 195.22 88.4834 195.465 88.6227C195.711 88.762 196.309 90.1364 196.309 90.1364L197.364 91.2979" stroke="#263238" stroke-width="0.488661" stroke-linecap="round" stroke-linejoin="round"/>
<path d="M197.575 92.0425C197.575 92.0425 196.52 91.4075 196.415 90.7745C196.311 90.1416 196.063 88.2775 196.309 88.4168C196.555 88.5561 197.048 90.5287 197.048 90.5287L197.646 91.0572" fill="white"/>
<path d="M197.575 92.0425C197.575 92.0425 196.52 91.4075 196.415 90.7745C196.311 90.1416 196.063 88.2775 196.309 88.4168C196.555 88.5561 197.048 90.5287 197.048 90.5287L197.646 91.0572" stroke="#263238" stroke-width="0.488661" stroke-linecap="round" stroke-linejoin="round"/>
<path d="M198.156 92.0701C198.156 92.0701 197.523 90.841 197.382 90.4518C197.241 90.0626 196.925 88.4465 197.243 88.5161C197.56 88.5857 197.841 90.204 197.841 90.204L198.65 91.2282C198.65 91.2282 199.775 90.8759 200.084 90.9455C200.393 91.0152 200.789 91.6502 200.789 91.6502" fill="white"/>
<path d="M198.156 92.0701C198.156 92.0701 197.523 90.841 197.382 90.4518C197.241 90.0626 196.925 88.4465 197.243 88.5161C197.56 88.5857 197.841 90.204 197.841 90.204L198.65 91.2282C198.65 91.2282 199.775 90.8759 200.084 90.9455C200.393 91.0152 200.789 91.6502 200.789 91.6502" stroke="#263238" stroke-width="0.488661" stroke-linecap="round" stroke-linejoin="round"/>
<path d="M202.915 93.0827L202.073 92.3022L199.994 94.4715L200.605 95.2724L202.915 93.0827Z" fill="white" stroke="#263238" stroke-width="0.488661" stroke-linecap="round" stroke-linejoin="round"/>
<path d="M217.742 89.5928C217.742 89.5928 217.03 95.2341 216.935 98.4603C216.841 101.687 217.173 118.615 217.173 118.615L210.866 118.424C210.866 118.424 211.577 112.449 212.095 110.267C212.451 108.585 212.579 106.863 212.474 105.146C212.427 104.862 212.095 102.254 212.095 102.254C212.095 102.254 208.537 104.624 208.111 104.577C207.685 104.53 205.218 102.733 203.322 100.357C202.115 98.7987 201.141 97.0738 200.429 95.2361L202.672 92.6736L207.984 97.9851C207.984 97.9851 210.733 92.438 211.017 92.2946C211.302 92.1512 217.742 89.5928 217.742 89.5928Z" fill="#FFCC00" stroke="#263238" stroke-width="0.488661" stroke-linecap="round" stroke-linejoin="round"/>
<path d="M215.118 99.3418C215.463 101.18 215.957 102.986 216.597 104.743" stroke="#263238" stroke-width="0.488661" stroke-linecap="round" stroke-linejoin="round"/>
<path d="M216.521 90.5422L215.374 93.4448L216.291 94.2089L214.688 95.8886C214.725 96.7544 214.817 97.6171 214.962 98.4716" stroke="#263238" stroke-width="0.488661" stroke-linecap="round" stroke-linejoin="round"/>
<path d="M211.952 101.495C211.952 101.495 211.004 97.322 210.723 95.6628L211.952 101.495Z" fill="white"/>
<path d="M211.952 101.495C211.952 101.495 211.004 97.322 210.723 95.6628" stroke="#263238" stroke-width="0.488661" stroke-linecap="round" stroke-linejoin="round"/>
<path d="M217.636 92.8142L218.445 95.1883L220.641 93.0969L222.384 95.3501L223.148 93.3243" fill="white"/>
<path d="M217.636 92.8142L218.445 95.1883L220.641 93.0969L222.384 95.3501L223.148 93.3243" stroke="#263238" stroke-width="0.488661" stroke-linecap="round" stroke-linejoin="round"/>
<path d="M221.479 94.3247L220.488 96.0945L219.349 94.3124L220.635 93.0977L221.479 94.3247Z" fill="#263238" stroke="#263238" stroke-width="0.488661" stroke-linecap="round" stroke-linejoin="round"/>
<path d="M220.498 96.1003L218.29 110.886L220.258 112.469L221.794 110.839L220.498 96.1003Z" fill="#263238" stroke="#263238" stroke-width="0.488661" stroke-linecap="round" stroke-linejoin="round"/>
<path d="M229.263 90.0958C230.837 89.7217 231.809 88.1425 231.435 86.5686C231.061 84.9947 229.482 84.022 227.908 84.3961C226.334 84.7702 225.361 86.3494 225.735 87.9233C226.11 89.4972 227.689 90.4699 229.263 90.0958Z" fill="white" stroke="#263238" stroke-width="0.488661" stroke-linecap="round" stroke-linejoin="round"/>
<path d="M226.665 91.0175C226.665 91.0175 226.564 92.3285 226.64 92.5805C226.716 92.8324 227.255 93.8402 227.255 93.8402C227.255 93.8402 227.179 94.5469 227.304 94.7743C227.429 95.0017 228.639 96.4376 228.639 96.4376L230.073 95.1758L229.26 93.5616L229.235 91.4702C229.235 91.4702 227.658 90.1121 226.665 91.0175Z" fill="white" stroke="#263238" stroke-width="0.488661" stroke-linecap="round" stroke-linejoin="round"/>
<path d="M227.38 89.5605L227.822 93.1964C227.847 93.3815 227.943 93.5495 228.09 93.6644C228.237 93.7793 228.423 93.8319 228.609 93.811C228.787 93.791 228.952 93.7043 229.069 93.5683C229.186 93.4324 229.248 93.2571 229.242 93.0776L229.115 89.3639C229.115 89.3639 228.021 88.5425 227.38 89.5605Z" fill="white" stroke="#263238" stroke-width="0.488661" stroke-linecap="round" stroke-linejoin="round"/>
<path d="M227.453 90.3582C227.453 90.3582 226.51 90.4708 226.51 90.7678C226.51 91.0649 226.848 92.427 227.149 92.5028C227.45 92.5786 227.678 92.5786 227.678 91.9743C227.647 91.4304 227.572 90.8898 227.453 90.3582Z" fill="white" stroke="#263238" stroke-width="0.488661" stroke-linecap="round" stroke-linejoin="round"/>
<path d="M229.684 91.3774C229.684 91.3774 227.496 91.5659 227.459 91.7871C227.422 92.0083 227.496 92.5799 227.648 92.5799C227.799 92.5799 229.757 92.5942 229.796 92.375C229.835 92.1558 229.948 91.6786 229.684 91.3774Z" fill="white" stroke="#263238" stroke-width="0.488661" stroke-linecap="round" stroke-linejoin="round"/>
<path d="M229.606 92.4363C229.606 92.4363 227.658 92.5448 227.617 92.7456C227.576 92.9463 227.629 93.4502 227.764 93.4543C227.9 93.4584 229.639 93.524 229.68 93.3335C229.721 93.143 229.833 92.7108 229.606 92.4363Z" fill="white" stroke="#263238" stroke-width="0.488661" stroke-linecap="round" stroke-linejoin="round"/>
<path d="M229.342 93.3809C229.342 93.3809 227.728 93.471 227.703 93.6369C227.679 93.8028 227.714 94.2207 227.826 94.2248C227.939 94.2289 229.377 94.2822 229.41 94.1244C229.442 93.9667 229.53 93.6082 229.342 93.3809Z" fill="white" stroke="#263238" stroke-width="0.488661" stroke-linecap="round" stroke-linejoin="round"/>
<path d="M229.524 90.3931C229.524 90.3931 227.337 90.5815 227.3 90.8027C227.263 91.024 227.337 91.5934 227.488 91.5934C227.64 91.5934 229.598 91.6098 229.637 91.3886C229.676 91.1674 229.789 90.686 229.524 90.3931Z" fill="white" stroke="#263238" stroke-width="0.488661" stroke-linecap="round" stroke-linejoin="round"/>
<path d="M230.038 94.4524L229.403 94.1267L227.681 96.2386L228.387 97.1809L230.038 94.4524Z" fill="white" stroke="#263238" stroke-width="0.488661" stroke-linecap="round" stroke-linejoin="round"/>
<path d="M229.915 94.0769C229.915 94.0769 229.288 95.5374 228.819 96.0598C228.35 96.5821 227.825 97.0512 227.825 97.0512C227.825 97.0512 230.017 102.219 230.324 103.211C230.632 104.202 231.838 104.88 232.36 105.036C232.883 105.192 234.134 104.776 234.614 104.253C235.093 103.731 235.761 102.062 235.396 101.123C235.032 100.185 229.915 94.0769 229.915 94.0769Z" fill="#FFCC00" stroke="#263238" stroke-width="0.488661" stroke-linecap="round" stroke-linejoin="round"/>
<path d="M233.503 91.1277C236.336 90.3945 238.039 87.5032 237.305 84.6698C236.572 81.8365 233.681 80.1341 230.848 80.8674C228.014 81.6006 226.312 84.4919 227.045 87.3253C227.778 90.1586 230.67 91.861 233.503 91.1277Z" fill="#FFCC00" stroke="#263238" stroke-width="0.488661" stroke-linecap="round" stroke-linejoin="round"/>
<path d="M233.15 90.203C235.473 89.6657 236.921 87.3466 236.384 85.0231C235.847 82.6996 233.528 81.2516 231.204 81.7889C228.881 82.3262 227.433 84.6453 227.97 86.9687C228.507 89.2922 230.826 90.7402 233.15 90.203Z" fill="#263238" stroke="#263238" stroke-width="0.488661" stroke-linecap="round" stroke-linejoin="round"/>
<path d="M231.756 87.9598C232.724 87.9598 233.508 87.1757 233.508 86.2084C233.508 85.2412 232.724 84.457 231.756 84.457C230.789 84.457 230.005 85.2412 230.005 86.2084C230.005 87.1757 230.789 87.9598 231.756 87.9598Z" fill="white" stroke="#263238" stroke-width="0.488661" stroke-linecap="round" stroke-linejoin="round"/>
<path d="M233.144 85.9977C233.145 85.8064 233.088 85.6193 232.982 85.46C232.876 85.3007 232.725 85.1765 232.549 85.103C232.372 85.0295 232.178 85.0101 231.99 85.0471C231.802 85.0842 231.63 85.1761 231.494 85.3113C231.359 85.4464 231.267 85.6187 231.229 85.8063C231.192 85.9939 231.211 86.1884 231.284 86.3652C231.357 86.542 231.481 86.6931 231.64 86.7994C231.799 86.9057 231.986 86.9625 232.177 86.9625C232.433 86.9625 232.679 86.8609 232.86 86.68C233.042 86.4992 233.144 86.2538 233.144 85.9977Z" fill="#FFCC00" stroke="#263238" stroke-width="0.488661" stroke-linecap="round" stroke-linejoin="round"/>
</svg>
