<svg width="154" height="154" viewBox="0 0 154 154" fill="none" xmlns="http://www.w3.org/2000/svg">
<path opacity="0.7" d="M48.268 12.7663C48.268 12.7663 22.0725 26.1113 9.00762 46.6749C-4.05728 67.2386 -3.02357 93.6934 12.8521 113.331C28.7277 132.968 59.0719 130.389 84.4791 142.828C109.886 155.267 137.918 152.705 149.932 126.35C161.945 99.9959 143.83 90.1463 140.718 59.6465C137.607 29.1467 110.111 -15.5139 48.268 12.7663Z" fill="#DDEEFF"/>
<path d="M55.0955 129.375V60.9251C55.0961 57.9627 54.188 55.0713 52.4939 52.6411L50.1021 49.2156H92.596L94.9878 52.6411C96.682 55.0713 97.59 57.9627 97.5894 60.9251V128.726" stroke="#263238" stroke-width="2.464" stroke-linecap="round" stroke-linejoin="round"/>
<path d="M145.4 144.377C147.83 144.377 149.799 142.408 149.799 139.978C149.799 137.548 147.83 135.579 145.4 135.579C142.971 135.579 141.001 137.548 141.001 139.978C141.001 142.408 142.971 144.377 145.4 144.377Z" fill="#263238"/>
<path opacity="0.4" d="M147.6 139.979C147.601 139.543 147.473 139.117 147.231 138.754C146.99 138.391 146.646 138.108 146.244 137.941C145.842 137.773 145.399 137.729 144.971 137.813C144.544 137.898 144.151 138.107 143.843 138.415C143.534 138.723 143.324 139.115 143.238 139.542C143.153 139.97 143.196 140.413 143.363 140.815C143.529 141.218 143.812 141.562 144.174 141.804C144.536 142.047 144.962 142.176 145.398 142.176C145.687 142.177 145.973 142.12 146.24 142.01C146.507 141.9 146.75 141.738 146.955 141.534C147.159 141.33 147.322 141.088 147.432 140.821C147.543 140.554 147.6 140.268 147.6 139.979Z" fill="white"/>
<path d="M144.871 140.962C144.528 140.962 144.193 140.856 143.912 140.66C143.631 140.463 143.417 140.186 143.298 139.864L140.707 132.763H146.544V139.289C146.544 139.733 146.368 140.158 146.054 140.472C145.74 140.786 145.315 140.962 144.871 140.962Z" fill="#263238"/>
<path opacity="0.2" d="M144.871 140.962C144.528 140.962 144.193 140.856 143.912 140.66C143.631 140.463 143.417 140.186 143.298 139.864L140.707 132.763H146.544V139.289C146.544 139.733 146.368 140.158 146.054 140.472C145.74 140.786 145.315 140.962 144.871 140.962Z" fill="white"/>
<path d="M96.4622 144.377C98.8918 144.377 100.861 142.408 100.861 139.978C100.861 137.548 98.8918 135.579 96.4622 135.579C94.0326 135.579 92.063 137.548 92.063 139.978C92.063 142.408 94.0326 144.377 96.4622 144.377Z" fill="#263238"/>
<path opacity="0.4" d="M98.6664 139.979C98.6674 139.543 98.5391 139.117 98.2977 138.754C98.0563 138.391 97.7128 138.108 97.3105 137.941C96.9082 137.773 96.4653 137.729 96.0378 137.813C95.6103 137.898 95.2174 138.107 94.909 138.415C94.6005 138.723 94.3903 139.115 94.3049 139.542C94.2195 139.97 94.2628 140.413 94.4294 140.815C94.5959 141.218 94.8781 141.562 95.2404 141.804C95.6026 142.047 96.0286 142.176 96.4643 142.176C96.7532 142.177 97.0395 142.12 97.3066 142.01C97.5738 141.9 97.8166 141.738 98.0211 141.534C98.2257 141.33 98.3879 141.088 98.4987 140.821C98.6094 140.554 98.6664 140.268 98.6664 139.979Z" fill="white"/>
<path d="M95.9355 140.962C95.5925 140.962 95.2578 140.856 94.9765 140.66C94.6953 140.463 94.481 140.186 94.3626 139.864L91.771 132.763H97.6083V139.289C97.6083 139.733 97.4321 140.158 97.1184 140.472C96.8046 140.786 96.3792 140.962 95.9355 140.962Z" fill="#263238"/>
<path opacity="0.2" d="M95.9355 140.962C95.5925 140.962 95.2578 140.856 94.9765 140.66C94.6953 140.463 94.481 140.186 94.3626 139.864L91.771 132.763H97.6083V139.289C97.6083 139.733 97.4321 140.158 97.1184 140.472C96.8046 140.786 96.3792 140.962 95.9355 140.962Z" fill="white"/>
<path d="M152.963 127.641V131.795C152.963 132.168 152.816 132.524 152.552 132.788C152.289 133.051 151.932 133.199 151.56 133.199H53.2249C52.8528 133.199 52.4959 133.051 52.2327 132.788C51.9696 132.524 51.8218 132.168 51.8218 131.795V127.641H152.963Z" fill="#263238"/>
<path opacity="0.4" d="M152.963 127.641V131.795C152.963 132.168 152.816 132.524 152.552 132.788C152.289 133.051 151.932 133.199 151.56 133.199H53.2249C52.8528 133.199 52.4959 133.051 52.2327 132.788C51.9696 132.524 51.8218 132.168 51.8218 131.795V127.641H152.963Z" fill="white"/>
<path opacity="0.2" d="M118.009 127.641V131.795C118.009 132.168 117.862 132.524 117.598 132.788C117.335 133.051 116.978 133.199 116.606 133.199H53.2249C52.8528 133.199 52.4959 133.051 52.2327 132.788C51.9696 132.524 51.8218 132.168 51.8218 131.795V127.641H118.009Z" fill="white"/>
<path d="M109.949 144.377C112.379 144.377 114.349 142.408 114.349 139.978C114.349 137.548 112.379 135.579 109.949 135.579C107.52 135.579 105.55 137.548 105.55 139.978C105.55 142.408 107.52 144.377 109.949 144.377Z" fill="#263238"/>
<path opacity="0.6" d="M112.149 139.979C112.15 139.543 112.022 139.117 111.781 138.754C111.539 138.391 111.196 138.108 110.793 137.941C110.391 137.773 109.948 137.729 109.521 137.813C109.093 137.898 108.7 138.107 108.392 138.415C108.083 138.723 107.873 139.115 107.788 139.542C107.702 139.97 107.746 140.413 107.912 140.815C108.079 141.218 108.361 141.562 108.723 141.804C109.086 142.047 109.511 142.176 109.947 142.176C110.236 142.177 110.522 142.12 110.79 142.01C111.057 141.9 111.299 141.738 111.504 141.534C111.709 141.33 111.871 141.088 111.982 140.821C112.092 140.554 112.149 140.268 112.149 139.979Z" fill="white"/>
<path d="M109.416 140.962C109.073 140.962 108.738 140.856 108.457 140.66C108.176 140.463 107.961 140.186 107.843 139.864L105.251 132.763H111.089V139.289C111.089 139.733 110.913 140.158 110.599 140.472C110.285 140.786 109.86 140.962 109.416 140.962Z" fill="#263238"/>
<path opacity="0.4" d="M109.416 140.962C109.073 140.962 108.738 140.856 108.457 140.66C108.176 140.463 107.961 140.186 107.843 139.864L105.251 132.763H111.089V139.289C111.089 139.733 110.913 140.158 110.599 140.472C110.285 140.786 109.86 140.962 109.416 140.962Z" fill="white"/>
<path d="M61.0115 144.377C63.4411 144.377 65.4107 142.408 65.4107 139.978C65.4107 137.548 63.4411 135.579 61.0115 135.579C58.5819 135.579 56.6123 137.548 56.6123 139.978C56.6123 142.408 58.5819 144.377 61.0115 144.377Z" fill="#263238"/>
<path opacity="0.6" d="M63.2133 139.979C63.2143 139.543 63.0859 139.117 62.8446 138.754C62.6032 138.391 62.2596 138.108 61.8573 137.941C61.455 137.773 61.0121 137.729 60.5846 137.813C60.1571 137.898 59.7643 138.107 59.4558 138.415C59.1474 138.723 58.9371 139.115 58.8518 139.542C58.7664 139.97 58.8097 140.413 58.9762 140.815C59.1428 141.218 59.425 141.562 59.7872 141.804C60.1495 142.047 60.5754 142.176 61.0112 142.176C61.3001 142.177 61.5864 142.12 61.8535 142.01C62.1206 141.9 62.3634 141.738 62.568 141.534C62.7725 141.33 62.9348 141.088 63.0455 140.821C63.1563 140.554 63.2133 140.268 63.2133 139.979Z" fill="white"/>
<path d="M60.4804 140.962C60.1374 140.962 59.8027 140.856 59.5214 140.66C59.2402 140.463 59.0259 140.186 58.9075 139.864L56.3159 132.763H62.1532V139.289C62.1532 139.733 61.977 140.158 61.6633 140.472C61.3496 140.786 60.9241 140.962 60.4804 140.962Z" fill="#263238"/>
<path opacity="0.4" d="M60.4804 140.962C60.1374 140.962 59.8027 140.856 59.5214 140.66C59.2402 140.463 59.0259 140.186 58.9075 139.864L56.3159 132.763H62.1532V139.289C62.1532 139.733 61.977 140.158 61.6633 140.472C61.3496 140.786 60.9241 140.962 60.4804 140.962Z" fill="white"/>
<path d="M110.565 95.4094H64.001V127.642H110.565V95.4094Z" fill="#007AFF"/>
<path opacity="0.4" d="M110.565 95.4094H64.001V127.642H110.565V95.4094Z" fill="white"/>
<path opacity="0.2" d="M85.6075 95.4094H64.001V127.642H85.6075V95.4094Z" fill="white"/>
<path opacity="0.2" d="M83.5651 120.823H80.8637C80.61 120.823 80.4043 121.029 80.4043 121.283V124.973C80.4043 125.226 80.61 125.432 80.8637 125.432H83.5651C83.8188 125.432 84.0245 125.226 84.0245 124.973V121.283C84.0245 121.029 83.8188 120.823 83.5651 120.823Z" fill="black"/>
<path opacity="0.2" d="M78.6916 120.823H75.9902C75.7364 120.823 75.5308 121.029 75.5308 121.283V124.973C75.5308 125.226 75.7364 125.432 75.9902 125.432H78.6916C78.9453 125.432 79.151 125.226 79.151 124.973V121.283C79.151 121.029 78.9453 120.823 78.6916 120.823Z" fill="black"/>
<path opacity="0.4" d="M100.555 95.4094H97.9238V98.77H100.555V95.4094Z" fill="black"/>
<path opacity="0.2" d="M107.748 109.171H89.6221V113.386H107.748V109.171Z" fill="black"/>
<path opacity="0.2" d="M71.606 97.092H65.4092V103.289H71.606V97.092Z" fill="black"/>
<path d="M115.32 63.1736H68.7568V95.4061H115.32V63.1736Z" fill="#007AFF"/>
<path opacity="0.4" d="M115.32 63.1736H68.7568V95.4061H115.32V63.1736Z" fill="black"/>
<path opacity="0.2" d="M90.3633 63.1736H68.7568V95.4061H90.3633V63.1736Z" fill="white"/>
<path opacity="0.2" d="M88.3234 88.5962H85.622C85.3683 88.5962 85.1626 88.8019 85.1626 89.0556V92.7457C85.1626 92.9994 85.3683 93.2051 85.622 93.2051H88.3234C88.5771 93.2051 88.7828 92.9994 88.7828 92.7457V89.0556C88.7828 88.8019 88.5771 88.5962 88.3234 88.5962Z" fill="black"/>
<path opacity="0.2" d="M83.4499 88.5962H80.7485C80.4947 88.5962 80.2891 88.8019 80.2891 89.0556V92.7457C80.2891 92.9994 80.4947 93.2051 80.7485 93.2051H83.4499C83.7036 93.2051 83.9093 92.9994 83.9093 92.7457V89.0556C83.9093 88.8019 83.7036 88.5962 83.4499 88.5962Z" fill="black"/>
<path opacity="0.4" d="M105.307 63.1736H102.675V66.5342H105.307V63.1736Z" fill="black"/>
<path opacity="0.2" d="M112.504 76.9397H94.3779V81.1541H112.504V76.9397Z" fill="black"/>
<path opacity="0.2" d="M76.3663 64.8562H70.1694V71.053H76.3663V64.8562Z" fill="black"/>
<path d="M143.82 63.1736H97.2568V95.4061H143.82V63.1736Z" fill="#007AFF"/>
<path opacity="0.4" d="M143.82 63.1736H97.2568V95.4061H143.82V63.1736Z" fill="white"/>
<path opacity="0.2" d="M118.863 63.1736H97.2568V95.4061H118.863V63.1736Z" fill="white"/>
<path opacity="0.2" d="M116.826 88.5962H114.124C113.871 88.5962 113.665 88.8019 113.665 89.0556V92.7457C113.665 92.9994 113.871 93.2051 114.124 93.2051H116.826C117.08 93.2051 117.285 92.9994 117.285 92.7457V89.0556C117.285 88.8019 117.08 88.5962 116.826 88.5962Z" fill="black"/>
<path opacity="0.2" d="M111.952 88.5962H109.251C108.997 88.5962 108.792 88.8019 108.792 89.0556V92.7457C108.792 92.9994 108.997 93.2051 109.251 93.2051H111.952C112.206 93.2051 112.412 92.9994 112.412 92.7457V89.0556C112.412 88.8019 112.206 88.5962 111.952 88.5962Z" fill="black"/>
<path opacity="0.4" d="M133.809 63.1736H131.178V66.5342H133.809V63.1736Z" fill="black"/>
<path opacity="0.2" d="M141.006 76.9397H122.88V81.1541H141.006V76.9397Z" fill="black"/>
<path opacity="0.2" d="M104.868 64.8562H98.6714V71.053H104.868V64.8562Z" fill="black"/>
<path d="M127.715 30.9419H81.1519V63.1744H127.715V30.9419Z" fill="#007AFF"/>
<path opacity="0.2" d="M102.758 30.9419H81.1519V63.1744H102.758V30.9419Z" fill="white"/>
<path opacity="0.2" d="M100.718 56.3601H98.017C97.7633 56.3601 97.5576 56.5658 97.5576 56.8195V60.5096C97.5576 60.7633 97.7633 60.969 98.017 60.969H100.718C100.972 60.969 101.178 60.7633 101.178 60.5096V56.8195C101.178 56.5658 100.972 56.3601 100.718 56.3601Z" fill="black"/>
<path opacity="0.2" d="M95.8517 56.3601H93.1503C92.8966 56.3601 92.6909 56.5658 92.6909 56.8195V60.5096C92.6909 60.7633 92.8966 60.969 93.1503 60.969H95.8517C96.1055 60.969 96.3111 60.7633 96.3111 60.5096V56.8195C96.3111 56.5658 96.1055 56.3601 95.8517 56.3601Z" fill="black"/>
<path opacity="0.4" d="M117.707 30.9419H115.075V34.3025H117.707V30.9419Z" fill="black"/>
<path opacity="0.2" d="M124.903 44.7039H106.777V48.9183H124.903V44.7039Z" fill="black"/>
<path opacity="0.2" d="M88.7593 32.6245H82.5625V38.8213H88.7593V32.6245Z" fill="black"/>
<path d="M140.198 95.4094H93.6343V127.642H140.198V95.4094Z" fill="#263238"/>
<path opacity="0.2" d="M140.198 95.4094H93.6343V127.642H140.198V95.4094Z" fill="white"/>
<path opacity="0.2" d="M115.241 95.4094H93.6343V127.642H115.241V95.4094Z" fill="white"/>
<path opacity="0.2" d="M113.196 120.823H110.495C110.241 120.823 110.036 121.029 110.036 121.283V124.973C110.036 125.226 110.241 125.432 110.495 125.432H113.196C113.45 125.432 113.656 125.226 113.656 124.973V121.283C113.656 121.029 113.45 120.823 113.196 120.823Z" fill="black"/>
<path opacity="0.2" d="M108.325 120.823H105.624C105.37 120.823 105.165 121.029 105.165 121.283V124.973C105.165 125.226 105.37 125.432 105.624 125.432H108.325C108.579 125.432 108.785 125.226 108.785 124.973V121.283C108.785 121.029 108.579 120.823 108.325 120.823Z" fill="black"/>
<path opacity="0.4" d="M130.185 95.4094H127.553V98.77H130.185V95.4094Z" fill="black"/>
<path opacity="0.2" d="M137.38 109.171H119.253V113.386H137.38V109.171Z" fill="black"/>
<path opacity="0.2" d="M101.239 97.092H95.0425V103.289H101.239V97.092Z" fill="black"/>
<path d="M23.8618 132.586C23.8618 132.586 22.4098 135.535 21.3726 137.202C20.3354 138.868 18.4097 141.06 18.6068 142.989C18.8039 144.918 20.8125 145.126 22.88 144.026C24.9474 142.927 26.8074 140.721 27.3744 139.065C27.9414 137.409 29.7184 136.033 29.7184 134.173C29.7184 132.313 29.5801 132.099 28.8921 131.898C28.2041 131.698 24.5498 131.414 23.8618 132.586Z" fill="white" stroke="#263238" stroke-width="0.410667" stroke-linecap="round" stroke-linejoin="round"/>
<path d="M29.7166 134.166C29.7166 133.893 29.7166 133.658 29.7166 133.451C29.5255 134.026 29.2944 134.588 29.0252 135.131C28.2646 136.649 27.1617 137.551 26.7503 139.404C26.3389 141.257 23.7183 143.401 21.4435 143.95C19.1686 144.5 18.6777 142.643 18.6777 142.643H18.5947C18.5863 142.759 18.5863 142.874 18.5947 142.989C18.8021 144.918 20.8004 145.126 22.8678 144.026C24.9353 142.927 26.7953 140.721 27.3623 139.065C27.9292 137.409 29.7166 136.026 29.7166 134.166Z" fill="#263238" stroke="#263238" stroke-width="0.410667" stroke-linecap="round" stroke-linejoin="round"/>
<path d="M24.1377 133.826C24.1377 133.826 24.9674 134.998 27.7229 134.655" stroke="#263238" stroke-width="0.410667" stroke-linecap="round" stroke-linejoin="round"/>
<path d="M24.0723 134.793C24.8911 135.438 25.9304 135.734 26.966 135.62" stroke="#263238" stroke-width="0.410667" stroke-linecap="round" stroke-linejoin="round"/>
<path d="M23.7935 135.613C24.0977 135.942 24.4756 136.195 24.8961 136.351C25.3167 136.506 25.7681 136.56 26.2135 136.508" stroke="#263238" stroke-width="0.410667" stroke-linecap="round" stroke-linejoin="round"/>
<path d="M23.5146 136.79C23.5146 136.79 23.9987 137.754 25.8587 137.547" stroke="#263238" stroke-width="0.410667" stroke-linecap="round" stroke-linejoin="round"/>
<path d="M41.4988 135.19C42.5357 136.822 43.9611 138.172 45.6475 139.118C48.3338 140.566 51.7806 141.538 52.0538 142.229C52.1691 142.48 52.191 142.764 52.1156 143.029C52.0402 143.295 51.8723 143.525 51.6423 143.678C51.2966 143.882 46.1972 144.024 43.5109 143.54C41.9948 143.215 40.4451 143.076 38.8955 143.125C37.6544 143.125 34.9681 143.47 34.6224 141.953C34.2766 140.435 35.1721 134.924 35.1721 134.924C35.1721 134.924 39.2239 136.1 41.4988 135.19Z" fill="white" stroke="#263238" stroke-width="0.410667" stroke-miterlimit="10"/>
<path d="M51.6286 143.681C51.8067 143.564 51.9479 143.398 52.036 143.203C52.124 143.009 52.1554 142.794 52.1265 142.582C51.0567 142.843 49.9695 143.025 48.8732 143.128C46.1074 143.405 41.9829 142.509 38.7435 142.371C36.3649 142.271 35.065 141.721 34.543 141.441C34.5523 141.614 34.5743 141.786 34.6087 141.956C34.9544 143.474 37.6407 143.128 38.8818 143.128C40.4314 143.08 41.9811 143.219 43.4972 143.543C46.1835 144.024 51.2829 143.885 51.6286 143.681Z" fill="#263238" stroke="#263238" stroke-width="0.410667" stroke-miterlimit="10"/>
<path d="M42.5322 136.79C42.001 137.214 41.5761 137.756 41.291 138.373" stroke="#263238" stroke-width="0.410667" stroke-miterlimit="10"/>
<path d="M43.3612 137.819C43.3612 137.819 42.4658 138.579 42.4658 139.06" stroke="#263238" stroke-width="0.410667" stroke-miterlimit="10"/>
<path d="M44.2533 138.512C44.0214 138.902 43.8369 139.319 43.7036 139.753" stroke="#263238" stroke-width="0.410667" stroke-miterlimit="10"/>
<path d="M45.6323 139.131C45.6323 139.131 45.0791 139.615 45.0791 140.095" stroke="#263238" stroke-width="0.410667" stroke-miterlimit="10"/>
<path d="M22.0385 62.0072C22.0385 62.0072 19.8466 72.4377 20.0195 78.1422C20.1923 83.8466 27.9711 98.0213 27.9711 98.0213C27.9711 98.0213 23.8224 108.22 23.6496 112.715C23.4767 117.209 23.8294 131.678 23.8294 131.678C23.8294 131.678 25.558 132.68 27.1241 132.68C28.6902 132.68 30.5606 131.892 30.5606 131.892L34.5399 116.334L34.7127 135.176C35.8638 135.858 37.1778 136.217 38.5157 136.213C39.8768 136.205 41.2032 135.783 42.3187 135.003C42.3187 135.003 45.0845 115.124 45.4302 111.84C45.7759 108.555 48.0231 98.7024 48.196 98.0109C48.3688 97.3195 51.6532 86.4292 51.6532 77.6132C51.6532 68.7972 49.1191 63.4973 49.1191 63.4973C49.1191 63.4973 40.2443 61.537 33.6756 61.3642C29.7854 61.2569 25.8931 61.472 22.0385 62.0072Z" fill="#263238" stroke="#263238" stroke-width="0.410667" stroke-linecap="round" stroke-linejoin="round"/>
<path d="M35.7505 113.754C35.7505 113.754 40.2449 100.962 40.2449 97.8502C40.2449 94.7387 37.3062 75.3782 37.3062 75.3782" stroke="#878787" stroke-width="0.410667" stroke-miterlimit="10"/>
<path d="M38.5166 81.2574C38.5166 81.2574 41.1095 78.3187 41.9738 76.5901" stroke="#878787" stroke-width="0.410667" stroke-miterlimit="10"/>
<path d="M48.7738 35.5048C48.7738 35.5048 52.3451 37.5791 54.3054 40.6906C56.2657 43.8021 60.5284 56.9396 60.2968 60.2793C60.0652 63.619 59.0314 64.5456 56.034 63.9682C53.0366 63.3908 52.8084 60.0512 52.117 57.2854C51.4255 54.5196 47.7366 37.0017 47.7366 37.0017L47.6226 35.3872L48.7738 35.5048Z" fill="white" stroke="#263238" stroke-width="0.410667" stroke-linecap="round" stroke-linejoin="round"/>
<path d="M60.2978 60.2816C60.4153 58.5807 59.3678 54.3352 58.0506 50.1692L50.7593 51.1787C51.3712 54.0136 51.8967 56.3957 52.118 57.2773C52.8094 60.0431 53.0376 63.3828 56.035 63.9601C59.0324 64.5375 60.0696 63.6248 60.2978 60.2816Z" fill="#CFCFCF" stroke="#263238" stroke-width="0.410667" stroke-linecap="round" stroke-linejoin="round"/>
<path d="M24.9185 34.4635C24.9185 34.4635 22.1527 35.0374 21.4612 39.8775C20.7698 44.7177 22.3843 52.6693 22.3843 52.6693L22.0386 62.0039C22.0386 62.0039 33.5616 65.0013 38.2876 65.0013C43.0137 65.0013 49.1191 63.5043 49.1191 63.5043C49.1191 63.5043 46.585 40.2233 46.1217 38.2665C45.6584 36.3097 43.5876 34.3459 41.8589 33.0806C40.1303 31.8152 35.75 31.9259 33.2158 32.6173C30.6817 33.3088 27.1069 34.6917 27.1069 34.6917L24.9185 34.4635Z" fill="white" stroke="#263238" stroke-width="0.410667" stroke-linecap="round" stroke-linejoin="round"/>
<path d="M33.2149 31.2373C33.2149 31.2373 35.635 41.0351 35.8666 47.718C36.0982 54.4008 34.8294 75.1442 34.8294 75.1442C34.8294 75.1442 29.4119 75.3759 25.4949 74.6844C21.5778 73.993 18.8086 73.6473 18.8086 73.6473L22.2658 52.0983C22.2658 52.0983 26.9919 52.444 28.029 49.1009C29.0662 45.7577 27.6833 39.0749 26.4145 37.0005C25.1457 34.9262 24.9175 34.4664 24.9175 34.4664L33.2149 31.2373Z" fill="#007AFF" stroke="#263238" stroke-width="0.410667" stroke-linecap="round" stroke-linejoin="round"/>
<path d="M43.7027 40.351C43.7027 40.351 46.2403 50.0312 46.0087 59.7115C45.7771 69.3918 45.663 74.5776 45.663 74.5776C45.663 74.5776 51.1946 74.2319 54.3061 72.9631C54.3061 72.9631 52.5775 50.377 50.9629 43.6907C49.3484 37.0044 48.7745 35.5108 48.7745 35.5108L42.3198 32.8591L43.7027 40.351Z" fill="#007AFF" stroke="#263238" stroke-width="0.410667" stroke-linecap="round" stroke-linejoin="round"/>
<path d="M35.6986 29.3606C35.6986 29.3606 33.2785 29.8101 32.6424 31.0685C32.0063 32.3269 35.1593 42.6641 35.1593 42.6641L39.7435 38.8888L45.4065 42.1247C45.4065 42.1247 44.3278 34.3045 41.9908 31.6078C39.6537 28.9112 35.6986 29.3606 35.6986 29.3606Z" fill="white" stroke="#263238" stroke-width="0.410667" stroke-linecap="round" stroke-linejoin="round"/>
<path d="M34.7111 22.7981C34.7111 22.7981 34.6212 31.8733 35.61 34.207C36.5988 36.5406 39.2055 39.9598 40.1943 39.4205C41.1831 38.8812 41.4527 32.3193 41.6325 31.8699C41.8123 31.4205 42.5314 27.7212 42.5314 27.7212C42.5314 27.7212 36.0594 25.9373 34.7111 22.7981Z" fill="#CFCFCF" stroke="#263238" stroke-width="0.410667" stroke-linecap="round" stroke-linejoin="round"/>
<path d="M34.7109 22.7981C34.7109 22.7981 34.6763 26.442 34.901 29.7126C35.9326 30.9341 37.382 31.7278 38.9668 31.939C39.8489 32.0726 40.747 32.0609 41.6254 31.9045C41.6239 31.8965 41.6239 31.8883 41.6254 31.8803C41.8052 31.4308 42.5243 27.7316 42.5243 27.7316C42.5243 27.7316 36.0592 25.9373 34.7109 22.7981Z" fill="#263238" stroke="#263238" stroke-width="0.410667" stroke-linecap="round" stroke-linejoin="round"/>
<path d="M44.8221 54.0299L44.1307 54.4517L40.1306 47.9141C40.0757 47.8227 40.059 47.7133 40.0843 47.6097C40.1095 47.5062 40.1746 47.4167 40.2655 47.3609C40.3104 47.3331 40.3604 47.3144 40.4125 47.306C40.4647 47.2975 40.518 47.2994 40.5694 47.3116C40.6208 47.3238 40.6692 47.3461 40.712 47.3771C40.7548 47.4081 40.791 47.4472 40.8186 47.4923L44.8221 54.0299Z" fill="white" stroke="#263238" stroke-width="0.410667" stroke-linecap="round" stroke-linejoin="round"/>
<path d="M24.9193 34.4675C24.9193 34.4675 22.2676 34.6957 20.6565 37.8072C19.0455 40.9187 16.5079 55.5567 16.0446 59.8195C15.5813 64.0822 18.1189 63.7365 18.4647 63.7365C18.8104 63.7365 37.1337 57.631 37.1337 57.631L43.3568 56.9396C43.3568 56.9396 42.6653 57.5135 43.2427 57.5135C43.82 57.5135 44.9713 56.3622 45.4311 55.6708C45.8909 54.9793 44.0482 51.1764 43.3568 50.7166C42.6653 50.2567 36.4423 54.8652 36.4423 54.8652L24.342 55.6708L27.4535 45.0674" fill="white"/>
<path d="M24.9193 34.4675C24.9193 34.4675 22.2676 34.6957 20.6565 37.8072C19.0455 40.9187 16.5079 55.5567 16.0446 59.8195C15.5813 64.0822 18.1189 63.7365 18.4647 63.7365C18.8104 63.7365 37.1337 57.631 37.1337 57.631L43.3568 56.9396C43.3568 56.9396 42.6653 57.5135 43.2427 57.5135C43.82 57.5135 44.9713 56.3622 45.4311 55.6708C45.8909 54.9793 44.0482 51.1764 43.3568 50.7166C42.6653 50.2567 36.4423 54.8652 36.4423 54.8652L24.342 55.6708L27.4535 45.0674" stroke="#263238" stroke-width="0.410667" stroke-linecap="round" stroke-linejoin="round"/>
<path d="M43.356 50.7163C42.6646 50.253 36.4416 54.865 36.4416 54.865L24.3412 55.6705L25.1087 53.0568L17.368 51.3109C16.7284 54.8615 16.2271 58.1424 16.0439 59.8192C15.584 64.082 18.1182 63.7363 18.4639 63.7363C18.8097 63.7363 37.133 57.6308 37.133 57.6308L43.356 56.9393C43.356 56.9393 42.6646 57.5132 43.242 57.5132C43.8193 57.5132 44.9706 56.362 45.4304 55.6705C45.8902 54.9791 44.0475 51.1761 43.356 50.7163Z" fill="#CFCFCF" stroke="#263238" stroke-width="0.410667" stroke-linecap="round" stroke-linejoin="round"/>
<path d="M43.358 50.7163C42.6665 50.253 36.4435 54.865 36.4435 54.865L34.6803 54.9825C34.6735 56.0987 34.9482 57.1985 35.4789 58.1805L37.1349 57.6308L43.358 56.9393C43.358 56.9393 42.6665 57.5132 43.2439 57.5132C43.8212 57.5132 44.9725 56.362 45.4323 55.6705C45.8921 54.9791 44.0494 51.1761 43.358 50.7163Z" fill="#666666" stroke="#263238" stroke-width="0.410667" stroke-linecap="round" stroke-linejoin="round"/>
<path d="M49.4646 45.3L37.71 61.7807L53.1534 61.2033L64.3307 45.9915L49.4646 45.3Z" fill="#263238" stroke="#263238" stroke-width="0.410667" stroke-linecap="round" stroke-linejoin="round"/>
<path d="M54.6538 44.8118L53.7515 46.3122L60.5104 46.4643L61.4127 44.9604L54.6538 44.8118Z" fill="#263238" stroke="#263238" stroke-width="0.410667" stroke-linecap="round" stroke-linejoin="round"/>
<path d="M59.2203 54.6556C58.6895 54.8496 58.1368 54.9773 57.5746 55.0359C56.8832 55.067 56.2471 55.4162 56.2471 55.7654C56.2471 56.1146 57.4813 56.1768 58.3664 56.1768C59.2514 56.1768 59.9463 55.9867 60.095 55.4162C60.2436 54.8458 60.0431 54.341 59.2203 54.6556Z" fill="#666666" stroke="#263238" stroke-width="0.410667" stroke-linecap="round" stroke-linejoin="round"/>
<path d="M60.0163 53.1044C59.3472 53.3496 58.6506 53.5122 57.942 53.5884C57.0604 53.6265 56.2583 54.069 56.2583 54.5081C56.2583 54.9471 57.821 55.0301 58.9446 55.0301C60.0682 55.0301 60.9498 54.7916 61.1503 54.069C61.3508 53.3464 61.0604 52.7034 60.0163 53.1044Z" fill="#666666" stroke="#263238" stroke-width="0.410667" stroke-linecap="round" stroke-linejoin="round"/>
<path d="M60.6585 51.7834C59.9893 52.0286 59.2927 52.1911 58.5841 52.2674C57.6991 52.3054 56.897 52.748 56.897 53.187C56.897 53.6261 58.4631 53.7091 59.5867 53.7091C60.7103 53.7091 61.5919 53.4705 61.7924 52.748C61.9929 52.0254 61.7025 51.3824 60.6585 51.7834Z" fill="#666666" stroke="#263238" stroke-width="0.410667" stroke-linecap="round" stroke-linejoin="round"/>
<path d="M61.0861 50.2931C60.4166 50.5364 59.7201 50.6978 59.0118 50.7736C58.1302 50.8117 57.3281 51.2542 57.3281 51.6967C57.3281 52.1392 58.8908 52.2188 60.0144 52.2188C61.138 52.2188 62.0196 51.9767 62.2201 51.2542C62.4206 50.5316 62.1302 49.892 61.0861 50.2931Z" fill="#666666" stroke="#263238" stroke-width="0.410667" stroke-linecap="round" stroke-linejoin="round"/>
<path d="M23.4742 128.385C23.4742 128.385 23.4016 131.967 23.5433 132.534C23.685 133.101 26.195 133.82 27.768 133.82C29.3411 133.82 30.3471 133.475 30.6341 133.035C30.921 132.596 31.4189 129.668 31.4189 129.668C31.4189 129.668 25.8355 130.823 23.4742 128.385Z" fill="#666666" stroke="#263238" stroke-width="0.410667" stroke-linecap="round" stroke-linejoin="round"/>
<path d="M31.3967 19.9246C30.276 19.5299 29.0708 19.4384 27.9033 19.6594C26.7358 19.8804 25.6474 20.406 24.7485 21.1831C21.6024 23.8797 24.4027 28.7337 27.7148 29.273C31.0268 29.8123 33.1945 28.2842 33.7338 25.8573C34.2732 23.4303 33.3812 19.8347 31.3967 19.9246Z" fill="#263238" stroke="#263238" stroke-width="0.410667" stroke-linecap="round" stroke-linejoin="round"/>
<path d="M47.2987 19.1168C47.2987 19.1168 46.8493 23.6112 45.9504 26.7573C45.0515 29.9034 42.7144 31.072 39.3816 30.6225C36.0488 30.1731 34.1681 27.4764 33.0894 24.3303C32.0108 21.1843 31.9209 16.8696 31.9209 16.8696L47.2987 19.1168Z" fill="#CFCFCF" stroke="#263238" stroke-width="0.410667" stroke-linecap="round" stroke-linejoin="round"/>
<path d="M32.3961 19.0246C32.3961 19.0246 33.4747 20.0133 35.8948 18.3054C38.3149 16.5976 37.1532 15.7886 37.1532 15.7886L31.4004 16.1343L32.3961 19.0246Z" fill="#263238" stroke="#263238" stroke-width="0.410667" stroke-linecap="round" stroke-linejoin="round"/>
<path d="M43.7208 20.1958C43.7208 20.1958 43.2714 21.5441 43.541 21.9936C43.8107 22.443 44.5298 23.0722 43.7208 23.7913C43.5743 23.9344 43.396 24.041 43.2006 24.1023C43.0052 24.1637 42.798 24.1781 42.596 24.1444C42.394 24.1107 42.2027 24.0299 42.0377 23.9085C41.8727 23.7871 41.7387 23.6285 41.6465 23.4456" stroke="#263238" stroke-width="0.410667" stroke-linecap="round" stroke-linejoin="round"/>
<path d="M38.7041 24.2104C38.7041 24.2104 40.087 26.0048 42.7076 25.1785" stroke="#263238" stroke-width="0.410667" stroke-linecap="round" stroke-linejoin="round"/>
<path d="M40.6601 20.7285C40.6601 21.2263 40.4596 21.6274 40.2107 21.6274C39.9618 21.6274 39.7612 21.2263 39.7612 20.7285C39.7612 20.2306 39.9618 19.8296 40.2107 19.8296C40.4596 19.8296 40.6601 20.2306 40.6601 20.7285Z" fill="#263238"/>
<path d="M45.6074 21.4477C45.6074 21.9456 45.4069 22.3466 45.1579 22.3466C44.909 22.3466 44.7085 21.9456 44.7085 21.4477C44.7085 20.9499 44.909 20.5488 45.1579 20.5488C45.4069 20.5488 45.6074 20.9568 45.6074 21.4477Z" fill="#263238"/>
<path d="M38.7759 18.7557C38.7759 18.7557 40.0343 17.3174 41.6523 18.7557" stroke="#263238" stroke-width="0.410667" stroke-linecap="round" stroke-linejoin="round"/>
<path d="M44.5342 19.4766C44.8112 19.2723 45.1502 19.1696 45.494 19.186C45.8378 19.2024 46.1655 19.3368 46.4218 19.5665" stroke="#263238" stroke-width="0.410667" stroke-linecap="round" stroke-linejoin="round"/>
<path d="M31.0513 17.2316L47.7705 19.0293C47.7705 19.0293 47.5907 10.5799 47.5008 9.1451C47.4109 7.71035 40.7592 5.72935 38.1663 5.90913C35.5733 6.0889 32.3235 7.617 31.7842 8.32919C31.2449 9.04138 31.0513 17.2316 31.0513 17.2316Z" fill="#007AFF" stroke="#263238" stroke-width="0.410667" stroke-linecap="round" stroke-linejoin="round"/>
<path d="M38.2354 18.1277L53.0635 20.1052C53.0635 20.1052 49.1118 16.6895 45.9657 16.4198C42.8197 16.1501 38.2354 18.1277 38.2354 18.1277Z" fill="#007AFF" stroke="#263238" stroke-width="0.410667" stroke-linecap="round" stroke-linejoin="round"/>
<path d="M33.0213 19.6562C33.0213 19.6562 32.6756 16.8696 31.1337 16.8696C29.5917 16.8696 30.3247 19.1168 30.5045 20.555C30.6842 21.9933 32.3921 22.3528 33.0213 21.8135" fill="#CFCFCF"/>
<path d="M33.0213 19.6562C33.0213 19.6562 32.6756 16.8696 31.1337 16.8696C29.5917 16.8696 30.3247 19.1168 30.5045 20.555C30.6842 21.9933 32.3921 22.3528 33.0213 21.8135" stroke="#263238" stroke-width="0.410667" stroke-linecap="round" stroke-linejoin="round"/>
<path d="M34.5713 132.111L34.7856 135.479C34.7856 135.479 35.7364 136.191 38.516 136.229C41.2956 136.267 42.319 135.019 42.319 135.019L42.8756 131.389C42.8756 131.389 37.7208 133.83 34.5713 132.111Z" fill="#666666" stroke="#263238" stroke-width="0.410667" stroke-linecap="round" stroke-linejoin="round"/>
</svg>
