<svg width="40" height="40" viewBox="0 0 40 40" fill="none" xmlns="http://www.w3.org/2000/svg">
<rect x="0.5" y="0.5" width="39" height="39" rx="19.5" fill="#E7E7E7"/>
<rect x="0.5" y="0.5" width="39" height="39" rx="19.5" stroke="#E7E7E7"/>
<path d="M29 11.75H11C10.8011 11.75 10.6103 11.829 10.4697 11.9697C10.329 12.1103 10.25 12.3011 10.25 12.5V27.5C10.25 27.6989 10.329 27.8897 10.4697 28.0303C10.6103 28.171 10.8011 28.25 11 28.25H29C29.1989 28.25 29.3897 28.171 29.5303 28.0303C29.671 27.8897 29.75 27.6989 29.75 27.5V12.5C29.75 12.3011 29.671 12.1103 29.5303 11.9697C29.3897 11.829 29.1989 11.75 29 11.75ZM11.75 14C11.75 13.8011 11.829 13.6103 11.9697 13.4697C12.1103 13.329 12.3011 13.25 12.5 13.25H15.5C15.6989 13.25 15.8897 13.329 16.0303 13.4697C16.171 13.6103 16.25 13.8011 16.25 14C16.25 14.1989 16.171 14.3897 16.0303 14.5303C15.8897 14.671 15.6989 14.75 15.5 14.75H13.25V17C13.25 17.1989 13.171 17.3897 13.0303 17.5303C12.8897 17.671 12.6989 17.75 12.5 17.75C12.3011 17.75 12.1103 17.671 11.9697 17.5303C11.829 17.3897 11.75 17.1989 11.75 17V14ZM15.5 26.75H12.5C12.3011 26.75 12.1103 26.671 11.9697 26.5303C11.829 26.3897 11.75 26.1989 11.75 26V23C11.75 22.8011 11.829 22.6103 11.9697 22.4697C12.1103 22.329 12.3011 22.25 12.5 22.25C12.6989 22.25 12.8897 22.329 13.0303 22.4697C13.171 22.6103 13.25 22.8011 13.25 23V25.25H15.5C15.6989 25.25 15.8897 25.329 16.0303 25.4697C16.171 25.6103 16.25 25.8011 16.25 26C16.25 26.1989 16.171 26.3897 16.0303 26.5303C15.8897 26.671 15.6989 26.75 15.5 26.75ZM17.75 22.25C17.75 22.4489 17.671 22.6397 17.5303 22.7803C17.3897 22.921 17.1989 23 17 23C16.8011 23 16.6103 22.921 16.4697 22.7803C16.329 22.6397 16.25 22.4489 16.25 22.25V17.75C16.25 17.5511 16.329 17.3603 16.4697 17.2197C16.6103 17.079 16.8011 17 17 17C17.1989 17 17.3897 17.079 17.5303 17.2197C17.671 17.3603 17.75 17.5511 17.75 17.75V22.25ZM20.75 22.25C20.75 22.4489 20.671 22.6397 20.5303 22.7803C20.3897 22.921 20.1989 23 20 23C19.8011 23 19.6103 22.921 19.4697 22.7803C19.329 22.6397 19.25 22.4489 19.25 22.25V17.75C19.25 17.5511 19.329 17.3603 19.4697 17.2197C19.6103 17.079 19.8011 17 20 17C20.1989 17 20.3897 17.079 20.5303 17.2197C20.671 17.3603 20.75 17.5511 20.75 17.75V22.25ZM23 23C22.8011 23 22.6103 22.921 22.4697 22.7803C22.329 22.6397 22.25 22.4489 22.25 22.25V17.75C22.25 17.5511 22.329 17.3603 22.4697 17.2197C22.6103 17.079 22.8011 17 23 17C23.1989 17 23.3897 17.079 23.5303 17.2197C23.671 17.3603 23.75 17.5511 23.75 17.75V22.25C23.75 22.4489 23.671 22.6397 23.5303 22.7803C23.3897 22.921 23.1989 23 23 23ZM28.25 26C28.25 26.1989 28.171 26.3897 28.0303 26.5303C27.8897 26.671 27.6989 26.75 27.5 26.75H24.5C24.3011 26.75 24.1103 26.671 23.9697 26.5303C23.829 26.3897 23.75 26.1989 23.75 26C23.75 25.8011 23.829 25.6103 23.9697 25.4697C24.1103 25.329 24.3011 25.25 24.5 25.25H26.75V23C26.75 22.8011 26.829 22.6103 26.9697 22.4697C27.1103 22.329 27.3011 22.25 27.5 22.25C27.6989 22.25 27.8897 22.329 28.0303 22.4697C28.171 22.6103 28.25 22.8011 28.25 23V26ZM28.25 17C28.25 17.1989 28.171 17.3897 28.0303 17.5303C27.8897 17.671 27.6989 17.75 27.5 17.75C27.3011 17.75 27.1103 17.671 26.9697 17.5303C26.829 17.3897 26.75 17.1989 26.75 17V14.75H24.5C24.3011 14.75 24.1103 14.671 23.9697 14.5303C23.829 14.3897 23.75 14.1989 23.75 14C23.75 13.8011 23.829 13.6103 23.9697 13.4697C24.1103 13.329 24.3011 13.25 24.5 13.25H27.5C27.6989 13.25 27.8897 13.329 28.0303 13.4697C28.171 13.6103 28.25 13.8011 28.25 14V17Z" fill="black"/>
</svg>
