<svg width="256" height="183" viewBox="0 0 256 183" fill="none" xmlns="http://www.w3.org/2000/svg">
<path d="M254.142 134.606C254.142 134.606 262.993 80.8205 231.185 51.9177C203.105 26.4025 160.048 17.8913 126.303 41.4879C114.273 49.8931 99.9916 58.5029 85.7393 63.8566C69.7659 69.8572 51.9542 71.6625 37.903 95.0033C23.8517 118.344 33.5177 155.268 54.2821 169.886C75.0465 184.504 111.561 183.016 143.154 180.484C174.746 177.951 240.435 201.106 254.142 134.606Z" fill="#92E3A9"/>
<path opacity="0.7" d="M254.142 134.606C254.142 134.606 262.993 80.8205 231.185 51.9177C203.105 26.4025 160.048 17.8913 126.303 41.4879C114.273 49.8931 99.9916 58.5029 85.7393 63.8566C69.7659 69.8572 51.9542 71.6625 37.903 95.0033C23.8517 118.344 33.5177 155.268 54.2821 169.886C75.0465 184.504 111.561 183.016 143.154 180.484C174.746 177.951 240.435 201.106 254.142 134.606Z" fill="white"/>
<path d="M236.159 138.611C236.116 138.611 236.797 135.638 236.86 135.455C237.605 133.342 240.293 129.692 242.802 129.76C243.219 129.782 243.626 129.892 243.998 130.083C244.37 130.273 244.697 130.54 244.959 130.866C245.22 131.192 245.41 131.569 245.515 131.973C245.621 132.377 245.64 132.799 245.572 133.211C245.344 134.966 243.725 136.431 242.27 137.263C240.558 138.239 236.164 138.611 236.159 138.611Z" fill="#263238"/>
<path d="M236.44 126.516C236.396 126.516 237.518 123.673 237.61 123.504C238.668 121.522 241.873 118.322 244.344 118.771C244.752 118.857 245.138 119.027 245.477 119.272C245.815 119.516 246.098 119.829 246.307 120.191C246.517 120.552 246.648 120.953 246.692 121.368C246.736 121.783 246.692 122.203 246.563 122.6C246.079 124.307 244.247 125.501 242.695 126.105C240.844 126.816 236.445 126.516 236.44 126.516Z" fill="#263238"/>
<path d="M239.591 113.072C239.543 113.072 240.665 110.23 240.756 110.06C241.815 108.083 245.025 104.883 247.495 105.328C247.904 105.413 248.29 105.585 248.628 105.83C248.967 106.075 249.249 106.388 249.458 106.75C249.667 107.112 249.798 107.513 249.841 107.929C249.884 108.344 249.839 108.764 249.71 109.161C249.226 110.863 247.394 112.062 245.842 112.666C243.995 113.372 239.591 113.072 239.591 113.072Z" fill="#263238"/>
<path d="M241.945 100.251C241.897 100.251 243.018 97.4088 243.11 97.2348C244.169 95.2576 247.379 92.0573 249.849 92.5069C250.258 92.5923 250.644 92.7629 250.982 93.0074C251.32 93.252 251.603 93.565 251.813 93.9262C252.022 94.2874 252.153 94.6886 252.197 95.1037C252.241 95.5189 252.197 95.9386 252.068 96.3356C251.584 98.0421 249.747 99.2362 248.2 99.8405C246.349 100.546 241.945 100.251 241.945 100.251Z" fill="#263238"/>
<path d="M240.944 89.1081C240.896 89.1081 241.229 86.0818 241.273 85.8933C241.756 83.7034 244.019 79.7682 246.523 79.5507C246.939 79.5258 247.357 79.5889 247.747 79.7357C248.138 79.8826 248.493 80.1101 248.79 80.4033C249.086 80.6964 249.318 81.0488 249.47 81.4375C249.622 81.8262 249.69 82.2424 249.67 82.6592C249.67 84.4333 248.22 86.0722 246.857 87.0632C245.271 88.2138 240.944 89.1081 240.944 89.1081Z" fill="#263238"/>
<path d="M234.939 138.283C234.983 138.283 234.499 135.276 234.456 135.092C233.851 132.931 231.41 129.112 228.901 129.015C228.483 129.011 228.069 129.094 227.686 129.26C227.303 129.426 226.959 129.671 226.676 129.979C226.394 130.287 226.18 130.651 226.048 131.047C225.915 131.443 225.868 131.863 225.909 132.278C226.02 134.048 227.543 135.614 228.94 136.537C230.574 137.625 234.934 138.283 234.939 138.283Z" fill="#263238"/>
<path d="M236.265 124.834C236.313 124.834 235.376 121.933 235.298 121.749C234.37 119.705 231.378 116.301 228.883 116.586C228.47 116.645 228.074 116.791 227.72 117.013C227.367 117.235 227.064 117.53 226.832 117.877C226.6 118.224 226.443 118.616 226.373 119.027C226.302 119.439 226.319 119.861 226.423 120.265C226.8 121.996 228.545 123.316 230.063 124.017C231.851 124.843 236.26 124.834 236.265 124.834Z" fill="#263238"/>
<path d="M239.262 112.158C239.305 112.158 238.372 109.258 238.295 109.079C237.372 107.034 234.379 103.631 231.885 103.916C231.471 103.974 231.075 104.119 230.722 104.341C230.368 104.563 230.065 104.856 229.832 105.203C229.6 105.549 229.443 105.941 229.372 106.352C229.301 106.764 229.317 107.185 229.419 107.59C229.801 109.325 231.541 110.64 233.064 111.346C234.848 112.168 239.257 112.158 239.262 112.158Z" fill="#263238"/>
<path d="M241.453 100.363C241.501 100.363 240.563 97.462 240.486 97.2783C239.558 95.2382 236.57 91.8349 234.071 92.1201C233.658 92.1785 233.261 92.3233 232.908 92.5451C232.554 92.7669 232.252 93.0608 232.02 93.4075C231.787 93.7541 231.631 94.1459 231.56 94.5572C231.49 94.9684 231.507 95.3899 231.61 95.7942C231.987 97.5297 233.732 98.8446 235.255 99.5456C237.039 100.372 241.453 100.363 241.453 100.363Z" fill="#263238"/>
<path d="M240.853 89.4709C240.902 89.4709 239.654 86.6815 239.553 86.5123C238.407 84.5786 235.062 81.5282 232.611 82.089C232.206 82.1925 231.828 82.3802 231.501 82.6399C231.174 82.8995 230.906 83.2252 230.713 83.5956C230.521 83.9661 230.409 84.373 230.384 84.7898C230.359 85.2066 230.423 85.6239 230.571 86.0144C231.136 87.6919 233.012 88.8135 234.603 89.3404C236.469 89.964 240.853 89.4709 240.853 89.4709Z" fill="#263238"/>
<path d="M238.213 79.8314C238.252 79.8314 238.431 76.8003 238.421 76.607C238.291 74.3639 236.729 70.1097 234.298 69.4764C233.891 69.3825 233.469 69.3752 233.059 69.4551C232.65 69.5351 232.262 69.7003 231.92 69.9402C231.578 70.18 231.291 70.4891 231.077 70.8473C230.863 71.2055 230.726 71.6048 230.677 72.0192C230.406 73.7741 231.557 75.6304 232.722 76.8535C234.09 78.2458 238.209 79.8266 238.213 79.8314Z" fill="#263238"/>
<path d="M235.762 154.855C235.762 154.855 235.603 153.574 235.409 151.35C235.216 149.126 234.994 145.945 234.892 142.121C234.839 140.187 234.82 138.138 234.858 135.943C234.858 134.841 234.916 133.738 234.96 132.559C234.998 131.988 235.042 131.413 235.081 130.828C235.119 130.243 235.216 129.644 235.279 129.044C235.61 126.604 236.073 124.183 236.666 121.793C237.261 119.352 237.938 116.901 238.6 114.454C239.262 112.008 239.915 109.562 240.427 107.131C240.949 104.756 241.299 102.347 241.476 99.9226C241.601 97.6529 241.523 95.3767 241.244 93.1207C241.015 91.0762 240.665 89.047 240.195 87.044C239.77 85.1925 239.272 83.5198 238.818 82.0454C238.363 80.5709 237.894 79.3043 237.507 78.265C236.719 76.1862 236.183 75.0356 236.183 75.0356C236.183 75.0356 236.744 76.1765 237.575 78.2359C237.991 79.2657 238.469 80.5274 238.972 81.9922C239.475 83.457 239.997 85.1248 240.461 86.9764C240.983 88.9653 241.388 90.983 241.675 93.0192C242.007 95.2979 242.137 97.6016 242.061 99.9033C241.932 102.361 241.63 104.807 241.157 107.222C240.674 109.688 240.094 112.163 239.48 114.629C238.866 117.094 238.223 119.564 237.686 121.981C237.153 124.346 236.75 126.738 236.478 129.146C236.429 129.731 236.342 130.287 236.323 130.877C236.304 131.466 236.265 132.042 236.236 132.612C236.236 133.714 236.202 134.855 236.212 135.933C236.212 138.104 236.284 140.154 236.381 142.044C236.56 145.829 236.864 148.976 237.092 151.171C237.319 153.366 237.512 154.603 237.512 154.603C237.529 154.718 237.523 154.835 237.495 154.947C237.467 155.059 237.416 155.165 237.347 155.258C237.278 155.351 237.191 155.429 237.092 155.489C236.993 155.548 236.882 155.587 236.768 155.604C236.653 155.621 236.536 155.615 236.424 155.587C236.312 155.558 236.206 155.508 236.113 155.439C236.02 155.37 235.942 155.283 235.883 155.184C235.823 155.084 235.784 154.974 235.767 154.86V154.855H235.762Z" fill="#263238"/>
<path d="M230.387 149.861H242.439V152.355H241.39L239.214 165.969H233.616L231.436 152.355H230.387V149.861Z" fill="#263238" stroke="#263238" stroke-width="0.576" stroke-linecap="round" stroke-linejoin="round"/>
<path d="M123.688 157.272C123.688 157.272 124.219 156.213 125.916 156.426C127.613 156.639 128.676 158.655 127.507 159.288C126.337 159.921 123.688 157.272 123.688 157.272Z" fill="#0F913D" stroke="#263238" stroke-width="0.576" stroke-linecap="round" stroke-linejoin="round"/>
<path d="M126.196 108.039C126.196 108.039 130.189 108.842 132.109 110.118C134.028 111.394 134.342 111.713 134.821 114.271C135.299 116.828 133.544 123.693 133.544 127.207C133.544 130.722 130.987 152.123 130.987 153.888C130.987 155.652 132.747 159.317 132.587 160.593C132.519 161.511 132.628 162.433 132.906 163.31C132.906 163.31 134.023 164.107 132.587 164.277C131.151 164.446 130.987 164.596 129.711 163.958C128.435 163.32 127.777 160.124 126.675 159.167C125.573 158.21 124.92 157.093 124.92 156.29C124.92 155.488 127.473 152.462 127.473 152.462C127.473 152.462 127.154 147.99 126.989 144.156C126.825 140.323 125.055 131.858 125.055 128.203C125.055 124.548 127.473 115.905 127.473 115.905C127.473 115.905 121.27 116.664 118.853 115.068C116.436 113.473 119.172 106.444 126.196 108.039Z" fill="white" stroke="#263238" stroke-width="0.576" stroke-linecap="round" stroke-linejoin="round"/>
<path d="M126.676 159.148C126.676 159.148 123.776 156.658 123.689 157.291C123.602 157.924 123.582 162.918 123.795 163.445C124.008 163.972 129.736 164.509 132.709 165.041C135.682 165.572 134.513 163.658 133.874 163.232C133.236 162.807 126.676 159.148 126.676 159.148Z" fill="#0F913D" stroke="#263238" stroke-width="0.576" stroke-linecap="round" stroke-linejoin="round"/>
<path opacity="0.2" d="M126.676 159.148C126.676 159.148 123.776 156.658 123.689 157.291C123.602 157.924 123.582 162.918 123.795 163.445C124.008 163.972 129.736 164.509 132.709 165.041C135.682 165.572 134.513 163.658 133.874 163.232C133.236 162.807 126.676 159.148 126.676 159.148Z" fill="black"/>
<path d="M127.508 161.961C128.088 161.265 128.768 160.658 129.524 160.158C130.422 159.52 131.43 159.053 132.497 158.78L133.875 161.429C132.925 161.653 132.001 161.978 131.119 162.396C130.45 162.802 129.842 163.301 129.316 163.88C129.316 163.88 127.721 162.812 127.508 161.961Z" fill="#263238" stroke="#263238" stroke-width="0.576" stroke-linecap="round" stroke-linejoin="round"/>
<path d="M130.374 158.993C130.239 159.01 130.11 159.054 129.994 159.122C129.877 159.191 129.776 159.283 129.697 159.392C129.617 159.501 129.56 159.625 129.53 159.757C129.501 159.889 129.498 160.025 129.523 160.158C129.629 161.222 129.735 164.615 130.161 164.722C130.586 164.828 135.889 165.689 137.799 165.78C139.709 165.872 141.831 165.887 141.831 164.934C141.831 163.982 141.512 163.557 141.091 163.557C140.671 163.557 139.709 163.238 138.437 162.498C137.166 161.758 134.086 158.891 133.119 158.785C132.153 158.679 130.905 158.036 130.374 158.993Z" fill="#0F913D" stroke="#263238" stroke-width="0.576" stroke-linecap="round" stroke-linejoin="round"/>
<path opacity="0.2" d="M130.374 158.993C130.239 159.01 130.11 159.054 129.994 159.122C129.877 159.191 129.776 159.283 129.697 159.392C129.617 159.501 129.56 159.625 129.53 159.757C129.501 159.889 129.498 160.025 129.523 160.158C129.629 161.222 129.735 164.615 130.161 164.722C130.586 164.828 135.889 165.689 137.799 165.78C139.709 165.872 141.831 165.887 141.831 164.934C141.831 163.982 141.512 163.557 141.091 163.557C140.671 163.557 139.709 163.238 138.437 162.498C137.166 161.758 134.086 158.891 133.119 158.785C132.153 158.679 130.905 158.036 130.374 158.993Z" fill="black"/>
<path d="M85.889 163.556C85.889 163.078 85.7472 162.611 85.4816 162.213C85.216 161.816 84.8385 161.506 84.3968 161.323C83.9552 161.14 83.4692 161.092 83.0003 161.186C82.5314 161.279 82.1007 161.509 81.7627 161.847C81.4246 162.185 81.1944 162.616 81.1011 163.085C81.0079 163.554 81.0557 164.04 81.2387 164.481C81.4216 164.923 81.7314 165.3 82.1289 165.566C82.5264 165.832 82.9938 165.973 83.4718 165.973C84.1129 165.973 84.7277 165.719 85.181 165.265C85.6343 164.812 85.889 164.197 85.889 163.556Z" fill="#263238" stroke="#263238" stroke-width="0.576" stroke-linecap="round" stroke-linejoin="round"/>
<path d="M83.4713 164.76C84.1387 164.76 84.6798 164.219 84.6798 163.552C84.6798 162.884 84.1387 162.343 83.4713 162.343C82.8038 162.343 82.2627 162.884 82.2627 163.552C82.2627 164.219 82.8038 164.76 83.4713 164.76Z" fill="white" stroke="#263238" stroke-width="0.576" stroke-linecap="round" stroke-linejoin="round"/>
<path d="M111.791 163.556C111.791 163.078 111.65 162.611 111.384 162.213C111.118 161.816 110.741 161.506 110.299 161.323C109.858 161.14 109.372 161.092 108.903 161.186C108.434 161.279 108.003 161.509 107.665 161.847C107.327 162.185 107.097 162.616 107.003 163.085C106.91 163.554 106.958 164.04 107.141 164.481C107.324 164.923 107.634 165.3 108.031 165.566C108.429 165.832 108.896 165.973 109.374 165.973C110.015 165.973 110.63 165.719 111.083 165.265C111.537 164.812 111.791 164.197 111.791 163.556Z" fill="#263238" stroke="#263238" stroke-width="0.576" stroke-linecap="round" stroke-linejoin="round"/>
<path d="M110.582 163.556C110.582 163.317 110.511 163.084 110.379 162.885C110.246 162.686 110.057 162.531 109.836 162.44C109.615 162.348 109.372 162.324 109.138 162.371C108.903 162.418 108.688 162.533 108.519 162.702C108.35 162.871 108.235 163.086 108.188 163.321C108.142 163.555 108.166 163.798 108.257 164.019C108.349 164.24 108.503 164.429 108.702 164.561C108.901 164.694 109.135 164.765 109.374 164.765C109.694 164.765 110.002 164.638 110.228 164.411C110.455 164.184 110.582 163.877 110.582 163.556Z" fill="white" stroke="#263238" stroke-width="0.576" stroke-linecap="round" stroke-linejoin="round"/>
<path d="M120.255 163.556C120.255 163.078 120.113 162.611 119.848 162.213C119.582 161.816 119.205 161.506 118.763 161.323C118.321 161.14 117.835 161.092 117.366 161.186C116.898 161.279 116.467 161.509 116.129 161.847C115.791 162.185 115.561 162.616 115.467 163.085C115.374 163.554 115.422 164.04 115.605 164.481C115.788 164.923 116.098 165.3 116.495 165.566C116.893 165.832 117.36 165.973 117.838 165.973C118.479 165.973 119.094 165.719 119.547 165.265C120.001 164.812 120.255 164.197 120.255 163.556Z" fill="#263238" stroke="#263238" stroke-width="0.576" stroke-linecap="round" stroke-linejoin="round"/>
<path d="M119.047 163.556C119.048 163.316 118.977 163.081 118.844 162.88C118.711 162.68 118.522 162.524 118.3 162.431C118.078 162.339 117.834 162.315 117.598 162.361C117.362 162.408 117.146 162.524 116.976 162.694C116.806 162.864 116.69 163.08 116.643 163.316C116.597 163.552 116.621 163.796 116.713 164.018C116.806 164.24 116.962 164.429 117.162 164.562C117.363 164.695 117.598 164.766 117.838 164.765C118.159 164.765 118.466 164.638 118.693 164.411C118.92 164.184 119.047 163.877 119.047 163.556Z" fill="white" stroke="#263238" stroke-width="0.576" stroke-linecap="round" stroke-linejoin="round"/>
<path d="M105.622 122.059H100.508V160.786H105.622V122.059Z" fill="#263238" stroke="#263238" stroke-width="0.576" stroke-linecap="round" stroke-linejoin="round"/>
<path d="M106.99 142.295H99.1484V160.786H106.99V142.295Z" fill="#263238" stroke="#263238" stroke-width="0.576" stroke-linecap="round" stroke-linejoin="round"/>
<path d="M82.9728 160.056H119.099C119.612 160.056 120.104 160.26 120.467 160.623C120.829 160.985 121.033 161.477 121.033 161.99V162.246H81.0391V161.99C81.0391 161.477 81.2428 160.985 81.6054 160.623C81.9681 160.26 82.4599 160.056 82.9728 160.056Z" fill="#263238" stroke="#263238" stroke-width="0.576" stroke-linecap="round" stroke-linejoin="round"/>
<path d="M97.8442 107.082H91.2695V117.679H97.8442V107.082Z" fill="#263238" stroke="#263238" stroke-width="0.576" stroke-linecap="round" stroke-linejoin="round"/>
<path d="M124.364 116.214H81.7642C79.8072 116.214 78.2207 117.801 78.2207 119.758V120.71C78.2207 122.667 79.8072 124.254 81.7642 124.254H124.364C126.321 124.254 127.908 122.667 127.908 120.71V119.758C127.908 117.801 126.321 116.214 124.364 116.214Z" fill="#0F913D" stroke="#263238" stroke-width="0.576" stroke-linecap="round" stroke-linejoin="round"/>
<path opacity="0.1" d="M124.364 116.214H81.7642C79.8072 116.214 78.2207 117.801 78.2207 119.758V120.71C78.2207 122.667 79.8072 124.254 81.7642 124.254H124.364C126.321 124.254 127.908 122.667 127.908 120.71V119.758C127.908 117.801 126.321 116.214 124.364 116.214Z" fill="black"/>
<path d="M127.908 120.231C127.908 119.166 127.485 118.144 126.731 117.391C125.978 116.637 124.956 116.214 123.891 116.214H101.972C101.432 116.195 100.895 116.285 100.391 116.479C99.8866 116.673 99.4267 116.966 99.0383 117.341C98.65 117.716 98.3411 118.165 98.1302 118.662C97.9193 119.159 97.8105 119.694 97.8105 120.234C97.8105 120.774 97.9193 121.308 98.1302 121.805C98.3411 122.302 98.65 122.752 99.0383 123.127C99.4267 123.502 99.8866 123.795 100.391 123.989C100.895 124.182 101.432 124.272 101.972 124.254H123.891C124.957 124.252 125.978 123.828 126.732 123.074C127.485 122.32 127.908 121.297 127.908 120.231Z" fill="#0F913D" stroke="#263238" stroke-width="0.576" stroke-miterlimit="10"/>
<path opacity="0.1" d="M127.908 120.357C127.908 119.83 127.804 119.307 127.602 118.82C127.4 118.333 127.104 117.89 126.731 117.517C126.358 117.144 125.916 116.848 125.428 116.646C124.941 116.444 124.418 116.34 123.891 116.34H101.972C101.432 116.321 100.895 116.411 100.391 116.605C99.8866 116.799 99.4267 117.092 99.0383 117.467C98.65 117.842 98.3411 118.291 98.1302 118.788C97.9193 119.285 97.8105 119.82 97.8105 120.36C97.8105 120.9 97.9193 121.434 98.1302 121.931C98.3411 122.428 98.65 122.878 99.0383 123.253C99.4267 123.628 99.8866 123.921 100.391 124.115C100.895 124.308 101.432 124.398 101.972 124.379H123.891C124.419 124.379 124.942 124.275 125.429 124.073C125.917 123.871 126.36 123.575 126.733 123.201C127.106 122.828 127.402 122.384 127.604 121.896C127.805 121.408 127.909 120.885 127.908 120.357Z" fill="black"/>
<path d="M107.508 107.087H81.8862C81.2871 107.087 80.6941 106.967 80.1421 106.735C79.5901 106.502 79.0903 106.161 78.6722 105.732C78.254 105.303 77.9261 104.795 77.7075 104.237C77.489 103.679 77.3844 103.084 77.3999 102.485L78.0332 77.5059C78.061 76.3351 78.5461 75.2216 79.3845 74.4039C80.223 73.5862 81.3483 73.1293 82.5195 73.1309H103.66C104.732 73.129 105.77 73.5119 106.584 74.21C107.399 74.9081 107.936 75.8752 108.098 76.9355L111.941 101.934C112.037 102.572 111.994 103.223 111.815 103.843C111.637 104.463 111.326 105.037 110.906 105.526C110.485 106.016 109.963 106.408 109.377 106.678C108.791 106.947 108.153 107.086 107.508 107.087Z" fill="#0F913D" stroke="#263238" stroke-width="0.576" stroke-linecap="round" stroke-linejoin="round"/>
<path opacity="0.1" d="M107.508 107.087H81.8862C81.2871 107.087 80.6941 106.967 80.1421 106.735C79.5901 106.502 79.0903 106.161 78.6722 105.732C78.254 105.303 77.9261 104.795 77.7075 104.237C77.489 103.679 77.3844 103.084 77.3999 102.485L78.0332 77.5059C78.061 76.3351 78.5461 75.2216 79.3845 74.4039C80.223 73.5862 81.3483 73.1293 82.5195 73.1309H103.66C104.732 73.129 105.77 73.5119 106.584 74.21C107.399 74.9081 107.936 75.8752 108.098 76.9355L111.941 101.934C112.037 102.572 111.994 103.223 111.815 103.843C111.637 104.463 111.326 105.037 110.906 105.526C110.485 106.016 109.963 106.408 109.377 106.678C108.791 106.947 108.153 107.086 107.508 107.087Z" fill="black"/>
<path d="M99.1392 122.973L87.9043 130.369" stroke="#263238" stroke-width="0.576" stroke-linecap="round" stroke-linejoin="round"/>
<path d="M87.4801 129.233L85.5464 130.533C85.395 130.636 85.2683 130.772 85.1754 130.93C85.0825 131.088 85.0257 131.264 85.009 131.447C84.9924 131.629 85.0163 131.813 85.0792 131.986C85.142 132.158 85.2421 132.314 85.3724 132.443L85.5367 132.597C85.754 132.811 86.0426 132.937 86.347 132.95C86.6515 132.964 86.9501 132.864 87.1852 132.67L88.9546 131.22C89.0859 131.111 89.1934 130.976 89.2702 130.824C89.3471 130.672 89.3917 130.506 89.4012 130.335C89.4107 130.165 89.385 129.995 89.3256 129.835C89.2662 129.675 89.1745 129.529 89.0561 129.407C88.8558 129.197 88.588 129.065 88.2998 129.033C88.0115 129.001 87.7213 129.072 87.4801 129.233Z" fill="#263238" stroke="#263238" stroke-width="0.576" stroke-linecap="round" stroke-linejoin="round"/>
<path d="M100.895 160.056H111.98C112.492 160.056 112.984 160.26 113.347 160.623C113.71 160.985 113.913 161.477 113.913 161.99V162.246H100.895V160.056Z" fill="#263238" stroke="#263238" stroke-width="0.576" stroke-linecap="round" stroke-linejoin="round"/>
<path d="M109.77 94.2133C111.956 94.2133 113.729 93.2047 113.729 91.9605C113.729 90.7164 111.956 89.7078 109.77 89.7078C107.583 89.7078 105.811 90.7164 105.811 91.9605C105.811 93.2047 107.583 94.2133 109.77 94.2133Z" fill="white" stroke="#263238" stroke-width="0.576" stroke-linecap="round" stroke-linejoin="round"/>
<path d="M120.787 110.437C120.787 110.437 127.173 110.756 128.614 114.111C128.911 115.26 129.073 116.44 129.097 117.626C129.097 119.381 135.005 153.24 135.164 153.883C135.324 154.526 138.838 159.472 139.317 160.588C139.796 161.705 140.284 162.667 140.284 162.667C140.284 162.667 141.734 163.305 141.565 163.784C141.396 164.262 138.05 164.422 136.615 164.422C135.179 164.422 133.579 160.912 132.622 160.588C131.664 160.264 130.543 159.138 130.543 158.514C130.543 157.891 131.026 153.245 131.026 153.245C130.414 149.455 129.342 145.754 127.836 142.223C125.699 137.355 123.04 130.243 122.721 126.893C122.402 123.543 122.402 120.343 122.402 120.343L118.37 119.7C118.37 119.7 117.887 111.394 120.787 110.437Z" fill="white" stroke="#263238" stroke-width="0.576" stroke-linecap="round" stroke-linejoin="round"/>
<path d="M133.767 162.174C133.767 162.174 135.043 156.977 138.33 158.993L139.708 161.323C139.708 161.323 136.633 161.323 135.676 164.296C135.209 164.125 134.79 163.843 134.457 163.473C134.124 163.103 133.887 162.657 133.767 162.174Z" fill="#263238" stroke="#263238" stroke-width="0.576" stroke-linecap="round" stroke-linejoin="round"/>
<path d="M107.571 100.74L107.416 100.764C105.966 94.8564 104.008 88.8184 104.008 88.8184C104.008 88.8184 94.4021 91.3564 88.862 89.6354C88.862 89.6354 86.0436 103.515 86.0436 107.14C86.0436 110.041 85.4441 112.99 87.6389 114.692C87.8512 115.004 88.124 115.271 88.4412 115.476C88.7584 115.681 89.1135 115.82 89.4856 115.886C95.4753 117.012 105.796 116.62 107.518 116.964C109.239 117.307 118.37 119.7 118.37 119.7C118.37 119.7 118.917 114.663 120.464 111.395C122.011 108.127 129.074 108.682 129.074 108.682L107.571 100.74Z" fill="#263238" stroke="#263238" stroke-width="0.576" stroke-linecap="round" stroke-linejoin="round"/>
<path d="M105.351 62.0361C105.351 62.0361 104.027 60.3731 102.596 62.2053C101.165 64.0375 102.301 70.3995 103.007 72.9423C103.713 75.4851 115.634 86.0336 116.755 86.8167C117.877 87.5999 132.491 90.9017 133.767 90.2974C135.044 89.6931 135.411 86.633 134.686 84.9797C133.961 83.3264 120.304 79.8167 120.304 79.8167L105.351 62.0361Z" fill="white"/>
<mask id="mask0_2626_48694" style="mask-type:luminance" maskUnits="userSpaceOnUse" x="101" y="61" width="35" height="30">
<path d="M105.351 62.0361C105.351 62.0361 104.027 60.3731 102.596 62.2053C101.165 64.0375 102.301 70.3995 103.007 72.9423C103.713 75.4851 115.634 86.0336 116.755 86.8167C117.877 87.5999 132.491 90.9017 133.767 90.2974C135.044 89.6931 135.411 86.633 134.686 84.9797C133.961 83.3264 120.304 79.8167 120.304 79.8167L105.351 62.0361Z" fill="white"/>
</mask>
<g mask="url(#mask0_2626_48694)">
<g style="mix-blend-mode:multiply" opacity="0.5">
<path d="M116.755 86.8266C117.876 87.605 132.491 90.9116 133.767 90.3073C134.502 89.9593 134.932 88.7894 135.029 87.5469C132.771 86.6381 130.093 86.0241 128.85 86.0967C127.047 86.1982 128.256 87.8805 125.365 87.4068C122.474 86.933 119.177 85.473 116.18 83.7617C113.182 82.0504 107.802 76.9937 107.802 76.9937L112.022 77.4771L107.212 75.993L111.394 74.4218L107.802 74.2091C108.032 73.6401 108.139 73.0289 108.116 72.4156C108.116 71.1732 105.747 66.5613 105.747 66.5613L103.233 73.4695C104.988 76.6214 115.696 86.087 116.755 86.8266Z" fill="#0F913D"/>
</g>
</g>
<path d="M105.351 62.0361C105.351 62.0361 104.027 60.3731 102.596 62.2053C101.165 64.0375 102.301 70.3995 103.007 72.9423C103.713 75.4851 115.634 86.0336 116.755 86.8167C117.877 87.5999 132.491 90.9017 133.767 90.2974C135.044 89.6931 135.411 86.633 134.686 84.9797C133.961 83.3264 120.304 79.8167 120.304 79.8167L105.351 62.0361Z" stroke="#263238" stroke-width="0.576" stroke-linecap="round" stroke-linejoin="round"/>
<path d="M110.044 75.3933L106.762 76.6647L112.282 78.5018" stroke="#263238" stroke-width="0.288" stroke-linecap="round" stroke-linejoin="round"/>
<path d="M133.802 84.9656C133.38 85.0521 132.994 85.2641 132.694 85.5738C132.395 85.8835 132.196 86.2764 132.124 86.7011C131.839 88.2142 133.328 89.505 133.328 89.505C133.328 89.505 136.465 90.583 137.403 88.0547C138.341 85.5264 135.32 84.8689 133.802 84.9656Z" fill="white"/>
<mask id="mask1_2626_48694" style="mask-type:luminance" maskUnits="userSpaceOnUse" x="132" y="84" width="6" height="6">
<path d="M133.802 84.9656C133.38 85.0521 132.994 85.2641 132.694 85.5738C132.395 85.8835 132.196 86.2764 132.124 86.7011C131.839 88.2142 133.328 89.505 133.328 89.505C133.328 89.505 136.465 90.583 137.403 88.0547C138.341 85.5264 135.32 84.8689 133.802 84.9656Z" fill="white"/>
</mask>
<g mask="url(#mask1_2626_48694)">
<g style="mix-blend-mode:multiply" opacity="0.5">
<path d="M133.328 89.5045C133.328 89.5045 136.006 90.4182 137.152 88.5763C135.578 87.7004 133.896 87.0356 132.148 86.5991C132.138 86.6324 132.13 86.6663 132.124 86.7006C131.839 88.2138 133.328 89.5045 133.328 89.5045Z" fill="#0F913D"/>
</g>
</g>
<path d="M133.802 84.9656C133.38 85.0521 132.994 85.2641 132.694 85.5738C132.395 85.8835 132.196 86.2764 132.124 86.7011C131.839 88.2142 133.328 89.505 133.328 89.505C133.328 89.505 136.465 90.583 137.403 88.0547C138.341 85.5264 135.32 84.8689 133.802 84.9656Z" stroke="#263238" stroke-width="0.576" stroke-linecap="round" stroke-linejoin="round"/>
<path d="M143.068 88.4605C143.945 88.6011 144.752 89.0217 145.369 89.6594C146.283 90.6891 145.538 91.1096 144.954 90.9598C144.369 90.8099 142.445 87.9674 143.068 88.4605Z" fill="white" stroke="#263238" stroke-width="0.576" stroke-linecap="round" stroke-linejoin="round"/>
<path d="M142.458 88.2717C143.307 88.5324 144.049 89.0617 144.571 89.78C145.335 90.9209 144.537 91.2303 143.981 91.0079C143.425 90.7856 141.907 87.6964 142.458 88.2717Z" fill="white" stroke="#263238" stroke-width="0.576" stroke-linecap="round" stroke-linejoin="round"/>
<path d="M136.988 86.019C136.988 86.019 135.537 86.5508 135.378 87.4693C135.352 87.7561 135.385 88.0451 135.477 88.3181C135.568 88.5911 135.716 88.8421 135.91 89.055C135.91 89.055 137.36 90.2152 137.911 90.3361C138.462 90.4569 139.7 91.1627 139.845 90.4908C139.99 89.8188 138.52 89.2242 138.52 89.2242C138.52 89.2242 141.329 89.3934 141.421 89.959C141.513 90.5246 142.528 91.1096 143.427 91.1241C144.326 91.1386 143.238 89.3209 143.021 88.8664C142.803 88.412 138.786 86.0529 136.988 86.019Z" fill="white" stroke="#263238" stroke-width="0.576" stroke-linecap="round" stroke-linejoin="round"/>
<path d="M90.9491 57.526C90.9491 57.526 82.112 62.6648 81.4207 63.0032C80.7294 63.3416 80.043 68.6593 80.043 69.1621C80.043 69.6649 88.8801 89.6353 88.8801 89.6353C88.8801 89.6353 91.0555 91.4772 97.4223 91.4772C103.789 91.4772 104.282 90.5103 104.282 90.5103L104.79 82.0842C104.79 82.0842 106.965 76.3894 107.134 75.3838C107.304 74.3783 105.351 62.0364 105.351 62.0364L96.3104 56.008C96.3104 56.008 92.6266 53.8422 90.9491 57.526Z" fill="white"/>
<mask id="mask2_2626_48694" style="mask-type:luminance" maskUnits="userSpaceOnUse" x="80" y="55" width="28" height="37">
<path d="M90.9491 57.526C90.9491 57.526 82.112 62.6648 81.4207 63.0032C80.7294 63.3416 80.043 68.6593 80.043 69.1621C80.043 69.6649 88.8801 89.6353 88.8801 89.6353C88.8801 89.6353 91.0555 91.4772 97.4223 91.4772C103.789 91.4772 104.282 90.5103 104.282 90.5103L104.79 82.0842C104.79 82.0842 106.965 76.3894 107.134 75.3838C107.304 74.3783 105.351 62.0364 105.351 62.0364L96.3104 56.008C96.3104 56.008 92.6266 53.8422 90.9491 57.526Z" fill="white"/>
</mask>
<g mask="url(#mask2_2626_48694)">
<g style="mix-blend-mode:multiply" opacity="0.5">
<path d="M82.3199 66.658C83.0112 65.551 89.3732 61.4032 89.3732 61.4032L91.7226 60.0206L94.7344 55.4522C93.5258 55.2298 91.9112 55.4135 90.9491 57.5261C90.9491 57.5261 82.0927 62.6649 81.4207 62.9985C80.7488 63.3321 80.043 68.6546 80.043 69.1574C80.043 69.2686 80.4587 70.2934 81.1065 71.8356C81.3579 69.549 81.8365 67.4315 82.3199 66.658Z" fill="#0F913D"/>
</g>
</g>
<path d="M90.9491 57.526C90.9491 57.526 82.112 62.6648 81.4207 63.0032C80.7294 63.3416 80.043 68.6593 80.043 69.1621C80.043 69.6649 88.8801 89.6353 88.8801 89.6353C88.8801 89.6353 91.0555 91.4772 97.4223 91.4772C103.789 91.4772 104.282 90.5103 104.282 90.5103L104.79 82.0842C104.79 82.0842 106.965 76.3894 107.134 75.3838C107.304 74.3783 105.351 62.0364 105.351 62.0364L96.3104 56.008C96.3104 56.008 92.6266 53.8422 90.9491 57.526Z" stroke="#263238" stroke-width="0.576" stroke-linecap="round" stroke-linejoin="round"/>
<path d="M93.913 65.4974L96.4897 68.2772L95.9531 80.097L99.7238 81.0929L100.12 75.9299L101.508 81.2911L104.287 78.5114L98.2784 68.079L99.0712 64.9028L95.6969 61.1321L93.5166 66.2951" fill="#263238"/>
<path d="M93.913 65.4974L96.4897 68.2772L95.9531 80.097L99.7238 81.0929L100.12 75.9299L101.508 81.2911L104.287 78.5114L98.2784 68.079L99.0712 64.9028L95.6969 61.1321L93.5166 66.2951" stroke="#263238" stroke-width="0.576" stroke-linecap="round" stroke-linejoin="round"/>
<path d="M89.2236 57.5547C89.2236 57.5547 89.7747 61.2336 90.5096 62.8724C91.2444 64.5112 92.9025 67.2909 92.9025 67.2909L96.3977 63.7909L99.8978 66.208C99.8978 66.208 99.5304 60.1362 98.2396 57.3758C96.9488 54.6154 90.6933 51.8502 89.2236 57.5547Z" fill="white" stroke="#263238" stroke-width="0.576" stroke-linecap="round" stroke-linejoin="round"/>
<g style="mix-blend-mode:multiply" opacity="0.5">
<path d="M91.723 60.0206L95.2182 54.7029C94.5802 54.4235 93.8976 54.2598 93.2023 54.2195C92.6028 54.3403 91.926 54.4902 91.2105 54.6497C90.3355 55.1332 89.6104 56.042 89.2236 57.5503C89.2236 57.5503 89.4992 59.4067 89.9246 61.0745L91.723 60.0206Z" fill="#0F913D"/>
</g>
<path d="M97.8711 56.4476C97.3979 57.4899 97.1476 58.6194 97.1363 59.764C97.1363 61.601 97.5037 63.6314 97.5037 64.5499V67.3103C97.5037 67.3103 95.2944 64.5499 93.6363 62.5244C91.9781 60.4988 90.6922 58.6569 90.8759 57.0036C91.0596 55.3503 92.7178 48.9013 92.7178 48.9013C93.5937 48.8934 94.4543 49.1305 95.2026 49.5858C95.9509 50.0411 96.557 50.6965 96.9526 51.478C98.4222 54.2384 97.8711 56.4476 97.8711 56.4476Z" fill="white" stroke="#263238" stroke-width="0.576" stroke-linecap="round" stroke-linejoin="round"/>
<g style="mix-blend-mode:multiply" opacity="0.5">
<path d="M92.1379 53.2473L91.5868 53.5132C91.2484 54.9634 90.9487 56.3509 90.8762 57.0035C90.6973 58.5988 91.8914 60.3875 93.4625 62.3212L93.6607 58.5167L97.8714 56.4621L94.4874 53.1216L92.1379 53.2473Z" fill="#0F913D"/>
</g>
<path d="M101.449 54.4706C101.449 54.4706 100.231 56.7282 101.546 56.82C102.861 56.9119 102.575 55.7855 102.764 55.4133C102.952 55.041 103.798 55.8967 103.33 57.666C102.861 59.4354 100.511 60.673 99.0995 59.2613C97.6879 57.8497 98.0698 56.3608 98.5387 55.2247C99.0077 54.0887 100.898 53.5327 101.449 54.4706Z" fill="#263238" stroke="#263238" stroke-width="0.576" stroke-linecap="round" stroke-linejoin="round"/>
<path d="M98.8095 34.5147C98.3986 34.4567 97.9684 34.4132 97.5236 34.389C95.9041 34.3068 94.1396 34.4132 92.8779 35.4236C90.2577 37.5216 90.6976 41.7371 90.8861 44.6716C91.0988 48.0024 91.0553 52.8609 93.5547 55.2732C97.775 59.3436 104.374 54.9879 104.374 50.1633C104.374 48.1232 104.451 45.0148 104.587 44.3187C104.763 43.4587 104.884 42.5884 104.949 41.713C105.239 37.2703 102.72 35.0707 98.8095 34.5147Z" fill="white" stroke="#263238" stroke-width="0.576" stroke-linecap="round" stroke-linejoin="round"/>
<g style="mix-blend-mode:multiply" opacity="0.5">
<path d="M100.368 56.1434C99.187 56.1269 98.0083 56.0365 96.8388 55.8727C95.0453 55.5971 92.5556 52.6917 93.798 48.6841C95.0404 44.6765 95.0453 42.5977 95.0453 42.5977L90.8153 39.9534C90.7183 41.5257 90.7441 43.1033 90.8926 44.6716C91.1053 48.0025 91.0618 52.8609 93.5611 55.2732C95.6109 57.2553 98.2214 57.236 100.368 56.1434Z" fill="#0F913D"/>
</g>
<path d="M97.9698 47.3736C98.2341 47.3736 98.4484 47.0057 98.4484 46.5518C98.4484 46.0979 98.2341 45.73 97.9698 45.73C97.7055 45.73 97.4912 46.0979 97.4912 46.5518C97.4912 47.0057 97.7055 47.3736 97.9698 47.3736Z" fill="#263238"/>
<path d="M102.692 46.7552C102.663 47.2096 102.422 47.5625 102.161 47.5431C101.9 47.5238 101.706 47.1467 101.735 46.6923C101.764 46.2379 102.001 45.885 102.267 45.9043C102.533 45.9237 102.722 46.3007 102.692 46.7552Z" fill="#263238"/>
<path d="M96.4863 44.5846C96.4863 44.5846 97.4532 42.5446 99.005 43.5066L96.4863 44.5846Z" fill="white"/>
<path d="M96.4863 44.5846C96.4863 44.5846 97.4532 42.5446 99.005 43.5066" stroke="#263238" stroke-width="0.576" stroke-linecap="round" stroke-linejoin="round"/>
<path d="M101.522 43.8641C101.522 43.8641 102.668 42.5491 103.321 44.7052L101.522 43.8641Z" fill="white"/>
<path d="M101.522 43.8641C101.522 43.8641 102.668 42.5491 103.321 44.7052" stroke="#263238" stroke-width="0.576" stroke-linecap="round" stroke-linejoin="round"/>
<path d="M100.778 48.186C100.778 48.2682 100.778 48.3504 100.778 48.4229C100.899 49.2641 101.499 49.8732 101.262 50.2213C101.025 50.5693 99.8115 50.7047 99.8115 50.7047" fill="white"/>
<path d="M100.778 48.186C100.778 48.2682 100.778 48.3504 100.778 48.4229C100.899 49.2641 101.499 49.8732 101.262 50.2213C101.025 50.5693 99.8115 50.7047 99.8115 50.7047" stroke="#263238" stroke-width="0.576" stroke-linecap="round" stroke-linejoin="round"/>
<path d="M99.3615 52.6237C99.3615 52.6237 97.2489 53.2763 96.4609 51.5698L99.3615 52.6237Z" fill="white"/>
<path d="M99.3615 52.6237C99.3615 52.6237 97.2489 53.2763 96.4609 51.5698" stroke="#263238" stroke-width="0.576" stroke-linecap="round" stroke-linejoin="round"/>
<path d="M97.559 48.5632C98.9314 48.5632 100.044 47.4507 100.044 46.0783C100.044 44.706 98.9314 43.5935 97.559 43.5935C96.1867 43.5935 95.0742 44.706 95.0742 46.0783C95.0742 47.4507 96.1867 48.5632 97.559 48.5632Z" stroke="#263238" stroke-width="0.288" stroke-linecap="round" stroke-linejoin="round"/>
<path d="M103.181 48.5632C104.412 48.5632 105.409 47.4507 105.409 46.0783C105.409 44.706 104.412 43.5935 103.181 43.5935C101.95 43.5935 100.952 44.706 100.952 46.0783C100.952 47.4507 101.95 48.5632 103.181 48.5632Z" stroke="#263238" stroke-width="0.288" stroke-linecap="round" stroke-linejoin="round"/>
<path d="M95.0738 46.0781L91.5254 46.228" stroke="#263238" stroke-width="0.288" stroke-linecap="round" stroke-linejoin="round"/>
<path d="M105.408 46.0781H104.499" stroke="#263238" stroke-width="0.288" stroke-linecap="round" stroke-linejoin="round"/>
<path d="M100.039 45.3191H101.069" stroke="#263238" stroke-width="0.288" stroke-linecap="round" stroke-linejoin="round"/>
<path d="M103.195 31.5804C101.34 31.2565 99.4641 31.0626 97.582 31.0003C97.582 31.0003 94.2899 29.4485 89.8471 31.1937C83.49 33.6785 83.6302 42.1675 85.2062 47.5771C85.6897 49.2111 86.8257 51.6911 85.7815 53.3299C85.124 54.3644 83.2435 53.8133 83.5287 52.392C83.8139 50.9708 84.278 51.4542 84.6551 51.2656C85.0322 51.0771 84.4666 50.8886 83.6206 50.6082C82.7746 50.3278 82.0349 51.0916 81.9286 52.9528C81.6482 58.0288 89.1268 61.3887 91.9791 56.9508C93.1393 55.0171 92.1096 51.6572 91.6068 49.2159C91.4472 48.3708 91.339 47.5168 91.2829 46.6586C92.1854 46.5721 93.0224 46.1493 93.6276 45.4742C94.0756 44.86 94.458 44.2006 94.7685 43.5066C95.1069 43.5066 95.4598 43.5308 95.8465 43.5694C99.7139 43.9562 100.884 37.3719 100.884 37.3719C100.884 37.3719 102.818 41.0508 103.398 42.4092L103.978 43.7628C103.978 43.7628 105.53 43.9562 107.077 40.664C108.624 37.3719 106.874 32.175 103.195 31.5804Z" fill="#263238" stroke="#263238" stroke-width="0.576" stroke-linecap="round" stroke-linejoin="round"/>
<path d="M100.662 35.8247C100.662 35.8247 105.419 37.4587 105.564 40.2819C105.709 43.1052 104.969 43.2502 104.969 43.2502" stroke="white" stroke-width="0.288" stroke-miterlimit="10" stroke-linecap="round"/>
<path d="M100.073 34.7856C100.073 34.7856 104.526 33.7462 106.015 36.7193" stroke="white" stroke-width="0.288" stroke-miterlimit="10" stroke-linecap="round"/>
<path d="M94.5756 31.812C94.5756 31.812 99.028 34.0406 99.7725 36.1242C100.517 38.2078 96.6543 42.2106 94.126 42.9551C91.5977 43.6995 89.6736 42.8052 87.8898 44.1443C86.1059 45.4834 86.8504 49.1913 86.8504 49.1913" stroke="white" stroke-width="0.288" stroke-miterlimit="10" stroke-linecap="round"/>
<path d="M85.4962 45.0339C85.4962 45.0339 84.307 42.2107 86.8353 40.7265C89.3637 39.2424 91.5874 40.7265 94.4107 38.9427C97.2339 37.1588 97.6786 34.9351 97.6786 34.9351" stroke="white" stroke-width="0.288" stroke-miterlimit="10" stroke-linecap="round"/>
<path d="M92.0376 47.596C92.0376 47.596 90.4761 43.8011 88.9098 45.1402C87.3435 46.4793 90.0265 50.0518 91.8104 49.6071" fill="white"/>
<path d="M92.0376 47.596C92.0376 47.596 90.4761 43.8011 88.9098 45.1402C87.3435 46.4793 90.0265 50.0518 91.8104 49.6071" stroke="#263238" stroke-width="0.576" stroke-linecap="round" stroke-linejoin="round"/>
<g opacity="0.37">
<path d="M92.0376 47.596C92.0376 47.596 90.4761 43.8011 88.9098 45.1402C87.3435 46.4793 90.0265 50.0518 91.8104 49.6071" fill="#0F913D"/>
<path d="M92.0376 47.596C92.0376 47.596 90.4761 43.8011 88.9098 45.1402C87.3435 46.4793 90.0265 50.0518 91.8104 49.6071" stroke="#263238" stroke-width="0.576" stroke-linecap="round" stroke-linejoin="round"/>
</g>
<path d="M82.5007 63.3852C82.5007 63.3852 81.7417 62.8147 80.0545 64.0861C78.3673 65.3576 76.7962 71.1394 77.8501 73.5904C78.9039 76.0413 81.7175 88.7845 83.0276 89.4807C84.3377 90.1768 98.4248 90.1188 100.088 89.7272C101.751 89.3357 102.911 87.1602 102.631 85.2797C102.35 83.3991 100.494 82.9109 99.9476 82.8964C99.4013 82.8819 88.1809 82.2437 88.1809 82.2437L84.6954 67.5185" fill="white"/>
<mask id="mask3_2626_48694" style="mask-type:luminance" maskUnits="userSpaceOnUse" x="77" y="63" width="26" height="28">
<path d="M82.5007 63.3852C82.5007 63.3852 81.7417 62.8147 80.0545 64.0861C78.3673 65.3576 76.7962 71.1394 77.8501 73.5904C78.9039 76.0413 81.7175 88.7845 83.0276 89.4807C84.3377 90.1768 98.4248 90.1188 100.088 89.7272C101.751 89.3357 102.911 87.1602 102.631 85.2797C102.35 83.3991 100.494 82.9109 99.9476 82.8964C99.4013 82.8819 88.1809 82.2437 88.1809 82.2437L84.6954 67.5185" fill="white"/>
</mask>
<g mask="url(#mask3_2626_48694)">
<g style="mix-blend-mode:multiply" opacity="0.5">
<path d="M100.533 86.5704C99.7301 85.5794 86.9579 87.3052 85.5946 86.5704C84.2313 85.8356 83.5739 84.4385 84.5697 83.4958C85.5656 82.5531 82.665 82.3404 82.6892 81.5089C82.7134 80.6774 84.3764 80.4502 84.27 79.3383C84.1636 78.2264 80.5718 77.9944 80.6588 74.8134C80.7458 71.6324 81.5435 67.7843 82.2638 66.6966C82.6627 66.2379 83.1212 65.8347 83.627 65.4977L82.5007 63.3803C82.5007 63.3803 81.7417 62.8098 80.0545 64.0813C78.3673 65.3527 76.7962 71.1393 77.8501 73.5903C78.9039 76.0413 81.7175 88.7845 83.0276 89.4806C84.3377 90.1768 98.4248 90.1188 100.088 89.7272C100.625 89.5552 101.114 89.257 101.513 88.8575C101.911 88.458 102.208 87.9688 102.379 87.4309C101.485 87.1747 100.769 86.8605 100.533 86.5704Z" fill="#0F913D"/>
</g>
</g>
<path d="M82.5007 63.3852C82.5007 63.3852 81.7417 62.8147 80.0545 64.0861C78.3673 65.3576 76.7962 71.1394 77.8501 73.5904C78.9039 76.0413 81.7175 88.7845 83.0276 89.4807C84.3377 90.1768 98.4248 90.1188 100.088 89.7272C101.751 89.3357 102.911 87.1602 102.631 85.2797C102.35 83.3991 100.494 82.9109 99.9476 82.8964C99.4013 82.8819 88.1809 82.2438 88.1809 82.2438L84.6954 67.5185" stroke="#263238" stroke-width="0.576" stroke-linecap="round" stroke-linejoin="round"/>
<path d="M83.9102 84.9605C84.7417 82.5144 88.174 82.466 88.174 82.466C86.8051 82.1075 85.3737 82.0563 83.9827 82.3162" stroke="#263238" stroke-width="0.288" stroke-linecap="round" stroke-linejoin="round"/>
<path d="M102.021 83.5054C101.513 83.7228 101.079 84.0838 100.774 84.5441C100.468 85.0044 100.303 85.544 100.3 86.0965C100.242 88.0786 101.557 88.446 101.881 88.6732C102.204 88.9004 104.157 89.9495 104.945 89.3065C105.733 88.6636 106.662 86.9329 105.912 85.4826C105.163 84.0323 102.789 83.5247 102.021 83.5054Z" fill="white"/>
<mask id="mask4_2626_48694" style="mask-type:luminance" maskUnits="userSpaceOnUse" x="100" y="83" width="7" height="7">
<path d="M102.021 83.5054C101.513 83.7228 101.079 84.0838 100.774 84.5441C100.468 85.0044 100.303 85.544 100.3 86.0965C100.242 88.0786 101.557 88.446 101.881 88.6732C102.204 88.9004 104.157 89.9495 104.945 89.3065C105.733 88.6636 106.662 86.9329 105.912 85.4826C105.163 84.0323 102.789 83.5247 102.021 83.5054Z" fill="white"/>
</mask>
<g mask="url(#mask4_2626_48694)">
<g style="mix-blend-mode:multiply" opacity="0.5">
<path d="M104.946 89.3066C105.146 89.1362 105.325 88.9413 105.477 88.7265L103.834 87.8515C102.325 87.4357 100.89 87.0103 100.532 86.5704C100.47 86.5047 100.391 86.4564 100.305 86.4302C100.397 88.1222 101.571 88.4606 101.881 88.6733C102.19 88.886 104.158 89.9495 104.946 89.3066Z" fill="#0F913D"/>
</g>
</g>
<path d="M102.021 83.5054C101.513 83.7228 101.079 84.0838 100.774 84.5441C100.468 85.0044 100.303 85.544 100.3 86.0965C100.242 88.0786 101.557 88.446 101.881 88.6732C102.204 88.9004 104.157 89.9495 104.945 89.3065C105.733 88.6636 106.662 86.9329 105.912 85.4826C105.163 84.0323 102.789 83.5247 102.021 83.5054Z" stroke="#263238" stroke-width="0.576" stroke-linecap="round" stroke-linejoin="round"/>
<path d="M104.742 85.2793C104.742 85.2793 103.543 85.7386 103.378 86.6426C103.214 87.5466 103.272 88.0348 103.48 88.0929C103.688 88.1509 104.379 88.4651 104.379 88.4651L106.511 89.5722C106.511 89.5722 108.203 91.5059 108.759 91.6606C109.315 91.8153 108.836 91.4527 108.759 91.0321C108.517 90.4297 108.204 89.8584 107.826 89.3304L110.349 91.5639C110.349 91.5639 111.181 91.8636 110.988 91.2303C110.794 90.597 109.503 89.2966 109.503 89.2966L111.887 91.4575C111.887 91.4575 112.37 91.6799 112.37 91.3995C112.397 91.259 112.388 91.1139 112.342 90.9783C112.296 90.8427 112.216 90.7213 112.109 90.626C111.838 90.4085 110.214 88.5473 110.214 88.5473L112.476 89.9347C112.476 89.9347 112.96 90.5777 113.298 90.5874C113.637 90.597 113.443 90.3795 113.187 89.6205C112.931 88.8615 111.21 87.7496 110.596 87.3145C109.982 86.8795 106.627 85.3325 104.742 85.2793Z" fill="white" stroke="#263238" stroke-width="0.576" stroke-linecap="round" stroke-linejoin="round"/>
<path d="M212.904 84.6994H194.021L197.42 73.6772H216.303L212.904 84.6994Z" fill="#263238" stroke="#263238" stroke-width="0.576" stroke-linecap="round" stroke-linejoin="round"/>
<path d="M211.42 85.7385H192.542L195.941 74.7114H214.818L211.42 85.7385Z" fill="white" stroke="#263238" stroke-width="0.576" stroke-linecap="round" stroke-linejoin="round"/>
<path d="M184.29 81.3733H215.404C216.173 81.3733 216.911 81.6789 217.455 82.2228C217.999 82.7668 218.304 83.5046 218.304 84.2739V92.3858H184.29V81.3733Z" fill="#263238" stroke="#263238" stroke-width="0.576" stroke-linecap="round" stroke-linejoin="round"/>
<path d="M212.735 81.3733H178.706V92.4003H212.735V81.3733Z" fill="white" stroke="#263238" stroke-width="0.576" stroke-linecap="round" stroke-linejoin="round"/>
<path d="M205.078 89.4419H177.895V90.897H205.078V89.4419Z" fill="white" stroke="#263238" stroke-width="0.576" stroke-linecap="round" stroke-linejoin="round"/>
<path d="M205.077 87.9863H183.695V89.4415H205.077V87.9863Z" fill="#263238" stroke="#263238" stroke-width="0.576" stroke-linecap="round" stroke-linejoin="round"/>
<path d="M178.006 91.3271H156.557V92.3279H178.006V91.3271Z" fill="white" stroke="#263238" stroke-width="0.576" stroke-linecap="round" stroke-linejoin="round"/>
<path d="M194.501 55.9062H148.266V85.7242H194.501V55.9062Z" fill="white" stroke="#263238" stroke-width="0.576" stroke-linecap="round" stroke-linejoin="round"/>
<path d="M194.5 55.9062H150.788V85.7242H194.5V55.9062Z" fill="#263238" stroke="#263238" stroke-width="0.576" stroke-linecap="round" stroke-linejoin="round"/>
<path d="M178.503 69.7615H168.385V92.7824H178.503V69.7615Z" fill="white" stroke="#263238" stroke-width="0.576" stroke-linecap="round" stroke-linejoin="round"/>
<path d="M179.437 69.7615H169.318V92.7824H179.437V69.7615Z" fill="#263238" stroke="#263238" stroke-width="0.576" stroke-linecap="round" stroke-linejoin="round"/>
<path d="M168.647 70.032H179.674V85.7966" stroke="white" stroke-width="0.576" stroke-linejoin="round"/>
<path d="M147.946 90.7908H116.973V92.4102H147.946V90.7908Z" fill="white" stroke="#263238" stroke-width="0.576" stroke-linecap="round" stroke-linejoin="round"/>
<path d="M155.951 90.7908H124.978V92.4102H155.951V90.7908Z" fill="white" stroke="#263238" stroke-width="0.576" stroke-linecap="round" stroke-linejoin="round"/>
<path d="M115.779 95.0786H68.3203L66.0675 164.431C66.0551 164.623 66.081 164.816 66.1438 164.998C66.2066 165.18 66.305 165.348 66.4332 165.491C66.5615 165.635 66.717 165.751 66.8907 165.834C67.0645 165.917 67.253 165.964 67.4452 165.974C67.8008 165.963 68.1396 165.82 68.3947 165.572C68.6498 165.324 68.8026 164.99 68.823 164.634L73.3528 107.962C73.4102 106.951 73.8441 105.999 74.5688 105.292C75.2935 104.585 76.2567 104.175 77.2685 104.143H106.83C107.842 104.175 108.804 104.585 109.528 105.292C110.252 105.999 110.685 106.952 110.741 107.962L115.276 164.625C115.296 164.979 115.448 165.313 115.702 165.561C115.956 165.809 116.294 165.952 116.649 165.964C116.841 165.955 117.03 165.908 117.204 165.826C117.377 165.744 117.533 165.628 117.662 165.485C117.791 165.342 117.89 165.175 117.953 164.993C118.016 164.811 118.043 164.619 118.031 164.427L115.779 95.0786Z" fill="#0F913D" stroke="#263238" stroke-width="0.576" stroke-linecap="round" stroke-linejoin="round"/>
<path d="M115.886 98.2693L115.779 95.0786H100.257H83.8441H68.3212L68.2148 98.2693H115.886Z" fill="#263238" stroke="#263238" stroke-width="0.576" stroke-linecap="round" stroke-linejoin="round"/>
<path d="M223.853 95.0786H176.381L174.133 164.431C174.121 164.623 174.147 164.815 174.21 164.997C174.273 165.178 174.372 165.345 174.5 165.488C174.628 165.631 174.784 165.747 174.957 165.83C175.13 165.912 175.319 165.959 175.51 165.969C175.865 165.957 176.203 165.813 176.457 165.566C176.711 165.318 176.863 164.984 176.883 164.63L181.428 107.962C181.485 106.951 181.919 105.999 182.644 105.292C183.368 104.585 184.331 104.175 185.343 104.143H214.905C215.916 104.175 216.879 104.585 217.603 105.292C218.327 105.999 218.76 106.952 218.816 107.962L223.351 164.625C223.369 164.981 223.52 165.317 223.774 165.567C224.028 165.817 224.367 165.962 224.723 165.974C224.915 165.964 225.103 165.917 225.277 165.835C225.45 165.752 225.606 165.636 225.734 165.493C225.862 165.35 225.96 165.183 226.023 165.001C226.087 164.82 226.113 164.628 226.101 164.436L223.853 95.0786Z" fill="#0F913D" stroke="#263238" stroke-width="0.576" stroke-linecap="round" stroke-linejoin="round"/>
<path d="M224.169 98.2693L224.068 95.0786H208.545H192.127H176.604L176.503 98.2693H224.169Z" fill="#263238" stroke="#263238" stroke-width="0.576" stroke-linecap="round" stroke-linejoin="round"/>
<path d="M226.982 92.4001H64.4727V96.0549H226.982V92.4001Z" fill="white" stroke="#263238" stroke-width="0.576" stroke-linecap="round" stroke-linejoin="round"/>
<path d="M226.987 92.4001H110.51V96.0549H226.987V92.4001Z" fill="white" stroke="#263238" stroke-width="0.576" stroke-linecap="round" stroke-linejoin="round"/>
</svg>
