<svg width="40" height="32" viewBox="0 0 40 32" fill="none" xmlns="http://www.w3.org/2000/svg">
<rect width="40" height="32" fill="#E7E7E7"/>
<path d="M25 10H23.5V9.5C23.5 9.36739 23.4473 9.24021 23.3536 9.14645C23.2598 9.05268 23.1326 9 23 9C22.8674 9 22.7402 9.05268 22.6464 9.14645C22.5527 9.24021 22.5 9.36739 22.5 9.5V10H17.5V9.5C17.5 9.36739 17.4473 9.24021 17.3536 9.14645C17.2598 9.05268 17.1326 9 17 9C16.8674 9 16.7402 9.05268 16.6464 9.14645C16.5527 9.24021 16.5 9.36739 16.5 9.5V10H15C14.7348 10 14.4804 10.1054 14.2929 10.2929C14.1054 10.4804 14 10.7348 14 11V21C14 21.2652 14.1054 21.5196 14.2929 21.7071C14.4804 21.8946 14.7348 22 15 22H25C25.2652 22 25.5196 21.8946 25.7071 21.7071C25.8946 21.5196 26 21.2652 26 21V11C26 10.7348 25.8946 10.4804 25.7071 10.2929C25.5196 10.1054 25.2652 10 25 10ZM16.5 11V11.5C16.5 11.6326 16.5527 11.7598 16.6464 11.8536C16.7402 11.9473 16.8674 12 17 12C17.1326 12 17.2598 11.9473 17.3536 11.8536C17.4473 11.7598 17.5 11.6326 17.5 11.5V11H22.5V11.5C22.5 11.6326 22.5527 11.7598 22.6464 11.8536C22.7402 11.9473 22.8674 12 23 12C23.1326 12 23.2598 11.9473 23.3536 11.8536C23.4473 11.7598 23.5 11.6326 23.5 11.5V11H25V13H15V11H16.5ZM25 21H15V14H25V21ZM20.75 16.25C20.75 16.3983 20.706 16.5433 20.6236 16.6667C20.5412 16.79 20.4241 16.8861 20.287 16.9429C20.15 16.9997 19.9992 17.0145 19.8537 16.9856C19.7082 16.9567 19.5746 16.8852 19.4697 16.7803C19.3648 16.6754 19.2933 16.5418 19.2644 16.3963C19.2355 16.2508 19.2503 16.1 19.3071 15.963C19.3639 15.8259 19.46 15.7088 19.5833 15.6264C19.7067 15.544 19.8517 15.5 20 15.5C20.1989 15.5 20.3897 15.579 20.5303 15.7197C20.671 15.8603 20.75 16.0511 20.75 16.25ZM23.5 16.25C23.5 16.3983 23.456 16.5433 23.3736 16.6667C23.2912 16.79 23.1741 16.8861 23.037 16.9429C22.9 16.9997 22.7492 17.0145 22.6037 16.9856C22.4582 16.9567 22.3246 16.8852 22.2197 16.7803C22.1148 16.6754 22.0433 16.5418 22.0144 16.3963C21.9855 16.2508 22.0003 16.1 22.0571 15.963C22.1139 15.8259 22.21 15.7088 22.3333 15.6264C22.4567 15.544 22.6017 15.5 22.75 15.5C22.9489 15.5 23.1397 15.579 23.2803 15.7197C23.421 15.8603 23.5 16.0511 23.5 16.25ZM18 18.75C18 18.8983 17.956 19.0433 17.8736 19.1667C17.7912 19.29 17.6741 19.3861 17.537 19.4429C17.4 19.4997 17.2492 19.5145 17.1037 19.4856C16.9582 19.4567 16.8246 19.3852 16.7197 19.2803C16.6148 19.1754 16.5433 19.0418 16.5144 18.8963C16.4855 18.7508 16.5003 18.6 16.5571 18.463C16.6139 18.3259 16.71 18.2088 16.8333 18.1264C16.9567 18.044 17.1017 18 17.25 18C17.4489 18 17.6397 18.079 17.7803 18.2197C17.921 18.3603 18 18.5511 18 18.75ZM20.75 18.75C20.75 18.8983 20.706 19.0433 20.6236 19.1667C20.5412 19.29 20.4241 19.3861 20.287 19.4429C20.15 19.4997 19.9992 19.5145 19.8537 19.4856C19.7082 19.4567 19.5746 19.3852 19.4697 19.2803C19.3648 19.1754 19.2933 19.0418 19.2644 18.8963C19.2355 18.7508 19.2503 18.6 19.3071 18.463C19.3639 18.3259 19.46 18.2088 19.5833 18.1264C19.7067 18.044 19.8517 18 20 18C20.1989 18 20.3897 18.079 20.5303 18.2197C20.671 18.3603 20.75 18.5511 20.75 18.75ZM23.5 18.75C23.5 18.8983 23.456 19.0433 23.3736 19.1667C23.2912 19.29 23.1741 19.3861 23.037 19.4429C22.9 19.4997 22.7492 19.5145 22.6037 19.4856C22.4582 19.4567 22.3246 19.3852 22.2197 19.2803C22.1148 19.1754 22.0433 19.0418 22.0144 18.8963C21.9855 18.7508 22.0003 18.6 22.0571 18.463C22.1139 18.3259 22.21 18.2088 22.3333 18.1264C22.4567 18.044 22.6017 18 22.75 18C22.9489 18 23.1397 18.079 23.2803 18.2197C23.421 18.3603 23.5 18.5511 23.5 18.75Z" fill="black"/>
</svg>
