<svg width="24" height="24" viewBox="0 0 24 24" fill="none" xmlns="http://www.w3.org/2000/svg">
<path d="M8.5 0H2.125C1.56141 0 1.02091 0.223883 0.622398 0.622398C0.223883 1.02091 0 1.56141 0 2.125V8.5C0 9.06359 0.223883 9.60409 0.622398 10.0026C1.02091 10.4011 1.56141 10.625 2.125 10.625H8.5C9.06359 10.625 9.60409 10.4011 10.0026 10.0026C10.4011 9.60409 10.625 9.06359 10.625 8.5V2.125C10.625 1.56141 10.4011 1.02091 10.0026 0.622398C9.60409 0.223883 9.06359 0 8.5 0ZM8.5 8.5H2.125V2.125H8.5V8.5ZM21.25 0H14.875C14.3114 0 13.7709 0.223883 13.3724 0.622398C12.9739 1.02091 12.75 1.56141 12.75 2.125V8.5C12.75 9.06359 12.9739 9.60409 13.3724 10.0026C13.7709 10.4011 14.3114 10.625 14.875 10.625H21.25C21.8136 10.625 22.3541 10.4011 22.7526 10.0026C23.1511 9.60409 23.375 9.06359 23.375 8.5V2.125C23.375 1.56141 23.1511 1.02091 22.7526 0.622398C22.3541 0.223883 21.8136 0 21.25 0ZM21.25 8.5H14.875V2.125H21.25V8.5ZM8.5 12.75H2.125C1.56141 12.75 1.02091 12.9739 0.622398 13.3724C0.223883 13.7709 0 14.3114 0 14.875V21.25C0 21.8136 0.223883 22.3541 0.622398 22.7526C1.02091 23.1511 1.56141 23.375 2.125 23.375H8.5C9.06359 23.375 9.60409 23.1511 10.0026 22.7526C10.4011 22.3541 10.625 21.8136 10.625 21.25V14.875C10.625 14.3114 10.4011 13.7709 10.0026 13.3724C9.60409 12.9739 9.06359 12.75 8.5 12.75ZM8.5 21.25H2.125V14.875H8.5V21.25ZM21.25 12.75H14.875C14.3114 12.75 13.7709 12.9739 13.3724 13.3724C12.9739 13.7709 12.75 14.3114 12.75 14.875V21.25C12.75 21.8136 12.9739 22.3541 13.3724 22.7526C13.7709 23.1511 14.3114 23.375 14.875 23.375H21.25C21.8136 23.375 22.3541 23.1511 22.7526 22.7526C23.1511 22.3541 23.375 21.8136 23.375 21.25V14.875C23.375 14.3114 23.1511 13.7709 22.7526 13.3724C22.3541 12.9739 21.8136 12.75 21.25 12.75ZM21.25 21.25H14.875V14.875H21.25V21.25Z" fill="black"/>
</svg>
