<svg width="186" height="138" viewBox="0 0 186 138" fill="none" xmlns="http://www.w3.org/2000/svg">
<path d="M178.909 72.6728C177.288 58.6737 173.233 45.1568 168.39 35.4663C156.689 12.1811 124.095 -3.39417 99.5374 0.634463C78.5901 4.06684 68.5252 24.7907 49.6387 31.9821C32.2631 38.598 16.6184 43.7051 8.42786 61.1625C-8.92383 98.0371 33.492 138.349 69.8449 135.207C81.3203 134.212 91.5716 129.426 103.348 131.671C127.255 136.229 135.192 141.128 156.307 132.014C177.111 123.028 181.744 97.1609 178.909 72.6728Z" fill="#92E3A9"/>
<path opacity="0.8" d="M178.909 72.6728C177.288 58.6737 173.233 45.1568 168.39 35.4663C156.689 12.1811 124.095 -3.39417 99.5374 0.634463C78.5901 4.06684 68.5252 24.7907 49.6387 31.9821C32.2631 38.598 16.6184 43.7051 8.42786 61.1625C-8.92383 98.0371 33.492 138.349 69.8449 135.207C81.3203 134.212 91.5716 129.426 103.348 131.671C127.255 136.229 135.192 141.128 156.307 132.014C177.111 123.028 181.744 97.1609 178.909 72.6728Z" fill="white"/>
<path d="M95.2686 135.226L74.876 88.4487H124.292L185.231 129.628" fill="white"/>
<path d="M95.2686 135.226L74.876 88.4487H124.292L185.231 129.628" stroke="#263238" stroke-width="0.45" stroke-linecap="round" stroke-linejoin="round"/>
<path d="M90.2099 133.385L74.876 91.5689V88.4487L96.5692 137.406L90.2099 133.385Z" fill="#263238" stroke="#263238" stroke-width="0.45" stroke-linecap="round" stroke-linejoin="round"/>
<path d="M103.127 90.3833L124.146 115.624L98.6329 121.712L84.1357 93.4985L103.127 90.3833Z" fill="white" stroke="#263238" stroke-width="0.45" stroke-linecap="round" stroke-linejoin="round"/>
<path d="M98.6323 121.714V122.458L123.711 117.261L124.146 115.625L98.6323 121.714Z" fill="#263238" stroke="#263238" stroke-width="0.45" stroke-linecap="round" stroke-linejoin="round"/>
<path d="M102.334 99.4678L103.41 101.094L106.145 100.335L105.007 98.7478L102.334 99.4678Z" fill="#263238"/>
<path d="M112.685 109.418L111.385 107.615L108.277 108.472L109.491 110.314L112.685 109.418Z" fill="#263238"/>
<path d="M100.1 96.0773L100.899 97.292L103.471 96.621L102.663 95.4944L100.1 96.0773Z" fill="#263238"/>
<path d="M105.057 103.589L106.53 105.823L109.537 105.044L107.912 102.786L105.057 103.589Z" fill="#263238"/>
<path d="M112.848 104.634L110.271 105.305L111.561 107.097L114.186 106.372L112.848 104.634Z" fill="#263238"/>
<path d="M106.792 106.218L108.02 108.089L111.109 107.231L109.813 105.429L106.792 106.218Z" fill="#263238"/>
<path d="M97.1904 96.7352L97.9841 98.0479L100.451 97.4013L99.6433 96.1768L97.1904 96.7352Z" fill="#263238"/>
<path d="M103.667 101.482L104.804 103.202L107.635 102.398L106.425 100.718L103.667 101.482Z" fill="#263238"/>
<path d="M101.16 97.6789L102.078 99.0749L104.727 98.3597L103.751 97.0029L101.16 97.6789Z" fill="#263238"/>
<path d="M95.5932 100.827L94.7899 99.343L91.8589 100.107L92.6765 101.616L95.5932 100.827Z" fill="#263238"/>
<path d="M91.3799 104.417L93.3928 103.864L92.4605 102.14L90.481 102.674L91.3799 104.417Z" fill="#263238"/>
<path d="M96.3208 95.2958L96.9472 96.3342L99.3809 95.7807L98.7259 94.7913L96.3208 95.2958Z" fill="#263238"/>
<path d="M94.5703 98.9412L93.7957 97.511L90.8169 98.182L91.6393 99.7054L94.5703 98.9412Z" fill="#263238"/>
<path d="M93.4263 95.901L94.0192 96.9982L96.4959 96.4398L95.86 95.3916L93.4263 95.901Z" fill="#263238"/>
<path d="M89.2608 100.328L91.202 99.819L90.3701 98.2859L88.4336 98.7218L89.2608 100.328Z" fill="#263238"/>
<path d="M89.9727 96.6343L90.5942 97.7805L93.573 97.1094L92.9754 96.0024L89.9727 96.6343Z" fill="#263238"/>
<path d="M99.3301 100.28L100.334 101.94L102.964 101.216L101.888 99.5894L99.3301 100.28Z" fill="#263238"/>
<path d="M106.086 105.939L104.618 103.715L101.878 104.489L103.207 106.688L106.086 105.939Z" fill="#263238"/>
<path d="M94.2422 97.4022L95.0072 98.8226L97.5414 98.1614L96.7429 96.8389L94.2422 97.4022Z" fill="#263238"/>
<path d="M94.8146 106.481L92.749 107.064L93.8201 109.136L95.9478 108.582L94.8146 106.481Z" fill="#263238"/>
<path d="M100.575 102.341L101.636 104.094L104.357 103.33L103.224 101.606L100.575 102.341Z" fill="#263238"/>
<path d="M98.6558 100.008L97.7808 98.563L95.2275 99.2291L96.0308 100.718L98.6558 100.008Z" fill="#263238"/>
<path d="M103.45 115.358L100.528 116.123L101.571 118.047L104.502 117.308L103.45 115.358Z" fill="#263238"/>
<path d="M98.9269 94.3027L101.428 93.7786L100.084 91.9075L97.6216 92.3238L98.9269 94.3027Z" fill="#263238"/>
<path d="M92.7594 95.593L91.5497 93.3545L88.4849 93.8737L89.7567 96.2248L92.7594 95.593Z" fill="#263238"/>
<path d="M96.735 102.946L95.8122 101.237L92.8955 102.025L93.8279 103.749L96.735 102.946Z" fill="#263238"/>
<path d="M104.179 109.144L103.002 107.199L99.9614 107.993L101.052 110.011L104.179 109.144Z" fill="#263238"/>
<path d="M102.764 106.802L101.435 104.608L98.5708 105.416L99.7422 107.586L102.764 106.802Z" fill="#263238"/>
<path d="M107.574 108.208L106.34 106.332L103.443 107.086L104.619 109.026L107.574 108.208Z" fill="#263238"/>
<path d="M99.8966 102.06L98.8925 100.395L96.2437 101.115L97.1665 102.815L99.8966 102.06Z" fill="#263238"/>
<path d="M98.2217 98.4498L99.0919 99.885L101.631 99.1992L100.708 97.7983L98.2217 98.4498Z" fill="#263238"/>
<path d="M101.193 104.216L100.132 102.458L97.3774 103.217L98.3529 105.02L101.193 104.216Z" fill="#263238"/>
<path d="M109.053 110.442L107.833 108.6L104.859 109.423L105.993 111.299L109.053 110.442Z" fill="#263238"/>
<path d="M107.086 113.953L105.79 111.812L102.52 112.733L103.667 114.844L107.086 113.953Z" fill="#263238"/>
<path d="M97.2854 111.057L96.1666 108.985L94.0293 109.543L95.1195 111.66L97.2854 111.057Z" fill="#263238"/>
<path d="M93.6119 104.269L91.5894 104.828L92.5409 106.664L94.5921 106.087L93.6119 104.269Z" fill="#263238"/>
<path d="M103.227 114.96L102.089 112.849L99.1914 113.662L100.305 115.719L103.227 114.96Z" fill="#263238"/>
<path d="M97.9226 105.143L96.952 103.345L94.0449 104.149L95.0299 105.966L97.9226 105.143Z" fill="#263238"/>
<path d="M99.189 94.6994L99.8392 95.6839L102.383 95.106L101.709 94.1704L99.189 94.6994Z" fill="#263238"/>
<path d="M88.2242 98.3126L90.1511 97.8767L89.5295 96.7207L87.6074 97.1224L88.2242 98.3126Z" fill="#263238"/>
<path d="M96.0713 94.8982L98.462 94.3986L97.1471 92.405L94.8042 92.8018L96.0713 94.8982Z" fill="#263238"/>
<path d="M93.2074 95.4926L95.622 94.9881L94.3405 92.8721L92.0024 93.2688L93.2074 95.4926Z" fill="#263238"/>
<path d="M92.2483 101.744L91.4259 100.226L89.4751 100.735L90.2736 102.273L92.2483 101.744Z" fill="#263238"/>
<path d="M101.896 93.6749L104.057 93.2194L102.699 91.4609L100.562 91.8185L101.896 93.6749Z" fill="#263238"/>
<path d="M89.3067 96.3153L88.0253 93.9446L86.1318 94.2678L87.3989 96.7121L89.3067 96.3153Z" fill="#263238"/>
<path d="M100.093 116.241L97.7983 116.839L98.7929 118.759L101.136 118.166L100.093 116.241Z" fill="#263238"/>
<path d="M110.999 113.388L107.767 114.23L108.948 116.185L112.285 115.337L110.999 113.388Z" fill="#263238"/>
<path d="M107.327 114.353L103.884 115.249L104.941 117.203L108.503 116.302L107.327 114.353Z" fill="#263238"/>
<path d="M114.824 112.387L111.448 113.269L112.734 115.223L116.23 114.337L114.824 112.387Z" fill="#263238"/>
<path d="M118.145 111.525L115.276 112.275L116.687 114.229L119.651 113.475L118.145 111.525Z" fill="#263238"/>
<path d="M98.7644 113.783L96.541 114.405L97.5881 116.433L99.8737 115.835L98.7644 113.783Z" fill="#263238"/>
<path d="M105.552 111.426L104.419 109.55L101.272 110.421L102.305 112.337L105.552 111.426Z" fill="#263238"/>
<path d="M110.744 112.997L109.309 110.827L106.235 111.689L107.531 113.835L110.744 112.997Z" fill="#263238"/>
<path d="M101.877 112.45L100.839 110.535L97.937 111.343L98.9794 113.263L101.877 112.45Z" fill="#263238"/>
<path d="M96.3342 114.006L98.548 113.383L97.5056 111.458L95.3301 112.061L96.3342 114.006Z" fill="#263238"/>
<path d="M99.3073 107.712L98.1407 105.547L95.2432 106.365L96.3811 108.471L99.3073 107.712Z" fill="#263238"/>
<path d="M114.545 112.005L112.963 109.806L109.75 110.707L111.189 112.882L114.545 112.005Z" fill="#263238"/>
<path d="M100.624 110.131L99.5292 108.108L96.603 108.872L97.7219 110.939L100.624 110.131Z" fill="#263238"/>
<path d="M108.359 102.651L109.989 104.914L112.547 104.248L110.788 101.965L108.359 102.651Z" fill="#263238"/>
<path d="M105.181 98.2402L107.447 97.6279L106.429 96.3103L104.21 96.8883L105.181 98.2402Z" fill="#263238"/>
<path d="M103.133 95.3988L103.927 96.5058L106.136 95.9327L105.337 94.8992L103.133 95.3988Z" fill="#263238"/>
<path d="M117.851 111.137L116.139 108.908L113.414 109.672L115.001 111.881L117.851 111.137Z" fill="#263238"/>
<path d="M105.457 98.626L106.6 100.208L108.933 99.5615L107.738 98.0088L105.457 98.626Z" fill="#263238"/>
<path d="M111.838 107.488L113.139 109.295L115.85 108.536L114.478 106.758L111.838 107.488Z" fill="#263238"/>
<path d="M102.845 95.0024L105.04 94.5077L104.356 93.6162L102.181 94.0717L102.845 95.0024Z" fill="#263238"/>
<path d="M108.081 102.275L110.495 101.589L109.228 99.9434L106.876 100.595L108.081 102.275Z" fill="#263238"/>
<path d="M127.48 93.2107V97.2174C127.083 97.6108 126.645 97.959 126.175 98.2558C125.453 98.7016 119.51 99.7253 119.51 99.7253L127.045 108.194C127.045 108.194 133.954 107.42 135.891 106.857C137.918 106.259 137.483 98.6869 137.483 98.6869L127.48 93.2107Z" fill="white" stroke="#263238" stroke-width="0.45" stroke-linecap="round" stroke-linejoin="round"/>
<path d="M127.479 93.2107V97.2174C127.479 97.2174 127.374 97.3252 127.202 97.4819L136.014 106.818C137.898 105.951 137.482 98.7016 137.482 98.7016L127.479 93.2107Z" fill="#263238" stroke="#263238" stroke-width="0.45" stroke-linecap="round" stroke-linejoin="round"/>
<path d="M114.147 41.9727V84.4448L145.748 109.984V44.3483L114.147 41.9727Z" fill="white" stroke="#263238" stroke-width="0.45" stroke-linecap="round" stroke-linejoin="round"/>
<path d="M116.321 44.1997V79.9859L142.848 96.767V46.5753L116.321 44.1997Z" fill="#92E3A9" stroke="#263238" stroke-width="0.45" stroke-linecap="round" stroke-linejoin="round"/>
<path d="M148.934 44.3484H145.745V109.999H148.934V44.3484Z" fill="#263238" stroke="#263238" stroke-width="0.45" stroke-linecap="round" stroke-linejoin="round"/>
<path d="M118.06 46.4319L118.204 78.3583L140.38 91.2748V51.7415L125.16 49.3806L124.147 47.1715L118.06 46.4319Z" fill="white" stroke="#263238" stroke-width="0.45" stroke-linecap="round" stroke-linejoin="round"/>
<path d="M119.51 50.2908V77.4659L139.08 88.1586V53.8567L119.51 50.2908Z" fill="#92E3A9" stroke="#263238" stroke-width="0.45" stroke-linecap="round" stroke-linejoin="round"/>
<path d="M130.955 76.8143C133.716 75.8646 134.919 71.9347 133.642 68.0367C132.364 64.1386 129.09 61.7486 126.329 62.6983C123.567 63.648 122.365 67.578 123.642 71.476C124.92 75.374 128.194 77.7641 130.955 76.8143Z" fill="#263238"/>
<path d="M129.22 70.2021L131.08 68.091C131.206 67.9028 131.27 67.6789 131.264 67.4511C131.258 67.2233 131.182 67.0033 131.047 66.8224C130.77 66.4158 130.334 66.3325 130.091 66.6215L128.302 68.6543L126.509 65.7154C126.251 65.2892 125.816 65.157 125.553 65.4215C125.415 65.5969 125.336 65.8139 125.329 66.0394C125.322 66.2649 125.387 66.4866 125.515 66.6705L127.375 69.7319L125.481 71.8332C125.356 72.0216 125.292 72.2459 125.299 72.4739C125.306 72.7019 125.383 72.9217 125.52 73.1018C125.629 73.279 125.8 73.4069 125.998 73.4594C126.084 73.4813 126.174 73.4782 126.259 73.4505C126.343 73.4228 126.418 73.3716 126.476 73.3027L128.269 71.2699L130.057 74.2088C130.167 74.4086 130.349 74.5563 130.564 74.6203C130.647 74.6469 130.735 74.65 130.819 74.6293C130.903 74.6086 130.98 74.5648 131.042 74.5027C131.179 74.3265 131.257 74.1093 131.263 73.8839C131.269 73.6586 131.203 73.4374 131.076 73.2537L129.22 70.2021Z" fill="white"/>
<path d="M122.986 59.502L133.945 62.7984" stroke="#263238" stroke-width="0.45" stroke-linecap="round" stroke-linejoin="round"/>
<path d="M122.548 56.3767L136.753 60.4373" stroke="#263238" stroke-width="0.45" stroke-linecap="round" stroke-linejoin="round"/>
<path d="M132.343 126.354C132.343 126.354 125.415 127.01 122.852 129.112C120.289 131.213 122.211 132.266 124.645 132.922C127.079 133.579 137.985 132.526 139.395 131.081C140.806 129.636 139.395 126.089 132.343 126.354Z" fill="white" stroke="#263238" stroke-width="0.45" stroke-linecap="round" stroke-linejoin="round"/>
<path d="M139.395 131.101C139.667 130.822 139.836 130.455 139.873 130.062C136.77 129.906 132.701 130.826 129.005 132.022C127.757 132.428 126.49 132.77 125.208 133.045C128.431 133.442 138.075 132.433 139.395 131.101Z" fill="#263238" stroke="#263238" stroke-width="0.45" stroke-linecap="round" stroke-linejoin="round"/>
<path d="M107.779 48.4023L112.843 51.1012" stroke="#263238" stroke-width="0.6" stroke-linecap="round" stroke-linejoin="round"/>
<path d="M104.872 46.8477L106.378 47.651" stroke="#263238" stroke-width="0.6" stroke-linecap="round" stroke-linejoin="round"/>
<path d="M108.893 61.9958L110.609 62.1967" stroke="#263238" stroke-width="0.6" stroke-linecap="round" stroke-linejoin="round"/>
<path d="M102.324 61.2158L106.953 61.7644" stroke="#263238" stroke-width="0.6" stroke-linecap="round" stroke-linejoin="round"/>
<path d="M109.976 74.6091L104.238 76.2402" stroke="#263238" stroke-width="0.6" stroke-linecap="round" stroke-linejoin="round"/>
<path d="M102.569 2.77246C99.8547 2.77246 97.2016 3.59694 94.9449 5.14163C92.6883 6.68632 90.9294 8.88184 89.8908 11.4506C88.8521 14.0193 88.5804 16.8458 89.1099 19.5728C89.6394 22.2997 90.9463 24.8046 92.8655 26.7706C94.7846 28.7366 97.2297 30.0755 99.8917 30.6179C102.554 31.1604 105.313 30.882 107.82 29.818C110.328 28.754 112.471 26.9521 113.979 24.6403C115.487 22.3286 116.291 19.6106 116.291 16.8303C116.291 13.1019 114.846 9.52624 112.272 6.88989C109.699 4.25355 106.208 2.77246 102.569 2.77246ZM102.569 28.1255C100.388 28.1245 98.257 27.4612 96.4444 26.2195C94.6319 24.9778 93.2194 23.2134 92.3856 21.1494C91.5518 19.0853 91.3342 16.8144 91.7601 14.6237C92.1861 12.4329 93.2366 10.4208 94.7788 8.8416C96.321 7.26242 98.2856 6.18715 100.424 5.75171C102.563 5.31628 104.78 5.54025 106.794 6.3953C108.809 7.25036 110.53 8.69809 111.742 10.5555C112.953 12.4129 113.599 14.5965 113.599 16.8303C113.602 18.3154 113.318 19.7864 112.765 21.1592C112.212 22.5319 111.4 23.7792 110.375 24.8299C109.35 25.8805 108.133 26.7136 106.794 27.2817C105.454 27.8497 104.019 28.1415 102.569 28.1402V28.1255Z" fill="#263238"/>
<path d="M103.55 16.8478C103.555 17.0474 103.502 17.2439 103.397 17.4122C103.292 17.5805 103.141 17.713 102.962 17.7928C102.784 17.8725 102.586 17.896 102.394 17.86C102.202 17.8241 102.026 17.7304 101.886 17.591C101.747 17.4516 101.651 17.2728 101.611 17.0774C101.571 16.882 101.589 16.6788 101.663 16.4939C101.736 16.309 101.862 16.1507 102.023 16.0392C102.185 15.9278 102.375 15.8682 102.57 15.8682C102.826 15.8681 103.072 15.9705 103.255 16.1536C103.438 16.3366 103.544 16.5858 103.55 16.8478Z" fill="#263238"/>
<path d="M99.2837 21.9472L102.569 16.8481L108.12 21.5553" stroke="#263238" stroke-width="0.6" stroke-linecap="round" stroke-linejoin="round"/>
<path d="M29.7492 27.616L28.0996 22.997L28.9794 24.0109V22.4337L30.8489 25.3628L29.1993 14.8856L31.3988 20.6312L31.6187 15.5616L31.9486 17.2514L32.3885 11.5059L33.1583 20.2932L34.258 17.2514L34.0381 21.1945L37.0074 12.1818L35.5777 23.4476L37.6672 21.8704L36.4575 23.8983L37.9971 22.7717L36.2423 27.954L29.8592 28.0666" fill="#92E3A9"/>
<path d="M36.8021 38.999H29.9265L28.0713 26.7927H38.6525L36.8021 38.999Z" fill="#263238" stroke="#263238" stroke-width="0.6" stroke-linecap="round" stroke-linejoin="round"/>
<path d="M55.6286 38.9082H20.9204V133.497H55.6286V38.9082Z" fill="white" stroke="#263238" stroke-width="0.6" stroke-linecap="round" stroke-linejoin="round"/>
<path d="M53.2654 42.0178H22.937V64.7993H53.2654V42.0178Z" stroke="#263238" stroke-width="0.6" stroke-linecap="round" stroke-linejoin="round"/>
<path d="M44.168 51.3418H32.0376V55.4857H44.168V51.3418Z" fill="#263238"/>
<path d="M53.2654 68.5991H22.937V91.3806H53.2654V68.5991Z" stroke="#263238" stroke-width="0.6" stroke-linecap="round" stroke-linejoin="round"/>
<path d="M44.168 77.918H32.0376V82.0618H44.168V77.918Z" fill="#263238"/>
<path d="M53.2654 95.1753H22.937V117.957H53.2654V95.1753Z" stroke="#263238" stroke-width="0.6" stroke-linecap="round" stroke-linejoin="round"/>
<path d="M44.168 104.499H32.0376V108.643H44.168V104.499Z" fill="#263238"/>
<mask id="mask0_2768_48239" style="mask-type:luminance" maskUnits="userSpaceOnUse" x="0" y="22" width="110" height="113">
<path d="M109.972 22.3708H0V134.049H109.972V22.3708Z" fill="white"/>
</mask>
<g mask="url(#mask0_2768_48239)">
<path d="M59.3475 128.116C59.3475 128.116 76.7422 120.245 86.0946 119.652L92.9177 135.096H41.3838L59.3475 128.116Z" fill="#263238" stroke="#263238" stroke-width="0.45" stroke-linecap="round" stroke-linejoin="round"/>
<path d="M80.5172 35.0537C80.5172 35.0537 92.7623 49.954 95.3395 52.6872C97.9167 55.4204 98.0123 57.4041 97.1803 58.6287C96.3484 59.8532 90.0943 62.1211 83.649 66.3629C77.2037 70.6047 58.8813 81.5473 58.6997 81.9294C58.518 82.3114 56.7632 68.7043 56.7632 68.7043L87.4215 55.7828L87.3307 54.8375L77.3854 35.9746L80.5172 35.0537Z" fill="white"/>
<mask id="mask1_2768_48239" style="mask-type:luminance" maskUnits="userSpaceOnUse" x="56" y="35" width="42" height="47">
<path d="M80.5172 35.0527C80.5172 35.0527 92.7623 49.953 95.3395 52.6862C97.9167 55.4194 98.0123 57.4032 97.1803 58.6277C96.3484 59.8523 90.0943 62.1201 83.649 66.3619C77.2037 70.6038 58.8813 81.5463 58.6997 81.9284C58.518 82.3104 56.7632 68.7033 56.7632 68.7033L87.4215 55.7819L87.3307 54.8365L77.3854 35.9736L80.5172 35.0527Z" fill="white"/>
</mask>
<g mask="url(#mask1_2768_48239)">
<path d="M92.3053 57.0506L78.095 35.7925L77.4112 35.9982L87.3565 54.8611L87.4474 55.8065L56.7891 68.7279C56.7891 68.7279 56.8225 68.963 56.8703 69.3598L58.869 74.0571L92.3053 57.0506Z" fill="#92E3A9"/>
<path opacity="0.5" d="M92.3053 57.0506L78.095 35.7925L77.4112 35.9982L87.3565 54.8611L87.4474 55.8065L56.7891 68.7279C56.7891 68.7279 56.8225 68.963 56.8703 69.3598L58.869 74.0571L92.3053 57.0506Z" fill="white"/>
</g>
<path d="M80.5172 35.0537C80.5172 35.0537 92.7623 49.954 95.3395 52.6872C97.9167 55.4204 98.0123 57.4041 97.1803 58.6287C96.3484 59.8532 90.0943 62.1211 83.649 66.3629C77.2037 70.6047 58.8813 81.5473 58.6997 81.9294C58.518 82.3114 56.7632 68.7043 56.7632 68.7043L87.4215 55.7828L87.3307 54.8375L77.3854 35.9746L80.5172 35.0537Z" stroke="#263238" stroke-width="0.45" stroke-linecap="round" stroke-linejoin="round"/>
<path d="M70.7618 28.5394C70.7618 28.5394 69.2891 27.2169 68.5528 28.5394C67.8164 29.862 67.7256 32.0269 68.1846 32.218C68.6436 32.409 70.4844 32.1249 70.7618 31.5567C71.0391 30.9885 70.7618 28.5394 70.7618 28.5394Z" fill="white" stroke="#263238" stroke-width="0.45" stroke-linecap="round" stroke-linejoin="round"/>
<path d="M73.3391 27.8789C73.3391 27.8789 71.7756 26.1842 70.7619 26.8405C69.7483 27.4969 70.0256 31.0873 70.3937 31.3714C70.7619 31.6555 72.9709 30.8815 73.2626 30.426C73.5543 29.9705 73.3391 27.8789 73.3391 27.8789Z" fill="white" stroke="#263238" stroke-width="0.45" stroke-linecap="round" stroke-linejoin="round"/>
<path d="M76.8356 27.9712C76.8356 27.9712 75.4538 26.012 74.1676 26.012C72.8814 26.012 71.9538 30.7289 72.4176 31.1061C72.8814 31.4832 75.9128 31.013 76.0993 30.7289C76.3945 29.8244 76.6404 28.9038 76.8356 27.9712Z" fill="white" stroke="#263238" stroke-width="0.45" stroke-linecap="round" stroke-linejoin="round"/>
<path d="M79.5268 31.1905C79.5268 30.6272 79.2543 25.7192 77.6142 26.0033C75.9742 26.2874 74.2099 30.25 74.3007 30.9015C74.3916 31.553 79.5268 31.1905 79.5268 31.1905Z" fill="white" stroke="#263238" stroke-width="0.45" stroke-linecap="round" stroke-linejoin="round"/>
<path d="M87.4238 55.8057C87.4238 55.8057 92.1192 57.5984 93.8692 57.5004L87.4238 55.8057Z" fill="white"/>
<path d="M87.4238 55.8057C87.4238 55.8057 92.1192 57.5984 93.8692 57.5004" stroke="#263238" stroke-width="0.45" stroke-linecap="round" stroke-linejoin="round"/>
<path d="M48.8156 135.221C53.8169 134.359 60.224 130.837 62.1318 126.404C60.6974 118.719 58.8852 107.894 58.8852 101.272C58.8852 90.143 61.7541 83.8243 60.4487 76.2909C59.1434 68.7575 56.3989 63.8446 53.4536 61.8608C53.4536 61.8608 48.9447 63.0854 44.3402 67.5182C39.7357 71.9511 35.6859 79.5727 34.108 86.8367C32.5302 94.1007 30.4263 116.451 30.4263 122.3C30.4263 128.148 30.0151 135.407 30.0151 135.407C35.5281 135.407 41.041 135.407 46.554 135.407C47.3118 135.415 48.0687 135.352 48.8156 135.221Z" fill="white"/>
<mask id="mask2_2768_48239" style="mask-type:luminance" maskUnits="userSpaceOnUse" x="30" y="61" width="33" height="75">
<path d="M48.8156 135.224C53.8169 134.362 60.224 130.841 62.1318 126.408C60.6974 118.722 58.8852 107.897 58.8852 101.275C58.8852 90.1464 61.7541 83.8277 60.4487 76.2943C59.1434 68.7609 56.3989 63.848 53.4536 61.8643C53.4536 61.8643 48.9447 63.0888 44.3402 67.5217C39.7357 71.9545 35.6859 79.5761 34.108 86.8401C32.5302 94.1041 30.4263 116.455 30.4263 122.303C30.4263 128.151 30.0151 135.411 30.0151 135.411C35.5281 135.411 41.041 135.411 46.554 135.411C47.3118 135.418 48.0687 135.356 48.8156 135.224Z" fill="white"/>
</mask>
<g mask="url(#mask2_2768_48239)">
<path d="M62.1323 126.4C59.3304 128.849 46.7123 133.605 44.8714 134.026C43.0306 134.447 44.0538 130.46 46.9179 126.478C49.7819 122.496 43.437 127.947 42.4138 128.364C41.3906 128.78 42.825 120.605 42.825 116.608C42.825 112.611 46.5114 78.657 46.5114 78.657L53.4684 65.6524L55.8591 64.1829C55.1913 63.2735 54.3839 62.4812 53.4684 61.8367C53.4684 61.8367 48.9595 63.0612 44.355 67.4941C39.7505 71.9269 35.6864 79.573 34.1085 86.837C32.5306 94.101 30.4268 116.451 30.4268 122.3C30.4268 128.148 30.0156 135.407 30.0156 135.407C35.5286 135.407 41.0415 135.407 46.5545 135.407C47.3096 135.408 48.0633 135.339 48.8065 135.202C53.8174 134.359 60.2245 130.837 62.1323 126.4Z" fill="#92E3A9"/>
<path opacity="0.5" d="M62.1323 126.4C59.3304 128.849 46.7123 133.605 44.8714 134.026C43.0306 134.447 44.0538 130.46 46.9179 126.478C49.7819 122.496 43.437 127.947 42.4138 128.364C41.3906 128.78 42.825 120.605 42.825 116.608C42.825 112.611 46.5114 78.657 46.5114 78.657L53.4684 65.6524L55.8591 64.1829C55.1913 63.2735 54.3839 62.4812 53.4684 61.8367C53.4684 61.8367 48.9595 63.0612 44.355 67.4941C39.7505 71.9269 35.6864 79.573 34.1085 86.837C32.5306 94.101 30.4268 116.451 30.4268 122.3C30.4268 128.148 30.0156 135.407 30.0156 135.407C35.5286 135.407 41.0415 135.407 46.5545 135.407C47.3096 135.408 48.0633 135.339 48.8065 135.202C53.8174 134.359 60.2245 130.837 62.1323 126.4Z" fill="white"/>
</g>
<path d="M48.8156 135.221C53.8169 134.359 60.224 130.837 62.1318 126.404C60.6974 118.719 58.8852 107.894 58.8852 101.272C58.8852 90.143 61.7541 83.8243 60.4487 76.2909C59.1434 68.7575 56.3989 63.8446 53.4535 61.8608C53.4535 61.8608 48.9447 63.0854 44.3402 67.5182C39.7357 71.9511 35.6859 79.5727 34.108 86.8367C32.5302 94.1007 30.4263 116.451 30.4263 122.3C30.4263 128.148 30.0151 135.407 30.0151 135.407C35.5281 135.407 41.041 135.407 46.554 135.407C47.3118 135.415 48.0687 135.352 48.8156 135.221Z" stroke="#263238" stroke-width="0.45" stroke-linecap="round" stroke-linejoin="round"/>
<path d="M53.1865 63.5901L61.095 78.3434L61.5205 86.4352C61.5205 86.4352 63.7247 80.6652 62.7445 76.8985C61.7644 73.1317 53.1865 63.5901 53.1865 63.5901Z" fill="#263238" stroke="#263238" stroke-width="0.45" stroke-linecap="round" stroke-linejoin="round"/>
<path d="M61.5153 86.4441L59.311 120.589L61.7639 127.618L63.4804 113.556L62.0077 85.4351L61.5153 86.4441Z" fill="#263238" stroke="#263238" stroke-width="0.45" stroke-linecap="round" stroke-linejoin="round"/>
<path d="M59.3431 49.7658C59.3431 49.7658 59.6205 53.4444 59.8978 55.2371C60.1751 57.0299 55.8479 62.0456 55.8479 62.0456L62.1068 71.7587L69.1976 66.1013C69.1976 66.1013 79.2385 65.347 80.1518 64.4947C81.065 63.6424 81.0746 54.3114 81.0746 54.3114L83.4653 52.8958C83.4653 52.8958 81.2563 43.0994 80.7064 40.9148L80.1518 38.7498C80.1518 38.7498 83.3744 37.6134 82.6381 34.3415C81.9018 31.0695 77.2064 29.4433 72.5111 30.1878C67.8158 30.9323 66.6204 32.7349 66.6204 32.7349C66.6204 32.7349 59.9886 32.6418 56.2161 35.8501C52.4436 39.0584 54.7434 44.1476 55.9388 45.9404C56.956 47.3204 58.0956 48.601 59.3431 49.7658Z" fill="white"/>
<mask id="mask3_2768_48239" style="mask-type:luminance" maskUnits="userSpaceOnUse" x="54" y="30" width="30" height="42">
<path d="M59.3422 49.7624C59.3422 49.7624 59.6195 53.441 59.8968 55.2337C60.1741 57.0264 55.847 62.0422 55.847 62.0422L62.1058 71.7553L69.1966 66.0979C69.1966 66.0979 79.2375 65.3436 80.1508 64.4913C81.064 63.639 81.0736 54.3079 81.0736 54.3079L83.4643 52.8924C83.4643 52.8924 81.2553 43.096 80.7054 40.9114L80.1508 38.7464C80.1508 38.7464 83.3735 37.61 82.6371 34.338C81.9008 31.0661 77.2055 29.4399 72.5101 30.1844C67.8148 30.9289 66.6194 32.7314 66.6194 32.7314C66.6194 32.7314 59.9876 32.6384 56.2151 35.8467C52.4426 39.055 54.7424 44.1442 55.9378 45.9369C56.955 47.3169 58.0946 48.5976 59.3422 49.7624Z" fill="white"/>
</mask>
<g mask="url(#mask3_2768_48239)">
<path d="M70.4438 62.9433C68.6029 60.6362 70.4438 51.8293 71.8782 47.4258C73.3126 43.0223 69.8317 41.1365 69.8317 41.1365L80.2839 39.2899L80.1404 38.7364C80.8473 38.4534 81.476 37.9977 81.9717 37.409L82.5359 34.0048C81.5796 30.9091 77.0517 29.4201 72.495 30.1499C67.7996 30.9042 66.6043 32.697 66.6043 32.697C66.6043 32.697 59.9725 32.6039 56.2 35.8122C52.4275 39.0205 54.7273 44.1097 55.9227 45.9025C56.938 47.2961 58.0777 48.5899 59.327 49.7671C59.327 49.7671 59.6043 53.4457 59.8817 55.2384C60.159 57.0311 55.8462 62.0469 55.8462 62.0469L62.105 71.76L69.1958 66.1026C69.1958 66.1026 76.8461 65.5246 79.4089 64.8144L80.15 64.496C80.15 64.496 72.2942 65.2503 70.4438 62.9433Z" fill="#92E3A9"/>
<path opacity="0.5" d="M70.4438 62.9433C68.6029 60.6362 70.4438 51.8293 71.8782 47.4258C73.3126 43.0223 69.8317 41.1365 69.8317 41.1365L80.2839 39.2899L80.1404 38.7364C80.8473 38.4534 81.476 37.9977 81.9717 37.409L82.5359 34.0048C81.5796 30.9091 77.0517 29.4201 72.495 30.1499C67.7996 30.9042 66.6043 32.697 66.6043 32.697C66.6043 32.697 59.9725 32.6039 56.2 35.8122C52.4275 39.0205 54.7273 44.1097 55.9227 45.9025C56.938 47.2961 58.0777 48.5899 59.327 49.7671C59.327 49.7671 59.6043 53.4457 59.8817 55.2384C60.159 57.0311 55.8462 62.0469 55.8462 62.0469L62.105 71.76L69.1958 66.1026C69.1958 66.1026 76.8461 65.5246 79.4089 64.8144L80.15 64.496C80.15 64.496 72.2942 65.2503 70.4438 62.9433Z" fill="white"/>
<path d="M75.8208 45.4314C75.8208 45.4314 75.8208 45.2844 75.8208 45.0542C75.8208 44.3244 75.9403 42.7472 77.1309 42.3161C78.6944 41.7528 79.9997 43.2615 79.9997 43.2615L80.0906 44.7701C79.8656 44.4821 79.57 44.2604 79.2339 44.1279C78.8979 43.9953 78.5335 43.9567 78.178 44.0158C77.263 44.2128 76.4356 44.7097 75.8208 45.4314Z" fill="#263238"/>
<path d="M78.4988 48.45C78.4988 49.2288 78.2884 49.8656 78.0206 49.8656C77.7529 49.8656 77.5425 49.2288 77.5425 48.45C77.5425 47.6712 77.7481 47.0344 78.0206 47.0344C78.2932 47.0344 78.4988 47.6663 78.4988 48.45Z" fill="#263238"/>
<path d="M75.5951 58.3334C75.0835 58.8771 74.3997 59.0534 74.0698 58.7301C73.7399 58.4069 73.8881 57.6966 74.3997 57.1529C74.9113 56.6092 75.5903 56.4329 75.9202 56.7562C76.2501 57.0794 76.1067 57.7897 75.5951 58.3334Z" fill="#263238"/>
</g>
<path d="M59.3431 49.7658C59.3431 49.7658 59.6205 53.4444 59.8978 55.2371C60.1751 57.0299 55.8479 62.0456 55.8479 62.0456L62.1068 71.7587L69.1976 66.1013C69.1976 66.1013 79.2385 65.347 80.1518 64.4947C81.065 63.6424 81.0746 54.3114 81.0746 54.3114L83.4653 52.8958C83.4653 52.8958 81.2563 43.0994 80.7064 40.9148L80.1518 38.7498C80.1518 38.7498 83.3744 37.6134 82.6381 34.3415C81.9018 31.0695 77.2064 29.4433 72.5111 30.1878C67.8158 30.9323 66.6204 32.7349 66.6204 32.7349C66.6204 32.7349 59.9886 32.6418 56.2161 35.8501C52.4436 39.0584 54.7434 44.1476 55.9388 45.9404C56.956 47.3204 58.0956 48.601 59.3431 49.7658Z" stroke="#263238" stroke-width="0.45" stroke-linecap="round" stroke-linejoin="round"/>
<path d="M68.1827 40.5274C69.8418 39.3959 80.1361 38.7396 80.1361 38.7396C80.1361 38.7396 83.3588 37.6032 82.6225 34.3312C81.8861 31.0592 77.1908 29.433 72.4955 30.1775C67.8001 30.9221 66.6048 32.7246 66.6048 32.7246C66.6048 32.7246 59.973 32.6315 56.2005 35.8399C52.4279 39.0482 54.7278 44.1374 55.9231 45.9301C56.9385 47.3237 58.0782 48.6175 59.3275 49.7948C59.3275 49.7948 59.4805 51.8128 59.6718 53.5909L62.5406 54.4187L65.6724 52.719L68.8042 51.9647C68.8042 51.9647 66.4996 50.1719 67.7906 48.4772C69.0816 46.7824 71.4722 46.2142 71.5631 44.8917C71.6539 43.5692 66.5235 41.6589 68.1827 40.5274Z" fill="#263238" stroke="#263238" stroke-width="0.45" stroke-linecap="round" stroke-linejoin="round"/>
<path d="M78.2361 35.0397C78.2361 35.0397 77.1555 33.0119 79.135 33.3792C81.1145 33.7466 81.1145 37.2537 79.4936 37.9884C77.8727 38.7231 69.0558 37.0676 64.1931 38.5419C59.3304 40.0163 55.9165 44.072 55.9165 44.072" stroke="white" stroke-width="0.6" stroke-miterlimit="10" stroke-linecap="round"/>
<path d="M58.6182 47.2125C58.6182 47.2125 62.4003 43.8965 65.4556 43.343C68.5109 42.7895 70.1366 42.7895 66.7179 44.8124C63.2992 46.8354 65.6373 46.468 67.7985 45.7333" stroke="white" stroke-width="0.6" stroke-miterlimit="10" stroke-linecap="round"/>
<path d="M66.5248 54.4832C66.5248 54.4832 65.9749 48.5417 63.1204 48.3555C60.2659 48.1694 60.3568 52.4112 61.2079 55.3354C62.059 58.2597 64.0767 59.2001 65.7167 57.6915" fill="#92E3A9"/>
<mask id="mask4_2768_48239" style="mask-type:luminance" maskUnits="userSpaceOnUse" x="60" y="48" width="7" height="11">
<path d="M66.5233 54.48C66.5233 54.48 65.9735 48.5385 63.119 48.3524C60.2645 48.1662 60.3553 52.4081 61.2064 55.3323C62.0575 58.2565 64.0753 59.1969 65.7153 57.6883" fill="white"/>
</mask>
<g mask="url(#mask4_2768_48239)">
<g opacity="0.5">
<path d="M66.5233 54.48C66.5233 54.48 65.9735 48.5385 63.119 48.3524C60.2645 48.1662 60.3553 52.4081 61.2064 55.3323C62.0575 58.2565 64.0753 59.1969 65.7153 57.6883" fill="white"/>
<path d="M66.5233 54.48C66.5233 54.48 65.9735 48.5385 63.119 48.3524C60.2645 48.1662 60.3553 52.4081 61.2064 55.3323C62.0575 58.2565 64.0753 59.1969 65.7153 57.6883" stroke="#263238" stroke-width="0.45" stroke-linecap="round" stroke-linejoin="round"/>
</g>
</g>
<path d="M66.5248 54.4832C66.5248 54.4832 65.9749 48.5417 63.1204 48.3555C60.2659 48.1694 60.3568 52.4112 61.2079 55.3354C62.059 58.2597 64.0767 59.2001 65.7167 57.6915" stroke="#263238" stroke-width="0.45" stroke-linecap="round" stroke-linejoin="round"/>
<path d="M56.1007 58.4431L65.3096 72.7801L61.0733 78.3444C59.1655 74.574 57.0453 70.9203 54.7236 67.4019C51.5918 62.876 51.2236 62.1217 51.2236 62.1217L56.1007 58.4431Z" fill="white"/>
<mask id="mask5_2768_48239" style="mask-type:luminance" maskUnits="userSpaceOnUse" x="51" y="58" width="15" height="21">
<path d="M56.1007 58.4399L65.3096 72.7769L61.0733 78.3413C59.1655 74.5708 57.0453 70.9171 54.7236 67.3987C51.5918 62.8728 51.2236 62.1185 51.2236 62.1185L56.1007 58.4399Z" fill="white"/>
</mask>
<g mask="url(#mask5_2768_48239)">
<path d="M56.1007 58.4399L51.2236 62.1185C51.2236 62.1185 51.4962 62.672 53.5044 65.6256L58.6587 62.4222L56.1007 58.4399Z" fill="#92E3A9"/>
<path opacity="0.5" d="M56.1007 58.4399L51.2236 62.1185C51.2236 62.1185 51.4962 62.672 53.5044 65.6256L58.6587 62.4222L56.1007 58.4399Z" fill="white"/>
</g>
<path d="M56.1007 58.4431L65.3096 72.7801L61.0733 78.3444C59.1655 74.574 57.0453 70.9203 54.7236 67.4019C51.5918 62.876 51.2236 62.1217 51.2236 62.1217L56.1007 58.4431Z" stroke="#263238" stroke-width="0.45" stroke-linecap="round" stroke-linejoin="round"/>
<path d="M79.7808 94.0962C79.7808 94.0962 81.2534 90.9809 81.5308 89.0021C81.8081 87.0232 81.8989 85.8868 83.0034 84.9464C84.1079 84.0059 87.6988 80.2294 88.263 78.8138C88.8272 77.3982 89.181 78.7208 89.4583 79.8522C89.7356 80.9837 89.64 82.0221 88.722 82.6834C88.0751 83.1752 87.4876 83.7441 86.972 84.3782L87.7992 85.0394C87.7992 85.0394 99.308 80.6066 100.508 80.1412C101.708 79.6759 102.808 80.0433 102.899 80.9886C102.99 81.934 102.626 82.027 102.072 82.3111C101.517 82.5952 95.4446 84.7602 94.6127 85.1374L93.7855 85.5145L94.431 86.1758C94.431 86.1758 97.7445 86.0827 99.4036 85.9897C101.063 85.8966 103.544 85.6125 103.912 86.1758C104.077 86.4279 104.14 86.7353 104.088 87.0337C104.036 87.3322 103.874 87.5987 103.635 87.7775C103.442 87.9676 103.209 88.1104 102.954 88.1952C102.699 88.28 102.428 88.3047 102.162 88.2673C101.335 88.2673 94.2445 88.8306 94.2445 88.8306L94.431 89.869C94.431 89.869 101.981 91.0936 102.253 91.4707C102.526 91.8479 102.531 92.0389 102.253 92.6022C101.976 93.1655 101.775 93.1704 101.058 93.1704C100.341 93.1704 94.364 92.2251 94.364 92.2251C94.364 92.2251 97.3094 93.9247 97.6775 94.2088C98.0457 94.4929 99.3319 94.6986 98.9637 95.3403C98.5956 95.982 98.4139 96.1877 97.8592 96.0946C97.3046 96.0016 93.3504 94.2088 93.3504 94.2088C93.3504 94.2088 89.3914 94.7721 88.0908 94.8701C87.1335 94.9155 86.1742 94.8828 85.222 94.7721L81.5403 97.2212L79.7808 94.0962Z" fill="white" stroke="#263238" stroke-width="0.45" stroke-linecap="round" stroke-linejoin="round"/>
<path d="M53.6382 89.8462C53.6382 89.8462 50.9654 78.4334 49.8609 75.8863C48.7564 73.3393 42.4975 70.9882 39.4566 76.5476C36.4156 82.107 39.1792 88.4306 40.2885 92.9565C41.3978 97.4824 48.3882 117.937 49.4019 120.499C50.4155 123.061 52.2707 122.458 53.27 122.199C54.2693 121.939 82.2692 98.805 82.2692 98.805L80.0602 93.7157L58.3335 105.143L53.6382 89.8462Z" fill="white"/>
<mask id="mask6_2768_48239" style="mask-type:luminance" maskUnits="userSpaceOnUse" x="38" y="73" width="45" height="50">
<path d="M53.6392 89.8481C53.6392 89.8481 50.9664 78.4353 49.8619 75.8883C48.7574 73.3412 42.4985 70.9901 39.4576 76.5495C36.4166 82.109 39.1802 88.4325 40.2895 92.9585C41.3988 97.4844 48.3892 117.939 49.4029 120.501C50.4165 123.063 52.2717 122.46 53.271 122.201C54.2703 121.941 82.2702 98.8069 82.2702 98.8069L80.0612 93.7177L58.3345 105.145L53.6392 89.8481Z" fill="white"/>
</mask>
<g mask="url(#mask6_2768_48239)">
<path d="M52.8539 114.939C53.5632 112.731 54.3819 110.562 55.3067 108.439C56.33 106.343 50.3962 113.264 49.1674 109.487C47.9386 105.711 40.1641 86.8429 41.5937 80.5536C42.2138 77.6316 43.8828 75.0547 46.2699 73.3337C43.9892 72.7802 41.1968 73.368 39.4564 76.5518C36.4202 82.1162 39.1791 88.4348 40.2884 92.9607C41.3976 97.4867 48.3881 117.941 49.4017 120.503C50.4154 123.065 52.2705 122.463 53.2699 122.203C54.0062 121.997 69.0485 109.688 77.1768 103.012L52.8539 114.939Z" fill="#92E3A9"/>
<path opacity="0.5" d="M52.8539 114.939C53.5632 112.731 54.3819 110.562 55.3067 108.439C56.33 106.343 50.3962 113.264 49.1674 109.487C47.9386 105.711 40.1641 86.8429 41.5937 80.5536C42.2138 77.6316 43.8828 75.0547 46.2699 73.3337C43.9892 72.7802 41.1968 73.368 39.4564 76.5518C36.4202 82.1162 39.1791 88.4348 40.2884 92.9607C41.3976 97.4867 48.3881 117.941 49.4017 120.503C50.4154 123.065 52.2705 122.463 53.2699 122.203C54.0062 121.997 69.0485 109.688 77.1768 103.012L52.8539 114.939Z" fill="white"/>
</g>
<path d="M53.6382 89.8462C53.6382 89.8462 50.9654 78.4334 49.8609 75.8863C48.7564 73.3393 42.4975 70.9882 39.4566 76.5476C36.4156 82.107 39.1792 88.4306 40.2885 92.9565C41.3978 97.4824 48.3882 117.937 49.4019 120.499C50.4155 123.061 52.2707 122.458 53.27 122.199C54.2693 121.939 82.2692 98.805 82.2692 98.805L80.0602 93.7157L58.3335 105.143L53.6382 89.8462Z" stroke="#263238" stroke-width="0.45" stroke-linecap="round" stroke-linejoin="round"/>
<path d="M76.8379 95.6057L79.3242 100.793" stroke="#263238" stroke-width="0.45" stroke-linecap="round" stroke-linejoin="round"/>
<path d="M18.4334 69.5786L5.71484 78.6158C5.71484 78.6158 11.9833 85.4046 11.3378 103.214C10.8596 116.817 12.6144 132.261 15.1629 135.4H28.7038C28.7038 135.4 24.0228 108.95 24.3575 93.7952C24.6205 82.2796 21.2448 74.2858 18.4334 69.5786Z" fill="white" stroke="#263238" stroke-width="0.45" stroke-linecap="round" stroke-linejoin="round"/>
<path d="M19.9651 69.5786L7.24658 78.6158C7.24658 78.6158 13.515 85.4046 12.8647 103.214C12.3866 116.817 14.1414 132.261 16.6898 135.4H30.2355C30.2355 135.4 25.5593 108.95 25.894 93.7952C26.1474 82.2796 22.7718 74.2858 19.9651 69.5786Z" fill="#263238" stroke="#263238" stroke-width="0.45" stroke-linecap="round" stroke-linejoin="round"/>
<path d="M18.4364 69.5786H19.9664L7.24792 78.6158H5.72266L18.4364 69.5786Z" fill="white" stroke="#263238" stroke-width="0.45" stroke-linecap="round" stroke-linejoin="round"/>
</g>
</svg>
