<svg width="40" height="40" viewBox="0 0 40 40" fill="none" xmlns="http://www.w3.org/2000/svg">
<rect width="40" height="40" rx="20" fill="#FFF1DD"/>
<path d="M29.75 27.5H29V20.75C29 20.7453 29 20.7416 29 20.7369C29 20.7322 29 20.7097 29 20.6966C29 20.6834 29 20.6703 29 20.6581C29.0005 20.6535 29.0005 20.6487 29 20.6441L27.5938 10.7881C27.541 10.4297 27.361 10.1022 27.0865 9.86566C26.8121 9.62911 26.4617 9.4993 26.0994 9.5H24.4006C24.0399 9.50155 23.6917 9.63237 23.4193 9.86871C23.1468 10.1051 22.9681 10.4313 22.9156 10.7881L21.8319 18.3734L18.2 15.65C18.0886 15.5664 17.9561 15.5155 17.8174 15.503C17.6786 15.4905 17.5392 15.5169 17.4146 15.5792C17.29 15.6415 17.1852 15.7372 17.112 15.8557C17.0388 15.9742 17 16.1107 17 16.25V19.25L12.2 15.65C12.0886 15.5664 11.9561 15.5155 11.8174 15.503C11.6786 15.4905 11.5392 15.5169 11.4146 15.5792C11.29 15.6415 11.1852 15.7372 11.112 15.8557C11.0388 15.9742 11 16.1107 11 16.25V27.5H10.25C10.0511 27.5 9.86032 27.579 9.71967 27.7197C9.57902 27.8603 9.5 28.0511 9.5 28.25C9.5 28.4489 9.57902 28.6397 9.71967 28.7803C9.86032 28.921 10.0511 29 10.25 29H29.75C29.9489 29 30.1397 28.921 30.2803 28.7803C30.421 28.6397 30.5 28.4489 30.5 28.25C30.5 28.0511 30.421 27.8603 30.2803 27.7197C30.1397 27.579 29.9489 27.5 29.75 27.5ZM18.125 25.25H15.5C15.3011 25.25 15.1103 25.171 14.9697 25.0303C14.829 24.8897 14.75 24.6989 14.75 24.5C14.75 24.3011 14.829 24.1103 14.9697 23.9697C15.1103 23.829 15.3011 23.75 15.5 23.75H18.125C18.3239 23.75 18.5147 23.829 18.6553 23.9697C18.796 24.1103 18.875 24.3011 18.875 24.5C18.875 24.6989 18.796 24.8897 18.6553 25.0303C18.5147 25.171 18.3239 25.25 18.125 25.25ZM24.5 25.25H21.875C21.6761 25.25 21.4853 25.171 21.3447 25.0303C21.204 24.8897 21.125 24.6989 21.125 24.5C21.125 24.3011 21.204 24.1103 21.3447 23.9697C21.4853 23.829 21.6761 23.75 21.875 23.75H24.5C24.6989 23.75 24.8897 23.829 25.0303 23.9697C25.171 24.1103 25.25 24.3011 25.25 24.5C25.25 24.6989 25.171 24.8897 25.0303 25.0303C24.8897 25.171 24.6989 25.25 24.5 25.25ZM24.0003 20L23.2006 19.4L24.4006 11H26.0994L27.3856 20H24.0003Z" fill="#FF9500"/>
</svg>
