<svg width="40" height="40" viewBox="0 0 40 40" fill="none" xmlns="http://www.w3.org/2000/svg">
<rect width="40" height="40" rx="20" fill="#E0DDFF"/>
<path d="M28.7936 24.4944C28.2733 23.5981 27.4999 21.0622 27.4999 17.75C27.4999 15.7609 26.7097 13.8532 25.3032 12.4467C23.8967 11.0402 21.989 10.25 19.9999 10.25C18.0108 10.25 16.1031 11.0402 14.6966 12.4467C13.2901 13.8532 12.4999 15.7609 12.4999 17.75C12.4999 21.0631 11.7255 23.5981 11.2052 24.4944C11.0723 24.7222 11.0019 24.9811 11.001 25.2449C11.0001 25.5086 11.0687 25.768 11.2 25.9967C11.3313 26.2255 11.5207 26.4156 11.7489 26.5478C11.9771 26.6801 12.2361 26.7498 12.4999 26.75H16.3258C16.4989 27.5967 16.959 28.3577 17.6285 28.9042C18.298 29.4507 19.1357 29.7492 19.9999 29.7492C20.8641 29.7492 21.7018 29.4507 22.3713 28.9042C23.0407 28.3577 23.5009 27.5967 23.674 26.75H27.4999C27.7636 26.7496 28.0225 26.6798 28.2506 26.5475C28.4787 26.4151 28.6678 26.225 28.799 25.9963C28.9302 25.7676 28.9988 25.5083 28.9979 25.2446C28.9969 24.9809 28.9265 24.7222 28.7936 24.4944ZM19.9999 28.25C19.5347 28.2499 19.081 28.1055 18.7013 27.8369C18.3215 27.5683 18.0343 27.1886 17.8793 26.75H22.1205C21.9655 27.1886 21.6783 27.5683 21.2985 27.8369C20.9188 28.1055 20.4651 28.2499 19.9999 28.25Z" fill="#5856D6"/>
</svg>
