<svg width="40" height="40" viewBox="0 0 40 40" fill="none" xmlns="http://www.w3.org/2000/svg">
<rect width="40" height="40" rx="20" fill="#FFF8DD"/>
<path d="M16.2499 28.9999C16.2499 29.2966 16.162 29.5866 15.9971 29.8333C15.8323 30.08 15.598 30.2722 15.324 30.3857C15.0499 30.4993 14.7483 30.529 14.4573 30.4711C14.1663 30.4132 13.899 30.2704 13.6893 30.0606C13.4795 29.8508 13.3366 29.5835 13.2788 29.2926C13.2209 29.0016 13.2506 28.7 13.3641 28.4259C13.4776 28.1518 13.6699 27.9175 13.9166 27.7527C14.1632 27.5879 14.4533 27.4999 14.7499 27.4999C15.1478 27.4999 15.5293 27.658 15.8106 27.9393C16.0919 28.2206 16.2499 28.6021 16.2499 28.9999ZM28.2499 27.4999C27.9533 27.4999 27.6632 27.5879 27.4166 27.7527C27.1699 27.9175 26.9776 28.1518 26.8641 28.4259C26.7506 28.7 26.7209 29.0016 26.7788 29.2926C26.8366 29.5835 26.9795 29.8508 27.1893 30.0606C27.399 30.2704 27.6663 30.4132 27.9573 30.4711C28.2483 30.529 28.5499 30.4993 28.824 30.3857C29.098 30.2722 29.3323 30.08 29.4971 29.8333C29.662 29.5866 29.7499 29.2966 29.7499 28.9999C29.7499 28.6021 29.5919 28.2206 29.3106 27.9393C29.0293 27.658 28.6478 27.4999 28.2499 27.4999ZM30.4999 24.4999H13.2499V15.0602C13.2506 14.8632 13.212 14.668 13.1365 14.4859C13.061 14.3039 12.9501 14.1387 12.8102 13.9999L10.7806 11.9693C10.7109 11.8996 10.6281 11.8443 10.5371 11.8066C10.4461 11.7689 10.3485 11.7495 10.2499 11.7495C10.0509 11.7495 9.86003 11.8286 9.7193 11.9693C9.64962 12.039 9.59435 12.1217 9.55663 12.2128C9.51892 12.3038 9.49951 12.4014 9.49951 12.4999C9.49951 12.699 9.57857 12.8898 9.7193 13.0306L11.7499 15.0602V24.4999H10.9999C10.801 24.4999 10.6103 24.5789 10.4696 24.7196C10.3289 24.8603 10.2499 25.051 10.2499 25.2499C10.2499 25.4488 10.3289 25.6396 10.4696 25.7803C10.6103 25.9209 10.801 25.9999 10.9999 25.9999H30.4999C30.6988 25.9999 30.8896 25.9209 31.0303 25.7803C31.1709 25.6396 31.2499 25.4488 31.2499 25.2499C31.2499 25.051 31.1709 24.8603 31.0303 24.7196C30.8896 24.5789 30.6988 24.4999 30.4999 24.4999ZM16.2499 22.9999H28.2499C28.6478 22.9999 29.0293 22.8419 29.3106 22.5606C29.5919 22.2793 29.7499 21.8978 29.7499 21.4999V15.4999C29.7499 15.1021 29.5919 14.7206 29.3106 14.4393C29.0293 14.158 28.6478 13.9999 28.2499 13.9999H16.2499C15.8521 13.9999 15.4706 14.158 15.1893 14.4393C14.908 14.7206 14.7499 15.1021 14.7499 15.4999V21.4999C14.7499 21.8978 14.908 22.2793 15.1893 22.5606C15.4706 22.8419 15.8521 22.9999 16.2499 22.9999Z" fill="#FFCC00"/>
</svg>
