<svg width="40" height="40" viewBox="0 0 40 40" fill="none" xmlns="http://www.w3.org/2000/svg">
<rect width="40" height="40" rx="20" fill="#FFF8DD"/>
<path d="M30.5 26H29.75V17.2503C29.75 17.0034 29.6891 16.7604 29.5726 16.5427C29.4562 16.325 29.2878 16.1395 29.0825 16.0025L20.8325 10.5022C20.5861 10.3379 20.2966 10.2502 20.0005 10.2502C19.7043 10.2502 19.4148 10.3379 19.1684 10.5022L10.9184 16.0025C10.7129 16.1394 10.5444 16.3249 10.4278 16.5426C10.3112 16.7602 10.2501 17.0033 10.25 17.2503V26H9.5C9.30109 26 9.11032 26.079 8.96967 26.2196C8.82902 26.3603 8.75 26.5511 8.75 26.75C8.75 26.9489 8.82902 27.1396 8.96967 27.2803C9.11032 27.421 9.30109 27.5 9.5 27.5H30.5C30.6989 27.5 30.8897 27.421 31.0303 27.2803C31.171 27.1396 31.25 26.9489 31.25 26.75C31.25 26.5511 31.171 26.3603 31.0303 26.2196C30.8897 26.079 30.6989 26 30.5 26ZM20.75 20H26V22.25H20.75V20ZM19.25 22.25H14V20H19.25V22.25ZM14 23.75H19.25V26H14V23.75ZM20.75 23.75H26V26H20.75V23.75Z" fill="#FFCC00"/>
</svg>
