<svg width="40" height="40" viewBox="0 0 40 40" fill="none" xmlns="http://www.w3.org/2000/svg">
<rect width="40" height="40" rx="20" fill="#E1FFDD"/>
<path d="M27.5 13.2499C26.4787 13.25 25.4663 13.4408 24.515 13.8124C23.1725 11.028 20.4603 9.6443 20.3366 9.58148C20.2324 9.52934 20.1175 9.5022 20.0009 9.5022C19.8844 9.5022 19.7695 9.52934 19.6653 9.58148C19.5406 9.64148 16.8284 11.0252 15.4859 13.8124C14.5343 13.4407 13.5217 13.2499 12.5 13.2499C12.3011 13.2499 12.1103 13.3289 11.9697 13.4696C11.829 13.6102 11.75 13.801 11.75 13.9999V21.4999C11.7524 23.4839 12.4688 25.4007 13.7681 26.9C15.0674 28.3993 16.8628 29.381 18.8263 29.6655C18.8794 29.6725 18.9335 29.668 18.9848 29.6523C19.036 29.6366 19.0834 29.6101 19.1235 29.5746C19.1637 29.539 19.1958 29.4953 19.2176 29.4463C19.2394 29.3973 19.2505 29.3442 19.25 29.2905V24.5252C19.2476 24.3317 19.3185 24.1445 19.4483 24.0011C19.5782 23.8576 19.7575 23.7686 19.9503 23.7518C20.0529 23.745 20.1558 23.7593 20.2526 23.794C20.3494 23.8286 20.4381 23.8828 20.5131 23.9531C20.5881 24.0234 20.6478 24.1084 20.6885 24.2028C20.7293 24.2972 20.7502 24.399 20.75 24.5018V29.2962C20.7495 29.3498 20.7606 29.4029 20.7824 29.4519C20.8042 29.5009 20.8363 29.5446 20.8765 29.5802C20.9166 29.6157 20.964 29.6422 21.0152 29.6579C21.0665 29.6736 21.1206 29.6781 21.1737 29.6712C23.1381 29.3865 24.9344 28.404 26.2338 26.9035C27.5332 25.403 28.2489 23.4848 28.25 21.4999V13.9999C28.25 13.801 28.171 13.6102 28.0303 13.4696C27.8897 13.3289 27.6989 13.2499 27.5 13.2499ZM19.25 22.0118C18.5622 21.0315 17.6692 20.2126 16.6331 19.6122C15.597 19.0117 14.4425 18.644 13.25 18.5346V14.7912C14.8994 14.9776 16.4224 15.7645 17.529 17.0017C18.6355 18.2389 19.2481 19.8401 19.25 21.4999V22.0118ZM20 18.0649C19.3173 16.5842 18.214 15.337 16.8275 14.479C17.6909 12.678 19.3025 11.5418 20 11.1134C20.6984 11.5427 22.3091 12.679 23.1725 14.479C21.786 15.337 20.6827 16.5842 20 18.0649ZM26.75 18.5337C25.5575 18.6431 24.403 19.0108 23.3669 19.6112C22.3308 20.2117 21.4378 21.0305 20.75 22.0109V21.4999C20.7519 19.8401 21.3645 18.2389 22.471 17.0017C23.5776 15.7645 25.1006 14.9776 26.75 14.7912V18.5337Z" fill="#0F913D"/>
</svg>
