<svg width="186" height="151" viewBox="0 0 186 151" fill="none" xmlns="http://www.w3.org/2000/svg">
<path d="M63.0171 28.7168C63.0171 28.7168 69.2563 31.1013 72.4568 36.8622C75.6573 42.6231 81.0313 66.4053 81.0313 66.4053C81.0313 66.4053 90.7524 67.172 92.7993 67.172C94.8462 67.172 107.641 66.145 107.641 66.145L108.281 70.1122C108.281 70.1122 99.8404 73.6996 92.1592 74.5929C84.478 75.4862 75.6503 75.1064 74.2434 74.2131C72.8366 73.3197 65.676 55.1437 65.676 55.1437C65.676 55.1437 64.1355 47.0827 62.8624 41.4484C61.5892 35.8142 60.3653 30.6863 63.0171 28.7168Z" fill="white" stroke="#263238" stroke-width="0.8" stroke-linecap="round" stroke-linejoin="round"/>
<path d="M70.9867 40.0996L67.5049 47.3025L70.7546 44.517" stroke="#263238" stroke-width="0.8" stroke-linecap="round" stroke-linejoin="round"/>
<path d="M107.627 66.1595C107.627 66.1595 94.8322 67.1865 92.7853 67.1865C90.7383 67.1865 81.0173 66.4198 81.0173 66.4198C81.0173 66.4198 79.8215 61.1372 78.2037 54.9473C74.5257 56.3068 70.9602 57.9532 67.54 59.8711C69.7698 65.3225 73.2728 73.6157 74.2083 74.2135C75.6151 75.1069 84.4499 75.4867 92.1241 74.5934C99.7982 73.7001 108.246 70.1127 108.246 70.1127L107.627 66.1595Z" fill="white" stroke="#263238" stroke-width="0.8" stroke-linecap="round" stroke-linejoin="round"/>
<path d="M113.402 70.7689L110.075 70.6423L100.593 73.7162L99.313 65.5286L106.607 65.9084C108.221 65.0001 109.886 64.1874 111.594 63.4746C112.621 63.2214 117.102 63.6083 117.102 63.6083C117.102 63.6083 117.355 64.1147 116.715 64.5016L116.068 64.9166C116.068 64.9166 119.909 66.1898 120.549 66.7033C121.189 67.2167 120.289 68.3703 120.289 68.3703C120.189 68.683 120.023 68.9704 119.802 69.2132C119.581 69.456 119.31 69.6483 119.008 69.7771C118.125 70.2013 117.171 70.4611 116.195 70.5438C116.195 70.5438 114.296 70.7689 113.402 70.7689Z" fill="#263238" stroke="#263238" stroke-width="0.8" stroke-linecap="round" stroke-linejoin="round"/>
<path d="M53.2822 117.509C53.2822 117.509 56.3912 117.192 57.777 115.8C59.1627 114.407 56.1732 112.163 54.5694 113.443C52.9657 114.724 52.5366 114.731 53.2822 117.509Z" fill="white" stroke="#263238" stroke-width="0.8" stroke-linecap="round" stroke-linejoin="round"/>
<path d="M51.0382 27.1139C46.5783 29.0065 42.5415 31.7711 39.1647 35.2453C33.1717 41.2383 32.8341 49.4752 31.5679 57.1774C30.3018 64.8797 31.3569 81.8881 31.6734 87.4239C31.99 92.9597 36.8083 99.7264 45.6923 108.392C54.5763 117.058 73.4909 130.106 79.6949 130.106C85.899 130.106 88.7478 123.192 87.9318 117.157C85.9412 102.477 65.4791 82.071 64.3044 79.6161C63.1297 77.1612 63.7698 73.405 63.8753 72.7649C63.9809 72.1248 67.8355 54.1528 68.7992 49.1234C69.7629 44.0941 66.8718 30.9404 64.4099 29.2241C61.948 27.5078 57.0312 25.8337 51.0382 27.1139Z" fill="#0F913D" stroke="#263238" stroke-width="0.8" stroke-linecap="round" stroke-linejoin="round"/>
<path d="M56.2786 83.8143C56.2786 83.8143 59.4931 80.4943 62.0606 80.1777" stroke="#263238" stroke-width="0.8" stroke-linecap="round" stroke-linejoin="round"/>
<path d="M31.5681 73.9668C31.5681 73.9668 40.3396 79.7488 60.5625 75.4651" stroke="#263238" stroke-width="0.8" stroke-linecap="round" stroke-linejoin="round"/>
<path d="M33.0664 76.873C33.0664 76.873 46.9727 81.9024 59.7044 77.4076" stroke="#263238" stroke-width="0.8" stroke-linecap="round" stroke-linejoin="round"/>
<path d="M51.3547 52.1483C56.6177 52.0278 61.7946 50.7881 66.5413 48.5117L66.2247 50.221" stroke="#263238" stroke-width="0.8" stroke-linecap="round" stroke-linejoin="round"/>
<path d="M58.9023 108.125C58.9023 108.125 70.6211 119.485 73.5121 120.702" stroke="#263238" stroke-width="0.8" stroke-linecap="round" stroke-linejoin="round"/>
<path d="M51.3547 100.656C51.3547 100.656 52.4098 93.6218 59.4439 86.9395" stroke="#263238" stroke-width="0.8" stroke-linecap="round" stroke-linejoin="round"/>
<path d="M58.9023 108.125C58.9023 108.125 53.9293 113.048 53.2751 117.508L43.547 107.351C42.917 106.904 42.2312 106.543 41.5071 106.275C41.0781 106.275 39.2562 110.34 38.1871 111.951C37.1179 113.562 35.9432 112.057 36.0768 109.384C36.2105 106.711 39.4462 101.815 39.9807 99.4586C40.5153 97.1022 42.3301 95.3929 43.9339 95.822C45.5376 96.2511 58.9023 108.125 58.9023 108.125Z" fill="#263238" stroke="#263238" stroke-width="0.8" stroke-linecap="round" stroke-linejoin="round"/>
<path d="M33.4952 66.4829C36.3862 66.3774 43.0123 64.6611 45.9033 60.1523C48.7943 55.6434 48.7943 44.7477 46.7615 38.9657C45.2562 34.696 42.8224 33.3384 41.6547 32.9375C40.8318 33.6409 40.0017 34.3865 39.1647 35.2236C33.1717 41.2166 32.834 49.4535 31.5679 57.1557C31.1403 60.2672 30.9382 63.4056 30.963 66.5462L33.4952 66.4829Z" fill="white" stroke="#263238" stroke-width="0.8" stroke-linecap="round" stroke-linejoin="round"/>
<path d="M51.0384 27.1133C48.4725 28.1722 46.054 29.5577 43.8425 31.2353C45.4322 32.205 46.7642 33.5442 47.7253 35.1392C49.5401 38.3467 50.9328 47.6527 50.9328 47.6527C50.9328 47.6527 51.6785 47.6527 56.8133 46.9071C60.1819 46.3666 63.4831 45.4682 66.661 44.2272C66.4429 41.7723 64.0936 30.3208 63.0174 28.7522C62.9015 28.5848 62.7721 28.4272 62.6305 28.281C58.9952 26.6455 54.9268 26.2357 51.0384 27.1133Z" fill="white" stroke="#263238" stroke-width="0.8" stroke-linecap="round" stroke-linejoin="round"/>
<path d="M48.4568 34.7598C48.4568 34.7598 53.0993 42.4269 57.0524 41.7235C61.0055 41.0201 60.9985 36.1525 60.9985 36.1525" stroke="#263238" stroke-width="0.8" stroke-linecap="round" stroke-linejoin="round"/>
<path d="M49.1109 19.1927C49.1109 19.1927 48.7944 27.5351 49.1109 30.3136C49.4274 33.092 53.5001 39.085 56.8132 38.663C60.1262 38.2409 60.0278 29.568 60.0278 29.568C60.0278 29.568 54.3583 21.2256 52.7475 19.7203C51.1367 18.215 49.6455 18.2361 49.1109 19.1927Z" fill="white" stroke="#263238" stroke-width="0.8" stroke-linecap="round" stroke-linejoin="round"/>
<path d="M48.8999 17.7868C48.8999 17.7868 46.7897 16.0705 45.6924 17.5688C44.595 19.067 46.438 22.8091 48.0417 23.3437C49.6455 23.8783 50.1519 23.5618 50.1519 23.5618C50.8975 25.6911 51.8666 27.7353 53.0429 29.6603C54.5412 31.7705 59.247 35.7588 62.4545 34.5842C65.662 33.4095 67.1673 26.1433 67.7019 23.1398C67.962 21.9055 68.1406 20.6554 68.2365 19.3976C65.5693 18.7487 62.8467 18.353 60.1051 18.2159C55.6385 17.9979 48.8999 17.7868 48.8999 17.7868Z" fill="white" stroke="#263238" stroke-width="0.8" stroke-linecap="round" stroke-linejoin="round"/>
<path d="M51.2563 18.6367C51.2563 18.6367 51.8964 21.9568 50.9327 22.1537C49.9691 22.3507 48.8999 17.7715 48.8999 17.7715L51.2563 18.6367Z" fill="#263238" stroke="#263238" stroke-width="0.8" stroke-linecap="round" stroke-linejoin="round"/>
<path d="M64.1991 21.8457C64.1991 21.8457 64.7336 26.7695 63.8755 27.1986C63.0173 27.6277 61.5261 26.7695 61.5261 26.7695" stroke="#263238" stroke-width="0.8" stroke-linecap="round" stroke-linejoin="round"/>
<path d="M47.4297 16.3801C47.4297 16.3801 52.8178 21.8878 57.7417 22.359C62.6655 22.8303 74.6234 19.665 75.3268 18.3778C76.0302 17.0905 69.1157 13.9182 69.1157 13.9182C69.1157 13.9182 68.2928 5.47732 67.2376 3.36711C66.1825 1.25689 59.8589 -0.61417 54.5763 1.02476C49.2938 2.6637 45.7838 4.42221 45.9034 7.35541C46.0229 10.2886 47.4297 16.3801 47.4297 16.3801Z" fill="#263238" stroke="#263238" stroke-width="0.8" stroke-linecap="round" stroke-linejoin="round"/>
<path d="M51.1157 16.8164C56.0396 17.2173 64.7407 17.3439 69.1088 13.9395" stroke="white" stroke-width="0.8" stroke-linecap="round" stroke-linejoin="round"/>
<path d="M33.6008 49.2581C33.6008 49.2581 35.4227 58.3531 36.7029 63.277C37.983 68.2008 38.2011 70.1211 39.2703 70.5502C40.3395 70.9792 74.8978 65.5208 74.8978 65.5208V61.7787L48.7944 59.2113C48.7944 59.2113 46.4028 42.0904 45.2774 39.952C44.9562 39.3047 44.4512 38.7666 43.8256 38.4049C43.2 38.0433 42.4816 37.8744 41.7603 37.9192" fill="white"/>
<path d="M33.6008 49.2581C33.6008 49.2581 35.4227 58.3531 36.7029 63.277C37.983 68.2008 38.2011 70.1211 39.2703 70.5502C40.3395 70.9792 74.8978 65.5208 74.8978 65.5208V61.7787L48.7944 59.2113C48.7944 59.2113 46.4028 42.0904 45.2774 39.952C44.9562 39.3047 44.4512 38.7666 43.8256 38.4049C43.2 38.0433 42.4816 37.8744 41.7603 37.9192" stroke="#263238" stroke-width="0.8" stroke-linecap="round" stroke-linejoin="round"/>
<path d="M47.9642 52.0436C45.6061 51.9692 43.2584 52.3874 41.0711 53.2716C38.8837 54.1557 36.9048 55.4863 35.2607 57.1784C35.7391 59.352 36.2525 61.5888 36.6676 63.3121C37.9548 68.236 38.1658 70.1563 39.235 70.5853C40.3042 71.0144 74.8625 65.556 74.8625 65.556V61.8139L48.7591 59.2465C48.7591 59.2465 48.4707 55.9123 47.9642 52.0436Z" fill="white" stroke="#263238" stroke-width="0.8" stroke-linecap="round" stroke-linejoin="round"/>
<path d="M48.7943 59.2104C48.7943 59.2104 43.7649 58.7813 41.1975 61.1307" stroke="#263238" stroke-width="0.8" stroke-linecap="round" stroke-linejoin="round"/>
<path d="M90.5485 59.2324C90.5485 59.2324 94.2625 57.0026 97.2379 56.3555L91.1042 60.8151L92.0327 62.0249L99.2848 58.8666C99.2848 58.8666 96.4009 61.842 94.8252 62.4892C93.886 62.8794 92.9823 63.3501 92.1242 63.896L89.3105 59.7107L90.5485 59.2324Z" fill="white" stroke="#263238" stroke-width="0.8" stroke-linecap="round" stroke-linejoin="round"/>
<path d="M88.586 64.9165C88.586 64.9165 88.375 66.0911 86.5531 67.5894C84.7313 69.0877 82.4875 68.8696 84.2038 69.4042C85.9201 69.9388 88.0514 69.1932 90.1898 65.5566C92.3281 61.92 88.586 64.9165 88.586 64.9165Z" fill="white" stroke="#263238" stroke-width="0.8" stroke-linecap="round" stroke-linejoin="round"/>
<path d="M72.2178 60.5968L72.6469 67.0189L78.7454 65.6121C79.6467 66.0315 80.5898 66.3545 81.559 66.5758C83.6474 66.6747 85.7388 66.4589 87.763 65.9357C88.345 65.7089 88.9559 65.5645 89.5778 65.5066C89.5778 65.5066 88.8322 66.9134 89.6833 66.9134C90.5345 66.9134 92.3633 66.3788 92.8979 65.6262C93.4325 64.8735 93.327 63.2768 93.327 63.2768C93.327 63.2768 93.538 61.666 92.8979 60.8149C92.2578 59.9638 90.0843 58.0013 89.0432 58.1419C88.0022 58.2826 78.5625 60.4913 77.7887 60.7094C77.015 60.9274 72.2178 60.5968 72.2178 60.5968Z" fill="#263238" stroke="#263238" stroke-width="0.8" stroke-linecap="round" stroke-linejoin="round"/>
<path d="M37.4554 75.6833C37.4554 75.6833 32.1025 82.7174 31.2514 89.9132C30.4003 97.1091 32.8552 106.092 33.7063 107.885C34.5574 109.679 34.3534 111.304 36.5973 111.627C38.8411 111.951 49.962 112.056 50.5036 110.129C51.0452 108.202 51.4673 82.851 51.0382 79.1019C50.6091 75.3527 45.3687 73.545 43.1249 73.545C41.0367 73.5381 39.0189 74.2992 37.4554 75.6833Z" fill="#0F913D" stroke="#263238" stroke-width="0.8" stroke-linecap="round" stroke-linejoin="round"/>
<path d="M33.1719 108.632C39.1842 109.334 45.2742 108.936 51.1439 107.457C51.1439 107.457 50.6796 135.185 51.0032 135.825C51.3268 136.465 56.6727 143.211 58.6 144.92C60.5273 146.63 60.8439 147.171 59.6692 148.437C58.4945 149.704 56.6727 151.216 51.0032 148.866C45.3338 146.517 43.6245 142.128 42.0137 139.99C40.4029 137.851 40.7335 137.31 40.7335 134.102C40.7335 130.894 33.1719 108.632 33.1719 108.632Z" fill="#263238" stroke="#263238" stroke-width="0.8" stroke-linecap="round" stroke-linejoin="round"/>
<path d="M38.3418 108.744C36.8545 106.112 35.7865 103.264 35.1765 100.303" stroke="#263238" stroke-width="0.8" stroke-linecap="round" stroke-linejoin="round"/>
<path d="M44.3208 108.743C44.3208 108.743 46.7827 104.874 46.0793 102.061" stroke="#263238" stroke-width="0.8" stroke-linecap="round" stroke-linejoin="round"/>
<path d="M1.41284 110.412L2.15845 124.269C2.19203 124.918 2.41421 125.544 2.79777 126.068C3.18133 126.593 3.70961 126.994 4.3179 127.223C9.00975 129.047 14.2147 129.047 18.9065 127.223C19.5111 126.997 20.037 126.6 20.4203 126.081C20.8037 125.561 21.028 124.942 21.066 124.297L21.9382 110.419L1.41284 110.412Z" fill="white" stroke="#263238" stroke-width="0.8" stroke-linecap="round" stroke-linejoin="round"/>
<path d="M0.399902 105.672V110.596C0.399902 111.468 5.41518 112.178 11.5981 112.178C17.781 112.178 22.7963 111.475 22.7963 110.596V105.672H0.399902Z" fill="white" stroke="#263238" stroke-width="0.8" stroke-linecap="round" stroke-linejoin="round"/>
<path d="M11.5981 107.255C17.7827 107.255 22.7963 106.547 22.7963 105.673C22.7963 104.798 17.7827 104.09 11.5981 104.09C5.41351 104.09 0.399902 104.798 0.399902 105.673C0.399902 106.547 5.41351 107.255 11.5981 107.255Z" fill="white" stroke="#263238" stroke-width="0.8" stroke-linecap="round" stroke-linejoin="round"/>
<path d="M1.63086 106.419C3.48785 106.932 7.2581 107.284 11.5981 107.284C15.9381 107.284 19.7084 106.932 21.5654 106.419C19.7084 105.912 15.9381 105.561 11.5981 105.561C7.2581 105.561 3.52302 105.884 1.63086 106.419Z" fill="#263238" stroke="#263238" stroke-width="0.8" stroke-linecap="round" stroke-linejoin="round"/>
<path d="M9.44565 95.6211C9.44565 95.6211 8.58046 101.952 9.15726 106.102H15.3261C16.4978 102.964 17.4589 99.7519 18.203 96.4863L13.6098 97.6328L9.44565 95.6211Z" fill="white" stroke="#263238" stroke-width="0.8" stroke-linecap="round" stroke-linejoin="round"/>
<path d="M14.1234 94.8602H13.9827C13.7993 94.836 13.6224 94.7757 13.4622 94.683C13.3021 94.5903 13.1618 94.4669 13.0494 94.3199C12.937 94.1729 12.8548 94.0051 12.8073 93.8263C12.7598 93.6474 12.7481 93.4609 12.7729 93.2776L14.3485 81.6995C14.373 81.5147 14.4336 81.3366 14.5269 81.1753C14.6202 81.014 14.7444 80.8727 14.8923 80.7593C15.0403 80.646 15.2091 80.5629 15.3892 80.5149C15.5692 80.4668 15.757 80.4546 15.9417 80.4791C16.1265 80.5036 16.3046 80.5642 16.4659 80.6575C16.6272 80.7508 16.7686 80.875 16.8819 81.0229C16.9952 81.1709 17.0783 81.3397 17.1264 81.5198C17.1745 81.6998 17.1866 81.8876 17.1621 82.0723L15.5935 93.6574C15.5431 94.0053 15.3642 94.3217 15.0921 94.5444C14.82 94.767 14.4744 94.8797 14.1234 94.8602Z" fill="#263238" stroke="#263238" stroke-width="0.8" stroke-linecap="round" stroke-linejoin="round"/>
<path d="M13.1527 101.445H13.0824C12.8991 101.419 12.7335 101.321 12.6216 101.174C12.5097 101.026 12.4604 100.841 12.4845 100.657L13.4763 93.3629C13.5015 93.1763 13.5997 93.0074 13.7495 92.8933C13.8992 92.7792 14.0881 92.7292 14.2747 92.7544C14.4612 92.7796 14.6301 92.8779 14.7442 93.0276C14.8583 93.1773 14.9083 93.3662 14.8831 93.5528L13.8913 100.847C13.8652 101.021 13.775 101.179 13.6382 101.29C13.5015 101.4 13.3283 101.456 13.1527 101.445Z" fill="white" stroke="#263238" stroke-width="0.8" stroke-linecap="round" stroke-linejoin="round"/>
<path d="M134.68 111.293L135.433 125.15C135.464 125.8 135.686 126.426 136.07 126.951C136.453 127.476 136.983 127.877 137.592 128.104C142.284 129.928 147.489 129.928 152.181 128.104C152.784 127.878 153.309 127.48 153.691 126.961C154.074 126.441 154.297 125.822 154.333 125.178L155.212 111.3L134.68 111.293Z" fill="white" stroke="#263238" stroke-width="0.8" stroke-linecap="round" stroke-linejoin="round"/>
<path d="M133.653 106.553V111.477C133.653 112.349 138.668 113.059 144.851 113.059C151.034 113.059 156.05 112.356 156.05 111.477V106.553H133.653Z" fill="white" stroke="#263238" stroke-width="0.8" stroke-linecap="round" stroke-linejoin="round"/>
<path d="M144.872 108.134C151.057 108.134 156.07 107.425 156.07 106.551C156.07 105.677 151.057 104.969 144.872 104.969C138.688 104.969 133.674 105.677 133.674 106.551C133.674 107.425 138.688 108.134 144.872 108.134Z" fill="white" stroke="#263238" stroke-width="0.8" stroke-linecap="round" stroke-linejoin="round"/>
<path d="M134.905 107.27C136.762 107.784 140.533 108.135 144.873 108.135C149.213 108.135 152.983 107.784 154.84 107.27C152.983 106.764 149.213 106.412 144.873 106.412C140.533 106.412 136.762 106.764 134.905 107.27Z" fill="#263238" stroke="#263238" stroke-width="0.8" stroke-linecap="round" stroke-linejoin="round"/>
<path d="M145.421 107.339C145.421 107.339 144.893 82.3679 143.838 79.3784C142.783 76.3889 136.453 72.8719 136.453 74.8062C136.508 76.0521 137.007 77.2372 137.859 78.1474C137.859 78.1474 127.66 76.7406 129.594 79.2025C131.529 81.6644 135.925 80.6093 135.925 80.6093C135.925 80.6093 125.902 83.5988 131.001 84.3022C133.798 84.7108 136.617 84.9457 139.442 85.0056C139.442 85.0056 136.277 87.8192 138.915 87.8192C140.353 87.8568 141.786 87.618 143.135 87.1158L144.366 107.339H145.421Z" fill="#0F913D"/>
<path d="M145.906 107.34L143.838 79.3794C143.838 79.3794 150.872 71.8178 151.4 73.7522C151.928 75.6865 148.586 77.7967 149.993 77.7967C151.4 77.7967 159.313 73.4004 160.368 76.5658C161.424 79.7311 149.29 80.6104 151.224 81.6655C153.159 82.7206 158.258 82.5447 154.389 83.7757C150.521 85.0066 144.542 86.0617 146.476 86.941C148.411 87.8203 147.531 88.3478 146.828 89.2271L146.476 107.34H145.906Z" fill="#0F913D"/>
<path d="M142.607 107.514C142.607 107.514 140.497 103.821 140.497 102.063C140.497 100.304 141.025 97.8422 139.97 95.3803C138.915 92.9183 135.925 95.5561 135.222 96.0837C134.518 96.6112 132.408 92.5666 130.825 93.4459C129.243 94.3251 132.056 95.9078 131.529 96.6112C131.001 97.3146 122.912 95.0286 122.912 97.4905C122.912 99.9524 130.825 97.8422 131.529 98.7214C132.232 99.6007 126.781 100.832 129.594 101.711C132.408 102.59 134.167 99.7765 134.342 100.832C134.518 101.887 130.122 103.118 133.463 103.997C136.804 104.876 138.035 103.821 139.09 104.349C140.146 104.876 141.728 107.514 141.728 107.514H142.607Z" fill="#0F913D"/>
<path d="M147.18 107.514C147.18 107.514 149.29 103.821 149.29 102.063C149.29 100.304 148.762 97.8422 149.817 95.3803C150.873 92.9183 153.862 95.5561 154.565 96.0837C155.269 96.6112 157.379 92.5666 158.962 93.4459C160.544 94.3251 157.731 95.9078 158.258 96.6112C158.786 97.3146 166.875 95.0286 166.875 97.4905C166.875 99.9524 158.962 97.8422 158.258 98.7214C157.555 99.6007 163.006 100.832 160.193 101.711C157.379 102.59 155.621 99.7765 155.445 100.832C155.269 101.887 159.665 103.118 156.324 103.997C152.983 104.876 151.752 103.821 150.697 104.349C149.642 104.876 148.059 107.514 148.059 107.514H147.18Z" fill="#0F913D"/>
<path d="M144.366 107.34C144.366 107.34 143.311 91.5129 142.959 90.8095C142.608 90.1061 140.321 90.9854 137.508 92.2163C134.694 93.4473 135.749 92.9197 134.167 92.3922C132.584 91.8646 130.474 92.568 127.66 93.0956C124.847 93.6231 125.55 90.1061 128.539 89.051C130.292 88.4219 132.13 88.066 133.991 87.9959C133.991 87.9959 130.474 86.4132 133.639 85.8857C136.804 85.3581 140.497 87.82 142.256 88.8752C142.737 89.1211 143.159 89.4686 143.493 89.8936C143.827 90.3187 144.065 90.8112 144.19 91.3371L145.421 107.34H144.366Z" fill="#0F913D"/>
<path d="M145.906 107.34C145.906 107.34 146.962 91.5129 147.313 90.8095C147.665 90.1061 149.951 90.9854 152.765 92.2163C155.578 93.4473 154.523 92.9197 156.106 92.3922C157.688 91.8646 159.799 92.568 162.612 93.0956C165.426 93.6231 164.723 90.1061 161.733 89.051C159.981 88.4219 158.142 88.066 156.282 87.9959C156.282 87.9959 159.799 86.4132 156.633 85.8857C153.468 85.3581 149.775 87.82 148.017 88.8752C147.535 89.1211 147.113 89.4686 146.779 89.8936C146.445 90.3187 146.207 90.8112 146.082 91.3371L144.851 107.34H145.906Z" fill="#0F913D"/>
<path d="M163.611 111.293L164.364 125.15C164.397 125.799 164.619 126.424 165.003 126.949C165.387 127.474 165.915 127.875 166.523 128.104C171.215 129.928 176.42 129.928 181.112 128.104C181.716 127.878 182.242 127.481 182.626 126.962C183.009 126.442 183.233 125.823 183.271 125.178L184.143 111.3L163.611 111.293Z" fill="white" stroke="#263238" stroke-width="0.8" stroke-linecap="round" stroke-linejoin="round"/>
<path d="M162.605 106.553V111.477C162.605 112.349 167.62 113.059 173.803 113.059C179.986 113.059 185.002 112.356 185.002 111.477V106.553H162.605Z" fill="white" stroke="#263238" stroke-width="0.8" stroke-linecap="round" stroke-linejoin="round"/>
<path d="M173.803 108.134C179.988 108.134 185.002 107.425 185.002 106.551C185.002 105.677 179.988 104.969 173.803 104.969C167.619 104.969 162.605 105.677 162.605 106.551C162.605 107.425 167.619 108.134 173.803 108.134Z" fill="white" stroke="#263238" stroke-width="0.8" stroke-linecap="round" stroke-linejoin="round"/>
<path d="M163.843 107.27C165.693 107.784 169.47 108.135 173.803 108.135C178.136 108.135 181.921 107.784 183.771 107.27C181.921 106.764 178.143 106.412 173.803 106.412C169.463 106.412 165.693 106.764 163.843 107.27Z" fill="#263238" stroke="#263238" stroke-width="0.8" stroke-linecap="round" stroke-linejoin="round"/>
<path d="M168.197 95.5495C170.006 99.37 171.479 103.34 172.601 107.416C172.601 107.416 172.179 93.2564 171.159 88.002" stroke="#263238" stroke-width="0.4" stroke-linecap="round" stroke-linejoin="round"/>
<path d="M178.024 91.6465C178.024 91.6465 174.296 99.7005 173.621 107.332" stroke="#263238" stroke-width="0.4" stroke-linecap="round" stroke-linejoin="round"/>
<path d="M178.959 98.3418C178.959 98.3418 175.231 104.194 174.802 107.416" stroke="#263238" stroke-width="0.4" stroke-linecap="round" stroke-linejoin="round"/>
<path d="M171.925 101.396C172.517 103.238 172.886 105.144 173.023 107.073" stroke="#263238" stroke-width="0.4" stroke-linecap="round" stroke-linejoin="round"/>
<path d="M171.412 86.6531C171.412 86.6531 169.864 84.9016 168.718 85.4714C167.571 86.0412 167.381 86.9978 169.098 87.3776C170.814 87.7575 166.924 87.5394 167.691 89.4456C168.458 91.3519 170.322 88.0388 171.081 89.1924C171.841 90.346 171.785 91.366 172.861 90.8876C174.809 90.0365 172.544 88.686 173.114 87.9193C173.684 87.1526 174.831 87.7645 174.831 86.618C174.831 85.4714 173.325 84.5499 171.412 86.6531Z" fill="#0F913D"/>
<path d="M178.622 90.5496C178.622 90.5496 177.067 88.7981 175.921 89.3679C174.774 89.9377 174.584 90.8943 176.3 91.2812C178.017 91.668 174.127 91.4359 174.894 93.3421C175.66 95.2484 177.524 91.9353 178.284 93.0889C179.044 94.2425 178.987 95.2694 180.064 94.7841C182.019 93.94 179.747 92.5824 180.324 91.8228C180.901 91.0631 182.033 91.661 182.033 90.5144C182.033 89.3679 180.528 88.4464 178.622 90.5496Z" fill="#0F913D"/>
<path d="M172.178 100.466C172.178 100.466 170.624 98.7141 169.477 99.2839C168.331 99.8537 168.148 100.81 169.864 101.19C171.581 101.57 167.684 101.352 168.457 103.258C169.231 105.164 171.081 101.851 171.848 103.005C172.615 104.159 172.516 105.178 173.627 104.7C175.576 103.849 173.304 102.498 173.881 101.732C174.458 100.965 175.59 101.577 175.59 100.43C175.59 99.2839 174.085 98.3625 172.178 100.466Z" fill="#0F913D"/>
<path d="M168.451 94.3615C168.451 94.3615 166.896 92.6101 165.749 93.1869C164.603 93.7637 164.413 94.7133 166.129 95.0931C167.846 95.4729 163.956 95.2478 164.722 97.1611C165.489 99.0744 167.346 95.7543 168.113 96.9008C168.88 98.0474 168.781 99.0814 169.892 98.5961C171.841 97.752 169.569 96.3944 170.146 95.6347C170.723 94.875 171.855 95.4729 171.855 94.3264C171.855 93.1798 170.357 92.2654 168.451 94.3615Z" fill="#0F913D"/>
<path d="M179.466 97.4988C179.466 97.4988 177.911 95.7474 176.772 96.3171C175.632 96.8869 175.435 97.8435 177.152 98.2304C178.868 98.6172 174.971 98.3851 175.745 100.291C176.519 102.198 178.369 98.8845 179.135 100.038C179.902 101.192 179.839 102.219 180.915 101.733C182.863 100.889 180.598 99.5317 181.168 98.772C181.738 98.0123 182.877 98.6102 182.877 97.4636C182.877 96.3171 181.372 95.3956 179.466 97.4988Z" fill="#0F913D"/>
<path d="M101.078 132.302C101.078 132.302 97.2024 120.274 109.097 97.0757C120.992 73.8774 109.695 36.4141 109.695 36.4141" stroke="#0F913D" stroke-width="2.4" stroke-linecap="round" stroke-linejoin="round"/>
<path d="M93.6363 131.579C93.6363 131.579 89.4722 122.66 94.2272 109.57C98.9822 96.4795 97.7442 89.0586 97.7442 89.0586" stroke="#0F913D" stroke-width="2.4" stroke-linecap="round" stroke-linejoin="round"/>
<path d="M111.735 91.1473C111.735 91.1473 120.992 79.8295 124.565 66.1482C125.388 62.99 126.021 60.2115 126.513 57.7988" stroke="#0F913D" stroke-width="2.4" stroke-linecap="round" stroke-linejoin="round"/>
<path d="M104.757 132.522C104.757 132.522 110.286 121.464 111.482 105.406C112.171 95.5929 111.164 85.7347 108.506 76.2637" stroke="#0F913D" stroke-width="2.4" stroke-linecap="round" stroke-linejoin="round"/>
<path d="M105.44 97.034C105.39 97.3857 104.905 97.646 104.814 97.9836C104.722 98.3213 105.01 98.7996 104.877 99.1231C104.743 99.4467 104.209 99.5803 104.033 99.8828C103.857 100.185 104.033 100.72 103.794 101.001C103.554 101.283 103.027 101.269 102.774 101.515C102.52 101.761 102.542 102.317 102.26 102.535C101.979 102.753 101.451 102.591 101.149 102.767C100.846 102.943 100.713 103.47 100.382 103.618C100.051 103.766 99.5872 103.463 99.2496 103.555C98.912 103.646 98.6447 104.131 98.293 104.181C97.9413 104.23 97.5896 103.822 97.2097 103.822C96.8299 103.822 96.4711 104.223 96.1194 104.181C95.7677 104.138 95.5075 103.646 95.1698 103.555C94.8322 103.463 94.3539 103.752 94.0303 103.618C93.7068 103.484 93.5731 102.95 93.2706 102.774C92.9682 102.598 92.4336 102.774 92.1522 102.535C91.8709 102.296 91.8849 101.768 91.6387 101.515C91.3926 101.261 90.8369 101.283 90.6188 101.001C90.4008 100.72 90.5625 100.192 90.3867 99.8899C90.2108 99.5874 89.6833 99.4537 89.5356 99.1231C89.3878 98.7925 89.6903 98.3283 89.5989 97.9906C89.5074 97.653 89.0221 97.3857 88.9728 97.034C88.9236 96.6823 89.3316 96.3306 89.3316 95.9508C89.3316 95.5709 88.9306 95.2122 88.9728 94.8675C89.015 94.5229 89.5074 94.2485 89.5989 93.9109C89.6903 93.5733 89.4019 93.095 89.5356 92.7714C89.6692 92.4478 90.239 92.3142 90.3867 92.0117C90.5344 91.7092 90.3867 91.1747 90.6188 90.8933C90.8509 90.6119 91.3855 90.626 91.6387 90.3798C91.892 90.1336 91.8709 89.5779 92.1522 89.3599C92.4336 89.1418 92.9611 89.3036 93.2706 89.1278C93.5801 88.9519 93.6997 88.4243 94.0303 88.2766C94.3609 88.1289 94.8252 88.4314 95.1698 88.3399C95.5145 88.2485 95.7677 87.7631 96.1194 87.7139C96.4711 87.6647 96.8228 88.0727 97.2097 88.0727C97.5966 88.0727 97.9131 87.6717 98.293 87.7139C98.6728 87.7561 98.9049 88.2485 99.2426 88.3399C99.5802 88.4314 100.059 88.143 100.382 88.2766C100.706 88.4103 100.839 88.98 101.142 89.1278C101.444 89.2755 101.979 89.1278 102.26 89.3599C102.542 89.592 102.527 90.1266 102.774 90.3798C103.02 90.633 103.576 90.6119 103.794 90.8933C104.012 91.1747 103.85 91.7022 104.026 92.0117C104.202 92.3212 104.729 92.4408 104.877 92.7714C105.025 93.102 104.722 93.5662 104.814 93.9109C104.905 94.2556 105.39 94.5088 105.44 94.8605C105.489 95.2122 105.081 95.5639 105.081 95.9508C105.081 96.3376 105.517 96.6823 105.44 97.034ZM116.694 73.5755C116.694 73.1253 117.193 72.647 117.137 72.2108C117.081 71.7747 116.434 71.4301 116.356 71.008C116.279 70.586 116.603 69.9811 116.434 69.6012C116.265 69.2214 115.583 69.0244 115.365 68.6376C115.147 68.2507 115.365 67.5895 115.062 67.2308C114.76 66.872 114.098 66.8931 113.782 66.5766C113.465 66.26 113.487 65.5707 113.135 65.2964C112.783 65.0221 112.115 65.226 111.728 65.0009C111.341 64.7759 111.179 64.1006 110.771 63.9318C110.363 63.763 109.766 64.1217 109.365 64.0091C108.964 63.8966 108.605 63.3057 108.155 63.2213C107.705 63.1369 107.24 63.6715 106.79 63.6715C106.34 63.6715 105.862 63.1651 105.425 63.2213C104.989 63.2776 104.645 63.9247 104.223 64.0091C103.801 64.0936 103.196 63.763 102.816 63.9318C102.436 64.1006 102.239 64.7759 101.852 65.0009C101.465 65.226 100.804 65.001 100.445 65.2964C100.087 65.5918 100.115 66.2671 99.7982 66.5766C99.4817 66.8861 98.7924 66.879 98.518 67.2308C98.2437 67.5825 98.4407 68.2507 98.2226 68.6376C98.0046 69.0244 97.3223 69.1792 97.1534 69.5942C96.9846 70.0092 97.3434 70.593 97.2238 71.001C97.1042 71.409 96.5204 71.7607 96.443 72.2038C96.3656 72.647 96.8932 73.1182 96.8932 73.5684C96.8932 74.0186 96.3867 74.504 96.443 74.9401C96.4993 75.3762 97.1464 75.7138 97.2308 76.1429C97.3152 76.572 96.9776 77.1699 97.1534 77.5497C97.3293 77.9295 97.9975 78.1265 98.2226 78.5063C98.4477 78.8862 98.2226 79.5614 98.518 79.9131C98.8135 80.2648 99.4887 80.2508 99.7982 80.5603C100.108 80.8698 100.094 81.5732 100.452 81.8475C100.811 82.1218 101.472 81.9178 101.859 82.1429C102.246 82.368 102.408 83.0433 102.823 83.2121C103.238 83.3809 103.822 83.0222 104.23 83.1347C104.638 83.2473 104.989 83.8382 105.433 83.9155C105.876 83.9929 106.347 83.4724 106.797 83.4724C107.247 83.4724 107.726 83.9718 108.162 83.9155C108.598 83.8593 108.943 83.2473 109.372 83.1347C109.801 83.0222 110.399 83.3809 110.778 83.2121C111.158 83.0433 111.355 82.361 111.735 82.1429C112.115 81.9249 112.79 82.1429 113.142 81.8405C113.494 81.538 113.479 80.8768 113.789 80.5603C114.098 80.2437 114.802 80.2648 115.069 79.9131C115.336 79.5614 115.147 78.8932 115.372 78.5063C115.597 78.1195 116.272 77.9577 116.441 77.5497C116.61 77.1417 116.244 76.5438 116.363 76.1429C116.483 75.7419 117.067 75.3832 117.144 74.9401C117.222 74.4969 116.666 74.0608 116.666 73.5755H116.694ZM117.869 113.451C117.869 113.001 118.368 112.523 118.312 112.087C118.256 111.651 117.644 111.306 117.531 110.877C117.419 110.448 117.777 109.857 117.608 109.47C117.44 109.083 116.757 108.9 116.539 108.514C116.321 108.127 116.539 107.458 116.237 107.107C115.934 106.755 115.273 106.776 114.957 106.46C114.64 106.143 114.661 105.447 114.309 105.179C113.958 104.912 113.29 105.102 112.903 104.877C112.516 104.652 112.354 103.984 111.946 103.808C111.538 103.632 110.94 104.005 110.539 103.885C110.138 103.766 109.78 103.182 109.329 103.104C108.879 103.027 108.415 103.555 107.965 103.555C107.515 103.555 107.036 103.048 106.6 103.104C106.164 103.161 105.819 103.773 105.397 103.885C104.975 103.998 104.37 103.639 103.991 103.808C103.611 103.977 103.414 104.659 103.027 104.877C102.64 105.095 101.979 104.877 101.62 105.179C101.261 105.482 101.282 106.143 100.966 106.46C100.649 106.776 99.96 106.755 99.6857 107.107C99.4114 107.458 99.6083 108.127 99.3903 108.514C99.1722 108.9 98.4899 109.062 98.3211 109.477C98.1523 109.892 98.511 110.476 98.3985 110.884C98.2859 111.292 97.6951 111.637 97.6107 112.087C97.5262 112.537 98.0608 113.001 98.0608 113.451C98.0608 113.902 97.5544 114.38 97.6107 114.816C97.6669 115.252 98.2789 115.597 98.3985 116.026C98.5181 116.455 98.1523 117.046 98.3211 117.433C98.4899 117.82 99.1652 118.003 99.3903 118.389C99.6154 118.776 99.3903 119.445 99.6857 119.796C99.9811 120.148 100.656 120.127 100.966 120.443C101.275 120.76 101.268 121.456 101.62 121.724C101.972 121.991 102.64 121.801 103.027 122.026C103.414 122.251 103.569 122.919 103.984 123.095C104.399 123.271 104.982 122.898 105.39 123.018C105.798 123.137 106.15 123.721 106.593 123.799C107.036 123.876 107.508 123.348 107.958 123.348C108.408 123.348 108.893 123.855 109.329 123.799C109.766 123.742 110.103 123.095 110.532 123.018C110.961 122.94 111.559 123.264 111.939 123.095C112.319 122.926 112.516 122.244 112.896 122.026C113.275 121.808 113.951 122.026 114.302 121.724C114.654 121.421 114.64 120.76 114.95 120.443C115.259 120.127 115.962 120.148 116.237 119.796C116.511 119.445 116.307 118.776 116.532 118.389C116.757 118.003 117.433 117.841 117.601 117.426C117.77 117.011 117.412 116.427 117.524 116.019C117.637 115.611 118.227 115.266 118.305 114.816C118.382 114.366 117.869 113.93 117.869 113.451ZM97.3504 119.121C97.3504 118.818 97.8639 118.495 97.8217 118.207C97.7795 117.918 97.2027 117.728 97.1183 117.447C97.0339 117.165 97.4559 116.708 97.3434 116.434C97.2308 116.16 96.64 116.139 96.4782 115.885C96.3164 115.632 96.6048 115.083 96.4289 114.851C96.2531 114.619 95.6552 114.753 95.4442 114.542C95.2331 114.331 95.3668 113.74 95.1347 113.564C94.9025 113.388 94.3609 113.663 94.1077 113.515C93.8545 113.367 93.8263 112.762 93.552 112.65C93.2777 112.537 92.8486 112.945 92.5461 112.868C92.2437 112.79 92.0819 112.214 91.7865 112.164C91.491 112.115 91.1675 112.643 90.872 112.643C90.5766 112.643 90.246 112.129 89.9576 112.164C89.6692 112.199 89.4793 112.79 89.1979 112.868C88.9166 112.945 88.4593 112.537 88.1921 112.65C87.9248 112.762 87.8896 113.353 87.6364 113.515C87.3831 113.677 86.8415 113.388 86.6094 113.564C86.3773 113.74 86.5039 114.338 86.2999 114.549C86.0959 114.76 85.491 114.626 85.3151 114.858C85.1393 115.09 85.4136 115.632 85.2659 115.885C85.1182 116.139 84.5132 116.167 84.4007 116.441C84.2882 116.715 84.6961 117.144 84.6258 117.447C84.5555 117.749 83.9646 117.911 83.9224 118.207C83.8802 118.502 84.3937 118.818 84.3937 119.121C84.3937 119.423 83.8802 119.747 83.9224 120.035C83.9646 120.324 84.5414 120.514 84.6258 120.795C84.7102 121.076 84.2882 121.498 84.4007 121.801C84.5132 122.103 85.1041 122.103 85.2729 122.357C85.4417 122.61 85.1393 123.151 85.3151 123.384C85.491 123.616 86.0889 123.489 86.2999 123.693C86.5109 123.897 86.3773 124.495 86.6094 124.678C86.8415 124.861 87.3831 124.572 87.6364 124.72C87.8896 124.868 87.9177 125.48 88.1921 125.592C88.4664 125.705 88.8955 125.29 89.1979 125.367C89.5004 125.445 89.6622 126.028 89.9576 126.071C90.253 126.113 90.5766 125.592 90.872 125.592C91.1675 125.592 91.4981 126.106 91.7865 126.071C92.0749 126.035 92.2648 125.452 92.5461 125.367C92.8275 125.283 93.2847 125.705 93.552 125.592C93.8193 125.48 93.8545 124.889 94.1077 124.72C94.3609 124.551 94.9025 124.854 95.1347 124.678C95.3668 124.502 95.2402 123.897 95.4442 123.693C95.6481 123.489 96.2531 123.616 96.4289 123.384C96.6048 123.151 96.3305 122.61 96.4782 122.357C96.6259 122.103 97.2308 122.075 97.3434 121.801C97.4559 121.527 97.0479 121.098 97.1253 120.795C97.2027 120.493 97.7795 120.331 97.8287 120.035C97.878 119.74 97.3504 119.445 97.3504 119.149V119.121ZM119.043 37.5259C119.043 37.0758 119.55 36.5974 119.494 36.1613C119.437 35.7252 118.825 35.3805 118.713 34.9515C118.6 34.5224 118.959 33.9315 118.79 33.5447C118.621 33.1578 117.939 32.9679 117.721 32.581C117.503 32.1941 117.721 31.5259 117.419 31.1742C117.116 30.8225 116.455 30.8436 116.138 30.5271C115.822 30.2105 115.843 29.5141 115.491 29.2469C115.14 28.9796 114.471 29.1695 114.084 28.9444C113.698 28.7193 113.536 28.0511 113.121 27.8752C112.706 27.6994 112.122 28.0722 111.714 27.9526C111.306 27.833 110.961 27.2492 110.511 27.1718C110.061 27.0944 109.597 27.622 109.147 27.622C108.696 27.622 108.218 27.1155 107.782 27.1718C107.346 27.2281 107.001 27.8752 106.572 27.9526C106.143 28.03 105.552 27.7064 105.165 27.8752C104.778 28.044 104.595 28.7263 104.209 28.9444C103.822 29.1625 103.153 28.9444 102.802 29.2469C102.45 29.5493 102.471 30.2105 102.155 30.5271C101.838 30.8436 101.142 30.8225 100.874 31.1742C100.607 31.5259 100.797 32.1941 100.572 32.581C100.347 32.9679 99.6787 33.1297 99.5028 33.5447C99.327 33.9597 99.6998 34.5435 99.5802 34.9515C99.4606 35.3594 98.8768 35.7041 98.7994 36.1543C98.722 36.6045 99.2496 37.0687 99.2496 37.5189C99.2496 37.9691 98.7431 38.4474 98.7994 38.8835C98.8557 39.3196 99.4676 39.6643 99.5802 40.0934C99.6927 40.5224 99.334 41.1133 99.5028 41.5002C99.6716 41.887 100.354 42.0699 100.572 42.4568C100.79 42.8437 100.572 43.5119 100.874 43.8636C101.177 44.2153 101.838 44.1942 102.155 44.5107C102.471 44.8273 102.45 45.5237 102.802 45.791C103.153 46.0582 103.822 45.8683 104.209 46.0934C104.595 46.3185 104.757 46.9867 105.172 47.1626C105.587 47.3384 106.171 46.9656 106.579 47.0852C106.987 47.2048 107.332 47.7886 107.782 47.866C108.232 47.9434 108.696 47.4158 109.147 47.4158C109.597 47.4158 110.075 47.9223 110.511 47.866C110.947 47.8097 111.292 47.1978 111.721 47.0852C112.15 46.9727 112.741 47.3314 113.128 47.1626C113.515 46.9938 113.698 46.3115 114.084 46.0934C114.471 45.8754 115.14 46.0934 115.491 45.791C115.843 45.4885 115.822 44.8273 116.138 44.5107C116.455 44.1942 117.151 44.2153 117.419 43.8636C117.686 43.5119 117.496 42.8437 117.721 42.4568C117.946 42.0699 118.614 41.9082 118.79 41.4932C118.966 41.0781 118.593 40.4943 118.713 40.0863C118.832 39.6784 119.416 39.3337 119.494 38.8835C119.571 38.4333 119.043 37.9832 119.043 37.533V37.5259ZM137.219 55.6949C137.219 55.2447 137.719 54.7664 137.663 54.3303C137.606 53.8942 136.994 53.5495 136.882 53.1275C136.769 52.7054 137.128 52.1005 136.959 51.7207C136.79 51.3408 136.108 51.1439 135.89 50.757C135.672 50.3701 135.89 49.7089 135.588 49.3502C135.285 48.9914 134.624 49.0126 134.307 48.696C133.991 48.3795 134.012 47.6901 133.66 47.4158C133.308 47.1415 132.64 47.3455 132.253 47.1204C131.867 46.8953 131.705 46.22 131.297 46.0512C130.889 45.8824 130.291 46.2411 129.89 46.1286C129.489 46.016 129.13 45.4252 128.687 45.3408C128.244 45.2564 127.766 45.791 127.315 45.791C126.865 45.791 126.387 45.2845 125.951 45.3408C125.515 45.3971 125.17 46.0442 124.748 46.1286C124.326 46.213 123.721 45.8824 123.341 46.0512C122.961 46.22 122.764 46.8953 122.378 47.1204C121.991 47.3455 121.329 47.1204 120.971 47.4158C120.612 47.7112 120.633 48.3865 120.317 48.696C120 49.0055 119.311 48.9985 119.036 49.3502C118.762 49.7019 118.959 50.3701 118.741 50.757C118.523 51.1439 117.841 51.2986 117.672 51.7136C117.503 52.1286 117.862 52.7125 117.749 53.1204C117.637 53.5284 117.046 53.8801 116.961 54.3233C116.877 54.7664 117.412 55.2377 117.412 55.6879C117.412 56.138 116.905 56.6234 116.961 57.0947C117.018 57.566 117.63 57.8684 117.749 58.2975C117.869 58.7266 117.503 59.3245 117.672 59.7043C117.841 60.0841 118.516 60.2811 118.741 60.6609C118.966 61.0408 118.741 61.7161 119.036 62.0678C119.332 62.4195 120.007 62.4054 120.317 62.7149C120.626 63.0244 120.619 63.7278 120.971 64.0021C121.322 64.2765 121.991 64.0725 122.378 64.2975C122.764 64.5226 122.919 65.1979 123.334 65.3667C123.749 65.5355 124.333 65.1768 124.741 65.2893C125.149 65.4019 125.501 65.9928 125.944 66.0701C126.387 66.1475 126.858 65.627 127.308 65.627C127.759 65.627 128.244 66.1264 128.68 66.0701C129.116 66.0139 129.454 65.4019 129.883 65.2893C130.312 65.1768 130.91 65.5355 131.29 65.3667C131.67 65.1979 131.867 64.5156 132.246 64.2975C132.626 64.0795 133.301 64.2975 133.653 63.9951C134.005 63.6926 133.991 63.0314 134.3 62.7149C134.61 62.3983 135.313 62.4195 135.588 62.0678C135.862 61.7161 135.658 61.0478 135.883 60.6609C136.108 60.2741 136.783 60.1123 136.952 59.7043C137.121 59.2963 136.762 58.6984 136.875 58.2975C136.987 57.8966 137.578 57.5378 137.656 57.0947C137.733 56.6515 137.219 56.1591 137.219 55.7019V55.6949Z" fill="#0F913D"/>
<path opacity="0.53" d="M105.44 97.034C105.39 97.3857 104.905 97.646 104.814 97.9836C104.722 98.3213 105.01 98.7996 104.877 99.1231C104.743 99.4467 104.209 99.5803 104.033 99.8828C103.857 100.185 104.033 100.72 103.794 101.001C103.554 101.283 103.027 101.269 102.774 101.515C102.52 101.761 102.542 102.317 102.26 102.535C101.979 102.753 101.451 102.591 101.149 102.767C100.846 102.943 100.713 103.47 100.382 103.618C100.051 103.766 99.5872 103.463 99.2496 103.555C98.912 103.646 98.6447 104.131 98.293 104.181C97.9413 104.23 97.5896 103.822 97.2097 103.822C96.8299 103.822 96.4711 104.223 96.1194 104.181C95.7677 104.138 95.5075 103.646 95.1698 103.555C94.8322 103.463 94.3539 103.752 94.0303 103.618C93.7068 103.484 93.5731 102.95 93.2706 102.774C92.9682 102.598 92.4336 102.774 92.1522 102.535C91.8709 102.296 91.8849 101.768 91.6387 101.515C91.3926 101.261 90.8369 101.283 90.6188 101.001C90.4008 100.72 90.5625 100.192 90.3867 99.8899C90.2108 99.5874 89.6833 99.4537 89.5356 99.1231C89.3878 98.7925 89.6903 98.3283 89.5989 97.9906C89.5074 97.653 89.0221 97.3857 88.9728 97.034C88.9236 96.6823 89.3316 96.3306 89.3316 95.9508C89.3316 95.5709 88.9306 95.2122 88.9728 94.8675C89.015 94.5229 89.5074 94.2485 89.5989 93.9109C89.6903 93.5733 89.4019 93.095 89.5356 92.7714C89.6692 92.4478 90.239 92.3142 90.3867 92.0117C90.5344 91.7092 90.3867 91.1747 90.6188 90.8933C90.8509 90.6119 91.3855 90.626 91.6387 90.3798C91.892 90.1336 91.8709 89.5779 92.1522 89.3599C92.4336 89.1418 92.9611 89.3036 93.2706 89.1278C93.5801 88.9519 93.6997 88.4243 94.0303 88.2766C94.3609 88.1289 94.8252 88.4314 95.1698 88.3399C95.5145 88.2485 95.7677 87.7631 96.1194 87.7139C96.4711 87.6647 96.8228 88.0727 97.2097 88.0727C97.5966 88.0727 97.9131 87.6717 98.293 87.7139C98.6728 87.7561 98.9049 88.2485 99.2426 88.3399C99.5802 88.4314 100.059 88.143 100.382 88.2766C100.706 88.4103 100.839 88.98 101.142 89.1278C101.444 89.2755 101.979 89.1278 102.26 89.3599C102.542 89.592 102.527 90.1266 102.774 90.3798C103.02 90.633 103.576 90.6119 103.794 90.8933C104.012 91.1747 103.85 91.7022 104.026 92.0117C104.202 92.3212 104.729 92.4408 104.877 92.7714C105.025 93.102 104.722 93.5662 104.814 93.9109C104.905 94.2556 105.39 94.5088 105.44 94.8605C105.489 95.2122 105.081 95.5639 105.081 95.9508C105.081 96.3376 105.517 96.6823 105.44 97.034ZM116.694 73.5755C116.694 73.1253 117.193 72.647 117.137 72.2108C117.081 71.7747 116.434 71.4301 116.356 71.008C116.279 70.586 116.603 69.9811 116.434 69.6012C116.265 69.2214 115.583 69.0244 115.365 68.6376C115.147 68.2507 115.365 67.5895 115.062 67.2308C114.76 66.872 114.098 66.8931 113.782 66.5766C113.465 66.26 113.487 65.5707 113.135 65.2964C112.783 65.0221 112.115 65.226 111.728 65.0009C111.341 64.7759 111.179 64.1006 110.771 63.9318C110.363 63.763 109.766 64.1217 109.365 64.0091C108.964 63.8966 108.605 63.3057 108.155 63.2213C107.705 63.1369 107.24 63.6715 106.79 63.6715C106.34 63.6715 105.862 63.1651 105.425 63.2213C104.989 63.2776 104.645 63.9247 104.223 64.0091C103.801 64.0936 103.196 63.763 102.816 63.9318C102.436 64.1006 102.239 64.7759 101.852 65.0009C101.465 65.226 100.804 65.001 100.445 65.2964C100.087 65.5918 100.115 66.2671 99.7982 66.5766C99.4817 66.8861 98.7924 66.879 98.518 67.2308C98.2437 67.5825 98.4407 68.2507 98.2226 68.6376C98.0046 69.0244 97.3223 69.1792 97.1534 69.5942C96.9846 70.0092 97.3434 70.593 97.2238 71.001C97.1042 71.409 96.5204 71.7607 96.443 72.2038C96.3656 72.647 96.8932 73.1182 96.8932 73.5684C96.8932 74.0186 96.3867 74.504 96.443 74.9401C96.4993 75.3762 97.1464 75.7138 97.2308 76.1429C97.3152 76.572 96.9776 77.1699 97.1534 77.5497C97.3293 77.9295 97.9975 78.1265 98.2226 78.5063C98.4477 78.8862 98.2226 79.5614 98.518 79.9131C98.8135 80.2648 99.4887 80.2508 99.7982 80.5603C100.108 80.8698 100.094 81.5732 100.452 81.8475C100.811 82.1218 101.472 81.9178 101.859 82.1429C102.246 82.368 102.408 83.0433 102.823 83.2121C103.238 83.3809 103.822 83.0222 104.23 83.1347C104.638 83.2473 104.989 83.8382 105.433 83.9155C105.876 83.9929 106.347 83.4724 106.797 83.4724C107.247 83.4724 107.726 83.9718 108.162 83.9155C108.598 83.8593 108.943 83.2473 109.372 83.1347C109.801 83.0222 110.399 83.3809 110.778 83.2121C111.158 83.0433 111.355 82.361 111.735 82.1429C112.115 81.9249 112.79 82.1429 113.142 81.8405C113.494 81.538 113.479 80.8768 113.789 80.5603C114.098 80.2437 114.802 80.2648 115.069 79.9131C115.336 79.5614 115.147 78.8932 115.372 78.5063C115.597 78.1195 116.272 77.9577 116.441 77.5497C116.61 77.1417 116.244 76.5438 116.363 76.1429C116.483 75.7419 117.067 75.3832 117.144 74.9401C117.222 74.4969 116.666 74.0608 116.666 73.5755H116.694ZM117.869 113.451C117.869 113.001 118.368 112.523 118.312 112.087C118.256 111.651 117.644 111.306 117.531 110.877C117.419 110.448 117.777 109.857 117.608 109.47C117.44 109.083 116.757 108.9 116.539 108.514C116.321 108.127 116.539 107.458 116.237 107.107C115.934 106.755 115.273 106.776 114.957 106.46C114.64 106.143 114.661 105.447 114.309 105.179C113.958 104.912 113.29 105.102 112.903 104.877C112.516 104.652 112.354 103.984 111.946 103.808C111.538 103.632 110.94 104.005 110.539 103.885C110.138 103.766 109.78 103.182 109.329 103.104C108.879 103.027 108.415 103.555 107.965 103.555C107.515 103.555 107.036 103.048 106.6 103.104C106.164 103.161 105.819 103.773 105.397 103.885C104.975 103.998 104.37 103.639 103.991 103.808C103.611 103.977 103.414 104.659 103.027 104.877C102.64 105.095 101.979 104.877 101.62 105.179C101.261 105.482 101.282 106.143 100.966 106.46C100.649 106.776 99.96 106.755 99.6857 107.107C99.4114 107.458 99.6083 108.127 99.3903 108.514C99.1722 108.9 98.4899 109.062 98.3211 109.477C98.1523 109.892 98.511 110.476 98.3985 110.884C98.2859 111.292 97.6951 111.637 97.6107 112.087C97.5262 112.537 98.0608 113.001 98.0608 113.451C98.0608 113.902 97.5544 114.38 97.6107 114.816C97.6669 115.252 98.2789 115.597 98.3985 116.026C98.5181 116.455 98.1523 117.046 98.3211 117.433C98.4899 117.82 99.1652 118.003 99.3903 118.389C99.6154 118.776 99.3903 119.445 99.6857 119.796C99.9811 120.148 100.656 120.127 100.966 120.443C101.275 120.76 101.268 121.456 101.62 121.724C101.972 121.991 102.64 121.801 103.027 122.026C103.414 122.251 103.569 122.919 103.984 123.095C104.399 123.271 104.982 122.898 105.39 123.018C105.798 123.137 106.15 123.721 106.593 123.799C107.036 123.876 107.508 123.348 107.958 123.348C108.408 123.348 108.893 123.855 109.329 123.799C109.766 123.742 110.103 123.095 110.532 123.018C110.961 122.94 111.559 123.264 111.939 123.095C112.319 122.926 112.516 122.244 112.896 122.026C113.275 121.808 113.951 122.026 114.302 121.724C114.654 121.421 114.64 120.76 114.95 120.443C115.259 120.127 115.962 120.148 116.237 119.796C116.511 119.445 116.307 118.776 116.532 118.389C116.757 118.003 117.433 117.841 117.601 117.426C117.77 117.011 117.412 116.427 117.524 116.019C117.637 115.611 118.227 115.266 118.305 114.816C118.382 114.366 117.869 113.93 117.869 113.451ZM97.3504 119.121C97.3504 118.818 97.8639 118.495 97.8217 118.207C97.7795 117.918 97.2027 117.728 97.1183 117.447C97.0339 117.165 97.4559 116.708 97.3434 116.434C97.2308 116.16 96.64 116.139 96.4782 115.885C96.3164 115.632 96.6048 115.083 96.4289 114.851C96.2531 114.619 95.6552 114.753 95.4442 114.542C95.2331 114.331 95.3668 113.74 95.1347 113.564C94.9025 113.388 94.3609 113.663 94.1077 113.515C93.8545 113.367 93.8263 112.762 93.552 112.65C93.2777 112.537 92.8486 112.945 92.5461 112.868C92.2437 112.79 92.0819 112.214 91.7865 112.164C91.491 112.115 91.1675 112.643 90.872 112.643C90.5766 112.643 90.246 112.129 89.9576 112.164C89.6692 112.199 89.4793 112.79 89.1979 112.868C88.9166 112.945 88.4593 112.537 88.1921 112.65C87.9248 112.762 87.8896 113.353 87.6364 113.515C87.3831 113.677 86.8415 113.388 86.6094 113.564C86.3773 113.74 86.5039 114.338 86.2999 114.549C86.0959 114.76 85.491 114.626 85.3151 114.858C85.1393 115.09 85.4136 115.632 85.2659 115.885C85.1182 116.139 84.5132 116.167 84.4007 116.441C84.2882 116.715 84.6961 117.144 84.6258 117.447C84.5555 117.749 83.9646 117.911 83.9224 118.207C83.8802 118.502 84.3937 118.818 84.3937 119.121C84.3937 119.423 83.8802 119.747 83.9224 120.035C83.9646 120.324 84.5414 120.514 84.6258 120.795C84.7102 121.076 84.2882 121.498 84.4007 121.801C84.5132 122.103 85.1041 122.103 85.2729 122.357C85.4417 122.61 85.1393 123.151 85.3151 123.384C85.491 123.616 86.0889 123.489 86.2999 123.693C86.5109 123.897 86.3773 124.495 86.6094 124.678C86.8415 124.861 87.3831 124.572 87.6364 124.72C87.8896 124.868 87.9177 125.48 88.1921 125.592C88.4664 125.705 88.8955 125.29 89.1979 125.367C89.5004 125.445 89.6622 126.028 89.9576 126.071C90.253 126.113 90.5766 125.592 90.872 125.592C91.1675 125.592 91.4981 126.106 91.7865 126.071C92.0749 126.035 92.2648 125.452 92.5461 125.367C92.8275 125.283 93.2847 125.705 93.552 125.592C93.8193 125.48 93.8545 124.889 94.1077 124.72C94.3609 124.551 94.9025 124.854 95.1347 124.678C95.3668 124.502 95.2402 123.897 95.4442 123.693C95.6481 123.489 96.2531 123.616 96.4289 123.384C96.6048 123.151 96.3305 122.61 96.4782 122.357C96.6259 122.103 97.2308 122.075 97.3434 121.801C97.4559 121.527 97.0479 121.098 97.1253 120.795C97.2027 120.493 97.7795 120.331 97.8287 120.035C97.878 119.74 97.3504 119.445 97.3504 119.149V119.121ZM119.043 37.5259C119.043 37.0758 119.55 36.5974 119.494 36.1613C119.437 35.7252 118.825 35.3805 118.713 34.9515C118.6 34.5224 118.959 33.9315 118.79 33.5447C118.621 33.1578 117.939 32.9679 117.721 32.581C117.503 32.1941 117.721 31.5259 117.419 31.1742C117.116 30.8225 116.455 30.8436 116.138 30.5271C115.822 30.2105 115.843 29.5141 115.491 29.2469C115.14 28.9796 114.471 29.1695 114.084 28.9444C113.698 28.7193 113.536 28.0511 113.121 27.8752C112.706 27.6994 112.122 28.0722 111.714 27.9526C111.306 27.833 110.961 27.2492 110.511 27.1718C110.061 27.0944 109.597 27.622 109.147 27.622C108.696 27.622 108.218 27.1155 107.782 27.1718C107.346 27.2281 107.001 27.8752 106.572 27.9526C106.143 28.03 105.552 27.7064 105.165 27.8752C104.778 28.044 104.595 28.7263 104.209 28.9444C103.822 29.1625 103.153 28.9444 102.802 29.2469C102.45 29.5493 102.471 30.2105 102.155 30.5271C101.838 30.8436 101.142 30.8225 100.874 31.1742C100.607 31.5259 100.797 32.1941 100.572 32.581C100.347 32.9679 99.6787 33.1297 99.5028 33.5447C99.327 33.9597 99.6998 34.5435 99.5802 34.9515C99.4606 35.3594 98.8768 35.7041 98.7994 36.1543C98.722 36.6045 99.2496 37.0687 99.2496 37.5189C99.2496 37.9691 98.7431 38.4474 98.7994 38.8835C98.8557 39.3196 99.4676 39.6643 99.5802 40.0934C99.6927 40.5224 99.334 41.1133 99.5028 41.5002C99.6716 41.887 100.354 42.0699 100.572 42.4568C100.79 42.8437 100.572 43.5119 100.874 43.8636C101.177 44.2153 101.838 44.1942 102.155 44.5107C102.471 44.8273 102.45 45.5237 102.802 45.791C103.153 46.0582 103.822 45.8683 104.209 46.0934C104.595 46.3185 104.757 46.9867 105.172 47.1626C105.587 47.3384 106.171 46.9656 106.579 47.0852C106.987 47.2048 107.332 47.7886 107.782 47.866C108.232 47.9434 108.696 47.4158 109.147 47.4158C109.597 47.4158 110.075 47.9223 110.511 47.866C110.947 47.8097 111.292 47.1978 111.721 47.0852C112.15 46.9727 112.741 47.3314 113.128 47.1626C113.515 46.9938 113.698 46.3115 114.084 46.0934C114.471 45.8754 115.14 46.0934 115.491 45.791C115.843 45.4885 115.822 44.8273 116.138 44.5107C116.455 44.1942 117.151 44.2153 117.419 43.8636C117.686 43.5119 117.496 42.8437 117.721 42.4568C117.946 42.0699 118.614 41.9082 118.79 41.4932C118.966 41.0781 118.593 40.4943 118.713 40.0863C118.832 39.6784 119.416 39.3337 119.494 38.8835C119.571 38.4333 119.043 37.9832 119.043 37.533V37.5259ZM137.219 55.6949C137.219 55.2447 137.719 54.7664 137.663 54.3303C137.606 53.8942 136.994 53.5495 136.882 53.1275C136.769 52.7054 137.128 52.1005 136.959 51.7207C136.79 51.3408 136.108 51.1439 135.89 50.757C135.672 50.3701 135.89 49.7089 135.588 49.3502C135.285 48.9914 134.624 49.0126 134.307 48.696C133.991 48.3795 134.012 47.6901 133.66 47.4158C133.308 47.1415 132.64 47.3455 132.253 47.1204C131.867 46.8953 131.705 46.22 131.297 46.0512C130.889 45.8824 130.291 46.2411 129.89 46.1286C129.489 46.016 129.13 45.4252 128.687 45.3408C128.244 45.2564 127.766 45.791 127.315 45.791C126.865 45.791 126.387 45.2845 125.951 45.3408C125.515 45.3971 125.17 46.0442 124.748 46.1286C124.326 46.213 123.721 45.8824 123.341 46.0512C122.961 46.22 122.764 46.8953 122.378 47.1204C121.991 47.3455 121.329 47.1204 120.971 47.4158C120.612 47.7112 120.633 48.3865 120.317 48.696C120 49.0055 119.311 48.9985 119.036 49.3502C118.762 49.7019 118.959 50.3701 118.741 50.757C118.523 51.1439 117.841 51.2986 117.672 51.7136C117.503 52.1286 117.862 52.7125 117.749 53.1204C117.637 53.5284 117.046 53.8801 116.961 54.3233C116.877 54.7664 117.412 55.2377 117.412 55.6879C117.412 56.138 116.905 56.6234 116.961 57.0947C117.018 57.566 117.63 57.8684 117.749 58.2975C117.869 58.7266 117.503 59.3245 117.672 59.7043C117.841 60.0841 118.516 60.2811 118.741 60.6609C118.966 61.0408 118.741 61.7161 119.036 62.0678C119.332 62.4195 120.007 62.4054 120.317 62.7149C120.626 63.0244 120.619 63.7278 120.971 64.0021C121.322 64.2765 121.991 64.0725 122.378 64.2975C122.764 64.5226 122.919 65.1979 123.334 65.3667C123.749 65.5355 124.333 65.1768 124.741 65.2893C125.149 65.4019 125.501 65.9928 125.944 66.0701C126.387 66.1475 126.858 65.627 127.308 65.627C127.759 65.627 128.244 66.1264 128.68 66.0701C129.116 66.0139 129.454 65.4019 129.883 65.2893C130.312 65.1768 130.91 65.5355 131.29 65.3667C131.67 65.1979 131.867 64.5156 132.246 64.2975C132.626 64.0795 133.301 64.2975 133.653 63.9951C134.005 63.6926 133.991 63.0314 134.3 62.7149C134.61 62.3983 135.313 62.4195 135.588 62.0678C135.862 61.7161 135.658 61.0478 135.883 60.6609C136.108 60.2741 136.783 60.1123 136.952 59.7043C137.121 59.2963 136.762 58.6984 136.875 58.2975C136.987 57.8966 137.578 57.5378 137.656 57.0947C137.733 56.6515 137.219 56.1591 137.219 55.7019V55.6949Z" fill="white"/>
<path d="M87.4322 134.034L88.417 133.872L90.0349 133.605L88.9516 130.791L90.682 132.086V129.708L93.2776 130.573L95.233 127.971L96.0982 129.708L97.6105 126.24L98.4757 129.708L100.86 127.76V131.22L104.11 129.49L104.321 131.22L106.488 128.189L107.142 131.002L109.09 129.054L108.872 131.438L112.122 129.926L110.602 132.522L113.416 132.304L112.122 134.252H118.832L114.281 134.906L122.511 136.2L92.6304 136.848L96.7453 134.906L82.4521 135.117L87.4322 134.034Z" fill="#263238"/>
<path opacity="0.7" d="M87.4322 134.034L88.417 133.872L90.0349 133.605L88.9516 130.791L90.682 132.086V129.708L93.2776 130.573L95.233 127.971L96.0982 129.708L97.6105 126.24L98.4757 129.708L100.86 127.76V131.22L104.11 129.49L104.321 131.22L106.488 128.189L107.142 131.002L109.09 129.054L108.872 131.438L112.122 129.926L110.602 132.522L113.416 132.304L112.122 134.252H118.832L114.281 134.906L122.511 136.2L92.6304 136.848L96.7453 134.906L82.4521 135.117L87.4322 134.034Z" fill="white"/>
</svg>
