<svg width="213" height="135" viewBox="0 0 213 135" fill="none" xmlns="http://www.w3.org/2000/svg">
<path d="M4.65865 36.2335C3.79002 29.6277 9.5637 22.9246 16.2333 22.8092C19.4254 22.7545 22.6722 23.9785 25.7519 23.1342C32.3729 21.3119 33.5301 11.7842 39.4739 8.3431C43.5832 5.96499 49.1655 7.33779 52.476 10.7394C55.7866 14.1411 57.0774 19.1129 56.962 23.857C56.6582 35.8478 47.3037 47.0125 35.5468 49.3845C23.7899 51.7566 6.29569 47.629 4.63132 35.9754" fill="#FFF1DD"/>
<path d="M81.916 11.3C82.6756 6.57849 79.4639 2.13512 74.7424 1.37548C70.0208 0.615829 65.5775 3.82756 64.8178 8.54908C64.0582 13.2706 67.2699 17.714 71.9914 18.4736C76.713 19.2333 81.1563 16.0215 81.916 11.3Z" fill="#FFF1DD"/>
<path d="M201.751 41.9586C201.56 41.9103 201.366 41.8748 201.17 41.8523C200.804 41.8094 200.433 41.8165 200.068 41.8736C196.077 42.153 192.335 45.4423 191.886 49.4666C191.37 54.1286 195.369 58.7937 200.056 58.9972C204.742 59.2007 209.131 54.9001 209.022 50.2107C208.93 46.235 205.626 42.6876 201.751 41.9586Z" fill="#FFF1DD"/>
<path d="M211.938 134.565C211.938 134.611 165.56 134.644 108.37 134.644C51.18 134.644 4.80225 134.611 4.80225 134.565C4.80225 134.52 51.1709 134.486 108.385 134.486C165.6 134.486 211.938 134.523 211.938 134.565Z" fill="#263238"/>
<path d="M87.6463 121.849C87.9688 121.924 88.2728 122.064 88.54 122.259C88.8072 122.455 89.0322 122.703 89.2014 122.988C89.538 123.559 89.7386 124.2 89.7875 124.862C89.9212 126.134 89.4838 127.543 88.9493 128.701C87.704 128.017 87.127 126.48 86.8627 125.682C86.4679 124.418 86.5195 121.894 87.6463 121.849Z" fill="#FF9500"/>
<path d="M90.6138 130.484C90.4648 130.144 90.4079 129.771 90.449 129.403C90.4901 129.034 90.6276 128.683 90.8477 128.385C91.0736 128.091 91.3556 127.846 91.6773 127.662C91.999 127.479 92.354 127.361 92.7216 127.316C92.8882 127.277 93.0613 127.274 93.2287 127.31C93.3962 127.345 93.5538 127.416 93.6905 127.519C93.8002 127.636 93.8773 127.779 93.9141 127.935C93.9509 128.09 93.9461 128.253 93.9001 128.406C93.7997 128.711 93.6218 128.984 93.3837 129.199C92.6032 129.964 91.7072 130.566 90.6138 130.484Z" fill="#FF9500"/>
<path d="M90.1129 134.581C90.0968 134.494 90.0897 134.407 90.0916 134.319C90.0916 134.131 90.0764 133.891 90.0673 133.603C90.0157 132.809 90.0926 132.012 90.2951 131.243C90.5115 130.471 90.9311 129.771 91.51 129.217C91.6859 129.053 91.8806 128.91 92.0901 128.792C92.1465 128.758 92.2054 128.729 92.2662 128.704C92.3057 128.685 92.327 128.676 92.33 128.679C92.0519 128.848 91.7914 129.045 91.5525 129.265C91.0012 129.825 90.6 130.514 90.3862 131.27C90.1865 132.031 90.1026 132.817 90.1372 133.603C90.1372 133.906 90.1372 134.149 90.1372 134.319C90.1375 134.407 90.1294 134.494 90.1129 134.581Z" fill="#263238"/>
<path d="M87.7835 123.78C87.7996 123.814 87.8119 123.85 87.8199 123.887C87.8442 123.969 87.8716 124.075 87.908 124.19C87.9839 124.467 88.0902 124.865 88.2117 125.36C88.4638 126.347 88.7918 127.713 89.1229 129.235C89.4539 130.757 89.7151 132.136 89.8943 133.141C89.9824 133.642 90.0523 134.052 90.0948 134.328C90.116 134.462 90.1312 134.571 90.1434 134.653C90.1461 134.692 90.1461 134.73 90.1434 134.769C90.1288 134.733 90.1186 134.695 90.113 134.656C90.0948 134.574 90.0735 134.468 90.0462 134.334C89.9915 134.046 89.9126 133.642 89.8184 133.153C89.624 132.154 89.3476 130.772 89.0227 129.253C88.6977 127.735 88.3757 126.365 88.1419 125.375C88.0265 124.886 87.9323 124.488 87.8655 124.199L87.7926 123.896C87.7853 123.858 87.7822 123.819 87.7835 123.78Z" fill="#263238"/>
<path d="M88.9738 131.634C88.6818 130.91 88.2215 130.266 87.6311 129.754C87.0406 129.243 86.337 128.88 85.5783 128.694C85.1925 128.603 84.7127 128.594 84.4818 128.919C84.251 129.244 84.4211 129.694 84.6398 130.025C85.1114 130.707 85.7743 131.234 86.5451 131.54C87.3158 131.846 88.1598 131.917 88.9708 131.744" fill="#FF9500"/>
<path d="M86.0064 129.836C86.0888 129.843 86.1703 129.858 86.2494 129.882C86.3439 129.903 86.4371 129.93 86.5288 129.961C86.6382 130 86.7627 130.031 86.8933 130.092C87.0385 130.148 87.1805 130.213 87.3185 130.286C87.4784 130.366 87.6336 130.455 87.7832 130.553C88.128 130.778 88.4459 131.042 88.7308 131.34C89.0114 131.642 89.256 131.975 89.4597 132.333C89.5469 132.489 89.625 132.651 89.6936 132.816C89.7559 132.959 89.8106 133.105 89.8576 133.253C89.8966 133.376 89.929 133.501 89.9548 133.627C89.9805 133.72 89.9987 133.816 90.0094 133.912C90.0269 133.993 90.0361 134.076 90.0368 134.158C90.0155 134.158 89.976 133.809 89.7938 133.275C89.745 133.129 89.6883 132.986 89.6237 132.846C89.5534 132.685 89.4733 132.527 89.3838 132.376C89.1811 132.026 88.9397 131.699 88.664 131.404C88.3889 131.113 88.0835 130.852 87.7528 130.626C87.6059 130.527 87.4538 130.436 87.2972 130.353C87.1545 130.271 87.0117 130.21 86.8842 130.152C86.3466 129.928 86.0004 129.855 86.0064 129.836Z" fill="#263238"/>
<path d="M184.366 131.373C184.481 130.93 184.189 130.484 183.861 130.159C183.533 129.834 183.142 129.551 182.972 129.12C182.695 128.427 183.066 127.531 182.595 126.954C182.319 126.614 181.824 126.499 181.578 126.137C181.464 125.936 181.389 125.716 181.356 125.487C181.093 124.337 180.527 123.279 179.716 122.423C179.663 123.448 179.885 124.468 180.36 125.378C180.582 125.727 180.745 126.111 180.843 126.514C180.946 127.173 180.578 127.85 180.739 128.497C180.925 129.235 181.754 129.73 181.793 130.49C181.827 131.133 181.265 131.704 181.307 132.342C181.342 132.615 181.44 132.876 181.593 133.105C181.814 133.53 182.15 133.884 182.563 134.127C182.976 134.371 183.449 134.493 183.928 134.48L185.286 134.529L184.366 131.373Z" fill="#FF9500"/>
<g opacity="0.3">
<path d="M184.366 131.373C184.481 130.93 184.189 130.484 183.861 130.159C183.533 129.834 183.142 129.551 182.972 129.12C182.695 128.427 183.066 127.531 182.595 126.954C182.319 126.614 181.824 126.499 181.578 126.137C181.464 125.936 181.389 125.716 181.356 125.487C181.093 124.337 180.527 123.279 179.716 122.423C179.663 123.448 179.885 124.468 180.36 125.378C180.582 125.727 180.745 126.111 180.843 126.514C180.946 127.173 180.578 127.85 180.739 128.497C180.925 129.235 181.754 129.73 181.793 130.49C181.827 131.133 181.265 131.704 181.307 132.342C181.342 132.615 181.44 132.876 181.593 133.105C181.814 133.53 182.15 133.884 182.563 134.127C182.976 134.371 183.449 134.493 183.928 134.48L185.286 134.529L184.366 131.373Z" fill="black"/>
</g>
<path d="M185.559 134.559C185.683 134.581 185.809 134.581 185.933 134.559C186.083 134.537 186.23 134.501 186.373 134.45C186.57 134.379 186.754 134.277 186.917 134.146C187.016 134.066 187.094 133.961 187.141 133.842C187.182 133.711 187.203 133.575 187.205 133.438C187.208 133.291 187.219 133.144 187.239 132.998C187.263 132.844 187.319 132.696 187.403 132.564C187.622 132.284 187.794 131.97 187.913 131.634C187.979 131.24 187.967 130.836 187.876 130.447C187.778 130.026 187.79 129.586 187.91 129.171C188.056 128.749 188.35 128.363 188.499 127.886C188.648 127.41 188.578 126.884 188.611 126.368C188.62 126.108 188.68 125.852 188.788 125.615C188.897 125.375 189.049 125.15 189.167 124.898C189.374 124.368 189.492 123.808 189.517 123.239C189.55 122.954 189.583 122.665 189.614 122.374C189.634 122.08 189.685 121.789 189.766 121.505C189.856 121.219 189.964 120.939 190.091 120.667C190.154 120.524 190.206 120.377 190.249 120.227C190.273 120.069 190.282 119.923 190.291 119.762C190.306 119.449 190.294 119.135 190.255 118.823C190.218 118.52 190.16 118.198 190.127 117.885V117.83V117.77L190.072 117.797C189.785 117.94 189.534 118.148 189.34 118.404C189.153 118.657 189.003 118.935 188.894 119.23C188.699 119.808 188.558 120.403 188.472 121.007C188.385 121.583 188.196 122.138 187.913 122.647C187.764 122.887 187.585 123.109 187.427 123.343C187.259 123.573 187.143 123.837 187.09 124.117C187.011 124.691 187.327 125.195 187.26 125.703C187.231 125.953 187.147 126.193 187.014 126.407C186.889 126.623 186.747 126.823 186.607 127.015C186.467 127.211 186.346 127.421 186.246 127.64C186.149 127.855 186.092 128.086 186.078 128.321C186.045 128.776 186.109 129.211 186.078 129.621C186.041 130.011 185.928 130.389 185.744 130.735C185.58 131.069 185.398 131.37 185.246 131.646C185.17 131.788 185.101 131.932 185.04 132.081C184.985 132.219 184.946 132.362 184.921 132.509C184.884 132.766 184.884 133.027 184.921 133.283C184.958 133.642 185.093 133.983 185.31 134.271C185.344 134.312 185.381 134.352 185.419 134.389C185.447 134.417 185.478 134.443 185.511 134.465L185.586 134.52C185.491 134.442 185.403 134.354 185.325 134.258C185.114 133.972 184.986 133.632 184.955 133.277C184.925 133.024 184.931 132.767 184.973 132.515C185 132.372 185.04 132.231 185.094 132.096C185.156 131.951 185.225 131.809 185.301 131.671C185.453 131.367 185.638 131.081 185.805 130.744C185.994 130.393 186.111 130.008 186.151 129.612C186.188 129.192 186.124 128.755 186.151 128.309C186.166 128.082 186.221 127.859 186.315 127.653C186.415 127.439 186.535 127.236 186.674 127.045C186.81 126.845 186.956 126.644 187.084 126.422C187.222 126.2 187.31 125.95 187.342 125.691C187.409 125.147 187.096 124.64 187.175 124.108C187.228 123.84 187.34 123.587 187.503 123.367C187.655 123.136 187.837 122.918 187.989 122.669C188.279 122.152 188.473 121.587 188.56 121.001C188.647 120.403 188.788 119.813 188.979 119.24C189.086 118.952 189.234 118.681 189.416 118.435C189.6 118.187 189.839 117.985 190.115 117.845L190.054 117.809V117.864C190.088 118.183 190.145 118.492 190.182 118.802C190.218 119.104 190.229 119.409 190.215 119.713C190.211 119.865 190.198 120.016 190.176 120.166C190.136 120.311 190.086 120.454 190.024 120.591C189.896 120.866 189.787 121.149 189.696 121.438C189.614 121.726 189.563 122.021 189.544 122.319C189.51 122.623 189.477 122.902 189.447 123.188C189.423 123.746 189.308 124.297 189.107 124.819C188.994 125.065 188.842 125.293 188.727 125.542C188.617 125.788 188.556 126.053 188.548 126.322C188.517 126.845 188.584 127.358 188.444 127.82C188.305 128.281 188.007 128.667 187.858 129.104C187.736 129.53 187.726 129.98 187.828 130.41C187.918 130.792 187.933 131.188 187.873 131.577C187.756 131.905 187.586 132.212 187.372 132.488C187.287 132.626 187.23 132.78 187.205 132.94C187.187 133.087 187.176 133.235 187.175 133.384C187.175 133.517 187.156 133.65 187.117 133.779C187.072 133.889 187 133.987 186.908 134.064C186.748 134.194 186.569 134.296 186.376 134.368C186.235 134.42 186.09 134.459 185.942 134.483C185.851 134.502 185.758 134.511 185.665 134.51L185.559 134.559Z" fill="#263238"/>
<path d="M189.833 118.581C189.832 118.595 189.832 118.609 189.833 118.623L189.802 118.745C189.775 118.851 189.745 119.012 189.693 119.215C189.641 119.419 189.517 119.641 189.41 119.923C189.286 120.237 189.179 120.557 189.089 120.883C188.985 121.247 188.894 121.648 188.785 122.076C188.703 122.537 188.557 122.984 188.35 123.404C188.241 123.622 188.114 123.847 188.016 124.09C187.918 124.34 187.852 124.601 187.819 124.868C187.747 125.419 187.646 125.967 187.515 126.508C187.245 127.619 186.984 128.679 186.75 129.642C186.516 130.605 186.288 131.464 186.106 132.199C185.924 132.934 185.781 133.508 185.681 133.924C185.632 134.122 185.596 134.28 185.568 134.392L185.541 134.517C185.54 134.531 185.54 134.545 185.541 134.559C185.541 134.559 185.541 134.544 185.556 134.517L185.593 134.398C185.623 134.283 185.666 134.128 185.72 133.93C185.827 133.517 185.981 132.934 186.173 132.214C186.364 131.495 186.583 130.62 186.832 129.663C187.081 128.707 187.333 127.64 187.606 126.529C187.736 125.985 187.838 125.434 187.91 124.88C187.942 124.62 188.005 124.365 188.098 124.12C188.196 123.883 188.317 123.662 188.429 123.437C188.635 123.012 188.78 122.56 188.861 122.095C188.955 121.663 189.043 121.262 189.14 120.901C189.237 120.54 189.347 120.218 189.444 119.938C189.541 119.659 189.663 119.431 189.711 119.221C189.76 119.012 189.784 118.857 189.805 118.748L189.833 118.617C189.833 118.596 189.833 118.581 189.833 118.581Z" fill="#263238"/>
<path d="M185.799 134.562C186.686 134.037 186.938 132.436 186.571 131.476C186.203 130.517 185.553 129.636 185.453 128.609C185.377 127.82 185.635 127.012 185.453 126.24C185.207 125.202 184.193 124.397 184.202 123.328C184.202 122.72 184.551 122.161 184.524 121.563C184.49 120.828 183.916 120.245 183.576 119.598C183.041 118.605 183.008 117.436 182.823 116.324C182.638 115.212 182.215 114.022 181.231 113.475C181.089 114.42 180.84 115.067 180.928 116.342C180.958 116.804 181.489 117.682 181.562 118.687C181.605 119.294 181.635 119.902 181.672 120.491C181.679 121.079 181.775 121.663 181.957 122.222C182.118 122.641 182.376 123.024 182.495 123.455C182.72 124.272 182.425 125.156 182.607 125.982C182.759 126.681 183.245 127.282 183.342 127.993C183.482 128.989 182.838 130.025 183.166 130.975C183.33 131.449 183.719 131.829 183.828 132.315C183.916 132.694 183.828 133.092 183.898 133.472C184.022 134.079 185.192 134.559 185.814 134.523" fill="#FF9500"/>
<path d="M181.474 114.414C181.474 114.414 181.474 114.432 181.474 114.465L181.495 114.62C181.514 114.757 181.538 114.957 181.583 115.228C181.629 115.498 181.766 115.78 181.887 116.139C182.009 116.497 182.112 116.898 182.212 117.354C182.312 117.809 182.397 118.31 182.486 118.851C182.556 119.435 182.709 120.005 182.941 120.546C183.063 120.831 183.202 121.114 183.309 121.414C183.41 121.725 183.472 122.048 183.494 122.374C183.544 123.066 183.631 123.754 183.755 124.436C184.025 125.833 184.284 127.17 184.52 128.385C184.757 129.599 184.991 130.678 185.179 131.595C185.368 132.512 185.523 133.241 185.632 133.757C185.684 134.006 185.726 134.204 185.757 134.344L185.793 134.495L185.808 134.547C185.81 134.53 185.81 134.513 185.808 134.495L185.781 134.341C185.754 134.201 185.717 134 185.672 133.748C185.568 133.232 185.422 132.494 185.246 131.583C185.07 130.672 184.83 129.551 184.59 128.336C184.35 127.121 184.101 125.794 183.831 124.388C183.709 123.707 183.621 123.021 183.57 122.332C183.547 121.999 183.482 121.67 183.378 121.354C183.269 121.05 183.129 120.761 183.005 120.482C182.775 119.947 182.621 119.383 182.546 118.805C182.455 118.265 182.367 117.761 182.261 117.305C182.169 116.895 182.056 116.489 181.924 116.09C181.811 115.738 181.672 115.446 181.62 115.179C181.568 114.912 181.541 114.72 181.514 114.587C181.514 114.523 181.492 114.474 181.486 114.435C181.483 114.428 181.479 114.42 181.474 114.414Z" fill="#263238"/>
<path d="M159.935 94.4805H25.0625V107.959H159.935V94.4805Z" fill="#FF9500"/>
<g opacity="0.4">
<path d="M159.935 94.4805H25.0625V107.959H159.935V94.4805Z" fill="black"/>
</g>
<path d="M130.714 109.66H90.9023V122.143H130.714V109.66Z" fill="#455A64"/>
<path d="M63.082 104.014V120.515H76.6765L82.1252 112.618H181.383V104.014H63.082Z" fill="#263238"/>
<path d="M62.2344 51.7626C62.2194 51.4973 62.101 51.2484 61.9045 51.0695C61.7079 50.8906 61.4491 50.7959 61.1835 50.8059C55.8107 51.0276 30.3045 52.1969 25.0593 54.7178C21.0441 56.6494 16.6463 63.8597 13.5453 68.7162C11.3221 72.1968 6.41097 79.9234 5.41781 83.8747C4.57651 87.2156 4.0693 94.1647 4.12701 97.6119L5.53019 115.853H28.6462L30.9605 109.827C31.699 107.908 33.0019 106.257 34.6973 105.093C36.3928 103.929 38.4012 103.306 40.4578 103.307H63.428V73.035L62.2344 51.7626Z" fill="#FF9500"/>
<path d="M22.3198 56.7373C19.1368 59.7745 15.9417 64.9377 13.5454 68.716C11.4862 71.9384 7.12477 78.7994 5.70033 82.936C5.673 83.012 5.65174 83.0849 5.62744 83.1608C6.33207 82.9664 7.41634 82.5685 7.75347 81.9004C8.26068 80.889 8.91063 77.4236 16.947 64.3424C19.3889 60.3546 21.7701 58.022 22.3198 56.7373Z" fill="#455A64"/>
<path d="M50.3593 55.3859C44.449 55.723 31.6351 56.6007 27.541 57.9918C22.2077 59.8141 16.2214 73.9339 15.939 74.5535L11.9056 84.8799C11.883 84.9474 11.8767 85.0193 11.8874 85.0897C11.898 85.1601 11.9252 85.227 11.9667 85.2848C12.0082 85.3427 12.0629 85.3898 12.1262 85.4224C12.1895 85.4549 12.2596 85.472 12.3308 85.4722H22.7574C23.1523 85.4723 23.5441 85.4023 23.9146 85.2657L51.3373 75.0425C51.9428 74.8165 52.4648 74.411 52.8334 73.8801C53.2019 73.3492 53.3995 72.7184 53.3996 72.0721V58.2621C53.3998 57.8703 53.32 57.4826 53.1652 57.1227C53.0103 56.7628 52.7837 56.4383 52.4991 56.169C52.2145 55.8998 51.8779 55.6914 51.51 55.5568C51.1421 55.4221 50.7505 55.3639 50.3593 55.3859Z" fill="#263238"/>
<path d="M13.0688 84.458C13.0688 84.458 16.9321 75.7929 18.2321 72.9531C20.1941 68.6646 24.7772 59.8933 27.8721 58.9487C30.7179 58.0952 38.9001 57.0565 50.4171 56.3975H50.5264C51.021 56.3991 51.4949 56.5965 51.8443 56.9465C52.1938 57.2965 52.3904 57.7707 52.3912 58.2653V72.3882C52.3901 72.7363 52.2832 73.0758 52.0847 73.3616C51.8861 73.6475 51.6054 73.8662 51.2796 73.9888L31.0186 76.4884C30.2064 76.5886 29.4258 76.8644 28.7309 77.2966C28.0359 77.7287 27.4434 78.3069 26.9943 78.9911L23.4833 84.3456C23.2772 84.4219 23.0592 84.461 22.8395 84.461L13.0688 84.458Z" fill="#455A64"/>
<path d="M30.2833 76.6431L23.395 84.315L27.2067 58.8422L28.1604 58.5142L26.2834 77.3842C26.2745 77.4789 26.2902 77.5744 26.3288 77.6613C26.3674 77.7483 26.4277 77.8239 26.5039 77.8809C26.5801 77.9379 26.6696 77.9744 26.764 77.9869C26.8583 77.9993 26.9543 77.9874 27.0427 77.9521L30.2833 76.6431Z" fill="#263238"/>
<path d="M3.67468 99.3824C3.65039 99.0513 3.76276 98.7749 3.93284 98.7749L7.62606 98.4347C7.92978 98.4044 8.21223 98.9784 8.24868 99.6496L8.41572 102.483C8.44306 102.939 8.30639 103.325 8.11201 103.358L4.3459 104.008C4.17582 104.038 4.01181 103.786 3.98751 103.452L3.67468 99.3824Z" fill="#EBEBEB"/>
<path d="M30.2832 112.622H3.67139V123.291H30.2832V112.622Z" fill="#263238"/>
<path d="M48.0473 134.435C56.0827 134.126 62.3465 127.362 62.0379 119.327C61.7292 111.291 54.9649 105.027 46.9294 105.336C38.8939 105.645 32.6301 112.409 32.9388 120.445C33.2475 128.48 40.0118 134.744 48.0473 134.435Z" fill="#263238"/>
<path d="M32.9407 119.634C32.9423 119.647 32.9423 119.661 32.9407 119.674C32.8898 123.532 34.3724 127.253 37.063 130.019C39.7535 132.784 43.4319 134.369 47.2901 134.425C51.1483 134.48 54.8708 133.002 57.6399 130.315C60.4089 127.628 61.998 123.951 62.0582 120.093C62.0582 120.093 62.0582 120.069 62.0582 120.056L32.9407 119.634Z" fill="#263238"/>
<path d="M37.275 119.734C37.2452 121.756 37.8157 123.742 38.9142 125.439C40.0128 127.137 41.5902 128.471 43.4468 129.272C45.3035 130.073 47.356 130.306 49.3448 129.94C51.3336 129.575 53.1694 128.628 54.6199 127.219C56.0704 125.81 57.0706 124.002 57.4938 122.025C57.917 120.048 57.7444 117.989 56.9976 116.11C56.2509 114.231 54.9637 112.615 53.2987 111.468C51.6338 110.32 49.6659 109.692 47.644 109.663C44.9336 109.624 42.3187 110.663 40.3742 112.552C38.4298 114.441 37.315 117.024 37.275 119.734Z" fill="#FAFAFA"/>
<path d="M47.6438 109.663C44.9334 109.624 42.3185 110.663 40.3741 112.552C38.4297 114.441 37.3149 117.024 37.2749 119.734L57.7182 120.038C57.7579 117.326 56.7189 114.71 54.8296 112.764C52.9403 110.819 50.3556 109.703 47.6438 109.663Z" fill="#E0E0E0"/>
<path d="M41.2717 119.792C41.2538 121.024 41.6014 122.233 42.2707 123.267C42.94 124.3 43.9008 125.112 45.0316 125.6C46.1624 126.088 47.4125 126.229 48.6237 126.006C49.8348 125.784 50.9528 125.207 51.836 124.348C52.7193 123.49 53.3282 122.389 53.5857 121.185C53.8433 119.981 53.738 118.727 53.283 117.583C52.8281 116.439 52.044 115.455 51.0299 114.756C50.0159 114.057 48.8173 113.675 47.586 113.657C45.9351 113.634 44.3425 114.267 43.1584 115.417C41.9743 116.568 41.2956 118.142 41.2717 119.792Z" fill="#263238"/>
<path d="M19.2553 64.6343H18.0677C16.7292 64.6343 15.644 65.7194 15.644 67.058V76.6949C15.644 78.0335 16.7292 79.1186 18.0677 79.1186H19.2553C20.5938 79.1186 21.6789 78.0335 21.6789 76.6949V67.058C21.6789 65.7194 20.5938 64.6343 19.2553 64.6343Z" fill="#263238"/>
<path d="M13.1475 88.0722H12.8438V72.7557C12.8446 72.0254 13.135 71.3251 13.6515 70.8087C14.1679 70.2923 14.8681 70.0018 15.5985 70.001H16.3274V70.3047H15.5985C14.9487 70.3055 14.3257 70.564 13.8662 71.0235C13.4068 71.4829 13.1483 72.1059 13.1475 72.7557V88.0722Z" fill="#263238"/>
<path d="M15.2156 88.0901L14.3713 73.7698C14.3594 73.5249 14.3971 73.2802 14.482 73.0503C14.5669 72.8203 14.6973 72.6099 14.8655 72.4315C15.0336 72.2532 15.236 72.1106 15.4606 72.0123C15.6851 71.9139 15.9272 71.8619 16.1723 71.8594V72.1631C15.9679 72.1632 15.7657 72.205 15.578 72.286C15.3903 72.367 15.2212 72.4856 15.081 72.6343C14.9408 72.7831 14.8325 72.9589 14.7626 73.151C14.6928 73.3431 14.663 73.5475 14.675 73.7515L15.5193 88.0749L15.2156 88.0901Z" fill="#263238"/>
<path d="M16.1727 86.6934H12.0786V91.4344H16.1727V86.6934Z" fill="#263238"/>
<path d="M14.6605 77.6938H12.9961V77.9976H14.6605V77.6938Z" fill="#263238"/>
<path d="M28.558 55.7959L28.9195 55.7473L29.9855 55.6228L34.1161 55.1459L49.5146 53.3935C50.3346 53.3054 51.1699 53.1961 52.0355 53.1201C52.4777 53.0864 52.9224 53.1151 53.3566 53.2052C53.7982 53.3084 54.224 53.4698 54.6231 53.685C55.4464 54.1432 56.1138 54.837 56.5396 55.6774C56.7599 56.107 56.9086 56.5697 56.98 57.0472C57.0182 57.2884 57.0395 57.532 57.0438 57.7761V58.5081C57.0438 62.4291 57.0438 66.6386 57.0438 71.1002C57.0438 80.0235 57.0438 89.949 57.0438 100.561V100.64H41.0469C40.1337 100.61 39.2196 100.654 38.3135 100.77C36.4442 101.039 34.6807 101.803 33.2049 102.981C31.7292 104.159 30.5947 105.71 29.9187 107.474C29.7875 107.797 29.6769 108.129 29.5876 108.467C29.4889 108.801 29.4108 109.141 29.3538 109.484L29.2748 110L29.2384 110.259L29.2232 110.517L29.1989 111.036V111.297V111.328C29.2657 111.261 29.1047 111.431 29.1169 111.413H8.83154V111.328C8.83154 106.751 8.83154 102.338 8.83154 98.1221C8.83154 96.0142 8.83154 93.9561 8.83154 91.9475V88.9771C8.83154 88.4881 8.83154 88.0052 8.83154 87.5223C8.84144 87.042 8.87591 86.5625 8.93481 86.0857C9.16642 84.2481 9.75008 82.4724 10.6539 80.8557C11.4901 79.2824 12.3 77.7638 13.0836 76.2999L17.3903 68.2301L20.8861 61.6789C21.1412 61.2031 21.3862 60.7424 21.6211 60.297C21.7426 60.0783 21.8489 59.8566 21.9765 59.6501C22.1022 59.4482 22.2391 59.2536 22.3865 59.0669C22.9132 58.4101 23.5333 57.834 24.227 57.357C25.1825 56.7084 26.2506 56.2438 27.3766 55.9872C27.7631 55.8945 28.156 55.8306 28.552 55.7959L28.2482 55.8414C28.0508 55.8718 27.7593 55.9234 27.3766 56.0115C26.2573 56.2762 25.1966 56.7457 24.2483 57.3965C23.5604 57.8742 22.9464 58.4503 22.426 59.1064C22.2789 59.2898 22.144 59.4826 22.022 59.6835C21.8975 59.8839 21.7912 60.1087 21.6697 60.3304L20.9378 61.7154L17.4723 68.2726C16.1724 70.7206 14.7389 73.4207 13.1899 76.3485L10.7602 80.9043C9.86475 82.5088 9.28823 84.2713 9.06237 86.0948C9.00448 86.5676 8.97103 87.043 8.96214 87.5192C8.96214 87.9961 8.96214 88.4851 8.96214 88.971V91.9414C8.96214 93.948 8.96214 96.0062 8.96214 98.116C8.96214 102.332 8.96214 106.745 8.96214 111.322L8.88621 111.249H29.0926C29.1138 111.234 28.9468 111.395 29.0167 111.322V111.288V111.027L29.044 110.499V110.237L29.0835 109.976L29.1624 109.451C29.2201 109.102 29.2993 108.757 29.3993 108.418C29.4902 108.075 29.6028 107.738 29.7365 107.41C30.4233 105.621 31.5748 104.047 33.0723 102.851C34.5697 101.655 36.3591 100.88 38.2558 100.606C39.1621 100.491 40.076 100.447 40.9892 100.476H56.9132L56.8342 100.552C56.8342 89.952 56.8342 80.0265 56.8342 71.0911C56.8342 66.6295 56.8342 62.42 56.8342 58.499C56.854 58.0172 56.8337 57.5347 56.7735 57.0563C56.7044 56.5896 56.5597 56.1372 56.3452 55.7169C55.9329 54.8954 55.2818 54.2178 54.4773 53.7731C54.0896 53.5609 53.6748 53.4025 53.2443 53.3024C52.8202 53.2129 52.3857 53.1832 51.9534 53.2143C51.0939 53.2872 50.2526 53.3965 49.4356 53.4846L34.0402 55.1885L29.9065 55.641L28.8405 55.7534L28.558 55.7959Z" fill="#263238"/>
<path d="M52.1965 89.3627C52.1965 89.3627 52.2816 89.3627 52.4334 89.3262C52.6567 89.2865 52.8696 89.2018 53.0591 89.0772C53.3578 88.8813 53.5816 88.5902 53.6938 88.251C53.7625 88.0395 53.7903 87.8169 53.7758 87.595C53.7693 87.349 53.7059 87.1078 53.5906 86.8904C53.4584 86.6415 53.2619 86.4328 53.0215 86.2858C52.781 86.1389 52.5056 86.0592 52.2238 86.0552H50.2193H45.6271C45.2447 86.0557 44.8759 86.1968 44.5909 86.4516C44.3058 86.7064 44.1244 87.0572 44.0812 87.4371C44.0334 87.7978 44.1004 88.1644 44.2725 88.4849C44.4432 88.7882 44.7105 89.0255 45.0318 89.1592C45.3495 89.2695 45.687 89.3109 46.0219 89.2807H46.9938H48.7402L51.2702 89.3049H51.9596C52.039 89.3033 52.1183 89.3094 52.1965 89.3232C52.1179 89.3327 52.0388 89.3378 51.9596 89.3384H51.2702L48.7402 89.3627H46.9938H46.0219C45.8518 89.3627 45.6878 89.3627 45.5086 89.3627C45.3264 89.349 45.1472 89.3081 44.9771 89.2412C44.6258 89.0954 44.333 88.8368 44.1449 88.5062C43.9563 88.1582 43.882 87.7598 43.9323 87.3672C43.9793 86.9503 44.1779 86.5651 44.4904 86.2851C44.8029 86.0051 45.2075 85.8497 45.6271 85.8486H50.2193H52.2238C52.662 85.8573 53.0795 86.0362 53.3879 86.3475C53.6963 86.6587 53.8714 87.0779 53.8761 87.5161C53.8857 87.7481 53.8517 87.9799 53.7758 88.1994C53.6509 88.5521 53.41 88.8519 53.0925 89.0498C52.8944 89.1732 52.6713 89.251 52.4395 89.2776C52.3623 89.3158 52.2807 89.3443 52.1965 89.3627Z" fill="#263238"/>
<path d="M51.6409 85.5479C50.7755 85.624 49.9064 85.6494 49.038 85.6238C48.1687 85.6495 47.2985 85.6241 46.4321 85.5479C47.2984 85.4697 48.1686 85.4433 49.038 85.4689C49.9064 85.4434 50.7756 85.4698 51.6409 85.5479Z" fill="white"/>
<path d="M31.4952 123.379L29.0654 123.203C29.7002 114.502 30.6296 109.296 31.9082 107.288C34.3623 103.431 36.8011 102.733 39.5012 102.274C42.016 101.846 44.552 101.946 47.0061 102.046L47.6135 102.071C52.6795 102.268 63.2914 102.092 63.4068 102.092L63.4463 104.522C63.34 104.522 52.6613 104.701 47.5285 104.5L46.921 104.476C44.5915 104.385 42.1861 104.285 39.9203 104.673C37.5058 105.083 35.8991 105.554 33.9614 108.597C33.3752 109.506 32.2757 112.661 31.4952 123.379Z" fill="#263238"/>
<path d="M184.36 24.2578H64.7007V103.929H184.36V24.2578Z" fill="#FF9500"/>
<path d="M182.926 102.353C182.926 101.84 182.902 72.6188 182.862 26.0588L182.926 26.1196L65.9945 26.1378L66.0735 26.0588C66.0735 53.1778 66.0735 78.9908 66.0735 102.353L66.0006 102.28L182.932 102.353L66.0006 102.426H65.9155V102.353C65.9155 78.9908 65.9155 53.1778 65.9155 26.0588V25.9829H66.0036L182.935 25.9981H182.999V26.0619C182.95 72.6188 182.926 101.843 182.926 102.353Z" fill="#263238"/>
<g opacity="0.5">
<path d="M81.666 66.9971L82.7958 89.7851L171.539 71.3251L169.969 47.5713L81.666 66.9971Z" fill="black"/>
</g>
<path d="M88.3906 82.778L88.9981 80.652C90.1859 81.1632 91.5043 81.2885 92.7672 81.0103C94.1248 80.7066 94.8932 80.0627 94.714 79.2822C94.3465 77.5723 89.2471 79.6254 88.5091 76.2177C88.0383 74.0188 89.6571 72.1843 92.6214 71.5495C94.058 71.2458 95.4551 71.2762 96.5151 71.671L95.9836 73.7576C94.9995 73.3875 93.928 73.3167 92.9039 73.5541C91.4673 73.8578 90.7444 74.5928 90.9085 75.3582C91.2729 77.1167 96.3906 75.0544 97.0982 78.3437C97.572 80.5608 95.9228 82.4014 92.9434 83.0392C91.2061 83.4158 89.4445 83.2488 88.3906 82.778Z" fill="white"/>
<path d="M108.582 68.3062L108.737 79.4587L106.262 79.9902L106.198 75.4496L101.354 76.4883L101.42 81.0441L98.9269 81.5634L98.772 70.4079L101.262 69.8733L101.323 74.256L106.168 73.2173L106.107 68.8346L108.582 68.3062Z" fill="white"/>
<path d="M111.115 67.7626L113.599 67.228L113.754 78.3806L111.264 78.9151L111.115 67.7626Z" fill="white"/>
<path d="M125.353 68.1996C125.936 70.9179 124.299 73.0591 121.101 73.7303L118.717 74.2406L118.762 77.3112L116.272 77.8457L116.126 66.681L120.451 65.7699C123.124 65.1837 124.903 66.0979 125.353 68.1996ZM122.893 68.9498C122.671 67.9111 121.833 67.58 120.578 67.8503L118.638 68.2664L118.686 72.1388L120.779 71.6893C122.407 71.331 123.197 70.3621 122.893 68.9407V68.9498Z" fill="white"/>
<path d="M136.378 65.8218C136.961 68.5553 135.324 70.6813 132.126 71.3525L129.745 71.8658L129.796 74.9364L127.306 75.471L127.148 64.3184L131.473 63.3891C134.155 62.815 135.935 63.7292 136.378 65.8218ZM133.918 66.5751C133.696 65.5333 132.855 65.2023 131.603 65.4726L129.663 65.8887L129.711 69.7641L131.804 69.3146C133.444 68.9623 134.228 67.9934 133.924 66.5751H133.918Z" fill="white"/>
<path d="M138.201 61.9491L140.691 61.4146L140.849 72.5701L138.359 73.1047L138.201 61.9491Z" fill="white"/>
<path d="M153.01 58.7847L153.168 69.9372L151.133 70.3746L145.711 64.5249L145.803 71.5105L143.373 72.0359L143.215 60.8803L145.262 60.4399L150.689 66.2926L150.58 59.3071L153.01 58.7847Z" fill="white"/>
<path d="M162.859 62.0736L165.122 61.5877L165.18 66.1769C164.177 67.2956 162.838 68.0596 161.365 68.3545C158.124 69.05 155.673 67.6104 155.081 64.8466C154.298 61.202 156.378 57.8611 160.427 56.9863C162.474 56.546 164.111 56.88 165.286 57.8975L163.822 59.7198C162.911 59.0182 161.963 58.8724 160.785 59.1276C158.279 59.6651 157.061 61.8124 157.566 64.1662C157.909 65.7699 159.212 66.6264 161.244 66.189C161.857 66.0637 162.435 65.8033 162.935 65.4267L162.859 62.0736Z" fill="white"/>
<path d="M99.3584 45.9128V65.8155L149.934 54.6933L149.915 35.0215L99.3584 45.9128Z" fill="#FF9500"/>
<g opacity="0.3">
<path d="M99.3584 45.9128V65.8155L149.934 54.6933L149.915 35.0215L99.3584 45.9128Z" fill="black"/>
</g>
<path d="M106.775 50.8633L106.887 55.243L112.421 53.9856L112.442 55.0061L106.918 56.2634L107.045 60.9954L105.934 61.2475L105.645 50.0949L112.959 48.4336L112.983 49.4541L106.775 50.8633Z" fill="white"/>
<path d="M121.271 54.013L124.093 57.1201L122.878 57.3964L120.187 54.4352C120.023 54.4899 119.826 54.5324 119.64 54.5749L116.603 55.2643L116.7 58.7996L115.574 59.0547L115.285 47.9052L119.124 47.0305C121.554 46.4808 123.188 47.2796 123.619 49.1839C124.117 51.3768 123.221 53.0715 121.271 54.013ZM122.517 49.5453C122.198 48.1452 121.038 47.6228 119.27 48.0267L116.436 48.6706L116.564 54.2499L119.446 53.5969C121.852 53.0472 122.994 51.6501 122.517 49.5453Z" fill="white"/>
<path d="M127.437 46.168L127.537 50.1376L133.068 48.8802L133.104 49.8825L127.57 51.1369L127.68 55.2796L134.094 53.8217L134.118 54.8422L126.589 56.5521L126.301 45.4027L133.614 43.7383L133.639 44.7588L127.437 46.168Z" fill="white"/>
<path d="M137.629 43.8539L137.73 47.8205L143.263 46.5631L143.297 47.5653L137.766 48.8227L137.872 52.9654L144.29 51.5076L144.311 52.5281L136.785 54.2289L136.481 43.0764L143.798 41.415L143.822 42.4355L137.629 43.8539Z" fill="white"/>
<path d="M155.731 45.9127L173.641 41.7184L172.934 39.811L155.731 45.9127Z" fill="#FAFAFA"/>
<path d="M75.5342 59.3161L87.9866 56.4004L87.4946 55.0762L75.5342 59.3161Z" fill="#FAFAFA"/>
<path d="M118.167 89.3204L136.078 85.1231L135.373 83.2188L118.167 89.3204Z" fill="#FAFAFA"/>
<path d="M141.909 36.3732C141.909 36.4157 132.348 38.7027 120.536 41.4787C108.725 44.2546 99.1362 46.4748 99.124 46.4323C99.1119 46.3898 108.682 44.1028 120.5 41.3268C132.317 38.5508 141.9 36.3306 141.909 36.3732Z" fill="#FAFAFA"/>
<path d="M99.2245 63.8171C99.2245 63.8596 95.1243 64.7282 90.0462 65.7487C84.968 66.7692 80.8465 67.571 80.8374 67.5285C80.8283 67.486 84.9376 66.6173 90.0158 65.5938C95.0939 64.5703 99.2154 63.7745 99.2245 63.8171Z" fill="#FAFAFA"/>
<path d="M99.3852 62.0159C99.3713 61.9634 99.3652 61.9092 99.3669 61.8549C99.3669 61.7304 99.3669 61.5786 99.3517 61.3963C99.3517 60.9742 99.3517 60.4032 99.3274 59.7076C99.3274 58.2589 99.3031 56.2999 99.291 54.1344C99.2789 51.9689 99.2485 50.0069 99.2333 48.5612C99.2333 47.8657 99.2151 47.2947 99.209 46.8725V46.4109C99.2012 46.3585 99.2012 46.3053 99.209 46.2529C99.223 46.3044 99.2301 46.3575 99.2303 46.4109C99.2303 46.5354 99.2485 46.6842 99.2606 46.8695C99.2849 47.2673 99.3092 47.8444 99.3335 48.5581C99.3851 49.9826 99.4246 51.9537 99.4398 54.1314C99.455 56.309 99.4398 58.2802 99.4398 59.7046C99.4398 60.4032 99.4216 60.9742 99.4155 61.3963C99.4155 61.5786 99.4155 61.7304 99.4003 61.8549C99.3999 61.9089 99.3948 61.9628 99.3852 62.0159Z" fill="#FAFAFA"/>
<path d="M47.6924 61.9858C47.6924 61.9858 47.656 62.0223 47.58 62.08L47.246 62.3199C46.9422 62.5295 46.5261 62.8211 45.9977 63.1825C44.9377 63.8993 43.4616 64.8772 41.8155 65.9311C40.1693 66.985 38.6659 67.9175 37.5634 68.5826C37.0167 68.9137 36.5703 69.19 36.2605 69.3601L35.9021 69.5606C35.8613 69.587 35.8174 69.6084 35.7715 69.6244C35.7715 69.6244 35.8079 69.5879 35.8839 69.5363L36.2271 69.3055L37.5057 68.4884L41.7244 65.7975L45.9278 63.0883L47.2065 62.2713L47.5588 62.0527C47.6008 62.0256 47.6456 62.0032 47.6924 61.9858Z" fill="#FAFAFA"/>
<path d="M42.502 63.3584C42.502 63.3584 42.4655 63.3948 42.3896 63.4526L42.0555 63.6925C41.7518 63.899 41.3357 64.1936 40.8042 64.552C39.7442 65.2718 38.2682 66.2468 36.625 67.2855C34.9819 68.3242 33.4755 69.2748 32.373 69.94C31.8263 70.271 31.3798 70.5474 31.07 70.7145L30.7117 70.9179C30.6715 70.9448 30.6275 70.9653 30.5811 70.9787C30.6151 70.9452 30.6528 70.9157 30.6934 70.8906L31.0366 70.6628L32.3122 69.8428L36.5339 67.1549L40.7374 64.4457L42.016 63.6257L42.3653 63.41C42.4084 63.3869 42.4544 63.3695 42.502 63.3584Z" fill="#FAFAFA"/>
<path d="M16.9321 72.1998C16.8855 72.1168 16.8537 72.0264 16.8379 71.9325C16.7893 71.7594 16.7225 71.5043 16.6466 71.1884C16.4469 70.3629 16.3449 69.5169 16.3428 68.6676C16.3385 67.8096 16.5362 66.9627 16.9199 66.1953C17.0399 65.9657 17.1845 65.7498 17.3512 65.5514C17.4074 65.4756 17.475 65.409 17.5516 65.354C17.3578 65.642 17.1793 65.94 17.0171 66.2469C16.671 67.01 16.4938 67.8388 16.4977 68.6767C16.5069 69.5156 16.5975 70.3517 16.768 71.1732C16.844 71.5117 16.8988 71.8545 16.9321 72.1998Z" fill="#FAFAFA"/>
<path d="M4.56488 93.7334C4.55389 93.6253 4.55389 93.5164 4.56488 93.4084C4.56488 93.1897 4.56488 92.8738 4.5831 92.4972C4.6074 91.7167 4.66511 90.6385 4.75926 89.4601C4.85341 88.2816 4.96579 87.2004 5.06298 86.4229C5.11157 86.0341 5.15409 85.7213 5.1875 85.5117C5.19893 85.3992 5.22235 85.2882 5.25736 85.1807C5.27261 85.2935 5.27261 85.408 5.25736 85.5208L5.17839 86.432C5.11157 87.2459 5.02046 88.2998 4.92023 89.4692C4.82 90.6385 4.75926 91.6893 4.70155 92.5063C4.67422 92.8708 4.64992 93.1776 4.6317 93.4175C4.62245 93.5251 4.60001 93.6312 4.56488 93.7334Z" fill="#FAFAFA"/>
<path d="M37.849 99.6284C37.849 99.6618 37.2629 99.7438 36.3547 100.038C35.8232 100.211 35.3045 100.421 34.8027 100.667C33.5732 101.278 32.4608 102.1 31.5165 103.097C31.1309 103.501 30.7747 103.933 30.4505 104.388C29.9007 105.168 29.6426 105.706 29.6152 105.691C29.6604 105.558 29.7173 105.43 29.7853 105.308C29.8533 105.16 29.9304 105.016 30.0161 104.877C30.1133 104.713 30.2196 104.521 30.3593 104.324C30.6738 103.854 31.0252 103.41 31.4102 102.997C31.8874 102.491 32.4066 102.027 32.9622 101.609C33.5229 101.202 34.1185 100.845 34.742 100.543C35.2513 100.298 35.7794 100.095 36.3213 99.9352C36.5491 99.8592 36.7648 99.8167 36.95 99.7712C37.1093 99.7325 37.2705 99.7021 37.4329 99.68C37.5697 99.6495 37.709 99.6323 37.849 99.6284Z" fill="#FAFAFA"/>
<path d="M67.7594 81.2929C67.7555 81.2494 67.7555 81.2057 67.7594 81.1623C67.7594 81.0691 67.7594 80.9416 67.7594 80.7796C67.7594 80.4334 67.7594 79.9383 67.7381 79.3066C67.7199 78.0188 67.6956 76.1692 67.6622 73.8882C67.5802 69.3051 67.4678 62.9908 67.3433 56.0144C67.2188 49.038 67.1125 42.7116 67.07 38.1376C67.0487 35.8506 67.0426 33.9979 67.0457 32.7192C67.0457 32.0845 67.0457 31.5894 67.0457 31.2462V30.8635C67.0457 30.7754 67.0457 30.7329 67.0457 30.7329C67.0497 30.7763 67.0497 30.8201 67.0457 30.8635C67.0457 30.9546 67.0457 31.0822 67.0457 31.2462C67.0457 31.5894 67.0457 32.0845 67.0669 32.7192C67.0851 34.007 67.1094 35.8536 67.1428 38.1345C67.2248 42.7176 67.3372 49.0319 67.4617 56.0114C67.5863 62.9908 67.6956 69.3112 67.7351 73.8852C67.7564 76.1752 67.7655 78.0249 67.7624 79.3035C67.7624 79.9383 67.7624 80.4334 67.7624 80.7796C67.7624 80.9406 67.7624 81.0681 67.7624 81.1623C67.764 81.2058 67.763 81.2494 67.7594 81.2929Z" fill="#FAFAFA"/>
<path d="M155.634 134.418C163.669 134.097 169.922 127.323 169.601 119.288C169.28 111.253 162.505 105 154.47 105.321C146.436 105.642 140.182 112.416 140.504 120.451C140.825 128.486 147.599 134.74 155.634 134.418Z" fill="#263238"/>
<path d="M140.487 119.634C140.487 119.634 140.487 119.662 140.487 119.674C140.432 123.535 141.912 127.259 144.603 130.029C147.294 132.798 150.974 134.385 154.835 134.441C158.696 134.496 162.421 133.016 165.19 130.325C167.959 127.634 169.546 123.954 169.602 120.093V120.056L140.487 119.634Z" fill="#263238"/>
<path d="M144.821 119.734C144.792 121.756 145.363 123.74 146.461 125.437C147.56 127.133 149.137 128.466 150.993 129.267C152.849 130.067 154.9 130.299 156.888 129.934C158.876 129.568 160.711 128.622 162.161 127.213C163.611 125.805 164.611 123.998 165.034 122.022C165.457 120.046 165.285 117.988 164.539 116.11C163.793 114.231 162.506 112.616 160.842 111.469C159.178 110.321 157.211 109.693 155.19 109.663C152.48 109.624 149.865 110.663 147.921 112.552C145.976 114.441 144.861 117.024 144.821 119.734Z" fill="#FAFAFA"/>
<path d="M155.191 109.663C153.849 109.644 152.516 109.888 151.268 110.384C150.021 110.879 148.883 111.616 147.92 112.551C146.957 113.486 146.188 114.602 145.656 115.835C145.125 117.067 144.841 118.392 144.822 119.735L165.262 120.038C165.282 118.696 165.038 117.362 164.543 116.114C164.048 114.866 163.312 113.727 162.376 112.764C161.441 111.8 160.325 111.03 159.092 110.498C157.859 109.966 156.533 109.683 155.191 109.663Z" fill="#E0E0E0"/>
<path d="M148.831 119.792C148.813 121.024 149.161 122.233 149.83 123.267C150.499 124.3 151.46 125.112 152.591 125.6C153.722 126.088 154.972 126.229 156.183 126.006C157.394 125.784 158.512 125.207 159.395 124.348C160.278 123.49 160.887 122.389 161.145 121.185C161.402 119.981 161.297 118.727 160.842 117.583C160.387 116.439 159.603 115.455 158.589 114.756C157.575 114.057 156.376 113.675 155.145 113.657C153.494 113.634 151.902 114.267 150.718 115.417C149.533 116.568 148.855 118.142 148.831 119.792Z" fill="#263238"/>
<path d="M135.904 123.871C135.904 123.871 133.687 103.218 155.087 103.218C174.829 103.218 174.391 120.98 174.203 123.728H171.108C171.108 123.728 172.684 106.222 155.087 106.222C137.49 106.222 139.02 124.084 139.02 124.084C139.02 124.084 137.72 124.02 135.904 123.871Z" fill="#455A64"/>
<path d="M147.367 105.357C147.314 105.384 147.258 105.404 147.2 105.417C147.087 105.457 146.92 105.496 146.714 105.569C146.12 105.758 145.539 105.984 144.974 106.247C143.103 107.105 141.445 108.367 140.121 109.942C138.796 111.518 137.838 113.368 137.314 115.358C137.153 115.957 137.031 116.566 136.946 117.18C136.913 117.399 136.901 117.569 136.883 117.685C136.877 117.744 136.867 117.803 136.852 117.861C136.845 117.802 136.845 117.743 136.852 117.685C136.852 117.566 136.852 117.381 136.889 117.174C136.949 116.549 137.056 115.93 137.211 115.322C137.708 113.301 138.663 111.421 140.002 109.827C141.34 108.233 143.027 106.968 144.931 106.128C145.504 105.872 146.095 105.659 146.699 105.49C146.911 105.43 147.081 105.396 147.194 105.369C147.251 105.358 147.309 105.354 147.367 105.357Z" fill="#FAFAFA"/>
<path d="M186.838 101.339C186.838 101.339 187.607 116.005 187.992 118.977C188.377 121.949 189.146 126.285 189.146 126.285C189.146 126.285 188.596 126.67 188.486 127.056C188.377 127.441 188.541 128.868 188.541 128.868L192.552 129.142C192.552 129.142 192.717 128.155 192.717 125.9V122.543C192.717 122.105 193.377 103.311 193.377 103.311L193.87 122.599C193.87 122.599 193.706 128.587 193.982 128.697C194.253 128.837 194.51 129.003 194.75 129.192L198.267 129.082C198.415 128.432 198.508 127.771 198.542 127.105C198.542 126.335 198.047 124.852 198.102 124.027C198.157 123.202 199.586 116.5 199.586 115.346V97.3813H186.951L186.838 101.339Z" fill="#263238" stroke="#263238" stroke-width="0.4" stroke-linecap="round" stroke-linejoin="round"/>
<path d="M192.167 128.869C192.167 128.869 190.685 127.605 190.025 127.715C189.366 127.824 188.76 128.209 188.706 128.374C188.651 128.538 188.266 128.869 188.156 129.197C188.046 129.526 186.288 131.176 185.903 131.616C185.518 132.056 185.244 132.111 185.575 132.385C185.779 132.552 186.022 132.665 186.281 132.715H192.552C192.552 132.715 192.773 132.22 192.717 131.231C192.66 130.241 192.552 129.142 192.552 129.142L192.167 128.869Z" fill="white" stroke="#263238" stroke-width="0.4" stroke-linecap="round" stroke-linejoin="round"/>
<path d="M185.428 132.164C185.428 132.228 185.467 132.293 185.575 132.383C185.779 132.55 186.022 132.664 186.282 132.714H192.553C192.619 132.537 192.664 132.352 192.685 132.164H185.428Z" fill="white" stroke="#263238" stroke-width="0.4" stroke-linecap="round" stroke-linejoin="round"/>
<path d="M194.774 128.869C194.774 128.869 196.171 127.605 196.793 127.715C197.415 127.824 197.984 128.209 198.03 128.374C198.076 128.538 198.444 128.869 198.548 129.197C198.652 129.526 200.315 131.176 200.668 131.616C201.022 132.056 201.29 132.111 200.979 132.385C200.788 132.552 200.555 132.666 200.306 132.715H194.404C194.404 132.715 194.198 132.22 194.249 131.231C194.3 130.241 194.404 129.142 194.404 129.142L194.774 128.869Z" fill="white" stroke="#263238" stroke-width="0.4" stroke-linecap="round" stroke-linejoin="round"/>
<path d="M201.124 132.164C201.124 132.228 201.087 132.293 200.986 132.383C200.794 132.55 200.562 132.664 200.313 132.714H194.411C194.348 132.536 194.306 132.351 194.286 132.164H201.124Z" fill="white" stroke="#263238" stroke-width="0.4" stroke-linecap="round" stroke-linejoin="round"/>
<path d="M191.469 77.6836L189.879 79.0335L190.165 97.6855H197.037C197.037 97.6855 197.364 78.6236 197.242 78.3374C197.12 78.0511 196.383 77.7649 196.383 77.7649L191.469 77.6836Z" fill="white" stroke="#263238" stroke-width="0.4" stroke-linecap="round" stroke-linejoin="round"/>
<path d="M203.124 85.8096L205.857 86.5658C205.857 86.5658 203.088 81.4876 202.585 80.2702C202.191 79.3196 201.701 79.0333 201.498 78.9573C200.45 78.2806 196.385 77.7646 196.385 77.7646L196.066 87.0782L195.581 102.536H201.364C201.364 102.536 200.876 97.0774 200.608 95.3476L200.228 92.9145C200.228 92.9145 200.696 89.2039 201.111 85.6505L203.124 85.8096Z" fill="#FF9500" stroke="#263238" stroke-width="0.4" stroke-linecap="round" stroke-linejoin="round"/>
<path d="M197.023 89.4814C196.844 89.9492 196.62 90.3979 196.352 90.8208" stroke="#263238" stroke-width="0.4" stroke-linecap="round" stroke-linejoin="round"/>
<path d="M197.236 78.3374L198.198 80.4772L197.408 81.3342L198.659 82.8484C198.659 82.8484 198.171 86.1473 197.311 88.7023" stroke="#263238" stroke-width="0.4" stroke-linecap="round" stroke-linejoin="round"/>
<path d="M190.999 73.1602C190.999 73.1602 190.485 72.4534 190.115 72.9605C189.746 73.4676 191.144 75.2187 191.144 75.2187L190.999 73.1602Z" fill="white" stroke="#263238" stroke-width="0.4" stroke-linecap="round" stroke-linejoin="round"/>
<path d="M196.945 73.1602C196.945 73.1602 197.459 72.4534 197.828 72.9605C198.197 73.4676 196.8 75.2187 196.8 75.2187L196.945 73.1602Z" fill="white" stroke="#263238" stroke-width="0.4" stroke-linecap="round" stroke-linejoin="round"/>
<path d="M190.884 72.7609C190.884 72.7609 191.199 76.0475 191.257 76.6199C191.315 77.1924 191.513 78.4205 191.743 78.8481C191.973 79.2757 193.543 80.8783 193.971 80.7069C194.399 80.5355 195.886 78.9912 196.288 78.5336C196.689 78.0759 196.544 77.2472 196.602 77.0476C196.66 76.8479 196.887 74.876 196.887 74.876L197.023 72.7945C197.023 72.7945 197.081 72.5948 196.994 71.3085C196.908 70.0222 196.909 69.4497 196.766 69.1351C196.623 68.8206 196.252 68.6492 195.593 68.4778C194.934 68.3064 193.365 68.3365 192.393 68.8224C191.421 69.3083 190.935 69.9939 190.907 70.2501C190.879 70.5063 190.884 72.7609 190.884 72.7609Z" fill="white" stroke="#263238" stroke-width="0.4" stroke-linecap="round" stroke-linejoin="round"/>
<path d="M193.515 71.8171C193.515 71.8171 192.632 71.2446 192.143 71.9938" stroke="#263238" stroke-width="0.4" stroke-linecap="round" stroke-linejoin="round"/>
<path d="M194.743 71.8737C194.931 71.7597 195.151 71.7119 195.369 71.7378C195.586 71.7638 195.789 71.862 195.945 72.0168" stroke="#263238" stroke-width="0.4" stroke-linecap="round" stroke-linejoin="round"/>
<path d="M194.487 72.1602C194.604 72.3769 194.665 72.6202 194.663 72.8669C194.692 73.3811 194.605 74.4378 194.605 74.4378L193.52 74.3229" stroke="#263238" stroke-width="0.4" stroke-linecap="round" stroke-linejoin="round"/>
<path d="M192.943 74.7046C192.943 74.7046 193.485 75.5881 194.858 75.1322" stroke="#263238" stroke-width="0.4" stroke-linecap="round" stroke-linejoin="round"/>
<path d="M193.114 72.6602C193.114 72.8263 193.038 72.9606 192.937 72.9606C192.836 72.9606 192.76 72.8263 192.76 72.6602C192.76 72.4942 192.838 72.3599 192.937 72.3599C193.036 72.3599 193.114 72.4942 193.114 72.6602Z" fill="#263238"/>
<path d="M195.544 72.6602C195.544 72.8263 195.468 72.9606 195.367 72.9606C195.266 72.9606 195.19 72.8263 195.19 72.6602C195.19 72.4942 195.266 72.3599 195.367 72.3599C195.468 72.3599 195.544 72.4942 195.544 72.6602Z" fill="#263238"/>
<path d="M193.344 73.0469C193.117 73.2608 192.843 73.4171 192.543 73.5027" stroke="#263238" stroke-width="0.4" stroke-linecap="round" stroke-linejoin="round"/>
<path d="M195.03 73.0469C195.03 73.0469 195.373 73.4462 195.774 73.5027" stroke="#263238" stroke-width="0.4" stroke-linecap="round" stroke-linejoin="round"/>
<path d="M192.971 77.4482C192.971 77.4482 193.515 78.1055 195.03 77.4765" stroke="#263238" stroke-width="0.4" stroke-linecap="round" stroke-linejoin="round"/>
<path d="M190.571 70.0732C190.571 70.0732 190.656 72.9604 190.748 73.017C190.84 73.0735 191.091 73.1318 191.147 72.9322C191.183 72.619 191.192 72.3034 191.176 71.9886C191.176 71.9886 191.462 71.9603 191.519 71.5027C191.575 71.0451 191.319 70.2446 191.319 70.2446C191.319 70.2446 192.347 69.5025 193.319 69.2163C194.291 68.93 194.807 69.3594 195.406 69.393C195.758 69.4129 196.104 69.3008 196.378 69.0784C196.378 69.0784 196.091 69.5078 196.091 69.7075C196.091 69.9071 196.464 70.9656 196.406 71.2801C196.348 71.5946 196.293 71.9374 196.464 72.0505C196.636 72.1635 196.835 72.3084 196.835 72.3084C196.835 72.3084 196.835 73.0806 196.95 73.1371C197.065 73.1937 197.265 72.8809 197.293 72.4516C197.321 72.0222 197.321 70.9938 197.47 70.6846C197.618 70.3754 197.841 70.1422 197.669 69.6845C197.498 69.2269 196.897 68.8275 196.812 68.801C196.728 68.7745 195.641 67.3733 194.24 67.0341C192.838 66.6948 190.61 68.6933 190.381 69.3223C190.151 69.9513 190.571 70.0732 190.571 70.0732Z" fill="#263238" stroke="#263238" stroke-width="0.4" stroke-linecap="round" stroke-linejoin="round"/>
<path d="M177.959 80.2154C177.797 79.8135 177.665 79.4001 177.565 78.9786C177.503 78.5845 177.017 77.9467 176.533 77.7647C176.01 77.5626 175.542 77.2399 175.167 76.8229C174.741 76.3688 174.499 76.2168 174.437 76.6709C174.376 77.125 174.681 77.3388 174.985 77.6127C175.289 77.8866 175.591 78.1287 175.591 78.1287C175.287 78.2274 174.971 78.2868 174.651 78.3054C174.09 78.333 173.528 78.2819 172.981 78.1534C172.526 78.0315 170.948 76.8794 171.1 77.3335C171.252 77.7876 172.01 78.3654 172.617 78.9432C173.225 79.521 173.619 79.8267 174.317 80.0352C175.015 80.2437 176.137 80.5211 176.137 80.5211L176.775 81.371L177.959 80.2154Z" fill="white" stroke="#263238" stroke-width="0.4" stroke-linecap="round" stroke-linejoin="round"/>
<path d="M173.255 79.3973C173.255 79.3973 172.283 78.6694 172.131 77.8495C171.98 77.0296 172.041 76.7275 172.253 76.8476C172.465 76.9678 172.981 78.1534 172.981 78.1534L173.891 79.1553" fill="white"/>
<path d="M173.255 79.3973C173.255 79.3973 172.283 78.6694 172.131 77.8495C171.98 77.0296 172.041 76.7275 172.253 76.8476C172.465 76.9678 172.981 78.1534 172.981 78.1534L173.891 79.1553" stroke="#263238" stroke-width="0.4" stroke-linecap="round" stroke-linejoin="round"/>
<path d="M174.074 79.7931C174.074 79.7931 173.164 79.2453 173.074 78.6993C172.984 78.1533 172.77 76.5454 172.982 76.6656C173.194 76.7857 173.62 78.4873 173.62 78.4873L174.136 78.9432" fill="white"/>
<path d="M174.074 79.7931C174.074 79.7931 173.164 79.2453 173.074 78.6993C172.984 78.1533 172.77 76.5454 172.982 76.6656C173.194 76.7857 173.62 78.4873 173.62 78.4873L174.136 78.9432" stroke="#263238" stroke-width="0.4" stroke-linecap="round" stroke-linejoin="round"/>
<path d="M174.582 79.8234C174.582 79.8234 174.036 78.7632 173.914 78.4275C173.793 78.0918 173.52 76.6977 173.794 76.7577C174.068 76.8178 174.31 78.2137 174.31 78.2137L175.008 79.0972C175.008 79.0972 175.978 78.7933 176.245 78.8533C176.512 78.9134 176.853 79.4612 176.853 79.4612" fill="white"/>
<path d="M174.582 79.8234C174.582 79.8234 174.036 78.7632 173.914 78.4275C173.793 78.0918 173.52 76.6977 173.794 76.7577C174.068 76.8178 174.31 78.2137 174.31 78.2137L175.008 79.0972C175.008 79.0972 175.978 78.7933 176.245 78.8533C176.512 78.9134 176.853 79.4612 176.853 79.4612" stroke="#263238" stroke-width="0.4" stroke-linecap="round" stroke-linejoin="round"/>
<path d="M178.68 80.6981L177.954 80.0249L176.161 81.8961L176.687 82.587L178.68 80.6981Z" fill="white" stroke="#263238" stroke-width="0.4" stroke-linecap="round" stroke-linejoin="round"/>
<path d="M191.469 77.6836C191.469 77.6836 190.854 82.5498 190.773 85.3327C190.691 88.1157 190.978 102.718 190.978 102.718L185.537 102.553C185.537 102.553 186.15 97.3992 186.597 95.5174C186.905 94.0664 187.015 92.5805 186.924 91.1C186.884 90.8544 186.597 88.6051 186.597 88.6051C186.597 88.6051 183.528 90.6495 183.161 90.6088C182.793 90.5682 180.666 89.0186 179.03 86.9689C177.989 85.6246 177.149 84.1367 176.535 82.5515L178.469 80.3411L183.051 84.9228C183.051 84.9228 185.422 80.1379 185.668 80.0142C185.914 79.8905 191.469 77.6836 191.469 77.6836Z" fill="#FF9500" stroke="#263238" stroke-width="0.4" stroke-linecap="round" stroke-linejoin="round"/>
<path d="M189.209 86.0942C189.507 87.6795 189.934 89.2378 190.485 90.7537" stroke="#263238" stroke-width="0.4" stroke-linecap="round" stroke-linejoin="round"/>
<path d="M190.425 78.5L189.435 81.0038L190.227 81.6628L188.843 83.1117C188.876 83.8586 188.955 84.6028 189.08 85.3399" stroke="#263238" stroke-width="0.4" stroke-linecap="round" stroke-linejoin="round"/>
<path d="M186.477 87.9495C186.477 87.9495 185.659 84.3502 185.417 82.9189L186.477 87.9495Z" fill="white"/>
<path d="M186.477 87.9495C186.477 87.9495 185.659 84.3502 185.417 82.9189" stroke="#263238" stroke-width="0.4" stroke-linecap="round" stroke-linejoin="round"/>
<path d="M191.38 80.4629L192.078 82.5108L193.972 80.7067L195.476 82.6504L196.135 80.9029" fill="white"/>
<path d="M191.38 80.4629L192.078 82.5108L193.972 80.7067L195.476 82.6504L196.135 80.9029" stroke="#263238" stroke-width="0.4" stroke-linecap="round" stroke-linejoin="round"/>
<path d="M194.7 81.7649L193.845 83.2916L192.863 81.7543L193.972 80.7065L194.7 81.7649Z" fill="#263238" stroke="#263238" stroke-width="0.4" stroke-linecap="round" stroke-linejoin="round"/>
<path d="M193.845 83.292L191.94 96.0458L193.638 97.4117L194.964 96.0052L193.845 83.292Z" fill="#263238" stroke="#263238" stroke-width="0.4" stroke-linecap="round" stroke-linejoin="round"/>
<path d="M201.414 78.112C202.772 77.7893 203.611 76.4271 203.288 75.0695C202.965 73.7118 201.603 72.8728 200.245 73.1955C198.888 73.5182 198.049 74.8804 198.371 76.238C198.694 77.5957 200.056 78.4347 201.414 78.112Z" fill="white" stroke="#263238" stroke-width="0.4" stroke-linecap="round" stroke-linejoin="round"/>
<path d="M199.169 78.9042C199.169 78.9042 199.083 80.0351 199.148 80.2524C199.213 80.4697 199.678 81.3391 199.678 81.3391C199.678 81.3391 199.613 81.9487 199.72 82.1448C199.828 82.3409 200.873 83.5796 200.873 83.5796L202.109 82.4911L201.408 81.0988L201.387 79.2947C201.387 79.2947 200.026 78.1232 199.169 78.9042Z" fill="white" stroke="#263238" stroke-width="0.4" stroke-linecap="round" stroke-linejoin="round"/>
<path d="M199.784 77.657L200.166 80.7933C200.187 80.9529 200.27 81.0978 200.397 81.197C200.524 81.2961 200.684 81.3415 200.844 81.3234C200.998 81.3062 201.14 81.2314 201.241 81.1141C201.343 80.9968 201.396 80.8457 201.39 80.6909L201.281 77.4874C201.281 77.4874 200.337 76.7788 199.784 77.657Z" fill="white" stroke="#263238" stroke-width="0.4" stroke-linecap="round" stroke-linejoin="round"/>
<path d="M199.85 78.3408C199.85 78.3408 199.037 78.438 199.037 78.6942C199.037 78.9504 199.329 80.1254 199.588 80.1908C199.848 80.2562 200.044 80.2562 200.044 79.7349C200.018 79.2657 199.953 78.7994 199.85 78.3408Z" fill="white" stroke="#263238" stroke-width="0.4" stroke-linecap="round" stroke-linejoin="round"/>
<path d="M201.768 79.2188C201.768 79.2188 199.881 79.3813 199.849 79.5721C199.818 79.763 199.881 80.2559 200.012 80.2559C200.143 80.2559 201.832 80.2683 201.865 80.0793C201.899 79.8902 201.996 79.4785 201.768 79.2188Z" fill="white" stroke="#263238" stroke-width="0.4" stroke-linecap="round" stroke-linejoin="round"/>
<path d="M201.71 80.1343C201.71 80.1343 200.03 80.2279 199.995 80.4011C199.959 80.5742 200.005 81.0089 200.122 81.0125C200.238 81.016 201.739 81.0725 201.774 80.9082C201.809 80.7439 201.906 80.371 201.71 80.1343Z" fill="white" stroke="#263238" stroke-width="0.4" stroke-linecap="round" stroke-linejoin="round"/>
<path d="M201.481 80.9507C201.481 80.9507 200.089 81.0284 200.067 81.1716C200.046 81.3147 200.076 81.6751 200.173 81.6787C200.271 81.6822 201.511 81.7281 201.539 81.5921C201.568 81.456 201.644 81.1468 201.481 80.9507Z" fill="white" stroke="#263238" stroke-width="0.4" stroke-linecap="round" stroke-linejoin="round"/>
<path d="M201.637 78.3726C201.637 78.3726 199.75 78.5351 199.719 78.7259C199.687 78.9168 199.75 79.408 199.881 79.408C200.012 79.408 201.701 79.4221 201.735 79.2313C201.768 79.0405 201.865 78.6252 201.637 78.3726Z" fill="white" stroke="#263238" stroke-width="0.4" stroke-linecap="round" stroke-linejoin="round"/>
<path d="M202.079 81.8727L201.531 81.5918L200.045 83.4135L200.655 84.2263L202.079 81.8727Z" fill="white" stroke="#263238" stroke-width="0.4" stroke-linecap="round" stroke-linejoin="round"/>
<path d="M201.97 81.5513C201.97 81.5513 201.43 82.8111 201.025 83.2617C200.62 83.7123 200.168 84.1169 200.168 84.1169C200.168 84.1169 202.059 88.5749 202.324 89.4301C202.589 90.2853 203.629 90.8702 204.08 91.0045C204.531 91.1387 205.61 90.7801 206.024 90.3295C206.437 89.8789 207.013 88.4388 206.699 87.6296C206.384 86.8203 201.97 81.5513 201.97 81.5513Z" fill="#FF9500" stroke="#263238" stroke-width="0.4" stroke-linecap="round" stroke-linejoin="round"/>
<path d="M205.067 79.0061C207.511 78.3736 208.98 75.8795 208.347 73.4355C207.715 70.9915 205.221 69.523 202.777 70.1555C200.333 70.788 198.864 73.2821 199.497 75.7261C200.129 78.1701 202.623 79.6386 205.067 79.0061Z" fill="#FF9500" stroke="#263238" stroke-width="0.4" stroke-linecap="round" stroke-linejoin="round"/>
<path d="M204.76 78.2079C206.765 77.7444 208.014 75.744 207.55 73.7397C207.087 71.7355 205.086 70.4865 203.082 70.9499C201.078 71.4134 199.829 73.4138 200.292 75.418C200.756 77.4223 202.756 78.6713 204.76 78.2079Z" fill="#263238" stroke="#263238" stroke-width="0.4" stroke-linecap="round" stroke-linejoin="round"/>
<path d="M203.562 76.2734C204.396 76.2734 205.073 75.5971 205.073 74.7627C205.073 73.9283 204.396 73.252 203.562 73.252C202.728 73.252 202.051 73.9283 202.051 74.7627C202.051 75.5971 202.728 76.2734 203.562 76.2734Z" fill="white" stroke="#263238" stroke-width="0.4" stroke-linecap="round" stroke-linejoin="round"/>
<path d="M204.754 74.5843C204.755 74.4193 204.706 74.2579 204.615 74.1205C204.523 73.9831 204.393 73.8759 204.241 73.8125C204.088 73.7491 203.921 73.7324 203.759 73.7643C203.597 73.7963 203.448 73.8756 203.331 73.9922C203.215 74.1087 203.135 74.2574 203.103 74.4192C203.07 74.581 203.087 74.7488 203.15 74.9013C203.213 75.0538 203.32 75.1841 203.457 75.2759C203.594 75.3676 203.755 75.4165 203.92 75.4165C204.141 75.4165 204.353 75.3289 204.51 75.1729C204.666 75.0169 204.754 74.8052 204.754 74.5843Z" fill="#FF9500" stroke="#263238" stroke-width="0.4" stroke-linecap="round" stroke-linejoin="round"/>
</svg>
