<svg width="199" height="158" viewBox="0 0 199 158" fill="none" xmlns="http://www.w3.org/2000/svg">
<path d="M182.236 153.186C183.717 135.851 182.85 117.62 179.191 100.641C174.015 76.607 159.446 58.7529 136.045 51.5475C123.34 47.6329 108.882 46.1442 96.362 51.5475C81.42 58.0112 74.1214 74.307 65.1243 87.0094C62.9711 90.0511 60.8021 91.9201 57.0052 91.8505C52.2493 91.7621 47.4646 90.7446 42.6929 91.1088C34.6862 91.7166 31.5478 97.6367 30.006 104.922C29.4547 107.528 28.5714 110.278 26.4809 111.855C25.6081 112.516 24.5811 112.926 23.5672 113.327C15.4664 116.54 10.4622 118.613 6.5111 126.715C3.76729 136.55 4.45455 153.644 4.45455 153.644H184.522L182.236 153.186Z" fill="#0F913D"/>
<path opacity="0.8" d="M182.236 153.186C183.717 135.851 182.85 117.62 179.191 100.641C174.015 76.607 159.446 58.7529 136.045 51.5475C123.34 47.6329 108.882 46.1442 96.362 51.5475C81.42 58.0112 74.1214 74.307 65.1243 87.0094C62.9711 90.0511 60.8021 91.9201 57.0052 91.8505C52.2493 91.7621 47.4646 90.7446 42.6929 91.1088C34.6862 91.7166 31.5478 97.6367 30.006 104.922C29.4547 107.528 28.5714 110.278 26.4809 111.855C25.6081 112.516 24.5811 112.926 23.5672 113.327C15.4664 116.54 10.4622 118.613 6.5111 126.715C3.76729 136.55 4.45455 153.644 4.45455 153.644H184.522L182.236 153.186Z" fill="white"/>
<path d="M111.737 39.1331C109.629 29.6548 98.7058 22.5948 89.1873 23.9477C86.8148 24.2866 84.5056 25.1741 82.7219 26.8199C80.292 29.0545 80.8693 31.5935 79.6659 34.3652C79.3298 35.1349 78.6778 35.8185 77.8506 35.9593C75.4839 36.3671 73.5768 34.0062 71.1785 33.9889C69.3862 33.9746 67.0942 34.9655 66.0947 36.5136C65.1641 37.9497 65.8074 40.4715 64.1387 41.428C62.2631 42.4964 59.9855 40.4629 57.9577 41.1982C55.4416 42.1144 56.5848 43.944 55.6599 45.0872C54.7351 46.2303 52.9141 45.7765 50.3951 45.5467C47.8762 45.3169 45.8197 48.2926 45.8197 48.2926H125.236C125.236 48.2926 125.923 47.1437 122.939 42.5711C119.954 37.9985 115.844 41.1982 114.015 41.1982C112.185 41.1982 111.737 39.1359 111.737 39.1331Z" stroke="#263238" stroke-miterlimit="10"/>
<path d="M176.815 52.2644C175.666 47.1318 169.758 43.3088 164.6 44.0413C163.303 44.192 162.083 44.7329 161.101 45.5923C159.783 46.8043 160.096 48.1772 159.444 49.6794C159.362 49.8919 159.23 50.0813 159.059 50.2314C158.888 50.3815 158.683 50.4878 158.462 50.5411C157.178 50.7594 156.147 49.4812 154.848 49.4726C153.878 49.4726 152.634 50.0011 152.094 50.8398C151.588 51.621 151.942 52.9825 151.034 53.5023C150.017 54.0768 148.785 52.9796 147.688 53.3788C146.324 53.8728 146.944 54.8638 146.447 55.4842C145.95 56.1046 144.959 55.8575 143.595 55.734C142.231 55.6105 141.116 57.219 141.116 57.219H184.116C184.116 57.219 184.49 56.6014 182.878 54.1227C181.267 51.644 179.035 53.3788 178.044 53.3788C177.053 53.3788 176.815 52.2673 176.815 52.2644Z" stroke="#263238" stroke-miterlimit="10"/>
<path d="M52.4003 71.4145C51.6104 67.8731 47.5319 65.2364 43.9761 65.7419C43.0809 65.8458 42.2385 66.2194 41.5606 66.8132C40.6529 67.6462 40.8684 68.5969 40.4117 69.6309C40.3563 69.7776 40.2659 69.9085 40.1482 70.0122C40.0305 70.1158 39.8892 70.189 39.7367 70.2254C38.8521 70.3777 38.1397 69.4959 37.2436 69.4901C36.8763 69.4923 36.5144 69.5783 36.1854 69.7416C35.8563 69.9048 35.569 70.141 35.3451 70.4322C34.9975 70.9722 35.2388 71.9114 34.6127 72.2676C33.9118 72.6697 33.0617 71.9085 32.3149 72.1843C31.3757 72.5261 31.8036 73.2097 31.4532 73.6376C31.1028 74.0656 30.4279 73.8932 29.4858 73.8071C28.5437 73.7209 27.7768 74.8325 27.7768 74.8325H57.4525C57.4525 74.8325 57.7081 74.4045 56.5909 72.6955C55.4736 70.9866 53.9398 72.1843 53.2562 72.1843C52.5726 72.1843 52.4003 71.4145 52.4003 71.4145Z" stroke="#263238" stroke-miterlimit="10"/>
<path d="M158.58 67.8027C136.437 67.8027 118.497 85.6292 118.497 107.619C118.488 117.426 122.125 126.885 128.701 134.16C133.417 133.487 138.226 133.925 142.744 135.439C147.791 137.123 152.435 139.835 156.382 143.403H159.972C163.92 139.836 168.564 137.124 173.611 135.439C178.36 133.848 183.428 133.447 188.369 134.271C195.009 126.984 198.686 117.478 198.676 107.619C198.669 85.6326 180.722 67.8027 158.58 67.8027Z" fill="#0F913D"/>
<path opacity="0.5" d="M158.58 67.8027C136.437 67.8027 118.497 85.6292 118.497 107.619C118.488 117.426 122.125 126.885 128.701 134.16C133.417 133.487 138.226 133.925 142.744 135.439C147.791 137.123 152.435 139.835 156.382 143.403H159.972C163.92 139.836 168.564 137.124 173.611 135.439C178.36 133.848 183.428 133.447 188.369 134.271C195.009 126.984 198.686 117.478 198.676 107.619C198.669 85.6326 180.722 67.8027 158.58 67.8027Z" fill="white"/>
<path d="M177.25 123.591C176.015 124.188 174.794 124.808 173.587 125.45C172.379 126.103 171.209 126.824 170.084 127.61C169.666 127.9 169.254 128.201 168.847 128.502L175.412 116.266L166.4 130.378C165.479 131.113 164.583 131.862 163.712 132.627C162.257 133.895 160.84 135.184 159.455 136.515L158.995 123.242L168.425 108.889L158.926 121.224L158.511 109.355L157.82 122.648L157.129 135.972C155.927 134.832 154.699 133.716 153.446 132.624C152.458 131.767 151.449 130.92 150.419 130.101L141.926 115.547L148.187 128.391C147.841 128.128 147.471 127.866 147.102 127.61C145.977 126.824 144.808 126.103 143.601 125.45C142.394 124.808 141.173 124.188 139.939 123.591C137.471 122.385 134.939 121.314 132.354 120.385C134.855 121.465 137.295 122.682 139.662 124.03C140.844 124.696 142.01 125.387 143.159 126.103C144.285 126.808 145.368 127.578 146.404 128.408C148.459 130.061 150.42 131.827 152.278 133.698C153.912 135.319 155.498 136.995 157.012 138.698L156.151 155.606H160.101L159.548 139.369C161.241 137.434 163.042 135.523 164.894 133.685C166.752 131.814 168.713 130.048 170.768 128.394C171.805 127.564 172.889 126.794 174.016 126.09C175.163 125.381 176.331 124.708 177.509 124.016C179.878 122.668 182.319 121.451 184.821 120.371C182.24 121.305 179.713 122.38 177.25 123.591Z" fill="#263238"/>
<path d="M33.4217 96.002C18.3907 96.002 6.20694 108.096 6.20694 123.03C6.19745 129.684 8.66042 136.103 13.1177 141.043C16.3197 140.586 19.5843 140.883 22.6512 141.91C26.0878 143.051 29.2497 144.894 31.9359 147.322H34.3754C37.055 144.9 40.2067 143.059 43.6324 141.914C46.8576 140.834 50.2984 140.563 53.6531 141.123C58.1609 136.177 60.6567 129.725 60.6503 123.034C60.6468 108.096 48.4631 96.002 33.4217 96.002Z" fill="#0F913D"/>
<path opacity="0.5" d="M33.4217 96.002C18.3907 96.002 6.20694 108.096 6.20694 123.03C6.19745 129.684 8.66042 136.103 13.1177 141.043C16.3197 140.586 19.5843 140.883 22.6512 141.91C26.0878 143.051 29.2497 144.894 31.9359 147.322H34.3754C37.055 144.9 40.2067 143.059 43.6324 141.914C46.8576 140.834 50.2984 140.563 53.6531 141.123C58.1609 136.177 60.6567 129.725 60.6503 123.034C60.6468 108.096 48.4631 96.002 33.4217 96.002Z" fill="white"/>
<path d="M46.1053 133.873C45.2656 134.277 44.4363 134.695 43.6174 135.134C42.7973 135.576 42.0035 136.065 41.24 136.599C40.9567 136.796 40.6768 137 40.4004 137.204L44.8579 128.911L38.7418 138.489C38.1198 138.987 37.5117 139.498 36.9139 140.016C35.9256 140.877 34.965 141.744 34.0252 142.656L33.7142 133.645L40.1136 123.9L33.6658 132.283L33.3894 124.218L32.9298 133.24L32.4702 142.283C31.6513 141.509 30.8186 140.756 29.9685 140.013C29.2774 139.429 28.614 138.855 27.8953 138.285L22.1282 128.41L26.3784 137.121C26.133 136.945 25.8911 136.775 25.6424 136.592C24.8789 136.058 24.0851 135.569 23.265 135.127C22.4461 134.688 21.6168 134.27 20.7772 133.866C19.1026 133.045 17.3837 132.319 15.6286 131.689C17.3268 132.422 18.9833 133.248 20.5906 134.163C21.3922 134.616 22.1835 135.079 22.9644 135.545C23.7276 136.028 24.4625 136.554 25.1655 137.121C26.5647 138.242 27.8995 139.442 29.1634 140.714C30.2691 141.813 31.3472 142.95 32.3735 144.108L31.7895 155.583H34.4605L34.0805 144.571C35.2311 143.258 36.4543 141.962 37.7086 140.714C38.9766 139.443 40.3148 138.243 41.7169 137.121C42.4214 136.558 43.1574 136.035 43.9214 135.555C44.7024 135.075 45.4937 134.612 46.2953 134.173C47.9025 133.258 49.559 132.432 51.2573 131.699C49.501 132.328 47.781 133.053 46.1053 133.873Z" fill="#263238"/>
<path d="M15.7595 137.098H6.99786V148.889H15.7595V137.098Z" fill="#263238" stroke="#263238" stroke-width="0.75" stroke-miterlimit="10"/>
<path d="M10.8695 137.908H10.3416V148.888H10.8695V137.908Z" fill="white" stroke="#263238" stroke-width="0.75" stroke-miterlimit="10"/>
<path d="M15.7595 137.098H6.99786V137.977H15.7595V137.098Z" fill="#0F913D" stroke="#263238" stroke-width="0.75" stroke-miterlimit="10"/>
<path d="M11.837 151.644H25.6444V146.276C25.6444 146.276 22.5631 144.196 15.7051 144.82V147.78H12.771C12.771 147.78 11.8877 144.518 9.83185 143.618C7.77596 142.719 3.46622 142.661 0.69458 147.031H1.23774C2.01749 146.366 3.01161 146.025 4.02461 146.073H9.01965V151.644H11.837Z" fill="#0F913D" stroke="#263238" stroke-width="0.75" stroke-miterlimit="10"/>
<path d="M14.04 146.028V143.469L13.4562 142.813L12.5729 143.167L13.1719 142.496L14.0907 141.461L13.7506 142.262L14.6796 142.563V141.71H15.2126V137.908H7.53729V141.107H8.60838V142.262H11.1059V143.619H7.53729V148.883H15.2126V146.028H14.04Z" fill="white" stroke="#263238" stroke-width="0.75" stroke-miterlimit="10"/>
<path d="M12.7231 148.336V153.106H15.515V148.336H12.7231ZM15.1901 148.887V149.844H13.048V148.887H15.1901ZM15.1901 150.141V151.046H13.048V150.141H15.1901ZM13.048 152.549V151.348H15.1901V152.549H13.048Z" fill="#0F913D" stroke="#263238" stroke-width="0.75" stroke-miterlimit="10"/>
<path d="M0.676208 147.033C0.676208 147.033 2.63565 144.068 6.99615 144.12C11.3567 144.172 12.0724 147.433 12.0724 147.433V148.994H3.71181L3.51892 146.252C3.51892 146.252 1.80314 146.455 1.21937 147.059L0.676208 147.033Z" fill="#263238" stroke="#263238" stroke-width="0.75" stroke-miterlimit="10"/>
<path d="M6.59835 156.361C9.68225 156.361 12.1822 153.799 12.1822 150.64C12.1822 147.48 9.68225 144.918 6.59835 144.918C3.51446 144.918 1.01447 147.48 1.01447 150.64C1.01447 153.799 3.51446 156.361 6.59835 156.361Z" fill="#263238" stroke="#263238" stroke-width="0.75" stroke-miterlimit="10"/>
<path d="M6.59952 153.975C8.3966 153.975 9.85341 152.482 9.85341 150.641C9.85341 148.799 8.3966 147.307 6.59952 147.307C4.80246 147.307 3.34564 148.799 3.34564 150.641C3.34564 152.482 4.80246 153.975 6.59952 153.975Z" fill="white" stroke="#263238" stroke-width="0.75" stroke-miterlimit="10"/>
<path d="M26.1312 153.824C26.9798 151.725 26.0069 149.318 23.9581 148.449C21.9093 147.579 19.5605 148.576 18.7118 150.675C17.8632 152.775 18.8361 155.181 20.8849 156.051C22.9337 156.921 25.2825 155.924 26.1312 153.824Z" fill="#263238" stroke="#263238" stroke-width="0.75" stroke-miterlimit="10"/>
<path d="M24.7559 152.247C24.7569 151.772 24.6205 151.308 24.364 150.913C24.1074 150.518 23.7423 150.21 23.3148 150.028C22.8873 149.845 22.4166 149.797 21.9623 149.889C21.508 149.981 21.0906 150.209 20.7628 150.544C20.435 150.879 20.2116 151.307 20.1209 151.772C20.0302 152.237 20.0762 152.72 20.2532 153.158C20.4302 153.596 20.7301 153.971 21.1151 154.235C21.5 154.499 21.9527 154.639 22.4157 154.639C23.0355 154.639 23.6299 154.388 24.0687 153.939C24.5074 153.49 24.7545 152.882 24.7559 152.247Z" fill="white" stroke="#263238" stroke-width="0.75" stroke-miterlimit="10"/>
<path d="M134.183 96.625L143.173 104.287L150.65 126.856H143.574L134.183 96.625Z" fill="#263238" stroke="#263238" stroke-miterlimit="10"/>
<path d="M187.061 114.43H135.918V135.521H187.061V114.43Z" fill="#C2C2C2" stroke="#263238" stroke-miterlimit="10"/>
<path d="M184.523 135.291H135.918V156.383H184.523V135.291Z" fill="#0F913D" stroke="#263238" stroke-miterlimit="10"/>
<path d="M152.852 135.291H135.918V156.383H152.852V135.291Z" fill="#263238" stroke="#263238" stroke-miterlimit="10"/>
<path d="M184.523 135.291H135.918V138.167H184.523V135.291Z" fill="#263238" stroke="#263238" stroke-miterlimit="10"/>
<path d="M135.918 135.516H149.334L149.273 132.343L143.314 114.43H135.918V135.516Z" fill="#263238" stroke="#263238" stroke-miterlimit="10"/>
<path d="M187.061 133.756H135.918V135.519H187.061V133.756Z" fill="white" stroke="#263238" stroke-miterlimit="10"/>
<path d="M149.27 132.345V156.375H53.1458V132.345H56.5063L56.42 132.236L68.5015 97.3758L90.1517 86.6921L100.934 81.3711L112.533 87.0926L133.366 97.3758L145.392 132.236L145.305 132.345H149.27Z" fill="#0F913D" stroke="#263238" stroke-miterlimit="10"/>
<path d="M149.78 132.344H148.764V156.374H149.78V132.344Z" fill="white" stroke="#263238" stroke-miterlimit="10"/>
<path d="M53.6606 132.344H52.6453V156.374H53.6606V132.344Z" fill="white" stroke="#263238" stroke-miterlimit="10"/>
<path d="M123.367 139.002H117.723V146.227H123.367V139.002Z" fill="white" stroke="#263238" stroke-miterlimit="10"/>
<path d="M122.25 140.426H118.833V144.8H122.25V140.426Z" fill="#263238"/>
<path d="M120.5 139.518V145.577" stroke="white" stroke-miterlimit="10"/>
<path d="M118.052 142.682H122.813" stroke="white" stroke-miterlimit="10"/>
<path d="M137.35 139.002H131.705V146.227H137.35V139.002Z" fill="white" stroke="#263238" stroke-miterlimit="10"/>
<path d="M136.242 140.426H132.825V144.8H136.242V140.426Z" fill="#263238"/>
<path d="M134.491 139.518V145.577" stroke="white" stroke-miterlimit="10"/>
<path d="M132.044 142.682H136.805" stroke="white" stroke-miterlimit="10"/>
<path d="M107.468 113.438H93.3615V129.213H107.468V113.438Z" fill="white" stroke="#263238" stroke-miterlimit="10"/>
<path d="M105.736 115.379H95.0962V127.275H105.736V115.379Z" fill="#263238"/>
<path d="M94.0175 128.668L106.48 114.895" stroke="white" stroke-miterlimit="10"/>
<path d="M106.693 128.086L94.2666 114.688" stroke="white" stroke-miterlimit="10"/>
<path d="M170.092 138.164H161.833V147.397H170.092V138.164Z" fill="white" stroke="#263238" stroke-miterlimit="10"/>
<path d="M169.072 139.301H162.843V146.265H169.072V139.301Z" fill="#263238"/>
<path d="M162.217 147.076L169.511 139.014" stroke="white" stroke-miterlimit="10"/>
<path d="M169.626 146.738L162.352 138.895" stroke="white" stroke-miterlimit="10"/>
<path d="M170.092 147.141H161.833V156.373H170.092V147.141Z" fill="white" stroke="#263238" stroke-miterlimit="10"/>
<path d="M169.072 148.275H162.843V155.24H169.072V148.275Z" fill="#263238"/>
<path d="M162.217 156.05L169.511 147.988" stroke="white" stroke-miterlimit="10"/>
<path d="M169.626 155.715L162.352 147.871" stroke="white" stroke-miterlimit="10"/>
<path d="M123.05 97.5957H117.405V104.82H123.05V97.5957Z" fill="white" stroke="#263238" stroke-miterlimit="10"/>
<path d="M121.941 99.0176H118.525V103.392H121.941V99.0176Z" fill="#263238"/>
<path d="M120.191 98.1074V104.167" stroke="white" stroke-miterlimit="10"/>
<path d="M117.743 101.273H122.505" stroke="white" stroke-miterlimit="10"/>
<path d="M81.6319 97.5957H75.9871V104.82H81.6319V97.5957Z" fill="white" stroke="#263238" stroke-miterlimit="10"/>
<path d="M80.5211 99.0176H77.1047V103.392H80.5211V99.0176Z" fill="#263238"/>
<path d="M78.7709 98.1074V104.167" stroke="white" stroke-miterlimit="10"/>
<path d="M76.3323 101.273H81.0938" stroke="white" stroke-miterlimit="10"/>
<path d="M67.0065 139.002H61.3668V146.227H67.0065V139.002Z" fill="white" stroke="#263238" stroke-miterlimit="10"/>
<path d="M65.8916 140.426H62.4753V144.8H65.8916V140.426Z" fill="#263238"/>
<path d="M64.1437 139.518V145.577" stroke="white" stroke-miterlimit="10"/>
<path d="M61.7051 142.682H66.4615" stroke="white" stroke-miterlimit="10"/>
<path d="M80.9892 139.002H75.3495V146.227H80.9892V139.002Z" fill="white" stroke="#263238" stroke-miterlimit="10"/>
<path d="M79.8834 140.426H76.4671V144.8H79.8834V140.426Z" fill="#263238"/>
<path d="M78.1355 139.518V145.577" stroke="white" stroke-miterlimit="10"/>
<path d="M75.6877 142.682H80.4493" stroke="white" stroke-miterlimit="10"/>
<path d="M119.313 137.949H78.5103V156.378H119.313V137.949Z" fill="white" stroke="#263238" stroke-miterlimit="10"/>
<path d="M111.613 137.949H86.2216V156.378H111.613V137.949Z" fill="#263238" stroke="#263238" stroke-miterlimit="10"/>
<path d="M112.534 87.0926V105.776H90.1526V86.6921L100.935 81.3711L112.534 87.0926Z" stroke="white" stroke-miterlimit="10"/>
<path d="M60.5969 132.03L72.3484 98.1276L103.618 82.695L101.212 81.5039L89.7448 86.8926L68.8103 97.2225L56.9978 131.302H56.7389L56.4191 132.233L56.5054 132.342H54.3023V133.383H61.668L60.5969 132.03Z" fill="#263238" stroke="#263238" stroke-miterlimit="10"/>
<path d="M150.72 133.384H143.182L144.248 132.031L132.552 98.1285L100.937 82.5243L69.3224 98.1285L57.5709 132.031L58.642 133.384H51.2763V131.303H55.6673L67.6879 96.6253L100.937 80.2148L134.187 96.6253L146.152 131.303H150.72V133.384Z" fill="white" stroke="#263238" stroke-miterlimit="10"/>
<path d="M146.209 133.384H149.27V132.344H147.032L146.209 133.384Z" fill="white" stroke="#263238" stroke-miterlimit="10"/>
<path d="M43.8901 2.33023L47.2303 14.0802L49.3471 13.1647L47.9004 0L43.8901 2.33023Z" fill="#263238"/>
<path d="M37.6553 6.22959L44.7113 16.1019L46.3966 14.505L40.6401 2.64062L37.6553 6.22959Z" fill="#263238"/>
<path d="M33.0956 12.0885L43.0197 18.8867L44.0705 16.7958L34.6997 7.66211L33.0956 12.0885Z" fill="#263238"/>
<path d="M30.7645 19.1845L42.3637 22.0973L42.648 19.7618L30.7949 14.4668L30.7645 19.1845Z" fill="#263238"/>
<path d="M30.9478 26.6699L42.8161 25.3435L42.3085 23.0497L29.4046 22.2227L30.9478 26.6699Z" fill="#263238"/>
<path d="M33.6117 33.6418L44.3226 28.2324L43.0789 26.2559L30.6776 30.0009L33.6117 33.6418Z" fill="#263238"/>
<path d="M38.4485 39.2533L46.7076 30.4161L44.8751 28.9961L34.4738 36.8658L38.4485 39.2533Z" fill="#263238"/>
<path d="M44.867 42.8357L49.6742 31.6371L47.4863 30.9453L40.3339 41.9827L44.867 42.8357Z" fill="#263238"/>
<path d="M52.0856 43.9596L52.8674 31.752L50.578 31.8664L47.5424 44.7451L52.0856 43.9596Z" fill="#263238"/>
<path d="M59.2474 42.4785L55.9123 30.7285L53.7955 31.644L55.2422 44.8087L59.2474 42.4785Z" fill="#263238"/>
<path d="M65.4851 38.5773L58.424 28.7051L56.7438 30.3019L62.4952 42.1715L65.4851 38.5773Z" fill="#263238"/>
<path d="M70.0521 32.724L60.123 25.9258L59.0773 28.0167L68.443 37.1504L70.0521 32.724Z" fill="#263238"/>
<path d="M72.3778 25.6276L60.7785 22.7148L60.4943 25.0503L72.3423 30.3505L72.3778 25.6276Z" fill="#263238"/>
<path d="M72.2031 18.1465L60.3297 19.4728L60.8424 21.7667L73.7463 22.5937L72.2031 18.1465Z" fill="#263238"/>
<path d="M69.5276 11.168L58.8167 16.5774L60.0604 18.554L72.4617 14.8089L69.5276 11.168Z" fill="#263238"/>
<path d="M64.6943 5.55469L56.4352 14.3919L58.2627 15.8119L68.669 7.94214L64.6943 5.55469Z" fill="#263238"/>
<path d="M58.2809 1.9707L53.4686 13.1693L55.6616 13.8611L62.814 2.82373L58.2809 1.9707Z" fill="#263238"/>
<path d="M51.0507 0.853772L50.2689 13.0615L52.5634 12.947L55.599 0.0683594L51.0507 0.853772Z" fill="#263238"/>
<path d="M51.5711 39.5292C60.8003 39.5292 68.2821 31.863 68.2821 22.4062C68.2821 12.9494 60.8003 5.2832 51.5711 5.2832C42.3418 5.2832 34.86 12.9494 34.86 22.4062C34.86 31.863 42.3418 39.5292 51.5711 39.5292Z" stroke="#263238" stroke-miterlimit="10"/>
<path d="M51.5679 31.8745C56.6703 31.8745 60.8067 27.6362 60.8067 22.408C60.8067 17.1797 56.6703 12.9414 51.5679 12.9414C46.4654 12.9414 42.3291 17.1797 42.3291 22.408C42.3291 27.6362 46.4654 31.8745 51.5679 31.8745Z" stroke="#263238" stroke-miterlimit="10"/>
<path d="M51.4667 25.0762L34.5424 156.349" stroke="#263238" stroke-miterlimit="10"/>
<path d="M51.4734 25.0762L68.3976 156.349" stroke="#263238" stroke-miterlimit="10"/>
<path d="M51.4734 25.0762V156.37" stroke="#263238" stroke-width="3" stroke-miterlimit="10"/>
<path d="M48.7211 26.358H54.2238V23.2788L49.9699 15.5859H47.716L48.7211 23.0239V26.358Z" fill="#263238" stroke="#263238" stroke-miterlimit="10"/>
<path d="M43.4559 52.0039H59.2227" stroke="#263238" stroke-width="2" stroke-miterlimit="10"/>
<path d="M46.7127 62.2578H56.4896" stroke="#263238" stroke-miterlimit="10"/>
<path d="M45.442 73.5781H57.757" stroke="#263238" stroke-miterlimit="10"/>
<path d="M43.2822 89.8418H59.912" stroke="#263238" stroke-miterlimit="10"/>
<path d="M40.4962 110.658H62.7099" stroke="#263238" stroke-miterlimit="10"/>
<path d="M36.9308 135.385H65.632" stroke="#263238" stroke-miterlimit="10"/>
</svg>
