<svg width="109" height="104" viewBox="0 0 109 104" fill="none" xmlns="http://www.w3.org/2000/svg">
<path opacity="0.7" d="M34.1637 6.37271C34.1637 6.37271 15.6228 15.8182 6.37552 30.373C-2.87171 44.9278 -2.14006 63.6523 9.0966 77.5513C20.3333 91.4502 41.8106 89.6248 59.7937 98.4291C77.7767 107.233 97.6171 105.42 106.12 86.7667C114.624 68.1131 101.801 61.1416 99.5991 39.5541C97.3968 17.9666 77.9358 -13.6438 34.1637 6.37271Z" fill="#DDFFE9"/>
<path d="M27.9952 82.908V34.4598C27.9957 32.363 27.353 30.3165 26.1539 28.5964L24.4609 26.1719H54.5378L56.2308 28.5964C57.4299 30.3165 58.0725 32.363 58.0721 34.4598V82.4485" stroke="#263238" stroke-width="3.168" stroke-linecap="round" stroke-linejoin="round"/>
<path d="M91.9135 93.5272C93.6332 93.5272 95.0272 92.1332 95.0272 90.4135C95.0272 88.6939 93.6332 87.2998 91.9135 87.2998C90.1939 87.2998 88.7998 88.6939 88.7998 90.4135C88.7998 92.1332 90.1939 93.5272 91.9135 93.5272Z" fill="#263238"/>
<path opacity="0.4" d="M93.4717 90.4147C93.4724 90.1063 93.3816 89.8046 93.2108 89.5478C93.0399 89.291 92.7968 89.0907 92.512 88.9722C92.2273 88.8537 91.9138 88.8223 91.6112 88.8821C91.3086 88.9418 91.0306 89.09 90.8123 89.3078C90.5939 89.5256 90.4451 89.8033 90.3847 90.1058C90.3243 90.4082 90.3549 90.7218 90.4728 91.0068C90.5907 91.2918 90.7904 91.5354 91.0468 91.7069C91.3032 91.8783 91.6047 91.9698 91.9131 91.9698C92.1176 91.9703 92.3202 91.9304 92.5093 91.8524C92.6984 91.7745 92.8702 91.66 93.015 91.5156C93.1598 91.3711 93.2747 91.1995 93.353 91.0106C93.4314 90.8217 93.4717 90.6192 93.4717 90.4147Z" fill="white"/>
<path d="M91.5384 91.1061C91.2956 91.1058 91.0587 91.0311 90.8597 90.8921C90.6606 90.7531 90.5089 90.5564 90.4251 90.3285L88.5908 85.3027H92.7224V89.9221C92.7224 90.2361 92.5977 90.5372 92.3756 90.7593C92.1536 90.9813 91.8524 91.1061 91.5384 91.1061Z" fill="#263238"/>
<path opacity="0.2" d="M91.5384 91.1061C91.2956 91.1058 91.0587 91.0311 90.8597 90.8921C90.6606 90.7531 90.5089 90.5564 90.4251 90.3285L88.5908 85.3027H92.7224V89.9221C92.7224 90.2361 92.5977 90.5372 92.3756 90.7593C92.1536 90.9813 91.8524 91.1061 91.5384 91.1061Z" fill="white"/>
<path d="M57.2763 93.5272C58.996 93.5272 60.39 92.1332 60.39 90.4135C60.39 88.6939 58.996 87.2998 57.2763 87.2998C55.5567 87.2998 54.1626 88.6939 54.1626 90.4135C54.1626 92.1332 55.5567 93.5272 57.2763 93.5272Z" fill="#263238"/>
<path opacity="0.4" d="M58.835 90.4147C58.8357 90.1063 58.7449 89.8046 58.5741 89.5478C58.4032 89.291 58.16 89.0907 57.8753 88.9722C57.5906 88.8537 57.2771 88.8223 56.9745 88.8821C56.6719 88.9418 56.3939 89.09 56.1755 89.3078C55.9572 89.5256 55.8084 89.8033 55.748 90.1058C55.6876 90.4082 55.7182 90.7218 55.8361 91.0068C55.9539 91.2918 56.1537 91.5354 56.4101 91.7069C56.6665 91.8783 56.968 91.9698 57.2764 91.9698C57.4809 91.9703 57.6835 91.9304 57.8726 91.8524C58.0617 91.7745 58.2335 91.66 58.3783 91.5156C58.5231 91.3711 58.6379 91.1995 58.7163 91.0106C58.7947 90.8217 58.835 90.6192 58.835 90.4147Z" fill="white"/>
<path d="M56.9017 91.1061C56.6589 91.1058 56.422 91.0311 56.2229 90.8921C56.0239 90.7531 55.8722 90.5564 55.7884 90.3285L53.9541 85.3027H58.0857V89.9221C58.0857 90.2361 57.961 90.5372 57.7389 90.7593C57.5169 90.9813 57.2157 91.1061 56.9017 91.1061Z" fill="#263238"/>
<path opacity="0.2" d="M56.9017 91.1061C56.6589 91.1058 56.422 91.0311 56.2229 90.8921C56.0239 90.7531 55.8722 90.5564 55.7884 90.3285L53.9541 85.3027H58.0857V89.9221C58.0857 90.2361 57.961 90.5372 57.7389 90.7593C57.5169 90.9813 57.2157 91.1061 56.9017 91.1061Z" fill="white"/>
<path d="M97.2669 81.6816V84.6222C97.2669 84.8856 97.1623 85.1382 96.976 85.3244C96.7898 85.5107 96.5372 85.6153 96.2738 85.6153H26.6728C26.4094 85.6153 26.1568 85.5107 25.9706 85.3244C25.7843 85.1382 25.6797 84.8856 25.6797 84.6222V81.6816H97.2669Z" fill="#263238"/>
<path opacity="0.4" d="M97.2669 81.6816V84.6222C97.2669 84.8856 97.1623 85.1382 96.976 85.3244C96.7898 85.5107 96.5372 85.6153 96.2738 85.6153H26.6728C26.4094 85.6153 26.1568 85.5107 25.9706 85.3244C25.7843 85.1382 25.6797 84.8856 25.6797 84.6222V81.6816H97.2669Z" fill="white"/>
<path opacity="0.2" d="M72.5268 81.6816V84.6222C72.5268 84.8856 72.4222 85.1382 72.2359 85.3244C72.0497 85.5107 71.7971 85.6153 71.5337 85.6153H26.6728C26.4094 85.6153 26.1568 85.5107 25.9706 85.3244C25.7843 85.1382 25.6797 84.8856 25.6797 84.6222V81.6816H72.5268Z" fill="white"/>
<path d="M66.8193 93.5272C68.5389 93.5272 69.933 92.1332 69.933 90.4135C69.933 88.6939 68.5389 87.2998 66.8193 87.2998C65.0996 87.2998 63.7056 88.6939 63.7056 90.4135C63.7056 92.1332 65.0996 93.5272 66.8193 93.5272Z" fill="#263238"/>
<path opacity="0.6" d="M68.378 90.4147C68.3787 90.1063 68.2879 89.8046 68.117 89.5478C67.9462 89.291 67.703 89.0907 67.4183 88.9722C67.1335 88.8537 66.82 88.8223 66.5175 88.8821C66.2149 88.9418 65.9368 89.09 65.7185 89.3078C65.5002 89.5256 65.3514 89.8033 65.291 90.1058C65.2305 90.4082 65.2612 90.7218 65.379 91.0068C65.4969 91.2918 65.6967 91.5354 65.9531 91.7069C66.2095 91.8783 66.5109 91.9698 66.8194 91.9698C67.0239 91.9703 67.2265 91.9304 67.4156 91.8524C67.6046 91.7745 67.7765 91.66 67.9213 91.5156C68.066 91.3711 68.1809 91.1995 68.2593 91.0106C68.3376 90.8217 68.378 90.6192 68.378 90.4147Z" fill="white"/>
<path d="M66.4447 91.1061C66.2019 91.1058 65.965 91.0311 65.7659 90.8921C65.5669 90.7531 65.4152 90.5564 65.3314 90.3285L63.4971 85.3027H67.6287V89.9221C67.6287 90.2361 67.5039 90.5372 67.2819 90.7593C67.0598 90.9813 66.7587 91.1061 66.4447 91.1061Z" fill="#263238"/>
<path opacity="0.4" d="M66.4447 91.1061C66.2019 91.1058 65.965 91.0311 65.7659 90.8921C65.5669 90.7531 65.4152 90.5564 65.3314 90.3285L63.4971 85.3027H67.6287V89.9221C67.6287 90.2361 67.5039 90.5372 67.2819 90.7593C67.0598 90.9813 66.7587 91.1061 66.4447 91.1061Z" fill="white"/>
<path d="M32.1831 93.5272C33.9027 93.5272 35.2968 92.1332 35.2968 90.4135C35.2968 88.6939 33.9027 87.2998 32.1831 87.2998C30.4634 87.2998 29.0693 88.6939 29.0693 90.4135C29.0693 92.1332 30.4634 93.5272 32.1831 93.5272Z" fill="#263238"/>
<path opacity="0.6" d="M33.7413 90.4147C33.742 90.1063 33.6512 89.8046 33.4803 89.5478C33.3095 89.291 33.0663 89.0907 32.7816 88.9722C32.4968 88.8537 32.1833 88.8223 31.8807 88.8821C31.5782 88.9418 31.3001 89.09 31.0818 89.3078C30.8635 89.5256 30.7147 89.8033 30.6542 90.1058C30.5938 90.4082 30.6245 90.7218 30.7423 91.0068C30.8602 91.2918 31.06 91.5354 31.3164 91.7069C31.5727 91.8783 31.8742 91.9698 32.1826 91.9698C32.3872 91.9703 32.5898 91.9304 32.7788 91.8524C32.9679 91.7745 33.1398 91.66 33.2845 91.5156C33.4293 91.3711 33.5442 91.1995 33.6226 91.0106C33.7009 90.8217 33.7413 90.6192 33.7413 90.4147Z" fill="white"/>
<path d="M31.808 91.1061C31.5652 91.1058 31.3283 91.0311 31.1292 90.8921C30.9301 90.7531 30.7785 90.5564 30.6947 90.3285L28.8604 85.3027H32.9919V89.9221C32.9919 90.2361 32.8672 90.5372 32.6452 90.7593C32.4231 90.9813 32.122 91.1061 31.808 91.1061Z" fill="#263238"/>
<path opacity="0.4" d="M31.808 91.1061C31.5652 91.1058 31.3283 91.0311 31.1292 90.8921C30.9301 90.7531 30.7785 90.5564 30.6947 90.3285L28.8604 85.3027H32.9919V89.9221C32.9919 90.2361 32.8672 90.5372 32.6452 90.7593C32.4231 90.9813 32.122 91.1061 31.808 91.1061Z" fill="white"/>
<path d="M67.2576 58.8672H34.3003V81.6811H67.2576V58.8672Z" fill="#0F913D"/>
<path opacity="0.4" d="M67.2576 58.8672H34.3003V81.6811H67.2576V58.8672Z" fill="white"/>
<path opacity="0.2" d="M49.5932 58.8672H34.3003V81.6811H49.5932V58.8672Z" fill="white"/>
<path opacity="0.2" d="M48.1479 76.8574H46.2358C46.0562 76.8574 45.9106 77.003 45.9106 77.1826V79.7944C45.9106 79.974 46.0562 80.1196 46.2358 80.1196H48.1479C48.3274 80.1196 48.473 79.974 48.473 79.7944V77.1826C48.473 77.003 48.3274 76.8574 48.1479 76.8574Z" fill="black"/>
<path opacity="0.2" d="M44.6977 76.8574H42.7856C42.606 76.8574 42.4604 77.003 42.4604 77.1826V79.7944C42.4604 79.974 42.606 80.1196 42.7856 80.1196H44.6977C44.8772 80.1196 45.0228 79.974 45.0228 79.7944V77.1826C45.0228 77.003 44.8772 76.8574 44.6977 76.8574Z" fill="black"/>
<path opacity="0.4" d="M60.1712 58.8672H58.3086V61.2458H60.1712V58.8672Z" fill="black"/>
<path opacity="0.2" d="M65.2641 68.6074H52.4346V71.5904H65.2641V68.6074Z" fill="black"/>
<path opacity="0.2" d="M39.6825 60.0547H35.2964V64.4408H39.6825V60.0547Z" fill="black"/>
<path d="M70.6224 36.0537H37.665V58.8676H70.6224V36.0537Z" fill="#0F913D"/>
<path opacity="0.4" d="M70.6224 36.0537H37.665V58.8676H70.6224V36.0537Z" fill="black"/>
<path opacity="0.2" d="M52.958 36.0537H37.665V58.8676H52.958V36.0537Z" fill="white"/>
<path opacity="0.2" d="M51.516 54.043H49.604C49.4244 54.043 49.2788 54.1886 49.2788 54.3681V56.98C49.2788 57.1596 49.4244 57.3051 49.604 57.3051H51.516C51.6956 57.3051 51.8412 57.1596 51.8412 56.98V54.3681C51.8412 54.1886 51.6956 54.043 51.516 54.043Z" fill="black"/>
<path opacity="0.2" d="M48.0653 54.043H46.1533C45.9737 54.043 45.8281 54.1886 45.8281 54.3681V56.98C45.8281 57.1596 45.9737 57.3051 46.1533 57.3051H48.0653C48.2449 57.3051 48.3905 57.1596 48.3905 56.98V54.3681C48.3905 54.1886 48.2449 54.043 48.0653 54.043Z" fill="black"/>
<path opacity="0.4" d="M63.5359 36.0537H61.6733V38.4323H63.5359V36.0537Z" fill="black"/>
<path opacity="0.2" d="M68.6303 45.7939H55.8008V48.7769H68.6303V45.7939Z" fill="black"/>
<path opacity="0.2" d="M43.0521 37.2412H38.666V41.6273H43.0521V37.2412Z" fill="black"/>
<path d="M90.7947 36.0537H57.8374V58.8676H90.7947V36.0537Z" fill="#0F913D"/>
<path opacity="0.4" d="M90.7947 36.0537H57.8374V58.8676H90.7947V36.0537Z" fill="white"/>
<path opacity="0.2" d="M73.1303 36.0537H57.8374V58.8676H73.1303V36.0537Z" fill="white"/>
<path opacity="0.2" d="M71.6884 54.043H69.7763C69.5968 54.043 69.4512 54.1886 69.4512 54.3681V56.98C69.4512 57.1596 69.5968 57.3051 69.7763 57.3051H71.6884C71.868 57.3051 72.0135 57.1596 72.0135 56.98V54.3681C72.0135 54.1886 71.868 54.043 71.6884 54.043Z" fill="black"/>
<path opacity="0.2" d="M68.2392 54.043H66.3271C66.1475 54.043 66.002 54.1886 66.002 54.3681V56.98C66.002 57.1596 66.1475 57.3051 66.3271 57.3051H68.2392C68.4187 57.3051 68.5643 57.1596 68.5643 56.98V54.3681C68.5643 54.1886 68.4187 54.043 68.2392 54.043Z" fill="black"/>
<path opacity="0.4" d="M83.7102 36.0537H81.8477V38.4323H83.7102V36.0537Z" fill="black"/>
<path opacity="0.2" d="M88.8026 45.7939H75.9731V48.7769H88.8026V45.7939Z" fill="black"/>
<path opacity="0.2" d="M63.2244 37.2412H58.8384V41.6273H63.2244V37.2412Z" fill="black"/>
<path d="M79.3963 13.2393H46.439V36.0532H79.3963V13.2393Z" fill="#0F913D"/>
<path opacity="0.2" d="M61.7319 13.2393H46.439V36.0532H61.7319V13.2393Z" fill="white"/>
<path opacity="0.2" d="M60.288 31.2285H58.3759C58.1964 31.2285 58.0508 31.3741 58.0508 31.5537V34.1655C58.0508 34.3451 58.1964 34.4907 58.3759 34.4907H60.288C60.4676 34.4907 60.6131 34.3451 60.6131 34.1655V31.5537C60.6131 31.3741 60.4676 31.2285 60.288 31.2285Z" fill="black"/>
<path opacity="0.2" d="M56.8422 31.2285H54.9301C54.7506 31.2285 54.605 31.3741 54.605 31.5537V34.1655C54.605 34.3451 54.7506 34.4907 54.9301 34.4907H56.8422C57.0218 34.4907 57.1673 34.3451 57.1673 34.1655V31.5537C57.1673 31.3741 57.0218 31.2285 56.8422 31.2285Z" fill="black"/>
<path opacity="0.4" d="M72.3113 13.2393H70.4487V15.6178H72.3113V13.2393Z" fill="black"/>
<path opacity="0.2" d="M77.4057 22.9795H64.5762V25.9624H77.4057V22.9795Z" fill="black"/>
<path opacity="0.2" d="M51.8241 14.4268H47.438V18.8128H51.8241V14.4268Z" fill="black"/>
<path d="M88.2318 58.8672H55.2744V81.6811H88.2318V58.8672Z" fill="#263238"/>
<path opacity="0.2" d="M88.2318 58.8672H55.2744V81.6811H88.2318V58.8672Z" fill="white"/>
<path opacity="0.2" d="M70.5673 58.8672H55.2744V81.6811H70.5673V58.8672Z" fill="white"/>
<path opacity="0.2" d="M69.1205 76.8574H67.2085C67.0289 76.8574 66.8833 77.003 66.8833 77.1826V79.7944C66.8833 79.974 67.0289 80.1196 67.2085 80.1196H69.1205C69.3001 80.1196 69.4457 79.974 69.4457 79.7944V77.1826C69.4457 77.003 69.3001 76.8574 69.1205 76.8574Z" fill="black"/>
<path opacity="0.2" d="M65.6713 76.8574H63.7592C63.5797 76.8574 63.4341 77.003 63.4341 77.1826V79.7944C63.4341 79.974 63.5797 80.1196 63.7592 80.1196H65.6713C65.8509 80.1196 65.9964 79.974 65.9964 79.7944V77.1826C65.9964 77.003 65.8509 76.8574 65.6713 76.8574Z" fill="black"/>
<path opacity="0.4" d="M81.1438 58.8672H79.2812V61.2458H81.1438V58.8672Z" fill="black"/>
<path opacity="0.2" d="M86.2363 68.6074H73.4067V71.5904H86.2363V68.6074Z" fill="black"/>
<path opacity="0.2" d="M60.6551 60.0547H56.269V64.4408H60.6551V60.0547Z" fill="black"/>
</svg>
