<svg width="174" height="158" viewBox="0 0 174 158" fill="none" xmlns="http://www.w3.org/2000/svg">
<path d="M149.304 23.883C142.893 17.575 135.465 12.3832 127.328 8.5242C115.205 2.88438 101.86 0.163689 88.5109 0.00342375C49.4989 -0.454477 46.5286 45.1601 34.5326 51.5058C22.5365 57.8516 0.805651 58.5957 0.03913 83.9748C-0.43228 99.9365 3.30834 116.348 13.8365 128.784C23.4755 140.175 37.637 145.956 51.5877 150.214C67.2553 155.003 83.8697 159.7 100.35 156.468C117.263 153.152 129.148 139.82 143.041 130.81C151.787 125.14 159.636 119.165 165.037 110.064C165.68 108.975 166.289 107.867 166.861 106.74C174.085 92.5948 175.5 76.2783 171.514 60.9806C167.953 47.2435 159.859 34.159 149.304 23.883Z" fill="#0F913D"/>
<path opacity="0.7" d="M149.304 23.883C142.893 17.575 135.465 12.3832 127.328 8.5242C115.205 2.88438 101.86 0.163689 88.5109 0.00342375C49.4989 -0.454477 46.5286 45.1601 34.5326 51.5058C22.5365 57.8516 0.805651 58.5957 0.03913 83.9748C-0.43228 99.9365 3.30834 116.348 13.8365 128.784C23.4755 140.175 37.637 145.956 51.5877 150.214C67.2553 155.003 83.8697 159.7 100.35 156.468C117.263 153.152 129.148 139.82 143.041 130.81C151.787 125.14 159.636 119.165 165.037 110.064C165.68 108.975 166.289 107.867 166.861 106.74C174.085 92.5948 175.5 76.2783 171.514 60.9806C167.953 47.2435 159.859 34.159 149.304 23.883Z" fill="white"/>
<path d="M78.7676 16.0469H71.6772L68.1299 103.945H82.3149L78.7676 16.0469Z" fill="#0F913D" stroke="#263238" stroke-width="0.54" stroke-miterlimit="10"/>
<path d="M78.7339 16.8181H71.7174C71.6172 16.8181 71.5181 16.7984 71.4256 16.7601C71.3331 16.7218 71.2492 16.6657 71.1785 16.595C71.1079 16.5243 71.0521 16.4404 71.0141 16.3481C70.9762 16.2558 70.957 16.157 70.9575 16.0573C70.9575 15.8567 71.0376 15.6642 71.1801 15.5224C71.3226 15.3805 71.5158 15.3008 71.7174 15.3008H78.7339C78.9354 15.3008 79.1287 15.3805 79.2712 15.5224C79.4137 15.6642 79.4937 15.8567 79.4937 16.0573C79.4937 16.2583 79.4138 16.4512 79.2714 16.5938C79.1291 16.7363 78.9358 16.817 78.7339 16.8181Z" fill="white" stroke="#263238" stroke-width="0.54" stroke-miterlimit="10"/>
<path d="M71.5117 20.0742L71.3857 23.2472H79.0579L78.9276 20.0742H71.5117Z" fill="white" stroke="#263238" stroke-width="0.54" stroke-miterlimit="10"/>
<path d="M81.8219 91.8367L81.6959 88.668H68.744L68.6138 91.8367H81.8219Z" fill="white" stroke="#263238" stroke-width="0.54" stroke-miterlimit="10"/>
<path d="M69.5336 69.0742L69.4033 72.2429H81.031L80.905 69.0742H69.5336Z" fill="white" stroke="#263238" stroke-width="0.54" stroke-miterlimit="10"/>
<path d="M69.139 78.8711L69.0088 82.0441H81.4266L81.3007 78.8711H69.139Z" fill="white" stroke="#263238" stroke-width="0.54" stroke-miterlimit="10"/>
<path d="M69.9277 59.2734L69.8018 62.4421H80.6348L80.5089 59.2734H69.9277Z" fill="white" stroke="#263238" stroke-width="0.54" stroke-miterlimit="10"/>
<path d="M71.1171 29.875L70.9912 33.0437H79.4536L79.3233 29.875H71.1171Z" fill="white" stroke="#263238" stroke-width="0.54" stroke-miterlimit="10"/>
<path d="M70.3232 49.4727L70.1973 52.6457H80.2401L80.1142 49.4727H70.3232Z" fill="white" stroke="#263238" stroke-width="0.54" stroke-miterlimit="10"/>
<path d="M70.7221 39.6758L70.5962 42.8445H79.8488L79.7229 39.6758H70.7221Z" fill="white" stroke="#263238" stroke-width="0.54" stroke-miterlimit="10"/>
<path d="M97.8686 16.0469H90.7783L87.231 103.945H101.416L97.8686 16.0469Z" fill="#0F913D" stroke="#263238" stroke-width="0.54" stroke-miterlimit="10"/>
<path d="M97.8389 16.8181H90.8223C90.7222 16.8181 90.623 16.7984 90.5306 16.7601C90.4381 16.7218 90.3541 16.6657 90.2835 16.595C90.2129 16.5243 90.157 16.4404 90.1191 16.3481C90.0812 16.2558 90.0619 16.157 90.0625 16.0573C90.0625 15.8567 90.1426 15.6642 90.2851 15.5224C90.4276 15.3805 90.6208 15.3008 90.8223 15.3008H97.8389C98.0404 15.3008 98.2337 15.3805 98.3762 15.5224C98.5187 15.6642 98.5987 15.8567 98.5987 16.0573C98.5987 16.2583 98.5188 16.4512 98.3764 16.5938C98.234 16.7363 98.0408 16.817 97.8389 16.8181Z" fill="white" stroke="#263238" stroke-width="0.54" stroke-miterlimit="10"/>
<path d="M90.6132 20.0742L90.4873 23.2472H98.1595L98.0292 20.0742H90.6132Z" fill="white" stroke="#263238" stroke-width="0.54" stroke-miterlimit="10"/>
<path d="M100.927 91.8367L100.801 88.668H87.8495L87.7192 91.8367H100.927Z" fill="white" stroke="#263238" stroke-width="0.54" stroke-miterlimit="10"/>
<path d="M88.6395 69.0742L88.5093 72.2429H100.137L100.011 69.0742H88.6395Z" fill="white" stroke="#263238" stroke-width="0.54" stroke-miterlimit="10"/>
<path d="M88.244 78.8711L88.1138 82.0441H100.532L100.406 78.8711H88.244Z" fill="white" stroke="#263238" stroke-width="0.54" stroke-miterlimit="10"/>
<path d="M89.0341 59.2734L88.9082 62.4421H99.7413L99.6154 59.2734H89.0341Z" fill="white" stroke="#263238" stroke-width="0.54" stroke-miterlimit="10"/>
<path d="M90.2182 29.875L90.0923 33.0437H98.5547L98.4287 29.875H90.2182Z" fill="white" stroke="#263238" stroke-width="0.54" stroke-miterlimit="10"/>
<path d="M89.4291 49.4727L89.3032 52.6457H99.3461L99.2201 49.4727H89.4291Z" fill="white" stroke="#263238" stroke-width="0.54" stroke-miterlimit="10"/>
<path d="M89.8237 39.6758L89.6978 42.8445H98.9504L98.8244 39.6758H89.8237Z" fill="white" stroke="#263238" stroke-width="0.54" stroke-miterlimit="10"/>
<path d="M116.974 16.0469H109.884L106.336 103.945H120.521L116.974 16.0469Z" fill="#0F913D" stroke="#263238" stroke-width="0.54" stroke-miterlimit="10"/>
<path d="M116.944 16.8181H109.928C109.828 16.8181 109.729 16.7984 109.636 16.7601C109.544 16.7218 109.46 16.6657 109.389 16.595C109.318 16.5243 109.263 16.4404 109.225 16.3481C109.187 16.2558 109.167 16.157 109.168 16.0573C109.168 15.8567 109.248 15.6642 109.391 15.5224C109.533 15.3805 109.726 15.3008 109.928 15.3008H116.944C117.146 15.3008 117.339 15.3805 117.482 15.5224C117.624 15.6642 117.704 15.8567 117.704 16.0573C117.704 16.2583 117.624 16.4512 117.482 16.5938C117.34 16.7363 117.146 16.817 116.944 16.8181Z" fill="white" stroke="#263238" stroke-width="0.54" stroke-miterlimit="10"/>
<path d="M109.719 20.0742L109.593 23.2472H117.265L117.135 20.0742H109.719Z" fill="white" stroke="#263238" stroke-width="0.54" stroke-miterlimit="10"/>
<path d="M120.033 91.8367L119.907 88.668H106.955L106.825 91.8367H120.033Z" fill="white" stroke="#263238" stroke-width="0.54" stroke-miterlimit="10"/>
<path d="M107.745 69.0742L107.614 72.2429H119.242L119.116 69.0742H107.745Z" fill="white" stroke="#263238" stroke-width="0.54" stroke-miterlimit="10"/>
<path d="M107.35 78.8711L107.224 82.0441H119.638L119.512 78.8711H107.35Z" fill="white" stroke="#263238" stroke-width="0.54" stroke-miterlimit="10"/>
<path d="M108.14 59.2734L108.014 62.4421H118.847L118.721 59.2734H108.14Z" fill="white" stroke="#263238" stroke-width="0.54" stroke-miterlimit="10"/>
<path d="M109.324 29.875L109.198 33.0437H117.661L117.535 29.875H109.324Z" fill="white" stroke="#263238" stroke-width="0.54" stroke-miterlimit="10"/>
<path d="M108.534 49.4727L108.408 52.6457H118.451L118.325 49.4727H108.534Z" fill="white" stroke="#263238" stroke-width="0.54" stroke-miterlimit="10"/>
<path d="M108.929 39.6758L108.803 42.8445H118.056L117.93 39.6758H108.929Z" fill="white" stroke="#263238" stroke-width="0.54" stroke-miterlimit="10"/>
<path d="M39.3919 83.8398H11.1694V143.781H39.3919V83.8398Z" fill="#263238" stroke="#263238" stroke-width="0.54" stroke-linecap="round" stroke-linejoin="round"/>
<path d="M38.1374 75.8438L53.4209 84.7317H50.4815L35.2935 77.1752L38.1374 75.8438Z" fill="white" stroke="#263238" stroke-width="0.54" stroke-miterlimit="10"/>
<path d="M51.8152 143.783H23.5928V83.8412L38.1382 75.8438L51.8152 83.8412V143.783Z" fill="#0F913D" stroke="#263238" stroke-width="0.54" stroke-linecap="round" stroke-linejoin="round"/>
<path d="M9 85.138H21.4222L38.1386 75.8438H25.547L9 85.138Z" fill="#8F8F8F" stroke="#263238" stroke-width="0.54" stroke-linecap="round" stroke-linejoin="round"/>
<path d="M40.3114 81.0273H35.7524V85.1341H40.3114V81.0273Z" fill="#263238" stroke="#263238" stroke-width="0.54" stroke-miterlimit="10"/>
<path d="M119.351 93.1523H28.106V143.782H119.351V93.1523Z" fill="#263238" stroke="#263238" stroke-width="0.54" stroke-linecap="round" stroke-linejoin="round"/>
<path d="M164.864 93.1523H68.2612V143.782H164.864V93.1523Z" fill="white" stroke="#263238" stroke-width="0.54" stroke-linecap="round" stroke-linejoin="round"/>
<path d="M96.5424 112.555H80.6206V143.783H96.5424V112.555Z" fill="white" stroke="#263238" stroke-width="0.54" stroke-linecap="round" stroke-linejoin="round"/>
<path d="M93.9286 112.555H80.6206V143.783H93.9286V112.555Z" fill="#263238" stroke="#263238" stroke-width="0.54" stroke-linecap="round" stroke-linejoin="round"/>
<path d="M125.056 112.555H109.134V143.783H125.056V112.555Z" fill="white" stroke="#263238" stroke-width="0.54" stroke-linecap="round" stroke-linejoin="round"/>
<path d="M122.442 112.555H109.134V143.783H122.442V112.555Z" fill="#263238" stroke="#263238" stroke-width="0.54" stroke-linecap="round" stroke-linejoin="round"/>
<path d="M153.575 112.555H137.653V143.783H153.575V112.555Z" fill="white" stroke="#263238" stroke-width="0.54" stroke-linecap="round" stroke-linejoin="round"/>
<path d="M150.961 112.555H137.653V143.783H150.961V112.555Z" fill="#263238" stroke="#263238" stroke-width="0.54" stroke-linecap="round" stroke-linejoin="round"/>
<path d="M40.4534 98.9492H31.7695V106.877H40.4534V98.9492Z" fill="white" stroke="#263238" stroke-width="0.54" stroke-linecap="round" stroke-linejoin="round"/>
<path d="M52.1926 98.9492H43.5088V106.877H52.1926V98.9492Z" fill="white" stroke="#263238" stroke-width="0.54" stroke-linecap="round" stroke-linejoin="round"/>
<path d="M63.9319 98.9492H55.248V106.877H63.9319V98.9492Z" fill="white" stroke="#263238" stroke-width="0.54" stroke-linecap="round" stroke-linejoin="round"/>
<path d="M94.876 98.9492H81.9023V106.877H94.876V98.9492Z" fill="white" stroke="#263238" stroke-width="0.54" stroke-linecap="round" stroke-linejoin="round"/>
<path d="M94.1377 98.9492H81.1641V106.877H94.1377V98.9492Z" fill="white" stroke="#263238" stroke-width="0.54" stroke-linecap="round" stroke-linejoin="round"/>
<path d="M123.365 98.9492H110.391V106.877H123.365V98.9492Z" fill="white" stroke="#263238" stroke-width="0.54" stroke-linecap="round" stroke-linejoin="round"/>
<path d="M122.622 98.9492H109.648V106.877H122.622V98.9492Z" fill="white" stroke="#263238" stroke-width="0.54" stroke-linecap="round" stroke-linejoin="round"/>
<path d="M151.853 98.9492H138.879V106.877H151.853V98.9492Z" fill="white" stroke="#263238" stroke-width="0.54" stroke-linecap="round" stroke-linejoin="round"/>
<path d="M151.115 98.9492H138.141V106.877H151.115V98.9492Z" fill="white" stroke="#263238" stroke-width="0.54" stroke-linecap="round" stroke-linejoin="round"/>
<path d="M26.837 106.789H15.2832V113.451H26.837V106.789Z" fill="#0F913D" stroke="#263238" stroke-width="0.54" stroke-linecap="round" stroke-linejoin="round"/>
<path d="M30.4757 106.789H18.9219V113.451H30.4757V106.789Z" fill="#0F913D" stroke="#263238" stroke-width="0.54" stroke-linecap="round" stroke-linejoin="round"/>
<path d="M40.9604 110.539H12.4731V143.782H40.9604V110.539Z" fill="#263238" stroke="#263238" stroke-width="0.54" stroke-linecap="round" stroke-linejoin="round"/>
<path d="M62.0952 110.539H33.6079V143.782H62.0952V110.539Z" fill="#0F913D" stroke="#263238" stroke-width="0.54" stroke-linecap="round" stroke-linejoin="round"/>
<path d="M51.6816 131.582H44.0225V143.781H51.6816V131.582Z" fill="#263238" stroke="#263238" stroke-width="0.54" stroke-linecap="round" stroke-linejoin="round"/>
<path d="M30.8474 114.5H26.1104V137.07H30.8474V114.5Z" fill="#0F913D" stroke="#263238" stroke-width="0.54" stroke-linecap="round" stroke-linejoin="round"/>
<path d="M24.7971 114.5H20.0601V137.07H24.7971V114.5Z" fill="#0F913D" stroke="#263238" stroke-width="0.54" stroke-linecap="round" stroke-linejoin="round"/>
<path d="M18.7385 114.5H14.0015V137.07H18.7385V114.5Z" fill="#0F913D" stroke="#263238" stroke-width="0.54" stroke-linecap="round" stroke-linejoin="round"/>
<path d="M78.2621 98.3203H71.4453V143.577H78.2621V98.3203Z" fill="white" stroke="#263238" stroke-width="0.54" stroke-linecap="round" stroke-linejoin="round"/>
<path d="M79.3324 98.3203H72.5156V143.577H79.3324V98.3203Z" fill="#0F913D" stroke="#263238" stroke-width="0.54" stroke-miterlimit="10"/>
<path d="M106.067 98.3203H99.2505V143.577H106.067V98.3203Z" fill="white" stroke="#263238" stroke-width="0.54" stroke-linecap="round" stroke-linejoin="round"/>
<path d="M107.142 98.3203H100.325V143.577H107.142V98.3203Z" fill="#0F913D" stroke="#263238" stroke-width="0.54" stroke-miterlimit="10"/>
<path d="M134.543 98.3203H127.727V143.577H134.543V98.3203Z" fill="white" stroke="#263238" stroke-width="0.54" stroke-linecap="round" stroke-linejoin="round"/>
<path d="M135.613 98.3203H128.796V143.577H135.613V98.3203Z" fill="#0F913D" stroke="#263238" stroke-width="0.54" stroke-miterlimit="10"/>
<path d="M163.058 98.3203H156.241V143.577H163.058V98.3203Z" fill="white" stroke="#263238" stroke-width="0.54" stroke-linecap="round" stroke-linejoin="round"/>
<path d="M164.122 98.3203H157.306V143.577H164.122V98.3203Z" fill="#0F913D" stroke="#263238" stroke-width="0.54" stroke-miterlimit="10"/>
</svg>
