<svg width="271" height="186" viewBox="0 0 271 186" fill="none" xmlns="http://www.w3.org/2000/svg">
<path opacity="0.7" d="M71.2739 32.0158C71.2739 32.0158 39.467 59.4607 28.8474 89.2386C18.2278 119.017 29.6563 149.148 59.3863 164.589C89.1163 180.031 130.817 163.139 171.237 165.885C211.657 168.63 250.112 152.819 257.07 116.823C264.028 80.8278 234.838 77.736 218.962 43.8775C203.086 10.0189 147.58 -29.0461 71.2739 32.0158Z" fill="#FFF0B2"/>
<path d="M250.611 127.682H200.932V167.378H250.611V127.682Z" fill="white" stroke="#263238" stroke-miterlimit="10"/>
<path d="M250.611 147.423H200.932V154.744H250.611V147.423Z" fill="#263238" stroke="#263238" stroke-miterlimit="10"/>
<path d="M228.903 153.385H222.639V167.383H228.903V153.385Z" fill="#263238" stroke="#263238" stroke-miterlimit="10"/>
<path d="M228.218 154.064H223.318V162.07H228.218V154.064Z" fill="white" stroke="#263238" stroke-miterlimit="10"/>
<path d="M251.908 125.945H199.629V143.3H251.908V125.945Z" fill="#FFCC00" stroke="#263238" stroke-miterlimit="10"/>
<path d="M236.945 143.954V131.708L225.337 122.911L214.599 131.708V143.954" fill="white"/>
<path d="M236.945 143.954V131.708L225.337 122.911L214.599 131.708V143.954" stroke="#263238" stroke-miterlimit="10"/>
<path d="M233.143 133.977H218.394V143.086H233.143V133.977Z" fill="white" stroke="#263238" stroke-miterlimit="10"/>
<path d="M231.11 133.977H220.433V143.086H231.11V133.977Z" fill="white" stroke="#263238" stroke-miterlimit="10"/>
<path d="M228.699 133.977H222.844V143.086H228.699V133.977Z" fill="white" stroke="#263238" stroke-miterlimit="10"/>
<path d="M225.505 134.083V143.055" stroke="#263238" stroke-miterlimit="10"/>
<path d="M218.537 135.913H233.056" stroke="#263238" stroke-miterlimit="10"/>
<path d="M218.537 137.706H233.056" stroke="#263238" stroke-miterlimit="10"/>
<path d="M218.537 139.494H233.056" stroke="#263238" stroke-miterlimit="10"/>
<path d="M218.537 141.287H233.056" stroke="#263238" stroke-miterlimit="10"/>
<path d="M233.312 153.385H230.18V167.383H233.312V153.385Z" fill="white" stroke="#263238" stroke-miterlimit="10"/>
<path d="M231.749 153.553V167.347" stroke="#263238" stroke-miterlimit="10"/>
<path d="M230.262 158.07H233.21" stroke="#263238" stroke-miterlimit="10"/>
<path d="M230.262 163.362H233.21" stroke="#263238" stroke-miterlimit="10"/>
<path d="M221.051 153.385H217.919V167.383H221.051V153.385Z" fill="white" stroke="#263238" stroke-miterlimit="10"/>
<path d="M219.487 153.553V167.347" stroke="#263238" stroke-miterlimit="10"/>
<path d="M218 158.07H220.948" stroke="#263238" stroke-miterlimit="10"/>
<path d="M218 163.362H220.948" stroke="#263238" stroke-miterlimit="10"/>
<path d="M246.784 153.216H238.953V163.945H246.784V153.216Z" fill="white" stroke="#263238" stroke-miterlimit="10"/>
<path d="M243.55 153.216H242.186V163.945H243.55V153.216Z" fill="white" stroke="#263238" stroke-miterlimit="10"/>
<path d="M238.993 155.898H246.605" stroke="#263238" stroke-miterlimit="10"/>
<path d="M238.993 158.637H246.605" stroke="#263238" stroke-miterlimit="10"/>
<path d="M238.993 161.375H246.605" stroke="#263238" stroke-miterlimit="10"/>
<path d="M211.87 153.216H204.039V163.945H211.87V153.216Z" fill="white" stroke="#263238" stroke-miterlimit="10"/>
<path d="M208.641 153.216H207.277V163.945H208.641V153.216Z" fill="white" stroke="#263238" stroke-miterlimit="10"/>
<path d="M204.085 155.898H211.697" stroke="#263238" stroke-miterlimit="10"/>
<path d="M204.085 158.637H211.697" stroke="#263238" stroke-miterlimit="10"/>
<path d="M204.085 161.375H211.697" stroke="#263238" stroke-miterlimit="10"/>
<path d="M212.555 133.292L225.337 122.911L238.61 132.95" stroke="#263238" stroke-width="2" stroke-miterlimit="10"/>
<path d="M236.495 165.304H215.053V167.378H236.495V165.304Z" fill="white" stroke="#263238" stroke-miterlimit="10"/>
<path d="M236.495 166.203H215.053V167.383H236.495V166.203Z" fill="white" stroke="#263238" stroke-miterlimit="10"/>
<path d="M216.811 147.934H214.599V167.378H216.811V147.934Z" fill="white" stroke="#263238" stroke-miterlimit="10"/>
<path d="M237.587 147.934H235.375V167.378H237.587V147.934Z" fill="white" stroke="#263238" stroke-miterlimit="10"/>
<path d="M251.908 146.554H199.629V151.546H251.908V146.554Z" fill="#FFCC00" stroke="#263238" stroke-miterlimit="10"/>
<path d="M76.1326 125.935H27.1489V167.383H76.1326V125.935Z" fill="#FFCC00" stroke="#263238" stroke-linecap="round" stroke-linejoin="round"/>
<path d="M76.1326 152.986H27.1489V167.383H76.1326V152.986Z" fill="#263238" stroke="#263238" stroke-linecap="round" stroke-linejoin="round"/>
<path d="M59.4418 137.328H43.8394V167.378H59.4418V137.328Z" fill="white" stroke="#263238" stroke-linecap="round" stroke-linejoin="round"/>
<path d="M57.7921 137.328H44.9434V151.438H57.7921V137.328Z" fill="white" stroke="#263238" stroke-linecap="round" stroke-linejoin="round"/>
<path d="M57.7921 152.368H44.9434V166.479H57.7921V152.368Z" fill="white" stroke="#263238" stroke-linecap="round" stroke-linejoin="round"/>
<path d="M58.9257 152.113C58.9257 152.307 58.8681 152.496 58.7604 152.658C58.6526 152.819 58.4994 152.945 58.3201 153.019C58.1409 153.093 57.9437 153.113 57.7534 153.075C57.5631 153.037 57.3883 152.944 57.2512 152.806C57.114 152.669 57.0206 152.494 56.9827 152.304C56.9449 152.114 56.9643 151.917 57.0385 151.737C57.1128 151.558 57.2385 151.405 57.3998 151.297C57.5611 151.189 57.7508 151.132 57.9448 151.132C58.2049 151.132 58.4544 151.235 58.6384 151.419C58.8223 151.603 58.9257 151.853 58.9257 152.113Z" fill="white" stroke="#263238" stroke-linecap="round" stroke-linejoin="round"/>
<path d="M57.5824 141.859L51.8452 147.689" stroke="#263238" stroke-width="0.5" stroke-linecap="round" stroke-linejoin="round"/>
<path d="M53.3615 143.407L47.6191 149.231" stroke="#263238" stroke-width="0.5" stroke-linecap="round" stroke-linejoin="round"/>
<path d="M57.5824 155.459L51.8452 161.283" stroke="#263238" stroke-width="0.5" stroke-linecap="round" stroke-linejoin="round"/>
<path d="M53.3615 157.002L47.6191 162.831" stroke="#263238" stroke-width="0.5" stroke-linecap="round" stroke-linejoin="round"/>
<path d="M74.9934 137.328H62.7373V155.147H74.9934V137.328Z" fill="white" stroke="#263238" stroke-linecap="round" stroke-linejoin="round"/>
<path d="M73.9609 142.273L68.2236 148.102" stroke="#263238" stroke-width="0.5" stroke-linecap="round" stroke-linejoin="round"/>
<path d="M69.7414 143.821L63.999 149.645" stroke="#263238" stroke-width="0.5" stroke-linecap="round" stroke-linejoin="round"/>
<path d="M40.2791 137.328H28.0229V155.147H40.2791V137.328Z" fill="white" stroke="#263238" stroke-linecap="round" stroke-linejoin="round"/>
<path d="M38.7355 142.273L32.9932 148.102" stroke="#263238" stroke-width="0.5" stroke-linecap="round" stroke-linejoin="round"/>
<path d="M34.5107 143.821L28.7734 149.645" stroke="#263238" stroke-width="0.5" stroke-linecap="round" stroke-linejoin="round"/>
<path d="M25.1567 132.679H30.5415V137.318C30.5415 137.995 30.2723 138.645 29.7933 139.124C29.3142 139.603 28.6645 139.872 27.987 139.872H27.752C27.0746 139.872 26.4248 139.603 25.9458 139.124C25.4667 138.645 25.1976 137.995 25.1976 137.318V132.679H25.1567Z" fill="#FFCC00"/>
<mask id="mask0_637_33581" style="mask-type:luminance" maskUnits="userSpaceOnUse" x="25" y="132" width="6" height="8">
<path d="M25.1562 132.679H30.541V137.318C30.541 137.995 30.2719 138.645 29.7928 139.124C29.3138 139.603 28.664 139.872 27.9866 139.872H27.7515C27.0741 139.872 26.4243 139.603 25.9453 139.124C25.4662 138.645 25.1971 137.995 25.1971 137.318V132.679H25.1562Z" fill="white"/>
</mask>
<g mask="url(#mask0_637_33581)">
<path opacity="0.3" d="M25.1562 132.679H30.541V137.318C30.541 137.995 30.2719 138.645 29.7928 139.124C29.3138 139.603 28.664 139.872 27.9866 139.872H27.7515C27.0741 139.872 26.4243 139.603 25.9453 139.124C25.4662 138.645 25.1971 137.995 25.1971 137.318V132.679H25.1562Z" fill="black"/>
</g>
<path d="M25.1567 132.679H30.5415V137.318C30.5415 137.995 30.2723 138.645 29.7933 139.124C29.3142 139.603 28.6645 139.872 27.987 139.872H27.752C27.0746 139.872 26.4248 139.603 25.9458 139.124C25.4667 138.645 25.1976 137.995 25.1976 137.318V132.679H25.1567Z" stroke="#263238" stroke-linecap="round" stroke-linejoin="round"/>
<path d="M30.4238 132.679H35.8034V137.318C35.8034 137.995 35.5343 138.645 35.0553 139.124C34.5762 139.603 33.9265 139.872 33.249 139.872H33.014C32.3365 139.872 31.6868 139.603 31.2078 139.124C30.7287 138.645 30.4596 137.995 30.4596 137.318V132.679H30.4238Z" fill="#B2B2B2" stroke="#263238" stroke-linecap="round" stroke-linejoin="round"/>
<path d="M35.6851 132.679H41.0698V137.318C41.0698 137.995 40.8007 138.645 40.3216 139.124C39.8426 139.603 39.1928 139.872 38.5154 139.872H38.2599C37.5824 139.872 36.9327 139.603 36.4537 139.124C35.9746 138.645 35.7055 137.995 35.7055 137.318V132.679H35.6851Z" fill="#FFCC00"/>
<mask id="mask1_637_33581" style="mask-type:luminance" maskUnits="userSpaceOnUse" x="35" y="132" width="7" height="8">
<path d="M35.6841 132.679H41.0688V137.318C41.0688 137.995 40.7997 138.645 40.3206 139.124C39.8416 139.603 39.1919 139.872 38.5144 139.872H38.2589C37.5815 139.872 36.9317 139.603 36.4527 139.124C35.9736 138.645 35.7045 137.995 35.7045 137.318V132.679H35.6841Z" fill="white"/>
</mask>
<g mask="url(#mask1_637_33581)">
<path opacity="0.3" d="M35.6841 132.679H41.0688V137.318C41.0688 137.995 40.7997 138.645 40.3206 139.124C39.8416 139.603 39.1919 139.872 38.5144 139.872H38.2589C37.5815 139.872 36.9317 139.603 36.4527 139.124C35.9736 138.645 35.7045 137.995 35.7045 137.318V132.679H35.6841Z" fill="black"/>
</g>
<path d="M35.6851 132.679H41.0698V137.318C41.0698 137.995 40.8007 138.645 40.3216 139.124C39.8426 139.603 39.1928 139.872 38.5154 139.872H38.2599C37.5824 139.872 36.9327 139.603 36.4537 139.124C35.9746 138.645 35.7055 137.995 35.7055 137.318V132.679H35.6851Z" stroke="#263238" stroke-linecap="round" stroke-linejoin="round"/>
<path d="M40.9531 132.679H46.3327V137.318C46.3327 137.995 46.0636 138.645 45.5846 139.124C45.1055 139.603 44.4558 139.872 43.7783 139.872H43.5229C42.8454 139.872 42.1957 139.603 41.7166 139.124C41.2376 138.645 40.9685 137.995 40.9685 137.318V132.679H40.9531Z" fill="#B2B2B2" stroke="#263238" stroke-linecap="round" stroke-linejoin="round"/>
<path d="M46.2153 132.679H51.6001V137.318C51.6001 137.995 51.3309 138.645 50.8519 139.124C50.3728 139.603 49.7231 139.872 49.0456 139.872H48.8106C48.1332 139.872 47.4834 139.603 47.0044 139.124C46.5253 138.645 46.2562 137.995 46.2562 137.318V132.679H46.2153Z" fill="#FFCC00"/>
<mask id="mask2_637_33581" style="mask-type:luminance" maskUnits="userSpaceOnUse" x="46" y="132" width="6" height="8">
<path d="M46.2148 132.679H51.5996V137.318C51.5996 137.995 51.3304 138.645 50.8514 139.124C50.3724 139.603 49.7226 139.872 49.0451 139.872H48.8101C48.1327 139.872 47.4829 139.603 47.0039 139.124C46.5248 138.645 46.2557 137.995 46.2557 137.318V132.679H46.2148Z" fill="white"/>
</mask>
<g mask="url(#mask2_637_33581)">
<path opacity="0.3" d="M46.2148 132.679H51.5996V137.318C51.5996 137.995 51.3304 138.645 50.8514 139.124C50.3724 139.603 49.7226 139.872 49.0451 139.872H48.8101C48.1327 139.872 47.4829 139.603 47.0039 139.124C46.5248 138.645 46.2557 137.995 46.2557 137.318V132.679H46.2148Z" fill="black"/>
</g>
<path d="M46.2153 132.679H51.6001V137.318C51.6001 137.995 51.3309 138.645 50.8519 139.124C50.3728 139.603 49.7231 139.872 49.0456 139.872H48.8106C48.1332 139.872 47.4834 139.603 47.0044 139.124C46.5253 138.645 46.2562 137.995 46.2562 137.318V132.679H46.2153Z" stroke="#263238" stroke-linecap="round" stroke-linejoin="round"/>
<path d="M51.4775 132.679H56.8623V137.318C56.8623 137.995 56.5931 138.645 56.1141 139.124C55.635 139.603 54.9853 139.872 54.3078 139.872H54.0728C53.3954 139.872 52.7456 139.603 52.2666 139.124C51.7875 138.645 51.5184 137.995 51.5184 137.318V132.679H51.4775Z" fill="#B2B2B2" stroke="#263238" stroke-linecap="round" stroke-linejoin="round"/>
<path d="M56.7446 132.679H62.1294V137.318C62.1294 137.995 61.8602 138.645 61.3812 139.124C60.9021 139.603 60.2524 139.872 59.5749 139.872H59.3399C58.6624 139.872 58.0127 139.603 57.5337 139.124C57.0546 138.645 56.7855 137.995 56.7855 137.318V132.679H56.7446Z" fill="#FFCC00"/>
<mask id="mask3_637_33581" style="mask-type:luminance" maskUnits="userSpaceOnUse" x="56" y="132" width="7" height="8">
<path d="M56.7446 132.679H62.1294V137.318C62.1294 137.995 61.8602 138.645 61.3812 139.124C60.9021 139.603 60.2524 139.872 59.5749 139.872H59.3399C58.6624 139.872 58.0127 139.603 57.5337 139.124C57.0546 138.645 56.7855 137.995 56.7855 137.318V132.679H56.7446Z" fill="white"/>
</mask>
<g mask="url(#mask3_637_33581)">
<path opacity="0.3" d="M56.7446 132.679H62.1294V137.318C62.1294 137.995 61.8602 138.645 61.3812 139.124C60.9021 139.603 60.2524 139.872 59.5749 139.872H59.3399C58.6624 139.872 58.0127 139.603 57.5337 139.124C57.0546 138.645 56.7855 137.995 56.7855 137.318V132.679H56.7446Z" fill="black"/>
</g>
<path d="M56.7446 132.679H62.1294V137.318C62.1294 137.995 61.8602 138.645 61.3812 139.124C60.9021 139.603 60.2524 139.872 59.5749 139.872H59.3399C58.6624 139.872 58.0127 139.603 57.5337 139.124C57.0546 138.645 56.7855 137.995 56.7855 137.318V132.679H56.7446Z" stroke="#263238" stroke-linecap="round" stroke-linejoin="round"/>
<path d="M62.0059 132.679H67.3906V137.323C67.3906 138 67.1215 138.65 66.6424 139.129C66.1634 139.608 65.5136 139.877 64.8362 139.877H64.6012C63.9237 139.877 63.274 139.608 62.7949 139.129C62.3159 138.65 62.0467 138 62.0467 137.323V132.679H62.0059Z" fill="#B2B2B2" stroke="#263238" stroke-linecap="round" stroke-linejoin="round"/>
<path d="M67.2788 132.679H72.6635V137.323C72.6635 138 72.3944 138.65 71.9154 139.129C71.4363 139.608 70.7866 139.877 70.1091 139.877H69.8332C69.1558 139.877 68.506 139.608 68.027 139.129C67.5479 138.65 67.2788 138 67.2788 137.323V132.684V132.679Z" fill="#FFCC00"/>
<mask id="mask4_637_33581" style="mask-type:luminance" maskUnits="userSpaceOnUse" x="67" y="132" width="6" height="8">
<path d="M67.2783 132.679H72.663V137.323C72.663 138 72.3939 138.65 71.9149 139.129C71.4358 139.608 70.7861 139.877 70.1086 139.877H69.8327C69.1553 139.877 68.5055 139.608 68.0265 139.129C67.5474 138.65 67.2783 138 67.2783 137.323V132.684V132.679Z" fill="white"/>
</mask>
<g mask="url(#mask4_637_33581)">
<path opacity="0.3" d="M67.2783 132.679H72.663V137.323C72.663 138 72.3939 138.65 71.9149 139.129C71.4358 139.608 70.7861 139.877 70.1086 139.877H69.8327C69.1553 139.877 68.5055 139.608 68.0265 139.129C67.5474 138.65 67.2783 138 67.2783 137.323V132.684V132.679Z" fill="black"/>
</g>
<path d="M67.2788 132.679H72.6635V137.323C72.6635 138 72.3944 138.65 71.9154 139.129C71.4363 139.608 70.7866 139.877 70.1091 139.877H69.8332C69.1558 139.877 68.506 139.608 68.027 139.129C67.5479 138.65 67.2788 138 67.2788 137.323V132.684V132.679Z" stroke="#263238" stroke-linecap="round" stroke-linejoin="round"/>
<path d="M72.5361 132.679H77.9209V137.318C77.9209 137.995 77.6517 138.645 77.1727 139.124C76.6936 139.603 76.0439 139.872 75.3664 139.872H75.1314C74.454 139.872 73.8042 139.603 73.3252 139.124C72.8461 138.645 72.577 137.995 72.577 137.318V132.674L72.5361 132.679Z" fill="#B2B2B2" stroke="#263238" stroke-linecap="round" stroke-linejoin="round"/>
<path d="M30.5415 125.802H25.1567V133.016H30.5415V125.802Z" fill="#FFCC00" stroke="#263238" stroke-linecap="round" stroke-linejoin="round"/>
<path d="M35.8086 125.802H30.4238V133.016H35.8086V125.802Z" fill="white" stroke="#263238" stroke-linecap="round" stroke-linejoin="round"/>
<path d="M41.0698 125.802H35.6851V133.016H41.0698V125.802Z" fill="#FFCC00" stroke="#263238" stroke-linecap="round" stroke-linejoin="round"/>
<path d="M46.3379 125.802H40.9531V133.016H46.3379V125.802Z" fill="white" stroke="#263238" stroke-linecap="round" stroke-linejoin="round"/>
<path d="M51.6001 125.802H46.2153V133.016H51.6001V125.802Z" fill="#FFCC00" stroke="#263238" stroke-linecap="round" stroke-linejoin="round"/>
<path d="M56.8623 125.802H51.4775V133.016H56.8623V125.802Z" fill="white" stroke="#263238" stroke-linecap="round" stroke-linejoin="round"/>
<path d="M62.1294 125.802H56.7446V133.016H62.1294V125.802Z" fill="#FFCC00" stroke="#263238" stroke-linecap="round" stroke-linejoin="round"/>
<path d="M67.3906 125.802H62.0059V133.016H67.3906V125.802Z" fill="white" stroke="#263238" stroke-linecap="round" stroke-linejoin="round"/>
<path d="M72.6587 125.802H67.2739V133.016H72.6587V125.802Z" fill="#FFCC00" stroke="#263238" stroke-linecap="round" stroke-linejoin="round"/>
<path d="M77.9209 125.802H72.5361V133.016H77.9209V125.802Z" fill="white" stroke="#263238" stroke-linecap="round" stroke-linejoin="round"/>
<path d="M107.425 65.8705L119.191 57.5176L111.64 44.7557L71.3312 36.7041L67.1113 57.819L107.425 65.8705Z" fill="white" stroke="#263238" stroke-miterlimit="10"/>
<path d="M76.5626 43.9789L77.8909 44.2446L77.7019 45.1795L76.3736 44.9138L75.8269 47.6164L74.8052 47.4121L76.1233 40.8574L78.8463 41.4092L78.6572 42.3441L76.9662 42.0018L76.5626 43.9789Z" fill="#263238"/>
<path d="M80.3221 48.5312C80.2888 48.2536 80.3113 47.9722 80.3885 47.7035L80.5979 46.6818C80.7206 46.0738 80.5571 45.8081 80.0871 45.7111L79.7294 45.6395L79.2185 48.3064L78.1968 48.102L79.5149 41.5474L81.0475 41.859C82.1153 42.0736 82.4729 42.6662 82.2685 43.6726L82.1664 44.1835C82.0284 44.8579 81.727 45.2564 81.2263 45.379C81.6963 45.6957 81.7628 46.2271 81.6248 46.9117L81.4256 47.9334C81.3517 48.1993 81.3343 48.4778 81.3745 48.7508L80.3221 48.5312ZM80.3221 42.6866L79.9134 44.6995L80.317 44.7813C80.7001 44.8579 80.9658 44.7353 81.0731 44.2142L81.2059 43.5654C81.2978 43.0953 81.1803 42.8603 80.8176 42.7837L80.3221 42.6866Z" fill="#263238"/>
<path d="M83.8782 45.2969L85.2882 45.5829L85.0992 46.5179L83.6892 46.2369L83.3009 48.1527L85.0788 48.5103L84.8898 49.4503L82.0952 48.8833L83.4133 42.3286L86.2232 42.8957L86.0341 43.8306L84.2563 43.473L83.8782 45.2969Z" fill="#263238"/>
<path d="M87.4697 46.0224L88.8848 46.3085L88.6958 47.2434L87.2807 46.9573L86.8975 48.8782L88.6754 49.2359L88.4864 50.1708L85.6714 49.5986L86.9895 43.0439L89.7942 43.611L89.6103 44.5459L87.8273 44.1883L87.4697 46.0224Z" fill="#263238"/>
<path d="M75.8058 49.5985C76.8275 49.7977 77.2005 50.5027 76.9859 51.55L76.945 51.7544L75.9743 51.5603L76.0305 51.2895C76.1225 50.8195 75.9692 50.6049 75.6423 50.5385C75.3153 50.4721 75.0905 50.6151 74.9986 51.08C74.7278 52.4288 76.6896 53.0878 76.3115 54.9576C76.1021 56.0101 75.4532 56.4903 74.4417 56.2962C73.4301 56.102 73.0316 55.3919 73.2411 54.3395L73.3229 53.941L74.2935 54.1351L74.2016 54.6051C74.1096 55.07 74.2782 55.2795 74.6052 55.3459C74.9321 55.4123 75.1723 55.2846 75.2693 54.835C75.5401 53.4863 73.5783 52.8272 73.9564 50.9523C74.1658 49.8743 74.7993 49.3788 75.8058 49.5985Z" fill="#263238"/>
<path d="M77.7635 56.874L76.7417 56.6645L78.0547 50.1099L79.0764 50.3142L78.5094 53.1241L79.6793 53.3591L80.2464 50.5492L81.2681 50.7638L79.9501 57.3133L78.9027 57.1039L79.4647 54.294L78.2948 54.059L77.7635 56.874Z" fill="#263238"/>
<path d="M82.2021 50.9473L83.2239 51.1567L81.9007 57.7063L80.8789 57.5019L82.2021 50.9473Z" fill="#263238"/>
<path d="M86.8562 53.568L86.6876 54.4212C86.473 55.4685 85.8548 55.9538 84.8228 55.7342L84.312 55.6371L83.8011 58.0945L82.7793 57.8901L84.1383 51.3354L85.6709 51.642C86.6927 51.8514 87.0656 52.5207 86.8562 53.568ZM84.971 52.4798L84.5265 54.6971L85.0374 54.7941C85.3644 54.8606 85.5483 54.7482 85.6709 54.2833L85.865 53.3024C85.9621 52.8323 85.814 52.6484 85.487 52.582L84.971 52.4798Z" fill="#263238"/>
<path d="M90.5352 54.3143L90.3666 55.1624C90.152 56.2097 89.5339 56.6951 88.5019 56.4754L88.0165 56.3783L87.5057 58.8357L86.4839 58.6313L87.802 52.0767L89.3346 52.3832C90.3564 52.5926 90.7498 53.2619 90.5352 54.3143ZM88.6551 53.221L88.2056 55.4383L88.6909 55.5405C89.023 55.6018 89.2273 55.4894 89.3244 55.0296L89.5185 54.0487C89.6156 53.5787 89.4675 53.3947 89.1405 53.3283L88.6551 53.221Z" fill="#263238"/>
<path d="M91.4904 52.8174L92.5122 53.0268L91.1941 59.5815L90.1724 59.372L91.4904 52.8174Z" fill="#263238"/>
<path d="M93.9733 55.2185L93.018 59.9646L92.0933 59.7807L93.4113 53.2261L94.7039 53.4866L94.9695 57.6197L95.7614 53.7012L96.6759 53.8851L95.3782 60.4142L94.3207 60.2048L93.9733 55.2185Z" fill="#263238"/>
<path d="M98.5308 57.262L99.9715 57.5481L99.5526 59.6274C99.3431 60.6799 98.6943 61.1601 97.6828 60.9659C96.6712 60.7718 96.2676 60.0566 96.4822 59.0093L97.1668 55.6017C97.3762 54.5543 98.0251 54.069 99.0366 54.2631C100.048 54.4573 100.452 55.1725 100.237 56.2198L100.109 56.8584L99.1388 56.6643L99.2767 55.9593C99.3738 55.4893 99.2001 55.2747 98.8731 55.2083C98.5462 55.1419 98.306 55.2747 98.209 55.7447L97.4988 59.3056C97.4018 59.7705 97.5755 59.9799 97.9024 60.0464C98.2294 60.1128 98.4695 59.985 98.5666 59.5355L98.8067 58.3247L98.3418 58.2327L98.5308 57.262Z" fill="#263238"/>
<path d="M119.191 57.5174C119.191 57.5174 120.616 62.0183 127.059 62.0183C133.501 62.0183 132.724 57.64 145.348 56.608C157.972 55.5761 165.446 68.716 165.446 68.716" stroke="#263238" stroke-miterlimit="10"/>
<path d="M174.56 90.4746H103.634V136.47H174.56V90.4746Z" fill="#FFCC00" stroke="#263238" stroke-linecap="round" stroke-linejoin="round"/>
<path d="M174.56 90.4746H103.634L115.242 68.8335H186.168L174.56 90.4746Z" fill="#FFCC00" stroke="#263238" stroke-linecap="round" stroke-linejoin="round"/>
<path d="M109.826 79.3936H110.337" stroke="#263238" stroke-miterlimit="10"/>
<path d="M111.344 79.3936H179.532" stroke="#263238" stroke-miterlimit="10" stroke-dasharray="1.98 1.98"/>
<path d="M180.037 79.3936H180.548" stroke="#263238" stroke-miterlimit="10"/>
<path d="M186.168 68.8335V114.088L174.561 136.475V90.4746L186.168 68.8335Z" fill="#FFCC00"/>
<mask id="mask5_637_33581" style="mask-type:luminance" maskUnits="userSpaceOnUse" x="174" y="68" width="13" height="69">
<path d="M186.168 68.8335V114.088L174.561 136.475V90.4746L186.168 68.8335Z" fill="white"/>
</mask>
<g mask="url(#mask5_637_33581)">
<path opacity="0.2" d="M186.168 68.8335V114.088L174.561 136.475V90.4746L186.168 68.8335Z" fill="black"/>
</g>
<path d="M186.168 68.8335V114.088L174.561 136.475V90.4746L186.168 68.8335Z" stroke="#263238" stroke-linecap="round" stroke-linejoin="round"/>
<path d="M132.458 90.4746H142.594L153.491 68.8335H143.36L132.458 90.4746Z" fill="white" stroke="#263238" stroke-miterlimit="10"/>
<path d="M142.665 109.663L137.689 106.072L132.458 109.663V90.4746H142.665V109.663Z" fill="white" stroke="#263238" stroke-miterlimit="10"/>
<path d="M100.008 69.2319H96.6562" stroke="#263238" stroke-miterlimit="10"/>
<path d="M112.63 69.2319H102.581" stroke="#263238" stroke-miterlimit="10"/>
<path d="M102.582 90.1016H86.6118" stroke="#263238" stroke-miterlimit="10"/>
<path d="M88.9261 110.711H86.6118" stroke="#263238" stroke-miterlimit="10"/>
<path d="M102.581 110.711H91.5054" stroke="#263238" stroke-miterlimit="10"/>
<path d="M102.581 99.1187H94.8516" stroke="#263238" stroke-miterlimit="10"/>
<path d="M110.056 75.6743H102.326" stroke="#263238" stroke-miterlimit="10"/>
<path d="M102.581 127.713H94.8516" stroke="#263238" stroke-miterlimit="10"/>
</svg>
