<svg width="157" height="131" viewBox="0 0 157 131" fill="none" xmlns="http://www.w3.org/2000/svg">
<path d="M134.645 78.7754H20.1582V90.8252H134.645V78.7754Z" fill="#0F913D"/>
<g opacity="0.4">
<path d="M134.645 78.7773H20.1582V90.8272H134.645V78.7773Z" fill="black"/>
</g>
<path d="M109.84 92.3457H76.0459V103.505H109.84V92.3457Z" fill="#455A64"/>
<path d="M52.4326 87.2988V102.05H63.9723L68.5974 94.9908H152.853V87.2988H52.4326Z" fill="#263238"/>
<path d="M51.7122 40.5864C51.6995 40.3492 51.599 40.1267 51.4322 39.9667C51.2653 39.8068 51.0456 39.7222 50.8202 39.7311C46.2595 39.9293 24.6084 40.9746 20.156 43.2282C16.7477 44.9551 13.0146 51.4008 10.3823 55.7423C8.49514 58.8539 4.32632 65.7612 3.48327 69.2936C2.76913 72.2803 2.33858 78.4926 2.38757 81.5743L3.57866 97.8815H23.2007L25.1653 92.4946C25.7922 90.7787 26.8981 89.3032 28.3373 88.2625C29.7765 87.2218 31.4813 86.6649 33.2271 86.6652H52.7254V59.6033L51.7122 40.5864Z" fill="#0F913D"/>
<path d="M17.8295 45.0371C15.1276 47.7523 12.4155 52.368 10.3813 55.7457C8.63335 58.6264 4.93117 64.7599 3.72203 68.458C3.69883 68.5259 3.68078 68.591 3.66016 68.6589C4.25828 68.4851 5.17867 68.1294 5.46484 67.5321C5.89539 66.628 6.44711 63.53 13.2688 51.8358C15.3416 48.2709 17.3629 46.1856 17.8295 45.0371Z" fill="#455A64"/>
<path d="M41.6321 43.8282C36.615 44.1296 25.7379 44.9143 22.2626 46.1578C17.7354 47.7869 12.654 60.4097 12.4142 60.9636L8.99045 70.1951C8.97126 70.2554 8.96596 70.3197 8.97497 70.3826C8.98399 70.4456 9.00707 70.5053 9.04231 70.557C9.07756 70.6087 9.12396 70.6509 9.17769 70.68C9.23143 70.7091 9.29096 70.7244 9.35139 70.7245H18.2021C18.5373 70.7246 18.8699 70.6621 19.1844 70.5399L42.4622 61.4007C42.9762 61.1987 43.4193 60.8361 43.7321 60.3615C44.045 59.887 44.2127 59.323 44.2128 58.7453V46.3995C44.2129 46.0492 44.1452 45.7026 44.0138 45.3809C43.8824 45.0592 43.69 44.7691 43.4484 44.5284C43.2068 44.2877 42.9211 44.1014 42.6088 43.981C42.2965 43.8607 41.9641 43.8087 41.6321 43.8282Z" fill="#263238"/>
<path d="M9.97852 69.8157C9.97852 69.8157 13.2579 62.0694 14.3613 59.5307C16.0268 55.697 19.9172 47.8556 22.5443 47.0112C24.96 46.2482 31.9054 45.3197 41.6817 44.7305H41.7745C42.1944 44.7319 42.5966 44.9084 42.8932 45.2213C43.1899 45.5342 43.3568 45.9581 43.3575 46.4003V59.0257C43.3565 59.3369 43.2658 59.6404 43.0972 59.8959C42.9287 60.1515 42.6904 60.347 42.4139 60.4566L25.2152 62.6912C24.5258 62.7808 23.8631 63.0273 23.2733 63.4136C22.6834 63.8 22.1804 64.3169 21.7992 64.9285L18.8189 69.7153C18.6439 69.7835 18.4589 69.8184 18.2723 69.8185L9.97852 69.8157Z" fill="#455A64"/>
<path d="M24.5903 62.8298L18.7432 69.6882L21.9787 46.9163L22.7882 46.623L21.195 63.4923C21.1874 63.577 21.2007 63.6623 21.2335 63.74C21.2663 63.8178 21.3174 63.8854 21.3821 63.9364C21.4468 63.9873 21.5228 64.0199 21.6029 64.0311C21.683 64.0422 21.7645 64.0315 21.8395 64L24.5903 62.8298Z" fill="#263238"/>
<path d="M2.0028 83.1587C1.98217 82.8628 2.07756 82.6157 2.22194 82.6157L5.35694 82.3116C5.61475 82.2844 5.85451 82.7976 5.88545 83.3976L6.02725 85.9309C6.05045 86.3381 5.93444 86.683 5.76944 86.7128L2.57256 87.2939C2.42819 87.321 2.28897 87.0957 2.26835 86.797L2.0028 83.1587Z" fill="#EBEBEB"/>
<path d="M24.5895 94.9922H2V104.531H24.5895V94.9922Z" fill="#263238"/>
<path d="M39.6694 114.494C46.4904 114.218 51.8074 108.171 51.5454 100.988C51.2834 93.8045 45.5415 88.2048 38.7205 88.4808C31.8996 88.7568 26.5825 94.8038 26.8446 101.987C27.1066 109.171 32.8485 114.77 39.6694 114.494Z" fill="#263238"/>
<path d="M26.8448 101.262C26.8462 101.273 26.8462 101.285 26.8448 101.297C26.8016 104.746 28.0602 108.072 30.344 110.545C32.6279 113.018 35.7503 114.434 39.0254 114.484C42.3004 114.534 45.4603 113.212 47.8108 110.81C50.1613 108.407 51.5102 105.121 51.5613 101.672C51.5613 101.672 51.5613 101.65 51.5613 101.639L26.8448 101.262Z" fill="#263238"/>
<path d="M30.5254 101.352C30.5 103.16 30.9843 104.934 31.9168 106.452C32.8493 107.97 34.1883 109.162 35.7643 109.878C37.3403 110.594 39.0826 110.802 40.7709 110.476C42.4591 110.149 44.0174 109.302 45.2486 108.043C46.4799 106.783 47.3289 105.167 47.6881 103.4C48.0474 101.632 47.9008 99.7919 47.267 98.1119C46.6331 96.432 45.5404 94.9878 44.1271 93.9619C42.7138 92.936 41.0434 92.3746 39.3271 92.3486C37.0263 92.3138 34.8067 93.2427 33.1561 94.9311C31.5056 96.6194 30.5593 98.929 30.5254 101.352Z" fill="#FAFAFA"/>
<path d="M39.3261 92.3486C37.0254 92.3138 34.8057 93.2427 33.1552 94.9311C31.5046 96.6194 30.5584 98.929 30.5244 101.352L47.8778 101.624C47.9115 99.1994 47.0295 96.8603 45.4258 95.1209C43.8221 93.3816 41.628 92.3843 39.3261 92.3486Z" fill="#E0E0E0"/>
<path d="M33.9185 101.403C33.9033 102.504 34.1985 103.585 34.7666 104.509C35.3347 105.433 36.1503 106.159 37.1102 106.595C38.0701 107.031 39.1312 107.157 40.1593 106.958C41.1874 106.759 42.1364 106.243 42.8861 105.476C43.6359 104.709 44.1527 103.725 44.3714 102.648C44.59 101.572 44.5006 100.451 44.1144 99.4279C43.7283 98.4048 43.0627 97.5253 42.2019 96.9007C41.3411 96.276 40.3237 95.9342 39.2784 95.9185C37.8771 95.8975 36.5253 96.4635 35.5201 97.492C34.515 98.5205 33.9389 99.9273 33.9185 101.403Z" fill="#263238"/>
<path d="M15.2294 52.0957H14.2214C13.0852 52.0957 12.1641 53.0658 12.1641 54.2624V62.8776C12.1641 64.0742 13.0852 65.0443 14.2214 65.0443H15.2294C16.3657 65.0443 17.2868 64.0742 17.2868 62.8776V54.2624C17.2868 53.0658 16.3657 52.0957 15.2294 52.0957Z" fill="#263238"/>
<path d="M10.0439 73.0477H9.78613V59.3552C9.78682 58.7023 10.0334 58.0763 10.4718 57.6147C10.9102 57.153 11.5045 56.8933 12.1245 56.8926H12.7432V57.1641H12.1245C11.5729 57.1648 11.0441 57.3959 10.6541 57.8067C10.264 58.2174 10.0446 58.7743 10.0439 59.3552V73.0477Z" fill="#263238"/>
<path d="M11.7996 73.0625L11.0829 60.2606C11.0728 60.0417 11.1048 59.8229 11.1768 59.6174C11.2489 59.4118 11.3597 59.2237 11.5024 59.0642C11.6451 58.9048 11.8169 58.7773 12.0075 58.6894C12.1981 58.6015 12.4036 58.555 12.6117 58.5527V58.8242C12.4382 58.8243 12.2665 58.8617 12.1072 58.9341C11.9479 59.0066 11.8043 59.1125 11.6853 59.2455C11.5663 59.3785 11.4743 59.5357 11.4151 59.7074C11.3558 59.8792 11.3305 60.0619 11.3407 60.2443L12.0574 73.0489L11.7996 73.0625Z" fill="#263238"/>
<path d="M12.612 71.8145H9.13672V76.0528H12.612V71.8145Z" fill="#263238"/>
<path d="M11.3278 63.7695H9.91504V64.041H11.3278V63.7695Z" fill="#263238"/>
<path d="M23.1258 44.1933L23.4326 44.1499L24.3375 44.0386L27.8437 43.6123L40.9148 42.0457C41.6109 41.9669 42.3199 41.8692 43.0547 41.8013C43.43 41.7712 43.8075 41.7968 44.1761 41.8773C44.5509 41.9696 44.9124 42.1139 45.2512 42.3063C45.95 42.7159 46.5166 43.3361 46.878 44.0875C47.065 44.4715 47.1913 44.8851 47.2518 45.312C47.2843 45.5276 47.3024 45.7453 47.306 45.9636V46.618C47.306 50.1232 47.306 53.8864 47.306 57.875C47.306 65.8521 47.306 74.7252 47.306 84.2119V84.2825H33.727C32.9518 84.2557 32.1759 84.2947 31.4067 84.3993C29.82 84.6397 28.323 85.3219 27.0703 86.3753C25.8176 87.4287 24.8546 88.8152 24.2808 90.3916C24.1694 90.681 24.0755 90.9776 23.9997 91.2795C23.916 91.5781 23.8497 91.8818 23.8012 92.189L23.7342 92.6506L23.7033 92.8814L23.6904 93.1122L23.6697 93.5765V93.81V93.8371C23.7265 93.7774 23.5898 93.9294 23.6001 93.9131H6.38086V93.8371C6.38086 89.7454 6.38086 85.8003 6.38086 82.0317C6.38086 80.1473 6.38086 78.3074 6.38086 76.5118V73.8563C6.38086 73.4192 6.38086 72.9875 6.38086 72.5558C6.38926 72.1264 6.41852 71.6978 6.46852 71.2715C6.66512 69.6288 7.16056 68.0413 7.92773 66.596C8.63758 65.1896 9.32508 63.832 9.99023 62.5233L13.646 55.3092L16.6134 49.4526C16.83 49.0272 17.038 48.6154 17.2373 48.2172C17.3405 48.0217 17.4307 47.8235 17.539 47.6389C17.6457 47.4584 17.7619 47.2844 17.887 47.1176C18.3341 46.5304 18.8605 46.0154 19.4494 45.5889C20.2604 45.0091 21.1671 44.5938 22.1229 44.3644C22.451 44.2815 22.7845 44.2243 23.1206 44.1933L22.8628 44.2341C22.6952 44.2612 22.4477 44.3074 22.1229 44.3861C21.1728 44.6227 20.2724 45.0425 19.4674 45.6242C18.8835 46.0513 18.3623 46.5663 17.9205 47.1529C17.7957 47.3168 17.6812 47.4891 17.5776 47.6687C17.4719 47.8479 17.3817 48.0489 17.2786 48.2471L16.6573 49.4852L13.7156 55.3472C12.6122 57.5356 11.3953 59.9493 10.0805 62.5668L8.01797 66.6395C7.2579 68.0738 6.76852 69.6495 6.5768 71.2797C6.52766 71.7023 6.49926 72.1273 6.49172 72.5531C6.49172 72.9793 6.49172 73.4165 6.49172 73.8509V76.5063C6.49172 78.3001 6.49172 80.1401 6.49172 82.0262C6.49172 85.7949 6.49172 89.74 6.49172 93.8317L6.42727 93.7665H23.5795C23.5976 93.753 23.4558 93.8969 23.5151 93.8317V93.8018V93.5683L23.5383 93.0959V92.8624L23.5718 92.6289L23.6388 92.1592C23.6878 91.8474 23.755 91.5391 23.8399 91.236C23.917 90.9294 24.0126 90.6284 24.1261 90.3346C24.7091 88.7352 25.6865 87.3285 26.9577 86.2594C28.2288 85.1903 29.7477 84.4976 31.3577 84.2527C32.127 84.1495 32.9029 84.1105 33.678 84.1359H47.1951L47.1281 84.2038C47.1281 74.7279 47.1281 65.8548 47.1281 57.8668C47.1281 53.8783 47.1281 50.1151 47.1281 46.6098C47.1449 46.1792 47.1276 45.7478 47.0765 45.3201C47.0179 44.9029 46.8951 44.4984 46.713 44.1227C46.363 43.3883 45.8103 42.7826 45.1275 42.3851C44.7984 42.1953 44.4462 42.0537 44.0807 41.9642C43.7208 41.8842 43.352 41.8577 42.985 41.8855C42.2554 41.9506 41.5413 42.0484 40.8478 42.1271L27.7793 43.6503L24.2705 44.0549L23.3655 44.1553L23.1258 44.1933Z" fill="#263238"/>
<path d="M43.1912 74.202C43.1912 74.202 43.2634 74.202 43.3923 74.1694C43.5818 74.1339 43.7625 74.0582 43.9234 73.9468C44.177 73.7717 44.3669 73.5114 44.4622 73.2082C44.5205 73.0191 44.5441 72.8201 44.5318 72.6218C44.5263 72.4018 44.4724 72.1862 44.3745 71.9918C44.2624 71.7694 44.0955 71.5827 43.8914 71.4514C43.6874 71.32 43.4535 71.2488 43.2144 71.2452H41.5128H37.6147C37.2901 71.2457 36.9771 71.3718 36.7351 71.5996C36.4931 71.8274 36.3391 72.141 36.3024 72.4806C36.2619 72.803 36.3188 73.1307 36.4649 73.4173C36.6098 73.6884 36.8367 73.9006 37.1094 74.0201C37.3791 74.1187 37.6656 74.1557 37.9499 74.1287H38.7749H40.2573L42.4049 74.1504H42.9901C43.0575 74.1489 43.1248 74.1543 43.1912 74.1667C43.1245 74.1752 43.0573 74.1798 42.9901 74.1803H42.4049L40.2573 74.202H38.7749H37.9499C37.8055 74.202 37.6663 74.202 37.5142 74.202C37.3594 74.1898 37.2074 74.1532 37.063 74.0934C36.7648 73.963 36.5163 73.7318 36.3566 73.4363C36.1965 73.1253 36.1333 72.769 36.1761 72.4181C36.216 72.0454 36.3846 71.7011 36.6499 71.4507C36.9151 71.2004 37.2585 71.0615 37.6147 71.0605H41.5128H43.2144C43.5863 71.0683 43.9407 71.2282 44.2025 71.5065C44.4643 71.7848 44.6129 72.1595 44.6169 72.5512C44.6251 72.7586 44.5962 72.9658 44.5318 73.1621C44.4258 73.4774 44.2212 73.7454 43.9517 73.9223C43.7836 74.0326 43.5942 74.1021 43.3974 74.126C43.3319 74.1601 43.2626 74.1856 43.1912 74.202Z" fill="#263238"/>
<path d="M42.7193 70.79C41.9847 70.8581 41.247 70.8807 40.5099 70.8579C39.7719 70.8808 39.0333 70.8581 38.2979 70.79C39.0332 70.7201 39.7719 70.6965 40.5099 70.7194C41.247 70.6965 41.9848 70.7201 42.7193 70.79Z" fill="white"/>
<path d="M25.6191 104.61L23.5566 104.453C24.0955 96.6738 24.8844 92.02 25.9698 90.2253C28.0529 86.7771 30.1231 86.1526 32.4151 85.7426C34.5498 85.3598 36.7025 85.4494 38.7856 85.539L39.3012 85.5607C43.6015 85.7372 52.6095 85.5797 52.7075 85.5797L52.741 87.7518C52.6508 87.7518 43.5861 87.912 39.229 87.7328L38.7134 87.7111C36.736 87.6296 34.6941 87.54 32.7709 87.8876C30.7212 88.2541 29.3574 88.675 27.7126 91.3956C27.215 92.2074 26.2817 95.0284 25.6191 104.61Z" fill="#263238"/>
<path d="M155.378 16H53.8047V87.2238H155.378V16Z" fill="#0F913D"/>
<path d="M154.163 85.8134C154.163 85.3546 154.142 59.2321 154.108 17.6089L154.163 17.6632L54.9049 17.6795L54.972 17.6089C54.972 41.8525 54.972 64.9285 54.972 85.8134L54.9101 85.7483L154.168 85.8134L54.9101 85.8786H54.8379V85.8134C54.8379 64.9285 54.8379 41.8525 54.8379 17.6089V17.541H54.9127L154.17 17.5546H154.225V17.6116C154.183 59.2321 154.163 85.3573 154.163 85.8134Z" fill="#263238"/>
<g opacity="0.5">
<path d="M68.207 54.2059L69.1661 74.5777L144.496 58.075L143.163 36.8398L68.207 54.2059Z" fill="black"/>
</g>
<path d="M73.915 68.3143L74.4307 66.4137C75.439 66.8707 76.5581 66.9828 77.6301 66.7341C78.7825 66.4626 79.4348 65.887 79.2827 65.1892C78.9707 63.6605 74.6421 65.496 74.0156 62.4496C73.616 60.4838 74.9901 58.8439 77.5064 58.2764C78.7258 58.0049 79.9118 58.032 80.8115 58.385L80.3603 60.2503C79.525 59.9195 78.6155 59.8562 77.7461 60.0684C76.5267 60.3399 75.9131 60.997 76.0523 61.6812C76.3617 63.2533 80.7058 61.4097 81.3065 64.3502C81.7087 66.3322 80.3088 67.9776 77.7796 68.5478C76.305 68.8845 74.8096 68.7352 73.915 68.3143Z" fill="white"/>
<path d="M91.0539 55.3789L91.1854 65.3489L89.0842 65.8241L89.0301 61.7649L84.918 62.6935L84.9747 66.7662L82.858 67.2305L82.7266 57.2578L84.8406 56.7799L84.8922 60.6979L89.0043 59.7693L88.9527 55.8513L91.0539 55.3789Z" fill="white"/>
<path d="M93.2041 54.89L95.313 54.4121L95.4445 64.3821L93.3304 64.86L93.2041 54.89Z" fill="white"/>
<path d="M105.29 55.2829C105.785 57.713 104.396 59.6271 101.681 60.2272L99.6571 60.6833L99.6958 63.4283L97.5818 63.9062L97.458 53.9253L101.129 53.1108C103.398 52.5868 104.909 53.404 105.29 55.2829ZM103.202 55.9535C103.014 55.025 102.302 54.729 101.238 54.9707L99.5901 55.3426L99.6314 58.8044L101.408 58.4026C102.79 58.0822 103.46 57.2161 103.202 55.9454V55.9535Z" fill="white"/>
<path d="M114.649 53.1574C115.144 55.601 113.755 57.5016 111.04 58.1017L109.019 58.5605L109.063 61.3055L106.949 61.7834L106.814 51.8134L110.486 50.9825C112.762 50.4694 114.273 51.2866 114.649 53.1574ZM112.561 53.8307C112.373 52.8994 111.659 52.6035 110.597 52.8451L108.949 53.2171L108.99 56.6816L110.767 56.2798C112.159 55.9648 112.824 55.0987 112.566 53.8307H112.561Z" fill="white"/>
<path d="M116.196 49.6947L118.31 49.2168L118.444 59.1895L116.33 59.6674L116.196 49.6947Z" fill="white"/>
<path d="M128.768 46.8672L128.902 56.8372L127.174 57.2282L122.572 51.9988L122.65 58.2437L120.587 58.7134L120.453 48.7406L122.191 48.3469L126.798 53.579L126.705 47.3342L128.768 46.8672Z" fill="white"/>
<path d="M137.129 49.8056L139.049 49.3712L139.098 53.4738C138.247 54.4739 137.111 55.1568 135.86 55.4205C133.109 56.0423 131.029 54.7553 130.526 52.2845C129.861 49.0263 131.627 46.0397 135.064 45.2577C136.801 44.864 138.191 45.1627 139.189 46.0723L137.946 47.7013C137.173 47.0741 136.368 46.9438 135.368 47.1719C133.241 47.6525 132.207 49.5721 132.635 51.6763C132.926 53.1099 134.032 53.8756 135.757 53.4846C136.278 53.3726 136.769 53.1398 137.193 52.8031L137.129 49.8056Z" fill="white"/>
<path d="M131.076 35.361L146.279 31.6114L145.679 29.9062L131.076 35.361Z" fill="#FAFAFA"/>
<path d="M63.001 47.3392L73.5713 44.7326L73.1536 43.5488L63.001 47.3392Z" fill="#FAFAFA"/>
<path d="M99.1904 74.1657L114.394 70.4133L113.795 68.7109L99.1904 74.1657Z" fill="#FAFAFA"/>
<path d="M83.1109 51.3647C83.1109 51.4027 79.6304 52.1793 75.3198 53.0916C71.0092 54.0039 67.5107 54.7207 67.5029 54.6826C67.4952 54.6446 70.9834 53.8681 75.294 52.9531C79.6047 52.0381 83.1032 51.3267 83.1109 51.3647Z" fill="#FAFAFA"/>
<path d="M39.3672 49.7285C39.3672 49.7285 39.3362 49.7611 39.2718 49.8127L38.9882 50.0272C38.7304 50.2145 38.3772 50.4752 37.9286 50.7983C37.0288 51.4391 35.7759 52.3133 34.3785 53.2555C32.9812 54.1977 31.705 55.0312 30.7691 55.6258C30.3051 55.9218 29.9261 56.1689 29.6631 56.3209L29.3589 56.5001C29.3243 56.5237 29.287 56.5429 29.248 56.5571C29.248 56.5571 29.279 56.5245 29.3434 56.4784L29.6348 56.272L30.7202 55.5417L34.3012 53.136L37.8693 50.7141L38.9547 49.9837L39.2537 49.7882C39.2894 49.7641 39.3274 49.7441 39.3672 49.7285Z" fill="#FAFAFA"/>
<path d="M34.9609 50.9531C34.9609 50.9531 34.93 50.9857 34.8655 51.0373L34.5819 51.2518C34.3241 51.4364 33.9709 51.6998 33.5198 52.0202C32.62 52.6637 31.367 53.5352 29.9723 54.4638C28.5775 55.3924 27.2987 56.2422 26.3629 56.8369C25.8988 57.1328 25.5198 57.3799 25.2569 57.5292L24.9527 57.7111C24.9186 57.7352 24.8812 57.7535 24.8418 57.7654C24.8707 57.7355 24.9027 57.7091 24.9372 57.6867L25.2285 57.4831L26.3113 56.75L29.8949 54.3471L33.463 51.9251L34.5484 51.1921L34.8449 50.9993C34.8815 50.9786 34.9205 50.9631 34.9609 50.9531Z" fill="#FAFAFA"/>
<path d="M13.2561 58.8602C13.2166 58.786 13.1895 58.7051 13.1762 58.6212C13.1349 58.4665 13.0782 58.2384 13.0137 57.956C12.8442 57.2181 12.7577 56.4617 12.7559 55.7025C12.7523 54.9355 12.9201 54.1784 13.2458 53.4923C13.3476 53.2871 13.4704 53.0941 13.6119 52.9167C13.6596 52.849 13.717 52.7894 13.782 52.7402C13.6174 52.9977 13.466 53.2641 13.3283 53.5385C13.0345 54.2206 12.8841 54.9616 12.8874 55.7106C12.8952 56.4606 12.9721 57.2081 13.1169 57.9425C13.1813 58.245 13.2278 58.5515 13.2561 58.8602Z" fill="#FAFAFA"/>
<path d="M2.75895 78.1088C2.74962 78.0122 2.74962 77.9148 2.75895 77.8182C2.75895 77.6227 2.75895 77.3404 2.77441 77.0037C2.79504 76.3059 2.84402 75.342 2.92395 74.2885C3.00387 73.2351 3.09926 72.2685 3.18176 71.5734C3.22301 71.2258 3.2591 70.9462 3.28746 70.7588C3.29717 70.6582 3.31704 70.559 3.34676 70.4629C3.35971 70.5638 3.35971 70.6661 3.34676 70.767L3.27973 71.5815C3.22301 72.3092 3.14566 73.2513 3.06059 74.2967C2.97551 75.342 2.92395 76.2815 2.87496 77.0118C2.85176 77.3376 2.83113 77.6119 2.81566 77.8264C2.80782 77.9226 2.78877 78.0174 2.75895 78.1088Z" fill="#FAFAFA"/>
<path d="M31.0127 83.377C31.0127 83.4068 30.5152 83.4801 29.7443 83.7435C29.2931 83.8978 28.8528 84.0856 28.4269 84.3055C27.3831 84.8514 26.4389 85.5867 25.6373 86.4776C25.31 86.8391 25.0076 87.2248 24.7324 87.6316C24.2658 88.3294 24.0466 88.81 24.0234 88.7964C24.0618 88.678 24.1101 88.5635 24.1678 88.4543C24.2255 88.3216 24.2909 88.1929 24.3638 88.0687C24.4463 87.9221 24.5365 87.7511 24.6551 87.5746C24.922 87.1547 25.2203 86.758 25.5471 86.3881C25.9522 85.936 26.3929 85.5209 26.8645 85.1472C27.3405 84.7833 27.8461 84.4644 28.3753 84.1942C28.8076 83.9756 29.2559 83.794 29.7159 83.6512C29.9093 83.5833 30.0923 83.5453 30.2496 83.5046C30.3848 83.47 30.5216 83.4428 30.6595 83.4231C30.7756 83.3958 30.8939 83.3804 31.0127 83.377Z" fill="#FAFAFA"/>
<path d="M56.4024 66.9862C56.3991 66.9473 56.3991 66.9083 56.4024 66.8694C56.4024 66.7862 56.4024 66.6721 56.4024 66.5273C56.4024 66.2178 56.4024 65.7752 56.3843 65.2105C56.3689 64.0593 56.3482 62.4057 56.3199 60.3667C56.2503 56.2695 56.1549 50.6247 56.0492 44.388C55.9435 38.1513 55.8532 32.4957 55.8171 28.4066C55.7991 26.3621 55.7939 24.7059 55.7965 23.5628C55.7965 22.9954 55.7965 22.5528 55.7965 22.246V21.9039C55.7965 21.8251 55.7965 21.7871 55.7965 21.7871C55.8 21.8259 55.8 21.865 55.7965 21.9039C55.7965 21.9853 55.7965 22.0994 55.7965 22.246C55.7965 22.5528 55.7965 22.9954 55.8146 23.5628C55.83 24.714 55.8507 26.3648 55.879 28.4039C55.9486 32.5011 56.044 38.1459 56.1497 44.3853C56.2554 50.6247 56.3482 56.2749 56.3818 60.3639C56.3998 62.4112 56.4075 64.0647 56.405 65.2078C56.405 65.7752 56.405 66.2178 56.405 66.5273C56.405 66.6712 56.405 66.7853 56.405 66.8694C56.4063 66.9084 56.4054 66.9474 56.4024 66.9862Z" fill="#FAFAFA"/>
<path d="M130.995 114.48C137.815 114.193 143.123 108.137 142.85 100.954C142.578 93.7711 136.827 88.1809 130.007 88.4682C123.186 88.7554 117.878 94.8113 118.151 101.994C118.424 109.177 124.174 114.767 130.995 114.48Z" fill="#263238"/>
<path d="M118.138 101.262C118.138 101.262 118.138 101.286 118.138 101.297C118.091 104.748 119.347 108.078 121.631 110.554C123.915 113.03 127.04 114.448 130.317 114.498C133.594 114.548 136.756 113.224 139.107 110.819C141.458 108.414 142.805 105.123 142.852 101.672V101.639L118.138 101.262Z" fill="#263238"/>
<path d="M121.816 101.352C121.792 103.159 122.276 104.933 123.208 106.45C124.141 107.966 125.48 109.158 127.055 109.873C128.63 110.589 130.372 110.797 132.059 110.47C133.747 110.143 135.305 109.297 136.535 108.038C137.766 106.779 138.615 105.164 138.974 103.397C139.333 101.63 139.187 99.7908 138.553 98.1114C137.92 96.4321 136.828 94.9883 135.416 93.9625C134.003 92.9367 132.334 92.3751 130.618 92.3486C128.317 92.3138 126.098 93.2427 124.447 94.9311C122.797 96.6194 121.85 98.929 121.816 101.352Z" fill="#FAFAFA"/>
<path d="M130.619 92.3486C129.48 92.331 128.348 92.55 127.289 92.9929C126.23 93.4359 125.265 94.0942 124.447 94.9303C123.63 95.7664 122.977 96.7638 122.526 97.8657C122.075 98.9675 121.834 100.152 121.817 101.352L139.168 101.624C139.186 100.423 138.978 99.2311 138.558 98.1153C138.138 96.9994 137.513 95.9817 136.719 95.1204C135.925 94.259 134.977 93.5709 133.931 93.0953C132.884 92.6197 131.759 92.366 130.619 92.3486Z" fill="#E0E0E0"/>
<path d="M125.219 101.403C125.204 102.504 125.499 103.585 126.067 104.509C126.635 105.433 127.451 106.159 128.411 106.595C129.371 107.031 130.432 107.157 131.46 106.958C132.488 106.759 133.437 106.243 134.187 105.476C134.937 104.709 135.454 103.725 135.672 102.648C135.891 101.572 135.801 100.451 135.415 99.4279C135.029 98.4048 134.363 97.5253 133.503 96.9007C132.642 96.276 131.624 95.9342 130.579 95.9185C129.178 95.8975 127.826 96.4635 126.821 97.492C125.816 98.5205 125.24 99.9273 125.219 101.403Z" fill="#263238"/>
<path d="M114.247 105.051C114.247 105.051 112.365 86.5879 130.53 86.5879C147.288 86.5879 146.917 102.466 146.757 104.923H144.13C144.13 104.923 145.468 89.2732 130.53 89.2732C115.593 89.2732 116.892 105.241 116.892 105.241C116.892 105.241 115.789 105.184 114.247 105.051Z" fill="#455A64"/>
<path d="M123.977 88.4987C123.932 88.523 123.884 88.5412 123.835 88.553C123.74 88.5883 123.598 88.6236 123.423 88.6887C122.919 88.8576 122.425 89.0598 121.945 89.2942C120.357 90.0613 118.95 91.1897 117.826 92.5982C116.702 94.0067 115.888 95.6602 115.443 97.4396C115.307 97.9753 115.203 98.5194 115.131 99.0687C115.103 99.2642 115.093 99.4163 115.077 99.5194C115.073 99.5726 115.064 99.6253 115.052 99.6769C115.045 99.6246 115.045 99.5717 115.052 99.5194C115.052 99.4135 115.052 99.2479 115.082 99.0633C115.134 98.5047 115.225 97.951 115.356 97.4071C115.778 95.6004 116.589 93.92 117.725 92.4951C118.861 91.0703 120.293 89.939 121.909 89.1883C122.396 88.9597 122.897 88.7692 123.41 88.6181C123.59 88.5638 123.735 88.534 123.83 88.5095C123.878 88.5001 123.928 88.4965 123.977 88.4987Z" fill="#FAFAFA"/>
</svg>
