<svg width="149" height="81" viewBox="0 0 149 81" fill="none" xmlns="http://www.w3.org/2000/svg">
<path d="M13.1637 72.6518C12.8307 72.7502 12.064 72.6362 12.064 72.6362C12.064 72.6362 12.2875 72.1534 12.3098 72.1243C12.5334 71.7935 13.1302 71.2771 13.5571 71.3911C13.6275 71.4119 13.6927 71.4472 13.7485 71.4948C13.8043 71.5424 13.8495 71.6012 13.8811 71.6674C13.9128 71.7336 13.9301 71.8057 13.9321 71.879C13.934 71.9523 13.9205 72.0252 13.8924 72.093C13.8188 72.2334 13.7154 72.3561 13.5896 72.4526C13.4638 72.5491 13.3184 72.6171 13.1637 72.6518Z" fill="#263238"/>
<path d="M5.99885 72.3317C5.99885 72.3317 5.92285 71.8019 5.92285 71.7684C5.92285 71.375 6.14638 70.6083 6.55543 70.4675C6.62577 70.4453 6.7 70.4383 6.77323 70.4469C6.84647 70.4555 6.91707 70.4795 6.98039 70.5172C7.04371 70.555 7.09833 70.6058 7.14066 70.6661C7.18299 70.7265 7.21208 70.7952 7.22601 70.8676C7.24226 71.0256 7.22388 71.1852 7.17215 71.3354C7.12042 71.4855 7.03659 71.6226 6.92649 71.7371C6.7052 72.0031 5.99885 72.3317 5.99885 72.3317Z" fill="#263238"/>
<path d="M4.36009 70.9162C4.65314 71.028 4.96133 71.095 5.27432 71.1152C5.34361 71.2068 5.41291 71.3074 5.49785 71.4192C5.62973 71.6181 5.77725 71.8416 5.92255 72.0897C5.96055 72.1568 5.99855 72.2328 6.03878 72.3133C5.94713 72.206 5.81525 72.0607 5.81525 72.0473C5.56043 71.8237 4.92115 71.5086 4.59256 71.6986C4.53724 71.7317 4.48951 71.776 4.45251 71.8288C4.41551 71.8816 4.39006 71.9416 4.37782 72.0049C4.36559 72.0682 4.36684 72.1333 4.3815 72.1961C4.39617 72.2589 4.42391 72.3178 4.46292 72.3692C4.55656 72.4727 4.67169 72.5546 4.80026 72.609C4.92882 72.6634 5.06773 72.6891 5.20726 72.6843C5.52054 72.6492 5.82659 72.5662 6.11478 72.4384C6.19748 72.5971 6.28019 72.7648 6.35619 72.9436C6.48977 73.2637 6.5945 73.5951 6.66913 73.9338H6.64901C6.57748 73.8243 6.42548 73.5985 6.4076 73.5829C6.18407 73.3214 5.58726 72.9481 5.22961 73.1023C5.17105 73.1292 5.11882 73.1682 5.07634 73.2167C5.03386 73.2652 5.00209 73.3221 4.98311 73.3837C4.96412 73.4453 4.95834 73.5102 4.96616 73.5742C4.97397 73.6382 4.99519 73.6998 5.02844 73.755C5.11008 73.8679 5.21539 73.9616 5.33701 74.0296C5.45863 74.0975 5.59362 74.1381 5.73255 74.1484C6.05499 74.145 6.37514 74.0938 6.68254 73.9964C6.75495 74.3393 6.80498 74.6865 6.8323 75.0358C6.85242 75.2929 6.86359 75.5566 6.87254 75.8204C6.8256 75.7422 6.62218 75.4449 6.6043 75.4248C6.38078 75.1632 5.78396 74.7922 5.42632 74.9442C5.36775 74.9711 5.31552 75.0101 5.27304 75.0586C5.23057 75.1071 5.1988 75.164 5.17981 75.2256C5.16082 75.2872 5.15505 75.3521 5.16286 75.4161C5.17067 75.48 5.19189 75.5417 5.22514 75.5969C5.30667 75.7101 5.4119 75.8041 5.53351 75.8724C5.65512 75.9408 5.79018 75.9818 5.92925 75.9925C6.25025 75.9894 6.56896 75.9382 6.87477 75.8405C6.87477 75.9612 6.87477 76.0797 6.87477 76.2004C6.87477 76.5916 6.89265 76.985 6.91277 77.3717C6.91277 77.5058 6.93065 77.6377 6.94183 77.7696C6.86583 77.6556 6.7183 77.4499 6.7183 77.4343C6.49477 77.1727 5.89796 76.7995 5.54031 76.9537C5.48175 76.9806 5.42952 77.0196 5.38704 77.0681C5.34457 77.1166 5.3128 77.1735 5.29381 77.2351C5.27482 77.2967 5.26905 77.3616 5.27686 77.4256C5.28467 77.4895 5.30589 77.5512 5.33914 77.6064C5.42078 77.7193 5.52609 77.813 5.64771 77.8809C5.76933 77.9489 5.90432 77.9894 6.04325 77.9998C6.35344 78.0004 6.66185 77.9529 6.95748 77.859C6.97759 78.0825 7.00218 78.306 7.03795 78.5094C7.05359 78.6011 7.06477 78.695 7.08712 78.7821C7.10947 78.8693 7.12512 78.9587 7.14524 79.0437C7.18994 79.2225 7.23241 79.3857 7.27935 79.5511C7.30394 79.6338 7.3263 79.712 7.35088 79.7925C7.29053 79.6651 7.19441 79.4639 7.18324 79.446C6.99771 79.1532 6.46795 78.695 6.09019 78.7933C6.02773 78.8104 5.96974 78.8409 5.92023 78.8827C5.87072 78.9245 5.83088 78.9765 5.80345 79.0351C5.77603 79.0938 5.76168 79.1578 5.7614 79.2225C5.76113 79.2873 5.77492 79.3513 5.80184 79.4102C5.86549 79.5363 5.9562 79.6468 6.06748 79.7337C6.17877 79.8206 6.30788 79.8819 6.4456 79.9132C6.76123 79.9606 7.08219 79.9606 7.39782 79.9132C7.45594 80.1077 7.51406 80.2999 7.57441 80.4765C7.63476 80.6531 7.66605 80.7581 7.713 80.8878H7.96782C7.9097 80.7358 7.85158 80.5748 7.79123 80.4027C7.73088 80.2306 7.67723 80.0741 7.62135 79.8998C7.90984 79.7891 8.18144 79.6386 8.42828 79.4527C8.5936 79.558 8.76447 79.6542 8.94016 79.7411C8.87981 79.9355 8.82392 80.1278 8.77475 80.3088C8.72557 80.4899 8.66969 80.7045 8.62499 80.8833H8.87534C8.9111 80.7201 8.95133 80.5502 8.99827 80.3669C9.04522 80.1837 9.08545 80.0294 9.13463 79.8528C9.44515 79.9242 9.76466 79.9483 10.0824 79.9244C10.2199 79.903 10.3511 79.8519 10.4669 79.7747C10.5827 79.6975 10.6803 79.596 10.753 79.4773C10.7813 79.4194 10.7972 79.3562 10.7996 79.2917C10.802 79.2273 10.7908 79.1631 10.7668 79.1032C10.7427 79.0434 10.7064 78.9892 10.6601 78.9443C10.6139 78.8994 10.5587 78.8647 10.4981 78.8425C10.1293 78.7195 9.56827 79.1398 9.36486 79.4192C9.35145 79.4371 9.21957 79.6651 9.15474 79.7835C9.1838 79.6762 9.2151 79.5712 9.24639 79.4594C9.29333 79.3007 9.34698 79.1331 9.40062 78.9699C9.42968 78.8872 9.45874 78.8023 9.49004 78.7173C9.52133 78.6324 9.55709 78.5519 9.59062 78.467C9.64203 78.3463 9.70238 78.2233 9.7605 78.0981C10.0462 78.2111 10.348 78.2782 10.6546 78.2971C10.7907 78.2926 10.9243 78.2592 11.0465 78.1991C11.1686 78.1389 11.2766 78.0535 11.3632 77.9484C11.4007 77.8953 11.4266 77.8348 11.4391 77.7709C11.4516 77.7071 11.4504 77.6413 11.4356 77.5779C11.4208 77.5146 11.3928 77.4551 11.3533 77.4033C11.3139 77.3516 11.2639 77.3088 11.2067 77.2778C10.8625 77.1012 10.2433 77.4298 9.99968 77.6757C9.99968 77.6757 9.94379 77.7405 9.89015 77.8098C9.95125 77.6906 10.0138 77.5721 10.0779 77.4544C10.2657 77.1191 10.4691 76.7838 10.6703 76.4463L10.7932 76.2362C11.0835 76.3503 11.3895 76.4196 11.7007 76.4418C11.8403 76.4411 11.978 76.4099 12.1042 76.3504C12.2304 76.291 12.3422 76.2047 12.4316 76.0976C12.4692 76.0445 12.4951 75.984 12.5076 75.9201C12.52 75.8563 12.5189 75.7905 12.5041 75.7271C12.4893 75.6638 12.4612 75.6043 12.4218 75.5525C12.3823 75.5008 12.3324 75.458 12.2752 75.427C11.9287 75.2504 11.3118 75.579 11.0659 75.8249L10.9407 75.9791C11.048 75.7958 11.1643 75.6103 11.2492 75.4225C11.4198 75.1019 11.5692 74.7703 11.6962 74.4301C11.9936 74.552 12.308 74.6274 12.6284 74.6536C12.7679 74.6529 12.9056 74.6217 13.0318 74.5622C13.1581 74.5028 13.2698 74.4165 13.3593 74.3094C13.3968 74.2562 13.4227 74.1958 13.4352 74.1319C13.4477 74.068 13.4465 74.0023 13.4317 73.9389C13.4169 73.8756 13.3889 73.8161 13.3494 73.7643C13.31 73.7126 13.26 73.6698 13.2028 73.6388C12.8563 73.4622 12.2394 73.793 11.9935 74.0367C11.9757 74.0545 11.77 74.3027 11.7119 74.3943C11.8261 74.0575 11.9099 73.7111 11.9622 73.3594C12.0119 73.0456 12.0425 72.7291 12.0539 72.4116C12.0673 72.1166 12.0539 71.8461 12.0539 71.6069C12.0539 71.4773 12.0427 71.361 12.036 71.2493C12.036 71.2493 12.2037 70.8022 12.2104 70.7799C12.2931 70.4446 12.2528 69.7449 11.922 69.5415C11.8654 69.5097 11.8027 69.4902 11.738 69.4843C11.6733 69.4784 11.6081 69.4863 11.5466 69.5074C11.4852 69.5285 11.4289 69.5624 11.3815 69.6068C11.3341 69.6512 11.2966 69.7051 11.2715 69.7651C11.2269 69.8971 11.2115 70.0373 11.2266 70.1759C11.2416 70.3145 11.2867 70.4481 11.3587 70.5675C11.5401 70.8236 11.7603 71.0499 12.0114 71.2381C12.0114 71.3521 12.0114 71.475 12.0226 71.6114C12.0226 71.8483 12.0226 72.1188 12.0025 72.4116C12.0025 72.4899 11.9891 72.5726 11.9801 72.6553C11.9645 72.5144 11.9399 72.3244 11.9354 72.3066C11.8527 71.969 11.4884 71.3677 11.1061 71.3409C11.0419 71.3383 10.9777 71.3492 10.9179 71.3729C10.8581 71.3966 10.8039 71.4325 10.7588 71.4784C10.7138 71.5244 10.6788 71.5792 10.6563 71.6394C10.6337 71.6997 10.624 71.764 10.6278 71.8282C10.6492 71.9657 10.7002 72.097 10.7774 72.2128C10.8546 72.3286 10.9561 72.4262 11.0748 72.4988C11.3561 72.6421 11.6576 72.7416 11.9689 72.7939C11.9511 72.9727 11.9265 73.1582 11.8907 73.3482C11.8307 73.6952 11.7402 74.0363 11.6202 74.3675H11.5979C11.5979 74.2356 11.5979 73.9607 11.5979 73.9383C11.551 73.5963 11.2626 72.957 10.8804 72.8877C10.8166 72.8783 10.7516 72.8823 10.6895 72.8995C10.6273 72.9166 10.5695 72.9466 10.5196 72.9874C10.4697 73.0282 10.4289 73.079 10.3998 73.1365C10.3707 73.1941 10.354 73.257 10.3506 73.3214C10.3568 73.4607 10.3932 73.597 10.4573 73.7209C10.5214 73.8448 10.6116 73.9533 10.7217 74.0389C10.9921 74.2148 11.2875 74.349 11.5979 74.4368C11.4691 74.7618 11.3197 75.0784 11.1508 75.3845C11.0279 75.6081 10.8915 75.8316 10.753 76.0551C10.753 75.9635 10.753 75.6081 10.753 75.579C10.7083 75.2348 10.4177 74.5977 10.0354 74.5284C9.97149 74.5167 9.90576 74.5191 9.84282 74.5354C9.77989 74.5517 9.72126 74.5815 9.67104 74.6228C9.62082 74.6641 9.58021 74.7158 9.55203 74.7744C9.52386 74.833 9.5088 74.8971 9.50792 74.9621C9.51354 75.1015 9.54969 75.238 9.6138 75.362C9.67791 75.486 9.76842 75.5944 9.87897 75.6796C10.1475 75.854 10.4406 75.9874 10.7485 76.0752L10.5607 76.3792C10.3528 76.7123 10.1427 77.0498 9.94603 77.3784C9.87674 77.4946 9.81415 77.6019 9.74933 77.7271C9.74933 77.5885 9.74933 77.3382 9.74933 77.318C9.70462 76.9738 9.41403 76.3368 9.0318 76.2675C8.96785 76.2558 8.90212 76.2581 8.83919 76.2744C8.77625 76.2907 8.71763 76.3206 8.6674 76.3619C8.61718 76.4031 8.57657 76.4549 8.5484 76.5135C8.52022 76.5721 8.50517 76.6361 8.50428 76.7011C8.51009 76.8403 8.54608 76.9765 8.60977 77.1004C8.67345 77.2243 8.7633 77.3329 8.8731 77.4186C9.1318 77.5893 9.41529 77.719 9.71356 77.8031C9.6085 77.9998 9.51015 78.1943 9.42074 78.391C9.38498 78.4759 9.34251 78.5608 9.31121 78.6458C9.27992 78.7307 9.24863 78.8134 9.2151 78.8961C9.15698 79.0705 9.1011 79.2314 9.04969 79.3924C9.02286 79.4751 9.00051 79.5533 8.97592 79.6338C8.99604 79.493 9.0251 79.2717 9.0251 79.2515C9.0251 78.9051 8.84404 78.2323 8.47746 78.1049C8.41579 78.0854 8.35072 78.0791 8.28648 78.0865C8.22224 78.0938 8.16027 78.1146 8.1046 78.1475C8.04893 78.1804 8.00081 78.2247 7.96338 78.2774C7.92595 78.3301 7.90004 78.3901 7.88735 78.4536C7.88068 78.4868 7.8762 78.5204 7.87394 78.5541C7.69822 78.8079 7.59118 79.1028 7.56323 79.4102C7.56323 79.4304 7.57665 79.6941 7.59006 79.8282C7.55429 79.7232 7.52076 79.6181 7.48723 79.5086C7.43806 79.3477 7.39112 79.18 7.34418 79.0146C7.32406 78.9297 7.30171 78.8425 7.28159 78.7553C7.26147 78.6681 7.24582 78.5787 7.22794 78.4916C7.20335 78.3597 7.18547 78.2256 7.16536 78.0892C7.46254 78.0248 7.7477 77.9139 8.01029 77.7606C8.1265 77.6831 8.22435 77.5812 8.29695 77.4618C8.36955 77.3425 8.41514 77.2087 8.43052 77.0699C8.43389 77.005 8.42304 76.94 8.39873 76.8797C8.37442 76.8194 8.33724 76.7651 8.28977 76.7206C8.24231 76.6761 8.18571 76.6425 8.12393 76.6222C8.06214 76.6018 7.99666 76.5952 7.93205 76.6028C7.54759 76.6452 7.21453 77.2599 7.14524 77.5997C7.14524 77.6109 7.14524 77.6846 7.12736 77.7718C7.11394 77.6377 7.0983 77.5058 7.08936 77.3717C7.0603 76.9872 7.04465 76.596 7.02677 76.2049L7.01336 75.959C7.31828 75.8957 7.61158 75.7856 7.88288 75.6326C7.99946 75.5548 8.09767 75.4525 8.17063 75.3328C8.2436 75.2132 8.28957 75.079 8.30534 74.9397C8.30682 74.8752 8.2947 74.811 8.26978 74.7515C8.24486 74.6919 8.20768 74.6382 8.16068 74.594C8.11367 74.5497 8.05788 74.5158 7.99693 74.4945C7.93598 74.4732 7.87122 74.465 7.80688 74.4703C7.42241 74.5128 7.08936 75.1297 7.02006 75.4695C7.02006 75.4806 7.02006 75.5678 6.99995 75.6662C6.98653 75.4538 6.97089 75.2415 6.94853 75.0314C6.91365 74.6708 6.8539 74.313 6.76971 73.9607C7.08277 73.8951 7.38418 73.7829 7.66382 73.6276C7.77931 73.5496 7.87649 73.4474 7.94866 73.3282C8.02082 73.2089 8.06625 73.0754 8.08182 72.9369C8.08361 72.8725 8.07179 72.8084 8.04712 72.7488C8.02245 72.6892 7.98549 72.6356 7.93866 72.5913C7.89182 72.5469 7.83617 72.513 7.77533 72.4917C7.71449 72.4704 7.64983 72.4621 7.58559 72.4675C7.19888 72.51 6.86583 73.1269 6.79654 73.4667C6.79654 73.4913 6.76301 73.8064 6.75854 73.9137C6.75854 73.9137 6.75854 73.9137 6.75854 73.9025C6.66878 73.5579 6.54834 73.222 6.39866 72.8989C6.2666 72.6101 6.11732 72.3294 5.9516 72.0584C5.80184 71.8059 5.64761 71.5823 5.50455 71.3879C5.42855 71.2806 5.35926 71.1867 5.2922 71.0973C5.2922 71.0973 5.19161 70.6391 5.18044 70.61C5.0642 70.2836 4.64397 69.7159 4.25504 69.7382C4.19072 69.7423 4.12799 69.7599 4.07093 69.7898C4.01388 69.8198 3.96378 69.8614 3.92391 69.9121C3.88404 69.9627 3.8553 70.0211 3.83956 70.0836C3.82382 70.1461 3.82144 70.2112 3.83257 70.2747C3.86664 70.4144 3.93175 70.5446 4.02308 70.6557C4.11441 70.7668 4.2296 70.8558 4.36009 70.9162Z" fill="#263238"/>
<path d="M138.58 76.1619C138.371 76.1938 138.157 76.1938 137.948 76.1619C137.948 76.1619 138.08 75.8847 138.091 75.869C138.212 75.679 138.56 75.3818 138.806 75.4466C138.844 75.4591 138.88 75.4793 138.91 75.5058C138.941 75.5323 138.966 75.5646 138.983 75.6009C139.001 75.6371 139.011 75.6766 139.013 75.7169C139.016 75.7572 139.01 75.7975 138.996 75.8355C138.955 75.9168 138.896 75.9882 138.824 76.0445C138.752 76.1009 138.669 76.1409 138.58 76.1619Z" fill="#263238"/>
<path d="M134.472 75.9766C134.472 75.9766 134.428 75.6726 134.428 75.6547C134.428 75.4312 134.551 74.9841 134.792 74.9081C134.832 74.8957 134.874 74.8917 134.915 74.8965C134.957 74.9012 134.997 74.9145 135.033 74.9355C135.069 74.9565 135.1 74.9849 135.124 75.0186C135.149 75.0524 135.166 75.0909 135.174 75.1317C135.184 75.2223 135.173 75.3139 135.144 75.4C135.114 75.4861 135.066 75.5647 135.002 75.6301C134.844 75.7714 134.665 75.8881 134.472 75.9766Z" fill="#263238"/>
<path d="M133.53 75.1649C133.699 75.2281 133.876 75.2665 134.055 75.2789C134.093 75.3303 134.136 75.3884 134.178 75.4532C134.254 75.5672 134.339 75.6969 134.422 75.8421L134.489 75.9651L134.357 75.8131C134.21 75.679 133.85 75.5046 133.655 75.6142C133.623 75.633 133.596 75.6584 133.575 75.6887C133.553 75.719 133.539 75.7534 133.532 75.7898C133.525 75.8261 133.526 75.8635 133.534 75.8995C133.543 75.9355 133.559 75.9693 133.582 75.9986C133.635 76.0581 133.701 76.1051 133.775 76.1364C133.849 76.1676 133.928 76.1824 134.008 76.1797C134.188 76.1584 134.362 76.1102 134.527 76.0366C134.578 76.1311 134.624 76.2281 134.666 76.3272C134.748 76.5124 134.813 76.7047 134.86 76.9017H134.847C134.806 76.8391 134.717 76.7094 134.708 76.6983C134.578 76.5485 134.239 76.3361 134.038 76.4233C134.004 76.4388 133.974 76.4612 133.949 76.489C133.925 76.5169 133.906 76.5497 133.895 76.5851C133.884 76.6205 133.881 76.6579 133.886 76.6947C133.89 76.7316 133.902 76.767 133.921 76.7988C133.968 76.8632 134.029 76.9166 134.099 76.9552C134.169 76.9938 134.246 77.0167 134.326 77.0224C134.511 77.021 134.695 76.9916 134.871 76.9352C134.912 77.1313 134.941 77.33 134.956 77.5298C134.97 77.6795 134.976 77.8293 134.981 77.9768L134.827 77.7533C134.695 77.6013 134.355 77.389 134.156 77.4761C134.122 77.4916 134.092 77.514 134.068 77.5419C134.043 77.5697 134.025 77.6025 134.014 77.6379C134.003 77.6733 134 77.7107 134.004 77.7475C134.008 77.7844 134.021 77.8198 134.04 77.8516C134.087 77.916 134.148 77.9694 134.217 78.008C134.287 78.0466 134.365 78.0695 134.444 78.0752C134.628 78.0741 134.81 78.0447 134.985 77.988V78.1959C134.985 78.4194 134.996 78.6429 135.008 78.8665C135.008 78.9447 135.008 79.0207 135.023 79.09C134.981 79.0252 134.898 78.9067 134.891 78.8978C134.759 78.748 134.42 78.5334 134.221 78.6228C134.187 78.638 134.157 78.6602 134.133 78.6879C134.108 78.7156 134.09 78.7482 134.079 78.7836C134.068 78.8189 134.065 78.8562 134.07 78.8928C134.075 78.9295 134.087 78.9647 134.107 78.9961C134.154 79.0608 134.214 79.1144 134.284 79.1531C134.354 79.1917 134.432 79.2144 134.511 79.2196C134.689 79.221 134.866 79.1938 135.034 79.1392C135.034 79.2666 135.059 79.3895 135.079 79.5125C135.09 79.5661 135.097 79.6197 135.108 79.6689L135.142 79.8187C135.169 79.9215 135.193 80.0154 135.22 80.1093C135.233 80.1584 135.247 80.2032 135.26 80.2479C135.227 80.1741 135.171 80.0601 135.164 80.0489C135.057 79.8813 134.753 79.6197 134.538 79.6756C134.503 79.6858 134.469 79.7033 134.441 79.7271C134.413 79.7509 134.39 79.7805 134.373 79.8138C134.357 79.8471 134.348 79.8835 134.347 79.9205C134.346 79.9576 134.352 79.9945 134.366 80.0288C134.403 80.1001 134.454 80.1626 134.518 80.2116C134.581 80.2607 134.654 80.2952 134.733 80.3127C134.913 80.3393 135.097 80.3393 135.278 80.3127C135.312 80.4244 135.345 80.5362 135.379 80.6368C135.412 80.7374 135.432 80.7977 135.459 80.8603H135.604C135.573 80.7732 135.537 80.6815 135.504 80.5831C135.47 80.4848 135.439 80.3932 135.405 80.2926C135.571 80.23 135.728 80.145 135.87 80.04C135.965 80.1002 136.063 80.1554 136.163 80.2054C136.13 80.3172 136.096 80.4289 136.069 80.5295C136.043 80.6301 136.007 80.753 135.982 80.8603H136.125C136.145 80.7664 136.17 80.6703 136.197 80.563C136.224 80.4557 136.246 80.3708 136.275 80.268C136.453 80.3094 136.636 80.3238 136.818 80.3104C136.897 80.2975 136.972 80.2677 137.039 80.2229C137.105 80.1782 137.161 80.1196 137.203 80.0512C137.219 80.018 137.228 79.9818 137.23 79.9448C137.231 79.9078 137.225 79.871 137.211 79.8366C137.197 79.8022 137.177 79.7712 137.15 79.7453C137.124 79.7195 137.092 79.6996 137.057 79.6868C136.845 79.6175 136.523 79.8567 136.407 80.0176C136.407 80.0288 136.322 80.1584 136.286 80.2277C136.304 80.1652 136.32 80.1048 136.34 80.0422C136.36 79.9796 136.396 79.8545 136.427 79.7606C136.443 79.7114 136.461 79.6645 136.478 79.6153C136.496 79.5661 136.516 79.5214 136.537 79.4722C136.557 79.423 136.599 79.3314 136.635 79.2599C136.796 79.3245 136.967 79.363 137.14 79.3739C137.22 79.3732 137.299 79.3553 137.372 79.3214C137.444 79.2874 137.509 79.2383 137.56 79.1772C137.581 79.1466 137.595 79.1119 137.602 79.0756C137.608 79.0392 137.607 79.0018 137.599 78.9658C137.59 78.9299 137.574 78.8961 137.552 78.8667C137.529 78.8372 137.501 78.8128 137.469 78.7949C137.272 78.6943 136.917 78.8821 136.776 79.0185L136.713 79.0945C136.749 79.0274 136.785 78.9581 136.823 78.8911C136.93 78.6988 137.046 78.5066 137.162 78.3144L137.232 78.1914C137.398 78.2577 137.574 78.2977 137.753 78.3099C137.833 78.3097 137.912 78.292 137.984 78.258C138.057 78.224 138.121 78.1746 138.173 78.1132C138.194 78.0827 138.208 78.0482 138.215 78.0119C138.221 77.9756 138.221 77.9383 138.212 77.9024C138.204 77.8664 138.188 77.8326 138.166 77.8031C138.144 77.7736 138.116 77.749 138.083 77.731C137.884 77.6304 137.529 77.8181 137.388 77.9545L137.317 78.0439C137.379 77.9366 137.437 77.8315 137.493 77.7242C137.591 77.5403 137.676 77.3498 137.748 77.1542C137.919 77.2228 138.099 77.265 138.282 77.2794C138.362 77.2789 138.441 77.2611 138.513 77.2271C138.585 77.1931 138.649 77.1439 138.7 77.0827C138.722 77.0525 138.737 77.018 138.744 76.9815C138.751 76.9451 138.75 76.9076 138.742 76.8714C138.733 76.8352 138.717 76.8013 138.695 76.7718C138.672 76.7424 138.644 76.718 138.611 76.7005C138.414 76.5977 138.059 76.7877 137.918 76.924C137.918 76.924 137.795 77.076 137.757 77.1274C137.822 76.9345 137.87 76.7363 137.9 76.5351C137.928 76.3551 137.946 76.1738 137.954 75.9919C137.954 75.822 137.954 75.6678 137.954 75.5292C137.954 75.4554 137.954 75.3884 137.954 75.3258C137.954 75.3258 138.052 75.0732 138.054 75.0576C138.101 74.8631 138.079 74.463 137.889 74.3468C137.857 74.3286 137.821 74.3174 137.784 74.3138C137.747 74.3102 137.71 74.3143 137.675 74.3258C137.64 74.3374 137.608 74.3562 137.58 74.381C137.553 74.4057 137.531 74.4359 137.516 74.4697C137.49 74.5456 137.482 74.6261 137.49 74.7056C137.499 74.7851 137.525 74.8618 137.567 74.9302C137.671 75.0766 137.797 75.2063 137.94 75.3146C137.94 75.3802 137.94 75.4547 137.94 75.5382C137.94 75.6745 137.94 75.8287 137.94 75.9964L137.927 76.135C137.927 76.0567 137.905 75.9472 137.902 75.936C137.853 75.7438 137.647 75.3973 137.426 75.3817C137.389 75.38 137.352 75.3862 137.317 75.3999C137.283 75.4135 137.252 75.4343 137.226 75.4609C137.2 75.4875 137.18 75.5193 137.167 75.5542C137.154 75.5891 137.149 75.6263 137.151 75.6633C137.164 75.7421 137.193 75.8173 137.238 75.8836C137.282 75.95 137.34 76.006 137.408 76.0478C137.569 76.13 137.742 76.1872 137.92 76.2177C137.909 76.3205 137.896 76.4256 137.875 76.5351C137.842 76.7346 137.791 76.9307 137.721 77.1207H137.708C137.708 77.0447 137.708 76.8972 137.708 76.8748C137.681 76.6781 137.516 76.3116 137.297 76.2736C137.26 76.2679 137.223 76.2699 137.187 76.2796C137.151 76.2893 137.118 76.3064 137.089 76.3298C137.061 76.3532 137.037 76.3824 137.02 76.4155C137.004 76.4485 136.994 76.4847 136.993 76.5217C136.998 76.6023 137.021 76.6808 137.059 76.7518C137.098 76.8229 137.151 76.8846 137.216 76.933C137.372 77.0316 137.541 77.1069 137.719 77.1565C137.645 77.3429 137.559 77.5244 137.462 77.6997C137.39 77.8315 137.314 77.9589 137.238 78.0886C137.238 78.0372 137.238 77.8293 137.238 77.8159C137.214 77.6169 137.046 77.2526 136.827 77.2124C136.791 77.207 136.754 77.2094 136.718 77.2192C136.683 77.2291 136.65 77.2462 136.621 77.2696C136.593 77.293 136.57 77.322 136.553 77.3549C136.537 77.3878 136.527 77.4237 136.525 77.4605C136.53 77.5414 136.552 77.6203 136.591 77.6914C136.629 77.7626 136.683 77.8242 136.749 77.8718C136.903 77.9709 137.071 78.0463 137.247 78.0953L137.14 78.2697C137.019 78.4619 136.899 78.6519 136.787 78.8441C136.747 78.9089 136.711 78.976 136.675 79.0431C136.675 78.9648 136.675 78.8195 136.675 78.8083C136.648 78.6116 136.483 78.2451 136.264 78.2048C136.227 78.1995 136.19 78.2019 136.154 78.2118C136.118 78.2218 136.085 78.2391 136.056 78.2627C136.028 78.2863 136.004 78.3156 135.988 78.3487C135.971 78.3819 135.962 78.4181 135.96 78.4552C135.965 78.5358 135.988 78.6143 136.026 78.6854C136.065 78.7564 136.119 78.8181 136.183 78.8665C136.332 78.9648 136.495 79.0402 136.666 79.09C136.606 79.2018 136.548 79.3135 136.499 79.4253C136.475 79.4732 136.454 79.5225 136.436 79.5728C136.416 79.622 136.398 79.6689 136.38 79.7159C136.347 79.8165 136.313 79.9081 136.284 80.002C136.271 80.0489 136.257 80.0936 136.241 80.1383C136.255 80.0579 136.271 79.9327 136.271 79.9148C136.271 79.7181 136.165 79.3314 135.955 79.2576C135.92 79.2466 135.883 79.243 135.846 79.2472C135.81 79.2514 135.774 79.2633 135.742 79.282C135.711 79.3008 135.683 79.326 135.662 79.3561C135.64 79.3862 135.625 79.4204 135.618 79.4566C135.616 79.4759 135.616 79.4954 135.618 79.5147C135.519 79.6596 135.459 79.8273 135.443 80.002C135.443 80.0154 135.443 80.1652 135.459 80.2434C135.441 80.183 135.421 80.1227 135.401 80.0579L135.321 79.7762L135.283 79.6265C135.269 79.575 135.262 79.5259 135.251 79.4745C135.24 79.423 135.229 79.3225 135.218 79.2509C135.388 79.2153 135.552 79.1535 135.703 79.0676C135.769 79.0228 135.824 78.9642 135.866 78.8959C135.907 78.8277 135.933 78.7513 135.942 78.672C135.943 78.635 135.936 78.5983 135.922 78.5641C135.908 78.5299 135.887 78.4991 135.86 78.4736C135.833 78.448 135.802 78.4285 135.767 78.416C135.732 78.4036 135.695 78.3987 135.658 78.4015C135.435 78.4261 135.245 78.7793 135.211 78.9738C135.211 78.9738 135.211 79.0229 135.211 79.0721C135.211 78.9961 135.195 78.9201 135.189 78.8486C135.173 78.6251 135.164 78.4015 135.153 78.178V78.0372C135.328 78.0015 135.496 77.9381 135.651 77.8494C135.718 77.805 135.774 77.7466 135.815 77.6782C135.856 77.6098 135.882 77.5332 135.891 77.4538C135.892 77.4169 135.885 77.3802 135.871 77.3461C135.857 77.3121 135.836 77.2813 135.809 77.256C135.782 77.2307 135.75 77.2113 135.715 77.1992C135.68 77.187 135.643 77.1824 135.607 77.1855C135.383 77.2101 135.193 77.5633 135.16 77.7578C135.16 77.7578 135.16 77.8159 135.16 77.8718C135.16 77.7488 135.142 77.6281 135.131 77.5074C135.109 77.3005 135.075 77.0952 135.028 76.8927C135.165 76.8538 135.297 76.799 135.421 76.7295C135.488 76.6849 135.544 76.6265 135.585 76.5582C135.627 76.4899 135.653 76.4134 135.663 76.3339C135.663 76.2969 135.656 76.2602 135.642 76.2261C135.628 76.192 135.606 76.1614 135.579 76.1361C135.552 76.1108 135.52 76.0914 135.485 76.0793C135.45 76.0672 135.413 76.0625 135.376 76.0657C135.153 76.0903 134.963 76.4434 134.929 76.6379C134.929 76.6513 134.909 76.8346 134.907 76.8994C134.855 76.7021 134.785 76.5099 134.699 76.325C134.624 76.1598 134.539 75.9994 134.444 75.8444C134.357 75.6991 134.27 75.5694 134.19 75.4577L134.069 75.2923C134.069 75.2923 134.011 75.0307 134.004 75.0129C133.937 74.8273 133.696 74.5055 133.474 74.5122C133.437 74.5148 133.401 74.5251 133.369 74.5424C133.336 74.5597 133.307 74.5836 133.284 74.6126C133.261 74.6416 133.245 74.6751 133.236 74.711C133.226 74.7468 133.225 74.7841 133.231 74.8206C133.253 74.896 133.292 74.9656 133.343 75.025C133.395 75.0843 133.459 75.132 133.53 75.1649Z" fill="#263238"/>
<path d="M145.746 72.3632C145.404 72.4661 144.608 72.3476 144.608 72.3476C144.608 72.3476 144.845 71.8469 144.863 71.8178C145.087 71.4736 145.713 70.9394 146.155 71.0578C146.228 71.0796 146.295 71.1164 146.353 71.1657C146.41 71.215 146.457 71.2759 146.489 71.3443C146.522 71.4127 146.54 71.4872 146.542 71.563C146.544 71.6388 146.53 71.7142 146.502 71.7843C146.426 71.9305 146.319 72.0581 146.189 72.1582C146.058 72.2583 145.907 72.3283 145.746 72.3632Z" fill="#263238"/>
<path d="M138.325 72.0346C138.325 72.0346 138.247 71.487 138.247 71.4512C138.247 71.0422 138.471 70.2509 138.902 70.1101C138.975 70.0876 139.051 70.0807 139.126 70.0898C139.202 70.0989 139.274 70.1238 139.34 70.1628C139.405 70.2018 139.461 70.2541 139.505 70.3162C139.548 70.3784 139.578 70.449 139.593 70.5236C139.608 70.686 139.589 70.8499 139.536 71.0041C139.482 71.1584 139.397 71.2994 139.284 71.4177C139.061 71.6904 138.325 72.0346 138.325 72.0346Z" fill="#263238"/>
<path d="M136.636 70.5589C136.938 70.6753 137.257 70.744 137.581 70.7623L137.805 71.0775C137.941 71.2832 138.095 71.5246 138.252 71.7816C138.292 71.8509 138.332 71.9292 138.373 72.0052C138.279 71.8956 138.149 71.7436 138.133 71.7302C137.87 71.4866 137.217 71.1736 136.868 71.3703C136.811 71.4045 136.761 71.4505 136.723 71.5052C136.684 71.5599 136.658 71.6222 136.645 71.6878C136.633 71.7535 136.634 71.8211 136.649 71.8862C136.665 71.9513 136.693 72.0124 136.734 72.0655C136.831 72.1724 136.951 72.2568 137.084 72.3128C137.217 72.3688 137.361 72.395 137.505 72.3896C137.83 72.3541 138.146 72.2682 138.444 72.1348C138.529 72.3002 138.614 72.4723 138.694 72.6579C138.839 72.9923 138.955 73.3386 139.041 73.6928H139.021L138.77 73.3284C138.534 73.058 137.921 72.6735 137.55 72.8322C137.49 72.8601 137.437 72.9003 137.393 72.9501C137.35 72.9999 137.317 73.0583 137.297 73.1214C137.278 73.1846 137.272 73.2512 137.279 73.3168C137.287 73.3825 137.308 73.4459 137.342 73.5028C137.427 73.6197 137.536 73.7169 137.661 73.7876C137.787 73.8582 137.927 73.9006 138.071 73.9118C138.405 73.9084 138.736 73.8549 139.054 73.7531C139.129 74.1078 139.181 74.4669 139.209 74.8283C139.231 75.0965 139.242 75.367 139.251 75.6397C139.202 75.5592 138.992 75.253 138.974 75.2329C138.737 74.9624 138.124 74.5757 137.753 74.7344C137.694 74.7626 137.641 74.8029 137.597 74.8528C137.554 74.9026 137.521 74.9609 137.502 75.024C137.482 75.087 137.476 75.1535 137.484 75.2191C137.491 75.2847 137.512 75.348 137.546 75.405C137.63 75.5216 137.739 75.6185 137.865 75.6887C137.991 75.759 138.131 75.801 138.274 75.8118C138.607 75.809 138.937 75.7562 139.253 75.6554C139.253 75.7805 139.253 75.9035 139.253 76.0286C139.253 76.4332 139.271 76.84 139.291 77.2402C139.291 77.3787 139.311 77.5173 139.323 77.6537C139.244 77.5352 139.099 77.3206 139.083 77.305C138.846 77.0345 138.234 76.6478 137.863 76.8065C137.803 76.8347 137.75 76.875 137.707 76.9248C137.663 76.9747 137.631 77.033 137.611 77.0961C137.592 77.1591 137.586 77.2256 137.593 77.2912C137.601 77.3568 137.622 77.4201 137.655 77.4771C137.74 77.5937 137.849 77.6906 137.975 77.7608C138.1 77.8311 138.24 77.8731 138.384 77.8839C138.705 77.8845 139.023 77.8355 139.329 77.7386C139.352 77.9621 139.376 78.1857 139.412 78.4092C139.43 78.5031 139.441 78.6014 139.463 78.6908L139.524 78.9635C139.571 79.1468 139.615 79.3167 139.665 79.4866C139.687 79.5715 139.711 79.652 139.736 79.7369C139.676 79.6051 139.575 79.3972 139.562 79.3793C139.372 79.0753 138.822 78.6014 138.444 78.7087C138.38 78.7273 138.321 78.7591 138.269 78.8022C138.218 78.8452 138.177 78.8985 138.148 78.9586C138.119 79.0186 138.103 79.0841 138.101 79.1509C138.099 79.2176 138.11 79.284 138.136 79.3458C138.202 79.4742 138.295 79.5867 138.409 79.6755C138.523 79.7643 138.654 79.8272 138.795 79.8599C139.122 79.9099 139.454 79.9099 139.781 79.8599C139.841 80.0633 139.901 80.2622 139.962 80.4455C140.022 80.6288 140.06 80.7361 140.107 80.8702H140.371C140.313 80.7138 140.25 80.5461 140.188 80.3673C140.125 80.1885 140.071 80.0275 140.011 79.8465C140.309 79.7365 140.59 79.5861 140.847 79.3994C141.018 79.5081 141.195 79.6074 141.377 79.6967C141.316 79.8979 141.258 80.0968 141.207 80.2846C141.155 80.4724 141.097 80.6936 141.05 80.8792H141.31C141.348 80.7115 141.388 80.5349 141.437 80.3449C141.486 80.1549 141.527 79.9962 141.578 79.8129C141.899 79.8866 142.23 79.9114 142.559 79.8867C142.702 79.8632 142.838 79.8093 142.958 79.7287C143.078 79.6481 143.179 79.5427 143.254 79.4195C143.283 79.3594 143.3 79.2939 143.302 79.2271C143.304 79.1604 143.292 79.0939 143.267 79.032C143.242 78.9701 143.204 78.9141 143.156 78.8677C143.108 78.8212 143.051 78.7854 142.988 78.7624C142.608 78.635 142.027 79.0686 141.815 79.3592C141.801 79.3771 141.665 79.614 141.591 79.7369C141.623 79.6252 141.654 79.5134 141.687 79.4017C141.737 79.2362 141.793 79.0619 141.846 78.8943L141.94 78.6327C141.969 78.5433 142.009 78.4628 142.043 78.3757C142.097 78.2483 142.159 78.1209 142.219 77.9934C142.512 78.108 142.82 78.1773 143.134 78.1991C143.278 78.198 143.42 78.1655 143.551 78.1037C143.681 78.0419 143.797 77.9524 143.889 77.8414C143.928 77.7868 143.954 77.7247 143.967 77.6592C143.979 77.5936 143.978 77.5262 143.963 77.4612C143.948 77.3962 143.919 77.3351 143.879 77.282C143.838 77.2289 143.787 77.1849 143.728 77.153C143.371 76.9697 142.731 77.3094 142.479 77.5643C142.479 77.5643 142.421 77.6313 142.365 77.7029C142.43 77.5799 142.492 77.457 142.561 77.334C142.756 76.9876 142.964 76.6411 143.172 76.2924C143.216 76.2186 143.257 76.1449 143.301 76.0689C143.601 76.1896 143.916 76.265 144.238 76.2924C144.383 76.2915 144.525 76.259 144.656 76.1973C144.787 76.1355 144.903 76.0459 144.996 75.9348C145.034 75.88 145.06 75.8179 145.072 75.7525C145.085 75.687 145.083 75.6196 145.068 75.5547C145.053 75.4899 145.024 75.4289 144.984 75.3757C144.944 75.3226 144.893 75.2785 144.835 75.2463C144.477 75.063 143.838 75.4028 143.583 75.6576L143.453 75.8163C143.563 75.6263 143.677 75.4341 143.773 75.2396C143.944 74.9078 144.094 74.5651 144.22 74.2136C144.529 74.3363 144.854 74.4116 145.186 74.4371C145.33 74.4361 145.472 74.4035 145.603 74.3417C145.733 74.28 145.849 74.1905 145.941 74.0795C145.98 74.0249 146.006 73.9628 146.019 73.8972C146.031 73.8317 146.03 73.7642 146.015 73.6992C146 73.6342 145.971 73.5732 145.93 73.5201C145.89 73.4669 145.839 73.423 145.78 73.391C145.423 73.2077 144.783 73.5475 144.528 73.8023C144.511 73.8202 144.305 74.0773 144.236 74.1734C144.237 74.169 144.237 74.1644 144.236 74.16C144.355 73.8116 144.442 73.4533 144.497 73.0893C144.548 72.7643 144.579 72.4366 144.591 72.108C144.607 71.804 144.591 71.5246 144.591 71.2765C144.591 71.1423 144.58 71.0194 144.573 70.9054C144.573 70.9054 144.748 70.4584 144.754 70.4226C144.839 70.0739 144.797 69.3497 144.455 69.1418C144.397 69.109 144.333 69.0887 144.266 69.0823C144.2 69.0759 144.133 69.0834 144.07 69.1045C144.007 69.1256 143.948 69.1597 143.899 69.2046C143.85 69.2495 143.811 69.3043 143.784 69.3653C143.738 69.5017 143.722 69.6466 143.737 69.7898C143.753 69.9331 143.799 70.0712 143.874 70.1946C144.059 70.4593 144.286 70.6932 144.544 70.8875C144.544 71.0082 144.544 71.1334 144.555 71.2742C144.555 71.5223 144.555 71.7995 144.533 72.1035C144.533 72.184 144.52 72.2712 144.513 72.3539C144.495 72.2108 144.468 72.0119 144.464 71.994C144.379 71.6453 144.017 71.0239 143.608 70.9948C143.541 70.9922 143.475 71.0036 143.413 71.0282C143.351 71.0527 143.294 71.09 143.248 71.1376C143.201 71.1852 143.165 71.242 143.141 71.3044C143.118 71.3668 143.108 71.4334 143.111 71.5C143.133 71.6428 143.186 71.7791 143.266 71.8995C143.346 72.0199 143.451 72.1215 143.574 72.1974C143.865 72.3447 144.177 72.4471 144.499 72.5014C144.479 72.6869 144.455 72.8791 144.419 73.0759C144.357 73.4353 144.263 73.7885 144.137 74.1309H144.115C144.115 73.9968 144.115 73.7129 144.115 73.6838C144.068 73.3284 143.766 72.669 143.373 72.5975C143.307 72.5874 143.24 72.5913 143.175 72.6088C143.111 72.6263 143.051 72.6572 143 72.6993C142.948 72.7414 142.906 72.7939 142.876 72.8534C142.846 72.9129 142.829 72.978 142.825 73.0446C142.832 73.1885 142.869 73.3293 142.935 73.4574C143.001 73.5855 143.094 73.6978 143.207 73.7867C143.488 73.9682 143.794 74.1068 144.115 74.198C143.981 74.5346 143.826 74.8624 143.65 75.1792C143.523 75.4028 143.382 75.6486 143.239 75.8811C143.239 75.785 143.239 75.4117 143.239 75.3849C143.192 75.0295 142.892 74.3701 142.497 74.2985C142.431 74.2885 142.364 74.2923 142.299 74.3098C142.235 74.3274 142.175 74.3582 142.123 74.4003C142.072 74.4425 142.03 74.495 142 74.5545C141.97 74.6139 141.952 74.679 141.949 74.7456C141.955 74.8896 141.993 75.0305 142.059 75.1587C142.125 75.2868 142.218 75.3991 142.331 75.4877C142.607 75.6685 142.908 75.8064 143.225 75.8968C143.161 76.0018 143.096 76.1091 143.029 76.2142C142.805 76.5584 142.597 76.9004 142.394 77.2469C142.322 77.3676 142.257 77.4883 142.19 77.6067C142.19 77.4659 142.19 77.2066 142.19 77.1843C142.143 76.8289 141.844 76.1695 141.448 76.0979C141.382 76.0875 141.315 76.0911 141.251 76.1085C141.186 76.1259 141.126 76.1567 141.074 76.1989C141.023 76.2411 140.98 76.2937 140.951 76.3534C140.921 76.413 140.904 76.4783 140.901 76.545C140.907 76.6893 140.944 76.8306 141.01 76.9591C141.076 77.0876 141.169 77.2003 141.283 77.2893C141.551 77.4657 141.844 77.5999 142.152 77.6872C142.045 77.8884 141.942 78.0918 141.851 78.2952C141.813 78.3846 141.768 78.4718 141.737 78.559C141.705 78.6461 141.672 78.7333 141.638 78.8183C141.576 78.9971 141.518 79.1647 141.466 79.3324C141.437 79.4173 141.415 79.4978 141.388 79.5805C141.41 79.4374 141.442 79.2072 141.442 79.1871C141.442 78.8272 141.252 78.1298 140.872 78.0001C140.808 77.98 140.741 77.9735 140.675 77.9811C140.608 77.9887 140.545 78.0101 140.487 78.0441C140.43 78.0781 140.38 78.1238 140.342 78.1782C140.303 78.2326 140.277 78.2946 140.264 78.36C140.255 78.3943 140.25 78.4296 140.25 78.4651C140.073 78.7255 139.965 79.0272 139.937 79.3413C139.937 79.3659 139.953 79.6386 139.966 79.7772C139.931 79.6677 139.895 79.5537 139.861 79.4441C139.81 79.2787 139.761 79.1044 139.711 78.9345C139.691 78.8451 139.669 78.7557 139.647 78.664C139.624 78.5724 139.611 78.483 139.591 78.3913C139.566 78.2572 139.546 78.1164 139.528 77.9756C139.835 77.9101 140.13 77.7978 140.402 77.6425C140.522 77.5622 140.623 77.4568 140.697 77.3337C140.772 77.2105 140.82 77.0726 140.836 76.9295C140.838 76.8627 140.825 76.7963 140.8 76.7345C140.774 76.6728 140.736 76.6171 140.687 76.5712C140.639 76.5252 140.581 76.49 140.518 76.4678C140.455 76.4455 140.388 76.4368 140.322 76.4422C139.922 76.4869 139.577 77.1239 139.506 77.4771C139.506 77.4883 139.506 77.5643 139.488 77.6537C139.472 77.5151 139.459 77.3787 139.448 77.2402C139.419 76.8423 139.401 76.4377 139.383 76.0309L139.369 75.7783C139.683 75.712 139.985 75.5974 140.264 75.4385C140.383 75.3584 140.484 75.2531 140.559 75.1299C140.634 75.0068 140.681 74.8687 140.697 74.7255C140.699 74.6588 140.687 74.5924 140.661 74.5308C140.636 74.4692 140.597 74.4137 140.549 74.3679C140.5 74.3221 140.443 74.2871 140.38 74.2651C140.317 74.2432 140.25 74.2347 140.183 74.2404C139.783 74.2829 139.439 74.911 139.367 75.2731C139.367 75.2843 139.367 75.3759 139.347 75.4765C139.334 75.253 139.318 75.0295 139.294 74.8194C139.257 74.4469 139.196 74.0772 139.11 73.7129C139.435 73.645 139.748 73.5282 140.038 73.3664C140.157 73.2861 140.258 73.1807 140.333 73.0576C140.408 72.9345 140.455 72.7966 140.471 72.6534C140.473 72.5866 140.461 72.5202 140.435 72.4585C140.41 72.3967 140.372 72.3411 140.323 72.2951C140.275 72.2492 140.217 72.2139 140.154 72.1917C140.091 72.1695 140.024 72.1607 139.957 72.1661C139.557 72.2108 139.213 72.8479 139.142 73.201C139.142 73.2256 139.108 73.552 139.101 73.6704C139.101 73.6704 139.101 73.6704 139.101 73.657C139.009 73.3004 138.884 72.9532 138.728 72.6199C138.591 72.3211 138.437 72.0307 138.265 71.7503C138.111 71.4888 137.952 71.2586 137.818 71.0552C137.74 70.9456 137.668 70.8473 137.595 70.7556C137.595 70.7556 137.49 70.2795 137.478 70.2505C137.356 69.9129 136.922 69.334 136.52 69.3564C136.452 69.3595 136.387 69.3769 136.327 69.4074C136.267 69.4379 136.214 69.4807 136.171 69.5331C136.129 69.5854 136.099 69.6462 136.081 69.7113C136.064 69.7764 136.061 69.8443 136.072 69.9107C136.112 70.054 136.183 70.1866 136.281 70.2987C136.378 70.4109 136.499 70.4998 136.636 70.5589Z" fill="#263238"/>
<path d="M147.854 80.7754H0.70166V80.9989H147.854V80.7754Z" fill="#263238"/>
<path d="M76.5884 12.1047H31.8696C31.8487 12.1048 31.8281 12.0989 31.8104 12.0878C31.7926 12.0768 31.7783 12.0609 31.769 12.0421C31.7601 12.0231 31.7567 12.0019 31.759 11.981C31.7614 11.9601 31.7695 11.9402 31.7825 11.9237L32.6944 10.7837C33.2734 10.0617 34.1764 10.3366 34.9722 10.5914C35.5221 10.7613 36.0406 10.9245 36.3826 10.7524C36.8029 10.5423 37.1337 9.99909 37.5159 9.37098C37.925 8.7004 38.3899 7.93594 39.0985 7.34583C39.8741 6.6976 41.2779 7.44865 42.6347 8.17511C43.8127 8.80546 45.0331 9.45816 45.7439 9.15416C46.4145 8.87028 46.6068 8.4277 46.8392 7.91582C47.1455 7.24524 47.4919 6.48525 48.9426 5.95773C50.0938 5.5375 51.2539 6.04714 52.2754 6.49866C53.5562 7.06195 54.6649 7.54924 55.5031 6.23043C55.9028 5.56171 56.2416 4.85851 56.5157 4.12928C57.3092 2.1913 58.0603 0.35838 61.2902 0.0186188C65.5372 -0.428435 70.7231 7.31677 71.1813 8.01641C71.8233 8.15183 72.4894 8.11872 73.1148 7.92029C73.7966 7.74594 74.4403 7.58277 75.5065 8.24888C77.3797 9.42016 76.7024 11.9974 76.6957 12.0242C76.6889 12.0475 76.6748 12.0679 76.6555 12.0824C76.6361 12.0969 76.6126 12.1047 76.5884 12.1047ZM32.1066 11.8812H76.499C76.5929 11.4475 76.946 9.40674 75.3814 8.43887C74.3956 7.82417 73.8524 7.96053 73.1617 8.13711C72.4876 8.3476 71.7701 8.37766 71.0807 8.22429C71.052 8.21766 71.0271 8.19999 71.0114 8.17511C70.9578 8.09241 65.5261 -0.202673 61.3059 0.23991C58.21 0.566259 57.4836 2.33883 56.7146 4.21422C56.4365 4.95624 56.0916 5.67148 55.6842 6.35113C54.7431 7.83088 53.4981 7.28324 52.1793 6.70207C51.1466 6.25502 50.0804 5.77891 49.0119 6.16784C47.6484 6.66184 47.3377 7.34583 47.0359 8.00747C46.7945 8.53946 46.5665 9.04016 45.8244 9.34863C45.0152 9.69733 43.8127 9.0491 42.5229 8.36287C41.2332 7.67665 39.8965 6.95689 39.2348 7.50677C38.5732 8.05664 38.1016 8.82111 37.7014 9.47827C37.3013 10.1354 36.9549 10.7054 36.4765 10.9446C36.0541 11.1547 35.493 10.9804 34.8984 10.7948C34.134 10.5579 33.3449 10.3098 32.8621 10.9133L32.1066 11.8812Z" fill="#263238"/>
<path d="M113.085 7.46205H90.7455C90.7246 7.46196 90.7041 7.45597 90.6864 7.44478C90.6686 7.4336 90.6544 7.41765 90.6453 7.39878C90.6363 7.3799 90.6327 7.35885 90.635 7.33802C90.6373 7.31719 90.6454 7.29743 90.6584 7.281L91.1054 6.711C91.4183 6.31983 91.9101 6.47406 92.3035 6.597C92.5673 6.67971 92.8154 6.75571 92.9741 6.67971C93.1686 6.58359 93.3317 6.3176 93.5173 6.00913C93.725 5.62178 93.9971 5.27258 94.322 4.97643C94.7377 4.62997 95.4239 4.99655 96.1504 5.38549C96.7271 5.69396 97.3239 6.0136 97.6547 5.87054C97.7786 5.81535 97.889 5.73404 97.9786 5.63219C98.0681 5.53034 98.1345 5.41035 98.1733 5.28043C98.2615 5.03931 98.4055 4.82248 98.5935 4.64766C98.7816 4.47284 99.0083 4.34499 99.2552 4.27456C99.852 4.05103 100.442 4.31703 100.963 4.54503C101.674 4.85796 102.13 5.02114 102.505 4.43326C102.703 4.1081 102.872 3.7663 103.01 3.41175C103.413 2.42823 103.795 1.49836 105.44 1.32401C107.564 1.10048 110.121 4.86914 110.42 5.32514C110.726 5.38627 111.042 5.3678 111.339 5.27149C111.544 5.19745 111.764 5.17444 111.979 5.20442C112.195 5.23441 112.4 5.3165 112.577 5.4436C113.55 6.04936 113.201 7.37711 113.197 7.39052C113.188 7.41282 113.173 7.4318 113.152 7.44467C113.132 7.45754 113.109 7.46363 113.085 7.46205ZM90.978 7.23853H112.993C113.047 6.96135 113.156 6.06054 112.454 5.62243C112.303 5.51194 112.127 5.44082 111.941 5.41546C111.755 5.39009 111.566 5.41129 111.39 5.47713C111.045 5.58688 110.677 5.60231 110.324 5.52184C110.296 5.51598 110.271 5.4991 110.255 5.4749C110.228 5.43243 107.669 1.52742 105.621 1.52742C105.568 1.52408 105.514 1.52408 105.46 1.52742C103.947 1.68612 103.607 2.5154 103.212 3.47657C103.072 3.85014 102.899 4.21006 102.693 4.55173C102.197 5.33184 101.524 5.03679 100.871 4.75067C100.366 4.52714 99.8453 4.30362 99.3312 4.48468C99.1123 4.54677 98.9115 4.66032 98.7454 4.81587C98.5794 4.97141 98.453 5.16442 98.3767 5.37878C98.3273 5.53602 98.2452 5.68104 98.1358 5.80431C98.0264 5.92758 97.8922 6.02633 97.7419 6.09407C97.3127 6.27736 96.698 5.94878 96.0453 5.60007C95.3927 5.25137 94.7668 4.91608 94.465 5.16643C94.1617 5.4462 93.9065 5.77395 93.7095 6.13654C93.5061 6.47183 93.3295 6.76241 93.0747 6.88982C92.8199 7.01723 92.5539 6.91441 92.2454 6.8183C91.7983 6.67971 91.4921 6.59477 91.2887 6.85853L90.978 7.23853Z" fill="#263238"/>
<path d="M126.178 19.4627H103.13C103.109 19.4631 103.088 19.4571 103.07 19.4456C103.052 19.434 103.038 19.4174 103.03 19.3979C103.02 19.3789 103.016 19.3577 103.019 19.3366C103.021 19.3156 103.03 19.2957 103.043 19.2794L103.512 18.6915C103.834 18.2914 104.317 18.4412 104.744 18.5753C105.017 18.6602 105.274 18.7407 105.433 18.6625C105.634 18.5619 105.801 18.2869 105.994 17.9695C106.208 17.5733 106.488 17.2159 106.821 16.9122C107.25 16.5546 107.956 16.9346 108.705 17.3347C109.3 17.6521 109.919 17.9829 110.258 17.8354C110.387 17.7782 110.501 17.6941 110.594 17.5888C110.687 17.4835 110.756 17.3595 110.797 17.2252C110.888 16.9762 111.037 16.7523 111.231 16.572C111.425 16.3917 111.66 16.2601 111.915 16.188C112.529 15.9645 113.137 16.2327 113.674 16.4674C114.412 16.7915 114.883 16.9592 115.27 16.3512C115.473 16.0087 115.646 15.6489 115.786 15.276C116.202 14.2612 116.595 13.3023 118.292 13.1235C120.48 12.8888 123.122 16.7871 123.433 17.252C123.75 17.3141 124.077 17.2957 124.385 17.1984C124.596 17.1211 124.822 17.0968 125.044 17.1276C125.267 17.1583 125.478 17.2433 125.659 17.3749C126.659 17.9986 126.299 19.3666 126.296 19.3867C126.288 19.411 126.272 19.4318 126.251 19.4457C126.229 19.4595 126.204 19.4655 126.178 19.4627ZM103.363 19.2392H126.089C126.142 18.9553 126.258 18.0187 125.532 17.5627C125.375 17.4486 125.192 17.3753 125 17.3495C124.807 17.3238 124.612 17.3463 124.43 17.4152C124.074 17.5261 123.696 17.5415 123.333 17.4599C123.318 17.457 123.305 17.4511 123.293 17.4426C123.281 17.4341 123.271 17.4233 123.263 17.4107C123.234 17.3682 120.447 13.1212 118.312 13.347C116.747 13.5102 116.396 14.3685 115.99 15.3587C115.845 15.7466 115.665 16.1206 115.453 16.4764C114.944 17.2788 114.251 16.9748 113.58 16.6798C113.057 16.4562 112.516 16.2126 111.989 16.4048C111.763 16.4684 111.555 16.5848 111.383 16.7446C111.212 16.9044 111.08 17.1029 111.001 17.3235C110.948 17.4829 110.863 17.6296 110.75 17.7543C110.638 17.879 110.501 17.9789 110.348 18.0478C109.901 18.2378 109.27 17.898 108.598 17.5381C107.925 17.1782 107.277 16.8295 106.964 17.0911C106.65 17.3791 106.387 17.7176 106.186 18.0925C105.962 18.4389 105.792 18.7385 105.531 18.8681C105.269 18.9977 104.994 18.8949 104.679 18.7966C104.217 18.6513 103.897 18.573 103.687 18.839L103.363 19.2392Z" fill="#263238"/>
<path d="M39.2543 34.3078C43.0834 53.7144 31.0576 45.6317 20.9453 45.6317C10.8329 45.6317 -1.97965 52.2123 2.64288 34.3078C5.2805 24.0748 10.8396 17.6797 20.952 17.6797C31.0643 17.6797 37.6405 26.1223 39.2543 34.3078Z" fill="#F3DAFF"/>
<path opacity="0.3" d="M39.2543 34.3078C43.0834 53.7144 31.0576 45.6317 20.9453 45.6317C10.8329 45.6317 -1.97965 52.2123 2.64288 34.3078C5.2805 24.0748 10.8396 17.6797 20.952 17.6797C31.0643 17.6797 37.6405 26.1223 39.2543 34.3078Z" fill="white"/>
<path d="M15.1749 43.8698L20.1082 47.6317L19.603 80.8858H22.5826L22.0104 41.4602L29.0627 33.7038L21.9232 39.8038L21.6639 28.252L20.8861 36.1693L19.0509 34.8371L15.0453 29.1617L17.6203 34.3207L9.33643 30.979L17.779 35.749L20.5575 37.6758L20.2378 46.076L15.1749 43.8698Z" fill="#A1A1A1"/>
<path d="M17.9558 25.0156C17.9558 25.0156 17.6853 26.2651 18.2464 27.3023C18.5981 27.9427 19.0459 28.5254 19.5741 29.0302C19.5741 29.0302 20.1329 27.0564 17.9558 25.0156Z" fill="white"/>
<path d="M7.47363 36.0593C7.47363 36.0593 8.43927 36.8998 9.61725 36.9109C10.3481 36.912 11.0748 36.8012 11.7721 36.5824C11.7721 36.5824 10.3124 35.1518 7.47363 36.0593Z" fill="white"/>
<path d="M5.99512 41.2429C5.99512 41.2429 7.1664 41.7615 8.29521 41.4195C8.99356 41.2043 9.65471 40.8832 10.2555 40.4672C10.2555 40.4672 8.45391 39.524 5.99512 41.2429Z" fill="white"/>
<path d="M12.9941 41.7841C12.9941 41.7841 14.275 41.7662 15.1601 40.9884C15.7052 40.5019 16.1719 39.9341 16.5437 39.3052C16.5437 39.3052 14.4895 39.2046 12.9941 41.7841Z" fill="white"/>
<path d="M10.0464 26.3086C10.0464 26.3086 10.337 27.5559 11.287 28.2533C11.8789 28.6818 12.5333 29.0166 13.2272 29.2457C13.2272 29.2457 12.8874 27.2228 10.0464 26.3086Z" fill="white"/>
<path d="M30.9024 25.3848C30.9024 25.3848 29.635 25.5636 28.8549 26.4488C28.3768 27.0009 27.9856 27.6228 27.6948 28.2928C27.6948 28.2928 29.7401 28.1341 30.9024 25.3848Z" fill="white"/>
<path d="M35.2921 31.9692C35.2921 31.9692 34.0426 31.6987 33.0054 32.262C32.3651 32.6137 31.783 33.0624 31.2798 33.592C31.2798 33.592 33.2535 34.1464 35.2921 31.9692Z" fill="white"/>
<path d="M34.8625 39.4453C34.8625 39.4453 33.9684 38.5377 32.786 38.4439C32.0572 38.389 31.3243 38.447 30.6133 38.616C30.6133 38.616 31.9656 40.1583 34.8625 39.4453Z" fill="white"/>
<path d="M29.9656 43.4547C29.9656 43.4547 29.4448 42.2856 28.3808 41.7804C27.7189 41.4701 27.0133 41.2635 26.2886 41.168C26.2886 41.168 27.0083 43.0903 29.9656 43.4547Z" fill="white"/>
<path d="M27.3851 31.3242C27.3851 31.3242 26.1199 31.503 25.3398 32.3882C24.8616 32.9404 24.4705 33.5622 24.1797 34.2323C24.1797 34.2323 26.225 34.0736 27.3851 31.3242Z" fill="white"/>
<path d="M6.63281 29.6758C6.63281 29.6758 7.1961 30.8247 8.28021 31.2896C8.95305 31.5733 9.66546 31.752 10.3925 31.8194C10.3925 31.8194 9.60572 29.9261 6.63281 29.6758Z" fill="white"/>
<path d="M24.6944 23.6211C24.6944 23.6211 23.6684 24.3878 23.4114 25.5367C23.2553 26.2505 23.21 26.9841 23.2772 27.7116C23.2772 27.7116 24.9962 26.5918 24.6944 23.6211Z" fill="white"/>
<path d="M20.8277 20.002C20.8277 20.002 20.2443 21.1419 20.5215 22.2886C20.6961 22.9986 20.9796 23.6772 21.3619 24.3004C21.3619 24.3004 22.408 22.5345 20.8277 20.002Z" fill="white"/>
<path d="M12.4526 21.2207C12.4526 21.2207 12.4526 22.4993 13.2216 23.3956C13.7005 23.9468 14.2614 24.421 14.8846 24.8016C14.8846 24.8016 15.012 22.7541 12.4526 21.2207Z" fill="white"/>
<path d="M122.841 39.3572C126.254 56.6604 115.525 49.4584 106.517 49.4584C97.5089 49.4584 86.0755 55.326 90.1995 39.3617C92.551 30.2396 97.5089 24.5352 106.517 24.5352C115.525 24.5352 121.402 32.0591 122.841 39.3572Z" fill="#F3DAFF"/>
<path opacity="0.3" d="M122.841 39.3572C126.254 56.6604 115.525 49.4584 106.517 49.4584C97.5089 49.4584 86.0755 55.326 90.1995 39.3617C92.551 30.2396 97.5089 24.5352 106.517 24.5352C115.525 24.5352 121.402 32.0591 122.841 39.3572Z" fill="white"/>
<path d="M101.37 47.8844L105.767 51.2396L105.315 80.8882H107.973L107.461 45.7363L113.749 38.8204L107.385 44.2588L107.155 33.9609L106.46 41.0199L104.823 39.833L101.254 34.7723L103.549 39.3725L96.1616 36.3907L103.69 40.6444L106.167 42.3611L105.881 49.8515L101.37 47.8844Z" fill="#A1A1A1"/>
<path d="M103.849 31.0723C103.849 31.0723 103.608 32.1899 104.108 33.1131C104.422 33.6841 104.822 34.2036 105.293 34.6532C105.293 34.6532 105.789 32.894 103.849 31.0723Z" fill="white"/>
<path d="M94.5117 40.9202C94.5117 40.9202 95.3723 41.669 96.4229 41.6779C97.0741 41.6795 97.7218 41.5808 98.343 41.3851C98.343 41.3851 97.0331 40.0998 94.5117 40.9202Z" fill="white"/>
<path d="M93.1929 45.54C93.1929 45.54 94.2367 46.0004 95.2426 45.6987C95.8656 45.5065 96.4553 45.2192 96.9906 44.847C96.9906 44.847 95.3678 44.0066 93.1929 45.54Z" fill="white"/>
<path d="M99.4302 46.0195C99.4302 46.0195 100.572 46.0061 101.361 45.3109C101.847 44.8773 102.264 44.3714 102.595 43.811C102.595 43.811 100.771 43.7216 99.4302 46.0195Z" fill="white"/>
<path d="M96.7969 32.2246C96.7969 32.2246 97.0562 33.3422 97.9033 33.9592C98.4301 34.344 99.0128 34.6455 99.6312 34.8533C99.6312 34.8533 99.3294 33.0405 96.7969 32.2246Z" fill="white"/>
<path d="M115.393 31.4023C115.393 31.4023 114.275 31.561 113.569 32.3523C113.142 32.8435 112.793 33.3977 112.534 33.9953C112.534 33.9953 114.358 33.8522 115.393 31.4023Z" fill="white"/>
<path d="M119.307 37.27C119.307 37.27 118.189 37.0308 117.266 37.5315C116.695 37.8459 116.177 38.2462 115.728 38.7184C115.728 38.7184 117.487 39.2124 119.307 37.27Z" fill="white"/>
<path d="M118.92 43.9362C118.92 43.9362 118.118 43.1271 117.07 43.0421C116.42 42.9949 115.767 43.0477 115.134 43.1986C115.134 43.1986 116.339 44.5733 118.92 43.9362Z" fill="white"/>
<path d="M114.555 47.5132C114.555 47.5132 114.092 46.4715 113.142 46.0178C112.552 45.7419 111.923 45.5587 111.278 45.4746C111.278 45.4746 111.913 47.1868 114.555 47.5132Z" fill="white"/>
<path d="M112.255 36.6973C112.255 36.6973 111.137 36.856 110.431 37.6473C110.005 38.1389 109.657 38.6929 109.398 39.2902C109.398 39.2902 111.22 39.1471 112.255 36.6973Z" fill="white"/>
<path d="M93.7529 35.2266C93.7529 35.2266 94.2559 36.2503 95.2215 36.6661C95.8219 36.9183 96.4574 37.0774 97.1058 37.1377C97.1058 37.1377 96.404 35.4501 93.7529 35.2266Z" fill="white"/>
<path d="M109.857 29.8301C109.857 29.8301 108.943 30.5118 108.711 31.5378C108.572 32.1739 108.532 32.8276 108.592 33.4758C108.592 33.4758 110.123 32.4699 109.857 29.8301Z" fill="white"/>
<path d="M106.408 26.6035C106.408 26.6035 105.89 27.6206 106.136 28.6421C106.292 29.2728 106.545 29.8759 106.884 30.4303C106.884 30.4303 107.816 28.8611 106.408 26.6035Z" fill="white"/>
<path d="M98.9448 27.6895C98.9448 27.6895 98.9448 28.8294 99.6288 29.6274C100.056 30.119 100.555 30.5419 101.111 30.8814C101.111 30.8814 101.218 29.0574 98.9448 27.6895Z" fill="white"/>
<path d="M142.505 46.6577C145.32 60.9187 136.47 54.9796 129.051 54.9796C121.633 54.9796 112.204 59.8167 115.597 46.6577C117.535 39.1383 121.621 34.4375 129.051 34.4375C136.481 34.4375 141.321 40.6426 142.505 46.6577Z" fill="#F3DAFF"/>
<path opacity="0.3" d="M142.506 46.6577C145.32 60.9187 136.471 54.9796 129.052 54.9796C121.633 54.9796 112.205 59.8167 115.598 46.6577C117.536 39.1383 121.622 34.4375 129.052 34.4375C136.482 34.4375 141.321 40.6426 142.506 46.6577Z" fill="white"/>
<path d="M124.811 53.6868L128.434 56.4518L128.063 80.8878H130.251L129.831 51.9165L135.015 46.2165L129.769 50.6983L129.579 42.2109L129.006 48.0271L127.658 47.0503L124.715 42.877L126.606 46.6703L120.519 44.2137L126.724 47.7186L128.765 49.1336L128.53 55.3074L124.811 53.6868Z" fill="#A1A1A1"/>
<path d="M126.856 39.8301C126.75 40.3999 126.829 40.9885 127.079 41.511C127.338 41.9815 127.668 42.4096 128.056 42.7806C128.056 42.7806 128.456 41.3299 126.856 39.8301Z" fill="white"/>
<path d="M119.152 47.9456C119.595 48.3136 120.142 48.5326 120.717 48.5715C121.253 48.5724 121.787 48.491 122.299 48.3301C122.299 48.3301 121.237 47.2706 119.152 47.9456Z" fill="white"/>
<path d="M118.072 51.7547C118.607 51.9752 119.199 52.0206 119.762 51.8843C120.275 51.7266 120.76 51.4906 121.201 51.1847C121.201 51.1847 119.864 50.4895 118.072 51.7547Z" fill="white"/>
<path d="M123.208 52.142C123.787 52.1207 124.344 51.9164 124.8 51.5586C125.2 51.201 125.543 50.7841 125.817 50.3225C125.817 50.3225 124.312 50.2577 123.208 52.142Z" fill="white"/>
<path d="M121.043 40.7793C121.188 41.34 121.508 41.8401 121.955 42.2076C122.389 42.5233 122.87 42.7699 123.379 42.9386C123.379 42.9386 123.124 41.4521 121.043 40.7793Z" fill="white"/>
<path d="M136.368 40.1035C135.797 40.1993 135.271 40.4731 134.866 40.8859C134.514 41.2912 134.226 41.748 134.012 42.2404C134.012 42.2404 135.516 42.122 136.368 40.1035Z" fill="white"/>
<path d="M139.593 44.9378C139.023 44.8331 138.435 44.9113 137.912 45.1614C137.442 45.4201 137.015 45.7495 136.645 46.1382C136.645 46.1382 138.1 46.5405 139.593 44.9378Z" fill="white"/>
<path d="M139.277 50.4333C138.859 50.0321 138.325 49.7738 137.751 49.6957C137.215 49.6563 136.677 49.7 136.155 49.8253C136.155 49.8253 137.149 50.9563 139.277 50.4333Z" fill="white"/>
<path d="M135.679 53.3807C135.433 52.8567 135.029 52.4234 134.523 52.1424C134.037 51.9163 133.519 51.7656 132.987 51.6953C132.987 51.6953 133.501 53.1147 135.679 53.3807Z" fill="white"/>
<path d="M133.783 44.4648C133.212 44.5606 132.686 44.8345 132.281 45.2472C131.929 45.6525 131.641 46.1093 131.427 46.6018C131.427 46.6018 132.931 46.4855 133.783 44.4648Z" fill="white"/>
<path d="M118.533 43.2539C118.802 43.7664 119.226 44.181 119.745 44.4386C120.243 44.6498 120.771 44.7818 121.309 44.8298C121.309 44.8298 120.719 43.4372 118.533 43.2539Z" fill="white"/>
<path d="M131.807 38.8047C131.352 39.163 131.022 39.6559 130.864 40.2129C130.749 40.7375 130.716 41.2765 130.765 41.8111C130.765 41.8111 132.028 40.9863 131.807 38.8047Z" fill="white"/>
<path d="M128.965 36.1445C128.716 36.6675 128.638 37.2556 128.741 37.8255C128.871 38.3468 129.08 38.8451 129.361 39.303C129.361 39.303 130.125 38.0043 128.965 36.1445Z" fill="white"/>
<path d="M122.814 37.041C122.828 37.6198 123.026 38.1792 123.377 38.6392C123.729 39.0454 124.141 39.3946 124.6 39.6742C124.6 39.6742 124.689 38.1698 122.814 37.041Z" fill="white"/>
<path d="M77.7064 22.3215C81.5331 41.7304 69.5096 33.6454 59.3973 33.6454C49.2849 33.6454 36.4724 40.2283 41.0904 22.3215C43.728 12.0907 49.2872 5.69336 59.3995 5.69336C69.5119 5.69336 76.0925 14.1427 77.7064 22.3215Z" fill="#F3DAFF"/>
<path opacity="0.3" d="M77.7064 22.3215C81.5331 41.7304 69.5096 33.6454 59.3973 33.6454C49.2849 33.6454 36.4724 40.2283 41.0904 22.3215C43.728 12.0907 49.2872 5.69336 59.3995 5.69336C69.5119 5.69336 76.0925 14.1427 77.7064 22.3215Z" fill="white"/>
<path d="M53.624 31.8832L58.555 35.6474L58.0498 80.887H61.0294L60.4572 29.4758L67.5094 21.7194L60.3722 27.8172L60.1129 16.2676L59.3351 24.1849L57.4999 22.8527L53.4943 17.1751L56.0693 22.3363L47.7832 18.9924L56.228 23.7647L59.0065 25.6892L58.6846 34.0894L53.624 31.8832Z" fill="#A1A1A1"/>
<path d="M56.4079 13.0234C56.4079 13.0234 56.1375 14.2752 56.6985 15.3124C57.0499 15.9523 57.4977 16.5343 58.0263 17.038C58.0263 17.038 58.5829 15.0687 56.4079 13.0234Z" fill="white"/>
<path d="M45.9253 24.075C45.9253 24.075 46.8887 24.9154 48.0689 24.9244C48.7998 24.9267 49.5267 24.8159 50.2237 24.5958C50.2237 24.5958 48.7641 23.1541 45.9253 24.075Z" fill="white"/>
<path d="M44.4561 29.2565C44.4561 29.2565 45.6273 29.7729 46.7561 29.4331C47.4538 29.217 48.1142 28.8951 48.7142 28.4786C48.7142 28.4786 46.9014 27.5354 44.4561 29.2565Z" fill="white"/>
<path d="M51.4458 29.7877C51.4458 29.7877 52.7244 29.772 53.6095 28.9919C54.1546 28.5056 54.622 27.9388 54.9954 27.311C54.9954 27.311 52.9479 27.2171 51.4458 29.7877Z" fill="white"/>
<path d="M48.498 14.3223C48.498 14.3223 48.7886 15.5673 49.7386 16.2647C50.3295 16.6942 50.9832 17.0297 51.6766 17.2594C51.6766 17.2594 51.3368 15.2365 48.498 14.3223Z" fill="white"/>
<path d="M69.3519 13.3984C69.3519 13.3984 68.0867 13.5795 67.3066 14.4647C66.828 15.0165 66.4368 15.6384 66.1465 16.3088C66.1465 16.3088 68.1918 16.1545 69.3519 13.3984Z" fill="white"/>
<path d="M73.7413 19.9801C73.7413 19.9801 72.4896 19.7119 71.4524 20.2729C70.8134 20.6257 70.2322 21.0742 69.729 21.6029C69.729 21.6029 71.7117 22.1595 73.7413 19.9801Z" fill="white"/>
<path d="M73.3142 27.4562C73.3142 27.4562 72.4201 26.5486 71.2354 26.4548C70.5072 26.4011 69.7752 26.4599 69.0649 26.6291C69.0649 26.6291 70.4173 28.1714 73.3142 27.4562Z" fill="white"/>
<path d="M68.4126 31.4703C68.4126 31.4703 67.894 30.3012 66.83 29.7938C66.1682 29.4839 65.4625 29.278 64.7378 29.1836C64.7378 29.1836 65.4531 31.1059 68.4126 31.4703Z" fill="white"/>
<path d="M65.8367 19.3359C65.8367 19.3359 64.5693 19.517 63.7915 20.4022C63.3119 20.9533 62.9205 21.5753 62.6313 22.2463C62.6313 22.2463 64.6766 22.0853 65.8367 19.3359Z" fill="white"/>
<path d="M45.0845 17.6895C45.0845 17.6895 45.6478 18.8361 46.7319 19.3033C47.4046 19.5872 48.1171 19.7659 48.8442 19.8331C48.8442 19.8331 48.0574 17.942 45.0845 17.6895Z" fill="white"/>
<path d="M63.1439 11.6348C63.1439 11.6348 62.1179 12.3992 61.8586 13.5504C61.7039 14.2644 61.6594 14.9979 61.7268 15.7253C61.7268 15.7253 63.4412 14.6032 63.1439 11.6348Z" fill="white"/>
<path d="M59.2774 8.01562C59.2774 8.01562 58.694 9.15338 58.9712 10.3001C59.1463 11.0099 59.4298 11.6884 59.8116 12.3118C59.8116 12.3118 60.8555 10.5459 59.2774 8.01562Z" fill="white"/>
<path d="M50.9043 9.22461C50.9043 9.22461 50.9043 10.5032 51.6732 11.3995C52.1517 11.9518 52.7127 12.4268 53.3363 12.8077C53.3363 12.8077 53.4637 10.7692 50.9043 9.22461Z" fill="white"/>
<path d="M122.736 72.861V58.5352H51.2451V72.861H80.8758C80.9004 77.2645 83.9583 80.823 87.7269 80.823H91.4285C94.3187 80.823 96.7932 78.7286 97.7968 75.7646H113.958V73.8222H98.2327C98.2662 73.5092 98.2841 73.1896 98.2863 72.8655L122.736 72.861Z" fill="#263238"/>
<path d="M91.4357 80.9352H87.7341C83.952 80.9352 80.8494 77.3744 80.7712 72.9732H51.1338V58.4238H122.848V72.9732H98.3985C98.3985 73.2168 98.3784 73.4627 98.3561 73.7064H114.077V75.8768H97.8844C96.8093 78.9637 94.2879 80.9352 91.4357 80.9352ZM51.3573 72.7497H80.9925V72.8614C81.0171 77.1911 84.0414 80.7117 87.7318 80.7117H91.4334C94.2096 80.7117 96.6684 78.7558 97.6922 75.7293L97.7168 75.6533H113.846V73.9299H98.108L98.1214 73.8069C98.1549 73.4918 98.1728 73.1744 98.175 72.8614V72.7497H122.624V58.6474H51.3573V72.7497Z" fill="#263238"/>
<path d="M41.6798 72.807C41.6798 68.3789 38.6107 64.7891 34.8264 64.7891H31.1248C27.3405 64.7891 24.2715 68.3789 24.2715 72.807C24.2715 77.235 27.3405 80.8249 31.1248 80.8249H34.8287C37.7189 80.8249 40.1933 78.7304 41.1969 75.7665H57.3579V73.824H41.6239C41.6608 73.4863 41.6795 73.1468 41.6798 72.807Z" fill="#263238"/>
<path d="M34.8291 80.9371H31.1252C27.2851 80.9371 24.1602 77.2914 24.1602 72.8074C24.1602 68.3235 27.2895 64.6777 31.1252 64.6777H34.8291C38.6693 64.6777 41.7942 68.3235 41.7942 72.8074C41.7942 73.098 41.7785 73.3998 41.7495 73.7015H57.4701V75.872H41.2756C40.1937 78.9656 37.6768 80.9371 34.8291 80.9371ZM31.1275 64.9013C27.4102 64.9013 24.3859 68.4486 24.3859 72.8074C24.3859 77.1662 27.4102 80.7136 31.1275 80.7136H34.8291C37.6053 80.7136 40.0641 78.7577 41.0878 75.7311L41.1147 75.6551H57.2421V73.9318H41.4991L41.5125 73.8088C41.5495 73.4763 41.5681 73.142 41.5684 72.8074C41.5684 68.4486 38.5441 64.9013 34.8269 64.9013H31.1275Z" fill="#263238"/>
<path d="M68.0826 72.807C68.0826 69.9749 66.8264 67.487 64.9309 66.0587V64.7891H61.2293C57.445 64.7891 54.376 68.3789 54.376 72.807C54.376 77.235 57.445 80.8249 61.2293 80.8249H64.9309V79.5552C66.8264 78.1269 68.0826 75.6391 68.0826 72.807Z" fill="#263238"/>
<path d="M65.0431 80.9371H61.2297C57.3895 80.9371 54.2646 77.2914 54.2646 72.8074C54.2646 68.3235 57.394 64.6777 61.2297 64.6777H65.0431V66.001C67.0169 67.5098 68.1948 70.0491 68.1948 72.8029C68.1948 75.5568 67.0169 78.096 65.0431 79.6049V80.9371ZM61.2297 64.9013C57.5125 64.9013 54.4993 68.4598 54.4993 72.8074C54.4993 77.155 57.5237 80.7136 61.2409 80.7136H64.8308V79.4998L64.8732 79.4663C66.8201 78.0022 67.9825 75.5121 67.9825 72.8074C67.9825 70.1027 66.8201 67.6126 64.8732 66.1485L64.8308 66.115V64.9013H61.2297Z" fill="#263238"/>
<path d="M64.9305 80.8249C68.7155 80.8249 71.7838 77.2351 71.7838 72.807C71.7838 68.3788 68.7155 64.7891 64.9305 64.7891C61.1455 64.7891 58.0771 68.3788 58.0771 72.807C58.0771 77.2351 61.1455 80.8249 64.9305 80.8249Z" fill="white"/>
<path d="M64.9314 80.9371C61.089 80.9371 57.9663 77.2914 57.9663 72.8074C57.9663 68.3235 61.0957 64.6777 64.9314 64.6777C68.7671 64.6777 71.8965 68.3235 71.8965 72.8074C71.8965 77.2914 68.7716 80.9371 64.9314 80.9371ZM64.9314 64.9013C61.2119 64.9013 58.1898 68.4486 58.1898 72.8074C58.1898 77.1662 61.2119 80.7136 64.9314 80.7136C68.6509 80.7136 71.673 77.1684 71.673 72.8074C71.673 68.4464 68.6487 64.9013 64.9314 64.9013Z" fill="#263238"/>
<path d="M64.9319 78.1813C67.4688 78.1813 69.5253 75.7745 69.5253 72.8055C69.5253 69.8365 67.4688 67.4297 64.9319 67.4297C62.395 67.4297 60.3384 69.8365 60.3384 72.8055C60.3384 75.7745 62.395 78.1813 64.9319 78.1813Z" fill="#263238"/>
<path d="M64.9326 78.2935C62.3374 78.2935 60.2251 75.8347 60.2251 72.8059C60.2251 69.7772 62.3374 67.3184 64.9326 67.3184C67.5277 67.3184 69.6378 69.7772 69.6378 72.8059C69.6378 75.8347 67.5255 78.2935 64.9326 78.2935ZM64.9326 67.5419C62.4604 67.5419 60.4486 69.9046 60.4486 72.8059C60.4486 75.7073 62.4604 78.07 64.9326 78.07C67.4048 78.07 69.4143 75.7073 69.4143 72.8059C69.4143 69.9046 67.4026 67.5419 64.9326 67.5419Z" fill="#263238"/>
<path d="M64.9316 77.4913C67.1426 77.4913 68.9349 75.3937 68.9349 72.8062C68.9349 70.2187 67.1426 68.1211 64.9316 68.1211C62.7206 68.1211 60.9282 70.2187 60.9282 72.8062C60.9282 75.3937 62.7206 77.4913 64.9316 77.4913Z" fill="#BABABA"/>
<path d="M64.9318 77.6033C62.6608 77.6033 60.8145 75.4507 60.8145 72.8064C60.8145 70.162 62.6608 68.0117 64.9318 68.0117C67.2029 68.0117 69.0469 70.1643 69.0469 72.8086C69.0469 75.4529 67.2006 77.6033 64.9318 77.6033ZM64.9318 68.233C62.786 68.233 61.038 70.285 61.038 72.8064C61.038 75.3278 62.786 77.3797 64.9318 77.3797C67.0777 77.3797 68.8234 75.3278 68.8234 72.8064C68.8234 70.285 67.0777 68.2352 64.9318 68.2352V68.233Z" fill="#263238"/>
<path d="M116.123 72.807C116.123 69.9749 114.866 67.487 112.971 66.0587V64.7891H109.263C105.476 64.7891 102.409 68.3789 102.409 72.807C102.409 77.235 105.476 80.8249 109.263 80.8249H112.964V79.5552C114.866 78.1269 116.123 75.6391 116.123 72.807Z" fill="#263238"/>
<path d="M113.084 80.9371H109.263C105.423 80.9371 102.298 77.2914 102.298 72.8074C102.298 68.3235 105.428 64.6777 109.263 64.6777H113.077V66.001C115.051 67.5098 116.229 70.0491 116.229 72.8029C116.229 75.5568 115.051 78.096 113.077 79.6049L113.084 80.9371ZM109.263 64.9013C105.546 64.9013 102.522 68.4486 102.522 72.8074C102.522 77.1662 105.553 80.7136 109.263 80.7136H112.853V79.4998L112.896 79.4663C114.843 78.0022 116.005 75.5121 116.005 72.8074C116.005 70.1027 114.843 67.6126 112.896 66.1485L112.853 66.115V64.9013H109.263Z" fill="#263238"/>
<path d="M112.971 80.8249C116.756 80.8249 119.824 77.2351 119.824 72.807C119.824 68.3788 116.756 64.7891 112.971 64.7891C109.186 64.7891 106.118 68.3788 106.118 72.807C106.118 77.2351 109.186 80.8249 112.971 80.8249Z" fill="white"/>
<path d="M112.971 80.9371C109.129 80.9371 106.004 77.2914 106.004 72.8074C106.004 68.3235 109.133 64.6777 112.971 64.6777C116.809 64.6777 119.936 68.3235 119.936 72.8074C119.936 77.2914 116.811 80.9371 112.971 80.9371ZM112.971 64.9013C109.252 64.9013 106.227 68.4486 106.227 72.8074C106.227 77.1662 109.252 80.7136 112.971 80.7136C116.691 80.7136 119.713 77.1684 119.713 72.8074C119.713 68.4464 116.688 64.9013 112.971 64.9013Z" fill="#263238"/>
<path d="M112.972 78.1813C115.509 78.1813 117.566 75.7745 117.566 72.8055C117.566 69.8365 115.509 67.4297 112.972 67.4297C110.435 67.4297 108.379 69.8365 108.379 72.8055C108.379 75.7745 110.435 78.1813 112.972 78.1813Z" fill="#263238"/>
<path d="M112.971 78.2935C110.376 78.2935 108.263 75.8347 108.263 72.8059C108.263 69.7772 110.38 67.3184 112.971 67.3184C115.561 67.3184 117.665 69.7772 117.665 72.8059C117.665 75.8347 115.564 78.2935 112.971 78.2935ZM112.971 67.5419C110.498 67.5419 108.487 69.9046 108.487 72.8059C108.487 75.7073 110.498 78.07 112.971 78.07C115.443 78.07 117.441 75.7073 117.441 72.8059C117.441 69.9046 115.441 67.5419 112.971 67.5419Z" fill="#263238"/>
<path d="M112.972 77.4913C115.183 77.4913 116.975 75.3937 116.975 72.8062C116.975 70.2187 115.183 68.1211 112.972 68.1211C110.761 68.1211 108.969 70.2187 108.969 72.8062C108.969 75.3937 110.761 77.4913 112.972 77.4913Z" fill="#BABABA"/>
<path d="M112.972 77.6033C110.701 77.6033 108.855 75.4507 108.855 72.8064C108.855 70.162 110.701 68.0117 112.972 68.0117C115.243 68.0117 117.087 70.162 117.087 72.8064C117.087 75.4507 115.241 77.6033 112.972 77.6033ZM112.972 68.233C110.824 68.233 109.079 70.285 109.079 72.8064C109.079 75.3278 110.824 77.3797 112.972 77.3797C115.12 77.3797 116.864 75.3278 116.864 72.8064C116.864 70.285 115.118 68.2352 112.972 68.2352V68.233Z" fill="#263238"/>
<path d="M54.9466 70.2285L56.2878 65.0046C56.5077 64.1533 57.0042 63.3991 57.6993 62.8606C58.3944 62.3221 59.2487 62.0298 60.1279 62.0295H67.4909C68.291 62.0294 69.0724 62.2715 69.7323 62.724C70.3922 63.1764 70.8997 63.8179 71.1881 64.5643L74.3934 72.8459H93.1853V53.0884L90.6282 49.4963H32.2519C31.4254 49.4898 30.603 49.6143 29.8155 49.8652C28.9907 50.1334 28.0809 50.5961 27.531 51.3807C26.3352 53.0951 26.3352 53.9512 26.3352 53.9512C26.3352 53.9512 19.3343 54.4653 17.6176 55.4936C15.9009 56.5218 17.1035 57.3779 17.9596 59.6042C18.8157 61.8305 19.1577 62.6889 19.1577 64.2312C19.1577 65.7736 18.1317 70.2285 18.1317 70.2285H54.9466Z" fill="#AF52DE"/>
<path d="M93.2955 72.9584H74.3158L71.0859 64.6052C70.8021 63.8829 70.308 63.2623 69.6676 62.8239C69.0272 62.3856 68.2699 62.1496 67.4938 62.1464H60.1308C59.2765 62.1462 58.4463 62.43 57.7709 62.9532C57.0956 63.4764 56.6133 64.2093 56.4001 65.0366L55.0322 70.3454H17.9938L18.0251 70.209C18.0251 70.1643 19.0488 65.7385 19.0488 64.2364C19.0488 62.7343 18.718 61.8827 17.9133 59.7927L17.8574 59.6496C17.6593 59.1526 17.4355 58.6661 17.1868 58.1923C16.59 57.0053 16.1944 56.2207 17.5579 55.4026C19.1852 54.4258 25.3478 53.9207 26.2263 53.8514C26.262 53.572 26.4498 52.7337 27.4355 51.321C27.9139 50.6393 28.7007 50.1162 29.7759 49.7563C30.5751 49.5024 31.4095 49.3764 32.2481 49.3831H90.6847L93.2955 53.0511V72.9584ZM74.4701 72.7349H93.072V53.1249L90.5685 49.6088H32.2525C31.4376 49.603 30.6267 49.7252 29.8496 49.9709C28.8236 50.3085 28.0726 50.8047 27.6144 51.4462C26.4587 53.0981 26.4364 53.943 26.4364 53.9519V54.0548H26.3336C26.2643 54.0548 19.3416 54.5778 17.6697 55.5815C16.485 56.2923 16.7755 56.8511 17.3835 58.0783C17.6321 58.559 17.8559 59.0522 18.0541 59.5558L18.1078 59.6988C18.9236 61.8179 19.2589 62.6941 19.2589 64.223C19.2589 65.6268 18.4363 69.3351 18.2598 70.1085H54.86L56.1833 64.9674C56.4093 64.0922 56.9196 63.3169 57.6342 62.7634C58.3487 62.2099 59.227 61.9095 60.1308 61.9095H67.4938C68.3156 61.9125 69.1174 62.1627 69.7951 62.6275C70.4728 63.0923 70.995 63.7503 71.2937 64.5158L74.4701 72.7349Z" fill="#263238"/>
<path d="M93.1826 53.0879V72.8678H101.285L101.927 70.2279L103.268 65.0041C103.488 64.153 103.984 63.3989 104.678 62.8603C105.373 62.3218 106.227 62.0294 107.106 62.029H114.482C115.282 62.0295 116.064 62.2719 116.723 62.7242C117.383 63.1766 117.891 63.8178 118.18 64.5638L121.204 72.8678H129.897C130.48 72.8672 131.039 72.6353 131.452 72.2229C131.864 71.8105 132.096 71.2514 132.096 70.6683L130.471 55.046C130.471 54.5296 130.266 54.0344 129.901 53.6693C129.536 53.3042 129.041 53.0991 128.524 53.0991L93.1826 53.0879Z" fill="#AF52DE"/>
<path d="M129.891 72.98H121.111L118.06 64.6022C117.776 63.88 117.282 63.2596 116.641 62.8213C116.001 62.383 115.244 62.1468 114.468 62.1434H107.091C106.237 62.1433 105.408 62.4271 104.733 62.9504C104.058 63.4736 103.576 64.2065 103.363 65.0336L102.022 70.2574L101.351 72.9822H93.0718V52.9766H128.525C129.071 52.9772 129.594 53.1942 129.98 53.5802C130.366 53.9661 130.583 54.4894 130.584 55.0352L132.202 70.6553C132.203 70.9597 132.144 71.2613 132.029 71.5429C131.913 71.8244 131.743 72.0805 131.528 72.2963C131.314 72.5122 131.059 72.6837 130.778 72.801C130.497 72.9183 130.196 72.9791 129.891 72.98ZM121.276 72.7565H129.891C130.445 72.7559 130.975 72.5357 131.367 72.1443C131.758 71.7529 131.978 71.2222 131.979 70.6687L130.361 55.0464C130.361 54.8047 130.315 54.5651 130.223 54.3414C130.131 54.1177 129.996 53.9143 129.826 53.7429C129.655 53.5714 129.453 53.4352 129.23 53.342C129.006 53.2489 128.767 53.2007 128.525 53.2001H93.2953V72.7565H101.199L101.821 70.2015L103.162 64.9755C103.387 64.1003 103.897 63.3249 104.611 62.7713C105.325 62.2177 106.203 61.9174 107.107 61.9176H114.483C115.305 61.9209 116.107 62.1712 116.784 62.636C117.462 63.1008 117.984 63.7586 118.283 64.524L121.276 72.7565Z" fill="#263238"/>
<path d="M44.3702 60.7549H43.8069H24.0359L24.0046 60.6945C24.0046 60.6945 23.6716 60.0441 23.334 59.1924C22.9518 58.2357 23.752 57.0354 24.0158 56.6397C24.3578 56.1279 26.1728 53.9798 26.2511 53.8904L26.421 54.0334C26.4008 54.0558 24.5366 56.2687 24.2013 56.7649C23.9532 57.136 23.2022 58.2626 23.5419 59.1097C23.8191 59.8004 24.0873 60.3548 24.1767 60.5314H43.8113H44.1444C44.1078 60.3075 44.0321 60.0919 43.9209 59.8943C43.8222 59.7156 43.7327 59.5321 43.6526 59.3444C43.4939 58.9734 43.3397 58.647 43.2056 58.3609C42.5954 57.0734 42.2891 56.4252 43.4649 55.4148C44.008 54.9454 45.2531 54.5475 47.1978 54.2346C48.8476 53.9709 50.5161 53.8408 52.1869 53.8457H65.708L64.5032 49.9496L64.7267 49.8848L66.0187 54.0692H52.1802C50.5215 54.0651 48.8651 54.1937 47.2268 54.4537C45.3604 54.7577 44.1086 55.1488 43.6035 55.5847C42.5574 56.4788 42.8055 57.0063 43.4 58.267C43.5364 58.5554 43.6929 58.884 43.8471 59.2595C43.9238 59.4407 44.0104 59.6175 44.1064 59.7892C44.2584 60.0513 44.3472 60.3452 44.3657 60.6476L44.3702 60.7549Z" fill="#263238"/>
<path d="M46.9178 61.9896C47.761 61.9896 48.4445 60.8788 48.4445 59.5085C48.4445 58.1382 47.761 57.0273 46.9178 57.0273C46.0746 57.0273 45.3911 58.1382 45.3911 59.5085C45.3911 60.8788 46.0746 61.9896 46.9178 61.9896Z" fill="white"/>
<path d="M46.9163 62.1018C46.0222 62.1018 45.2778 60.9395 45.2778 59.5089C45.2778 58.0784 46.0132 56.916 46.9163 56.916C47.8193 56.916 48.5547 58.0784 48.5547 59.5089C48.5547 60.9395 47.8193 62.1018 46.9163 62.1018ZM46.9163 57.1395C46.1362 57.1395 45.5014 58.2013 45.5014 59.5089C45.5014 60.8166 46.1362 61.8783 46.9163 61.8783C47.6964 61.8783 48.3312 60.8143 48.3312 59.5089C48.3312 58.2035 47.6964 57.1395 46.9163 57.1395Z" fill="#263238"/>
<path d="M48.0443 63.1089C47.8414 63.114 47.6417 63.0571 47.472 62.9457L47.6017 62.7624C47.7477 62.8411 47.9109 62.8823 48.0767 62.8823C48.2425 62.8823 48.4057 62.8411 48.5517 62.7624C48.9674 62.5613 49.2223 62.1366 49.2401 61.5688C49.305 60.1874 47.7783 56.8099 47.3469 56.564C46.9155 56.3182 44.6847 56.3852 44.3226 56.7473C44.1124 56.9574 44.7696 58.312 45.4849 59.4431L45.2971 59.5638C44.9216 58.9737 43.7324 57.0223 44.1661 56.5886C44.5997 56.155 46.9266 56.0656 47.4586 56.3651C47.9906 56.6646 49.5285 60.1874 49.4704 61.5733C49.4279 62.4674 48.9429 62.8206 48.6567 62.9591C48.4667 63.0551 48.2572 63.1063 48.0443 63.1089Z" fill="#263238"/>
<path d="M20.3695 61.9896C21.2126 61.9896 21.8961 60.8788 21.8961 59.5085C21.8961 58.1382 21.2126 57.0273 20.3695 57.0273C19.5263 57.0273 18.8428 58.1382 18.8428 59.5085C18.8428 60.8788 19.5263 61.9896 20.3695 61.9896Z" fill="white"/>
<path d="M20.3704 62.1018C19.4763 62.1018 18.7319 60.9395 18.7319 59.5089C18.7319 58.0784 19.4673 56.916 20.3704 56.916C21.2734 56.916 22.0088 58.0784 22.0088 59.5089C22.0088 60.9395 21.2734 62.1018 20.3704 62.1018ZM20.3704 57.1395C19.5903 57.1395 18.9555 58.2013 18.9555 59.5089C18.9555 60.8166 19.5903 61.8783 20.3704 61.8783C21.1505 61.8783 21.7853 60.8143 21.7853 59.5089C21.7853 58.2035 21.1505 57.1395 20.3704 57.1395Z" fill="#263238"/>
<path d="M21.4959 63.1089C21.293 63.114 21.0934 63.0571 20.9237 62.9457L21.0534 62.7624C21.1995 62.8405 21.3627 62.8814 21.5284 62.8814C21.694 62.8814 21.8572 62.8405 22.0033 62.7624C22.4191 62.5613 22.6739 62.1366 22.6918 61.5688C22.7566 60.1874 21.2299 56.8099 20.7985 56.564C20.3671 56.3182 18.1363 56.3874 17.7742 56.7473C17.5641 56.9574 18.2213 58.312 18.9366 59.4431L18.7488 59.5638C18.3733 58.9737 17.1841 57.0223 17.6177 56.5886C18.0514 56.155 20.3783 56.0656 20.9103 56.3651C21.4423 56.6646 22.9802 60.1874 22.922 61.5733C22.8796 62.4674 22.3945 62.8206 22.1084 62.9591C21.9183 63.0551 21.7088 63.1063 21.4959 63.1089Z" fill="#263238"/>
<path d="M28.1646 68.2306H32.1009L31.1912 62.3184H27.2549L28.1646 68.2306Z" fill="#263238"/>
<path d="M32.2345 68.3417H28.0702L27.127 62.1992H31.289L32.2345 68.3417ZM28.2625 68.1182H31.973L31.0968 62.4227H27.3885L28.2625 68.1182Z" fill="#263238"/>
<path d="M35.8079 62.3184H31.8716L32.7813 68.2306H36.7176L35.8079 62.3184Z" fill="#263238"/>
<path d="M36.8397 68.3417H32.6843L31.7388 62.1992H35.9031L36.8397 68.3417ZM32.8698 68.1182H36.5781L35.722 62.4227H32.0115L32.8698 68.1182Z" fill="#263238"/>
<path d="M26.5789 62.3184H25.3607C25.0637 62.3188 24.7753 62.4178 24.5407 62.5999C24.306 62.7819 24.1385 63.0367 24.0642 63.3242L23.2372 66.5609C23.1872 66.7585 23.183 66.9648 23.2247 67.1643C23.2665 67.3637 23.3531 67.551 23.4781 67.712C23.6031 67.873 23.7631 68.0033 23.946 68.0932C24.1289 68.1831 24.3298 68.2301 24.5336 68.2306H27.4886L26.5789 62.3184Z" fill="#263238"/>
<path d="M27.6184 68.3428H24.5338C24.3128 68.3429 24.0947 68.2924 23.8963 68.1953C23.6978 68.0982 23.5241 67.957 23.3884 67.7826C23.2528 67.6082 23.1588 67.405 23.1136 67.1887C23.0685 66.9724 23.0733 66.7487 23.1278 66.5345L23.9571 63.2978C24.0366 62.9859 24.2177 62.7093 24.4719 62.5118C24.7261 62.3142 25.0389 62.207 25.3608 62.207H26.6752L27.6184 68.3428ZM25.3608 62.4239C25.0885 62.4239 24.824 62.5147 24.609 62.6819C24.3941 62.8491 24.241 63.0831 24.1739 63.347L23.3446 66.5837C23.2982 66.7648 23.2939 66.9541 23.332 67.1372C23.37 67.3202 23.4495 67.4921 23.5643 67.6397C23.6791 67.7873 23.8261 67.9067 23.9942 67.9886C24.1622 68.0706 24.3468 68.113 24.5338 68.1126H27.3569L26.4829 62.4239H25.3608Z" fill="#263238"/>
<path d="M40.4226 62.3184H36.4863L37.3961 68.2306H41.3324L40.4226 62.3184Z" fill="#263238"/>
<path d="M41.4613 68.3417H37.2992L36.356 62.1992H40.518L41.4613 68.3417ZM37.4915 68.1182H41.202L40.3258 62.4227H36.6175L37.4915 68.1182Z" fill="#263238"/>
<path d="M45.7812 66.4625L44.677 63.2236C44.5864 62.96 44.4159 62.7311 44.1891 62.5688C43.9624 62.4066 43.6907 62.319 43.4119 62.3184H41.1006L42.0103 68.2351H44.5116C44.7247 68.2351 44.9348 68.1842 45.1244 68.0868C45.3139 67.9894 45.4776 67.8482 45.6017 67.6749C45.7258 67.5016 45.8068 67.3013 45.838 67.0904C45.8693 66.8796 45.8498 66.6644 45.7812 66.4625Z" fill="#263238"/>
<path d="M44.5131 68.3417H41.9157L40.9702 62.1992H43.4111C43.7133 62.1994 44.0079 62.2941 44.2537 62.4701C44.4994 62.646 44.6839 62.8944 44.7813 63.1805L45.8856 66.4172C45.9603 66.6354 45.9819 66.8684 45.9484 67.0967C45.915 67.3249 45.8275 67.5419 45.6932 67.7295C45.5589 67.9171 45.3818 68.07 45.1765 68.1753C44.9713 68.2806 44.7438 68.3354 44.5131 68.335V68.3417ZM42.108 68.1182H44.5131C44.708 68.1183 44.9001 68.072 45.0735 67.9829C45.2469 67.8939 45.3965 67.7648 45.51 67.6063C45.6234 67.4478 45.6974 67.2646 45.7258 67.0717C45.7542 66.8789 45.7362 66.6821 45.6732 66.4976L44.5712 63.261C44.4887 63.0187 44.3325 62.8083 44.1245 62.6592C43.9165 62.5101 43.6671 62.4298 43.4111 62.4295H41.2317L42.108 68.1182Z" fill="#263238"/>
<path d="M55.7314 70.5725C55.6263 69.7455 54.7412 69.095 54.2785 68.8066H17.9867C17.5262 69.095 16.6455 69.7455 16.5337 70.5725C16.3907 71.6901 16.8243 72.658 17.6894 73.1386H54.5713C55.4431 72.658 55.8767 71.6946 55.7314 70.5725Z" fill="#BABABA"/>
<path d="M54.6066 73.2511H17.6599L17.6331 73.2377C16.7255 72.7325 16.274 71.7311 16.4238 70.5553C16.5333 69.697 17.414 69.0309 17.9281 68.7112L17.9549 68.6934H54.3116L54.3384 68.7112C54.8525 69.0309 55.7332 69.697 55.8427 70.5553C55.9925 71.7289 55.541 72.7303 54.6334 73.2377L54.6066 73.2511ZM17.7247 73.0275H54.5485C55.3577 72.5648 55.7578 71.6551 55.6214 70.5866C55.5253 69.8333 54.7273 69.2254 54.2467 68.9191H18.0198C17.5347 69.2254 16.7412 69.8333 16.6451 70.5866C16.4998 71.6551 16.9088 72.5648 17.718 73.0275H17.7247Z" fill="#263238"/>
<path d="M91.999 53.7383H69.0093V53.9618H91.999V53.7383Z" fill="#263238"/>
<path d="M90.6249 49.4967L87.538 38.1349C87.2388 37.0321 86.6722 36.0202 85.8884 35.1888C84.9819 34.2291 83.7545 33.6357 82.4394 33.5213L79.5581 33.2754C68.2923 32.8596 58.6874 33.3693 52.0352 34.2947C51.8823 34.3516 51.7367 34.4267 51.6016 34.5182C50.4725 35.196 49.6059 36.2359 49.1428 37.4688L44.5918 49.3939L90.6249 49.4967Z" fill="#AF52DE"/>
<path d="M90.7706 49.6081H90.6254L44.4224 49.4918L49.0293 37.4214C49.5037 36.1652 50.3881 35.1059 51.5395 34.415C51.6849 34.3206 51.8419 34.2455 52.0066 34.1914C59.4702 33.1409 69.2517 32.7832 79.5563 33.1632L82.4398 33.4113C83.784 33.5256 85.039 34.1312 85.9648 35.1124C86.7612 35.9574 87.3377 36.9852 87.6435 38.1054L90.7706 49.6081ZM44.7465 49.2706L90.4778 49.3846L87.4312 38.1635C87.1373 37.0757 86.5791 36.0775 85.8061 35.2577C84.9181 34.3157 83.714 33.7339 82.4242 33.6237L79.534 33.3867C69.2517 33.0067 59.4791 33.3689 52.0402 34.4038C51.9039 34.4578 51.7729 34.5244 51.649 34.6027C50.5395 35.2712 49.6887 36.2953 49.2349 37.5086L44.7465 49.2706Z" fill="#263238"/>
<path d="M46.3588 46.6836L50.2527 36.7188C50.5701 35.9096 51.263 35.391 52.0275 35.391L55.5189 35.1675C57.7588 35.017 60.0058 35.0051 62.2471 35.1318L67.0172 35.4C68.4276 35.4 69.6995 36.4237 70.1801 37.9661L72.498 45.2888C72.6738 45.8332 72.7044 46.414 72.5868 46.9739C72.4692 47.5337 72.2074 48.0531 71.8275 48.4808C71.5767 48.7622 71.2608 48.9779 70.9073 49.1088C70.5538 49.2397 70.1737 49.282 69.8001 49.2318C67.2318 48.8541 60.9059 48.0136 56.0822 48.1745C53.3063 48.2692 50.5385 48.5304 47.7939 48.9569C46.7254 49.1178 45.9073 47.8393 46.3588 46.6836Z" fill="#263238"/>
<path d="M70.1334 49.3608C70.0205 49.3603 69.9077 49.3521 69.7959 49.3362C67.2879 48.9651 60.9308 48.118 56.0982 48.2789C53.3283 48.3743 50.5665 48.6348 47.8277 49.059C47.5826 49.0951 47.3324 49.0643 47.1034 48.9699C46.8744 48.8754 46.6751 48.7209 46.5267 48.5226C46.3212 48.2602 46.1885 47.9483 46.1418 47.6183C46.0951 47.2883 46.1361 46.9518 46.2607 46.6427L50.1635 36.6801C50.4966 35.8307 51.2342 35.2808 52.0412 35.2808L55.5259 35.0573C57.7703 34.9079 60.0217 34.896 62.2675 35.0215L67.0353 35.2898C68.4838 35.2898 69.7959 36.3538 70.2966 37.9341L72.6056 45.2479C72.7919 45.8088 72.828 46.4088 72.7103 46.988C72.5927 47.5672 72.3254 48.1056 71.935 48.5494C71.7072 48.8019 71.4294 49.0044 71.1193 49.144C70.8092 49.2837 70.4735 49.3575 70.1334 49.3608ZM57.3611 48.0353C61.9993 48.0353 67.5293 48.7751 69.8294 49.1149C70.1854 49.1619 70.5475 49.121 70.8842 48.996C71.2208 48.8709 71.5217 48.6654 71.7607 48.3974C72.1275 47.9844 72.3796 47.4824 72.4917 46.9415C72.6039 46.4006 72.5723 45.8398 72.4 45.315L70.082 37.9922C69.6104 36.5035 68.3832 35.5044 67.0264 35.5044L62.2496 35.2361C60.0157 35.1109 57.7763 35.1229 55.5438 35.2719L52.0546 35.4954C51.6804 35.511 51.3196 35.6395 51.02 35.8642C50.7203 36.0888 50.4957 36.399 50.3759 36.7539L46.4731 46.7142C46.364 46.9868 46.3273 47.283 46.3665 47.574C46.4057 47.865 46.5194 48.1409 46.6966 48.375C46.8216 48.5411 46.9892 48.6704 47.1816 48.7491C47.374 48.8278 47.5841 48.853 47.7897 48.8221C50.5389 48.3966 53.3111 48.1354 56.0915 48.0397C56.5117 48.042 56.9297 48.0353 57.3611 48.0353Z" fill="#263238"/>
<path d="M70.1875 37.9588C69.7941 36.716 68.8955 35.8085 67.8203 35.5L50.3584 48.5964C51.9969 48.4042 53.9505 48.2343 56.0941 48.1628C58.3822 48.1157 60.6711 48.1993 62.9497 48.4131L71.4437 41.9309L70.1875 37.9588Z" fill="white"/>
<path d="M49.9619 48.7595L67.7994 35.377L67.853 35.3926C68.9818 35.7122 69.8938 36.6578 70.2939 37.9207L71.5747 41.9621L71.5121 42.009L62.9935 48.5315H62.9511C60.6763 48.3163 58.391 48.2327 56.1067 48.2812C54.2223 48.3437 52.3067 48.489 50.3821 48.7148L49.9619 48.7595ZM67.8441 35.6273L50.7577 48.4421C52.5459 48.2454 54.3341 48.1135 56.091 48.0554C58.3694 48.0059 60.6487 48.0888 62.9175 48.3035L71.3132 41.8838L70.0816 37.9922C69.7105 36.8209 68.8768 35.9402 67.8441 35.6273Z" fill="#263238"/>
<path d="M47.6841 43.3042L58.4871 35.0449C57.4991 35.0568 56.5127 35.0956 55.5276 35.1612L52.8028 35.3422L49.9126 37.6132L47.6841 43.3042Z" fill="white"/>
<path d="M47.4326 43.6475L49.8199 37.5519L52.7593 35.2429L55.5198 35.0596C56.481 34.9948 57.4801 34.9568 58.4838 34.9434H58.8213L47.4326 43.6475ZM50.0054 37.6793L47.9311 42.9769L58.1485 35.1535C57.2544 35.1714 56.3849 35.2071 55.5332 35.2652L52.8509 35.4441L50.0054 37.6793Z" fill="#263238"/>
<path d="M83.8832 35.5703H75.4674C75.06 35.5705 74.6582 35.6655 74.2939 35.8479C73.9296 36.0302 73.6128 36.2949 73.3685 36.6209C73.1184 36.9535 72.9513 37.3409 72.881 37.7511C72.8106 38.1612 72.839 38.5822 72.9639 38.9791L75.4674 47.0015C75.6526 47.5906 76.0208 48.1053 76.5184 48.4711C77.0159 48.8368 77.6171 49.0346 78.2346 49.0356H87.4149C87.6033 49.0354 87.7891 48.9914 87.9576 48.9071C88.126 48.8228 88.2726 48.7005 88.3858 48.5498C88.4989 48.3992 88.5755 48.2243 88.6095 48.039C88.6435 47.8537 88.634 47.6631 88.5817 47.4821L85.4836 36.7796C85.3839 36.4319 85.1739 36.1259 84.8852 35.9078C84.5966 35.6897 84.2449 35.5713 83.8832 35.5703Z" fill="#263238"/>
<path d="M87.4146 49.1391H78.2344C77.5924 49.1413 76.9668 48.9372 76.4497 48.5569C75.9325 48.1766 75.5513 47.6402 75.362 47.0268L72.8563 39.0111C72.7284 38.6014 72.6986 38.1674 72.7693 37.7441C72.8401 37.3208 73.0093 36.92 73.2634 36.5742C73.5174 36.2283 73.8493 35.947 74.2321 35.7529C74.6149 35.5589 75.0379 35.4575 75.4671 35.457H83.8829C84.2677 35.4587 84.6417 35.5844 84.9494 35.8156C85.257 36.0467 85.4819 36.3709 85.5906 36.7401L88.6977 47.447C88.7544 47.6445 88.7645 47.8525 88.7272 48.0546C88.6899 48.2567 88.6062 48.4473 88.4827 48.6116C88.3592 48.7758 88.1993 48.9092 88.0155 49.0011C87.8317 49.093 87.629 49.141 87.4235 49.1413L87.4146 49.1391ZM75.4671 35.6806C75.0719 35.6805 74.6823 35.7735 74.3298 35.9521C73.9773 36.1308 73.6718 36.3899 73.4382 36.7087C73.2046 37.0274 73.0494 37.3967 72.9852 37.7867C72.921 38.1766 72.9496 38.5762 73.0687 38.953L75.5744 46.9687C75.7497 47.5366 76.1028 48.0333 76.5817 48.3854C77.0606 48.7376 77.6399 48.9265 78.2344 48.9245H87.4146C87.5857 48.9243 87.7543 48.8844 87.9073 48.8078C88.0603 48.7313 88.1934 48.6203 88.2961 48.4835C88.3988 48.3467 88.4684 48.188 88.4993 48.0198C88.5302 47.8515 88.5216 47.6784 88.4741 47.5141L85.3738 36.8116C85.278 36.4901 85.0813 36.2079 84.8129 36.0067C84.5444 35.8054 84.2184 35.6958 83.8829 35.694L75.4671 35.6806Z" fill="#263238"/>
<path d="M86.3891 39.9004L76.042 48.0234C76.3143 48.3379 76.6511 48.5902 77.0294 48.7634C77.4077 48.9365 77.8187 49.0264 78.2348 49.027H79.8196L87.3569 43.2622L86.3891 39.9004Z" fill="white"/>
<path d="M79.8594 49.1393H78.2365C77.8044 49.139 77.3774 49.0459 76.9844 48.8662C76.5914 48.6864 76.2417 48.4244 75.9588 48.0977L75.8828 48.0083L86.4512 39.7109L87.4928 43.3052L79.8594 49.1393ZM76.2069 48.0373C76.4671 48.3148 76.7815 48.5359 77.1306 48.687C77.4798 48.8381 77.8561 48.916 78.2365 48.9158H79.7856L87.2357 43.2203L86.3282 40.0909L76.2069 48.0373Z" fill="#263238"/>
<path d="M131.788 66.8217H130.094C130.094 66.8217 130.149 71.6365 128.752 72.8458H131.953C131.953 72.8458 132.982 72.6379 133.496 71.3861V71.375C133.694 70.8607 133.72 70.2962 133.572 69.7656L132.868 67.0832C132.868 67.0481 132.862 67.0132 132.85 66.9804C132.837 66.9477 132.818 66.9177 132.794 66.8924C132.769 66.867 132.74 66.8468 132.708 66.8327C132.676 66.8187 132.641 66.8111 132.606 66.8105L131.788 66.8217Z" fill="#BABABA"/>
<path d="M128.748 72.9585H128.448L128.672 72.7618C130.013 71.5995 129.977 66.8696 129.977 66.8227V66.7109H132.604C132.702 66.7121 132.796 66.7515 132.866 66.8208C132.935 66.89 132.975 66.9837 132.977 67.082L133.679 69.7375C133.832 70.2922 133.803 70.8815 133.596 71.4184C133.062 72.7216 132.011 72.9473 131.967 72.9563L128.748 72.9585ZM129.014 72.735H131.935C132.045 72.7082 132.925 72.4712 133.388 71.3447C133.58 70.85 133.607 70.3066 133.464 69.7956L132.756 67.1133V67.0954C132.757 67.0752 132.753 67.055 132.746 67.0362C132.739 67.0173 132.727 67.0002 132.713 66.9859C132.699 66.9713 132.683 66.9597 132.664 66.9517C132.646 66.9436 132.626 66.9393 132.606 66.9389H130.205C130.205 67.6498 130.147 71.3827 129.014 72.735Z" fill="#263238"/>
<path d="M91.9699 71.1021H74.4745V70.9948C74.4745 70.8808 73.9 59.4094 73.4776 56.8746C73.0685 54.4158 71.7229 54.1118 71.7072 54.1096L71.629 54.0939V54.0112L71.2222 49.8425H71.3473C71.3675 49.8425 73.444 49.8313 74.1168 49.0266C74.7897 48.2219 74.6645 47.7011 74.6645 47.6966C74.5438 47.3658 71.629 39.2965 71.629 37.7251C71.629 36.1067 73.1937 35.235 73.2563 35.1992L73.3636 35.3959C73.3479 35.3959 71.8525 36.2409 71.8525 37.7251C71.8525 39.2585 74.8478 47.5491 74.8791 47.6318C74.8791 47.6675 75.0288 48.28 74.2867 49.1696C73.6407 49.943 71.9442 50.0503 71.4703 50.0637L71.8436 53.9129C72.1655 54.0179 73.3233 54.5455 73.7056 56.8366C74.1079 59.2529 74.6421 69.7051 74.7025 70.8786H91.7598V55.3099L90.6198 52.8802C90.6198 52.8601 90.1907 50.7723 89.5156 50.2336L89.6564 50.0593C90.3717 50.6293 90.7942 52.6209 90.8366 52.8221L91.9833 55.2809L91.9699 71.1021Z" fill="#263238"/>
<path d="M90.2862 52.8581H86.2895C86.1761 52.8581 86.0673 52.8132 85.9868 52.7331C85.9064 52.6531 85.8609 52.5446 85.8604 52.4311C85.8604 52.3173 85.9056 52.2081 85.9861 52.1277C86.0665 52.0472 86.1757 52.002 86.2895 52.002H90.2862C90.3992 52.0031 90.5072 52.0489 90.5868 52.1292C90.6663 52.2096 90.7109 52.3181 90.7109 52.4311C90.7103 52.5438 90.6654 52.6517 90.586 52.7316C90.5065 52.8115 90.3988 52.8569 90.2862 52.8581Z" fill="white"/>
<path d="M90.2852 52.9694H86.2886C86.2148 52.9742 86.1408 52.9637 86.0711 52.9388C86.0015 52.9138 85.9378 52.8748 85.8838 52.8242C85.8299 52.7736 85.7869 52.7125 85.7575 52.6446C85.7281 52.5767 85.7129 52.5036 85.7129 52.4296C85.7129 52.3556 85.7281 52.2825 85.7575 52.2146C85.7869 52.1467 85.8299 52.0856 85.8838 52.035C85.9378 51.9844 86.0015 51.9454 86.0711 51.9205C86.1408 51.8955 86.2148 51.885 86.2886 51.8898H90.2852C90.359 51.885 90.433 51.8955 90.5027 51.9205C90.5723 51.9454 90.636 51.9844 90.69 52.035C90.744 52.0856 90.787 52.1467 90.8164 52.2146C90.8458 52.2825 90.8609 52.3556 90.8609 52.4296C90.8609 52.5036 90.8458 52.5767 90.8164 52.6446C90.787 52.7125 90.744 52.7736 90.69 52.8242C90.636 52.8748 90.5723 52.9138 90.5027 52.9388C90.433 52.9637 90.359 52.9742 90.2852 52.9694ZM86.2886 52.1133C86.2448 52.1096 86.2007 52.1151 86.1592 52.1293C86.1176 52.1435 86.0795 52.1662 86.0471 52.1959C86.0148 52.2257 85.989 52.2618 85.9713 52.302C85.9537 52.3422 85.9446 52.3857 85.9446 52.4296C85.9446 52.4735 85.9537 52.517 85.9713 52.5572C85.989 52.5974 86.0148 52.6335 86.0471 52.6633C86.0795 52.693 86.1176 52.7157 86.1592 52.7299C86.2007 52.7441 86.2448 52.7496 86.2886 52.7459H90.2852C90.329 52.7496 90.3731 52.7441 90.4146 52.7299C90.4562 52.7157 90.4943 52.693 90.5267 52.6633C90.559 52.6335 90.5848 52.5974 90.6025 52.5572C90.6201 52.517 90.6293 52.4735 90.6293 52.4296C90.6293 52.3857 90.6201 52.3422 90.6025 52.302C90.5848 52.2618 90.559 52.2257 90.5267 52.1959C90.4943 52.1662 90.4562 52.1435 90.4146 52.1293C90.3731 52.1151 90.329 52.1096 90.2852 52.1133H86.2886Z" fill="#263238"/>
<path d="M72.0346 59.0059H61.0818L59.7697 59.406C59.7282 59.4179 59.6918 59.4431 59.6659 59.4775C59.64 59.512 59.626 59.554 59.626 59.5971C59.626 59.6402 59.64 59.6822 59.6659 59.7166C59.6918 59.7511 59.7282 59.7762 59.7697 59.7882L61.0751 60.1414H72.0279C72.1413 60.1408 72.2499 60.0953 72.3299 60.0149C72.4099 59.9345 72.4548 59.8256 72.4548 59.7122V59.4328C72.4548 59.3207 72.4108 59.2131 72.3322 59.1333C72.2535 59.0534 72.1467 59.0076 72.0346 59.0059Z" fill="white"/>
<path d="M72.0356 60.253H61.056L59.7506 59.8998C59.6856 59.8818 59.6282 59.843 59.5874 59.7893C59.5465 59.7356 59.5244 59.67 59.5244 59.6025C59.5244 59.5351 59.5465 59.4695 59.5874 59.4158C59.6282 59.3621 59.6856 59.3232 59.7506 59.3053L61.0918 58.8984H72.0446C72.1153 58.8984 72.1854 58.9124 72.2507 58.9394C72.3161 58.9665 72.3755 59.0062 72.4255 59.0562C72.4755 59.1062 72.5152 59.1656 72.5423 59.231C72.5693 59.2963 72.5833 59.3664 72.5833 59.4371V59.7165C72.5827 59.7878 72.5681 59.8582 72.5402 59.9237C72.5123 59.9893 72.4718 60.0487 72.4209 60.0985C72.37 60.1484 72.3098 60.1877 72.2437 60.2142C72.1776 60.2407 72.1069 60.2539 72.0356 60.253ZM61.1007 60.0295H72.0356C72.1194 60.0289 72.1996 59.9952 72.2586 59.9357C72.3177 59.8763 72.3508 59.7959 72.3508 59.7121V59.4327C72.3508 59.3491 72.3176 59.2689 72.2585 59.2098C72.1994 59.1507 72.1192 59.1175 72.0356 59.1175H61.1029L59.8065 59.5131C59.788 59.5178 59.7718 59.529 59.7607 59.5445C59.7496 59.5601 59.7445 59.5791 59.7461 59.5981C59.7456 59.6169 59.7515 59.6354 59.7629 59.6505C59.7742 59.6655 59.7904 59.6762 59.8087 59.6808L61.1007 60.0295Z" fill="#263238"/>
<path d="M27.0205 54.623H36.5003C36.5003 54.623 35.8476 55.4814 35.4676 55.4814H33.9454L33.2636 56.3353C33.1204 56.5143 32.9387 56.6588 32.7321 56.7583C32.5255 56.8577 32.2993 56.9094 32.07 56.9097H30.4695C30.1728 56.9093 29.8826 56.8223 29.6345 56.6596C29.3864 56.4968 29.1911 56.2653 29.0725 55.9933L28.8065 55.3853H28.2834C28.0661 55.3864 27.8516 55.3362 27.6574 55.2387C27.4631 55.1412 27.2947 54.9992 27.1658 54.8242L27.0205 54.623Z" fill="white"/>
<path d="M32.0695 57.0203H30.4691C30.1505 57.0199 29.839 56.9266 29.5726 56.7519C29.3062 56.5773 29.0965 56.3287 28.9692 56.0367L28.7323 55.4936H28.2852C28.0514 55.4931 27.821 55.4382 27.6122 55.333C27.4035 55.2278 27.2221 55.0754 27.0826 54.8878L26.8032 54.5078H36.7301L36.5937 54.6889C36.5244 54.7805 35.8963 55.583 35.4761 55.583H34.0075L33.357 56.3966C33.2036 56.5912 33.0079 56.7484 32.7849 56.8564C32.5619 56.9644 32.3173 57.0204 32.0695 57.0203ZM27.2436 54.7336L27.2615 54.7582C27.38 54.9174 27.5341 55.0468 27.7114 55.136C27.8887 55.2253 28.0844 55.2719 28.283 55.2723H28.8798L29.1748 55.9429C29.2845 56.195 29.4654 56.4097 29.6952 56.5606C29.9251 56.7115 30.1941 56.792 30.4691 56.7923H32.0695C32.2821 56.7927 32.4921 56.7451 32.6837 56.653C32.8753 56.5608 33.0436 56.4266 33.176 56.2603L33.8935 55.3662H35.4694C35.6638 55.3662 36.017 55.0264 36.2696 54.7313L27.2436 54.7336Z" fill="#263238"/>
<path d="M29.4889 55.2695H32.967C32.967 55.2695 32.7278 56.1636 32.2472 56.3492C31.7667 56.5347 30.0902 56.3492 30.0902 56.3492C29.8938 56.2497 29.7315 56.0937 29.6244 55.9013C29.5172 55.709 29.4701 55.4889 29.4889 55.2695Z" fill="#263238"/>
<path d="M31.4769 56.5494C30.8488 56.5494 30.1357 56.4756 30.0888 56.4711L30.0552 56.46C29.8379 56.3509 29.658 56.1795 29.5385 55.9677C29.4191 55.7559 29.3655 55.5132 29.3847 55.2708V55.168H33.1109L33.0751 55.3088C33.0751 55.3468 32.8136 56.2655 32.286 56.4644C32.022 56.5325 31.7493 56.5611 31.4769 56.5494ZM30.1357 56.2498C30.6118 56.299 31.8546 56.3929 32.2234 56.2498C32.5163 56.1403 32.7309 55.6731 32.8314 55.387H29.5992C29.6013 55.5645 29.651 55.7381 29.7429 55.8899C29.8349 56.0416 29.9659 56.1659 30.1223 56.2498H30.1357Z" fill="#263238"/>
<path d="M49.8544 72.0356C42.6211 72.5899 38.3092 70.918 27.0435 70.918C21.1871 70.918 18.2633 71.5885 16.8037 72.2435C17.0083 72.6222 17.3191 72.933 17.6978 73.1376H54.5797C54.8925 72.9617 55.1595 72.7146 55.3591 72.4164C55.5587 72.1182 55.6853 71.7771 55.7287 71.4209C54.3205 71.6176 52.4115 71.8322 49.8544 72.0356Z" fill="white"/>
<path d="M54.606 73.2529H17.6593L17.6324 73.2395C17.2389 73.0208 16.9169 72.6933 16.7048 72.2962L16.6489 72.1889L16.7585 72.1419C18.1264 71.5317 21.0211 70.8008 27.0407 70.8008C31.2624 70.8079 35.4804 71.0534 39.6744 71.5362C43.1391 71.8916 46.1321 72.2068 49.8427 71.9139C52.0779 71.7418 54.0561 71.5384 55.708 71.3082L55.8555 71.2881L55.8354 71.4356C55.7894 71.8089 55.6565 72.1662 55.4472 72.4787C55.2379 72.7912 54.9582 73.0503 54.6306 73.235L54.606 73.2529ZM17.7241 73.0293H54.5479C54.8175 72.8734 55.0501 72.6611 55.2299 72.4068C55.4097 72.1526 55.5324 71.8624 55.5895 71.5563C53.9645 71.7798 52.0377 71.9721 49.8628 72.1397C46.1299 72.4281 43.1301 72.1196 39.6543 71.7619C35.4676 71.2813 31.2571 71.0365 27.0429 71.0288C21.2312 71.0288 18.3544 71.6994 16.9619 72.2962C17.1468 72.6012 17.4069 72.8537 17.7174 73.0293H17.7241Z" fill="#263238"/>
<path d="M68.9354 72.8059C68.9354 72.683 68.9354 72.5623 68.9198 72.4438C67.6457 71.9721 66.0139 71.7173 64.932 72.8059C63.9955 73.7425 62.5202 74.2409 61.2036 74.5069C61.7848 76.2504 63.2332 77.491 64.932 77.491C67.1427 77.491 68.9354 75.3876 68.9354 72.8059Z" fill="#263238"/>
<path d="M64.9323 77.6041C63.2223 77.6041 61.718 76.4015 61.0988 74.5417L61.0586 74.4233L61.1815 74.3987C62.8446 74.0612 64.0874 73.5046 64.8518 72.7289C65.7638 71.8169 67.1832 71.6828 68.958 72.34L69.0251 72.3646V72.4361C69.0251 72.5591 69.0407 72.682 69.0407 72.8072C69.0474 75.4515 67.2011 77.6041 64.9323 77.6041ZM61.3559 74.5909C61.9684 76.2897 63.3676 77.3805 64.9323 77.3805C67.0782 77.3805 68.8239 75.3285 68.8239 72.8072C68.8239 72.711 68.8239 72.6172 68.8127 72.5255C67.6415 72.1031 66.0567 71.8393 65.0128 72.8854C64.226 73.67 62.9943 74.2444 61.3514 74.5909H61.3559Z" fill="#263238"/>
<path d="M116.954 73.2567C115.364 72.2285 113.046 72.2553 111.607 73.7038C111.006 74.3256 110.201 74.7097 109.34 74.7857C109.977 76.3861 111.352 77.4993 112.97 77.4993C115.049 77.4903 116.759 75.6328 116.954 73.2567Z" fill="#263238"/>
<path d="M112.972 77.6026C111.376 77.6026 109.912 76.5095 109.239 74.8174L109.184 74.6788L109.333 74.6654C110.168 74.5921 110.948 74.2198 111.531 73.6171C112.916 72.2312 115.275 72.0367 117.016 73.17L117.072 73.208V73.2729C116.864 75.7384 115.103 77.6026 112.972 77.6026ZM109.503 74.8711C110.174 76.4 111.515 77.379 112.972 77.379C114.966 77.379 116.62 75.6355 116.837 73.3153C115.19 72.2826 112.986 72.4749 111.696 73.7758C111.111 74.38 110.338 74.7665 109.503 74.8711Z" fill="#263238"/>
</svg>
