<svg width="318" height="203" viewBox="0 0 318 203" fill="none" xmlns="http://www.w3.org/2000/svg">
<path d="M289.393 19.3842C289.662 17.4529 286.934 15.8633 284.889 15.6993C283.909 15.6173 282.894 15.7676 281.969 15.4442C279.965 14.7473 279.163 12.1556 277.209 11.3449C275.747 10.7254 274.062 11.2765 272.654 11.9916C271.247 12.7068 269.835 13.6041 268.25 13.7043C266.883 13.7908 265.376 13.2807 264.15 13.9548C263.239 14.4558 262.784 15.4898 261.955 16.1001C261.126 16.7105 260.087 16.8243 259.081 16.879C258.074 16.9337 257.036 16.9428 256.12 17.3618C255.205 17.7809 254.449 18.7283 254.64 19.7394L289.393 19.3842Z" fill="#F5F5F5"/>
<path d="M69.994 53.7793H31.4964V175.786H69.994V53.7793Z" fill="#F5F5F5"/>
<path d="M69.9929 53.7793H50.7441V175.449H69.9929V53.7793Z" fill="#EBEBEB"/>
<path d="M49.482 41.8027H35.8857V53.782H49.482V41.8027Z" fill="#F5F5F5"/>
<path d="M49.4846 41.8027H46.2461V53.782H49.4846V41.8027Z" fill="#EBEBEB"/>
<path d="M28.2934 53.7809V53.084H71.1227V53.7809" fill="#E0E0E0"/>
<path d="M42.3553 59.002H39.0986V65.8707H42.3553V59.002Z" fill="#FAFAFA"/>
<path d="M50.7452 68.5774C50.7452 68.6457 46.4363 68.7049 41.1208 68.7049C35.8053 68.7049 31.4964 68.6457 31.4964 68.5774C31.4964 68.5091 35.8053 68.4453 41.1208 68.4453C46.4363 68.4453 50.7452 68.5 50.7452 68.5774Z" fill="#E0E0E0"/>
<path d="M61.7612 59.002H58.5045V65.8707H61.7612V59.002Z" fill="#E0E0E0"/>
<path d="M70.1511 68.5774C70.1511 68.6457 65.8423 68.7049 60.5267 68.7049C55.2112 68.7049 50.9023 68.6457 50.9023 68.5774C50.9023 68.5091 55.2112 68.4453 60.5267 68.4453C65.8423 68.4453 70.1511 68.5 70.1511 68.5774Z" fill="#E0E0E0"/>
<path d="M61.7612 72.6445H58.5045V79.5178H61.7612V72.6445Z" fill="#E0E0E0"/>
<path d="M70.1511 82.2161C70.1511 82.2844 65.8423 82.3436 60.5267 82.3436C55.2112 82.3436 50.9023 82.2844 50.9023 82.2161C50.9023 82.1478 55.2112 82.084 60.5267 82.084C65.8423 82.084 70.1511 82.1432 70.1511 82.2161Z" fill="#E0E0E0"/>
<path d="M61.7612 86.6973H58.5045V93.566H61.7612V86.6973Z" fill="#E0E0E0"/>
<path d="M70.1511 96.2649C70.1511 96.3378 65.8423 96.397 60.5267 96.397C55.2112 96.397 50.9023 96.3378 50.9023 96.2649C50.9023 96.192 55.2112 96.1328 60.5267 96.1328C65.8423 96.1328 70.1511 96.192 70.1511 96.2649Z" fill="#E0E0E0"/>
<path d="M61.7612 100.752H58.5045V107.621H61.7612V100.752Z" fill="#E0E0E0"/>
<path d="M70.1511 110.318C70.1511 110.391 65.8423 110.45 60.5267 110.45C55.2112 110.45 50.9023 110.391 50.9023 110.318C50.9023 110.245 55.2112 110.186 60.5267 110.186C65.8423 110.186 70.1511 110.245 70.1511 110.318Z" fill="#E0E0E0"/>
<path d="M61.7612 114.404H58.5045V121.273H61.7612V114.404Z" fill="#E0E0E0"/>
<path d="M70.1511 123.968C70.1511 124.041 65.8423 124.1 60.5267 124.1C55.2112 124.1 50.9023 124.041 50.9023 123.968C50.9023 123.895 55.2112 123.836 60.5267 123.836C65.8423 123.836 70.1511 123.895 70.1511 123.968Z" fill="#E0E0E0"/>
<path d="M61.7612 128.109H58.5045V134.978H61.7612V128.109Z" fill="#E0E0E0"/>
<path d="M61.7612 141.992H58.5045V148.861H61.7612V141.992Z" fill="#E0E0E0"/>
<path d="M70.1511 137.676C70.1511 137.749 65.8423 137.808 60.5267 137.808C55.2112 137.808 50.9023 137.749 50.9023 137.676C50.9023 137.603 55.2112 137.549 60.5267 137.549C65.8423 137.549 70.1511 137.608 70.1511 137.676Z" fill="#E0E0E0"/>
<path d="M42.3553 72.8555H39.0986V79.7242H42.3553V72.8555Z" fill="#FAFAFA"/>
<path d="M50.7452 82.4172C50.7452 82.4901 46.4363 82.5493 41.1208 82.5493C35.8053 82.5493 31.4964 82.4901 31.4964 82.4172C31.4964 82.3444 35.8053 82.2852 41.1208 82.2852C46.4363 82.2852 50.7452 82.3444 50.7452 82.4172Z" fill="#E0E0E0"/>
<path d="M42.3553 86.7031H39.0986V93.5718H42.3553V86.7031Z" fill="#FAFAFA"/>
<path d="M50.7452 96.2708C50.7452 96.3436 46.4363 96.4029 41.1208 96.4029C35.8053 96.4029 31.4964 96.3436 31.4964 96.2708C31.4964 96.1979 35.8053 96.1387 41.1208 96.1387C46.4363 96.1387 50.7452 96.1979 50.7452 96.2708Z" fill="#E0E0E0"/>
<path d="M42.3553 100.553H39.0986V107.421H42.3553V100.553Z" fill="#FAFAFA"/>
<path d="M50.7452 110.12C50.7452 110.189 46.4363 110.248 41.1208 110.248C35.8053 110.248 31.4964 110.189 31.4964 110.12C31.4964 110.052 35.8053 109.988 41.1208 109.988C46.4363 109.988 50.7452 110.047 50.7452 110.12Z" fill="#E0E0E0"/>
<path d="M42.3553 114.404H39.0986V121.273H42.3553V114.404Z" fill="#FAFAFA"/>
<path d="M50.7452 123.968C50.7452 124.041 46.4363 124.1 41.1208 124.1C35.8053 124.1 31.4964 124.041 31.4964 123.968C31.4964 123.895 35.8053 123.836 41.1208 123.836C46.4363 123.836 50.7452 123.895 50.7452 123.968Z" fill="#E0E0E0"/>
<path d="M42.3553 128.25H39.0986V135.119H42.3553V128.25Z" fill="#FAFAFA"/>
<path d="M50.7452 137.812C50.7452 137.885 46.4363 137.944 41.1208 137.944C35.8053 137.944 31.4964 137.885 31.4964 137.812C31.4964 137.739 35.8053 137.68 41.1208 137.68C46.4363 137.68 50.7452 137.748 50.7452 137.812Z" fill="#E0E0E0"/>
<path d="M42.3553 142.1H39.0986V148.968H42.3553V142.1Z" fill="#FAFAFA"/>
<path d="M221.9 25.9531H166.409V201.816H221.9V25.9531Z" fill="#F5F5F5"/>
<path d="M221.892 25.9531H194.148V201.333H221.892V25.9531Z" fill="#EBEBEB"/>
<path d="M192.331 8.69141H172.736V25.9589H192.331V8.69141Z" fill="#F5F5F5"/>
<path d="M192.332 8.69141H187.663V25.9589H192.332V8.69141Z" fill="#EBEBEB"/>
<path d="M161.782 25.9519V24.9453H223.518V25.9519" fill="#E0E0E0"/>
<path d="M182.048 33.4863H177.352V43.3886H182.048V33.4863Z" fill="#FAFAFA"/>
<path d="M194.152 47.2746C194.152 47.3794 187.944 47.4659 180.283 47.4659C172.621 47.4659 166.409 47.3794 166.409 47.2746C166.409 47.1699 172.617 47.0879 180.283 47.0879C187.948 47.0879 194.152 47.1699 194.152 47.2746Z" fill="#E0E0E0"/>
<path d="M210.045 33.4863H205.349V43.3886H210.045V33.4863Z" fill="#E0E0E0"/>
<path d="M222.143 47.2746C222.143 47.3794 215.931 47.4659 208.269 47.4659C200.608 47.4659 194.395 47.3794 194.395 47.2746C194.395 47.1699 200.608 47.0879 208.269 47.0879C215.931 47.0879 222.143 47.1699 222.143 47.2746Z" fill="#E0E0E0"/>
<path d="M210.045 53.1504H205.349V63.0526H210.045V53.1504Z" fill="#E0E0E0"/>
<path d="M222.143 66.9413C222.143 67.0461 215.931 67.1281 208.269 67.1281C200.608 67.1281 194.395 67.0461 194.395 66.9413C194.395 66.8365 200.608 66.75 208.269 66.75C215.931 66.75 222.143 66.8365 222.143 66.9413Z" fill="#E0E0E0"/>
<path d="M210.045 73.4062H205.349V83.3085H210.045V73.4062Z" fill="#E0E0E0"/>
<path d="M222.143 87.1972C222.143 87.3019 215.931 87.3885 208.269 87.3885C200.608 87.3885 194.395 87.3019 194.395 87.1972C194.395 87.0924 200.608 87.0059 208.269 87.0059C215.931 87.0059 222.143 87.0924 222.143 87.1972Z" fill="#E0E0E0"/>
<path d="M210.045 93.6641H205.349V103.566H210.045V93.6641Z" fill="#E0E0E0"/>
<path d="M222.143 107.454C222.143 107.559 215.931 107.646 208.269 107.646C200.608 107.646 194.395 107.559 194.395 107.454C194.395 107.35 200.608 107.268 208.269 107.268C215.931 107.268 222.143 107.35 222.143 107.454Z" fill="#E0E0E0"/>
<path d="M210.045 113.342H205.349V123.244H210.045V113.342Z" fill="#E0E0E0"/>
<path d="M222.143 127.137C222.143 127.237 215.931 127.323 208.269 127.323C200.608 127.323 194.395 127.237 194.395 127.137C194.395 127.036 200.608 126.945 208.269 126.945C215.931 126.945 222.143 127.032 222.143 127.137Z" fill="#E0E0E0"/>
<path d="M210.045 133.098H205.349V143H210.045V133.098Z" fill="#E0E0E0"/>
<path d="M210.045 153.115H205.349V163.017H210.045V153.115Z" fill="#E0E0E0"/>
<path d="M222.143 146.89C222.143 146.995 215.931 147.081 208.269 147.081C200.608 147.081 194.395 146.995 194.395 146.89C194.395 146.785 200.608 146.703 208.269 146.703C215.931 146.703 222.143 146.785 222.143 146.89Z" fill="#E0E0E0"/>
<path d="M182.048 53.4512H177.352V63.3534H182.048V53.4512Z" fill="#FAFAFA"/>
<path d="M194.152 67.244C194.152 67.3443 187.944 67.4308 180.283 67.4308C172.621 67.4308 166.409 67.3443 166.409 67.244C166.409 67.1438 172.617 67.0527 180.283 67.0527C187.948 67.0527 194.152 67.1393 194.152 67.244Z" fill="#E0E0E0"/>
<path d="M182.048 73.416H177.352V83.3183H182.048V73.416Z" fill="#FAFAFA"/>
<path d="M194.152 87.205C194.152 87.3052 187.944 87.3917 180.283 87.3917C172.621 87.3917 166.409 87.3052 166.409 87.205C166.409 87.1048 172.617 87.0137 180.283 87.0137C187.948 87.0137 194.152 87.1002 194.152 87.205Z" fill="#E0E0E0"/>
<path d="M182.048 93.3789H177.352V103.281H182.048V93.3789Z" fill="#FAFAFA"/>
<path d="M194.152 107.172C194.152 107.272 187.944 107.359 180.283 107.359C172.621 107.359 166.409 107.272 166.409 107.172C166.409 107.072 172.617 106.98 180.283 106.98C187.948 106.98 194.152 107.067 194.152 107.172Z" fill="#E0E0E0"/>
<path d="M182.048 113.342H177.352V123.244H182.048V113.342Z" fill="#FAFAFA"/>
<path d="M194.152 127.137C194.152 127.237 187.944 127.323 180.283 127.323C172.621 127.323 166.409 127.237 166.409 127.137C166.409 127.036 172.617 126.945 180.283 126.945C187.948 126.945 194.152 127.032 194.152 127.137Z" fill="#E0E0E0"/>
<path d="M182.048 133.305H177.352V143.207H182.048V133.305Z" fill="#FAFAFA"/>
<path d="M194.152 147.1C194.152 147.204 187.944 147.286 180.283 147.286C172.621 147.286 166.409 147.204 166.409 147.1C166.409 146.995 172.617 146.908 180.283 146.908C187.948 146.908 194.152 146.995 194.152 147.1Z" fill="#E0E0E0"/>
<path d="M182.048 153.271H177.352V163.174H182.048V153.271Z" fill="#FAFAFA"/>
<path d="M241.479 105.732H211.162V201.812H241.479V105.732Z" fill="#F5F5F5"/>
<path d="M241.475 105.732H226.317V201.548H241.475V105.732Z" fill="#EBEBEB"/>
<path d="M225.326 96.2969H214.622V105.73H225.326V96.2969Z" fill="#F5F5F5"/>
<path d="M225.328 96.2969H222.778V105.73H225.328V96.2969Z" fill="#EBEBEB"/>
<path d="M208.641 105.733V105.182H242.374V105.733" fill="#E0E0E0"/>
<path d="M219.707 109.846H217.143V115.257H219.707V109.846Z" fill="#FAFAFA"/>
<path d="M226.32 117.382C226.32 117.437 222.927 117.482 218.741 117.482C214.555 117.482 211.162 117.437 211.162 117.382C211.162 117.327 214.555 117.277 218.741 117.277C222.927 117.277 226.32 117.314 226.32 117.382Z" fill="#E0E0E0"/>
<path d="M235 109.846H232.436V115.257H235V109.846Z" fill="#E0E0E0"/>
<path d="M241.614 117.382C241.614 117.437 238.22 117.482 234.034 117.482C229.849 117.482 226.455 117.437 226.455 117.382C226.455 117.327 229.849 117.277 234.034 117.277C238.22 117.277 241.614 117.314 241.614 117.382Z" fill="#E0E0E0"/>
<path d="M235 120.588H232.436V125.999H235V120.588Z" fill="#E0E0E0"/>
<path d="M241.614 128.122C241.614 128.182 238.22 128.227 234.034 128.227C229.849 128.227 226.455 128.182 226.455 128.122C226.455 128.063 229.849 128.018 234.034 128.018C238.22 128.018 241.614 128.068 241.614 128.122Z" fill="#E0E0E0"/>
<path d="M235 131.656H232.436V137.067H235V131.656Z" fill="#E0E0E0"/>
<path d="M241.614 139.177C241.614 139.232 238.22 139.282 234.034 139.282C229.849 139.282 226.455 139.232 226.455 139.177C226.455 139.122 229.849 139.072 234.034 139.072C238.22 139.072 241.614 139.131 241.614 139.177Z" fill="#E0E0E0"/>
<path d="M235 142.723H232.436V148.134H235V142.723Z" fill="#E0E0E0"/>
<path d="M241.614 150.259C241.614 150.314 238.22 150.359 234.034 150.359C229.849 150.359 226.455 150.314 226.455 150.259C226.455 150.204 229.849 150.154 234.034 150.154C238.22 150.154 241.614 150.2 241.614 150.259Z" fill="#E0E0E0"/>
<path d="M235 153.475H232.436V158.886H235V153.475Z" fill="#E0E0E0"/>
<path d="M241.614 161.007C241.614 161.066 238.22 161.112 234.034 161.112C229.849 161.112 226.455 161.066 226.455 161.007C226.455 160.948 229.849 160.902 234.034 160.902C238.22 160.902 241.614 160.948 241.614 161.007Z" fill="#E0E0E0"/>
<path d="M235 164.271H232.436V169.683H235V164.271Z" fill="#E0E0E0"/>
<path d="M235 175.203H232.436V180.614H235V175.203Z" fill="#E0E0E0"/>
<path d="M241.614 171.804C241.614 171.859 238.22 171.904 234.034 171.904C229.849 171.904 226.455 171.859 226.455 171.804C226.455 171.749 229.849 171.699 234.034 171.699C238.22 171.699 241.614 171.745 241.614 171.804Z" fill="#E0E0E0"/>
<path d="M219.707 120.752H217.143V126.163H219.707V120.752Z" fill="#FAFAFA"/>
<path d="M226.32 128.286C226.32 128.346 222.927 128.391 218.741 128.391C214.555 128.391 211.162 128.346 211.162 128.286C211.162 128.227 214.555 128.182 218.741 128.182C222.927 128.182 226.32 128.245 226.32 128.286Z" fill="#E0E0E0"/>
<path d="M219.707 131.664H217.143V137.075H219.707V131.664Z" fill="#FAFAFA"/>
<path d="M226.32 139.177C226.32 139.232 222.927 139.277 218.741 139.277C214.555 139.277 211.162 139.232 211.162 139.177C211.162 139.122 214.555 139.072 218.741 139.072C222.927 139.072 226.32 139.136 226.32 139.177Z" fill="#E0E0E0"/>
<path d="M219.707 142.568H217.143V147.98H219.707V142.568Z" fill="#FAFAFA"/>
<path d="M226.32 150.11C226.32 150.169 222.927 150.215 218.741 150.215C214.555 150.215 211.162 150.169 211.162 150.11C211.162 150.051 214.555 150.01 218.741 150.01C222.927 150.01 226.32 150.046 226.32 150.11Z" fill="#E0E0E0"/>
<path d="M219.707 153.475H217.143V158.886H219.707V153.475Z" fill="#FAFAFA"/>
<path d="M226.32 161.007C226.32 161.066 222.927 161.112 218.741 161.112C214.555 161.112 211.162 161.066 211.162 161.007C211.162 160.948 214.555 160.902 218.741 160.902C222.927 160.902 226.32 160.948 226.32 161.007Z" fill="#E0E0E0"/>
<path d="M219.707 164.381H217.143V169.792H219.707V164.381Z" fill="#FAFAFA"/>
<path d="M226.32 171.919C226.32 171.974 222.927 172.019 218.741 172.019C214.555 172.019 211.162 171.974 211.162 171.919C211.162 171.865 214.555 171.814 218.741 171.814C222.927 171.814 226.32 171.86 226.32 171.919Z" fill="#E0E0E0"/>
<path d="M219.707 175.289H217.143V180.7H219.707V175.289Z" fill="#FAFAFA"/>
<path d="M89.4344 139.871H56.7943V201.817H89.4344V139.871Z" fill="#E0E0E0"/>
<path d="M89.4384 139.871H74.1341V201.817H89.4384V139.871Z" fill="#EBEBEB"/>
<path d="M66.5686 145.697H63.6353V152.826H66.5686V145.697Z" fill="#F5F5F5"/>
<path d="M66.5686 173.602H63.6353V180.73H66.5686V173.602Z" fill="#F5F5F5"/>
<path d="M74.1324 155.625C74.1324 155.689 70.2517 155.734 65.4782 155.734C60.7047 155.734 56.824 155.689 56.824 155.625C56.824 155.561 60.7047 155.516 65.4782 155.516C70.2517 155.516 74.1324 155.575 74.1324 155.625Z" fill="#F5F5F5"/>
<path d="M66.5686 159.756H63.6353V166.884H66.5686V159.756Z" fill="#F5F5F5"/>
<path d="M74.1324 169.694C74.1324 169.753 70.2517 169.803 65.4782 169.803C60.7047 169.803 56.824 169.753 56.824 169.694C56.824 169.635 60.7047 169.58 65.4782 169.58C70.2517 169.58 74.1324 169.621 74.1324 169.694Z" fill="#F5F5F5"/>
<path d="M80.3199 145.697H77.3865V152.826H80.3199V145.697Z" fill="#E0E0E0"/>
<path d="M86.6863 145.697H83.753V152.826H86.6863V145.697Z" fill="#E0E0E0"/>
<path d="M80.3199 159.229H77.3865V166.357H80.3199V159.229Z" fill="#E0E0E0"/>
<path d="M86.6863 159.229H83.753V166.357H86.6863V159.229Z" fill="#E0E0E0"/>
<path d="M80.3199 172.756H77.3865V179.884H80.3199V172.756Z" fill="#E0E0E0"/>
<path d="M86.6863 172.756H83.753V179.884H86.6863V172.756Z" fill="#E0E0E0"/>
<path d="M91.8882 138.373H54.3426V139.926H91.8882V138.373Z" fill="#E0E0E0"/>
<path d="M89.6565 140.088C89.6565 140.148 82.3688 140.198 73.3638 140.198C64.3589 140.198 57.0711 140.148 57.0711 140.088C57.0711 140.029 64.3589 139.975 73.3638 139.975C82.3688 139.975 89.6565 140.006 89.6565 140.088Z" fill="#EBEBEB"/>
<path d="M57.1748 201.771H4.61181L4.37952 118.695H56.9471L57.1748 201.771Z" fill="#EBEBEB"/>
<path d="M56.9376 118.695H30.6561V201.771H56.9376V118.695Z" fill="#E0E0E0"/>
<path d="M28.9413 102.34H10.3802V118.696H28.9413V102.34Z" fill="#EBEBEB"/>
<path d="M28.9398 102.34H24.517V118.696H28.9398V102.34Z" fill="#E0E0E0"/>
<path d="M58.4844 117.736H0.00012207V118.688H58.4844V117.736Z" fill="#E0E0E0"/>
<path d="M19.1999 125.826H14.7498V135.209H19.1999V125.826Z" fill="white"/>
<path d="M30.6656 138.891C30.6656 138.991 24.7807 139.069 17.5248 139.069C10.2689 139.069 4.37952 138.991 4.37952 138.891C4.37952 138.791 10.2644 138.723 17.5248 138.723C24.7853 138.723 30.6656 138.791 30.6656 138.891Z" fill="#E0E0E0"/>
<path d="M45.7236 125.826H41.2735V135.209H45.7236V125.826Z" fill="#F5F5F5"/>
<path d="M57.165 138.892C57.165 138.993 51.2801 139.07 44.0242 139.07C36.7684 139.07 30.8835 138.993 30.8835 138.892C30.8835 138.792 36.7638 138.715 44.0242 138.715C51.2847 138.715 57.165 138.792 57.165 138.892Z" fill="#EBEBEB"/>
<path d="M45.7236 144.451H41.2735V153.834H45.7236V144.451Z" fill="#F5F5F5"/>
<path d="M57.165 157.522C57.165 157.618 51.2801 157.7 44.0242 157.7C36.7684 157.7 30.8835 157.618 30.8835 157.522C30.8835 157.426 36.7638 157.34 44.0242 157.34C51.2847 157.34 57.165 157.422 57.165 157.522Z" fill="#EBEBEB"/>
<path d="M45.7236 163.643H41.2735V173.026H45.7236V163.643Z" fill="#F5F5F5"/>
<path d="M57.165 176.71C57.165 176.805 51.2801 176.887 44.0242 176.887C36.7684 176.887 30.8835 176.805 30.8835 176.71C30.8835 176.614 36.7638 176.527 44.0242 176.527C51.2847 176.527 57.165 176.609 57.165 176.71Z" fill="#EBEBEB"/>
<path d="M45.7236 182.83H41.2735V192.213H45.7236V182.83Z" fill="#F5F5F5"/>
<path d="M57.165 195.896C57.165 195.997 51.2801 196.079 44.0242 196.079C36.7684 196.079 30.8835 195.997 30.8835 195.896C30.8835 195.796 36.7638 195.719 44.0242 195.719C51.2847 195.719 57.165 195.801 57.165 195.896Z" fill="#EBEBEB"/>
<path d="M19.1999 144.738H14.7498V154.121H19.1999V144.738Z" fill="white"/>
<path d="M30.6656 157.805C30.6656 157.905 24.7807 157.982 17.5248 157.982C10.2689 157.982 4.37952 157.905 4.37952 157.805C4.37952 157.704 10.2644 157.627 17.5248 157.627C24.7853 157.627 30.6656 157.704 30.6656 157.805Z" fill="#E0E0E0"/>
<path d="M19.1999 163.648H14.7498V173.031H19.1999V163.648Z" fill="white"/>
<path d="M30.6656 176.714C30.6656 176.814 24.7807 176.892 17.5248 176.892C10.2689 176.892 4.37952 176.814 4.37952 176.714C4.37952 176.614 10.2644 176.527 17.5248 176.527C24.7853 176.527 30.6656 176.614 30.6656 176.714Z" fill="#E0E0E0"/>
<path d="M19.1999 182.561H14.7498V191.944H19.1999V182.561Z" fill="white"/>
<path d="M30.6656 195.627C30.6656 195.727 24.7807 195.804 17.5248 195.804C10.2689 195.804 4.37952 195.727 4.37952 195.627C4.37952 195.527 10.2644 195.449 17.5248 195.449C24.7853 195.449 30.6656 195.527 30.6656 195.627Z" fill="#E0E0E0"/>
<path d="M306.346 73.1329C306.724 70.3727 302.83 68.1226 299.901 67.8675C298.507 67.7537 297.054 67.9677 295.733 67.5077C292.868 66.5102 291.725 62.8071 288.928 61.6274C286.838 60.7437 284.428 61.5317 282.406 62.5384C280.383 63.545 278.375 64.8386 276.111 64.9843C274.143 65.1118 272.012 64.3785 270.281 65.3441C268.996 66.0593 268.322 67.5396 267.138 68.4141C265.954 69.2886 264.473 69.4481 263.038 69.5255C261.604 69.6029 260.114 69.6166 258.807 70.2178C257.5 70.8191 256.416 72.1992 256.689 73.6112L306.346 73.1329Z" fill="#F5F5F5"/>
<path d="M318.004 171.414H275.716V201.813H318.004V171.414Z" fill="#EBEBEB"/>
<path d="M287.051 171.414C287.115 171.414 287.051 177.832 287.051 177.832H283.922V171.414H287.051Z" fill="#F5F5F5"/>
<path d="M296.854 201.812H317.998V171.413H296.854V201.812Z" fill="#E0E0E0"/>
<path d="M282.663 195.861H277.002V199.865H282.663V195.861Z" fill="white"/>
<path d="M286.533 195.861H283.704V199.865H286.533V195.861Z" fill="white"/>
<path d="M313.987 151.615H286.452V171.411H313.987V151.615Z" fill="#EBEBEB"/>
<path d="M293.831 151.615C293.868 151.615 293.831 155.797 293.831 155.797H291.791V151.615H293.831Z" fill="#F5F5F5"/>
<path d="M300.22 171.414H313.984V151.619H300.22V171.414Z" fill="#E0E0E0"/>
<path d="M290.968 167.537H287.283V170.147H290.968V167.537Z" fill="white"/>
<path d="M293.487 167.537H291.642V170.147H293.487V167.537Z" fill="white"/>
<path d="M32.542 20.0672C32.7561 18.5049 30.5515 17.2159 28.8981 17.0838C28.1056 17.02 27.2857 17.1384 26.5342 16.8788C24.9126 16.314 24.2567 14.2188 22.6808 13.5492C21.4965 13.0482 20.1346 13.4946 18.9868 14.073C17.839 14.6515 16.7093 15.3757 15.4249 15.4395C14.3089 15.5124 13.0974 15.0979 12.1226 15.6444C11.3938 16.0498 11.0112 16.8879 10.3417 17.3798C9.64364 17.8126 8.83527 18.0341 8.01414 18.0175C7.19787 17.9944 6.38468 18.1273 5.61829 18.4092C4.87584 18.7463 4.25183 19.5297 4.4158 20.3314L32.542 20.0672Z" fill="#EBEBEB"/>
<path d="M314.023 51.8016C314.232 50.2757 312.083 49.0231 310.466 48.891C309.696 48.8318 308.894 48.9457 308.161 48.6952C306.58 48.1395 305.947 46.0944 304.403 45.443C303.251 44.9602 301.921 45.3929 300.8 45.9532C299.68 46.5134 298.573 47.2285 297.325 47.3196C296.236 47.3925 295.047 46.9871 294.105 47.52C293.394 47.9163 293.025 48.7316 292.369 49.2144C291.685 49.6337 290.894 49.8472 290.092 49.8293C289.296 49.8084 288.503 49.9382 287.755 50.2119C287.031 50.5399 286.434 51.3051 286.584 52.084L314.023 51.8016Z" fill="#EBEBEB"/>
<path d="M80.9613 29.7505C81.353 26.8946 77.3174 24.5443 74.2975 24.2847C72.8491 24.1708 71.3505 24.3895 69.9841 23.9157C67.0189 22.8818 65.8346 19.0512 62.9423 17.8305C60.7787 16.9195 58.2918 17.7303 56.1965 18.787C54.1013 19.8437 52.0289 21.1692 49.6877 21.3195C47.6471 21.4516 45.438 20.6955 43.6525 21.6884C42.327 22.4309 41.6301 23.9659 40.4049 24.8768C39.1796 25.7878 37.6492 25.9472 36.1597 26.0292C34.6703 26.1112 33.1353 26.1249 31.7825 26.7443C30.4297 27.3638 29.3138 28.794 29.5917 30.2561L80.9613 29.7505Z" fill="#F5F5F5"/>
<path d="M317.851 201.81C317.851 201.878 248.299 201.928 162.531 201.928C76.7632 201.928 7.21057 201.878 7.21057 201.81C7.21057 201.742 76.7495 201.691 162.554 201.691C248.358 201.691 317.851 201.746 317.851 201.81Z" fill="#263238"/>
<path d="M131.456 182.74C131.939 182.853 132.395 183.063 132.796 183.356C133.197 183.65 133.534 184.021 133.788 184.448C134.293 185.305 134.593 186.267 134.667 187.259C134.867 189.167 134.211 191.281 133.41 193.016C131.542 191.991 130.677 189.686 130.28 188.488C129.688 186.594 129.766 182.809 131.456 182.74Z" fill="#0F913D"/>
<path d="M135.906 195.69C135.683 195.181 135.597 194.622 135.659 194.069C135.72 193.516 135.927 192.99 136.257 192.542C136.596 192.102 137.018 191.734 137.501 191.459C137.983 191.183 138.516 191.007 139.067 190.939C139.317 190.88 139.577 190.877 139.828 190.93C140.079 190.983 140.315 191.09 140.52 191.244C140.685 191.419 140.8 191.634 140.855 191.867C140.911 192.101 140.903 192.345 140.834 192.574C140.684 193.031 140.417 193.441 140.06 193.763C138.889 194.911 137.546 195.813 135.906 195.69Z" fill="#0F913D"/>
<path d="M135.148 201.833C135.124 201.704 135.113 201.573 135.116 201.442C135.116 201.159 135.093 200.799 135.079 200.367C135.002 199.176 135.117 197.981 135.421 196.828C135.746 195.67 136.375 194.621 137.243 193.789C137.507 193.543 137.799 193.329 138.113 193.152C138.198 193.101 138.286 193.057 138.377 193.02C138.436 192.992 138.468 192.979 138.473 192.983C138.056 193.237 137.665 193.531 137.307 193.862C136.48 194.701 135.878 195.735 135.558 196.869C135.258 198.009 135.132 199.189 135.184 200.367C135.184 200.822 135.184 201.187 135.184 201.442C135.185 201.573 135.173 201.704 135.148 201.833Z" fill="#263238"/>
<path d="M131.656 185.635C131.68 185.686 131.698 185.739 131.71 185.794C131.747 185.917 131.788 186.077 131.843 186.25C131.956 186.664 132.116 187.261 132.298 188.003C132.676 189.484 133.168 191.533 133.665 193.815C134.161 196.097 134.553 198.165 134.821 199.673C134.954 200.424 135.058 201.039 135.122 201.454C135.154 201.654 135.177 201.818 135.195 201.941C135.199 201.999 135.199 202.057 135.195 202.114C135.173 202.06 135.158 202.003 135.149 201.946C135.122 201.823 135.09 201.663 135.049 201.463C134.967 201.03 134.849 200.424 134.708 199.691C134.416 198.192 134.002 196.12 133.514 193.843C133.027 191.565 132.544 189.511 132.193 188.026C132.02 187.293 131.879 186.696 131.779 186.263L131.669 185.808C131.658 185.751 131.654 185.693 131.656 185.635Z" fill="#263238"/>
<path d="M133.437 197.415C132.999 196.329 132.308 195.362 131.423 194.596C130.537 193.829 129.482 193.284 128.344 193.006C127.766 192.869 127.046 192.856 126.7 193.343C126.354 193.83 126.609 194.505 126.937 195.001C127.644 196.024 128.638 196.814 129.794 197.273C130.95 197.732 132.216 197.838 133.432 197.579" fill="#0F913D"/>
<path d="M128.996 194.721C129.12 194.73 129.242 194.753 129.361 194.789C129.502 194.821 129.642 194.861 129.78 194.907C129.944 194.967 130.13 195.012 130.326 195.103C130.544 195.189 130.757 195.286 130.964 195.395C131.204 195.515 131.436 195.649 131.661 195.796C132.178 196.133 132.655 196.529 133.082 196.975C133.503 197.428 133.87 197.928 134.175 198.465C134.306 198.699 134.423 198.941 134.526 199.189C134.619 199.403 134.701 199.622 134.772 199.845C134.83 200.029 134.879 200.216 134.918 200.405C134.956 200.546 134.983 200.689 135 200.833C135.026 200.955 135.039 201.078 135.041 201.202C135.009 201.202 134.949 200.678 134.676 199.877C134.603 199.658 134.518 199.444 134.421 199.235C134.316 198.992 134.195 198.756 134.061 198.529C133.757 198.004 133.395 197.515 132.982 197.071C132.569 196.635 132.111 196.244 131.615 195.905C131.395 195.756 131.167 195.62 130.932 195.495C130.718 195.372 130.504 195.281 130.313 195.194C129.506 194.857 128.987 194.748 128.996 194.721Z" fill="#263238"/>
<path d="M276.499 197.025C276.672 196.36 276.234 195.69 275.742 195.203C275.25 194.715 274.663 194.292 274.408 193.645C273.993 192.607 274.549 191.263 273.843 190.397C273.429 189.887 272.686 189.714 272.317 189.172C272.147 188.871 272.034 188.54 271.985 188.197C271.591 186.473 270.742 184.886 269.525 183.602C269.445 185.139 269.779 186.669 270.491 188.033C270.825 188.557 271.069 189.133 271.215 189.737C271.37 190.725 270.819 191.741 271.06 192.711C271.338 193.818 272.581 194.561 272.641 195.699C272.691 196.665 271.848 197.521 271.912 198.478C271.964 198.887 272.11 199.278 272.34 199.621C272.672 200.259 273.176 200.79 273.795 201.155C274.415 201.52 275.124 201.703 275.843 201.684L277.879 201.757L276.499 197.025Z" fill="#0F913D"/>
<g opacity="0.3">
<path d="M276.495 197.025C276.668 196.36 276.231 195.69 275.739 195.203C275.247 194.715 274.659 194.292 274.404 193.645C273.99 192.607 274.546 191.263 273.84 190.397C273.425 189.887 272.683 189.714 272.314 189.172C272.143 188.871 272.03 188.54 271.981 188.197C271.588 186.473 270.738 184.886 269.522 183.602C269.442 185.139 269.775 186.669 270.487 188.033C270.821 188.557 271.066 189.133 271.211 189.737C271.366 190.725 270.815 191.741 271.057 192.711C271.334 193.818 272.578 194.561 272.637 195.699C272.687 196.665 271.845 197.521 271.908 198.478C271.96 198.887 272.107 199.278 272.337 199.621C272.668 200.259 273.173 200.79 273.792 201.155C274.411 201.52 275.121 201.703 275.839 201.684L277.875 201.757L276.495 197.025Z" fill="black"/>
</g>
<path d="M278.293 201.8C278.478 201.833 278.668 201.833 278.853 201.8C279.078 201.768 279.299 201.713 279.513 201.636C279.808 201.531 280.084 201.377 280.329 201.181C280.478 201.06 280.594 200.903 280.666 200.725C280.726 200.529 280.758 200.325 280.761 200.12C280.765 199.899 280.782 199.678 280.811 199.459C280.848 199.228 280.932 199.006 281.057 198.808C281.386 198.388 281.645 197.917 281.823 197.414C281.922 196.823 281.903 196.217 281.768 195.633C281.621 195.002 281.638 194.343 281.818 193.72C282.037 193.087 282.479 192.508 282.702 191.793C282.925 191.078 282.82 190.29 282.87 189.516C282.884 189.126 282.973 188.742 283.134 188.386C283.298 188.026 283.526 187.689 283.704 187.311C284.014 186.517 284.191 185.677 284.228 184.824C284.278 184.396 284.328 183.964 284.373 183.526C284.403 183.085 284.48 182.649 284.601 182.224C284.736 181.794 284.899 181.374 285.088 180.966C285.183 180.752 285.262 180.531 285.325 180.306C285.362 180.069 285.375 179.85 285.389 179.609C285.412 179.139 285.394 178.668 285.334 178.202C285.28 177.746 285.193 177.263 285.143 176.794V176.712V176.621L285.061 176.662C284.63 176.877 284.254 177.189 283.963 177.573C283.682 177.952 283.457 178.369 283.294 178.812C283.001 179.679 282.789 180.571 282.661 181.477C282.53 182.34 282.247 183.173 281.823 183.936C281.599 184.296 281.331 184.629 281.094 184.979C280.841 185.324 280.669 185.721 280.588 186.141C280.47 187.002 280.944 187.758 280.843 188.518C280.799 188.893 280.673 189.254 280.474 189.575C280.288 189.898 280.074 190.199 279.864 190.486C279.654 190.781 279.472 191.095 279.322 191.424C279.177 191.746 279.092 192.092 279.072 192.445C279.021 193.128 279.117 193.779 279.072 194.394C279.016 194.979 278.846 195.547 278.57 196.066C278.324 196.567 278.051 197.018 277.823 197.432C277.709 197.644 277.606 197.861 277.514 198.084C277.432 198.291 277.372 198.506 277.336 198.726C277.28 199.111 277.28 199.502 277.336 199.887C277.392 200.425 277.593 200.937 277.919 201.368C277.97 201.43 278.025 201.489 278.083 201.545C278.125 201.588 278.171 201.626 278.22 201.659L278.334 201.741C278.19 201.624 278.059 201.493 277.942 201.349C277.625 200.919 277.433 200.41 277.386 199.878C277.341 199.498 277.351 199.113 277.414 198.735C277.454 198.52 277.515 198.309 277.596 198.106C277.688 197.889 277.791 197.676 277.905 197.469C278.133 197.013 278.411 196.585 278.662 196.079C278.944 195.553 279.121 194.975 279.181 194.38C279.235 193.752 279.14 193.096 279.181 192.426C279.203 192.086 279.286 191.753 279.427 191.443C279.577 191.123 279.757 190.818 279.964 190.532C280.169 190.231 280.388 189.93 280.579 189.598C280.787 189.265 280.919 188.89 280.966 188.5C281.067 187.685 280.597 186.924 280.716 186.127C280.796 185.725 280.964 185.346 281.208 185.016C281.435 184.67 281.709 184.342 281.936 183.968C282.372 183.194 282.662 182.346 282.793 181.467C282.924 180.57 283.134 179.686 283.421 178.826C283.583 178.395 283.803 177.988 284.077 177.619C284.353 177.247 284.712 176.944 285.125 176.735L285.034 176.68V176.762C285.084 177.241 285.17 177.705 285.225 178.17C285.279 178.623 285.296 179.08 285.275 179.536C285.27 179.763 285.25 179.99 285.216 180.215C285.157 180.433 285.081 180.646 284.988 180.853C284.797 181.265 284.633 181.69 284.496 182.123C284.374 182.554 284.298 182.997 284.269 183.444C284.218 183.9 284.168 184.319 284.123 184.747C284.088 185.585 283.915 186.411 283.613 187.193C283.444 187.562 283.216 187.903 283.043 188.277C282.879 188.646 282.787 189.044 282.775 189.448C282.729 190.231 282.829 191.001 282.62 191.693C282.41 192.385 281.964 192.964 281.741 193.62C281.558 194.258 281.542 194.932 281.695 195.578C281.83 196.152 281.853 196.745 281.763 197.327C281.587 197.82 281.333 198.281 281.012 198.694C280.884 198.901 280.799 199.132 280.761 199.373C280.733 199.593 280.718 199.815 280.716 200.038C280.716 200.238 280.687 200.438 280.629 200.63C280.561 200.796 280.453 200.943 280.315 201.058C280.076 201.253 279.807 201.406 279.518 201.513C279.307 201.592 279.089 201.65 278.867 201.686C278.73 201.714 278.591 201.728 278.452 201.727L278.293 201.8Z" fill="#263238"/>
<path d="M284.7 177.838C284.699 177.859 284.699 177.88 284.7 177.902L284.655 178.084C284.614 178.243 284.568 178.485 284.491 178.79C284.413 179.095 284.226 179.428 284.067 179.851C283.881 180.322 283.72 180.802 283.584 181.29C283.429 181.837 283.293 182.438 283.129 183.081C283.007 183.771 282.787 184.442 282.477 185.071C282.313 185.399 282.122 185.736 281.976 186.1C281.829 186.475 281.729 186.867 281.68 187.266C281.573 188.094 281.421 188.915 281.225 189.726C280.819 191.393 280.428 192.983 280.077 194.427C279.726 195.871 279.385 197.16 279.111 198.262C278.838 199.364 278.624 200.225 278.474 200.849C278.401 201.145 278.346 201.382 278.305 201.55L278.264 201.737C278.262 201.758 278.262 201.78 278.264 201.801C278.264 201.801 278.264 201.778 278.287 201.737L278.341 201.56C278.387 201.386 278.451 201.154 278.533 200.858C278.692 200.239 278.925 199.364 279.211 198.285C279.498 197.205 279.826 195.893 280.2 194.459C280.573 193.024 280.951 191.425 281.361 189.758C281.556 188.942 281.708 188.116 281.817 187.285C281.865 186.895 281.96 186.513 282.099 186.146C282.245 185.791 282.427 185.458 282.596 185.121C282.904 184.483 283.122 183.806 283.243 183.108C283.384 182.461 283.516 181.86 283.662 181.318C283.807 180.776 283.971 180.293 284.117 179.874C284.263 179.455 284.445 179.113 284.518 178.799C284.591 178.485 284.627 178.252 284.659 178.088L284.7 177.893C284.7 177.861 284.7 177.838 284.7 177.838Z" fill="#263238"/>
<path d="M278.646 201.806C279.976 201.018 280.354 198.618 279.803 197.178C279.252 195.739 278.277 194.418 278.127 192.878C278.013 191.694 278.4 190.483 278.127 189.326C277.758 187.768 276.237 186.561 276.251 184.958C276.251 184.047 276.774 183.209 276.733 182.311C276.683 181.209 275.822 180.334 275.312 179.364C274.511 177.875 274.46 176.121 274.183 174.454C273.905 172.787 273.272 171.002 271.796 170.182C271.582 171.598 271.208 172.568 271.34 174.481C271.386 175.174 272.183 176.49 272.292 177.998C272.356 178.909 272.402 179.82 272.456 180.703C272.468 181.585 272.612 182.461 272.885 183.3C273.126 183.928 273.513 184.502 273.691 185.149C274.028 186.374 273.586 187.7 273.859 188.939C274.087 189.986 274.816 190.888 274.962 191.954C275.171 193.448 274.205 195.001 274.697 196.427C274.943 197.137 275.526 197.707 275.69 198.435C275.822 199.005 275.69 199.601 275.795 200.171C275.982 201.082 277.735 201.801 278.669 201.747" fill="#0F913D"/>
<path d="M272.163 171.59C272.163 171.59 272.163 171.617 272.163 171.667L272.195 171.9C272.222 172.105 272.259 172.405 272.327 172.811C272.395 173.216 272.6 173.64 272.782 174.177C272.965 174.714 273.119 175.316 273.27 175.999C273.42 176.682 273.548 177.434 273.68 178.244C273.785 179.12 274.015 179.976 274.363 180.786C274.545 181.214 274.755 181.638 274.914 182.089C275.066 182.555 275.159 183.039 275.192 183.528C275.267 184.565 275.398 185.598 275.584 186.621C275.989 188.716 276.376 190.72 276.731 192.542C277.087 194.364 277.437 195.981 277.72 197.357C278.002 198.732 278.235 199.825 278.398 200.6C278.476 200.973 278.54 201.269 278.585 201.479L278.64 201.707L278.663 201.784C278.665 201.758 278.665 201.732 278.663 201.707L278.622 201.474C278.581 201.265 278.526 200.964 278.458 200.586C278.303 199.812 278.084 198.705 277.82 197.338C277.556 195.972 277.196 194.291 276.836 192.469C276.476 190.647 276.103 188.657 275.697 186.548C275.514 185.528 275.383 184.498 275.306 183.464C275.271 182.965 275.175 182.473 275.019 181.998C274.855 181.542 274.645 181.109 274.459 180.69C274.115 179.888 273.883 179.042 273.771 178.176C273.634 177.365 273.502 176.609 273.343 175.926C273.205 175.311 273.036 174.703 272.837 174.104C272.669 173.576 272.459 173.138 272.382 172.738C272.304 172.337 272.263 172.05 272.222 171.849C272.222 171.754 272.19 171.681 272.181 171.622C272.176 171.611 272.17 171.6 272.163 171.59Z" fill="#263238"/>
<path d="M239.86 141.695H37.5925V161.91H239.86V141.695Z" fill="#0F913D"/>
<g opacity="0.4">
<path d="M239.856 141.695H37.5891V161.91H239.856V141.695Z" fill="black"/>
</g>
<path d="M196.037 164.459H136.332V183.179H196.037V164.459Z" fill="#455A64"/>
<path d="M94.6042 155.992V180.739H114.992L123.163 168.896H272.02V155.992H94.6042Z" fill="#263238"/>
<path d="M93.3353 77.6331C93.3129 77.2352 93.1352 76.8619 92.8405 76.5936C92.5458 76.3253 92.1576 76.1834 91.7593 76.1983C83.7018 76.5308 45.4501 78.2845 37.5839 82.065C31.5624 84.9619 24.967 95.7751 20.3165 103.058C16.9823 108.278 9.61711 119.866 8.12767 125.792C6.86598 130.802 6.10532 141.223 6.19186 146.393L8.2962 173.75H42.9632L46.434 164.713C47.5415 161.834 49.4954 159.359 52.0381 157.613C54.5807 155.867 57.5927 154.933 60.677 154.934H95.1253V109.535L93.3353 77.6331Z" fill="#0F913D"/>
<path d="M33.4726 85.0918C28.6991 89.6466 23.9074 97.3899 20.3136 103.056C17.2255 107.889 10.6847 118.178 8.54847 124.382C8.50747 124.496 8.47559 124.605 8.43915 124.719C9.49587 124.428 11.122 123.831 11.6275 122.829C12.3882 121.312 13.3629 116.115 25.4151 96.4972C29.0772 90.5166 32.6482 87.0185 33.4726 85.0918Z" fill="#455A64"/>
<path d="M75.5346 83.0634C66.6708 83.569 47.4539 84.8853 41.314 86.9715C33.3156 89.7044 24.338 110.88 23.9144 111.809L17.8656 127.296C17.8317 127.397 17.8223 127.505 17.8382 127.61C17.8542 127.716 17.8949 127.816 17.9572 127.903C18.0195 127.99 18.1014 128.06 18.1964 128.109C18.2913 128.158 18.3965 128.184 18.5033 128.184H34.1401C34.7323 128.184 35.3199 128.079 35.8755 127.874L77.0012 112.542C77.9093 112.204 78.6921 111.595 79.2448 110.799C79.7976 110.003 80.0939 109.057 80.094 108.088V87.3768C80.0943 86.7893 79.9746 86.2078 79.7424 85.6681C79.5102 85.1284 79.1703 84.6417 78.7435 84.2379C78.3167 83.8341 77.8119 83.5217 77.2601 83.3197C76.7084 83.1178 76.1212 83.0305 75.5346 83.0634Z" fill="#263238"/>
<path d="M19.6003 126.664C19.6003 126.664 25.3941 113.669 27.3435 109.411C30.286 102.979 37.1592 89.8247 41.8006 88.4081C46.0685 87.1282 58.3393 85.5704 75.6113 84.582H75.7753C76.517 84.5844 77.2277 84.8805 77.7518 85.4054C78.2759 85.9304 78.5707 86.6415 78.5719 87.3833V108.563C78.5703 109.085 78.4099 109.594 78.1122 110.023C77.8145 110.452 77.3934 110.78 76.9049 110.964L46.5195 114.712C45.3014 114.863 44.1307 115.276 43.0885 115.924C42.0464 116.572 41.1577 117.44 40.4843 118.466L35.2189 126.496C34.9098 126.61 34.5828 126.669 34.2532 126.669L19.6003 126.664Z" fill="#455A64"/>
<path d="M45.4119 114.946L35.0815 126.451L40.7978 88.2497L42.228 87.7578L39.4131 116.057C39.3999 116.199 39.4233 116.342 39.4812 116.473C39.5391 116.603 39.6295 116.717 39.7438 116.802C39.8581 116.888 39.9924 116.942 40.1339 116.961C40.2754 116.98 40.4193 116.962 40.5519 116.909L45.4119 114.946Z" fill="#263238"/>
<path d="M5.51788 149.048C5.48145 148.551 5.64997 148.137 5.90505 148.137L11.4437 147.627C11.8992 147.581 12.3228 148.442 12.3775 149.449L12.628 153.698C12.669 154.382 12.464 154.96 12.1725 155.01L6.52451 155.985C6.26943 156.03 6.02347 155.652 5.98703 155.151L5.51788 149.048Z" fill="#EBEBEB"/>
<path d="M45.4225 168.904H5.51294V184.905H45.4225V168.904Z" fill="#263238"/>
<path d="M72.0621 201.614C84.1129 201.151 93.5067 191.007 93.0438 178.956C92.5808 166.905 82.4364 157.511 70.3857 157.974C58.3349 158.437 48.9411 168.582 49.404 180.632C49.867 192.683 60.0114 202.077 72.0621 201.614Z" fill="#263238"/>
<path d="M49.408 179.42C49.4104 179.44 49.4104 179.459 49.408 179.479C49.3316 185.265 51.5551 190.845 55.5901 194.993C59.6251 199.141 65.1416 201.518 70.9277 201.601C76.7139 201.684 82.2965 199.467 86.4492 195.437C90.6019 191.407 92.9851 185.894 93.0753 180.108C93.0753 180.108 93.0753 180.071 93.0753 180.053L49.408 179.42Z" fill="#263238"/>
<path d="M55.9027 179.57C55.858 182.603 56.7135 185.58 58.361 188.126C60.0086 190.672 62.3742 192.672 65.1586 193.874C67.943 195.075 71.0212 195.424 74.0038 194.876C76.9864 194.328 79.7395 192.907 81.9148 190.794C84.0901 188.681 85.59 185.971 86.2247 183.005C86.8595 180.04 86.6005 176.953 85.4807 174.135C84.3608 171.317 82.4303 168.894 79.9334 167.173C77.4365 165.452 74.4852 164.51 71.453 164.466C67.3882 164.408 63.4667 165.966 60.5506 168.799C57.6345 171.631 55.9627 175.506 55.9027 179.57Z" fill="#FAFAFA"/>
<path d="M71.4612 164.466C67.3964 164.408 63.4749 165.966 60.5588 168.799C57.6427 171.631 55.9709 175.506 55.9109 179.57L86.5697 180.026C86.6293 175.959 85.071 172.035 82.2377 169.117C79.4044 166.199 75.528 164.526 71.4612 164.466Z" fill="#E0E0E0"/>
<path d="M61.8929 179.657C61.8661 181.504 62.3875 183.317 63.3912 184.867C64.3949 186.417 65.8358 187.635 67.5317 188.367C69.2276 189.098 71.1023 189.31 72.9187 188.976C74.7351 188.642 76.4116 187.776 77.7362 186.489C79.0608 185.202 79.974 183.552 80.3603 181.745C80.7466 179.939 80.5886 178.059 79.9063 176.343C79.2241 174.627 78.0482 173.152 76.5273 172.104C75.0065 171.056 73.2091 170.482 71.3624 170.456C68.8867 170.421 66.4983 171.37 64.7225 173.096C62.9467 174.821 61.9289 177.181 61.8929 179.657Z" fill="#263238"/>
<path d="M28.8912 96.9375H27.1103C25.1029 96.9375 23.4755 98.5648 23.4755 100.572V115.025C23.4755 117.032 25.1029 118.66 27.1103 118.66H28.8912C30.8987 118.66 32.526 117.032 32.526 115.025V100.572C32.526 98.5648 30.8987 96.9375 28.8912 96.9375Z" fill="#263238"/>
<path d="M19.7295 132.086H19.274V109.116C19.2753 108.02 19.7109 106.97 20.4854 106.196C21.2599 105.421 22.31 104.986 23.4053 104.984H24.4985V105.44H23.4053C22.4308 105.441 21.4965 105.829 20.8075 106.518C20.1184 107.207 19.7307 108.141 19.7295 109.116V132.086Z" fill="#263238"/>
<path d="M22.8271 132.113L21.5609 110.636C21.5431 110.269 21.5996 109.902 21.7269 109.557C21.8543 109.213 22.0499 108.897 22.3021 108.63C22.5542 108.362 22.8578 108.148 23.1945 108.001C23.5313 107.853 23.8943 107.775 24.2619 107.771V108.227C23.9554 108.227 23.652 108.29 23.3706 108.411C23.0892 108.533 22.8355 108.711 22.6253 108.934C22.415 109.157 22.2525 109.42 22.1478 109.709C22.0431 109.997 21.9984 110.303 22.0164 110.609L23.2826 132.09L22.8271 132.113Z" fill="#263238"/>
<path d="M24.2573 130.02H18.1174V137.13H24.2573V130.02Z" fill="#263238"/>
<path d="M21.9975 116.521H19.5014V116.977H21.9975V116.521Z" fill="#263238"/>
<path d="M42.8373 83.6798L43.3793 83.607L44.9781 83.4202L51.1727 82.7051L74.2658 80.0769C75.4956 79.9449 76.7482 79.7809 78.0463 79.667C78.7095 79.6165 79.3764 79.6594 80.0277 79.7945C80.6898 79.9494 81.3285 80.1914 81.927 80.5142C83.1617 81.2012 84.1626 82.2418 84.8011 83.5022C85.1315 84.1465 85.3546 84.8403 85.4616 85.5564C85.5189 85.9181 85.5509 86.2834 85.5573 86.6496V87.7473C85.5573 93.6276 85.5573 99.9407 85.5573 106.632C85.5573 120.014 85.5573 134.899 85.5573 150.814V150.932H61.5668C60.1973 150.887 58.8264 150.953 57.4675 151.128C54.6642 151.531 52.0194 152.676 49.8062 154.443C47.593 156.21 45.8917 158.536 44.8779 161.181C44.6811 161.666 44.5153 162.164 44.3814 162.67C44.2333 163.171 44.1162 163.681 44.0307 164.196L43.9122 164.97L43.8576 165.357L43.8348 165.745L43.7984 166.523V166.915V166.961C43.8986 166.861 43.6572 167.116 43.6754 167.088H13.2535V166.961C13.2535 160.097 13.2535 153.478 13.2535 147.156C13.2535 143.995 13.2535 140.909 13.2535 137.896V133.442C13.2535 132.708 13.2535 131.984 13.2535 131.26C13.2684 130.539 13.3201 129.82 13.4084 129.105C13.7558 126.35 14.6311 123.686 15.9865 121.262C17.2406 118.903 18.4552 116.625 19.6303 114.43L26.0891 102.327L31.3317 92.5026C31.7144 91.789 32.0818 91.0982 32.434 90.4301C32.6162 90.1022 32.7756 89.7697 32.9669 89.4599C33.1556 89.1573 33.3608 88.8653 33.5818 88.5854C34.3717 87.6004 35.3017 86.7364 36.3421 86.021C37.775 85.0483 39.3769 84.3516 41.0655 83.9668C41.6452 83.8278 42.2343 83.7318 42.8282 83.6798L42.3727 83.7482C42.0766 83.7937 41.6394 83.8711 41.0655 84.0032C39.3868 84.4001 37.7962 85.1043 36.374 86.0802C35.3424 86.7966 34.4216 87.6606 33.6411 88.6446C33.4205 88.9196 33.2182 89.2087 33.0353 89.51C32.8485 89.8107 32.6891 90.1477 32.5069 90.4802L31.4092 92.5572L26.2121 102.391C24.2626 106.062 22.1127 110.112 19.7898 114.503L16.1459 121.335C14.803 123.741 13.9384 126.384 13.5997 129.119C13.5129 129.828 13.4627 130.541 13.4494 131.255C13.4494 131.97 13.4494 132.704 13.4494 133.432V137.887C13.4494 140.896 13.4494 143.983 13.4494 147.147C13.4494 153.469 13.4494 160.087 13.4494 166.952L13.3355 166.842H43.639C43.6708 166.82 43.4203 167.061 43.5251 166.952V166.902V166.51L43.5661 165.717V165.326L43.6253 164.934L43.7437 164.146C43.8303 163.623 43.9489 163.106 44.099 162.597C44.2353 162.083 44.4041 161.578 44.6046 161.085C45.6346 158.402 47.3615 156.042 49.6073 154.249C51.853 152.455 54.5365 151.293 57.3809 150.882C58.7401 150.709 60.1108 150.644 61.4803 150.686H85.3614L85.243 150.8C85.243 134.904 85.243 120.018 85.243 106.618C85.243 99.927 85.243 93.614 85.243 87.7336C85.2726 87.0112 85.2422 86.2875 85.1519 85.5701C85.0482 84.8701 84.8313 84.1917 84.5096 83.5614C83.8913 82.3294 82.9148 81.3132 81.7084 80.6463C81.127 80.328 80.5048 80.0904 79.8591 79.9403C79.2232 79.8061 78.5716 79.7616 77.9233 79.8082C76.6343 79.9175 75.3726 80.0815 74.1474 80.2136L51.0588 82.7689L44.8597 83.4475L43.2609 83.6161L42.8373 83.6798Z" fill="#263238"/>
<path d="M78.2828 134.022C78.2828 134.022 78.4103 134.022 78.6381 133.967C78.973 133.908 79.2922 133.781 79.5764 133.594C80.0244 133.3 80.36 132.863 80.5283 132.355C80.6313 132.038 80.673 131.704 80.6513 131.371C80.6415 131.002 80.5464 130.64 80.3735 130.314C80.1753 129.941 79.8805 129.628 79.52 129.408C79.1594 129.187 78.7463 129.068 78.3238 129.062H75.3176H68.4307C67.8572 129.062 67.3041 129.274 66.8766 129.656C66.4491 130.038 66.1771 130.564 66.1122 131.134C66.0407 131.675 66.1411 132.225 66.3992 132.706C66.6552 133.16 67.0561 133.516 67.5379 133.717C68.0143 133.882 68.5205 133.944 69.0228 133.899H70.4803H73.0994L76.8936 133.935H77.9275C78.0466 133.933 78.1656 133.942 78.2828 133.963C78.1649 133.977 78.0463 133.985 77.9275 133.985H76.8936L73.0994 134.022H70.4803H69.0228C68.7677 134.022 68.5217 134.022 68.253 134.022C67.9797 134.002 67.711 133.94 67.4559 133.84C66.9291 133.621 66.49 133.233 66.2079 132.737C65.925 132.216 65.8135 131.618 65.889 131.029C65.9595 130.404 66.2574 129.826 66.726 129.407C67.1947 128.987 67.8014 128.754 68.4307 128.752H75.3176H78.3238C78.9808 128.765 79.607 129.033 80.0695 129.5C80.5321 129.967 80.7947 130.595 80.8016 131.253C80.8161 131.601 80.7651 131.948 80.6513 132.277C80.464 132.806 80.1026 133.256 79.6265 133.553C79.3294 133.738 78.9949 133.854 78.6472 133.894C78.5314 133.952 78.409 133.994 78.2828 134.022Z" fill="#263238"/>
<path d="M77.454 128.301C76.1561 128.415 74.8527 128.453 73.5505 128.414C72.2467 128.453 70.9417 128.415 69.6424 128.301C70.9416 128.183 72.2466 128.144 73.5505 128.182C74.8528 128.144 76.1563 128.183 77.454 128.301Z" fill="white"/>
<path d="M47.2371 185.034L43.5932 184.77C44.5452 171.721 45.9389 163.914 47.8565 160.903C51.5369 155.118 55.1944 154.07 59.2437 153.383C63.0151 152.74 66.8184 152.891 70.4987 153.041L71.4097 153.078C79.0072 153.374 94.9218 153.109 95.0949 153.109L95.1541 156.753C94.9947 156.753 78.9798 157.022 71.2821 156.721L70.3712 156.685C66.8776 156.548 63.2702 156.398 59.8722 156.981C56.2511 157.596 53.8416 158.302 50.9356 162.866C50.0565 164.228 48.4077 168.96 47.2371 185.034Z" fill="#263238"/>
<path d="M276.488 36.3828H97.0361V155.866H276.488V36.3828Z" fill="#0F913D"/>
<path d="M274.335 153.501C274.335 152.731 274.299 108.909 274.24 39.0826L274.335 39.1737L98.9735 39.201L99.092 39.0826C99.092 79.7529 99.092 118.465 99.092 153.501L98.9826 153.391L274.344 153.501L98.9826 153.61H98.8551V153.501C98.8551 118.465 98.8551 79.7529 98.8551 39.0826V38.9688H98.9872L274.349 38.9915H274.445V39.0872C274.372 108.909 274.335 152.735 274.335 153.501Z" fill="#263238"/>
<g opacity="0.5">
<path d="M122.486 92.8535L124.18 127.029L257.268 99.3442L254.913 63.7207L122.486 92.8535Z" fill="black"/>
</g>
<path d="M132.566 116.519L133.477 113.33C135.258 114.097 137.235 114.285 139.129 113.868C141.165 113.412 142.318 112.447 142.049 111.276C141.498 108.712 133.85 111.791 132.744 106.68C132.038 103.383 134.465 100.631 138.911 99.6795C141.065 99.224 143.16 99.2695 144.75 99.8616L143.953 102.991C142.477 102.436 140.87 102.33 139.334 102.686C137.18 103.141 136.096 104.243 136.342 105.391C136.888 108.029 144.563 104.936 145.625 109.869C146.335 113.194 143.862 115.954 139.394 116.91C136.788 117.475 134.146 117.225 132.566 116.519Z" fill="white"/>
<path d="M162.848 94.8164L163.081 111.542L159.368 112.339L159.273 105.529L152.008 107.087L152.108 113.919L148.368 114.698L148.136 97.9684L151.871 97.1667L151.962 103.739L159.227 102.182L159.136 95.6089L162.848 94.8164Z" fill="white"/>
<path d="M166.642 94.0009L170.368 93.1992L170.601 109.925L166.866 110.726L166.642 94.0009Z" fill="white"/>
<path d="M188.003 94.6551C188.878 98.7317 186.423 101.943 181.626 102.949L178.051 103.715L178.119 108.32L174.384 109.121L174.165 92.3777L180.652 91.0112C184.66 90.1321 187.329 91.5031 188.003 94.6551ZM184.314 95.7801C183.981 94.2224 182.724 93.7259 180.843 94.1313L177.932 94.7553L178.005 100.563L181.144 99.8886C183.585 99.3511 184.769 97.8981 184.314 95.7665V95.7801Z" fill="white"/>
<path d="M204.527 91.0904C205.401 95.1897 202.946 98.3781 198.15 99.3848L194.579 100.155L194.657 104.759L190.922 105.561L190.685 88.8357L197.171 87.4419C201.193 86.5811 203.862 87.9521 204.527 91.0904ZM200.838 92.22C200.505 90.6576 199.243 90.1612 197.367 90.5666L194.456 91.1906L194.529 97.0026L197.667 96.3284C200.127 95.8001 201.302 94.3471 200.847 92.22H200.838Z" fill="white"/>
<path d="M207.263 85.2821L210.998 84.4805L211.235 101.21L207.5 102.012L207.263 85.2821Z" fill="white"/>
<path d="M229.476 80.5332L229.713 97.2586L226.661 97.9145L218.531 89.1419L218.667 99.618L215.023 100.406L214.786 83.676L217.856 83.0156L225.996 91.7928L225.832 81.3166L229.476 80.5332Z" fill="white"/>
<path d="M244.243 85.467L247.637 84.7382L247.723 91.6206C246.219 93.2984 244.212 94.4441 242.002 94.8864C237.142 95.9295 233.467 93.7705 232.578 89.6256C231.403 84.1598 234.523 79.1494 240.595 77.8376C243.665 77.1772 246.12 77.6782 247.883 79.2041L245.687 81.937C244.321 80.8848 242.9 80.6662 241.132 81.0488C237.375 81.855 235.548 85.0753 236.304 88.6053C236.819 91.0103 238.773 92.2947 241.82 91.6388C242.74 91.4509 243.607 91.0603 244.357 90.4956L244.243 85.467Z" fill="white"/>
<path d="M233.55 68.8597L260.41 62.5694L259.348 59.709L233.55 68.8597Z" fill="#FAFAFA"/>
<path d="M113.288 88.9601L131.963 84.5875L131.225 82.6016L113.288 88.9601Z" fill="#FAFAFA"/>
<path d="M177.22 133.957L204.08 127.663L203.023 124.807L177.22 133.957Z" fill="#FAFAFA"/>
<path d="M148.812 95.7095C148.812 95.7732 142.663 97.0759 135.047 98.6064C127.431 100.137 121.25 101.339 121.237 101.275C121.223 101.212 127.386 99.909 135.001 98.3741C142.617 96.8391 148.798 95.6457 148.812 95.7095Z" fill="#FAFAFA"/>
<path d="M71.5348 92.9648C71.5348 92.9648 71.4801 93.0195 71.3662 93.1061L70.8652 93.4659C70.4097 93.7802 69.7857 94.2174 68.9932 94.7595C67.4035 95.8344 65.1899 97.3011 62.7211 98.8816C60.2524 100.462 57.9978 101.86 56.3443 102.858C55.5245 103.354 54.8549 103.769 54.3903 104.024L53.8528 104.325C53.7916 104.364 53.7259 104.396 53.657 104.42C53.657 104.42 53.7116 104.366 53.8255 104.288L54.3402 103.942L56.2578 102.717L62.5845 98.6812L68.8884 94.6183L70.806 93.393L71.3344 93.0651C71.3974 93.0245 71.4646 92.9909 71.5348 92.9648Z" fill="#FAFAFA"/>
<path d="M63.7348 95.0215C63.7348 95.0215 63.6802 95.0761 63.5663 95.1627L63.0653 95.5225C62.6098 95.8323 61.9858 96.2741 61.1887 96.8115C59.599 97.891 57.3854 99.3532 54.9212 100.911C52.457 102.469 50.1978 103.894 48.5444 104.892C47.7245 105.388 47.055 105.803 46.5904 106.053L46.0529 106.359C45.9927 106.399 45.9267 106.43 45.8571 106.45C45.9081 106.399 45.9646 106.355 46.0256 106.318L46.5403 105.976L48.4533 104.746L54.7846 100.715L61.0885 96.6521L63.0061 95.4223L63.5299 95.0989C63.5945 95.0642 63.6634 95.0382 63.7348 95.0215Z" fill="#FAFAFA"/>
<path d="M25.3973 108.28C25.3275 108.156 25.2797 108.02 25.2561 107.879C25.1832 107.62 25.083 107.237 24.9691 106.764C24.6697 105.526 24.5168 104.257 24.5137 102.983C24.5072 101.696 24.8037 100.426 25.3791 99.2754C25.5591 98.931 25.7759 98.6072 26.0259 98.3097C26.1101 98.1961 26.2116 98.0962 26.3265 98.0137C26.0357 98.4455 25.7681 98.8925 25.5248 99.3528C25.0058 100.497 24.7401 101.74 24.746 102.997C24.7598 104.255 24.8955 105.509 25.1513 106.741C25.2652 107.248 25.3474 107.763 25.3973 108.28Z" fill="#FAFAFA"/>
<path d="M6.85 140.575C6.83353 140.412 6.83353 140.249 6.85 140.087C6.85 139.759 6.85 139.285 6.87733 138.721C6.91377 137.55 7.00031 135.933 7.14151 134.166C7.28271 132.399 7.45124 130.777 7.597 129.611C7.66987 129.028 7.73364 128.559 7.78374 128.245C7.80089 128.076 7.83601 127.909 7.88851 127.748C7.91139 127.917 7.91139 128.089 7.88851 128.258L7.77008 129.625C7.66987 130.845 7.53323 132.426 7.38292 134.179C7.23261 135.933 7.14151 137.509 7.05497 138.734C7.01398 139.281 6.97754 139.741 6.95021 140.101C6.93634 140.262 6.90269 140.421 6.85 140.575Z" fill="#FAFAFA"/>
<path d="M56.762 149.416C56.762 149.466 55.8829 149.589 54.521 150.031C53.7238 150.29 52.946 150.605 52.1934 150.974C50.3494 151.89 48.6812 153.123 47.2651 154.618C46.6868 155.224 46.1526 155.871 45.6663 156.553C44.8419 157.724 44.4548 158.53 44.4138 158.507C44.4815 158.309 44.5668 158.117 44.6688 157.934C44.7707 157.711 44.8864 157.495 45.015 157.287C45.1608 157.041 45.3202 156.754 45.5297 156.458C46.0013 155.753 46.5283 155.088 47.1057 154.467C47.8213 153.709 48.6 153.013 49.4332 152.386C50.2741 151.775 51.1673 151.24 52.1023 150.787C52.8661 150.42 53.6582 150.116 54.4709 149.876C54.8125 149.762 55.1359 149.698 55.4137 149.63C55.6526 149.572 55.8944 149.527 56.1379 149.493C56.343 149.448 56.552 149.422 56.762 149.416Z" fill="#FAFAFA"/>
<path d="M101.627 121.918C101.621 121.853 101.621 121.788 101.627 121.723C101.627 121.583 101.627 121.392 101.627 121.149C101.627 120.629 101.627 119.887 101.595 118.94C101.568 117.008 101.531 114.234 101.481 110.814C101.358 103.94 101.19 94.4708 101.003 84.0083C100.816 73.5458 100.657 64.0581 100.593 57.1985C100.561 53.7687 100.552 50.9902 100.557 49.0726C100.557 48.1207 100.557 47.3782 100.557 46.8635V46.2896C100.557 46.1575 100.557 46.0938 100.557 46.0938C100.563 46.1589 100.563 46.2245 100.557 46.2896C100.557 46.4263 100.557 46.6176 100.557 46.8635C100.557 47.3782 100.557 48.1207 100.588 49.0726C100.616 51.0039 100.652 53.7732 100.702 57.1939C100.825 64.0672 100.994 73.5367 101.181 84.0038C101.367 94.4708 101.531 103.949 101.591 110.809C101.622 114.243 101.636 117.017 101.632 118.935C101.632 119.887 101.632 120.629 101.632 121.149C101.632 121.39 101.632 121.581 101.632 121.723C101.634 121.788 101.632 121.853 101.627 121.918Z" fill="#FAFAFA"/>
<path d="M233.407 201.593C245.457 201.111 254.835 190.952 254.353 178.902C253.871 166.852 243.712 157.474 231.662 157.956C219.612 158.437 210.234 168.597 210.716 180.647C211.198 192.697 221.357 202.075 233.407 201.593Z" fill="#263238"/>
<path d="M210.696 179.42C210.696 179.42 210.696 179.461 210.696 179.479C210.613 185.269 212.833 190.855 216.868 195.008C220.903 199.161 226.423 201.541 232.213 201.625C238.003 201.708 243.589 199.488 247.742 195.453C251.895 191.418 254.275 185.898 254.359 180.108V180.053L210.696 179.42Z" fill="#263238"/>
<path d="M217.2 179.57C217.156 182.601 218.012 185.577 219.66 188.122C221.307 190.666 223.672 192.665 226.455 193.866C229.239 195.066 232.316 195.414 235.297 194.866C238.278 194.318 241.03 192.898 243.205 190.786C245.379 188.674 246.878 185.965 247.513 183.001C248.148 180.037 247.889 176.951 246.77 174.134C245.651 171.317 243.722 168.895 241.227 167.174C238.731 165.453 235.781 164.511 232.75 164.466C228.686 164.408 224.764 165.966 221.848 168.799C218.932 171.631 217.26 175.506 217.2 179.57Z" fill="#FAFAFA"/>
<path d="M232.749 164.466C230.736 164.437 228.737 164.804 226.866 165.547C224.995 166.29 223.289 167.395 221.845 168.797C220.401 170.2 219.248 171.873 218.45 173.722C217.653 175.57 217.228 177.558 217.199 179.57L247.853 180.026C247.883 178.012 247.517 176.012 246.775 174.14C246.032 172.268 244.928 170.561 243.525 169.116C242.122 167.671 240.449 166.517 238.6 165.719C236.751 164.921 234.762 164.496 232.749 164.466Z" fill="#E0E0E0"/>
<path d="M223.21 179.657C223.183 181.504 223.705 183.317 224.708 184.867C225.712 186.417 227.153 187.635 228.849 188.367C230.545 189.098 232.42 189.31 234.236 188.976C236.052 188.642 237.729 187.776 239.053 186.489C240.378 185.202 241.291 183.552 241.678 181.745C242.064 179.939 241.906 178.059 241.224 176.343C240.541 174.627 239.365 173.152 237.845 172.104C236.324 171.056 234.526 170.482 232.68 170.456C230.204 170.421 227.816 171.37 226.04 173.096C224.264 174.821 223.246 177.181 223.21 179.657Z" fill="#263238"/>
<path d="M203.812 185.772C203.812 185.772 200.487 154.799 232.581 154.799C262.187 154.799 261.531 181.436 261.249 185.558H256.608C256.608 185.558 258.971 159.304 232.581 159.304C206.19 159.304 208.486 186.091 208.486 186.091C208.486 186.091 206.536 185.995 203.812 185.772Z" fill="#455A64"/>
<path d="M221.014 158.007C220.934 158.048 220.85 158.078 220.763 158.098C220.595 158.157 220.344 158.216 220.034 158.326C219.144 158.609 218.272 158.948 217.425 159.341C214.619 160.628 212.133 162.521 210.147 164.884C208.161 167.247 206.723 170.021 205.937 173.006C205.697 173.905 205.513 174.817 205.386 175.739C205.336 176.067 205.318 176.322 205.29 176.495C205.283 176.584 205.267 176.673 205.245 176.759C205.234 176.671 205.234 176.583 205.245 176.495C205.245 176.317 205.245 176.04 205.3 175.73C205.39 174.793 205.551 173.864 205.782 172.951C206.529 169.921 207.961 167.102 209.968 164.711C211.976 162.321 214.505 160.423 217.361 159.164C218.22 158.78 219.106 158.461 220.012 158.207C220.331 158.116 220.586 158.066 220.754 158.025C220.84 158.009 220.927 158.003 221.014 158.007Z" fill="#FAFAFA"/>
<path d="M279.202 153.839C279.202 153.839 280.373 176.191 280.961 180.721C281.548 185.25 282.719 191.859 282.719 191.859C282.719 191.859 281.882 192.446 281.715 193.033C281.548 193.62 281.798 195.796 281.798 195.796L287.911 196.214C287.911 196.214 288.162 194.708 288.162 191.272V186.155C288.162 185.487 289.169 156.844 289.169 156.844L289.92 186.241C289.92 186.241 289.67 195.368 290.09 195.535C290.503 195.749 290.896 196.001 291.261 196.289L296.62 196.122C296.847 195.132 296.988 194.123 297.04 193.109C297.04 191.934 296.286 189.675 296.37 188.417C296.453 187.16 298.632 176.945 298.632 175.187V147.807H279.374L279.202 153.839Z" fill="#263238" stroke="#263238" stroke-width="0.4" stroke-linecap="round" stroke-linejoin="round"/>
<path d="M287.32 195.796C287.32 195.796 285.06 193.871 284.056 194.038C283.051 194.205 282.128 194.792 282.044 195.042C281.961 195.293 281.373 195.796 281.207 196.297C281.04 196.798 278.36 199.313 277.773 199.984C277.186 200.654 276.768 200.738 277.272 201.155C277.584 201.41 277.954 201.583 278.349 201.659H287.907C287.907 201.659 288.243 200.905 288.157 199.397C288.071 197.889 287.907 196.214 287.907 196.214L287.32 195.796Z" fill="white" stroke="#263238" stroke-width="0.4" stroke-linecap="round" stroke-linejoin="round"/>
<path d="M277.047 200.818C277.047 200.915 277.106 201.015 277.27 201.152C277.582 201.407 277.952 201.58 278.348 201.656H287.905C288.007 201.386 288.075 201.105 288.107 200.818H277.047Z" fill="white" stroke="#263238" stroke-width="0.4" stroke-linecap="round" stroke-linejoin="round"/>
<path d="M291.294 195.796C291.294 195.796 293.424 193.871 294.372 194.038C295.32 194.205 296.187 194.792 296.257 195.042C296.327 195.293 296.887 195.796 297.046 196.297C297.205 196.798 299.739 199.313 300.278 199.984C300.816 200.654 301.226 200.738 300.752 201.155C300.46 201.41 300.106 201.584 299.726 201.659H290.731C290.731 201.659 290.416 200.905 290.494 199.397C290.572 197.889 290.731 196.214 290.731 196.214L291.294 195.796Z" fill="white" stroke="#263238" stroke-width="0.4" stroke-linecap="round" stroke-linejoin="round"/>
<path d="M300.973 200.818C300.973 200.915 300.916 201.015 300.763 201.152C300.471 201.407 300.117 201.581 299.737 201.656H290.742C290.646 201.385 290.582 201.104 290.551 200.818H300.973Z" fill="white" stroke="#263238" stroke-width="0.4" stroke-linecap="round" stroke-linejoin="round"/>
<path d="M286.262 117.783L283.838 119.841L284.275 148.268H294.748C294.748 148.268 295.246 119.216 295.06 118.78C294.874 118.343 293.751 117.907 293.751 117.907L286.262 117.783Z" fill="white" stroke="#263238" stroke-width="0.4" stroke-linecap="round" stroke-linejoin="round"/>
<path d="M304.024 130.169L308.191 131.322C308.191 131.322 303.971 123.582 303.203 121.727C302.603 120.278 301.857 119.842 301.547 119.726C299.95 118.695 293.753 117.908 293.753 117.908L293.269 132.103L292.528 155.662H301.342C301.342 155.662 300.599 147.343 300.19 144.706L299.611 140.998C299.611 140.998 300.324 135.343 300.957 129.927L304.024 130.169Z" fill="#0F913D" stroke="#263238" stroke-width="0.4" stroke-linecap="round" stroke-linejoin="round"/>
<path d="M294.738 135.766C294.466 136.479 294.123 137.162 293.714 137.807" stroke="#263238" stroke-width="0.4" stroke-linecap="round" stroke-linejoin="round"/>
<path d="M295.059 118.779L296.524 122.041L295.32 123.347L297.227 125.655C297.227 125.655 296.483 130.682 295.172 134.577" stroke="#263238" stroke-width="0.4" stroke-linecap="round" stroke-linejoin="round"/>
<path d="M285.537 110.89C285.537 110.89 284.753 109.813 284.19 110.586C283.627 111.359 285.757 114.027 285.757 114.027L285.537 110.89Z" fill="white" stroke="#263238" stroke-width="0.4" stroke-linecap="round" stroke-linejoin="round"/>
<path d="M294.607 110.89C294.607 110.89 295.391 109.813 295.954 110.586C296.517 111.359 294.387 114.027 294.387 114.027L294.607 110.89Z" fill="white" stroke="#263238" stroke-width="0.4" stroke-linecap="round" stroke-linejoin="round"/>
<path d="M285.371 110.282C285.371 110.282 285.851 115.291 285.939 116.164C286.028 117.036 286.33 118.908 286.68 119.56C287.03 120.211 289.424 122.654 290.076 122.393C290.728 122.131 292.995 119.778 293.607 119.08C294.218 118.383 293.997 117.12 294.086 116.815C294.175 116.511 294.519 113.506 294.519 113.506L294.727 110.333C294.727 110.333 294.816 110.029 294.684 108.068C294.552 106.108 294.554 105.235 294.336 104.756C294.118 104.277 293.553 104.015 292.548 103.754C291.544 103.493 289.152 103.539 287.671 104.279C286.19 105.02 285.449 106.065 285.406 106.455C285.363 106.846 285.371 110.282 285.371 110.282Z" fill="white" stroke="#263238" stroke-width="0.4" stroke-linecap="round" stroke-linejoin="round"/>
<path d="M289.381 108.846C289.381 108.846 288.034 107.974 287.289 109.115" stroke="#263238" stroke-width="0.4" stroke-linecap="round" stroke-linejoin="round"/>
<path d="M291.253 108.93C291.538 108.757 291.874 108.684 292.206 108.723C292.538 108.763 292.847 108.913 293.084 109.149" stroke="#263238" stroke-width="0.4" stroke-linecap="round" stroke-linejoin="round"/>
<path d="M290.857 109.365C291.037 109.696 291.13 110.066 291.127 110.442C291.17 111.226 291.038 112.837 291.038 112.837L289.384 112.661" stroke="#263238" stroke-width="0.4" stroke-linecap="round" stroke-linejoin="round"/>
<path d="M288.504 113.244C288.504 113.244 289.331 114.591 291.424 113.896" stroke="#263238" stroke-width="0.4" stroke-linecap="round" stroke-linejoin="round"/>
<path d="M288.776 110.126C288.776 110.379 288.66 110.584 288.507 110.584C288.353 110.584 288.238 110.379 288.238 110.126C288.238 109.873 288.356 109.668 288.507 109.668C288.658 109.668 288.776 109.873 288.776 110.126Z" fill="#263238"/>
<path d="M292.483 110.126C292.483 110.379 292.368 110.584 292.214 110.584C292.061 110.584 291.945 110.379 291.945 110.126C291.945 109.873 292.061 109.668 292.214 109.668C292.368 109.668 292.483 109.873 292.483 110.126Z" fill="#263238"/>
<path d="M289.111 110.719C288.766 111.045 288.348 111.283 287.892 111.414" stroke="#263238" stroke-width="0.4" stroke-linecap="round" stroke-linejoin="round"/>
<path d="M291.678 110.719C291.678 110.719 292.2 111.327 292.812 111.414" stroke="#263238" stroke-width="0.4" stroke-linecap="round" stroke-linejoin="round"/>
<path d="M288.554 117.428C288.554 117.428 289.383 118.43 291.691 117.471" stroke="#263238" stroke-width="0.4" stroke-linecap="round" stroke-linejoin="round"/>
<path d="M284.886 106.187C284.886 106.187 285.015 110.587 285.156 110.673C285.296 110.759 285.678 110.848 285.764 110.544C285.818 110.067 285.832 109.586 285.807 109.106C285.807 109.106 286.244 109.063 286.33 108.365C286.416 107.668 286.025 106.448 286.025 106.448C286.025 106.448 287.593 105.317 289.074 104.881C290.555 104.444 291.341 105.099 292.254 105.15C292.791 105.18 293.319 105.009 293.735 104.671C293.735 104.671 293.299 105.325 293.299 105.629C293.299 105.934 293.867 107.547 293.779 108.026C293.69 108.505 293.606 109.028 293.867 109.2C294.129 109.373 294.433 109.593 294.433 109.593C294.433 109.593 294.433 110.77 294.608 110.856C294.783 110.943 295.087 110.466 295.13 109.812C295.174 109.157 295.174 107.59 295.4 107.119C295.626 106.647 295.965 106.292 295.704 105.594C295.443 104.897 294.527 104.288 294.398 104.248C294.269 104.207 292.612 102.072 290.477 101.555C288.341 101.038 284.945 104.083 284.595 105.042C284.245 106.001 284.886 106.187 284.886 106.187Z" fill="#263238" stroke="#263238" stroke-width="0.4" stroke-linecap="round" stroke-linejoin="round"/>
<path d="M265.669 121.644C265.422 121.031 265.222 120.401 265.068 119.759C264.974 119.158 264.234 118.186 263.496 117.909C262.698 117.601 261.985 117.109 261.414 116.473C260.765 115.781 260.396 115.55 260.302 116.242C260.208 116.934 260.673 117.26 261.137 117.677C261.6 118.095 262.06 118.464 262.06 118.464C261.596 118.614 261.115 118.704 260.628 118.733C259.773 118.775 258.916 118.697 258.083 118.501C257.388 118.315 254.983 116.56 255.215 117.252C255.446 117.944 256.602 118.824 257.528 119.705C258.454 120.586 259.055 121.051 260.119 121.369C261.182 121.687 262.892 122.11 262.892 122.11L263.865 123.405L265.669 121.644Z" fill="white" stroke="#263238" stroke-width="0.4" stroke-linecap="round" stroke-linejoin="round"/>
<path d="M258.503 120.395C258.503 120.395 257.022 119.286 256.79 118.036C256.559 116.787 256.653 116.326 256.976 116.509C257.299 116.692 258.086 118.5 258.086 118.5L259.473 120.026" fill="white"/>
<path d="M258.503 120.395C258.503 120.395 257.022 119.286 256.79 118.036C256.559 116.787 256.653 116.326 256.976 116.509C257.299 116.692 258.086 118.5 258.086 118.5L259.473 120.026" stroke="#263238" stroke-width="0.4" stroke-linecap="round" stroke-linejoin="round"/>
<path d="M259.75 121.003C259.75 121.003 258.363 120.168 258.226 119.336C258.088 118.504 257.763 116.053 258.086 116.236C258.409 116.419 259.058 119.013 259.058 119.013L259.844 119.708" fill="white"/>
<path d="M259.75 121.003C259.75 121.003 258.363 120.168 258.226 119.336C258.088 118.504 257.763 116.053 258.086 116.236C258.409 116.419 259.058 119.013 259.058 119.013L259.844 119.708" stroke="#263238" stroke-width="0.4" stroke-linecap="round" stroke-linejoin="round"/>
<path d="M260.515 121.044C260.515 121.044 259.682 119.429 259.497 118.917C259.311 118.405 258.896 116.28 259.314 116.372C259.731 116.464 260.1 118.591 260.1 118.591L261.164 119.938C261.164 119.938 262.642 119.474 263.049 119.566C263.455 119.657 263.975 120.492 263.975 120.492" fill="white"/>
<path d="M260.515 121.044C260.515 121.044 259.682 119.429 259.497 118.917C259.311 118.405 258.896 116.28 259.314 116.372C259.731 116.464 260.1 118.591 260.1 118.591L261.164 119.938C261.164 119.938 262.642 119.474 263.049 119.566C263.455 119.657 263.975 120.492 263.975 120.492" stroke="#263238" stroke-width="0.4" stroke-linecap="round" stroke-linejoin="round"/>
<path d="M266.77 122.378L265.663 121.352L262.93 124.203L263.732 125.256L266.77 122.378Z" fill="white" stroke="#263238" stroke-width="0.4" stroke-linecap="round" stroke-linejoin="round"/>
<path d="M286.265 117.783C286.265 117.783 285.327 125.2 285.204 129.441C285.08 133.683 285.516 155.938 285.516 155.938L277.224 155.687C277.224 155.687 278.159 147.832 278.84 144.964C279.309 142.752 279.476 140.488 279.338 138.231C279.276 137.857 278.84 134.429 278.84 134.429C278.84 134.429 274.162 137.545 273.602 137.483C273.042 137.421 269.799 135.059 267.306 131.935C265.72 129.886 264.439 127.618 263.503 125.202L266.452 121.833L273.435 128.816C273.435 128.816 277.049 121.524 277.423 121.335C277.798 121.147 286.265 117.783 286.265 117.783Z" fill="#0F913D" stroke="#263238" stroke-width="0.4" stroke-linecap="round" stroke-linejoin="round"/>
<path d="M282.81 130.602C283.264 133.018 283.914 135.393 284.755 137.703" stroke="#263238" stroke-width="0.4" stroke-linecap="round" stroke-linejoin="round"/>
<path d="M284.657 119.029L283.149 122.845L284.355 123.85L282.247 126.058C282.296 127.196 282.417 128.331 282.608 129.454" stroke="#263238" stroke-width="0.4" stroke-linecap="round" stroke-linejoin="round"/>
<path d="M278.653 133.431C278.653 133.431 277.406 127.945 277.037 125.764L278.653 133.431Z" fill="white"/>
<path d="M278.653 133.431C278.653 133.431 277.406 127.945 277.037 125.764" stroke="#263238" stroke-width="0.4" stroke-linecap="round" stroke-linejoin="round"/>
<path d="M286.122 122.02L287.186 125.141L290.073 122.391L292.364 125.353L293.369 122.69" fill="white"/>
<path d="M286.122 122.02L287.186 125.141L290.073 122.391L292.364 125.353L293.369 122.69" stroke="#263238" stroke-width="0.4" stroke-linecap="round" stroke-linejoin="round"/>
<path d="M291.177 124.006L289.873 126.332L288.376 123.99L290.067 122.393L291.177 124.006Z" fill="#263238" stroke="#263238" stroke-width="0.4" stroke-linecap="round" stroke-linejoin="round"/>
<path d="M289.885 126.336L286.982 145.774L289.57 147.856L291.59 145.712L289.885 126.336Z" fill="#263238" stroke="#263238" stroke-width="0.4" stroke-linecap="round" stroke-linejoin="round"/>
<path d="M301.407 118.441C303.476 117.949 304.755 115.873 304.263 113.804C303.771 111.734 301.695 110.456 299.626 110.947C297.557 111.439 296.278 113.515 296.77 115.585C297.262 117.654 299.338 118.932 301.407 118.441Z" fill="white" stroke="#263238" stroke-width="0.4" stroke-linecap="round" stroke-linejoin="round"/>
<path d="M297.995 119.649C297.995 119.649 297.863 121.373 297.963 121.704C298.063 122.035 298.771 123.36 298.771 123.36C298.771 123.36 298.671 124.289 298.835 124.588C299 124.887 300.591 126.775 300.591 126.775L302.476 125.116L301.407 122.994L301.375 120.245C301.375 120.245 299.301 118.459 297.995 119.649Z" fill="white" stroke="#263238" stroke-width="0.4" stroke-linecap="round" stroke-linejoin="round"/>
<path d="M298.934 117.742L299.516 122.523C299.548 122.766 299.674 122.987 299.868 123.138C300.061 123.289 300.306 123.358 300.55 123.33C300.784 123.304 301.001 123.19 301.155 123.011C301.309 122.833 301.39 122.602 301.382 122.366L301.215 117.484C301.215 117.484 299.777 116.404 298.934 117.742Z" fill="white" stroke="#263238" stroke-width="0.4" stroke-linecap="round" stroke-linejoin="round"/>
<path d="M299.026 118.787C299.026 118.787 297.787 118.935 297.787 119.326C297.787 119.716 298.232 121.507 298.628 121.607C299.023 121.706 299.322 121.706 299.322 120.912C299.282 120.197 299.183 119.486 299.026 118.787Z" fill="white" stroke="#263238" stroke-width="0.4" stroke-linecap="round" stroke-linejoin="round"/>
<path d="M301.96 120.125C301.96 120.125 299.084 120.373 299.035 120.664C298.987 120.954 299.084 121.706 299.283 121.706C299.482 121.706 302.057 121.725 302.108 121.436C302.159 121.148 302.307 120.521 301.96 120.125Z" fill="white" stroke="#263238" stroke-width="0.4" stroke-linecap="round" stroke-linejoin="round"/>
<path d="M301.863 121.521C301.863 121.521 299.302 121.664 299.248 121.928C299.195 122.192 299.265 122.855 299.442 122.86C299.62 122.865 301.906 122.951 301.96 122.701C302.014 122.451 302.162 121.882 301.863 121.521Z" fill="white" stroke="#263238" stroke-width="0.4" stroke-linecap="round" stroke-linejoin="round"/>
<path d="M301.514 122.764C301.514 122.764 299.391 122.882 299.359 123.1C299.327 123.318 299.373 123.868 299.521 123.873C299.669 123.879 301.559 123.949 301.602 123.741C301.645 123.534 301.761 123.063 301.514 122.764Z" fill="white" stroke="#263238" stroke-width="0.4" stroke-linecap="round" stroke-linejoin="round"/>
<path d="M301.752 118.834C301.752 118.834 298.876 119.082 298.828 119.373C298.779 119.663 298.876 120.412 299.076 120.412C299.275 120.412 301.849 120.434 301.901 120.143C301.952 119.852 302.1 119.219 301.752 118.834Z" fill="white" stroke="#263238" stroke-width="0.4" stroke-linecap="round" stroke-linejoin="round"/>
<path d="M302.429 124.168L301.594 123.74L299.33 126.517L300.259 127.756L302.429 124.168Z" fill="white" stroke="#263238" stroke-width="0.4" stroke-linecap="round" stroke-linejoin="round"/>
<path d="M302.264 123.68C302.264 123.68 301.44 125.6 300.823 126.287C300.207 126.973 299.517 127.59 299.517 127.59C299.517 127.59 302.399 134.384 302.803 135.688C303.207 136.991 304.793 137.883 305.48 138.087C306.166 138.292 307.812 137.745 308.442 137.059C309.072 136.372 309.95 134.177 309.471 132.944C308.991 131.71 302.264 123.68 302.264 123.68Z" fill="#0F913D" stroke="#263238" stroke-width="0.4" stroke-linecap="round" stroke-linejoin="round"/>
<path d="M306.985 119.8C310.71 118.836 312.948 115.035 311.984 111.31C311.02 107.585 307.219 105.347 303.494 106.311C299.769 107.275 297.531 111.076 298.495 114.801C299.459 118.526 303.26 120.764 306.985 119.8Z" fill="#0F913D" stroke="#263238" stroke-width="0.4" stroke-linecap="round" stroke-linejoin="round"/>
<path d="M306.519 118.584C309.573 117.877 311.477 114.828 310.771 111.774C310.064 108.719 307.015 106.815 303.961 107.522C300.906 108.228 299.002 111.277 299.709 114.332C300.415 117.386 303.464 119.29 306.519 118.584Z" fill="#263238" stroke="#263238" stroke-width="0.4" stroke-linecap="round" stroke-linejoin="round"/>
<path d="M304.687 115.634C305.958 115.634 306.989 114.603 306.989 113.332C306.989 112.06 305.958 111.029 304.687 111.029C303.415 111.029 302.384 112.06 302.384 113.332C302.384 114.603 303.415 115.634 304.687 115.634Z" fill="white" stroke="#263238" stroke-width="0.4" stroke-linecap="round" stroke-linejoin="round"/>
<path d="M306.508 113.059C306.509 112.807 306.435 112.561 306.295 112.352C306.156 112.143 305.958 111.979 305.725 111.883C305.493 111.786 305.238 111.761 304.991 111.809C304.744 111.858 304.517 111.979 304.339 112.157C304.161 112.334 304.04 112.561 303.991 112.807C303.941 113.054 303.966 113.31 304.063 113.542C304.159 113.774 304.322 113.973 304.531 114.113C304.74 114.253 304.986 114.327 305.237 114.327C305.574 114.327 305.897 114.194 306.135 113.956C306.373 113.718 306.507 113.396 306.508 113.059Z" fill="#0F913D" stroke="#263238" stroke-width="0.4" stroke-linecap="round" stroke-linejoin="round"/>
</svg>
